<?xml version="1.0"?>
<svg xmlns="http://www.w3.org/2000/svg" fill="#ffffff" viewBox="0 0 64 64" width="512" height="512"><g id="Rating"><path d="M35,51.071v-1.1A4.977,4.977,0,0,0,37,46V45a1,1,0,0,0,1-1V42a6,6,0,0,0-12,0v2a1,1,0,0,0,1,1v1a4.977,4.977,0,0,0,2,3.974v1.1A7.011,7.011,0,0,0,23,58v3a1,1,0,0,0,1,1H40a1,1,0,0,0,1-1V58A7.011,7.011,0,0,0,35,51.071ZM28,42a4,4,0,0,1,8,0v1h-.171a1,1,0,0,1-.708-.293l-1.414-1.414a1,1,0,0,0-1.414,0l-.829.829A3.02,3.02,0,0,1,29.343,43H28Zm1.343,3a4.966,4.966,0,0,0,3.535-1.464L33,43.414l.707.707A2.96,2.96,0,0,0,35,44.87V46a3,3,0,0,1-6,0V45ZM32,51a5,5,0,0,0,1-.1v.687l-1,1-1-1V50.9A5,5,0,0,0,32,51Zm-7,7a4.991,4.991,0,0,1,4.624-4.962L31,54.414V60H25Zm14,2H33V54.414l1.376-1.376A4.991,4.991,0,0,1,39,58Z"/><path d="M56,51.071v-1.1A4.977,4.977,0,0,0,58,46V45a1,1,0,0,0,1-1V42a6,6,0,0,0-12,0v2a1,1,0,0,0,1,1v1a4.977,4.977,0,0,0,2,3.974v1.1A7.011,7.011,0,0,0,44,58v3a1,1,0,0,0,1,1H61a1,1,0,0,0,1-1V58A7.011,7.011,0,0,0,56,51.071ZM49,42a4,4,0,0,1,8,0v1h-.171a1,1,0,0,1-.708-.293l-1.414-1.414a1,1,0,0,0-1.414,0l-.829.829A3.02,3.02,0,0,1,50.343,43H49Zm1.343,3a4.966,4.966,0,0,0,3.535-1.464L54,43.414l.707.707A2.96,2.96,0,0,0,56,44.87V46a3,3,0,0,1-6,0V45ZM53,51a5,5,0,0,0,1-.1v.687l-1,1-1-1V50.9A5,5,0,0,0,53,51Zm-7,7a4.991,4.991,0,0,1,4.624-4.962L52,54.414V60H46Zm14,2H54V54.414l1.376-1.376A4.991,4.991,0,0,1,60,58Z"/><path d="M14,51.071v-1.1A4.977,4.977,0,0,0,16,46V45a1,1,0,0,0,1-1V42A6,6,0,0,0,5,42v2a1,1,0,0,0,1,1v1a4.977,4.977,0,0,0,2,3.974v1.1A7.011,7.011,0,0,0,2,58v3a1,1,0,0,0,1,1H19a1,1,0,0,0,1-1V58A7.011,7.011,0,0,0,14,51.071ZM7,42a4,4,0,0,1,8,0v1h-.171a1,1,0,0,1-.708-.293l-1.414-1.414a1,1,0,0,0-1.414,0l-.829.829A3.02,3.02,0,0,1,8.343,43H7Zm1.343,3a4.966,4.966,0,0,0,3.535-1.464L12,43.414l.707.707A2.96,2.96,0,0,0,14,44.87V46a3,3,0,0,1-6,0V45ZM11,51a5,5,0,0,0,1-.1v.687l-1,1-1-1V50.9A5,5,0,0,0,11,51ZM4,58a4.991,4.991,0,0,1,4.624-4.962L10,54.414V60H4Zm14,2H12V54.414l1.376-1.376A4.991,4.991,0,0,1,18,58Z"/><path d="M43.077,10.5A1.975,1.975,0,0,0,41.141,9H35.633L33.9,3.674a2,2,0,0,0-3.8,0L28.367,9H22.859a2,2,0,0,0-.971,3.748l4.857,2.7-2.114,5.283a1.969,1.969,0,0,0,.7,2.378,1.968,1.968,0,0,0,2.475-.135L32,19.278l4.189,3.694a2,2,0,0,0,3.18-2.243l-2.113-5.283,4.856-2.7A1.975,1.975,0,0,0,43.077,10.5Zm-6.793,3.2a2.006,2.006,0,0,0-.886,2.491l2.114,5.283-4.189-3.694a2,2,0,0,0-2.646,0l-4.189,3.694L28.6,16.189a2.006,2.006,0,0,0-.886-2.491L22.859,11h5.508a2,2,0,0,0,1.9-1.382L32,4.28l0,.012,1.73,5.326A2,2,0,0,0,35.633,11h5.508Z"/><path d="M45.389,21.42a1.988,1.988,0,0,0,.8,2.244l2.56,1.707-1.031,2.406a1.969,1.969,0,0,0,.643,2.391A1.969,1.969,0,0,0,50.84,30.1L53,28.3l2.16,1.8a2,2,0,0,0,3.118-2.324l-1.031-2.406,2.56-1.707A2,2,0,0,0,58.7,20H55.916l-1.007-3.231a2,2,0,0,0-3.818,0L50.084,20H47.3A1.988,1.988,0,0,0,45.389,21.42Zm6.6-.825,1-3.244.005.012h0l1.006,3.23A1.99,1.99,0,0,0,55.916,22H58.7l-2.56,1.707a2,2,0,0,0-.728,2.452l1.031,2.406-2.159-1.8a2,2,0,0,0-2.561,0l-2.16,1.8,1.032-2.407a2,2,0,0,0-.729-2.451L47.3,22h2.781A1.991,1.991,0,0,0,51.994,20.6Z"/><path d="M4.193,23.664l2.56,1.707L5.722,27.777a1.969,1.969,0,0,0,.643,2.391A1.969,1.969,0,0,0,8.84,30.1L11,28.3l2.16,1.8a2,2,0,0,0,3.118-2.324l-1.031-2.406,2.56-1.707A2,2,0,0,0,16.7,20H13.916L12.91,16.77a2,2,0,0,0-3.819,0L8.084,20H5.3a2,2,0,0,0-1.11,3.664ZM8.084,22A1.991,1.991,0,0,0,9.994,20.6L11,17.364l1.006,3.23A1.99,1.99,0,0,0,13.916,22H16.7l-2.56,1.707a2,2,0,0,0-.728,2.452l1.031,2.406-2.159-1.8a2,2,0,0,0-2.561,0l-2.16,1.8,1.032-2.407a2,2,0,0,0-.729-2.451L5.3,22Z"/><path d="M10.024,30.953Q10,31.474,10,32c0,.7.033,1.405.1,2.095l1.991-.19C12.03,33.278,12,32.637,12,32c0-.32.007-.637.022-.953Z"/><path d="M53.9,34.1c.066-.69.1-1.395.1-2.095q0-.526-.024-1.047l-2,.094c.015.316.022.633.022.953,0,.637-.03,1.278-.09,1.905Z"/><rect x="18.955" y="13.798" width="2" height="2" transform="translate(-4.879 14.117) rotate(-34.99)"/><rect x="16.151" y="16.151" width="2" height="2" transform="translate(-7.104 17.151) rotate(-45)"/><rect x="45.849" y="16.151" width="2" height="2" transform="translate(1.594 38.151) rotate(-45)"/><rect x="43.045" y="13.798" width="2" height="2" transform="translate(6.671 42.404) rotate(-55.022)"/></g></svg>
