<svg width="57" height="106" viewBox="0 0 57 106" fill="none" xmlns="http://www.w3.org/2000/svg">
<g clip-path="url(#clip0)">
<path d="M51.602 41.9004L28.0773 43.8942L4.55273 41.9004L10.1333 98.3636C10.1333 102.372 18.1393 105.619 28.0157 105.619C36.5561 105.619 43.6988 103.184 45.487 99.936C45.7206 99.4303 45.9064 98.9039 46.042 98.3636L51.602 41.9004Z" fill="#EFDCDC"/>
<path d="M46.5459 93.0909L50.8006 50.0396C45.1276 51.9511 36.0322 53.2049 25.7858 53.2049C18.9726 53.2705 12.1708 52.6334 5.48828 51.3037L9.73278 94.3448H9.88694C11.2641 97.8185 18.8898 100.511 28.1085 100.511C37.3272 100.511 44.9426 97.8493 46.3198 94.3448C46.3198 94.3448 46.5459 93.132 46.5459 93.0909Z" fill="#EFDCDC"/>
<path d="M15.1281 98.3738L12.7746 52.4756C11.1508 52.2906 9.61952 52.0645 8.16016 51.8179C8.67402 59.0119 10.6472 86.2261 11.3667 96.267C12.501 97.1639 13.7707 97.8751 15.1281 98.3738Z" fill="#EE6B73"/>
<path d="M21.8287 53.1334C20.1227 53.0718 18.4578 52.9895 16.8442 52.8662L18.8997 99.5146C20.2762 99.8239 21.6694 100.054 23.0723 100.203L21.8287 53.1334Z" fill="#EE6B73"/>
<path d="M39.3209 52.4136C37.7485 52.5986 36.1041 52.763 34.3878 52.8863L34.0178 100.09C35.6309 99.8813 37.2276 99.562 38.7967 99.1339L39.3209 52.4136Z" fill="#EE6B73"/>
<path d="M31.3867 100.357L30.6673 53.082C29.0743 53.1437 27.4505 53.1848 25.7856 53.1848H25.6931V100.409C26.4845 100.409 27.2758 100.481 28.098 100.481C29.2285 100.481 30.3282 100.44 31.3867 100.357Z" fill="#EE6B73"/>
<path d="M47.9433 50.8721C46.5867 51.2112 45.1067 51.5298 43.524 51.8073L41.1089 98.3735C42.6811 97.8205 44.1225 96.9494 45.3431 95.8145L47.9433 50.8721Z" fill="#EE6B73"/>
<g style="mix-blend-mode:overlay" opacity="0.4">
<g style="mix-blend-mode:overlay" opacity="0.4">
<path d="M24.3161 78.4664C23.6173 75.3832 22.2607 71.8787 19.5577 71.0154C16.6493 70.0801 14.2033 73.1736 13.2783 76.3082C12.3791 79.7743 12.0323 83.3606 12.2506 86.9348C12.3267 88.9773 12.5327 91.0129 12.8673 93.0292C13.0759 94.8141 13.5831 96.5512 14.3677 98.1679C14.9372 99.2026 15.7665 100.071 16.774 100.687C17.7814 101.304 18.9322 101.647 20.1127 101.683C20.8467 102.134 21.7285 102.279 22.5683 102.087C23.4082 101.894 24.1391 101.38 24.6039 100.655C25.498 99.2984 25.4672 97.4485 25.5597 95.7835C25.6727 93.7281 25.7138 91.7343 25.6521 89.7097C25.5684 85.9277 25.121 82.1626 24.3161 78.4664Z" fill="#FFF0F5"/>
</g>
<g style="mix-blend-mode:overlay" opacity="0.4">
<path d="M13.4431 63.4514C13.7144 64.7018 14.4487 65.8032 15.4985 66.5345C15.7973 66.7012 16.1147 66.8323 16.444 66.9251C17.1501 67.289 17.9418 67.4545 18.7345 67.4038C19.5273 67.3531 20.2914 67.0882 20.9455 66.6373C21.7793 66.0245 22.4779 65.2465 22.9977 64.3518C23.5175 63.4571 23.8475 62.4649 23.967 61.437C24.6658 56.987 23.1756 51.3859 19.7739 49.3304C17.9034 48.1691 15.3752 47.8916 13.8131 49.9574C12.5078 51.7045 12.3742 54.243 12.4359 56.504C12.4574 58.8545 12.7962 61.1915 13.4431 63.4514Z" fill="#FFF0F5"/>
</g>
</g>
<path d="M52.1365 35.9702C47.1726 33.9148 38.293 32.5273 28.1596 32.5273C17.1836 32.5376 7.68738 34.1511 3.08317 36.5149L0 34.4081V39.7831C0 43.7912 12.6102 47.0388 28.1596 47.0388C43.7091 47.0388 56.3193 43.7912 56.3193 39.7831V34.6445L52.1365 35.9702Z" fill="#DDBABA"/>
<path d="M28.1596 41.8898C43.7118 41.8898 56.3193 38.6459 56.3193 34.6444C56.3193 30.6428 43.7118 27.3989 28.1596 27.3989C12.6075 27.3989 0 30.6428 0 34.6444C0 38.6459 12.6075 41.8898 28.1596 41.8898Z" fill="#EFDCDC"/>
<path d="M28.1599 39.7832C17.1735 39.7832 5.48828 37.9025 5.48828 34.4082C5.48828 30.9139 17.1735 29.0332 28.1599 29.0332C39.1463 29.0332 50.8315 30.9242 50.8315 34.4082C50.8315 37.8922 39.1463 39.7832 28.1599 39.7832ZM28.1599 30.0609C14.7995 30.0609 6.51601 32.5994 6.51601 34.4082C6.51601 36.217 14.7378 38.7555 28.1599 38.7555C41.582 38.7555 49.8038 36.2273 49.8038 34.4082C49.8038 32.5891 41.5614 30.0609 28.1599 30.0609Z" fill="#DDBABA"/>
<g style="mix-blend-mode:overlay" opacity="0.4">
<path d="M0.0822754 34.1305C4.6639 35.1456 9.34627 35.6352 14.0388 35.5899C26.0631 35.5899 35.806 32.7842 35.806 29.3413C35.7861 29.0101 35.6994 28.6864 35.551 28.3897C35.4027 28.0929 35.1957 27.8293 34.9427 27.6147C32.7742 27.4709 30.5029 27.3989 28.1597 27.3989C13.2885 27.3989 1.11 30.369 0.0822754 34.1305Z" fill="#FFF0F5"/>
</g>
<path d="M53.4418 2.0553C53.4092 1.74355 53.3138 1.44163 53.1613 1.16773C53.0089 0.893831 52.8026 0.653623 52.5548 0.461576C52.3071 0.269528 52.023 0.129615 51.7198 0.050263C51.4165 -0.0290886 51.1004 -0.0462361 50.7903 -0.000146601C32.394 2.47667 31.2635 3.74077 30.7086 4.42935C30.1536 5.11792 29.1259 6.27925 26.0324 34.3259C25.9982 34.629 26.0243 34.936 26.1093 35.229C26.1942 35.5221 26.3363 35.7954 26.5274 36.0333C26.7184 36.2712 26.9547 36.4689 27.2225 36.615C27.4903 36.7612 27.7844 36.8529 28.0879 36.8849H28.3448C28.9143 36.8859 29.4641 36.6767 29.8889 36.2974C30.3137 35.9181 30.5836 35.3954 30.6469 34.8294C31.8596 23.4114 33.5348 10.7499 34.3056 7.61529C36.6488 6.85478 44.5828 5.55984 51.4069 4.60406C52.013 4.53178 52.5662 4.22387 52.947 3.74691C53.3278 3.26996 53.5055 2.66229 53.4418 2.0553Z" fill="#954ABB"/>
<path d="M29.6192 27.4095C30.0508 22.7231 30.6709 18.0606 31.4794 13.4222C31.6952 12.1273 29.7117 11.6031 29.4856 12.9083C28.6497 17.7044 28.0091 22.5518 27.5637 27.4506C27.5637 27.7232 27.672 27.9846 27.8647 28.1773C28.0575 28.3701 28.3189 28.4783 28.5914 28.4783C28.864 28.4783 29.1254 28.3701 29.3182 28.1773C29.5109 27.9846 29.6192 27.7232 29.6192 27.4506V27.4095Z" fill="#A161C8"/>
<path d="M31.8597 10.1639L32.0138 9.77336C32.0495 9.63865 32.0495 9.49697 32.0138 9.36226C32.0025 9.2277 31.9605 9.09751 31.891 8.98171C31.8215 8.86591 31.7264 8.76757 31.613 8.69424C31.5127 8.60808 31.3927 8.54806 31.2636 8.51953H30.9964C30.8119 8.51959 30.6309 8.56928 30.4722 8.66341L30.2667 8.82785C30.146 8.95974 30.058 9.11816 30.0098 9.29032C29.9584 9.42393 29.9173 9.55753 29.8659 9.68086C29.8247 9.81479 29.8247 9.95802 29.8659 10.0919C29.8691 10.228 29.9119 10.3602 29.9892 10.4722C30.053 10.5888 30.1449 10.6877 30.2564 10.76C30.3591 10.8484 30.4831 10.9086 30.6161 10.9347H30.8833C31.0643 10.9328 31.2415 10.8832 31.3972 10.7908L31.6027 10.6264C31.7306 10.4998 31.8198 10.3394 31.8597 10.1639Z" fill="#A161C8"/>
<path d="M41.9927 4.04933C43.7604 3.59028 45.5452 3.21345 47.3471 2.91883C47.4774 2.88315 47.5994 2.82214 47.7061 2.73928C47.8128 2.65642 47.9021 2.55333 47.9689 2.43593C48.0357 2.31852 48.0787 2.18909 48.0955 2.05505C48.1122 1.921 48.1024 1.78497 48.0665 1.65473C48.0308 1.52444 47.9698 1.40246 47.887 1.29577C47.8041 1.18908 47.701 1.09977 47.5836 1.03295C47.4662 0.966138 47.3368 0.923123 47.2027 0.906371C47.0687 0.889618 46.9327 0.899457 46.8024 0.935324C44.9996 1.21694 43.2125 1.59083 41.448 2.05554C41.3075 2.08094 41.1738 2.13534 41.0554 2.21527C40.9371 2.29521 40.8367 2.39893 40.7607 2.51981C40.6847 2.64069 40.6347 2.77609 40.614 2.91737C40.5932 3.05865 40.6021 3.2027 40.6401 3.34035C40.6781 3.478 40.7443 3.60622 40.8346 3.71683C40.925 3.82745 41.0373 3.91803 41.1646 3.9828C41.2918 4.04757 41.4312 4.08511 41.5738 4.09303C41.7164 4.10094 41.859 4.07906 41.9927 4.02877V4.04933Z" fill="#A161C8"/>
<path d="M31.0784 6.08395C31.7996 6.43163 32.4877 6.84443 33.1338 7.31722C33.1629 7.33836 33.1961 7.35317 33.2313 7.36068C33.2664 7.3682 33.3028 7.36825 33.3379 7.36083C33.3731 7.35342 33.4063 7.33871 33.4355 7.31765C33.4646 7.29659 33.489 7.26964 33.5071 7.23856C33.5251 7.20748 33.5365 7.17296 33.5404 7.13722C33.5443 7.10148 33.5406 7.06532 33.5297 7.03108C33.5187 6.99684 33.5007 6.96529 33.4767 6.93845C33.4528 6.91162 33.4235 6.8901 33.3908 6.8753C32.7446 6.40251 32.0566 5.98971 31.3353 5.64203C31.2761 5.61088 31.2073 5.6031 31.1426 5.62023C31.0779 5.63735 31.022 5.67814 30.9859 5.73452C30.9678 5.7632 30.9558 5.79531 30.9506 5.82884C30.9455 5.86237 30.9473 5.8966 30.956 5.9294C30.9646 5.96219 30.98 5.99284 31.0011 6.01944C31.0221 6.04603 31.0485 6.06799 31.0784 6.08395Z" fill="#7B34A5"/>
<path d="M32.6199 4.6656C33.1306 5.22854 33.5881 5.83749 33.9867 6.48467C34.0241 6.53611 34.0793 6.57185 34.1415 6.58497C34.2038 6.59808 34.2687 6.58764 34.3237 6.55567C34.3787 6.52371 34.4198 6.47248 34.4392 6.4119C34.4586 6.35132 34.4549 6.2857 34.4287 6.22774C34.0108 5.54047 33.5254 4.89665 32.9796 4.3059C32.9575 4.27645 32.9293 4.25209 32.897 4.23447C32.8647 4.21685 32.829 4.20638 32.7922 4.20377C32.7555 4.20116 32.7187 4.20647 32.6842 4.21934C32.6497 4.23222 32.6184 4.25235 32.5923 4.27838C32.5663 4.30441 32.5462 4.33573 32.5333 4.37021C32.5204 4.4047 32.5151 4.44155 32.5177 4.47827C32.5203 4.51499 32.5308 4.55072 32.5484 4.58304C32.5661 4.61536 32.5904 4.64351 32.6199 4.6656Z" fill="#7B34A5"/>
</g>
<defs>
<clipPath id="clip0">
<rect width="56.3193" height="105.619" fill="white"/>
</clipPath>
</defs>
</svg>
