<svg width="31" height="32" viewBox="0 0 31 32" fill="none" xmlns="http://www.w3.org/2000/svg">
<g opacity="0.3" clip-path="url(#clip0)">
<path d="M17.6748 4.63848L20.5076 10.3705C20.5902 10.5341 20.7108 10.6757 20.8593 10.7833C21.0078 10.8909 21.1798 10.9615 21.3611 10.9892L27.6906 11.8986C27.9007 11.9278 28.0984 12.0157 28.2609 12.1521C28.4235 12.2886 28.5443 12.468 28.6096 12.6699C28.6749 12.8718 28.682 13.088 28.6301 13.2937C28.5783 13.4995 28.4695 13.6864 28.3163 13.8333L23.7489 18.2697C23.6206 18.4006 23.5257 18.5604 23.472 18.7356C23.4184 18.9109 23.4076 19.0964 23.4406 19.2767L24.5247 25.5746C24.5621 25.7833 24.54 25.9982 24.4609 26.1949C24.3819 26.3916 24.2491 26.5621 24.0778 26.6869C23.9064 26.8117 23.7035 26.8857 23.492 26.9006C23.2806 26.9155 23.0692 26.8706 22.8821 26.7711L17.2255 23.8067C17.0629 23.7202 16.8816 23.6747 16.6974 23.6743C16.5133 23.6738 16.3317 23.7184 16.1687 23.8041L10.4939 26.8075C10.3068 26.9053 10.0962 26.9491 9.88568 26.934C9.67514 26.9188 9.47297 26.8453 9.30183 26.7218C9.13068 26.5982 8.99733 26.4294 8.9167 26.2343C8.83607 26.0393 8.81135 25.8256 8.84531 25.6172L9.91475 19.3368C9.94605 19.1562 9.93241 18.9707 9.87502 18.7967C9.81763 18.6227 9.71827 18.4654 9.5857 18.3389L5.01449 13.8543C4.86013 13.7098 4.74941 13.5249 4.69492 13.3207C4.64043 13.1164 4.64435 12.9009 4.70624 12.6987C4.76814 12.4966 4.88551 12.3158 5.04503 12.1771C5.20454 12.0383 5.3998 11.9471 5.60858 11.9138L11.9657 10.9937C12.1473 10.9658 12.3196 10.8949 12.4681 10.7869C12.6166 10.6788 12.7372 10.5368 12.8196 10.3726L15.6306 4.66905C15.721 4.47594 15.8638 4.31214 16.0429 4.19637C16.2219 4.0806 16.4299 4.01751 16.6431 4.01433C16.8563 4.01114 17.0661 4.06797 17.2485 4.17834C17.431 4.28871 17.5787 4.44816 17.6748 4.63848V4.63848Z" fill="#EAB300"/>
<path d="M17.4219 3.77415L20.2546 9.50614C20.3363 9.67053 20.4567 9.81267 20.6053 9.92042C20.754 10.0282 20.9265 10.0983 21.1082 10.1248L27.4376 11.0342C27.6463 11.066 27.842 11.1552 28.0029 11.2919C28.1637 11.4286 28.2833 11.6074 28.3483 11.8083C28.4132 12.0091 28.421 12.2241 28.3706 12.4291C28.3203 12.6341 28.2139 12.821 28.0633 12.9689L23.5026 17.4074C23.3729 17.5373 23.2769 17.697 23.2231 17.8725C23.1694 18.0481 23.1595 18.2341 23.1944 18.4144L24.2851 24.7144C24.3225 24.923 24.3004 25.138 24.2213 25.3347C24.1423 25.5313 24.0095 25.7018 23.8382 25.8266C23.6668 25.9514 23.4639 26.0255 23.2524 26.0404C23.041 26.0553 22.8296 26.0104 22.6425 25.9109L16.9859 22.9465C16.824 22.8614 16.6438 22.8169 16.4609 22.8168C16.278 22.8167 16.0978 22.861 15.9358 22.9459L10.2758 25.9247C10.0909 26.0315 9.87952 26.0838 9.66615 26.0754C9.45277 26.067 9.24615 25.9983 9.07023 25.8772C8.89431 25.7562 8.75629 25.5878 8.67217 25.3915C8.58805 25.1952 8.56128 24.9791 8.59495 24.7683L9.66793 18.4524C9.6986 18.2684 9.68294 18.0796 9.62235 17.9032C9.56177 17.7267 9.45817 17.5682 9.32092 17.4418L4.76155 12.99C4.60961 12.8429 4.502 12.6561 4.45099 12.4508C4.39997 12.2456 4.40758 12.0302 4.47295 11.829C4.53832 11.6279 4.65884 11.4492 4.82078 11.3132C4.98272 11.1771 5.17958 11.0893 5.38898 11.0597L11.7128 10.1294C11.8947 10.1059 12.0679 10.0375 12.2166 9.93016C12.3654 9.82287 12.485 9.68014 12.5646 9.51493L15.3823 3.81343C15.4703 3.61895 15.6117 3.45341 15.79 3.33599C15.9683 3.21856 16.1762 3.15406 16.3897 3.14995C16.6031 3.14584 16.8134 3.20229 16.996 3.31276C17.1787 3.42324 17.3264 3.58321 17.4219 3.77415V3.77415Z" fill="#F7D100"/>
<path d="M15.4979 8.05673C15.2651 8.81693 14.7485 9.33706 14.4105 9.22628C14.0724 9.11549 13.9376 8.38862 14.1703 7.62842C14.403 6.86821 14.913 6.34604 15.2597 6.4522C15.6065 6.55836 15.7475 7.26523 15.4979 8.05673Z" fill="white"/>
<path d="M15.8668 5.92327C15.8417 6.00067 15.7941 6.06886 15.7302 6.11924C15.6663 6.16962 15.5889 6.19992 15.5078 6.20631C15.4267 6.2127 15.3455 6.19489 15.2745 6.15513C15.2035 6.11538 15.1459 6.05546 15.1089 5.98296C15.072 5.91046 15.0573 5.82863 15.0669 5.74782C15.0764 5.66701 15.1097 5.59084 15.1626 5.52895C15.2154 5.46706 15.2854 5.42223 15.3637 5.40013C15.442 5.37802 15.5251 5.37963 15.6025 5.40476C15.654 5.42144 15.7016 5.44809 15.7427 5.48319C15.7838 5.51828 15.8176 5.56112 15.8421 5.60927C15.8666 5.65742 15.8815 5.70994 15.8857 5.76381C15.8899 5.81769 15.8835 5.87188 15.8668 5.92327V5.92327Z" fill="white"/>
<path d="M23.6917 23.8176C23.8221 24.2732 23.6853 24.72 23.3895 24.8045C23.0938 24.889 22.7227 24.6004 22.6051 24.1268C22.4876 23.6532 22.6115 23.2243 22.9093 23.1332C23.2071 23.042 23.5567 23.3532 23.6917 23.8176Z" fill="white"/>
<g style="mix-blend-mode:overlay" opacity="0.4">
<path d="M11.0273 18.3941C16.5643 18.3899 21.1195 14.803 21.6945 10.2091L21.1078 10.1243C20.9261 10.0978 20.7536 10.0276 20.605 9.9199C20.4563 9.81216 20.336 9.67001 20.2542 9.50563L17.4215 3.77363C17.328 3.58402 17.1831 3.42445 17.0034 3.31307C16.8237 3.20169 16.6164 3.14297 16.405 3.14359C16.1935 3.14421 15.9865 3.20414 15.8075 3.31657C15.6284 3.429 15.4845 3.58941 15.3921 3.77957L12.5642 9.51441C12.4846 9.67963 12.365 9.82235 12.2162 9.92965C12.0675 10.0369 11.8943 10.1054 11.7124 10.1288L5.38862 11.0591C5.17922 11.0888 4.98236 11.1766 4.82042 11.3126C4.65848 11.4487 4.53796 11.6274 4.47259 11.8285C4.40722 12.0296 4.39961 12.2451 4.45062 12.4503C4.50164 12.6556 4.60925 12.8424 4.76118 12.9895L9.32056 17.4413C9.43359 17.5546 9.52158 17.6903 9.57885 17.8398C9.63612 17.9892 9.66138 18.149 9.65301 18.3089C10.1093 18.3611 10.568 18.3895 11.0273 18.3941V18.3941Z" fill="#FFF0F5"/>
</g>
</g>
<defs>
<clipPath id="clip0">
<rect width="23.5232" height="24.7366" fill="white" transform="translate(7.94348 0.5) rotate(17.022)"/>
</clipPath>
</defs>
</svg>
