<svg width="122" height="121" viewBox="0 0 122 121" fill="none" xmlns="http://www.w3.org/2000/svg">
<g clip-path="url(#clip0)">
<path d="M96.5892 10.7162L92.5195 42.4793C92.4088 43.3942 92.5195 44.3223 92.8422 45.1856C93.1648 46.0488 93.6901 46.822 94.3738 47.44L118.238 68.8C119.029 69.5012 119.609 70.4092 119.913 71.4219C120.217 72.4347 120.232 73.512 119.956 74.5328C119.681 75.5537 119.127 76.4775 118.355 77.2004C117.584 77.9233 116.626 78.4167 115.589 78.6251L84.0429 84.5732C83.1368 84.7373 82.285 85.1218 81.5626 85.693C80.8403 86.2642 80.2696 87.0043 79.901 87.8482L66.9453 117.155C66.5213 118.127 65.8329 118.96 64.9585 119.559C64.0841 120.159 63.0588 120.501 61.9996 120.546C60.9403 120.591 59.8897 120.338 58.9674 119.815C58.0451 119.292 57.2882 118.521 56.783 117.588L41.3952 89.4857C40.9341 88.7046 40.2942 88.0441 39.528 87.5585C38.7619 87.0728 37.8915 86.776 36.9883 86.6923L5.10483 83.3209C4.03334 83.2261 3.01077 82.8291 2.15598 82.1761C1.30118 81.5231 0.649265 80.6409 0.275994 79.632C-0.0972772 78.6232 -0.176572 77.5291 0.0473245 76.477C0.271221 75.4249 0.789115 74.4579 1.54081 73.6885L23.5269 50.5705C24.1569 49.9016 24.6152 49.0898 24.8627 48.2048C25.1101 47.3199 25.1393 46.3881 24.9477 45.4894L18.1809 14.1839C17.922 13.1359 17.9669 12.0358 18.3103 11.0124C18.6538 9.989 19.2816 9.08458 20.1204 8.40499C20.9591 7.72541 21.9741 7.29876 23.0465 7.17498C24.1189 7.0512 25.2043 7.2354 26.1759 7.70604L55.0733 21.4082C55.9062 21.7977 56.8213 21.9793 57.7398 21.9374C58.6584 21.8954 59.5531 21.6312 60.347 21.1674L88.0404 5.08119C88.9583 4.53242 90.0124 4.25376 91.0816 4.27725C92.1507 4.30074 93.1916 4.62542 94.0845 5.21398C94.9774 5.80254 95.6861 6.63108 96.1292 7.6044C96.5722 8.57772 96.7317 9.6563 96.5892 10.7162Z" fill="#EAB300"/>
<path d="M97.9616 6.40556L93.9159 38.1927C93.794 39.1061 93.897 40.0354 94.216 40.9C94.535 41.7645 95.0602 42.5381 95.7461 43.1534L119.635 64.5134C120.42 65.2223 120.991 66.1361 121.285 67.1521C121.579 68.1681 121.584 69.246 121.299 70.2645C121.013 71.283 120.45 72.2017 119.671 72.9172C118.892 73.6327 117.928 74.1166 116.889 74.3145L85.3912 80.2625C84.4848 80.435 83.6341 80.8254 82.9125 81.4002C82.1908 81.975 81.62 82.7169 81.2492 83.5617L68.2935 112.868C67.8696 113.84 67.1811 114.673 66.3067 115.273C65.4323 115.872 64.407 116.214 63.3478 116.259C62.2885 116.305 61.2379 116.051 60.3156 115.528C59.3933 115.005 58.6365 114.234 58.1313 113.302L42.7434 85.1992C42.2978 84.3924 41.6649 83.7044 40.898 83.1932C40.1311 82.6819 39.2527 82.3623 38.3365 82.2613L6.45307 79.0103C5.3836 78.9114 4.36405 78.5115 3.51256 77.8569C2.66107 77.2023 2.01251 76.3198 1.64203 75.3117C1.27155 74.3036 1.19432 73.2111 1.41928 72.1609C1.64425 71.1107 2.16221 70.1457 2.91313 69.3778L24.8752 46.0673C25.5037 45.3924 25.9608 44.5764 26.2081 43.6879C26.4553 42.7994 26.4855 41.8646 26.296 40.9621L19.5532 9.65652C19.3223 8.61995 19.3876 7.5393 19.7418 6.53813C20.0961 5.53696 20.7249 4.65566 21.5564 3.995C22.3878 3.33434 23.3884 2.92098 24.4438 2.80217C25.4991 2.68337 26.5665 2.86391 27.5241 3.32317L56.4215 17.0013C57.2542 17.424 58.1793 17.6322 59.1128 17.6069C60.0464 17.5817 60.9589 17.3239 61.7675 16.8568L89.4609 0.770564C90.3779 0.235545 91.4263 -0.0319409 92.4875 -0.00158129C93.5487 0.0287784 94.5802 0.35577 95.465 0.942337C96.3499 1.52891 97.0528 2.3516 97.494 3.31718C97.9353 4.28277 98.0972 5.35264 97.9616 6.40556Z" fill="#F7D100"/>
<path d="M78.0465 18.9283C74.9159 21.3364 71.376 22.2033 70.1478 20.6862C68.9197 19.1691 70.485 15.87 73.6155 13.4618C76.7461 11.0537 80.286 10.1868 81.5141 11.728C82.7423 13.2692 81.177 16.4238 78.0465 18.9283Z" fill="white"/>
<path d="M85.5119 11.0776C85.0826 11.4125 84.5387 11.565 83.9978 11.5019C83.457 11.4388 82.9628 11.1652 82.6221 10.7404C82.2904 10.3118 82.1377 9.77129 82.196 9.23243C82.2544 8.69358 82.5193 8.19831 82.9352 7.85068C83.3667 7.55803 83.8927 7.4389 84.4082 7.51707C84.9236 7.59524 85.3907 7.86496 85.716 8.27238C86.0413 8.6798 86.201 9.19494 86.1632 9.71494C86.1253 10.2349 85.8928 10.7215 85.5119 11.0776Z" fill="white"/>
<path d="M68.5107 107.45C67.7883 109.858 65.9822 111.207 64.4891 110.749C62.9961 110.292 62.3941 108.028 63.1165 105.741C63.8389 103.453 65.645 101.984 67.1381 102.465C68.6311 102.947 69.2331 105.163 68.5107 107.45Z" fill="white"/>
<g style="mix-blend-mode:overlay" opacity="0.4">
<path d="M30.7035 49.6796C53.8455 65.0193 82.7911 62.6112 97.9381 45.1283L95.7227 43.1536C95.0411 42.5358 94.5204 41.7612 94.2057 40.8968C93.891 40.0324 93.7918 39.1043 93.9166 38.1929L97.9863 6.40573C98.1253 5.34934 97.9646 4.27513 97.5224 3.3057C97.0803 2.33627 96.3745 1.51067 95.4856 0.923116C94.5967 0.335561 93.5606 0.00971876 92.4955 -0.0172251C91.4303 -0.044169 90.379 0.228871 89.4616 0.770735L61.7682 16.857C60.9744 17.3229 60.0781 17.5864 59.1584 17.6242C58.2387 17.662 57.3238 17.4729 56.4944 17.0737L27.597 3.39558C26.6349 2.91355 25.5553 2.71585 24.4847 2.82565C23.4142 2.93545 22.3972 3.34821 21.553 4.01552C20.7087 4.68283 20.0722 5.57703 19.7182 6.59324C19.3641 7.60946 19.3071 8.70556 19.5539 9.75301L26.2966 41.0585C26.461 41.8455 26.4558 42.6584 26.2814 43.4432C26.107 44.228 25.7674 44.9666 25.2852 45.6099C27.0207 47.058 28.8292 48.4164 30.7035 49.6796Z" fill="#FFF0F5"/>
</g>
</g>
<defs>
<clipPath id="clip0">
<rect width="121.49" height="120.55" fill="white"/>
</clipPath>
</defs>
</svg>
