<svg width="82" height="86" viewBox="0 0 82 86" fill="none" xmlns="http://www.w3.org/2000/svg">
<g clip-path="url(#clip0)">
<path d="M36.3144 3.82859L51.4615 19.8907C51.8999 20.3476 52.4412 20.693 53.0402 20.8983C53.6392 21.1035 54.2786 21.1626 54.9051 21.0707L76.7226 17.6753C77.4461 17.5595 78.1876 17.6499 78.8621 17.936C79.5366 18.2221 80.117 18.6924 80.5366 19.293C80.9563 19.8936 81.1983 20.6002 81.235 21.332C81.2718 22.0638 81.1016 22.7911 80.7442 23.4307L70.1485 42.6956C69.8572 43.2574 69.7051 43.8809 69.7051 44.5137C69.7051 45.1466 69.8572 45.7701 70.1485 46.3319L80.094 66.0303C80.4282 66.6814 80.5725 67.4135 80.5103 68.1428C80.4482 68.872 80.1821 69.5691 79.7426 70.1544C79.303 70.7396 78.7077 71.1894 78.0246 71.4523C77.3416 71.7152 76.5983 71.7807 75.8798 71.6412L54.2067 67.5715C53.5824 67.4501 52.9379 67.4832 52.3293 67.6678C51.7207 67.8525 51.1665 68.1832 50.715 68.631L35.014 84.2838C34.4952 84.7958 33.8441 85.1532 33.1336 85.316C32.4232 85.4788 31.6814 85.4406 30.9914 85.2056C30.3014 84.9706 29.6905 84.5481 29.2271 83.9855C28.7637 83.4229 28.4661 82.7424 28.3676 82.0202L25.5501 60.2026C25.471 59.5748 25.2384 58.9762 24.873 58.4596C24.5077 57.943 24.0207 57.5244 23.4551 57.2406L3.82891 47.0543C3.17321 46.7333 2.62075 46.2348 2.23433 45.6154C1.84792 44.996 1.64307 44.2805 1.64307 43.5505C1.64307 42.8204 1.84792 42.105 2.23433 41.4856C2.62075 40.8662 3.17321 40.3677 3.82891 40.0467L23.8885 30.5828C24.4599 30.3073 24.9569 29.899 25.3382 29.392C25.7194 28.8851 25.9737 28.2943 26.0799 27.669L29.5958 5.9959C29.699 5.26693 30.0052 4.58169 30.4793 4.01845C30.9535 3.45521 31.5765 3.03668 32.2772 2.81065C32.9778 2.58462 33.728 2.56021 34.4419 2.74021C35.1558 2.92021 35.8047 3.29737 36.3144 3.82859Z" fill="#EAB300"/>
<path d="M34.605 1.22776L49.7521 17.2899C50.1881 17.75 50.7291 18.0977 51.3288 18.3032C51.9285 18.5087 52.5691 18.5659 53.1957 18.4699L75.0132 15.0744C75.7343 14.9683 76.4708 15.0651 77.14 15.3539C77.8092 15.6427 78.3848 16.1121 78.8023 16.7096C79.2198 17.3071 79.4626 18.009 79.5037 18.7367C79.5448 19.4644 79.3824 20.1892 79.0348 20.8298L68.4632 40.0948C68.1659 40.6547 68.0104 41.279 68.0104 41.9129C68.0104 42.5469 68.1659 43.1711 68.4632 43.731L78.4328 63.4294C78.767 64.0806 78.9112 64.8127 78.8491 65.5419C78.7869 66.2712 78.5209 66.9683 78.0813 67.5535C77.6418 68.1388 77.0464 68.5885 76.3634 68.8515C75.6803 69.1144 74.9371 69.1798 74.2186 69.0404L52.5455 64.9706C51.9249 64.8534 51.2851 64.8885 50.6811 65.0731C50.077 65.2576 49.5269 65.5861 49.0778 66.0302L33.401 81.5867C32.8985 82.1263 32.2533 82.5124 31.5403 82.7004C30.8274 82.8883 30.0757 82.8703 29.3725 82.6485C28.6693 82.4267 28.0434 82.0102 27.5672 81.4472C27.0911 80.8842 26.7843 80.1978 26.6823 79.4675L23.8407 57.5296C23.756 56.891 23.5135 56.2835 23.1351 55.7622C22.7567 55.2408 22.2543 54.822 21.6734 54.5435L2.1195 44.4535C1.46914 44.1214 0.925052 43.6134 0.549139 42.9873C0.173227 42.3613 -0.0194158 41.6422 -0.00687038 40.9121C0.00567507 40.182 0.222905 39.47 0.620103 38.8572C1.0173 38.2444 1.57852 37.7554 2.23991 37.4459L22.1791 27.982C22.756 27.7207 23.2586 27.3196 23.6413 26.815C24.0239 26.3104 24.2746 25.7182 24.3705 25.0922L27.9104 3.41915C28.0047 2.68802 28.3041 1.99854 28.7741 1.4306C29.2441 0.862664 29.8654 0.439516 30.566 0.210182C31.2666 -0.0191523 32.0178 -0.0452852 32.7327 0.134811C33.4475 0.314907 34.0967 0.69386 34.605 1.22776Z" fill="#F7D100"/>
<path d="M32.5817 17.3144C32.5817 20.0596 31.4018 22.2992 30.1736 22.2751C28.9455 22.251 27.7655 19.9874 27.7655 17.2421C27.7655 14.4969 28.9214 12.2573 30.1736 12.2573C31.4258 12.2573 32.6058 14.4487 32.5817 17.3144Z" fill="white"/>
<path d="M31.6428 9.89722C31.638 10.1782 31.55 10.4514 31.3899 10.6823C31.2298 10.9133 31.0049 11.0915 30.7435 11.1946C30.4821 11.2977 30.196 11.321 29.9214 11.2615C29.6468 11.202 29.3959 11.0624 29.2007 10.8604C29.0054 10.6584 28.8744 10.403 28.8242 10.1265C28.7741 9.85004 28.807 9.5649 28.9189 9.30715C29.0308 9.0494 29.2166 8.83062 29.4528 8.67847C29.6891 8.52632 29.9651 8.44763 30.2461 8.45235C30.4326 8.45548 30.6168 8.49535 30.788 8.56966C30.9591 8.64398 31.114 8.75128 31.2437 8.88546C31.3734 9.01963 31.4754 9.17804 31.5439 9.35164C31.6124 9.52524 31.646 9.71063 31.6428 9.89722Z" fill="white"/>
<path d="M75.5667 61.0697C76.4577 62.4423 76.4577 64.0558 75.5667 64.6337C74.6757 65.2117 73.1586 64.6337 72.2917 63.1888C71.4248 61.744 71.4007 60.2028 72.2917 59.6008C73.1827 58.9987 74.6517 59.673 75.5667 61.0697Z" fill="white"/>
<g style="mix-blend-mode:overlay" opacity="0.4">
<path d="M28.272 55.9644C46.5496 50.3535 57.9641 33.9061 55.2189 18.157L53.196 18.47C52.5694 18.566 51.9289 18.5089 51.3292 18.3034C50.7295 18.0979 50.1885 17.7502 49.7524 17.2901L34.6054 1.22791C34.1049 0.696378 33.4654 0.315938 32.7595 0.129846C32.0535 -0.0562453 31.3095 -0.0405204 30.6121 0.175233C29.9147 0.390986 29.2918 0.79811 28.8142 1.35031C28.3367 1.90251 28.0237 2.57762 27.9108 3.29889L24.3709 25.0924C24.275 25.7183 24.0243 26.3105 23.6416 26.8151C23.259 27.3197 22.7564 27.7208 22.1795 27.9821L2.24028 37.446C1.57889 37.7556 1.01767 38.2446 0.62047 38.8573C0.223271 39.4701 0.00604128 40.1821 -0.00650417 40.9122C-0.0190496 41.6424 0.173593 42.3614 0.549505 42.9875C0.925418 43.6135 1.46951 44.1215 2.11987 44.4536L21.6738 54.5436C22.1615 54.8035 22.5893 55.1628 22.9294 55.5984C23.2696 56.0339 23.5145 56.536 23.6484 57.0722C25.2078 56.7833 26.7511 56.4135 28.272 55.9644Z" fill="#FFF0F5"/>
</g>
</g>
<defs>
<clipPath id="clip0">
<rect width="81.2258" height="85.4159" fill="white"/>
</clipPath>
</defs>
</svg>
