<svg width="30" height="32" viewBox="0 0 30 32" fill="none" xmlns="http://www.w3.org/2000/svg">
<g clip-path="url(#clip0)">
<path d="M17.2068 4.63848L20.0395 10.3705C20.1222 10.5341 20.2428 10.6757 20.3913 10.7833C20.5398 10.8909 20.7118 10.9615 20.8931 10.9892L27.2226 11.8986C27.4327 11.9278 27.6304 12.0157 27.7929 12.1521C27.9554 12.2886 28.0763 12.468 28.1416 12.6699C28.2069 12.8718 28.214 13.088 28.1621 13.2937C28.1102 13.4995 28.0015 13.6864 27.8483 13.8333L23.2809 18.2697C23.1526 18.4006 23.0576 18.5604 23.004 18.7356C22.9503 18.9109 22.9396 19.0964 22.9726 19.2767L24.0567 25.5746C24.0941 25.7833 24.0719 25.9982 23.9929 26.1949C23.9139 26.3916 23.7811 26.5621 23.6098 26.6869C23.4384 26.8117 23.2354 26.8857 23.024 26.9006C22.8126 26.9155 22.6012 26.8706 22.4141 26.7711L16.7575 23.8067C16.5949 23.7202 16.4136 23.6747 16.2294 23.6743C16.0452 23.6738 15.8637 23.7184 15.7007 23.8041L10.0259 26.8075C9.83881 26.9053 9.62821 26.9491 9.41767 26.934C9.20712 26.9188 9.00495 26.8453 8.83381 26.7218C8.66267 26.5982 8.52931 26.4294 8.44868 26.2343C8.36805 26.0393 8.34333 25.8256 8.3773 25.6172L9.44673 19.3368C9.47804 19.1562 9.46439 18.9707 9.407 18.7967C9.34962 18.6227 9.25025 18.4654 9.11769 18.3389L4.54647 13.8543C4.39212 13.7098 4.28139 13.5249 4.2269 13.3207C4.17241 13.1164 4.17633 12.9009 4.23823 12.6987C4.30012 12.4966 4.4175 12.3158 4.57701 12.1771C4.73653 12.0383 4.93178 11.9471 5.14057 11.9138L11.4977 10.9937C11.6793 10.9658 11.8515 10.8949 12.0001 10.7869C12.1486 10.6788 12.2692 10.5368 12.3516 10.3726L15.1626 4.66905C15.2529 4.47594 15.3958 4.31214 15.5749 4.19637C15.7539 4.0806 15.9619 4.01751 16.1751 4.01433C16.3883 4.01114 16.5981 4.06797 16.7805 4.17834C16.963 4.28871 17.1107 4.44816 17.2068 4.63848V4.63848Z" fill="#EAB300"/>
<path d="M16.9538 3.77415L19.7866 9.50614C19.8683 9.67053 19.9887 9.81267 20.1373 9.92042C20.286 10.0282 20.4585 10.0983 20.6401 10.1248L26.9696 11.0342C27.1783 11.066 27.374 11.1552 27.5349 11.2919C27.6957 11.4286 27.8153 11.6074 27.8802 11.8083C27.9452 12.0091 27.9529 12.2241 27.9026 12.4291C27.8523 12.6341 27.7459 12.821 27.5953 12.9689L23.0346 17.4074C22.9048 17.5373 22.8089 17.697 22.7551 17.8725C22.7014 18.0481 22.6915 18.2341 22.7264 18.4144L23.8171 24.7144C23.8544 24.923 23.8323 25.138 23.7533 25.3347C23.6743 25.5313 23.5415 25.7018 23.3702 25.8266C23.1988 25.9514 22.9958 26.0255 22.7844 26.0404C22.573 26.0553 22.3616 26.0104 22.1744 25.9109L16.5179 22.9465C16.356 22.8614 16.1758 22.8169 15.9929 22.8168C15.81 22.8167 15.6298 22.861 15.4678 22.9459L9.80778 25.9247C9.62288 26.0315 9.4115 26.0838 9.19813 26.0754C8.98476 26.067 8.77813 25.9983 8.60221 25.8772C8.42629 25.7562 8.28827 25.5878 8.20415 25.3915C8.12003 25.1952 8.09326 24.9791 8.12694 24.7683L9.19991 18.4524C9.23058 18.2684 9.21492 18.0796 9.15433 17.9032C9.09375 17.7267 8.99015 17.5682 8.8529 17.4418L4.29353 12.99C4.14159 12.8429 4.03399 12.6561 3.98297 12.4508C3.93195 12.2456 3.93956 12.0302 4.00493 11.829C4.07031 11.6279 4.19082 11.4492 4.35276 11.3132C4.5147 11.1771 4.71157 11.0893 4.92096 11.0597L11.2448 10.1294C11.4267 10.1059 11.5998 10.0375 11.7486 9.93016C11.8973 9.82287 12.017 9.68014 12.0966 9.51493L14.9142 3.81343C15.0023 3.61895 15.1437 3.45341 15.322 3.33599C15.5003 3.21856 15.7082 3.15406 15.9216 3.14995C16.1351 3.14584 16.3453 3.20229 16.528 3.31276C16.7107 3.42324 16.8584 3.58321 16.9538 3.77415V3.77415Z" fill="#F7D100"/>
<path d="M15.0298 8.05673C14.7971 8.81693 14.2805 9.33706 13.9424 9.22628C13.6044 9.11549 13.4695 8.38862 13.7023 7.62842C13.935 6.86821 14.445 6.34604 14.7917 6.4522C15.1385 6.55836 15.2795 7.26523 15.0298 8.05673Z" fill="white"/>
<path d="M15.3988 5.92327C15.3737 6.00067 15.3261 6.06886 15.2622 6.11924C15.1983 6.16962 15.1209 6.19992 15.0398 6.20631C14.9587 6.2127 14.8775 6.19489 14.8065 6.15513C14.7355 6.11538 14.6778 6.05546 14.6409 5.98296C14.6039 5.91046 14.5893 5.82863 14.5989 5.74782C14.6084 5.66701 14.6417 5.59084 14.6946 5.52895C14.7474 5.46706 14.8174 5.42223 14.8957 5.40013C14.974 5.37802 15.0571 5.37963 15.1345 5.40476C15.1859 5.42144 15.2335 5.44809 15.2746 5.48319C15.3158 5.51828 15.3495 5.56112 15.3741 5.60927C15.3986 5.65742 15.4134 5.70994 15.4177 5.76381C15.4219 5.81769 15.4155 5.87188 15.3988 5.92327V5.92327Z" fill="white"/>
<path d="M23.2237 23.8176C23.354 24.2732 23.2173 24.72 22.9215 24.8045C22.6258 24.889 22.2547 24.6004 22.1371 24.1268C22.0195 23.6532 22.1435 23.2243 22.4413 23.1332C22.7391 23.042 23.0887 23.3532 23.2237 23.8176Z" fill="white"/>
<g style="mix-blend-mode:overlay" opacity="0.4">
<path d="M10.5592 18.3941C16.0963 18.3899 20.6515 14.803 21.2265 10.2091L20.6398 10.1243C20.4581 10.0978 20.2856 10.0276 20.1369 9.9199C19.9883 9.81216 19.868 9.67001 19.7862 9.50563L16.9535 3.77363C16.86 3.58402 16.7151 3.42445 16.5354 3.31307C16.3557 3.20169 16.1484 3.14297 15.9369 3.14359C15.7255 3.14421 15.5185 3.20414 15.3395 3.31657C15.1604 3.429 15.0165 3.58941 14.9241 3.77957L12.0962 9.51441C12.0166 9.67963 11.897 9.82235 11.7482 9.92965C11.5995 10.0369 11.4263 10.1054 11.2444 10.1288L4.9206 11.0591C4.71121 11.0888 4.51434 11.1766 4.3524 11.3126C4.19046 11.4487 4.06995 11.6274 4.00457 11.8285C3.9392 12.0296 3.93159 12.2451 3.98261 12.4503C4.03363 12.6556 4.14123 12.8424 4.29317 12.9895L8.85254 17.4413C8.96557 17.5546 9.05357 17.6903 9.11083 17.8398C9.1681 17.9892 9.19336 18.149 9.18499 18.3089C9.64129 18.3611 10.1 18.3895 10.5592 18.3941V18.3941Z" fill="#FFF0F5"/>
</g>
</g>
<defs>
<clipPath id="clip0">
<rect width="23.5232" height="24.7366" fill="white" transform="translate(7.47546 0.5) rotate(17.022)"/>
</clipPath>
</defs>
</svg>
