<svg width="688" height="386" viewBox="0 0 688 386" fill="none" xmlns="http://www.w3.org/2000/svg">
<path d="M409.22 231.69C409.22 231.69 424.31 235.69 431.42 245.69C438.53 255.69 467.9 339 465.06 351.81C462.22 364.62 424.31 375.03 409.15 364.61" fill="#FFD1B8"/>
<path style="mix-blend-mode:multiply" d="M409.22 231.69C409.22 231.69 424.31 235.69 431.42 245.69C438.53 255.69 467.9 339 465.06 351.81C462.22 364.62 424.31 375.03 409.15 364.61" fill="url(#paint0_linear)"/>
<path style="mix-blend-mode:multiply" d="M409.22 231.69C409.22 231.69 424.31 235.69 431.42 245.69C438.53 255.69 467.9 339 465.06 351.81C462.22 364.62 424.31 375.03 409.15 364.61" fill="url(#paint1_linear)"/>
<path d="M448.38 287.14C435.04 289.169 421.919 292.444 409.19 296.92V231.69C409.19 231.69 424.28 235.69 431.39 245.69C434.44 249.9 441.49 267.42 448.38 287.14Z" fill="#F9626D"/>
<path style="mix-blend-mode:multiply" d="M445.32 287.14C431.98 289.172 418.86 292.446 406.13 296.92V231.69C406.13 231.69 421.22 235.69 428.32 245.69C431.39 249.9 438.44 267.42 445.32 287.14Z" fill="url(#paint2_linear)"/>
<path style="mix-blend-mode:multiply" d="M448.38 287.14C435.04 289.169 421.919 292.444 409.19 296.92V231.69C409.19 231.69 424.28 235.69 431.39 245.69C434.44 249.9 441.49 267.42 448.38 287.14Z" fill="url(#paint3_linear)"/>
<path d="M348.41 177.9C348.408 181.326 349.422 184.675 351.324 187.525C353.226 190.375 355.93 192.596 359.095 193.909C362.26 195.221 365.742 195.565 369.103 194.898C372.463 194.231 375.55 192.582 377.973 190.16C380.397 187.739 382.047 184.653 382.716 181.292C383.385 177.932 383.043 174.449 381.732 171.284C380.422 168.119 378.202 165.413 375.353 163.509C372.505 161.606 369.156 160.59 365.73 160.59C361.138 160.59 356.734 162.413 353.486 165.659C350.239 168.905 348.413 173.308 348.41 177.9Z" fill="#7D65EF"/>
<g style="mix-blend-mode:multiply">
<path style="mix-blend-mode:multiply" d="M348.41 177.9C348.408 181.326 349.422 184.675 351.324 187.525C353.226 190.375 355.93 192.596 359.095 193.909C362.26 195.221 365.742 195.565 369.103 194.898C372.463 194.231 375.55 192.582 377.973 190.16C380.397 187.739 382.047 184.653 382.716 181.292C383.385 177.932 383.043 174.449 381.732 171.284C380.422 168.119 378.202 165.413 375.353 163.509C372.505 161.606 369.156 160.59 365.73 160.59C361.138 160.59 356.734 162.413 353.486 165.659C350.239 168.905 348.413 173.308 348.41 177.9Z" fill="url(#paint4_linear)"/>
</g>
<g style="mix-blend-mode:multiply">
<path style="mix-blend-mode:multiply" d="M348.41 177.9C348.408 181.326 349.422 184.675 351.324 187.525C353.226 190.375 355.93 192.596 359.095 193.909C362.26 195.221 365.742 195.565 369.103 194.898C372.463 194.231 375.55 192.582 377.973 190.16C380.397 187.739 382.047 184.653 382.716 181.292C383.385 177.932 383.043 174.449 381.732 171.284C380.422 168.119 378.202 165.413 375.353 163.509C372.505 161.606 369.156 160.59 365.73 160.59C361.138 160.59 356.734 162.413 353.486 165.659C350.239 168.905 348.413 173.308 348.41 177.9Z" fill="url(#paint5_linear)"/>
</g>
<path d="M367.07 194.61C367.07 195.496 366.718 196.345 366.092 196.972C365.465 197.598 364.616 197.95 363.73 197.95C362.844 197.95 361.995 197.598 361.368 196.972C360.742 196.345 360.39 195.496 360.39 194.61V161.8C360.39 160.914 360.742 160.065 361.368 159.438C361.995 158.812 362.844 158.46 363.73 158.46C364.616 158.46 365.465 158.812 366.092 159.438C366.718 160.065 367.07 160.914 367.07 161.8V194.61Z" fill="#DDD4FF"/>
<path d="M280 178.33C279.996 181.754 278.976 185.101 277.07 187.946C275.164 190.79 272.457 193.006 269.291 194.312C266.125 195.618 262.643 195.955 259.286 195.282C255.928 194.609 252.846 192.954 250.429 190.529C248.011 188.103 246.368 185.015 245.706 181.655C245.044 178.295 245.394 174.815 246.711 171.653C248.028 168.492 250.253 165.793 253.104 163.896C255.956 162 259.305 160.992 262.73 161C265.002 161.004 267.251 161.455 269.348 162.328C271.445 163.201 273.35 164.479 274.954 166.088C276.558 167.698 277.829 169.607 278.694 171.707C279.56 173.808 280.004 176.058 280 178.33Z" fill="#7D65EF"/>
<g style="mix-blend-mode:multiply">
<path style="mix-blend-mode:multiply" d="M280 178.33C279.996 181.754 278.976 185.101 277.07 187.946C275.164 190.79 272.457 193.006 269.291 194.312C266.125 195.618 262.643 195.955 259.286 195.282C255.928 194.609 252.846 192.954 250.429 190.529C248.011 188.103 246.368 185.015 245.706 181.655C245.044 178.295 245.394 174.815 246.711 171.653C248.028 168.492 250.253 165.793 253.104 163.896C255.956 162 259.305 160.992 262.73 161C265.002 161.004 267.251 161.455 269.348 162.328C271.445 163.201 273.35 164.479 274.954 166.088C276.558 167.698 277.829 169.607 278.694 171.707C279.56 173.808 280.004 176.058 280 178.33Z" fill="url(#paint6_linear)"/>
</g>
<g style="mix-blend-mode:multiply">
<path style="mix-blend-mode:multiply" d="M280 178.33C279.996 181.754 278.976 185.101 277.07 187.946C275.164 190.79 272.457 193.006 269.291 194.312C266.125 195.618 262.643 195.955 259.286 195.282C255.928 194.609 252.846 192.954 250.429 190.529C248.011 188.103 246.368 185.015 245.706 181.655C245.044 178.295 245.394 174.815 246.711 171.653C248.028 168.492 250.253 165.793 253.104 163.896C255.956 162 259.305 160.992 262.73 161C265.002 161.004 267.251 161.455 269.348 162.328C271.445 163.201 273.35 164.479 274.954 166.088C276.558 167.698 277.829 169.607 278.694 171.707C279.56 173.808 280.004 176.058 280 178.33Z" fill="url(#paint7_linear)"/>
</g>
<path d="M267.09 195C267.087 195.884 266.734 196.731 266.108 197.355C265.482 197.979 264.634 198.33 263.75 198.33C263.312 198.331 262.878 198.246 262.473 198.079C262.067 197.912 261.699 197.667 261.389 197.358C261.078 197.049 260.832 196.681 260.664 196.277C260.496 195.872 260.41 195.438 260.41 195V162.18C260.409 161.741 260.494 161.306 260.661 160.9C260.829 160.494 261.075 160.126 261.385 159.815C261.696 159.505 262.064 159.259 262.47 159.091C262.876 158.924 263.311 158.839 263.75 158.84C264.636 158.84 265.485 159.192 266.112 159.818C266.738 160.445 267.09 161.294 267.09 162.18V195Z" fill="#DDD4FF"/>
<path d="M217.65 231.18C217.65 231.18 202.56 235.18 195.45 245.18C188.34 255.18 159 338.51 161.81 351.3C164.62 364.09 202.56 374.52 217.72 364.1" fill="#FFD1B8"/>
<path style="mix-blend-mode:multiply" d="M217.65 231.18C217.65 231.18 202.56 235.18 195.45 245.18C188.34 255.18 159 338.51 161.81 351.3C164.62 364.09 202.56 374.52 217.72 364.1" fill="url(#paint8_linear)"/>
<path style="mix-blend-mode:multiply" d="M217.65 231.18C217.65 231.18 202.56 235.18 195.45 245.18C188.34 255.18 159 338.51 161.81 351.3C164.62 364.09 202.56 374.52 217.72 364.1" fill="url(#paint9_linear)"/>
<path d="M178.49 286.63C191.829 288.665 204.949 291.939 217.68 296.41V231.18C217.68 231.18 202.59 235.18 195.48 245.18C192.43 249.39 185.38 266.91 178.49 286.63Z" fill="#F9626D"/>
<path style="mix-blend-mode:multiply" d="M181.54 286.63C194.879 288.665 207.999 291.939 220.73 296.41V231.18C220.73 231.18 205.64 235.18 198.53 245.18C195.48 249.39 188.43 266.91 181.54 286.63Z" fill="url(#paint10_linear)"/>
<path style="mix-blend-mode:multiply" d="M178.49 286.63C191.829 288.665 204.949 291.939 217.68 296.41V231.18C217.68 231.18 202.59 235.18 195.48 245.18C192.43 249.39 185.38 266.91 178.49 286.63Z" fill="url(#paint11_linear)"/>
<path style="mix-blend-mode:multiply" d="M178.49 286.63C191.829 288.665 204.949 291.939 217.68 296.41V231.18C217.68 231.18 202.59 235.18 195.48 245.18C192.43 249.39 185.38 266.91 178.49 286.63Z" fill="url(#paint12_linear)"/>
<path d="M418.12 308.66C418.12 296.31 410.39 231.72 410.39 231.72C394.66 227.65 362.59 224.07 362.59 224.07L313.88 228.28L262.72 224.07C262.72 224.07 233.38 227.07 217.65 231.18C217.65 231.18 209.65 296.31 209.65 308.66L216.51 323.77C216.51 323.77 206.3 359.16 207 384.77C207 384.77 229.91 382.14 313.54 382.19H314.3C397.93 382.19 420.85 386 420.85 386C421.49 360.37 411.3 323.77 411.3 323.77L418.12 308.66Z" fill="#F9626D"/>
<path d="M262.72 224.07C262.72 224.07 259.72 224.37 255.18 224.93C255.75 256.66 281.77 273.39 313.83 273.39C345.89 273.39 371.72 256.78 372.48 225.27C366.6 224.51 362.59 224.07 362.59 224.07L313.88 228.28L262.72 224.07Z" fill="white"/>
<path d="M363.93 221.16C363.93 248.83 341.51 263.4 313.83 263.4C286.18 263.4 263.75 248.83 263.75 221.16V197.31C263.75 184.027 269.026 171.288 278.417 161.895C287.809 152.501 300.547 147.223 313.83 147.22C320.409 147.219 326.923 148.514 333.002 151.03C339.08 153.547 344.603 157.236 349.255 161.888C353.908 166.539 357.598 172.061 360.116 178.139C362.634 184.217 363.93 190.731 363.93 197.31V221.16Z" fill="#FFD1B8"/>
<path opacity="0.7" d="M313.83 147.22C300.547 147.223 287.809 152.501 278.417 161.895C269.026 171.288 263.75 184.027 263.75 197.31V206.07C270.75 224.86 290.55 234.65 313.83 234.65C337.11 234.65 356.89 224.86 363.93 206.07V197.31C363.93 190.731 362.634 184.217 360.116 178.139C357.598 172.061 353.908 166.539 349.255 161.888C344.603 157.236 339.08 153.547 333.002 151.03C326.923 148.514 320.409 147.219 313.83 147.22Z" fill="#E5806C"/>
<path d="M363.93 182.82C363.93 210.48 341.51 225.05 313.83 225.05C286.18 225.05 263.75 210.48 263.75 182.82V163.89C263.75 150.606 269.026 137.866 278.417 128.471C287.808 119.076 300.546 113.795 313.83 113.79C320.409 113.789 326.925 115.084 333.004 117.601C339.083 120.118 344.606 123.809 349.259 128.461C353.911 133.114 357.602 138.637 360.119 144.716C362.636 150.795 363.931 157.31 363.93 163.89V182.82Z" fill="#FFD1B8"/>
<path style="mix-blend-mode:multiply" d="M363.93 182.82C363.93 210.48 341.51 225.05 313.83 225.05C286.18 225.05 263.75 210.48 263.75 182.82V163.89C263.75 150.606 269.026 137.866 278.417 128.471C287.808 119.076 300.546 113.795 313.83 113.79C320.409 113.789 326.925 115.084 333.004 117.601C339.083 120.118 344.606 123.809 349.259 128.461C353.911 133.114 357.602 138.637 360.119 144.716C362.636 150.795 363.931 157.31 363.93 163.89V182.82Z" fill="url(#paint13_radial)"/>
<path d="M363.93 182.82C363.93 210.48 341.51 225.05 313.83 225.05C286.18 225.05 263.75 210.48 263.75 182.82V163.89C263.75 150.606 269.026 137.866 278.417 128.471C287.808 119.076 300.546 113.795 313.83 113.79C320.409 113.789 326.925 115.084 333.004 117.601C339.083 120.118 344.606 123.809 349.259 128.461C353.911 133.114 357.602 138.637 360.119 144.716C362.636 150.795 363.931 157.31 363.93 163.89V182.82Z" fill="url(#paint14_radial)"/>
<path d="M297.08 173.16C297.08 173.16 300.32 169.79 304.22 171.47C304.22 171.47 301.07 168.54 297.08 173.16Z" fill="#EFA389"/>
<path d="M306.38 164.41C307.49 167.88 303.22 166.02 299.12 167.34C295.02 168.66 292.63 172.64 291.51 169.17C290.39 165.7 292.83 161.81 296.93 160.49C301.03 159.17 305.26 160.94 306.38 164.41Z" fill="#37393A"/>
<path d="M295.77 169C294.993 169.4 294.242 169.847 293.52 170.34C294.305 169.955 295.057 169.507 295.77 169Z" fill="#FFC878"/>
<path d="M329.71 172C329.71 172 334.28 171 336.56 174.62C336.56 174.6 335.6 170.41 329.71 172Z" fill="#EFA389"/>
<path d="M342.31 170C341.31 173.49 338.8 169.56 334.66 168.33C330.52 167.1 326.31 169.05 327.35 165.56C328.39 162.07 332.58 160.21 336.71 161.44C340.84 162.67 343.35 166.49 342.31 170Z" fill="#37393A"/>
<g style="mix-blend-mode:multiply">
<path d="M284 186.91C284 188.96 281.2 190.62 277.74 190.62C274.28 190.62 271.48 188.96 271.48 186.91C271.48 184.86 274.29 183.21 277.74 183.21C281.19 183.21 284 184.87 284 186.91Z" fill="#F2E6E4"/>
</g>
<g style="mix-blend-mode:multiply">
<path d="M356.69 186.91C356.69 188.96 353.88 190.62 350.43 190.62C346.98 190.62 344.17 188.96 344.17 186.91C344.17 184.86 346.97 183.21 350.43 183.21C353.89 183.21 356.69 184.87 356.69 186.91Z" fill="#F2E6E4"/>
</g>
<path d="M309.36 240.29C311.198 241.245 313.291 241.593 315.34 241.284C317.388 240.975 319.285 240.024 320.76 238.57" fill="#E5806C"/>
<g style="mix-blend-mode:multiply">
<path d="M313.68 190.62C313.68 190.62 317.8 201.36 320.92 191.85C319.695 192.166 318.416 192.219 317.169 192.007C315.921 191.795 314.732 191.323 313.68 190.62Z" fill="#F2E6E4"/>
</g>
<path d="M314.67 163C314.67 163 314.29 178.88 316.74 182.89C319.19 186.9 322.47 179.21 326.41 182.89C330.35 186.57 321.33 196.39 312.97 190.18" fill="#FFD1B8"/>
<path d="M314.67 163C314.67 163 314.74 163.82 314.85 165.23C314.96 166.64 315.14 168.66 315.34 171.08C315.556 173.807 315.937 176.519 316.48 179.2C316.81 180.6 317.19 182.14 318.05 182.94C318.26 183.11 318.57 183.16 319.2 182.88C319.83 182.6 320.49 182.15 321.2 181.73C322.034 181.228 322.978 180.936 323.95 180.88C324.996 180.886 326.004 181.277 326.78 181.98L326.92 182.09L326.99 182.15L327.12 182.3L327.3 182.54L327.66 183C327.93 183.499 328.1 184.046 328.16 184.61C328.214 185.088 328.187 185.571 328.08 186.04C328.002 186.481 327.861 186.909 327.66 187.31C326.955 188.767 325.87 190.007 324.52 190.9C323.348 191.677 322.038 192.22 320.66 192.5C319.508 192.695 318.33 192.665 317.19 192.41C316.7 192.26 316.19 192.15 315.82 191.98L314.73 191.45C314.244 191.159 313.785 190.824 313.36 190.45L312.89 190.1L313.42 190.36C313.897 190.621 314.391 190.848 314.9 191.04L315.99 191.4C316.39 191.5 316.84 191.53 317.31 191.61C318.355 191.679 319.404 191.584 320.42 191.33C321.595 190.988 322.692 190.421 323.65 189.66C324.672 188.833 325.481 187.774 326.01 186.57C326.15 186.285 326.234 185.976 326.26 185.66C326.314 185.369 326.314 185.071 326.26 184.78C326.26 184.47 326.12 184.4 326.09 184.14L325.73 183.68L325.54 183.44C325.54 183.44 325.42 183.31 325.64 183.54L325.54 183.47C324.54 182.6 323.54 182.71 322.18 183.47C321.51 183.82 320.83 184.28 319.96 184.67C319.731 184.78 319.489 184.861 319.24 184.91C318.962 184.997 318.67 185.031 318.38 185.01C317.725 185 317.098 184.738 316.63 184.28C315.977 183.605 315.506 182.776 315.26 181.87C315.02 181.09 314.833 180.295 314.7 179.49C314.461 178.021 314.314 176.538 314.26 175.05C314.2 173.643 314.17 172.31 314.17 171.05C314.17 168.61 314.34 166.57 314.42 165.15C314.5 163.73 314.67 163 314.67 163Z" fill="#E5806C"/>
<path style="mix-blend-mode:multiply" d="M243.2 329.33C243.2 329.33 321.65 326.74 397.92 326.33C397.92 326.3 312.54 318.07 243.2 329.33Z" fill="url(#paint15_linear)"/>
<path style="mix-blend-mode:multiply" d="M278.53 274.61C278.53 274.61 317.42 291.74 356.32 270.69C356.32 270.69 324.92 297.81 278.53 274.61Z" fill="url(#paint16_linear)"/>
<path d="M304.984 179.723C304.87 180.269 304.628 180.765 304.288 181.156C303.947 181.547 303.52 181.817 303.056 181.934C302.593 182.051 302.111 182.012 301.665 181.819C301.219 181.627 300.828 181.29 300.536 180.847C300.244 180.404 300.063 179.873 300.014 179.313C299.964 178.754 300.048 178.19 300.256 177.684C300.464 177.179 300.788 176.753 301.19 176.455C301.592 176.157 302.057 176 302.531 176C303.267 176.122 303.935 176.578 304.392 177.273C304.85 177.968 305.062 178.846 304.984 179.723Z" fill="#35302F"/>
<path d="M333.984 179.723C333.87 180.269 333.628 180.765 333.288 181.156C332.947 181.547 332.52 181.817 332.056 181.934C331.593 182.051 331.111 182.012 330.665 181.819C330.219 181.627 329.828 181.29 329.536 180.847C329.244 180.404 329.063 179.873 329.014 179.313C328.964 178.754 329.048 178.19 329.256 177.684C329.464 177.179 329.788 176.753 330.19 176.455C330.592 176.157 331.057 176 331.531 176C332.267 176.122 332.935 176.578 333.392 177.273C333.85 177.968 334.062 178.846 333.984 179.723Z" fill="#35302F"/>
<path d="M307.92 195.66C312.269 197.162 316.883 197.748 321.47 197.38C321.47 197.38 315.55 215.7 307.92 195.66Z" fill="white"/>
<path d="M353 146.63C353 146.63 355.29 161.89 363.88 171.81C363.88 171.81 365.02 145.67 363.11 145.86" fill="#37393A"/>
<g style="mix-blend-mode:multiply" opacity="0.4">
<path d="M277 151.5C277 151.5 287.75 151.5 293.54 146.78C291.54 149.01 288.95 152.73 292.45 154.24C297.61 156.46 306.19 153.04 306.19 153.04C306.19 153.04 306.19 160.04 311.72 160.22C317.25 160.4 314.78 148.94 314.78 148.94C314.78 148.94 325.08 159.2 335.58 156.46C343.2 154.46 345.28 149.97 345.85 147.65C345.59 149.82 345.46 153.65 347.79 154.07C351.03 154.58 349.31 149.79 349.31 149.79C349.31 149.79 358 153 364 149.65C363.83 147.33 363.55 145.82 363.08 145.86L360.67 146.04C356.371 134.85 348.213 125.565 337.67 119.86C337.341 120.13 337.028 120.417 336.73 120.72C336.73 120.72 337.06 120.32 337.46 119.72L336.66 119.28C336.34 119.107 336.007 118.947 335.66 118.8C334.81 118.38 333.96 117.99 333.08 117.63L332.81 117.51C331.969 118.004 331.16 118.552 330.39 119.15C329.809 118.046 329.158 116.98 328.44 115.96L327.04 115.57C326.4 115.4 325.77 115.21 325.12 115.06C324.47 114.91 323.99 114.84 323.42 114.73C322.85 114.62 322.11 114.45 321.42 114.35C320.73 114.25 320.17 114.2 319.55 114.13C318.93 114.06 318.29 113.96 317.65 113.92C316.42 113.82 315.17 113.77 313.91 113.77C316.246 115.579 318.687 117.249 321.22 118.77C321.22 118.77 304.22 117.42 289.78 119.84C288.89 120.32 288.03 120.84 287.18 121.38L286.62 121.73C285.89 122.21 285.17 122.73 284.46 123.21L284.1 123.47C283.27 124.08 282.47 124.71 281.68 125.36L281.37 125.63C280.71 126.2 280.06 126.78 279.42 127.38L278.91 127.87C278.24 128.52 277.58 129.19 276.91 129.87L276.78 130C276.09 130.75 275.44 131.52 274.78 132.31L274.38 132.82C273.87 133.46 273.38 134.1 272.92 134.76L272.5 135.35C271.93 136.18 271.37 137.02 270.85 137.89C270.35 138.73 269.87 139.59 269.41 140.47C269.28 140.7 269.16 140.94 269.04 141.18C268.68 141.89 268.34 142.62 268.04 143.35C267.95 143.55 267.85 143.76 267.76 143.97C267.36 144.89 266.99 145.82 266.65 146.77L266.47 147.29C266.2 148.08 265.94 148.87 265.71 149.68C265.623 149.96 265.543 150.24 265.47 150.52C265.24 151.35 265.04 152.18 264.85 153.01C264.85 153.18 264.77 153.35 264.74 153.52C264.53 154.52 264.35 155.52 264.21 156.52C264.21 156.79 264.14 157.05 264.11 157.32C264 158.11 263.92 158.9 263.86 159.7C263.86 160 263.81 160.3 263.79 160.6C263.72 161.65 263.68 162.7 263.68 163.77V168.77C263.73 170.83 263.77 172.11 263.77 172.11C263.77 172.11 273.38 163.3 277 151.5Z" fill="#E5806C"/>
</g>
<g style="mix-blend-mode:multiply">
<g style="mix-blend-mode:multiply">
<path d="M332.92 109C331.899 109.096 330.907 109.391 330 109.87C331.37 110.17 332.7 110.49 334 110.87C334.31 109.83 334.21 109 332.92 109Z" fill="#C0DCE2"/>
</g>
<g style="mix-blend-mode:multiply">
<path d="M265.56 126.21C265.02 125.158 264.391 124.155 263.68 123.21C263.25 123.81 262.85 124.42 262.46 125.03C263.239 126.229 264.152 127.336 265.18 128.33C263.648 128.172 262.106 128.141 260.57 128.24C260.01 129.3 259.48 130.37 259 131.44C260.854 131.205 262.672 130.738 264.41 130.05C262.284 131.178 260.602 132.994 259.64 135.2C258.91 136.93 258.75 145.47 258.78 153.89C259.96 141.18 265.22 122.89 284.58 113.78C275.26 115.58 267.13 119.2 265.56 126.21Z" fill="#C0DCE2"/>
</g>
<g style="mix-blend-mode:multiply">
<path d="M349.32 111.14C347.229 110.049 344.896 109.506 342.539 109.562C340.181 109.618 337.876 110.271 335.84 111.46C343.402 113.798 350.272 117.964 355.84 123.59C355.51 118.47 353.92 113.31 349.32 111.14Z" fill="#C0DCE2"/>
</g>
<g style="mix-blend-mode:multiply">
<path d="M310.83 108.24C311.57 108.24 312.31 108.24 313.07 108.24C316.522 108.232 319.972 108.433 323.4 108.84C321.859 106.386 319.977 104.164 317.81 102.24C316.35 102.18 314.86 102.13 313.33 102.13C310.49 102.13 307.8 102.25 305.23 102.46C306.787 104.664 308.676 106.614 310.83 108.24Z" fill="#C0DCE2"/>
</g>
</g>
<path d="M263.84 172.19C263.84 172.19 273.38 162.27 277.01 149.11C277.01 149.11 290.37 149.11 295.32 141.86C295.32 141.86 287.32 149.68 292.46 152.16C297.6 154.64 306.2 150.82 306.2 150.82C306.2 150.82 306.2 158.65 311.73 158.82C317.26 158.99 314.79 146.22 314.79 146.22C314.79 146.22 325.09 157.67 335.59 154.62C346.09 151.57 346.08 143.17 346.08 143.17C346.08 143.17 344.55 151.38 347.8 151.95C351.05 152.52 349.32 147.18 349.32 147.18C349.32 147.18 361.92 153.67 367.45 142.18C372.98 130.69 359.45 136.83 359.45 136.83C359.45 136.83 364.6 116.23 354.11 111.27C343.62 106.31 336.74 114.7 336.74 114.7C336.74 114.7 340.94 108.98 337.69 109.17C334.44 109.36 330.44 112.98 330.44 112.98C330.44 112.98 323.58 97.72 312.7 98.67C301.82 99.62 321.29 112.6 321.29 112.6C321.29 112.6 274.35 108.4 270.34 126.34C270.34 126.34 267.67 121 266.71 122.71C265.75 124.42 270 128.5 270 128.5C270 128.5 261.6 127.5 261.6 130.41C261.6 133.32 269.23 130.22 269.23 130.22C267.104 131.348 265.422 133.164 264.46 135.37C262.89 139 263.84 172.19 263.84 172.19Z" fill="#37393A"/>
<path d="M359.44 136.89C360.499 132.304 360.873 127.586 360.55 122.89C359.04 130.89 354.48 140.31 354.48 140.31C365.16 137.45 364.59 143.74 355.81 144.51C347.03 145.28 344.55 134.78 344.55 134.78C344.55 134.78 340.17 151.38 327.55 148.89C314.93 146.4 311.91 130.77 311.91 130.77C311.91 130.77 312.29 145.08 308.85 145.08C305.41 145.08 305.42 136.87 305.42 136.87C305.42 136.87 303.89 143.93 298.17 143.55C292.45 143.17 303.53 130 303.53 130C303.53 130 273.38 138.2 277.2 125.8C281.02 113.4 297.42 113 297.42 113L296.42 112.86C284.42 114.12 272.25 117.6 270.29 126.36C270.29 126.36 267.62 121.02 266.66 122.73C265.7 124.44 270 128.5 270 128.5C270 128.5 261.6 127.5 261.6 130.41C261.6 133.32 269.23 130.22 269.23 130.22C267.104 131.348 265.422 133.164 264.46 135.37C262.94 138.99 263.89 172.19 263.89 172.19C263.89 172.19 273.43 162.27 277.06 149.11C277.06 149.11 287.81 149.11 293.6 143.84C291.6 146.32 289.01 150.47 292.51 152.16C297.67 154.64 306.25 150.82 306.25 150.82C306.25 150.82 306.25 158.65 311.78 158.82C317.31 158.99 314.84 146.22 314.84 146.22C314.84 146.22 325.14 157.67 335.64 154.62C343.26 152.4 345.34 147.37 345.91 144.78C345.65 147.2 345.52 151.54 347.85 151.95C351.09 152.52 349.37 147.18 349.37 147.18C349.37 147.18 361.97 153.67 367.5 142.18C373.03 130.69 359.44 136.89 359.44 136.89Z" fill="#3F4344"/>
<path d="M158.64 378.14C158.64 378.14 159.91 351.14 162.46 343.8C165.01 336.46 214.87 326.24 227.59 378.14H158.64Z" fill="#FFD1B8"/>
<path style="mix-blend-mode:multiply" d="M158.64 378.14C158.64 378.14 159.91 351.14 162.46 343.8C165.01 336.46 214.87 326.24 227.59 378.14H158.64Z" fill="url(#paint17_linear)"/>
<path d="M233.78 378H248.41C248.41 378 245.86 370.5 232.76 369.73" fill="#FFD1B8"/>
<path d="M185.42 378H242.22C242.22 378 235.86 360 211.43 360C187 360 185.42 378 185.42 378Z" fill="#513099"/>
<path d="M172.44 378.21C172.44 378.21 176.44 357.6 200.87 356.45C225.3 355.3 239.61 362.18 239.99 366.76C240.37 371.34 216.9 364.28 216.9 364.28C216.9 364.28 230.45 377.44 227.02 383.17C223.59 388.9 207.74 367 207.74 367C207.74 367 209.84 379.4 204.69 381.5C199.54 383.6 196.69 367.38 196.69 367.38C196.69 367.38 196.48 381.06 190.39 381.5C186.89 381.75 185.39 378.07 185.39 378.07L172.44 378.21Z" fill="#FFD1B8"/>
<path style="mix-blend-mode:multiply" d="M210 346.79C205.545 343.028 200.29 340.333 194.635 338.91C188.98 337.487 183.075 337.374 177.37 338.58C177.37 338.58 196.29 332.28 210 346.79Z" fill="url(#paint18_linear)"/>
<path style="mix-blend-mode:multiply" d="M184.85 362.5C184.85 362.5 190.32 352.19 212.96 355.12C213 355.12 193.11 349.52 184.85 362.5Z" fill="url(#paint19_linear)"/>
<path d="M468.23 378.65C468.23 378.65 466.95 351.65 464.41 344.3C461.87 336.95 412 326.75 399.28 378.65H468.23Z" fill="#FFD1B8"/>
<path style="mix-blend-mode:multiply" d="M468.23 378.65C468.23 378.65 466.95 351.65 464.41 344.3C461.87 336.95 412 326.75 399.28 378.65H468.23Z" fill="url(#paint20_linear)"/>
<path d="M446.64 377.38C446.64 377.38 442.78 358.11 418.36 356.96C393.94 355.81 379.62 362.69 379.24 367.26C378.86 371.83 402.33 364.78 402.33 364.78C402.33 364.78 390.16 370.38 393.59 376.11C397.02 381.84 411.49 367.46 411.49 367.46C411.49 367.46 409.3 374.77 414.49 376.87C419.68 378.97 422.6 367.87 422.6 367.87C422.6 367.87 422.65 377.09 428.74 377.54C430.432 377.71 432.138 377.71 433.83 377.54L446.64 377.38Z" fill="#FFD1B8"/>
<path style="mix-blend-mode:multiply" d="M416.83 347.29C421.287 343.532 426.543 340.839 432.197 339.418C437.851 337.997 443.755 337.885 449.46 339.09C449.46 339.09 430.57 332.79 416.83 347.29Z" fill="url(#paint21_linear)"/>
<path style="mix-blend-mode:multiply" d="M439 363C439 363 433.52 352.7 410.88 355.62C410.85 355.62 430.7 350 439 363Z" fill="url(#paint22_linear)"/>
<path style="mix-blend-mode:multiply" d="M235.17 368.24C229.84 367.84 221.61 365.62 218.33 364.69C221.39 367.11 229.24 372.87 234.08 372.69C236.53 372.59 237.08 371.35 236.87 369.91C236.36 369.34 235.78 368.79 235.17 368.24Z" fill="url(#paint23_linear)"/>
<path d="M304.17 378.65H455.8L457.32 372.55L302.64 365.17L304.17 378.65Z" fill="#513099"/>
<path d="M307.98 365.42L449.44 372.29V371.02L307.73 362.62L307.98 365.42Z" fill="#F4F3F2"/>
<g style="mix-blend-mode:soft-light" opacity="0.3">
<path d="M237.51 284.26L241.07 354.48L394.74 350.41L398.81 292.41C398.81 292.41 310.78 296.47 237.51 284.26Z" fill="white"/>
</g>
<path style="mix-blend-mode:soft-light" opacity="0.4" d="M365.16 99.53L386.241 116.344C403.489 130.101 416.289 148.646 423.037 169.651L462.579 292.749C464.808 299.687 467.733 306.364 470.976 312.889C481.102 333.26 500.41 377.508 469.54 363.95C440.753 351.307 423.034 351.766 415.464 352.975C414.248 353.169 413.121 351.47 413.87 350.494C414.068 350.235 414.154 349.909 414.108 349.586L414.017 348.944C413.823 347.588 412.662 346.58 411.292 346.58H375.587C356.75 346.58 341.48 331.31 341.48 312.473V270.027C341.48 269.399 340.889 268.938 340.28 269.09C339.67 269.242 339.08 268.781 339.08 268.153V262.326C339.08 260.156 340.358 258.195 342.283 257.192C342.852 256.896 343.411 256.597 343.943 256.307C346.538 254.894 348.08 252.143 348.08 249.188V222.682C348.08 219.69 342.617 218.741 339.91 220.017C337.548 221.13 336.798 218.48 336.894 215.87C337.277 205.498 337.791 182.615 335.877 163.783C335.358 158.674 337.086 153.585 340.033 149.379C342.776 145.466 345.573 140.271 345.526 135.406C345.463 128.845 345.236 119.16 348.458 113.445C350.557 109.723 343.896 106.989 343.45 102.74" fill="url(#paint24_linear)"/>
<path d="M396 145.46L413.6 336.28H626.01L658.34 129.88L396 145.46Z" fill="#513099"/>
<path style="mix-blend-mode:multiply" d="M396 145.46L413.6 336.28H626.01L658.34 129.88L396 145.46Z" fill="url(#paint25_linear)"/>
<path d="M618.08 306.46L624.24 265.09L630.58 223.75L643.32 141.09L644.01 141.85L618.58 143.39L593.14 144.84L542.26 147.73L491.38 150.62L440.49 153.28L491.34 149.89L542.2 146.74L593.07 143.58L618.5 142.01L643.93 140.53L644.76 140.48L644.62 141.29L631.47 223.89L624.86 265.19L618.08 306.46Z" fill="#C2A0E8"/>
<path d="M474.83 206.74L483.28 298.25H585.13L600.64 199.27L474.83 206.74Z" fill="#3A227C"/>
<g style="mix-blend-mode:multiply" opacity="0.4">
<path d="M485.98 296.23L477.7 206.57L474.83 206.74L483.28 298.25H585.13L585.45 296.23H485.98Z" fill="#93BDC6"/>
</g>
<path d="M421.14 328.18L404.23 144.98L396 145.46L413.6 336.28H626.01L627.28 328.18H421.14Z" fill="#3A227C"/>
<path style="mix-blend-mode:multiply" d="M396 145.46L413.6 336.28H626.01L658.34 129.88L396 145.46Z" fill="url(#paint26_linear)"/>
<path style="mix-blend-mode:soft-light" d="M396 145.46L413.6 336.28H626.01L658.34 129.88L396 145.46Z" fill="url(#paint27_linear)"/>
<path d="M511.64 251.6L565.63 248.76L582.41 377.6H522.4L511.64 251.6Z" fill="#513099"/>
<path d="M526.45 374L515.96 251.38L511.64 251.6L522.4 377.6H582.41L581.95 374H526.45Z" fill="#7253C9"/>
<path d="M565.62 248.76C565.62 248.76 565.9 250.56 566.4 253.7C566.9 256.84 567.55 261.34 568.4 266.7C569.25 272.06 570.12 278.4 571.03 285.15C571.94 291.9 572.91 299.15 573.88 306.33C574.85 313.51 575.69 320.75 576.55 327.52C577.41 334.29 578.09 340.61 578.74 346.03C579.39 351.45 579.83 355.97 580.18 359.13C580.53 362.29 580.69 364.13 580.69 364.13C580.69 364.13 580.41 362.33 579.91 359.19C579.41 356.05 578.71 351.55 577.91 346.19C577.11 340.83 576.19 334.5 575.29 327.74C574.39 320.98 573.4 313.74 572.43 306.57C571.46 299.4 570.61 292.14 569.76 285.37C568.91 278.6 568.21 272.28 567.57 266.86C566.93 261.44 566.48 256.92 566.13 253.76C565.78 250.6 565.62 248.76 565.62 248.76Z" fill="#C2A0E8"/>
<path d="M493.35 377.6H596.66V372.89L493.35 371.54V377.6Z" fill="#3A227C"/>
<path d="M514.91 371.54H493.35V377.59H514.91V371.54Z" fill="#6D4ACE"/>
<g style="mix-blend-mode:multiply" opacity="0.4">
<path d="M511.64 251.6V336.28H518.88L511.64 251.6Z" fill="#93BDC6"/>
</g>
<path style="mix-blend-mode:soft-light" d="M396 145.46L413.6 336.28H626.01L658.34 129.88L396 145.46Z" fill="url(#paint28_linear)"/>
<path d="M283.11 148.49C284.022 148.303 284.923 148.066 285.81 147.78C286.25 147.64 286.7 147.51 287.13 147.33C287.56 147.15 288 147.01 288.42 146.83L289.68 146.25C290.099 146.05 290.506 145.826 290.9 145.58L291.5 145.24C291.7 145.13 291.87 144.97 292.06 144.84L293.16 144L294.16 143.21L293.36 144.21C292.759 144.978 292.234 145.802 291.79 146.67C291.335 147.514 291.047 148.437 290.94 149.39C290.906 149.845 290.971 150.302 291.13 150.73C291.229 150.931 291.357 151.116 291.51 151.28C291.658 151.439 291.83 151.574 292.02 151.68C292.205 151.821 292.411 151.932 292.63 152.01C292.845 152.112 293.069 152.193 293.3 152.25C293.757 152.391 294.226 152.494 294.7 152.56C295.177 152.625 295.658 152.665 296.14 152.68C296.62 152.68 297.14 152.68 297.6 152.68C298.06 152.68 298.6 152.61 299.05 152.54C299.5 152.47 300.05 152.41 300.49 152.3C300.969 152.215 301.443 152.105 301.91 151.97C302.38 151.86 302.84 151.69 303.31 151.55C304.228 151.238 305.126 150.87 306 150.45L306.56 150.19V150.81C306.575 151.822 306.709 152.829 306.96 153.81C307.085 154.302 307.249 154.783 307.45 155.25L307.78 155.92L308.18 156.54C308.33 156.73 308.51 156.9 308.66 157.09C308.81 157.28 309.04 157.39 309.22 157.55C309.612 157.823 310.048 158.026 310.51 158.15C310.743 158.227 310.985 158.274 311.23 158.29H311.59H311.68C311.68 158.29 311.74 158.29 311.68 158.29H312C312.227 158.284 312.453 158.247 312.67 158.18L312.98 158.06L313.26 157.9C313.997 157.289 314.49 156.434 314.65 155.49C314.881 154.49 314.992 153.466 314.98 152.44C314.97 150.358 314.759 148.281 314.35 146.24L314 144.45L315.19 145.84C315.69 146.42 316.25 146.99 316.82 147.54C317.39 148.09 317.99 148.61 318.61 149.1C319.23 149.59 319.86 150.1 320.51 150.53L321.51 151.19L322.51 151.8C323.19 152.2 323.9 152.54 324.61 152.88C326.049 153.52 327.555 153.999 329.1 154.31C329.87 154.451 330.648 154.548 331.43 154.6H333H333.15L333.75 154.54C334.14 154.54 334.56 154.48 334.94 154.41L336.06 154.15C336.436 154.064 336.803 153.947 337.16 153.8C337.533 153.689 337.895 153.541 338.24 153.36C338.58 153.18 338.94 153.02 339.24 152.83L340.24 152.18C340.861 151.715 341.443 151.2 341.98 150.64C342.519 150.071 343.011 149.459 343.45 148.81C343.885 148.171 344.276 147.502 344.62 146.81C344.962 146.111 345.247 145.385 345.47 144.64L346.25 144.8C346.07 145.941 346 147.096 346.04 148.25C346.049 148.814 346.126 149.375 346.27 149.92C346.339 150.178 346.44 150.426 346.57 150.66C346.679 150.876 346.841 151.062 347.04 151.2C347.15 151.2 347.23 151.31 347.35 151.35C347.47 151.39 347.64 151.44 347.76 151.46C348.012 151.499 348.268 151.499 348.52 151.46C348.742 151.437 348.948 151.334 349.1 151.17C349.249 150.979 349.352 150.757 349.4 150.52C349.495 149.971 349.495 149.409 349.4 148.86C349.317 148.287 349.2 147.719 349.05 147.16L348.9 146.57L349.45 146.83C350.245 147.205 351.067 147.519 351.91 147.77C352.34 147.91 352.76 148.03 353.19 148.13C353.62 148.23 354.05 148.33 354.49 148.4C354.922 148.49 355.36 148.55 355.8 148.58C356.238 148.636 356.679 148.663 357.12 148.66C357.561 148.678 358.002 148.662 358.44 148.61C358.88 148.55 359.33 148.54 359.75 148.44L361.04 148.12L362.26 147.61C362.66 147.422 363.041 147.198 363.4 146.94L363.96 146.59L364.45 146.14C364.803 145.852 365.137 145.541 365.45 145.21L366.27 144.21C366.539 143.853 366.773 143.471 366.97 143.07L367.61 141.89L367.01 143.09C366.832 143.502 366.61 143.894 366.35 144.26L365.56 145.36C365.268 145.713 364.954 146.047 364.62 146.36L364.13 146.83L363.57 147.22C363.205 147.485 362.82 147.722 362.42 147.93L361.17 148.49L359.86 148.85C359.418 148.945 358.97 149.015 358.52 149.06C357.164 149.194 355.797 149.157 354.45 148.95C354.002 148.895 353.558 148.815 353.12 148.71C352.67 148.62 352.23 148.5 351.8 148.37C350.925 148.119 350.069 147.805 349.24 147.43L349.64 147.1C349.805 147.682 349.938 148.273 350.04 148.87C350.145 149.489 350.145 150.121 350.04 150.74C349.981 151.085 349.833 151.41 349.61 151.68C349.352 151.97 348.996 152.155 348.61 152.2C348.279 152.259 347.941 152.259 347.61 152.2C347.44 152.2 347.32 152.13 347.17 152.09C346.997 152.031 346.83 151.958 346.67 151.87C346.379 151.673 346.136 151.413 345.96 151.11C345.795 150.829 345.671 150.526 345.59 150.21C345.417 149.614 345.316 149 345.29 148.38C345.231 147.171 345.288 145.958 345.46 144.76L346.25 144.92C346.025 145.722 345.734 146.505 345.38 147.26C345.024 148.004 344.617 148.723 344.16 149.41C343.7 150.1 343.181 150.749 342.61 151.35C342.039 151.956 341.421 152.514 340.76 153.02L339.76 153.71C339.4 153.92 339.02 154.1 338.65 154.29C338.28 154.48 337.895 154.641 337.5 154.77C337.114 154.928 336.716 155.055 336.31 155.15L335.08 155.43C334.67 155.51 334.27 155.53 333.87 155.58L333.27 155.64H333.12H331.39C330.57 155.64 329.74 155.48 328.93 155.36C328.121 155.204 327.323 154.997 326.54 154.74C325.752 154.501 324.98 154.21 324.23 153.87C323.48 153.53 322.74 153.17 322.03 152.76L320.97 152.14L319.97 151.46C319.3 150.99 318.64 150.46 317.97 149.98C317.3 149.5 316.73 148.92 316.14 148.35C315.543 147.783 314.976 147.185 314.44 146.56L315.28 146.15C315.696 148.265 315.903 150.415 315.9 152.57C315.9 153.664 315.776 154.754 315.53 155.82C315.307 156.978 314.675 158.018 313.75 158.75L313.35 158.98L312.92 159.14C312.631 159.226 312.331 159.273 312.03 159.28H311.59H311.16C310.873 159.262 310.591 159.205 310.32 159.11C309.764 158.959 309.24 158.712 308.77 158.38C308.55 158.19 308.31 158.02 308.11 157.82C307.91 157.62 307.72 157.4 307.55 157.17C307.38 156.94 307.23 156.7 307.09 156.46L306.72 155.71C306.505 155.201 306.331 154.676 306.2 154.14C305.946 153.072 305.822 151.977 305.83 150.88L306.39 151.25C305.476 151.669 304.538 152.033 303.58 152.34C303.1 152.48 302.63 152.65 302.14 152.75C301.65 152.85 301.14 152.99 300.66 153.07C300.18 153.15 299.66 153.23 299.18 153.29C298.7 153.35 298.18 153.36 297.67 153.41C297.16 153.46 296.67 153.41 296.17 153.41C295.664 153.395 295.159 153.345 294.66 153.26C294.154 153.187 293.655 153.07 293.17 152.91C292.924 152.838 292.683 152.747 292.45 152.64C292.208 152.543 291.979 152.416 291.77 152.26C291.532 152.112 291.316 151.93 291.13 151.72C290.954 151.519 290.809 151.294 290.7 151.05C290.515 150.545 290.447 150.005 290.5 149.47C290.644 148.457 290.983 147.483 291.5 146.6C291.982 145.717 292.548 144.883 293.19 144.11L293.42 144.35L292.28 145.17C292.093 145.315 291.896 145.445 291.69 145.56L291.08 145.9C290.676 146.137 290.258 146.351 289.83 146.54L288.54 147.1C288.11 147.27 287.66 147.41 287.22 147.57C286.78 147.73 286.33 147.84 285.89 147.97C284.94 148.13 284 148.33 283.11 148.49Z" fill="#8FF9F9"/>
<path d="M254.3 167.23C254.3 167.23 243.62 102.1 313.3 102.1C382.98 102.1 374.1 168.25 374.1 168.25H369.52C369.52 168.25 375.88 108.25 313.04 108.25C250.2 108.25 258.85 167.53 258.85 167.53" fill="#BFACEA"/>
<g opacity="0.2">
<path d="M380.07 80.3999L361.82 105.65L384.32 87.1499L380.07 80.3999Z" fill="#6CFFF8"/>
<path d="M365.07 107.9L411.32 89.3999L414.32 94.6499L365.07 107.9Z" fill="#6CFFF8"/>
<path d="M346.32 99.8999L349.07 90.6499L351.07 91.6499L346.32 99.8999Z" fill="#6CFFF8"/>
<path d="M255.57 86.8999L269.07 106.65L250.82 91.3999L255.57 86.8999Z" fill="#6CFFF8"/>
<path d="M264.66 109.65L253.46 102.96L252.54 105.56L264.66 109.65Z" fill="#6CFFF8"/>
<path opacity="0.8" d="M419.45 48.2899L417.83 46.0599C420.162 44.3534 422.085 42.1486 423.459 39.6058C424.832 37.063 425.622 34.2461 425.77 31.3599L428.52 31.4899C428.351 34.788 427.449 38.0071 425.88 40.9131C424.311 43.8192 422.115 46.3391 419.45 48.2899Z" fill="#95F4E7"/>
<path opacity="0.8" d="M422.5 19.6699C420.978 17.4191 418.999 15.5141 416.692 14.0789C414.385 12.6437 411.801 11.7104 409.11 11.3399L409.49 8.60986C412.565 9.03359 415.517 10.1014 418.152 11.7436C420.786 13.3857 423.045 15.5653 424.78 18.1399L422.5 19.6699Z" fill="#95F4E7"/>
<path opacity="0.8" d="M387.39 27.8399L384.67 27.4699C385.075 24.5394 386.063 21.7197 387.576 19.1777C389.089 16.6356 391.097 14.4227 393.48 12.6699L395.11 14.8899C393.024 16.4236 391.266 18.3597 389.94 20.5839C388.614 22.808 387.747 25.2752 387.39 27.8399Z" fill="#95F4E7"/>
<path opacity="0.8" d="M404 52.3499C400.937 51.997 397.982 51.0057 395.326 49.44C392.67 47.8743 390.372 45.7689 388.58 43.2599L390.82 41.6599C392.383 43.8633 394.392 45.7139 396.716 47.092C399.039 48.4701 401.627 49.3449 404.31 49.6599L404 52.3499Z" fill="#95F4E7"/>
<path opacity="0.8" d="M410.66 29.36C410.871 30.1489 410.844 30.9828 410.581 31.7562C410.319 32.5296 409.833 33.2078 409.185 33.7051C408.537 34.2023 407.756 34.4963 406.941 34.5499C406.126 34.6034 405.314 34.4141 404.606 34.0059C403.899 33.5976 403.328 32.9888 402.967 32.2564C402.606 31.524 402.469 30.7008 402.576 29.891C402.682 29.0812 403.026 28.3211 403.564 27.7068C404.103 27.0926 404.811 26.6517 405.6 26.44C406.124 26.2966 406.671 26.2585 407.21 26.3279C407.749 26.3973 408.268 26.5729 408.739 26.8444C409.21 27.1159 409.622 27.4781 409.951 27.9099C410.281 28.3416 410.522 28.8345 410.66 29.36Z" fill="#95F4E7"/>
<path opacity="0.8" d="M399.518 0.203325L397.519 0.74292L401.693 16.1994L403.691 15.6598L399.518 0.203325Z" fill="#95F4E7"/>
<path opacity="0.8" d="M391.882 33.3967L376.427 37.5754L376.967 39.5737L392.422 35.3949L391.882 33.3967Z" fill="#95F4E7"/>
<path opacity="0.8" d="M411.662 44.6726L409.664 45.2129L413.843 60.6679L415.841 60.1276L411.662 44.6726Z" fill="#95F4E7"/>
<path opacity="0.8" d="M436.391 21.3083L420.936 25.4844L421.475 27.4827L436.931 23.3066L436.391 21.3083Z" fill="#95F4E7"/>
<path opacity="0.8" d="M672.13 311.45L671.85 309.45C673.922 309.161 675.904 308.411 677.648 307.254C679.393 306.098 680.856 304.566 681.93 302.77L683.65 303.77C682.421 305.826 680.75 307.582 678.757 308.911C676.764 310.239 674.5 311.107 672.13 311.45Z" fill="#95F4E7"/>
<path opacity="0.8" d="M683.83 294.21C683.627 292.253 683.013 290.361 682.029 288.656C681.045 286.952 679.713 285.475 678.12 284.32L679.29 282.7C681.109 284.02 682.631 285.708 683.754 287.655C684.877 289.602 685.578 291.764 685.81 294L683.83 294.21Z" fill="#95F4E7"/>
<path opacity="0.8" d="M668.24 287.45L666.62 286.28C667.88 284.546 669.473 283.083 671.308 281.975C673.142 280.867 675.18 280.138 677.3 279.83L677.58 281.83C675.727 282.095 673.945 282.728 672.341 283.694C670.736 284.659 669.342 285.936 668.24 287.45Z" fill="#95F4E7"/>
<path opacity="0.8" d="M670.48 308.77C668.646 307.499 667.098 305.859 665.935 303.954C664.773 302.049 664.022 299.922 663.73 297.71L665.73 297.45C665.986 299.388 666.646 301.25 667.665 302.917C668.685 304.584 670.042 306.019 671.65 307.13L670.48 308.77Z" fill="#95F4E7"/>
<path opacity="0.8" d="M673 296.36C672.868 296.939 672.567 297.465 672.136 297.873C671.704 298.281 671.161 298.552 670.576 298.651C669.991 298.75 669.389 298.673 668.847 298.43C668.306 298.187 667.848 297.789 667.533 297.286C667.218 296.783 667.059 296.198 667.076 295.604C667.094 295.011 667.287 294.436 667.631 293.952C667.976 293.469 668.456 293.098 669.011 292.888C669.566 292.677 670.171 292.636 670.75 292.77C671.524 292.948 672.195 293.427 672.617 294.1C673.039 294.773 673.176 295.585 673 296.36Z" fill="#95F4E7"/>
<path opacity="0.8" d="M674.295 273.548L671.691 284.852L673.153 285.188L675.757 273.884L674.295 273.548Z" fill="#95F4E7"/>
<path opacity="0.8" d="M657.911 289.951L657.574 291.413L668.878 294.016L669.215 292.554L657.911 289.951Z" fill="#95F4E7"/>
<path opacity="0.8" d="M666.926 306.158L664.328 317.463L665.79 317.799L668.388 306.494L666.926 306.158Z" fill="#95F4E7"/>
<path opacity="0.8" d="M676.484 299.115L676.154 300.57L687.406 303.122L687.736 301.667L676.484 299.115Z" fill="#95F4E7"/>
<path opacity="0.8" d="M44.7698 280.67L44.0598 277.24C47.6636 276.481 51.0534 274.93 53.9834 272.699C56.9134 270.467 59.3101 267.612 60.9998 264.34L64.1198 265.94C62.1921 269.679 59.455 272.941 56.1077 275.489C52.7604 278.037 48.8872 279.807 44.7698 280.67Z" fill="#95F4E7"/>
<path opacity="0.8" d="M63.3399 249.05C62.7569 245.637 61.4619 242.386 59.5391 239.507C57.6163 236.628 55.1089 234.186 52.1799 232.34L54.0399 229.34C57.3917 231.446 60.261 234.236 62.4599 237.527C64.6588 240.818 66.1378 244.537 66.7999 248.44L63.3399 249.05Z" fill="#95F4E7"/>
<path opacity="0.8" d="M18.2898 240.09L15.2898 238.22C17.3031 235.035 19.9324 232.284 23.0234 230.129C26.1145 227.974 29.6049 226.458 33.2898 225.67L34.0098 229.1C30.7897 229.793 27.7404 231.122 25.0409 233.009C22.3414 234.896 20.0462 237.304 18.2898 240.09Z" fill="#95F4E7"/>
<path opacity="0.8" d="M24.6798 277.27C21.3104 275.248 18.4016 272.543 16.1403 269.33C13.879 266.116 12.3153 262.464 11.5498 258.61L14.9898 257.93C15.6612 261.303 17.0301 264.497 19.0089 267.31C20.9876 270.122 23.5323 272.489 26.4798 274.26L24.6798 277.27Z" fill="#95F4E7"/>
<path opacity="0.8" d="M44.5099 254.08C44.3349 255.103 43.8611 256.052 43.1481 256.806C42.435 257.561 41.5147 258.087 40.503 258.32C39.4912 258.552 38.4333 258.48 37.4625 258.112C36.4917 257.745 35.6514 257.098 35.0473 256.254C34.4433 255.41 34.1026 254.405 34.0681 253.368C34.0336 252.33 34.3069 251.306 34.8535 250.423C35.4001 249.541 36.1957 248.84 37.14 248.409C38.0842 247.977 39.135 247.835 40.1599 248C40.8463 248.11 41.504 248.355 42.095 248.721C42.686 249.088 43.1985 249.567 43.603 250.132C44.0076 250.698 44.296 251.338 44.4516 252.015C44.6073 252.693 44.6271 253.395 44.5099 254.08Z" fill="#95F4E7"/>
<path opacity="0.8" d="M44.2857 213.914L41.0171 234.05L43.6131 234.472L46.8817 214.335L44.2857 213.914Z" fill="#95F4E7"/>
<path opacity="0.8" d="M1.16201 245.558L0.741211 248.162L20.9471 251.428L21.3679 248.824L1.16201 245.558Z" fill="#95F4E7"/>
<path opacity="0.8" d="M35.0096 271.994L31.748 292.132L34.3442 292.552L37.6058 272.415L35.0096 271.994Z" fill="#95F4E7"/>
<path opacity="0.8" d="M58.4905 254.946L58.0691 257.542L78.2154 260.812L78.6368 258.216L58.4905 254.946Z" fill="#95F4E7"/>
<g opacity="0.8">
<path opacity="0.8" d="M177.15 151.62H190.56C190.56 151.62 183.86 186.85 177.15 151.62Z" fill="#FFDC31"/>
<path opacity="0.8" d="M182.14 165.84L184.97 165.73L184.12 177.41H183L182.14 165.84Z" fill="#FFDC31"/>
<path opacity="0.8" d="M178.04 173.7L178.7 179.73H188.2L188.73 174.19L178.04 173.7Z" fill="#FFDC31"/>
<path opacity="0.8" d="M178 154.8C178 154.8 175.85 150.98 172.5 153.42C169.15 155.86 173.5 168.42 181.44 164.14C181.44 164.14 176.28 167.01 173.36 160.96C170.44 154.91 174.82 151.19 178.17 155.76" fill="#FFDC31"/>
<path opacity="0.8" d="M189.34 155.23C189.34 155.23 191.49 151.41 194.85 153.85C198.21 156.29 193.85 168.85 185.9 164.56C185.9 164.56 191.06 167.43 193.99 161.38C196.92 155.33 192.52 151.62 189.17 156.18" fill="#FFDC31"/>
</g>
<path opacity="0.8" d="M278.541 10.439L274.61 11.1782L279.415 36.7304L283.346 35.9911L278.541 10.439Z" fill="#95F4E7"/>
<path opacity="0.8" d="M290.829 18.8124L265.349 23.7524L266.109 27.6724L291.589 22.7324L290.829 18.8124Z" fill="#95F4E7"/>
<path opacity="0.8" d="M156.162 225.207L149.392 240.845L151.796 241.886L158.566 226.248L156.162 225.207Z" fill="#95F4E7"/>
<path opacity="0.8" d="M146.661 229.029L145.631 231.438L161.298 238.14L162.328 235.731L146.661 229.029Z" fill="#95F4E7"/>
<path opacity="0.8" d="M673.064 216.783L670.449 218.429L681.162 235.448L683.777 233.802L673.064 216.783Z" fill="#95F4E7"/>
<path opacity="0.8" d="M684.75 219.334L667.78 230.125L669.438 232.732L686.408 221.942L684.75 219.334Z" fill="#95F4E7"/>
<g opacity="0.5">
<path opacity="0.8" d="M456.438 114.134L456.435 115.994L468.545 116.013L468.548 114.153L456.438 114.134Z" fill="white"/>
<path opacity="0.8" d="M463.384 109.023L461.524 109.029L461.562 121.139L463.422 121.133L463.384 109.023Z" fill="white"/>
</g>
<g opacity="0.5">
<path opacity="0.8" d="M334.22 10.8799L333.51 12.5989L344.701 17.2254L345.412 15.5064L334.22 10.8799Z" fill="white"/>
<path opacity="0.8" d="M340.876 8.09389L336.306 19.3086L338.029 20.0105L342.598 8.79577L340.876 8.09389Z" fill="white"/>
</g>
<g opacity="0.5">
<path opacity="0.8" d="M97.2428 212.881L96.5325 214.6L107.725 219.225L108.435 217.506L97.2428 212.881Z" fill="white"/>
<path opacity="0.8" d="M103.898 210.088L99.3284 221.303L101.051 222.005L105.621 210.79L103.898 210.088Z" fill="white"/>
</g>
</g>
<defs>
<linearGradient id="paint0_linear" x1="430.97" y1="299.51" x2="397.58" y2="336.72" gradientUnits="userSpaceOnUse">
<stop offset="0.65" stop-color="white" stop-opacity="0"/>
<stop offset="0.74" stop-color="#F8EBEB" stop-opacity="0.28"/>
<stop offset="0.87" stop-color="#F0D1D1" stop-opacity="0.67"/>
<stop offset="0.96" stop-color="#EAC0C0" stop-opacity="0.91"/>
<stop offset="1" stop-color="#E8BABA"/>
</linearGradient>
<linearGradient id="paint1_linear" x1="86947.1" y1="44726" x2="88200.6" y2="42793.3" gradientUnits="userSpaceOnUse">
<stop offset="0.65" stop-color="white" stop-opacity="0"/>
<stop offset="0.74" stop-color="#F8EBEB" stop-opacity="0.28"/>
<stop offset="0.87" stop-color="#F0D1D1" stop-opacity="0.67"/>
<stop offset="0.96" stop-color="#EAC0C0" stop-opacity="0.91"/>
<stop offset="1" stop-color="#E8BABA"/>
</linearGradient>
<linearGradient id="paint2_linear" x1="61089.1" y1="18195.4" x2="61735.7" y2="18322.4" gradientUnits="userSpaceOnUse">
<stop offset="0.65" stop-color="white" stop-opacity="0"/>
<stop offset="0.74" stop-color="#F8EBEB" stop-opacity="0.28"/>
<stop offset="0.87" stop-color="#F0D1D1" stop-opacity="0.67"/>
<stop offset="0.96" stop-color="#EAC0C0" stop-opacity="0.91"/>
<stop offset="1" stop-color="#E8BABA"/>
</linearGradient>
<linearGradient id="paint3_linear" x1="60972.6" y1="18195.4" x2="61619.2" y2="18322.4" gradientUnits="userSpaceOnUse">
<stop offset="0.65" stop-color="white" stop-opacity="0"/>
<stop offset="0.74" stop-color="#F8EBEB" stop-opacity="0.28"/>
<stop offset="0.87" stop-color="#F0D1D1" stop-opacity="0.67"/>
<stop offset="0.96" stop-color="#EAC0C0" stop-opacity="0.91"/>
<stop offset="1" stop-color="#E8BABA"/>
</linearGradient>
<linearGradient id="paint4_linear" x1="381.76" y1="177.9" x2="366.24" y2="177.9" gradientUnits="userSpaceOnUse">
<stop offset="0.65" stop-color="white" stop-opacity="0"/>
<stop offset="0.73" stop-color="#EBF4F7" stop-opacity="0.27"/>
<stop offset="0.86" stop-color="#CDE3EC" stop-opacity="0.66"/>
<stop offset="0.96" stop-color="#BAD9E5" stop-opacity="0.9"/>
<stop offset="1" stop-color="#B3D5E2"/>
</linearGradient>
<linearGradient id="paint5_linear" x1="12344.9" y1="8212.66" x2="13234.8" y2="6353.19" gradientUnits="userSpaceOnUse">
<stop offset="0.65" stop-color="white" stop-opacity="0"/>
<stop offset="0.73" stop-color="#EBF4F7" stop-opacity="0.27"/>
<stop offset="0.86" stop-color="#CDE3EC" stop-opacity="0.66"/>
<stop offset="0.96" stop-color="#BAD9E5" stop-opacity="0.9"/>
<stop offset="1" stop-color="#B3D5E2"/>
</linearGradient>
<linearGradient id="paint6_linear" x1="8617.54" y1="6819.81" x2="9234.82" y2="6819.81" gradientUnits="userSpaceOnUse">
<stop offset="0.65" stop-color="white" stop-opacity="0"/>
<stop offset="0.73" stop-color="#EBF4F7" stop-opacity="0.27"/>
<stop offset="0.86" stop-color="#CDE3EC" stop-opacity="0.66"/>
<stop offset="0.96" stop-color="#BAD9E5" stop-opacity="0.9"/>
<stop offset="1" stop-color="#B3D5E2"/>
</linearGradient>
<linearGradient id="paint7_linear" x1="9620.48" y1="7618.15" x2="9189.12" y2="6384.98" gradientUnits="userSpaceOnUse">
<stop offset="0.65" stop-color="white" stop-opacity="0"/>
<stop offset="0.73" stop-color="#EBF4F7" stop-opacity="0.27"/>
<stop offset="0.86" stop-color="#CDE3EC" stop-opacity="0.66"/>
<stop offset="0.96" stop-color="#BAD9E5" stop-opacity="0.9"/>
<stop offset="1" stop-color="#B3D5E2"/>
</linearGradient>
<linearGradient id="paint8_linear" x1="11151.4" y1="43167.4" x2="14628.6" y2="44752.1" gradientUnits="userSpaceOnUse">
<stop offset="0.65" stop-color="white" stop-opacity="0"/>
<stop offset="0.74" stop-color="#F8EBEB" stop-opacity="0.28"/>
<stop offset="0.87" stop-color="#F0D1D1" stop-opacity="0.67"/>
<stop offset="0.96" stop-color="#EAC0C0" stop-opacity="0.91"/>
<stop offset="1" stop-color="#E8BABA"/>
</linearGradient>
<linearGradient id="paint9_linear" x1="11451.5" y1="44654.4" x2="12705" y2="42721.8" gradientUnits="userSpaceOnUse">
<stop offset="0.65" stop-color="white" stop-opacity="0"/>
<stop offset="0.74" stop-color="#F8EBEB" stop-opacity="0.28"/>
<stop offset="0.87" stop-color="#F0D1D1" stop-opacity="0.67"/>
<stop offset="0.96" stop-color="#EAC0C0" stop-opacity="0.91"/>
<stop offset="1" stop-color="#E8BABA"/>
</linearGradient>
<linearGradient id="paint10_linear" x1="8301.32" y1="18162.3" x2="8947.71" y2="18288.9" gradientUnits="userSpaceOnUse">
<stop offset="0.65" stop-color="white" stop-opacity="0"/>
<stop offset="0.74" stop-color="#F8EBEB" stop-opacity="0.28"/>
<stop offset="0.87" stop-color="#F0D1D1" stop-opacity="0.67"/>
<stop offset="0.96" stop-color="#EAC0C0" stop-opacity="0.91"/>
<stop offset="1" stop-color="#E8BABA"/>
</linearGradient>
<linearGradient id="paint11_linear" x1="8178.73" y1="18162.3" x2="8825.13" y2="18288.9" gradientUnits="userSpaceOnUse">
<stop offset="0.65" stop-color="white" stop-opacity="0"/>
<stop offset="0.74" stop-color="#F8EBEB" stop-opacity="0.28"/>
<stop offset="0.87" stop-color="#F0D1D1" stop-opacity="0.67"/>
<stop offset="0.96" stop-color="#EAC0C0" stop-opacity="0.91"/>
<stop offset="1" stop-color="#E8BABA"/>
</linearGradient>
<linearGradient id="paint12_linear" x1="6423.02" y1="17034.4" x2="9295.97" y2="17716.6" gradientUnits="userSpaceOnUse">
<stop offset="0.65" stop-color="white" stop-opacity="0"/>
<stop offset="0.74" stop-color="#F8EBEB" stop-opacity="0.28"/>
<stop offset="0.87" stop-color="#F0D1D1" stop-opacity="0.67"/>
<stop offset="0.96" stop-color="#EAC0C0" stop-opacity="0.91"/>
<stop offset="1" stop-color="#E8BABA"/>
</linearGradient>
<radialGradient id="paint13_radial" cx="0" cy="0" r="1" gradientUnits="userSpaceOnUse" gradientTransform="translate(313.84 159.6) scale(69.38)">
<stop offset="0.26" stop-color="white" stop-opacity="0"/>
<stop offset="0.41" stop-color="#FFFEFE" stop-opacity="0.01"/>
<stop offset="0.52" stop-color="#FEFBFA" stop-opacity="0.05"/>
<stop offset="0.61" stop-color="#FCF6F5" stop-opacity="0.12"/>
<stop offset="0.69" stop-color="#F9EFEC" stop-opacity="0.21"/>
<stop offset="0.76" stop-color="#F5E5E1" stop-opacity="0.33"/>
<stop offset="0.83" stop-color="#F1DAD4" stop-opacity="0.48"/>
<stop offset="0.9" stop-color="#ECCCC4" stop-opacity="0.66"/>
<stop offset="0.96" stop-color="#E6BDB2" stop-opacity="0.86"/>
<stop offset="1" stop-color="#E2B2A6"/>
</radialGradient>
<radialGradient id="paint14_radial" cx="0" cy="0" r="1" gradientUnits="userSpaceOnUse" gradientTransform="translate(314.09 157.64) scale(69.38)">
<stop offset="0.65" stop-color="white" stop-opacity="0"/>
<stop offset="0.78" stop-color="white" stop-opacity="0.01"/>
<stop offset="0.83" stop-color="white" stop-opacity="0.03"/>
<stop offset="0.86" stop-color="white" stop-opacity="0.08"/>
<stop offset="0.89" stop-color="white" stop-opacity="0.15"/>
<stop offset="0.91" stop-color="white" stop-opacity="0.23"/>
<stop offset="0.93" stop-color="white" stop-opacity="0.34"/>
<stop offset="0.95" stop-color="white" stop-opacity="0.47"/>
<stop offset="0.97" stop-color="white" stop-opacity="0.61"/>
<stop offset="0.98" stop-color="white" stop-opacity="0.78"/>
<stop offset="1" stop-color="white"/>
</radialGradient>
<linearGradient id="paint15_linear" x1="49902.1" y1="1961.52" x2="49902" y2="2388.24" gradientUnits="userSpaceOnUse">
<stop offset="0.65" stop-color="white" stop-opacity="0"/>
<stop offset="0.74" stop-color="#F8EBEB" stop-opacity="0.28"/>
<stop offset="0.87" stop-color="#F0D1D1" stop-opacity="0.67"/>
<stop offset="0.96" stop-color="#EAC0C0" stop-opacity="0.91"/>
<stop offset="1" stop-color="#E8BABA"/>
</linearGradient>
<linearGradient id="paint16_linear" x1="25431.2" y1="5809.48" x2="25418.1" y2="4139.73" gradientUnits="userSpaceOnUse">
<stop offset="0.65" stop-color="white" stop-opacity="0"/>
<stop offset="0.74" stop-color="#F8EBEB" stop-opacity="0.28"/>
<stop offset="0.87" stop-color="#F0D1D1" stop-opacity="0.67"/>
<stop offset="0.96" stop-color="#EAC0C0" stop-opacity="0.91"/>
<stop offset="1" stop-color="#E8BABA"/>
</linearGradient>
<linearGradient id="paint17_linear" x1="11945" y1="15118.2" x2="13141.9" y2="16793.7" gradientUnits="userSpaceOnUse">
<stop offset="0.65" stop-color="white" stop-opacity="0"/>
<stop offset="0.74" stop-color="#F8EBEB" stop-opacity="0.28"/>
<stop offset="0.87" stop-color="#F0D1D1" stop-opacity="0.67"/>
<stop offset="0.96" stop-color="#EAC0C0" stop-opacity="0.91"/>
<stop offset="1" stop-color="#E8BABA"/>
</linearGradient>
<linearGradient id="paint18_linear" x1="6196.3" y1="4355.56" x2="6230.16" y2="3568.05" gradientUnits="userSpaceOnUse">
<stop offset="0.65" stop-color="white" stop-opacity="0"/>
<stop offset="0.74" stop-color="#F8EBEB" stop-opacity="0.28"/>
<stop offset="0.87" stop-color="#F0D1D1" stop-opacity="0.67"/>
<stop offset="0.96" stop-color="#EAC0C0" stop-opacity="0.91"/>
<stop offset="1" stop-color="#E8BABA"/>
</linearGradient>
<linearGradient id="paint19_linear" x1="5303.69" y1="4536.87" x2="5359.7" y2="3285.33" gradientUnits="userSpaceOnUse">
<stop offset="0.65" stop-color="white" stop-opacity="0"/>
<stop offset="0.74" stop-color="#F8EBEB" stop-opacity="0.28"/>
<stop offset="0.87" stop-color="#F0D1D1" stop-opacity="0.67"/>
<stop offset="0.96" stop-color="#EAC0C0" stop-opacity="0.91"/>
<stop offset="1" stop-color="#E8BABA"/>
</linearGradient>
<linearGradient id="paint20_linear" x1="104664" y1="15143.4" x2="105861" y2="16819" gradientUnits="userSpaceOnUse">
<stop offset="0.65" stop-color="white" stop-opacity="0"/>
<stop offset="0.74" stop-color="#F8EBEB" stop-opacity="0.28"/>
<stop offset="0.87" stop-color="#F0D1D1" stop-opacity="0.67"/>
<stop offset="0.96" stop-color="#EAC0C0" stop-opacity="0.91"/>
<stop offset="1" stop-color="#E8BABA"/>
</linearGradient>
<linearGradient id="paint21_linear" x1="50200.4" y1="4357.07" x2="50234.2" y2="3570.39" gradientUnits="userSpaceOnUse">
<stop offset="0.65" stop-color="white" stop-opacity="0"/>
<stop offset="0.74" stop-color="#F8EBEB" stop-opacity="0.28"/>
<stop offset="0.87" stop-color="#F0D1D1" stop-opacity="0.67"/>
<stop offset="0.96" stop-color="#EAC0C0" stop-opacity="0.91"/>
<stop offset="1" stop-color="#E8BABA"/>
</linearGradient>
<linearGradient id="paint22_linear" x1="43333.3" y1="4545.03" x2="43389.3" y2="3292.59" gradientUnits="userSpaceOnUse">
<stop offset="0.65" stop-color="white" stop-opacity="0"/>
<stop offset="0.74" stop-color="#F8EBEB" stop-opacity="0.28"/>
<stop offset="0.87" stop-color="#F0D1D1" stop-opacity="0.67"/>
<stop offset="0.96" stop-color="#EAC0C0" stop-opacity="0.91"/>
<stop offset="1" stop-color="#E8BABA"/>
</linearGradient>
<linearGradient id="paint23_linear" x1="4452.17" y1="3706.89" x2="4451.31" y2="3401.44" gradientUnits="userSpaceOnUse">
<stop offset="0.65" stop-color="white" stop-opacity="0"/>
<stop offset="0.73" stop-color="#EBF4F7" stop-opacity="0.27"/>
<stop offset="0.86" stop-color="#CDE3EC" stop-opacity="0.66"/>
<stop offset="0.96" stop-color="#BAD9E5" stop-opacity="0.9"/>
<stop offset="1" stop-color="#B3D5E2"/>
</linearGradient>
<linearGradient id="paint24_linear" x1="159.12" y1="290.39" x2="426.24" y2="231.44" gradientUnits="userSpaceOnUse">
<stop offset="0.65" stop-color="white" stop-opacity="0"/>
<stop offset="0.76" stop-color="white" stop-opacity="0.35"/>
<stop offset="0.88" stop-color="white" stop-opacity="0.7"/>
<stop offset="0.96" stop-color="white" stop-opacity="0.92"/>
<stop offset="1" stop-color="white"/>
</linearGradient>
<linearGradient id="paint25_linear" x1="760.22" y1="61.8299" x2="352.43" y2="354.8" gradientUnits="userSpaceOnUse">
<stop stop-color="white" stop-opacity="0"/>
<stop offset="0.18" stop-color="#FEFEFE" stop-opacity="0.01"/>
<stop offset="0.32" stop-color="#F9FBFC" stop-opacity="0.06"/>
<stop offset="0.45" stop-color="#F1F5F9" stop-opacity="0.14"/>
<stop offset="0.57" stop-color="#E6EDF4" stop-opacity="0.25"/>
<stop offset="0.69" stop-color="#D8E3EE" stop-opacity="0.39"/>
<stop offset="0.8" stop-color="#C6D7E6" stop-opacity="0.57"/>
<stop offset="0.9" stop-color="#B2C9DD" stop-opacity="0.77"/>
<stop offset="1" stop-color="#9BB9D3"/>
</linearGradient>
<linearGradient id="paint26_linear" x1="536.01" y1="124.59" x2="479.46" y2="387.5" gradientUnits="userSpaceOnUse">
<stop offset="0.21" stop-color="white" stop-opacity="0"/>
<stop offset="0.41" stop-color="#F8EBEB" stop-opacity="0.28"/>
<stop offset="0.7" stop-color="#F0D1D1" stop-opacity="0.67"/>
<stop offset="0.9" stop-color="#EAC0C0" stop-opacity="0.91"/>
<stop offset="1" stop-color="#E8BABA"/>
</linearGradient>
<linearGradient id="paint27_linear" x1="152978" y1="52929.1" x2="165256" y2="55393" gradientUnits="userSpaceOnUse">
<stop offset="0.65" stop-color="white" stop-opacity="0"/>
<stop offset="0.78" stop-color="white" stop-opacity="0.01"/>
<stop offset="0.83" stop-color="white" stop-opacity="0.03"/>
<stop offset="0.86" stop-color="white" stop-opacity="0.08"/>
<stop offset="0.89" stop-color="white" stop-opacity="0.15"/>
<stop offset="0.91" stop-color="white" stop-opacity="0.23"/>
<stop offset="0.93" stop-color="white" stop-opacity="0.34"/>
<stop offset="0.95" stop-color="white" stop-opacity="0.47"/>
<stop offset="0.97" stop-color="white" stop-opacity="0.61"/>
<stop offset="0.98" stop-color="white" stop-opacity="0.78"/>
<stop offset="1" stop-color="white"/>
</linearGradient>
<linearGradient id="paint28_linear" x1="136957" y1="42373.8" x2="136469" y2="31421.2" gradientUnits="userSpaceOnUse">
<stop offset="0.65" stop-color="white" stop-opacity="0"/>
<stop offset="0.78" stop-color="white" stop-opacity="0.01"/>
<stop offset="0.83" stop-color="white" stop-opacity="0.03"/>
<stop offset="0.86" stop-color="white" stop-opacity="0.08"/>
<stop offset="0.89" stop-color="white" stop-opacity="0.15"/>
<stop offset="0.91" stop-color="white" stop-opacity="0.23"/>
<stop offset="0.93" stop-color="white" stop-opacity="0.34"/>
<stop offset="0.95" stop-color="white" stop-opacity="0.47"/>
<stop offset="0.97" stop-color="white" stop-opacity="0.61"/>
<stop offset="0.98" stop-color="white" stop-opacity="0.78"/>
<stop offset="1" stop-color="white"/>
</linearGradient>
</defs>
</svg>
