<svg width="115" height="84" viewBox="0 0 115 84" fill="none" xmlns="http://www.w3.org/2000/svg">
<g clip-path="url(#clip0)">
<path d="M99.1954 5.60049C78.9698 -8.85959 66.6474 8.68367 63.225 13.3598C61.5087 15.6722 58.3331 16.8541 55.5685 17.4707L50.4299 18.3854C47.6345 18.7759 44.2635 18.7759 41.8278 17.2035C36.9975 14.0278 19.3309 1.83902 5.38471 22.4243C-8.56151 43.0097 8.34455 74.3964 13.8326 79.9769C19.3207 85.5574 38.498 85.465 42.8761 72.7828C46.9664 60.9743 47.0692 58.0555 59.6074 54.8593C72.4848 53.5027 73.5948 56.1954 81.5596 65.9279C90.0281 76.2668 108.106 69.7202 111.292 62.5364C114.478 55.3526 119.431 20.0503 99.1954 5.60049Z" fill="#5BCBD1"/>
<path d="M89.0728 64.7467C80.7688 53.822 76.4524 48.7553 67.8298 48.5601C65.7229 48.5601 63.4208 48.5601 61.1393 48.5601L56.0007 49.4747C53.8527 50.2352 51.6945 51.0266 49.7315 51.8077C41.6947 55.0039 39.4543 61.2422 35.4256 74.4176C33.9149 79.5048 30.0095 82.218 25.8267 83.5541C32.7946 83.3383 40.3484 80.214 42.8766 72.8657C46.967 60.975 47.0697 58.0562 59.608 54.86C72.4854 53.5034 73.5953 56.1961 81.5602 65.9286C86.483 71.9408 94.6636 72.2388 101.262 70.0395C96.8835 70.1834 92.2999 69.0221 89.0728 64.7467Z" fill="#4B9CAF"/>
<g style="mix-blend-mode:overlay" opacity="0.4">
<path d="M51.3862 26.3405C50.8951 23.5927 49.9097 20.9567 48.4778 18.5606C46.1765 18.8057 43.856 18.3279 41.8387 17.1938C36.9981 14.0284 19.3315 1.83955 5.38529 22.4249C-2.29181 33.7298 -0.616621 48.3646 3.32984 60.1424C9.20723 61.6027 15.3291 61.7884 21.2842 60.6871C40.7082 57.2133 54.1714 41.8283 51.3862 26.3405Z" fill="#FFF0F5"/>
</g>
<path d="M39.8508 41.9338C42.7078 33.4519 38.148 24.2599 29.6661 21.4029C21.1843 18.5458 11.9922 23.1056 9.13519 31.5875C6.27814 40.0694 10.838 49.2614 19.3198 52.1185C27.8017 54.9755 36.9937 50.4157 39.8508 41.9338Z" fill="#749696"/>
<path d="M31.2223 32.1266L28.4166 32.6302C28.0556 32.693 27.6844 32.6105 27.384 32.4006C27.0837 32.1908 26.8785 31.8706 26.8134 31.51L26.3098 28.7043C26.2779 28.5218 26.2096 28.3477 26.1089 28.1922C26.0082 28.0368 25.8771 27.9033 25.7236 27.7997C25.5701 27.696 25.3973 27.6245 25.2154 27.5892C25.0336 27.5539 24.8465 27.5557 24.6654 27.5944L19.3726 28.5399C19.012 28.605 18.6919 28.8102 18.482 29.1105C18.2721 29.4109 18.1896 29.7821 18.2524 30.1431L18.756 32.9488C18.7885 33.1277 18.7853 33.3113 18.7465 33.4889C18.7077 33.6666 18.6341 33.8348 18.5299 33.9838C18.4258 34.1329 18.2931 34.2598 18.1397 34.3574C17.9862 34.4549 17.815 34.5211 17.6358 34.552L14.8301 35.0556C14.6518 35.0878 14.4817 35.1549 14.3294 35.2529C14.1771 35.3509 14.0456 35.4781 13.9425 35.627C13.8394 35.7759 13.7667 35.9437 13.7285 36.1208C13.6904 36.2979 13.6875 36.4807 13.7201 36.6589L14.6657 41.9517C14.7308 42.3123 14.9359 42.6324 15.2363 42.8423C15.5367 43.0522 15.9079 43.1347 16.2689 43.0719L19.0746 42.5683C19.2535 42.5358 19.4371 42.539 19.6147 42.5778C19.7924 42.6166 19.9606 42.6902 20.1096 42.7944C20.2587 42.8985 20.3856 43.0312 20.4832 43.1846C20.5807 43.3381 20.6468 43.5093 20.6778 43.6885L21.1814 46.4839C21.2136 46.6635 21.2809 46.835 21.3795 46.9885C21.4781 47.1421 21.6059 47.2747 21.7558 47.3787C21.9057 47.4828 22.0746 47.5563 22.2529 47.5949C22.4312 47.6336 22.6154 47.6367 22.795 47.6042L28.0775 46.6586C28.4381 46.5935 28.7582 46.3884 28.9681 46.088C29.178 45.7876 29.2605 45.4164 29.1977 45.0554L28.7763 42.2497C28.7135 41.8887 28.796 41.5175 29.0059 41.2171C29.2158 40.9168 29.5359 40.7116 29.8965 40.6465L32.7022 40.1429C33.063 40.0755 33.3824 39.8678 33.5905 39.5654C33.7985 39.263 33.8782 38.8904 33.8122 38.5293L32.8667 33.2468C32.8347 33.0641 32.7664 32.8897 32.6658 32.7338C32.5653 32.5779 32.4344 32.4438 32.2811 32.3393C32.1278 32.2349 31.9551 32.1623 31.7733 32.1257C31.5914 32.0892 31.404 32.0895 31.2223 32.1266Z" fill="#EAB300"/>
<path d="M31.0681 31.2634L28.2625 31.767C27.9015 31.8299 27.5303 31.7473 27.2299 31.5375C26.9295 31.3276 26.7244 31.0074 26.6592 30.6468L26.1556 27.8411C26.0881 27.4797 25.8808 27.1595 25.5788 26.9498C25.2768 26.7401 24.9043 26.6579 24.5421 26.7209L19.2596 27.6767C18.899 27.7418 18.5788 27.947 18.3689 28.2473C18.1591 28.5477 18.0765 28.9189 18.1394 29.2799L18.643 32.0856C18.7058 32.4466 18.6233 32.8178 18.4134 33.1182C18.2035 33.4186 17.8833 33.6237 17.5227 33.6889L14.7171 34.1925C14.5388 34.2246 14.3687 34.2917 14.2163 34.3897C14.064 34.4878 13.9326 34.6149 13.8295 34.7638C13.7264 34.9127 13.6536 35.0805 13.6155 35.2576C13.5773 35.4347 13.5745 35.6175 13.6071 35.7957L14.5526 41.109C14.5835 41.2879 14.6497 41.4588 14.7474 41.6118C14.8451 41.7648 14.9723 41.8969 15.1215 42.0002C15.2707 42.1035 15.4391 42.1761 15.6167 42.2136C15.7943 42.2512 15.9776 42.253 16.1559 42.219L18.9616 41.7154C19.318 41.655 19.684 41.7362 19.9815 41.9415C20.279 42.1469 20.4846 42.4603 20.5545 42.8151L21.0581 45.6207C21.1233 45.9813 21.3284 46.3015 21.6288 46.5114C21.9292 46.7213 22.3004 46.8038 22.6614 46.741L27.9541 45.7852C28.3145 45.7223 28.6355 45.5197 28.8472 45.2214C29.0589 44.923 29.1443 44.5531 29.0846 44.1922L28.5811 41.3865C28.547 41.2069 28.5491 41.0222 28.5872 40.8434C28.6253 40.6646 28.6986 40.4951 28.8029 40.3449C28.9072 40.1947 29.0403 40.0668 29.1946 39.9686C29.3488 39.8704 29.5211 39.8039 29.7013 39.773L32.4967 39.2694C32.6759 39.2384 32.8471 39.1722 33.0006 39.0747C33.1541 38.9772 33.2867 38.8502 33.3908 38.7012C33.495 38.5521 33.5686 38.3839 33.6074 38.2063C33.6462 38.0286 33.6494 37.8451 33.6169 37.6662L32.6714 32.3734C32.6392 32.1951 32.5722 32.025 32.4741 31.8727C32.3761 31.7204 32.249 31.5889 32.1 31.4858C31.9511 31.3827 31.7833 31.31 31.6062 31.2718C31.4292 31.2337 31.2463 31.2308 31.0681 31.2634Z" fill="#F7D100"/>
<path opacity="0.6" d="M27.7486 42.9076C27.4094 42.9693 27.2039 43.4317 27.2964 43.9353C27.3889 44.4389 27.7383 44.8089 28.0774 44.7472C28.4166 44.6856 28.6221 44.2231 28.5296 43.7195C28.4371 43.2159 28.1185 42.8459 27.7486 42.9076Z" fill="white"/>
<path d="M19.6296 29.5675C19.1877 29.6498 18.9308 30.2767 19.0541 30.9652C19.1774 31.6538 19.6399 32.1677 20.0818 32.0855C20.5237 32.0032 20.7807 31.3763 20.6573 30.6775C20.534 29.9786 20.0715 29.4853 19.6296 29.5675Z" fill="white"/>
<path d="M19.6502 28.9921C19.7396 28.9746 19.8186 28.9229 19.8704 28.848C19.9223 28.7732 19.9428 28.6811 19.9277 28.5913C19.9126 28.5027 19.8631 28.4238 19.7898 28.3718C19.7166 28.3197 19.6258 28.2989 19.5372 28.3138C19.4478 28.3313 19.3688 28.3829 19.317 28.4578C19.2652 28.5327 19.2446 28.6248 19.2597 28.7146C19.2748 28.8031 19.3244 28.8821 19.3976 28.9341C19.4708 28.9861 19.5617 29.007 19.6502 28.9921Z" fill="white"/>
<path d="M15.2103 34.6445L15.0562 34.737C14.917 34.7845 14.788 34.8577 14.6759 34.9529C14.4218 35.1586 14.2327 35.4334 14.1312 35.7442C14.1109 35.9046 14.1109 36.0669 14.1312 36.2272C14.115 36.4338 14.1466 36.6413 14.2237 36.8336C14.2674 36.9334 14.3338 37.0217 14.4177 37.0913C14.5016 37.1609 14.6005 37.2099 14.7067 37.2344C14.8195 37.249 14.9342 37.235 15.0401 37.1937C15.1461 37.1524 15.2399 37.0851 15.3131 36.998C15.4333 36.8641 15.5243 36.7066 15.5803 36.5356C15.6116 36.4493 15.6323 36.3596 15.642 36.2683C15.642 36.2683 15.642 36.2067 15.642 36.1758C15.642 36.145 15.642 36.1758 15.642 36.1758L15.7036 36.1142H15.7756L15.94 36.0114C16.102 35.9221 16.237 35.7907 16.3305 35.6312C16.3866 35.5229 16.4087 35.4003 16.3941 35.2793C16.3794 35.1583 16.3286 35.0446 16.2483 34.9529C16.1259 34.8037 15.9616 34.6946 15.7766 34.6396C15.5916 34.5846 15.3943 34.5864 15.2103 34.6445Z" fill="white"/>
<path d="M15.2823 37.7174C15.2566 37.69 15.225 37.6689 15.1898 37.6557C15.136 37.6408 15.0792 37.6408 15.0254 37.6557H14.9021H14.789C14.738 37.6806 14.6926 37.7156 14.6554 37.7585V37.8099V37.8818C14.6554 37.8818 14.6554 37.8818 14.6554 37.9537C14.6554 38.0257 14.6554 37.9537 14.6554 38.0154C14.6448 38.0628 14.6448 38.1119 14.6554 38.1593V38.2107V38.2621L14.7171 38.3237H14.789H14.861H14.974H15.2207C15.2686 38.2942 15.3105 38.2559 15.344 38.2107L15.3954 38.1079C15.4044 38.0811 15.4112 38.0536 15.4159 38.0257V37.9435V37.8304C15.379 37.7846 15.3337 37.7462 15.2823 37.7174Z" fill="white"/>
<path opacity="0.6" d="M33.0208 37.3783C32.9812 37.2966 32.9249 37.2241 32.8554 37.1656C32.786 37.1071 32.7051 37.0638 32.6179 37.0386C32.5306 37.0134 32.4391 37.0068 32.3491 37.0193C32.2592 37.0318 32.1729 37.0631 32.0958 37.1111C31.9564 37.1981 31.854 37.3335 31.8081 37.4913C31.7888 37.5647 31.7647 37.6368 31.7361 37.7071L31.6745 37.7894C31.6246 37.8427 31.5695 37.8909 31.51 37.9332L31.6128 37.8613C31.5079 37.9214 31.4082 37.9902 31.3148 38.0669C31.2154 38.1382 31.1424 38.2403 31.1071 38.3574C31.0718 38.4745 31.0762 38.6 31.1195 38.7143C31.2942 39.0843 31.8184 39.0329 32.1472 38.889L32.3528 38.7554C32.5911 38.6363 32.7959 38.4597 32.9489 38.2416C33.04 38.1186 33.095 37.9727 33.1078 37.8202C33.1205 37.6676 33.0903 37.5146 33.0208 37.3783Z" fill="white"/>
<g style="mix-blend-mode:overlay" opacity="0.4">
<path d="M18.1394 29.2798L18.643 32.0854C18.7058 32.4464 18.6233 32.8177 18.4134 33.118C18.2035 33.4184 17.8833 33.6235 17.5227 33.6887L14.7171 34.1923C14.5388 34.2245 14.3687 34.2915 14.2163 34.3895C14.064 34.4876 13.9326 34.6147 13.8295 34.7636C13.7264 34.9126 13.6536 35.0804 13.6155 35.2574C13.5773 35.4345 13.5745 35.6174 13.6071 35.7955L14.3882 40.1634C15.101 40.1794 15.8137 40.1244 16.5156 39.9989C21.7981 39.0534 25.3951 34.4595 24.5524 29.7217C24.3672 28.7251 23.9865 27.775 23.4322 26.9263L19.2596 27.6765C18.899 27.7417 18.5788 27.9468 18.3689 28.2472C18.1591 28.5475 18.0765 28.9188 18.1394 29.2798Z" fill="#FFF0F5"/>
</g>
<path d="M51.7477 25.6609L46.3357 26.6317C45.7491 26.737 45.3589 27.2978 45.4641 27.8844L45.7163 29.2905C45.8216 29.8771 46.3824 30.2674 46.969 30.1621L52.381 29.1913C52.9676 29.0861 53.3578 28.5252 53.2526 27.9386L53.0003 26.5325C52.8951 25.9459 52.3343 25.5557 51.7477 25.6609Z" fill="#619E0A"/>
<path d="M51.6554 25.1912L46.2434 26.162C45.6568 26.2672 45.2666 26.8281 45.3718 27.4147L45.624 28.8208C45.7293 29.4074 46.2901 29.7976 46.8767 29.6924L52.2887 28.7216C52.8753 28.6163 53.2655 28.0555 53.1603 27.4689L52.9081 26.0628C52.8028 25.4762 52.242 25.0859 51.6554 25.1912Z" fill="#9FC200"/>
<g style="mix-blend-mode:overlay" opacity="0.4">
<path d="M45.374 27.4196L45.5795 28.5399C46.085 28.7132 46.6268 28.7521 47.1519 28.6529C47.8148 28.5877 48.4256 28.2646 48.8524 27.7531C49.2792 27.2417 49.4879 26.583 49.4335 25.9192C49.4335 25.8164 49.3718 25.7136 49.341 25.6108L46.2578 26.1658C46.1171 26.1894 45.9825 26.2407 45.8617 26.3166C45.741 26.3926 45.6365 26.4917 45.5543 26.6083C45.4721 26.7249 45.4138 26.8567 45.3829 26.9959C45.3519 27.1352 45.3489 27.2792 45.374 27.4196Z" fill="#FFF0F5"/>
</g>
<path d="M52.7018 26.9982C52.6209 26.9205 52.522 26.864 52.414 26.8338C52.2905 26.793 52.1572 26.793 52.0337 26.8338C51.9052 26.9024 51.7984 27.0057 51.7254 27.1318C51.7254 27.2141 51.6432 27.3066 51.6021 27.3888L51.4891 27.471L51.5815 27.4196C51.4202 27.5085 51.2744 27.623 51.1499 27.7588C51.1114 27.8114 51.0842 27.8715 51.0701 27.9351C51.0559 27.9988 51.0551 28.0647 51.0677 28.1287C51.0836 28.2075 51.1193 28.2809 51.1714 28.3421C51.2236 28.4032 51.2904 28.45 51.3657 28.4782C51.3657 28.4782 51.3657 28.4782 51.4171 28.4782C51.4875 28.4996 51.5626 28.4996 51.6329 28.4782C51.6909 28.4735 51.7471 28.4559 51.7974 28.4268C51.9072 28.4049 52.0141 28.3705 52.116 28.324C52.3007 28.2263 52.4648 28.0937 52.599 27.9335C52.6424 27.8828 52.6803 27.8277 52.712 27.769C52.7897 27.6518 52.839 27.5181 52.8559 27.3785C52.8479 27.2382 52.7937 27.1045 52.7018 26.9982Z" fill="#C6DB45"/>
<path d="M46.669 26.5667L46.5251 26.4845H46.3812C46.2974 26.4596 46.2081 26.4596 46.1243 26.4845C46.0179 26.5367 45.9261 26.6143 45.8571 26.7106V26.7722C45.8307 26.8047 45.8066 26.8391 45.7851 26.875C45.7494 26.9922 45.7494 27.1175 45.7851 27.2347C45.7917 27.2925 45.8169 27.3467 45.8571 27.3888V27.4402C45.8571 27.4402 45.8571 27.4916 45.929 27.5019C45.9707 27.539 46.0197 27.567 46.0729 27.5841C46.1635 27.6101 46.2597 27.6101 46.3504 27.5841C46.4492 27.5688 46.5418 27.5261 46.6176 27.4608H46.6792L46.8026 27.3272C46.836 27.2756 46.8636 27.2205 46.8848 27.1628C46.8906 27.115 46.8906 27.0667 46.8848 27.0189V26.9469C46.8898 26.9232 46.8898 26.8987 46.8848 26.875C46.8907 26.8272 46.8907 26.7789 46.8848 26.7311C46.8289 26.6579 46.7543 26.6012 46.669 26.5667ZM46.5559 27.2552V27.2039V27.2655V27.2552Z" fill="#F2F9B2"/>
<path d="M64.1411 23.4456L58.7291 24.4164C58.1425 24.5216 57.7523 25.0825 57.8575 25.6691L58.1098 27.0752C58.215 27.6618 58.7758 28.052 59.3625 27.9468L64.7744 26.976C65.361 26.8707 65.7512 26.3099 65.646 25.7233L65.3938 24.3172C65.2885 23.7306 64.7277 23.3403 64.1411 23.4456Z" fill="#619E0A"/>
<path d="M64.0591 22.9744L58.6471 23.9452C58.0605 24.0504 57.6703 24.6113 57.7755 25.1979L58.0277 26.604C58.133 27.1906 58.6938 27.5808 59.2804 27.4756L64.6924 26.5048C65.279 26.3995 65.6692 25.8387 65.564 25.2521L65.3117 23.846C65.2065 23.2594 64.6457 22.8691 64.0591 22.9744Z" fill="#9FC200"/>
<g style="mix-blend-mode:overlay" opacity="0.4">
<path d="M57.7684 25.1999L57.9739 26.3099C58.4796 26.4812 59.0201 26.5236 59.5463 26.4332C60.2103 26.3706 60.8227 26.0481 61.25 25.5361C61.6773 25.0241 61.885 24.3639 61.8279 23.6994C61.808 23.5937 61.777 23.4904 61.7354 23.3911L58.6522 23.9461C58.5115 23.9697 58.3769 24.0209 58.2561 24.0969C58.1354 24.1728 58.0309 24.272 57.9487 24.3886C57.8665 24.5052 57.8082 24.6369 57.7773 24.7762C57.7463 24.9155 57.7433 25.0595 57.7684 25.1999Z" fill="#FFF0F5"/>
</g>
<path d="M65.0959 24.7785C65.0194 24.6951 64.9188 24.6376 64.8082 24.614C64.6891 24.5681 64.5572 24.5681 64.4382 24.614C64.3052 24.6753 64.194 24.7757 64.1196 24.9018C64.1196 24.9943 64.0374 25.0765 64.0065 25.169L63.8935 25.2615L63.986 25.1998C63.8208 25.2872 63.6742 25.4059 63.5543 25.5493C63.5143 25.5993 63.4854 25.6572 63.4694 25.7192C63.4535 25.7812 63.4509 25.8459 63.4618 25.909C63.4788 25.9885 63.5147 26.0628 63.5666 26.1255C63.6185 26.1881 63.6848 26.2373 63.7599 26.2687C63.8304 26.289 63.9052 26.289 63.9757 26.2687C64.0294 26.2594 64.0813 26.242 64.1299 26.2173C64.2442 26.1952 64.3549 26.1571 64.4587 26.1042C64.6421 26.0134 64.8034 25.8836 64.9315 25.724C64.9749 25.6734 65.0128 25.6182 65.0445 25.5595C65.1222 25.4423 65.1715 25.3086 65.1884 25.169C65.202 25.0322 65.1694 24.8947 65.0959 24.7785Z" fill="#C6DB45"/>
<path d="M64.4293 32.6311L50.0649 35.2079C48.5508 35.4795 47.5437 36.9271 47.8153 38.4411L48.1364 40.2316C48.408 41.7456 49.8556 42.7528 51.3696 42.4812L65.734 39.9044C67.248 39.6328 68.2552 38.1853 67.9836 36.6712L67.6624 34.8807C67.3908 33.3667 65.9433 32.3595 64.4293 32.6311Z" fill="#619E0A"/>
<path d="M64.2692 31.7693L49.9048 34.3461C48.3908 34.6177 47.3836 36.0652 47.6552 37.5793L47.9764 39.3698C48.248 40.8838 49.6955 41.891 51.2096 41.6194L65.5739 39.0426C67.088 38.771 68.0952 37.3234 67.8236 35.8094L67.5024 34.0189C67.2308 32.5049 65.7832 31.4977 64.2692 31.7693Z" fill="#9FC200"/>
<path d="M49.2382 35.2306C48.9972 35.3073 48.7782 35.4407 48.5993 35.6195C48.4205 35.7983 48.2872 36.0173 48.2104 36.2583C48.0156 36.8522 47.9837 37.4875 48.1179 38.0979C48.129 38.162 48.1541 38.2229 48.1914 38.2762C48.2287 38.3295 48.2773 38.3739 48.3338 38.4062C48.4091 38.4708 48.4987 38.5166 48.5952 38.5399C48.6916 38.5631 48.7923 38.5631 48.8887 38.5398C49.0554 38.4802 49.2004 38.372 49.3048 38.2291C49.4093 38.0861 49.4684 37.9151 49.4745 37.7382C49.4745 37.5224 49.4745 37.2963 49.5568 37.0702C49.5618 37.0189 49.5618 36.9673 49.5568 36.916C49.5568 36.916 49.5568 36.8235 49.5568 36.8133C49.5783 36.7179 49.6093 36.625 49.6492 36.5358V36.4638L49.752 36.32C49.8575 36.1911 49.922 36.0336 49.937 35.8678C49.9359 35.7791 49.9166 35.6916 49.8802 35.6107C49.8439 35.5298 49.7914 35.4573 49.7258 35.3975C49.6603 35.3378 49.5832 35.2921 49.4993 35.2634C49.4154 35.2347 49.3265 35.2235 49.2382 35.2306Z" fill="#F2F9B2"/>
<path d="M66.9459 36.0834C66.8695 36.0509 66.7874 36.0342 66.7044 36.0342C66.6214 36.0342 66.5392 36.0509 66.4629 36.0834C66.3057 36.1753 66.183 36.316 66.1134 36.4843C66.0814 36.5649 66.054 36.6472 66.0312 36.7309V36.8748C66.0312 36.9365 65.949 37.0187 65.8976 37.0906L65.7126 37.3167C65.7948 37.2037 65.7126 37.3167 65.7126 37.3167L65.6098 37.4298C65.511 37.517 65.4246 37.6172 65.3529 37.7278C65.3191 37.7911 65.2991 37.8608 65.2944 37.9324C65.2897 38.004 65.3004 38.0758 65.3257 38.143C65.351 38.2101 65.3903 38.2711 65.4411 38.3218C65.4919 38.3725 65.5529 38.4117 65.6201 38.4369C65.725 38.4679 65.8361 38.4709 65.9424 38.4457C66.0488 38.4204 66.1467 38.3678 66.2265 38.293C66.3709 38.1896 66.5021 38.0688 66.617 37.9333C66.802 37.7792 66.9677 37.6032 67.1103 37.4092C67.2653 37.2224 67.3713 36.9998 67.4186 36.7617C67.4256 36.6124 67.3831 36.4649 67.2976 36.3422C67.2121 36.2196 67.0884 36.1286 66.9459 36.0834Z" fill="#C6DB45"/>
<g style="mix-blend-mode:overlay" opacity="0.4">
<path d="M47.6554 37.5734L47.7993 38.3853C48.6086 38.9233 49.5185 39.2917 50.4741 39.4683C51.4297 39.645 52.4112 39.6262 53.3593 39.4131C56.6377 38.8273 58.9912 36.669 58.6213 34.593C58.4847 33.9459 58.1199 33.3696 57.5935 32.9692L49.8753 34.3567C49.1571 34.4941 48.5217 34.9084 48.1064 35.5103C47.6911 36.1121 47.5291 36.8532 47.6554 37.5734Z" fill="#FFF0F5"/>
</g>
<path d="M92.2349 40.9617C100.886 38.7549 106.11 29.9527 103.904 21.3014C101.697 12.6502 92.8946 7.42588 84.2434 9.63267C75.5921 11.8395 70.3678 20.6417 72.5746 29.2929C74.7814 37.9442 83.5836 43.1685 92.2349 40.9617Z" fill="#749696"/>
<path d="M84.4583 26.4842C84.6712 27.4252 84.5974 28.4084 84.2464 29.307C83.8954 30.2057 83.2834 30.9787 82.4891 31.5263C81.6949 32.074 80.7548 32.3713 79.7901 32.3799C78.8254 32.3885 77.8802 32.108 77.0763 31.5746C76.2724 31.0411 75.6467 30.2792 75.2797 29.3869C74.9128 28.4946 74.8215 27.5129 75.0175 26.5683C75.2136 25.6237 75.688 24.7594 76.3797 24.0868C77.0714 23.4142 77.9486 22.9642 78.8984 22.7946C80.1247 22.5491 81.3983 22.7995 82.4404 23.4911C83.4825 24.1826 84.2081 25.2588 84.4583 26.4842Z" fill="#53B5D3"/>
<path d="M84.2734 25.6928C84.4858 26.6313 84.4124 27.6119 84.0626 28.5083C83.7129 29.4047 83.1029 30.1759 82.3111 30.7227C81.5194 31.2695 80.5821 31.5667 79.6199 31.5762C78.6577 31.5858 77.7147 31.3071 76.9123 30.7761C76.1099 30.2451 75.4847 29.4861 75.1173 28.5967C74.75 27.7074 74.6572 26.7285 74.8509 25.786C75.0446 24.8435 75.516 23.9805 76.2044 23.3082C76.8928 22.6359 77.7666 22.185 78.7134 22.0136C79.3202 21.8891 79.9455 21.8855 80.5536 22.0032C81.1617 22.1208 81.7406 22.3573 82.2571 22.6991C82.7736 23.0409 83.2176 23.4813 83.5636 23.995C83.9096 24.5087 84.1508 25.0857 84.2734 25.6928Z" fill="#73D6FF"/>
<g style="mix-blend-mode:overlay" opacity="0.4">
<path d="M74.8184 27.3579C74.9482 28.0877 75.2592 28.7732 75.7228 29.3517C76.128 29.3771 76.5349 29.3564 76.9355 29.29C78.1723 29.0952 79.2814 28.4178 80.0194 27.4062C80.7573 26.3947 81.0638 25.1317 80.8717 23.8945C80.7383 23.1638 80.4238 22.4783 79.957 21.9007C79.5513 21.874 79.1439 21.8981 78.7443 21.9726C78.1326 22.0678 77.5457 22.2826 77.0171 22.6049C76.4886 22.9272 76.0288 23.3506 75.6642 23.8508C75.2995 24.3511 75.0371 24.9183 74.8919 25.5201C74.7468 26.1219 74.7218 26.7464 74.8184 27.3579Z" fill="#FFF0F5"/>
</g>
<path d="M100.943 23.5245C101.059 24.7314 100.717 25.9377 99.985 26.9041C99.2529 27.8705 98.1841 28.5262 96.9908 28.741C95.7976 28.9558 94.5673 28.7141 93.544 28.0638C92.5208 27.4134 91.7795 26.4021 91.4674 25.2306C91.3104 24.0018 91.6315 22.7598 92.3643 21.761C93.097 20.7623 94.1855 20.0832 95.4047 19.8642C96.6239 19.6452 97.8806 19.9029 98.9152 20.5841C99.9498 21.2654 100.683 22.318 100.964 23.5245H100.943Z" fill="#C13D72"/>
<path d="M100.789 22.692C100.946 23.9207 100.625 25.1628 99.892 26.1615C99.1592 27.1603 98.0707 27.8393 96.8515 28.0584C95.6324 28.2774 94.3756 28.0197 93.341 27.3384C92.3065 26.6572 91.5731 25.6046 91.2926 24.398C91.1356 23.1693 91.4567 21.9272 92.1895 20.9285C92.9222 19.9298 94.0107 19.2507 95.2299 19.0317C96.4491 18.8127 97.7058 19.0704 98.7404 19.7516C99.775 20.4328 100.508 21.4855 100.789 22.692Z" fill="#DB497D"/>
<g style="mix-blend-mode:overlay" opacity="0.4">
<path d="M91.2928 24.3981C91.4286 25.128 91.7428 25.8129 92.2074 26.3919C92.6127 26.4224 93.0201 26.4017 93.4202 26.3302C94.6549 26.1354 95.7623 25.4594 96.5 24.4502C97.2376 23.4409 97.5455 22.1806 97.3563 20.9449C97.2251 20.2136 96.9104 19.5276 96.4417 18.9512C96.0364 18.9206 95.629 18.9413 95.2289 19.0128C93.9942 19.2077 92.8868 19.8837 92.1491 20.8929C91.4115 21.9021 91.1036 23.1624 91.2928 24.3981Z" fill="#FFF0F5"/>
</g>
<path d="M91.5187 16.248C91.6696 17.4745 91.3448 18.7121 90.6109 19.7064C89.8771 20.7006 88.7901 21.3758 87.5737 21.5931C86.3572 21.8103 85.1037 21.553 84.0711 20.8742C83.0385 20.1954 82.3054 19.1467 82.0225 17.9437C81.8716 16.7173 82.1964 15.4796 82.9303 14.4853C83.6641 13.4911 84.751 12.8159 85.9675 12.5987C87.184 12.3814 88.4375 12.6387 89.4701 13.3175C90.5027 13.9963 91.2358 15.0451 91.5187 16.248Z" fill="#F3B327"/>
<path d="M91.3647 15.4156C91.5217 16.6444 91.2006 17.8864 90.4679 18.8852C89.7351 19.8839 88.6467 20.563 87.4275 20.782C86.2083 21.001 84.9515 20.7433 83.917 20.0621C82.8824 19.3808 82.1491 18.3282 81.8686 17.1217C81.7116 15.8929 82.0326 14.6509 82.7654 13.6521C83.4982 12.6534 84.5866 11.9744 85.8058 11.7553C87.025 11.5363 88.2817 11.794 89.3163 12.4752C90.3509 13.1565 91.0842 14.2091 91.3647 15.4156Z" fill="#F7D000"/>
<g style="mix-blend-mode:overlay" opacity="0.4">
<path d="M81.8686 17.122C82.0064 17.8512 82.3204 18.5357 82.7832 19.1158C83.1889 19.1429 83.5963 19.1187 83.9959 19.0439C85.232 18.8516 86.341 18.1762 87.0792 17.1663C87.8173 16.1564 88.1241 14.8947 87.9321 13.6586C87.7988 12.928 87.4843 12.2424 87.0174 11.6648C86.6122 11.6394 86.2053 11.6601 85.8047 11.7265C84.5691 11.9238 83.4617 12.6019 82.7243 13.6127C81.9868 14.6236 81.6792 15.8852 81.8686 17.122Z" fill="#FFF0F5"/>
</g>
<path d="M90.5331 38.0696C93.1533 37.5996 94.9134 35.1895 94.4644 32.6867C94.0154 30.1838 91.5273 28.5358 88.9071 29.0059C86.2869 29.4759 84.5268 31.8859 84.9758 34.3888C85.4248 36.8917 87.9129 38.5396 90.5331 38.0696Z" fill="#E89605"/>
<path d="M94.3142 31.8594C94.5291 32.8003 94.4573 33.784 94.1079 34.6836C93.7585 35.5833 93.1476 36.3576 92.354 36.9068C91.5604 37.4561 90.6205 37.7549 89.6554 37.765C88.6904 37.775 87.7444 37.4957 86.9396 36.9631C86.1348 36.4305 85.5079 35.6691 85.1399 34.7769C84.7719 33.8847 84.6795 32.9027 84.8748 31.9576C85.0701 31.0124 85.544 30.1475 86.2355 29.4742C86.927 28.8009 87.8043 28.3502 88.7543 28.1802C89.9794 27.9316 91.2531 28.1794 92.2956 28.8693C93.3381 29.5592 94.0641 30.6346 94.3142 31.8594Z" fill="#F3B327"/>
<g style="mix-blend-mode:overlay" opacity="0.4">
<path d="M84.8182 33.5553C84.954 34.2852 85.2682 34.9701 85.7328 35.5491C86.1381 35.5797 86.5455 35.5589 86.9455 35.4874C88.1803 35.2926 89.2877 34.6166 90.0254 33.6074C90.763 32.5982 91.0709 31.3378 90.8817 30.1022C90.7459 29.3723 90.4317 28.6874 89.9671 28.1084C89.5618 28.0778 89.1544 28.0986 88.7543 28.17C87.5195 28.3649 86.4122 29.0409 85.6745 30.0501C84.9369 31.0593 84.629 32.3197 84.8182 33.5553Z" fill="#FFF0F5"/>
</g>
</g>
<defs>
<clipPath id="clip0">
<rect width="114.252" height="83.5745" fill="white"/>
</clipPath>
</defs>
</svg>
