<svg width="127" height="74" viewBox="0 0 127 74" fill="none" xmlns="http://www.w3.org/2000/svg">
<path fill-rule="evenodd" clip-rule="evenodd" d="M47.1144 34.0757C43.6711 32.4143 41.2317 27.8272 41.781 24.0437C41.9253 23.05 42 22.0337 42 21C42 9.40202 32.598 0 21 0C9.40202 0 0 9.40202 0 21C0 29.3321 4.85246 36.5308 11.8856 39.9243C15.3289 41.5857 17.7683 46.1728 17.219 49.9563C17.0747 50.95 17 51.9663 17 53C17 64.598 26.402 74 38 74C49.598 74 59 64.598 59 53C59 44.6679 54.1475 37.4692 47.1144 34.0757Z" fill="#F7D100"/>
<path d="M17 26.34V24.594H22.598C22.73 24.594 22.796 24.528 22.796 24.396V23.172C22.796 23.004 22.724 22.908 22.58 22.884L19.25 22.2C17.75 21.912 17 20.91 17 19.194V18.168C17 16.056 18.056 15 20.168 15H24.164L25.568 16.08V17.826H20.33C20.198 17.826 20.132 17.892 20.132 18.024V19.176C20.132 19.332 20.204 19.428 20.348 19.464L23.678 20.112C25.178 20.424 25.928 21.432 25.928 23.136V24.252C25.928 26.364 24.872 27.42 22.76 27.42H18.404L17 26.34Z" fill="#0A2069"/>
<path d="M48.224 22.832V16.748C48.224 14.636 49.28 13.58 51.392 13.58H55.424C57.536 13.58 58.592 14.636 58.592 16.748V22.832C58.592 24.944 57.536 26 55.424 26H51.392C49.28 26 48.224 24.944 48.224 22.832ZM51.356 22.976C51.356 23.108 51.422 23.174 51.554 23.174H55.262C55.394 23.174 55.46 23.108 55.46 22.976V16.604C55.46 16.472 55.394 16.406 55.262 16.406H51.554C51.422 16.406 51.356 16.472 51.356 16.604V22.976ZM65.3627 22.832V16.748C65.3627 14.636 66.4187 13.58 68.5307 13.58H73.1927L74.5967 14.66V16.406H68.6927C68.5607 16.406 68.4947 16.472 68.4947 16.604V22.976C68.4947 23.108 68.5607 23.174 68.6927 23.174H74.5967V24.92L73.1927 26H68.5307C66.4187 26 65.3627 24.944 65.3627 22.832ZM81.2224 26V13.58H84.3544V26H81.2224ZM90.39 25.424L93.9 13.58H98.58L102.09 25.424L101.712 26H99.084L98.472 23.786H94.008L93.396 26H90.768L90.39 25.424ZM94.836 20.96H97.644L96.348 16.406H96.132L94.836 20.96ZM108.117 26V13.58H111.249V23.174H116.271V26H108.117Z" fill="white"/>
<path d="M63.306 58.424L66.816 46.58H71.496L75.006 58.424L74.628 59H72L71.388 56.786H66.924L66.312 59H63.684L63.306 58.424ZM67.752 53.96H70.56L69.264 49.406H69.048L67.752 53.96ZM81.0329 59V46.58H84.6689L87.8369 53.348L91.0049 46.58H94.6409V59H91.5089V52.304L89.0969 57.47H86.5769L84.1649 52.304V59H81.0329ZM101.775 59V46.58H110.469V49.406H104.907V51.26H109.929V54.086H104.907V56.174H110.469V59H101.775ZM116.563 57.92V56.174H122.161C122.293 56.174 122.359 56.108 122.359 55.976V54.752C122.359 54.584 122.287 54.488 122.143 54.464L118.813 53.78C117.313 53.492 116.563 52.49 116.563 50.774V49.748C116.563 47.636 117.619 46.58 119.731 46.58H123.727L125.131 47.66V49.406H119.893C119.761 49.406 119.695 49.472 119.695 49.604V50.756C119.695 50.912 119.767 51.008 119.911 51.044L123.241 51.692C124.741 52.004 125.491 53.012 125.491 54.716V55.832C125.491 57.944 124.435 59 122.323 59H117.967L116.563 57.92Z" fill="white"/>
<path d="M33 56.252V50.168C33 48.056 34.056 47 36.168 47H41.244L42.648 48.08V49.826H36.33C36.198 49.826 36.132 49.892 36.132 50.024V56.396C36.132 56.528 36.198 56.594 36.33 56.594H39.876V54.506H37.842V51.68H43.008V59.42H36.168C34.056 59.42 33 58.364 33 56.252Z" fill="#0A2069"/>
</svg>
