<svg width="119" height="73" viewBox="0 0 119 73" fill="none" xmlns="http://www.w3.org/2000/svg">
<path d="M98.2416 -9.02364L85.8489 11.0044C85.4963 11.5833 85.2867 12.238 85.2376 12.9135C85.1886 13.5889 85.3016 14.2654 85.5671 14.886L94.9006 36.4068C95.2122 37.1157 95.3204 37.899 95.2131 38.6687C95.1057 39.4385 94.787 40.1641 94.2928 40.7641C93.7986 41.364 93.1485 41.8145 92.4156 42.0648C91.6827 42.3152 90.896 42.3555 90.144 42.1812L67.3778 36.6131C66.7259 36.4487 66.0429 36.4482 65.3889 36.6119C64.7349 36.7755 64.1301 37.0982 63.6278 37.5514L46.0828 53.2456C45.5047 53.7676 44.7934 54.1169 44.0297 54.2535C43.2661 54.3901 42.4809 54.3085 41.7636 54.0181C41.0463 53.7277 40.4258 53.2401 39.9727 52.611C39.5197 51.9818 39.2524 51.2363 39.2012 50.4595L37.5544 26.9915C37.4865 26.3291 37.263 25.6933 36.9023 25.1364C36.5417 24.5794 36.0541 24.1172 35.4798 23.7878L15.3327 11.88C14.65 11.4921 14.092 10.9169 13.7235 10.221C13.3549 9.5252 13.1911 8.73738 13.251 7.94914C13.3108 7.1609 13.5919 6.40462 14.0616 5.76818C14.5312 5.13173 15.1702 4.64128 15.9042 4.35381L37.5588 -4.46436C38.1813 -4.72144 38.7333 -5.12603 39.1676 -5.64345C39.602 -6.16087 39.9056 -6.7757 40.0525 -7.43523L45.1085 -30.4373C45.2562 -31.2171 45.6216 -31.9398 46.1619 -32.5209C46.7023 -33.1019 47.3952 -33.5172 48.1595 -33.7182C48.9239 -33.9191 49.7282 -33.8975 50.4782 -33.6557C51.2281 -33.4139 51.8929 -32.9621 52.3945 -32.353L67.4068 -14.4343C67.8412 -13.9214 68.3936 -13.5229 69.0164 -13.2729C69.6393 -13.023 70.3141 -12.929 70.9829 -12.9991L94.2829 -15.3831C95.0599 -15.4726 95.845 -15.34 96.548 -15.0006C97.2509 -14.6613 97.8431 -14.1289 98.2566 -13.4646C98.6701 -12.8004 98.888 -12.0313 98.8854 -11.2457C98.8827 -10.4601 98.6596 -9.68993 98.2416 -9.02364V-9.02364Z" fill="#EAB300"/>
<path d="M100.469 -11.4933L88.0851 8.55815C87.7255 9.13262 87.5104 9.78583 87.4585 10.461C87.4066 11.1362 87.5194 11.813 87.7873 12.4325L97.1368 33.9606C97.4419 34.6727 97.5428 35.4574 97.4281 36.2264C97.3134 36.9954 96.9877 37.7183 96.4875 38.3137C95.9873 38.909 95.3326 39.3532 94.5969 39.5963C93.8613 39.8394 93.074 39.8718 92.3235 39.6897L69.5893 34.1362C68.9348 33.9773 68.2507 33.9811 67.596 34.1474C66.9414 34.3137 66.3359 34.6374 65.832 35.0906L48.2869 50.7847C47.7089 51.3068 46.9976 51.6561 46.2339 51.7927C45.4703 51.9292 44.685 51.8477 43.9678 51.5573C43.2505 51.2669 42.63 50.7793 42.1769 50.1501C41.7239 49.521 41.4566 48.7755 41.4054 47.9987L39.7586 24.5307C39.7088 23.8558 39.4983 23.2038 39.1449 22.6294C38.7916 22.0551 38.3056 21.5753 37.728 21.2303L17.5442 9.40303C16.8641 9.0131 16.3089 8.43679 15.9431 7.74089C15.5773 7.04499 15.4158 6.25799 15.4773 5.47108C15.5387 4.68418 15.8207 3.92959 16.2905 3.29476C16.7603 2.65992 17.3987 2.17083 18.1317 1.88417L39.8291 -7.07024C40.4524 -7.3317 41.0049 -7.73951 41.4402 -8.25933C41.8755 -8.77915 42.1807 -9.39576 42.3301 -10.0572L47.4021 -33.052C47.5649 -33.8157 47.938 -34.5192 48.4787 -35.0821C49.0194 -35.645 49.7058 -36.0445 50.4596 -36.2351C51.2134 -36.4256 52.0041 -36.3993 52.7412 -36.1594C53.4783 -35.9195 54.1322 -35.4755 54.6281 -34.8783L69.6477 -16.9757C70.0718 -16.4407 70.6227 -16.0213 71.2504 -15.7556C71.8781 -15.4899 72.5628 -15.3863 73.2424 -15.4541L96.5424 -17.8381C97.3146 -17.9187 98.0926 -17.7803 98.7881 -17.4388C99.4837 -17.0972 100.069 -16.5661 100.478 -15.9057C100.886 -15.2452 101.102 -14.4818 101.101 -13.7019C101.099 -12.9221 100.88 -12.157 100.469 -11.4933V-11.4933Z" fill="#F7D100"/>
<path d="M50.0832 47.2239C48.8688 48.6171 47.2579 48.973 46.4058 48.2148C45.5538 47.4566 45.8445 45.7592 47.0222 44.4467C48.1999 43.1341 49.8476 42.6976 50.6923 43.4719C51.537 44.2463 51.2609 45.9114 50.0832 47.2239Z" fill="white"/>
<g style="mix-blend-mode:overlay" opacity="0.4">
<path d="M42.5978 -2.88839C53.2881 14.3841 73.2471 21.5343 88.6405 14.4176L87.7715 12.4253C87.5073 11.8054 87.3978 11.1293 87.4525 10.4555C87.5072 9.78168 87.7244 9.13044 88.0853 8.5582L100.485 -11.4859C100.9 -12.1509 101.121 -12.9186 101.123 -13.7013C101.125 -14.484 100.908 -15.2503 100.497 -15.9126C100.086 -16.5749 99.4972 -17.1067 98.798 -17.4471C98.0988 -17.7876 97.3173 -17.9231 96.5427 -17.8381L73.2427 -15.4541C72.5733 -15.3825 71.8976 -15.4775 71.2753 -15.7306C70.6529 -15.9837 70.103 -16.3871 69.6739 -16.9054L54.6543 -34.808C54.1623 -35.4219 53.5056 -35.881 52.7611 -36.1316C52.0166 -36.3821 51.2152 -36.4137 50.451 -36.2226C49.6867 -36.0315 48.9912 -35.6257 48.446 -35.0527C47.9008 -34.4797 47.5286 -33.7633 47.373 -32.9875L42.301 -9.9927C42.1701 -9.41622 41.9186 -8.87367 41.5634 -8.40118C41.2082 -7.92869 40.7573 -7.53711 40.2408 -7.25251C40.9517 -5.75791 41.7384 -4.3013 42.5978 -2.88839V-2.88839Z" fill="#FFF0F5"/>
</g>
</svg>
