<svg width="84" height="83" viewBox="0 0 84 83" fill="none" xmlns="http://www.w3.org/2000/svg">
<path d="M69.0434 24.5959L60.6623 39.3082C60.4241 39.7333 60.2905 40.2091 60.2729 40.6957C60.2553 41.1823 60.3541 41.6653 60.5611 42.1043L67.828 57.3223C68.0704 57.8235 68.1686 58.3834 68.1115 58.9393C68.0544 59.4951 67.8444 60.0247 67.505 60.4686C67.1656 60.9125 66.7103 61.2531 66.1902 61.4521C65.6702 61.6511 65.1061 61.7006 64.5613 61.595L48.0598 58.1884C47.5872 58.0873 47.0964 58.1048 46.6308 58.2394C46.1652 58.374 45.7391 58.6216 45.3901 58.9604L33.1943 70.6933C32.7926 71.0835 32.2907 71.353 31.7456 71.471C31.2005 71.5891 30.6343 71.5509 30.1114 71.361C29.5885 71.1711 29.1299 70.837 28.788 70.3968C28.4462 69.9566 28.2346 69.428 28.1776 68.8712L26.3824 52.0537C26.3163 51.5796 26.1392 51.1286 25.8655 50.7379C25.5919 50.3472 25.2295 50.0278 24.8083 49.8062L10.0232 41.7765C9.52256 41.5157 9.10664 41.1169 8.82374 40.6266C8.54084 40.1363 8.40258 39.5746 8.42502 39.0067C8.44746 38.4389 8.62968 37.8882 8.95051 37.4187C9.27134 36.9492 9.7176 36.5801 10.2374 36.3545L25.5651 29.4543C26.0056 29.2534 26.3917 28.9483 26.6902 28.5652C26.9887 28.1822 27.1908 27.7325 27.2792 27.2548L30.3117 10.5973C30.3975 10.0332 30.6411 9.50439 31.0142 9.07286C31.3872 8.64133 31.8742 8.32489 32.4181 8.16056C32.962 7.99624 33.5404 7.99083 34.0855 8.14496C34.6307 8.2991 35.12 8.6064 35.4963 9.03092L46.7492 21.5129C47.0747 21.8701 47.4819 22.142 47.9359 22.3053C48.3899 22.4687 48.8771 22.5186 49.3558 22.4508L66.0334 20.1303C66.5893 20.0457 67.1568 20.1205 67.6707 20.346C68.1846 20.5715 68.6239 20.9385 68.9383 21.4049C69.2527 21.8714 69.4293 22.4182 69.4479 22.9827C69.4665 23.5472 69.3263 24.1063 69.0434 24.5959V24.5959Z" fill="#EAB300"/>
<path d="M70.5789 22.7636L62.2046 37.4925C61.9613 37.9146 61.8238 38.3895 61.8041 38.8759C61.7844 39.3624 61.8831 39.8456 62.0917 40.2837L69.3703 55.5066C69.6081 56.0102 69.7011 56.5714 69.6388 57.1269C69.5764 57.6824 69.3612 58.2102 69.0174 58.651C68.6736 59.0918 68.2148 59.428 67.6926 59.6218C67.1704 59.8157 66.6056 59.8594 66.0617 59.7482L49.5836 56.3513C49.1092 56.2542 48.6178 56.2748 48.1518 56.4113C47.6858 56.5479 47.2593 56.7962 46.9091 57.135L34.7133 68.868C34.3116 69.2581 33.8096 69.5276 33.2646 69.6456C32.7195 69.7637 32.1532 69.7256 31.6303 69.5357C31.1074 69.3457 30.6489 69.0116 30.307 68.5714C29.9651 68.1312 29.7536 67.6026 29.6966 67.0458L27.9014 50.2284C27.8479 49.7448 27.6797 49.2818 27.4109 48.8784C27.142 48.475 26.7804 48.1429 26.3564 47.9102L11.547 39.9394C11.0482 39.677 10.6343 39.2774 10.3533 38.787C10.0724 38.2965 9.93578 37.7353 9.95942 37.1684C9.98307 36.6014 10.166 36.052 10.4869 35.5836C10.8079 35.1153 11.2538 34.7472 11.7729 34.5222L27.1277 27.523C27.5687 27.3189 27.9551 27.0115 28.2542 26.6267C28.5534 26.2418 28.7566 25.7909 28.8467 25.3118L31.8909 8.65902C31.9879 8.10608 32.2376 7.5909 32.6114 7.1724C32.9852 6.75389 33.4679 6.44894 34.0045 6.29242C34.5411 6.13589 35.1098 6.1341 35.6457 6.28725C36.1815 6.4404 36.6629 6.74231 37.0347 7.15847L48.2924 19.6287C48.6111 20.002 49.0178 20.289 49.4757 20.4635C49.9336 20.638 50.4282 20.6946 50.9147 20.6281L67.5923 18.3076C68.145 18.2296 68.7075 18.3087 69.2161 18.5359C69.7247 18.7632 70.1591 19.1295 70.47 19.5933C70.7808 20.0572 70.9558 20.6 70.9751 21.1603C70.9943 21.7207 70.8571 22.2761 70.5789 22.7636V22.7636Z" fill="#F7D100"/>
<path d="M58.3924 24.8988C56.3882 25.4494 54.4963 25.1646 54.2066 24.1772C53.9169 23.1898 55.3416 21.8904 57.3459 21.3398C59.3501 20.7892 61.242 21.074 61.5269 22.0732C61.8117 23.0724 60.4161 24.3012 58.3924 24.8988Z" fill="white"/>
<path d="M63.5974 22.5554C63.3216 22.6332 63.027 22.5989 62.7774 22.4598C62.5278 22.3207 62.3433 22.088 62.2637 21.8122C62.1893 21.5363 62.2242 21.2415 62.3612 20.9897C62.4982 20.738 62.7267 20.5489 62.9985 20.4622C63.2668 20.4056 63.546 20.4526 63.7802 20.594C64.0145 20.7354 64.1866 20.9607 64.2623 21.225C64.3379 21.4893 64.3114 21.773 64.1882 22.0196C64.0649 22.2663 63.854 22.4576 63.5974 22.5554V22.5554Z" fill="white"/>
<path d="M35.9104 66.2627C35.0742 67.2953 33.9261 67.593 33.2942 67.0705C32.6623 66.548 32.8269 65.321 33.6388 64.3473C34.4507 63.3735 35.623 63.017 36.2501 63.5512C36.8771 64.0855 36.7223 65.289 35.9104 66.2627Z" fill="white"/>
<g style="mix-blend-mode:overlay" opacity="0.4">
<path d="M29.225 30.4551C37.3558 42.5856 51.8818 47.202 62.7555 41.6876L62.0791 40.2788C61.8732 39.8404 61.7769 39.3575 61.7986 38.872C61.8203 38.3865 61.9594 37.9129 62.2037 37.4924L70.5897 22.7684C70.8702 22.2798 71.0089 21.7225 70.99 21.1601C70.9711 20.5977 70.7953 20.0529 70.4826 19.5877C70.17 19.1226 69.7332 18.756 69.2219 18.5296C68.7107 18.3032 68.1457 18.2263 67.5914 18.3075L50.9138 20.628C50.4348 20.6969 49.9469 20.6463 49.4931 20.4807C49.0394 20.3151 48.6338 20.0396 48.312 19.6784L37.0543 7.20816C36.6848 6.77995 36.201 6.46721 35.6596 6.30662C35.1182 6.14603 34.5416 6.14424 33.9975 6.30146C33.4534 6.45868 32.9643 6.7684 32.5876 7.19429C32.2109 7.62018 31.9621 8.14459 31.8706 8.70602L28.8264 25.3588C28.7474 25.7764 28.5809 26.1727 28.338 26.5214C28.0951 26.8702 27.7814 27.1632 27.4177 27.3812C27.9674 28.4364 28.5706 29.4624 29.225 30.4551V30.4551Z" fill="#FFF0F5"/>
</g>
</svg>
