<svg width="224" height="105" viewBox="0 0 224 105" fill="none" xmlns="http://www.w3.org/2000/svg">
<g clip-path="url(#clip0)">
<path d="M19.2245 20.0269L27.2432 28.53C27.4753 28.7719 27.7618 28.9548 28.0789 29.0634C28.396 29.1721 28.7345 29.2034 29.0662 29.1547L40.6161 27.3572C40.9991 27.2959 41.3917 27.3438 41.7487 27.4952C42.1058 27.6467 42.413 27.8956 42.6352 28.2136C42.8574 28.5315 42.9855 28.9056 43.0049 29.293C43.0244 29.6804 42.9343 30.0655 42.7451 30.404L37.1358 40.6027C36.9816 40.9001 36.9011 41.2302 36.9011 41.5652C36.9011 41.9002 36.9816 42.2303 37.1358 42.5277L42.4009 52.9558C42.5778 53.3005 42.6542 53.688 42.6213 54.0741C42.5884 54.4602 42.4475 54.8292 42.2148 55.139C41.9821 55.4488 41.667 55.6869 41.3054 55.8261C40.9438 55.9653 40.5503 56 40.1699 55.9261L28.6965 53.7717C28.366 53.7074 28.0248 53.7249 27.7026 53.8227C27.3804 53.9204 27.087 54.0955 26.848 54.3326L18.5361 62.619C18.2614 62.89 17.9167 63.0792 17.5406 63.1654C17.1645 63.2516 16.7718 63.2314 16.4065 63.107C16.0413 62.9826 15.7179 62.7589 15.4725 62.4611C15.2272 62.1632 15.0697 61.803 15.0175 61.4206L13.526 49.8707C13.4841 49.5383 13.361 49.2214 13.1676 48.948C12.9741 48.6745 12.7163 48.4529 12.4169 48.3027L2.02703 42.9101C1.67992 42.7402 1.38745 42.4763 1.18288 42.1484C0.97832 41.8205 0.869873 41.4417 0.869873 41.0552C0.869873 40.6688 0.97832 40.29 1.18288 39.9621C1.38745 39.6342 1.67992 39.3703 2.02703 39.2004L12.6464 34.1903C12.9488 34.0444 13.212 33.8283 13.4138 33.5599C13.6156 33.2916 13.7502 32.9788 13.8065 32.6477L15.6677 21.1743C15.7224 20.7884 15.8845 20.4256 16.1355 20.1274C16.3865 19.8293 16.7163 19.6077 17.0872 19.488C17.4581 19.3684 17.8553 19.3555 18.2332 19.4508C18.6111 19.546 18.9546 19.7457 19.2245 20.0269Z" fill="#EAB300"/>
<path d="M18.3195 18.6495L26.3382 27.1526C26.569 27.3962 26.8554 27.5802 27.1729 27.689C27.4904 27.7978 27.8295 27.8281 28.1612 27.7773L39.7112 25.9797C40.0929 25.9236 40.4828 25.9748 40.837 26.1277C41.1913 26.2806 41.496 26.5291 41.717 26.8454C41.938 27.1617 42.0666 27.5333 42.0884 27.9185C42.1101 28.3037 42.0242 28.6874 41.8401 29.0266L36.2436 39.2252C36.0863 39.5216 36.004 39.8521 36.004 40.1877C36.004 40.5233 36.0863 40.8538 36.2436 41.1502L41.5214 51.5783C41.6983 51.923 41.7747 52.3106 41.7418 52.6967C41.7089 53.0827 41.5681 53.4518 41.3354 53.7616C41.1027 54.0714 40.7875 54.3095 40.4259 54.4487C40.0643 54.5879 39.6708 54.6225 39.2905 54.5487L27.817 52.3942C27.4885 52.3321 27.1498 52.3507 26.83 52.4484C26.5102 52.5461 26.219 52.72 25.9812 52.9551L17.6821 61.1905C17.4161 61.4762 17.0746 61.6806 16.6971 61.7801C16.3197 61.8796 15.9218 61.8701 15.5495 61.7527C15.1772 61.6353 14.8459 61.4148 14.5938 61.1167C14.3417 60.8187 14.1793 60.4553 14.1253 60.0687L12.621 48.455C12.5762 48.1169 12.4478 47.7954 12.2475 47.5194C12.0471 47.2434 11.7812 47.0216 11.4737 46.8742L1.12208 41.5327C0.777782 41.3568 0.489747 41.0879 0.290744 40.7565C0.0917399 40.4251 -0.0102428 40.0444 -0.00360137 39.6579C0.00304004 39.2714 0.118039 38.8945 0.328311 38.5701C0.538584 38.2457 0.835686 37.9868 1.18582 37.8229L11.7414 32.8128C12.0468 32.6745 12.3129 32.4622 12.5154 32.195C12.718 31.9279 12.8507 31.6144 12.9015 31.283L14.7755 19.8096C14.8254 19.4225 14.9839 19.0575 15.2327 18.7569C15.4815 18.4562 15.8104 18.2322 16.1813 18.1108C16.5522 17.9894 16.9499 17.9755 17.3283 18.0709C17.7068 18.1662 18.0504 18.3668 18.3195 18.6495Z" fill="#F7D100"/>
<path d="M17.2484 27.1659C17.2484 28.6192 16.6237 29.8048 15.9736 29.7921C15.3234 29.7793 14.6987 28.581 14.6987 27.1277C14.6987 25.6744 15.3106 24.4888 15.9736 24.4888C16.6365 24.4888 17.2611 25.6489 17.2484 27.1659Z" fill="white"/>
<path d="M16.7513 23.2394C16.7487 23.3881 16.7021 23.5327 16.6174 23.655C16.5327 23.7772 16.4136 23.8716 16.2752 23.9262C16.1368 23.9808 15.9854 23.9931 15.84 23.9616C15.6946 23.9301 15.5618 23.8562 15.4584 23.7493C15.355 23.6423 15.2857 23.5071 15.2591 23.3608C15.2326 23.2144 15.25 23.0634 15.3093 22.927C15.3685 22.7905 15.4669 22.6747 15.5919 22.5942C15.717 22.5136 15.8631 22.472 16.0119 22.4745C16.1106 22.4761 16.2081 22.4972 16.2987 22.5366C16.3894 22.5759 16.4713 22.6327 16.54 22.7038C16.6087 22.7748 16.6627 22.8586 16.6989 22.9505C16.7352 23.0424 16.7529 23.1406 16.7513 23.2394Z" fill="white"/>
<path d="M40.0044 50.3296C40.4761 51.0563 40.4761 51.9104 40.0044 52.2164C39.5327 52.5223 38.7296 52.2164 38.2706 51.4515C37.8117 50.6866 37.7989 49.8707 38.2706 49.552C38.7423 49.2333 39.52 49.5902 40.0044 50.3296Z" fill="white"/>
<g style="mix-blend-mode:overlay" opacity="0.4">
<path d="M14.967 47.6269C24.6429 44.6565 30.6856 35.9494 29.2323 27.6121L28.1615 27.7778C27.8297 27.8286 27.4906 27.7983 27.1732 27.6896C26.8557 27.5808 26.5693 27.3967 26.3384 27.1531L18.3198 18.65C18.0548 18.3686 17.7163 18.1672 17.3426 18.0687C16.9689 17.9702 16.575 17.9785 16.2058 18.0927C15.8366 18.207 15.5068 18.4225 15.254 18.7148C15.0012 19.0071 14.8355 19.3645 14.7757 19.7464L12.9017 31.2836C12.851 31.615 12.7183 31.9284 12.5157 32.1956C12.3131 32.4627 12.0471 32.6751 11.7417 32.8134L1.18606 37.8234C0.835931 37.9873 0.538828 38.2462 0.328555 38.5706C0.118283 38.895 0.00328418 39.2719 -0.00335723 39.6584C-0.00999864 40.045 0.091984 40.4256 0.290988 40.757C0.489991 41.0885 0.778026 41.3574 1.12232 41.5332L11.4739 46.8747C11.7321 47.0123 11.9586 47.2025 12.1387 47.4331C12.3187 47.6637 12.4484 47.9295 12.5193 48.2133C13.3448 48.0604 14.1618 47.8646 14.967 47.6269Z" fill="#FFF0F5"/>
</g>
</g>
<g clip-path="url(#clip1)">
<path d="M201.781 53.1083L204.661 64.4357C204.746 64.7598 204.908 65.0588 205.133 65.3078C205.357 65.5568 205.638 65.7485 205.951 65.8671L216.921 69.9051C217.285 70.0375 217.605 70.27 217.844 70.5758C218.082 70.8816 218.23 71.2485 218.27 71.6343C218.309 72.0201 218.24 72.4094 218.069 72.7574C217.897 73.1055 217.632 73.3984 217.302 73.6024L207.446 79.7934C207.166 79.9785 206.936 80.2279 206.773 80.5208C206.61 80.8136 206.52 81.1413 206.511 81.4761L206.049 93.1488C206.036 93.5361 205.914 93.912 205.698 94.2335C205.482 94.555 205.18 94.8092 204.826 94.967C204.472 95.1248 204.081 95.1799 203.697 95.1259C203.313 95.072 202.952 94.9112 202.656 94.6619L193.673 87.2064C193.415 86.9897 193.108 86.8393 192.779 86.7683C192.45 86.6973 192.108 86.7078 191.784 86.799L180.494 90.0058C180.122 90.1094 179.729 90.1074 179.359 90C178.988 89.8927 178.655 89.6843 178.396 89.3982C178.137 89.112 177.963 88.7595 177.893 88.38C177.823 88.0005 177.86 87.609 178 87.2495L182.306 76.4287C182.431 76.1179 182.477 75.781 182.441 75.448C182.404 75.115 182.287 74.7961 182.098 74.5194L175.635 64.7596C175.414 64.4425 175.286 64.0697 175.267 63.6837C175.247 63.2977 175.336 62.914 175.524 62.5762C175.712 62.2383 175.99 61.9599 176.328 61.7726C176.666 61.5854 177.05 61.4967 177.436 61.5167L189.152 62.2945C189.488 62.3139 189.823 62.2527 190.129 62.1162C190.436 61.9796 190.706 61.7716 190.916 61.5095L198.115 52.3839C198.35 52.0731 198.668 51.8347 199.032 51.696C199.396 51.5572 199.792 51.5237 200.175 51.5993C200.557 51.6748 200.91 51.8564 201.194 52.1232C201.478 52.3901 201.682 52.7314 201.781 53.1083Z" fill="#EAB300"/>
<path d="M201.659 51.4648L204.539 62.7921C204.622 63.1171 204.783 63.4171 205.008 63.6664C205.233 63.9157 205.514 64.1068 205.829 64.2235L216.798 68.2615C217.159 68.3978 217.475 68.6319 217.711 68.9376C217.946 69.2433 218.092 69.6085 218.131 69.9924C218.171 70.3762 218.103 70.7635 217.935 71.1108C217.767 71.4581 217.505 71.7518 217.18 71.9589L207.334 78.156C207.053 78.3387 206.821 78.5876 206.658 78.881C206.495 79.1743 206.406 79.5032 206.4 79.8387L205.949 91.5177C205.936 91.9049 205.814 92.2808 205.598 92.6023C205.382 92.9238 205.08 93.178 204.726 93.3358C204.372 93.4936 203.981 93.5487 203.597 93.4947C203.213 93.4408 202.853 93.28 202.556 93.0307L193.573 85.5752C193.316 85.3614 193.011 85.2132 192.684 85.1433C192.357 85.0734 192.018 85.0839 191.696 85.174L180.441 88.3424C180.07 88.463 179.672 88.4758 179.294 88.3795C178.916 88.2831 178.572 88.0816 178.304 87.7981C178.036 87.5147 177.853 87.161 177.778 86.778C177.702 86.3951 177.736 85.9986 177.877 85.6344L182.202 74.7517C182.327 74.4344 182.371 74.091 182.33 73.7524C182.289 73.4139 182.164 73.0909 181.967 72.8127L175.512 63.116C175.297 62.7951 175.176 62.4202 175.163 62.0338C175.15 61.6474 175.245 61.2652 175.439 60.9305C175.632 60.5958 175.916 60.3222 176.257 60.1408C176.599 59.9593 176.984 59.8773 177.37 59.9041L189.03 60.6509C189.364 60.6784 189.7 60.622 190.007 60.4868C190.314 60.3517 190.582 60.1421 190.787 59.8771L197.997 50.7577C198.229 50.4436 198.545 50.2015 198.908 50.0595C199.272 49.9175 199.668 49.8814 200.051 49.9554C200.435 50.0294 200.789 50.2105 201.073 50.4776C201.358 50.7447 201.561 51.087 201.659 51.4648Z" fill="#F7D100"/>
<path d="M196.587 58.3893C195.881 59.6597 194.759 60.3927 194.197 60.0658C193.635 59.7389 193.671 58.388 194.376 57.1176C195.082 55.8472 196.193 55.108 196.772 55.4299C197.352 55.7519 197.334 57.0693 196.587 58.3893Z" fill="white"/>
<path d="M198.059 54.7154C197.984 54.8442 197.873 54.948 197.74 55.0137C197.607 55.0794 197.457 55.1041 197.309 55.0846C197.162 55.0651 197.023 55.0023 196.911 54.9042C196.8 54.8061 196.72 54.677 196.681 54.5333C196.643 54.3896 196.648 54.2377 196.696 54.0969C196.743 53.956 196.832 53.8325 196.95 53.742C197.068 53.6515 197.21 53.5981 197.359 53.5884C197.507 53.5787 197.655 53.6133 197.784 53.6877C197.87 53.7371 197.944 53.8029 198.005 53.8813C198.065 53.9597 198.109 54.0492 198.134 54.1446C198.16 54.24 198.166 54.3396 198.153 54.4375C198.14 54.5355 198.108 54.6299 198.059 54.7154Z" fill="white"/>
<path d="M205.229 89.6895C205.288 90.5538 204.874 91.3004 204.313 91.3388C203.752 91.3772 203.198 90.7197 203.169 89.8281C203.139 88.9366 203.524 88.2172 204.091 88.1677C204.658 88.1182 205.165 88.8079 205.229 89.6895Z" fill="white"/>
<g style="mix-blend-mode:overlay" opacity="0.4">
<path d="M184.655 75.167C194.556 77.2697 204.067 72.5931 206.846 64.5991L205.829 64.2239C205.514 64.1073 205.233 63.9161 205.008 63.6668C204.783 63.4176 204.622 63.1176 204.539 62.7925L201.659 51.4652C201.564 51.0906 201.366 50.7501 201.087 50.4825C200.808 50.2149 200.46 50.0309 200.082 49.9514C199.703 49.8719 199.311 49.9002 198.948 50.033C198.585 50.1657 198.266 50.3977 198.029 50.7024L190.787 59.8775C190.582 60.1426 190.314 60.3521 190.007 60.4873C189.7 60.6224 189.364 60.6788 189.03 60.6514L177.37 59.9046C176.984 59.8778 176.599 59.9598 176.257 60.1412C175.916 60.3227 175.632 60.5963 175.439 60.931C175.245 61.2656 175.15 61.6479 175.163 62.0343C175.176 62.4206 175.297 62.7956 175.512 63.1165L181.967 72.8131C182.126 73.0588 182.232 73.335 182.277 73.624C182.323 73.913 182.307 74.2084 182.231 74.4909C183.027 74.7582 183.836 74.9838 184.655 75.167Z" fill="#FFF0F5"/>
</g>
</g>
<g clip-path="url(#clip2)">
<path d="M154.785 11.8135L156.881 13.8132C156.942 13.8701 157.015 13.9116 157.095 13.9343C157.175 13.9571 157.259 13.9604 157.341 13.944L160.176 13.3477C160.27 13.3275 160.368 13.3342 160.458 13.367C160.549 13.3998 160.628 13.4574 160.687 13.5332C160.746 13.609 160.783 13.7 160.793 13.7956C160.803 13.8912 160.785 13.9877 160.743 14.074L159.488 16.672C159.454 16.7476 159.438 16.8304 159.443 16.9133C159.447 16.9962 159.471 17.0769 159.513 17.1485L160.953 19.6608C161.001 19.7438 161.025 19.8387 161.022 19.9347C161.019 20.0307 160.989 20.1239 160.936 20.2036C160.882 20.2834 160.807 20.3464 160.72 20.3856C160.632 20.4248 160.535 20.4386 160.44 20.4253L157.572 20.0423C157.489 20.0307 157.405 20.0395 157.326 20.0679C157.248 20.0964 157.177 20.1435 157.121 20.2054L155.173 22.3654C155.108 22.4361 155.025 22.4874 154.933 22.5137C154.841 22.54 154.744 22.5401 154.652 22.5141C154.56 22.4881 154.477 22.437 154.412 22.3664C154.347 22.2959 154.304 22.2088 154.286 22.1149L153.765 19.2754C153.751 19.1937 153.716 19.1169 153.665 19.0517C153.613 18.9866 153.546 18.9351 153.47 18.9018L150.828 17.7031C150.74 17.6656 150.664 17.6041 150.609 17.5256C150.554 17.4471 150.522 17.3548 150.517 17.2591C150.512 17.1635 150.534 17.0683 150.58 16.9845C150.627 16.9006 150.695 16.8315 150.779 16.7848L153.342 15.4056C153.415 15.3655 153.477 15.3085 153.524 15.2395C153.57 15.1704 153.6 15.0912 153.609 15.0085L153.919 12.1441C153.928 12.0479 153.963 11.956 154.022 11.8789C154.08 11.8018 154.159 11.7426 154.249 11.7081C154.339 11.6736 154.437 11.6652 154.532 11.6839C154.627 11.7025 154.714 11.7474 154.785 11.8135Z" fill="#EAB300"/>
<path d="M154.543 11.4846L156.639 13.4843C156.7 13.5416 156.773 13.5834 156.853 13.6061C156.933 13.6289 157.017 13.632 157.099 13.615L159.934 13.0188C160.028 12.9999 160.125 13.0074 160.215 13.0406C160.305 13.0738 160.383 13.1314 160.442 13.2068C160.501 13.2821 160.538 13.3724 160.548 13.4675C160.558 13.5626 160.542 13.6587 160.501 13.7451L159.249 16.3429C159.214 16.4183 159.198 16.5012 159.203 16.5843C159.207 16.6673 159.232 16.7481 159.275 16.8194L160.718 19.3315C160.766 19.4145 160.79 19.5094 160.787 19.6054C160.784 19.7014 160.754 19.7946 160.7 19.8744C160.647 19.9541 160.572 20.0172 160.484 20.0564C160.396 20.0955 160.299 20.1093 160.204 20.096L157.336 19.713C157.254 19.7019 157.17 19.711 157.092 19.7394C157.015 19.7677 156.945 19.8146 156.889 19.8759L154.943 22.0232C154.881 22.0974 154.799 22.1524 154.707 22.182C154.614 22.2116 154.516 22.2144 154.422 22.1902C154.328 22.1661 154.244 22.1158 154.177 22.0453C154.111 21.9749 154.066 21.8871 154.048 21.7921L153.523 18.937C153.507 18.8539 153.471 18.776 153.418 18.7103C153.365 18.6446 153.296 18.5932 153.218 18.5608L150.586 17.3742C150.498 17.3352 150.424 17.2724 150.37 17.1929C150.316 17.1135 150.286 17.0206 150.283 16.9249C150.279 16.8291 150.303 16.7343 150.351 16.6512C150.398 16.5682 150.469 16.5002 150.553 16.4551L153.1 15.0766C153.174 15.0384 153.237 14.9823 153.284 14.9136C153.33 14.8448 153.359 14.7654 153.367 14.6827L153.681 11.8182C153.688 11.7217 153.723 11.6293 153.78 11.5516C153.838 11.4739 153.916 11.4141 154.007 11.3792C154.097 11.3443 154.195 11.3357 154.29 11.3543C154.385 11.373 154.473 11.4181 154.543 11.4846Z" fill="#F7D100"/>
<path d="M154.389 13.6066C154.408 13.9663 154.269 14.268 154.108 14.2733C153.947 14.2787 153.777 13.9902 153.758 13.6305C153.739 13.2708 153.875 12.9693 154.039 12.9606C154.203 12.9519 154.373 13.2309 154.389 13.6066Z" fill="white"/>
<path d="M154.215 12.6413C154.216 12.6782 154.206 12.7146 154.187 12.746C154.168 12.7773 154.139 12.8023 154.106 12.8176C154.072 12.8329 154.035 12.8379 153.999 12.8321C153.962 12.8262 153.928 12.8096 153.901 12.7845C153.874 12.7594 153.855 12.7268 153.847 12.6909C153.838 12.655 153.841 12.6175 153.854 12.5829C153.866 12.5484 153.889 12.5184 153.919 12.4968C153.949 12.4752 153.985 12.463 154.022 12.4617C154.046 12.4608 154.07 12.4647 154.093 12.4733C154.116 12.4819 154.137 12.4948 154.155 12.5115C154.173 12.5282 154.188 12.5483 154.198 12.5705C154.208 12.5928 154.214 12.6169 154.215 12.6413Z" fill="white"/>
<path d="M160.326 19.0423C160.452 19.216 160.463 19.4274 160.35 19.5093C160.238 19.5912 160.035 19.526 159.911 19.3427C159.788 19.1594 159.774 18.9576 159.886 18.8725C159.999 18.7874 160.196 18.8656 160.326 19.0423Z" fill="white"/>
<g style="mix-blend-mode:overlay" opacity="0.4">
<path d="M154.093 18.701C156.449 17.839 157.831 15.6046 157.362 13.5598L157.099 13.6149C157.017 13.6318 156.933 13.6288 156.853 13.606C156.773 13.5832 156.7 13.5414 156.639 13.4842L154.543 11.4844C154.474 11.4182 154.387 11.3728 154.293 11.3533C154.2 11.3339 154.102 11.3411 154.012 11.3742C153.922 11.4073 153.844 11.465 153.785 11.5406C153.726 11.6163 153.69 11.7069 153.68 11.8022L153.367 14.6826C153.359 14.7653 153.33 14.8446 153.284 14.9134C153.237 14.9822 153.174 15.0383 153.1 15.0765L150.553 16.4549C150.468 16.5001 150.398 16.5681 150.351 16.6511C150.303 16.7342 150.279 16.829 150.283 16.9247C150.286 17.0205 150.316 17.1134 150.37 17.1928C150.423 17.2723 150.498 17.335 150.586 17.3741L153.218 18.5606C153.284 18.5913 153.342 18.6354 153.39 18.6901C153.438 18.7448 153.473 18.8089 153.494 18.8783C153.697 18.8296 153.896 18.7704 154.093 18.701Z" fill="#FFF0F5"/>
</g>
</g>
<g clip-path="url(#clip3)">
<path d="M72.2448 89.8414L72.3509 91.3821C72.3543 91.4263 72.3682 91.469 72.3915 91.5067C72.4148 91.5443 72.4467 91.5759 72.4847 91.5988L73.815 92.3835C73.8592 92.4094 73.8953 92.4472 73.9191 92.4926C73.9428 92.538 73.9533 92.5892 73.9494 92.6403C73.9454 92.6914 73.9271 92.7403 73.8966 92.7815C73.8662 92.8227 73.8247 92.8545 73.777 92.8732L72.349 93.4445C72.3084 93.4619 72.2725 93.4889 72.2444 93.5231C72.2163 93.5573 72.1968 93.5978 72.1877 93.6411L71.8511 95.1475C71.8403 95.1976 71.8156 95.2436 71.7798 95.2802C71.7441 95.3169 71.6988 95.3428 71.6491 95.3549C71.5993 95.367 71.5472 95.3649 71.4986 95.3488C71.45 95.3327 71.4069 95.3033 71.3742 95.2639L70.3831 94.0819C70.3547 94.0476 70.3184 94.0208 70.2773 94.0038C70.2362 93.9868 70.1915 93.98 70.1472 93.9842L68.6036 94.1336C68.5528 94.1383 68.5018 94.1287 68.4561 94.106C68.4105 94.0833 68.3721 94.0483 68.3452 94.0049C68.3183 93.9616 68.3041 93.9117 68.304 93.8607C68.3039 93.8097 68.318 93.7597 68.3447 93.7163L69.1607 92.4116C69.1843 92.3742 69.1983 92.3315 69.2015 92.2873C69.2047 92.2432 69.1969 92.1989 69.1789 92.1585L68.5699 90.7367C68.5487 90.6902 68.541 90.6387 68.5476 90.5881C68.5542 90.5375 68.5748 90.4897 68.6072 90.4502C68.6396 90.4107 68.6825 90.3812 68.7309 90.3648C68.7792 90.3485 68.8312 90.346 68.8809 90.3578L70.3855 90.7364C70.4287 90.7469 70.4736 90.7469 70.5168 90.7364C70.5599 90.7259 70.5998 90.7052 70.6333 90.6761L71.7854 89.6604C71.8233 89.6256 71.8703 89.6021 71.9209 89.5927C71.9715 89.5833 72.0238 89.5883 72.0717 89.6072C72.1196 89.6261 72.1613 89.658 72.1919 89.6995C72.2225 89.7409 72.2408 89.7901 72.2448 89.8414Z" fill="#EAB300"/>
<path d="M72.2676 89.6251L72.3736 91.1658C72.3768 91.2101 72.3906 91.2529 72.4139 91.2906C72.4372 91.3283 72.4693 91.3599 72.5074 91.3825L73.8377 92.1672C73.8814 92.1935 73.917 92.2314 73.9403 92.2767C73.9637 92.322 73.974 92.373 73.97 92.4238C73.9661 92.4746 73.9481 92.5234 73.918 92.5645C73.8879 92.6057 73.847 92.6377 73.7997 92.6569L72.3731 93.2293C72.3322 93.2464 72.2961 93.2732 72.2679 93.3075C72.2398 93.3418 72.2205 93.3824 72.2117 93.4259L71.8765 94.9334C71.8656 94.9834 71.841 95.0294 71.8052 95.0661C71.7695 95.1028 71.7242 95.1286 71.6744 95.1408C71.6247 95.1529 71.5725 95.1508 71.5239 95.1347C71.4753 95.1186 71.4323 95.0891 71.3996 95.0497L70.4084 93.8678C70.3801 93.8339 70.3439 93.8074 70.3031 93.7905C70.2622 93.7737 70.2179 93.7671 70.1739 93.7711L68.6359 93.9164C68.5848 93.9233 68.5327 93.9155 68.4859 93.8941C68.439 93.8726 68.3991 93.8382 68.3709 93.795C68.3428 93.7518 68.3274 93.7015 68.3267 93.65C68.3259 93.5984 68.3398 93.5477 68.3667 93.5037L69.1867 92.1914C69.2105 92.1531 69.2243 92.1095 69.227 92.0646C69.2297 92.0196 69.2211 91.9746 69.2021 91.9338L68.5927 90.5204C68.5723 90.4736 68.5654 90.422 68.5729 90.3714C68.5803 90.3209 68.6018 90.2735 68.6349 90.2345C68.668 90.1956 68.7113 90.1668 68.76 90.1513C68.8087 90.1358 68.8607 90.1342 68.9102 90.1469L70.4083 90.5201C70.4511 90.5316 70.4961 90.5322 70.5392 90.5219C70.5822 90.5116 70.6221 90.4908 70.655 90.4612L71.8084 89.4465C71.8459 89.4111 71.8927 89.3872 71.9433 89.3773C71.9939 89.3675 72.0463 89.3722 72.0944 89.3909C72.1424 89.4095 72.1842 89.4415 72.2149 89.4829C72.2455 89.5244 72.2638 89.5737 72.2676 89.6251Z" fill="#F7D100"/>
<path d="M71.4444 90.4049C71.3226 90.5533 71.1594 90.622 71.094 90.5662C71.0287 90.5104 71.0654 90.3357 71.1872 90.1872C71.309 90.0388 71.4709 89.969 71.5386 90.0246C71.6063 90.0802 71.5729 90.251 71.4444 90.4049Z" fill="white"/>
<path d="M71.7228 89.9621C71.7101 89.977 71.6932 89.9879 71.6743 89.9933C71.6554 89.9987 71.6353 89.9983 71.6166 89.9923C71.5979 89.9863 71.5814 89.9748 71.5692 89.9594C71.557 89.944 71.5496 89.9253 71.548 89.9057C71.5464 89.8861 71.5507 89.8665 71.5602 89.8494C71.5698 89.8322 71.5842 89.8182 71.6017 89.8093C71.6192 89.8003 71.639 89.7967 71.6585 89.799C71.678 89.8012 71.6964 89.8092 71.7114 89.8219C71.7213 89.8304 71.7295 89.8407 71.7355 89.8523C71.7414 89.864 71.7451 89.8766 71.7461 89.8896C71.7472 89.9026 71.7457 89.9157 71.7417 89.9282C71.7377 89.9406 71.7312 89.9521 71.7228 89.9621Z" fill="white"/>
<path d="M71.8264 94.6783C71.8137 94.7921 71.7421 94.8793 71.6683 94.871C71.5944 94.8627 71.5381 94.7641 71.5553 94.6476C71.5726 94.531 71.6397 94.4466 71.7146 94.4536C71.7895 94.4606 71.8389 94.5622 71.8264 94.6783Z" fill="white"/>
<g style="mix-blend-mode:overlay" opacity="0.4">
<path d="M69.4953 92.3028C70.7325 92.8107 72.0797 92.4281 72.6303 91.4547L72.507 91.3819C72.4688 91.3592 72.4368 91.3277 72.4135 91.29C72.3901 91.2523 72.3763 91.2095 72.3732 91.1652L72.2671 89.6245C72.2637 89.5736 72.246 89.5246 72.2161 89.4832C72.1861 89.4418 72.1452 89.4097 72.0979 89.3904C72.0507 89.3711 71.9989 89.3655 71.9486 89.3741C71.8983 89.3828 71.8514 89.4054 71.8132 89.4394L70.6546 90.4606C70.6216 90.4901 70.5818 90.511 70.5387 90.5213C70.4956 90.5316 70.4506 90.531 70.4079 90.5195L68.9098 90.1462C68.8603 90.1336 68.8082 90.1352 68.7596 90.1507C68.7109 90.1662 68.6675 90.195 68.6344 90.2339C68.6014 90.2729 68.5799 90.3203 68.5724 90.3708C68.5649 90.4213 68.5718 90.473 68.5922 90.5198L69.2016 91.9332C69.2165 91.9689 69.2236 92.0073 69.2227 92.0459C69.2218 92.0846 69.2127 92.1226 69.1962 92.1575C69.2933 92.2111 69.3931 92.2596 69.4953 92.3028Z" fill="#FFF0F5"/>
</g>
</g>
<g clip-path="url(#clip4)">
<path d="M57.8922 16.6519L59.2682 17.3531C59.3078 17.3729 59.3516 17.3829 59.3959 17.3823C59.4402 17.3817 59.4837 17.3706 59.5228 17.3498L60.8799 16.6123C60.9248 16.5876 60.9758 16.5761 61.0269 16.5791C61.0781 16.582 61.1274 16.5993 61.1692 16.629C61.211 16.6587 61.2436 16.6995 61.2632 16.7469C61.2829 16.7942 61.2888 16.8461 61.2803 16.8967L61.0361 18.4151C61.0301 18.459 61.0348 18.5036 61.0497 18.5453C61.0646 18.587 61.0893 18.6245 61.1217 18.6546L62.2407 19.7179C62.2781 19.7529 62.3048 19.7977 62.3179 19.8472C62.331 19.8967 62.3299 19.9489 62.3147 19.9978C62.2995 20.0467 62.2709 20.0903 62.2321 20.1237C62.1933 20.1571 62.1459 20.179 62.0953 20.1867L60.5719 20.4291C60.5279 20.4358 60.4863 20.4531 60.4505 20.4796C60.4148 20.5061 60.3861 20.5409 60.3669 20.5811L59.7014 21.9819C59.6792 22.0278 59.6448 22.0667 59.6018 22.0941C59.5588 22.1216 59.5091 22.1365 59.4581 22.1373C59.4071 22.1381 59.3569 22.1246 59.3132 22.0985C59.2694 22.0724 59.2338 22.0345 59.2103 21.9893L58.5109 20.6186C58.4909 20.5791 58.4614 20.5451 58.4252 20.5197C58.389 20.4943 58.347 20.4782 58.3031 20.4728L56.7705 20.2641C56.7198 20.2584 56.6716 20.2386 56.6316 20.2069C56.5915 20.1752 56.5612 20.1329 56.544 20.0848C56.5268 20.0367 56.5235 19.9848 56.5343 19.9349C56.5452 19.885 56.5698 19.8391 56.6055 19.8025L57.7038 18.7068C57.735 18.6752 57.7581 18.6366 57.7713 18.5942C57.7845 18.5518 57.7873 18.5069 57.7796 18.4632L57.5007 16.9529C57.4903 16.9024 57.4944 16.8501 57.5123 16.8018C57.5303 16.7536 57.5615 16.7113 57.6023 16.6799C57.6431 16.6485 57.692 16.6293 57.7432 16.6243C57.7945 16.6194 57.8461 16.6289 57.8922 16.6519Z" fill="#EAB300"/>
<path d="M57.7182 16.521L59.0942 17.2222C59.1338 17.2422 59.1776 17.2524 59.2219 17.2518C59.2663 17.2512 59.3098 17.2399 59.3488 17.2188L60.7059 16.4813C60.7509 16.4574 60.8017 16.4464 60.8526 16.4497C60.9035 16.4529 60.9524 16.4703 60.994 16.4998C61.0356 16.5293 61.0681 16.5698 61.0879 16.6168C61.1078 16.6638 61.1141 16.7153 61.1063 16.7657L60.8637 18.2836C60.8573 18.3275 60.8618 18.3723 60.8767 18.414C60.8917 18.4558 60.9166 18.4932 60.9494 18.5231L62.0699 19.5858C62.1073 19.6208 62.134 19.6656 62.1471 19.7151C62.1602 19.7646 62.1591 19.8168 62.1439 19.8657C62.1288 19.9146 62.1001 19.9583 62.0613 19.9917C62.0225 20.0251 61.9751 20.0469 61.9245 20.0546L60.4011 20.297C60.3575 20.3039 60.3162 20.3213 60.2807 20.3476C60.2453 20.374 60.2168 20.4086 60.1977 20.4484L59.5315 21.8423C59.5111 21.8897 59.4777 21.9303 59.4351 21.9595C59.3926 21.9886 59.3427 22.0052 59.2911 22.0071C59.2396 22.0091 59.1886 21.9964 59.1439 21.9705C59.0993 21.9446 59.0629 21.9066 59.039 21.8609L58.3352 20.4829C58.3146 20.4428 58.2843 20.4085 58.2471 20.3831C58.2099 20.3577 58.1669 20.3419 58.1221 20.3372L56.5965 20.1332C56.5459 20.1266 56.4981 20.106 56.4586 20.0736C56.4191 20.0412 56.3894 19.9984 56.3731 19.95C56.3567 19.9016 56.3543 19.8496 56.366 19.7999C56.3777 19.7502 56.4032 19.7047 56.4394 19.6688L57.5299 18.5758C57.5617 18.545 57.5854 18.5068 57.5987 18.4645C57.612 18.4223 57.6146 18.3774 57.6062 18.3339L57.3289 16.823C57.3179 16.7726 57.3214 16.7201 57.339 16.6716C57.3565 16.6232 57.3875 16.5807 57.4282 16.5491C57.469 16.5175 57.5179 16.498 57.5692 16.4931C57.6205 16.4881 57.6722 16.4978 57.7182 16.521Z" fill="#F7D100"/>
<path d="M57.9639 17.6281C58.0286 17.8089 58.0036 17.9842 57.9221 18.0116C57.8407 18.0389 57.7096 17.9176 57.645 17.7368C57.5803 17.556 57.6037 17.3812 57.6862 17.3517C57.7687 17.3222 57.898 17.4388 57.9639 17.6281Z" fill="white"/>
<path d="M57.7273 17.1616C57.7336 17.1802 57.7342 17.2003 57.7291 17.2192C57.724 17.2382 57.7134 17.2553 57.6986 17.2682C57.6838 17.2811 57.6655 17.2894 57.646 17.292C57.6265 17.2945 57.6067 17.2912 57.5891 17.2825C57.5715 17.2738 57.5569 17.2601 57.547 17.243C57.5372 17.226 57.5327 17.2065 57.534 17.1868C57.5353 17.1672 57.5424 17.1485 57.5543 17.1329C57.5663 17.1173 57.5826 17.1056 57.6013 17.0993C57.6136 17.0951 57.6267 17.0934 57.6397 17.0943C57.6527 17.0951 57.6655 17.0985 57.6772 17.1043C57.6889 17.1101 57.6993 17.1181 57.7079 17.128C57.7165 17.1378 57.7231 17.1492 57.7273 17.1616Z" fill="white"/>
<path d="M61.8258 19.4977C61.9168 19.5671 61.9548 19.6733 61.9097 19.7324C61.8647 19.7915 61.7511 19.7891 61.66 19.7144C61.5689 19.6396 61.531 19.5387 61.5755 19.478C61.62 19.4174 61.7326 19.4272 61.8258 19.4977Z" fill="white"/>
<g style="mix-blend-mode:overlay" opacity="0.4">
<path d="M58.5896 20.2757C59.6613 19.4757 60.0258 18.1236 59.4741 17.1509L59.3482 17.2191C59.3092 17.2402 59.2657 17.2515 59.2213 17.2521C59.177 17.2527 59.1332 17.2425 59.0936 17.2225L57.7176 16.5213C57.6722 16.498 57.6211 16.4881 57.5702 16.4924C57.5193 16.4968 57.4707 16.5153 57.4298 16.546C57.389 16.5766 57.3575 16.6181 57.3391 16.6657C57.3206 16.7133 57.3159 16.7652 57.3255 16.8153L57.6056 18.3342C57.614 18.3777 57.6114 18.4226 57.5981 18.4648C57.5848 18.5071 57.5611 18.5453 57.5293 18.5761L56.4388 19.6691C56.4026 19.705 56.3771 19.7505 56.3654 19.8002C56.3536 19.8499 56.3561 19.9019 56.3725 19.9503C56.3888 19.9987 56.4185 20.0415 56.458 20.0739C56.4975 20.1063 56.5453 20.1269 56.5959 20.1335L58.1215 20.3376C58.1598 20.3432 58.1964 20.3568 58.2291 20.3775C58.2617 20.3981 58.2897 20.4254 58.3111 20.4576C58.407 20.4018 58.5 20.3411 58.5896 20.2757Z" fill="#FFF0F5"/>
</g>
</g>
<g clip-path="url(#clip5)">
<path d="M187.611 3.39593L188.529 6.89087C188.556 6.99087 188.607 7.08292 188.677 7.15935C188.747 7.23579 188.834 7.29439 188.931 7.33028L192.332 8.55215C192.445 8.59222 192.545 8.66331 192.619 8.75728C192.694 8.85125 192.74 8.9643 192.753 9.08349C192.767 9.20267 192.746 9.32317 192.694 9.4312C192.642 9.53922 192.56 9.63039 192.459 9.69428L189.427 11.632C189.341 11.6899 189.27 11.7676 189.221 11.8585C189.171 11.9495 189.144 12.051 189.142 12.1545L189.027 15.7643C189.024 15.8841 188.987 16.0006 188.921 16.1005C188.855 16.2004 188.762 16.2797 188.653 16.3294C188.544 16.379 188.424 16.397 188.305 16.3812C188.186 16.3655 188.074 16.3166 187.982 16.2403L185.187 13.9571C185.106 13.8907 185.011 13.845 184.909 13.8238C184.807 13.8026 184.702 13.8067 184.602 13.8357L181.119 14.8544C181.005 14.8873 180.883 14.8876 180.768 14.8553C180.653 14.823 180.55 14.7594 180.469 14.6716C180.388 14.5837 180.334 14.4752 180.311 14.358C180.289 14.2409 180.299 14.1197 180.342 14.0083L181.647 10.6526C181.684 10.5562 181.698 10.4519 181.686 10.3491C181.674 10.2462 181.637 10.1479 181.578 10.0628L179.556 7.06112C179.487 6.96362 179.447 6.84869 179.44 6.72941C179.433 6.61012 179.459 6.49128 179.516 6.38638C179.574 6.28148 179.659 6.19474 179.763 6.13602C179.867 6.0773 179.986 6.04896 180.105 6.05422L183.729 6.26638C183.833 6.27157 183.936 6.25185 184.031 6.20889C184.125 6.16593 184.208 6.10097 184.272 6.01944L186.476 3.18083C186.548 3.08418 186.645 3.00971 186.758 2.96594C186.87 2.92217 186.992 2.91085 187.111 2.93329C187.229 2.95572 187.339 3.011 187.427 3.09281C187.516 3.17461 187.579 3.27966 187.611 3.39593Z" fill="#EAB300"/>
<path d="M187.57 2.88794L188.488 6.38287C188.514 6.48316 188.565 6.57551 188.635 6.65203C188.705 6.72856 188.793 6.78697 188.89 6.82228L192.291 8.04416C192.403 8.08542 192.501 8.15704 192.575 8.25098C192.648 8.34492 192.694 8.45748 192.707 8.57604C192.721 8.69461 192.7 8.81449 192.649 8.92228C192.598 9.03006 192.518 9.12148 192.418 9.18629L189.389 11.1259C189.303 11.1831 189.231 11.2606 189.182 11.3517C189.132 11.4428 189.105 11.5447 189.104 11.6484L188.993 15.2601C188.99 15.3799 188.953 15.4963 188.887 15.5963C188.821 15.6962 188.728 15.7755 188.619 15.8251C188.51 15.8748 188.39 15.8928 188.271 15.877C188.152 15.8613 188.04 15.8124 187.948 15.7361L185.153 13.4529C185.073 13.3874 184.978 13.3423 184.877 13.3215C184.775 13.3007 184.671 13.3047 184.571 13.3334L181.1 14.3401C180.985 14.3782 180.862 14.3832 180.745 14.3543C180.628 14.3254 180.521 14.2639 180.438 14.177C180.354 14.09 180.297 13.9811 180.272 13.8629C180.248 13.7447 180.258 13.622 180.3 13.5091L181.611 10.1342C181.649 10.0358 181.662 9.92951 181.648 9.82495C181.635 9.72038 181.595 9.62083 181.534 9.53529L179.515 6.55313C179.447 6.45444 179.409 6.33881 179.404 6.2194C179.399 6.09998 179.428 5.98157 179.487 5.87764C179.546 5.77372 179.633 5.68844 179.738 5.63152C179.843 5.5746 179.962 5.54831 180.081 5.55566L183.688 5.75839C183.791 5.76606 183.895 5.74781 183.99 5.70529C184.084 5.66277 184.167 5.59733 184.229 5.5149L186.436 2.67818C186.507 2.58051 186.604 2.50491 186.716 2.46014C186.828 2.41536 186.951 2.40325 187.069 2.4252C187.188 2.44715 187.298 2.50227 187.387 2.58417C187.475 2.66606 187.539 2.77139 187.57 2.88794Z" fill="#F7D100"/>
<path d="M186.018 5.04132C185.803 5.43577 185.457 5.66509 185.283 5.56539C185.108 5.46569 185.116 5.04796 185.331 4.65351C185.546 4.25905 185.888 4.02784 186.068 4.12597C186.248 4.2241 186.246 4.63145 186.018 5.04132Z" fill="white"/>
<path d="M186.464 3.90198C186.441 3.94198 186.407 3.97434 186.366 3.99498C186.325 4.01561 186.279 4.0236 186.233 4.01793C186.187 4.01226 186.145 3.99319 186.11 3.96312C186.075 3.93305 186.05 3.89334 186.038 3.849C186.025 3.80467 186.027 3.75771 186.041 3.71405C186.055 3.6704 186.083 3.63201 186.119 3.60374C186.155 3.57548 186.199 3.5586 186.245 3.55525C186.291 3.5519 186.337 3.56223 186.377 3.58492C186.403 3.59999 186.426 3.62015 186.445 3.64425C186.464 3.66834 186.478 3.69589 186.486 3.72534C186.494 3.75478 186.496 3.78553 186.493 3.81584C186.489 3.84615 186.479 3.87542 186.464 3.90198Z" fill="white"/>
<path d="M188.765 14.6966C188.785 14.9637 188.659 15.1955 188.486 15.2087C188.312 15.2219 188.14 15.02 188.128 14.7445C188.117 14.4689 188.234 14.2456 188.409 14.2289C188.585 14.2122 188.743 14.4242 188.765 14.6966Z" fill="white"/>
<g style="mix-blend-mode:overlay" opacity="0.4">
<path d="M182.37 10.2568C185.436 10.883 188.365 9.4142 189.205 6.93613L188.89 6.82259C188.792 6.78728 188.705 6.72887 188.635 6.65235C188.565 6.57582 188.514 6.48347 188.488 6.38318L187.57 2.88825C187.54 2.77266 187.477 2.66788 187.391 2.58582C187.304 2.50376 187.196 2.44771 187.079 2.42406C186.961 2.40041 186.84 2.41009 186.728 2.45201C186.616 2.49393 186.518 2.56641 186.446 2.6612L184.229 5.51521C184.166 5.59764 184.084 5.66308 183.989 5.7056C183.895 5.74812 183.791 5.76637 183.688 5.7587L180.081 5.55598C179.962 5.54863 179.843 5.57491 179.738 5.63183C179.633 5.68875 179.546 5.77403 179.487 5.87796C179.428 5.98189 179.399 6.10029 179.404 6.21971C179.409 6.33913 179.447 6.45475 179.515 6.55344L181.534 9.53561C181.583 9.61116 181.617 9.69632 181.631 9.78556C181.646 9.87479 181.642 9.96613 181.619 10.0537C181.866 10.1344 182.117 10.2022 182.37 10.2568Z" fill="#FFF0F5"/>
</g>
</g>
<g clip-path="url(#clip6)">
<path d="M33.5703 89.9235L36.9779 91.1254C37.076 91.159 37.1806 91.1687 37.2832 91.1537C37.3857 91.1387 37.4832 91.0993 37.5674 91.039L40.4874 88.9099C40.584 88.8388 40.6987 88.7964 40.8183 88.7875C40.9379 88.7786 41.0575 88.8035 41.1636 88.8594C41.2697 88.9154 41.3579 89.0001 41.418 89.1038C41.4782 89.2075 41.508 89.3261 41.5039 89.4459L41.406 93.0431C41.4057 93.1466 41.4303 93.2488 41.4777 93.3408C41.5252 93.4329 41.594 93.5122 41.6785 93.5722L44.6019 95.6929C44.6993 95.7626 44.7751 95.8583 44.8207 95.9691C44.8664 96.0799 44.8799 96.2013 44.8598 96.3193C44.8397 96.4374 44.7868 96.5475 44.7071 96.6369C44.6274 96.7264 44.5242 96.7916 44.4092 96.8252L40.9507 97.8573C40.8508 97.8864 40.7595 97.9395 40.6848 98.012C40.6101 98.0845 40.5542 98.1741 40.5221 98.2731L39.4106 101.727C39.3735 101.841 39.3056 101.941 39.2144 102.018C39.1232 102.095 39.0124 102.145 38.8944 102.163C38.7764 102.18 38.6559 102.165 38.5463 102.118C38.4367 102.07 38.3424 101.994 38.2739 101.896L36.2289 98.9327C36.1703 98.8473 36.0916 98.7776 35.9998 98.7298C35.9079 98.6821 35.8057 98.6576 35.7021 98.6587L32.0831 98.6475C31.9636 98.6499 31.8459 98.6188 31.7432 98.5576C31.6406 98.4964 31.5571 98.4077 31.5024 98.3015C31.4477 98.1952 31.4239 98.0758 31.4337 97.9567C31.4435 97.8376 31.4865 97.7237 31.5579 97.6278L33.7673 94.7475C33.8298 94.6646 33.8715 94.5679 33.889 94.4656C33.9065 94.3633 33.8992 94.2583 33.8678 94.1593L32.7551 90.7424C32.7155 90.6286 32.7087 90.5059 32.7355 90.3884C32.7623 90.2709 32.8216 90.1634 32.9066 90.078C32.9916 89.9926 33.0989 89.9328 33.2163 89.9055C33.3336 89.8782 33.4563 89.8844 33.5703 89.9235Z" fill="#EAB300"/>
<path d="M33.1269 89.6721L36.5346 90.874C36.6325 90.9083 36.7373 90.9183 36.8399 90.9033C36.9426 90.8882 37.0401 90.8485 37.1241 90.7876L40.0441 88.6585C40.1411 88.589 40.2555 88.5479 40.3745 88.5398C40.4935 88.5316 40.6124 88.5568 40.7179 88.6124C40.8235 88.6681 40.9114 88.752 40.9719 88.8548C41.0324 88.9576 41.0631 89.0753 41.0606 89.1945L40.9661 92.7899C40.9648 92.8936 40.989 92.9961 41.0365 93.0883C41.084 93.1806 41.1534 93.2598 41.2387 93.3189L44.1655 95.4379C44.2629 95.5076 44.3388 95.6033 44.3844 95.7141C44.43 95.8249 44.4435 95.9462 44.4234 96.0643C44.4034 96.1824 44.3504 96.2925 44.2708 96.3819C44.1911 96.4714 44.0878 96.5366 43.9728 96.5702L40.5144 97.6023C40.4153 97.6317 40.3248 97.6848 40.2508 97.7569C40.1767 97.829 40.1213 97.918 40.0892 98.0163L38.9741 101.455C38.9414 101.571 38.8765 101.675 38.7868 101.756C38.6972 101.837 38.5865 101.891 38.4675 101.911C38.3486 101.931 38.2263 101.918 38.1148 101.872C38.0033 101.825 37.9073 101.748 37.8377 101.65L35.7801 98.6708C35.72 98.5842 35.6391 98.514 35.545 98.4665C35.4509 98.419 35.3464 98.3957 35.241 98.3987L31.6397 98.3961C31.5202 98.3965 31.403 98.3633 31.3013 98.3004C31.1997 98.2375 31.1178 98.1473 31.0649 98.0401C31.012 97.933 30.9903 97.8131 31.0021 97.6942C31.014 97.5752 31.059 97.462 31.1321 97.3674L33.324 94.4961C33.3883 94.4149 33.4314 94.3188 33.4493 94.2167C33.4671 94.1146 33.4592 94.0097 33.4263 93.9114L32.3171 90.4927C32.276 90.3792 32.2679 90.2565 32.2937 90.1386C32.3195 90.0207 32.3782 89.9126 32.463 89.8267C32.5477 89.7409 32.6551 89.6808 32.7726 89.6534C32.8901 89.626 33.013 89.6325 33.1269 89.6721Z" fill="#F7D100"/>
<path d="M34.0378 92.1656C34.2435 92.5651 34.2397 92.9794 34.0592 93.0679C33.8787 93.1564 33.5373 92.9155 33.3316 92.5161C33.1258 92.1166 33.1262 91.7041 33.3084 91.6103C33.4906 91.5165 33.8265 91.7469 34.0378 92.1656Z" fill="white"/>
<path d="M33.3452 91.1567C33.3656 91.198 33.3732 91.2443 33.3673 91.2899C33.3613 91.3355 33.3419 91.3783 33.3116 91.4129C33.2813 91.4475 33.2414 91.4723 33.197 91.4843C33.1526 91.4962 33.1056 91.4947 33.0621 91.4799C33.0185 91.4651 32.9803 91.4378 32.9523 91.4013C32.9243 91.3649 32.9077 91.3209 32.9047 91.275C32.9016 91.2291 32.9123 91.1834 32.9352 91.1435C32.9582 91.1037 32.9925 91.0716 33.0337 91.0512C33.0611 91.0377 33.0909 91.0297 33.1213 91.0276C33.1518 91.0256 33.1824 91.0296 33.2113 91.0394C33.2402 91.0492 33.267 91.0646 33.2899 91.0848C33.3129 91.1049 33.3317 91.1294 33.3452 91.1567Z" fill="white"/>
<path d="M43.5712 95.3106C43.8037 95.4436 43.9246 95.6783 43.8383 95.8292C43.7519 95.9801 43.4879 96.0097 43.2534 95.8644C43.019 95.7192 42.9 95.4967 42.9845 95.3423C43.0691 95.188 43.3333 95.176 43.5712 95.3106Z" fill="white"/>
<g style="mix-blend-mode:overlay" opacity="0.4">
<path d="M36.3075 98.1116C38.5464 95.9254 38.9746 92.6768 37.3949 90.591L37.124 90.7882C37.0401 90.8491 36.9426 90.8888 36.8399 90.9039C36.7373 90.9189 36.6325 90.9089 36.5345 90.8746L33.1269 89.6727C33.0142 89.6329 32.8927 89.6254 32.776 89.6513C32.6593 89.6771 32.5523 89.7351 32.467 89.8188C32.3817 89.9025 32.3215 90.0084 32.2934 90.1245C32.2653 90.2406 32.2704 90.3623 32.308 90.4757L33.4262 93.912C33.4592 94.0103 33.4671 94.1152 33.4492 94.2173C33.4314 94.3194 33.3883 94.4154 33.3239 94.4967L31.132 97.368C31.059 97.4626 31.014 97.5758 31.0021 97.6948C30.9902 97.8137 31.012 97.9336 31.0649 98.0407C31.1178 98.1479 31.1997 98.2381 31.3013 98.301C31.4029 98.3639 31.5202 98.3971 31.6397 98.3966L35.241 98.3993C35.3314 98.4006 35.4206 98.4208 35.5027 98.4587C35.5848 98.4966 35.6581 98.5513 35.7178 98.6192C35.923 98.4604 36.1199 98.2909 36.3075 98.1116Z" fill="#FFF0F5"/>
</g>
</g>
<g clip-path="url(#clip7)">
<path d="M205.491 27.6083L204.721 29.0256C204.699 29.0664 204.687 29.1118 204.687 29.1581C204.686 29.2044 204.697 29.2501 204.717 29.2915L205.449 30.729C205.474 30.7766 205.485 30.8302 205.48 30.8835C205.476 30.9369 205.456 30.9878 205.424 31.0307C205.392 31.0735 205.348 31.1063 205.298 31.1256C205.248 31.1448 205.194 31.1495 205.141 31.1392L203.563 30.842C203.517 30.8346 203.47 30.8382 203.426 30.8526C203.382 30.867 203.343 30.8918 203.31 30.9248L202.169 32.0636C202.131 32.1017 202.084 32.1283 202.032 32.1406C201.98 32.1529 201.925 32.1503 201.875 32.1331C201.824 32.1159 201.779 32.0848 201.745 32.0434C201.712 32.0019 201.69 31.9518 201.683 31.8988L201.473 30.3014C201.467 30.2552 201.45 30.2112 201.423 30.1732C201.397 30.1351 201.361 30.1042 201.32 30.083L199.876 29.3492C199.828 29.3248 199.789 29.2877 199.761 29.2421C199.734 29.1965 199.719 29.1441 199.72 29.0908C199.721 29.0376 199.736 28.9856 199.765 28.9406C199.793 28.8956 199.834 28.8595 199.881 28.8362L201.332 28.144C201.374 28.1242 201.41 28.0944 201.438 28.0573C201.465 28.0202 201.483 27.9768 201.49 27.9311L201.751 26.3366C201.758 26.2838 201.78 26.2341 201.814 26.1932C201.848 26.1522 201.893 26.1217 201.944 26.1051C201.995 26.0885 202.049 26.0864 202.101 26.0992C202.153 26.1119 202.2 26.1389 202.237 26.1771L203.351 27.3545C203.383 27.3879 203.423 27.4131 203.466 27.428C203.51 27.443 203.557 27.4472 203.603 27.4403L205.188 27.1912C205.241 27.1817 205.295 27.1874 205.345 27.2075C205.395 27.2276 205.438 27.2613 205.47 27.3048C205.502 27.3483 205.52 27.3999 205.524 27.4535C205.528 27.5072 205.516 27.5608 205.491 27.6083Z" fill="#EAB300"/>
<path d="M205.633 27.4305L204.863 28.8477C204.841 28.8885 204.829 28.9339 204.828 28.9803C204.828 29.0266 204.838 29.0723 204.859 29.1137L205.591 30.5512C205.615 30.5988 205.625 30.6522 205.62 30.7052C205.616 30.7583 205.596 30.8089 205.564 30.8515C205.532 30.8941 205.489 30.9269 205.439 30.9463C205.39 30.9657 205.336 30.971 205.283 30.9614L203.705 30.6659C203.66 30.658 203.613 30.6614 203.569 30.6758C203.525 30.6902 203.485 30.7152 203.453 30.7486L202.312 31.8892C202.274 31.9272 202.227 31.9539 202.175 31.9661C202.123 31.9784 202.068 31.9758 202.018 31.9586C201.967 31.9414 201.922 31.9103 201.888 31.8689C201.855 31.8274 201.833 31.7773 201.826 31.7243L201.616 30.1269C201.61 30.0811 201.593 30.0375 201.566 29.9997C201.54 29.962 201.504 29.9313 201.463 29.9102L200.026 29.1758C199.977 29.1532 199.936 29.1172 199.907 29.072C199.877 29.0268 199.862 28.9742 199.861 28.9203C199.86 28.8664 199.875 28.8135 199.903 28.7676C199.932 28.7217 199.972 28.6848 200.021 28.6611L201.479 27.9645C201.521 27.9441 201.558 27.9134 201.586 27.8753C201.613 27.8372 201.631 27.7928 201.637 27.7461L201.893 26.1588C201.901 26.1061 201.924 26.0567 201.959 26.0164C201.994 25.976 202.039 25.9463 202.09 25.9306C202.141 25.9148 202.195 25.9137 202.247 25.9273C202.299 25.941 202.345 25.9688 202.382 26.0077L203.493 27.1767C203.524 27.2108 203.563 27.2365 203.607 27.2516C203.651 27.2667 203.698 27.2706 203.743 27.263L205.329 27.0156C205.382 27.0055 205.436 27.0106 205.486 27.0303C205.536 27.05 205.58 27.0835 205.612 27.1269C205.644 27.1703 205.663 27.2219 205.666 27.2756C205.67 27.3293 205.659 27.383 205.633 27.4305Z" fill="#F7D100"/>
<path d="M204.47 27.656C204.279 27.7185 204.097 27.6876 204.07 27.6017C204.044 27.5159 204.174 27.3825 204.365 27.32C204.556 27.2575 204.737 27.2868 204.766 27.3737C204.794 27.4607 204.669 27.5925 204.47 27.656Z" fill="white"/>
<path d="M204.963 27.4221C204.944 27.4281 204.923 27.4282 204.903 27.4224C204.883 27.4165 204.866 27.405 204.853 27.3892C204.84 27.3734 204.832 27.354 204.829 27.3336C204.827 27.3132 204.831 27.2926 204.841 27.2744C204.85 27.2563 204.865 27.2414 204.883 27.2316C204.901 27.2218 204.922 27.2176 204.942 27.2195C204.963 27.2214 204.982 27.2293 204.998 27.2423C205.014 27.2552 205.026 27.2726 205.032 27.2922C205.036 27.3052 205.037 27.3189 205.036 27.3325C205.035 27.3461 205.031 27.3593 205.025 27.3713C205.018 27.3834 205.009 27.3941 204.999 27.4028C204.988 27.4115 204.976 27.418 204.963 27.4221Z" fill="white"/>
<path d="M202.41 31.6363C202.335 31.7294 202.223 31.7662 202.163 31.7174C202.102 31.6687 202.108 31.5502 202.189 31.4572C202.269 31.3641 202.376 31.3273 202.438 31.3755C202.5 31.4237 202.486 31.541 202.41 31.6363Z" fill="white"/>
<g style="mix-blend-mode:overlay" opacity="0.4">
<path d="M201.688 28.2359C202.494 29.3772 203.896 29.7954 204.927 29.2464L204.859 29.113C204.838 29.0717 204.827 29.026 204.828 28.9796C204.828 28.9333 204.84 28.8878 204.862 28.8471L205.633 27.4299C205.658 27.383 205.67 27.33 205.667 27.2767C205.664 27.2235 205.646 27.1722 205.615 27.1287C205.584 27.0851 205.542 27.0512 205.492 27.0306C205.443 27.01 205.389 27.0036 205.337 27.0122L203.743 27.2624C203.697 27.27 203.65 27.2661 203.607 27.251C203.563 27.2359 203.524 27.2102 203.492 27.176L202.381 26.007C202.345 25.9682 202.298 25.9403 202.247 25.9267C202.195 25.9131 202.141 25.9142 202.09 25.9299C202.039 25.9457 201.993 25.9754 201.958 26.0158C201.923 26.0561 201.9 26.1055 201.892 26.1582L201.637 27.7455C201.63 27.7852 201.615 27.8231 201.592 27.8566C201.57 27.8902 201.54 27.9186 201.506 27.9401C201.562 28.0418 201.622 28.1405 201.688 28.2359Z" fill="#FFF0F5"/>
</g>
</g>
<defs>
<clipPath id="clip0">
<rect width="43" height="45.2182" fill="white" transform="translate(0 18)"/>
</clipPath>
<clipPath id="clip1">
<rect width="43" height="45.2182" fill="white" transform="translate(185.96 42) rotate(29.0555)"/>
</clipPath>
<clipPath id="clip2">
<rect width="10.6587" height="11.2086" fill="white" transform="translate(150 11.5635) rotate(-3.02983)"/>
</clipPath>
<clipPath id="clip3">
<rect width="5.68179" height="5.97489" fill="white" transform="translate(70.4512 88.0227) rotate(39.3826)"/>
</clipPath>
<clipPath id="clip4">
<rect width="5.68179" height="5.97489" fill="white" transform="translate(55.4102 17.2551) rotate(-19.6748)"/>
</clipPath>
<clipPath id="clip5">
<rect width="13.294" height="13.9798" fill="white" transform="translate(182.694) rotate(28.6079)"/>
</clipPath>
<clipPath id="clip6">
<rect width="13.294" height="13.9798" fill="white" transform="translate(28 92.0874) rotate(-27.2516)"/>
</clipPath>
<clipPath id="clip7">
<rect width="5.93482" height="6.24098" fill="white" transform="translate(204.931 25) rotate(71.8506)"/>
</clipPath>
</defs>
</svg>
