<svg width="115" height="41" viewBox="0 0 115 41" fill="none" xmlns="http://www.w3.org/2000/svg">
<g clip-path="url(#clip0)">
<path d="M22.8448 5.68785L26.446 13.3145C26.5512 13.5323 26.7069 13.7218 26.9002 13.8673C27.0935 14.0127 27.3187 14.1098 27.5571 14.1506L35.8837 15.499C36.1602 15.5426 36.4188 15.6631 36.63 15.8469C36.8411 16.0306 36.9963 16.2701 37.0776 16.5379C37.159 16.8057 37.1633 17.091 37.09 17.3612C37.0168 17.6313 36.8689 17.8754 36.6634 18.0654L30.535 23.8092C30.3628 23.9787 30.2337 24.1872 30.1589 24.4171C30.084 24.6469 30.0654 24.8914 30.1048 25.13L31.3863 33.4619C31.4306 33.7379 31.3964 34.0209 31.2875 34.2785C31.1787 34.536 30.9995 34.7577 30.7706 34.9183C30.5417 35.0788 30.2723 35.1718 29.993 35.1864C29.7138 35.2011 29.4361 35.1369 29.1916 35.0012L21.8009 30.9584C21.5885 30.8404 21.3505 30.7761 21.1076 30.7712C20.8647 30.7663 20.6242 30.8208 20.4072 30.93L12.8519 34.7576C12.6029 34.8822 12.3241 34.935 12.0468 34.91C11.7695 34.8851 11.5045 34.7834 11.2817 34.6164C11.0589 34.4494 10.887 34.2237 10.7853 33.9645C10.6835 33.7053 10.6559 33.4229 10.7056 33.1489L12.264 24.8908C12.3095 24.6534 12.2959 24.4084 12.2243 24.1775C12.1527 23.9466 12.0254 23.737 11.8535 23.567L5.93009 17.5446C5.72991 17.3504 5.58823 17.1039 5.52117 16.8332C5.45411 16.5625 5.46435 16.2784 5.55074 16.0132C5.63713 15.7481 5.7962 15.5124 6.00985 15.3332C6.2235 15.1539 6.48317 15.0382 6.75932 14.9992L15.1654 13.9353C15.4056 13.9029 15.6344 13.8134 15.8329 13.6744C16.0314 13.5354 16.1937 13.3509 16.3062 13.1363L20.1479 5.68004C20.2717 5.42747 20.464 5.21481 20.7029 5.06633C20.9417 4.91785 21.2175 4.83955 21.4988 4.84036C21.7801 4.84117 22.0554 4.92107 22.2934 5.07093C22.5314 5.22079 22.7225 5.43457 22.8448 5.68785V5.68785Z" fill="#EAB300"/>
<path d="M22.531 4.54159L26.1321 12.1682C26.2361 12.387 26.3914 12.5773 26.585 12.7229C26.7785 12.8685 27.0044 12.965 27.2433 13.0043L35.5699 14.3527C35.8444 14.3995 36.1004 14.5218 36.3093 14.7059C36.5182 14.89 36.6718 15.1286 36.7527 15.395C36.8336 15.6614 36.8388 15.9451 36.7676 16.2143C36.6964 16.4835 36.5517 16.7276 36.3496 16.9191L30.23 22.6657C30.0557 22.8339 29.9254 23.0423 29.8504 23.2726C29.7754 23.5028 29.758 23.748 29.7997 23.9865L31.09 32.3213C31.1343 32.5974 31.1001 32.8803 30.9912 33.1379C30.8823 33.3954 30.7032 33.6171 30.4743 33.7777C30.2454 33.9383 29.9759 34.0312 29.6967 34.0459C29.4175 34.0605 29.1398 33.9964 28.8953 33.8607L21.5046 29.8178C21.293 29.7017 21.0565 29.6388 20.8153 29.6344C20.574 29.6299 20.3353 29.6841 20.1196 29.7923L12.5845 33.5878C12.3381 33.7243 12.0581 33.7882 11.7769 33.7721C11.4957 33.756 11.2248 33.6606 10.9956 33.4968C10.7664 33.333 10.5884 33.1076 10.482 32.8468C10.3757 32.586 10.3455 32.3003 10.3949 32.023L11.9587 23.7183C12.0035 23.4763 11.9873 23.2269 11.9115 22.9928C11.8358 22.7586 11.7029 22.5471 11.5248 22.3772L5.61627 16.3983C5.41934 16.2007 5.28182 15.9518 5.21937 15.6799C5.15691 15.408 5.17202 15.1241 5.26297 14.8604C5.35393 14.5966 5.51708 14.3637 5.73387 14.1881C5.95066 14.0126 6.21237 13.9014 6.48924 13.8672L14.8516 12.7891C15.0921 12.7625 15.3221 12.6762 15.5208 12.5382C15.7195 12.4002 15.8806 12.2148 15.9896 11.9988L19.84 4.54537C19.9607 4.29095 20.1511 4.07595 20.389 3.92527C20.6269 3.7746 20.9027 3.69441 21.1843 3.69402C21.4659 3.69362 21.7419 3.77303 21.9802 3.92303C22.2186 4.07304 22.4095 4.2875 22.531 4.54159V4.54159Z" fill="#F7D100"/>
<path d="M19.8932 10.1446C19.5683 11.1417 18.8747 11.8156 18.4315 11.6615C17.9882 11.5074 17.8275 10.5456 18.1523 9.54842C18.4772 8.55126 19.162 7.87457 19.6169 8.02275C20.0717 8.17093 20.241 9.10654 19.8932 10.1446Z" fill="white"/>
<path d="M20.4299 7.33964C20.3949 7.44112 20.3306 7.52994 20.2452 7.59488C20.1597 7.65982 20.0569 7.69797 19.9497 7.70448C19.8426 7.711 19.7359 7.6856 19.6432 7.63149C19.5505 7.57739 19.4759 7.49701 19.4289 7.40051C19.3819 7.30402 19.3645 7.19575 19.379 7.08939C19.3935 6.98304 19.4392 6.88336 19.5104 6.80298C19.5815 6.7226 19.6749 6.66512 19.7787 6.63781C19.8825 6.6105 19.9921 6.61458 20.0936 6.64954C20.161 6.67276 20.2231 6.70903 20.2765 6.75628C20.3299 6.80353 20.3735 6.86083 20.4047 6.92491C20.4359 6.989 20.4542 7.05861 20.4586 7.12977C20.4629 7.20092 20.4532 7.27224 20.4299 7.33964V7.33964Z" fill="white"/>
<path d="M30.3287 31.1248C30.4899 31.7288 30.299 32.3148 29.907 32.4193C29.5149 32.5238 29.0323 32.1344 28.8883 31.507C28.7444 30.8795 28.9181 30.3169 29.3129 30.2036C29.7078 30.0904 30.1616 30.5092 30.3287 31.1248Z" fill="white"/>
<g style="mix-blend-mode:overlay" opacity="0.4">
<path d="M13.753 23.6734C21.0559 23.7982 27.1482 19.1747 28.0147 13.1293L27.2429 13.0037C27.004 12.9644 26.7781 12.8678 26.5846 12.7222C26.391 12.5766 26.2357 12.3863 26.1317 12.1676L22.5306 4.54096C22.4117 4.28868 22.2244 4.07481 21.99 3.92368C21.7556 3.77256 21.4835 3.69023 21.2047 3.68607C20.9258 3.68191 20.6514 3.75608 20.4126 3.90014C20.1738 4.04421 19.9802 4.25239 19.8538 4.50102L15.9892 11.9981C15.8802 12.2142 15.7191 12.3996 15.5204 12.5376C15.3217 12.6756 15.0917 12.7618 14.8512 12.7885L6.48884 13.8666C6.21197 13.9007 5.95026 14.012 5.73347 14.1875C5.51668 14.3631 5.35353 14.596 5.26257 14.8597C5.17162 15.1235 5.15651 15.4074 5.21896 15.6793C5.28142 15.9512 5.41894 16.2001 5.61587 16.3977L11.5244 22.3765C11.6708 22.5286 11.7837 22.7098 11.8557 22.9082C11.9277 23.1067 11.9573 23.318 11.9425 23.5286C12.5431 23.6082 13.1474 23.6566 13.753 23.6734V23.6734Z" fill="#FFF0F5"/>
</g>
</g>
<g clip-path="url(#clip1)">
<path d="M69.6736 11.496L71.8871 16.1838C71.9517 16.3177 72.0474 16.4342 72.1663 16.5236C72.2851 16.613 72.4235 16.6727 72.5701 16.6978L77.6881 17.5266C77.8581 17.5534 78.017 17.6275 78.1468 17.7404C78.2766 17.8533 78.372 18.0005 78.422 18.1652C78.472 18.3298 78.4746 18.5052 78.4296 18.6712C78.3846 18.8372 78.2937 18.9873 78.1674 19.1041L74.4005 22.6345C74.2946 22.7388 74.2153 22.8669 74.1692 23.0082C74.1232 23.1495 74.1118 23.2998 74.136 23.4464L74.9237 28.5677C74.951 28.7374 74.9299 28.9114 74.863 29.0697C74.7961 29.228 74.686 29.3642 74.5453 29.4629C74.4046 29.5616 74.239 29.6187 74.0673 29.6278C73.8957 29.6368 73.725 29.5973 73.5747 29.5139L69.0319 27.0289C68.9014 26.9564 68.7551 26.9169 68.6057 26.9139C68.4564 26.9108 68.3087 26.9444 68.1753 27.0115L63.5313 29.3642C63.3782 29.4408 63.2069 29.4732 63.0364 29.4579C62.8659 29.4425 62.7031 29.3801 62.5661 29.2774C62.4292 29.1748 62.3235 29.036 62.261 28.8767C62.1984 28.7174 62.1815 28.5438 62.212 28.3754L63.1699 23.2994C63.1979 23.1535 63.1895 23.0029 63.1455 22.861C63.1015 22.7191 63.0232 22.5902 62.9176 22.4857L59.2767 18.7839C59.1536 18.6646 59.0665 18.5131 59.0253 18.3467C58.9841 18.1803 58.9904 18.0057 59.0435 17.8427C59.0966 17.6797 59.1944 17.5348 59.3257 17.4247C59.457 17.3145 59.6166 17.2433 59.7864 17.2194L64.9533 16.5655C65.1009 16.5455 65.2416 16.4905 65.3636 16.4051C65.4856 16.3196 65.5853 16.2062 65.6545 16.0743L68.0159 11.4912C68.092 11.336 68.2101 11.2052 68.357 11.114C68.5038 11.0227 68.6733 10.9746 68.8462 10.9751C69.0191 10.9756 69.1883 11.0247 69.3346 11.1168C69.4809 11.2089 69.5984 11.3403 69.6736 11.496V11.496Z" fill="#EAB300"/>
<path d="M69.4804 10.7919L71.694 15.4797C71.7578 15.6141 71.8533 15.7311 71.9723 15.8206C72.0912 15.9101 72.2301 15.9695 72.377 15.9936L77.495 16.8224C77.6637 16.8512 77.8211 16.9263 77.9495 17.0395C78.0779 17.1527 78.1723 17.2993 78.222 17.4631C78.2718 17.6269 78.275 17.8012 78.2312 17.9667C78.1874 18.1322 78.0985 18.2822 77.9743 18.3999L74.2128 21.9321C74.1057 22.0355 74.0255 22.1636 73.9794 22.3051C73.9333 22.4467 73.9226 22.5974 73.9483 22.744L74.7414 27.8671C74.7686 28.0368 74.7476 28.2107 74.6807 28.369C74.6137 28.5273 74.5036 28.6636 74.3629 28.7623C74.2222 28.861 74.0566 28.9181 73.885 28.9271C73.7133 28.9361 73.5426 28.8967 73.3924 28.8133L68.8496 26.3283C68.7195 26.2569 68.5741 26.2182 68.4259 26.2155C68.2776 26.2128 68.1308 26.2461 67.9983 26.3126L63.3667 28.6455C63.2153 28.7295 63.0431 28.7688 62.8703 28.7589C62.6974 28.749 62.5309 28.6903 62.3901 28.5896C62.2492 28.4889 62.1397 28.3504 62.0744 28.1901C62.009 28.0298 61.9905 27.8542 62.0208 27.6837L62.982 22.5791C63.0096 22.4303 62.9996 22.2771 62.953 22.1332C62.9065 21.9892 62.8248 21.8592 62.7154 21.7548L59.0836 18.0798C58.9625 17.9583 58.878 17.8053 58.8396 17.6382C58.8012 17.4711 58.8105 17.2965 58.8664 17.1344C58.9223 16.9723 59.0226 16.8292 59.1559 16.7213C59.2891 16.6133 59.45 16.545 59.6202 16.524L64.7602 15.8613C64.908 15.8449 65.0494 15.7919 65.1715 15.7071C65.2937 15.6223 65.3927 15.5083 65.4597 15.3755L67.8264 10.7942C67.9006 10.6378 68.0176 10.5056 68.1639 10.413C68.3101 10.3204 68.4796 10.2711 68.6527 10.2709C68.8258 10.2706 68.9954 10.3195 69.1419 10.4117C69.2884 10.5039 69.4058 10.6357 69.4804 10.7919V10.7919Z" fill="#F7D100"/>
<path d="M67.8593 14.2357C67.6596 14.8486 67.2333 15.2628 66.9609 15.1681C66.6884 15.0734 66.5896 14.4822 66.7893 13.8693C66.989 13.2564 67.4099 12.8404 67.6895 12.9315C67.9691 13.0226 68.0731 13.5977 67.8593 14.2357Z" fill="white"/>
<path d="M68.1892 12.5112C68.1677 12.5736 68.1282 12.6282 68.0756 12.6681C68.0231 12.708 67.9599 12.7315 67.894 12.7355C67.8282 12.7395 67.7626 12.7239 67.7056 12.6906C67.6486 12.6574 67.6028 12.608 67.5739 12.5487C67.545 12.4893 67.5343 12.4228 67.5432 12.3574C67.5521 12.292 67.5802 12.2308 67.624 12.1814C67.6677 12.132 67.7251 12.0966 67.7889 12.0798C67.8527 12.0631 67.9201 12.0656 67.9824 12.0871C68.0239 12.1013 68.0621 12.1236 68.0949 12.1527C68.1277 12.1817 68.1545 12.2169 68.1737 12.2563C68.1929 12.2957 68.2041 12.3385 68.2068 12.3822C68.2094 12.426 68.2035 12.4698 68.1892 12.5112V12.5112Z" fill="white"/>
<path d="M74.2738 27.1312C74.3729 27.5025 74.2555 27.8627 74.0146 27.9269C73.7736 27.9912 73.4769 27.7518 73.3885 27.3661C73.3 26.9805 73.4067 26.6346 73.6494 26.565C73.8922 26.4954 74.1711 26.7528 74.2738 27.1312Z" fill="white"/>
<g style="mix-blend-mode:overlay" opacity="0.4">
<path d="M64.0845 22.551C68.5734 22.6277 72.3181 19.7858 72.8507 16.07L72.3763 15.9927C72.2294 15.9686 72.0906 15.9092 71.9716 15.8197C71.8527 15.7302 71.7572 15.6133 71.6933 15.4788L69.4798 10.791C69.4067 10.6359 69.2916 10.5045 69.1475 10.4116C69.0035 10.3187 68.8362 10.2681 68.6648 10.2655C68.4934 10.263 68.3247 10.3085 68.1779 10.3971C68.0312 10.4856 67.9122 10.6136 67.8345 10.7664L65.459 15.3747C65.3921 15.5074 65.293 15.6214 65.1709 15.7062C65.0487 15.7911 64.9074 15.8441 64.7596 15.8604L59.6195 16.5231C59.4493 16.5441 59.2884 16.6125 59.1552 16.7204C59.0219 16.8283 58.9217 16.9715 58.8657 17.1336C58.8098 17.2957 58.8006 17.4702 58.8389 17.6373C58.8773 17.8045 58.9619 17.9574 59.0829 18.0789L62.7147 21.7539C62.8047 21.8474 62.8741 21.9587 62.9183 22.0807C62.9626 22.2027 62.9808 22.3326 62.9717 22.4621C63.3408 22.511 63.7123 22.5407 64.0845 22.551V22.551Z" fill="#FFF0F5"/>
</g>
</g>
<g clip-path="url(#clip2)">
<path d="M109.084 15.7034L110.163 17.9876C110.194 18.0528 110.241 18.1096 110.299 18.1531C110.357 18.1967 110.424 18.2258 110.496 18.238L112.989 18.6418C113.072 18.6549 113.15 18.691 113.213 18.746C113.276 18.801 113.323 18.8728 113.347 18.953C113.371 19.0332 113.373 19.1186 113.351 19.1995C113.329 19.2805 113.284 19.3535 113.223 19.4105L111.387 21.1307C111.336 21.1815 111.297 21.2439 111.275 21.3128C111.252 21.3816 111.247 21.4548 111.259 21.5263L111.642 24.0217C111.656 24.1044 111.645 24.1891 111.613 24.2663C111.58 24.3434 111.527 24.4098 111.458 24.4579C111.389 24.506 111.309 24.5338 111.225 24.5382C111.141 24.5426 111.058 24.5234 110.985 24.4827L108.772 23.2719C108.708 23.2366 108.637 23.2173 108.564 23.2158C108.491 23.2144 108.419 23.2307 108.354 23.2634L106.091 24.4098C106.017 24.4471 105.933 24.4629 105.85 24.4554C105.767 24.4479 105.688 24.4175 105.621 24.3675C105.554 24.3175 105.503 24.2499 105.472 24.1722C105.442 24.0946 105.434 24.01 105.449 23.928L105.915 21.4546C105.929 21.3835 105.925 21.3102 105.903 21.241C105.882 21.1719 105.844 21.1091 105.792 21.0582L104.018 19.2545C103.958 19.1963 103.916 19.1225 103.896 19.0414C103.876 18.9603 103.879 18.8753 103.905 18.7958C103.931 18.7164 103.978 18.6458 104.042 18.5922C104.106 18.5385 104.184 18.5038 104.267 18.4921L106.784 18.1735C106.856 18.1638 106.925 18.137 106.984 18.0954C107.044 18.0537 107.092 17.9985 107.126 17.9342L108.277 15.7011C108.314 15.6254 108.371 15.5617 108.443 15.5173C108.514 15.4728 108.597 15.4493 108.681 15.4496C108.765 15.4498 108.848 15.4737 108.919 15.5186C108.99 15.5635 109.048 15.6275 109.084 15.7034V15.7034Z" fill="#EAB300"/>
<path d="M108.99 15.3604L110.069 17.6446C110.1 17.7101 110.146 17.7671 110.204 17.8107C110.262 17.8543 110.33 17.8832 110.402 17.895L112.895 18.2988C112.978 18.3128 113.054 18.3495 113.117 18.4046C113.179 18.4597 113.225 18.5312 113.25 18.611C113.274 18.6908 113.275 18.7758 113.254 18.8564C113.233 18.937 113.189 19.0101 113.129 19.0675L111.296 20.7886C111.244 20.8389 111.205 20.9013 111.182 20.9703C111.16 21.0393 111.155 21.1127 111.167 21.1841L111.554 23.6804C111.567 23.7631 111.557 23.8478 111.524 23.925C111.491 24.0021 111.438 24.0685 111.369 24.1166C111.301 24.1647 111.22 24.1925 111.136 24.1969C111.053 24.2013 110.97 24.1821 110.896 24.1414L108.683 22.9306C108.62 22.8958 108.549 22.877 108.476 22.8757C108.404 22.8743 108.333 22.8906 108.268 22.923L106.011 24.0597C105.938 24.1006 105.854 24.1197 105.769 24.1149C105.685 24.1101 105.604 24.0815 105.535 24.0325C105.467 23.9834 105.413 23.9159 105.382 23.8378C105.35 23.7597 105.341 23.6741 105.356 23.5911L105.824 21.1038C105.837 21.0313 105.832 20.9566 105.81 20.8865C105.787 20.8164 105.747 20.753 105.694 20.7021L103.924 18.9115C103.865 18.8523 103.824 18.7778 103.805 18.6963C103.787 18.6149 103.791 18.5298 103.819 18.4509C103.846 18.3719 103.895 18.3021 103.96 18.2495C104.024 18.1969 104.103 18.1636 104.186 18.1534L106.69 17.8305C106.762 17.8225 106.831 17.7967 106.891 17.7554C106.95 17.7141 106.999 17.6585 107.031 17.5938L108.184 15.3615C108.22 15.2853 108.278 15.2209 108.349 15.1758C108.42 15.1307 108.503 15.1067 108.587 15.1066C108.671 15.1064 108.754 15.1302 108.825 15.1751C108.897 15.2201 108.954 15.2843 108.99 15.3604V15.3604Z" fill="#F7D100"/>
<path d="M108.2 17.0382C108.103 17.3369 107.895 17.5387 107.762 17.4925C107.63 17.4464 107.582 17.1583 107.679 16.8597C107.776 16.561 107.981 16.3583 108.117 16.4027C108.254 16.4471 108.304 16.7273 108.2 17.0382Z" fill="white"/>
<path d="M108.361 16.1978C108.351 16.2282 108.331 16.2548 108.306 16.2743C108.28 16.2937 108.249 16.3052 108.217 16.3071C108.185 16.3091 108.153 16.3015 108.126 16.2853C108.098 16.2691 108.075 16.245 108.061 16.2161C108.047 16.1872 108.042 16.1548 108.046 16.1229C108.051 16.091 108.064 16.0612 108.086 16.0371C108.107 16.013 108.135 15.9958 108.166 15.9876C108.197 15.9795 108.23 15.9807 108.26 15.9912C108.281 15.9981 108.299 16.009 108.315 16.0231C108.331 16.0373 108.344 16.0544 108.354 16.0736C108.363 16.0928 108.368 16.1137 108.37 16.135C108.371 16.1563 108.368 16.1777 108.361 16.1978V16.1978Z" fill="white"/>
<path d="M111.326 23.3218C111.374 23.5027 111.317 23.6782 111.199 23.7095C111.082 23.7408 110.937 23.6242 110.894 23.4363C110.851 23.2484 110.903 23.0798 111.021 23.0459C111.14 23.012 111.276 23.1374 111.326 23.3218Z" fill="white"/>
<g style="mix-blend-mode:overlay" opacity="0.4">
<path d="M106.361 21.0898C108.548 21.1272 110.372 19.7425 110.632 17.9319L110.401 17.8943C110.329 17.8825 110.262 17.8536 110.204 17.81C110.146 17.7663 110.099 17.7094 110.068 17.6438L108.989 15.3597C108.954 15.2841 108.898 15.2201 108.828 15.1748C108.757 15.1295 108.676 15.1049 108.592 15.1036C108.509 15.1024 108.427 15.1246 108.355 15.1677C108.284 15.2109 108.226 15.2732 108.188 15.3477L107.03 17.5931C106.998 17.6578 106.949 17.7133 106.89 17.7547C106.83 17.796 106.762 17.8218 106.69 17.8298L104.185 18.1527C104.102 18.1629 104.024 18.1962 103.959 18.2488C103.894 18.3014 103.845 18.3711 103.818 18.4501C103.79 18.5291 103.786 18.6142 103.805 18.6956C103.823 18.777 103.865 18.8516 103.924 18.9107L105.693 20.7014C105.737 20.747 105.771 20.8012 105.792 20.8607C105.814 20.9201 105.823 20.9834 105.818 21.0465C105.998 21.0703 106.179 21.0848 106.361 21.0898V21.0898Z" fill="#FFF0F5"/>
</g>
</g>
<defs>
<clipPath id="clip0">
<rect width="31.0297" height="32.6304" fill="white" transform="translate(10.1074) rotate(18.0446)"/>
</clipPath>
<clipPath id="clip1">
<rect width="19.0729" height="20.0568" fill="white" transform="translate(61.8442 8) rotate(18.0446)"/>
</clipPath>
<clipPath id="clip2">
<rect width="9.29338" height="9.77279" fill="white" transform="translate(105.269 14) rotate(18.0446)"/>
</clipPath>
</defs>
</svg>
