<svg width="115" height="41" viewBox="0 0 115 41" fill="none" xmlns="http://www.w3.org/2000/svg">
<g clip-path="url(#clip0)">
<path d="M91.2609 5.68785L87.6597 13.3145C87.5546 13.5323 87.3988 13.7218 87.2055 13.8673C87.0122 14.0127 86.787 14.1098 86.5486 14.1506L78.222 15.499C77.9455 15.5426 77.6869 15.6631 77.4757 15.8469C77.2646 16.0306 77.1094 16.2701 77.0281 16.5379C76.9467 16.8057 76.9424 17.091 77.0157 17.3612C77.0889 17.6313 77.2368 17.8754 77.4423 18.0654L83.5707 23.8092C83.743 23.9787 83.872 24.1872 83.9469 24.4171C84.0217 24.6469 84.0403 24.8914 84.001 25.13L82.7194 33.4619C82.6751 33.7379 82.7093 34.0209 82.8182 34.2785C82.9271 34.536 83.1062 34.7577 83.3351 34.9183C83.564 35.0788 83.8335 35.1718 84.1127 35.1864C84.3919 35.2011 84.6696 35.1369 84.9141 35.0012L92.3048 30.9584C92.5172 30.8404 92.7552 30.7761 92.9981 30.7712C93.241 30.7663 93.4815 30.8208 93.6985 30.93L101.254 34.7576C101.503 34.8822 101.782 34.935 102.059 34.91C102.336 34.8851 102.601 34.7834 102.824 34.6164C103.047 34.4494 103.219 34.2237 103.32 33.9645C103.422 33.7053 103.45 33.4229 103.4 33.1489L101.842 24.8908C101.796 24.6534 101.81 24.4084 101.881 24.1775C101.953 23.9466 102.08 23.737 102.252 23.567L108.176 17.5446C108.376 17.3504 108.517 17.1039 108.585 16.8332C108.652 16.5625 108.641 16.2784 108.555 16.0132C108.469 15.7481 108.31 15.5124 108.096 15.3332C107.882 15.1539 107.623 15.0382 107.346 14.9992L98.9403 13.9353C98.7001 13.9029 98.4713 13.8134 98.2728 13.6744C98.0744 13.5354 97.9121 13.3509 97.7995 13.1363L93.9578 5.68004C93.834 5.42747 93.6417 5.21481 93.4029 5.06633C93.164 4.91785 92.8882 4.83955 92.6069 4.84036C92.3257 4.84117 92.0503 4.92107 91.8123 5.07093C91.5743 5.22079 91.3832 5.43457 91.2609 5.68785V5.68785Z" fill="#EAB300"/>
<path d="M91.5747 4.54159L87.9736 12.1682C87.8696 12.387 87.7143 12.5773 87.5208 12.7229C87.3272 12.8685 87.1013 12.965 86.8624 13.0043L78.5358 14.3527C78.2613 14.3995 78.0053 14.5218 77.7964 14.7059C77.5875 14.89 77.434 15.1286 77.353 15.395C77.2721 15.6614 77.2669 15.9451 77.3381 16.2143C77.4093 16.4835 77.5541 16.7276 77.7561 16.9191L83.8757 22.6657C84.05 22.8339 84.1803 23.0423 84.2553 23.2726C84.3303 23.5028 84.3477 23.748 84.306 23.9865L83.0157 32.3213C82.9714 32.5974 83.0056 32.8803 83.1145 33.1379C83.2234 33.3954 83.4025 33.6171 83.6314 33.7777C83.8603 33.9383 84.1298 34.0312 84.409 34.0459C84.6882 34.0605 84.9659 33.9964 85.2104 33.8607L92.6011 29.8178C92.8127 29.7017 93.0492 29.6388 93.2905 29.6344C93.5317 29.6299 93.7704 29.6841 93.9861 29.7923L101.521 33.5878C101.768 33.7243 102.048 33.7882 102.329 33.7721C102.61 33.756 102.881 33.6606 103.11 33.4968C103.339 33.333 103.517 33.1076 103.624 32.8468C103.73 32.586 103.76 32.3003 103.711 32.023L102.147 23.7183C102.102 23.4763 102.118 23.2269 102.194 22.9928C102.27 22.7586 102.403 22.5471 102.581 22.3772L108.489 16.3983C108.686 16.2007 108.824 15.9518 108.886 15.6799C108.949 15.408 108.934 15.1241 108.843 14.8604C108.752 14.5966 108.589 14.3637 108.372 14.1881C108.155 14.0126 107.893 13.9014 107.616 13.8672L99.2541 12.7891C99.0136 12.7625 98.7836 12.6762 98.5849 12.5382C98.3862 12.4002 98.2251 12.2148 98.1162 11.9988L94.2657 4.54537C94.145 4.29095 93.9546 4.07595 93.7167 3.92527C93.4788 3.7746 93.203 3.69441 92.9214 3.69402C92.6398 3.69362 92.3638 3.77303 92.1255 3.92303C91.8872 4.07304 91.6962 4.2875 91.5747 4.54159V4.54159Z" fill="#F7D100"/>
<path d="M94.2125 10.1446C94.5374 11.1417 95.231 11.8156 95.6743 11.6615C96.1175 11.5074 96.2782 10.5456 95.9534 9.54842C95.6285 8.55126 94.9437 7.87457 94.4888 8.02275C94.034 8.17093 93.8647 9.10654 94.2125 10.1446Z" fill="white"/>
<path d="M93.6758 7.33964C93.7108 7.44112 93.7751 7.52994 93.8606 7.59488C93.946 7.65982 94.0488 7.69797 94.156 7.70448C94.2631 7.711 94.3698 7.6856 94.4625 7.63149C94.5552 7.57739 94.6298 7.49701 94.6768 7.40051C94.7239 7.30402 94.7412 7.19575 94.7267 7.08939C94.7122 6.98304 94.6665 6.88336 94.5954 6.80298C94.5242 6.7226 94.4308 6.66512 94.327 6.63781C94.2232 6.6105 94.1136 6.61458 94.0121 6.64954C93.9447 6.67276 93.8826 6.70903 93.8292 6.75628C93.7758 6.80353 93.7323 6.86083 93.701 6.92491C93.6698 6.989 93.6515 7.05861 93.6472 7.12977C93.6428 7.20092 93.6526 7.27224 93.6758 7.33964V7.33964Z" fill="white"/>
<path d="M83.777 31.1248C83.6158 31.7288 83.8067 32.3148 84.1988 32.4193C84.5908 32.5238 85.0735 32.1344 85.2174 31.507C85.3613 30.8795 85.1877 30.3169 84.7928 30.2036C84.3979 30.0904 83.9441 30.5092 83.777 31.1248Z" fill="white"/>
<g style="mix-blend-mode:overlay" opacity="0.4">
<path d="M100.353 23.6734C93.0498 23.7982 86.9575 19.1747 86.091 13.1293L86.8628 13.0037C87.1017 12.9644 87.3276 12.8678 87.5212 12.7222C87.7147 12.5766 87.87 12.3863 87.974 12.1676L91.5751 4.54096C91.694 4.28868 91.8813 4.07481 92.1157 3.92368C92.3501 3.77256 92.6222 3.69023 92.901 3.68607C93.1799 3.68191 93.4543 3.75608 93.6931 3.90014C93.9319 4.04421 94.1255 4.25239 94.2519 4.50102L98.1166 11.9981C98.2255 12.2142 98.3866 12.3996 98.5853 12.5376C98.784 12.6756 99.014 12.7618 99.2545 12.7885L107.617 13.8666C107.894 13.9007 108.155 14.012 108.372 14.1875C108.589 14.3631 108.752 14.596 108.843 14.8597C108.934 15.1235 108.949 15.4074 108.887 15.6793C108.824 15.9512 108.687 16.2001 108.49 16.3977L102.581 22.3765C102.435 22.5286 102.322 22.7098 102.25 22.9082C102.178 23.1067 102.148 23.318 102.163 23.5286C101.563 23.6082 100.958 23.6566 100.353 23.6734V23.6734Z" fill="#FFF0F5"/>
</g>
</g>
<g clip-path="url(#clip1)">
<path d="M44.4322 11.496L42.2186 16.1838C42.154 16.3177 42.0583 16.4342 41.9395 16.5236C41.8206 16.613 41.6822 16.6727 41.5356 16.6978L36.4176 17.5266C36.2476 17.5534 36.0887 17.6275 35.9589 17.7404C35.8291 17.8533 35.7337 18.0005 35.6837 18.1652C35.6337 18.3298 35.6311 18.5052 35.6761 18.6712C35.7211 18.8372 35.812 18.9873 35.9383 19.1041L39.7052 22.6345C39.8111 22.7388 39.8904 22.8669 39.9365 23.0082C39.9825 23.1495 39.9939 23.2998 39.9697 23.4464L39.182 28.5677C39.1548 28.7374 39.1758 28.9114 39.2427 29.0697C39.3096 29.228 39.4197 29.3642 39.5604 29.4629C39.7011 29.5616 39.8668 29.6187 40.0384 29.6278C40.21 29.6368 40.3807 29.5973 40.531 29.5139L45.0738 27.0289C45.2044 26.9564 45.3507 26.9169 45.5 26.9139C45.6493 26.9108 45.7971 26.9444 45.9305 27.0115L50.5744 29.3642C50.7275 29.4408 50.8989 29.4732 51.0693 29.4579C51.2398 29.4425 51.4026 29.3801 51.5396 29.2774C51.6765 29.1748 51.7822 29.036 51.8447 28.8767C51.9073 28.7174 51.9242 28.5438 51.8937 28.3754L50.9358 23.2994C50.9078 23.1535 50.9162 23.0029 50.9602 22.861C51.0042 22.7191 51.0825 22.5902 51.1881 22.4857L54.829 18.7839C54.9521 18.6646 55.0392 18.5131 55.0804 18.3467C55.1216 18.1803 55.1153 18.0057 55.0622 17.8427C55.0091 17.6797 54.9113 17.5348 54.78 17.4247C54.6487 17.3145 54.4891 17.2433 54.3193 17.2194L49.1524 16.5655C49.0048 16.5455 48.8641 16.4905 48.7421 16.4051C48.6201 16.3196 48.5204 16.2062 48.4512 16.0743L46.0898 11.4912C46.0138 11.336 45.8956 11.2052 45.7487 11.114C45.6019 11.0227 45.4324 10.9746 45.2595 10.9751C45.0866 10.9756 44.9174 11.0247 44.7711 11.1168C44.6248 11.2089 44.5073 11.3403 44.4322 11.496V11.496Z" fill="#EAB300"/>
<path d="M44.6253 10.7919L42.4118 15.4797C42.3479 15.6141 42.2524 15.7311 42.1334 15.8206C42.0145 15.9101 41.8756 15.9695 41.7287 15.9936L36.6107 16.8224C36.442 16.8512 36.2846 16.9263 36.1562 17.0395C36.0278 17.1527 35.9334 17.2993 35.8837 17.4631C35.8339 17.6269 35.8307 17.8012 35.8745 17.9667C35.9183 18.1322 36.0072 18.2822 36.1314 18.3999L39.893 21.9321C40.0001 22.0355 40.0802 22.1636 40.1263 22.3051C40.1724 22.4467 40.1831 22.5974 40.1574 22.744L39.3643 27.8671C39.3371 28.0368 39.3581 28.2107 39.4251 28.369C39.492 28.5273 39.6021 28.6636 39.7428 28.7623C39.8835 28.861 40.0491 28.9181 40.2207 28.9271C40.3924 28.9361 40.5631 28.8967 40.7133 28.8133L45.2561 26.3283C45.3862 26.2569 45.5316 26.2182 45.6799 26.2155C45.8281 26.2128 45.9749 26.2461 46.1074 26.3126L50.739 28.6455C50.8904 28.7295 51.0626 28.7688 51.2354 28.7589C51.4083 28.749 51.5748 28.6903 51.7157 28.5896C51.8565 28.4889 51.966 28.3504 52.0313 28.1901C52.0967 28.0298 52.1153 27.8542 52.0849 27.6837L51.1237 22.5791C51.0961 22.4303 51.1061 22.2771 51.1527 22.1332C51.1992 21.9892 51.2809 21.8592 51.3904 21.7548L55.0221 18.0798C55.1432 17.9583 55.2277 17.8053 55.2661 17.6382C55.3045 17.4711 55.2952 17.2965 55.2393 17.1344C55.1834 16.9723 55.0831 16.8292 54.9499 16.7213C54.8166 16.6133 54.6557 16.545 54.4856 16.524L49.3455 15.8613C49.1977 15.8449 49.0563 15.7919 48.9342 15.7071C48.812 15.6223 48.713 15.5083 48.646 15.3755L46.2793 10.7942C46.2051 10.6378 46.0881 10.5056 45.9419 10.413C45.7956 10.3204 45.6261 10.2711 45.453 10.2709C45.2799 10.2706 45.1103 10.3195 44.9638 10.4117C44.8173 10.5039 44.6999 10.6357 44.6253 10.7919V10.7919Z" fill="#F7D100"/>
<path d="M46.2464 14.2357C46.4461 14.8486 46.8724 15.2628 47.1449 15.1681C47.4173 15.0734 47.5161 14.4822 47.3164 13.8693C47.1168 13.2564 46.6958 12.8404 46.4162 12.9315C46.1366 13.0226 46.0326 13.5977 46.2464 14.2357Z" fill="white"/>
<path d="M45.9165 12.5112C45.938 12.5736 45.9776 12.6282 46.0301 12.6681C46.0826 12.708 46.1458 12.7315 46.2117 12.7355C46.2775 12.7395 46.3431 12.7239 46.4001 12.6906C46.4571 12.6574 46.5029 12.608 46.5318 12.5487C46.5607 12.4893 46.5714 12.4228 46.5625 12.3574C46.5536 12.292 46.5255 12.2308 46.4818 12.1814C46.438 12.132 46.3806 12.0966 46.3168 12.0798C46.253 12.0631 46.1857 12.0656 46.1233 12.0871C46.0818 12.1013 46.0436 12.1236 46.0108 12.1527C45.978 12.1817 45.9512 12.2169 45.932 12.2563C45.9128 12.2957 45.9016 12.3385 45.8989 12.3822C45.8963 12.426 45.9022 12.4698 45.9165 12.5112V12.5112Z" fill="white"/>
<path d="M39.8319 27.1312C39.7328 27.5025 39.8502 27.8627 40.0912 27.9269C40.3321 27.9912 40.6288 27.7518 40.7173 27.3661C40.8057 26.9805 40.699 26.6346 40.4563 26.565C40.2136 26.4954 39.9346 26.7528 39.8319 27.1312Z" fill="white"/>
<g style="mix-blend-mode:overlay" opacity="0.4">
<path d="M50.0212 22.551C45.5324 22.6277 41.7876 19.7858 41.255 16.07L41.7294 15.9927C41.8763 15.9686 42.0151 15.9092 42.1341 15.8197C42.253 15.7302 42.3485 15.6133 42.4124 15.4788L44.6259 10.791C44.699 10.6359 44.8141 10.5045 44.9582 10.4116C45.1023 10.3187 45.2695 10.2681 45.4409 10.2655C45.6123 10.263 45.781 10.3085 45.9278 10.3971C46.0746 10.4856 46.1935 10.6136 46.2712 10.7664L48.6467 15.3747C48.7137 15.5074 48.8127 15.6214 48.9348 15.7062C49.057 15.7911 49.1983 15.8441 49.3461 15.8604L54.4862 16.5231C54.6564 16.5441 54.8173 16.6125 54.9505 16.7204C55.0838 16.8283 55.1841 16.9715 55.24 17.1336C55.2959 17.2957 55.3052 17.4702 55.2668 17.6373C55.2284 17.8045 55.1439 17.9574 55.0228 18.0789L51.391 21.7539C51.301 21.8474 51.2316 21.9587 51.1874 22.0807C51.1431 22.2027 51.125 22.3326 51.1341 22.4621C50.7649 22.511 50.3934 22.5407 50.0212 22.551V22.551Z" fill="#FFF0F5"/>
</g>
</g>
<g clip-path="url(#clip2)">
<path d="M5.0215 15.7034L3.94295 17.9876C3.91145 18.0528 3.86481 18.1096 3.80692 18.1531C3.74903 18.1967 3.68157 18.2258 3.61016 18.238L1.11636 18.6418C1.03355 18.6549 0.956094 18.691 0.892854 18.746C0.829614 18.801 0.78315 18.8728 0.758781 18.953C0.734413 19.0332 0.733125 19.1186 0.755066 19.1995C0.777007 19.2805 0.82129 19.3535 0.882843 19.4105L2.71828 21.1307C2.76988 21.1815 2.80852 21.2439 2.83095 21.3128C2.85338 21.3816 2.85893 21.4548 2.84715 21.5263L2.46333 24.0217C2.45005 24.1044 2.4603 24.1891 2.49291 24.2663C2.52552 24.3434 2.57916 24.4098 2.64772 24.4579C2.71628 24.506 2.79698 24.5338 2.88061 24.5382C2.96424 24.5426 3.04741 24.5234 3.12063 24.4827L5.33414 23.2719C5.39776 23.2366 5.46904 23.2173 5.54179 23.2158C5.61455 23.2144 5.68656 23.2307 5.75155 23.2634L8.01435 24.4098C8.08893 24.4471 8.17243 24.4629 8.25549 24.4554C8.33855 24.4479 8.41789 24.4175 8.48462 24.3675C8.55136 24.3175 8.60284 24.2499 8.63332 24.1722C8.66379 24.0946 8.67205 24.01 8.65716 23.928L8.19044 21.4546C8.1768 21.3835 8.18089 21.3102 8.20233 21.241C8.22377 21.1719 8.26191 21.1091 8.31338 21.0582L10.0874 19.2545C10.1474 19.1963 10.1898 19.1225 10.2099 19.0414C10.23 18.9603 10.2269 18.8753 10.2011 18.7958C10.1752 18.7164 10.1275 18.6458 10.0635 18.5922C9.99956 18.5385 9.92179 18.5038 9.83908 18.4921L7.32146 18.1735C7.24954 18.1638 7.181 18.137 7.12156 18.0954C7.06212 18.0537 7.01351 17.9985 6.9798 17.9342L5.82921 15.7011C5.79214 15.6254 5.73455 15.5617 5.66301 15.5173C5.59147 15.4728 5.50886 15.4493 5.42462 15.4496C5.34039 15.4498 5.25792 15.4737 5.18664 15.5186C5.11535 15.5635 5.05813 15.6275 5.0215 15.7034V15.7034Z" fill="#EAB300"/>
<path d="M5.11544 15.3604L4.03689 17.6446C4.00577 17.7101 3.95923 17.7671 3.90128 17.8107C3.84332 17.8543 3.77566 17.8832 3.70409 17.895L1.2103 18.2988C1.12809 18.3128 1.05141 18.3495 0.98884 18.4046C0.926273 18.4597 0.880293 18.5312 0.856051 18.611C0.83181 18.6908 0.830264 18.7758 0.851587 18.8564C0.872911 18.937 0.916261 19.0101 0.976781 19.0675L2.8096 20.7886C2.86178 20.8389 2.90082 20.9013 2.92328 20.9703C2.94575 21.0393 2.95096 21.1127 2.93847 21.1841L2.55203 23.6804C2.53875 23.7631 2.549 23.8478 2.58161 23.925C2.61421 24.0021 2.66786 24.0685 2.73642 24.1166C2.80498 24.1647 2.88568 24.1925 2.96931 24.1969C3.05294 24.2013 3.13611 24.1821 3.20933 24.1414L5.42284 22.9306C5.4862 22.8958 5.55705 22.877 5.6293 22.8757C5.70155 22.8743 5.77304 22.8906 5.83763 22.923L8.09439 24.0597C8.16818 24.1006 8.25205 24.1197 8.33627 24.1149C8.4205 24.1101 8.50163 24.0815 8.57027 24.0325C8.63891 23.9834 8.69224 23.9159 8.72408 23.8378C8.75593 23.7597 8.76498 23.6741 8.75019 23.5911L8.28182 21.1038C8.26841 21.0313 8.27326 20.9566 8.29595 20.8865C8.31864 20.8164 8.35844 20.753 8.41177 20.7021L10.1814 18.9115C10.2404 18.8523 10.2815 18.7778 10.3002 18.6963C10.319 18.6149 10.3144 18.5298 10.2872 18.4509C10.2599 18.3719 10.2111 18.3021 10.1462 18.2495C10.0812 18.1969 10.0028 18.1636 9.91992 18.1534L7.4154 17.8305C7.34338 17.8225 7.27449 17.7967 7.21498 17.7554C7.15546 17.7141 7.10721 17.6585 7.07459 17.5938L5.92138 15.3615C5.88522 15.2853 5.82821 15.2209 5.75695 15.1758C5.6857 15.1307 5.60311 15.1067 5.51877 15.1066C5.43443 15.1064 5.35177 15.1302 5.28039 15.1751C5.20901 15.2201 5.15182 15.2843 5.11544 15.3604V15.3604Z" fill="#F7D100"/>
<path d="M5.90553 17.0382C6.00282 17.3369 6.21056 17.5387 6.34331 17.4925C6.47606 17.4464 6.5242 17.1583 6.42691 16.8597C6.32962 16.561 6.1245 16.3583 5.98827 16.4027C5.85205 16.4471 5.80135 16.7273 5.90553 17.0382Z" fill="white"/>
<path d="M5.74455 16.1978C5.75503 16.2282 5.77429 16.2548 5.79989 16.2743C5.82548 16.2937 5.85627 16.3052 5.88836 16.3071C5.92045 16.3091 5.9524 16.3015 5.98017 16.2853C6.00793 16.2691 6.03027 16.245 6.04436 16.2161C6.05844 16.1872 6.06364 16.1548 6.0593 16.1229C6.05496 16.091 6.04127 16.0612 6.01996 16.0371C5.99865 16.013 5.97068 15.9958 5.93959 15.9876C5.9085 15.9795 5.87568 15.9807 5.84529 15.9912C5.8251 15.9981 5.80648 16.009 5.79049 16.0231C5.7745 16.0373 5.76146 16.0544 5.75211 16.0736C5.74275 16.0928 5.73727 16.1137 5.73597 16.135C5.73468 16.1563 5.73759 16.1777 5.74455 16.1978V16.1978Z" fill="white"/>
<path d="M2.78008 23.3218C2.7318 23.5027 2.78898 23.6782 2.90639 23.7095C3.02381 23.7408 3.16837 23.6242 3.21147 23.4363C3.25457 23.2484 3.20257 23.0798 3.0843 23.0459C2.96604 23.012 2.83013 23.1374 2.78008 23.3218Z" fill="white"/>
<g style="mix-blend-mode:overlay" opacity="0.4">
<path d="M7.74512 21.0898C5.55791 21.1272 3.73326 19.7425 3.47375 17.9319L3.7049 17.8943C3.77647 17.8825 3.84412 17.8536 3.90208 17.81C3.96004 17.7663 4.00657 17.7094 4.0377 17.6438L5.11624 15.3597C5.15185 15.2841 5.20794 15.2201 5.27814 15.1748C5.34834 15.1295 5.42983 15.1049 5.51335 15.1036C5.59687 15.1024 5.67906 15.1246 5.75058 15.1677C5.8221 15.2109 5.88008 15.2732 5.91792 15.3477L7.07539 17.5931C7.10801 17.6578 7.15627 17.7133 7.21578 17.7547C7.27529 17.796 7.34418 17.8218 7.4162 17.8298L9.92073 18.1527C10.0036 18.1629 10.082 18.1962 10.147 18.2488C10.2119 18.3014 10.2608 18.3711 10.288 18.4501C10.3152 18.5291 10.3198 18.6142 10.3011 18.6956C10.2823 18.777 10.2412 18.8516 10.1822 18.9107L8.41257 20.7014C8.36872 20.747 8.33492 20.8012 8.31335 20.8607C8.29179 20.9201 8.28293 20.9834 8.28737 21.0465C8.10749 21.0703 7.9265 21.0848 7.74512 21.0898V21.0898Z" fill="#FFF0F5"/>
</g>
</g>
<defs>
<clipPath id="clip0">
<rect width="31.0297" height="32.6304" fill="white" transform="matrix(-0.950816 0.309757 0.309757 0.950816 103.998 0)"/>
</clipPath>
<clipPath id="clip1">
<rect width="19.0729" height="20.0568" fill="white" transform="matrix(-0.950816 0.309757 0.309757 0.950816 52.2615 8)"/>
</clipPath>
<clipPath id="clip2">
<rect width="9.29338" height="9.77279" fill="white" transform="matrix(-0.950816 0.309757 0.309757 0.950816 8.83643 14)"/>
</clipPath>
</defs>
</svg>
