<svg width="57" height="92" viewBox="0 0 57 92" fill="none" xmlns="http://www.w3.org/2000/svg">
<g clip-path="url(#clip0)">
<path d="M55.927 22.0521L46.9732 0.913457L47.1318 0.468035L46.8298 0.581278L46.7015 0.279297L46.4825 0.70207L24.8909 8.48563L15.2653 47.0561L20.3083 51.1857L23.5395 53.8356L27.6767 54.4094L34.1391 55.3078L55.927 22.0521Z" fill="#DBDDDD"/>
<path d="M15.6879 45.4403C15.6879 45.4403 15.1292 46.9502 15.6879 47.4183L18.2849 49.5397L29.8885 13.5889C29.8885 13.5889 30.3037 12.9774 28.9297 11.9582C27.5557 10.939 25.238 8.30425 24.9813 8.71192C24.7246 9.1196 15.6879 45.4403 15.6879 45.4403Z" fill="white"/>
<path d="M55.9646 21.954L46.875 0.475586L24.9361 8.37993L15.3104 46.958L20.3535 51.0876L23.5847 53.7299L27.7218 54.3112L34.1767 55.2096L55.9646 21.954Z" stroke="#9E9E9E" stroke-width="0.754952" stroke-miterlimit="10"/>
<path d="M24.9135 54.0245L30.5378 54.7795C30.5378 54.7795 30.8549 55.4514 32.0477 52.8921C33.2406 50.3328 48.3623 22.158 48.3623 22.158C48.3623 22.158 48.9134 21.5238 47.947 21.4031C46.9807 21.2823 39.0839 20.2706 38.6234 21.7579C38.1629 23.2451 24.9135 54.0245 24.9135 54.0245Z" fill="#BCBCBC"/>
<path d="M25.057 8.30444C31.4967 14.3441 38.933 20.9952 38.933 20.9952L55.8591 21.6746L46.8751 0.475586" stroke="#9E9E9E" stroke-width="0.754952" stroke-miterlimit="10"/>
<path d="M46.875 0.475586L38.9329 21.0254L24.468 54.1149" stroke="#9E9E9E" stroke-width="0.754952" stroke-miterlimit="10"/>
<path d="M18.451 49.5247L30.1226 13.0152L46.7844 0.709473L48.9889 20.9799L31.0889 54.7791" stroke="#9E9E9E" stroke-width="0.754952" stroke-miterlimit="10"/>
<g style="mix-blend-mode:overlay" opacity="0.4">
<path d="M24.9134 8.48557L19.9987 28.0766C29.73 32.1382 40.5938 28.4692 44.3912 19.7721C46.9202 13.9967 45.7048 7.43618 41.7866 2.4082L24.9134 8.48557Z" fill="#FFF0F5"/>
</g>
<path d="M32.6517 61.9286L26.8537 59.392L18.889 55.9116L13.0985 53.375L8.04785 71.3429L11.1885 73.5322L14.8273 76.0613L19.1532 77.0126L22.8902 77.8279L32.6517 61.9286Z" fill="#3A7D9B"/>
<path d="M26.2874 84.4034C23.5922 90.5789 15.7181 93.0929 8.71211 90.0278C1.70615 86.9627 -1.78928 79.4584 0.913453 73.3056C3.61618 67.1527 11.4828 64.6161 18.4887 67.6812C25.4947 70.7463 28.9901 78.2354 26.2874 84.4034Z" fill="#E28B00"/>
<path d="M26.9217 82.9542C24.2265 89.1297 16.3523 91.6437 9.34638 88.5785C2.34043 85.5134 -1.155 78.0092 1.54773 71.8564C4.25046 65.7035 12.1171 63.1669 19.123 66.232C26.129 69.2971 29.6244 76.7862 26.9217 82.9542Z" fill="#F3B327"/>
<path d="M10.1011 72.9206C8.84786 74.4305 6.77174 74.7476 5.47322 73.6756C4.84176 73.0651 4.47712 72.2298 4.45874 71.3517C4.44036 70.4735 4.76972 69.6237 5.37508 68.9873C6.6283 67.4774 8.70441 67.1603 10.0105 68.2324C10.6391 68.8449 11.0011 69.6804 11.0181 70.5579C11.035 71.4354 10.7056 72.2843 10.1011 72.9206Z" fill="white"/>
<path d="M14.2386 83.4146C17.1489 83.4146 19.5081 81.0554 19.5081 78.1451C19.5081 75.2348 17.1489 72.8755 14.2386 72.8755C11.3283 72.8755 8.96899 75.2348 8.96899 78.1451C8.96899 81.0554 11.3283 83.4146 14.2386 83.4146Z" fill="#BF252D"/>
<path d="M19.3872 83.4297C18.7958 83.5504 18.2257 83.7591 17.6961 84.0488C17.1903 84.2828 16.6845 84.5169 16.1862 84.7056L16.005 84.766H15.9144L15.5219 84.8641C15.2277 84.9171 14.9299 84.9474 14.631 84.9547C13.9476 84.925 13.2767 85.145 12.7436 85.5738C12.6034 85.687 12.4902 85.8302 12.4125 85.9928C12.3348 86.1555 12.2944 86.3334 12.2944 86.5137C12.2944 86.694 12.3348 86.8719 12.4125 87.0346C12.4902 87.1972 12.6034 87.3404 12.7436 87.4536C13.2452 87.8474 13.8738 88.0435 14.5102 88.0047C14.8349 88.0047 15.167 88.0047 15.4917 87.9594C17.1444 88.0405 18.7875 87.6644 20.2403 86.8723C20.6421 86.7086 20.9804 86.4196 21.2048 86.0483C21.4292 85.6769 21.5278 85.2431 21.486 84.8113C21.3728 84.3599 21.0944 83.9675 20.7057 83.7117C20.3171 83.4559 19.8465 83.3552 19.3872 83.4297Z" fill="#FCCC6B"/>
<path d="M24.468 82.705C24.4752 82.5513 24.4441 82.3983 24.3774 82.2596C24.3241 82.1148 24.2329 81.9871 24.1132 81.8897C24.074 81.848 24.0311 81.8101 23.9849 81.7764L23.849 81.6406L23.5621 81.4896L23.245 81.4141H22.8675L22.5731 81.4971C22.5143 81.5236 22.4586 81.5565 22.407 81.5953C22.3494 81.624 22.2939 81.6568 22.2409 81.6934L22.022 81.9199L21.939 82.0633C21.939 82.0633 21.8861 82.1615 21.8635 82.2068V82.2521C21.8635 82.2974 21.7955 82.5163 21.788 82.5616V82.6069C21.788 82.6069 21.788 82.8787 21.788 82.9164L21.871 83.2109L22.0295 83.4751C22.0295 83.4751 22.2258 83.6714 22.2485 83.694L22.5278 83.845L22.8373 83.9205C22.9429 83.9279 23.0489 83.9279 23.1544 83.9205H23.245L23.547 83.8299H23.5847L23.8565 83.6638L24.0755 83.4298C24.1208 83.3543 24.1963 83.2259 24.234 83.1505C24.3539 83.0281 24.4353 82.8732 24.468 82.705Z" fill="#FCCC6B"/>
<g style="mix-blend-mode:overlay" opacity="0.4">
<path d="M18.9945 66.1788C12.0187 63.2043 4.22763 65.7258 1.54755 71.856C0.732023 73.7579 0.470324 75.8515 0.792598 77.8957C1.42845 78.3058 2.09475 78.6667 2.78567 78.9752C9.18766 81.7686 16.3748 79.4735 18.8435 73.834C19.8728 71.3959 19.9269 68.6556 18.9945 66.1788Z" fill="#FFF0F5"/>
</g>
<path d="M41.1865 58.0076L9.93531 44.3413C8.30791 43.6297 6.41173 44.372 5.70006 45.9994L3.45864 51.1249C2.74697 52.7523 3.48931 54.6485 5.11671 55.3602L36.3679 69.0265C37.9953 69.7382 39.8915 68.9958 40.6032 67.3684L42.8446 62.2429C43.5563 60.6155 42.8139 58.7193 41.1865 58.0076Z" fill="#B3B3B3"/>
<path d="M41.8276 56.5638L10.5764 42.8975C8.94903 42.1858 7.05284 42.9282 6.34117 44.5555L4.09975 49.6811C3.38808 51.3085 4.13043 53.2047 5.75782 53.9163L37.009 67.5826C38.6364 68.2943 40.5326 67.552 41.2443 65.9246L43.4857 60.799C44.1974 59.1716 43.455 57.2755 41.8276 56.5638Z" fill="#CECECE"/>
<g style="mix-blend-mode:overlay" opacity="0.4">
<path d="M10.5693 42.8964C10.1833 42.7258 9.76732 42.633 9.34533 42.6234C8.92334 42.6138 8.50361 42.6875 8.11018 42.8404C7.71674 42.9933 7.35734 43.2223 7.05256 43.5143C6.74778 43.8064 6.50362 44.1556 6.33405 44.5422L5.5791 46.3012C7.01074 49.1628 9.42169 51.4157 12.3737 52.6504C17.9528 55.1115 23.9848 53.7903 26.3554 49.8269L10.5693 42.8964Z" fill="#FFF0F5"/>
</g>
</g>
<defs>
<clipPath id="clip0">
<rect width="56.4402" height="91.3341" fill="white"/>
</clipPath>
</defs>
</svg>
