<svg width="29" height="27" viewBox="0 0 29 27" fill="none" xmlns="http://www.w3.org/2000/svg"><path d="M22.872 26.047c-.078 0-.272.04-.545.078-.778.117-2.218.234-3.347 0h-.039l-4.009-2.063-.817-.428-.39.273-2.996 1.985-.273.194c-.039 0-.155 0-.35.04h-.078c-.895.077-2.92.233-3.853-.04h-.04c-.116-.039-.194-.194-.155-.428.078-1.05 1.674-3.97 3.036-6.344 1.051-1.83 1.985-3.27 1.985-3.27l.156-1.829.467-5.449.7-8.135.04-.389s2.49-.545 4.125 0h.039c.584.273 1.635 4.087 2.725 8.68.31 1.284.622 2.607.895 3.93.311 1.363.584 2.687.856 3.97 1.09 5.06 1.868 9.225 1.868 9.225Z" fill="url(#a)"/><path d="M23.26 18.069s1.44 6.772-.156 7.862c-.078.039-.116.078-.194.117-.156.078-.35.078-.545.078-.623 0-1.48-.273-2.297-.662-1.868-.856-3.814-2.219-3.814-2.219s-.506.35-1.284.818c-.156.078-.312.194-.467.272h-.04c-1.206.7-2.802 1.518-3.97 1.713-.116 0-.233.039-.35.039h-.078c-.194 0-.389-.04-.544-.078l-.234-.117a1.063 1.063 0 0 1-.35-.467c-.623-1.284-.156-4.398.155-6.15.156-.74.273-1.245.273-1.245s-2.647-2.102-4.281-4.165c-.779-1.012-1.324-1.985-1.168-2.685.233-1.168 2.374-1.79 4.36-2.102 1.517-.273 2.957-.35 3.424-.35h.156s1.168-4.01 2.647-6.54C15.164 1.06 15.865.244 16.526.205h.04c.077 0 .194 0 .272.039 2.14.661 4.203 8.485 4.203 8.485s7.435.233 7.863 2.452c.389 2.18-5.644 6.889-5.644 6.889Z" fill="url(#b)"/><path d="M19.601 18.069s1.323 5.566.428 7.395c-.078.195-.194.35-.35.467a1.345 1.345 0 0 1-.7.195c-1.168.038-3.114-.934-4.515-1.79-.273-.156-.507-.312-.74-.429-.623-.39-1.012-.662-1.012-.662s-1.946 1.402-3.814 2.219c-.545.234-1.09.467-1.557.545-.428.117-.818.117-1.129.039h-.039c-.117-.04-.233-.078-.35-.156-1.557-1.09-.234-7.55-.156-7.862 0 0-6.033-4.71-5.644-6.85.429-2.219 7.863-2.452 7.863-2.452S10.143.204 12.362.204c.7 0 1.4.817 2.063 1.985 1.479 2.53 2.646 6.539 2.646 6.539s.934.038 2.18.155c1.401.156 3.191.467 4.398 1.012.74.35 1.245.74 1.362 1.285.312 1.479-2.296 4.086-4.009 5.643a26.874 26.874 0 0 1-1.4 1.246Z" fill="url(#c)"/><path d="M17.11 8.727s3.036-.078 4.32.039c5.021.428 6.384 1.245 6.773 1.83.39.583-2.841.038-3.075.038-.233 0-.389-.817-3.075-1.167-2.724-.35-4.943-.74-4.943-.74Z" fill="#fff"/><path opacity=".5" d="M23.259 18.068c-.7.195-2.764.039-3.075 0-.311-.039 3.97-3.775 4.787-5.293.857-1.557 3.309-1.363 3.698-1.09.39.272-1.596 2.88-2.88 4.204-1.285 1.284-2.53 2.18-2.53 2.18Z" fill="#6E5066"/><path d="M22.483 12.074c-.662.273-1.44.545-2.297.779-2.607.74-5.838 1.207-8.99 1.362-2.18.078-4.32 0-6.15-.272-2.024-.312-3.659-.934-4.515-1.83a3.555 3.555 0 0 1-.506-.856c.078-.39.35-.7.74-.973.077-.039.155-.117.233-.156 0 0 .039 0 .039-.039 2.14-1.167 6.811-1.323 6.811-1.323S10.106.242 12.324.242c.195 0 .39.078.584.195.506.311 1.012.973 1.479 1.79 1.48 2.53 2.647 6.54 2.647 6.54s.934.038 2.18.155c1.4.155 3.19.467 4.398 1.012.272.934-.04 1.673-1.13 2.14Z" fill="#fff"/><path opacity=".2" d="M1.076 12.97c-.856.39 1.362 2.374 3.23 3.503 1.83 1.09 16.27-2.14 17.593-1.868 1.323.272 3.425-2.102 3.075-3.114-.39-1.05-1.012-1.129-1.012-.973 0 .156-.779 1.674-2.53 2.102-1.751.428-15.296 1.44-16.814 1.596-1.596.155-3.386-1.285-3.542-1.246Z" fill="#7F6593"/><path d="M6.21 25.814c-1.323-.312-1.128-3.854-.31-4.827.856-1.012 11.17-.895 13.155-.311 1.985.584 1.129 4.71.428 5.138-.7.428-6.422-3.036-6.89-2.92-.466.117-3.813 3.504-6.382 2.92Z" fill="#fff"/><path d="m17.81 16.59-.817.661.234.934c.506 1.985.778 4.048.74 5.177 0 .117 0 .233-.04.311-.973-.311-2.685-1.245-4.086-2.257l-.74-.545-.428-.312-1.129.818c-1.09.778-2.335 1.518-3.27 1.946-.272.155-.544.233-.777.311-.156-1.05.077-3.308.544-5.488l.234-.934-.817-.662c-1.985-1.595-3.932-3.62-4.36-4.554.779-.428 3.192-.895 5.372-.973l1.4-.038.351-1.246c.623-2.14 1.518-4.398 2.219-5.605.155.234.311.545.467.857.661 1.245 1.362 3.035 1.907 4.748l.389 1.284 1.401.04c2.18.077 4.632.505 5.371.972-.31.896-2.218 2.958-4.164 4.554Z" fill="url(#d)"/><path d="M22.015 12.036c-.35.856-1.986 2.646-3.737 4.164a2.5 2.5 0 0 1-.506.39l-.817.661.233.934c.506 1.985.779 4.048.74 5.177-.973-.428-2.219-1.168-3.309-1.946l-1.167-.817h-.818l-1.128.817c-1.09.778-2.336 1.518-3.27 1.946v-.467c0-.195 0-.428.039-.662.039-.973.234-2.218.467-3.425.039-.195.078-.428.117-.623l.233-.934-.817-.661c-1.985-1.596-3.931-3.62-4.32-4.554.74-.428 3.191-.896 5.37-.973l1.402-.04.35-1.245c.506-1.712 1.207-3.503 1.83-4.748.661 1.245 1.362 3.036 1.907 4.748l.39 1.285 1.4.039c2.219.038 4.671.467 5.41.934Z" fill="url(#e)"/><path d="M12.673 20.56s.778-.04 1.09.194c.31.233 2.335 1.595 2.335 1.829 0 .234-2.141-1.05-3.425-2.024Z" fill="#EBF0FF"/><path d="M7.496 23.673c-.273-.116.311-1.985.506-2.14.233-.156.155 1.712.233 1.829.04 0-.506.35-.74.311Z" fill="#fff"/><path opacity=".5" d="M8.274 17.252h.856s-.856 2.53-.973 3.191c-.156.662-.584-.74.117-3.192ZM3.604 12.814c-.545-.934 7.279-.623 7.279-.623s1.596-5.177 2.763-5.76c0 0-.973-2.297-1.168-2.297-.194 0-2.607 6.89-2.607 6.89s-3.464-.117-6.773 1.011l.506.779ZM15.242 11.024s5.838 1.012 6.422 1.557l.39-.545c-.04 0-1.83-.895-6.812-1.012Z" fill="#7E527C"/><path opacity=".5" d="M14.464.865c-1.09 0 .506 1.907 1.285 3.698.778 1.751 4.398 1.751 4.398 1.751s-1.557-4.515-2.53-5.02c-.973-.546-3.153-.429-3.153-.429ZM19.64 26.242c-.234-.156.467-.078.778-1.323.311-1.285 2.997-1.129 3.27-1.012.272.155-.156 1.712-.584 2.024-.428.311-3.464.311-3.464.311Z" fill="#6E5066"/><path d="M20.65 23.829c-.31-.117-.272-3.036-.272-3.581 0-.545 2.958-.312 3.114 0 .156.311.272 3.23.117 3.425-.156.195-2.764.233-2.958.156Z" fill="#fff"/><path opacity=".5" d="M10.96 25.892c.662-.117 2.102-.779 2.18-.973.04-.195-1.596-.35-1.985-.428-.389-.04-2.608 1.284-2.763 1.362-.156.155 2.569.039 2.569.039Z" fill="#fff"/><path opacity=".5" d="M12.753 23.362c-.312.117-1.44.818-1.48.974-.038.194 1.713.389 1.947.428.233.038 1.245-.428 1.245-.428s-1.634-1.012-1.712-.974ZM25.362 12.425c-.195.233-1.323 1.557-1.285 1.907 0 .35 3.114-.039 3.309-.311.194-.273 1.596-2.14 1.284-2.336-.311-.233-2.724.078-3.308.74Z" fill="#6E5066"/><path d="M17.11 8.727s6.422.623 7.279 1.907c1.323 1.946-2.842 5.76-2.842 5.76s4.165-3.697 3.581-5.526c-.584-1.869-8.018-2.141-8.018-2.141Z" fill="#EED6DD"/><path d="M24.545 10.167c-.506-.233.272.973.155 1.868-.116.857.506-.233.506-.856-.039-.584-.661-1.012-.661-1.012ZM13.414.749c-1.285-.467-.506 4.009.817 7.24 1.284 3.074 2.569 1.867 2.841 1.05.273-.817-2.608-7.512-3.658-8.29Z" fill="#fff"/><path d="M14.698 3.629c-.934-.117-.39 2.685.194 3.697.545.973 1.363.35 1.402-.506.038-.895-1.246-3.153-1.596-3.191ZM13.218.32c-.428.117 1.168.428 2.374.545 1.207.156 1.518.156 1.48-.156.038-.311-1.597-1.09-3.854-.389ZM19.6 26.164c-.117-.117 3.074-.506 3.386-.467.311.078-.428.39-.428.39s-2.063.35-2.959.077Z" fill="#fff"/><path opacity=".5" d="M17.228 18.186c.506 1.985.778 4.047.74 5.176-.974-.428-2.22-1.168-3.31-1.946l-1.167-.817h-.817l-1.129.817c-1.09.778-2.335 1.518-3.27 1.946v-.467l.273-.272c-.117-.04-.195-.156-.272-.39-.195-.661-.117-2.063.467-3.425.467-1.05 1.245-2.102 2.413-2.802 3.386-1.907 7.123.155 7.123.155a2.5 2.5 0 0 1-.506.39l-.818.661.273.974Z" fill="#fff"/><path d="M5.471 24.958c-.116-.817.195-1.401.506-1.362.312.038.701 1.907.429 2.14-.312.234-.935-.545-.935-.778Z" fill="#fff"/><path opacity=".8" d="M14.425 24.374c-1.206.7-2.802 1.518-3.97 1.712-.116 0-.233.04-.35.04h-.078c-.895.077-2.919.233-3.853-.04h-.039a1.383 1.383 0 0 1-.35-.155c-1.557-1.09-.234-7.551-.156-7.863-.039.273-.778 5.839-.117 7.162.078.195.234.311.467.428.35.195.818.311 1.324.35.7.078 1.479.078 2.18 0 .466-.038.895-.077 1.245-.155.311-.04.584-.117.74-.156.856-.195 2.685-1.168 2.957-1.323ZM16.799.281s-.078 0-.234-.039h-.078c-.661-.078-2.18-.156-3.503.195a3.83 3.83 0 0 0-.623.194c-.077.04-.155.04-.233.117-3.192 2.063-3.892 8.368-3.892 8.368s-5.722.39-7.162.973c2.14-1.167 6.811-1.323 6.811-1.323S10.143.242 12.361.242c0 0 2.491-.545 4.126 0 .117 0 .234 0 .312.04Z" fill="#7E527C"/><path d="M23.454 14.604c0-.817-1.869.779-2.024 1.09-.117.312-.234.74-.156.856.117.156 2.024-.272 2.18-1.946Z" fill="#63495F"/><path opacity=".5" d="M23.298 14.45c-.506-.04-1.129.505-1.207 1.05-.039.545.506.545 1.012 0s.35-1.05.195-1.05Z" fill="#5B3952"/><path d="M21.47 15.655s-.04.467.155.584c.273.195.895-.039.895-.039s-.7.506-1.206.545c-.506 0 .156-1.09.156-1.09Z" fill="#A89AA6"/><path d="M21.158 16.668c-.156-.195.817-.234.895-.234.078-.039-.74.428-.895.233Z" fill="#fff"/><path d="M9.676 25.152c-.117-.039.117-.545.428-.662.311-.116.74-.077.7.117-.039.195-.544.623-1.128.545Z" fill="#63495F"/><path d="M9.87 24.607c-.234.545.117.468.467.429 0 0-.39.194-.934.233.039-.039.078-.35.467-.662Z" fill="#A89AA6"/><path d="M9.483 25.23c-.039-.039.195-.194.35-.194.156 0 .273.077.273.077 0 .04-.35.156-.623.117Z" fill="#fff"/><path opacity=".5" d="M10.3 24.413c-.468.234-.312.584.038.545.39-.039.506-.428.428-.506-.078-.039-.467-.039-.467-.039Z" fill="#5B3952"/><path d="M6.562 15.072c-1.012-.506.584 1.284 1.05 1.635.468.35.701.544.701.544h.857c-.04 0-2.219-1.985-2.608-2.18Z" fill="#fff"/><path d="M8.274 17.251c-.194-.155-.35-.7-.116-.7.233.039.973.7.973.7h-.857Z" fill="#fff"/><path opacity=".8" d="M13.998 24.063s3.27 1.517 4.943 1.868c1.635.389 3.775.155 3.775.155s-2.14.39-4.047.04c-1.908-.312-4.671-2.064-4.671-2.064Z" fill="#7E527C"/><path d="M.179 11.257c.194.895 1.401-.311 1.673-.817.273-.506-1.595-.467-1.673.817Z" fill="#fff"/><path d="M16.994 17.251s4.047-2.802 5.02-5.215c0 0-1.907 3.152-5.02 5.215Z" fill="#EED6DD"/><path opacity=".5" d="M9.403 16.862c-.39.039-2.258-1.518-2.53-2.257-.272-.74 2.257 0 6.189-.195 3.93-.233 8.329-2.024 8.251-1.79-.078.233-2.491 2.997-3.075 3.113-.584.117-1.907-.778-4.67-.7-2.764.078-3.62 1.751-4.165 1.83Z" fill="#6E5066"/><defs><linearGradient id="a" x1="16.922" y1="28.224" x2="7.395" y2="2.049" gradientUnits="userSpaceOnUse"><stop stop-color="#728EE3"/><stop offset=".299" stop-color="#836888"/><stop offset=".573" stop-color="#E1D9E0"/><stop offset=".849" stop-color="#937D9A"/><stop offset="1" stop-color="#6D636A"/></linearGradient><linearGradient id="b" x1="21.822" y1="26.441" x2="12.761" y2="1.546" gradientUnits="userSpaceOnUse"><stop stop-color="#728EE3"/><stop offset=".299" stop-color="#836888"/><stop offset=".573" stop-color="#E1D9E0"/><stop offset=".849" stop-color="#937D9A"/><stop offset="1" stop-color="#6D636A"/></linearGradient><linearGradient id="c" x1="18.042" y1="26.569" x2="8.897" y2="1.442" gradientUnits="userSpaceOnUse"><stop stop-color="#DECDD1"/><stop offset=".147" stop-color="#DBC9CE"/><stop offset=".278" stop-color="#D3BFC4"/><stop offset=".404" stop-color="#C5ACB4"/><stop offset=".525" stop-color="#B2939E"/><stop offset=".634" stop-color="#9B7584"/><stop offset=".696" stop-color="#AE959A"/><stop offset="1" stop-color="#DDD4EA"/></linearGradient><linearGradient id="d" x1="16.935" y1="24.051" x2="10.014" y2="5.036" gradientUnits="userSpaceOnUse"><stop stop-color="#FFF1DE"/><stop offset=".209" stop-color="#A690A5"/><stop offset="1" stop-color="#5C475E"/></linearGradient><linearGradient id="e" x1="17.224" y1="23.634" x2="10.73" y2="5.793" gradientUnits="userSpaceOnUse"><stop stop-color="#AD99A0"/><stop offset=".994" stop-color="#655167"/></linearGradient></defs></svg>