<svg width="29" height="27" viewBox="0 0 29 27" fill="none" xmlns="http://www.w3.org/2000/svg"><path d="M22.867 26.047c-.078 0-.273.04-.545.078-.778.117-2.219.234-3.347 0h-.04l-4.008-2.063-.817-.428-.39.273-2.997 1.985-.272.194c-.04 0-.156 0-.35.04h-.078c-.896.077-2.92.233-3.854-.04H6.13c-.116-.039-.194-.194-.155-.428.078-1.05 1.673-3.97 3.036-6.344a79.167 79.167 0 0 1 1.985-3.27l.155-1.829.467-5.449.701-8.135.039-.389s2.491-.545 4.126 0h.039c.583.273 1.634 4.087 2.724 8.68.311 1.284.623 2.607.895 3.93.312 1.363.584 2.687.857 3.97 1.09 5.06 1.868 9.225 1.868 9.225Z" fill="url(#a)"/><path d="M23.216 18.068s1.44 6.773-.156 7.862c-.078.04-.117.078-.195.117-.155.078-.35.078-.544.078-.623 0-1.48-.272-2.297-.662-1.868-.856-3.814-2.218-3.814-2.218s-.506.35-1.285.817c-.155.078-.311.195-.467.273h-.039c-1.206.7-2.802 1.518-3.97 1.712-.116 0-.233.04-.35.04h-.078c-.194 0-.389-.04-.545-.079l-.233-.116a1.063 1.063 0 0 1-.35-.468c-.623-1.284-.156-4.398.155-6.15.156-.739.273-1.245.273-1.245s-2.647-2.101-4.282-4.164c-.778-1.012-1.323-1.985-1.167-2.686.233-1.168 2.374-1.79 4.359-2.102 1.518-.272 2.958-.35 3.425-.35h.156s1.167-4.009 2.646-6.539C15.12 1.06 15.821.242 16.482.203h.04c.077 0 .194 0 .272.039 2.14.662 4.203 8.485 4.203 8.485s7.434.234 7.862 2.452c.39 2.18-5.643 6.89-5.643 6.89Z" fill="url(#b)"/><path d="M19.596 18.068s1.323 5.566.428 7.396c-.078.194-.195.35-.35.467a1.344 1.344 0 0 1-.701.194c-1.168.04-3.114-.934-4.515-1.79-.272-.156-.506-.312-.74-.428-.622-.39-1.011-.662-1.011-.662s-1.947 1.401-3.815 2.219c-.545.233-1.09.467-1.557.545-.428.116-.817.116-1.128.038h-.04c-.116-.038-.233-.077-.35-.155-1.556-1.09-.233-7.551-.155-7.863 0 0-6.033-4.67-5.644-6.81.428-2.22 7.862-2.453 7.862-2.453S10.138.242 12.356.242c.7 0 1.402.818 2.063 1.985 1.48 2.53 2.647 6.54 2.647 6.54s.934.038 2.18.155c1.4.155 3.191.467 4.398 1.012.74.35 1.245.74 1.362 1.284.311 1.48-2.297 4.087-4.009 5.644-.779.7-1.401 1.206-1.401 1.206Z" fill="url(#c)"/><path d="M17.105 8.727s3.036-.078 4.32.039c5.021.428 6.383 1.245 6.773 1.83.389.583-2.842.038-3.075.038-.234 0-.39-.817-3.075-1.167-2.763-.35-4.943-.74-4.943-.74Z" fill="#fff"/><path opacity=".3" d="M23.216 18.068c-.7.195-2.763.039-3.075 0-.31-.039 3.97-3.775 4.788-5.293.856-1.557 3.308-1.363 3.697-1.09.39.272-1.595 2.88-2.88 4.204-1.245 1.284-2.53 2.18-2.53 2.18Z" fill="#B30053"/><path d="M22.477 12.074c-.661.273-1.44.545-2.296.779-2.608.74-5.838 1.207-8.99 1.362-2.18.078-4.321 0-6.15-.272-2.025-.312-3.66-.934-4.516-1.83a3.555 3.555 0 0 1-.506-.856c.078-.39.35-.7.74-.973.078-.039.156-.117.234-.156 0 0 .038 0 .038-.039 2.141-1.167 6.812-1.323 6.812-1.323S10.1.242 12.319.242c.194 0 .389.078.584.195.506.311 1.012.973 1.479 1.79 1.479 2.53 2.646 6.54 2.646 6.54s.934.038 2.18.155c1.401.155 3.192.467 4.398 1.012.273.934-.078 1.673-1.129 2.14Z" fill="#fff"/><path opacity=".2" d="M1.07 12.97c-.856.389 1.363 2.374 3.231 3.503 1.83 1.09 16.27-2.141 17.593-1.869 1.323.273 3.425-2.101 3.075-3.113-.39-1.051-1.012-1.13-1.012-.973 0 .155-.779 1.673-2.53 2.101-1.752.428-15.297 1.44-16.815 1.596-1.634.156-3.386-1.284-3.541-1.245Z" fill="#DA0553"/><path d="M6.205 25.814c-1.323-.312-1.128-3.854-.311-4.827.856-1.012 11.17-.895 13.156-.311 1.985.584 1.128 4.71.428 5.138-.7.428-6.422-3.036-6.89-2.92-.505.117-3.853 3.504-6.383 2.92Z" fill="#fff"/><path d="m17.805 16.589-.817.662.234.934c.506 1.985.778 4.048.74 5.176 0 .117 0 .234-.04.312-.973-.312-2.685-1.246-4.087-2.258l-.74-.545-.427-.311-1.129.817c-1.09.779-2.335 1.518-3.27 1.946-.272.156-.544.234-.778.312-.156-1.051.078-3.309.545-5.488l.234-.934-.818-.662c-1.985-1.596-3.93-3.62-4.359-4.554.778-.428 3.192-.895 5.371-.973l1.401-.039.35-1.245c.623-2.141 1.519-4.399 2.22-5.605.155.233.31.545.466.856.662 1.246 1.363 3.036 1.907 4.749l.39 1.284 1.4.039c2.18.078 4.633.506 5.372.973-.35.895-2.257 2.958-4.165 4.554Z" fill="url(#d)"/><path d="M22.01 12.036c-.351.856-1.986 2.646-3.737 4.164a2.5 2.5 0 0 1-.506.39l-.818.661.234.934c.506 1.985.778 4.048.74 5.177-.974-.428-2.22-1.168-3.31-1.946l-1.167-.817h-.817l-1.129.817c-1.09.778-2.335 1.518-3.27 1.946v-.467c0-.195 0-.428.04-.662.039-.973.233-2.218.467-3.425.039-.195.078-.428.117-.623l.233-.934-.817-.661c-1.985-1.596-3.931-3.62-4.32-4.554.739-.428 3.19-.896 5.37-.973l1.402-.04.35-1.245c.506-1.712 1.207-3.503 1.83-4.748.661 1.245 1.362 3.036 1.907 4.748l.389 1.285 1.401.039c2.18.038 4.632.467 5.41.934Z" fill="url(#e)"/><path d="M12.667 20.56s.779-.04 1.09.194c.311.233 2.335 1.595 2.335 1.829-.039.234-2.14-1.05-3.425-2.024Z" fill="#FFE016"/><path d="M7.49 23.673c-.272-.116.312-1.985.506-2.14.234-.156.156 1.712.234 1.829 0 0-.506.35-.74.311Z" fill="#fff"/><path opacity=".5" d="M8.27 17.251h.856s-.856 2.53-.973 3.192c-.194.661-.584-.74.117-3.192ZM3.558 12.813c-.545-.934 7.279-.622 7.279-.622s1.595-5.177 2.763-5.76c0 0-.973-2.297-1.168-2.297-.194 0-2.607 6.889-2.607 6.889s-3.464-.117-6.773 1.012l.506.778ZM15.197 11.024s5.839 1.012 6.423 1.557l.389-.545s-1.79-.895-6.812-1.012Z" fill="#D42F55"/><path opacity=".3" d="M14.42.865c-1.09 0 .506 1.907 1.284 3.698.779 1.751 4.398 1.751 4.398 1.751s-1.556-4.515-2.53-5.02C16.64.747 14.42.864 14.42.864ZM19.597 26.242c-.234-.156.467-.078.778-1.323.312-1.285 2.997-1.129 3.27-1.012.272.155-.156 1.712-.584 2.024-.428.311-3.464.311-3.464.311Z" fill="#B30053"/><path d="M20.645 23.829c-.311-.117-.272-3.036-.272-3.581 0-.545 2.958-.312 3.113 0 .156.311.273 3.23.117 3.425-.155.195-2.763.233-2.958.156Z" fill="#fff"/><path opacity=".5" d="M10.955 25.892c.662-.117 2.102-.779 2.18-.973.039-.195-1.596-.35-1.985-.428-.39-.04-2.608 1.284-2.764 1.362-.194.155 2.57.039 2.57.039Z" fill="#fff"/><path opacity=".5" d="M12.707 23.362c-.312.117-1.44.817-1.48.973-.038.195 1.713.39 1.947.428.233.039 1.245-.428 1.245-.428s-1.635-1.012-1.712-.973ZM25.356 12.425c-.194.233-1.323 1.557-1.284 1.907 0 .35 3.114-.039 3.308-.311.195-.273 1.596-2.14 1.285-2.336-.312-.233-2.725.078-3.309.74Z" fill="#D42F55"/><path d="M17.105 8.727s6.422.623 7.278 1.907c1.324 1.946-2.841 5.76-2.841 5.76s4.165-3.697 3.58-5.526c-.622-1.869-8.017-2.141-8.017-2.141Z" fill="#FFE016"/><path d="M24.499 10.167c-.506-.233.272.973.155 1.868-.116.857.506-.233.506-.856 0-.584-.661-1.012-.661-1.012ZM13.367.748c-1.284-.467-.506 4.01.818 7.24 1.284 3.074 2.569 1.868 2.841 1.05.273-.817-2.608-7.511-3.659-8.29Z" fill="#fff"/><path d="M14.692 3.628c-.934-.117-.389 2.686.195 3.698.545.973 1.362.35 1.401-.506 0-.896-1.245-3.153-1.596-3.192ZM13.213.32c-.429.117 1.167.428 2.374.545 1.206.156 1.518.156 1.479-.156 0-.311-1.635-1.09-3.853-.389ZM19.594 26.165c-.117-.117 3.075-.506 3.386-.467.312.077-.428.389-.428.389s-2.102.35-2.958.078Z" fill="#fff"/><path opacity=".5" d="M17.222 18.186c.506 1.985.779 4.047.74 5.176-.973-.428-2.219-1.168-3.309-1.946l-1.167-.817h-.818l-1.128.817c-1.09.778-2.336 1.518-3.27 1.946v-.467l.273-.272c-.117-.04-.195-.156-.273-.39-.194-.661-.117-2.063.467-3.425.467-1.05 1.246-2.102 2.413-2.802 3.387-1.907 7.123.155 7.123.155a2.5 2.5 0 0 1-.506.39l-.817.661.272.974Z" fill="#fff"/><path d="M5.429 24.957c-.117-.817.195-1.4.506-1.362.311.039.7 1.907.428 2.14-.311.234-.895-.544-.934-.778Z" fill="#fff"/><path opacity=".8" d="M14.42 24.374c-1.207.7-2.802 1.518-3.97 1.712-.117 0-.233.04-.35.04h-.078c-.895.077-2.92.233-3.853-.04h-.04a1.384 1.384 0 0 1-.35-.155c-1.556-1.09-.233-7.551-.155-7.863-.04.273-.779 5.839-.117 7.162.078.195.233.311.467.428.35.195.817.311 1.323.35.701.078 1.48.078 2.18 0 .467-.038.895-.077 1.245-.155.312-.04.584-.117.74-.156.856-.195 2.686-1.168 2.958-1.323ZM16.793.281s-.078 0-.233-.039h-.078c-.662-.078-2.18-.156-3.503.195a3.825 3.825 0 0 0-.623.194c-.078.04-.156.04-.233.117C8.93 2.811 8.23 9.116 8.23 9.116s-5.721.39-7.161.973C3.209 8.922 7.88 8.766 7.88 8.766S10.137.242 12.356.242c0 0 2.491-.545 4.126 0 .117 0 .194 0 .311.04Z" fill="#D42F55"/><path d="M23.448 14.604c0-.817-1.868.779-2.024 1.09-.116.312-.233.74-.155.856.117.156 1.985-.272 2.18-1.946Z" fill="#DC2C00"/><path opacity=".5" d="M23.293 14.449c-.506-.04-1.13.506-1.207 1.05-.039.545.506.545 1.012 0 .467-.544.311-1.05.195-1.05Z" fill="#D42F55"/><path d="M21.465 15.655s-.039.467.156.584c.272.194.895-.04.895-.04s-.7.507-1.206.546c-.545 0 .155-1.09.155-1.09Z" fill="#FFBA00"/><path d="M21.152 16.667c-.155-.195.818-.234.896-.234.078-.038-.74.429-.895.234Z" fill="#fff"/><path d="M9.631 25.152c-.116-.039.117-.545.429-.662.31-.116.74-.077.7.117 0 .195-.506.623-1.129.545Z" fill="#DC2C00"/><path d="M9.864 24.607c-.233.545.117.468.467.429 0 0-.389.194-.934.233 0-.039.078-.35.467-.662Z" fill="#FFBA00"/><path d="M9.478 25.23c-.04-.039.194-.194.35-.194.156 0 .273.077.273.077 0 .04-.35.156-.623.117Z" fill="#fff"/><path opacity=".5" d="M10.294 24.413c-.467.233-.312.583.039.544.389-.038.506-.428.428-.506-.117-.038-.467-.038-.467-.038Z" fill="#D42F55"/><path d="M6.518 15.071c-1.012-.506.583 1.285 1.05 1.635.467.35.701.545.701.545h.856c-.039 0-2.218-1.985-2.607-2.18Z" fill="#fff"/><path d="M8.27 17.251c-.194-.155-.35-.7-.116-.7.233.039.973.7.973.7h-.856Z" fill="#fff"/><path d="M12.667 20.599s.818 0 1.09.194c.273.195.817.74.817.74s-1.012-.312-1.907-.934Z" fill="#FFE016"/><path opacity=".8" d="M13.952 24.063s3.27 1.517 4.943 1.868c1.635.389 3.775.155 3.775.155s-2.14.39-4.048.04c-1.868-.312-4.67-2.064-4.67-2.064Z" fill="#D42F55"/><path d="M.173 11.257c.195.895 1.402-.311 1.674-.817s-1.635-.467-1.674.817Z" fill="#fff"/><path d="M16.988 17.25s4.048-2.802 5.021-5.215c0 0-1.946 3.153-5.02 5.216Z" fill="#FFE016"/><path opacity=".3" d="M9.398 16.59c-.39.038-2.258-1.519-2.53-2.258-.273-.74 2.257 0 6.188-.195 3.931-.234 8.33-2.024 8.252-1.79-.078.233-2.491 2.997-3.075 3.113-.584.117-1.907-.778-4.67-.7-2.803.078-3.66 1.751-4.165 1.83Z" fill="#B30053"/><defs><linearGradient id="a" x1="16.9" y1="28.224" x2="7.373" y2="2.049" gradientUnits="userSpaceOnUse"><stop stop-color="#FF5900"/><stop offset=".226" stop-color="#FE6800"/><stop offset=".662" stop-color="#FA9300"/><stop offset=".849" stop-color="#F66A00"/><stop offset="1" stop-color="#F63F00"/></linearGradient><linearGradient id="b" x1="21.8" y1="26.44" x2="12.739" y2="1.546" gradientUnits="userSpaceOnUse"><stop stop-color="#FF5900"/><stop offset=".226" stop-color="#FE6800"/><stop offset=".662" stop-color="#FA9300"/><stop offset=".849" stop-color="#F66A00"/><stop offset="1" stop-color="#F63F00"/></linearGradient><linearGradient id="c" x1="18.02" y1="26.569" x2="8.875" y2="1.442" gradientUnits="userSpaceOnUse"><stop stop-color="#FFEA34"/><stop offset=".634" stop-color="#FF8100"/><stop offset=".696" stop-color="#FFA400"/><stop offset="1" stop-color="#FFBA00"/></linearGradient><linearGradient id="d" x1="16.913" y1="24.051" x2="9.992" y2="5.035" gradientUnits="userSpaceOnUse"><stop stop-color="#FFBA00"/><stop offset=".209" stop-color="#FE6800"/><stop offset="1" stop-color="#D41B00"/></linearGradient><linearGradient id="e" x1="17.202" y1="23.634" x2="10.709" y2="5.793" gradientUnits="userSpaceOnUse"><stop offset=".042" stop-color="#FF9000"/><stop offset="1" stop-color="#E13E00"/></linearGradient></defs></svg>