<svg width="169" height="214" viewBox="0 0 169 214" fill="none" xmlns="http://www.w3.org/2000/svg"><path d="M138.242 207.34H29.812c.069-4.926 1.248-9.365 3.052-12.557 1.803-3.052 4.162-4.995 6.868-4.995h5.55l7.353-17.62 1.943-4.579.832-1.873.208-.416 3.191-7.701h50.713l2.983 7.146.346.901.833 1.943 1.873 4.579 7.354 17.69h5.55c2.636 0 5.064 1.873 6.867 4.995 1.665 3.122 2.845 7.561 2.914 12.487Z" fill="#221E1F"/><path opacity=".4" d="m113.546 167.52-.832-1.943-.347-.902-2.983-7.145H58.672l-3.192 7.7-.208.416-.832 1.874-1.943 4.578c10.06 3.053 20.674 4.648 31.565 4.648a106.22 106.22 0 0 0 31.288-4.717l-1.804-4.509Z" fill="#000"/><path d="M143.168 210.67a3.33 3.33 0 0 1-3.33 3.33H28.216a3.331 3.331 0 0 1-3.33-3.33c0-.416.07-.763.208-1.11.139-.486.416-.902.763-1.249a3.305 3.305 0 0 1 2.359-.971h111.622c1.457 0 2.706.902 3.122 2.22.139.347.208.763.208 1.11Z" fill="#221E1F"/><path d="M142.959 209.56H25.024c.139-.486.417-.902.763-1.249a3.305 3.305 0 0 1 2.36-.971h111.621c1.526 0 2.775.902 3.191 2.22ZM135.19 194.783H32.864c1.804-3.121 4.163-4.994 6.868-4.994h88.659c2.637 0 4.995 1.873 6.799 4.994Z" fill="#040404"/><path d="M159.125 49.03C147.192 23.43 123.744 6.712 97.799 2.34h-.07c-.832-.139-1.734-.277-2.567-.416-4.787-.694-9.643-.902-14.568-.694-.763 0-1.596.07-2.359.139h-.07a83.69 83.69 0 0 0-11.723 1.665 79.757 79.757 0 0 0-17.344 5.827c-5.619 2.637-10.822 5.758-15.54 9.435C3.45 41.4-7.718 83.092 8.932 118.89c19.217 41.416 68.61 59.453 110.026 40.167 41.416-19.216 59.454-68.61 40.168-110.026Zm-8.048 47.59c0 .139-.069.277-.069.486 0 .138-.069.346-.069.485a68.97 68.97 0 0 1-7.007 19.147l-.208.416-.208.417c-3.33 5.896-7.562 11.308-12.557 16.094l-.347.347c-.139.07-.208.208-.347.347a68.316 68.316 0 0 1-16.927 11.377l-.416.208-.416.209c-6.383 2.913-12.973 4.786-19.633 5.619-.139 0-.278.069-.486.069-.138 0-.277.07-.485.07a69.173 69.173 0 0 1-20.396-.764c-.139 0-.278-.069-.486-.069-.138 0-.347-.069-.485-.069-6.66-1.388-13.181-3.746-19.147-7.007l-.417-.208-.416-.208c-5.897-3.33-11.308-7.562-16.094-12.557l-.347-.347c-.14-.138-.208-.208-.347-.347a68.311 68.311 0 0 1-11.378-16.927l-.208-.416-.208-.416c-2.913-6.383-4.787-12.973-5.62-19.633 0-.139-.068-.277-.068-.486 0-.138-.07-.346-.07-.485a69.18 69.18 0 0 1 .763-20.396c0-.139.07-.277.07-.486 0-.138.07-.346.07-.485a68.93 68.93 0 0 1 7.006-19.147l.208-.416.208-.417c3.33-5.897 7.562-11.308 12.557-16.094.138-.14.208-.209.346-.347.14-.07.209-.208.347-.347A68.32 68.32 0 0 1 54.718 22.46l.416-.209.416-.208c4.995-2.289 10.129-3.885 15.262-4.925.347-.07.624-.139.971-.208.972-.208 2.012-.347 2.983-.486.14 0 .278 0 .347-.07.14 0 .347-.069.486-.069s.277-.069.486-.069h.277c.347-.07.694-.07 1.11-.139 6.382-.624 12.834-.277 19.008.902.14 0 .278.07.486.07h.07c.138 0 .277.069.416.069l.832.208c.347.07.694.139.971.208.972.208 1.943.486 2.983.763.278.07.625.208.902.278a73.304 73.304 0 0 1 13.459 5.55l.416.208.416.208c5.897 3.33 11.308 7.561 16.095 12.556l.347.347c.069.139.208.208.347.347a68.326 68.326 0 0 1 11.377 16.927l.208.416.208.417c2.914 6.382 4.787 12.973 5.619 19.632 0 .14.07.278.07.486 0 .139.069.278.069.486a67.256 67.256 0 0 1-.694 20.465Z" fill="#FCDC18"/><path d="M162.94 112.992c-7.7 21.09-23.171 37.947-43.497 47.382-12.21 5.689-25.737 8.325-39.057 7.77-31.496-1.457-59.315-19.979-72.565-48.561-8.117-17.413-9.99-37.254-5.272-55.915 4.648-18.384 15.4-34.757 30.316-46.203 4.856-3.746 10.198-6.938 15.748-9.574 5.688-2.636 11.585-4.648 17.62-5.966C70.189 1.093 74.212.468 78.306.191h.069c.763-.07 1.596-.07 2.359-.139 2.289-.07 4.648-.07 6.937 0 2.567.139 5.064.347 7.631.694.832.139 1.734.208 2.567.416h.07c27.194 4.51 50.573 22.06 62.366 47.451 9.365 20.466 10.337 43.29 2.636 64.379Z" fill="#2D2226"/><path d="M157.945 49.793c-12.834-27.68-39.889-45.718-70.414-47.105-7.007-.347-14.013.277-20.812 1.734a79.073 79.073 0 0 0-17.135 5.758c-5.411 2.498-10.614 5.62-15.332 9.296C4.214 42.578-5.984 84.202 9.972 118.611c12.834 27.68 39.89 45.717 70.414 47.105 12.973.624 26.084-2.012 37.947-7.493 19.702-9.157 34.687-25.529 42.179-45.994 7.562-20.535 6.591-42.734-2.567-62.436Zm-10.198 38.432c-.208 2.637-.485 5.204-.971 7.84 0 .139-.069.277-.069.347l-.07.485c-.346 1.873-.832 3.677-1.387 5.481-.208.763-.486 1.526-.694 2.22-1.179 3.538-2.705 6.937-4.509 10.267-.069.139-.139.208-.208.347l-.07.069c-.069.139-.138.208-.208.347-.347.694-.763 1.318-1.179 2.012-.416.694-.833 1.318-1.249 1.942a60.84 60.84 0 0 1-9.226 10.961l-.139.139-.625.555c-.346.278-.624.555-.971.833-3.607 3.191-7.561 5.896-11.793 8.186-.694.347-1.388.763-2.081 1.04-.347.208-.694.347-1.11.555-.139.07-.209.139-.347.139-.139.069-.208.139-.417.208-3.746 1.734-7.631 3.053-11.654 4.024-.763.208-1.527.347-2.29.485a99.479 99.479 0 0 1-4.44.764l-.416.069c-.139 0-.277 0-.416.069-2.983.347-5.966.486-9.019.347-.763 0-1.526-.069-2.358-.069-2.636-.139-5.203-.486-7.77-.971h-.07c-.138 0-.208 0-.346-.07-.14 0-.278-.069-.417-.069-1.873-.347-3.676-.833-5.48-1.388a27.371 27.371 0 0 1-2.22-.693c-3.538-1.18-6.938-2.706-10.267-4.51-.14-.069-.209-.138-.347-.208-.139-.069-.208-.139-.347-.208-.694-.416-1.318-.763-2.012-1.179a48.368 48.368 0 0 1-1.942-1.249c-4.024-2.636-7.7-5.758-11.03-9.227l-.14-.138-.277-.278-.277-.347c-.278-.347-.556-.624-.833-.971-3.191-3.607-5.897-7.562-8.186-11.794-.347-.693-.694-1.387-1.11-2.081a5.36 5.36 0 0 1-.486-1.11c-.069-.138-.138-.277-.208-.347l-.208-.416c-1.734-3.746-3.052-7.631-4.024-11.655-.208-.763-.346-1.526-.485-2.289a98.945 98.945 0 0 1-.763-4.44l-.14-.832c-.346-2.983-.485-5.966-.346-9.019 0-.763.07-1.526.07-2.359.208-2.566.485-5.203.97-7.77l.14-.485c0-.139.069-.208.069-.416.347-1.873.832-3.677 1.387-5.48.208-.764.486-1.527.694-2.22A61.475 61.475 0 0 1 27.94 53.4c.069-.07.069-.208.138-.277l.07-.07c.069-.139.138-.208.207-.347.347-.694.764-1.318 1.18-2.012.416-.693.832-1.318 1.249-1.942a60.855 60.855 0 0 1 9.226-10.961c0-.07.07-.07.07-.07l.346-.346c.14-.139.278-.208.347-.347.347-.278.625-.555.972-.833 3.607-3.19 7.561-5.896 11.793-8.186.694-.347 1.388-.763 2.081-1.04.347-.208.694-.347 1.11-.555.139-.07.208-.139.347-.139.139-.07.208-.139.416-.208 3.747-1.735 7.632-3.053 11.655-4.024.763-.208 1.526-.347 2.29-.485a99.064 99.064 0 0 1 4.44-.764l.832-.138a64.91 64.91 0 0 1 9.018-.416c.763 0 1.527.069 2.36.069 2.635.139 5.202.485 7.769.971l.555.139c.07 0 .139 0 .278.07h.138c1.873.415 3.677.832 5.481 1.387.763.208 1.457.416 2.22.693a61.482 61.482 0 0 1 10.267 4.51l.347.208c.069.07.208.139.277.139l.07.069c.693.416 1.318.763 2.012 1.18.693.415 1.318.832 1.942 1.248 3.954 2.636 7.631 5.758 10.961 9.227l.139.138.555.625c.277.347.555.624.902.971 3.191 3.607 5.896 7.562 8.186 11.794.347.693.693 1.387 1.11 2.08.208.348.347.694.555 1.11l.208.417c.069.07.069.208.138.347 1.735 3.746 3.053 7.63 4.024 11.655.208.763.347 1.526.486 2.289.277 1.457.555 2.983.763 4.44l.139.832c.346 2.983.485 5.966.416 9.019-.208.832-.208 1.595-.278 2.358Z" fill="#221E1F"/><path d="M87.047 17.257c-3.538-.139-7.076-.07-10.614.347l-.902.139c-6.66.832-13.112 2.705-19.286 5.55-.139.069-.208.138-.347.138l-.486.208c-6.104 2.914-11.724 6.66-16.65 11.17l-.346.346-.347.347c-4.856 4.579-9.019 9.92-12.349 15.748l-.208.416-.208.416c-3.26 5.897-5.55 12.28-6.868 18.87-.07.139-.07.277-.07.416l-.068.486c-1.25 6.59-1.527 13.32-.763 19.98l.069.485c0 .139.07.278.07.416.832 6.66 2.705 13.112 5.55 19.286l.346.833c2.914 6.104 6.66 11.724 11.17 16.649l.623.694c4.648 4.925 9.92 9.019 15.818 12.348l.416.209.416.208a65.145 65.145 0 0 0 18.8 6.868h.07c.139 0 .208.069.347.069.208 0 .277.069.416.069 6.66 1.249 13.458 1.527 20.049.764.139 0 .277-.07.416-.07l.486-.069c6.66-.833 13.111-2.706 19.285-5.55l.417-.208.416-.208c6.105-2.914 11.724-6.66 16.65-11.169l.693-.625c4.856-4.579 9.019-9.92 12.349-15.817l.208-.416c.069-.139.139-.208.208-.347l.069-.07c3.192-5.896 5.55-12.209 6.868-18.8l.07-.485c0-.14.069-.278.069-.417 1.249-6.66 1.526-13.389.763-20.048l-.138-.902c-.833-6.66-2.706-13.112-5.55-19.286l-.278-.555c-.069-.07-.069-.139-.139-.208a66.645 66.645 0 0 0-11.169-16.65l-.624-.624c-4.648-4.926-9.921-9.088-15.817-12.349l-.416-.208-.07-.07a.525.525 0 0 0-.277-.138 66.3 66.3 0 0 0-18.87-6.868.626.626 0 0 0-.347-.07l-.555-.138c-3.052-.555-6.244-.902-9.365-1.11Z" fill="#FF9100"/><path d="M86.075 21.489 83.37 81.844 60.338 25.998c2.844-1.11 5.827-2.081 8.74-2.775.764-.208 1.527-.347 2.29-.486a98.896 98.896 0 0 1 4.44-.763l.832-.139a64.928 64.928 0 0 1 9.02-.416c.207.07.277.07.415.07ZM137.481 50.487 86.075 83.162l29.206-53.418.07.07c.693.416 1.318.763 2.012 1.179.693.416 1.318.832 1.942 1.249 3.954 2.636 7.631 5.758 10.961 9.226l.139.139.555.624c.277.347.555.625.902.972a48.452 48.452 0 0 1 5.619 7.284ZM147.887 87.046c0 .763-.07 1.527-.139 2.36-.139 2.635-.486 5.202-.971 7.838 0 .14-.07.278-.07.347l-.069.486c-.347 1.873-.833 3.677-1.388 5.48-.069.139-.069.278-.138.347l-57.58-18.245 59.938-7.77v.208c.347 2.983.486 5.966.417 8.95ZM130.544 129.156a44.714 44.714 0 0 1-2.567 2.567l-.139.139-.624.555c-.347.278-.624.555-.971.833-3.608 3.191-7.562 5.896-11.794 8.186-.694.346-1.387.763-2.081 1.04-.347.208-.694.347-1.11.555-.139.07-.208.139-.347.139l-.416.208-1.457.624-23.032-55.845 44.538 40.999ZM83.092 88.642l-2.705 60.494h-.417c-2.636-.139-5.203-.486-7.77-.971h-.069c-.138 0-.208 0-.347-.07-.138 0-.277-.069-.416-.069-1.873-.347-3.677-.833-5.48-1.388a27.381 27.381 0 0 1-2.22-.693c-3.26-1.11-6.452-2.498-9.574-4.093l28.998-53.21ZM80.665 86.561l-50.99 32.397c-.624-1.04-1.249-2.081-1.804-3.121-.347-.694-.694-1.388-1.11-2.082-.208-.346-.347-.693-.485-1.11-.07-.138-.14-.277-.209-.346l-.208-.417c-1.734-3.746-3.052-7.631-4.023-11.654-.208-.763-.347-1.527-.486-2.29a30.092 30.092 0 0 1-.624-3.607l59.939-7.77ZM80.872 83.578l-57.58-18.245c.07-.139.07-.278.139-.347A61.48 61.48 0 0 1 27.94 54.72c.07-.07.07-.208.139-.278l.07-.069c.069-.139.138-.208.207-.347.347-.694.763-1.318 1.18-2.012.416-.693.832-1.318 1.248-1.942a72.555 72.555 0 0 1 5.62-7.284l44.468 40.791Z" fill="#FF2E29"/><path d="M81.982 82.468 37.514 41.607a44.802 44.802 0 0 1 2.566-2.567c0-.07.07-.07.07-.07l.347-.346c.139-.14.277-.208.347-.347.346-.278.624-.555.97-.902 3.608-3.191 7.563-5.897 11.794-8.186.694-.347 1.388-.763 2.082-1.04.346-.209.693-.348 1.11-.556.138-.07.208-.138.346-.138.14-.07.209-.14.417-.209l1.456-.624 22.963 55.846ZM113.964 28.912l-29.068 53.14 2.706-60.494h.416c2.636.139 5.203.486 7.77.971l.486.14c.069 0 .138 0 .277.069h.139c1.873.416 3.677.832 5.48 1.387.763.208 1.457.416 2.22.694 3.261 1.11 6.452 2.497 9.574 4.093ZM147.263 76.363l-59.939 7.77 50.99-32.398c.624 1.041 1.249 2.081 1.804 3.191l1.04 2.082c.208.347.347.694.555 1.11.07.139.139.208.208.416.07.07.07.208.139.347 1.734 3.746 3.052 7.63 4.024 11.655.138.763.347 1.526.485 2.289.278 1.11.486 2.359.694 3.538ZM144.627 105.361c-.07.139-.07.278-.139.417-1.18 3.538-2.706 6.937-4.509 10.267-.07.139-.139.208-.139.347l-.07.069c-.069.139-.138.208-.208.347-.347.694-.763 1.318-1.179 2.012a45.904 45.904 0 0 1-1.249 1.942c-1.665 2.567-3.607 4.995-5.619 7.285l-44.468-40.93 57.58 18.244ZM107.65 144.696c-2.844 1.18-5.827 2.081-8.74 2.775-.764.208-1.527.347-2.29.486a99.517 99.517 0 0 1-4.44.763l-.416.069c-.139 0-.278 0-.416.07-2.984.347-5.967.485-9.02.347h-.415l2.705-60.355 23.032 55.845ZM81.913 87.602l-29.207 53.417s-.069 0-.069-.069c-.694-.347-1.318-.763-2.012-1.18a47.354 47.354 0 0 1-1.942-1.248c-4.024-2.636-7.7-5.758-11.03-9.227l-.14-.139-.554-.624c-.278-.347-.555-.624-.833-.971a63.855 63.855 0 0 1-5.55-7.354l51.337-32.605ZM80.456 85.035l-59.939 7.77v-.208a64.928 64.928 0 0 1-.416-9.019c0-.763.07-1.526.07-2.359.207-2.566.485-5.203.97-7.77l.14-.485c0-.139.069-.208.069-.416.346-1.874.832-3.677 1.387-5.48.07-.14.07-.278.139-.417l57.58 18.384Z" fill="#fff"/><path d="m87.532 85.66 57.58 18.245c-.069.277-.139.485-.208.763-.069.277-.139.485-.208.693l-57.58-18.245 44.468 40.861-1.04 1.11-44.469-40.86 23.032 55.845-.139.069-1.248.555L84.688 88.85l-2.706 60.355c-.347 0-.624 0-.971-.069h-.555l2.705-60.494-29.136 53.14c-.14-.069-.209-.138-.347-.208l-.347-.208-.347-.208-.139-.069-.139-.07 29.207-53.417-51.475 32.675-.833-1.318 50.99-32.398-59.87 7.77v-.208l-.07-.278c0-.138 0-.277-.069-.346l-.069-.694 59.939-7.77-57.58-18.245c.07-.278.139-.486.208-.764l.139-.346c.069-.14.07-.278.138-.347l57.58 18.245-44.537-40.861.624-.694.416-.416 44.469 40.861L58.95 26.622c.139-.069.208-.069.347-.138l.347-.14.694-.277L83.37 81.913l2.705-60.355h.902c.208 0 .416 0 .624.07L84.896 82.12l29.067-53.14c.07 0 .07.07.139.07l.139.069.208.139.277.138.486.278.139.07-29.207 53.417 51.406-32.675.833 1.318-50.99 32.397 59.939-7.77c.069.209.069.486.069.694l.07.833-59.939 7.7Z" fill="#339E98"/><path d="m145.112 103.905-.208.763-.278.693-57.58-18.245 44.469 40.931h.069l-1.04 1.11-44.538-40.862 23.032 55.846-.139.07-1.249.485L84.618 88.85l-2.775 60.355-1.526-.069 2.775-60.494-29.067 53.141-.347-.209-.347-.208-.417-.208-.138-.069-.139-.07 29.276-53.417-51.475 32.675-.764-1.318 50.99-32.398-59.939 7.84v-.278l-.07-.278-.138-.97 59.939-7.84-57.58-18.245.208-.763.139-.347.069-.347 57.58 18.245-44.468-40.86.624-.695.416-.485 44.538 40.93L58.95 26.622l.347-.138.347-.14.694-.346L83.37 81.844l2.705-60.355 1.526.07-2.705 60.493 29.067-53.14.139.07.069.069.278.138.208.139.486.277.138.07-29.206 53.418 51.406-32.606.832 1.249-50.99 32.397 59.94-7.77.069.694.139.832-59.939 7.77 57.58 18.246Z" fill="#221E1F"/><path opacity=".7" d="M145.668 65.402a72.296 72.296 0 0 1 1.665 7.7c0 .14.07.278.07.347l.069.486c.278 1.873.486 3.746.555 5.62.069.762.069 1.526.069 2.358.07 3.746-.208 7.492-.763 11.17 0 .138-.069.277-.069.346v.07c0 .138-.069.277-.069.416 0 .138-.07.277-.07.485v-1.318c0-.763-.069-1.526-.069-2.358-.07-1.874-.278-3.747-.555-5.62l-.07-.485c0-.14-.069-.209-.069-.347a68.78 68.78 0 0 0-1.665-7.7 27.003 27.003 0 0 0-.694-2.22c-.901-2.845-2.081-5.62-3.399-8.326l-.416-.763a53.52 53.52 0 0 0-2.22-3.954c-.416-.694-.833-1.318-1.249-2.012-2.22-3.468-4.856-6.66-7.77-9.643l-.277-.277-.347-.347-.833-.833c-.555-.555-1.11-1.04-1.734-1.595a62.117 62.117 0 0 0-11.724-8.325c-.347-.208-.763-.416-1.11-.624l-.763-.347c-.069 0-.139-.07-.139-.07-4.301-2.15-8.81-3.884-13.528-4.994-.763-.209-1.526-.347-2.289-.486l-2.29-.416h-.069c-.138 0-.208-.07-.347-.07l-.416-.069c-5.758-.902-7.076-.832-11.238-.763-.763 0-1.526.07-2.359.07-1.873.069-3.746.277-5.62.554h-.138c-.07 0-.139 0-.277.07l-.555.069c-2.567.416-5.134.971-7.632 1.734-.763.209-1.526.417-2.22.694-2.844.971-5.688 2.081-8.324 3.4l-.764.416c-1.387.693-2.705 1.387-3.954 2.22-.694.416-1.318.832-1.942 1.248-3.469 2.22-6.66 4.856-9.643 7.77l-.347.347-.278.277-.832.833c-.555.555-1.11 1.11-1.596 1.734a63.405 63.405 0 0 0-8.394 11.724c-.208.417-.416.764-.624 1.11-.07.07-.139.278-.208.417l-.208.416c0 .07-.07.07-.07.139-2.15 4.3-3.885 8.81-4.995 13.527-.208.764-.346 1.527-.485 2.29-.139.624-.278 1.249-.347 1.873v-2.22c0-.555.07-1.04.07-1.596 0-.416.069-.763.069-1.179.069-.832.138-1.596.208-2.428.139-.833.208-1.734.347-2.567 0-.139 0-.208.069-.347v-.07c0-.138.07-.207.07-.415l.416-2.29c.138-.763.346-1.526.485-2.289a65.886 65.886 0 0 1 4.995-13.528c0-.07 0-.07.07-.139l.208-.416.208-.416c.208-.347.416-.763.624-1.11 2.29-4.232 5.134-8.117 8.394-11.724.486-.555 1.04-1.18 1.596-1.735l.832-.832c.07-.07.14-.208.278-.278.07-.069.208-.208.347-.277a64.788 64.788 0 0 1 9.643-7.77c.624-.416 1.318-.832 1.942-1.248 1.318-.764 2.636-1.527 3.954-2.22l.764-.417c2.705-1.318 5.48-2.497 8.324-3.4a27.233 27.233 0 0 1 2.22-.693c2.498-.763 5.065-1.318 7.631-1.734l.555-.07c.07 0 .14 0 .278-.069h.139c1.873-.277 3.746-.486 5.619-.555.763-.07 1.526-.07 2.358-.07 3.747-.069 7.493.209 11.24.764l.415.07c.139 0 .208.069.347.069h.07l2.289.416c.763.139 1.526.347 2.29.486 4.647 1.11 9.157 2.844 13.527 4.994.069 0 .139.07.208.07l.763.347c.417.208.763.416 1.18.624 4.231 2.29 8.116 5.134 11.724 8.325.555.485 1.179 1.04 1.734 1.595l.833.833.346.347.278.277a64.81 64.81 0 0 1 7.77 9.643c.416.624.832 1.318 1.249 2.012.763 1.318 1.526 2.636 2.219 3.954l.417.763c1.318 2.706 2.497 5.48 3.399 8.325.208.694.416 1.457.624 2.22Z" fill="#545454"/><path d="M70.743 136.025c-.208-.07-.416 0-.624.069a2.647 2.647 0 0 0-.624.625c-.278.485-.556.763-.902.971-.347.208-.694.208-1.11.139-.417-.139-.694-.278-.902-.625-.208-.277-.278-.624-.208-1.04l-.833-.209.139-.555.832.209c.14-.417.417-.694.764-.833.346-.139.763-.139 1.179-.069l-.208.693a1.7 1.7 0 0 0-.833 0 .795.795 0 0 0-.485.555c-.07.278-.07.555.069.694.139.208.278.278.555.347.208.069.416.069.624-.069.209-.139.417-.347.625-.694.277-.486.555-.763.902-.971.277-.208.624-.208 1.04-.07.416.139.694.347.902.625.208.347.208.693.139 1.179l.694.208-.14.555-.693-.208c-.139.416-.416.694-.763.902-.347.208-.763.208-1.249.069l.208-.693c.347.069.694.069.902-.07.208-.139.347-.347.416-.624.07-.347.07-.555 0-.763 0-.139-.208-.278-.416-.347ZM73.101 132.625l-.208.694-4.648-1.249-.277 1.18-.555-.139.277-1.943 5.411 1.457ZM71.298 129.711l-2.845-1.109.694-2.637.624.139-.555 2.081 1.457.555c-.069-.138-.07-.277-.138-.416 0-.139 0-.347.069-.486.139-.485.347-.832.763-1.04.416-.208.832-.208 1.387-.07.555.139.902.417 1.18.764.277.346.277.832.139 1.387-.14.416-.347.763-.694 1.041-.347.208-.694.277-1.18.138l.14-.624c.277.069.554.069.762-.069a1.08 1.08 0 0 0 .417-.555c.069-.278.069-.555-.14-.763-.138-.209-.415-.417-.832-.486-.347-.069-.624-.069-.902.069-.277.139-.416.347-.485.625-.07.277-.07.485 0 .624a.92.92 0 0 0 .347.416l-.208.416ZM73.726 122.497c.624.139 1.04.416 1.318.832.278.417.347.833.208 1.388-.138.485-.416.902-.832 1.11-.416.208-.972.208-1.526.069l-1.527-.416c-.624-.139-1.04-.416-1.318-.833-.277-.416-.347-.832-.208-1.387.139-.486.416-.902.833-1.11.416-.208.97-.208 1.526-.069l1.526.416Zm-1.873.277a2.298 2.298 0 0 0-.971 0c-.278.139-.416.347-.555.625-.07.277 0 .555.138.832.209.208.486.416.833.486l1.873.485c.347.07.694.07.971 0 .278-.138.416-.346.555-.624.07-.277 0-.555-.139-.832-.208-.209-.485-.417-.832-.486l-1.873-.486Z" fill="#fff"/><path d="M47.502 125.203c-.208-.139-.347-.208-.624-.208-.208 0-.486.138-.833.346-.416.278-.832.486-1.179.486-.347.069-.694-.069-1.04-.347a1.416 1.416 0 0 1-.556-.902c-.069-.347 0-.693.278-1.04l-.625-.555.347-.486.625.555a1.414 1.414 0 0 1 1.04-.416c.347 0 .764.139 1.11.485l-.485.555c-.278-.208-.486-.277-.763-.277a.73.73 0 0 0-.625.347c-.208.208-.277.485-.208.694 0 .208.139.416.347.555.208.138.416.208.624.208.209 0 .486-.139.833-.347.416-.278.832-.486 1.18-.486.346-.069.693.07 1.04.347.347.278.555.555.555.971.07.347-.07.763-.347 1.11l.555.486-.347.485-.555-.485a1.916 1.916 0 0 1-1.04.555c-.417.069-.764-.07-1.18-.416l.416-.555c.278.277.555.346.833.277a1.01 1.01 0 0 0 .624-.416c.208-.278.278-.486.278-.763.069-.416-.07-.625-.278-.763ZM51.872 122.011l-2.15 2.637-.417-.347-.485-2.637c-.07-.485-.208-.832-.278-1.04a1.08 1.08 0 0 0-.416-.555 1.117 1.117 0 0 0-.624-.208c-.209 0-.417.139-.555.347-.209.277-.278.485-.209.763.07.277.209.485.417.693l-.416.555a1.643 1.643 0 0 1-.625-1.04c-.07-.416.07-.833.416-1.249.278-.347.625-.624 1.041-.624.416-.07.763.069 1.11.347.208.208.416.416.486.693.138.278.208.694.346 1.249l.417 2.081 1.595-1.942.347.277ZM53.052 117.502c.486.417.764.833.833 1.318.07.486-.07.902-.347 1.319-.347.416-.763.624-1.249.624-.485 0-.97-.139-1.456-.555l-1.25-1.041c-.485-.416-.762-.832-.832-1.318-.07-.485.07-.902.347-1.318.347-.416.763-.624 1.249-.624.486 0 .971.138 1.457.555l1.248 1.04Zm-1.803-.555c-.278-.277-.625-.347-.902-.416-.278 0-.555.139-.763.347-.208.277-.278.486-.208.763.069.278.277.555.555.763l1.456 1.18c.278.277.625.346.902.416.278 0 .555-.139.763-.347.209-.278.278-.486.209-.763-.07-.278-.278-.555-.555-.763l-1.457-1.18ZM55.827 114.103c.486.416.763.832.833 1.318.07.486-.07.902-.347 1.318-.347.416-.763.624-1.249.624-.485 0-.971-.138-1.457-.555l-1.248-1.04c-.486-.416-.764-.833-.833-1.318-.07-.486.07-.902.347-1.318.347-.417.763-.625 1.249-.625.485 0 .971.139 1.457.555l1.248 1.041Zm-1.873-.555c-.277-.278-.624-.347-.902-.416-.277 0-.555.138-.763.347-.208.277-.277.485-.208.763.07.277.278.555.555.763l1.457 1.179c.277.278.624.347.902.416.277 0 .555-.138.763-.346.208-.278.277-.486.208-.764-.07-.277-.277-.555-.555-.763l-1.457-1.179Z" fill="#221E1F"/><path d="M33.074 103.696c-.07-.208-.209-.347-.417-.485a2.7 2.7 0 0 0-.902-.139c-.555 0-.97-.069-1.248-.208-.347-.139-.555-.416-.694-.833-.139-.416-.139-.763 0-1.04.139-.347.416-.555.763-.763l-.277-.763.555-.209.277.763c.416-.069.763 0 1.11.209.347.208.555.555.694.971l-.694.208c-.07-.278-.277-.555-.486-.624-.208-.139-.485-.139-.693-.07-.278.07-.486.208-.555.416-.07.209-.07.417 0 .694.069.208.208.416.416.486.208.069.486.139.902.139.555 0 .971.069 1.249.208.346.138.555.416.693.832.139.416.139.763-.07 1.11-.138.347-.415.555-.832.763l.209.694-.555.208-.209-.694c-.416.07-.832.07-1.179-.138-.347-.139-.624-.486-.763-.972l.694-.208c.138.347.277.625.555.694.208.069.485.069.763 0 .277-.069.555-.278.624-.486.139-.277.139-.485.07-.763ZM38.415 103.35l-3.191 1.11-.139-.486.971-2.497c.14-.416.278-.763.278-1.041 0-.208 0-.486-.07-.694-.069-.208-.208-.416-.416-.485-.208-.139-.416-.139-.693-.07-.278.07-.486.278-.625.486-.07.208-.07.486 0 .763l-.693.208c-.14-.416-.14-.832.069-1.249.208-.416.555-.693 1.04-.832.486-.139.902-.139 1.25 0 .346.139.624.486.762.832.07.278.14.556.07.902-.07.347-.208.694-.347 1.249l-.763 1.943 2.358-.833.14.694ZM38.623 100.714l-.694-2.983 2.567-.902.208.624-2.011.694.346 1.526c.07-.139.209-.208.278-.347.139-.07.277-.208.416-.208.486-.139.902-.139 1.249.07.347.207.624.554.832 1.109.208.486.208.972 0 1.388-.208.416-.555.693-1.04.902a1.935 1.935 0 0 1-1.249 0c-.347-.139-.624-.417-.763-.902l.624-.208c.07.277.278.485.486.555.208.069.485.138.694 0a.754.754 0 0 0 .554-.555c.07-.278.07-.555-.069-.972-.139-.346-.277-.555-.485-.693-.209-.14-.486-.14-.764-.07-.277.07-.485.208-.554.347-.07.139-.14.278-.14.486l-.485.139ZM45.977 98.77c.208.556.208 1.11 0 1.527-.208.416-.555.763-1.04.902-.486.139-.972.139-1.388-.139-.417-.208-.694-.624-.902-1.249l-.486-1.526c-.208-.555-.208-1.11 0-1.526.208-.416.555-.763 1.04-.902.486-.138.972-.138 1.388.139.416.208.694.624.902 1.249l.486 1.526Zm-1.249-1.456c-.139-.347-.278-.624-.555-.832-.208-.14-.486-.209-.833-.07-.277.07-.485.278-.624.555-.07.278-.07.625.07.972l.624 1.803c.139.347.277.625.555.833.277.138.485.208.832.069.278-.069.486-.277.625-.555.07-.277.07-.624-.07-.971l-.624-1.804Z" fill="#fff"/><path d="M30.02 80.526c0-.208-.069-.416-.207-.624-.14-.208-.417-.347-.764-.486-.485-.208-.832-.416-1.11-.763-.208-.277-.346-.624-.277-1.04.07-.417.208-.764.486-.972a1.704 1.704 0 0 1 1.04-.347l.07-.832.624.07-.07.832c.417.07.694.277.902.624.209.278.278.694.209 1.18l-.763-.07c0-.347 0-.555-.14-.763a.729.729 0 0 0-.624-.347c-.277 0-.555 0-.693.139a.879.879 0 0 0-.278.624c0 .208 0 .416.139.625.139.138.416.346.763.485.486.208.832.486 1.04.763.209.278.278.625.278 1.04-.07.417-.208.764-.485.972-.278.208-.625.347-1.11.347l-.07.694-.555-.07.07-.693a1.908 1.908 0 0 1-1.041-.555c-.278-.278-.347-.694-.277-1.25l.693.07c-.07.416 0 .694.208.833.208.208.416.277.694.347.347.069.555 0 .763-.14.347-.207.486-.415.486-.693ZM33.628 79.208c.346.07.555 0 .693-.139a.925.925 0 0 0 .278-.694c0-.277 0-.485-.139-.693-.139-.208-.347-.278-.624-.347-.278 0-.555 0-.763.208a.728.728 0 0 0-.347.624l-.694-.069c0-.416.208-.763.555-.971.347-.278.763-.347 1.249-.278.485.07.902.208 1.18.486.276.277.346.694.277 1.18 0 .277-.14.485-.278.693-.139.208-.347.347-.624.416.277.139.485.347.555.555.138.208.138.486.138.833-.069.485-.277.901-.624 1.11-.347.277-.763.347-1.249.277-.485-.07-.832-.208-1.179-.555-.347-.347-.486-.694-.416-1.11l.694.07c0 .277.069.485.208.693.138.208.416.347.693.347.278 0 .555-.07.763-.208.209-.139.278-.416.347-.694.07-.347 0-.624-.138-.763-.14-.208-.347-.277-.694-.347l-.624-.07.069-.554h.694ZM39.525 81.012c-.07.624-.278 1.11-.624 1.388-.347.346-.764.485-1.319.416-.554-.07-.901-.278-1.179-.694-.277-.416-.416-.902-.347-1.526L36.264 79c.07-.624.278-1.11.625-1.387.347-.347.763-.486 1.318-.416.555.069.902.277 1.18.693.277.416.415.902.346 1.526l-.208 1.596Zm-.555-1.804c.07-.416 0-.693-.139-.97a.763.763 0 0 0-.694-.417c-.346 0-.554.07-.763.277-.208.209-.346.486-.346.902l-.209 1.873c-.069.417 0 .694.14.971a.763.763 0 0 0 .693.417c.347 0 .555-.07.763-.278.208-.208.347-.485.347-.902l.208-1.873ZM43.825 81.497c-.069.625-.277 1.11-.624 1.388-.347.347-.763.486-1.318.416s-.902-.277-1.18-.694c-.277-.416-.416-.901-.346-1.526l.208-1.595c.07-.625.278-1.11.624-1.388.347-.347.763-.486 1.318-.416s.902.277 1.18.694c.277.416.347.901.347 1.526l-.209 1.595Zm-.555-1.873c.07-.416 0-.693-.138-.97a.763.763 0 0 0-.694-.417c-.347 0-.555.07-.763.277-.208.209-.347.486-.347.902l-.208 1.873c-.07.417 0 .694.139.972a.763.763 0 0 0 .693.416c.347 0 .555-.07.764-.278.208-.208.346-.485.346-.902l.209-1.873Z" fill="#221E1F"/><path d="M36.126 58.674c.139-.209.139-.417.07-.625a1.96 1.96 0 0 0-.486-.763c-.347-.347-.624-.763-.694-1.11-.07-.347-.07-.694.139-1.11.208-.347.486-.624.832-.694.347-.138.694-.069 1.11.07l.417-.694.555.278-.417.763c.347.277.555.555.625.901.07.347 0 .764-.278 1.18l-.624-.347c.139-.278.208-.555.139-.763-.07-.278-.209-.416-.417-.555-.277-.139-.485-.208-.693-.139-.209.07-.347.208-.486.416-.139.209-.139.417-.07.625.07.208.209.485.486.763.347.416.625.763.694 1.11.07.347.07.694-.139 1.04-.208.347-.485.625-.832.694a1.8 1.8 0 0 1-1.18-.139l-.346.625-.486-.278.347-.624c-.347-.278-.555-.555-.694-.902-.139-.347-.07-.763.208-1.249l.625.347c-.209.347-.209.625-.14.833.07.208.278.416.486.555.278.139.555.208.764.139.138 0 .346-.14.485-.347ZM39.941 58.813c.278.138.555.208.763.138.209-.07.347-.277.486-.485.139-.209.208-.486.139-.694a.927.927 0 0 0-.486-.555c-.277-.139-.486-.208-.763-.139-.277.07-.416.208-.555.416l-.624-.346c.208-.347.485-.625.902-.694.416-.07.832 0 1.318.208.416.277.763.555.832.902.139.347.07.763-.139 1.18-.138.207-.277.415-.485.485-.208.138-.486.138-.763.138.208.209.277.486.277.764 0 .277-.07.554-.208.832-.277.416-.555.694-.971.832-.416.07-.833 0-1.318-.208-.416-.208-.694-.555-.902-.97-.208-.417-.139-.833.07-1.18l.624.347c-.14.208-.14.485-.07.693.07.278.278.486.486.625.277.139.485.208.763.07.208-.07.416-.278.555-.486.139-.278.208-.556.139-.764-.07-.208-.208-.416-.555-.555l-.555-.277.277-.486.763.209ZM42.023 60.755l1.734-2.498 2.429 1.318-.347.555-1.873-1.04-.902 1.318h.416c.139 0 .278.07.486.139.416.208.693.555.832.97.07.417 0 .903-.277 1.388a2.321 2.321 0 0 1-1.04.972c-.417.138-.903.069-1.388-.209a1.737 1.737 0 0 1-.833-.901c-.139-.347-.07-.764.139-1.18l.555.347c-.139.278-.208.486-.139.763.07.208.208.416.486.555.277.139.555.139.832.07.278-.14.486-.347.694-.694.139-.278.208-.624.208-.902-.07-.277-.208-.486-.486-.624-.277-.14-.485-.208-.624-.208s-.277.069-.416.208l-.486-.347ZM48.475 64.917c-.278.555-.694.902-1.11 1.04a1.662 1.662 0 0 1-1.388-.138c-.485-.278-.763-.624-.832-1.11-.07-.486 0-.971.277-1.526l.764-1.388c.277-.555.693-.901 1.11-1.04.485-.139.901-.139 1.387.139.486.277.763.624.833 1.11.069.485 0 .97-.278 1.526l-.763 1.387Zm.208-1.942c.208-.347.278-.625.208-.972-.07-.277-.208-.485-.485-.693-.278-.14-.555-.139-.833-.07-.277.14-.486.347-.694.694l-.901 1.665c-.209.347-.278.694-.209.971.07.278.209.486.486.694.277.139.555.208.832.07.278-.14.486-.347.694-.694l.902-1.665Z" fill="#fff"/><path d="M51.249 40.15c.208-.139.277-.277.347-.555.07-.208 0-.486-.07-.902-.138-.485-.208-.902-.138-1.318.069-.347.277-.624.624-.902.347-.208.694-.347 1.04-.277.347.07.694.208.972.555l.694-.486.346.486-.693.485c.208.347.208.764.138 1.11-.138.347-.346.694-.763.972l-.416-.625c.278-.208.416-.416.486-.624.069-.208.07-.486-.14-.694-.138-.277-.346-.416-.554-.416-.208 0-.416 0-.624.208-.209.139-.347.277-.347.555-.07.208 0 .486.138.902.14.485.209.971.14 1.318-.07.347-.278.624-.625.902-.347.277-.694.347-1.04.277-.348-.069-.695-.277-.972-.624l-.624.416-.347-.485.624-.417c-.208-.416-.277-.763-.208-1.11.07-.347.347-.693.763-.97l.416.623c-.346.209-.485.486-.485.694 0 .278.07.486.208.763.208.278.416.417.624.486.07-.139.278-.208.486-.347ZM54.232 43.688l.416.624-.486.347-.416-.624-1.04.694-.417-.625 1.04-.694-1.317-1.942.347-.208 4.44-.208.416.624-2.983 2.012Zm-1.318-1.873.901 1.318 2.151-1.457-.208.07-2.844.069ZM57.076 47.712c-.486.346-1.04.485-1.457.416-.486-.07-.832-.278-1.18-.763-.277-.416-.416-.902-.277-1.388.139-.485.416-.902.971-1.248l1.319-.902c.485-.347.97-.486 1.456-.417.486.07.833.278 1.18.764.277.416.416.901.277 1.387-.139.486-.416.902-.97 1.249l-1.319.902Zm1.04-1.596c.347-.208.556-.486.625-.763.07-.278.07-.555-.139-.833-.208-.277-.416-.416-.694-.416-.277 0-.624.07-.901.278l-1.596 1.11c-.347.208-.555.485-.624.763-.07.277-.07.555.138.832.209.278.417.416.694.416.278 0 .624-.069.902-.346l1.596-1.041ZM59.504 51.32c-.486.346-1.04.485-1.457.416-.485-.07-.832-.278-1.18-.763-.277-.417-.415-.902-.277-1.388.14-.486.417-.902.972-1.249l1.318-.901c.485-.347.97-.486 1.456-.417.486.07.902.278 1.18.763.277.417.416.902.277 1.388-.138.486-.416.902-.97 1.249l-1.319.901Zm1.04-1.666c.348-.208.556-.485.625-.763.07-.277.07-.555-.139-.832-.208-.278-.416-.416-.694-.416-.277 0-.624.069-.901.277l-1.596 1.11c-.347.208-.555.486-.624.763-.07.278-.07.555.138.833.209.277.417.416.694.416.278 0 .625-.07.902-.347l1.596-1.04Z" fill="#221E1F"/><path d="M74.004 31.479c.208 0 .416-.139.555-.277.139-.14.277-.417.347-.833.138-.485.277-.902.555-1.18.208-.277.555-.416.97-.485.417 0 .764.07 1.041.278.278.208.486.555.555.97l.833-.069.07.625-.833.07c0 .415-.139.762-.416 1.04-.278.277-.625.416-1.11.416l-.07-.763c.347 0 .555-.139.763-.278.208-.208.278-.416.278-.693a.88.88 0 0 0-.278-.625c-.138-.138-.347-.208-.624-.138-.278 0-.416.138-.555.277-.139.139-.277.416-.347.833-.139.555-.277.901-.555 1.179-.208.277-.555.416-.971.416-.416 0-.763-.07-1.04-.277-.278-.209-.486-.555-.556-1.04l-.694.068-.069-.555.694-.069c0-.416.139-.832.416-1.11a1.554 1.554 0 0 1 1.18-.486l.069.694c-.416 0-.624.139-.833.347a1.398 1.398 0 0 0-.208.763c0 .347.139.555.278.763.07.07.277.139.555.139ZM75.184 33.283l3.052.07.208 2.705-.624.07-.139-2.082-1.595-.07c.069.14.208.209.277.347.07.14.139.278.139.486.07.486-.07.902-.347 1.249-.278.277-.694.485-1.318.555-.555.07-.971-.07-1.388-.347-.346-.278-.555-.694-.624-1.249-.07-.486.07-.832.278-1.18.208-.346.555-.485 1.11-.554l.069.694a1.06 1.06 0 0 0-.694.277 1.172 1.172 0 0 0-.208.694c0 .347.139.555.416.693.208.14.555.209.902.209s.625-.14.833-.347c.208-.208.277-.416.277-.763 0-.278-.07-.486-.208-.625-.07-.139-.208-.208-.416-.277v-.555ZM75.253 40.914c-.624.07-1.11-.07-1.526-.347-.417-.278-.625-.694-.625-1.249-.07-.555.139-.971.416-1.318.347-.347.833-.555 1.457-.624l1.596-.14c.624-.069 1.11.07 1.526.348.416.277.625.694.625 1.248.069.556-.14.972-.417 1.319-.347.346-.832.555-1.457.624l-1.595.139Zm1.734-.902c.416 0 .694-.139.902-.347.208-.208.278-.486.278-.763 0-.347-.14-.555-.417-.694-.208-.139-.555-.208-.97-.208l-1.943.139c-.417 0-.694.139-.902.347-.208.208-.278.416-.278.763 0 .347.139.555.416.694.209.138.556.208.972.208l1.942-.14ZM75.6 45.215c-.625.07-1.11-.07-1.526-.347-.417-.277-.625-.694-.625-1.249-.07-.555.139-.97.416-1.318.347-.347.833-.555 1.457-.624l1.596-.139c.624-.07 1.11.07 1.526.347.416.278.624.694.624 1.249.07.555-.138.971-.416 1.318-.347.347-.832.555-1.457.555l-1.595.208Zm1.734-.833c.416 0 .694-.138.902-.346.208-.209.277-.417.277-.764 0-.346-.138-.554-.416-.693-.208-.139-.555-.208-.971-.208l-1.943.138c-.416 0-.693.14-.901.347-.209.208-.347.416-.278.763 0 .347.139.555.416.694.278.139.555.208.972.208l1.942-.139Z" fill="#fff"/><path d="M96.482 32.311c.208.07.416.07.624-.07.208-.138.416-.346.625-.624.277-.416.555-.763.901-.971.347-.208.694-.208 1.11-.07.417.14.694.348.902.625.208.277.278.624.208 1.04l.833.209-.139.555-.832-.208c-.139.416-.417.624-.763.832-.347.139-.764.139-1.18 0l.208-.694c.278.07.555.07.833 0a.792.792 0 0 0 .485-.555c.07-.277.07-.485-.069-.693-.139-.209-.277-.278-.555-.417-.208-.069-.416-.069-.624.07-.209.139-.417.347-.625.693-.277.417-.624.764-.902.902-.277.209-.693.209-1.04.07-.416-.139-.694-.347-.902-.625-.208-.347-.208-.693-.139-1.179l-.694-.208.14-.555.693.208c.139-.416.416-.694.763-.902.347-.208.763-.208 1.249-.07l-.208.695c-.347-.07-.694-.07-.902.069-.208.139-.347.347-.416.624-.07.278-.07.555 0 .763-.07.278.138.417.416.486ZM96.967 34.392l2.845 1.11-.763 2.636-.625-.208.555-2.011-1.457-.625c.07.139.07.278.14.416 0 .14 0 .347-.07.486-.139.486-.416.832-.763 1.04-.417.209-.833.209-1.388.07a2.074 2.074 0 0 1-1.18-.763c-.207-.347-.277-.833-.138-1.388.139-.416.347-.763.694-1.04.347-.208.694-.278 1.18-.139l-.209.624c-.277-.069-.555-.069-.763.07a1.079 1.079 0 0 0-.416.555c-.07.277-.07.555.139.763.138.208.416.416.832.486.347.069.624.069.902 0 .277-.14.416-.347.485-.625.07-.277.07-.485.07-.624a.924.924 0 0 0-.347-.416l.277-.417ZM95.787 38.555l2.845 1.11-.763 2.636-.625-.208.555-2.012-1.457-.624c.07.138.07.277.07.416 0 .139 0 .347-.07.486-.138.485-.416.832-.763 1.04-.416.208-.832.208-1.387.07a2.074 2.074 0 0 1-1.18-.764c-.277-.346-.277-.832-.138-1.387.139-.416.347-.763.694-1.04.347-.209.693-.278 1.179-.14l-.208.625c-.278-.07-.555-.07-.763.07a1.08 1.08 0 0 0-.417.554c-.069.278-.069.555.14.763.138.209.416.417.832.486.347.07.624.07.901 0 .278-.139.417-.347.486-.624.07-.278.07-.486.07-.625-.07-.138-.14-.277-.347-.416l.346-.416ZM93.29 45.77c-.624-.14-1.04-.417-1.318-.833-.277-.416-.347-.832-.208-1.387.139-.486.416-.902.833-1.11.416-.209.97-.209 1.526-.07l1.526.416c.624.14 1.04.417 1.318.833s.347.832.208 1.387c-.138.486-.416.902-.832 1.11-.416.208-.972.208-1.526.07l-1.527-.417Zm1.873-.209c.347.14.694.14.972 0 .277-.138.416-.346.555-.624.069-.277.069-.555-.14-.832-.138-.209-.415-.417-.832-.486l-1.873-.486c-.347-.139-.693-.07-.97 0-.278.139-.417.347-.556.625-.07.277-.07.555.139.832.208.208.485.416.832.486l1.873.485Z" fill="#221E1F"/><path d="M120.555 42.162c.138.14.346.209.624.209.208 0 .486-.14.832-.347a3.282 3.282 0 0 1 1.18-.486c.347 0 .693.07 1.04.347.347.277.486.555.555.902.07.347-.069.694-.277 1.04l.624.555-.416.486-.624-.555c-.347.277-.625.416-1.041.416-.347 0-.763-.208-1.11-.485l.486-.555c.277.208.485.346.763.346.277 0 .485-.069.624-.277.208-.208.278-.416.278-.624 0-.209-.139-.417-.347-.555a1.121 1.121 0 0 0-.625-.209c-.208 0-.485.14-.832.347-.486.278-.833.417-1.18.486-.346 0-.693-.07-1.04-.347-.347-.277-.486-.624-.555-.971 0-.347.069-.763.347-1.11l-.555-.486.416-.416.555.486c.347-.278.694-.486 1.041-.486.416 0 .763.139 1.179.486l-.486.555a1.098 1.098 0 0 0-.832-.347c-.278.07-.486.139-.624.416-.209.278-.347.486-.347.694.069.139.138.347.347.485ZM121.388 47.643a3.038 3.038 0 0 1-.486.416c-.139.139-.347.208-.486.278l-.347-.486c.139-.07.278-.139.417-.277.138-.07.277-.209.416-.417.208-.277.277-.555.208-.901-.069-.347-.277-.694-.624-.972l-.347-.277c0 .208 0 .416-.07.624-.069.208-.208.416-.346.624a1.45 1.45 0 0 1-1.11.555c-.417 0-.833-.138-1.249-.485-.416-.347-.694-.763-.694-1.249a1.399 1.399 0 0 1 .416-1.248c.347-.417.763-.556 1.249-.625.486 0 1.041.208 1.526.624l.972.833c.485.416.763.902.832 1.457.139.624.069 1.11-.277 1.526Zm-1.943-1.873a2.09 2.09 0 0 0 .278-.555c0-.208 0-.347-.07-.555l-.277-.278c-.347-.277-.694-.485-1.041-.485s-.624.07-.763.277a.782.782 0 0 0-.208.764c.069.277.277.554.555.763.277.208.555.346.832.346.278.14.486 0 .694-.277ZM114.797 49.724c-.486-.416-.763-.832-.833-1.318-.069-.486.07-.902.417-1.318.346-.416.763-.625 1.248-.625.486 0 .971.209 1.457.625l1.249 1.04c.485.417.763.833.832 1.319.07.485-.069.901-.416 1.317-.347.417-.763.625-1.249.625-.485 0-.971-.208-1.456-.625l-1.249-1.04Zm1.803.555c.278.277.625.416.902.416.278 0 .555-.07.763-.347a.782.782 0 0 0 .209-.763c-.07-.277-.209-.555-.555-.832l-1.457-1.249c-.278-.277-.625-.416-.902-.416-.278 0-.555.07-.763.347-.208.277-.278.485-.208.763.069.277.208.555.555.832l1.456 1.249ZM111.953 52.985c-.486-.417-.763-.833-.833-1.318-.069-.486.07-.902.416-1.319.347-.416.764-.624 1.249-.624.486 0 .971.208 1.457.625l1.249 1.04c.485.416.763.833.832 1.318.07.486-.069.902-.416 1.318-.347.416-.763.625-1.249.625-.485 0-.971-.209-1.457-.625l-1.248-1.04Zm1.873.624c.277.278.624.416.902.416.277 0 .555-.07.763-.347.208-.208.277-.485.208-.763-.069-.277-.208-.555-.555-.832l-1.457-1.249c-.277-.277-.624-.416-.902-.416-.277 0-.555.07-.763.347-.208.277-.277.485-.208.763.069.277.277.555.555.832l1.457 1.25Z" fill="#fff"/><path d="M135.469 65.61c.069.209.208.417.347.486.208.14.485.209.902.209.555 0 .971.138 1.248.277.347.208.555.486.625.902.069.416.069.763-.07 1.04-.138.347-.416.555-.832.694l.208.833-.555.138-.208-.832c-.416.07-.763 0-1.041-.278-.277-.208-.485-.554-.624-1.04l.694-.208c.069.277.208.555.416.694.208.138.416.208.694.138.277-.07.485-.208.555-.416.069-.208.138-.416.069-.694-.069-.208-.208-.416-.347-.485-.208-.14-.486-.209-.902-.209-.555 0-.971-.138-1.248-.346-.278-.209-.486-.486-.625-.902-.139-.416-.069-.763.139-1.11.208-.278.485-.555.902-.694l-.208-.694.555-.138.208.693c.416-.069.832 0 1.179.209.347.208.555.554.694 1.04l-.694.208c-.069-.347-.277-.624-.486-.694-.208-.138-.485-.138-.763-.069-.347.07-.555.208-.693.416-.209.347-.209.555-.139.833ZM132.972 70.536c-.208.07-.416.07-.624.07h-.555v-.625c.138 0 .277.07.485.07.139 0 .347 0 .555-.07.347-.07.555-.277.694-.624.139-.347.139-.694 0-1.18l-.139-.416a3.017 3.017 0 0 1-.416.486c-.208.139-.416.208-.624.277-.486.14-.833.07-1.18-.208-.347-.208-.555-.624-.694-1.11-.138-.555-.138-1.04.139-1.387.208-.416.555-.694 1.11-.763.486-.139.971-.07 1.388.208.416.277.693.763.902 1.387l.346 1.249c.139.624.139 1.18-.138 1.665-.347.486-.763.832-1.249.971Zm-.486-2.567c.208-.069.417-.138.555-.277.139-.139.208-.278.278-.486l-.07-.347c-.138-.416-.277-.763-.555-.97-.277-.209-.555-.278-.832-.209-.278.07-.486.277-.624.486-.07.277-.139.555 0 .97.069.348.277.625.485.764.139.07.416.139.763.07ZM129.642 68.178l.486 3.052-2.637.694-.138-.624 2.081-.555-.208-1.596c-.07.139-.208.208-.347.278-.139.069-.278.138-.486.208-.485.138-.902.069-1.249-.14-.346-.207-.624-.624-.763-1.178-.138-.555-.138-.972.07-1.388.208-.416.555-.694 1.11-.832.416-.14.832-.07 1.248.069.347.139.625.486.694.971l-.624.139c-.07-.277-.208-.486-.416-.624-.209-.14-.417-.14-.694-.07-.278.07-.486.278-.625.486-.138.277-.138.555 0 .971.07.347.209.555.486.763a.963.963 0 0 0 .763.139c.278-.07.486-.139.555-.278.139-.138.139-.277.208-.485h.486ZM122.15 69.565c-.139-.624-.139-1.11.069-1.526.208-.416.555-.694 1.11-.832.486-.14.971-.07 1.388.208.416.277.693.693.832 1.318l.416 1.526c.139.624.139 1.11-.069 1.526-.208.416-.555.694-1.11.833-.486.139-.971.07-1.387-.208-.417-.278-.694-.694-.833-1.319l-.416-1.526Zm1.179 1.526c.07.347.278.694.486.833.208.208.485.208.832.139.278-.07.486-.278.625-.486.138-.277.138-.555 0-.971l-.486-1.873c-.069-.347-.277-.694-.486-.833-.208-.208-.485-.208-.832-.138-.347.069-.555.277-.624.485-.139.278-.139.625 0 .971l.485 1.873Z" fill="#221E1F"/><path d="M138.037 87.394c0 .208.069.416.208.625.138.208.416.346.763.485.485.208.832.416 1.11.694.208.277.347.624.277 1.04-.069.417-.208.764-.485.972a1.707 1.707 0 0 1-1.041.347l-.069.832-.625-.07.07-.832c-.417-.07-.694-.277-.902-.624-.208-.278-.278-.694-.208-1.18l.763.07c0 .347 0 .555.139.763a.728.728 0 0 0 .624.347c.278 0 .555 0 .694-.139a.882.882 0 0 0 .277-.624c0-.208 0-.416-.139-.625a2.402 2.402 0 0 0-.763-.485c-.485-.208-.832-.486-1.11-.694-.208-.277-.346-.624-.277-1.04.069-.417.208-.764.486-.972.277-.208.624-.347 1.109-.347l.07-.693.555.069-.07.694c.417.07.764.277 1.041.555.278.277.347.694.278 1.249l-.694-.07c.069-.416-.07-.694-.208-.832-.208-.209-.417-.278-.694-.347-.347 0-.555 0-.763.139-.278.208-.347.416-.416.693ZM132.555 90.378c.763-.763 1.318-1.457 1.596-2.012a6.598 6.598 0 0 0 .555-2.082l.069-.624.763.07-.069.624c-.07.832-.278 1.526-.694 2.15-.347.625-.902 1.25-1.526 1.943l2.913.278-.069.554-3.607-.346.069-.555ZM128.602 87.048c.069-.625.277-1.11.624-1.388.347-.347.763-.486 1.318-.416s.902.277 1.18.694c.277.416.416.901.347 1.526l-.139 1.596c-.07.624-.278 1.11-.625 1.387-.346.347-.763.486-1.318.416s-.901-.277-1.248-.694c-.278-.416-.417-.901-.347-1.526l.208-1.595Zm.555 1.803c-.069.417 0 .694.139.972a.762.762 0 0 0 .693.416c.347 0 .555-.07.763-.278.209-.208.278-.485.347-.901l.208-1.943c.07-.416 0-.694-.208-.971a.762.762 0 0 0-.693-.416c-.347 0-.555.069-.763.277-.209.208-.278.486-.347.902l-.139 1.942ZM124.231 86.631c.069-.624.277-1.11.624-1.387.347-.347.763-.486 1.318-.417.555.07.902.278 1.18.694.277.416.416.902.346 1.526l-.138 1.596c-.07.624-.278 1.11-.625 1.387-.346.347-.763.486-1.318.417-.555-.07-.902-.278-1.248-.694-.278-.416-.417-.902-.347-1.526l.208-1.596Zm.624 1.804c-.069.416 0 .694.208.971a.764.764 0 0 0 .694.416c.347 0 .555-.07.763-.277.208-.208.278-.486.347-.902l.208-1.942c.07-.417 0-.694-.208-.972a.763.763 0 0 0-.694-.416c-.347 0-.555.07-.763.278-.208.208-.277.485-.347.901l-.208 1.943Z" fill="#fff"/><path d="M132.07 110.148c-.139.208-.139.416-.139.624.07.208.208.486.417.763.346.417.555.763.624 1.11.069.347 0 .694-.208 1.041a1.621 1.621 0 0 1-.833.694 1.61 1.61 0 0 1-1.11-.139l-.416.694-.486-.347.417-.694c-.347-.277-.486-.624-.555-.971-.07-.347.069-.763.347-1.18l.624.417c-.139.277-.277.555-.208.763 0 .277.139.485.416.624.278.139.486.208.694.139.208-.069.416-.208.555-.416.139-.208.139-.417.139-.625-.07-.208-.209-.485-.486-.832-.347-.416-.555-.763-.624-1.11-.07-.347 0-.694.208-1.041s.555-.555.902-.693c.346-.07.763 0 1.11.208l.416-.625.485.347-.416.624c.347.278.555.625.625.972.069.347 0 .763-.278 1.248l-.624-.416c.208-.347.277-.624.208-.832-.07-.278-.208-.417-.486-.625-.277-.208-.555-.277-.763-.208-.208.139-.416.278-.555.486ZM125.827 110.287c1.041-.347 1.804-.694 2.359-1.11a5.41 5.41 0 0 0 1.456-1.596l.347-.485.625.416-.347.486a5.25 5.25 0 0 1-1.596 1.665c-.624.416-1.387.763-2.22 1.04l2.428 1.526-.347.486-3.052-1.943.347-.485ZM126.312 107.651l-1.873 2.428-2.289-1.457.346-.555 1.804 1.11.971-1.249h-.416c-.139 0-.277-.069-.485-.208-.417-.277-.694-.624-.764-1.04-.069-.417.07-.902.347-1.319.278-.485.625-.763 1.11-.901.417-.139.902-.07 1.388.277.416.278.624.555.763.971.139.347.069.763-.208 1.18l-.555-.347c.139-.278.208-.486.139-.694a1.086 1.086 0 0 0-.417-.555c-.277-.139-.555-.208-.763-.139-.277.07-.485.278-.694.625-.208.277-.277.555-.208.832 0 .278.208.486.417.694.277.139.416.208.624.208.139 0 .277-.069.486-.208l.277.347ZM120.138 103.142c.347-.555.763-.833 1.179-.972.486-.138.902-.069 1.388.209.416.277.693.693.763 1.11.069.485-.07.971-.416 1.526l-.833 1.387c-.347.486-.694.833-1.179.971-.486.139-.902.07-1.388-.208a1.7 1.7 0 0 1-.763-1.179c-.069-.486.069-.971.416-1.526l.833-1.318Zm-.347 1.942c-.208.347-.278.625-.278.902s.139.486.417.694c.277.138.555.208.832.138.278-.069.486-.346.694-.624l1.041-1.595c.208-.347.277-.625.277-.902 0-.278-.139-.486-.416-.694-.278-.139-.555-.208-.833-.139-.277.07-.485.347-.693.625l-1.041 1.595Z" fill="#221E1F"/><path d="M115.768 128.879c-.208.139-.347.278-.347.486-.07.208-.07.485.069.902.139.485.139.971.07 1.318-.07.346-.278.624-.694.832-.347.208-.694.278-1.041.208-.347-.069-.624-.277-.902-.624l-.693.416-.278-.486.694-.416c-.139-.416-.208-.763-.07-1.11.139-.347.417-.624.833-.902l.416.625c-.277.139-.485.347-.555.624-.069.208-.069.486.07.694.138.277.346.416.555.416.208.069.416 0 .624-.139.208-.138.347-.277.416-.485.07-.208 0-.486-.069-.902-.139-.555-.139-.971-.07-1.318.07-.347.278-.625.694-.833.347-.208.763-.277 1.11-.208.347.07.694.347.971.694l.625-.347.277.486-.624.347c.208.416.208.763.139 1.179-.07.347-.347.694-.833.971l-.347-.624c.347-.208.486-.416.555-.694.07-.277 0-.486-.138-.763-.139-.278-.347-.486-.625-.555-.347.069-.624.069-.832.208ZM110.843 125.965c.277-.138.486-.208.763-.208.278 0 .486.139.763.278-.069-.347-.069-.625.069-.902.07-.278.278-.486.555-.694.417-.277.833-.347 1.249-.208.416.139.763.416.971.832.278.486.417.902.347 1.319-.069.416-.277.763-.763 1.04a1.842 1.842 0 0 1-.832.208 2.341 2.341 0 0 1-.833-.416c.07.278 0 .555-.069.833-.07.277-.278.485-.486.624-.416.277-.832.277-1.179.208-.347-.139-.694-.416-.971-.832-.208-.417-.347-.764-.278-1.18.07-.347.278-.624.694-.902Zm.416.625a1.075 1.075 0 0 0-.416.555c-.069.208 0 .416.069.624.139.208.347.347.555.416.208.07.486 0 .694-.138.208-.139.416-.347.416-.555.07-.209 0-.486-.139-.694-.138-.208-.277-.347-.555-.416-.138 0-.416.069-.624.208Zm2.081-1.457c-.277.139-.416.347-.485.624-.07.278 0 .555.138.763.139.278.347.417.625.486.277.069.555 0 .763-.139.277-.139.416-.347.486-.624.069-.278 0-.555-.139-.833-.139-.277-.347-.416-.625-.485-.208 0-.485.069-.763.208ZM110.356 121.04c.555-.347 1.041-.416 1.526-.347.486.069.833.347 1.11.833.278.485.347.901.209 1.387-.139.486-.486.833-1.041 1.179l-1.387.833c-.555.347-1.041.416-1.527.347-.485-.07-.832-.347-1.11-.833-.277-.485-.347-.902-.208-1.387.139-.486.486-.833 1.041-1.18l1.387-.832Zm-1.11 1.596c-.347.208-.555.416-.693.693-.07.278-.07.555.069.833.139.277.416.416.694.485.277 0 .624-.069.902-.277l1.664-.971c.347-.208.555-.417.694-.694.139-.278.07-.555-.069-.833-.139-.277-.416-.416-.694-.485-.277 0-.624.069-.971.277l-1.596.972ZM108.137 117.363c.555-.347 1.04-.416 1.526-.347.486.07.832.347 1.11.833.277.485.347.902.208 1.387-.139.486-.486.833-1.041 1.18l-1.387.832c-.555.347-1.041.416-1.526.347-.486-.069-.833-.347-1.11-.832-.278-.486-.347-.902-.208-1.388.138-.486.485-.832 1.04-1.179l1.388-.833Zm-1.11 1.526c-.347.209-.555.417-.694.694-.069.278-.069.555.069.833.139.277.417.416.694.485.278 0 .624-.069.902-.277l1.665-.971c.347-.209.555-.417.694-.694.138-.278.069-.555-.07-.833-.138-.277-.416-.416-.693-.485-.278 0-.625.069-.972.277l-1.595.971Z" fill="#fff"/><path d="M93.708 136.58c-.208.069-.416.138-.555.347-.138.208-.208.485-.277.832-.07.555-.208.971-.347 1.249a1.36 1.36 0 0 1-.902.555c-.416.069-.763 0-1.04-.139-.278-.208-.486-.486-.625-.902l-.832.139-.139-.555.832-.139c0-.416.07-.763.347-1.04.209-.278.625-.486 1.041-.555l.139.693c-.278.07-.555.208-.694.416-.139.209-.208.417-.139.694.07.278.208.486.347.625.208.138.416.138.694.069.208-.069.416-.139.555-.347.139-.208.208-.486.277-.902.07-.555.209-.971.417-1.248.208-.278.485-.486.901-.555.417-.07.764 0 1.11.208.278.208.486.555.625.971l.694-.139.138.555-.694.139c.07.416-.069.832-.277 1.11-.208.347-.555.555-1.11.624l-.139-.694c.347-.069.625-.208.763-.416.14-.208.14-.485.07-.763-.07-.347-.208-.555-.347-.694-.347-.138-.555-.208-.833-.138ZM94.332 132.487l.139.763-4.718.902.208 1.179-.555.139-.555-1.873 5.481-1.11ZM91.35 127.354c.624-.139 1.11-.07 1.526.208.416.208.694.624.763 1.11.07.485 0 .971-.277 1.318-.278.416-.763.624-1.388.763l-1.596.347c-.624.138-1.11.069-1.526-.208-.416-.209-.693-.625-.763-1.11-.07-.555 0-.972.278-1.388.277-.416.763-.624 1.318-.763l1.665-.277Zm-1.596 1.11c-.416.069-.694.208-.832.416a.782.782 0 0 0-.208.763c.069.347.208.555.485.624.278.139.555.139.971.07l1.873-.347c.417-.07.694-.208.833-.416.208-.209.277-.486.208-.764-.07-.346-.208-.555-.486-.693-.277-.139-.555-.139-.97-.07l-1.874.417ZM90.516 123.122c.625-.139 1.11-.07 1.527.208.416.208.694.624.763 1.11.07.485 0 .971-.278 1.318-.277.347-.763.624-1.387.763l-1.596.277c-.624.139-1.11.07-1.526-.208-.416-.208-.694-.624-.763-1.11-.07-.555 0-.971.278-1.387.277-.416.763-.624 1.318-.763l1.664-.208Zm-1.595 1.04c-.416.07-.694.208-.833.416a.784.784 0 0 0-.208.764c.07.346.209.555.486.624.278.139.555.139.971.069l1.873-.347c.416-.069.694-.208.902-.416a.782.782 0 0 0 .208-.763c-.07-.347-.208-.555-.485-.694-.278-.138-.555-.138-.972-.069l-1.942.416ZM89.685 118.89c.624-.139 1.11-.07 1.526.208.416.208.694.624.763 1.11.07.485 0 .971-.278 1.318-.277.347-.763.624-1.387.763l-1.596.277c-.624.139-1.11.07-1.526-.208-.416-.208-.694-.624-.763-1.11-.07-.555 0-.971.277-1.387.278-.416.764-.624 1.319-.763l1.665-.208Zm-1.596 1.04c-.416.07-.694.208-.832.417a.782.782 0 0 0-.209.763c.07.347.209.555.486.624.277.139.555.139.971.069l1.873-.346c.416-.07.694-.209.902-.417a.782.782 0 0 0 .208-.763c-.07-.347-.208-.555-.485-.694-.278-.138-.555-.138-.972-.069l-1.942.416Z" fill="#221E1F"/><path opacity=".7" d="M95.65 90.516c-.278 6.59-5.898 11.724-12.557 11.446-6.59-.277-11.724-5.897-11.447-12.487.278-6.59 5.897-11.724 12.557-11.447 6.59.278 11.724 5.897 11.446 12.488Z" fill="#545454"/><path d="M93.706 84.896c-.208 5.342-4.787 9.435-10.06 9.227-5.34-.208-9.434-4.787-9.226-10.06.208-5.34 4.787-9.434 10.06-9.226 5.272.208 9.434 4.718 9.226 10.06Z" fill="#FF8E06"/><path d="M83.994 94.886h-.486c-5.758-.277-10.198-5.133-9.92-10.891.277-5.62 4.856-9.99 10.406-9.99h.485c2.775.139 5.342 1.318 7.215 3.4 1.873 2.08 2.844 4.717 2.706 7.492-.209 5.619-4.787 9.99-10.406 9.99Zm0-19.355c-4.787 0-8.672 3.746-8.88 8.533-.208 4.926 3.607 9.088 8.463 9.296 4.926.208 9.088-3.607 9.297-8.463a8.66 8.66 0 0 0-2.29-6.383 9.116 9.116 0 0 0-6.174-2.913c-.139-.07-.278-.07-.416-.07Z" fill="#fff"/><path opacity=".5" d="M90.03 84.688c-.14 3.33-2.984 5.897-6.244 5.758-3.33-.139-5.897-2.983-5.758-6.244.139-3.33 2.983-5.896 6.244-5.758a5.986 5.986 0 0 1 5.758 6.244Z" fill="#FFFAA4"/><path opacity=".6" d="M88.78 84.62c-.138 2.635-2.358 4.647-4.994 4.578-2.636-.139-4.648-2.359-4.579-4.995.139-2.636 2.359-4.648 4.995-4.579 2.636.139 4.718 2.428 4.579 4.995Z" fill="#FFEBC0"/><path opacity=".8" d="M89.129 79.901c-.07 1.873-1.666 3.33-3.608 3.26-1.873-.069-3.33-1.664-3.26-3.607.069-1.873 1.665-3.33 3.607-3.26 1.873.07 3.33 1.734 3.26 3.607Z" fill="#FFF8E9"/><path d="M90.236 9.833c-.208 2.567-2.428 4.44-4.925 4.232-2.567-.208-4.44-2.428-4.232-4.925.208-2.567 2.428-4.44 4.925-4.232 2.567.208 4.44 2.428 4.232 4.925Z" fill="#FF9100"/><path opacity=".5" d="M88.086 9.694c-.07 1.319-1.25 2.36-2.567 2.22-1.318-.069-2.359-1.248-2.22-2.566.07-1.319 1.248-2.36 2.567-2.22 1.318.069 2.289 1.248 2.22 2.566Z" fill="#FFFAA4"/><path d="M52.29 16.702c1.11 2.29.138 5.064-2.151 6.174-2.29 1.11-5.064.139-6.174-2.15-1.11-2.29-.14-5.065 2.15-6.175 2.29-1.11 5.064-.138 6.174 2.151Z" fill="#FF9100"/><path opacity=".5" d="M50.278 17.673c.555 1.18.069 2.636-1.11 3.191-1.18.555-2.637.07-3.192-1.11-.555-1.179-.069-2.636 1.11-3.19a2.298 2.298 0 0 1 3.192 1.11Z" fill="#FFFAA4"/><path d="M22.805 41.607c2.082 1.457 2.637 4.301 1.18 6.382-1.457 2.081-4.301 2.636-6.383 1.18-2.08-1.457-2.636-4.302-1.179-6.383 1.388-2.081 4.232-2.567 6.383-1.18Z" fill="#FF9100"/><path opacity=".5" d="M21.557 43.41c1.11.764 1.388 2.22.625 3.33-.763 1.11-2.29 1.388-3.33.625-1.11-.763-1.388-2.29-.625-3.33.694-1.04 2.22-1.387 3.33-.624Z" fill="#FFFAA4"/><path d="M9.693 77.958c2.567.208 4.44 2.428 4.232 4.926-.208 2.567-2.428 4.44-4.926 4.231-2.567-.208-4.44-2.428-4.232-4.925.209-2.498 2.429-4.44 4.926-4.232Z" fill="#FF9100"/><path opacity=".5" d="M9.554 80.109c1.319.069 2.36 1.248 2.22 2.566-.069 1.318-1.248 2.359-2.566 2.22-1.319-.07-2.36-1.248-2.22-2.567.069-1.318 1.248-2.289 2.566-2.22Z" fill="#FFFAA4"/><path d="M16.562 115.975c2.29-1.11 5.064-.138 6.174 2.151 1.11 2.289.14 5.064-2.15 6.174-2.29 1.11-5.064.139-6.174-2.15-1.11-2.359-.14-5.065 2.15-6.175Z" fill="#FF9100"/><path opacity=".5" d="M17.534 117.918c1.18-.555 2.636-.07 3.191 1.11.555 1.179.07 2.636-1.11 3.191-1.18.555-2.636.069-3.19-1.11-.625-1.18-.14-2.567 1.109-3.191Z" fill="#FFFAA4"/><path d="M41.467 145.459c1.457-2.082 4.302-2.637 6.383-1.18 2.08 1.457 2.636 4.301 1.18 6.383-1.458 2.081-4.302 2.636-6.383 1.179-2.081-1.457-2.636-4.301-1.18-6.382Z" fill="#FF9100"/><path opacity=".5" d="M43.272 146.707c.763-1.11 2.289-1.387 3.33-.624 1.11.763 1.387 2.289.624 3.33-.763 1.11-2.29 1.387-3.33.624-1.11-.763-1.388-2.289-.624-3.33Z" fill="#FFFAA4"/><path d="M77.819 158.501c.208-2.567 2.427-4.44 4.925-4.232 2.567.208 4.44 2.428 4.232 4.926-.208 2.567-2.428 4.44-4.926 4.232-2.567-.139-4.44-2.359-4.231-4.926Z" fill="#FF9100"/><path opacity=".5" d="M79.969 158.709c.069-1.318 1.248-2.359 2.567-2.22 1.318.069 2.358 1.249 2.22 2.567-.07 1.318-1.25 2.358-2.567 2.22-1.318-.07-2.29-1.249-2.22-2.567Z" fill="#FFFAA4"/><path d="M115.836 151.702c-1.11-2.289-.139-5.064 2.15-6.174 2.29-1.11 5.065-.139 6.175 2.151 1.11 2.289.138 5.064-2.151 6.174-2.359 1.11-5.064.139-6.174-2.151Z" fill="#FF9100"/><path opacity=".5" d="M117.778 150.731c-.554-1.179-.069-2.636 1.11-3.191 1.18-.555 2.637-.069 3.192 1.11.555 1.179.069 2.636-1.11 3.191-1.18.625-2.637.07-3.192-1.11Z" fill="#FFFAA4"/><path d="M145.319 126.728c-2.082-1.457-2.637-4.301-1.18-6.383 1.457-2.081 4.301-2.636 6.383-1.179 2.081 1.457 2.636 4.301 1.179 6.382-1.457 2.082-4.301 2.637-6.382 1.18Z" fill="#FF9100"/><path opacity=".5" d="M146.497 124.924c-1.11-.763-1.387-2.289-.624-3.33.763-1.11 2.289-1.387 3.33-.624 1.11.763 1.387 2.289.624 3.33-.693 1.11-2.22 1.387-3.33.624Z" fill="#FFFAA4"/><path d="M158.361 90.446c-2.566-.209-4.439-2.428-4.231-4.926.208-2.567 2.428-4.44 4.925-4.232 2.567.208 4.44 2.428 4.232 4.926-.139 2.497-2.359 4.37-4.926 4.232Z" fill="#FF9100"/><path opacity=".5" d="M158.57 88.225c-1.318-.069-2.359-1.248-2.22-2.566.069-1.319 1.248-2.359 2.567-2.22 1.318.07 2.358 1.248 2.22 2.567-.139 1.318-1.249 2.358-2.567 2.22Z" fill="#FFFAA4"/><path d="M151.493 52.429c-2.289 1.11-5.064.139-6.174-2.15-1.11-2.29-.139-5.065 2.15-6.175 2.29-1.11 5.065-.139 6.175 2.15 1.11 2.29.208 5.065-2.151 6.175Z" fill="#FF9100"/><path opacity=".5" d="M150.591 50.417c-1.179.555-2.636.07-3.191-1.11-.555-1.179-.07-2.636 1.11-3.19 1.179-.556 2.636-.07 3.191 1.11.555 1.179.069 2.635-1.11 3.19Z" fill="#FFFAA4"/><path d="M126.589 22.945c-1.457 2.081-4.301 2.636-6.383 1.18-2.081-1.458-2.636-4.302-1.179-6.383 1.457-2.081 4.301-2.636 6.382-1.18 2.082 1.388 2.637 4.302 1.18 6.383Z" fill="#FF9100"/><path opacity=".5" d="M124.786 21.696c-.763 1.11-2.29 1.387-3.33.624-1.11-.763-1.388-2.289-.625-3.33.763-1.11 2.29-1.387 3.33-.624 1.11.694 1.388 2.22.625 3.33Z" fill="#FFFAA4"/><path opacity=".7" d="M141.711 22.598c-1.735-1.595-7.493-5.896-11.378-5.203-4.093.764-7.839 4.579-10.475 10.406-2.914 6.66-3.815 15.47-.277 18.731 3.538 3.26 12.279 1.596 18.661-1.803 5.619-3.053 9.088-7.146 9.574-11.239.416-3.954-4.371-9.296-6.105-10.892Z" fill="#545454"/><path d="M123.882 41.606c5.203 4.787 25.114-2.358 26.154-11.932.347-3.191-3.676-8.117-5.827-10.06-2.081-1.942-7.423-5.55-10.545-4.994-9.435 1.804-14.985 22.2-9.782 26.986Z" fill="#FF9100"/><path d="M145.111 18.644c1.735 1.595 6.521 6.937 6.105 10.891-.416 4.093-3.954 8.186-9.573 11.239-6.383 3.469-15.124 5.064-18.662 1.804-3.538-3.261-2.636-12.071.278-18.731 2.566-5.897 6.382-9.643 10.475-10.406 3.885-.763 9.643 3.607 11.377 5.203Zm-20.326 21.991c2.567 2.359 9.781 1.457 16.164-1.942 2.22-1.18 7.423-4.44 7.908-8.88.278-2.428-3.121-7.007-5.55-9.227-2.428-2.22-7.284-5.203-9.642-4.787-4.371.833-7.215 6.313-8.186 8.603-2.984 6.59-3.261 13.874-.694 16.233Z" fill="#FFB864"/><path d="M127.283 37.93c1.387 1.249 16.996-6.59 17.135-7.284 1.041-4.37-6.937-11.794-11.239-10.406-.763.277-7.353 16.372-5.896 17.69Z" fill="#221E1F"/><path d="M129.641 35.017c.763.693 9.366-3.608 9.504-4.024.625-2.428-3.815-6.521-6.243-5.758-.417.07-4.093 9.019-3.261 9.782Z" fill="#FF9100"/><path opacity=".5" d="M134.15 31.895c.555.555 7.007-2.706 7.146-3.053.416-1.803-2.914-4.856-4.648-4.301-.347.139-3.122 6.799-2.498 7.354Z" fill="#FF9100"/></svg>