<svg width="234" height="191" viewBox="0 0 234 191" fill="none" xmlns="http://www.w3.org/2000/svg"><path d="m215.676 58.701-5.768 13.873a21.07 21.07 0 0 1-5.695-1.46l6.498-15.771 4.965 3.358Z" fill="#CE4500"/><path d="m215.675 58.701-5.841 13.946-13.872 33.293-.657-13.288 8.834-21.466 6.572-15.843 4.964 3.358Z" fill="#E08500"/><path d="M196.837 89.367v16.647c0 2.701-1.46 5.257-4.015 6.936h-.073c-.657 2.774-2.191 5.33-4.454 7.155l-.876.73V74.399l.876.73c2.044 1.68 3.504 3.943 4.308 6.426.073.219.146.51.219.73h.073c.292.219.511.365.803.584 1.971 1.825 3.139 4.088 3.139 6.498Z" fill="#900"/><path d="M233.856 46.436c0 8.542-6.937 15.478-15.479 15.478-8.542 0-15.479-6.936-15.479-15.478 0-8.543 6.937-15.479 15.479-15.479 8.542 0 15.479 6.936 15.479 15.479Z" fill="#CE0000"/><path d="M222.539 55.562c-7.448 0-13.508-6.06-13.508-13.507 0-4.161 1.899-7.885 4.819-10.367-6.352 1.898-11.025 7.812-11.025 14.82 0 8.543 6.936 15.48 15.479 15.48 7.301 0 13.434-5.038 15.04-11.828-2.409 3.212-6.352 5.402-10.805 5.402Z" fill="#CE0000"/><path d="M230.644 45.414c-1.972 2.701-6.936 2.482-11.098-.584-4.162-2.994-5.987-7.667-4.016-10.368 1.972-2.702 6.936-2.482 11.098.584 4.235 3.067 5.987 7.666 4.016 10.368Z" fill="#F23838"/><path opacity=".8" d="M69.433 117.842h-4.016c-1.022-15.917-.584-29.935.22-40.814h4.015c-.803 10.879-1.241 24.897-.22 40.814ZM123.023 117.842h-4.015c1.022-15.917.584-29.935-.219-40.814h4.015c.877 10.879 1.242 24.897.219 40.814Z" fill="#ED9200"/><path d="M184.791 95.135c0 50.013-40.595 90.608-90.608 90.608-50.013 0-90.608-40.595-90.608-90.608 0-50.013 40.595-90.608 90.608-90.608 50.086 0 90.608 40.595 90.608 90.608Z" fill="#900"/><path d="M182.454 95.135c0 48.699-39.499 88.272-88.198 88.272-48.7 0-88.272-39.5-88.272-88.272 0-41.69 28.913-76.59 67.682-85.862 6.571-1.534 13.434-2.41 20.517-2.41 7.52 0 14.821.95 21.83 2.702 38.186 9.783 66.441 44.391 66.441 85.57Z" fill="#FF2E29"/><path d="M170.48 95.135c0 42.128-34.169 76.297-76.297 76.297s-76.298-34.169-76.298-76.297 34.17-76.298 76.298-76.298c42.128.073 76.297 34.17 76.297 76.298Z" fill="#900"/><path d="M165.515 95.135c0 39.426-31.979 71.332-71.333 71.332-39.426 0-71.332-31.979-71.332-71.332 0-39.427 31.979-71.333 71.332-71.333 39.427 0 71.333 31.98 71.333 71.333Z" fill="#221E1F"/><path opacity=".4" d="M155.368 97.398c0 32.855-26.65 59.505-59.505 59.505-32.856 0-59.505-26.65-59.505-59.505 0-32.855 26.65-59.505 59.505-59.505 32.855 0 59.505 26.65 59.505 59.505Z" fill="#5E305A"/><path d="m92.87 0 3.432 6.863 7.521 1.095-5.476 5.257 1.314 7.52-6.79-3.504-6.717 3.504 1.314-7.52-5.476-5.257 7.52-1.095L92.871 0Z" fill="#ED9200"/><path opacity=".8" d="m92.871 4.527 2.19 4.381 4.82.73-3.505 3.432.876 4.819-4.38-2.264-4.308 2.264.876-4.82-3.505-3.43 4.819-.73 2.117-4.382Z" fill="#ED9200"/><path d="m43.587 16.646 3.358 6.864 7.52 1.095-5.475 5.33 1.314 7.447-6.717-3.505-6.79 3.505 1.314-7.447-5.476-5.33 7.593-1.095 3.359-6.864Z" fill="#ED9200"/><path opacity=".8" d="m43.587 21.246 2.117 4.38 4.892.657-3.504 3.432.803 4.819-4.308-2.264-4.38 2.264.876-4.819-3.505-3.431 4.819-.658 2.19-4.38Z" fill="#ED9200"/><path d="m142.226 16.646 3.359 6.864 7.593 1.095-5.476 5.33 1.315 7.447-6.791-3.505-6.717 3.505 1.315-7.447-5.476-5.33 7.52-1.095 3.358-6.864Z" fill="#ED9200"/><path opacity=".8" d="m142.226 21.246 2.191 4.38 4.819.657-3.505 3.432.876 4.819-4.381-2.264-4.307 2.264.803-4.819-3.505-3.431 4.892-.658 2.117-4.38Z" fill="#ED9200"/><path d="m92.87 191 3.432-6.79 7.52-1.095-5.475-5.33 1.314-7.52-6.79 3.577-6.718-3.577 1.315 7.52-5.476 5.33 7.52 1.095 3.359 6.79Z" fill="#ED9200"/><path opacity=".8" d="m92.871 186.473 2.19-4.381 4.82-.73-3.505-3.358.876-4.819-4.38 2.263-4.309-2.263.876 4.819-3.504 3.358 4.819.73 2.117 4.381Z" fill="#ED9200"/><path d="m43.587 174.353 3.358-6.864 7.52-1.095-5.475-5.257 1.314-7.52-6.717 3.505-6.79-3.505 1.314 7.52-5.476 5.257 7.593 1.095 3.359 6.864Z" fill="#ED9200"/><path opacity=".8" d="m43.587 169.826 2.117-4.381 4.892-.73-3.504-3.431.803-4.819-4.308 2.263-4.38-2.263.876 4.819-3.505 3.431 4.819.73 2.19 4.381Z" fill="#ED9200"/><path d="m142.226 174.353 3.359-6.864 7.593-1.095-5.476-5.257 1.315-7.52-6.791 3.505-6.717-3.505 1.315 7.52-5.476 5.257 7.52 1.095 3.358 6.864Z" fill="#ED9200"/><path opacity=".8" d="m142.226 169.826 2.191-4.381 4.819-.73-3.505-3.431.876-4.819-4.381 2.263-4.307-2.263.803 4.819-3.505 3.431 4.892.73 2.117 4.381Z" fill="#ED9200"/><path d="M71.552 138.723h45.341c5.695-41.69.803-75.275-.731-83.745H72.209c-1.46 8.47-6.425 42.056-.657 83.745Z" fill="url(#a)"/><path d="M120.908 138.724h43.004c.73 0 1.46-.146 2.117-.292 13.946-42.128 2.629-74.765-.876-83.307-.365-.073-.73-.073-1.168-.073h-43.807c1.533 8.396 6.498 41.982.73 83.672Z" fill="url(#b)"/><path d="M67.537 138.723c-5.695-41.69-.803-75.275.73-83.745H25.044c-.585 0-1.242.073-1.753.22-3.577 8.688-14.675 41.178-.876 83.014.803.292 1.752.438 2.629.438h42.493v.073Z" fill="url(#c)"/><path d="M157.558 49.94h-25.19v3.87c0 .512.146 1.023.365 1.388.22.365.512.584.804.584h2.847c.584 0 1.095-.803 1.168-1.752.073-1.607.438-3.505 1.46-3.505 1.169 0 2.118.365 3.14.73.949.365 1.971.73 3.213.876-2.41 2.775-4.308 5.476-5.695 7.959-1.388 2.628-1.607 6.206-1.169 8.25.292 1.387 1.169 2.336 2.045 2.336h9.491c.73 0 1.461-.51 1.972-1.46.511-.949.73-2.263.657-3.504-.146-2.41.146-7.74 1.168-9.346 1.022-1.752 2.409-4.089 3.724-6.425Z" fill="#4F0000"/><path d="M132.952 49.94v3.87c0 .293.073.512.146.73.146.22.292.293.438.293h2.848c.292 0 .584-.438.584-.95.073-1.022.292-2.993 1.095-3.942h-5.111ZM156.828 49.94h-15.405c.292.074.584.22.876.293 1.241.438 2.555.95 4.454.95h.438c-2.337 2.481-5.184 5.84-7.083 9.49-1.314 2.483-1.387 5.769-1.022 7.229.219 1.022.876 1.752 1.534 1.752h9.491c.584 0 1.168-.438 1.533-1.168s.584-1.752.511-2.775c-.146-2.482.073-8.25 1.315-10.148.876-1.46 2.117-3.505 3.358-5.622Z" fill="#fff"/><path d="M148.285 49.94h-2.92c.438.074.876.074 1.314.074.584.073 1.095 0 1.606-.073ZM133.611 49.94v2.848c0 .438.219.803.511.803h1.752c.219 0 .438-.292.511-.73.073-.73.219-1.971.657-2.993h-3.431v.073ZM155.805 49.94h-6.06c-2.409 2.337-6.717 6.791-9.126 11.537-1.095 2.117-1.168 4.892-.949 6.06.146.584.511.949.876.949h9.492c.365 0 .803-.292 1.022-.803.292-.511.365-1.168.365-1.899-.146-2.482 0-8.76 1.533-11.17.803-1.168 1.825-2.848 2.847-4.673Z" fill="#FF2C5A"/><path d="M87.903 147.12c-.876 0-1.679-.949-2.044-2.337-.438-2.044-.219-5.621 1.168-8.25 1.315-2.555 3.213-5.184 5.695-7.958-1.24-.146-2.263-.511-3.212-.876-1.022-.365-1.972-.731-3.14-.731-1.095 0-1.387 1.899-1.46 3.505-.073 1.022-.584 1.752-1.168 1.752h-2.848c-.292 0-.584-.219-.803-.584a2.796 2.796 0 0 1-.365-1.387v-10.368c0-1.971.876-3.65 2.044-3.796.22 0 .365-.073.585-.073H83.96c.292 0 .584 0 .949-.073.73-.073 1.533-.365 2.41-.657 1.387-.439 2.92-.95 4.526-.95 3.797 0 7.01 1.169 8.543 1.826.365.146.73.219 1.095.219s.73-.073 1.095-.219l1.971-.803h.146c.876 0 1.753.73 2.191 1.898.803 1.898.657 4.308-.219 5.987-1.68 2.993-4.016 7.009-5.476 9.345-1.023 1.607-1.314 6.937-1.169 9.346.073 1.314-.146 2.555-.657 3.505-.51.949-1.24 1.46-1.971 1.46h-9.492v.219Z" fill="#4F0000"/><path d="M87.903 146.17c-.657 0-1.241-.657-1.533-1.752-.365-1.533-.292-4.746 1.022-7.228 1.898-3.578 4.746-7.009 7.082-9.492h-.438c-1.898 0-3.212-.511-4.454-.949-1.095-.365-2.044-.73-3.285-.73-1.606 0-1.971 3.067-2.044 4.381 0 .511-.293.949-.585.949h-2.847c-.146 0-.292-.073-.438-.292-.146-.219-.146-.438-.146-.73v-10.368c0-1.46.657-2.701 1.533-2.847.146 0 .365-.073.584-.073h1.534c.291 0 .657 0 .949-.073.73-.073 1.606-.365 2.482-.657 1.314-.439 2.847-.95 4.38-.95 3.797 0 6.864 1.169 8.397 1.826.438.146.803.292 1.241.292.438 0 .804-.073 1.242-.219l1.898-.803h.073c.73 0 1.387.584 1.752 1.533.657 1.533.511 3.431-.219 4.746-1.679 2.993-4.015 7.009-5.476 9.345-1.24 1.971-1.46 7.666-1.314 10.149.073 1.022-.146 2.044-.511 2.774s-.95 1.168-1.533 1.168h-9.346Z" fill="#fff"/><path d="M106.083 119.156c-.219-.949-.803-1.533-1.387-1.533l-1.752.73a3.574 3.574 0 0 1-2.994 0c-1.825-.803-4.745-1.752-8.177-1.752-1.46 0-2.92.511-4.235.876-.949.292-1.752.584-2.555.657a8.872 8.872 0 0 1-1.971 0c-.438 0-.877-.073-1.169 0-.51.073-.876.803-.876 1.68v9.418c0 .438.22.803.511.803h1.753c.219 0 .438-.292.51-.73.074-1.387.585-4.6 2.702-4.6 1.314 0 2.337.365 3.432.804 1.241.438 2.482.949 4.308.949 1.606 0 2.774-.292 3.577-.584-2.263 2.117-7.01 6.936-9.638 11.974-1.095 2.117-1.168 4.891-.949 6.06.146.584.511.949.876.949h9.492c.365 0 .803-.292 1.022-.803.292-.511.365-1.169.365-1.899-.146-2.482 0-8.761 1.534-11.171 1.46-2.336 3.796-6.352 5.475-9.272.219-.584.365-1.606.146-2.556Z" fill="#FF2C5A"/><path d="M148.215 132.372a.95.95 0 0 1-.949-.365V131.788c0-.073 0-.073-.073-.146-1.315-7.667 3.65-12.924 9.126-14.676.146-.073.365-.073.511-.146.949-.146 1.534.292 1.68.73.146.438-.146 1.095-1.023 1.387-6.863 2.191-9.637 6.353-8.542 12.778v.073l-.073.073c-.146.292-.365.438-.657.511Z" fill="#4F0000"/><path d="M157.488 135.511c.365 4.016-3.286 7.593-8.105 8.031-4.818.438-8.98-2.482-9.345-6.571-.365-4.015 3.285-7.593 8.104-8.031 4.819-.365 8.981 2.555 9.346 6.571Z" fill="#4F0000"/><path d="M156.83 135.584c.292 3.724-2.993 7.009-7.447 7.374-4.454.366-8.323-2.336-8.615-6.06-.292-3.723 3.066-7.009 7.447-7.374 4.454-.365 8.25 2.337 8.615 6.06Z" fill="#DF0879"/><path d="M145.878 131.642c.219.365-.146.876-.657 1.168-.584.292-1.168.292-1.387-.073-.219-.365.146-.876.657-1.168.584-.292 1.168-.292 1.387.073Z" fill="#fff"/><path d="M149.31 131.715c.073.365-.438.803-1.022.876-.657.073-1.242-.146-1.242-.511-.073-.365.439-.803 1.023-.876.657-.073 1.168.146 1.241.511Z" fill="#99003D"/><path d="M143.542 132.956c.146.146.073.438-.219.73-.293.219-.585.292-.731.146-.146-.146-.073-.438.219-.73.292-.219.658-.292.731-.146Z" fill="#fff"/><path d="M152.889 131.788c.584.73 1.022 1.679 1.095 2.628.292 3.14-2.774 5.987-6.79 6.352a8.681 8.681 0 0 1-4.6-.876c1.388 1.679 3.87 2.701 6.644 2.482 4.016-.365 7.083-3.139 6.791-6.352-.146-1.825-1.388-3.358-3.14-4.234Z" fill="#99003D"/><path d="M138.649 134.342c-.365 0-.73-.219-.876-.511v-.365c-.073-7.812 5.695-12.12 11.463-12.996.146 0 .365-.073.511-.073 1.022 0 1.46.511 1.533 1.022 0 .438-.365 1.022-1.241 1.168-7.082 1.096-10.587 4.746-10.514 11.171v.073l-.073.073c-.219.365-.511.438-.803.438Z" fill="#4F0000"/><path d="M147.118 138.942c0 4.016-3.943 7.302-8.762 7.302-4.818 0-8.761-3.286-8.761-7.302 0-4.015 3.943-7.301 8.761-7.301 4.892 0 8.762 3.213 8.762 7.301Z" fill="#4F0000"/><path d="M146.461 138.942c0 3.724-3.578 6.717-8.104 6.717-4.454 0-8.105-2.993-8.105-6.717 0-3.724 3.578-6.717 8.105-6.717 4.526-.073 8.104 2.993 8.104 6.717Z" fill="#DF0879"/><path d="M135.874 134.05c.146.365-.219.876-.803 1.095-.584.292-1.168.219-1.387-.146-.146-.365.219-.876.803-1.095.657-.292 1.241-.219 1.387.146Z" fill="#fff"/><path d="M139.891 133.904c0 .365-.511.731-1.168.731-.657 0-1.169-.292-1.169-.731 0-.365.512-.73 1.169-.73.584.073 1.168.365 1.168.73Z" fill="#99003D"/><path d="M133.465 135.145c.146.146 0 .438-.292.657-.292.219-.584.219-.73.073-.146-.146 0-.438.292-.657.292-.219.657-.219.73-.073Z" fill="#fff"/><path d="M142.881 134.781c.511.803.876 1.752.876 2.701 0 3.14-3.285 5.695-7.301 5.695-1.752 0-3.286-.438-4.527-1.241 1.241 1.825 3.651 3.066 6.425 3.066 4.016 0 7.301-2.555 7.301-5.694 0-1.899-1.095-3.505-2.774-4.527Z" fill="#99003D"/><path d="M35.846 107.255c-.876 0-1.68-.949-2.044-2.336-.438-2.045-.22-5.622 1.168-8.25 1.314-2.556 3.212-5.184 5.695-7.959-1.241-.146-2.263-.511-3.213-.876-1.022-.365-1.97-.73-3.14-.73-1.094 0-1.386 1.898-1.46 3.504-.072 1.022-.583 1.753-1.168 1.753h-2.847c-.292 0-.584-.22-.803-.585a2.796 2.796 0 0 1-.365-1.387V80.022c0-1.972.876-3.651 2.044-3.797.22 0 .365-.073.584-.073h1.607c.292 0 .584 0 .949-.073.73-.073 1.533-.365 2.409-.657 1.387-.438 2.92-.95 4.527-.95 3.796 0 7.009 1.169 8.542 1.826.365.146.73.219 1.095.219s.73-.073 1.096-.219l1.97-.803h.147c.876 0 1.752.73 2.19 1.898.803 1.898.657 4.308-.219 5.987-1.679 2.994-4.015 7.01-5.476 9.346-1.022 1.606-1.314 6.936-1.168 9.345.073 1.314-.146 2.556-.657 3.505-.511.949-1.241 1.46-1.971 1.46h-9.492v.219Z" fill="#4F0000"/><path d="M35.846 106.306c-.657 0-1.241-.657-1.533-1.752-.366-1.533-.293-4.746 1.022-7.228 1.898-3.578 4.745-7.01 7.082-9.492h-.438c-1.898 0-3.213-.51-4.454-.949-1.095-.365-2.044-.73-3.285-.73-1.607 0-1.972 3.066-2.045 4.38 0 .512-.292.95-.584.95h-2.847c-.146 0-.292-.073-.438-.292-.146-.22-.146-.438-.146-.73V80.095c0-1.46.657-2.702 1.533-2.848.146 0 .365-.073.584-.073h1.533c.292 0 .657 0 .95-.073.73-.073 1.605-.365 2.482-.657 1.314-.438 2.847-.949 4.38-.949 3.797 0 6.863 1.168 8.397 1.825.438.146.803.293 1.241.293.438 0 .803-.073 1.241-.22l1.898-.803h.074c.73 0 1.387.584 1.752 1.534.657 1.533.51 3.431-.22 4.745-1.678 2.994-4.015 7.01-5.475 9.346-1.241 1.971-1.46 7.666-1.314 10.149.073 1.022-.146 2.044-.511 2.774-.366.73-.95 1.168-1.534 1.168h-9.345Z" fill="#fff"/><path d="M54.024 79.292c-.219-.95-.803-1.534-1.387-1.534l-1.752.73a3.574 3.574 0 0 1-2.994 0c-1.825-.802-4.746-1.752-8.177-1.752-1.46 0-2.92.511-4.235.876-.95.293-1.825.585-2.555.658a8.873 8.873 0 0 1-1.972 0c-.438 0-.876-.073-1.168 0-.511.073-.876.803-.876 1.679v9.418c0 .438.219.804.511.804h1.752c.22 0 .438-.293.511-.73.073-1.388.585-4.6 2.702-4.6 1.314 0 2.336.365 3.431.803 1.242.438 2.483.949 4.308.949 1.606 0 2.775-.292 3.578-.584-2.264 2.117-7.01 6.936-9.638 11.974-1.095 2.117-1.168 4.892-.95 6.06.147.584.512.949.877.949h9.492c.365 0 .803-.292 1.022-.803.292-.511.365-1.168.365-1.898-.146-2.483 0-8.762 1.533-11.171 1.46-2.337 3.797-6.352 5.476-9.273.22-.51.365-1.606.146-2.555Z" fill="#FF2C5A"/><path d="M95.791 91.778a.95.95 0 0 1-.95-.366V91.193c0-.073 0-.073-.072-.146-1.314-7.666 3.65-12.923 9.126-14.675.146-.073.365-.073.511-.146.95-.146 1.534.292 1.68.73.146.438-.146 1.095-1.022 1.387-6.864 2.19-9.638 6.352-8.543 12.777v.073l-.073.073c-.146.292-.438.438-.657.511Z" fill="#4F0000"/><path d="M105.063 94.917c.365 4.016-3.286 7.594-8.105 8.032-4.818.438-8.98-2.483-9.345-6.571-.365-4.016 3.285-7.594 8.104-8.032 4.819-.365 8.981 2.556 9.346 6.571Z" fill="#4F0000"/><path d="M104.334 94.99c.292 3.724-2.993 7.01-7.447 7.375-4.454.365-8.324-2.337-8.616-6.06-.292-3.724 3.067-7.01 7.448-7.375 4.453-.365 8.323 2.337 8.615 6.06Z" fill="#DF0879"/><path d="M93.454 91.048c.219.365-.146.876-.658 1.168-.584.292-1.168.292-1.387-.073-.219-.365.146-.876.657-1.168.584-.292 1.168-.292 1.388.073Z" fill="#fff"/><path d="M96.885 91.121c.073.365-.438.803-1.022.876-.657.073-1.241-.146-1.241-.51-.073-.366.438-.804 1.022-.877.584-.073 1.168.146 1.241.511Z" fill="#99003D"/><path d="M91.117 92.362c.146.146.073.438-.22.73-.291.22-.584.292-.73.146-.145-.146-.073-.438.22-.73.292-.219.584-.292.73-.146Z" fill="#fff"/><path d="M100.464 91.12c.584.73 1.022 1.68 1.095 2.629.292 3.14-2.774 5.987-6.79 6.352a8.677 8.677 0 0 1-4.6-.876c1.388 1.679 3.87 2.701 6.645 2.482 4.015-.365 7.082-3.14 6.79-6.352-.146-1.752-1.388-3.285-3.14-4.234Z" fill="#99003D"/><path d="M86.227 93.749c-.365 0-.73-.219-.876-.511v-.365c-.073-7.812 5.695-12.12 11.463-12.996.146 0 .365-.073.51-.073 1.023 0 1.46.51 1.534 1.022 0 .438-.365 1.022-1.241 1.168-7.083 1.095-10.587 4.746-10.514 11.17v.074l-.073.073c-.292.365-.511.438-.803.438Z" fill="#4F0000"/><path d="M94.696 98.349c0 4.015-3.943 7.301-8.762 7.301-4.819 0-8.761-3.286-8.761-7.301 0-4.016 3.942-7.302 8.761-7.302 4.819 0 8.762 3.213 8.762 7.302Z" fill="#4F0000"/><path d="M94.039 98.349c0 3.723-3.578 6.717-8.105 6.717-4.453 0-8.104-2.994-8.104-6.717 0-3.724 3.578-6.717 8.104-6.717 4.454-.073 8.105 2.993 8.105 6.717Z" fill="#DF0879"/><path d="M83.454 93.457c.146.365-.22.876-.804 1.095-.584.292-1.168.219-1.387-.146-.146-.365.22-.876.803-1.095.657-.293 1.242-.22 1.388.146Z" fill="#fff"/><path d="M87.395 93.311c0 .365-.51.73-1.168.73-.657 0-1.168-.292-1.168-.73 0-.365.511-.73 1.168-.73.657 0 1.168.365 1.168.73Z" fill="#99003D"/><path d="M81.043 94.552c.146.146 0 .438-.292.657-.292.22-.584.22-.73.073-.146-.146 0-.438.292-.657.292-.22.584-.22.73-.073Z" fill="#fff"/><path d="M90.459 94.187c.51.803.876 1.752.876 2.701 0 3.14-3.286 5.695-7.301 5.695-1.753 0-3.286-.438-4.527-1.241 1.241 1.825 3.65 3.067 6.425 3.067 4.016 0 7.301-2.556 7.301-5.695 0-1.898-1.095-3.505-2.774-4.527Z" fill="#99003D"/><path d="M146.457 103.679c4.235 0 18.107-.219 18.107-2.921 0-.146-.073-.292-.146-.438-.365-.949-1.752-3.87-5.841-6.279-.219-.146-.365-.365-.365-.584-.219-6.06-2.92-10.222-8.177-12.704-.292-1.022-1.314-2.483-3.651-2.483-2.263 0-3.285 1.46-3.65 2.483-5.257 2.482-7.959 6.644-8.178 12.704 0 .22-.146.511-.365.584-4.089 2.41-5.476 5.33-5.841 6.279-.073.146-.146.292-.146.438.146 2.702 14.018 2.921 18.253 2.921Z" fill="#4F0000"/><path d="M135.36 93.749c.073-3.943 1.168-9.492 8.105-12.631 0 0 .365-2.263 3.066-2.263 2.702 0 3.067 2.263 3.067 2.263 6.863 3.066 8.031 8.688 8.104 12.631 0 .292.146.511.365.657 4.965 2.774 5.987 6.279 5.987 6.279h-34.9s1.022-3.578 5.987-6.279c.073-.146.219-.365.219-.657Z" fill="#E29C00"/><path d="M146.457 79.73c-1.168 0-1.825.439-2.19.877.219-.511.803-1.387 2.19-1.387s1.972.803 2.191 1.387c-.366-.365-1.023-.876-2.191-.876ZM137.257 93.75c.073-3.87 1.168-9.2 7.593-12.34-5.695 3.724-6.133 9.419-5.768 13.361 0 .22-.073.511-.292.657-2.409 1.899-3.578 3.943-4.089 5.257h-3.796s1.022-3.577 5.987-6.279a.767.767 0 0 0 .365-.657Z" fill="#fff"/><path d="M129.008 100.685c0 1.241 7.812 2.264 17.45 2.264 9.637 0 17.45-1.023 17.45-2.264 0-1.241-7.813-2.263-17.45-2.263-9.638 0-17.45 1.022-17.45 2.263Z" fill="#4F0000"/><path d="M146.454 102.146c10.66 0 16.428-.95 16.647-1.461-.219-.511-5.987-1.46-16.647-1.46-10.659 0-16.427.949-16.646 1.46.292.511 5.987 1.461 16.646 1.461Z" fill="#0E0E0E"/><path d="M147.695 98.787a2.773 2.773 0 0 0 2.774 2.774 2.773 2.773 0 0 0 2.775-2.774 2.773 2.773 0 0 0-2.775-2.775c-1.533-.073-2.774 1.168-2.774 2.775Z" fill="#FFBD18"/><path d="M152.44 98.642c0-1.388-.876-2.556-2.263-2.629h.146a2.618 2.618 0 0 1 2.629 2.629c0 1.46-1.242 2.628-2.702 2.628 1.46-.073 2.19-1.241 2.19-2.628Z" fill="#fff"/><path d="M42.488 148.58c4.235 0 18.107-.219 18.107-2.92 0-.146-.073-.292-.146-.439-.365-.949-1.752-3.869-5.84-6.279-.22-.146-.366-.365-.366-.584-.219-6.06-2.92-10.221-8.177-12.704-.292-1.022-1.314-2.482-3.65-2.482-2.264 0-3.286 1.46-3.651 2.482-5.257 2.483-7.959 6.644-8.178 12.704 0 .219-.146.511-.365.584-4.088 2.41-5.476 5.33-5.84 6.279-.074.147-.147.293-.147.439.146 2.701 14.019 2.92 18.253 2.92Z" fill="#4F0000"/><path d="M31.39 138.65c.074-3.942 1.169-9.491 8.105-12.631 0 0 .365-2.263 3.067-2.263 2.701 0 3.066 2.263 3.066 2.263 6.863 3.067 8.032 8.689 8.105 12.631 0 .292.146.511.365.657 4.964 2.775 5.987 6.279 5.987 6.279H25.039s1.022-3.577 5.987-6.279a.767.767 0 0 0 .365-.657Z" fill="#E29C00"/><path d="M42.49 124.632c-1.168 0-1.825.438-2.19.876.219-.511.803-1.387 2.19-1.387s1.971.803 2.19 1.387c-.365-.365-1.022-.876-2.19-.876ZM33.288 138.651c.073-3.87 1.168-9.199 7.594-12.339-5.695 3.724-6.133 9.419-5.768 13.361 0 .219-.073.511-.292.657-2.41 1.899-3.578 3.943-4.09 5.257h-3.796s1.022-3.577 5.987-6.279a.767.767 0 0 0 .365-.657Z" fill="#fff"/><path d="M25.039 145.587c0 1.241 7.812 2.263 17.45 2.263 9.637 0 17.45-1.022 17.45-2.263 0-1.242-7.813-2.264-17.45-2.264-9.638 0-17.45 1.022-17.45 2.264Z" fill="#4F0000"/><path d="M42.487 147.046c10.66 0 16.428-.949 16.647-1.46-.219-.511-5.987-1.46-16.647-1.46-10.66 0-16.428.949-16.647 1.46.293.511 5.988 1.46 16.647 1.46Z" fill="#0E0E0E"/><path d="M43.727 143.688a2.773 2.773 0 0 0 2.775 2.774 2.773 2.773 0 1 0 0-5.548c-1.533-.073-2.775 1.241-2.775 2.774Z" fill="#FFBD18"/><path d="M48.473 143.542c0-1.388-.876-2.556-2.263-2.629h.146a2.618 2.618 0 0 1 2.628 2.629c0 1.46-1.24 2.628-2.701 2.628 1.46-.073 2.19-1.241 2.19-2.628Z" fill="#fff"/><path d="M106.01 54.977c-.219-.146-.365-.365-.365-.584 0-.876-.146-1.679-.219-2.41H82.354a13.446 13.446 0 0 0-.219 2.41c0 .22-.146.511-.365.584-4.088 2.41-5.476 5.33-5.84 6.28-.074.146-.147.291-.147.438 0 2.774 13.872 2.92 18.107 2.92 4.235 0 18.107-.219 18.107-2.92 0-.147-.073-.292-.146-.439-.365-1.022-1.752-3.87-5.841-6.279Z" fill="#4F0000"/><path d="M105.353 55.415a.767.767 0 0 1-.365-.657c0-.876-.073-1.825-.292-2.847H83.011a20.226 20.226 0 0 0-.219 2.847.767.767 0 0 1-.365.657c-4.965 2.775-5.987 6.28-5.987 6.28h34.9c-.073 0-1.022-3.578-5.987-6.28Z" fill="#E29C00"/><path d="M86.446 51.91H84.84c-.147 1.023-.22 1.972-.293 2.848a.767.767 0 0 1-.365.657c-4.964 2.775-5.987 6.28-5.987 6.28h3.797c.511-1.315 1.68-3.36 4.089-5.258.219-.146.292-.365.292-.657 0-1.168-.073-2.482.073-3.87Z" fill="#fff"/><path d="M76.367 61.694c0 1.242 7.812 2.264 17.45 2.264 9.638 0 17.45-1.022 17.45-2.264 0-1.24-7.812-2.263-17.45-2.263-9.638 0-17.45 1.022-17.45 2.264Z" fill="#4F0000"/><path d="M93.817 63.155c10.66 0 16.428-.95 16.647-1.46-.219-.511-5.987-1.46-16.647-1.46-10.66 0-16.427.949-16.646 1.46.292.51 5.987 1.46 16.646 1.46Z" fill="#0E0E0E"/><path d="M95.058 59.724a2.773 2.773 0 0 0 2.775 2.774 2.773 2.773 0 0 0 2.774-2.774 2.773 2.773 0 0 0-2.774-2.775 2.773 2.773 0 0 0-2.775 2.775Z" fill="#FFBD18"/><path d="M99.806 59.65c0-1.386-.876-2.554-2.264-2.627h.146a2.618 2.618 0 0 1 2.629 2.628c0 1.46-1.241 2.628-2.702 2.628 1.46-.073 2.19-1.24 2.19-2.628Z" fill="#fff"/><path d="M63.662 55.052H26.353v9.272h37.31v-9.272Z" fill="#000"/><path d="M41.246 59.212c.51-.22.657-.585.657-1.315 0-.949-.511-1.46-1.533-1.46h-2.41v1.095h.365v3.797h-.365v1.095h2.41c1.24 0 1.752-.511 1.752-1.752 0-.876-.365-1.314-.876-1.46Zm-1.607-1.68h.365c.22 0 .439.22.439.657 0 .438-.073.657-.439.657h-.365v-1.314Zm.511 3.724h-.51v-1.46h.51c.366 0 .511.292.511.73s-.218.73-.51.73ZM46.867 61.256l-1.095-4.892H43.29v1.095h.292l-.876 3.724h-.438v1.095h2.044v-1.095h-.511l.146-.584h1.314l.146.584h-.657v1.095h2.555v-1.095h-.438v.073Zm-2.701-1.607.438-1.825.438 1.825h-.876ZM51.614 60.672v.292c0 .146-.073.292-.146.292-.146 0-.146-.22-.146-.584 0-.584-.365-1.095-.803-1.241.511-.073.95-.585.95-1.242 0-.949-.293-1.752-1.753-1.752h-2.044v1.095h.365v3.724h-.365v1.095h2.044v-1.095h-.365v-1.314c.584 0 .657.219.657.949 0 1.022.365 1.606 1.241 1.606.73 0 .95-.657.95-1.387v-.438h-.585Zm-2.044-1.68h-.292v-1.46h.292c.365 0 .584.292.584.73s-.22.73-.584.73Z" fill="#fff"/><path d="M186.765 68.048c-2.263-10.514-5.622-16.94-8.177-20.59-1.825-2.628-4.819-4.088-7.958-4.088H18.4a9.718 9.718 0 0 0-7.813 3.942c-2.555 3.505-5.841 9.784-8.031 20.736C1.096 75.422.073 84.84.073 97.034c0 13.799 1.314 24.093 3.14 31.76 2.19 9.126 5.038 14.602 7.374 17.742 1.825 2.482 4.746 3.869 7.812 3.869H170.63c3.212 0 6.279-1.606 8.031-4.234 2.263-3.286 5.111-8.762 7.301-17.377 2.044-7.886 3.578-18.399 3.578-32.272-.073-11.828-1.169-21.173-2.775-28.474Zm-22.853 70.675H24.97c-2.409 0-4.672-1.095-6.133-3.066-1.168-1.533-2.409-3.724-3.65-6.936-2.41-6.206-4.527-16.136-4.527-31.76 0-13.362 1.533-22.634 3.505-28.913 1.533-4.82 3.212-7.959 4.672-9.93 1.46-1.971 3.724-3.066 6.133-3.066h139.015c2.483 0 4.819 1.168 6.206 3.212 1.388 2.044 3.14 5.184 4.673 9.857 2.118 6.352 3.797 15.478 3.797 28.474 0 15.552-2.41 25.701-5.038 32.199-1.168 2.92-2.409 5.111-3.432 6.644-1.387 2.044-3.723 3.285-6.279 3.285Z" fill="#ED9200"/><path d="M69.438 117.842c.438 6.644 1.095 13.653 2.117 20.881H67.54c-1.022-7.228-1.679-14.164-2.117-20.881l-.219-3.286c-.73-13.945-.365-26.284.292-36.214 0-.438.073-.876.073-1.314.803-10.806 1.972-18.545 2.629-22.05h4.015c-.584 3.505-1.825 11.244-2.628 22.05 0 .438-.073.876-.073 1.314-.657 9.93-1.022 22.269-.292 36.214l.219 3.286ZM123.247 114.556l-.219 3.286c-.438 6.644-1.095 13.653-2.117 20.881h-4.016c1.022-7.228 1.679-14.164 2.117-20.881l.219-3.286c.73-13.945.438-26.284-.292-36.214 0-.438-.073-.876-.073-1.314-.803-10.806-1.971-18.545-2.628-22.05h4.016c.584 3.505 1.825 11.244 2.628 22.05 0 .438.073.876.073 1.314.657 9.93 1.022 22.269.292 36.214Z" fill="#D17C00"/><path d="M166.105 138.432c1.679-.511 3.139-1.533 4.162-2.994 3.358-4.965 8.469-16.281 8.469-38.842 0-22.488-5.111-33.513-8.469-38.332-1.169-1.679-3.067-2.847-5.111-3.139 3.577 8.47 14.821 41.179.949 83.307ZM23.22 55.198c-1.752.438-3.286 1.387-4.38 2.847-3.36 4.527-8.251 15.26-8.251 38.843 0 23.583 4.892 34.169 8.25 38.696.876 1.168 2.118 2.117 3.505 2.556-13.8-41.69-2.702-74.254.876-82.942Z" fill="#0A3328"/><path opacity=".8" d="M15.187 128.721H3.14C1.314 121.054 0 110.76 0 96.961c0-12.12 1.022-21.612 2.482-28.986h11.682c-1.971 6.352-3.504 15.551-3.504 28.912 0 15.698 2.117 25.628 4.527 31.834ZM189.468 96.45c0 13.872-1.534 24.386-3.578 32.271h-12.193c2.628-6.498 5.038-16.647 5.038-32.198 0-12.997-1.68-22.123-3.797-28.475h11.828c1.606 7.301 2.702 16.647 2.702 28.402Z" fill="#ED9200"/><path d="M177.42 68.047c-1.825-6.498-4.088-10.66-5.914-13.215-1.533-2.19-4.088-3.504-6.79-3.504H23.584a8.437 8.437 0 0 0-6.717 3.358c-1.826 2.483-4.089 6.644-5.841 13.361-1.752 6.718-3.14 16.063-3.14 28.913 0 14.822 1.753 24.897 3.943 31.76 1.606 5.038 3.431 8.324 4.965 10.368 1.533 2.118 4.015 3.359 6.644 3.359H164.57c2.775 0 5.33-1.315 6.863-3.651 1.461-2.117 3.213-5.403 4.819-10.076 2.41-7.082 4.454-17.449 4.454-32.198.073-12.485-1.314-21.758-3.286-28.475Zm-3.723 60.673c-1.168 2.921-2.41 5.111-3.432 6.645-1.387 2.117-3.796 3.358-6.279 3.358H24.971c-2.41 0-4.673-1.095-6.133-3.066-1.168-1.534-2.41-3.724-3.65-6.937-2.41-6.206-4.527-16.135-4.527-31.76 0-13.361 1.533-22.634 3.504-28.913 1.534-4.818 3.213-7.958 4.673-9.93 1.46-1.97 3.724-3.066 6.133-3.066h139.015c2.483 0 4.819 1.168 6.206 3.213 1.387 2.044 3.14 5.184 4.673 9.856 2.117 6.352 3.797 15.479 3.797 28.475.073 15.479-2.337 25.7-4.965 32.125Z" fill="#935700"/><path d="M25.043 57.607h139.015c2.483 0 4.819 1.168 6.206 3.212 3.286 4.673 8.251 15.406 8.47 37.018v-1.315c0-22.487-5.111-33.512-8.47-38.331-1.387-2.044-3.723-3.213-6.206-3.213H25.043c-2.41 0-4.673 1.169-6.133 3.067-3.358 4.527-8.25 15.26-8.25 38.843v1.314c.146-22.707 4.964-33.075 8.25-37.529 1.387-1.898 3.724-3.066 6.133-3.066Z" fill="#935700"/><path d="M25.043 136.095h139.015c2.483 0 4.819-1.168 6.206-3.212 3.286-4.673 8.251-15.406 8.47-37.018v1.315c0 22.487-5.111 33.512-8.47 38.331-1.387 2.044-3.723 3.213-6.206 3.213H25.043c-2.41 0-4.673-1.169-6.133-3.067-3.358-4.527-8.25-15.259-8.25-38.842V95.5c.146 22.706 4.964 33.074 8.25 37.528 1.387 1.898 3.724 3.066 6.133 3.066Z" fill="#935700"/><path d="M20.664 98.787 6.646 89.44v18.691l14.018-9.346Z" fill="#BF4D00"/><path d="M18.182 98.787 6.646 89.44v18.691l11.536-9.346Z" fill="#ED9200"/><path d="m168.949 98.787 14.019-9.346v18.691l-14.019-9.346Z" fill="#BF4D00"/><path d="m171.359 98.787 11.608-9.346v18.691l-11.608-9.346Z" fill="#ED9200"/><path opacity=".8" d="M152.888 47.094a1.885 1.885 0 0 1-1.898 1.898H42.42a1.885 1.885 0 0 1-1.897-1.898c0-1.023.803-1.899 1.898-1.899h108.642c1.022 0 1.825.803 1.825 1.899ZM152.888 146.317a1.885 1.885 0 0 1-1.898 1.898H42.42a1.885 1.885 0 0 1-1.897-1.898c0-1.022.803-1.899 1.898-1.899h108.642c1.022.073 1.825.877 1.825 1.899ZM69.58 78.342c-.657 9.93-1.022 22.269-.292 36.214h-4.016c-.73-13.945-.365-26.284.292-36.214h4.016ZM123.245 114.556h-4.015c.73-13.945.438-26.284-.293-36.214h4.016c.657 9.93 1.022 22.269.292 36.214Z" fill="#ED9200"/><defs><linearGradient id="a" x1="94.234" y1="52.41" x2="94.234" y2="139.829" gradientUnits="userSpaceOnUse"><stop stop-color="#734E3D"/><stop offset=".11" stop-color="#D4B095"/><stop offset=".5" stop-color="#FFFCE3"/><stop offset=".92" stop-color="#D4B095"/><stop offset="1" stop-color="#734E3D"/></linearGradient><linearGradient id="b" x1="146.539" y1="52.41" x2="146.539" y2="139.829" gradientUnits="userSpaceOnUse"><stop stop-color="#734E3D"/><stop offset=".11" stop-color="#D4B095"/><stop offset=".5" stop-color="#FFFCE3"/><stop offset=".92" stop-color="#D4B095"/><stop offset="1" stop-color="#734E3D"/></linearGradient><linearGradient id="c" x1="41.928" y1="52.41" x2="41.928" y2="139.829" gradientUnits="userSpaceOnUse"><stop stop-color="#734E3D"/><stop offset=".11" stop-color="#D4B095"/><stop offset=".5" stop-color="#FFFCE3"/><stop offset=".92" stop-color="#D4B095"/><stop offset="1" stop-color="#734E3D"/></linearGradient></defs></svg>