<svg width="227" height="197" viewBox="0 0 227 197" fill="none" xmlns="http://www.w3.org/2000/svg"><path d="M191.44 183.496 0 183.252l13.504-23.831H178.18l1.955 3.483 10.144 18.514 1.161 2.078Z" fill="#3F2F34"/><path d="M191.379 183.252H.061V197H191.38v-13.748Z" fill="#221E1F"/><path opacity=".2" d="M190.279 181.418c-7.271.062-14.726.123-22.303.123-76.136 0-137.851-4.155-137.851-9.349 0-5.133 61.715-9.349 137.851-9.349 4.094 0 8.127 0 12.099.061l10.204 18.514Z" fill="#B2798C"/><path d="m208.976 64.832-5.622 13.443-13.381 32.202-.673-12.832 8.555-20.776 6.294-15.276 4.827 3.239Z" fill="#E08500"/><path d="M190.767 94.467v16.132c0 2.627-1.405 5.071-3.849 6.721h-.062c-.672 2.689-2.138 5.133-4.338 6.905l-.855.733V80.046l.855.734a12.678 12.678 0 0 1 4.155 6.232l.183.734h.062l.733.55c1.955 1.65 3.116 3.849 3.116 6.171Z" fill="#900"/><path d="M226.573 52.977c0 8.25-6.722 14.97-14.971 14.97-8.249 0-14.97-6.72-14.97-14.97 0-8.249 6.721-14.97 14.97-14.97s14.971 6.66 14.971 14.97Z" fill="#CE0000"/><path d="M215.635 61.777c-7.21 0-13.076-5.866-13.076-13.077 0-4.033 1.833-7.638 4.705-10.02-6.172 1.832-10.632 7.576-10.632 14.359 0 8.249 6.721 14.97 14.97 14.97 7.088 0 12.954-4.888 14.543-11.487-2.444 3.177-6.233 5.255-10.51 5.255Z" fill="#CE0000"/><path d="M223.517 52c-1.894 2.627-6.721 2.383-10.754-.55-4.033-2.933-5.805-7.455-3.911-10.021 1.894-2.628 6.722-2.383 10.755.55 4.032 2.872 5.804 7.393 3.91 10.02Z" fill="#F23838"/><path d="M171.337 41.734h-29.024c-4.95-21.142-23.892-36.907-46.561-36.907-22.67 0-41.612 15.765-46.562 36.907H20.166c-4.4 0-7.944 4.46-7.944 9.96v99.356c0 5.499 3.544 9.96 7.944 9.96h151.171c4.4 0 7.944-4.461 7.944-9.96V51.694c0-5.5-3.544-9.96-7.944-9.96Z" fill="#1C231B"/><path opacity=".4" d="M160.766 55.483h-24.992c-4.277-18.21-20.592-31.713-40.084-31.713-19.492 0-35.807 13.565-40.084 31.713H30.614c-3.788 0-6.844 3.85-6.844 8.554v85.485c0 4.705 3.056 8.555 6.844 8.555h130.091c3.788 0 6.844-3.85 6.844-8.555V64.037c.061-4.705-2.994-8.554-6.783-8.554Z" fill="#5E305A"/><path d="M171.337 165.959H20.165c-3.605 0-7.027-1.711-9.471-4.766-2.2-2.75-3.422-6.355-3.422-10.082V51.694c0-3.788 1.222-7.332 3.422-10.082 2.444-3.055 5.866-4.766 9.471-4.766h25.236c3.116-9.899 9.166-18.76 17.293-25.297a52.516 52.516 0 0 1 15.215-8.494A53.064 53.064 0 0 1 95.69 0a53.06 53.06 0 0 1 17.781 3.055 52.512 52.512 0 0 1 15.215 8.494c8.127 6.538 14.176 15.398 17.293 25.297h25.236c3.605 0 7.027 1.71 9.471 4.766 2.2 2.75 3.422 6.355 3.422 10.082v99.356c0 3.788-1.222 7.332-3.422 10.082-2.322 3.055-5.744 4.827-9.349 4.827ZM20.165 46.684c-1.405 0-2.994 2.138-2.994 5.01v99.356c0 2.872 1.589 5.01 2.994 5.01h151.172c1.405 0 2.994-2.138 2.994-5.01V51.694c0-2.872-1.589-5.01-2.994-5.01h-32.935l-.917-3.789C132.902 23.403 115.732 9.838 95.69 9.838S58.478 23.464 53.895 42.895l-.917 3.789H20.165Z" fill="#E20000"/><path d="M171.338 162.72H20.167c-5.317 0-9.655-5.255-9.655-11.671V51.694c0-6.416 4.338-11.67 9.655-11.67h27.68c2.688-10.144 8.677-19.37 16.926-25.97A47.78 47.78 0 0 1 79.07 6.049a50.227 50.227 0 0 1 33.485 0c5.194 1.833 9.96 4.522 14.299 8.005 8.249 6.66 14.237 15.826 16.925 25.97h27.681c5.316 0 9.654 5.254 9.654 11.67v99.355c-.122 6.416-4.46 11.671-9.777 11.671ZM20.167 43.445c-3.422 0-6.233 3.666-6.233 8.249v99.355c0 4.522 2.81 8.25 6.233 8.25h151.171c3.422 0 6.233-3.667 6.233-8.25V51.694c0-4.522-2.811-8.249-6.233-8.249H140.97l-.306-1.344c-4.888-20.96-23.342-35.563-44.911-35.563-21.51 0-40.024 14.604-44.912 35.563l-.306 1.344H20.167Z" fill="#F24949"/><path d="M101.675 4.338a4.25 4.25 0 0 1-4.277 4.278 4.25 4.25 0 0 1-4.277-4.278A4.25 4.25 0 0 1 97.398.061c2.322 0 4.277 1.894 4.277 4.277Z" fill="#FF9100"/><path opacity=".5" d="M100.818 4.46c-.061 1.895-1.65 3.422-3.544 3.361-1.894-.061-3.422-1.65-3.36-3.544.06-1.894 1.65-3.422 3.544-3.36 1.894.06 3.36 1.65 3.36 3.543Z" fill="#FFFAA4"/><path d="M75.034 12.587a4.251 4.251 0 0 1-4.277 4.278 4.251 4.251 0 0 1-4.278-4.278 4.251 4.251 0 0 1 4.278-4.277 4.251 4.251 0 0 1 4.277 4.277Z" fill="#FF9100"/><path opacity=".5" d="M74.177 12.649c-.061 1.894-1.65 3.422-3.544 3.36-1.894-.06-3.422-1.65-3.36-3.543.06-1.895 1.649-3.422 3.543-3.361 1.956.122 3.422 1.65 3.361 3.544Z" fill="#FFFAA4"/><path d="M56.638 34.035a4.25 4.25 0 0 1-4.277 4.277 4.25 4.25 0 0 1-4.277-4.277 4.25 4.25 0 0 1 4.277-4.277c2.322 0 4.277 1.894 4.277 4.277Z" fill="#FF9100"/><path opacity=".5" d="M55.722 34.096c-.061 1.894-1.65 3.422-3.544 3.36-1.894-.06-3.422-1.649-3.36-3.543.06-1.894 1.65-3.422 3.543-3.36 1.956.121 3.422 1.649 3.361 3.543Z" fill="#FFFAA4"/><path d="M42.464 41.734a4.25 4.25 0 0 1-4.278 4.277 4.25 4.25 0 0 1-4.277-4.277 4.251 4.251 0 0 1 4.277-4.278c2.322 0 4.278 1.956 4.278 4.278Z" fill="#FF9100"/><path opacity=".5" d="M41.607 41.856c-.061 1.894-1.65 3.422-3.544 3.36-1.894-.06-3.422-1.65-3.36-3.543.06-1.895 1.649-3.422 3.543-3.361 1.894.06 3.422 1.65 3.36 3.544Z" fill="#FFFAA4"/><path d="M19.184 43.445a4.251 4.251 0 0 1-4.277 4.277 4.251 4.251 0 0 1-4.277-4.277 4.25 4.25 0 0 1 4.277-4.278c2.383 0 4.277 1.956 4.277 4.278Z" fill="#FF9100"/><path opacity=".5" d="M18.328 43.567c-.061 1.894-1.65 3.422-3.544 3.36-1.895-.06-3.422-1.65-3.361-3.544.06-1.894 1.65-3.421 3.544-3.36 1.955.06 3.422 1.65 3.36 3.544Z" fill="#FFFAA4"/><path d="M16.49 65.748a4.25 4.25 0 0 1-4.277 4.277 4.251 4.251 0 0 1-4.277-4.277 4.251 4.251 0 0 1 4.277-4.277c2.383 0 4.277 1.955 4.277 4.277Z" fill="#FF9100"/><path opacity=".5" d="M15.633 65.87c-.06 1.894-1.65 3.422-3.544 3.36-1.894-.06-3.422-1.649-3.36-3.543.06-1.895 1.65-3.422 3.544-3.361 1.894.061 3.421 1.65 3.36 3.544Z" fill="#FFFAA4"/><path d="M16.49 90.251a4.25 4.25 0 0 1-4.277 4.278 4.251 4.251 0 0 1-4.277-4.278 4.25 4.25 0 0 1 4.277-4.277c2.383-.061 4.277 1.894 4.277 4.277Z" fill="#FF9100"/><path opacity=".5" d="M15.633 90.312c-.06 1.895-1.65 3.422-3.544 3.361-1.894-.061-3.422-1.65-3.36-3.544.06-1.894 1.65-3.422 3.544-3.36 1.894.06 3.421 1.65 3.36 3.543Z" fill="#FFFAA4"/><path d="M16.49 114.692a4.252 4.252 0 0 1-4.277 4.278 4.252 4.252 0 0 1-4.277-4.278 4.25 4.25 0 0 1 4.277-4.277c2.383-.061 4.277 1.894 4.277 4.277Z" fill="#FF9100"/><path opacity=".5" d="M15.633 114.753c-.06 1.895-1.65 3.422-3.544 3.361-1.894-.061-3.422-1.65-3.36-3.544.06-1.894 1.65-3.422 3.544-3.361 1.894.061 3.421 1.65 3.36 3.544Z" fill="#FFFAA4"/><path d="M16.49 139.134a4.252 4.252 0 0 1-4.277 4.278 4.252 4.252 0 0 1-4.277-4.278 4.25 4.25 0 0 1 4.277-4.277 4.25 4.25 0 0 1 4.277 4.277Z" fill="#FF9100"/><path opacity=".5" d="M15.633 139.195c-.06 1.894-1.65 3.422-3.544 3.361-1.894-.061-3.422-1.65-3.36-3.544.06-1.894 1.65-3.422 3.544-3.361 1.894.061 3.421 1.65 3.36 3.544Z" fill="#FFFAA4"/><path d="M19.123 158.871a4.25 4.25 0 0 1-4.277 4.277 4.25 4.25 0 0 1-4.277-4.277 4.25 4.25 0 0 1 4.277-4.277 4.25 4.25 0 0 1 4.277 4.277Z" fill="#FF9100"/><path opacity=".5" d="M18.266 158.932c-.061 1.894-1.65 3.422-3.544 3.361-1.894-.061-3.422-1.65-3.36-3.544.06-1.894 1.65-3.422 3.543-3.361 1.895.061 3.422 1.65 3.361 3.544Z" fill="#FFFAA4"/><path d="M116.461 12.588a4.25 4.25 0 0 0 4.277 4.277 4.25 4.25 0 0 0 4.277-4.277 4.25 4.25 0 0 0-4.277-4.277 4.25 4.25 0 0 0-4.277 4.277Z" fill="#FF9100"/><path opacity=".5" d="M117.317 12.649c.061 1.894 1.649 3.422 3.544 3.36 1.894-.06 3.421-1.65 3.36-3.543-.061-1.895-1.649-3.422-3.544-3.361-1.894.122-3.422 1.65-3.36 3.544Z" fill="#FFFAA4"/><path d="M134.915 34.035a4.25 4.25 0 0 0 4.277 4.277 4.25 4.25 0 0 0 4.277-4.277 4.25 4.25 0 0 0-4.277-4.278 4.25 4.25 0 0 0-4.277 4.278Z" fill="#FF9100"/><path opacity=".5" d="M135.771 34.096c.061 1.894 1.649 3.422 3.544 3.36 1.894-.06 3.421-1.65 3.36-3.544-.061-1.894-1.649-3.421-3.544-3.36-1.955.122-3.422 1.65-3.36 3.544Z" fill="#FFFAA4"/><path d="M149.031 41.734a4.25 4.25 0 0 0 4.277 4.277 4.252 4.252 0 0 0 4.278-4.277 4.252 4.252 0 0 0-4.278-4.278c-2.322 0-4.277 1.956-4.277 4.278Z" fill="#FF9100"/><path opacity=".5" d="M149.887 41.856c.061 1.894 1.65 3.422 3.544 3.36 1.894-.06 3.422-1.65 3.361-3.543-.062-1.895-1.65-3.422-3.545-3.361-1.894.06-3.36 1.65-3.36 3.544Z" fill="#FFFAA4"/><path d="M172.31 43.445a4.251 4.251 0 0 0 4.278 4.277 4.25 4.25 0 0 0 4.277-4.277 4.25 4.25 0 0 0-4.277-4.278c-2.384 0-4.278 1.956-4.278 4.278Z" fill="#FF9100"/><path opacity=".5" d="M173.166 43.567c.061 1.894 1.65 3.422 3.544 3.36 1.894-.06 3.422-1.65 3.361-3.544-.061-1.894-1.65-3.421-3.544-3.36-1.894.06-3.422 1.65-3.361 3.544Z" fill="#FFFAA4"/><path d="M175.001 65.748a4.25 4.25 0 0 0 4.277 4.277 4.25 4.25 0 0 0 4.277-4.277 4.25 4.25 0 0 0-4.277-4.277c-2.383 0-4.277 1.955-4.277 4.277Z" fill="#FF9100"/><path opacity=".5" d="M175.857 65.87c.061 1.894 1.65 3.422 3.544 3.36 1.894-.06 3.422-1.649 3.36-3.543-.061-1.895-1.649-3.422-3.544-3.361-1.894.061-3.421 1.65-3.36 3.544Z" fill="#FFFAA4"/><path d="M175.001 90.25a4.25 4.25 0 0 0 4.277 4.278 4.25 4.25 0 0 0 4.277-4.277 4.25 4.25 0 0 0-4.277-4.277c-2.383-.062-4.277 1.894-4.277 4.277Z" fill="#FF9100"/><path opacity=".5" d="M175.857 90.312c.061 1.894 1.65 3.422 3.544 3.36 1.894-.06 3.422-1.65 3.36-3.543-.061-1.895-1.649-3.422-3.544-3.361-1.894.061-3.421 1.65-3.36 3.544Z" fill="#FFFAA4"/><path d="M175.001 114.692a4.251 4.251 0 0 0 4.277 4.278 4.251 4.251 0 0 0 4.277-4.278 4.25 4.25 0 0 0-4.277-4.277c-2.383-.061-4.277 1.894-4.277 4.277Z" fill="#FF9100"/><path opacity=".5" d="M175.857 114.753c.061 1.895 1.65 3.422 3.544 3.361 1.894-.061 3.422-1.65 3.36-3.544-.061-1.894-1.649-3.422-3.544-3.361-1.894.061-3.421 1.65-3.36 3.544Z" fill="#FFFAA4"/><path d="M175.001 139.134a4.251 4.251 0 0 0 4.277 4.278 4.251 4.251 0 0 0 4.277-4.278 4.25 4.25 0 0 0-4.277-4.277 4.25 4.25 0 0 0-4.277 4.277Z" fill="#FF9100"/><path opacity=".5" d="M175.857 139.195c.061 1.894 1.65 3.422 3.544 3.361 1.894-.061 3.422-1.65 3.36-3.544-.061-1.894-1.649-3.422-3.544-3.361-1.894.061-3.421 1.65-3.36 3.544Z" fill="#FFFAA4"/><path d="M172.374 158.871a4.25 4.25 0 0 0 4.277 4.277 4.25 4.25 0 0 0 4.277-4.277 4.25 4.25 0 0 0-4.277-4.278c-2.322 0-4.277 1.894-4.277 4.278Z" fill="#FF9100"/><path opacity=".5" d="M173.229 158.932c.061 1.894 1.65 3.421 3.544 3.36 1.895-.061 3.422-1.65 3.361-3.544-.061-1.894-1.65-3.422-3.544-3.36-1.894.061-3.422 1.649-3.361 3.544Z" fill="#FFFAA4"/><path d="M109.255 156.305a4.251 4.251 0 0 0-4.278 4.277 4.251 4.251 0 0 0 4.278 4.277 4.25 4.25 0 0 0 4.277-4.277c.061-2.383-1.894-4.277-4.277-4.277Z" fill="#FF9100"/><path opacity=".5" d="M109.194 157.16c-1.894.061-3.422 1.65-3.361 3.544.061 1.894 1.65 3.422 3.544 3.361 1.895-.061 3.422-1.65 3.361-3.544-.061-1.956-1.65-3.422-3.544-3.361Z" fill="#FFFAA4"/><path d="M131.984 156.305a4.25 4.25 0 0 0-4.277 4.277 4.25 4.25 0 0 0 4.277 4.277 4.251 4.251 0 0 0 4.278-4.277c.061-2.383-1.895-4.277-4.278-4.277Z" fill="#FF9100"/><path opacity=".5" d="M131.923 157.16c-1.894.061-3.421 1.65-3.36 3.544.061 1.894 1.65 3.422 3.544 3.361 1.894-.061 3.422-1.65 3.361-3.544-.062-1.956-1.65-3.422-3.545-3.361Z" fill="#FFFAA4"/><path d="M154.714 156.305a4.251 4.251 0 0 0-4.278 4.277 4.251 4.251 0 0 0 4.278 4.277 4.25 4.25 0 0 0 4.277-4.277c.061-2.383-1.894-4.277-4.277-4.277Z" fill="#FF9100"/><path opacity=".5" d="M154.653 157.16c-1.894.061-3.422 1.65-3.361 3.544.061 1.894 1.65 3.422 3.544 3.361 1.894-.061 3.422-1.65 3.361-3.544-.061-1.956-1.65-3.422-3.544-3.361Z" fill="#FFFAA4"/><path d="M84.813 156.305a4.25 4.25 0 0 0-4.277 4.277 4.25 4.25 0 0 0 4.277 4.277 4.25 4.25 0 0 0 4.277-4.277 4.25 4.25 0 0 0-4.277-4.277Z" fill="#FF9100"/><path opacity=".5" d="M84.752 157.16c-1.894.061-3.422 1.65-3.36 3.544.06 1.894 1.65 3.422 3.544 3.361 1.894-.061 3.421-1.65 3.36-3.544-.06-1.956-1.65-3.422-3.544-3.361Z" fill="#FFFAA4"/><path d="M60.37 156.305a4.25 4.25 0 0 0-4.278 4.277 4.25 4.25 0 0 0 4.278 4.277 4.25 4.25 0 0 0 4.277-4.277 4.25 4.25 0 0 0-4.278-4.277Z" fill="#FF9100"/><path opacity=".5" d="M60.309 157.16c-1.895.061-3.422 1.65-3.361 3.544.061 1.894 1.65 3.422 3.544 3.361 1.894-.061 3.422-1.65 3.36-3.544-.121-1.956-1.649-3.422-3.543-3.361Z" fill="#FFFAA4"/><path d="M35.928 156.305a4.25 4.25 0 0 0-4.277 4.277 4.25 4.25 0 0 0 4.277 4.277 4.25 4.25 0 0 0 4.277-4.277 4.25 4.25 0 0 0-4.277-4.277Z" fill="#FF9100"/><path opacity=".5" d="M35.867 157.16c-1.894.061-3.422 1.65-3.36 3.544.06 1.894 1.649 3.422 3.543 3.361 1.895-.061 3.422-1.65 3.361-3.544-.122-1.956-1.65-3.422-3.544-3.361Z" fill="#FFFAA4"/><path d="M78.333 146.528h34.035c4.277-31.285.611-56.46-.55-62.815H78.822c-1.04 6.355-4.767 31.53-.49 62.815Z" fill="url(#a)"/><path d="M115.425 146.528h32.263c.55 0 1.1-.061 1.589-.244 10.449-31.591 1.955-56.155-.672-62.51-.306-.061-.55-.061-.856-.061h-32.874c1.1 6.355 4.827 31.53.55 62.815Z" fill="url(#b)"/><path d="M75.34 146.528c-4.277-31.285-.611-56.46.55-62.815H43.443a5.09 5.09 0 0 0-1.344.183c-2.688 6.538-10.998 30.919-.672 62.327a5.3 5.3 0 0 0 1.955.366H75.34v-.061Z" fill="url(#c)"/><path d="M142.921 79.924h-18.942v2.872c0 .367.061.795.244 1.039.183.306.367.428.611.428h2.139c.427 0 .794-.55.855-1.345.061-1.222.306-2.627 1.1-2.627.856 0 1.589.244 2.383.55.733.244 1.467.55 2.444.672-1.833 2.078-3.238 4.094-4.277 5.988-1.039 1.956-1.222 4.644-.855 6.172.244 1.038.855 1.772 1.527 1.772h7.088c.55 0 1.1-.428 1.467-1.1.366-.733.55-1.65.489-2.627-.123-1.834.061-5.805.855-7.028.856-1.283 1.894-3.055 2.872-4.766Z" fill="#4F0000"/><path d="M124.407 79.924v2.872c0 .183.061.428.122.55.061.122.183.245.305.245h2.139c.244 0 .428-.306.428-.673.061-.733.183-2.26.794-2.933h-3.788v-.06ZM142.372 79.924h-11.549c.184.061.428.122.611.245.978.366 1.956.733 3.361.733h.367c-1.772 1.833-3.911 4.4-5.316 7.088-.978 1.894-1.039 4.339-.795 5.438.184.795.611 1.284 1.161 1.284h7.088c.428 0 .856-.306 1.161-.856.306-.55.428-1.344.428-2.077-.122-1.895.061-6.172.978-7.638.672-1.1 1.588-2.69 2.505-4.217Z" fill="#fff"/><path d="M135.957 79.924h-2.139c.305.06.672.061.978.061.427 0 .794-.061 1.161-.061ZM124.958 79.924v2.138c0 .367.183.612.366.612h1.283c.184 0 .367-.245.367-.55.061-.55.183-1.467.489-2.261h-2.505v.06ZM141.638 79.924h-4.522c-1.772 1.71-5.01 5.072-6.904 8.677-.856 1.588-.917 3.666-.673 4.521.123.428.367.734.673.734h7.088c.305 0 .611-.245.794-.611a2.63 2.63 0 0 0 .244-1.406c-.122-1.894 0-6.6 1.161-8.371.55-.978 1.345-2.261 2.139-3.544Z" fill="#FF2C5A"/><path d="M90.62 152.822c-.673 0-1.284-.672-1.528-1.772-.367-1.528-.183-4.216.855-6.172.978-1.894 2.444-3.91 4.278-5.988-.917-.122-1.711-.428-2.445-.672-.794-.306-1.527-.55-2.383-.55-.794 0-1.038 1.467-1.1 2.628-.06.733-.427 1.344-.855 1.344h-2.139c-.244 0-.427-.184-.61-.428-.184-.305-.245-.672-.245-1.039v-7.821c0-1.467.672-2.689 1.528-2.872.122 0 .305-.061.488-.061h1.222c.245 0 .428 0 .673-.061.55-.061 1.16-.245 1.833-.489 1.039-.306 2.2-.733 3.36-.733 2.872 0 5.255.855 6.416 1.405.245.122.55.183.856.183.305 0 .55-.061.794-.183l1.467-.611h.122c.672 0 1.283.55 1.65 1.467.55 1.405.489 3.238-.184 4.46-1.283 2.261-2.994 5.255-4.155 7.027-.794 1.222-.977 5.255-.855 7.027.061.978-.122 1.894-.489 2.628-.367.733-.917 1.1-1.467 1.1H90.62v.183Z" fill="#4F0000"/><path d="M90.62 152.15c-.49 0-.978-.55-1.161-1.284-.245-1.161-.184-3.544.794-5.438 1.405-2.688 3.544-5.255 5.316-7.088h-.367c-1.405 0-2.383-.367-3.36-.733-.795-.306-1.528-.55-2.445-.55-1.222 0-1.466 2.322-1.527 3.3 0 .427-.245.672-.428.672h-2.138c-.123 0-.245-.061-.306-.245a1.456 1.456 0 0 1-.122-.55v-7.821c0-1.1.489-2.016 1.16-2.139H87.627c.244 0 .488 0 .733-.061.55-.061 1.16-.244 1.894-.489.978-.305 2.139-.672 3.3-.672 2.81 0 5.194.856 6.293 1.345.306.122.611.183.917.183.305 0 .611-.061.916-.183l1.467-.611h.061c.55 0 1.039.427 1.344 1.16.489 1.161.428 2.567-.122 3.606-1.283 2.199-2.994 5.255-4.094 7.027-.916 1.466-1.1 5.743-.977 7.638.06.733-.123 1.527-.428 2.077-.306.55-.734.856-1.161.856h-7.15Z" fill="#fff"/><path d="M104.246 131.802c-.183-.733-.55-1.161-1.039-1.161l-1.283.55a2.907 2.907 0 0 1-2.26 0c-1.345-.611-3.545-1.283-6.111-1.283-1.1 0-2.2.366-3.178.672-.672.244-1.344.428-1.955.489a5.876 5.876 0 0 1-1.466 0c-.367 0-.611-.061-.856 0-.367.061-.672.611-.672 1.283v7.088c0 .367.183.611.367.611h1.283c.183 0 .366-.244.366-.55.062-1.039.428-3.483 2.017-3.483.977 0 1.772.306 2.566.611.917.367 1.894.672 3.239.672 1.222 0 2.077-.183 2.688-.427-1.71 1.588-5.255 5.193-7.271 8.982-.855 1.589-.917 3.666-.672 4.522.122.427.366.733.672.733h7.088c.306 0 .611-.245.794-.611.184-.367.306-.917.245-1.406-.122-1.894 0-6.599 1.16-8.371 1.101-1.772 2.812-4.766 4.095-6.966.305-.427.366-1.222.183-1.955Z" fill="#FF2C5A"/><path d="M135.894 141.762c-.306.061-.55-.061-.672-.244v-.245c-.978-5.744 2.75-9.654 6.905-10.999.122-.061.244-.061.366-.061.733-.122 1.161.184 1.222.55.061.367-.122.795-.794 1.039-5.133 1.65-7.21 4.766-6.416 9.593v.062l-.061.061c-.183.061-.367.183-.55.244Z" fill="#4F0000"/><path d="M142.858 144.145c.245 2.995-2.444 5.744-6.11 6.05-3.605.305-6.783-1.895-7.027-4.889-.245-2.994 2.444-5.743 6.11-6.049 3.605-.305 6.783 1.833 7.027 4.888Z" fill="#4F0000"/><path d="M142.369 144.207c.244 2.81-2.261 5.255-5.622 5.56-3.36.306-6.232-1.772-6.477-4.522-.244-2.81 2.261-5.255 5.622-5.56 3.299-.306 6.232 1.711 6.477 4.522Z" fill="#DF0879"/><path d="M134.12 141.212c.122.245-.123.672-.489.856-.428.244-.856.244-1.039-.061-.122-.245.122-.673.55-.856.428-.183.855-.183.978.061Z" fill="#fff"/><path d="M136.749 141.274c.061.305-.306.611-.795.672-.489.061-.916-.061-.977-.367-.062-.305.305-.55.794-.672.489-.122.916.061.978.367Z" fill="#99003D"/><path d="M132.41 142.19c.122.122 0 .367-.183.55-.184.183-.428.244-.55.122-.123-.122 0-.366.183-.55.183-.183.428-.244.55-.122Z" fill="#fff"/><path d="M139.436 141.273c.489.55.733 1.223.795 1.956.183 2.383-2.078 4.521-5.072 4.766-1.283.122-2.505-.122-3.483-.672 1.039 1.283 2.933 2.016 5.011 1.833 2.994-.245 5.316-2.383 5.071-4.766-.122-1.283-1.039-2.444-2.322-3.117Z" fill="#99003D"/><path d="M128.745 143.29c-.305 0-.55-.123-.611-.367v-.244c-.061-5.866 4.277-9.105 8.616-9.777h.366c.734 0 1.1.366 1.161.733 0 .367-.244.794-.916.856-5.316.794-7.944 3.544-7.883 8.371v.061l-.061.061c-.305.183-.488.306-.672.306Z" fill="#4F0000"/><path d="M135.098 146.65c0 3.055-2.933 5.5-6.538 5.5-3.605 0-6.599-2.445-6.599-5.5s2.933-5.499 6.599-5.499c3.605.061 6.538 2.505 6.538 5.499Z" fill="#4F0000"/><path d="M134.548 146.65c0 2.811-2.688 5.072-6.049 5.072s-6.049-2.261-6.049-5.072 2.688-5.071 6.049-5.071c3.361.061 6.049 2.322 6.049 5.071Z" fill="#DF0879"/><path d="M126.666 143.045c.122.244-.122.611-.611.855-.428.184-.917.123-1.039-.122-.122-.244.122-.611.611-.855.428-.245.917-.184 1.039.122Z" fill="#fff"/><path d="M129.598 142.923c0 .306-.367.55-.856.55s-.855-.244-.855-.55c0-.306.366-.55.855-.55s.856.244.856.55Z" fill="#99003D"/><path d="M124.834 143.84c.122.122 0 .366-.183.488-.184.184-.428.184-.55.061-.122-.122 0-.366.183-.488.245-.123.489-.184.55-.061Z" fill="#fff"/><path d="M131.921 143.534c.428.611.673 1.283.673 2.016 0 2.383-2.445 4.277-5.5 4.277a6.963 6.963 0 0 1-3.422-.916c.917 1.344 2.75 2.261 4.828 2.261 2.994 0 5.499-1.956 5.499-4.278 0-1.344-.856-2.566-2.078-3.36Z" fill="#99003D"/><path d="M51.569 122.942c-.672 0-1.284-.672-1.528-1.772-.366-1.528-.183-4.216.856-6.172.977-1.894 2.444-3.91 4.277-5.988-.917-.122-1.711-.428-2.444-.672-.795-.305-1.467-.55-2.383-.55-.795 0-1.04 1.467-1.1 2.628-.061.733-.428 1.344-.856 1.344h-2.138c-.245 0-.428-.122-.611-.428-.184-.305-.245-.672-.245-1.039v-7.821c0-1.466.672-2.688 1.528-2.872.122 0 .305-.06.489-.06h1.222c.244 0 .427-.001.672-.062.55-.061 1.16-.244 1.833-.489 1.039-.305 2.2-.733 3.36-.733 2.873 0 5.256.855 6.417 1.405.244.123.55.184.855.184.306 0 .55-.061.794-.184l1.467-.61h.122c.672 0 1.283.55 1.65 1.466.55 1.405.489 3.238-.183 4.46-1.284 2.261-2.994 5.255-4.155 7.027-.795 1.222-.978 5.255-.856 7.027.061.978-.122 1.895-.489 2.628-.366.733-.916 1.1-1.466 1.1h-7.088v.183Z" fill="#4F0000"/><path d="M51.569 122.209c-.489 0-.978-.55-1.161-1.283-.245-1.161-.183-3.544.794-5.438 1.406-2.689 3.544-5.255 5.316-7.088h-.366c-1.406 0-2.383-.367-3.361-.734-.794-.305-1.528-.55-2.444-.55-1.222 0-1.467 2.322-1.528 3.3 0 .428-.244.672-.428.672h-2.138c-.122 0-.245-.061-.306-.244a1.46 1.46 0 0 1-.122-.55v-7.821c0-1.1.489-2.017 1.161-2.139h1.589c.244 0 .489 0 .733-.061.55-.061 1.161-.245 1.894-.49.978-.305 2.139-.671 3.3-.671 2.81 0 5.194.855 6.294 1.344.305.122.61.183.916.183.306 0 .611-.061.917-.183l1.466-.61h.061c.55 0 1.04.427 1.345 1.16.489 1.161.427 2.566-.123 3.605-1.283 2.2-2.994 5.255-4.093 7.027-.917 1.467-1.1 5.744-.978 7.638.06.733-.122 1.528-.428 2.078-.305.55-.733.855-1.16.855h-7.15Z" fill="#fff"/><path d="M65.194 101.922c-.183-.733-.55-1.161-1.038-1.161l-1.284.55a2.899 2.899 0 0 1-2.26 0c-1.345-.611-3.544-1.283-6.11-1.283-1.1 0-2.2.366-3.178.672-.672.244-1.345.428-1.956.489a5.876 5.876 0 0 1-1.466 0c-.367 0-.611-.061-.856 0-.366.061-.672.611-.672 1.283v7.088c0 .367.183.611.367.611h1.283c.183 0 .367-.244.367-.55.06-1.039.427-3.483 2.016-3.483.978 0 1.772.306 2.567.611.916.367 1.894.672 3.238.672 1.222 0 2.077-.183 2.689-.427-1.711 1.588-5.255 5.194-7.272 8.982-.855 1.589-.916 3.666-.672 4.522.122.427.367.733.672.733h7.088c.306 0 .611-.244.795-.611.183-.367.305-.917.244-1.405-.122-1.895 0-6.6 1.161-8.372 1.1-1.772 2.81-4.766 4.094-6.966.244-.427.367-1.222.183-1.955Z" fill="#FF2C5A"/><path d="M96.543 111.271c-.306.061-.55-.061-.672-.245v-.244c-.978-5.744 2.75-9.654 6.904-10.999.122-.06.245-.06.367-.06.733-.123 1.161.183 1.222.549.061.367-.122.794-.794 1.039-5.133 1.65-7.21 4.766-6.416 9.593v.061l-.061.061c-.184.062-.367.184-.55.245Z" fill="#4F0000"/><path d="M103.508 113.654c.245 2.994-2.444 5.744-6.11 6.049-3.605.306-6.783-1.894-7.027-4.888-.245-2.994 2.444-5.744 6.11-6.049 3.605-.306 6.722 1.894 7.027 4.888Z" fill="#4F0000"/><path d="M102.96 113.715c.244 2.811-2.261 5.255-5.622 5.56-3.36.306-6.233-1.772-6.477-4.521-.245-2.811 2.26-5.255 5.621-5.561 3.361-.305 6.233 1.711 6.478 4.522Z" fill="#DF0879"/><path d="M94.77 110.721c.122.244-.123.672-.49.855-.427.244-.855.244-1.038-.061-.122-.244.122-.672.55-.856.367-.183.855-.183.978.062Z" fill="#fff"/><path d="M97.337 110.782c.061.305-.305.611-.794.672-.489.061-.917-.061-.978-.367-.06-.305.306-.55.795-.672.55-.061.977.061.977.367Z" fill="#99003D"/><path d="M93.06 111.699c.122.122 0 .366-.183.55-.184.183-.428.244-.55.122-.123-.122 0-.367.183-.55.183-.183.428-.183.55-.122Z" fill="#fff"/><path d="M100.025 110.843c.489.55.733 1.222.794 1.956.184 2.383-2.077 4.521-5.071 4.766-1.283.122-2.505-.123-3.483-.672 1.039 1.283 2.933 2.016 5.01 1.833 2.995-.245 5.316-2.383 5.072-4.766-.061-1.345-.978-2.445-2.322-3.117Z" fill="#99003D"/><path d="M89.328 112.799c-.305 0-.55-.122-.61-.367v-.244c-.062-5.866 4.276-9.105 8.615-9.777h.367c.733 0 1.1.367 1.16.733 0 .367-.244.795-.916.856-5.316.794-7.944 3.544-7.883 8.371v.061l-.06.061c-.245.184-.428.306-.673.306Z" fill="#4F0000"/><path d="M95.682 116.22c0 3.055-2.933 5.499-6.6 5.499-3.605 0-6.599-2.444-6.599-5.499 0-3.055 2.933-5.499 6.6-5.499 3.666 0 6.599 2.444 6.599 5.499Z" fill="#4F0000"/><path d="M95.193 116.221c0 2.81-2.689 5.071-6.05 5.071-3.36 0-6.049-2.261-6.049-5.071 0-2.811 2.689-5.072 6.05-5.072 3.36 0 6.049 2.261 6.049 5.072Z" fill="#DF0879"/><path d="M87.25 112.554c.121.244-.123.611-.612.855-.427.184-.916.123-1.038-.122-.123-.244.122-.611.61-.855.49-.184.917-.184 1.04.122Z" fill="#fff"/><path d="M90.244 112.432c0 .305-.367.55-.855.55-.49 0-.856-.245-.856-.55 0-.306.367-.55.856-.55s.855.244.855.55Z" fill="#99003D"/><path d="M85.477 113.41c.122.122 0 .366-.183.488-.184.184-.428.184-.55.061-.122-.122 0-.366.183-.488.183-.184.428-.245.55-.061Z" fill="#fff"/><path d="M92.503 113.042c.428.612.672 1.284.672 2.017 0 2.383-2.444 4.277-5.5 4.277a6.96 6.96 0 0 1-3.42-.916c.916 1.344 2.749 2.261 4.826 2.261 2.994 0 5.5-1.956 5.5-4.278 0-1.344-.795-2.566-2.078-3.361Z" fill="#99003D"/><path d="M134.607 120.193c3.178 0 13.627-.183 13.627-2.2 0-.122-.061-.244-.123-.366-.244-.734-1.283-2.872-4.399-4.705-.183-.123-.244-.245-.244-.428-.184-4.522-2.2-7.638-6.111-9.532-.244-.734-1.039-1.834-2.75-1.834-1.71 0-2.505 1.1-2.749 1.834-3.972 1.894-5.988 5.01-6.111 9.532a.517.517 0 0 1-.244.428c-3.116 1.772-4.155 3.971-4.4 4.705-.061.122-.122.244-.122.366 0 2.078 10.388 2.2 13.626 2.2Z" fill="#4F0000"/><path d="M126.236 112.799c.062-2.933.917-7.149 6.05-9.471 0 0 .244-1.711 2.261-1.711 2.016 0 2.26 1.711 2.26 1.711 5.133 2.322 5.989 6.477 6.05 9.471 0 .184.122.367.305.489 3.728 2.078 4.461 4.705 4.461 4.705h-26.214s.733-2.688 4.461-4.705c.244-.122.366-.305.366-.489Z" fill="#E29C00"/><path d="M134.606 102.289c-.856 0-1.345.306-1.65.672.183-.428.611-1.039 1.65-1.039 1.038 0 1.466.611 1.649 1.039-.305-.366-.794-.672-1.649-.672ZM127.64 112.799c.061-2.872.856-6.905 5.744-9.227-4.277 2.811-4.583 7.088-4.338 10.021a.694.694 0 0 1-.184.489c-1.833 1.406-2.688 2.933-3.055 3.972h-2.872s.733-2.689 4.461-4.705c.122-.183.244-.367.244-.55Z" fill="#fff"/><path d="M121.47 117.993c0 .916 5.866 1.711 13.077 1.711 7.21 0 13.076-.734 13.076-1.711 0-.917-5.866-1.711-13.076-1.711-7.211 0-13.077.794-13.077 1.711Z" fill="#4F0000"/><path d="M134.608 119.093c8.004 0 12.281-.733 12.465-1.1-.184-.367-4.461-1.1-12.465-1.1-8.005 0-12.282.733-12.466 1.1.122.367 4.461 1.1 12.466 1.1Z" fill="#0E0E0E"/><path d="M135.525 116.526c0 1.161.917 2.078 2.078 2.078a2.061 2.061 0 0 0 2.078-2.078 2.06 2.06 0 0 0-2.078-2.077 2.06 2.06 0 0 0-2.078 2.077Z" fill="#FFBD18"/><path d="M139.068 116.465c0-1.039-.611-1.894-1.65-1.955h.123a1.93 1.93 0 0 1 1.955 1.955c0 1.1-.917 1.955-2.017 1.955 1.039-.061 1.589-.916 1.589-1.955Z" fill="#fff"/><path d="M56.522 153.92c3.177 0 13.626-.183 13.626-2.199 0-.122-.061-.245-.122-.367-.245-.733-1.283-2.872-4.4-4.705-.183-.122-.244-.244-.244-.428-.183-4.521-2.2-7.638-6.11-9.532-.245-.733-1.04-1.833-2.75-1.833-1.711 0-2.505 1.1-2.75 1.833-3.972 1.894-5.988 5.011-6.11 9.532a.514.514 0 0 1-.245.428c-3.116 1.772-4.155 3.972-4.4 4.705-.06.122-.122.245-.122.367.062 2.016 10.45 2.199 13.627 2.199Z" fill="#4F0000"/><path d="M48.212 146.466c.06-2.933.916-7.149 6.05-9.471 0 0 .243-1.711 2.26-1.711 2.016 0 2.26 1.711 2.26 1.711 5.134 2.322 5.989 6.477 6.05 9.471 0 .183.122.366.306.489 3.727 2.077 4.46 4.705 4.46 4.705H43.385s.733-2.689 4.46-4.705c.245-.123.367-.245.367-.489Z" fill="#E29C00"/><path d="M56.522 135.955c-.856 0-1.345.306-1.65.673.183-.428.61-1.039 1.65-1.039 1.038 0 1.466.611 1.65 1.039-.306-.306-.795-.673-1.65-.673ZM49.616 146.466c.061-2.872.855-6.905 5.744-9.227-4.277 2.811-4.583 7.088-4.338 10.021a.693.693 0 0 1-.184.489c-1.833 1.406-2.688 2.933-3.055 3.972H44.91s.733-2.689 4.46-4.705a.775.775 0 0 0 .245-.55Z" fill="#fff"/><path d="M43.446 151.721c0 .916 5.866 1.711 13.076 1.711 7.21 0 13.076-.734 13.076-1.711 0-.917-5.866-1.711-13.076-1.711-7.21 0-13.076.733-13.076 1.711Z" fill="#4F0000"/><path d="M56.52 152.82c8.005 0 12.282-.733 12.466-1.1-.184-.366-4.461-1.099-12.466-1.099-8.004 0-12.282.733-12.465 1.099.183.367 4.522 1.1 12.465 1.1Z" fill="#0E0E0E"/><path d="M57.498 150.254a2.06 2.06 0 0 0 2.078 2.077 2.06 2.06 0 0 0 2.078-2.077 2.06 2.06 0 0 0-2.078-2.078c-1.16-.061-2.078.917-2.078 2.078Z" fill="#FFBD18"/><path d="M61.042 150.132c0-1.039-.61-1.894-1.65-1.955h.122c1.1 0 1.956.855 1.956 1.955s-.917 1.955-2.017 1.955c1.04 0 1.59-.855 1.59-1.955Z" fill="#fff"/><path d="M104.178 83.65c-.184-.122-.245-.244-.245-.428a9.34 9.34 0 0 0-.183-1.833H86.396a8.466 8.466 0 0 0-.183 1.833.514.514 0 0 1-.244.428c-3.117 1.772-4.155 3.972-4.4 4.705-.06.122-.122.245-.122.367 0 2.077 10.449 2.2 13.626 2.2 3.178 0 13.626-.184 13.626-2.2 0-.122-.061-.245-.122-.367-.244-.733-1.283-2.933-4.399-4.705Z" fill="#4F0000"/><path d="M103.689 83.956c-.183-.123-.305-.245-.305-.49 0-.671-.062-1.405-.184-2.138H86.885a13.182 13.182 0 0 0-.183 2.139c0 .183-.122.366-.305.489-3.728 2.077-4.461 4.705-4.461 4.705h26.214c0 .06-.734-2.628-4.461-4.705Z" fill="#E29C00"/><path d="M89.513 81.39h-1.161a13.192 13.192 0 0 0-.184 2.138c0 .183-.122.366-.305.489-3.728 2.077-4.46 4.705-4.46 4.705h2.871c.428-1.04 1.283-2.567 3.055-3.972.123-.122.245-.306.184-.489a22.47 22.47 0 0 1 0-2.872Z" fill="#fff"/><path d="M81.997 88.722c0 .916 5.866 1.71 13.076 1.71 7.211 0 13.077-.733 13.077-1.71 0-.917-5.866-1.711-13.077-1.711-7.21 0-13.076.733-13.076 1.71Z" fill="#4F0000"/><path d="M95.071 89.822c8.005 0 12.282-.733 12.465-1.1-.183-.367-4.46-1.1-12.465-1.1-8.005 0-12.282.733-12.465 1.1.183.367 4.46 1.1 12.465 1.1Z" fill="#0E0E0E"/><path d="M95.989 87.255a2.06 2.06 0 0 0 2.077 2.078 2.06 2.06 0 0 0 2.078-2.078 2.06 2.06 0 0 0-2.078-2.078c-1.1-.06-2.078.917-2.078 2.078Z" fill="#FFBD18"/><path d="M99.593 87.133c0-1.039-.611-1.894-1.65-1.955h.122c1.1 0 1.955.855 1.955 1.955s-.916 1.955-2.016 1.955c.978 0 1.589-.855 1.589-1.955Z" fill="#fff"/><path d="M72.406 83.713H44.42v6.966h27.986v-6.966Z" fill="#000"/><path d="M55.6 86.83c.367-.183.489-.427.489-.977 0-.672-.367-1.1-1.161-1.1h-1.772v.855h.305v2.811h-.305v.856h1.833c.917 0 1.283-.428 1.283-1.284 0-.672-.305-1.038-.672-1.16Zm-1.222-1.222h.306c.183 0 .305.184.305.49 0 .305-.061.488-.305.488h-.306v-.978Zm.428 2.75h-.367v-1.1h.367c.244 0 .427.245.427.55-.06.367-.244.55-.427.55ZM59.816 88.358l-.856-3.666h-1.833v.855h.184l-.673 2.811h-.305v.856h1.528v-.856h-.367l.122-.428h.978l.122.428h-.428v.856h1.895v-.856h-.367Zm-2.017-1.16.306-1.406.305 1.405h-.61ZM63.36 87.93v.184c0 .122-.061.183-.122.183-.062 0-.123-.183-.123-.428 0-.489-.305-.855-.61-.916.366-.061.671-.428.671-.917 0-.733-.183-1.344-1.344-1.344h-1.527v.855h.244v2.811h-.244v.856h1.527v-.856h-.305v-.978c.427 0 .489.123.489.734 0 .733.305 1.222.916 1.222.55 0 .672-.489.672-1.039v-.367h-.244Zm-1.528-1.283h-.244v-1.1h.244c.306 0 .428.184.428.55 0 .367-.183.55-.428.55Z" fill="#fff"/><path d="M164.86 93.49c-1.711-7.944-4.216-12.71-6.111-15.46-1.344-1.956-3.605-3.055-5.988-3.055H38.435c-2.322 0-4.522 1.1-5.866 2.994-1.955 2.627-4.4 7.332-6.05 15.581-1.099 5.5-1.893 12.649-1.893 21.753 0 10.327.977 18.087 2.322 23.831 1.65 6.844 3.788 10.938 5.56 13.321 1.405 1.833 3.544 2.933 5.866 2.933H152.64c2.444 0 4.705-1.161 6.049-3.178 1.65-2.505 3.789-6.599 5.5-13.015 1.527-5.927 2.688-13.809 2.688-24.258 0-8.983-.855-15.948-2.016-21.448Zm-17.17 53.038H43.385c-1.833 0-3.483-.856-4.583-2.322-.856-1.161-1.833-2.811-2.75-5.194-1.833-4.705-3.422-12.099-3.422-23.831 0-10.021 1.161-16.987 2.628-21.692 1.16-3.666 2.444-5.988 3.544-7.455 1.1-1.466 2.81-2.322 4.583-2.322H147.75c1.833 0 3.605.917 4.705 2.445 1.039 1.527 2.383 3.91 3.544 7.393 1.589 4.766 2.872 11.671 2.872 21.387 0 11.671-1.833 19.309-3.789 24.136-.916 2.2-1.833 3.85-2.566 5.01-1.161 1.528-2.933 2.445-4.827 2.445Z" fill="#F40000"/><path d="M76.748 130.885c.306 5.011.794 10.205 1.589 15.643h-2.994c-.734-5.438-1.222-10.632-1.59-15.643-.06-.672-.06-1.405-.121-2.077a236.513 236.513 0 0 1 0-24.686c.06-1.345.183-2.689.244-3.911.611-8.127 1.467-13.932 1.956-16.56h2.994c-.428 2.628-1.345 8.433-1.956 16.56-.122 1.222-.183 2.566-.244 3.911a236.513 236.513 0 0 0 0 24.686c.06.672.122 1.344.122 2.077ZM117.136 128.808c-.061.672-.061 1.344-.122 2.077-.306 5.011-.794 10.205-1.589 15.643h-2.994c.733-5.438 1.222-10.632 1.589-15.643.061-.672.061-1.405.122-2.077.489-9.288.367-17.659 0-24.686-.061-1.345-.183-2.689-.244-3.911-.611-8.127-1.528-13.932-1.956-16.56h2.994c.428 2.628 1.345 8.433 1.956 16.56.122 1.222.183 2.566.244 3.911.367 7.027.489 15.398 0 24.686ZM149.279 146.284a5.564 5.564 0 0 0 3.116-2.261c2.505-3.727 6.355-12.221 6.355-29.147 0-16.925-3.85-25.175-6.355-28.78-.917-1.283-2.261-2.138-3.788-2.322 2.688 6.355 11.12 30.919.672 62.51ZM42.101 83.835c-1.283.306-2.444 1.04-3.238 2.14-2.505 3.42-6.172 11.426-6.172 29.207 0 17.72 3.667 25.664 6.172 29.024a5.541 5.541 0 0 0 2.627 1.956c-10.387-31.408-2.077-55.788.611-62.327Z" fill="#0A3328"/><path d="M76.687 128.808h-3.055a236.513 236.513 0 0 1 0-24.686h2.994c-.367 7.027-.489 15.398.06 24.686ZM117.139 128.808h-2.994c.489-9.288.366-17.659 0-24.686h2.994c.367 7.027.489 15.398 0 24.686Z" fill="#FF1D1D"/><path d="M36.052 139.012H27.01c-1.345-5.744-2.322-13.504-2.322-23.831 0-9.104.733-16.192 1.894-21.753h8.738c-1.467 4.766-2.628 11.671-2.628 21.692-.06 11.793 1.528 19.248 3.361 23.892ZM166.878 114.815c0 10.387-1.161 18.27-2.689 24.258h-9.166c1.956-4.827 3.789-12.526 3.789-24.136 0-9.777-1.283-16.62-2.872-21.387h8.86c1.222 5.439 2.078 12.404 2.078 21.265Z" fill="#FF5A5A"/><path d="M157.832 93.49c-1.344-4.889-3.055-8.005-4.4-9.96a6.2 6.2 0 0 0-5.071-2.628H42.345c-1.955 0-3.85.916-5.01 2.505-1.345 1.833-3.056 4.95-4.4 10.021-1.344 5.072-2.322 12.038-2.322 21.692 0 11.121 1.344 18.698 2.994 23.831 1.222 3.788 2.566 6.233 3.727 7.76 1.161 1.589 3.056 2.505 5.01 2.505H148.3c2.077 0 3.971-1.038 5.132-2.749 1.1-1.589 2.445-4.033 3.606-7.577 1.833-5.316 3.36-13.077 3.36-24.198-.061-9.226-1.1-16.131-2.566-21.203Zm-2.811 45.522c-.916 2.2-1.833 3.85-2.566 5.011-1.039 1.588-2.811 2.505-4.705 2.505H43.384c-1.833 0-3.483-.856-4.583-2.322-.856-1.161-1.833-2.811-2.75-5.194-1.833-4.705-3.422-12.099-3.422-23.831 0-10.021 1.161-16.987 2.628-21.692 1.16-3.666 2.444-5.988 3.544-7.454 1.1-1.467 2.81-2.322 4.583-2.322H147.75c1.833 0 3.605.916 4.705 2.444 1.039 1.527 2.383 3.91 3.544 7.393 1.589 4.767 2.872 11.671 2.872 21.387-.061 11.61-1.894 19.248-3.85 24.075Z" fill="#600000"/><path d="M43.446 85.668h104.366c1.833 0 3.605.916 4.705 2.444 2.444 3.544 6.232 11.549 6.355 27.802v-.977c0-16.926-3.85-25.175-6.355-28.78-1.039-1.528-2.811-2.445-4.705-2.445H43.446c-1.833 0-3.544.856-4.583 2.322-2.505 3.422-6.172 11.427-6.172 29.208v.978c.123-17.048 3.728-24.808 6.172-28.17 1.039-1.527 2.75-2.382 4.583-2.382Z" fill="#935700"/><path d="M43.446 144.511h104.366c1.833 0 3.605-.916 4.705-2.444 2.444-3.544 6.232-11.549 6.355-27.802v.977c0 16.926-3.85 25.175-6.355 28.78-1.039 1.528-2.811 2.444-4.705 2.444H43.446c-1.833 0-3.544-.855-4.583-2.322-2.505-3.421-6.172-11.426-6.172-29.207v-.978c.123 17.048 3.728 24.808 6.172 28.169 1.039 1.528 2.75 2.383 4.583 2.383Z" fill="#935700"/><path d="m40.144 116.526-10.57-7.027v14.054l10.57-7.027Z" fill="#600000"/><path d="m38.311 116.526-8.738-7.027v14.054l8.738-7.027Z" fill="#F75800"/><path d="m151.477 116.526 10.51-7.027v14.054l-10.51-7.027Z" fill="#600000"/><path d="m153.248 116.526 8.738-7.027v14.054l-8.738-7.027Z" fill="#F75800"/><path d="M139.441 77.724c0 .795-.611 1.406-1.405 1.406H56.462a1.383 1.383 0 0 1-1.406-1.406c0-.794.611-1.405 1.406-1.405h81.574c.733 0 1.405.61 1.405 1.405ZM139.441 152.272c0 .794-.611 1.405-1.405 1.405H56.462a1.383 1.383 0 0 1-1.406-1.405c0-.795.611-1.406 1.406-1.406h81.574c.733 0 1.405.611 1.405 1.406Z" fill="#FF5A5A"/><path d="M155.449 66.48c0 .612.123-.366-.061.184.122-.428-.061.061-.122.183.244-.366-.061.062-.122.123.305-.306-.122 0-.183.06.488-.244-.367 0 .183-.06H36.602c-.49 0 .244.06-.184-.061.428.122-.06-.062-.183-.123.367.245-.061-.06-.122-.122.305.306 0-.122-.061-.183.122.244.122.244.06 0 0 .244 0 .244 0 0V56.704c0-.55-.121.306.062-.244-.122.427.061-.061.122-.184-.244.367.061-.06.122-.122-.305.306.123 0 .184-.06-.49.243.366 0-.184.06H154.9c.123 0 .489.061.062 0 .244.061.244.061 0-.06.122.06.244.121.305.182-.183-.183-.183-.122 0 0 .428.367-.183-.305.122.123.122.244.122.244 0 0 .184.55 0-.367.061.183v9.899c0 2.75 4.278 2.75 4.278 0v-9.716c0-2.688-2.2-4.827-4.889-4.827H36.724c-2.567 0-4.583 1.833-4.888 4.4-.184 1.588 0 3.177 0 4.766v5.316c0 2.688 2.2 4.827 4.827 4.827h118.175c2.261 0 4.217-1.406 4.766-3.605.123-.367.123-.795.123-1.161.061-1.161-.978-2.139-2.139-2.139-1.161 0-2.078.978-2.139 2.139Z" fill="#E20000"/><path d="M157.1 66.48c-.061 2.2-2.078 2.078-3.666 2.078H36.602c-1.16 0-2.077-.916-2.138-2.077V56.704c0-1.16.916-2.139 2.077-2.139h118.054c.244 0 .488 0 .733.062 1.772.305 1.65 2.138 1.65 3.483.122 2.871.122 5.621.122 8.37 0 .673 1.1.673 1.1 0v-9.715c0-1.772-1.467-3.177-3.239-3.177H36.847c-1.589 0-3.117 1.1-3.3 2.81-.183 1.59 0 3.178 0 4.767v5.316a3.22 3.22 0 0 0 3.239 3.238H154.96c1.528 0 2.872-.916 3.239-2.444.061-.244.061-.489.061-.733-.061-.733-1.161-.733-1.161-.061Z" fill="#FF4D4D"/><path opacity=".4" d="m114.999 27.07-12.954-1.895-5.805-11.732-5.805 11.732-12.954 1.894 9.349 9.166-2.2 12.893 11.61-6.11 11.61 6.11-2.261-12.893 9.41-9.166Z" fill="#5E305A"/><path d="m96.24 12.587 5.255 10.633 11.671 1.71-8.432 8.25 1.955 11.67-10.449-5.499-10.51 5.5 2.017-11.672-8.494-8.249 11.732-1.71 5.255-10.633Z" fill="#FF9100"/><path opacity=".5" d="m96.242 19.737 2.933 5.927 6.477.916-4.705 4.583 1.1 6.539-5.805-3.056-5.866 3.056 1.16-6.539-4.766-4.582 6.539-.917 2.933-5.927Z" fill="#FFFAA4"/><path d="M92.636 172.558v3.911c0 1.527 6.11 2.811 13.565 2.811 7.516 0 13.566-1.223 13.566-2.811v-3.911h-27.13Z" fill="#221E1F"/><path d="M92.636 172.558c0-1.528 6.11-2.811 13.565-2.811 7.516 0 13.566 1.222 13.566 2.811 0 1.527-6.111 2.811-13.566 2.811-7.454-.061-13.565-1.284-13.565-2.811Z" fill="#2C81CE"/><path d="M96.608 170.603c0-1.1 4.338-1.956 9.654-1.956 5.317 0 9.655.917 9.655 1.956 0 1.1-4.338 1.955-9.655 1.955-5.377.061-9.654-.855-9.654-1.955Z" fill="#54ABED"/><path d="M98.562 170.358c0-.672 2.567-1.161 5.744-1.161 3.178 0 5.744.55 5.744 1.161 0 .672-2.566 1.161-5.744 1.161-3.177 0-5.744-.55-5.744-1.161Z" fill="#FF7212"/><path d="M54.321 172.558v3.91c0 1.528 6.11 2.811 13.565 2.811 7.516 0 13.565-1.222 13.565-2.811v-3.91h-27.13Z" fill="#221E1F"/><path d="M54.321 172.558c0-1.528 6.11-2.811 13.565-2.811 7.516 0 13.565 1.222 13.565 2.811 0 1.527-6.11 2.811-13.565 2.811-7.455-.061-13.565-1.284-13.565-2.811Z" fill="#2C81CE"/><path d="M58.231 170.602c0-1.1 4.339-1.955 9.655-1.955 5.316 0 9.654.917 9.654 1.955 0 1.1-4.338 1.956-9.654 1.956-5.316.061-9.654-.856-9.654-1.956Z" fill="#54ABED"/><path d="M60.247 170.358c0-.672 2.566-1.161 5.744-1.161 3.177 0 5.744.55 5.744 1.161 0 .672-2.567 1.161-5.744 1.161-3.178 0-5.744-.55-5.744-1.161Z" fill="#FF7212"/><path d="M16.009 172.558v3.911c0 1.527 6.11 2.811 13.565 2.811 7.454 0 13.565-1.223 13.565-2.811v-3.911h-27.13Z" fill="#221E1F"/><path d="M16.009 172.558c0-1.528 6.11-2.811 13.565-2.811 7.515 0 13.565 1.222 13.565 2.811 0 1.527-6.11 2.811-13.565 2.811-7.455-.061-13.566-1.284-13.566-2.811Z" fill="#2C81CE"/><path d="M19.92 170.603c0-1.1 4.337-1.956 9.654-1.956 5.316 0 9.654.917 9.654 1.956 0 1.1-4.338 1.955-9.654 1.955-5.317.061-9.655-.855-9.655-1.955Z" fill="#54ABED"/><path d="M21.935 170.358c0-.672 2.566-1.161 5.744-1.161 3.177 0 5.743.55 5.743 1.161 0 .672-2.566 1.161-5.743 1.161-3.178 0-5.744-.55-5.744-1.161Z" fill="#FF7212"/><path d="M143.226 171.031v4.827c0 1.895 7.516 3.422 16.743 3.422 9.226 0 16.742-1.527 16.742-3.422v-4.827h-33.485Z" fill="#221E1F"/><path d="M143.226 170.97c0-1.894 7.516-3.422 16.743-3.422 9.226 0 16.742 1.528 16.742 3.422 0 1.894-7.516 3.422-16.742 3.422-9.227 0-16.743-1.528-16.743-3.422Z" fill="#A3002B"/><path d="M146.401 165.898v3.911c0 1.528 6.111 2.811 13.565 2.811 7.516 0 13.566-1.222 13.566-2.811v-3.911h-27.131Z" fill="#221E1F"/><path d="M146.401 165.837c0-1.527 6.111-2.811 13.565-2.811 7.516 0 13.566 1.222 13.566 2.811 0 1.528-6.111 2.811-13.566 2.811-7.515 0-13.565-1.222-13.565-2.811Z" fill="#A3002B"/><path d="M150.312 163.943c0-1.1 4.338-1.955 9.654-1.955s9.655.916 9.655 1.955c0 1.1-4.339 1.955-9.655 1.955-5.316.062-9.654-.855-9.654-1.955Z" fill="#CC003F"/><path d="M152.327 163.699c0-.672 2.567-1.161 5.744-1.161 3.178 0 5.744.55 5.744 1.161 0 .672-2.566 1.161-5.744 1.161-3.177 0-5.744-.55-5.744-1.161Z" fill="#FF7212"/><path d="m47.233 63.06 2.444-.123c.061.367.183.672.306.917.244.305.61.488 1.16.488.367 0 .673-.06.856-.244.183-.183.306-.367.306-.611a.642.642 0 0 0-.306-.55c-.183-.183-.611-.305-1.283-.489-1.1-.244-1.956-.61-2.383-.977a2.057 2.057 0 0 1-.733-1.59c0-.427.122-.855.366-1.221.245-.367.611-.672 1.1-.917.489-.244 1.161-.305 2.017-.305 1.038 0 1.894.183 2.444.61.55.367.916 1.04.977 1.895l-2.444.122c-.06-.366-.183-.672-.428-.794-.183-.184-.488-.245-.855-.245-.306 0-.55.061-.672.184-.122.122-.245.305-.245.489 0 .122.062.244.184.366s.428.183.855.306c1.1.244 1.894.488 2.383.733.49.244.856.55 1.039.916.244.367.306.795.306 1.222 0 .55-.123 1.04-.428 1.467a3.366 3.366 0 0 1-1.222 1.039c-.55.244-1.222.367-2.017.367-1.405 0-2.383-.245-2.933-.795-.427-.733-.733-1.466-.794-2.26Zm8.799-5.561h2.566v6.232h3.972v2.017h-6.538v-8.25Zm7.21 4.155c0-1.344.367-2.383 1.161-3.178.733-.733 1.833-1.16 3.178-1.16 1.405 0 2.444.366 3.177 1.1.733.733 1.1 1.771 1.1 3.116 0 .977-.183 1.772-.489 2.383-.305.61-.794 1.1-1.405 1.466-.611.367-1.406.489-2.322.489-.917 0-1.711-.122-2.322-.428-.611-.305-1.1-.794-1.467-1.405-.427-.611-.61-1.406-.61-2.383Zm2.567 0c0 .855.183 1.466.489 1.833.305.367.733.55 1.283.55.55 0 .977-.183 1.283-.55.305-.367.428-.978.428-1.955 0-.795-.184-1.345-.49-1.711-.305-.367-.733-.55-1.283-.55-.488 0-.916.183-1.222.55-.305.366-.488.977-.488 1.833Zm6.538-4.155h7.76v2.077H77.48v6.233h-2.567v-6.233h-2.627V57.5h.06Zm12.77 0h3.361l1.284 5.071 1.283-5.071h3.36v8.31h-2.077v-6.355l-1.589 6.355h-1.894l-1.589-6.355v6.355H85.18v-8.31h-.061Zm16.071 6.904h-2.933l-.428 1.345H95.2l3.116-8.31h2.811l3.116 8.31h-2.688l-.367-1.345Zm-.55-1.772-.916-2.994-.917 2.995h1.833Zm4.033.428 2.444-.122c.061.367.183.672.306.917.244.305.611.488 1.161.488.366 0 .672-.06.855-.244.183-.183.306-.367.306-.611a.643.643 0 0 0-.306-.55c-.183-.183-.611-.305-1.283-.489-1.1-.244-1.955-.61-2.383-.977a2.056 2.056 0 0 1-.733-1.59c0-.427.122-.855.366-1.221.245-.367.611-.672 1.1-.917.489-.244 1.161-.305 2.017-.305 1.038 0 1.894.183 2.444.61.55.367.916 1.04.977 1.895l-2.444.122c-.061-.366-.183-.672-.428-.794-.183-.184-.488-.245-.855-.245-.306 0-.55.061-.672.184-.122.122-.245.305-.245.489 0 .122.062.244.184.366s.427.183.855.306c1.1.244 1.894.488 2.383.733.489.244.856.55 1.039.916.244.367.306.795.306 1.222 0 .55-.123 1.04-.428 1.467a3.369 3.369 0 0 1-1.222 1.039c-.55.244-1.222.367-2.017.367-1.405 0-2.383-.245-2.933-.795-.427-.733-.733-1.466-.794-2.26Zm8.799-5.56h2.566v2.872h2.811v-2.872h2.566v8.31h-2.566v-3.36h-2.811v3.36h-2.566v-8.31Zm9.777 0h2.566v8.31h-2.566v-8.31Zm4.399 0h2.383l3.117 4.583v-4.583h2.444v8.31h-2.444l-3.117-4.583v4.583h-2.383v-8.31Zm9.655 0h6.843v1.772h-4.277v1.344h3.972v1.711h-3.972v1.65h4.399v1.894h-6.965v-8.371Z" fill="#FF9100"/><path opacity=".5" d="m52.061 59.943 2.445-.122c0-.061 0-.123-.062-.245H51.94c.061.122.122.245.122.367ZM137.301 59.576v4.094h2.567v-1.405h3.972v-1.711h-3.972v-.978h-2.567ZM54.687 63.67c.061-.183.061-.367.061-.61 0-.429-.122-.856-.305-1.223a2.566 2.566 0 0 0-1.04-.917c-.488-.244-1.282-.488-2.382-.733-.428-.122-.733-.183-.856-.305a.336.336 0 0 1-.183-.306h-2.383v.184c0 .672.244 1.16.733 1.588.489.428 1.283.733 2.383.978.672.122 1.1.305 1.283.489.184.183.306.366.306.55 0 .06 0 .183-.061.244h2.444v.061ZM66.3 63.426c-.305-.367-.489-.978-.489-1.833 0-.856.183-1.467.489-1.834l.245-.244h-2.872a5.381 5.381 0 0 0-.367 2.017c0 .794.122 1.466.367 2.016h2.871c-.122.061-.183 0-.244-.122ZM121.415 63.67v-4.094h-2.567v.794h-2.811v-.794h-2.566v4.094h2.566v-1.222h2.811v1.222h2.567ZM135.59 59.576h-2.444v2.505l-1.65-2.505h-3.85v4.094h2.444v-2.444l1.65 2.444h3.85v-4.094ZM58.6 59.576h-2.567v4.094H58.6v-4.094ZM49.678 62.876l-2.444.122c0 .244.061.427.122.61h2.566c-.122-.121-.183-.427-.244-.732ZM68.62 63.67h2.873c.244-.55.366-1.283.366-2.078 0-.733-.122-1.405-.366-1.955H68.56c.06.061.183.122.244.245.306.366.489.916.489 1.71 0 .917-.122 1.59-.428 1.956-.122 0-.183.061-.244.122ZM94.467 59.576H92.39v4.094h2.077v-4.094ZM77.543 59.576h-2.566v4.094h2.566v-4.094ZM107.116 62.876l-2.444.122c0 .244.061.427.122.61h2.566c-.122-.121-.244-.427-.244-.732ZM112.127 63.67c.061-.183.061-.367.061-.61 0-.429-.122-.856-.306-1.223a2.565 2.565 0 0 0-1.038-.917c-.489-.244-1.284-.488-2.384-.733-.427-.122-.733-.183-.855-.305a.336.336 0 0 1-.183-.306h-2.383v.184c0 .672.244 1.16.733 1.588.489.428 1.283.733 2.383.978.672.122 1.1.305 1.283.489.183.183.306.366.306.55 0 .06 0 .183-.061.244h2.444v.061ZM125.813 59.576h-2.566v4.094h2.566v-4.094ZM109.498 59.943l2.444-.122c0-.061 0-.123-.061-.245h-2.506c.061.122.123.245.123.367ZM87.197 59.576h-2.078v4.094h2.078v-4.094ZM92.328 59.576h-1.772l-.733 2.933-.794-2.933h-1.772l1.038 4.094h2.995l1.038-4.094ZM101.983 59.576h-4.4l-1.527 4.094h7.455l-1.528-4.094Zm-2.26.061.916 2.994h-1.833l.916-2.994Z" fill="#FFFAA4"/><defs><linearGradient id="a" x1="95.372" y1="81.733" x2="95.372" y2="147.354" gradientUnits="userSpaceOnUse"><stop stop-color="#734E3D"/><stop offset=".11" stop-color="#D4B095"/><stop offset=".5" stop-color="#FFFCE3"/><stop offset=".92" stop-color="#D4B095"/><stop offset="1" stop-color="#734E3D"/></linearGradient><linearGradient id="b" x1="134.638" y1="81.733" x2="134.638" y2="147.354" gradientUnits="userSpaceOnUse"><stop stop-color="#734E3D"/><stop offset=".11" stop-color="#D4B095"/><stop offset=".5" stop-color="#FFFCE3"/><stop offset=".92" stop-color="#D4B095"/><stop offset="1" stop-color="#734E3D"/></linearGradient><linearGradient id="c" x1="56.109" y1="81.733" x2="56.109" y2="147.354" gradientUnits="userSpaceOnUse"><stop stop-color="#734E3D"/><stop offset=".11" stop-color="#D4B095"/><stop offset=".5" stop-color="#FFFCE3"/><stop offset=".92" stop-color="#D4B095"/><stop offset="1" stop-color="#734E3D"/></linearGradient></defs></svg>