<svg width="14" height="14" viewBox="0 0 14 14" fill="none" xmlns="http://www.w3.org/2000/svg"><path d="M13.222 6.526a.863.863 0 0 0-.501-1.556l-3.5-.132a.09.09 0 0 1-.078-.059l-1.21-3.266a.863.863 0 0 0-1.621 0L5.106 4.79a.09.09 0 0 1-.078.058l-3.5.133a.863.863 0 0 0-.501 1.555l2.745 2.159a.09.09 0 0 1 .031.093l-.945 3.348a.863.863 0 0 0 1.315.953l2.9-1.944a.085.085 0 0 1 .098 0l2.901 1.944a.855.855 0 0 0 1.302-.415.856.856 0 0 0 .013-.518l-.953-3.36a.085.085 0 0 1 .031-.094l2.757-2.177Z" fill="#A4FCD2"/></svg>