<svg width="54" height="24" viewBox="0 0 54 24" fill="none" xmlns="http://www.w3.org/2000/svg">
<path d="M0.132812 0.629994V6.64507H4.14287V23.6714H11.7685V0.629994H0.132812Z" fill="#0085FF"/>
<path d="M27.8149 0.268433C22.753 0.268433 19.4332 2.70076 19.4332 6.48073C19.4332 8.2228 20.4851 10.1292 22.0957 11.3125C19.7619 12.4629 18.2171 14.7967 18.2171 17.2619C18.2171 21.3376 22.0299 24.0001 27.8478 24.0001C33.6985 24.0001 37.5114 21.3048 37.5114 17.1304C37.5114 14.7309 36.1308 12.4629 33.9943 11.3125C35.4077 10.2607 36.2952 8.45288 36.2952 6.71081C36.2952 2.79937 32.9754 0.268433 27.8149 0.268433ZM27.8478 5.19882C29.2612 5.19882 29.9843 5.85621 29.9843 7.10524C29.9843 8.28854 29.2612 8.88019 27.8478 8.88019C26.4673 8.88019 25.7441 8.28854 25.7441 7.10524C25.7441 5.85621 26.4673 5.19882 27.8478 5.19882ZM27.8807 14.3036C29.5241 14.3036 30.4116 15.0596 30.4116 16.473C30.4116 17.8535 29.5241 18.5766 27.8478 18.5766C26.2043 18.5766 25.3497 17.8535 25.3497 16.473C25.3497 15.0596 26.2043 14.3036 27.8807 14.3036Z" fill="#0085FF"/>
<path d="M53.3856 4.07155H49.3141V0H45.7515V4.07155H41.6799V7.63416H45.7515V11.7057H49.3141V7.63416H53.3856V4.07155Z" fill="#0085FF"/>
</svg>
