<svg width="75" height="80" viewBox="0 0 75 80" fill="none" xmlns="http://www.w3.org/2000/svg">
<path d="M73.8127 29.6953C73.7706 29.6719 73.7252 29.6531 73.6799 29.6328C73.6581 29.6234 73.6362 29.6125 73.6127 29.6047C73.5737 29.5891 73.5331 29.5766 73.4924 29.5641C73.4721 29.5578 73.4534 29.5516 73.4331 29.5453C73.3909 29.5344 73.3471 29.5266 73.3034 29.5172C73.2815 29.5125 73.2596 29.5078 73.2378 29.5047C73.1706 29.4953 73.1034 29.4891 73.0346 29.486L65.2225 29.2L61.6616 27.2626L69.4738 27.5485C69.5426 27.5517 69.6113 27.5579 69.677 27.5673C69.6988 27.5704 69.7207 27.5767 69.7426 27.5798C69.7816 27.5876 69.8223 27.5938 69.8598 27.6032C69.8645 27.6048 69.8676 27.6063 69.8723 27.6063C69.8926 27.611 69.9113 27.6188 69.9316 27.6251C69.9723 27.6376 70.0129 27.6501 70.0535 27.6657C70.0754 27.6751 70.0973 27.6845 70.1207 27.6938C70.1441 27.7048 70.1676 27.7126 70.191 27.7235C70.2113 27.7345 70.2332 27.7454 70.2535 27.7563L73.8127 29.6953ZM52.2214 64.7283L48.6606 62.7909L54.99 66.7892C55.0213 66.8095 55.0541 66.8282 55.0853 66.8454L58.6461 68.7828C58.6133 68.7657 58.5821 68.7469 58.5508 68.7266L52.2214 64.7283ZM32.8722 78.3825L31.605 70.1281L28.0442 68.1907L29.3114 76.445C29.4098 77.0856 29.7629 77.5856 30.2519 77.8512L33.8127 79.7887C33.3237 79.523 32.9706 79.0215 32.8722 78.3825ZM57.3696 5.38065C57.3603 5.37596 57.3509 5.37284 57.3415 5.36815C57.3087 5.35252 57.2759 5.33846 57.2415 5.32596C57.2243 5.31971 57.2087 5.3119 57.1915 5.30565C57.1493 5.29003 57.1071 5.27753 57.0634 5.26503C57.0556 5.26347 57.0493 5.26034 57.0415 5.25878C57.04 5.25878 57.0384 5.25878 57.0384 5.25722C56.9853 5.24315 56.9321 5.23222 56.8775 5.2244C56.8618 5.22128 56.8462 5.21972 56.8306 5.21815C56.7915 5.21347 56.7509 5.20878 56.7103 5.20566C56.6915 5.20409 56.6728 5.20409 56.654 5.20253C56.615 5.20097 56.5759 5.20097 56.5369 5.20253C56.5197 5.20253 56.5025 5.20253 56.4853 5.20409C56.429 5.20722 56.3728 5.21191 56.3165 5.21972C56.265 5.22753 56.2119 5.2369 56.1603 5.24784C56.1431 5.25097 56.1259 5.25722 56.1087 5.2619C56.0744 5.27128 56.04 5.27909 56.0056 5.29003C55.9853 5.29628 55.965 5.30409 55.9447 5.3119C55.9134 5.32284 55.8822 5.33221 55.8525 5.34471C55.8306 5.35409 55.8088 5.36346 55.7869 5.37284C55.7603 5.38377 55.7338 5.39471 55.7088 5.40565C55.7056 5.40721 55.7041 5.40877 55.7009 5.41033C55.6463 5.4369 55.5916 5.46502 55.5385 5.49471C55.5338 5.49783 55.5291 5.50096 55.5244 5.50408C55.476 5.5322 55.4275 5.56345 55.3806 5.5947C55.3775 5.59626 55.3744 5.59783 55.3713 5.60095C55.3369 5.62595 55.3025 5.65095 55.2682 5.67751C55.2603 5.68376 55.2525 5.68845 55.2447 5.6947C55.201 5.72907 55.1588 5.76501 55.1182 5.80094C55.115 5.80407 55.1103 5.80719 55.1072 5.81032L48.759 11.5882C48.5622 11.4976 48.3637 11.4117 48.1637 11.3273C48.1137 11.3054 48.0622 11.2851 48.0122 11.2632C47.8184 11.1835 47.6231 11.1039 47.4278 11.0289C47.4216 11.0257 47.4153 11.0242 47.4091 11.0211C47.2075 10.9445 47.0044 10.8711 46.7997 10.8007C46.7482 10.7836 46.6966 10.7648 46.6451 10.7476C46.4513 10.682 46.2576 10.6179 46.0623 10.557C46.0498 10.5539 46.0373 10.5492 46.0248 10.5445C45.8185 10.4804 45.6107 10.4211 45.4029 10.3648C45.3498 10.3508 45.2982 10.3367 45.2451 10.3226C45.1857 10.307 45.1279 10.2898 45.0686 10.2742C44.9295 10.2383 44.7904 10.2039 44.6514 10.1711C44.6389 10.168 44.6248 10.1648 44.6123 10.1617C44.403 10.1117 44.1905 10.0664 43.9795 10.0211C43.928 10.0102 43.8748 9.99922 43.8233 9.98984C43.6092 9.94766 43.3952 9.90547 43.1796 9.86953L46.7404 11.807C46.956 11.8445 47.17 11.8851 47.3841 11.9273C47.4356 11.9382 47.4872 11.9476 47.5388 11.9585C47.7513 12.0023 47.9622 12.0491 48.1731 12.0991C48.1856 12.1023 48.1981 12.1054 48.2106 12.1085C48.4106 12.1569 48.609 12.2069 48.8059 12.2601C48.859 12.2741 48.9106 12.2882 48.9637 12.3023C49.1715 12.3601 49.3793 12.4194 49.5856 12.4819C49.5981 12.4851 49.6106 12.4897 49.6231 12.4944C49.8184 12.5554 50.0121 12.6194 50.2058 12.685C50.2574 12.7022 50.309 12.7194 50.3605 12.7382C50.5652 12.8085 50.7683 12.8819 50.9699 12.9585C50.9761 12.9616 50.9824 12.9632 50.9886 12.9663C51.1855 13.0413 51.3792 13.1194 51.573 13.2007C51.623 13.221 51.6745 13.2428 51.7245 13.2647C51.9245 13.3491 52.123 13.435 52.3198 13.5256L58.668 7.74774C58.7133 7.70712 58.7586 7.66806 58.8055 7.63056C58.8133 7.62431 58.8211 7.61962 58.8274 7.61337C58.8649 7.58369 58.9024 7.55713 58.9414 7.53056C58.9899 7.49775 59.0383 7.4665 59.0868 7.43838C59.0914 7.43526 59.0946 7.43213 59.0993 7.43057C59.1524 7.39932 59.2071 7.37119 59.2617 7.3462C59.2914 7.33213 59.3196 7.3212 59.3492 7.3087C59.3711 7.29932 59.393 7.28995 59.4133 7.28057C59.4445 7.26807 59.4742 7.2587 59.5055 7.24776C59.5258 7.24151 59.5477 7.23214 59.568 7.22589C59.6024 7.21495 59.6367 7.20714 59.6727 7.19776C59.6899 7.19308 59.707 7.18839 59.7242 7.1837C59.7758 7.17277 59.8289 7.16339 59.8805 7.15558C59.9367 7.14777 59.993 7.14308 60.0492 7.13995C60.0664 7.13839 60.0836 7.13839 60.1008 7.13839C60.1398 7.13683 60.1789 7.13683 60.218 7.13839C60.2367 7.13839 60.2555 7.13995 60.2742 7.14152C60.3148 7.14464 60.3539 7.14777 60.3929 7.15402C60.4086 7.15558 60.4242 7.15714 60.4398 7.16027C60.4945 7.16964 60.5476 7.17902 60.6008 7.19308C60.6101 7.19464 60.6179 7.19776 60.6273 7.20089C60.6695 7.21183 60.7132 7.22589 60.7539 7.24151C60.7711 7.24776 60.7867 7.25401 60.8039 7.26182C60.8382 7.27589 60.8711 7.28995 60.9039 7.30557C60.9336 7.31963 60.9648 7.3337 60.9929 7.34932L57.4321 5.4119C57.4103 5.40096 57.3899 5.39158 57.3696 5.38065ZM11.1011 68.7875C11.0589 68.7485 11.0199 68.7063 10.9824 68.6641C10.9699 68.65 10.959 68.636 10.948 68.6219C10.923 68.5922 10.8996 68.561 10.8761 68.5297C10.8636 68.5125 10.8511 68.4954 10.8402 68.4766C10.8199 68.4469 10.8011 68.4157 10.7824 68.3844C10.7715 68.3657 10.7605 68.3469 10.7496 68.3282C10.7324 68.2954 10.7152 68.2626 10.6996 68.2282C10.6918 68.211 10.6824 68.1922 10.6746 68.1735C10.6558 68.1313 10.6402 68.0891 10.6246 68.0454C10.6215 68.0344 10.6168 68.0235 10.6121 68.0141C10.5933 67.9594 10.5777 67.9048 10.5637 67.8485C10.5605 67.8329 10.5574 67.8173 10.5527 67.8016C10.5433 67.7594 10.534 67.7188 10.5277 67.6766C10.5246 67.6563 10.5215 67.6345 10.5183 67.6141C10.5137 67.5766 10.509 67.5391 10.5043 67.5001C10.5027 67.4782 10.5012 67.4548 10.4996 67.4329C10.4965 67.3938 10.4965 67.3563 10.4949 67.3173C10.4949 67.2954 10.4933 67.2735 10.4949 67.2517C10.4949 67.2079 10.498 67.1642 10.5012 67.122C10.5027 67.1048 10.5027 67.0876 10.5043 67.0704C10.509 67.0095 10.5168 66.9485 10.5262 66.8876C10.5277 66.8767 10.5308 66.8657 10.5324 66.8548C10.5418 66.8048 10.5512 66.7548 10.5621 66.7048C10.5668 66.6845 10.573 66.6626 10.5777 66.6423C10.5887 66.6017 10.5996 66.5626 10.6121 66.522C10.6199 66.4986 10.6277 66.4767 10.6355 66.4532C10.648 66.4173 10.6621 66.3798 10.6761 66.3439C10.6871 66.3158 10.698 66.2892 10.709 66.2611C10.7246 66.2267 10.7402 66.1923 10.7558 66.1579C10.7683 66.1314 10.7808 66.1048 10.7949 66.0783C10.823 66.0251 10.8511 65.972 10.8824 65.9205L15.4228 58.4411C14.4448 56.663 13.6713 54.7537 13.1167 52.7397L9.55588 50.8023C10.1121 52.8178 10.884 54.7271 11.862 56.5036L7.32159 63.983C7.29659 64.0237 7.27316 64.0658 7.24972 64.108C7.24347 64.119 7.23878 64.1299 7.2341 64.1408C7.22003 64.1674 7.20753 64.194 7.19503 64.2205C7.17785 64.2549 7.16222 64.2893 7.14816 64.3236C7.13723 64.3502 7.12629 64.3783 7.11535 64.4049C7.10754 64.4236 7.09973 64.4408 7.09348 64.4596C7.08723 64.4783 7.08098 64.4971 7.07473 64.5158C7.06692 64.5393 7.0591 64.5611 7.05129 64.5846C7.03879 64.6252 7.02785 64.6643 7.01692 64.7049C7.01067 64.7252 7.00598 64.7471 7.00129 64.7674C6.98879 64.8174 6.97942 64.8674 6.97161 64.9174C6.97004 64.9283 6.96692 64.9392 6.96536 64.9502C6.95598 65.0111 6.94817 65.0721 6.94348 65.133C6.94192 65.1502 6.94192 65.1674 6.94036 65.1845C6.93723 65.2283 6.93567 65.272 6.93411 65.3142C6.93411 65.3361 6.93411 65.358 6.93411 65.3799C6.93411 65.4189 6.93567 65.4564 6.9388 65.4955C6.94036 65.5189 6.94192 65.5408 6.94348 65.5642C6.94661 65.6017 6.95129 65.6408 6.95754 65.6783C6.96067 65.7001 6.96379 65.7205 6.96692 65.7423C6.97473 65.7845 6.98254 65.8267 6.99192 65.8673C6.99504 65.883 6.99817 65.8986 7.00286 65.9142C7.01692 65.9705 7.03254 66.0267 7.05129 66.0798C7.05442 66.0908 7.0591 66.1017 7.06379 66.1111C7.07941 66.1548 7.0966 66.197 7.11379 66.2392C7.1216 66.2579 7.13098 66.2751 7.13879 66.2923C7.15441 66.3267 7.1716 66.3595 7.19035 66.3923C7.20128 66.4111 7.21222 66.4298 7.22316 66.4486C7.24191 66.4798 7.26066 66.5111 7.28097 66.5407C7.29347 66.5579 7.30441 66.5767 7.31691 66.5939C7.34034 66.6251 7.36378 66.6548 7.38878 66.6861C7.39971 66.7001 7.41221 66.7142 7.42315 66.7282C7.46065 66.7704 7.49971 66.8126 7.5419 66.8517L13.4307 72.3905C13.5417 72.4952 13.662 72.5811 13.7901 72.6499L17.3509 74.5873C17.2228 74.5186 17.1025 74.4311 16.9915 74.3279L11.1011 68.7875ZM43.5858 1.94172C43.6045 1.94016 43.6217 1.94016 43.6389 1.94016C43.678 1.9386 43.717 1.9386 43.7561 1.94016C43.7764 1.94016 43.7952 1.94172 43.8155 1.94328C43.853 1.94641 43.892 1.94953 43.928 1.95578C43.9452 1.95735 43.9623 1.96047 43.9795 1.96359C44.028 1.97141 44.0764 1.98078 44.1248 1.99328C44.1295 1.99484 44.1342 1.99484 44.1373 1.99641C44.1889 2.01047 44.2405 2.02609 44.2905 2.04484C44.3061 2.05109 44.3201 2.05734 44.3358 2.06203C44.3701 2.07609 44.4061 2.09015 44.4389 2.10578C44.4686 2.11984 44.4983 2.1339 44.5264 2.14952L40.9672 0.212101C40.9468 0.201164 40.925 0.190227 40.9031 0.17929C40.8953 0.174603 40.8859 0.17304 40.8781 0.168353C40.8437 0.152728 40.8093 0.137104 40.775 0.123042C40.7593 0.116792 40.7453 0.110543 40.7297 0.105855C40.6797 0.087106 40.6281 0.0714816 40.5765 0.0574196H40.575C40.5703 0.0558572 40.5672 0.0558572 40.5625 0.0542947C40.5156 0.0417952 40.4672 0.0324206 40.4187 0.0246084C40.4015 0.0214835 40.3844 0.0199211 40.3672 0.0167962C40.3297 0.0121089 40.2922 0.00742158 40.2547 0.00429671C40.2359 0.00273427 40.2156 0.00117183 40.1953 0.00117183C40.1562 -0.00039061 40.1172 -0.00039061 40.0781 0.00117183C40.0609 0.00117183 40.0422 0.00117183 40.025 0.00273427C39.9688 0.00585914 39.9109 0.0105465 39.8531 0.0183587L31.5081 1.19175C31.4488 1.19956 31.391 1.21206 31.3332 1.22456C31.3144 1.22925 31.2957 1.23394 31.2769 1.23862C31.2378 1.24956 31.1988 1.2605 31.1597 1.273C31.1394 1.27925 31.1175 1.28706 31.0972 1.29487C31.0613 1.30737 31.0238 1.32143 30.9894 1.33706C30.9691 1.34487 30.9488 1.35424 30.93 1.36206C30.9191 1.36674 30.9082 1.37143 30.8988 1.37612C30.8785 1.38549 30.8597 1.39643 30.8394 1.40737C30.8113 1.42143 30.7816 1.43705 30.7535 1.45268C30.7254 1.4683 30.6972 1.48549 30.6691 1.50268C30.641 1.51986 30.6144 1.53705 30.5863 1.55424C30.5785 1.56049 30.5691 1.56517 30.5597 1.56986C30.5332 1.58705 30.5082 1.60736 30.4832 1.62611C30.4691 1.63705 30.4551 1.64642 30.441 1.65736C30.3941 1.69329 30.3488 1.73079 30.3051 1.76985C30.3035 1.77141 30.3035 1.77141 30.3019 1.77298C30.2363 1.83235 30.1738 1.89641 30.1145 1.96203C30.1066 1.96984 30.0988 1.97609 30.0926 1.98391C30.0848 1.99328 30.0785 2.00266 30.0707 2.01047C30.0145 2.07453 29.9613 2.14171 29.9113 2.21202C29.9098 2.21515 29.9066 2.21671 29.9051 2.21983L29.9035 2.2214C29.8488 2.29952 29.8004 2.38077 29.7535 2.46514C29.7473 2.47451 29.741 2.48389 29.7348 2.49482C29.727 2.50889 29.7207 2.52295 29.7129 2.53701C29.6988 2.56357 29.6863 2.59013 29.6738 2.61669C29.6582 2.64951 29.6426 2.68388 29.6285 2.71669C29.6176 2.74481 29.6051 2.77138 29.5942 2.7995C29.5879 2.81356 29.5817 2.82762 29.577 2.84325C29.5723 2.85731 29.5692 2.87137 29.5645 2.88543C29.5457 2.94012 29.5285 2.9948 29.5129 3.05105C29.5067 3.07449 29.4988 3.09792 29.4926 3.12292C29.4738 3.20105 29.4567 3.28073 29.4442 3.36198L28.1458 11.9773C27.9973 12.0444 27.8489 12.1132 27.7005 12.1819C27.6427 12.2085 27.5864 12.2382 27.5286 12.2648C27.4567 12.2991 27.3833 12.3351 27.3114 12.3694C27.1505 12.4476 26.9911 12.5288 26.8302 12.6101C26.7708 12.6397 26.7115 12.6694 26.6521 12.7007C26.4365 12.8132 26.2224 12.9272 26.0099 13.0444C25.9724 13.0647 25.9365 13.0866 25.9006 13.1069C25.7224 13.2053 25.5459 13.3069 25.3709 13.41C25.3021 13.4491 25.235 13.4897 25.1662 13.5303C25.0162 13.6194 24.8662 13.71 24.7162 13.8022C24.6506 13.8428 24.585 13.8834 24.5178 13.9241C24.3319 14.0412 24.1459 14.16 23.9616 14.2819C23.9397 14.2975 23.9163 14.3115 23.8944 14.3256C23.7131 14.4459 23.5335 14.5662 23.3553 14.6912C23.3366 14.7053 23.3163 14.7193 23.2975 14.7318C23.0491 14.9053 22.8007 15.0818 22.5554 15.2631L26.1162 17.2005C26.3615 17.0193 26.6099 16.8427 26.8583 16.6693C27.0568 16.5318 27.2552 16.3958 27.4552 16.263C27.4786 16.2474 27.5021 16.2333 27.5255 16.2177C27.7099 16.0974 27.8942 15.9787 28.0802 15.8615C28.1458 15.8209 28.2114 15.7802 28.2786 15.7396C28.4286 15.6474 28.577 15.5568 28.7286 15.4678C28.7957 15.4271 28.8645 15.3865 28.9317 15.3474C29.1082 15.2443 29.2848 15.1428 29.4629 15.0443C29.4988 15.024 29.5348 15.0037 29.5707 14.9834C29.7848 14.8662 29.9988 14.7506 30.2144 14.6397C30.2738 14.6084 30.3332 14.5787 30.3926 14.549C30.5519 14.4678 30.7129 14.3865 30.8738 14.3069C30.9457 14.2725 31.0175 14.2365 31.0894 14.2022C31.2941 14.1037 31.5003 14.0069 31.7066 13.9131L33.005 5.29784C33.0175 5.21659 33.0346 5.13691 33.0534 5.05879C33.0596 5.03535 33.0659 5.01035 33.0737 4.98691C33.0893 4.93067 33.1065 4.87598 33.1253 4.82129C33.1346 4.79317 33.1456 4.76348 33.1565 4.73536C33.1675 4.70724 33.1784 4.67911 33.1909 4.65255C33.205 4.61818 33.2206 4.58537 33.2362 4.55256C33.2487 4.52599 33.2628 4.49943 33.2753 4.47287C33.2878 4.44787 33.3018 4.42444 33.3143 4.401C33.3612 4.31663 33.4096 4.23538 33.4643 4.15726C33.4674 4.15413 33.469 4.15101 33.4721 4.14632C33.5221 4.07601 33.5753 4.00883 33.6315 3.94477C33.6456 3.92758 33.6612 3.91196 33.6752 3.89477C33.7346 3.82915 33.7971 3.76509 33.8627 3.70571C33.9081 3.66509 33.9534 3.62603 34.0002 3.59009C34.0143 3.57916 34.0284 3.56978 34.0424 3.55884C34.0752 3.53385 34.1096 3.50885 34.144 3.48541C34.1705 3.46666 34.1987 3.45104 34.2268 3.43385C34.2549 3.41666 34.283 3.39948 34.3112 3.38385C34.3393 3.36823 34.3674 3.35417 34.3971 3.33854C34.4268 3.32292 34.458 3.30729 34.4893 3.29323C34.5096 3.28386 34.5283 3.27604 34.5486 3.26823C34.5846 3.25261 34.6205 3.23854 34.658 3.22604C34.6783 3.21823 34.6986 3.21198 34.7205 3.20417C34.7596 3.19167 34.7986 3.18073 34.8377 3.1698C34.8565 3.16511 34.8752 3.15886 34.894 3.15574C34.9518 3.14167 35.0096 3.13074 35.0689 3.12292L43.4139 1.94953C43.4717 1.94953 43.5295 1.94485 43.5858 1.94172ZM16.0681 11.1851C16.0588 11.1804 16.0494 11.1773 16.04 11.1726C16.0072 11.157 15.9728 11.1429 15.94 11.1289C15.9228 11.1226 15.9056 11.1148 15.8884 11.1085C15.8478 11.0945 15.8056 11.0804 15.7634 11.0695C15.7556 11.0679 15.7478 11.0648 15.74 11.0617C15.7385 11.0617 15.7369 11.0617 15.7353 11.0601C15.6822 11.0461 15.6291 11.0351 15.5744 11.0273C15.5588 11.0242 15.5431 11.0242 15.5291 11.0211C15.49 11.0164 15.4494 11.0117 15.4088 11.0086C15.39 11.007 15.3713 11.007 15.3525 11.0054C15.3135 11.0039 15.2744 11.0039 15.2353 11.0054C15.2182 11.0054 15.201 11.0054 15.1838 11.007C15.1275 11.0101 15.0729 11.0148 15.0166 11.0226C14.9557 11.0304 14.8947 11.0429 14.8338 11.057C14.815 11.0617 14.7979 11.0664 14.7791 11.071C14.7354 11.082 14.6916 11.096 14.6494 11.1101C14.6307 11.1164 14.6104 11.1226 14.5916 11.1304C14.5432 11.1476 14.4963 11.1679 14.4494 11.1882C14.4369 11.1929 14.426 11.1976 14.4135 11.2039C14.4104 11.2054 14.4073 11.207 14.4041 11.2085C14.3463 11.2367 14.2885 11.2664 14.2307 11.2992C14.2229 11.3039 14.2151 11.3101 14.2057 11.3148C14.1588 11.3429 14.112 11.371 14.0651 11.4038C14.062 11.4085 14.0573 11.4117 14.0526 11.4148C14.0416 11.4226 14.0307 11.432 14.0198 11.4398C13.976 11.471 13.9338 11.5054 13.8916 11.5398C13.8776 11.5523 13.862 11.5632 13.8479 11.5757C13.837 11.5851 13.826 11.5945 13.8151 11.6038C13.8026 11.6163 13.7901 11.6304 13.7776 11.6429C13.7307 11.6867 13.6838 11.7335 13.6401 11.782C13.6292 11.7945 13.6151 11.8054 13.6042 11.8179C13.5823 11.8413 13.562 11.8663 13.5417 11.8913L7.62939 19.0879C7.58565 19.141 7.54346 19.1957 7.5044 19.252C7.5044 19.2535 7.50284 19.2535 7.50284 19.2551C7.49971 19.2598 7.49659 19.266 7.49346 19.2707C7.46065 19.3176 7.4294 19.366 7.39971 19.416C7.38878 19.4332 7.3794 19.4504 7.37003 19.4676C7.35909 19.4879 7.34659 19.5082 7.33565 19.5285C7.32784 19.5442 7.32003 19.5598 7.31222 19.5754C7.29816 19.602 7.28409 19.6301 7.2716 19.6582C7.25597 19.691 7.24191 19.7238 7.22785 19.7582C7.21535 19.7863 7.20441 19.8145 7.19347 19.8426C7.18879 19.8566 7.18254 19.8691 7.17785 19.8816C7.17316 19.8941 7.17004 19.9066 7.16691 19.9191C7.14191 19.9879 7.1216 20.0582 7.10285 20.1285C7.09973 20.1426 7.09348 20.1582 7.09035 20.1723C7.07004 20.2551 7.05442 20.3379 7.04348 20.4222C7.04035 20.4426 7.03879 20.4629 7.03567 20.4832C7.02785 20.5519 7.02317 20.6207 7.02004 20.6879C7.02004 20.7066 7.01848 20.7254 7.01848 20.7457C7.01692 20.8285 7.02004 20.9097 7.02785 20.9925C7.02942 21.0097 7.03254 21.0269 7.0341 21.0425C7.04192 21.1097 7.05285 21.1769 7.06692 21.2425C7.0716 21.2628 7.07473 21.2831 7.07941 21.3035C7.09816 21.3816 7.12004 21.4597 7.1466 21.5347C7.14972 21.5456 7.15597 21.555 7.1591 21.5659C7.1841 21.6316 7.21222 21.6956 7.24503 21.7581C7.25441 21.7769 7.26378 21.7956 7.27472 21.8159C7.31378 21.8862 7.3544 21.9566 7.40284 22.0222L11.9183 28.2282C11.7964 28.4829 11.6761 28.7407 11.5605 28.9969C11.5214 29.0844 11.4839 29.1719 11.4464 29.2594C11.3714 29.4297 11.2949 29.6016 11.223 29.7734C11.1793 29.8766 11.1386 29.9812 11.0949 30.0859C11.0308 30.2422 10.9652 30.3984 10.9027 30.5562C10.859 30.6687 10.8168 30.7812 10.7746 30.8937C10.7199 31.0375 10.6621 31.1828 10.609 31.3265C10.6074 31.3328 10.6058 31.3374 10.6027 31.3437C10.5465 31.4968 10.4933 31.6531 10.4387 31.8062C10.3996 31.9187 10.3574 32.0312 10.3184 32.1452C10.2637 32.3062 10.2121 32.4671 10.1605 32.628C10.1262 32.7358 10.0887 32.8436 10.0543 32.953C9.99961 33.1296 9.94805 33.3077 9.89493 33.4842C9.86681 33.578 9.83868 33.6702 9.81056 33.7639C9.73244 34.0358 9.659 34.3076 9.58869 34.5811L1.76869 37.0638C1.71244 37.0825 1.65619 37.1028 1.6015 37.1247C1.58588 37.131 1.56869 37.1388 1.55307 37.145C1.53276 37.1544 1.51245 37.1622 1.4937 37.17C1.47807 37.1778 1.46401 37.1856 1.44839 37.1935C1.42026 37.2075 1.39214 37.2231 1.36401 37.2372C1.33433 37.2528 1.3062 37.27 1.27652 37.2872C1.24996 37.3044 1.22183 37.32 1.19527 37.3388C1.18277 37.3466 1.16871 37.3544 1.15621 37.3638C1.14683 37.37 1.13902 37.3778 1.13121 37.3841C1.05465 37.4388 0.979654 37.4966 0.909344 37.5591C0.907782 37.5606 0.906219 37.5606 0.904657 37.5622C0.899969 37.5669 0.895282 37.5731 0.889032 37.5778C0.82966 37.6325 0.77185 37.6903 0.717164 37.7513C0.709352 37.7606 0.699977 37.7684 0.692165 37.7762C0.685915 37.7841 0.679666 37.7919 0.673416 37.7997C0.615606 37.8669 0.559358 37.9356 0.50936 38.0091C0.507797 38.0106 0.506235 38.0122 0.506235 38.0137C0.50311 38.0184 0.499985 38.0247 0.49686 38.0294C0.4453 38.1028 0.398427 38.1794 0.354678 38.259C0.348429 38.27 0.342179 38.2794 0.335929 38.2887C0.331242 38.2981 0.326555 38.309 0.321867 38.3184C0.307805 38.345 0.295306 38.3731 0.281244 38.4012C0.265619 38.434 0.249995 38.4653 0.235933 38.4981C0.223434 38.5262 0.212496 38.5543 0.201559 38.584C0.193747 38.6043 0.184373 38.6231 0.178123 38.6434C0.173436 38.6559 0.170311 38.6684 0.167186 38.6793C0.153124 38.7184 0.140624 38.759 0.128125 38.7996C0.120313 38.8278 0.110938 38.8575 0.103126 38.8856C0.0921887 38.9278 0.0828141 38.97 0.0734394 39.0137C0.0671897 39.0418 0.0609399 39.0684 0.0562526 39.0965C0.0484404 39.1434 0.0421906 39.1918 0.0359409 39.2403C0.032816 39.2637 0.0296911 39.2871 0.0265663 39.3121C0.0203165 39.384 0.0156292 39.4559 0.0156292 39.5293L4.80407e-06 48.5368C-0.00155763 49.3289 0.378115 49.9836 0.965592 50.3039L4.52639 52.2413C3.93891 51.921 3.55924 51.2663 3.5608 50.4742L3.57799 41.4699C3.57799 41.3964 3.58268 41.3245 3.58893 41.2527C3.59049 41.2292 3.59518 41.2058 3.5983 41.1808C3.60455 41.1324 3.60924 41.0855 3.61861 41.0371C3.6233 41.0089 3.62955 40.9824 3.6358 40.9543C3.64517 40.9121 3.65455 40.8683 3.66549 40.8261C3.6733 40.7964 3.68267 40.7683 3.69049 40.7402C3.70298 40.6996 3.71548 40.6605 3.72955 40.6199C3.74048 40.5871 3.75298 40.5558 3.76548 40.5246C3.77642 40.4965 3.78736 40.4683 3.79986 40.4402C3.81392 40.4074 3.82954 40.3746 3.84517 40.3433C3.85767 40.3152 3.87173 40.2887 3.88579 40.2605C3.89673 40.2402 3.90766 40.2199 3.9186 40.1996C3.96235 40.1215 4.00922 40.0434 4.06078 39.9699C4.06547 39.9637 4.07016 39.9559 4.07484 39.9496C4.12641 39.8762 4.18109 39.8074 4.2389 39.7402C4.25296 39.723 4.26859 39.7074 4.28265 39.6918C4.33733 39.6309 4.39358 39.5731 4.45452 39.5184C4.46077 39.5121 4.46702 39.5059 4.47327 39.4996C4.54358 39.4371 4.61857 39.3793 4.69513 39.3246C4.71701 39.309 4.73732 39.2949 4.75919 39.2793C4.78575 39.2621 4.81232 39.2449 4.84044 39.2278C4.86856 39.2106 4.89825 39.1934 4.92794 39.1778C4.95606 39.1621 4.98418 39.1481 5.01231 39.134C5.04668 39.1168 5.08262 39.0996 5.11699 39.084C5.13262 39.0778 5.1498 39.07 5.16543 39.0637C5.22011 39.0418 5.27636 39.02 5.33261 39.0028L13.1495 36.5201C13.2198 36.2466 13.2948 35.9748 13.3714 35.7029C13.3979 35.6091 13.4276 35.5154 13.4557 35.4232C13.5089 35.2451 13.5604 35.0685 13.6151 34.892C13.6495 34.7811 13.687 34.6717 13.7229 34.5623C13.7745 34.4029 13.8245 34.2436 13.8791 34.0842C13.9182 33.967 13.962 33.8514 14.0026 33.7358C14.0557 33.5842 14.1073 33.4327 14.1635 33.2827C14.2198 33.1311 14.2791 32.9796 14.3369 32.828C14.3791 32.7171 14.4198 32.6061 14.4635 32.4952C14.526 32.3374 14.5916 32.1812 14.6557 32.0249C14.6979 31.9202 14.7401 31.8171 14.7838 31.7124C14.8557 31.5406 14.9322 31.3703 15.0072 31.1984C15.0463 31.1109 15.0822 31.0234 15.1213 30.9359C15.2369 30.6781 15.3572 30.4219 15.4791 30.1672L10.9636 23.9612C10.9152 23.8955 10.8746 23.8268 10.8355 23.7549C10.8246 23.7362 10.8152 23.7174 10.8058 23.6971C10.7746 23.6346 10.7449 23.5706 10.7199 23.5049C10.7152 23.494 10.7105 23.4846 10.7074 23.4737C10.6808 23.3987 10.659 23.3206 10.6402 23.2424C10.6355 23.2221 10.6308 23.2018 10.6277 23.1815C10.6137 23.1159 10.6027 23.0487 10.5949 22.9815C10.5933 22.9643 10.5902 22.9471 10.5887 22.9315C10.5808 22.8503 10.5777 22.7675 10.5793 22.6847C10.5793 22.6659 10.5808 22.6472 10.5808 22.6268C10.584 22.5581 10.5887 22.4894 10.5965 22.4222C10.5996 22.4019 10.6012 22.3815 10.6043 22.3612C10.6168 22.2784 10.6308 22.194 10.6511 22.1112C10.6543 22.0972 10.659 22.0816 10.6636 22.0675C10.6824 21.9972 10.7043 21.9269 10.7277 21.8581C10.7371 21.8316 10.7449 21.8066 10.7558 21.78C10.7668 21.7519 10.7777 21.7238 10.7902 21.6972C10.8043 21.6644 10.8183 21.63 10.834 21.5972C10.8465 21.5691 10.8605 21.5425 10.8746 21.516C10.8933 21.48 10.9121 21.4425 10.934 21.4066C10.9433 21.3894 10.9527 21.3722 10.9636 21.355C10.9933 21.3066 11.0246 21.2581 11.0574 21.2097C11.0605 21.205 11.0636 21.1988 11.0668 21.1941C11.1058 21.1378 11.148 21.0816 11.1933 21.0269L17.1056 13.8303C17.1368 13.7913 17.1712 13.7569 17.204 13.7194C17.2493 13.6709 17.2946 13.6241 17.3415 13.5803C17.3649 13.5585 17.3884 13.535 17.4118 13.5147C17.4259 13.5022 17.4399 13.4897 17.4556 13.4788C17.4978 13.4444 17.5399 13.41 17.5837 13.3788C17.5946 13.371 17.6056 13.3616 17.6165 13.3538C17.6665 13.3178 17.7181 13.285 17.7712 13.2553C17.779 13.2507 17.7868 13.2444 17.7946 13.2397C17.854 13.2053 17.9149 13.1741 17.9774 13.1444C17.9899 13.1382 18.0009 13.135 18.0134 13.1288C18.0602 13.1085 18.1087 13.0882 18.1555 13.071C18.1743 13.0647 18.1946 13.0569 18.2134 13.0507C18.2571 13.0366 18.2993 13.0241 18.343 13.0116C18.3618 13.0069 18.379 13.0022 18.3977 12.9975C18.4587 12.9835 18.5196 12.971 18.5805 12.9632C18.6368 12.9553 18.6915 12.9507 18.7477 12.9475C18.7649 12.946 18.7821 12.946 18.7993 12.946C18.8383 12.9444 18.8774 12.9444 18.9165 12.946C18.9352 12.946 18.9539 12.9475 18.9727 12.9491C19.0133 12.9522 19.0524 12.9554 19.093 12.9616C19.1086 12.9632 19.1243 12.9647 19.1383 12.9679C19.193 12.9772 19.2461 12.9866 19.2992 13.0007C19.3086 13.0038 19.318 13.0069 19.3274 13.0085C19.3696 13.0194 19.4117 13.0335 19.4524 13.0475C19.4696 13.0538 19.4867 13.06 19.5039 13.0678C19.5383 13.0819 19.5711 13.096 19.6039 13.1116C19.6336 13.1257 19.6649 13.1397 19.6945 13.1553L16.1337 11.2179C16.1103 11.207 16.0884 11.196 16.0681 11.1851Z" fill="url(#paint0_linear)"/>
<path d="M73.0346 29.486C74.0424 29.5219 74.7814 30.3578 74.7783 31.4624L74.7611 40.4668C74.7596 41.5699 74.0174 42.6151 73.0081 42.9354L65.1912 45.4181C64.6287 47.5899 63.849 49.718 62.8616 51.771L67.377 57.9786C67.9692 58.7911 67.8708 60.0301 67.1489 60.9097L61.2367 68.1063C60.832 68.5985 60.2976 68.8969 59.7602 68.9735C59.3383 69.0328 58.9133 68.9547 58.5493 68.725L52.2198 64.7268C50.4433 66.0376 48.5715 67.1376 46.6294 68.0157L45.3326 76.631C45.1638 77.7419 44.292 78.6637 43.2702 78.8075L34.9252 79.9809C33.9034 80.1246 33.0346 79.4465 32.8706 78.3825L31.6034 70.1281C29.6629 69.7969 27.7958 69.2219 26.024 68.4094L19.6742 74.1873C19.3086 74.5201 18.8836 74.7186 18.4618 74.7779C17.9243 74.8529 17.3915 74.7045 16.9884 74.3264L11.0996 68.7875C10.3808 68.111 10.2887 66.897 10.8824 65.9189L15.4228 58.4395C14.4447 56.6615 13.6713 54.7522 13.1167 52.7382L5.30448 52.4522C4.29671 52.4163 3.55768 51.5788 3.5608 50.4758L3.57799 41.4714C3.57955 40.3683 4.32171 39.3231 5.33104 39.0028L13.1479 36.5201C13.712 34.3483 14.4916 32.2202 15.4775 30.1672L10.9621 23.9612C10.3715 23.1487 10.4683 21.9097 11.1902 21.0285L17.1025 13.8319C17.5071 13.3397 18.0415 13.0413 18.579 12.9647C19.0008 12.9054 19.4258 12.9835 19.7898 13.2147L26.1208 17.2114C27.8958 15.9006 29.7676 14.8006 31.7097 13.9241L33.0081 5.30878C33.1753 4.19789 34.0471 3.27761 35.0689 3.13387L43.4139 1.96048C44.4358 1.81673 45.3045 2.49327 45.4685 3.55729L46.7341 11.8117C48.6746 12.1429 50.5418 12.7179 52.3151 13.5303L58.6633 7.75244C59.0289 7.41964 59.4539 7.22121 59.8758 7.16184C60.4132 7.08684 60.946 7.23527 61.3491 7.61338L67.2364 13.1522C67.9567 13.8288 68.0473 15.0443 67.4536 16.0224L62.9132 23.5003C63.8928 25.2783 64.6662 27.1861 65.2193 29.2016L73.0346 29.486ZM39.1422 56.7286C47.1935 55.5974 53.7557 47.6056 53.7729 38.9153C53.7901 30.225 47.2528 24.0752 39.2016 25.2064C31.1503 26.3376 24.5865 34.3295 24.5693 43.0198C24.5522 51.7101 31.091 57.8598 39.1422 56.7286Z" fill="url(#paint1_linear)"/>
<path d="M39.2 25.208C47.2513 24.0768 53.7885 30.2265 53.7713 38.9168C53.7541 47.6071 47.1919 55.5974 39.1406 56.7302C31.0894 57.8629 24.5522 51.7116 24.5678 43.0213C24.5834 34.3311 31.1488 26.3392 39.2 25.208Z" fill="url(#paint2_linear)"/>
<defs>
<linearGradient id="paint0_linear" x1="4.80407e-06" y1="39.8954" x2="73.8131" y2="39.8954" gradientUnits="userSpaceOnUse">
<stop stop-color="#0040A8"/>
<stop offset="1" stop-color="#005AFF"/>
</linearGradient>
<linearGradient id="paint1_linear" x1="11.2255" y1="68.9131" x2="67.1149" y2="13.0237" gradientUnits="userSpaceOnUse">
<stop stop-color="#0085FF"/>
<stop offset="1" stop-color="#00C0FF"/>
</linearGradient>
<linearGradient id="paint2_linear" x1="27.7014" y1="52.4374" x2="50.6398" y2="29.499" gradientUnits="userSpaceOnUse">
<stop stop-color="#ADDCFF"/>
<stop offset="0.5028" stop-color="#EAF6FF"/>
<stop offset="1" stop-color="#EAF6FF"/>
</linearGradient>
</defs>
</svg>
