<svg width="80" height="80" viewBox="0 0 80 80" fill="none" xmlns="http://www.w3.org/2000/svg">
<path d="M75.1088 2.11648L8.83054 11.4321C8.72013 11.4472 8.6114 11.4689 8.501 11.4923C8.47257 11.499 8.44413 11.504 8.41736 11.5107C8.31867 11.5342 8.21998 11.5592 8.12296 11.5877C8.11292 11.591 8.10288 11.5927 8.09452 11.596C7.98914 11.6278 7.88542 11.6646 7.78171 11.7031C7.75495 11.7131 7.72818 11.7232 7.70309 11.7332C7.61444 11.7683 7.52578 11.8068 7.43712 11.847C7.42207 11.8536 7.40701 11.8603 7.39363 11.867C7.26985 11.9256 7.14941 11.9891 7.03064 12.0561C7.01224 12.0661 6.99217 12.0778 6.97377 12.0878C6.85835 12.1547 6.74627 12.2267 6.63587 12.302C6.61412 12.317 6.59238 12.3321 6.57063 12.3471C6.48699 12.4057 6.40503 12.4659 6.32473 12.5294C6.31637 12.5361 6.30801 12.5428 6.29964 12.5495C6.21266 12.6198 6.12735 12.6917 6.04371 12.767C6.02196 12.7871 5.99855 12.8071 5.9768 12.8272C5.91658 12.8824 5.85636 12.9393 5.79781 12.9978C5.79614 12.9995 5.79614 12.9995 5.79447 13.0012L7.69473 14.3093C7.58265 14.3879 7.47392 14.4732 7.37021 14.5652C7.27487 14.6522 7.18286 14.7442 7.09588 14.8412C7.01057 14.9382 6.93028 15.0403 6.855 15.1473C6.77638 15.2611 6.70278 15.3782 6.63754 15.5019C6.55892 15.6458 6.49201 15.7964 6.43514 15.9519L4.26054 15.4417C4.26054 15.4434 4.25887 15.4467 4.25887 15.4484C4.24549 15.4869 4.23043 15.527 4.21872 15.5672C4.20367 15.6124 4.19196 15.6575 4.1769 15.7027C4.16519 15.7428 4.15181 15.7813 4.14178 15.8214C4.12839 15.8683 4.11836 15.9151 4.10665 15.962C4.09661 16.0021 4.08658 16.0406 4.07654 16.0807C4.06483 16.1292 4.05647 16.1777 4.04643 16.2263C4.03806 16.2647 4.0297 16.3032 4.02301 16.3417C4.01297 16.3919 4.00628 16.4437 3.99792 16.4939C3.99123 16.5307 3.98454 16.5692 3.97952 16.606C3.97283 16.6595 3.96614 16.713 3.96112 16.7666C3.95777 16.8017 3.95275 16.8368 3.94941 16.8719C3.94439 16.9322 3.94104 16.9924 3.93603 17.0526C3.93435 17.0827 3.93101 17.1112 3.92933 17.1413C3.92432 17.2316 3.92264 17.3219 3.92264 17.4122L3.82562 69.2931L3.8273 71.6952L3.81559 75.0842C3.81224 76.9627 4.72223 78.4883 6.09222 79.2343L2.27999 77.1601C0.906648 76.4157 -0.00333634 74.8901 9.19378e-06 73.0116L0.0117186 69.6226L0.0100458 67.2205L0.107066 15.338C0.107066 15.2477 0.110412 15.1574 0.113757 15.067C0.11543 15.0369 0.118776 15.0085 0.120448 14.9784C0.123794 14.9182 0.127139 14.8579 0.13383 14.7977C0.137176 14.7626 0.142194 14.7275 0.14554 14.6907C0.152231 14.6371 0.157249 14.5836 0.16394 14.5301C0.168959 14.4916 0.17565 14.4531 0.182341 14.4147C0.190704 14.3645 0.197396 14.3143 0.207432 14.2658C0.214123 14.2273 0.22416 14.1872 0.230851 14.1487C0.240887 14.1002 0.249251 14.0517 0.260961 14.0048C0.270997 13.9647 0.281034 13.9262 0.29107 13.8861C0.30278 13.8392 0.314489 13.7924 0.326198 13.7472C0.337908 13.7071 0.349617 13.6669 0.361327 13.6285C0.374709 13.5833 0.388091 13.5381 0.401473 13.493C0.414855 13.4528 0.428237 13.4143 0.441619 13.3759C0.455001 13.3374 0.466711 13.2989 0.481766 13.2604C0.483438 13.2571 0.485111 13.2521 0.486784 13.2487C0.533621 13.1233 0.583804 13.0012 0.637333 12.8791C0.647369 12.8556 0.657406 12.8322 0.669115 12.8088C0.724317 12.69 0.781191 12.5713 0.843083 12.4558C0.846428 12.4492 0.849774 12.4408 0.853119 12.4341C0.861483 12.419 0.87152 12.404 0.879884 12.3873C0.923376 12.307 0.970213 12.2267 1.01705 12.1481C1.03211 12.1246 1.04549 12.0995 1.06054 12.0761C1.11909 11.9808 1.18098 11.8871 1.24455 11.7951C1.24789 11.7918 1.24956 11.7867 1.25291 11.7817C1.26295 11.7683 1.27298 11.755 1.28302 11.7416C1.3332 11.6713 1.38506 11.6011 1.43691 11.5342C1.45699 11.5091 1.47706 11.484 1.49713 11.4589C1.55234 11.3903 1.60754 11.3234 1.66441 11.2581C1.67445 11.2464 1.68448 11.2331 1.69619 11.2213C1.69954 11.218 1.70288 11.2147 1.70623 11.2113C1.77649 11.131 1.85009 11.0541 1.92369 10.9788C1.94209 10.9604 1.96216 10.942 1.98056 10.9219C2.03911 10.8634 2.09766 10.8082 2.15955 10.7513C2.17293 10.7396 2.18464 10.7262 2.19802 10.7145C2.20806 10.7061 2.2181 10.6994 2.22646 10.6911C2.3101 10.6158 2.39541 10.5439 2.48239 10.4753C2.49076 10.4686 2.49912 10.4619 2.50748 10.4552C2.58778 10.3917 2.66974 10.3314 2.75338 10.2729C2.76509 10.2645 2.7768 10.2545 2.79018 10.2461C2.80022 10.2394 2.81026 10.2344 2.81862 10.2277C2.92902 10.1524 3.04277 10.0805 3.15652 10.0136C3.17492 10.0036 3.19332 9.99186 3.21339 9.98182C3.33216 9.91491 3.4526 9.84968 3.57638 9.7928C3.57973 9.79113 3.58307 9.78946 3.58642 9.78778C3.59813 9.78277 3.60984 9.77775 3.62155 9.77273C3.70853 9.73258 3.79719 9.69578 3.88584 9.65898C3.91261 9.64894 3.93937 9.63724 3.96446 9.6272C4.06817 9.58873 4.17189 9.55192 4.27727 9.52014C4.28731 9.5168 4.29734 9.51512 4.30571 9.51178C4.40273 9.48334 4.50142 9.45825 4.60011 9.43483C4.62855 9.42814 4.65531 9.42145 4.68375 9.41643C4.79248 9.39301 4.90121 9.37294 5.01329 9.35621L71.2966 0.043927C71.4037 0.0288721 71.5107 0.0188356 71.6161 0.0121445C71.6379 0.0104717 71.6596 0.00879896 71.6814 0.0071262C71.7834 0.0021079 71.8854 -0.00123763 71.9858 0.000435136C72.0042 0.000435136 72.0209 0.0021079 72.0393 0.0021079C72.133 0.00378067 72.2267 0.00879896 72.3187 0.0171628C72.3321 0.0188356 72.3454 0.0188356 72.3588 0.0205083C72.4575 0.0305449 72.5545 0.043927 72.6516 0.0606547C72.6733 0.0640002 72.6934 0.0673457 72.7134 0.072364C72.8055 0.0890917 72.8975 0.109165 72.9861 0.130911C72.9895 0.132584 72.9945 0.132584 72.9978 0.134256C73.0079 0.137602 73.0179 0.139275 73.0279 0.14262C73.1149 0.166039 73.2002 0.192803 73.2839 0.22124C73.3039 0.227931 73.3223 0.234622 73.3424 0.241313C73.4311 0.273096 73.5197 0.308224 73.605 0.345025C73.6218 0.351716 73.6385 0.36008 73.6535 0.366771C73.6903 0.383498 73.7255 0.398553 73.7623 0.416954C73.8125 0.442045 73.8626 0.467137 73.9111 0.493901L77.7234 2.56813C77.6397 2.52296 77.5528 2.48115 77.4658 2.441C77.449 2.43431 77.434 2.42594 77.4173 2.41925C77.3303 2.38078 77.2433 2.34732 77.1546 2.31554C77.1362 2.30885 77.1162 2.30216 77.0978 2.29547C77.0141 2.26703 76.9288 2.24027 76.8418 2.21685C76.8318 2.2135 76.8218 2.21183 76.8134 2.20849C76.7197 2.18339 76.6244 2.16332 76.529 2.14659C76.5089 2.14325 76.4872 2.13823 76.4671 2.13488C76.3701 2.11816 76.2731 2.10477 76.1744 2.09474C76.161 2.09306 76.1476 2.09306 76.1343 2.09139C76.0423 2.08303 75.9502 2.07801 75.8549 2.07634C75.8365 2.07634 75.8198 2.07466 75.8014 2.07466C75.701 2.07299 75.599 2.07634 75.4969 2.08136C75.4752 2.08303 75.4534 2.0847 75.4317 2.08637C75.323 2.09139 75.2176 2.10143 75.1088 2.11648Z" fill="url(#paint0_linear)"/>
<path d="M28.7716 13.2421C30.5732 12.9895 32.0352 14.3645 32.0318 16.3083C32.0285 18.2537 30.5598 20.0419 28.7582 20.2945C26.9566 20.5471 25.493 19.172 25.4963 17.2266C25.5013 15.2829 26.97 13.4947 28.7716 13.2421ZM8.859 19.5651C8.85565 21.5106 10.3176 22.8873 12.1192 22.633C13.9208 22.3804 15.3911 20.5922 15.3945 18.6468C15.3978 16.703 13.9358 15.3264 12.1326 15.5806C10.331 15.8332 8.86234 17.6214 8.859 19.5651ZM75.1088 2.11653L8.83056 11.4322C6.12737 11.8119 3.92434 14.495 3.91932 17.4123L3.8223 69.2931L3.82397 71.6952L3.81226 75.0842C3.80725 77.9999 6.00024 80.064 8.70343 79.6843L74.9834 70.3687C77.6849 69.989 79.8879 67.3059 79.8929 64.3902L79.8528 51.0048L80 6.71663C80.005 3.80268 77.812 1.73681 75.1088 2.11653ZM6.1257 28.1565L77.6682 18.1015L77.5929 58.2294L77.5912 58.9253L6.13573 68.9686L6.14075 66.1048L6.06046 63.6057L6.1257 28.1565ZM6.22941 17.0861C6.23276 15.4953 7.4338 14.0333 8.90918 13.8259L75.0219 4.53367C76.4956 4.32625 77.6933 5.45202 77.6899 7.0445L77.6732 15.6994L6.21268 25.7427L6.22941 17.0861ZM77.5845 64.7181C77.5812 66.3089 76.3801 67.7726 74.9048 67.98L8.79209 77.2705C7.31838 77.478 6.12068 76.3522 6.12403 74.7597L6.13072 71.3724L77.5912 61.3291L77.5845 64.7181ZM17.1777 18.3959C17.1743 20.3413 18.638 21.7163 20.4395 21.4637C22.2411 21.2111 23.7115 19.423 23.7148 17.4775C23.7182 15.5338 22.2545 14.1571 20.4529 14.4114C18.6514 14.6639 17.181 16.4521 17.1777 18.3959Z" fill="url(#paint1_linear)"/>
<path d="M77.5879 61.3291L77.5846 64.7164C77.5812 66.3072 76.3802 67.7709 74.9048 67.9783L8.79209 77.2705C7.31838 77.4779 6.12068 76.3522 6.12403 74.7597L6.13072 71.3723L77.5879 61.3291ZM8.90918 13.8242C7.43381 14.0316 6.23276 15.4953 6.22941 17.0861L6.21269 25.7427L77.6732 15.6994L77.6899 7.04448C77.6933 5.45201 76.4956 4.32624 75.0219 4.53366L8.90918 13.8242ZM20.4396 21.4654C18.638 21.718 17.1743 20.343 17.1777 18.3975C17.181 16.4538 18.6514 14.6656 20.4529 14.413C22.2545 14.1604 23.7182 15.5354 23.7148 17.4792C23.7098 19.4229 22.2411 21.2111 20.4396 21.4654ZM28.7582 20.2945C26.9566 20.547 25.493 19.172 25.4963 17.2266C25.4997 15.2829 26.9684 13.4947 28.7716 13.2421C30.5732 12.9895 32.0352 14.3645 32.0318 16.3083C32.0285 18.2537 30.5598 20.0419 28.7582 20.2945ZM12.1192 22.6347C10.3177 22.8872 8.85566 21.5122 8.859 19.5668C8.86235 17.6231 10.331 15.8349 12.1326 15.5823C13.9342 15.3297 15.3978 16.7047 15.3945 18.6485C15.3911 20.5922 13.9225 22.3804 12.1192 22.6347ZM6.1257 28.1565L6.1441 63.701L6.13909 66.1048L6.13407 68.9686L77.5912 58.9253L77.5929 58.2294L77.6682 18.1015L6.1257 28.1565Z" fill="url(#paint2_linear)"/>
<path d="M60.5541 53.5038C60.6009 53.3666 60.6511 53.2311 60.6946 53.094C60.7464 52.9351 60.7899 52.7745 60.8384 52.6139C60.8786 52.4767 60.9221 52.3395 60.9606 52.2024C61.0057 52.0401 61.0425 51.8762 61.0843 51.7123C61.1178 51.5751 61.1563 51.4396 61.1864 51.3024C61.2249 51.1352 61.2566 50.9662 61.2901 50.7973C61.3169 50.6634 61.3486 50.5296 61.3721 50.3941C61.4038 50.2202 61.4289 50.0445 61.4557 49.8689C61.4758 49.7384 61.4992 49.6096 61.5176 49.4791C61.5427 49.2968 61.5611 49.1128 61.5812 48.9288C61.5945 48.805 61.6113 48.6829 61.623 48.5591C61.6414 48.355 61.6531 48.1493 61.6665 47.9435C61.6732 47.8398 61.6832 47.7378 61.6882 47.6357C61.7033 47.3279 61.71 47.0185 61.7116 46.709C61.7116 46.438 61.7049 46.1704 61.6949 45.9028C61.6932 45.8442 61.6899 45.784 61.6882 45.7254C61.6765 45.4645 61.6598 45.2035 61.6364 44.9459C61.633 44.9091 61.628 44.8707 61.6246 44.8339C61.6029 44.5997 61.5761 44.3671 61.546 44.1363C61.5393 44.0861 61.5326 44.0343 61.526 43.9841C61.4908 43.7332 61.4507 43.4839 61.4055 43.2364C61.3955 43.1845 61.3854 43.1343 61.3754 43.0825C61.3319 42.855 61.2851 42.6291 61.2332 42.4067C61.2265 42.3749 61.2198 42.3431 61.2115 42.3113C61.2081 42.2979 61.2048 42.2829 61.2014 42.2695C61.1462 42.0387 61.0843 41.8095 61.0208 41.5837C61.0041 41.5234 60.9856 41.4632 60.9689 41.403C60.9087 41.2023 60.8468 41.0015 60.7799 40.8042C60.7648 40.759 60.7498 40.7122 60.7347 40.6653C60.6544 40.4328 60.5691 40.202 60.4788 39.9761C60.4571 39.9226 60.4353 39.8708 60.4136 39.8172C60.3366 39.6282 60.2563 39.4425 60.1727 39.2569C60.1493 39.2067 60.1275 39.1565 60.1041 39.1063C60.0021 38.8872 59.895 38.6697 59.7846 38.4556C59.7612 38.4104 59.7361 38.3669 59.7127 38.3234C59.6173 38.1445 59.5186 37.9688 59.4166 37.7949C59.3865 37.743 59.3564 37.6928 59.3263 37.641C59.2025 37.4352 59.0753 37.2311 58.9432 37.0321C58.9215 36.9986 58.8964 36.9652 58.8746 36.9317C58.7592 36.7611 58.6388 36.5921 58.5166 36.4265C58.4798 36.3764 58.443 36.3262 58.4062 36.2777C58.2607 36.087 58.1135 35.8979 57.9596 35.7139C57.9429 35.6955 57.9262 35.6771 57.9111 35.6571C57.7706 35.4898 57.6251 35.3275 57.4762 35.1669C57.4327 35.1201 57.3909 35.0749 57.3474 35.0281C57.1818 34.8525 57.0112 34.6802 56.8372 34.5129C56.3772 34.073 55.8938 33.6681 55.3903 33.3001C55.1945 33.1579 54.9955 33.0225 54.7947 32.8903C54.6074 32.7665 54.4167 32.6478 54.2243 32.534C54.144 32.4872 54.0637 32.4437 53.9835 32.3985C53.9299 32.3684 53.8764 32.3366 53.8212 32.3065L49.3817 29.891C49.2228 29.8057 49.0639 29.7221 48.9033 29.6435C48.8949 29.6385 48.8865 29.6351 48.8782 29.6301C48.8531 29.6184 48.8263 29.6067 48.8012 29.595C48.6423 29.518 48.4817 29.4444 48.3211 29.3742C48.2659 29.3491 48.2091 29.3256 48.1539 29.3022C47.9866 29.232 47.8176 29.1634 47.6487 29.0998C47.6203 29.0898 47.5918 29.0764 47.5634 29.0664C47.3677 28.9944 47.1686 28.9259 46.9679 28.8623C46.9143 28.8456 46.8608 28.8288 46.809 28.8138C46.6517 28.7653 46.4928 28.7201 46.3339 28.6766C46.2988 28.6666 46.2653 28.6565 46.2302 28.6465C46.2084 28.6415 46.185 28.6365 46.1633 28.6298C46.0395 28.598 45.914 28.5696 45.7869 28.5411C45.7317 28.5277 45.6765 28.5144 45.6196 28.5026C45.4373 28.4642 45.255 28.429 45.071 28.3973C45.0509 28.3939 45.0308 28.3906 45.0107 28.3872C44.9321 28.3738 44.8535 28.3621 44.7749 28.3504C44.7933 28.3437 44.8117 28.3354 44.8301 28.3287C44.8903 28.3103 44.9522 28.2935 45.0141 28.2852C45.27 28.2534 45.5259 28.2283 45.7802 28.2066C45.8605 28.1999 45.9408 28.1949 46.0194 28.1898C46.1967 28.1781 46.3724 28.1664 46.548 28.1597C46.6383 28.1564 46.727 28.153 46.8157 28.1514C46.9879 28.1463 47.1602 28.1447 47.3309 28.1463C47.4128 28.1463 47.4948 28.1463 47.5768 28.148C47.7926 28.1514 48.0083 28.1597 48.2224 28.1714C48.2559 28.1731 48.2894 28.1731 48.3228 28.1765C48.5687 28.1915 48.8146 28.2133 49.0572 28.2383C49.1291 28.245 49.1993 28.2551 49.2713 28.2634C49.4452 28.2835 49.6175 28.3069 49.7898 28.332C49.8751 28.3454 49.9588 28.3588 50.0441 28.3722C50.2064 28.3989 50.3686 28.429 50.5292 28.4608C50.6095 28.4776 50.6914 28.4926 50.7717 28.5093C50.9591 28.5495 51.1448 28.593 51.3304 28.6398C51.379 28.6515 51.4291 28.6632 51.4776 28.6749C51.7135 28.7368 51.9477 28.8037 52.1802 28.8757C52.2438 28.8957 52.3057 28.9175 52.3676 28.9376C52.5399 28.9928 52.7105 29.0513 52.8794 29.1132C52.958 29.1416 53.035 29.1701 53.1119 29.2002C53.2725 29.2604 53.4314 29.3256 53.5887 29.3909C53.6589 29.421 53.7309 29.4494 53.8011 29.4795C54.0119 29.5715 54.221 29.6669 54.4267 29.7673C54.4384 29.7739 54.4518 29.779 54.4652 29.7857C54.6559 29.8793 54.8449 29.978 55.0323 30.0801L50.5928 27.6646C50.4054 27.5625 50.2164 27.4655 50.0257 27.3719C50.024 27.3702 50.0223 27.3702 50.0207 27.3685C50.009 27.3635 49.9973 27.3585 49.9855 27.3535C49.7798 27.2531 49.5707 27.1577 49.3616 27.0657C49.2913 27.0356 49.2194 27.0055 49.1492 26.9771C48.9919 26.9118 48.833 26.8483 48.6724 26.7864C48.5955 26.7563 48.5169 26.7278 48.4399 26.6994C48.271 26.6375 48.1003 26.5806 47.928 26.5238C47.8661 26.5037 47.8043 26.4819 47.7407 26.4619C47.5082 26.3899 47.274 26.323 47.0381 26.2611C47.0298 26.2595 47.0214 26.2561 47.013 26.2544C46.9729 26.2444 46.9311 26.236 46.8909 26.226C46.7053 26.1792 46.5196 26.1357 46.3322 26.0955C46.2519 26.0788 46.17 26.0621 46.0897 26.047C45.9291 26.0152 45.7668 25.9851 45.6046 25.9584C45.5193 25.945 45.4356 25.9299 45.3503 25.9182C45.178 25.8931 45.0057 25.8697 44.8318 25.8496C44.7598 25.8413 44.6896 25.8312 44.6176 25.8245C44.3734 25.7995 44.1292 25.7777 43.8833 25.7627C43.8498 25.761 43.8164 25.761 43.7829 25.7576C43.5688 25.7459 43.353 25.7376 43.1372 25.7342C43.0553 25.7325 42.9733 25.7325 42.8913 25.7325C42.7207 25.7325 42.5484 25.7342 42.3761 25.7376C42.2875 25.7392 42.1971 25.7426 42.1085 25.7459C41.9329 25.7526 41.7572 25.7643 41.5799 25.776C41.4996 25.7811 41.421 25.7861 41.3407 25.7928C41.0864 25.8145 40.8305 25.8396 40.5746 25.8714C40.5127 25.8797 40.4508 25.8948 40.3906 25.9149C40.3705 25.9216 40.3521 25.9299 40.3337 25.9366C40.3036 25.9483 40.2751 25.9567 40.2467 25.9701C40.2367 25.9751 40.23 25.9801 40.2199 25.9851C40.1865 26.0019 40.1564 26.0203 40.1246 26.0403C40.1045 26.052 40.0828 26.0621 40.0644 26.0755C40.056 26.0822 40.0476 26.0888 40.0393 26.0955C40.0209 26.1089 40.0025 26.124 39.9841 26.139C39.9657 26.1541 39.9456 26.1675 39.9272 26.1842C39.9138 26.1976 39.9004 26.211 39.8871 26.2243C39.872 26.2394 39.8569 26.2544 39.8419 26.2695C39.8319 26.2795 39.8202 26.2896 39.8101 26.3013C39.7867 26.328 39.7666 26.3565 39.7449 26.3832C39.7348 26.395 39.7265 26.4067 39.7164 26.4184C39.7131 26.4217 39.7097 26.4251 39.7081 26.4301C39.6746 26.4769 39.6445 26.5271 39.6161 26.579C39.6144 26.5806 39.6144 26.584 39.6127 26.5857C39.5993 26.6091 39.591 26.6342 39.5793 26.6593C39.5625 26.6961 39.5441 26.7295 39.5308 26.768C39.5291 26.7713 39.5291 26.7764 39.5274 26.7797C39.5007 26.8533 39.4806 26.9286 39.4655 27.0055C39.4421 27.1343 39.4137 27.2615 39.3819 27.3869C39.3769 27.4103 39.3702 27.4321 39.3652 27.4555C39.3334 27.5759 39.2982 27.6947 39.2598 27.8135C39.2514 27.8369 39.2447 27.8586 39.2364 27.882C39.2079 27.9623 39.1778 28.041 39.146 28.1213C39.1193 28.1882 39.0925 28.2551 39.0641 28.3203C39.0356 28.3856 39.0055 28.4491 38.9754 28.5144C38.9453 28.5796 38.9135 28.6432 38.8801 28.7067C38.8433 28.7786 38.8048 28.8472 38.7646 28.9175C38.7395 28.961 38.7161 29.0028 38.691 29.0463C38.6425 29.1266 38.5923 29.2035 38.5405 29.2805C38.5187 29.3139 38.4987 29.3474 38.4752 29.3792C38.4016 29.4846 38.3264 29.5883 38.2461 29.687C38.2293 29.7087 38.2093 29.7305 38.1925 29.7505C38.129 29.8291 38.0637 29.9044 37.9968 29.9797C37.9667 30.0132 37.9366 30.0449 37.9065 30.0767C37.848 30.1386 37.7877 30.2005 37.7275 30.259C37.6941 30.2908 37.6623 30.3226 37.6288 30.3544C37.5686 30.4096 37.5067 30.4631 37.4448 30.5167C37.4063 30.5501 37.3679 30.5819 37.3294 30.6137C37.2625 30.6689 37.1922 30.7207 37.122 30.7709C37.0869 30.796 37.0534 30.8228 37.0199 30.8462C36.9764 30.8763 36.9296 30.9047 36.8844 30.9332C36.8108 30.9817 36.7356 31.0302 36.6586 31.0754C36.6084 31.1055 36.5566 31.1306 36.5064 31.159C36.4328 31.1991 36.3609 31.2376 36.2856 31.2744C36.1836 31.3229 36.0815 31.3714 35.9778 31.4133C35.9678 31.4166 35.9577 31.4199 35.9477 31.425C35.8457 31.4651 35.7419 31.5019 35.6382 31.5354C35.6081 31.5454 35.5797 31.5538 35.5496 31.5621C35.4358 31.5956 35.3204 31.6274 35.2033 31.6525C35.1598 31.6625 35.118 31.6742 35.0762 31.6876C35.0628 31.6926 35.0478 31.6993 35.0344 31.7043C35.0076 31.7144 34.9792 31.7244 34.9524 31.7378C34.9507 31.7378 34.9507 31.7378 34.9491 31.7394C34.9457 31.7411 34.944 31.7428 34.9407 31.7445C34.8872 31.7696 34.837 31.7997 34.7868 31.8331C34.7801 31.8381 34.7734 31.8398 34.7667 31.8448C34.7617 31.8482 34.7567 31.8532 34.7517 31.8565C34.7149 31.8833 34.6797 31.9117 34.6446 31.9419C34.6396 31.9452 34.6346 31.9485 34.6312 31.9536C34.6296 31.9536 34.6296 31.9552 34.6296 31.9569C34.5928 31.9904 34.5576 32.0272 34.5225 32.064C34.5208 32.0656 34.5192 32.0673 34.5175 32.069C34.5091 32.0773 34.5024 32.0874 34.4957 32.0974C34.4723 32.1242 34.4506 32.1526 34.4288 32.1827C34.4255 32.1877 34.4205 32.1928 34.4171 32.1978C34.3987 32.2245 34.3803 32.253 34.3619 32.2814C34.3485 32.3032 34.3368 32.3249 34.3251 32.3467C34.3218 32.3534 34.3184 32.36 34.3151 32.3684C34.2866 32.4236 34.2599 32.4788 34.2398 32.5357V32.5374C34.2181 32.5942 34.203 32.6528 34.1896 32.7113C34.1863 32.7264 34.1829 32.7414 34.1796 32.7565C34.1679 32.8167 34.1595 32.8753 34.1562 32.9355V32.9371C34.1528 32.9957 34.1545 33.0542 34.1595 33.1128C34.1612 33.1278 34.1612 33.1429 34.1629 33.1563C34.1695 33.2148 34.1779 33.2734 34.193 33.3302C34.2298 33.4691 34.2582 33.6129 34.2833 33.7568C34.2883 33.7886 34.295 33.822 34.3 33.8555C34.3234 33.9977 34.3418 34.1415 34.3536 34.2854C34.3552 34.3055 34.3552 34.3255 34.3569 34.3456C34.3669 34.4778 34.372 34.6116 34.3736 34.7471C34.3736 34.7789 34.3753 34.809 34.3753 34.8408C34.3753 34.988 34.3703 35.1368 34.3602 35.2857C34.3586 35.3158 34.3552 35.3459 34.3536 35.3744C34.3418 35.5099 34.3285 35.6437 34.3084 35.7808C34.305 35.8059 34.3017 35.831 34.2983 35.8561C34.2749 36.0067 34.2482 36.1589 34.2147 36.3111C34.208 36.3446 34.1997 36.3797 34.1913 36.4132C34.1578 36.5587 34.121 36.7042 34.0792 36.8497C34.0759 36.8598 34.0742 36.8698 34.0709 36.8815C34.0257 37.0354 33.9738 37.1876 33.9203 37.3399C33.9086 37.3733 33.8952 37.4084 33.8835 37.4419C33.8233 37.6025 33.758 37.7631 33.6878 37.922C33.6778 37.9454 33.666 37.9671 33.656 37.9906C33.5858 38.1428 33.5122 38.295 33.4319 38.4439C33.4168 38.4723 33.4034 38.4991 33.3884 38.5275C33.3181 38.6563 33.2445 38.7818 33.1676 38.9056C33.1441 38.9424 33.1207 38.9792 33.0973 39.0176C33.0421 39.1046 32.9852 39.1916 32.9267 39.2769C32.8999 39.3154 32.8732 39.3539 32.8464 39.3923C32.7862 39.4777 32.7226 39.5613 32.6607 39.6433C32.639 39.6717 32.6172 39.7001 32.5955 39.7286C32.5102 39.8373 32.4215 39.941 32.3329 40.0431C32.3128 40.0648 32.2927 40.0865 32.2726 40.1083C32.2024 40.1869 32.1304 40.2639 32.0585 40.3375C32.0267 40.3692 31.995 40.401 31.9615 40.4328C31.8979 40.4964 31.8327 40.5583 31.7675 40.6185C31.734 40.6486 31.7005 40.6787 31.6671 40.7088C31.5835 40.7824 31.4981 40.8543 31.4128 40.9229C31.3928 40.9397 31.3744 40.9564 31.3543 40.9714C31.2489 41.0551 31.1418 41.1337 31.0331 41.209C31.0097 41.2257 30.9863 41.2408 30.9629 41.2558C30.8491 41.3328 30.7337 41.4064 30.6166 41.4749C30.5932 41.49 30.5681 41.505 30.5447 41.5184C30.4142 41.5937 30.282 41.6623 30.1482 41.7259C30.1148 41.7426 30.0813 41.7576 30.0479 41.7727C29.9609 41.8128 29.8739 41.8496 29.7852 41.8848C29.7501 41.8981 29.715 41.9132 29.6782 41.9266C29.5577 41.9717 29.4373 42.0136 29.3152 42.0504C29.2633 42.0654 29.2131 42.0855 29.163 42.1089C29.1563 42.1123 29.1513 42.1139 29.1446 42.1156C29.1395 42.1173 29.1362 42.1206 29.1312 42.124C29.076 42.1507 29.0241 42.1808 28.9739 42.2143C28.9706 42.216 28.9672 42.2176 28.9639 42.221C28.9572 42.226 28.9522 42.231 28.9455 42.236C28.9104 42.2611 28.8769 42.2879 28.8435 42.3163C28.8384 42.3214 28.8318 42.3247 28.8267 42.3297C28.8251 42.3314 28.8234 42.3347 28.82 42.3364C28.7849 42.3682 28.7498 42.4033 28.718 42.4401C28.7163 42.4418 28.713 42.4435 28.7113 42.4468C28.7063 42.4535 28.7013 42.4602 28.6963 42.4652C28.6712 42.4953 28.6461 42.5254 28.6243 42.5572C28.6193 42.5639 28.6143 42.5689 28.6093 42.5756C28.6059 42.5806 28.6026 42.5857 28.5992 42.5907C28.5691 42.6342 28.5424 42.6777 28.5173 42.7228C28.5173 42.7228 28.5173 42.7245 28.5156 42.7245C28.5139 42.7262 28.5139 42.7278 28.5139 42.7295C28.4838 42.7847 28.4587 42.8416 28.437 42.9001C28.4353 42.9052 28.432 42.9102 28.4303 42.9152C28.4286 42.9185 28.4286 42.9219 28.4269 42.9252C28.4119 42.9687 28.3968 43.0139 28.3851 43.059C28.3835 43.0674 28.3818 43.0758 28.3801 43.0858C28.3717 43.1226 28.3651 43.1611 28.3584 43.1979C28.3567 43.2129 28.355 43.228 28.3533 43.243C28.35 43.2765 28.3467 43.31 28.3467 43.3451C28.3467 43.3601 28.345 43.3735 28.345 43.3886C28.345 43.4354 28.3467 43.4839 28.3517 43.5308C28.3734 43.7231 28.3835 43.9188 28.3835 44.1112C28.3835 44.1982 28.3818 44.2835 28.3768 44.3688C28.3751 44.3956 28.3734 44.424 28.3717 44.4508C28.3684 44.5093 28.3651 44.5679 28.3584 44.6248C28.355 44.6582 28.35 44.6917 28.3467 44.7251C28.3416 44.777 28.3349 44.8288 28.3283 44.879C28.3232 44.9141 28.3165 44.9493 28.3115 44.9844C28.3032 45.0329 28.2965 45.0814 28.2881 45.1299C28.2814 45.1667 28.2731 45.2035 28.2647 45.2403C28.2546 45.2872 28.2463 45.334 28.2362 45.3792C28.2279 45.416 28.2178 45.4528 28.2078 45.4912C28.1961 45.5364 28.1861 45.5816 28.1727 45.6267C28.1626 45.6635 28.1509 45.7003 28.1392 45.7371C28.1258 45.7806 28.1141 45.8258 28.0991 45.8693C28.0874 45.9061 28.074 45.9429 28.0606 45.9797C28.0472 46.0215 28.0322 46.0617 28.0171 46.1018C27.9736 46.2206 27.9251 46.3377 27.8733 46.4548C27.8632 46.4765 27.8532 46.4999 27.8431 46.5217C27.7913 46.6354 27.7361 46.7475 27.6775 46.8579C27.6658 46.8796 27.6541 46.9014 27.6424 46.9215C27.6006 46.9984 27.5571 47.0737 27.5119 47.149C27.4986 47.1724 27.4852 47.1941 27.4701 47.2175C27.4132 47.3079 27.3547 47.3982 27.2945 47.4852C27.2828 47.5019 27.2694 47.5186 27.2577 47.5354C27.2092 47.6023 27.1607 47.6692 27.1105 47.7344C27.0921 47.7595 27.072 47.7829 27.0536 47.8064C27.0017 47.8716 26.9482 47.9352 26.8947 47.9971C26.8813 48.0121 26.8679 48.0272 26.8545 48.0439C26.7876 48.1192 26.7174 48.1944 26.6471 48.2664C26.6287 48.2848 26.6103 48.3015 26.5936 48.3199C26.5384 48.3751 26.4815 48.4286 26.423 48.4822C26.4012 48.5022 26.3812 48.5206 26.3594 48.5407C26.2791 48.6126 26.1971 48.6812 26.1135 48.7481C26.1068 48.7548 26.0985 48.7598 26.0901 48.7649C26.0131 48.8251 25.9329 48.8836 25.8542 48.9405C25.8342 48.9555 25.8124 48.9689 25.7923 48.984C25.687 49.0559 25.5799 49.1245 25.4695 49.1881C25.4511 49.1981 25.4344 49.2081 25.416 49.2182C25.3022 49.2834 25.1868 49.3436 25.0697 49.3988C25.0563 49.4055 25.0413 49.4105 25.0279 49.4172C24.9442 49.4557 24.8606 49.4908 24.7753 49.526C24.7502 49.536 24.7251 49.546 24.7 49.5561C24.6013 49.5929 24.5026 49.628 24.4023 49.6581C24.3922 49.6615 24.3839 49.6631 24.3738 49.6665C24.2818 49.6932 24.1865 49.7183 24.0928 49.7401C24.066 49.7468 24.0393 49.7518 24.0125 49.7585C23.9088 49.7802 23.8051 49.8003 23.6997 49.8153C23.2999 49.8722 22.9018 49.8739 22.5187 49.8204C22.4251 49.807 22.3297 49.807 22.2344 49.8204C22.1725 49.8287 22.1123 49.8438 22.052 49.8639C22.032 49.8705 22.0136 49.8789 21.9952 49.8856C21.9651 49.8973 21.9349 49.9057 21.9048 49.9207C21.8948 49.9257 21.8864 49.9324 21.8764 49.9375C21.8446 49.9525 21.8162 49.9709 21.7844 49.9893C21.7626 50.0027 21.7409 50.0127 21.7208 50.0261C21.7108 50.0328 21.7008 50.0428 21.6907 50.0495C21.6723 50.0629 21.6556 50.078 21.6372 50.0914C21.6188 50.1064 21.6004 50.1181 21.5837 50.1332C21.5569 50.1583 21.5301 50.1834 21.5034 50.2118C21.4917 50.2235 21.48 50.2369 21.4699 50.2486C21.4599 50.2603 21.4515 50.2737 21.4415 50.2854C21.4231 50.3088 21.4047 50.3306 21.3863 50.3557C21.3813 50.364 21.3746 50.3707 21.3679 50.3774C21.3612 50.3874 21.3545 50.3991 21.3478 50.4092C21.3294 50.4376 21.311 50.4661 21.2943 50.4945C21.2876 50.5045 21.2809 50.5146 21.2759 50.5246C21.2725 50.5313 21.2692 50.5397 21.2658 50.548C21.2407 50.5982 21.2173 50.6484 21.1973 50.7002C21.1956 50.7053 21.1922 50.7103 21.1906 50.7153C21.1906 50.717 21.1906 50.7186 21.1889 50.7186C21.1789 50.7454 21.1722 50.7738 21.1638 50.8006C21.1571 50.8207 21.1504 50.8424 21.1454 50.8625C21.1387 50.8909 21.1337 50.921 21.1287 50.9495C21.1253 50.9696 21.1203 50.9896 21.117 51.008C21.1119 51.0398 21.1103 51.0733 21.1086 51.105C21.1069 51.1218 21.1053 51.1385 21.1036 51.1552C21.1019 51.2054 21.1036 51.2539 21.1069 51.3041C21.5352 56.3776 23.7148 60.8238 27.241 63.8264C28.0874 64.5474 28.9957 65.1697 29.9525 65.6899L34.392 68.1054C33.4352 67.5851 32.5286 66.9629 31.6805 66.2419C29.7953 64.636 28.2998 62.617 27.246 60.3103C27.716 60.8489 28.2229 61.3524 28.7682 61.8174C29.5159 62.4531 30.3172 63.0018 31.1602 63.4618C31.1602 63.4618 31.1602 63.4618 31.1586 63.4618H31.1602L35.5998 65.8772C35.767 65.9676 35.936 66.0562 36.1066 66.1399C36.1066 66.1399 36.1066 66.1399 36.1083 66.1399C36.304 66.2352 36.5014 66.3255 36.7021 66.4125C36.764 66.4393 36.8276 66.4644 36.8895 66.4911C37.03 66.5497 37.1705 66.6066 37.3127 66.6601C37.3846 66.6869 37.4565 66.7136 37.5301 66.7404C37.6706 66.7906 37.8128 66.8391 37.955 66.8859C38.0219 66.9077 38.0905 66.9311 38.1574 66.9512C38.3431 67.008 38.5288 67.0616 38.7161 67.1117C38.7379 67.1168 38.7579 67.1235 38.778 67.1301C38.7814 67.1301 38.7847 67.1318 38.7881 67.1318C39.0005 67.187 39.2163 67.2355 39.4321 67.2807C39.4956 67.2941 39.5609 67.3058 39.6261 67.3175C39.7817 67.3476 39.9372 67.376 40.0928 67.4011C40.1698 67.4128 40.245 67.4245 40.322 67.4363C40.4759 67.458 40.6298 67.4781 40.7837 67.4948C40.8539 67.5032 40.9258 67.5115 40.9961 67.5182C41.2052 67.5383 41.416 67.555 41.6284 67.5667C41.6418 67.5667 41.6552 67.5684 41.6686 67.5701C41.8944 67.5818 42.1202 67.5868 42.3477 67.5902C42.4163 67.5902 42.4865 67.5885 42.5551 67.5885C42.7157 67.5868 42.878 67.5851 43.0402 67.5784C43.1205 67.5751 43.1991 67.5718 43.2794 67.5684C43.44 67.56 43.6023 67.5483 43.7645 67.5349C43.8365 67.5283 43.9084 67.5232 43.9803 67.5166C44.2112 67.4948 44.4437 67.468 44.6762 67.4346C44.9321 67.3978 45.1864 67.3543 45.4406 67.3075C45.5176 67.2924 45.5929 67.2773 45.6681 67.2623C45.8538 67.2255 46.0378 67.1837 46.2218 67.1402C46.2988 67.1218 46.3774 67.1034 46.4543 67.085C46.6802 67.0281 46.906 66.9662 47.1301 66.901C47.1552 66.8926 47.182 66.8876 47.2071 66.8792C47.4546 66.804 47.7022 66.7237 47.9481 66.6367C48.0184 66.6116 48.0886 66.5848 48.1589 66.5597C48.3395 66.4945 48.5202 66.4259 48.6992 66.354C48.7745 66.3239 48.8514 66.2938 48.9267 66.262C49.1291 66.1783 49.3298 66.0897 49.5306 65.9977C49.5707 65.9793 49.6108 65.9626 49.651 65.9442C49.661 65.9391 49.6711 65.9358 49.6811 65.9308C49.922 65.817 50.1612 65.6983 50.3987 65.5728C50.4522 65.5444 50.5058 65.5126 50.561 65.4841C50.7517 65.3804 50.9424 65.2767 51.1314 65.1663C51.2184 65.1145 51.3054 65.0609 51.3923 65.0091C51.5462 64.9171 51.6985 64.8234 51.8507 64.7247C51.946 64.6628 52.0397 64.5992 52.135 64.5374C52.2254 64.4771 52.3191 64.4186 52.4094 64.3567C52.4679 64.3165 52.5265 64.2731 52.585 64.2312C52.6486 64.1861 52.7105 64.1426 52.7724 64.0974C52.9614 63.9603 53.1471 63.8214 53.3311 63.6776C53.3612 63.6541 53.3913 63.6324 53.4214 63.609C53.6322 63.4434 53.8396 63.2711 54.0453 63.0954C54.1005 63.0486 54.1541 63.0001 54.2093 62.9532C54.2896 62.883 54.3699 62.8161 54.4485 62.7442C54.5355 62.6672 54.6191 62.5869 54.7044 62.5066C54.7462 62.4681 54.7881 62.4297 54.8282 62.3912C55.0239 62.2055 55.2163 62.0165 55.407 61.8225C55.4488 61.7806 55.4889 61.7371 55.5291 61.6953C55.6913 61.5264 55.8519 61.3558 56.0092 61.1818C56.0476 61.14 56.0861 61.0982 56.1246 61.0563C56.1447 61.0329 56.1664 61.0112 56.1865 60.9894C56.3621 60.7904 56.5344 60.588 56.705 60.3822C56.8957 60.1497 57.0797 59.9155 57.2604 59.6763C57.3206 59.5977 57.3758 59.5174 57.4344 59.4371C57.5364 59.2983 57.6401 59.1611 57.7371 59.0206C57.7555 58.9938 57.7723 58.967 57.7907 58.9403C57.8291 58.8851 57.8659 58.8299 57.9027 58.7747C58.0265 58.594 58.147 58.4117 58.2641 58.2277C58.3042 58.1641 58.3444 58.1022 58.3845 58.0387C58.53 57.8061 58.6722 57.572 58.8094 57.3344C58.8211 57.3127 58.8328 57.2909 58.8445 57.2709C58.9382 57.1069 59.0302 56.943 59.1188 56.7774C59.1456 56.7289 59.169 56.6787 59.1958 56.6285C59.246 56.5332 59.2962 56.4362 59.3447 56.3408C59.4266 56.1802 59.5069 56.018 59.5855 55.854C59.6324 55.7553 59.6792 55.6566 59.7261 55.558C59.803 55.389 59.8783 55.2201 59.9519 55.0494C59.992 54.9574 60.0322 54.8638 60.0706 54.7718C60.156 54.5677 60.2362 54.3619 60.3132 54.1562C60.3333 54.106 60.355 54.0558 60.3734 54.004C60.3768 53.9956 60.3784 53.9872 60.3818 53.9789C60.3851 53.9688 60.3901 53.9588 60.3935 53.9487C60.4554 53.7999 60.5039 53.651 60.5541 53.5038ZM45.0994 63.5856C44.8987 63.6776 44.6979 63.7662 44.4955 63.8515C44.4203 63.8833 44.3433 63.9134 44.268 63.9435C44.0974 64.0121 43.9268 64.0773 43.7562 64.1392C43.7712 64.1275 43.7846 64.1158 43.798 64.1041C43.808 64.0957 43.8197 64.0874 43.8314 64.079C43.8465 64.0656 43.8599 64.0506 43.8733 64.0355C43.89 64.0188 43.9067 64.0021 43.9234 63.9853C43.9301 63.977 43.9385 63.9703 43.9452 63.9619C43.9619 63.9435 43.9753 63.9235 43.992 63.9034C44.0071 63.885 44.0221 63.8683 44.0355 63.8482C44.0405 63.8432 44.0456 63.8365 44.0489 63.8314C44.064 63.8114 44.0757 63.788 44.089 63.7662C44.1041 63.7428 44.1208 63.7177 44.1342 63.6926C44.1376 63.6876 44.1409 63.6826 44.1442 63.6776C44.1526 63.6625 44.1576 63.6458 44.166 63.6307C44.1861 63.5906 44.2045 63.5504 44.2212 63.5086C44.2245 63.5002 44.2296 63.4902 44.2329 63.4818C44.2463 63.4467 44.258 63.4099 44.268 63.3748C44.268 63.3731 44.2697 63.3698 44.2697 63.3681C44.2848 63.3162 44.2948 63.2627 44.3032 63.2092C44.3048 63.1958 44.3065 63.1824 44.3082 63.1707C44.3149 63.1172 44.3199 63.0636 44.3199 63.0101C44.3199 62.9315 44.3132 62.8529 44.2981 62.7759C44.2898 62.7358 44.2797 62.6956 44.268 62.6588C44.2664 62.6555 44.2647 62.6505 44.2647 62.6471C44.2413 62.5752 44.2128 62.5066 44.1777 62.4431C44.1777 62.4414 44.176 62.4414 44.176 62.4414C44.1392 62.3761 44.0957 62.3159 44.0472 62.2607C44.0389 62.2524 44.0305 62.244 44.0221 62.2356C44.0054 62.2172 43.9887 62.1988 43.9703 62.1821C43.9602 62.1721 43.9485 62.1654 43.9368 62.1553C43.9201 62.142 43.9034 62.1269 43.885 62.1135C43.8699 62.1035 43.8532 62.0934 43.8365 62.0834C43.8214 62.0734 43.8064 62.0633 43.7913 62.055L39.3518 59.6395C39.3401 59.6328 39.33 59.6278 39.3183 59.6211C39.3133 59.6178 39.3066 59.6178 39.3016 59.6144C39.2497 59.591 39.1979 59.5692 39.1427 59.5559C39.141 59.5559 39.141 59.5559 39.141 59.5542C39.1193 59.5492 39.0958 59.5442 39.0724 59.5408C39.0607 59.5391 39.0473 59.5358 39.0356 59.5341C39.0155 59.5308 38.9938 59.5308 38.9721 59.5291C39.0155 59.5207 39.0574 59.5107 39.0992 59.5007C39.1343 59.4923 39.1678 59.4823 39.2012 59.4739C39.2899 59.4505 39.3785 59.4237 39.4655 59.3936C39.4956 59.3836 39.5274 59.3735 39.5575 59.3618C39.6663 59.3217 39.7733 59.2782 39.8787 59.228C39.882 59.2263 39.8871 59.223 39.8904 59.2213C39.9222 59.2063 39.9523 59.1879 39.9841 59.1728C40.0677 59.131 40.1514 59.0875 40.2333 59.039C40.2751 59.0139 40.3153 58.9871 40.3571 58.9604C40.409 58.9269 40.4625 58.8968 40.5143 58.8617C40.5327 58.8483 40.5495 58.8349 40.5679 58.8215C40.5963 58.8014 40.6247 58.7797 40.6532 58.7579C40.7285 58.7011 40.8021 58.6425 40.874 58.5823C40.8991 58.5606 40.9242 58.5405 40.9493 58.5187C40.961 58.507 40.9744 58.497 40.9877 58.487C41.0647 58.4167 41.14 58.3448 41.2136 58.2695C41.2303 58.2528 41.2453 58.236 41.2604 58.2193C41.3039 58.1742 41.3474 58.129 41.3875 58.0822C41.416 58.0504 41.4411 58.0169 41.4678 57.9851C41.4879 57.9617 41.508 57.9383 41.528 57.9132C41.6016 57.8229 41.6736 57.7292 41.7405 57.6339C41.7438 57.6288 41.7472 57.6238 41.7505 57.6188C41.7622 57.6021 41.7723 57.5853 41.784 57.5686C41.8442 57.48 41.9011 57.3896 41.9563 57.2976C41.9747 57.2658 41.9931 57.2341 42.0115 57.2023C42.0282 57.1738 42.0449 57.1454 42.0617 57.1153C42.0884 57.0668 42.1118 57.0149 42.1353 56.9647C42.157 56.9229 42.1787 56.8811 42.1971 56.8376C42.2122 56.8058 42.2273 56.7724 42.2406 56.7389C42.5468 57.4181 43.0402 57.9567 43.6575 58.2929L44.6595 58.8382C45.2098 59.1377 45.7903 59.4538 46.359 59.7633L46.5162 59.8486C47.0733 60.1514 47.6136 60.4458 48.097 60.7084C48.1355 60.7285 48.1739 60.7485 48.2124 60.7686C48.2308 60.777 48.2492 60.7837 48.2676 60.792C48.3228 60.8188 48.3797 60.8422 48.4382 60.8656C48.4734 60.879 48.5102 60.8941 48.547 60.9075C48.6089 60.9292 48.6724 60.9476 48.736 60.966C48.7611 60.9727 48.7862 60.9827 48.8113 60.9894C48.8196 60.9911 48.828 60.9928 48.8364 60.9944C48.9083 61.0128 48.9819 61.0262 49.0572 61.0396C49.0822 61.0446 49.1057 61.0496 49.1308 61.0547C49.1341 61.0547 49.1374 61.0563 49.1408 61.0563C49.1408 61.0563 49.1391 61.0563 49.1391 61.0547C49.1391 61.0547 49.1408 61.0547 49.1408 61.0563C49.1458 61.0563 49.1508 61.058 49.1558 61.058C49.1006 61.1015 49.0471 61.1483 48.9919 61.1918C48.9618 61.2152 48.9317 61.237 48.9016 61.2604C48.7176 61.4043 48.5302 61.5448 48.3429 61.6803C48.281 61.7254 48.2174 61.7706 48.1555 61.8141C48.0067 61.9195 47.8561 62.0215 47.7056 62.1219C47.6119 62.1854 47.5182 62.249 47.4229 62.3092C47.2706 62.4062 47.1168 62.4999 46.9629 62.5936C46.8759 62.6455 46.7906 62.7007 46.7036 62.7508C46.5146 62.8612 46.3222 62.9666 46.1298 63.0703C46.0763 63.0988 46.0244 63.1306 45.9709 63.1573C45.7233 63.2878 45.4741 63.4099 45.2232 63.5287C45.1797 63.5504 45.1395 63.5672 45.0994 63.5856ZM46.4426 30.612C46.5045 30.6103 46.5681 30.6103 46.63 30.6087C46.7605 30.6053 46.8909 30.6036 47.0214 30.6036C47.095 30.6036 47.1669 30.6053 47.2389 30.607C47.3593 30.6087 47.4781 30.612 47.5985 30.617C47.6738 30.6204 47.7491 30.6237 47.8227 30.6271C47.9414 30.6337 48.0585 30.6421 48.1773 30.6505C48.2492 30.6555 48.3228 30.6622 48.3947 30.6689C48.5202 30.6806 48.644 30.694 48.7678 30.709C48.8313 30.7174 48.8949 30.7224 48.9568 30.7308C49.1224 30.7525 49.2863 30.7776 49.4503 30.806C49.4703 30.8094 49.4904 30.8127 49.5105 30.8161C49.6945 30.8479 49.8768 30.883 50.0591 30.9215C50.1143 30.9332 50.1695 30.9466 50.2264 30.9599C50.3519 30.9884 50.4773 31.0168 50.6028 31.0486C50.6597 31.0636 50.7165 31.0787 50.7734 31.0938C50.9323 31.1372 51.0912 31.1824 51.2485 31.2309C51.302 31.2477 51.3555 31.2627 51.4091 31.2794C51.4392 31.2895 51.4693 31.3012 51.4994 31.3112C51.6148 31.4049 51.7302 31.5002 51.844 31.5989C52.033 31.7612 52.2187 31.9268 52.3993 32.1008C52.575 32.268 52.7439 32.4403 52.9095 32.616C52.953 32.6611 52.9965 32.708 53.0383 32.7548C53.1872 32.9154 53.3327 33.0793 53.4733 33.2466C53.49 33.265 53.5067 33.2834 53.5218 33.3035C53.6757 33.4875 53.8245 33.6765 53.9684 33.8672C54.0052 33.9157 54.042 33.9659 54.0788 34.0161C54.2009 34.1817 54.3214 34.3506 54.4368 34.5213C54.4602 34.5547 54.4836 34.5865 54.5054 34.6199C54.6375 34.819 54.7663 35.0231 54.8884 35.2288C54.9185 35.279 54.9486 35.3309 54.9788 35.3827C55.0808 35.5567 55.1795 35.7323 55.2748 35.9113C55.2982 35.9565 55.3233 36 55.3468 36.0435C55.4421 36.2275 55.5341 36.4148 55.6228 36.6038L51.6148 34.4242C51.6048 34.4192 51.5931 34.4125 51.583 34.4075C51.583 34.4075 51.5814 34.4075 51.5814 34.4058C51.5245 34.3774 51.4659 34.3556 51.4057 34.3406C51.404 34.3406 51.4041 34.3406 51.4024 34.3389C51.394 34.3372 51.3856 34.3356 51.379 34.3322C51.2953 34.3122 51.21 34.3038 51.123 34.3071C51.0845 34.3088 51.0444 34.3122 51.0059 34.3172C50.9976 34.3188 50.9875 34.3205 50.9792 34.3205C50.9072 34.3322 50.8353 34.3523 50.7634 34.3791H50.7617C50.6429 34.2938 50.5208 34.2151 50.3937 34.1449L45.9542 31.7294C45.9124 31.706 45.8705 31.6842 45.8287 31.6642C45.8137 31.6558 45.7969 31.6508 45.7819 31.6441C45.7133 31.6123 45.643 31.5822 45.5711 31.5538C45.5561 31.5487 45.5427 31.5404 45.5293 31.5354C45.5962 31.3831 45.6564 31.2293 45.715 31.0737C45.7166 31.0687 45.72 31.0636 45.7217 31.057C45.7718 30.9181 45.8204 30.7793 45.8638 30.6388C46.0545 30.6287 46.2486 30.6187 46.4426 30.612ZM56.5846 39.1699C56.6532 39.4107 56.7168 39.6533 56.7753 39.8975C56.782 39.9293 56.7887 39.9611 56.797 39.9929C56.8489 40.217 56.8957 40.4428 56.9392 40.6687C56.9493 40.7205 56.9593 40.7707 56.9693 40.8226C57.0145 41.0701 57.0547 41.3194 57.0898 41.5703C57.0965 41.6205 57.1032 41.6707 57.1099 41.7225C57.1199 41.7995 57.1266 41.8781 57.1366 41.9567L54.6777 40.6185L53.0216 39.7169C52.9831 39.6968 52.9447 39.6767 52.9062 39.6566C52.8928 39.65 52.8761 39.6449 52.8627 39.6382C52.7991 39.6081 52.7356 39.5814 52.6703 39.5563C52.6436 39.5462 52.6185 39.5345 52.5934 39.5262C52.5031 39.4927 52.4094 39.4643 52.314 39.4392C52.3124 39.4392 52.3107 39.4375 52.3073 39.4375C52.294 39.4342 52.2806 39.4325 52.2689 39.4291C52.1902 39.4091 52.11 39.394 52.028 39.3806C52.0196 39.379 52.0113 39.3773 52.0046 39.3756C52.0514 39.2468 52.0932 39.1147 52.13 38.9825C52.1317 38.9742 52.1334 38.9658 52.1367 38.9574C52.1735 38.8219 52.2053 38.6848 52.2304 38.5459C52.2321 38.5392 52.2321 38.5342 52.2337 38.5275C52.2588 38.3853 52.2789 38.2432 52.2923 38.0993C52.2923 38.096 52.2923 38.0926 52.2923 38.0893C52.304 37.9538 52.3107 37.8183 52.3124 37.6811L53.03 38.0709C53.669 38.4188 54.2963 38.76 54.8483 39.0595C54.86 39.0662 54.87 39.0712 54.8817 39.0762C54.8867 39.0795 54.8934 39.0795 54.8985 39.0829C54.9486 39.1063 55.0022 39.128 55.0574 39.1414H55.059C55.0808 39.1465 55.1042 39.1515 55.1276 39.1548C55.141 39.1565 55.1527 39.1598 55.1661 39.1632C55.1996 39.1682 55.233 39.1699 55.2665 39.1715C55.2715 39.1715 55.2748 39.1732 55.2798 39.1732C55.3133 39.1732 55.3468 39.1732 55.3819 39.1699C55.3953 39.1682 55.4086 39.1682 55.422 39.1665C55.4287 39.1665 55.4354 39.1649 55.4421 39.1632H55.4438C55.4806 39.1582 55.5191 39.1498 55.5559 39.1414H55.5575C55.5993 39.1314 55.6412 39.1163 55.6813 39.1013C55.6947 39.0963 55.7064 39.0912 55.7198 39.0862C55.7382 39.0795 55.7549 39.0728 55.7716 39.0645C55.7783 39.0611 55.7833 39.0561 55.79 39.0544C55.8469 39.026 55.9021 38.9959 55.9556 38.9591C55.9573 38.9591 55.9573 38.9574 55.959 38.9574C55.9657 38.9524 55.9724 38.9457 55.9807 38.9407C56.0175 38.9139 56.0527 38.8872 56.0861 38.8571C56.0911 38.8537 56.0945 38.8504 56.0995 38.847C56.1112 38.837 56.1229 38.8236 56.1346 38.8119C56.1564 38.7902 56.1781 38.7701 56.1999 38.7467C56.2049 38.74 56.2116 38.7349 56.2166 38.7299C56.2266 38.7182 56.2367 38.7048 56.2467 38.6931C56.2651 38.6714 56.2835 38.6496 56.3002 38.6262C56.3053 38.6179 56.3119 38.6112 56.3186 38.6045C56.327 38.5928 56.3337 38.5794 56.3404 38.5677C56.3554 38.5459 56.3688 38.5242 56.3822 38.5008C56.4357 38.663 56.4876 38.827 56.5361 38.9909C56.5495 39.0511 56.5679 39.1096 56.5846 39.1699ZM55.1544 53.4369C55.0758 53.6008 54.9955 53.7631 54.9135 53.9253C54.865 54.0207 54.8165 54.1177 54.7646 54.213C54.6509 54.4288 54.5338 54.643 54.4117 54.8571C54.4 54.8788 54.3883 54.8989 54.3766 54.9206C54.2394 55.1582 54.0972 55.3923 53.9517 55.6249C53.9182 55.6767 53.8848 55.7302 53.8513 55.7821C53.8078 55.5028 53.7376 55.2351 53.6422 54.9859C53.6372 54.9725 53.6322 54.9574 53.6272 54.9424C53.6104 54.8989 53.5904 54.8571 53.572 54.8152C53.5586 54.7851 53.5452 54.7533 53.5318 54.7232C53.5117 54.6831 53.49 54.6429 53.4699 54.6028C53.4549 54.5727 53.4398 54.5409 53.4231 54.5125C53.4047 54.4807 53.3846 54.4489 53.3662 54.4171C53.3445 54.382 53.3244 54.3452 53.3026 54.3117C53.2775 54.2733 53.2491 54.2348 53.2223 54.1963C53.2039 54.1712 53.1889 54.1461 53.1705 54.121C53.1303 54.0692 53.0885 54.019 53.0467 53.9688C53.04 53.9605 53.0333 53.9521 53.025 53.9437C52.9848 53.8969 52.9413 53.8517 52.8978 53.8082C52.8878 53.7982 52.8794 53.7882 52.8694 53.7781C52.8326 53.7413 52.7924 53.7062 52.754 53.6711C52.7372 53.656 52.7205 53.6393 52.7021 53.6242C52.6653 53.5924 52.6268 53.564 52.59 53.5339C52.5683 53.5172 52.5482 53.4988 52.5265 53.4837C52.4913 53.457 52.4545 53.4335 52.4194 53.4084C52.3927 53.39 52.3676 53.3716 52.3408 53.3549C52.3057 53.3315 52.2689 53.3114 52.2321 53.2914C52.2036 53.2746 52.1752 53.2562 52.1468 53.2412L47.7072 50.8257C47.6688 50.8056 47.6303 50.7855 47.5918 50.7655C47.5784 50.7588 47.5617 50.7538 47.5483 50.7471C47.4848 50.717 47.4212 50.6902 47.356 50.6651C47.3292 50.6551 47.3041 50.6434 47.279 50.635C47.1887 50.6015 47.095 50.5731 46.9997 50.548C46.998 50.548 46.9963 50.5463 46.993 50.5463C46.9796 50.543 46.9679 50.5413 46.9545 50.538C46.921 50.5296 46.8876 50.5229 46.8541 50.5162C46.8541 50.5146 46.8541 50.5146 46.8525 50.5129C46.8441 50.4945 46.8324 50.4794 46.8223 50.4627C46.7973 50.4175 46.7738 50.3707 46.7421 50.3306C46.7303 50.3155 46.7153 50.3038 46.7036 50.2887C46.6701 50.2503 46.6383 50.2118 46.5999 50.1783C46.5898 50.17 46.5764 50.1633 46.5664 50.1549C46.5229 50.1215 46.4794 50.088 46.4309 50.0612L41.9914 47.6458C41.9797 47.6391 41.968 47.6341 41.9579 47.6274C41.9513 47.624 41.9429 47.6224 41.9362 47.619C41.8927 47.5989 41.8459 47.5822 41.799 47.5688C41.7923 47.5672 41.7856 47.5638 41.7806 47.5621C41.7773 47.5621 41.7739 47.5605 41.7706 47.5605C41.7422 47.5538 41.7137 47.5487 41.6836 47.5454C41.6686 47.5437 41.6552 47.5404 41.6401 47.5387C41.595 47.5337 41.5498 47.532 41.5046 47.5337C41.4829 47.5337 41.4595 47.5354 41.4377 47.5387C41.4293 47.5404 41.4193 47.5404 41.4109 47.5421C41.4059 47.5421 41.4026 47.5437 41.3976 47.5437C41.3842 47.5454 41.3708 47.5471 41.3574 47.5504C41.3072 47.5588 41.2571 47.5722 41.2069 47.5889C41.1901 47.5939 41.1751 47.6023 41.1584 47.609C41.1283 47.6207 41.0981 47.6307 41.068 47.6441C41.0664 47.6458 41.0647 47.6458 41.063 47.6474C41.0045 47.6759 40.9493 47.7077 40.8957 47.7445C40.8907 47.7478 40.8874 47.7495 40.8824 47.7528C40.8673 47.7629 40.8522 47.7762 40.8372 47.788C40.8121 47.808 40.7853 47.8264 40.7619 47.8482C40.7569 47.8532 40.7502 47.8565 40.7435 47.8632C40.7268 47.8783 40.7134 47.8933 40.6984 47.9101C40.68 47.9285 40.6616 47.9452 40.6432 47.9653C40.6381 47.9703 40.6331 47.9753 40.6281 47.9803C40.6114 47.9987 40.598 48.0188 40.5829 48.0372C40.5679 48.0556 40.5528 48.074 40.5378 48.0941C40.5344 48.0991 40.5311 48.1024 40.5277 48.1075C40.5143 48.1275 40.5026 48.1493 40.4893 48.171C40.4742 48.1944 40.4591 48.2162 40.4458 48.2413C40.4441 48.2463 40.4407 48.2496 40.4374 48.2547C40.414 48.2982 40.3939 48.3416 40.3755 48.3868C40.3688 48.4035 40.3621 48.4203 40.3554 48.437C40.3504 48.452 40.3454 48.4688 40.3404 48.4838C40.3354 48.5022 40.3287 48.519 40.3237 48.5374C40.317 48.5641 40.3103 48.5892 40.3036 48.616C40.3002 48.6327 40.2952 48.6494 40.2919 48.6662C40.2868 48.6946 40.2835 48.7247 40.2785 48.7531C40.2768 48.7665 40.2735 48.7816 40.2735 48.795C40.2701 48.8384 40.2668 48.8803 40.2668 48.9221C40.2668 49.2382 40.3789 49.536 40.593 49.7367C40.6498 49.7903 40.7134 49.8354 40.7803 49.8722C41.605 50.3205 42.5986 50.8608 43.5521 51.3794L43.6391 51.4262C43.6341 51.4312 43.629 51.4346 43.624 51.4396C43.5989 51.4597 43.5755 51.4798 43.5504 51.5015C43.5387 51.5115 43.5253 51.5216 43.5136 51.5333C43.4383 51.6002 43.3664 51.6704 43.2962 51.744C43.2811 51.7608 43.266 51.7775 43.251 51.7926C43.2092 51.836 43.1674 51.8795 43.1272 51.9247C43.1004 51.9548 43.0754 51.9866 43.0486 52.0184C43.0285 52.0418 43.0101 52.0635 42.99 52.087C42.9181 52.1756 42.8495 52.2643 42.7843 52.358C42.7809 52.363 42.7776 52.368 42.7743 52.373C42.7625 52.3881 42.7525 52.4048 42.7425 52.4215C42.6839 52.5068 42.6287 52.5938 42.5769 52.6841C42.5585 52.7142 42.5417 52.7444 42.5233 52.7761C42.5083 52.8046 42.4899 52.8313 42.4748 52.8598C42.4497 52.9066 42.4263 52.9568 42.4029 53.0053C42.3828 53.0471 42.3611 53.0873 42.3427 53.1291C42.3377 53.1408 42.331 53.1508 42.326 53.1626C42.326 53.1609 42.3243 53.1592 42.3243 53.1592C42.3059 53.1191 42.2892 53.0772 42.2708 53.0371C42.254 53.002 42.2356 52.9685 42.2172 52.9334C42.1971 52.8949 42.1787 52.8564 42.1587 52.8196C42.1369 52.7795 42.1118 52.7427 42.0884 52.7042C42.07 52.6741 42.0516 52.6423 42.0332 52.6122C42.0098 52.5771 41.9864 52.5436 41.9613 52.5102C41.9395 52.4784 41.9178 52.4466 41.8944 52.4165C41.871 52.3847 41.8459 52.3563 41.8208 52.3262C41.7957 52.2944 41.7706 52.2626 41.7438 52.2325C41.7137 52.1974 41.6819 52.1656 41.6502 52.1338C41.6267 52.1104 41.605 52.0853 41.5816 52.0619C41.5531 52.0334 41.523 52.0083 41.4946 51.9816C41.4662 51.9548 41.4394 51.9281 41.4093 51.903C41.3859 51.8829 41.3608 51.8645 41.3373 51.8444C41.3005 51.8143 41.2654 51.7842 41.2286 51.7558C41.2019 51.7357 41.1717 51.7173 41.145 51.6972C41.1099 51.6721 41.0747 51.647 41.0379 51.6219C41.0061 51.6019 40.9744 51.5851 40.9426 51.5651C40.9074 51.545 40.874 51.5232 40.8372 51.5032L39.0657 50.5397L36.3977 49.0877C36.3592 49.0659 36.3191 49.0459 36.2789 49.0258C36.2639 49.0191 36.2488 49.0141 36.2337 49.0057C36.1685 48.9756 36.1016 48.9472 36.0347 48.9204C36.0079 48.9104 35.9812 48.8987 35.9544 48.8886C35.8607 48.8552 35.7637 48.8234 35.6667 48.7983C35.665 48.7983 35.6617 48.7966 35.66 48.7966C35.6466 48.7933 35.6332 48.7916 35.6198 48.7883C35.5379 48.7682 35.4559 48.7515 35.3723 48.7381C35.3388 48.7331 35.3054 48.7281 35.2719 48.7247C35.2033 48.7163 35.1347 48.708 35.0645 48.703C35.0277 48.6996 34.9909 48.6979 34.9541 48.6963C34.8821 48.6929 34.8085 48.6929 34.7349 48.6946C34.7249 48.6946 34.7149 48.6946 34.7032 48.6946C34.7132 48.6628 34.7216 48.631 34.7299 48.6009C34.7483 48.5357 34.7667 48.4721 34.7851 48.4069C34.7985 48.3567 34.8119 48.3065 34.8253 48.2547C34.842 48.1894 34.8571 48.1225 34.8721 48.0573C34.8838 48.0071 34.8955 47.9552 34.9056 47.9051C34.9189 47.8381 34.9323 47.7696 34.944 47.701C34.9524 47.6508 34.9624 47.6023 34.9708 47.5521C34.9825 47.4802 34.9925 47.4082 35.0026 47.338C35.0093 47.2911 35.016 47.2443 35.0227 47.1958C35.0327 47.1155 35.0394 47.0369 35.0461 46.9566C35.0494 46.9164 35.0544 46.8763 35.0578 46.8362C35.0662 46.7157 35.0745 46.5953 35.0779 46.4748C35.123 46.4548 35.1682 46.433 35.2134 46.4129C35.2535 46.3945 35.292 46.3745 35.3304 46.3544C35.379 46.331 35.4291 46.3059 35.4776 46.2808C35.5412 46.2473 35.6048 46.2139 35.6667 46.1788C35.7135 46.152 35.762 46.1269 35.8089 46.1001C35.8724 46.0633 35.936 46.0249 35.9996 45.9864C36.0447 45.9596 36.0899 45.9329 36.1334 45.9044C36.2003 45.8626 36.2672 45.8174 36.3341 45.7739C36.3743 45.7472 36.4144 45.7221 36.4529 45.6953C36.4596 45.6903 36.4663 45.687 36.4713 45.6836C36.4847 45.6736 36.498 45.6635 36.5131 45.6535C36.6034 45.5899 36.6921 45.5264 36.7807 45.4595C37.9584 46.1001 39.2999 46.8295 40.3621 47.4082C40.3738 47.4149 40.3855 47.4199 40.3973 47.4266C40.4023 47.43 40.409 47.43 40.414 47.4333C40.4658 47.4567 40.5194 47.4785 40.5746 47.4935C40.5762 47.4935 40.5762 47.4935 40.5779 47.4952C40.5997 47.5002 40.6214 47.5036 40.6448 47.5086C40.6582 47.5103 40.6699 47.5153 40.6833 47.517C40.7168 47.522 40.7502 47.5237 40.7853 47.5253C40.7887 47.5253 40.792 47.5253 40.797 47.527C40.8104 47.527 40.8238 47.527 40.8372 47.527C40.8506 47.527 40.864 47.527 40.8773 47.5253H40.879C40.9058 47.5237 40.9309 47.5203 40.9576 47.517C40.9961 47.5119 41.0346 47.5036 41.073 47.4952C41.1115 47.4852 41.15 47.4735 41.1885 47.4584C41.2019 47.4534 41.2136 47.4484 41.2253 47.4434C41.2453 47.435 41.2654 47.4283 41.2855 47.4183C41.2888 47.4166 41.2922 47.4149 41.2955 47.4133C41.3507 47.3865 41.4059 47.3547 41.4578 47.3196C41.4628 47.3162 41.4678 47.3146 41.4728 47.3112C41.4812 47.3062 41.4879 47.2995 41.4946 47.2928C41.5264 47.2694 41.5582 47.2443 41.5883 47.2192C41.5966 47.2125 41.605 47.2075 41.6117 47.2008C41.615 47.1975 41.62 47.1924 41.6234 47.1891C41.6535 47.1607 41.6819 47.1322 41.7104 47.1004C41.7154 47.0938 41.7221 47.0887 41.7288 47.082C41.7304 47.0804 41.7304 47.0804 41.7321 47.0787C41.7656 47.0402 41.7974 47.0001 41.8258 46.9583C41.8275 46.9566 41.8291 46.9549 41.8308 46.9532C41.8542 46.9198 41.876 46.8847 41.8977 46.8495C41.9061 46.8361 41.9128 46.8211 41.9211 46.8077C41.9345 46.7843 41.9462 46.7592 41.9579 46.7341C41.9747 46.6973 41.9897 46.6605 42.0048 46.6237C42.0065 46.6204 42.0065 46.6153 42.0081 46.612C42.0315 46.5451 42.0499 46.4765 42.0633 46.4096C42.0667 46.3945 42.0683 46.3812 42.07 46.3661C42.0817 46.2958 42.0901 46.2256 42.0901 46.157C42.0918 45.8559 41.9931 45.5715 41.8007 45.3691C41.7739 45.3407 41.7455 45.3139 41.7154 45.2905C41.6702 45.2537 41.6234 45.2219 41.5732 45.1935L38.6676 43.6127C38.686 43.591 38.7027 43.5676 38.7195 43.5442C38.8315 43.4003 38.9419 43.2531 39.049 43.1009C39.0507 43.0992 39.0507 43.0992 39.0524 43.0975C39.0557 43.0925 39.059 43.0875 39.0624 43.0825C39.1661 42.9336 39.2665 42.7814 39.3635 42.6258C39.3886 42.5857 39.4153 42.5438 39.4404 42.5037C39.5408 42.3414 39.6378 42.1758 39.7298 42.0052C39.7415 41.9835 39.7532 41.9617 39.7649 41.94C39.8536 41.776 39.9356 41.6104 40.0142 41.4432C40.0309 41.408 40.0476 41.3729 40.0644 41.3378C40.148 41.1571 40.2283 40.9765 40.3019 40.7924C40.3136 40.764 40.3237 40.7356 40.3354 40.7071C40.3655 40.6319 40.3956 40.5566 40.424 40.4796C40.4558 40.391 40.4859 40.3023 40.516 40.212C40.5294 40.1719 40.5445 40.1317 40.5578 40.0916C40.6181 39.9042 40.6749 39.7169 40.7251 39.5278C40.7368 39.4843 40.7469 39.4409 40.7569 39.399C40.7619 39.3806 40.7653 39.3639 40.7703 39.3455C40.9978 39.568 41.2537 39.7587 41.5314 39.9092L45.9709 42.3247C46.0127 42.3481 46.0545 42.3682 46.0964 42.3899C46.1114 42.3983 46.1281 42.4033 46.1432 42.41C46.2118 42.4418 46.282 42.4719 46.354 42.5003C46.3824 42.5121 46.4092 42.5238 46.4376 42.5338C46.5363 42.5689 46.6383 42.6024 46.7421 42.6291C46.7437 42.6291 46.7471 42.6308 46.7487 42.6308C46.7621 42.6342 46.7772 42.6358 46.7906 42.6392C46.8775 42.6609 46.9645 42.6777 47.0532 42.6927C47.0883 42.6977 47.1234 42.7027 47.1602 42.7078C47.2322 42.7178 47.3058 42.7245 47.3794 42.7312C47.3844 42.7312 47.3877 42.7329 47.3928 42.7329C47.3877 42.7496 47.3827 42.7646 47.3777 42.7814C47.356 42.8617 47.3392 42.942 47.3208 43.0222C47.3091 43.0758 47.2941 43.1276 47.284 43.1812C47.2673 43.2715 47.2573 43.3618 47.2456 43.4521C47.2405 43.499 47.2305 43.5442 47.2272 43.591C47.2138 43.7282 47.2071 43.867 47.2071 44.0075C47.2071 44.1095 47.2104 44.2082 47.2171 44.3069L44.3232 42.7329C44.3115 42.7262 44.2998 42.7211 44.2898 42.7145C44.2814 42.7094 44.2714 42.7078 44.263 42.7044C44.2229 42.686 44.1827 42.671 44.1409 42.6593C44.1309 42.6559 44.1225 42.6509 44.1141 42.6492C44.1074 42.6475 44.1008 42.6475 44.0941 42.6459C44.0606 42.6375 44.0272 42.6325 43.992 42.6291C43.9753 42.6275 43.9602 42.6241 43.9418 42.6225C43.89 42.6191 43.8381 42.6174 43.7846 42.6225C43.7662 42.6241 43.7495 42.6258 43.7311 42.6291C43.7093 42.6325 43.6893 42.6358 43.6675 42.6392C43.624 42.6475 43.5822 42.6593 43.5404 42.6726C43.527 42.6777 43.5136 42.6827 43.5002 42.6877C43.4718 42.6977 43.445 42.7078 43.4183 42.7211C43.4149 42.7228 43.4116 42.7245 43.4082 42.7245C43.4032 42.7278 43.3982 42.7312 43.3915 42.7345C43.338 42.7596 43.2878 42.7897 43.2376 42.8232C43.2326 42.8265 43.2276 42.8282 43.2226 42.8316C43.2209 42.8332 43.2175 42.8349 43.2159 42.8366C43.1724 42.8667 43.1306 42.9001 43.0904 42.9353C43.0871 42.9369 43.0837 42.9403 43.082 42.942C43.0737 42.9486 43.067 42.957 43.0586 42.9654C43.0319 42.9905 43.0068 43.0156 42.9817 43.0423C42.9767 43.049 42.97 43.054 42.9649 43.0607C42.9583 43.0674 42.9532 43.0758 42.9465 43.0841C42.9248 43.1092 42.9031 43.136 42.883 43.1644C42.8763 43.1745 42.8679 43.1812 42.8612 43.1912C42.8529 43.2029 42.8445 43.2146 42.8378 43.2263C42.8144 43.2631 42.791 43.2999 42.7709 43.3401C42.7692 43.3451 42.7676 43.3501 42.7642 43.3535C42.7358 43.4087 42.709 43.4655 42.6873 43.5241C42.6304 43.678 42.6036 43.8369 42.602 43.9925C42.6003 44.332 42.7291 44.6515 42.9683 44.8523C43.0151 44.8907 43.0653 44.9259 43.1188 44.9543L44.3901 45.6451C44.6293 45.7756 44.8719 45.9078 45.1178 46.0416L46.7471 46.9282C46.9478 47.0369 47.1402 47.1423 47.3292 47.2443L47.5584 47.3698C47.5701 47.3765 47.5801 47.3815 47.5918 47.3865C47.6019 47.3915 47.6119 47.3932 47.6219 47.3982C47.6604 47.4149 47.7005 47.43 47.7407 47.4417C47.7507 47.445 47.7591 47.4501 47.7691 47.4517C47.7775 47.4534 47.7859 47.4534 47.7942 47.4551C47.8293 47.4634 47.8661 47.4685 47.903 47.4735C47.9197 47.4751 47.9364 47.4785 47.9531 47.4802C48.0067 47.4835 48.0602 47.4835 48.1154 47.4785C48.1321 47.4768 48.1488 47.4751 48.1639 47.4735H48.1656C48.2174 47.4668 48.2676 47.4551 48.3195 47.44C48.3362 47.435 48.3513 47.43 48.368 47.4233C48.4031 47.4116 48.4382 47.3982 48.4734 47.3831C48.4817 47.3798 48.4901 47.3765 48.5001 47.3731C48.5085 47.3698 48.5152 47.3631 48.5235 47.3597C48.5687 47.3363 48.6139 47.3112 48.6574 47.2828C48.6641 47.2778 48.6724 47.2744 48.6791 47.2694C48.6841 47.2661 48.6891 47.2627 48.6958 47.2577C48.736 47.2292 48.7745 47.1975 48.8129 47.164C48.8163 47.1607 48.818 47.1573 48.8213 47.1557C48.828 47.149 48.8347 47.1423 48.843 47.1356C48.8832 47.1607 48.9233 47.1858 48.9652 47.2075C49.6359 47.5722 50.4205 47.9987 51.205 48.4253L52.6787 49.2265C52.7924 49.2884 52.9045 49.3503 53.0149 49.4089L53.1236 49.4691C53.1119 49.4724 53.1019 49.4791 53.0902 49.4841C53.0651 49.4942 53.04 49.5025 53.0166 49.5142C53.0133 49.5159 53.0099 49.5193 53.0066 49.5209C52.9497 49.5477 52.8945 49.5812 52.841 49.6163C52.8376 49.6196 52.8326 49.6213 52.8292 49.623C52.8175 49.6313 52.8058 49.6414 52.7941 49.6514C52.7657 49.6732 52.7372 49.6949 52.7105 49.7183C52.7038 49.7233 52.6971 49.7284 52.6904 49.7351C52.6787 49.7451 52.6687 49.7568 52.657 49.7685C52.6369 49.7886 52.6168 49.8087 52.5967 49.8287C52.59 49.8371 52.5817 49.8438 52.575 49.8521C52.5649 49.8639 52.5566 49.8756 52.5465 49.8889C52.5298 49.909 52.5131 49.9308 52.4964 49.9525C52.4897 49.9609 52.4813 49.9692 52.4746 49.9793C52.4663 49.991 52.4596 50.0044 52.4512 50.0161C52.4345 50.0412 52.4194 50.0663 52.4044 50.0914C52.3977 50.1014 52.391 50.1114 52.3843 50.1231C52.3709 50.1482 52.3575 50.175 52.3458 50.2001C52.3291 50.2352 52.3157 50.2703 52.3023 50.3055C52.3007 50.3105 52.3006 50.3138 52.299 50.3188C52.2756 50.3858 52.2572 50.4543 52.2421 50.5229C52.2388 50.538 52.2371 50.5514 52.2354 50.5664C52.2237 50.6367 52.2153 50.7086 52.2153 50.7789C52.212 51.08 52.3107 51.366 52.5031 51.5684C52.57 51.6387 52.6469 51.6972 52.7306 51.7424L52.9614 51.8678C53.679 52.2576 54.497 52.7025 55.3033 53.1425C55.2999 53.1492 55.2982 53.1542 55.2949 53.1609C55.2481 53.2395 55.2012 53.3382 55.1544 53.4369ZM36.125 56.4077C36.0564 56.4562 35.9862 56.5014 35.9142 56.5466C35.8724 56.5733 35.8323 56.6001 35.7905 56.6252C35.7085 56.6737 35.6249 56.7172 35.5412 56.759C35.5094 56.7741 35.4793 56.7924 35.4475 56.8075C35.3388 56.8594 35.2267 56.9045 35.1147 56.9463C35.0845 56.9581 35.0528 56.9681 35.0227 56.9781C35.0059 56.9848 34.9875 56.9882 34.9691 56.9949C34.8788 56.6519 34.832 56.2856 34.832 55.8992C34.832 55.7553 34.8387 55.6115 34.852 55.4693C34.8554 55.4325 34.8637 55.3957 34.8671 55.3589C35.3739 55.6349 35.8925 55.9176 36.3993 56.1919C36.3375 56.2438 36.2739 56.2956 36.2086 56.3441C36.1819 56.3659 36.1534 56.3876 36.125 56.4077ZM29.725 54.2415C29.8705 54.1846 30.0144 54.1244 30.1566 54.0575C30.1566 54.0575 30.1566 54.0575 30.1583 54.0575C30.2452 54.0173 30.3306 53.9738 30.4159 53.9287C30.456 54.3452 30.5547 54.7366 30.7019 55.0912L29.3737 54.3686C29.454 54.3419 29.5343 54.3134 29.6146 54.2833C29.6514 54.2699 29.6882 54.2565 29.725 54.2415ZM38.1959 52.8163C38.1925 52.8531 38.1842 52.8899 38.1808 52.9267L36.6469 52.092C36.7088 52.0401 36.7724 51.9883 36.8376 51.9398C36.866 51.918 36.8945 51.8963 36.9229 51.8762C36.9915 51.8277 37.0618 51.7825 37.1337 51.7374C37.1755 51.7106 37.2157 51.6838 37.2575 51.6587C37.3394 51.6102 37.4231 51.5667 37.5067 51.5249C37.5385 51.5099 37.5686 51.4915 37.6004 51.4764C37.7091 51.4245 37.8212 51.3794 37.9333 51.3376C37.9634 51.3259 37.9952 51.3158 38.0269 51.3058C38.0437 51.2991 38.0621 51.2957 38.0805 51.2891C38.0838 51.2991 38.0872 51.3075 38.0888 51.3175C38.1056 51.3861 38.1206 51.4547 38.134 51.5249C38.1373 51.5416 38.1407 51.5567 38.144 51.5718C38.1557 51.6303 38.1624 51.6905 38.1708 51.7507C38.1741 51.7792 38.1808 51.8076 38.1842 51.8361C38.2059 52.0134 38.2176 52.1974 38.216 52.3847C38.216 52.5302 38.2093 52.6741 38.1959 52.8163ZM45.3001 39.7152C45.2851 39.7252 45.2683 39.7336 45.2516 39.742C45.1513 39.7988 45.0492 39.8524 44.9455 39.9009C44.9338 39.9059 44.9204 39.9126 44.9087 39.9176C44.8351 39.951 44.7615 39.9828 44.6862 40.0129C44.6645 40.0213 44.6411 40.0313 44.6193 40.0397C44.5323 40.0732 44.4453 40.1033 44.3567 40.13C44.3483 40.1317 44.34 40.1351 44.3316 40.1367C44.3065 40.1451 44.2797 40.1501 44.2547 40.1568C44.1242 39.7403 44.0522 39.287 44.0539 38.8052C44.0539 38.6647 44.0623 38.5242 44.074 38.3853C44.5959 38.6697 45.1345 38.9624 45.6614 39.2485L45.8421 39.3472C45.7769 39.399 45.7083 39.4475 45.6414 39.4961C45.623 39.5094 45.6046 39.5211 45.5862 39.5345C45.4908 39.5998 45.3971 39.66 45.3001 39.7152ZM47.2405 34.0228C47.2623 34.0144 47.2857 34.0044 47.3074 33.996C47.3944 33.9626 47.4814 33.9324 47.5701 33.9057C47.5784 33.904 47.5868 33.9007 47.5952 33.899C47.6203 33.8923 47.6453 33.8856 47.6704 33.8789C47.8009 34.2954 47.8728 34.7487 47.8712 35.2305C47.8712 35.371 47.8628 35.5115 47.8511 35.6504L46.0847 34.6902C46.1499 34.6383 46.2168 34.5898 46.2854 34.5413C46.3038 34.5279 46.3222 34.5162 46.3406 34.5029C46.4343 34.4393 46.5279 34.3791 46.625 34.3222C46.64 34.3122 46.6567 34.3038 46.6735 34.2954C46.7738 34.2386 46.8759 34.185 46.9796 34.1348C46.9913 34.1282 47.0047 34.1231 47.0181 34.1181C47.09 34.0847 47.1653 34.0529 47.2405 34.0228ZM56.3989 50.2001C56.3521 50.359 56.3069 50.5196 56.2551 50.6785C56.2484 50.7019 56.2383 50.7253 56.2317 50.7488L54.8299 49.986C54.8968 49.9876 54.9637 49.9876 55.0306 49.986C55.059 49.986 55.0891 49.9843 55.1176 49.9826C55.218 49.9776 55.32 49.9692 55.422 49.9542C55.5391 49.9375 55.6545 49.914 55.77 49.8856C55.8034 49.8772 55.8352 49.8689 55.8687 49.8605C55.9556 49.8371 56.041 49.812 56.1246 49.7819C56.1547 49.7719 56.1848 49.7618 56.2149 49.7518C56.3203 49.7133 56.424 49.6698 56.5261 49.623C56.5294 49.6213 56.5327 49.6196 56.5378 49.618C56.5478 49.6129 56.5578 49.6079 56.5679 49.6029C56.5512 49.6648 56.5378 49.7267 56.521 49.7886C56.4826 49.9257 56.4391 50.0629 56.3989 50.2001ZM52.8359 46.7542C52.8092 46.7743 52.7807 46.796 52.754 46.8161C52.6871 46.8629 52.6185 46.9081 52.5499 46.9516C52.5097 46.9767 52.4713 47.0034 52.4311 47.0268C52.3525 47.0737 52.2705 47.1155 52.1886 47.1573C52.1585 47.1724 52.13 47.1891 52.0982 47.2042C51.9929 47.2543 51.8841 47.2978 51.7754 47.3397C51.767 47.343 51.7603 47.3447 51.752 47.348C51.6834 47.0503 51.6466 46.7358 51.6466 46.4062C51.6466 46.2674 51.6533 46.1286 51.6667 45.9897C51.6717 45.9446 51.6801 45.8994 51.6851 45.8526C51.6867 45.8342 51.6901 45.8141 51.6934 45.7957C52.1551 46.0466 52.6252 46.3025 53.0868 46.5535C53.0735 46.5652 53.0618 46.5752 53.0484 46.5852C52.9815 46.6421 52.9095 46.699 52.8359 46.7542ZM54.7563 43.3401C54.7513 43.3869 54.7429 43.4321 54.7379 43.4772C54.7362 43.4956 54.7328 43.5157 54.7295 43.5341L53.3344 42.7747C53.3478 42.763 53.3612 42.7529 53.3729 42.7412C53.4431 42.6827 53.5134 42.6258 53.587 42.5706C53.6154 42.5505 53.6422 42.5288 53.6706 42.5087C53.7376 42.4619 53.8061 42.4184 53.8747 42.3749C53.9149 42.3498 53.9533 42.323 53.9952 42.2996C54.0738 42.2528 54.1541 42.211 54.236 42.1708C54.2662 42.1558 54.2963 42.1374 54.328 42.1223C54.4334 42.0721 54.5405 42.0286 54.6509 41.9868C54.6592 41.9835 54.6676 41.9818 54.6743 41.9784C54.6843 42.0203 54.6944 42.0621 54.7027 42.1056C54.7044 42.1156 54.7078 42.1256 54.7094 42.1374C54.7145 42.1658 54.7178 42.1942 54.7228 42.2227C54.7596 42.4485 54.7814 42.681 54.7797 42.9236C54.7763 43.0641 54.7697 43.2029 54.7563 43.3401ZM47.1184 58.129C47.0398 58.1758 46.9578 58.2176 46.8759 58.2595C46.8458 58.2745 46.8173 58.2912 46.7855 58.3063C46.6802 58.3565 46.5731 58.4 46.4627 58.4418C46.4543 58.4451 46.4476 58.4468 46.4393 58.4502C46.3707 58.1524 46.3339 57.8363 46.3339 57.5067C46.3339 57.3679 46.3406 57.229 46.354 57.0902C46.359 57.045 46.3674 56.9999 46.3724 56.9547C46.374 56.9363 46.3774 56.9162 46.3807 56.8978C46.8424 57.1487 47.3141 57.4047 47.7758 57.6573C47.7624 57.669 47.7491 57.679 47.7373 57.6907C47.6671 57.7493 47.5968 57.8061 47.5232 57.8613C47.4965 57.8814 47.468 57.9032 47.4413 57.9216C47.3744 57.9684 47.3058 58.0136 47.2372 58.0571C47.1987 58.0788 47.1602 58.1039 47.1184 58.129ZM49.4452 54.4422C49.4402 54.4874 49.4319 54.5325 49.4268 54.5777C49.4252 54.5978 49.4218 54.6162 49.4185 54.6363L48.0234 53.8768C48.0368 53.8651 48.0502 53.8551 48.0619 53.8434C48.1321 53.7848 48.2024 53.7279 48.276 53.6727C48.3027 53.6527 48.3312 53.6309 48.3579 53.6109C48.4249 53.564 48.4934 53.5205 48.562 53.4754C48.6022 53.4503 48.6406 53.4235 48.6808 53.4001C48.7594 53.3532 48.8414 53.3114 48.9233 53.2696C48.9534 53.2546 48.9836 53.2378 49.0137 53.2228C49.1191 53.1726 49.2261 53.1291 49.3365 53.0873C49.3449 53.0839 49.3532 53.0823 49.3616 53.0789C49.3616 53.0806 49.3616 53.0806 49.3616 53.0823C49.4285 53.3783 49.467 53.6928 49.4653 54.0224C49.4653 54.1645 49.4586 54.305 49.4452 54.4422ZM28.4571 56.7506L30.538 57.8831C30.5497 57.8898 30.5597 57.8948 30.5714 57.8998C30.5815 57.9048 30.5915 57.9065 30.6015 57.9115C30.6417 57.9299 30.6818 57.945 30.7237 57.9567C30.7337 57.96 30.7421 57.9651 30.7521 57.9667C30.7605 57.9684 30.7671 57.9684 30.7755 57.9701C30.8106 57.9784 30.8458 57.9835 30.8826 57.9885C30.8993 57.9902 30.916 57.9935 30.9327 57.9952C30.9863 57.9985 31.0398 58.0002 31.0933 57.9952C31.0933 57.9952 31.0933 57.9952 31.095 57.9952C31.1134 57.9935 31.1318 57.9918 31.1502 57.9885C31.1519 57.9885 31.1519 57.9885 31.1536 57.9885C31.1552 57.9885 31.1552 57.9885 31.1569 57.9885C31.1736 57.9868 31.1904 57.9835 31.2071 57.9801C31.2573 57.9701 31.3058 57.9567 31.356 57.94C31.3727 57.935 31.3877 57.9266 31.4045 57.9216C31.4312 57.9115 31.458 57.9015 31.4848 57.8898C31.4965 57.8848 31.5082 57.8781 31.5199 57.8731C31.5199 57.8731 31.5216 57.8731 31.5216 57.8714C31.54 57.8613 31.56 57.8513 31.5784 57.8396C31.5784 57.8396 31.5801 57.8396 31.5801 57.8379C31.6069 57.8212 31.6336 57.8045 31.6604 57.7861C31.6738 57.7777 31.6855 57.766 31.6972 57.756C31.7189 57.7409 31.739 57.7242 31.7591 57.7075C31.7708 57.6974 31.7825 57.6907 31.7925 57.6807C31.8076 57.6673 31.8193 57.6523 31.8344 57.6389C31.8511 57.6221 31.8678 57.6071 31.8829 57.5887C31.8896 57.5803 31.8996 57.5736 31.9063 57.5653C31.923 57.5469 31.9364 57.5268 31.9515 57.5067C31.9665 57.4883 31.9799 57.4716 31.9933 57.4532C31.9983 57.4465 32.0033 57.4415 32.0067 57.4365C32.0217 57.4147 32.0334 57.393 32.0468 57.3712C32.0619 57.3478 32.0769 57.3244 32.0903 57.2993C32.0936 57.2943 32.097 57.2893 32.1003 57.2842C32.1087 57.2692 32.1137 57.2525 32.1221 57.2357C32.1422 57.1956 32.1606 57.1571 32.1756 57.1153C32.179 57.1069 32.184 57.0986 32.1873 57.0885C32.2007 57.0534 32.2124 57.0166 32.2225 56.9798C32.2225 56.9781 32.2241 56.9765 32.2241 56.9748C32.2375 56.9263 32.2475 56.8761 32.2559 56.8259C32.3663 56.8861 32.4817 56.948 32.5971 57.0116L32.8598 57.1538C33.1174 57.2943 33.3833 57.4381 33.656 57.587L36.6486 59.2146C36.6887 59.2364 36.7272 59.2564 36.7674 59.2765C36.7858 59.2865 36.8058 59.2932 36.8259 59.3016C36.8828 59.3284 36.9413 59.3535 37.0015 59.3769C37.0383 59.3919 37.0751 59.407 37.1136 59.4204C37.1772 59.4438 37.2424 59.4622 37.3077 59.4806C37.3344 59.4889 37.3595 59.499 37.3863 59.5057C37.3946 59.5073 37.4047 59.509 37.413 59.5107C37.4866 59.5291 37.5619 59.5441 37.6389 59.5575C37.6656 59.5625 37.6907 59.5692 37.7192 59.5726C37.7225 59.5726 37.7258 59.5743 37.7309 59.5743C37.8245 59.5876 37.9199 59.596 38.0152 59.6027C38.042 59.6044 38.0704 59.6044 38.0972 59.606C38.1741 59.6094 38.2528 59.6094 38.3314 59.6077C38.3615 59.606 38.3916 59.606 38.4217 59.6044C38.4568 59.6027 38.492 59.5994 38.5288 59.5977C38.5137 59.6027 38.5003 59.6094 38.4853 59.6161C38.4669 59.6244 38.4468 59.6311 38.4284 59.6395C38.4284 59.6395 38.4284 59.6395 38.4267 59.6395C38.3665 59.6679 38.308 59.7031 38.2528 59.7399C38.2494 59.7415 38.2461 59.7432 38.2427 59.7466C38.2411 59.7482 38.2394 59.7499 38.2377 59.7499C38.1959 59.78 38.1541 59.8118 38.1156 59.8469C38.1123 59.8503 38.1072 59.8536 38.1039 59.857C38.0972 59.862 38.0922 59.8687 38.0855 59.8754C38.0571 59.9005 38.0303 59.9289 38.0052 59.9557C37.9985 59.9623 37.9935 59.9674 37.9868 59.9741C37.9835 59.9774 37.9818 59.9807 37.9784 59.9841C37.9483 60.0192 37.9182 60.056 37.8915 60.0945C37.8898 60.0978 37.8881 60.0995 37.8848 60.1029C37.8513 60.1497 37.8212 60.1982 37.7944 60.2484C37.7877 60.2601 37.781 60.2718 37.776 60.2852C37.7693 60.2986 37.7626 60.312 37.7576 60.3237C37.7409 60.3605 37.7258 60.3956 37.7125 60.4324C37.7108 60.4357 37.7108 60.4408 37.7091 60.4441C37.6857 60.511 37.6673 60.5796 37.6539 60.6482C37.6506 60.6632 37.6489 60.6766 37.6472 60.6917C37.6355 60.7619 37.6272 60.8322 37.6272 60.9024C37.6238 61.2035 37.7225 61.4896 37.9149 61.692C37.9283 61.7054 37.9416 61.7204 37.9567 61.7338C37.9868 61.7622 38.0186 61.7873 38.052 61.8107C38.0604 61.8174 38.0704 61.8241 38.0788 61.8291C38.0989 61.8425 38.1189 61.8542 38.1407 61.8659L40.1647 62.9666L42.5802 64.2797C42.5919 64.2864 42.602 64.2915 42.6137 64.2965C42.622 64.2998 42.6321 64.3015 42.6404 64.3065C42.6823 64.3249 42.7241 64.3416 42.7692 64.3534C42.7776 64.3567 42.786 64.36 42.7943 64.3634C42.7993 64.3651 42.806 64.3651 42.8127 64.3667C42.8445 64.3751 42.878 64.3801 42.9097 64.3835C42.9248 64.3851 42.9415 64.3885 42.9566 64.3902C42.975 64.3918 42.9934 64.3918 43.0118 64.3918C42.9332 64.4169 42.8562 64.4454 42.7776 64.4688C42.7525 64.4755 42.7274 64.4822 42.7023 64.4905C42.4782 64.5574 42.2523 64.6176 42.0265 64.6745C41.9496 64.6946 41.8726 64.7113 41.794 64.7297C41.61 64.7732 41.4243 64.8134 41.2387 64.8518C41.1634 64.8669 41.0864 64.8836 41.0112 64.897C40.7569 64.9455 40.5026 64.989 40.2467 65.0241C40.0142 65.0576 39.7817 65.0827 39.5508 65.1061C39.4789 65.1128 39.407 65.1178 39.335 65.1245C39.1728 65.1379 39.0105 65.1496 38.8499 65.158C38.7697 65.1613 38.691 65.1663 38.6107 65.168C38.4485 65.1747 38.2862 65.1763 38.1256 65.178C38.0571 65.178 37.9868 65.1797 37.9182 65.1797C37.6907 65.178 37.4649 65.173 37.2391 65.1596C37.2257 65.1596 37.2123 65.1579 37.1989 65.1563C36.9865 65.1446 36.7774 65.1278 36.5666 65.1078C36.4964 65.1011 36.4261 65.0927 36.3542 65.0843C36.1986 65.0676 36.0447 65.0475 35.8908 65.0258C35.8139 65.0141 35.7386 65.0041 35.6617 64.9907C35.5044 64.9656 35.3488 64.9371 35.1933 64.907C35.1297 64.8953 35.0645 64.8836 35.0009 64.8702C34.7851 64.8251 34.5693 64.7749 34.3552 64.7214C34.3318 64.7147 34.3067 64.708 34.2833 64.7013C34.0959 64.6511 33.9103 64.5992 33.7246 64.5407C33.656 64.519 33.5891 64.4972 33.5222 64.4755C33.5155 64.4738 33.5071 64.4704 33.5004 64.4688C33.4051 64.3918 33.3081 64.3165 33.2127 64.2363C30.9578 62.3159 29.3286 59.7298 28.4571 56.7506ZM21.05 41.761C21.05 41.7476 21.05 41.7325 21.05 41.7192C21.0517 41.6589 21.0584 41.5987 21.0684 41.5385C21.0701 41.5301 21.0718 41.5201 21.0735 41.5117C21.0835 41.4582 21.0969 41.4047 21.1136 41.3512C21.1186 41.3378 21.122 41.3244 21.127 41.311C21.1303 41.3026 21.132 41.2926 21.1354 41.2826C21.1471 41.2525 21.1621 41.224 21.1738 41.1956C21.1855 41.1688 21.1973 41.1404 21.2106 41.1136C21.214 41.1086 21.2157 41.1019 21.2173 41.0969C21.2441 41.0467 21.2742 40.9982 21.306 40.9514C21.3077 40.9497 21.3093 40.948 21.311 40.9463C21.316 40.9397 21.3227 40.933 21.3277 40.9263C21.3528 40.8928 21.3779 40.8594 21.4047 40.8276C21.4214 40.8092 21.4381 40.7908 21.4565 40.7724C21.4766 40.7523 21.4984 40.7322 21.5184 40.7122C21.5402 40.6921 21.5636 40.677 21.587 40.6586C21.6037 40.6452 21.6188 40.6319 21.6355 40.6202C21.6422 40.6151 21.6472 40.6101 21.6539 40.6051C21.6757 40.59 21.6991 40.58 21.7225 40.565C21.7543 40.5466 21.7861 40.5265 21.8178 40.5098C21.8245 40.5064 21.8312 40.5014 21.8379 40.498C21.8697 40.483 21.9032 40.473 21.9349 40.4612C21.955 40.4546 21.9734 40.4445 21.9935 40.4395C22.0537 40.4211 22.1139 40.406 22.1741 40.3977C22.2344 40.3893 22.2929 40.3876 22.3531 40.3893C22.3715 40.3893 22.3883 40.391 22.405 40.3927C22.4485 40.396 22.492 40.4027 22.5338 40.4127C22.5438 40.4144 22.5555 40.4144 22.5672 40.4178C22.5739 40.4194 22.579 40.4228 22.5856 40.4244C22.6308 40.4378 22.676 40.4546 22.7195 40.473C22.7262 40.4763 22.7345 40.478 22.7412 40.4813C22.7446 40.483 22.7479 40.4847 22.7496 40.4863C22.7579 40.4897 22.7646 40.4947 22.773 40.498L27.2125 42.9135C27.2042 42.9085 27.1975 42.9052 27.1891 42.9018C27.1791 42.8968 27.1674 42.8934 27.1573 42.8884C27.1138 42.8684 27.0703 42.8516 27.0235 42.8399C27.0068 42.8349 26.9884 42.8316 26.9716 42.8282C26.9298 42.8182 26.8863 42.8115 26.8428 42.8081C26.8261 42.8065 26.8077 42.8048 26.791 42.8048C26.7324 42.8031 26.6722 42.8048 26.612 42.8132C26.5518 42.8215 26.4916 42.8366 26.4313 42.855C26.4113 42.8617 26.3929 42.87 26.3728 42.8767C26.3326 42.8918 26.2942 42.9068 26.2557 42.9252C26.2239 42.942 26.1921 42.962 26.1603 42.9804C26.1302 42.9988 26.1018 43.0139 26.0734 43.0356C26.0566 43.0473 26.0416 43.0607 26.0249 43.0741C25.9797 43.1092 25.9362 43.146 25.8944 43.1879C25.8475 43.2364 25.8057 43.2882 25.7656 43.3417C25.7606 43.3484 25.7539 43.3551 25.7488 43.3618C25.7104 43.4153 25.6769 43.4722 25.6485 43.5291C25.6351 43.5559 25.6234 43.5843 25.6117 43.6111C25.595 43.6495 25.5766 43.6863 25.5632 43.7265C25.5582 43.7399 25.5548 43.7532 25.5515 43.7666C25.5347 43.8202 25.5214 43.8737 25.5113 43.9272C25.5096 43.9356 25.5063 43.9456 25.5063 43.954C25.4963 44.0142 25.4896 44.0744 25.4879 44.1346C25.4879 44.148 25.4879 44.1631 25.4879 44.1765C25.4879 44.2333 25.4896 44.2885 25.4963 44.3437C25.4963 44.3488 25.4963 44.3554 25.4979 44.3605C25.5063 44.419 25.5197 44.4776 25.5347 44.5344C25.5381 44.5478 25.5431 44.5612 25.5464 44.5746C25.5648 44.6314 25.5849 44.6866 25.6117 44.7402C25.702 44.9141 25.8392 45.0496 25.9998 45.1366L21.5602 42.7211C21.3997 42.6342 21.2625 42.4987 21.1722 42.3247C21.1454 42.2712 21.1237 42.216 21.1053 42.1591C21.1002 42.1457 21.0969 42.1323 21.0935 42.119C21.0768 42.0621 21.0651 42.0035 21.0567 41.945C21.0567 41.94 21.0567 41.9333 21.0551 41.9283C21.0517 41.8747 21.05 41.8179 21.05 41.761ZM24.1413 31.1573C24.158 31.0988 24.1781 31.0419 24.1965 30.985C24.2199 30.9131 24.24 30.8395 24.2668 30.7676C24.2685 30.7626 24.2701 30.7575 24.2735 30.7525C24.2835 30.7241 24.2969 30.6956 24.3086 30.6672C24.3454 30.5719 24.3855 30.4782 24.4274 30.3862C24.4474 30.3427 24.4692 30.3009 24.4893 30.259C24.5143 30.2089 24.5378 30.157 24.5645 30.1068C24.5796 30.0784 24.598 30.05 24.6147 30.0215C24.6331 29.9897 24.6515 29.958 24.6699 29.9262C24.7251 29.8342 24.782 29.7438 24.8405 29.6552C24.8522 29.6385 24.8623 29.6217 24.874 29.605C24.8773 29.6 24.8807 29.595 24.884 29.5899C24.9509 29.4946 25.0229 29.4009 25.0965 29.3106C25.1165 29.2872 25.1366 29.2638 25.155 29.2403C25.1818 29.2086 25.2085 29.1751 25.237 29.1433C25.2788 29.0965 25.3206 29.053 25.3641 29.0078C25.3792 28.9911 25.3959 28.9744 25.4109 28.9576C25.4846 28.8824 25.5598 28.8104 25.6368 28.7402C25.6485 28.7285 25.6619 28.7184 25.6752 28.7084C25.7003 28.6866 25.7254 28.6666 25.7505 28.6448C25.8224 28.5846 25.896 28.5244 25.9713 28.4692C25.9998 28.4474 26.0282 28.4257 26.0566 28.4056C26.075 28.3922 26.0918 28.3789 26.1102 28.3655C26.162 28.3303 26.2155 28.2986 26.2674 28.2651C26.3092 28.2383 26.3494 28.2116 26.3912 28.1865C26.4732 28.138 26.5568 28.0945 26.6421 28.0527C26.6739 28.0376 26.704 28.0192 26.7341 28.0042C26.7375 28.0025 26.7425 27.9991 26.7458 27.9975C26.8512 27.9473 26.9583 27.9038 27.067 27.8636C27.0971 27.8519 27.1289 27.8419 27.159 27.8319C27.246 27.8018 27.3346 27.775 27.4233 27.7516C27.4567 27.7432 27.4919 27.7332 27.5253 27.7248C27.6441 27.6964 27.7629 27.6713 27.8833 27.6546C27.992 27.6395 28.0991 27.6295 28.2061 27.6244C28.2396 27.6228 28.2731 27.6228 28.3065 27.6228C28.3801 27.6211 28.452 27.6211 28.524 27.6244C28.5608 27.6261 28.5976 27.6278 28.6344 27.6311C28.7046 27.6362 28.7732 27.6428 28.8418 27.6529C28.8752 27.6579 28.9087 27.6612 28.9422 27.6663C29.0258 27.6796 29.1078 27.6964 29.1897 27.7164C29.2031 27.7198 29.2165 27.7215 29.2299 27.7248C29.2315 27.7248 29.2349 27.7265 29.2366 27.7265C29.3353 27.7516 29.4306 27.7817 29.5243 27.8168C29.551 27.8268 29.5778 27.8386 29.6046 27.8486C29.6715 27.8754 29.7384 27.9038 29.8036 27.9339C29.8187 27.9406 29.8337 27.9456 29.8488 27.954C29.8889 27.974 29.9291 27.9941 29.9676 28.0159L34.4071 30.4313C34.3536 30.4029 34.2984 30.3761 34.2432 30.351C34.1779 30.3209 34.111 30.2925 34.0441 30.2657C34.0173 30.2557 33.9906 30.244 33.9638 30.234C33.8701 30.2005 33.7731 30.1687 33.6761 30.1436C33.661 30.1403 33.6443 30.1369 33.6292 30.1336C33.5473 30.1135 33.4653 30.0968 33.3817 30.0834C33.3482 30.0784 33.3148 30.0734 33.2813 30.07C33.2127 30.0617 33.1441 30.0533 33.0739 30.0483C33.0371 30.0449 33.0003 30.0433 32.9635 30.0416C32.8916 30.0382 32.818 30.0382 32.746 30.0399C32.7126 30.0399 32.6791 30.0399 32.6457 30.0416C32.5386 30.0466 32.4315 30.0566 32.3228 30.0717C32.2024 30.0884 32.0819 30.1135 31.9632 30.142C31.9297 30.1503 31.8946 30.1604 31.8611 30.1687C31.7725 30.1921 31.6838 30.2189 31.5952 30.249C31.5651 30.259 31.5333 30.2691 31.5032 30.2808C31.3911 30.3226 31.279 30.3695 31.1703 30.4196C31.1385 30.4347 31.1084 30.4531 31.0783 30.4681C30.9946 30.51 30.9093 30.5535 30.8274 30.602C30.7855 30.6271 30.7454 30.6538 30.7036 30.6806C30.6316 30.7257 30.5614 30.7709 30.4928 30.8194C30.4644 30.8395 30.4359 30.8612 30.4075 30.883C30.3423 30.9315 30.2804 30.9834 30.2168 31.0352L33.201 32.6578H33.1993L33.201 32.6595C33.2361 32.6779 33.2679 32.7013 33.3014 32.723C33.3231 32.7381 33.3465 32.7498 33.3666 32.7649C33.3967 32.7883 33.4252 32.815 33.4536 32.8401C33.4737 32.8585 33.4971 32.8753 33.5172 32.8953C33.5406 32.9187 33.5607 32.9438 33.5807 32.9689C33.6025 32.994 33.6276 33.0191 33.6476 33.0459C33.6711 33.0777 33.6911 33.1128 33.7129 33.1462C33.7279 33.1697 33.7447 33.1914 33.7597 33.2165C33.7781 33.2483 33.7915 33.2834 33.8082 33.3169C33.8216 33.347 33.8383 33.3737 33.85 33.4055C33.8668 33.449 33.8802 33.4958 33.8935 33.5427C33.9002 33.5661 33.9086 33.5862 33.9153 33.6096C33.932 33.6732 33.9437 33.7401 33.9521 33.8087C33.9538 33.8153 33.9554 33.822 33.9554 33.8287C33.9655 33.904 33.9688 33.981 33.9688 34.0612C33.9688 34.1198 33.9655 34.1767 33.9605 34.2352C33.9588 34.2553 33.9554 34.2737 33.9538 34.2921C33.9487 34.3306 33.9454 34.3674 33.9387 34.4058C33.9354 34.4276 33.9287 34.451 33.9253 34.4727C33.9186 34.5062 33.9103 34.5397 33.9019 34.5731C33.8952 34.5965 33.8885 34.6183 33.8818 34.6417C33.8751 34.6634 33.8701 34.6852 33.8634 34.7069C33.8584 34.7237 33.8517 34.7404 33.845 34.7571C33.845 34.7588 33.8434 34.7605 33.8434 34.7621C33.8434 34.7621 33.8434 34.7638 33.8417 34.7638C33.84 34.7671 33.84 34.7705 33.8383 34.7738C33.8049 34.8608 33.7664 34.9461 33.7229 35.0281C33.7212 35.0314 33.7196 35.0365 33.7179 35.0398C33.6978 35.0766 33.6744 35.1101 33.6527 35.1469C33.6343 35.177 33.6175 35.2088 33.5975 35.2389C33.5941 35.2422 33.5908 35.2472 33.5891 35.2506C33.5874 35.2539 33.5858 35.2573 33.5841 35.2606C33.5757 35.2723 33.5657 35.2824 33.559 35.2941C33.5339 35.3275 33.5105 35.361 33.4854 35.3928C33.4787 35.4011 33.4703 35.4078 33.462 35.4162C33.4519 35.4279 33.4452 35.4396 33.4352 35.4496C33.4017 35.4864 33.3649 35.5216 33.3298 35.5567C33.3114 35.5734 33.2964 35.5935 33.278 35.6102C33.2729 35.6136 33.2696 35.6186 33.2663 35.6219C33.2077 35.6738 33.1475 35.7223 33.0839 35.7658C33.0789 35.7691 33.0739 35.7742 33.0689 35.7792C33.0689 35.7792 33.0672 35.7792 33.0672 35.7808C33.0638 35.7825 33.0605 35.7842 33.0572 35.7875C33.0254 35.8093 32.9919 35.831 32.9585 35.8511C32.9551 35.8528 32.9501 35.8544 32.9468 35.8578C32.9116 35.8779 32.8765 35.8963 32.8414 35.9147C32.828 35.9214 32.8146 35.9297 32.8012 35.9364C32.7996 35.9364 32.7979 35.9381 32.7962 35.9398C32.7912 35.9414 32.7862 35.9431 32.7812 35.9448C32.7193 35.9732 32.654 35.9966 32.5888 36.0184C32.5704 36.0251 32.552 36.0301 32.5336 36.0351C32.4617 36.0552 32.3881 36.0736 32.3128 36.0836C32.2392 36.0937 32.1689 36.097 32.0987 36.097C32.0836 36.097 32.0702 36.097 32.0552 36.097C31.9883 36.0953 31.9214 36.0886 31.8561 36.0786C31.8444 36.0769 31.8327 36.0736 31.8227 36.0719C31.7959 36.0669 31.7691 36.0619 31.7424 36.0552C31.7106 36.0468 31.6805 36.0368 31.6504 36.0267C31.6403 36.0234 31.632 36.0217 31.6219 36.0184C31.5734 36.0017 31.5266 35.9816 31.4797 35.9598C31.463 35.9515 31.4463 35.9431 31.4296 35.9331C30.543 35.4513 29.4607 34.8625 28.442 34.3071C28.437 34.3439 28.4303 34.3807 28.4269 34.4175C28.4136 34.5597 28.4069 34.7036 28.4069 34.8474C28.4035 36.3479 29.1295 37.5657 30.2235 38.1595L25.784 35.744C24.69 35.1485 23.9657 33.9324 23.9674 32.432C23.9674 32.2881 23.974 32.1443 23.9874 32.0021C23.9924 31.9536 24.0008 31.9067 24.0075 31.8582C24.0192 31.7645 24.0292 31.6709 24.0476 31.5789C24.0577 31.522 24.0727 31.4668 24.0861 31.4116C24.1028 31.3229 24.1196 31.2393 24.1413 31.1573Z" fill="url(#paint3_linear)"/>
<path d="M59.2159 45.339C59.2209 43.0875 57.5264 41.4916 55.4388 41.7861C53.3529 42.0788 51.6517 44.1513 51.6483 46.4029C51.645 48.6544 53.3378 50.2486 55.4238 49.9542C57.5114 49.6614 59.2109 47.5905 59.2159 45.339ZM55.4271 47.522C54.584 47.6407 53.9015 46.995 53.9032 46.0867C53.9049 45.1767 54.5907 44.3404 55.4338 44.2216C56.2785 44.1028 56.961 44.7469 56.9594 45.6568C56.9577 46.5651 56.2719 47.4032 55.4271 47.522ZM48.174 42.6843C50.4506 42.3648 52.3057 40.1049 52.3107 37.646C52.3158 35.1887 50.4674 33.449 48.1907 33.7685C45.9124 34.088 44.0573 36.3496 44.0523 38.8069C44.049 41.2658 45.8974 43.0038 48.174 42.6843ZM48.1874 36.204C49.2195 36.0585 50.0592 36.8481 50.0575 37.9638C50.0559 39.0778 49.2128 40.1049 48.1807 40.2488C47.1486 40.3943 46.3089 39.6048 46.3105 38.489C46.3105 37.375 47.1536 36.3496 48.1874 36.204ZM58.8864 52.6356C58.9014 52.7126 58.9081 52.7912 58.9081 52.8698C58.9065 53.3516 58.6304 53.8467 58.2106 54.0926C58.1905 54.1043 58.1704 54.116 58.1504 54.126C58.0483 54.1779 57.9429 54.2147 57.8376 54.2348C57.8192 54.2381 57.8008 54.2415 57.784 54.2431C57.764 54.2465 57.7456 54.2482 57.7255 54.2498C57.4327 54.2749 57.1484 54.1779 56.946 53.9638C56.7536 53.7614 56.6549 53.4753 56.6583 53.1742C56.6599 52.9819 56.7034 52.7811 56.7887 52.5955C56.9711 52.199 57.329 51.908 57.7121 51.826C57.7372 51.821 57.7623 51.816 57.7891 51.8126C57.8426 51.8042 57.8978 51.8009 57.9513 51.8026C58.4096 51.8126 58.7977 52.1505 58.8864 52.6356ZM50.1278 52.8882C48.0418 53.1809 46.3406 55.2518 46.3373 57.5034C46.3323 59.7566 48.0268 61.3507 50.1127 61.0563C52.2003 60.7636 53.9015 58.6927 53.9049 56.4395C53.9082 54.1896 52.2154 52.5955 50.1278 52.8882ZM50.1161 58.6224C49.273 58.7412 48.5888 58.0972 48.5905 57.1872C48.5922 56.2772 49.2797 55.4425 50.1228 55.3237C50.9658 55.205 51.65 55.8473 51.6483 56.7573C51.6467 57.6673 50.9592 58.5037 50.1161 58.6224ZM49.2462 45.7371C49.2763 45.8442 49.2914 45.9563 49.2914 46.07C49.2931 46.5133 49.0706 46.9733 48.6959 47.2426C48.5303 47.3614 48.348 47.4333 48.1673 47.4584C48.1506 47.4601 48.1322 47.4634 48.1154 47.4651C47.8578 47.4885 47.6053 47.4183 47.4079 47.2527C47.1687 47.0519 47.0399 46.7341 47.0415 46.3929C47.0415 46.239 47.07 46.0784 47.1268 45.9245C47.1653 45.8191 47.2172 45.7187 47.2774 45.6267C47.4765 45.324 47.7809 45.1031 48.1071 45.0362C48.1288 45.0312 48.1489 45.0279 48.1706 45.0262C48.189 45.0229 48.2058 45.0212 48.2242 45.0195C48.7026 44.9777 49.1007 45.2721 49.2462 45.7371ZM39.8604 46.6739C39.8453 46.5969 39.8386 46.5183 39.8386 46.4397C39.8403 45.9596 40.1163 45.4645 40.5361 45.2186C40.5445 45.2135 40.5529 45.2085 40.5629 45.2035C40.6081 45.1784 40.6549 45.1567 40.7018 45.1383C40.7804 45.1065 40.859 45.0848 40.9393 45.0714C40.9476 45.0697 40.9577 45.068 40.966 45.068C40.9962 45.0647 41.0246 45.0613 41.0547 45.0597C41.2989 45.0463 41.5348 45.1165 41.7188 45.2688C41.7489 45.2938 41.7773 45.3189 41.8041 45.349C41.9965 45.5514 42.0952 45.8375 42.0935 46.1369C42.0918 46.3293 42.0483 46.5283 41.9613 46.7157C41.9429 46.7558 41.9229 46.7943 41.9011 46.8311C41.7121 47.1556 41.406 47.3948 41.0765 47.4768C41.038 47.4868 40.9995 47.4935 40.961 47.5002C40.9343 47.5036 40.9075 47.5069 40.8807 47.5086C40.8674 47.5086 40.854 47.5103 40.8406 47.5103C40.8272 47.5103 40.8138 47.5103 40.8004 47.5103C40.3354 47.4985 39.944 47.1607 39.8604 46.6739ZM38.7513 51.1285C36.5934 51.4312 34.837 53.5724 34.832 55.8992C34.827 58.226 36.5784 59.8737 38.7363 59.5709C40.8924 59.2681 42.6505 57.127 42.6555 54.8002C42.6606 52.4734 40.9075 50.8257 38.7513 51.1285ZM38.7413 57.137C37.8279 57.2658 37.0869 56.5683 37.0886 55.583C37.0903 54.5978 37.8346 53.6928 38.748 53.564C39.6613 53.4352 40.4023 54.1327 40.4007 55.118C40.3973 56.1033 39.6529 57.0099 38.7413 57.137ZM58.4464 32.5808C54.8801 29.1768 50.1144 27.6512 45.0141 28.2919C44.4789 28.3671 44.0122 28.8422 43.9051 29.4277C43.4936 31.7093 41.7422 33.6213 39.6446 34.0729C39.3083 34.1449 38.9989 34.3757 38.8032 34.7002C38.6058 35.0264 38.5439 35.4095 38.6325 35.749C39.0491 37.3516 38.7563 39.2451 37.8296 40.9447C36.8694 42.7027 35.384 43.9874 33.7548 44.4708C33.1509 44.6498 32.7243 45.3056 32.7929 45.9496C32.8147 46.1419 32.8247 46.3377 32.8247 46.53C32.8197 49.3118 30.717 51.8695 28.1393 52.2325C27.7395 52.2894 27.3414 52.291 26.9583 52.2375C26.8646 52.2241 26.7676 52.2241 26.6739 52.2375C26.4096 52.2743 26.1504 52.4115 25.9446 52.6289C25.6636 52.9267 25.5164 53.3332 25.5498 53.7246C25.9781 58.7981 28.1577 63.2443 31.6839 66.2469C35.2352 69.2679 39.8486 70.5576 44.6796 69.8785C49.8217 69.1558 54.6593 66.3155 58.3026 61.8793C61.9459 57.4448 63.9582 51.9464 63.9682 46.3962C63.9783 40.8945 62.0178 35.9899 58.4464 32.5808ZM56.7118 60.3788C53.4967 64.2931 49.2245 66.8023 44.6846 67.4396C40.4207 68.0384 36.3475 66.901 33.2128 64.2346C30.451 61.886 28.6261 58.5338 27.9854 54.6848C28.0356 54.6797 28.0858 54.673 28.1376 54.6647C31.8813 54.1378 34.9474 50.4878 35.0779 46.4598C36.9531 45.6167 38.6141 44.0309 39.7332 41.9818C40.6215 40.3558 41.0798 38.5877 41.0765 36.9066C41.0765 36.6306 41.0631 36.3579 41.038 36.0886C43.2694 35.1552 45.0944 33.1061 45.8622 30.6404C50.0224 30.3443 53.8948 31.701 56.8406 34.5145C59.9921 37.5238 61.7234 41.8546 61.7134 46.709C61.7033 51.6102 59.9268 56.4646 56.7118 60.3788ZM44.2949 62.7759C44.3099 62.8529 44.3166 62.9315 44.3166 63.0101C44.3149 63.4919 44.0372 63.9853 43.6191 64.2329C43.6107 64.2379 43.6023 64.2429 43.594 64.2479C43.5622 64.2663 43.5287 64.2814 43.4969 64.2965C43.4334 64.3249 43.3681 64.3466 43.3012 64.3634C43.2745 64.3701 43.2477 64.3751 43.2193 64.3801C43.2109 64.3818 43.2009 64.3834 43.1925 64.3834C43.1624 64.3868 43.134 64.3901 43.1038 64.3918C42.8931 64.4035 42.689 64.3517 42.5167 64.2413C42.5067 64.2346 42.4983 64.2295 42.4899 64.2229C42.4565 64.1994 42.4247 64.1727 42.3946 64.1459C42.3795 64.1325 42.3662 64.1191 42.3528 64.1041C42.1604 63.9017 42.0617 63.6156 42.0651 63.3145C42.0667 63.1222 42.1102 62.9231 42.1972 62.7358C42.2039 62.7224 42.2089 62.709 42.2156 62.6956C42.2491 62.6287 42.2875 62.5651 42.331 62.5049C42.52 62.239 42.7927 62.0466 43.0821 61.973C43.1206 61.9629 43.159 61.9563 43.1975 61.9496C43.2393 61.9429 43.2812 61.9412 43.323 61.9395C43.3347 61.9395 43.3464 61.9395 43.3598 61.9395C43.8265 61.9529 44.1995 62.2908 44.2949 62.7759ZM54.3398 38.3418C54.3264 38.2649 54.3197 38.1846 54.3214 38.106C54.3264 37.6225 54.5907 37.1358 55.019 36.8849C55.0507 36.8665 55.0825 36.8497 55.116 36.8347C55.1444 36.8213 55.1745 36.8079 55.2046 36.7962C55.2766 36.7694 55.3485 36.7494 55.4204 36.7377C55.4288 36.736 55.4388 36.7343 55.4472 36.7343C55.4857 36.7293 55.5258 36.7259 55.5643 36.7243C55.6513 36.7209 55.7382 36.731 55.8219 36.7494C55.8319 36.751 55.8403 36.7544 55.8486 36.7561C55.9105 36.7728 55.9691 36.7945 56.026 36.823C56.0678 36.843 56.1096 36.8681 56.1481 36.8949C56.1598 36.9033 56.1698 36.9116 56.1815 36.92C56.2183 36.9484 56.2534 36.9802 56.2869 37.0153C56.4793 37.2177 56.578 37.5038 56.5746 37.8049C56.5729 37.9972 56.5295 38.1963 56.4441 38.3853C56.2668 38.7684 55.9256 39.0528 55.5593 39.1464C55.5208 39.1565 55.4823 39.1632 55.4455 39.1682C55.4388 39.1699 55.4321 39.1698 55.4254 39.1715C55.412 39.1732 55.3987 39.1749 55.3853 39.1749C55.3518 39.1782 55.3184 39.1782 55.2832 39.1782C54.8099 39.1648 54.4352 38.8269 54.3398 38.3418ZM46.4561 52.092C46.3156 52.2141 46.1583 52.2977 45.9961 52.3462C45.9425 52.363 45.8873 52.3747 45.8338 52.3813C45.8154 52.3847 45.797 52.3864 45.7786 52.388C45.5026 52.4131 45.2333 52.3312 45.0309 52.1405C44.8168 51.9397 44.7047 51.642 44.7047 51.3258C44.7047 51.1485 44.7398 50.9662 44.8117 50.7906C44.9924 50.3523 45.3805 50.0311 45.7953 49.9575C45.8087 49.9558 45.8221 49.9525 45.8355 49.9508C45.8405 49.9508 45.8438 49.9491 45.8489 49.9491C45.8572 49.9475 45.8673 49.9475 45.8756 49.9458C45.8974 49.9441 45.9191 49.9425 45.9425 49.9408C46.4126 49.9241 46.8107 50.2419 46.9261 50.717C46.9479 50.8056 46.9579 50.8976 46.9579 50.9913C46.9596 51.3961 46.7739 51.8193 46.4561 52.092ZM32.2543 56.3793C32.2693 56.4562 32.276 56.5348 32.276 56.6134C32.2744 57.0952 31.9967 57.5903 31.5768 57.8362C31.5567 57.8479 31.5367 57.8597 31.5166 57.8697C31.4146 57.9215 31.3092 57.9583 31.2038 57.9784C31.1854 57.9818 31.167 57.9851 31.1503 57.9868C31.1302 57.9901 31.1118 57.9918 31.0917 57.9935C30.799 58.0186 30.5146 57.9215 30.3122 57.7074C30.1182 57.505 30.0211 57.219 30.0245 56.9179C30.0262 56.7255 30.0697 56.5265 30.1566 56.3374C30.339 55.941 30.6969 55.6499 31.08 55.568C31.1051 55.563 31.1319 55.5579 31.157 55.5546C31.2105 55.5462 31.2657 55.5429 31.3192 55.5445C31.7775 55.5546 32.1656 55.8925 32.2543 56.3793ZM25.6151 44.7418C25.3742 44.2651 25.4796 43.6144 25.8995 43.1878C26.1052 42.9787 26.3611 42.8499 26.6171 42.8131C26.8161 42.7847 27.0169 42.8131 27.1942 42.9018C27.5973 43.1059 27.8114 43.5993 27.7194 44.1095C27.6241 44.6231 27.2427 45.0663 26.776 45.2085C26.7225 45.2253 26.6673 45.237 26.6137 45.2437C26.2039 45.3039 25.8075 45.1115 25.6151 44.7418ZM32.3078 38.5125C34.464 38.2097 36.2204 36.0702 36.2254 33.7417C36.2305 31.4149 34.4791 29.7672 32.3229 30.07C30.165 30.3728 28.4086 32.5139 28.4036 34.8407C28.4002 37.1692 30.1499 38.8169 32.3078 38.5125ZM32.3195 32.5039C33.2329 32.3751 33.9739 33.0726 33.9722 34.0579C33.9705 35.0431 33.2262 35.9481 32.3128 36.0769C31.3995 36.2057 30.6568 35.5082 30.6585 34.5229C30.6618 33.5393 31.4079 32.6327 32.3195 32.5039Z" fill="url(#paint4_linear)"/>
<path d="M56.9593 45.6552C56.9577 46.5652 56.2718 47.4016 55.4271 47.5203C54.584 47.6391 53.9015 46.9934 53.9032 46.0851C53.9049 45.1751 54.5907 44.3387 55.4338 44.22C56.2785 44.1012 56.961 44.7469 56.9593 45.6552ZM61.7117 46.7107C61.7033 51.6103 59.9268 56.4646 56.7101 60.3806C53.495 64.2948 49.2228 66.804 44.6846 67.4413C40.4207 68.0402 36.3475 66.9027 33.2127 64.2346C30.451 61.8861 28.626 58.5338 27.9854 54.6848C28.0355 54.6798 28.0857 54.6731 28.1359 54.6647C31.8795 54.1378 34.9457 50.4878 35.0762 46.4598C36.9514 45.6167 38.6124 44.031 39.7315 41.9818C40.6197 40.3576 41.0781 38.5878 41.0747 36.9067C41.0747 36.6306 41.0614 36.358 41.0363 36.0887C43.2677 35.1553 45.0927 33.1061 45.8622 30.6405C50.0224 30.3444 53.8948 31.7027 56.8406 34.5146C59.9904 37.5272 61.7217 41.858 61.7117 46.7107ZM32.276 56.6135C32.276 56.5349 32.2693 56.4563 32.2542 56.3793C32.1656 55.8925 31.7792 55.5563 31.3175 55.5463C31.264 55.5446 31.2088 55.5479 31.1552 55.5563C31.1302 55.5597 31.1034 55.5647 31.0783 55.5697C30.6969 55.6517 30.3389 55.9427 30.1549 56.3392C30.0679 56.5265 30.0245 56.7256 30.0228 56.9196C30.0194 57.2207 30.1181 57.5051 30.3105 57.7092C30.5129 57.9233 30.7973 58.0203 31.09 57.9952C31.1101 57.9935 31.1285 57.9919 31.1486 57.9885C31.167 57.9852 31.1854 57.9835 31.2021 57.9801C31.3075 57.9601 31.4128 57.9233 31.5149 57.8714C31.535 57.8614 31.555 57.8497 31.5751 57.838C31.9966 57.5904 32.2743 57.0953 32.276 56.6135ZM54.3197 38.1077C54.318 38.1863 54.3247 38.2649 54.3381 38.3436C54.4334 38.8287 54.8098 39.1666 55.2765 39.1766C55.31 39.1766 55.3434 39.1766 55.3786 39.1732C55.3919 39.1716 55.4053 39.1716 55.4187 39.1699C55.4254 39.1699 55.4321 39.1682 55.4388 39.1666C55.4773 39.1615 55.5157 39.1532 55.5542 39.1448C55.9205 39.0528 56.2601 38.7684 56.4391 38.3837C56.5261 38.1964 56.5679 37.9973 56.5696 37.8049C56.5729 37.5038 56.4742 37.2195 56.2819 37.0154C56.2484 36.9803 56.2133 36.9501 56.1765 36.92C56.1648 36.9117 56.1547 36.9033 56.143 36.8949C56.1045 36.8682 56.0644 36.8431 56.0209 36.823C55.964 36.7946 55.9038 36.7728 55.8436 36.7561C55.8352 36.7544 55.8252 36.7511 55.8168 36.7494C55.7332 36.7293 55.6479 36.721 55.5609 36.7243C55.5224 36.726 55.4823 36.7293 55.4438 36.7344C55.4354 36.736 55.4254 36.7377 55.417 36.7394C55.3451 36.7511 55.2732 36.7712 55.2012 36.7979C55.1711 36.8096 55.1427 36.8213 55.1126 36.8364C55.0808 36.8515 55.0474 36.8682 55.0156 36.8883C54.5907 37.1358 54.3247 37.6243 54.3197 38.1077ZM39.8386 46.4397C39.8386 46.5184 39.8453 46.597 39.8603 46.6739C39.9456 47.1607 40.3354 47.4986 40.7971 47.5086C40.8104 47.5086 40.8238 47.5086 40.8372 47.5086C40.8506 47.5086 40.864 47.5086 40.8774 47.507C40.9041 47.5053 40.9309 47.5019 40.9576 47.4986C40.9961 47.4936 41.0346 47.4852 41.0731 47.4769C41.4026 47.3932 41.7087 47.1557 41.8977 46.8312C41.9195 46.7944 41.9396 46.7542 41.958 46.7157C42.0449 46.5284 42.0884 46.3293 42.0901 46.137C42.0918 45.8359 41.9931 45.5515 41.8007 45.3491C41.774 45.3207 41.7455 45.2939 41.7154 45.2705C41.5297 45.1183 41.2939 45.048 41.0513 45.0614C41.0229 45.0631 40.9928 45.0664 40.9627 45.0697C40.9543 45.0714 40.9443 45.0731 40.9359 45.0731C40.8556 45.0865 40.777 45.1082 40.6984 45.14C40.6515 45.1584 40.6064 45.1801 40.5595 45.2052C40.5512 45.2103 40.5428 45.2153 40.5344 45.2203C40.1162 45.4645 39.8402 45.9597 39.8386 46.4397ZM42.6555 54.8019C42.6605 52.4751 40.9075 50.8274 38.7513 51.1302C36.5934 51.4329 34.837 53.5741 34.832 55.9009C34.827 58.2277 36.5783 59.8754 38.7362 59.5726C40.8924 59.2699 42.6505 57.1287 42.6555 54.8019ZM44.3166 63.0102C44.3166 62.9315 44.3099 62.8529 44.2948 62.776C44.1995 62.2909 43.8248 61.953 43.3564 61.9413C43.3447 61.9413 43.333 61.9413 43.3196 61.9413C43.2778 61.9413 43.236 61.9446 43.1941 61.9513C43.1557 61.9563 43.1172 61.9647 43.0787 61.9747C42.7893 62.0483 42.5183 62.2407 42.3276 62.5066C42.2841 62.5669 42.2457 62.6304 42.2122 62.6973C42.2055 62.7107 42.1988 62.7241 42.1938 62.7375C42.1068 62.9248 42.0633 63.1239 42.0617 63.3163C42.0583 63.6174 42.157 63.9034 42.3511 64.1058C42.3644 64.1192 42.3778 64.1343 42.3929 64.1476C42.423 64.1761 42.4548 64.2012 42.4882 64.2246C42.4966 64.2313 42.5066 64.2363 42.515 64.243C42.6856 64.3551 42.8914 64.4052 43.1021 64.3935C43.1306 64.3919 43.1607 64.3885 43.1908 64.3852C43.1992 64.3835 43.2092 64.3818 43.2176 64.3818C43.2443 64.3768 43.2711 64.3718 43.2978 64.3651C43.3631 64.3484 43.4283 64.3266 43.4936 64.2982C43.527 64.2831 43.5588 64.2681 43.5906 64.2497C43.5989 64.2447 43.6073 64.2396 43.6157 64.2346C44.0372 63.9854 44.3149 63.4919 44.3166 63.0102ZM48.174 42.6844C50.4506 42.3649 52.3057 40.105 52.3107 37.646C52.3157 35.1887 50.4673 33.449 48.1907 33.7685C45.9124 34.088 44.0573 36.3496 44.0523 38.8069C44.0489 41.2659 45.8973 43.0039 48.174 42.6844ZM49.2462 45.7372C49.1007 45.2722 48.7009 44.9794 48.2241 45.0196C48.2057 45.0212 48.189 45.0229 48.1706 45.0263C48.1489 45.0296 48.1288 45.0329 48.107 45.0363C47.7809 45.1032 47.4764 45.3223 47.2774 45.6268C47.2171 45.7188 47.1653 45.8191 47.1268 45.9245C47.0699 46.0784 47.0432 46.2373 47.0415 46.3929C47.0398 46.7325 47.1686 47.052 47.4078 47.2527C47.6052 47.4183 47.8578 47.4886 48.1154 47.4651C48.1321 47.4635 48.1505 47.4618 48.1673 47.4585C48.3479 47.4334 48.5303 47.3614 48.6959 47.2427C49.0722 46.9734 49.293 46.5133 49.2914 46.0701C49.2914 45.9563 49.278 45.8442 49.2462 45.7372ZM45.996 52.3463C46.1583 52.2994 46.3155 52.2141 46.456 52.092C46.7739 51.8194 46.9612 51.3961 46.9579 50.993C46.9579 50.8993 46.9461 50.8073 46.9261 50.7187C46.8107 50.2436 46.4125 49.9258 45.9425 49.9425C45.9207 49.9425 45.8973 49.9442 45.8756 49.9475C45.8672 49.9492 45.8572 49.9492 45.8488 49.9509C45.8438 49.9509 45.8405 49.9525 45.8354 49.9525C45.8221 49.9542 45.8087 49.9559 45.7953 49.9592C45.3804 50.0345 44.9924 50.354 44.8117 50.7923C44.7398 50.9679 44.7046 51.1502 44.7046 51.3276C44.7046 51.6437 44.8167 51.9415 45.0308 52.1422C45.2316 52.3312 45.5026 52.4132 45.7786 52.3898C45.797 52.3881 45.8154 52.3864 45.8338 52.3831C45.8873 52.373 45.9425 52.3613 45.996 52.3463ZM53.9049 56.4412C53.9099 54.1897 52.2154 52.5955 50.1278 52.8899C48.0418 53.1827 46.3406 55.2535 46.3373 57.5051C46.3339 59.7583 48.0268 61.3524 50.1127 61.058C52.1986 60.7636 53.8998 58.6944 53.9049 56.4412ZM59.2159 45.3391C59.2209 43.0875 57.5264 41.4917 55.4388 41.7861C53.3528 42.0788 51.6516 44.1514 51.6483 46.4029C51.6449 48.6545 53.3378 50.2486 55.4237 49.9542C57.5113 49.6615 59.2109 47.5906 59.2159 45.3391ZM58.9081 52.8699C58.9081 52.7912 58.9014 52.7126 58.8863 52.6357C58.7977 52.1489 58.4113 51.8127 57.9496 51.8026C57.8961 51.801 57.8409 51.8043 57.7873 51.8127C57.7622 51.816 57.7355 51.821 57.7104 51.826C57.329 51.908 56.971 52.1991 56.787 52.5955C56.7 52.7829 56.6582 52.9819 56.6566 53.1743C56.6532 53.4754 56.7519 53.7614 56.9443 53.9638C57.1467 54.1779 57.431 54.275 57.7238 54.2499C57.7438 54.2482 57.7622 54.2465 57.7823 54.2432C57.8007 54.2398 57.8191 54.2382 57.8359 54.2348C57.9412 54.2148 58.0466 54.1779 58.1487 54.1261C58.1687 54.1161 58.1888 54.1044 58.2089 54.0926C58.6287 53.8467 58.9064 53.3516 58.9081 52.8699ZM38.7479 53.564C37.8346 53.6929 37.0919 54.5978 37.0885 55.5831C37.0852 56.5683 37.8279 57.2659 38.7412 57.1371C39.6546 57.0083 40.3973 56.1033 40.4006 55.118C40.4006 54.1328 39.6596 53.4352 38.7479 53.564ZM50.1227 55.3238C49.2797 55.4426 48.5921 56.2773 48.5905 57.1873C48.5888 58.0972 49.2746 58.7413 50.116 58.6225C50.9591 58.5037 51.6466 57.6673 51.6483 56.7574C51.65 55.849 50.9658 55.205 50.1227 55.3238ZM48.179 40.2488C49.2111 40.1033 50.0541 39.0779 50.0558 37.9638C50.0575 36.8498 49.2194 36.0602 48.1857 36.2041C47.1536 36.3496 46.3105 37.375 46.3088 38.4891C46.3071 39.6048 47.1469 40.3944 48.179 40.2488ZM30.6601 34.5246C30.6584 35.5099 31.4011 36.2074 32.3145 36.0786C33.2278 35.9498 33.9705 35.0449 33.9739 34.0596C33.9755 33.0743 33.2345 32.3768 32.3212 32.5056C31.4078 32.6327 30.6618 33.5394 30.6601 34.5246Z" fill="url(#paint5_linear)"/>
<defs>
<linearGradient id="paint0_linear" x1="9.19379e-06" y1="39.617" x2="77.7233" y2="39.617" gradientUnits="userSpaceOnUse">
<stop stop-color="#0040A8"/>
<stop offset="1" stop-color="#005AFF"/>
</linearGradient>
<linearGradient id="paint1_linear" x1="3.81277" y1="40.9014" x2="80" y2="40.9014" gradientUnits="userSpaceOnUse">
<stop stop-color="#0085FF"/>
<stop offset="1" stop-color="#00C0FF"/>
</linearGradient>
<linearGradient id="paint2_linear" x1="6.12435" y1="40.9013" x2="77.6886" y2="40.9013" gradientUnits="userSpaceOnUse">
<stop stop-color="#ADDCFF"/>
<stop offset="0.5028" stop-color="#EAF6FF"/>
<stop offset="1" stop-color="#EAF6FF"/>
</linearGradient>
<linearGradient id="paint3_linear" x1="21.0502" y1="46.9213" x2="61.7121" y2="46.9213" gradientUnits="userSpaceOnUse">
<stop stop-color="#005AFF"/>
<stop offset="1" stop-color="#0040A8"/>
</linearGradient>
<linearGradient id="paint4_linear" x1="25.488" y1="49.0998" x2="63.9681" y2="49.0998" gradientUnits="userSpaceOnUse">
<stop stop-color="#0085FF"/>
<stop offset="1" stop-color="#00C0FF"/>
</linearGradient>
<linearGradient id="paint5_linear" x1="27.9845" y1="49.0991" x2="61.7121" y2="49.0991" gradientUnits="userSpaceOnUse">
<stop stop-color="#ADDCFF"/>
<stop offset="0.5028" stop-color="#EAF6FF"/>
<stop offset="1" stop-color="#EAF6FF"/>
</linearGradient>
</defs>
</svg>
