<svg width="80" height="90" viewBox="0 0 80 90" fill="none" xmlns="http://www.w3.org/2000/svg">
<path d="M56.54 74.8949L60.3457 76.9655C60.2939 76.9371 60.2388 76.9121 60.1854 76.887C60.1219 76.857 60.0568 76.8303 59.9917 76.8035C59.9649 76.7935 59.9399 76.7818 59.9132 76.7718C59.8213 76.7384 59.7278 76.7084 59.6326 76.685C59.6176 76.6816 59.6026 76.6783 59.5876 76.675C59.5091 76.6549 59.4289 76.6382 59.3471 76.6249C59.3154 76.6199 59.282 76.6165 59.2486 76.6115C59.1818 76.6031 59.115 76.5948 59.0465 76.5915C59.0115 76.5881 58.9747 76.5865 58.9396 76.5848C58.8695 76.5814 58.7994 76.5814 58.7276 76.5831C58.6958 76.5831 58.6624 76.5831 58.6307 76.5848C58.5272 76.5898 58.422 76.5981 58.3168 76.6132L55.7803 76.9688C55.635 76.9889 55.493 77.0039 55.3528 77.0156C55.3177 77.019 55.2826 77.0206 55.2492 77.024C55.1106 77.034 54.9737 77.0407 54.8401 77.0423C54.8385 77.0423 54.8351 77.0423 54.8334 77.0423C54.7015 77.044 54.5729 77.039 54.446 77.034C54.4143 77.0323 54.3826 77.0306 54.3509 77.029C54.2239 77.0206 54.097 77.0089 53.9751 76.9922C53.9718 76.9922 53.9685 76.9906 53.9634 76.9906C53.8449 76.9739 53.728 76.9522 53.6144 76.9271C53.5844 76.9204 53.556 76.9137 53.5276 76.9071C53.5009 76.9004 53.4725 76.8954 53.4441 76.8887C53.3606 76.867 53.2788 76.8436 53.1986 76.8169C53.1836 76.8119 53.1686 76.8069 53.1536 76.8019C53.0383 76.7635 52.9248 76.7234 52.8162 76.6766C52.8146 76.6766 52.8146 76.675 52.8129 76.675C52.7478 76.6466 52.6843 76.6182 52.6209 76.5864C52.5691 76.5614 52.5173 76.5347 52.4672 76.508L48.6616 74.4373C48.7735 74.4991 48.8887 74.5542 49.0073 74.6043C49.0089 74.6043 49.0089 74.606 49.0106 74.606C49.1208 74.6527 49.2327 74.6945 49.3479 74.7312C49.363 74.7362 49.378 74.7412 49.393 74.7463C49.4999 74.7797 49.6101 74.8097 49.722 74.8364C49.7504 74.8431 49.7804 74.8498 49.8088 74.8565C49.924 74.8815 50.0393 74.9032 50.1578 74.9199C50.1612 74.9199 50.1645 74.9216 50.1695 74.9216C50.2914 74.9383 50.4183 74.95 50.5452 74.9583C50.577 74.96 50.6087 74.9617 50.6404 74.9633C50.7673 74.97 50.8959 74.9734 51.0278 74.9717C51.0295 74.9717 51.0328 74.9717 51.0345 74.9717C51.1681 74.97 51.305 74.9633 51.4436 74.9533C51.4787 74.9517 51.5137 74.9483 51.5471 74.945C51.6874 74.9333 51.8294 74.9183 51.9746 74.8982L54.5112 74.5425C54.6164 74.5275 54.7216 74.5192 54.8251 74.5141C54.8585 74.5125 54.8902 74.5125 54.9219 74.5125C54.9938 74.5108 55.0639 74.5108 55.134 74.5141C55.1708 74.5158 55.2058 74.5175 55.2409 74.5208C55.3094 74.5258 55.3761 74.5325 55.4429 74.5409C55.4747 74.5459 55.5081 74.5492 55.5398 74.5542C55.6216 74.5676 55.7018 74.5843 55.7803 74.6043C55.7936 74.6077 55.807 74.6093 55.8187 74.6127C55.8203 74.6127 55.822 74.6143 55.8253 74.6143C55.9205 74.6394 56.014 74.6694 56.1059 74.7012C56.1326 74.7112 56.1576 74.7212 56.1827 74.7312C56.2478 74.7563 56.3129 74.7847 56.3764 74.8147C56.3914 74.8214 56.4065 74.8264 56.4198 74.8331C56.4632 74.8548 56.5016 74.8748 56.54 74.8949ZM43.1477 67.9315C43.3247 71.4716 44.2398 74.1217 45.7978 75.7699L32.7561 77.6034C32.7728 77.5733 32.7895 77.5416 32.8062 77.5116C32.8162 77.4915 32.8279 77.4748 32.8396 77.4548C32.858 77.4214 32.8747 77.3847 32.8931 77.3512C32.9131 77.3112 32.9331 77.2728 32.9532 77.2327C32.9866 77.1642 33.02 77.0958 33.0517 77.0273C33.0684 76.9906 33.0868 76.9538 33.1035 76.9171C33.1419 76.8303 33.1803 76.7418 33.217 76.6516C33.2254 76.6299 33.2354 76.6098 33.2437 76.5881C33.2871 76.4829 33.3289 76.3744 33.3673 76.2658C33.369 76.2608 33.3706 76.2558 33.3723 76.2508C33.4241 76.1089 33.4725 75.9636 33.5209 75.815C33.5343 75.7749 33.5443 75.7348 33.5577 75.6947C33.5911 75.5829 33.6245 75.471 33.6562 75.3558C33.6712 75.3023 33.6846 75.2489 33.6979 75.1955C33.7263 75.0869 33.753 74.975 33.7798 74.8631C33.7914 74.8114 33.8048 74.7596 33.8165 74.7062C33.8482 74.5626 33.8783 74.419 33.905 74.2703C33.9083 74.2486 33.9133 74.2269 33.9184 74.2052C33.9501 74.0349 33.9785 73.8629 34.0052 73.6859C34.0135 73.6341 34.0202 73.5824 34.0269 73.5289C34.0453 73.4003 34.062 73.2718 34.0787 73.1398C34.087 73.0764 34.0937 73.0146 34.1004 72.9511C34.1154 72.8209 34.1271 72.689 34.1404 72.5554C34.1455 72.4969 34.1521 72.4385 34.1571 72.3784C34.1722 72.188 34.1872 71.9943 34.1972 71.7973L30.3916 69.7233C30.3799 69.9203 30.3665 70.1141 30.3515 70.3061C30.3465 70.3662 30.3415 70.423 30.3348 70.4831C30.3231 70.6167 30.3098 70.7486 30.2947 70.8788C30.2881 70.9423 30.2797 71.0058 30.273 71.0675C30.258 71.1995 30.2396 71.328 30.2213 71.4566C30.2146 71.5084 30.2062 71.5618 30.1996 71.6136C30.1728 71.7889 30.1445 71.9626 30.1127 72.1329C30.1094 72.1546 30.1044 72.1747 30.101 72.1964C30.0726 72.345 30.0426 72.4903 30.0109 72.6339C29.9992 72.6873 29.9875 72.7391 29.9741 72.7908C29.9474 72.9027 29.9207 73.0146 29.8923 73.1248C29.8789 73.1783 29.8639 73.2317 29.8506 73.2851C29.8188 73.4003 29.7854 73.5122 29.752 73.6241C29.7403 73.6642 29.7287 73.7059 29.7153 73.7443C29.6685 73.893 29.6184 74.0382 29.5667 74.1802C29.5249 74.2954 29.4815 74.4073 29.4364 74.5175C29.4281 74.5392 29.4181 74.5609 29.408 74.5826C29.3713 74.6711 29.3346 74.7596 29.2945 74.8465C29.2778 74.8849 29.2594 74.9216 29.2427 74.9583C29.211 75.0268 29.1776 75.0953 29.1442 75.1637C29.1242 75.2038 29.1041 75.2439 29.0824 75.2823C29.054 75.3357 29.0256 75.3908 28.9973 75.4426C28.9472 75.5344 28.8954 75.6246 28.842 75.7114C28.8236 75.7432 28.8052 75.7749 28.7868 75.805C28.715 75.9218 28.6416 76.0354 28.5648 76.1439C28.543 76.1757 28.518 76.2074 28.4963 76.2374C28.4479 76.3042 28.4011 76.3694 28.351 76.4328C28.3226 76.4696 28.2926 76.5046 28.2625 76.5414C28.2174 76.5981 28.1707 76.6549 28.1239 76.7084C28.0905 76.7468 28.0571 76.7835 28.0237 76.8202C27.9786 76.8687 27.9352 76.9171 27.8885 76.9638C27.8534 77.0006 27.8167 77.0356 27.7799 77.0724C27.7332 77.1175 27.6881 77.1626 27.6397 77.206C27.6046 77.2394 27.5678 77.2711 27.5311 77.3028C27.4743 77.3529 27.4159 77.4014 27.3574 77.4498C27.3224 77.4782 27.2873 77.5065 27.2506 77.5349C27.1871 77.585 27.1203 77.6318 27.0552 77.6802C27.0251 77.7019 26.9951 77.7253 26.9634 77.7453C26.8431 77.8272 26.7196 77.904 26.5943 77.9775C26.5659 77.9942 26.5359 78.0108 26.5058 78.0275C26.3923 78.091 26.277 78.1511 26.1585 78.2079C26.1384 78.2179 26.1184 78.2279 26.0984 78.238C25.9631 78.3014 25.8245 78.3582 25.6826 78.4133C25.6492 78.4266 25.6158 78.4383 25.5824 78.45C25.4488 78.4985 25.3119 78.5452 25.1733 78.5853C25.1599 78.5886 25.1465 78.5936 25.1332 78.5986C24.9829 78.6421 24.8276 78.6788 24.6723 78.7139C24.6339 78.7222 24.5972 78.7306 24.5587 78.7372C24.3984 78.769 24.2381 78.799 24.0711 78.8224L21.5346 79.1781C21.4495 79.1898 21.3643 79.2065 21.2791 79.2248C21.2574 79.2299 21.2357 79.2349 21.214 79.2399C21.1372 79.2582 21.062 79.2766 20.9852 79.3C20.9769 79.3017 20.9702 79.3033 20.9619 79.3067C20.88 79.3317 20.7999 79.3601 20.7197 79.3902C20.6997 79.3985 20.6796 79.4052 20.6579 79.4135C20.5878 79.4403 20.5193 79.4703 20.4525 79.502C20.4442 79.5054 20.4342 79.5087 20.4258 79.5137C20.4225 79.5154 20.4208 79.5171 20.4191 79.5171C20.324 79.5622 20.2288 79.6123 20.1369 79.664C20.1219 79.6724 20.1086 79.6807 20.0935 79.6891C20.005 79.7408 19.9165 79.7976 19.8314 79.8561C19.8247 79.8611 19.8163 79.8644 19.8096 79.8711C19.7996 79.8778 19.7913 79.8861 19.7813 79.8928C19.7161 79.9379 19.6527 79.9846 19.5909 80.0347C19.5842 80.0397 19.5775 80.0447 19.5709 80.0498C19.5024 80.1032 19.4373 80.16 19.3721 80.2184C19.3655 80.2251 19.3571 80.2301 19.3504 80.2368C19.3404 80.2468 19.3304 80.2568 19.3204 80.2652C19.2736 80.3086 19.2269 80.352 19.1818 80.3971C19.1667 80.4121 19.1517 80.4255 19.1384 80.4405C19.0799 80.499 19.0248 80.5591 18.9697 80.6208C18.968 80.6242 18.9647 80.6259 18.9614 80.6292C18.953 80.6392 18.9447 80.6492 18.9363 80.6576C18.8929 80.7077 18.8495 80.7595 18.8077 80.8129C18.7927 80.8329 18.776 80.8513 18.761 80.8713C18.7192 80.9248 18.6791 80.9782 18.6407 81.0333C18.6324 81.0433 18.624 81.0533 18.6174 81.065C18.6157 81.0684 18.6124 81.0717 18.6107 81.0751C18.5606 81.1469 18.5138 81.2187 18.4671 81.2921C18.4554 81.3105 18.4454 81.3289 18.4337 81.3472C18.3969 81.4074 18.3619 81.4691 18.3268 81.5326C18.3201 81.5443 18.3134 81.556 18.3068 81.5677C18.3034 81.5727 18.3018 81.5794 18.2984 81.5844C18.25 81.6745 18.2066 81.7647 18.1632 81.8582C18.1548 81.8766 18.1465 81.895 18.1381 81.9133C18.0964 82.0085 18.0563 82.1037 18.0212 82.2005C18.0195 82.2039 18.0179 82.2072 18.0179 82.2106C18.0062 82.2406 17.9978 82.2707 17.9862 82.3007C17.9761 82.3308 17.9644 82.3609 17.9544 82.3926C17.9427 82.4277 17.9327 82.4627 17.9227 82.4978C17.9143 82.5278 17.9043 82.5596 17.896 82.5896C17.886 82.6264 17.8776 82.6614 17.8676 82.6982C17.8592 82.7282 17.8509 82.7583 17.8442 82.79C17.8359 82.8267 17.8275 82.8652 17.8208 82.9036C17.8142 82.9336 17.8075 82.9637 17.8025 82.9937C17.7958 83.0338 17.7891 83.0722 17.7824 83.1123C17.7774 83.1407 17.7724 83.1691 17.7691 83.1991C17.7641 83.2409 17.759 83.2826 17.754 83.3244C17.7507 83.3511 17.7474 83.3795 17.744 83.4062C17.739 83.4513 17.7373 83.498 17.734 83.5431C17.7323 83.5665 17.7307 83.5899 17.729 83.6149C17.7257 83.6851 17.724 83.7552 17.724 83.8253C17.7206 85.2848 18.4287 86.4704 19.4924 87.0482L23.298 89.1188C22.2343 88.5394 21.5263 87.3554 21.5296 85.896C21.5296 85.8258 21.5313 85.7557 21.5346 85.6856C21.5363 85.6622 21.538 85.6388 21.5396 85.6138C21.543 85.5687 21.5446 85.5219 21.5496 85.4768C21.553 85.4501 21.5563 85.4217 21.5597 85.395C21.5647 85.3533 21.568 85.3115 21.5747 85.2698C21.578 85.2414 21.5847 85.213 21.5881 85.1846C21.5947 85.1445 21.5997 85.1044 21.6081 85.066C21.6131 85.036 21.6198 85.0059 21.6265 84.9759C21.6348 84.9375 21.6415 84.9007 21.6498 84.8623C21.6565 84.8323 21.6649 84.8022 21.6732 84.7705C21.6816 84.7337 21.6916 84.697 21.7016 84.6619C21.71 84.6319 21.72 84.6018 21.7283 84.5701C21.7383 84.535 21.7484 84.4983 21.76 84.4632C21.7701 84.4332 21.7801 84.4031 21.7918 84.373C21.8035 84.3396 21.8152 84.3063 21.8268 84.2729C21.8619 84.176 21.902 84.0808 21.9437 83.9856C21.9521 83.9673 21.9604 83.9489 21.9688 83.9305C22.0105 83.8387 22.0556 83.7468 22.104 83.6567C22.1141 83.6383 22.1241 83.6216 22.1324 83.6049C22.1675 83.5431 22.2026 83.4813 22.2393 83.4195C22.251 83.4012 22.261 83.3828 22.2727 83.3644C22.3195 83.291 22.3662 83.2175 22.4163 83.1474C22.4263 83.134 22.4363 83.1206 22.4464 83.1056C22.4848 83.0505 22.5248 82.9971 22.5666 82.9436C22.5816 82.9236 22.5967 82.9036 22.6133 82.8852C22.6551 82.8318 22.6985 82.78 22.7436 82.7299C22.7536 82.7182 22.7636 82.7048 22.7753 82.6932C22.8304 82.6314 22.8872 82.5713 22.944 82.5128C22.959 82.4978 22.974 82.4844 22.9891 82.4694C23.0342 82.4243 23.0809 82.3809 23.1277 82.3375C23.1444 82.3224 23.1627 82.3057 23.1794 82.2907C23.2446 82.2323 23.3114 82.1772 23.3782 82.1221C23.3848 82.1171 23.3915 82.112 23.3982 82.107C23.46 82.0586 23.5251 82.0118 23.5886 81.9651C23.6053 81.9534 23.622 81.9417 23.6403 81.93C23.7255 81.8716 23.814 81.8165 23.9025 81.763C23.9175 81.7547 23.9325 81.7463 23.9459 81.738C24.0377 81.6862 24.1313 81.6361 24.2281 81.591C24.2398 81.586 24.2515 81.581 24.2632 81.576C24.3316 81.5443 24.4001 81.5159 24.4686 81.4875C24.4886 81.4792 24.5086 81.4708 24.5304 81.4641C24.6105 81.4341 24.6907 81.4057 24.7725 81.3806C24.7808 81.379 24.7875 81.3773 24.7959 81.374C24.871 81.3523 24.9478 81.3322 25.0246 81.3138C25.0463 81.3088 25.0681 81.3038 25.0898 81.2988C25.1749 81.2804 25.2584 81.2654 25.3453 81.2521L27.8818 80.8964C28.0488 80.873 28.2091 80.8429 28.3694 80.8112C28.4078 80.8029 28.4462 80.7962 28.4829 80.7878C28.6399 80.7528 28.7935 80.716 28.9438 80.6726C28.9572 80.6693 28.9705 80.6643 28.9839 80.6593C29.1225 80.6175 29.2594 80.5724 29.393 80.524C29.4264 80.5123 29.4598 80.499 29.4932 80.4873C29.6351 80.4338 29.7737 80.3754 29.909 80.3119C29.914 80.3103 29.9207 80.3069 29.9257 80.3053C29.9407 80.2986 29.9541 80.2902 29.9691 80.2819C30.0877 80.2251 30.2029 80.165 30.3165 80.1015C30.3465 80.0848 30.3766 80.0681 30.405 80.0514C30.5302 79.978 30.6538 79.9011 30.774 79.8193C30.7807 79.8143 30.7874 79.811 30.7924 79.8076C30.8174 79.7909 30.8408 79.7709 30.8642 79.7542C30.931 79.7074 30.9961 79.659 31.0595 79.6089C31.0946 79.5805 31.1297 79.5521 31.1647 79.5238C31.2232 79.4753 31.2816 79.4269 31.3384 79.3768C31.3568 79.3601 31.3768 79.3451 31.3952 79.33C31.4136 79.3133 31.4303 79.2966 31.447 79.2799C31.4937 79.2365 31.5405 79.1914 31.5855 79.1464C31.6223 79.1113 31.6574 79.0746 31.6941 79.0378C31.7392 78.9911 31.7843 78.9426 31.8293 78.8942C31.846 78.8775 31.8611 78.8608 31.8778 78.8424L34.0569 80.0281L49.6051 77.8439C48.0454 76.1957 47.1303 73.5456 46.955 70.0055L43.1477 67.9315ZM74.9253 9.96041L74.8535 48.3106C74.8535 48.3573 74.8518 48.4041 74.8468 48.4509C74.8451 48.4659 74.8418 48.4826 74.8401 48.4976C74.8368 48.5277 74.8334 48.5577 74.8268 48.5878C74.8234 48.6062 74.8184 48.6245 74.8151 48.6412C74.8084 48.6679 74.8034 48.6947 74.7967 48.7214C74.7917 48.7414 74.785 48.7598 74.7783 48.7782C74.7717 48.8015 74.765 48.8249 74.7566 48.8483C74.7566 48.85 74.755 48.85 74.755 48.8516C74.7299 48.9168 74.7015 48.9802 74.6698 49.042C74.6665 49.0487 74.6648 49.0554 74.6614 49.062C74.6581 49.067 74.6548 49.0721 74.6514 49.0787C74.623 49.1305 74.593 49.1789 74.5596 49.2273C74.5596 49.229 74.5579 49.229 74.5579 49.2307C74.5546 49.2357 74.5496 49.2407 74.5462 49.2457C74.5178 49.2841 74.4878 49.3225 74.4577 49.3593C74.4527 49.3643 74.4494 49.371 74.4444 49.3776C74.4377 49.3843 74.431 49.3893 74.426 49.396C74.3976 49.4277 74.3659 49.4578 74.3358 49.4878C74.3291 49.4945 74.3225 49.5012 74.3158 49.5079C74.3124 49.5096 74.3108 49.5112 74.3074 49.5146C74.264 49.553 74.2189 49.588 74.1722 49.6214C74.1688 49.6248 74.1655 49.6264 74.1622 49.6298C74.1572 49.6331 74.1505 49.6365 74.1455 49.6398C74.0853 49.6799 74.0236 49.7166 73.9584 49.7483C73.9568 49.7483 73.9568 49.75 73.9568 49.75C73.9534 49.7517 73.9484 49.7534 73.9451 49.755C73.8967 49.7767 73.8482 49.7951 73.7981 49.8118C73.7831 49.8168 73.7697 49.8202 73.7547 49.8252C73.6996 49.8402 73.6428 49.8535 73.5861 49.8619L10.1678 58.7706C10.1127 58.779 10.0576 58.7807 10.0042 58.7807C9.99249 58.7807 9.98248 58.7807 9.97079 58.7807C9.91902 58.779 9.86893 58.774 9.81883 58.7656C9.81048 58.764 9.80213 58.7623 9.79211 58.7606C9.77207 58.7573 9.75036 58.7539 9.73033 58.7473C9.70695 58.7406 9.68357 58.7339 9.66019 58.7256C9.65351 58.7239 9.64516 58.7205 9.63848 58.7189C9.60175 58.7055 9.56501 58.6905 9.52994 58.6738C9.51658 58.6671 9.50322 58.6604 9.49154 58.6537L5.68591 56.5831C5.68591 56.5831 5.68758 56.5831 5.68758 56.5848L5.68591 56.5831C5.3319 56.3894 5.09644 55.9953 5.09644 55.5094L5.16825 17.1592C5.16825 17.1125 5.16992 17.0657 5.17493 17.0189C5.1766 17.0022 5.17994 16.9855 5.18161 16.9705C5.18495 16.9405 5.18829 16.9121 5.1933 16.882C5.19664 16.8636 5.20165 16.8453 5.20666 16.8269C5.21333 16.8002 5.21834 16.7735 5.22502 16.7468C5.23003 16.7267 5.23671 16.7083 5.24339 16.69C5.25007 16.6666 5.25675 16.6416 5.26677 16.6198C5.26677 16.6198 5.26677 16.6182 5.26844 16.6182C5.26844 16.6165 5.26844 16.6165 5.27011 16.6148C5.29516 16.5464 5.32689 16.4796 5.36028 16.4161C5.36195 16.4128 5.36195 16.4094 5.36362 16.4078C5.38199 16.3744 5.4037 16.341 5.42374 16.3093C5.4371 16.2875 5.44879 16.2658 5.46214 16.2458C5.46381 16.2441 5.46381 16.2425 5.46548 16.2408C5.50055 16.1907 5.53896 16.1423 5.57904 16.0955C5.58071 16.0938 5.58071 16.0938 5.58238 16.0922C5.59072 16.0821 5.60241 16.0738 5.61076 16.0638C5.64249 16.0304 5.67422 15.9953 5.70929 15.9653C5.71263 15.9619 5.71596 15.9602 5.7193 15.9569C5.74101 15.9369 5.76606 15.9202 5.78944 15.9018C5.81449 15.8818 5.83787 15.8617 5.86291 15.8434C5.86625 15.84 5.87126 15.8383 5.8746 15.8367C5.93639 15.7949 5.99984 15.7582 6.06497 15.7265C6.06664 15.7265 6.06664 15.7248 6.06831 15.7248C6.10671 15.7064 6.14512 15.6947 6.1852 15.6797C6.20691 15.6714 6.22694 15.663 6.24698 15.6563C6.30877 15.638 6.37389 15.6229 6.43902 15.6146L69.8539 6.7025C69.909 6.69415 69.9641 6.69248 70.0175 6.69248C70.0292 6.69248 70.0393 6.69248 70.0509 6.69248C70.1027 6.69415 70.1528 6.69916 70.2029 6.70751C70.2113 6.70918 70.2196 6.71085 70.2296 6.71252C70.2497 6.71586 70.2714 6.7192 70.2914 6.72588C70.3148 6.73256 70.3382 6.73924 70.3615 6.74759C70.3682 6.74926 70.3766 6.7526 70.3832 6.75427C70.42 6.76763 70.4567 6.78266 70.4918 6.79936C70.5051 6.80604 70.5185 6.81271 70.5302 6.81939L74.3358 8.89003C74.3342 8.89003 74.3342 8.89003 74.3325 8.88836L74.3358 8.89003C74.6898 9.07872 74.9253 9.47281 74.9253 9.96041ZM71.1163 9.12548L10.2446 17.6819C10.1795 17.6902 10.1161 17.7053 10.0526 17.7236C10.0309 17.7303 10.0109 17.7403 9.99083 17.747C9.95075 17.762 9.91067 17.7754 9.87059 17.7938C9.8038 17.8255 9.74035 17.8622 9.68023 17.904C9.65017 17.924 9.62345 17.9474 9.59507 17.9691C9.57169 17.9875 9.54664 18.0042 9.52493 18.0242C9.4882 18.0576 9.45146 18.0943 9.41806 18.1311C9.40804 18.1411 9.39802 18.1511 9.388 18.1611C9.34459 18.2096 9.30451 18.2613 9.26777 18.3148C9.25441 18.3348 9.24105 18.3565 9.22937 18.3782C9.20766 18.4133 9.18428 18.4484 9.16424 18.4868C9.12917 18.5519 9.09912 18.6203 9.0724 18.6888C9.06405 18.7122 9.05737 18.7372 9.04902 18.7606C9.04234 18.779 9.03566 18.799 9.03065 18.8174C9.02397 18.8441 9.01729 18.8725 9.01228 18.8992C9.00894 18.9176 9.00393 18.9343 9.00059 18.951C8.99558 18.9827 8.99057 19.0144 8.98724 19.0462C8.98557 19.0612 8.98223 19.0746 8.98056 19.0896C8.97555 19.1363 8.97388 19.1831 8.97388 19.2298L8.90541 56.3427L69.7771 47.7879C69.8339 47.7796 69.8906 47.7662 69.9457 47.7512C69.9608 47.7478 69.9741 47.7428 69.9892 47.7378C70.0393 47.7211 70.0877 47.7028 70.1361 47.681C70.1411 47.6794 70.1461 47.6777 70.1495 47.676C70.2146 47.646 70.2764 47.6092 70.3365 47.5675C70.3448 47.5608 70.3549 47.5558 70.3632 47.5491C70.41 47.5157 70.4551 47.4807 70.4985 47.4423C70.5085 47.4339 70.5168 47.4239 70.5269 47.4155C70.5586 47.3855 70.5886 47.3554 70.617 47.3237C70.6287 47.312 70.6387 47.2986 70.6504 47.287C70.6822 47.2502 70.7105 47.2135 70.7389 47.1734C70.7439 47.1667 70.749 47.1617 70.7523 47.155C70.7857 47.1083 70.8157 47.0582 70.8441 47.0064C70.8508 46.9947 70.8575 46.983 70.8625 46.9697C70.8942 46.9079 70.9243 46.8444 70.9477 46.7793C70.956 46.7559 70.9644 46.7309 70.971 46.7058C70.9777 46.6875 70.9844 46.6691 70.9894 46.6491C70.9961 46.6224 71.0028 46.5956 71.0078 46.5689C71.0111 46.5506 71.0161 46.5339 71.0195 46.5155C71.0245 46.4854 71.0278 46.4554 71.0328 46.4253C71.0345 46.4103 71.0378 46.3936 71.0395 46.3786C71.0445 46.3318 71.0462 46.285 71.0462 46.2383L71.1163 9.12548ZM73.8365 1.51256C73.7848 1.48417 73.733 1.45745 73.6812 1.4324C73.6445 1.41403 73.6061 1.39734 73.5694 1.38064C73.5527 1.37229 73.536 1.36561 73.5193 1.35726C73.4308 1.31885 73.3389 1.28211 73.2471 1.24872C73.227 1.24204 73.207 1.23536 73.187 1.22868C73.1001 1.19862 73.0116 1.1719 72.9214 1.14686C72.9114 1.14352 72.9014 1.14018 72.8914 1.13851C72.8881 1.13684 72.883 1.13684 72.8797 1.13517C72.7862 1.11179 72.6927 1.09175 72.5975 1.07338C72.5758 1.07004 72.5541 1.06503 72.5324 1.06169C72.4322 1.04499 72.332 1.02996 72.2301 1.01995C72.2168 1.01828 72.2034 1.01828 72.1884 1.01661C72.0932 1.00826 71.9963 1.00325 71.8995 0.999907C71.8811 0.999907 71.8627 0.998237 71.8444 0.998237C71.7409 0.996567 71.6357 0.999907 71.5288 1.00492C71.5071 1.00659 71.4837 1.00826 71.462 1.00993C71.3518 1.01828 71.2416 1.02829 71.1313 1.04332L5.18161 10.3144C5.06639 10.3311 4.95451 10.3528 4.84095 10.3762C4.81257 10.3829 4.78251 10.3896 4.75412 10.3963C4.65226 10.4196 4.5504 10.4463 4.45021 10.4764C4.44019 10.4797 4.43017 10.4814 4.42015 10.4848C4.31161 10.5182 4.20306 10.5549 4.09619 10.5966C4.06948 10.6067 4.04109 10.6183 4.01437 10.6284C3.92253 10.6651 3.83068 10.7035 3.74051 10.7453C3.72882 10.7503 3.71713 10.7553 3.70544 10.7603C3.7021 10.762 3.69877 10.7636 3.69543 10.7653C3.56685 10.8254 3.44328 10.8922 3.31971 10.9623C3.29967 10.974 3.2813 10.984 3.26126 10.9957C3.1427 11.0659 3.02581 11.1393 2.91059 11.2178C2.90057 11.2245 2.89055 11.2295 2.88053 11.2362C2.86717 11.2445 2.85548 11.2546 2.84212 11.2646C2.75529 11.3247 2.67013 11.3882 2.58663 11.4533C2.57828 11.46 2.56993 11.4666 2.56159 11.4733C2.47141 11.5451 2.38291 11.6203 2.29608 11.6971C2.28606 11.7054 2.27604 11.7138 2.26602 11.7221C2.25266 11.7338 2.2393 11.7472 2.22594 11.7605C2.16249 11.8173 2.10237 11.8758 2.04059 11.9359C2.02055 11.9559 2.00051 11.9743 1.98214 11.9943C1.90533 12.0728 1.83018 12.153 1.75671 12.2348C1.75337 12.2381 1.75003 12.2415 1.74669 12.2465C1.735 12.2598 1.72498 12.2732 1.71496 12.2849C1.65652 12.3533 1.59807 12.4218 1.54297 12.4919C1.52293 12.5187 1.50122 12.5437 1.48118 12.5704C1.42608 12.6406 1.37264 12.7124 1.32087 12.7858C1.31085 12.7992 1.29917 12.8125 1.28915 12.8276C1.28581 12.8326 1.28414 12.8359 1.2808 12.8409C1.214 12.9361 1.15055 13.033 1.08876 13.1315C1.07373 13.1565 1.0587 13.1799 1.04368 13.205C0.99525 13.2868 0.946824 13.3686 0.901737 13.4521C0.893388 13.4688 0.883369 13.4838 0.873349 13.5005C0.87001 13.5072 0.86667 13.5156 0.86166 13.5222C0.798205 13.6425 0.73809 13.7627 0.681315 13.8863C0.669626 13.9113 0.659606 13.9347 0.647917 13.9597C0.592812 14.085 0.539376 14.2136 0.49095 14.3421C0.48928 14.3472 0.48761 14.3505 0.48594 14.3555C0.470911 14.3956 0.459222 14.4357 0.444194 14.4757C0.430835 14.5158 0.415806 14.5576 0.402447 14.5976C0.387418 14.6444 0.374059 14.6911 0.3607 14.7379C0.349011 14.7797 0.335652 14.8197 0.323963 14.8615C0.310604 14.9099 0.298915 14.9567 0.287226 15.0051C0.277207 15.0468 0.265518 15.0869 0.255499 15.1287C0.243809 15.1788 0.23379 15.2272 0.223771 15.2773C0.215422 15.3174 0.205403 15.3574 0.198723 15.3992C0.188704 15.4509 0.182024 15.501 0.173675 15.5528C0.166996 15.5929 0.160316 15.633 0.153637 15.6714C0.145287 15.7265 0.140278 15.7816 0.133598 15.8367C0.130259 15.8734 0.123579 15.9102 0.120239 15.9469C0.11523 16.0087 0.11022 16.0705 0.10688 16.1322C0.10521 16.1623 0.101871 16.194 0.100201 16.2241C0.0951913 16.3176 0.0935214 16.4111 0.0935214 16.5046L0.0100281 61.6762L8.85347e-06 68.5193C-0.00333088 70.4664 0.938474 72.0444 2.35786 72.8176L6.16349 74.8882C4.7441 74.1167 3.8023 72.537 3.80564 70.59L3.819 63.7468L3.90249 18.5753C3.90249 18.4817 3.90583 18.3882 3.90917 18.2947C3.91084 18.2647 3.91418 18.2329 3.91585 18.2029C3.91919 18.1411 3.9242 18.0793 3.92921 18.0175C3.93255 17.9808 3.93756 17.9457 3.94257 17.909C3.94925 17.8539 3.95425 17.7971 3.9626 17.742C3.96761 17.7019 3.97596 17.6635 3.98097 17.6251C3.98932 17.5733 3.99767 17.5216 4.00602 17.4681C4.0127 17.4281 4.02272 17.388 4.03107 17.3479C4.04109 17.2978 4.05111 17.2477 4.0628 17.1976C4.07282 17.1575 4.08283 17.1158 4.09285 17.0757C4.10454 17.0273 4.11623 16.9789 4.12959 16.9304C4.14128 16.8904 4.15297 16.8486 4.16633 16.8085C4.17969 16.7618 4.19472 16.7134 4.20974 16.6666C4.2231 16.6265 4.23646 16.5864 4.25149 16.5464C4.26652 16.5013 4.28155 16.4579 4.29825 16.4128C4.34667 16.2842 4.39844 16.1556 4.45521 16.0304C4.4669 16.0053 4.47692 15.982 4.48861 15.9569C4.54539 15.8333 4.6055 15.7114 4.66896 15.5929C4.68065 15.5695 4.69401 15.5461 4.70737 15.5227C4.75245 15.4392 4.80088 15.3574 4.8493 15.2756C4.86433 15.2506 4.87936 15.2255 4.89439 15.2021C4.95617 15.1036 5.01963 15.0068 5.08475 14.9116C5.09811 14.8932 5.11147 14.8748 5.12483 14.8565C5.1766 14.783 5.23003 14.7112 5.28514 14.6411C5.30518 14.6143 5.32689 14.5893 5.34692 14.5626C5.4037 14.4924 5.46047 14.424 5.51892 14.3555C5.53395 14.3388 5.54731 14.3221 5.56234 14.3054C5.63581 14.2236 5.71096 14.1434 5.78777 14.0649C5.80781 14.0449 5.82618 14.0265 5.84621 14.0065C5.90633 13.9464 5.96811 13.8879 6.03157 13.8295C6.05495 13.8078 6.07833 13.7878 6.1017 13.766C6.18854 13.6892 6.27704 13.6141 6.36721 13.5423C6.37556 13.5356 6.38391 13.5289 6.39226 13.5222C6.47575 13.4571 6.56092 13.3937 6.64775 13.3335C6.67113 13.3168 6.69284 13.3018 6.71622 13.2868C6.83144 13.2083 6.94666 13.1348 7.06689 13.0647C7.08526 13.053 7.10529 13.043 7.12533 13.0313C7.2489 12.9612 7.37414 12.8944 7.50105 12.8343C7.51608 12.8276 7.53111 12.8209 7.54614 12.8142C7.63631 12.7725 7.72816 12.7341 7.82 12.6973C7.84672 12.6873 7.8751 12.6756 7.90182 12.6656C8.00869 12.6255 8.11556 12.5871 8.22577 12.5537C8.23579 12.5504 8.24581 12.5487 8.25583 12.5454C8.35602 12.5153 8.45789 12.4886 8.55975 12.4652C8.58814 12.4585 8.61819 12.4519 8.64658 12.4452C8.75846 12.4218 8.87201 12.4001 8.98724 12.3834L74.9353 3.11563C75.0472 3.1006 75.1574 3.08891 75.2659 3.08223C75.2877 3.08056 75.311 3.07889 75.3327 3.07722C75.4379 3.07054 75.5431 3.06887 75.6483 3.07054C75.6667 3.07054 75.6851 3.07221 75.7034 3.07221C75.8003 3.07388 75.8971 3.08056 75.9923 3.08891C76.0057 3.09058 76.0191 3.09058 76.0324 3.09225C76.1343 3.10227 76.2345 3.1173 76.3347 3.134C76.3564 3.13734 76.3781 3.14235 76.3998 3.14569C76.5 3.16406 76.5985 3.18576 76.6954 3.21081C76.7054 3.21415 76.7154 3.21749 76.7254 3.21916C76.8156 3.24254 76.9024 3.27093 76.9909 3.30098C77.0109 3.30766 77.031 3.31434 77.051 3.32102C77.1429 3.35442 77.2347 3.38949 77.3232 3.42956C77.3399 3.43791 77.3566 3.44459 77.375 3.45294C77.4652 3.49469 77.5553 3.53644 77.6422 3.58486L73.8365 1.51256Z" fill="url(#paint0_linear)"/>
<path d="M73.6596 8.76817C74.3592 8.66965 74.927 9.20401 74.9253 9.96046L74.8535 48.3106C74.8518 49.0654 74.2824 49.7584 73.5827 49.8569L10.1679 58.7707C9.46819 58.8692 8.90043 58.3348 8.9021 57.5801L8.97391 19.2299C8.97558 18.4734 9.545 17.7804 10.2447 17.6819L73.6596 8.76817Z" fill="url(#paint1_linear)"/>
<path d="M74.9353 3.11557C77.7324 2.72316 80.0051 4.85892 79.9984 7.87804L79.9149 53.0463L79.9015 59.8927C79.8965 62.9135 77.6138 65.6905 74.8168 66.0829L49.4899 69.6431C49.7721 75.0518 51.8845 77.5182 55.7786 76.9705L58.3152 76.6148C60.4125 76.3192 62.1158 77.9223 62.1124 80.1866C62.1074 82.451 60.3975 84.5333 58.3001 84.8289L25.3253 89.4627C23.2279 89.7583 21.5246 88.1536 21.528 85.8892C21.533 83.6249 23.2429 81.5426 25.3403 81.2487L27.8768 80.893C31.7726 80.3453 33.8917 77.2844 34.1956 71.7939L8.87038 75.354C6.07168 75.7481 3.80066 73.6107 3.80567 70.5899L3.81903 63.7468L3.90252 18.5752C3.90753 15.5561 6.19024 12.7791 8.98727 12.3867L74.9353 3.11557ZM74.8535 48.3105L74.9253 9.96036C74.927 9.20391 74.3592 8.66955 73.6596 8.76808L10.2447 17.6818C9.54501 17.7803 8.97558 18.4733 8.97391 19.2298L8.90211 57.58C8.90044 58.3347 9.46819 58.8691 10.1679 58.7706L73.5827 49.8585C74.2824 49.76 74.8519 49.0653 74.8535 48.3105ZM49.6035 77.8405C48.0438 76.1923 47.1287 73.5422 46.9534 70.0021L36.7388 71.4382C36.5468 75.0301 35.6217 77.939 34.057 80.0263L49.6035 77.8405Z" fill="url(#paint2_linear)"/>
<path d="M41.7884 60.7778C42.6501 60.6559 43.3464 61.3121 43.3447 62.2422C43.3431 63.174 42.6434 64.0256 41.7817 64.1459C40.9184 64.2678 40.2221 63.6115 40.2238 62.6797C40.2271 61.7513 40.9268 60.8997 41.7884 60.7778Z" fill="#0040A8"/>
<defs>
<linearGradient id="paint0_linear" x1="8.85347e-06" y1="45.057" x2="77.6419" y2="45.057" gradientUnits="userSpaceOnUse">
<stop stop-color="#0040A8"/>
<stop offset="1" stop-color="#005AFF"/>
</linearGradient>
<linearGradient id="paint1_linear" x1="8.90285" y1="33.7696" x2="74.9248" y2="33.7696" gradientUnits="userSpaceOnUse">
<stop stop-color="#ADDCFF"/>
<stop offset="0.5028" stop-color="#EAF6FF"/>
<stop offset="1" stop-color="#EAF6FF"/>
</linearGradient>
<linearGradient id="paint2_linear" x1="3.80619" y1="46.2841" x2="79.9996" y2="46.2841" gradientUnits="userSpaceOnUse">
<stop stop-color="#0085FF"/>
<stop offset="1" stop-color="#00C0FF"/>
</linearGradient>
</defs>
</svg>
