<svg width="86" height="80" viewBox="0 0 86 80" fill="none" xmlns="http://www.w3.org/2000/svg">
<path d="M81.113 6.01234L77.0292 3.79036C76.997 3.77245 76.9647 3.75632 76.9325 3.74019C76.9199 3.73482 76.9074 3.72944 76.8948 3.72406C76.8411 3.69898 76.7873 3.67568 76.7318 3.65418C76.7103 3.64522 76.6888 3.63626 76.6673 3.62909C76.5902 3.60042 76.5114 3.57713 76.4325 3.55562C76.4307 3.55562 76.4289 3.55383 76.4272 3.55383C76.4164 3.55025 76.4056 3.55025 76.3949 3.54666C76.3286 3.53054 76.2605 3.5162 76.1924 3.50545C76.1655 3.50187 76.1387 3.49828 76.11 3.4947C76.0544 3.48753 75.9971 3.48215 75.9398 3.47678C75.9093 3.47499 75.8806 3.4732 75.8502 3.4714C75.791 3.46961 75.7319 3.46961 75.6728 3.4714C75.6459 3.4714 75.619 3.4714 75.5903 3.4732C75.5043 3.47857 75.4165 3.48574 75.3269 3.49828L7.82354 12.9847C7.87013 12.9542 7.91851 12.9238 7.96689 12.8951C8.00452 12.8718 8.04215 12.8485 8.07978 12.827C8.13533 12.7948 8.19088 12.7625 8.24822 12.732C8.28406 12.7123 8.32169 12.6908 8.35753 12.6711C8.41845 12.6389 8.48117 12.6084 8.5421 12.5779C8.57435 12.5618 8.60661 12.5457 8.64065 12.5296C8.66216 12.5188 8.68366 12.5098 8.70516 12.5009C8.81805 12.4489 8.93453 12.4005 9.04921 12.3539C9.08326 12.3396 9.1173 12.3271 9.15314 12.3145C9.28753 12.2643 9.42193 12.216 9.55991 12.1748C9.57245 12.1712 9.58499 12.1676 9.59933 12.164C9.72476 12.1264 9.85378 12.0941 9.98101 12.0637C10.0168 12.0547 10.0545 12.0475 10.0903 12.0386C10.2319 12.0081 10.3734 11.9812 10.5186 11.9615L79.4179 2.27799C79.5576 2.25827 79.6974 2.24573 79.8336 2.23498C79.8623 2.23319 79.8909 2.2314 79.9178 2.2296C80.0504 2.22244 80.183 2.21885 80.3138 2.22064C80.3371 2.22064 80.3604 2.22244 80.3837 2.22244C80.5056 2.22602 80.6274 2.2314 80.7457 2.24215C80.7636 2.24394 80.7797 2.24394 80.7976 2.24573C80.9267 2.25827 81.0521 2.27619 81.1775 2.2977C81.2044 2.30307 81.2313 2.30666 81.26 2.31203C81.3854 2.33533 81.509 2.36221 81.6309 2.39446C81.6434 2.39804 81.656 2.40163 81.6685 2.40521C81.7814 2.43567 81.8925 2.46972 82.0036 2.50735C82.0287 2.51631 82.0538 2.52348 82.0789 2.53244C82.1953 2.57365 82.31 2.61845 82.4211 2.66862C82.4426 2.67758 82.4641 2.68833 82.4838 2.69729C82.5985 2.74926 82.7096 2.80302 82.8207 2.86394L78.7369 0.640172C78.6724 0.606125 78.6079 0.572079 78.5416 0.539824C78.495 0.516529 78.4484 0.496818 78.4001 0.475315C78.3786 0.466356 78.3571 0.455604 78.3355 0.446644C78.2227 0.398263 78.1098 0.351673 77.9933 0.310459C77.9682 0.301499 77.9431 0.292539 77.918 0.285372C77.8087 0.247741 77.6976 0.213695 77.5847 0.183232C77.5722 0.179649 77.5596 0.176065 77.5471 0.172481C77.5417 0.170689 77.5381 0.168897 77.5328 0.168897C77.4163 0.138434 77.2962 0.113348 77.1762 0.0918445C77.1493 0.0864687 77.1224 0.081093 77.0938 0.0775091C76.9683 0.0560061 76.8411 0.0380869 76.7139 0.0255435C76.6959 0.0237516 76.6798 0.0237516 76.6619 0.0219597C76.5418 0.0112082 76.4218 0.00404048 76.2981 0.00224856C76.2748 0.00224856 76.2515 0.000456642 76.2282 0.000456642C76.0974 -0.00133528 75.9648 0.00224856 75.8322 0.00941624C75.8036 0.0112082 75.7749 0.0130001 75.748 0.014792C75.61 0.0237516 75.4721 0.0380869 75.3323 0.057798L6.4348 9.73774C6.29145 9.75745 6.14809 9.78433 6.00653 9.8148C5.9689 9.82196 5.93306 9.83092 5.89722 9.83988C5.76821 9.87035 5.64098 9.9026 5.51375 9.94023C5.50121 9.94381 5.48867 9.9474 5.47612 9.95098C5.33814 9.9922 5.20375 10.0406 5.06936 10.0908C5.03531 10.1033 5.00126 10.1176 4.96543 10.1302C4.84895 10.1768 4.73427 10.2251 4.61959 10.2771C4.60525 10.2843 4.58912 10.2897 4.57479 10.2968C4.56762 10.3004 4.56224 10.304 4.55508 10.3058C4.52282 10.3219 4.48878 10.338 4.45652 10.3542C4.3938 10.3846 4.33288 10.4151 4.27195 10.4473C4.23432 10.4671 4.19848 10.4886 4.16085 10.5083C4.1053 10.5387 4.04976 10.571 3.99421 10.6032C3.95658 10.6265 3.91895 10.648 3.88131 10.6713C3.82756 10.7036 3.77559 10.7358 3.72363 10.7699C3.686 10.795 3.64837 10.8201 3.61073 10.8451C3.58744 10.8613 3.56235 10.8774 3.53727 10.8935C3.52114 10.9043 3.50501 10.9168 3.48888 10.9294C3.37958 11.0064 3.27206 11.0853 3.16813 11.1677C3.15738 11.1767 3.14663 11.1838 3.13588 11.1928C3.02119 11.2824 2.91189 11.3774 2.80258 11.4741C2.79004 11.4849 2.77749 11.4956 2.76495 11.5064C2.74703 11.5225 2.7309 11.5386 2.71478 11.5548C2.63593 11.6264 2.55888 11.6999 2.48362 11.7752C2.45853 11.8002 2.43344 11.8235 2.41015 11.8486C2.31339 11.9472 2.21841 12.0475 2.12703 12.1515C2.12344 12.1568 2.11807 12.1604 2.11448 12.1658C2.10015 12.1819 2.0876 12.198 2.07327 12.2142C1.9998 12.3002 1.92633 12.3862 1.85645 12.474C1.82957 12.5063 1.80448 12.5403 1.77939 12.5726C1.7113 12.6604 1.64321 12.7518 1.5787 12.8431C1.56616 12.8611 1.55182 12.8772 1.53928 12.8951C1.53569 12.9005 1.53211 12.9059 1.52853 12.9112C1.4461 13.0313 1.36546 13.1531 1.28841 13.2768C1.2687 13.3072 1.25078 13.3377 1.23286 13.3682C1.17014 13.4703 1.11101 13.5742 1.05367 13.6782C1.04292 13.6979 1.03037 13.7176 1.01962 13.7391C1.01424 13.7481 1.01066 13.757 1.00528 13.766C0.924648 13.9165 0.849388 14.0688 0.779503 14.2247C0.765168 14.2552 0.752624 14.2856 0.738289 14.3161C0.668404 14.4738 0.602103 14.6351 0.541178 14.7963C0.537594 14.8053 0.53401 14.8107 0.532218 14.816C0.514299 14.8662 0.498172 14.9164 0.480253 14.9666C0.462333 15.0167 0.444414 15.0687 0.428287 15.1189C0.408576 15.178 0.392448 15.2371 0.374529 15.2963C0.360194 15.3482 0.342275 15.3984 0.329731 15.4504C0.313604 15.5113 0.299269 15.5722 0.283141 15.6332C0.270598 15.6851 0.256263 15.7353 0.243719 15.7873C0.229384 15.85 0.21684 15.9127 0.204297 15.9754C0.193545 16.0256 0.182794 16.0776 0.172042 16.1277C0.159499 16.1922 0.150539 16.2567 0.139788 16.3213C0.13262 16.3714 0.121869 16.4216 0.116493 16.47C0.107533 16.5381 0.100366 16.608 0.0914061 16.6761C0.0860303 16.7226 0.0788627 16.7692 0.0752788 16.8176C0.0681111 16.8947 0.0627354 16.9735 0.0591516 17.0506C0.0573596 17.09 0.0519839 17.1276 0.050192 17.167C0.0448162 17.2835 0.0412324 17.4018 0.0412324 17.5183L1.82228e-05 40.2434C-0.00535753 42.6893 1.1791 44.6748 2.96385 45.646L7.04764 47.868C5.26468 46.8968 4.08022 44.9131 4.0838 42.4654V42.0622C4.25941 42.2342 4.45652 42.3793 4.66976 42.4958H4.67155C4.67155 42.4958 4.67155 42.4958 4.66976 42.4958L8.75354 44.7178C8.7858 44.7357 8.81805 44.7518 8.85031 44.768C8.86285 44.7733 8.87539 44.7787 8.88614 44.7841C8.9399 44.8092 8.99366 44.8325 9.04921 44.854C9.07071 44.8629 9.09222 44.8719 9.11372 44.8791C9.19077 44.9059 9.26782 44.931 9.34846 44.9525C9.35025 44.9525 9.35204 44.9543 9.35384 44.9543C9.36459 44.9579 9.37713 44.9579 9.38788 44.9615C9.45418 44.9776 9.52048 44.992 9.58858 45.0027C9.61546 45.0063 9.64413 45.0099 9.67101 45.0135C9.72655 45.0206 9.7839 45.026 9.83945 45.0314C9.86991 45.0332 9.90037 45.035 9.92904 45.0368C9.98818 45.0385 10.0473 45.0385 10.1064 45.0368C10.1333 45.0368 10.1602 45.0368 10.1889 45.035C10.2749 45.0296 10.3627 45.0224 10.4523 45.0099L79.3516 35.3263C79.4268 35.3156 79.5021 35.3013 79.5756 35.2851C79.5988 35.2798 79.6239 35.2744 79.6472 35.2672C79.6974 35.2547 79.7476 35.2421 79.796 35.2278C79.8228 35.2206 79.8497 35.2117 79.8784 35.2027C79.9232 35.1884 79.9698 35.1722 80.0146 35.1561C80.0415 35.1454 80.0701 35.1364 80.097 35.1239C80.1418 35.1059 80.1866 35.0862 80.2314 35.0665C80.2475 35.0593 80.2654 35.0522 80.2834 35.045C80.2905 35.0414 80.2977 35.0378 80.3049 35.0343C80.3837 34.9966 80.4626 34.9554 80.5378 34.9124C80.5522 34.9052 80.5647 34.8963 80.579 34.8873C80.6435 34.8497 80.7063 34.8085 80.769 34.7673C80.7797 34.7601 80.7923 34.7529 80.803 34.7458C80.8138 34.7386 80.8227 34.7296 80.8335 34.7225C80.8747 34.6938 80.9141 34.6633 80.9535 34.6329C80.975 34.6167 80.9966 34.6006 81.0181 34.5827C81.0646 34.5451 81.1094 34.5074 81.1542 34.468C81.165 34.4573 81.1775 34.4483 81.1883 34.4393C81.1901 34.4376 81.1919 34.4358 81.1937 34.434C81.2492 34.3838 81.303 34.3336 81.3549 34.2817C81.3621 34.2745 81.3693 34.2655 81.3782 34.2566C81.423 34.2118 81.466 34.1652 81.5072 34.1186C81.509 34.115 81.5126 34.1132 81.5144 34.1096C81.5287 34.0917 81.5431 34.0738 81.5592 34.0577C81.5897 34.0218 81.6219 33.9842 81.6506 33.9484C81.6685 33.9251 81.6882 33.9 81.7061 33.8767C81.733 33.8408 81.7599 33.805 81.785 33.7692C81.7904 33.762 81.7975 33.753 81.8029 33.7459C81.8137 33.7297 81.8244 33.7118 81.837 33.6957C81.8638 33.6563 81.8907 33.6151 81.9176 33.5738C81.9337 33.547 81.9499 33.5219 81.966 33.495C81.9785 33.4753 81.9911 33.4556 82.0018 33.4359C82.0126 33.4179 82.0215 33.4 82.0305 33.3821C82.0412 33.3624 82.0538 33.3445 82.0645 33.3248C82.0735 33.3086 82.0807 33.2907 82.0896 33.2728C82.1147 33.2226 82.1398 33.1725 82.1631 33.1223C82.1792 33.0882 82.1953 33.0542 82.2097 33.0201C82.233 32.9664 82.2545 32.9126 82.276 32.8589C82.2849 32.8338 82.2957 32.8105 82.3046 32.7872C82.3082 32.78 82.31 32.7711 82.3118 32.7621C82.3459 32.6653 82.3781 32.5668 82.4068 32.4682C82.4104 32.4539 82.414 32.4378 82.4175 32.4234C82.4408 32.3374 82.4605 32.2514 82.4767 32.1636C82.482 32.1314 82.4874 32.0991 82.4928 32.0668C82.5053 31.9916 82.5161 31.9181 82.5233 31.8429C82.5268 31.8106 82.5304 31.7801 82.534 31.7479C82.543 31.644 82.5484 31.5382 82.5484 31.4343L82.5914 8.71097C82.5985 7.49068 82.0054 6.49795 81.113 6.01234ZM78.4699 29.2141C78.4699 29.3198 78.4646 29.4238 78.4556 29.5277C78.4538 29.5599 78.4484 29.5904 78.4449 29.6227C78.4359 29.6979 78.4269 29.7732 78.4144 29.8467C78.409 29.8789 78.4036 29.9112 78.3983 29.9434C78.3821 30.0312 78.3624 30.1172 78.3391 30.2015C78.3355 30.2158 78.332 30.2319 78.3284 30.2463C78.3015 30.3448 78.2692 30.4434 78.2334 30.5401C78.2209 30.5724 78.2083 30.6046 78.1958 30.6369C78.1743 30.6907 78.1528 30.7444 78.1295 30.7982C78.1151 30.8322 78.099 30.8663 78.0829 30.9003C78.0596 30.9505 78.0345 31.0007 78.0094 31.0508C77.9897 31.0885 77.97 31.1243 77.9503 31.1601C77.9288 31.1978 77.9073 31.2354 77.8858 31.273C77.8697 31.2999 77.8535 31.3268 77.8374 31.3519C77.8105 31.3931 77.7836 31.4343 77.7568 31.4737C77.7406 31.4988 77.7227 31.5239 77.7066 31.5472C77.6815 31.583 77.6546 31.6189 77.626 31.6547C77.608 31.678 77.5901 31.7031 77.5704 31.7264C77.5399 31.764 77.5095 31.7998 77.479 31.8357C77.4611 31.8554 77.445 31.8769 77.427 31.8966C77.3858 31.9432 77.341 31.9898 77.298 32.0346C77.2909 32.0418 77.2837 32.0507 77.2747 32.0597C77.2228 32.1116 77.169 32.1636 77.1135 32.2138C77.1009 32.2245 77.0866 32.2353 77.074 32.2478C77.0292 32.2873 76.9844 32.3267 76.9361 32.3643C76.9146 32.3804 76.8931 32.3983 76.8716 32.4145C76.8321 32.4449 76.7927 32.4754 76.7515 32.5041C76.73 32.5184 76.7085 32.5327 76.687 32.5489C76.6243 32.5901 76.5615 32.6313 76.497 32.6689C76.4827 32.6779 76.4702 32.6851 76.4558 32.694C76.3788 32.737 76.3017 32.7782 76.2229 32.8159C76.1996 32.8266 76.1745 32.8374 76.1512 32.8481C76.1064 32.8678 76.0616 32.8875 76.0168 32.9055C75.9899 32.9162 75.9631 32.927 75.9344 32.9359C75.8896 32.9521 75.843 32.9682 75.7982 32.9825C75.7713 32.9915 75.7444 33.0004 75.7158 33.0076C75.6656 33.0219 75.6154 33.0345 75.567 33.047C75.5437 33.0524 75.5204 33.0596 75.4954 33.0649C75.4219 33.0811 75.3466 33.0954 75.2714 33.1062L7.32897 42.6535C7.29313 42.4492 7.27342 42.236 7.27342 42.0156L7.31642 19.2923C7.31642 19.174 7.3218 19.0575 7.33255 18.941C7.33613 18.9016 7.3433 18.864 7.34868 18.8264C7.35764 18.7493 7.3666 18.6723 7.38093 18.5952C7.38989 18.5486 7.40244 18.5056 7.4114 18.459C7.42573 18.3909 7.44007 18.3228 7.45799 18.2565C7.47053 18.2081 7.48845 18.1616 7.50278 18.115C7.52249 18.0522 7.54041 17.9895 7.56371 17.9286C7.57267 17.9053 7.58342 17.882 7.59238 17.8587C7.62284 17.7817 7.6551 17.7046 7.68914 17.6294C7.70527 17.5953 7.72319 17.5613 7.73932 17.5254C7.77157 17.4591 7.80562 17.3946 7.84146 17.3319C7.85579 17.3068 7.87013 17.2799 7.88625 17.2548C7.93105 17.1796 7.97764 17.1061 8.02602 17.0344C8.03498 17.0201 8.04394 17.0076 8.0529 16.9932C8.11024 16.9108 8.17117 16.8302 8.23389 16.7531C8.25001 16.7334 8.26614 16.7137 8.28227 16.6958C8.33782 16.6295 8.39337 16.5667 8.4525 16.5058C8.46504 16.4933 8.47759 16.4789 8.49013 16.4646C8.56002 16.3929 8.63169 16.3266 8.70516 16.2603C8.72487 16.2424 8.74638 16.2263 8.76609 16.2084C8.82522 16.1582 8.88614 16.1098 8.94707 16.065C8.97037 16.0471 8.99366 16.031 9.01696 16.013C9.0725 15.9736 9.13164 15.936 9.18898 15.9002C9.22303 15.8787 9.25528 15.8571 9.28933 15.8356C9.35563 15.7962 9.42372 15.7604 9.49361 15.7263C9.51869 15.7138 9.54378 15.6995 9.56887 15.6869C9.65846 15.6457 9.74806 15.6081 9.84124 15.574C9.86632 15.5651 9.89141 15.5561 9.9165 15.5489C9.98818 15.5239 10.0599 15.5023 10.1333 15.4826C10.1602 15.4755 10.1889 15.4683 10.2157 15.4611C10.3125 15.4378 10.4093 15.4181 10.5078 15.4038L78.452 5.85466C78.4879 6.05893 78.5076 6.27217 78.5076 6.49258L78.4699 29.2141Z" fill="url(#paint0_linear)"/>
<path d="M79.4108 5.71854C81.1704 5.47125 82.5986 6.81519 82.595 8.71283L82.552 31.4362C82.5484 33.3338 81.1149 35.0791 79.3552 35.3264L10.4577 45.0099C8.69985 45.2572 7.27169 43.9133 7.27528 42.0157L7.31828 19.2923C7.32187 17.3947 8.7554 15.6494 10.5133 15.4021L79.4108 5.71854ZM33.1255 23.3116C33.233 23.0554 33.2832 22.7937 33.2832 22.5429C33.2832 21.9032 32.9517 21.3351 32.3819 21.1183C32.3514 21.1075 32.3209 21.0968 32.2905 21.0878C32.1095 21.0341 31.9231 21.0197 31.7368 21.0412C31.6561 21.052 31.6185 21.0592 31.5827 21.0663C31.029 21.1864 30.5111 21.6111 30.2531 22.2257L27.6422 28.4311L24.8289 22.9407C24.5458 22.4138 24.0279 22.1469 23.4635 22.2042C23.4438 22.206 23.4258 22.2078 23.4061 22.2114C22.7843 22.3081 22.2378 22.7633 21.9744 23.3887L19.3636 29.5941L16.5502 24.1036C16.5216 24.0481 16.4911 23.9943 16.4553 23.9459C16.1704 23.5266 15.7045 23.3223 15.2153 23.3636C15.1884 23.3654 15.1615 23.3689 15.1346 23.3725C14.873 23.4137 14.6293 23.5087 14.4017 23.6682C13.8516 24.0535 13.5362 24.7021 13.5362 25.3275C13.5362 25.5909 13.5936 25.8507 13.7136 26.0855L17.991 34.434C18.0304 34.5129 18.077 34.5846 18.1271 34.6527C18.4156 35.0307 18.8726 35.2207 19.36 35.1705C19.3779 35.1687 19.3976 35.1669 19.4155 35.1634C20.0319 35.0666 20.5803 34.6114 20.8437 33.9861L23.4545 27.7806L26.266 33.2711C26.5402 33.8033 27.0849 34.0846 27.6816 34.0022C28.3106 33.9036 28.8571 33.4485 29.1224 32.8249L33.1255 23.3116ZM76.1871 17.2262C76.2946 16.97 76.3448 16.7084 76.3448 16.4575C76.3448 15.8178 76.0133 15.2498 75.4435 15.0347C75.2248 14.9523 74.9955 14.929 74.7679 14.9595C74.7356 14.963 74.7159 14.9666 74.698 14.9702C74.1855 15.0616 73.6963 15.4164 73.4078 15.945C73.3738 16.0077 73.3415 16.0722 73.3147 16.1403L70.7038 22.3458L67.8905 16.8553C67.6414 16.3697 67.163 16.0973 66.6308 16.1117C66.5752 16.1135 66.5197 16.1188 66.4641 16.126C65.8459 16.2228 65.2994 16.6779 65.036 17.3033L62.4252 23.5087L59.6119 18.0183C59.5921 17.9788 59.5706 17.9412 59.5473 17.9036C59.2553 17.4395 58.7499 17.2191 58.2231 17.2836C57.9454 17.3266 57.716 17.4144 57.4974 17.5595C56.9132 17.9663 56.5978 18.615 56.5996 19.2404C56.5996 19.5038 56.657 19.7636 56.777 19.9983L61.0543 28.3469C61.0938 28.4257 61.1404 28.4974 61.1905 28.5655C61.479 28.9436 61.936 29.1335 62.4234 29.0834C62.4413 29.0816 62.461 29.0798 62.4789 29.0762C63.0953 28.9794 63.6437 28.5261 63.9071 27.8989L66.5179 21.6935L69.3294 27.1839C69.6036 27.7161 70.1483 27.9975 70.745 27.915C71.374 27.8183 71.9205 27.3631 72.1857 26.7377L76.1871 17.2262ZM54.6554 20.2528C54.7629 19.9965 54.8131 19.7349 54.8131 19.4841C54.8131 18.8443 54.4816 18.2763 53.9118 18.0613C53.6931 17.9788 53.4638 17.9556 53.2362 17.986C53.2039 17.9896 53.1842 17.9932 53.1663 17.9968C52.6538 18.0882 52.1646 18.443 51.8761 18.9716C51.8421 19.0343 51.8098 19.0988 51.783 19.1669L49.1721 25.3723L46.3588 19.8819C46.1097 19.3963 45.6313 19.1239 45.0991 19.1382C45.0436 19.14 44.988 19.1454 44.9325 19.1526C44.3142 19.2493 43.7677 19.7045 43.5043 20.3298L40.8935 26.5353L38.0802 21.0448C38.0604 21.0054 38.0389 20.9678 38.0156 20.9301C37.7236 20.466 37.2182 20.2456 36.6914 20.3101C36.4137 20.3531 36.1843 20.4409 35.9657 20.5861C35.3815 20.9929 35.0661 21.6415 35.0679 22.2669C35.0679 22.5303 35.1253 22.7901 35.2453 23.0249L39.5227 31.3734C39.5621 31.4523 39.6087 31.524 39.6588 31.5921C39.9473 31.9702 40.4043 32.1601 40.8917 32.1099C40.9096 32.1081 40.9293 32.1063 40.9472 32.1028C41.5636 32.006 42.112 31.5526 42.3754 30.9255L44.9862 24.72L47.7977 30.2105C48.0719 30.7427 48.6166 31.024 49.2134 30.9416C49.8423 30.8448 50.3888 30.3897 50.654 29.7643L54.6554 20.2528Z" fill="url(#paint1_linear)"/>
<path d="M54.8147 19.484C54.8147 19.7349 54.7646 19.9965 54.657 20.2528L50.6575 29.7643C50.3941 30.3896 49.8457 30.8448 49.2419 30.9398C48.6219 31.0276 48.0771 30.7462 47.803 30.2122L44.9914 24.7218L42.3806 30.9272C42.119 31.5526 41.5689 32.0077 40.965 32.1027C40.9345 32.1063 40.9166 32.1099 40.8969 32.1117C40.4095 32.1619 39.9526 31.9719 39.6641 31.5938C39.6121 31.5275 39.5673 31.454 39.5261 31.3752L35.2488 23.0267C35.1287 22.7937 35.0714 22.5339 35.0714 22.2687C35.0696 21.6433 35.385 20.9946 35.9369 20.6094C36.1877 20.4427 36.4171 20.3531 36.6447 20.3173C37.2217 20.2456 37.727 20.466 38.0191 20.9301C38.0424 20.9659 38.0639 21.0054 38.0836 21.0448L40.8969 26.5352L43.5077 20.3298C43.7693 19.7062 44.3177 19.2511 44.9233 19.1543C44.9914 19.1454 45.047 19.14 45.1007 19.1382C45.6329 19.1221 46.1114 19.3944 46.3605 19.8818L49.1738 25.3723L51.7846 19.1669C51.8133 19.0988 51.8437 19.0343 51.8778 18.9715C52.1663 18.4447 52.6555 18.0881 53.168 17.9967C53.1859 17.9932 53.2056 17.9914 53.2235 17.9878C53.4654 17.9555 53.6948 17.9788 53.9134 18.0612C54.4814 18.2763 54.8147 18.8443 54.8147 19.484ZM32.3817 21.1183C32.3512 21.1075 32.3208 21.0968 32.2903 21.0878C32.1093 21.034 31.923 21.0197 31.6936 21.0466C31.656 21.052 31.6201 21.0591 31.5825 21.0663C31.0288 21.1864 30.5109 21.611 30.2529 22.2257L27.6421 28.4311L24.8162 22.9156C24.5456 22.4138 24.0278 22.1468 23.4633 22.2042C23.4436 22.206 23.4257 22.2077 23.3916 22.2131C22.786 22.3081 22.2376 22.7632 21.976 23.3886L19.3652 29.594L16.5519 24.1036C16.5232 24.048 16.4928 23.9943 16.4587 23.9459C16.1738 23.5266 15.7079 23.3223 15.2187 23.3635C15.1918 23.3653 15.1649 23.3689 15.1148 23.3761C14.8747 23.4137 14.6327 23.5105 14.4052 23.6682C13.8551 24.0534 13.5397 24.7021 13.5397 25.3275C13.5397 25.5909 13.597 25.8507 13.7171 26.0855L17.9944 34.434C18.0338 34.5129 18.0804 34.5845 18.1324 34.6526C18.4209 35.0307 18.8778 35.2207 19.3652 35.1705C19.3831 35.1687 19.4028 35.1669 19.4333 35.1615C20.0372 35.0666 20.5873 34.6114 20.8489 33.986L23.4597 27.7806L26.2713 33.2711C26.5454 33.8033 27.0902 34.0846 27.7102 33.9986C28.314 33.9036 28.8624 33.4485 29.1258 32.8231L33.1253 23.3116C33.2329 23.0553 33.283 22.7937 33.283 22.5428C33.283 21.9031 32.9515 21.3351 32.3817 21.1183ZM75.4433 15.0347C75.2247 14.9523 74.9953 14.929 74.7534 14.9612C74.7355 14.963 74.7158 14.9666 74.6979 14.9702C74.1854 15.0616 73.6962 15.4164 73.4077 15.945C73.3736 16.0077 73.3414 16.0722 73.3145 16.1403L70.7037 22.3457L67.8904 16.8553C67.6413 16.3697 67.1628 16.0973 66.6306 16.1116C66.5751 16.1134 66.5196 16.1188 66.4533 16.1278C65.8476 16.2245 65.2993 16.6779 65.0376 17.3033L62.4268 23.5087L59.6135 18.0182C59.5938 17.9788 59.5723 17.9412 59.549 17.9036C59.2569 17.4394 58.7516 17.219 58.1746 17.2907C57.947 17.3266 57.7176 17.4144 57.4668 17.5828C56.9167 17.9681 56.6013 18.6167 56.6013 19.2421C56.6013 19.5055 56.6586 19.7654 56.7787 20.0001L61.056 28.3487C61.0954 28.4275 61.142 28.4992 61.194 28.5673C61.4825 28.9454 61.9394 29.1353 62.4268 29.0851C62.4447 29.0833 62.4644 29.0815 62.4949 29.0762C63.0988 28.9812 63.6489 28.5261 63.9105 27.9007L66.5213 21.6953L69.3329 27.1857C69.607 27.7179 70.1518 27.9992 70.7718 27.9132C71.3757 27.8182 71.924 27.3649 72.1874 26.7377L76.187 17.2262C76.2945 16.97 76.3446 16.7083 76.3446 16.4575C76.3446 15.8178 76.0131 15.2497 75.4433 15.0347Z" fill="url(#paint2_linear)"/>
<path d="M79.4179 2.27622C82.9354 1.78165 85.7918 4.46773 85.7846 8.26481L85.7416 30.9881C85.7344 34.7834 82.8673 38.2759 79.348 38.7704L10.4487 48.454C6.9312 48.9485 4.07488 46.2625 4.08204 42.4654L4.12505 19.7421C4.13222 15.945 6.99929 12.4543 10.5168 11.9597L79.4179 2.27622ZM82.5538 31.4361L82.5968 8.71279C82.6003 6.81515 81.1722 5.47121 79.4125 5.71849L10.5114 15.402C8.75358 15.6493 7.31825 17.3946 7.31646 19.2923L7.27345 42.0156C7.26987 43.9132 8.69803 45.2572 10.4559 45.0099L79.3552 35.3264C81.1166 35.0791 82.5502 33.3338 82.5538 31.4361Z" fill="url(#paint3_linear)"/>
<path d="M55.3524 38.8726C49.371 39.713 44.4969 45.6497 44.4844 52.1024C44.4719 58.5569 49.328 63.1227 55.3094 62.2823C61.289 61.4418 66.163 55.507 66.1756 49.0543C66.1863 42.6016 61.332 38.0322 55.3524 38.8726ZM60.9091 51.5164C60.0275 51.6401 59.3161 50.9699 59.3179 50.0202C59.3215 47.6477 57.5367 45.9686 55.3398 46.2786C54.4582 46.4023 53.7468 45.7321 53.7486 44.7806C53.7504 43.8309 54.4654 42.9582 55.347 42.8346C59.3036 42.2791 62.5165 45.3002 62.5075 49.5722C62.5039 50.5219 61.789 51.3928 60.9091 51.5164ZM55.3649 31.8017C45.7728 33.1492 37.9529 42.6697 37.9331 53.0234C37.9134 63.3771 45.7029 70.7043 55.295 69.355C59.6333 68.7457 63.6096 66.4628 66.6648 63.189L68.471 60.9903C71.1123 57.3276 72.7179 52.8155 72.7268 48.1333C72.7465 37.7813 64.9589 30.4542 55.3649 31.8017ZM55.3022 65.7281C47.5629 66.8158 41.2787 60.9043 41.2948 52.5521C41.3109 44.1982 47.6185 36.518 55.3578 35.4304C63.0953 34.3427 69.3795 40.2524 69.3634 48.6063C69.3491 56.9603 63.0415 64.6404 55.3022 65.7281Z" fill="url(#paint4_linear)"/>
<path d="M34.783 52.7115C34.7865 52.5861 34.7901 52.4607 34.7973 52.3334C34.8009 52.26 34.8063 52.1865 34.8098 52.1148C34.817 52.0002 34.8224 51.8837 34.8313 51.769C34.8367 51.6884 34.8439 51.6095 34.8511 51.5307C34.86 51.4232 34.8672 51.3156 34.8779 51.2063C34.8851 51.1239 34.8959 51.0397 34.9048 50.9573C34.9156 50.8533 34.9263 50.7494 34.9389 50.6455C34.9496 50.5612 34.9604 50.477 34.9711 50.3928C34.9837 50.2907 34.9962 50.1885 35.0105 50.0882C35.0231 50.0022 35.0356 49.9179 35.0482 49.8337C35.0625 49.7334 35.0786 49.633 35.0948 49.5327C35.1091 49.4467 35.1252 49.3607 35.1396 49.2764C35.1575 49.1779 35.1736 49.0793 35.1915 48.9808C35.2076 48.8948 35.2256 48.8087 35.2417 48.7227C35.2614 48.626 35.2793 48.5274 35.299 48.4306C35.317 48.3446 35.3367 48.2586 35.3546 48.1726C35.3761 48.0758 35.3958 47.9809 35.4191 47.8841C35.4388 47.7981 35.4603 47.7121 35.4818 47.6261C35.5051 47.5311 35.5266 47.4361 35.5517 47.3412C35.5732 47.2551 35.5965 47.1709 35.6198 47.0849C35.6449 46.9899 35.67 46.895 35.695 46.8C35.7183 46.7158 35.7434 46.6298 35.7685 46.5455C35.7954 46.4524 35.8223 46.3574 35.8509 46.2642C35.876 46.18 35.9029 46.094 35.9298 46.0098C35.9585 45.9166 35.9871 45.8234 36.0176 45.732C36.0445 45.6478 36.0731 45.5636 36.1018 45.4794C36.1323 45.388 36.1627 45.2948 36.195 45.2034C36.2237 45.1192 36.2541 45.035 36.2846 44.9525C36.3151 44.8701 36.3437 44.7877 36.3742 44.7052C36.4692 44.4472 36.5695 44.1892 36.6734 43.9347C36.6932 43.8845 36.7147 43.8344 36.7344 43.7842C36.8401 43.5262 36.9512 43.2699 37.0641 43.0155C37.0766 42.9868 37.0892 42.9599 37.1017 42.9312C37.2128 42.6858 37.3275 42.4421 37.4475 42.2001C37.4637 42.1679 37.478 42.1356 37.4941 42.1034C37.6178 41.8543 37.745 41.6088 37.874 41.3651C37.9027 41.3131 37.9296 41.2612 37.9582 41.2092C38.0658 41.0103 38.1769 40.8114 38.2897 40.6161C38.2951 40.6053 38.3005 40.5946 38.3077 40.5856C38.4259 40.3796 38.5478 40.1771 38.6714 39.9746C38.7055 39.9208 38.7377 39.8671 38.7718 39.8133C38.8775 39.6449 38.9832 39.4764 39.0925 39.3098C39.1158 39.2739 39.1391 39.2381 39.1624 39.2023C39.2914 39.0069 39.424 38.8134 39.5584 38.6199C39.5943 38.5697 39.6301 38.5195 39.6642 38.4694C39.7627 38.3296 39.8631 38.1916 39.9634 38.0554C40.001 38.0035 40.0405 37.9515 40.0781 37.8995C40.2125 37.7203 40.3487 37.5412 40.4866 37.3655C40.4902 37.3602 40.4956 37.3548 40.4992 37.3494C40.6336 37.1792 40.7716 37.0107 40.9095 36.8423C40.9507 36.7921 40.9938 36.742 41.035 36.6918C41.1443 36.561 41.2554 36.432 41.3683 36.3029C41.4077 36.2581 41.4471 36.2133 41.4865 36.1685C41.6353 36.0019 41.784 35.837 41.9363 35.674C41.9614 35.6471 41.9865 35.622 42.0116 35.5951C42.1424 35.4572 42.2732 35.321 42.4058 35.1848C42.4524 35.1382 42.499 35.0898 42.5456 35.0432C42.671 34.9178 42.7982 34.7924 42.9254 34.6705C42.9613 34.6365 42.9953 34.6024 43.0312 34.5684C43.1924 34.416 43.3537 34.2655 43.5186 34.1168C43.5544 34.0845 43.5902 34.0541 43.6261 34.0218C43.773 33.891 43.9218 33.762 44.0705 33.6348C44.1153 33.5971 44.1601 33.5595 44.2049 33.5219C44.3841 33.3714 44.5651 33.2244 44.746 33.0793C44.7747 33.056 44.8034 33.0345 44.8338 33.0112C44.9933 32.8857 45.1546 32.7621 45.3177 32.6403C45.366 32.6044 45.4144 32.5686 45.4628 32.5327C45.651 32.3948 45.8409 32.2568 46.0326 32.1242C46.0434 32.1152 46.0559 32.1081 46.0685 32.1009C46.3086 31.9342 46.5523 31.7748 46.7996 31.6171C46.8247 31.6009 46.8497 31.5848 46.8748 31.5687C47.1167 31.4164 47.3622 31.2694 47.6077 31.1243C47.6489 31.101 47.6884 31.0777 47.7296 31.0544C47.9715 30.9164 48.2152 30.782 48.4625 30.6512C48.5055 30.6279 48.5503 30.6064 48.5933 30.5831C48.8424 30.4541 49.0932 30.3287 49.3477 30.2086C49.3907 30.1889 49.4355 30.1674 49.4785 30.1477C49.6541 30.0671 49.8297 29.9882 50.0053 29.9112C50.0555 29.8897 50.1057 29.8682 50.154 29.8467C50.3655 29.7571 50.5787 29.671 50.792 29.5868C50.8332 29.5707 50.8744 29.5564 50.9156 29.5402C51.0984 29.4704 51.2812 29.4041 51.4657 29.3395C51.5195 29.3198 51.5732 29.3019 51.6288 29.284C51.8474 29.2105 52.066 29.1388 52.2864 29.0725C52.3205 29.0618 52.3527 29.0528 52.3868 29.0439C52.5803 28.9865 52.7738 28.931 52.9692 28.879C53.0265 28.8629 53.0838 28.8486 53.1412 28.8342C53.3652 28.7769 53.5909 28.7213 53.8167 28.6712C53.8364 28.6658 53.8579 28.6622 53.8777 28.6586C54.0873 28.6138 54.297 28.5708 54.5066 28.5314C54.5657 28.5206 54.6249 28.5099 54.684 28.4991C54.9134 28.4579 55.1445 28.4203 55.3757 28.388C55.6015 28.3558 55.8255 28.3307 56.0495 28.3074C56.0961 28.302 56.1426 28.2966 56.1874 28.2931C56.4043 28.2716 56.6211 28.2536 56.8361 28.2393C56.8737 28.2375 56.9114 28.2357 56.9508 28.2321C57.1515 28.2196 57.3522 28.2124 57.5529 28.207C57.5815 28.207 57.6102 28.2053 57.6371 28.2035C57.8521 28.1981 58.0654 28.1981 58.2768 28.2017C58.3234 28.2017 58.3682 28.2035 58.4148 28.2035C58.628 28.207 58.8395 28.2142 59.0509 28.2268C59.0724 28.2286 59.0921 28.2303 59.1136 28.2303C59.3108 28.2411 59.5079 28.2572 59.705 28.2751C59.7444 28.2787 59.7856 28.2823 59.825 28.2859C60.0293 28.3056 60.2336 28.3307 60.4361 28.3576C60.4773 28.3629 60.5185 28.3683 60.5597 28.3755C60.7586 28.4042 60.9557 28.4346 61.1528 28.4687C61.1654 28.4705 61.1761 28.4723 61.1887 28.474C61.393 28.5099 61.5954 28.5511 61.7961 28.5941C61.8391 28.6031 61.8822 28.612 61.9234 28.6228C62.1205 28.6676 62.3158 28.7142 62.5111 28.7643C62.5434 28.7733 62.5756 28.7823 62.6079 28.7912C62.7835 28.8378 62.9573 28.888 63.1311 28.9399C63.167 28.9507 63.2046 28.9614 63.2404 28.9722C63.4304 29.0313 63.6203 29.094 63.8085 29.1586C63.8497 29.1729 63.8891 29.1872 63.9303 29.2016C64.1059 29.2643 64.2815 29.3288 64.4536 29.3969C64.4715 29.4041 64.4912 29.4112 64.5109 29.4184C64.6973 29.4919 64.88 29.5707 65.0628 29.6495C65.1058 29.6675 65.147 29.6872 65.1882 29.7051C65.3692 29.7857 65.5484 29.8699 65.7258 29.9578C65.9337 30.0599 66.138 30.1656 66.3405 30.2767L62.2567 28.0547C62.0542 27.9436 61.8481 27.8379 61.642 27.7358C61.6385 27.734 61.6331 27.7322 61.6295 27.7286C61.4557 27.6426 61.2801 27.562 61.1027 27.4831C61.0615 27.4652 61.0185 27.4455 60.9772 27.4276C60.7945 27.3469 60.6117 27.2699 60.4253 27.1964C60.4074 27.1892 60.3877 27.1821 60.368 27.1749C60.1942 27.1068 60.0203 27.0423 59.843 26.9796C59.8017 26.9652 59.7623 26.9509 59.7211 26.9366C59.5329 26.8721 59.3448 26.8094 59.1531 26.7502C59.1172 26.7395 59.0814 26.7287 59.0455 26.718C58.8717 26.666 58.6979 26.6158 58.5223 26.5692C58.4901 26.5603 58.4578 26.5513 58.4255 26.5424C58.4094 26.5388 58.3933 26.5334 58.3772 26.5298C58.1998 26.4832 58.0188 26.442 57.8396 26.4008C57.7966 26.3918 57.7536 26.3829 57.7124 26.3721C57.5117 26.3291 57.3092 26.2879 57.1049 26.2521C57.0924 26.2503 57.0816 26.2485 57.0691 26.2467C56.872 26.2126 56.6748 26.1822 56.4759 26.1535C56.4347 26.1481 56.3935 26.141 56.3523 26.1356C56.1498 26.1087 55.9455 26.0854 55.7413 26.0639C55.7018 26.0603 55.6606 26.0567 55.6212 26.0532C55.4259 26.0352 55.2288 26.0191 55.0299 26.0084C55.0084 26.0066 54.9886 26.0048 54.9671 26.0048C54.7557 25.994 54.5443 25.9869 54.331 25.9815C54.2844 25.9797 54.2396 25.9797 54.193 25.9797C53.9798 25.9779 53.7666 25.9779 53.5533 25.9815C53.5246 25.9815 53.496 25.9833 53.4691 25.9851C53.2702 25.9904 53.0695 25.9994 52.867 26.0102C52.8294 26.0119 52.7918 26.0137 52.7523 26.0173C52.5373 26.0317 52.3205 26.0496 52.1037 26.0711C52.0571 26.0765 52.0105 26.08 51.9657 26.0854C51.7417 26.1087 51.5177 26.1356 51.2919 26.1661C51.0608 26.1983 50.8296 26.2359 50.6002 26.2772C50.5411 26.2879 50.4802 26.2987 50.421 26.3094C50.2114 26.3488 50.0017 26.39 49.7939 26.4348C49.7724 26.4402 49.7527 26.4438 49.7312 26.4474C49.5054 26.4976 49.2814 26.5531 49.0574 26.6104C49 26.6248 48.9427 26.6409 48.8836 26.657C48.69 26.709 48.4965 26.7628 48.303 26.8201C48.2689 26.8309 48.2349 26.8398 48.2009 26.8506C47.9804 26.9169 47.7618 26.9885 47.545 27.062C47.4913 27.0799 47.4357 27.0996 47.3819 27.1194C47.1974 27.1839 47.0146 27.2502 46.8336 27.32C46.7924 27.3362 46.7512 27.3505 46.7082 27.3666C46.4949 27.4491 46.2817 27.5369 46.0703 27.6265C46.0201 27.648 45.9699 27.6695 45.9197 27.691C45.7423 27.768 45.5667 27.8469 45.3929 27.9275C45.3625 27.9418 45.3302 27.9544 45.2997 27.9687C45.2872 27.9741 45.2746 27.9813 45.2621 27.9884C45.0094 28.1085 44.7586 28.2321 44.5095 28.3612C44.4665 28.3844 44.4217 28.406 44.3787 28.4292C44.1332 28.5583 43.8877 28.6927 43.6458 28.8324C43.6046 28.8557 43.5652 28.879 43.5239 28.9023C43.2767 29.0457 43.033 29.1926 42.791 29.3467C42.766 29.3628 42.7409 29.379 42.7158 29.3951C42.4703 29.551 42.2266 29.7123 41.9865 29.8789C41.9775 29.8843 41.9686 29.8897 41.9596 29.8968C41.956 29.8986 41.9524 29.9022 41.9488 29.904C41.7571 30.0366 41.5672 30.1728 41.379 30.3108C41.3306 30.3466 41.2823 30.3824 41.2339 30.4183C41.0708 30.5401 40.9095 30.6638 40.7501 30.7892C40.7214 30.8107 40.6927 30.834 40.664 30.8555C40.4813 31.0007 40.3003 31.1494 40.1211 31.2999C40.0763 31.3375 40.0315 31.3752 39.9867 31.4128C39.8362 31.54 39.6892 31.669 39.5423 31.8016C39.5172 31.8231 39.4921 31.8446 39.467 31.8661C39.4563 31.8751 39.4455 31.8859 39.4348 31.8948C39.2699 32.0435 39.1087 32.1941 38.9474 32.3464C38.9115 32.3804 38.8775 32.4145 38.8417 32.4485C38.7126 32.5722 38.5872 32.6958 38.46 32.823C38.4134 32.8696 38.3668 32.9162 38.3202 32.9646C38.1876 33.099 38.0568 33.237 37.926 33.3749C37.9009 33.4018 37.8758 33.4269 37.8507 33.4538C37.6984 33.6169 37.5497 33.7817 37.401 33.9484C37.3884 33.9627 37.3741 33.977 37.3615 33.9914C37.3347 34.0218 37.3096 34.0523 37.2827 34.0828C37.1698 34.2118 37.0587 34.3408 36.9494 34.4716C36.9082 34.5218 36.8652 34.5719 36.824 34.6221C36.6842 34.7906 36.5462 34.959 36.4118 35.131C36.4082 35.1364 36.4047 35.14 36.4011 35.1454C36.2631 35.321 36.1269 35.5002 35.9925 35.6794C35.9531 35.7313 35.9155 35.7833 35.8778 35.8352C35.7775 35.9732 35.6771 36.1112 35.5786 36.251C35.5553 36.2832 35.5302 36.3155 35.5069 36.3495C35.4944 36.3657 35.4836 36.3836 35.4729 36.4015C35.3385 36.5932 35.2059 36.7885 35.0768 36.9839C35.0535 37.0197 35.0302 37.0555 35.0087 37.0896C34.8994 37.2562 34.7919 37.4247 34.6862 37.5949C34.6522 37.6487 34.6199 37.7024 34.5876 37.7562C34.464 37.9587 34.3422 38.1612 34.2239 38.3672C34.2185 38.378 34.2113 38.3887 34.206 38.3977C34.0931 38.593 33.9838 38.7919 33.8745 38.9908C33.8601 39.0177 33.844 39.0446 33.8297 39.0715C33.8153 39.0965 33.8046 39.1216 33.7902 39.1467C33.6594 39.3904 33.5322 39.6359 33.4104 39.885C33.3942 39.9172 33.3799 39.9495 33.3638 39.9817C33.2455 40.2237 33.1308 40.4674 33.0179 40.7129C33.0054 40.7415 32.9928 40.7684 32.9803 40.7971C32.8656 41.0515 32.7563 41.3078 32.6506 41.5658C32.6309 41.616 32.6094 41.6662 32.5897 41.7163C32.4857 41.9726 32.3854 42.2288 32.2904 42.4886C32.285 42.5048 32.2779 42.5209 32.2725 42.537C32.2492 42.6033 32.2259 42.6678 32.2026 42.7341C32.1721 42.8184 32.1417 42.9044 32.113 42.9886C32.0808 43.08 32.0521 43.1696 32.0216 43.261C31.9929 43.3452 31.9643 43.4312 31.9374 43.5154C31.9069 43.6068 31.8801 43.6982 31.8514 43.7914C31.8245 43.8774 31.7976 43.9634 31.7725 44.0494C31.7457 44.1426 31.7188 44.234 31.6919 44.3272C31.6668 44.4132 31.6417 44.4992 31.6184 44.5852C31.5933 44.6784 31.5683 44.7733 31.5432 44.8665C31.5199 44.9525 31.4966 45.0385 31.4751 45.1246C31.4518 45.2195 31.4285 45.3145 31.4052 45.4095C31.3837 45.4955 31.3622 45.5815 31.3425 45.6693C31.321 45.7643 31.2995 45.8592 31.2798 45.956C31.2601 46.042 31.2403 46.1298 31.2224 46.2158C31.2027 46.3126 31.1848 46.4094 31.1651 46.5061C31.149 46.5921 31.131 46.6799 31.1149 46.766C31.097 46.8645 31.0809 46.9613 31.0629 47.0598C31.0486 47.1458 31.0325 47.2319 31.0181 47.3197C31.002 47.4182 30.9877 47.5186 30.9733 47.6171C30.9608 47.7031 30.9465 47.7891 30.9339 47.8752C30.9196 47.9773 30.907 48.0776 30.8945 48.1798C30.8837 48.264 30.8712 48.3482 30.8622 48.4342C30.8497 48.5364 30.8407 48.6385 30.83 48.7424C30.821 48.8267 30.8121 48.9109 30.8031 48.9951C30.7924 49.099 30.7852 49.2048 30.7762 49.3105C30.7691 49.3929 30.7619 49.4753 30.7565 49.5578C30.7494 49.6707 30.7422 49.7835 30.7368 49.8982C30.7332 49.9735 30.7279 50.047 30.7243 50.1222C30.7189 50.2477 30.7153 50.3731 30.7099 50.5003C30.7081 50.563 30.7046 50.6257 30.7028 50.6903C30.6974 50.8802 30.6956 51.0684 30.6956 51.2583C30.6813 59.1445 34.498 65.5435 40.2483 68.6722L44.3321 70.8941C38.5818 67.7655 34.765 61.3665 34.7794 53.4803C34.7794 53.2903 34.783 53.1022 34.7865 52.9122C34.7776 52.8388 34.7812 52.7743 34.783 52.7115Z" fill="url(#paint5_linear)"/>
<path d="M62.5057 49.5703C62.5039 50.5218 61.7889 51.3927 60.9073 51.5164C60.0257 51.64 59.3143 50.9698 59.3161 50.0201C59.3197 47.6476 57.5349 45.9686 55.338 46.2786C54.4564 46.4022 53.745 45.732 53.7468 44.7805C53.7486 43.8308 54.4636 42.9581 55.3452 42.8345C59.3018 42.2772 62.5147 45.3002 62.5057 49.5703ZM69.3652 48.6081C69.3491 56.9602 63.0415 64.6422 55.3022 65.7299C47.5629 66.8175 41.2786 60.906 41.2948 52.5539C41.3109 44.1999 47.6184 36.5198 55.3577 35.4321C63.097 34.3426 69.3795 40.2541 69.3652 48.6081ZM66.1756 49.056C66.1881 42.6016 61.332 38.034 55.3524 38.8744C49.3709 39.7148 44.4969 45.6514 44.4844 52.1041C44.4718 58.5586 49.3279 63.1244 55.3094 62.284C61.289 61.4436 66.163 55.5105 66.1756 49.056ZM85.7845 73.5605C85.7774 75.0281 85.2183 76.5136 84.2076 77.7447C83.1988 78.9739 81.8943 79.7588 80.5342 79.9541C79.1204 80.153 77.7532 79.7014 76.6708 78.6818L65.6362 68.3013C62.5917 70.6451 59.0563 72.2435 55.2897 72.7721C43.9522 74.3651 34.7453 65.7066 34.7686 53.4678C34.7919 41.2307 44.0346 29.9775 55.3721 28.3845C66.7096 26.7915 75.9146 35.45 75.8913 47.6888C75.8842 51.7565 74.8574 55.7112 73.0762 59.2431L84.1109 69.6237C85.1986 70.6469 85.7917 72.0446 85.7845 73.5605ZM72.7268 48.135C72.7465 37.7813 64.9571 30.4541 55.3649 31.8034C45.7728 33.151 37.9528 42.6714 37.9331 53.0251C37.9134 63.3789 45.7029 70.706 55.295 69.3567C59.6333 68.7474 63.6095 66.4645 66.6648 63.1907L68.471 60.992C71.1141 57.3293 72.7197 52.8173 72.7268 48.135Z" fill="url(#paint6_linear)"/>
<defs>
<linearGradient id="paint0_linear" x1="1.82228e-05" y1="23.9317" x2="82.8218" y2="23.9317" gradientUnits="userSpaceOnUse">
<stop stop-color="#0040A8"/>
<stop offset="1" stop-color="#005AFF"/>
</linearGradient>
<linearGradient id="paint1_linear" x1="7.27391" y1="25.3647" x2="82.5959" y2="25.3647" gradientUnits="userSpaceOnUse">
<stop stop-color="#ADDCFF"/>
<stop offset="0.5028" stop-color="#EAF6FF"/>
<stop offset="1" stop-color="#EAF6FF"/>
</linearGradient>
<linearGradient id="paint2_linear" x1="13.5407" y1="25.0626" x2="76.3452" y2="25.0626" gradientUnits="userSpaceOnUse">
<stop stop-color="#0085FF"/>
<stop offset="1" stop-color="#00C0FF"/>
</linearGradient>
<linearGradient id="paint3_linear" x1="4.08441" y1="25.3647" x2="85.7852" y2="25.3647" gradientUnits="userSpaceOnUse">
<stop stop-color="#0085FF"/>
<stop offset="1" stop-color="#00C0FF"/>
</linearGradient>
<linearGradient id="paint4_linear" x1="37.9334" y1="50.5796" x2="72.7277" y2="50.5796" gradientUnits="userSpaceOnUse">
<stop stop-color="#ADDCFF"/>
<stop offset="0.5028" stop-color="#EAF6FF"/>
<stop offset="1" stop-color="#EAF6FF"/>
</linearGradient>
<linearGradient id="paint5_linear" x1="30.684" y1="48.4298" x2="66.3382" y2="48.4298" gradientUnits="userSpaceOnUse">
<stop stop-color="#0040A8"/>
<stop offset="1" stop-color="#005AFF"/>
</linearGradient>
<linearGradient id="paint6_linear" x1="34.7684" y1="54.0985" x2="85.7852" y2="54.0985" gradientUnits="userSpaceOnUse">
<stop stop-color="#0085FF"/>
<stop offset="1" stop-color="#00C0FF"/>
</linearGradient>
</defs>
</svg>
