<svg width="20" height="20" viewBox="0 0 20 20" fill="none" xmlns="http://www.w3.org/2000/svg">
<path d="M14.6758 12.9102C15.6602 11.5664 16.25 9.91406 16.25 8.125C16.25 3.64453 12.6055 0 8.125 0C3.64453 0 0 3.64453 0 8.125C0 12.6055 3.64453 16.25 8.125 16.25C9.91406 16.25 11.5664 15.6602 12.9102 14.6758L18.2344 20L20 18.2344C20 18.2305 14.6758 12.9102 14.6758 12.9102ZM8.125 13.75C5.02344 13.75 2.5 11.2266 2.5 8.125C2.5 5.02344 5.02344 2.5 8.125 2.5C11.2266 2.5 13.75 5.02344 13.75 8.125C13.75 11.2266 11.2266 13.75 8.125 13.75Z" fill="#0085FF"/>
</svg>
