<svg width="114" height="35" viewBox="0 0 114 35" fill="none" xmlns="http://www.w3.org/2000/svg">
<path d="M23.8036 11.062C23.9304 11.062 24.0238 11.062 24.1195 11.062C25.1486 11.062 26.1777 11.0524 27.2069 11.0668C27.6113 11.0716 28.0182 11.1051 28.4179 11.1625C28.7505 11.2104 29.0593 11.3492 29.3273 11.5646C29.6791 11.8446 29.861 12.2036 29.8802 12.656C29.8922 12.9479 29.8275 13.2256 29.7653 13.5056C29.3441 15.3843 28.9205 17.2631 28.5016 19.1442C28.0158 21.3102 27.5347 23.4785 27.0513 25.6469C26.9699 26.0154 26.8431 26.3649 26.6133 26.6712C26.2711 27.1307 25.8092 27.3916 25.2515 27.4778C25.0242 27.5137 24.792 27.5256 24.5623 27.5256C18.287 27.528 12.0093 27.528 5.73407 27.5256C5.24105 27.5256 4.76717 27.4347 4.34595 27.1547C3.86968 26.8411 3.58248 26.3888 3.44846 25.8455C3.26657 25.0964 3.10143 24.3425 2.9315 23.5886C2.62277 22.234 2.32121 20.8818 2.01965 19.5296C1.56732 17.5024 1.11737 15.4753 0.665037 13.4481C0.602811 13.1753 0.552551 12.9025 0.564518 12.6225C0.581271 12.1797 0.772736 11.8279 1.11977 11.5598C1.4644 11.2942 1.86648 11.1625 2.29009 11.1147C2.61319 11.0788 2.94108 11.0692 3.26896 11.0668C4.28133 11.062 5.2937 11.0644 6.30847 11.0644C6.37308 11.0644 6.43531 11.062 6.49993 11.062C6.60045 11.062 6.64353 11.007 6.64592 10.9136C6.64831 10.8418 6.64831 10.77 6.64831 10.6982C6.64831 9.99699 6.65071 9.29575 6.64831 8.59451C6.62678 4.76999 9.1589 1.47679 12.6747 0.390226C13.6511 0.0886685 14.6539 -0.0549303 15.6711 0.0192624C18.7561 0.249021 21.1015 1.69937 22.6835 4.36073C23.2699 5.34678 23.593 6.42856 23.7366 7.56059C23.7772 7.87651 23.7868 8.19482 23.7892 8.51313C23.7964 9.26224 23.7892 10.0113 23.7892 10.7605C23.7892 10.849 23.7964 10.9352 23.8036 11.062ZM9.64953 11.062C9.77877 11.062 9.88168 11.062 9.98459 11.062C11.971 11.062 13.9551 11.062 15.9415 11.062C17.4733 11.062 19.0026 11.062 20.5343 11.062C20.7952 11.062 20.8071 11.05 20.8095 10.7964C20.8119 10.3512 20.8167 9.90365 20.8095 9.45849C20.8024 8.89367 20.8071 8.32645 20.7665 7.76403C20.7042 6.90722 20.4218 6.11503 19.9647 5.38747C18.5 3.06356 15.6663 2.13017 13.127 3.1545C11.0831 3.9778 9.69979 5.91399 9.63517 8.18046C9.60884 9.05641 9.62799 9.93476 9.62799 10.8107C9.62799 10.8801 9.63756 10.9495 9.64953 11.062ZM15.2116 14.5132C14.1585 14.5132 13.1055 14.5132 12.0524 14.5132C11.9495 14.5132 11.8442 14.5108 11.7437 14.5275C11.5211 14.5658 11.4158 14.6735 11.4134 14.8985C11.4038 15.3843 11.4038 15.8702 11.4134 16.356C11.4182 16.581 11.5139 16.6695 11.7365 16.6935C11.8083 16.7007 11.8801 16.6983 11.9519 16.6983C12.3755 16.6983 12.7967 16.6983 13.2203 16.6983C13.6152 16.6983 13.6152 16.6983 13.6152 17.0956C13.6152 18.9288 13.6152 20.7621 13.6176 22.5954C13.6176 22.7222 13.6344 22.8491 13.6464 22.9759C13.6631 23.1411 13.7636 23.232 13.924 23.2583C13.9934 23.2703 14.0652 23.2895 14.137 23.2918C14.7832 23.2942 15.4294 23.3038 16.0756 23.2894C16.5255 23.2799 16.6452 23.1363 16.65 22.6815C16.65 22.6098 16.65 22.538 16.65 22.4662C16.65 20.7119 16.65 18.9576 16.65 17.2056C16.65 17.141 16.65 17.0788 16.65 17.0142C16.6524 16.7102 16.6619 16.7007 16.9563 16.6983C17.1789 16.6959 17.4039 16.6983 17.6264 16.6983C17.9447 16.6983 18.2654 16.7031 18.5838 16.6959C18.8901 16.6887 18.9858 16.5954 18.9906 16.2914C18.9954 15.8534 18.993 15.4154 18.993 14.9751C18.993 14.9583 18.993 14.944 18.993 14.9272C18.9763 14.6544 18.8686 14.5419 18.5957 14.5132C18.5096 14.5036 18.421 14.506 18.3325 14.506C17.2842 14.5132 16.2479 14.5132 15.2116 14.5132Z" fill="#0085FF"/>
<path d="M40.2385 11.0404C42.2728 11.0404 44.3047 11.0404 46.3389 11.0428C46.5137 11.0428 46.6908 11.0548 46.8607 11.0859C47.1933 11.1457 47.3226 11.3061 47.3298 11.6459C47.3369 12.0121 47.3322 12.3783 47.3322 12.7468C47.3322 13.3045 47.3322 13.8621 47.3322 14.4198C47.3322 14.4844 47.3345 14.5466 47.3274 14.6112C47.3058 14.8673 47.2053 14.9774 46.9444 15.0181C46.82 15.0372 46.6908 15.0444 46.5639 15.0444C45.5348 15.0468 44.5057 15.0444 43.479 15.0468C43.3761 15.0468 43.2708 15.0468 43.1678 15.0636C42.9979 15.0899 42.9166 15.176 42.8998 15.3484C42.8902 15.4441 42.8926 15.5398 42.8926 15.6355C42.8926 19.2853 42.8926 22.9351 42.8926 26.5873C42.8926 26.7213 42.883 26.8578 42.8711 26.9918C42.8472 27.2527 42.6988 27.425 42.4523 27.4848C42.2536 27.5327 42.043 27.5638 41.8396 27.5638C40.6046 27.5686 39.3673 27.5638 38.1324 27.5566C37.9984 27.5566 37.8619 27.5327 37.7303 27.5039C37.5125 27.4585 37.3809 27.3197 37.3522 27.0971C37.3354 26.9702 37.3259 26.8434 37.3259 26.7166C37.3235 23.0428 37.3259 19.3691 37.3235 15.693C37.3235 15.5805 37.3259 15.4704 37.3139 15.3579C37.2947 15.1712 37.211 15.0851 37.0291 15.0612C36.9262 15.0468 36.8233 15.0468 36.718 15.0468C35.7702 15.0468 34.8201 15.0468 33.8724 15.0444C33.7288 15.0444 33.5852 15.0324 33.444 15.0061C33.2501 14.9678 33.1615 14.8601 33.1376 14.6615C33.1256 14.5586 33.1233 14.4557 33.1233 14.3503C33.1233 13.5055 33.1209 12.6607 33.1233 11.8158C33.1233 11.251 33.286 11.0787 33.8556 11.0476C33.9585 11.0428 34.0638 11.0428 34.1667 11.0428C36.189 11.0404 38.2138 11.0404 40.2385 11.0404Z" fill="#0085FF"/>
<path d="M70.4276 20.4486C70.4276 21.7553 70.4348 23.0621 70.4228 24.3688C70.418 24.9145 70.3055 25.4458 70.083 25.9484C69.6115 27.0063 68.7882 27.5735 67.6323 27.5855C65.6554 27.607 63.6762 27.5926 61.6993 27.5902C61.2494 27.5902 60.809 27.516 60.3878 27.3557C59.5023 27.0158 58.9686 26.3601 58.703 25.4674C58.5761 25.0366 58.5139 24.5938 58.5139 24.1463C58.5115 21.6357 58.5115 19.1251 58.5163 16.6145C58.5163 16.4182 58.5522 16.2148 58.6096 16.0281C58.7389 15.6093 59.0069 15.4226 59.4473 15.4202C60.0528 15.4154 60.6583 15.4178 61.2662 15.4178C61.673 15.4178 62.0799 15.4059 62.4867 15.4226C62.683 15.4298 62.8888 15.4585 63.0683 15.5327C63.4656 15.6955 63.6738 16.0018 63.6714 16.4446C63.6666 18.3257 63.669 20.2069 63.6714 22.088C63.6714 22.2938 63.6834 22.5044 63.7288 22.7031C63.8222 23.1195 64.0854 23.3349 64.4995 23.3636C64.9159 23.3924 65.2677 23.1841 65.3969 22.794C65.4592 22.6098 65.4879 22.4039 65.4879 22.2101C65.4951 20.3361 65.4903 18.4645 65.4951 16.5906C65.4951 16.3776 65.507 16.1598 65.5453 15.9492C65.6052 15.6332 65.799 15.4729 66.1221 15.4346C66.2178 15.4226 66.3136 15.4178 66.4093 15.4178C67.3594 15.4178 68.3072 15.4154 69.2573 15.4178C69.3841 15.4178 69.5134 15.425 69.6378 15.4418C70.0973 15.504 70.3845 15.8008 70.43 16.2627C70.4396 16.3656 70.4396 16.4685 70.4396 16.5738C70.4396 17.8662 70.4396 19.1562 70.4396 20.4486C70.4348 20.4486 70.43 20.4486 70.4276 20.4486Z" fill="#0085FF"/>
<path d="M107.328 20.9009C107.388 20.7597 107.426 20.6759 107.459 20.5898C108.022 19.1921 108.584 17.7968 109.142 16.3991C109.254 16.1215 109.408 15.8726 109.635 15.6763C109.829 15.5064 110.049 15.4178 110.312 15.4202C111.222 15.4226 112.131 15.4178 113.041 15.425C113.213 15.4274 113.392 15.4489 113.558 15.4968C113.78 15.559 113.861 15.717 113.811 15.9396C113.787 16.0473 113.747 16.1526 113.704 16.2555C111.597 21.2025 109.491 26.1518 107.388 31.0988C107.277 31.3597 107.134 31.5942 106.926 31.7881C106.713 31.9867 106.469 32.092 106.169 32.0896C105.363 32.0825 104.559 32.0896 103.752 32.0849C103.594 32.0849 103.434 32.0681 103.278 32.037C102.984 31.9772 102.879 31.8024 102.955 31.5129C102.986 31.398 103.029 31.2855 103.077 31.1754C103.594 29.95 104.109 28.7223 104.631 27.4993C104.698 27.3413 104.702 27.2097 104.638 27.0469C103.195 23.4905 101.756 19.9292 100.318 16.3704C100.27 16.2531 100.22 16.1334 100.196 16.009C100.138 15.7194 100.246 15.5447 100.528 15.4705C100.658 15.437 100.796 15.4226 100.93 15.4202C102.151 15.4154 103.372 15.4178 104.592 15.4178C104.882 15.4178 105.114 15.5423 105.317 15.7338C105.518 15.9252 105.648 16.1574 105.739 16.4182C106.229 17.8159 106.725 19.2112 107.218 20.6089C107.246 20.6903 107.277 20.7669 107.328 20.9009Z" fill="#0085FF"/>
<path d="M78.8282 14.9512C79.9267 14.999 80.7332 15.011 81.5206 15.1977C81.6283 15.224 81.7336 15.2671 81.8413 15.2886C82.0567 15.3341 82.1501 15.4753 82.1525 15.6811C82.1549 15.9588 82.1764 16.2412 82.1333 16.514C82.0735 16.9065 81.9658 17.2894 81.8772 17.6772C81.8653 17.7298 81.8389 17.7825 81.8174 17.8327C81.6164 18.309 81.5087 18.3664 80.9989 18.2994C80.4532 18.2276 79.9099 18.151 79.3619 18.0936C78.9813 18.0529 78.5984 18.0385 78.2179 18.1175C78.1174 18.1391 78.0144 18.1726 77.9283 18.2228C77.6961 18.364 77.6698 18.6273 77.878 18.7972C78.012 18.9073 78.1628 19.003 78.3184 19.082C78.7157 19.2831 79.1225 19.4674 79.5246 19.6636C80.3144 20.0537 81.0683 20.4965 81.6906 21.1331C82.5258 21.9851 82.8992 23.0047 82.8298 24.1941C82.8034 24.6441 82.7316 25.0821 82.5665 25.5009C82.2649 26.2691 81.7288 26.8268 81.0037 27.2073C80.403 27.5232 79.7568 27.6908 79.089 27.7817C77.969 27.9349 76.8465 27.899 75.7241 27.7961C74.817 27.7147 73.9195 27.5807 73.0388 27.3533C72.9071 27.3198 72.7803 27.2719 72.6487 27.236C72.4859 27.193 72.3998 27.0948 72.3686 26.9225C72.2753 26.4175 72.2394 25.9101 72.2514 25.4004C72.2586 25.1156 72.2992 24.8284 72.3304 24.5436C72.3375 24.4813 72.3567 24.4191 72.3734 24.3569C72.4787 24.0003 72.5649 23.9476 72.9263 24.0434C74.0846 24.3545 75.2669 24.4287 76.4588 24.3784C76.6479 24.3712 76.8393 24.3282 77.0236 24.2827C77.1289 24.2564 77.2342 24.2013 77.3204 24.1343C77.5238 23.974 77.5382 23.7011 77.3419 23.5336C77.2031 23.4163 77.0428 23.3206 76.88 23.2392C76.5952 23.098 76.2961 22.9855 76.0065 22.8491C75.5446 22.6313 75.0826 22.4183 74.6327 22.179C74.245 21.9731 73.8956 21.7075 73.5797 21.3964C72.8664 20.6927 72.529 19.8383 72.517 18.8427C72.5075 18.0338 72.7516 17.3229 73.2901 16.7174C73.6682 16.2938 74.1301 15.9851 74.6375 15.741C75.4225 15.3652 76.253 15.1474 77.1146 15.0589C77.7823 14.9966 78.4524 14.9751 78.8282 14.9512Z" fill="#0085FF"/>
<path d="M85.2255 18.7182C84.991 18.7182 84.7875 18.7182 84.5817 18.7182C84.0312 18.7158 83.8302 18.5268 83.8182 17.9715C83.8063 17.3732 83.8135 16.7749 83.8159 16.1789C83.8159 16.0928 83.8302 16.0042 83.8518 15.9204C83.9068 15.6811 84.0552 15.5255 84.2993 15.4801C84.4166 15.4585 84.5362 15.4466 84.6535 15.4442C84.9168 15.4394 85.1776 15.4418 85.4672 15.4418C85.472 15.3508 85.4792 15.2742 85.4792 15.1977C85.4792 14.774 85.4864 14.3528 85.4768 13.9292C85.4696 13.5606 85.6419 13.3117 85.9459 13.1298C86.2283 12.9623 86.5442 12.9168 86.8577 12.8642C87.6116 12.7373 88.3655 12.6105 89.1218 12.4932C89.3013 12.4645 89.488 12.4573 89.6675 12.4693C89.902 12.486 90.0073 12.5961 90.0384 12.8307C90.06 12.9886 90.0672 13.149 90.0696 13.3069C90.0719 13.9196 90.072 14.5347 90.072 15.1474C90.072 15.2336 90.072 15.3197 90.072 15.4202C90.1533 15.4274 90.2132 15.4394 90.2754 15.4394C90.6655 15.4418 91.058 15.4394 91.4481 15.4418C91.8047 15.4442 92.0201 15.5926 92.123 15.9324C92.1709 16.0904 92.1996 16.2603 92.202 16.4254C92.2116 16.9998 92.2044 17.5742 92.2044 18.1462C92.2044 18.1941 92.1996 18.242 92.1948 18.2898C92.1637 18.6297 92.0177 18.7757 91.6731 18.7828C91.2901 18.79 90.9072 18.7852 90.5243 18.7852C90.4381 18.7852 90.3496 18.7852 90.2467 18.7852C90.2395 18.857 90.2251 18.9193 90.2251 18.9791C90.2251 20.5347 90.2227 22.088 90.2251 23.6437C90.2251 23.9883 90.3735 24.1798 90.7157 24.2444C90.9 24.2803 91.0963 24.2899 91.2854 24.2779C91.4385 24.2683 91.5127 24.3281 91.5534 24.455C91.6013 24.6058 91.6539 24.7589 91.685 24.9145C91.8334 25.6181 91.9196 26.3289 91.9172 27.0493C91.9172 27.09 91.9148 27.1283 91.9124 27.169C91.898 27.4442 91.8909 27.4753 91.63 27.5328C91.125 27.6429 90.6176 27.7506 90.1055 27.82C89.488 27.9038 88.8657 27.9205 88.2459 27.8343C87.4609 27.7266 86.7453 27.4682 86.1661 26.9033C85.618 26.3696 85.3236 25.7067 85.2518 24.9528C85.2135 24.5411 85.2111 24.1247 85.2111 23.7107C85.2088 22.1 85.2135 20.4893 85.2159 18.881C85.2255 18.8379 85.2255 18.7996 85.2255 18.7182Z" fill="#0085FF"/>
<path d="M94.0162 19.2207C94.0162 16.7101 94.0162 14.1996 94.0162 11.6866C94.0162 11.6316 94.0162 11.5741 94.0162 11.5191C94.021 11.0165 94.2436 10.7939 94.7534 10.7939C95.8304 10.7915 96.9074 10.7891 97.9844 10.7963C98.1734 10.7963 98.3673 10.8202 98.5516 10.8609C98.7933 10.9136 98.9369 11.0739 98.9561 11.33C98.9633 11.4329 98.9704 11.5358 98.9704 11.6411C98.9704 16.6383 98.9704 21.638 98.9704 26.6352C98.9704 26.7692 98.9656 26.9056 98.9465 27.0396C98.9082 27.3221 98.7526 27.4848 98.4726 27.5351C98.341 27.559 98.2022 27.5638 98.0681 27.5638C97.0151 27.5662 95.962 27.5662 94.9089 27.5638C94.7653 27.5638 94.6217 27.5566 94.4781 27.5422C94.1837 27.5135 94.0665 27.4034 94.033 27.1091C94.0138 26.9511 94.0162 26.7907 94.0162 26.6304C94.0162 24.1629 94.0162 21.693 94.0162 19.2207Z" fill="#0085FF"/>
<path d="M48.1366 22.0929C48.1366 20.8029 48.1318 19.5105 48.1414 18.2205C48.1438 17.9117 48.1677 17.5982 48.2227 17.2943C48.3496 16.6146 48.7373 16.1239 49.3595 15.8176C49.8549 15.5759 50.3863 15.4706 50.9295 15.4442C51.4632 15.4179 51.9969 15.4131 52.5306 15.4083C53.8134 15.4011 55.0986 15.4011 56.3814 15.3964C56.4365 15.3964 56.4939 15.3964 56.549 15.3964C56.9079 15.4035 57.0228 15.5184 57.0228 15.8702C57.0228 16.6911 57.0228 17.5121 57.0228 18.333C57.0228 18.3569 57.0228 18.3808 57.0228 18.4048C57.0109 18.7326 56.8481 18.9074 56.5226 18.9217C56.3072 18.9313 56.0918 18.9193 55.8764 18.9337C55.527 18.9576 55.1776 18.9887 54.8306 19.0342C54.5123 19.0773 54.2203 19.2065 53.9379 19.3621C53.3994 19.6565 53.1337 20.1136 53.1026 20.7191C53.0954 20.8459 53.0954 20.9752 53.0954 21.102C53.0954 22.9042 53.0954 24.704 53.0931 26.5061C53.0931 26.6808 53.0787 26.858 53.0452 27.0279C52.9854 27.339 52.7891 27.5089 52.4732 27.5496C52.3703 27.5616 52.2674 27.5664 52.1621 27.5664C51.2215 27.5688 50.2809 27.5712 49.3404 27.564C49.1585 27.564 48.9718 27.5448 48.7971 27.5018C48.4333 27.4132 48.2299 27.1619 48.1701 26.7981C48.1438 26.6426 48.1366 26.4798 48.1366 26.3219C48.1366 24.9146 48.1366 23.5049 48.1366 22.0929Z" fill="#0085FF"/>
<path d="M17.6431 31.6254C17.6 29.8424 19.115 28.2723 20.9985 28.2652C22.8438 28.258 24.3827 29.7921 24.3755 31.6374C24.3683 33.5448 22.7792 35.012 20.9866 35C19.1629 34.988 17.6024 33.4707 17.6431 31.6254Z" fill="#0085FF"/>
<path d="M9.42222 28.2724C11.2531 28.2317 12.8016 29.7778 12.7992 31.635C12.7968 33.5018 11.2364 34.9952 9.43898 35C7.63442 35.0048 6.05962 33.5089 6.06201 31.6278C6.06441 29.7562 7.62485 28.2365 9.42222 28.2724Z" fill="#0085FF"/>
</svg>
