<svg width="26" height="25" viewBox="0 0 26 25" fill="none" xmlns="http://www.w3.org/2000/svg">
<g opacity="0.5">
<path d="M7.84745 2.60743C9.85951 2.83379 11.2763 3.67215 12.1231 4.71171C12.2908 4.92131 12.5255 5.04706 12.7602 5.08059C13.0034 5.03868 13.2297 4.92131 13.3974 4.71171C14.2441 3.67215 15.6526 2.83379 17.673 2.60743C23.6841 1.91997 27.1968 8.61009 23.5667 15.1242C20.5486 20.5148 12.7938 24.0275 12.7602 24.0443C12.7267 24.0275 4.97187 20.5148 1.96216 15.1242C-1.67633 8.61009 1.8364 1.91997 7.84745 2.60743Z" fill="url(#paint0_radial_2501_1791)"/>
<path d="M7.84745 2.60743C9.85951 2.83379 11.2763 3.67215 12.1231 4.71171C12.2908 4.92131 12.5255 5.04706 12.7602 5.08059C13.0034 5.03868 13.2297 4.92131 13.3974 4.71171C14.2441 3.67215 15.6526 2.83379 17.673 2.60743C23.6841 1.91997 27.1968 8.61009 23.5667 15.1242C20.5486 20.5148 12.7938 24.0275 12.7602 24.0443C12.7267 24.0275 4.97187 20.5148 1.96216 15.1242C-1.67633 8.61009 1.8364 1.91997 7.84745 2.60743Z" fill="url(#paint1_radial_2501_1791)"/>
<path d="M19.2666 3.21951C16.609 2.79194 15.1 3.86504 14.27 5.0136C14.1694 5.17289 13.1969 6.38013 14.6221 7.1095C15.5862 7.59575 19.8535 2.75002 23.3494 6.38013C22.5111 4.72017 21.1194 3.52132 19.2666 3.21951Z" fill="url(#paint2_radial_2501_1791)"/>
<path d="M7.53503 7.45286C7.56856 7.46124 11.9532 4.7198 9.77345 3.73054C9.22851 3.47903 8.58298 3.31974 7.86199 3.22752C3.52766 2.71612 0.643704 6.59773 1.38984 11.2422C1.5659 12.3657 1.65812 12.5249 2.11083 10.7057C2.54678 8.93676 3.82109 6.93307 7.53503 7.45286Z" fill="url(#paint3_radial_2501_1791)"/>
</g>
<defs>
<radialGradient id="paint0_radial_2501_1791" cx="0" cy="0" r="1" gradientUnits="userSpaceOnUse" gradientTransform="translate(8.14605 9.34611) rotate(180) scale(18.7372 18.7372)">
<stop stop-color="#FF3730"/>
<stop offset="0.4016" stop-color="#F10000"/>
<stop offset="0.8188" stop-color="#820909"/>
<stop offset="1" stop-color="#C80303"/>
</radialGradient>
<radialGradient id="paint1_radial_2501_1791" cx="0" cy="0" r="1" gradientUnits="userSpaceOnUse" gradientTransform="translate(8.14605 9.34611) rotate(180) scale(18.7372 18.7372)">
<stop stop-color="#FF3730"/>
<stop offset="0.4016" stop-color="#F10000"/>
<stop offset="1" stop-color="#C80303"/>
</radialGradient>
<radialGradient id="paint2_radial_2501_1791" cx="0" cy="0" r="1" gradientUnits="userSpaceOnUse" gradientTransform="translate(14.0451 0.623148) rotate(-1.31821) scale(7.26916 8.40308)">
<stop offset="0.1678" stop-color="white"/>
<stop offset="1" stop-color="white" stop-opacity="0"/>
</radialGradient>
<radialGradient id="paint3_radial_2501_1791" cx="0" cy="0" r="1" gradientUnits="userSpaceOnUse" gradientTransform="translate(4.02116 2.49932) rotate(-1.31797) scale(7.36229)">
<stop offset="0.1678" stop-color="white"/>
<stop offset="1" stop-color="white" stop-opacity="0"/>
</radialGradient>
</defs>
</svg>
