<svg width="77" height="77" viewBox="0 0 77 77" fill="none" xmlns="http://www.w3.org/2000/svg">
<g clip-path="url(#clip0_2476_8042)">
<path d="M38.4511 72.0957C29.5279 72.0957 20.9703 68.551 14.6607 62.2414C8.35108 55.9318 4.80638 47.3742 4.80638 38.4511C4.80638 29.5279 8.35108 20.9703 14.6607 14.6607C20.9703 8.35108 29.5279 4.80638 38.4511 4.80638C47.3742 4.80638 55.9318 8.35108 62.2414 14.6607C68.551 20.9703 72.0957 29.5279 72.0957 38.4511C72.0957 47.3742 68.551 55.9318 62.2414 62.2414C55.9318 68.551 47.3742 72.0957 38.4511 72.0957ZM38.4511 76.9021C48.6489 76.9021 58.4291 72.851 65.6401 65.6401C72.851 58.4291 76.9021 48.6489 76.9021 38.4511C76.9021 28.2532 72.851 18.473 65.6401 11.2621C58.4291 4.05108 48.6489 0 38.4511 0C28.2532 0 18.473 4.05108 11.2621 11.2621C4.05108 18.473 0 28.2532 0 38.4511C0 48.6489 4.05108 58.4291 11.2621 65.6401C18.473 72.851 28.2532 76.9021 38.4511 76.9021Z" fill="white"/>
<path d="M30.1463 24.2959C30.5394 24.0935 30.9807 24.0035 31.4216 24.0357C31.8626 24.0679 32.2861 24.2212 32.6456 24.4786L49.4679 36.4945C49.7795 36.7168 50.0334 37.0103 50.2086 37.3506C50.3838 37.6908 50.4752 38.068 50.4752 38.4507C50.4752 38.8334 50.3838 39.2106 50.2086 39.5509C50.0334 39.8911 49.7795 40.1846 49.4679 40.4069L32.6456 52.4229C32.2862 52.6801 31.8629 52.8332 31.4222 52.8654C30.9815 52.8976 30.5404 52.8077 30.1474 52.6055C29.7545 52.4034 29.4249 52.0967 29.1949 51.7194C28.9649 51.342 28.8434 50.9086 28.8438 50.4667V26.4348C28.8433 25.993 28.9646 25.5596 29.1944 25.1823C29.4242 24.805 29.7535 24.4983 30.1463 24.2959Z" fill="white"/>
</g>
<defs>
<clipPath id="clip0_2476_8042">
<rect width="76.9021" height="76.9021" fill="white"/>
</clipPath>
</defs>
</svg>
