<svg width="193" height="60" viewBox="0 0 193 60" fill="none" xmlns="http://www.w3.org/2000/svg">
<path d="M33.16 40.12C34.92 37.16 35.08 32.04 33.4 29.48C31.96 27.16 30.04 25.56 27.64 24.84C25.08 24.12 22.2 24.12 19.48 24.44C21.96 22.36 24.52 19.32 25.48 17.08C26.6 14.28 27.24 10.92 25.72 7.88C24.6 5.64 23 4.2 20.92 3.4C17.8 2.12 12.2 2.68 8.92 3.64L7.4 4.36C5.88 5.08 4.2 6.28 3.96 8.2C3.96 8.68 4.28 9.56 5 9.24L6.76 7.64C7.24 7.32 7.72 7 8.2 6.76C5 13.72 3.24 22.2 2.6 30.44C1.96 39 2.6 47.96 4.12 56.04C4.36 57.08 5.4 57.32 6.12 57.4C11.56 56.36 17.64 54.52 22.28 51.4C26.52 48.6 30.6 44.28 33.16 40.12ZM30.84 30.36C32.04 32.12 32.28 35.08 31.4 37.08C29.48 41.64 25.08 46.36 20.44 49.4C16.52 52.04 11.16 53.64 6.68 54.76C5.32 47.16 4.84 38.92 5.4 31.08C6.04 22.28 7.88 13.32 11.32 5.72C13.72 5.4 18.12 5.16 20.2 6.04C22.04 6.84 23.16 8.2 23.72 10.2C24.28 12.44 23.72 15 22.68 17C21.24 19.56 18.6 22.28 16.2 24.2C15.24 25 13.96 25.8 12.76 26.44C11.48 27.16 10.28 27.8 9.08 28.6C8.28 29.56 9.48 31.72 11 30.6C12.52 29.4 14.76 28.44 15.96 28.04C18.84 27.08 21.96 26.52 24.84 27C27.08 27.32 29.56 28.44 30.84 30.36ZM63.6556 28.04C64.1356 28.04 64.7756 27.56 64.5356 26.76C63.4956 26.28 62.2156 26.44 61.3356 26.6C59.2556 27 58.2956 27.4 56.2956 28.12C54.4556 28.84 51.5756 30.52 50.1356 31.8C48.4556 33.32 46.4556 35.24 45.0156 37.56C44.9356 34.36 45.2556 31.4 46.2956 29.08C46.2956 28.76 46.4556 28.6 46.6156 28.28C47.0956 27.48 47.8956 26.84 47.8956 25.72C47.4156 25.08 46.7756 25 46.2156 25C45.1756 25.4 44.6156 26.04 44.2156 26.84C43.8156 27.56 43.4956 28.44 43.0956 29.16C42.1356 32.6 41.8956 36.04 42.2956 39.4C42.8556 44.84 44.7756 50.04 46.6156 55.24L47.5756 56.28C48.0556 56.76 48.8556 56.52 49.0956 55.8C48.4556 53.48 47.6556 51.32 47.0156 49.08C46.3756 46.92 45.8156 44.68 45.5756 42.28C46.6156 39.4 48.4556 36.92 50.6156 34.84C52.7756 32.76 54.7756 31 57.0956 30.04C59.4956 29 61.2556 28.52 63.6556 28.04ZM95 55.48C95.72 55.64 97 55.8 96.92 54.76C93.64 51.56 92.84 48.28 91.48 44.04C90.68 41.4 90.04 38.84 89.72 35.96C89.48 35.24 89.32 34.76 89 34.2C88.84 32.84 88.84 31.16 88.04 30.04C87.32 28.12 85.96 26.44 84.04 25.56C83.24 25.16 82.44 25.16 81.64 25.4C80.92 25.64 80.2 26.04 79.48 26.44C74.28 30.84 70.92 36.44 69.32 42.52C68.68 44.84 68.2 47.96 68.52 50.68C68.84 52.84 69.72 54.76 71.72 55.96C73.48 57.08 75.96 56.6 77.56 55.32C82.6 51.32 85.48 45.72 87.64 40.28C88.04 42.04 88.44 43.8 89 45.48C90.36 49.32 91.48 52.92 95 55.48ZM85.88 30.92C86.36 31.8 86.92 33.24 87.16 34.04C86.6 34.84 86.52 35.8 86.36 36.68C84.28 42.92 81 49 75.32 53.4C74.36 53.72 73.08 53.56 72.36 52.84C71.72 51.96 71.4 50.92 71.32 49.72C71.24 48.52 71.4 47.24 71.48 46.04C72.2 42.44 73.4 39 75.16 35.8C76.6 33.32 78.84 30.28 81.32 28.6C81.96 28.2 82.6 27.96 83.4 28.2C84.44 28.76 85.24 29.8 85.88 30.92ZM124.76 56.28C128.04 53.48 130.36 50.12 132.04 46.44C132.12 46.12 131.56 45.4 131.16 45.8L128.2 49.64C127.24 50.68 126.28 51.72 125.16 52.52C125.4 49.32 125.56 46.04 125.48 42.84C125.4 39.48 125.64 35.88 125.16 32.52C124.84 30.44 124.28 28.52 123.24 26.76C122.36 26.04 121.48 25.56 120.36 25.48C119.16 25.32 118.28 25.96 117.48 26.44C114.84 28.92 112.92 31.8 111.24 34.76C109.56 37.8 108.2 41.16 107 44.44C106.44 38.84 106.12 33.16 105.4 27.56L105 26.76C104.6 25.88 104.04 25.08 103 24.92C102.28 25.08 102.12 25.96 102.2 26.36C103.08 28.44 103.24 30.76 103.4 33C103.64 37.08 104.36 44.04 104.52 49.32C104.52 50.84 104.6 53.64 104.6 55.08C104.92 56.2 106.52 56.04 106.84 55.16C107.4 51.32 108.2 47.48 109.48 43.88C111 39.4 113 35.16 115.96 31.4C116.76 30.44 117.64 29.08 118.68 28.44C119.56 27.96 120.44 27.88 121.16 28.6C121.48 28.84 121.64 29.24 121.8 29.64C121.96 30.04 122.04 30.44 122.12 30.92C122.84 37.88 123 45.4 122.52 52.36C122.6 52.6 122.6 52.84 122.6 53.08C122.52 53.8 122.36 54.68 122.52 55.4C122.76 56.12 123.88 57 124.76 56.28ZM160.572 49.88C160.892 50.28 161.772 50.76 162.652 50.28C162.572 49.88 162.412 49.56 162.332 49.32C162.012 48.52 161.532 47.8 161.372 46.92C159.852 39.8 159.932 32.36 160.172 25C160.412 18.04 161.772 11.48 162.652 4.68C162.732 3.88 161.292 2.52 160.412 3.88C159.692 6.2 159.292 8.6 158.972 11C158.652 13.4 158.412 15.88 158.012 18.36C157.692 20.84 157.692 23.4 157.532 25.88C157.452 27.64 157.132 29.4 156.572 30.92C156.332 29.96 156.012 29.08 155.372 28.28C154.172 26.84 152.252 25.8 150.332 25.72C146.972 25.48 144.252 28.12 142.572 30.84C140.332 34.36 138.492 38.6 137.852 43C137.292 46.44 137.452 49.96 138.652 53.48C139.612 55.08 141.212 56.2 142.972 56.36C145.532 56.6 147.692 54.68 149.132 52.6C152.892 47.16 155.372 41.16 157.452 35C157.772 38.04 157.692 41.08 158.172 43.96C158.572 46.12 159.132 48.12 160.572 49.88ZM153.932 35C153.932 35.32 154.172 35.96 154.572 36.12C152.572 41.64 150.252 47.08 146.492 51.72C145.372 53.08 144.092 53.96 142.572 53.48C141.612 53 141.052 52.2 140.732 51.16C140.412 50.28 140.252 49.16 140.252 48.04C140.252 46.92 140.332 45.8 140.332 44.76C141.132 40.68 142.172 36.76 144.252 33.24C145.212 31.72 146.412 30.28 147.932 28.92C148.812 28.36 150.012 28.12 151.052 28.52C152.092 28.84 153.052 29.48 153.532 30.44C154.172 31.8 153.932 33.56 153.932 35ZM182.621 54.92C185.421 53.88 188.701 52.2 190.541 49.48C191.101 48.68 190.861 47.48 190.621 46.68C190.061 45.48 188.941 44.6 187.901 44.28C186.061 43.64 184.221 43.32 182.301 43L176.541 42.04C175.741 41.88 174.941 41.64 174.381 41.08C173.981 40.76 173.821 40.12 174.061 39.56C174.461 38.04 175.181 36.6 175.981 35.16C177.341 32.84 179.341 30.36 181.501 28.76C182.141 28.28 182.781 27.96 183.581 27.96C184.141 27.88 184.781 28.12 185.181 28.44C185.581 28.68 185.901 29 186.221 29.32C186.541 29.64 186.781 30.04 187.181 30.44C187.821 30.2 188.221 29.72 188.221 29.24C188.141 28.04 187.341 26.76 186.461 26.2C185.581 25.64 184.701 25.32 183.661 25.32C181.501 25.64 179.581 26.76 177.981 28.12C174.861 30.84 172.701 35.16 171.341 38.6C170.861 40.44 171.341 42.36 172.861 43.48C174.381 44.36 176.141 44.76 177.901 45C180.221 45.4 182.541 45.64 184.781 46.2C185.901 46.52 187.181 46.6 187.981 47.48C188.141 47.96 188.061 48.52 187.661 48.92C184.621 51.56 181.101 52.92 177.181 53.56C175.741 53.8 174.221 54.04 172.781 53.56C171.981 53.32 171.821 52.68 171.741 51.88C171.741 50.84 172.141 49.64 172.141 48.68C172.141 48.52 171.981 48.28 171.661 48.2C171.501 48.2 171.261 48.2 171.021 48.36C170.381 48.84 170.061 49.56 169.821 50.28C169.661 51.08 169.421 53 169.741 53.88C170.221 55 171.421 55.72 172.461 56.2C175.901 56.68 179.501 56.12 182.621 54.92Z" fill="#151515"/>
<path d="M33.16 40.12L34.8633 41.1682L34.8713 41.1552L34.8791 41.1422L33.16 40.12ZM33.4 29.48L31.7007 30.5347L31.714 30.5562L31.7279 30.5773L33.4 29.48ZM27.64 24.84L28.2147 22.9243L28.1981 22.9194L28.1815 22.9147L27.64 24.84ZM19.48 24.44L18.1948 22.9076L13.0671 27.2083L19.7137 26.4263L19.48 24.44ZM25.48 17.08L27.3183 17.8678L27.3279 17.8454L27.337 17.8228L25.48 17.08ZM20.92 3.4L20.1609 5.25033L20.1814 5.25874L20.202 5.26669L20.92 3.4ZM8.92 3.64L8.3582 1.72053L8.20659 1.7649L8.06383 1.83252L8.92 3.64ZM7.4 4.36L8.25617 6.16748L8.25617 6.16747L7.4 4.36ZM3.96 8.2L1.97544 7.95193L1.96 8.07548V8.2H3.96ZM5 9.24L5.81228 11.0676L6.10684 10.9367L6.34535 10.7199L5 9.24ZM6.76 7.64L5.65061 5.97589L5.52572 6.05915L5.41465 6.16012L6.76 7.64ZM8.2 6.76L10.0171 7.59546L12.3933 2.42724L7.30557 4.97115L8.2 6.76ZM2.6 30.44L0.605997 30.2851L0.605567 30.2909L2.6 30.44ZM4.12 56.04L2.15448 56.4098L2.16203 56.4499L2.17122 56.4897L4.12 56.04ZM6.12 57.4L5.89914 59.3878L6.19911 59.4211L6.49555 59.3644L6.12 57.4ZM22.28 51.4L21.1779 49.7311L21.1709 49.7357L21.164 49.7403L22.28 51.4ZM30.84 30.36L29.1759 31.4694L29.1817 31.4781L29.1875 31.4867L30.84 30.36ZM31.4 37.08L29.5694 36.2745L29.5629 36.2892L29.5567 36.3039L31.4 37.08ZM20.44 49.4L19.3439 47.7271L19.3333 47.734L19.3228 47.7411L20.44 49.4ZM6.68 54.76L4.71127 55.1123L5.08835 57.2195L7.16507 56.7003L6.68 54.76ZM5.4 31.08L3.40527 30.9349L3.40508 30.9375L5.4 31.08ZM11.32 5.72L11.0557 3.73754L9.9556 3.88422L9.49796 4.89528L11.32 5.72ZM20.2 6.04L20.9975 4.20586L20.9884 4.20191L20.9793 4.19806L20.2 6.04ZM23.72 10.2L25.6603 9.71492L25.6535 9.68773L25.6459 9.66074L23.72 10.2ZM22.68 17L24.4232 17.9805L24.4393 17.9519L24.4544 17.9227L22.68 17ZM16.2 24.2L14.9506 22.6383L14.935 22.6508L14.9196 22.6636L16.2 24.2ZM12.76 26.44L11.8188 24.6753L11.799 24.6859L11.7795 24.6968L12.76 26.44ZM9.08 28.6L7.9706 26.9359L7.72925 27.0968L7.54356 27.3196L9.08 28.6ZM11 30.6L12.1864 32.2101L12.2132 32.1904L12.2393 32.1698L11 30.6ZM15.96 28.04L15.3275 26.1426H15.3275L15.96 28.04ZM24.84 27L24.5112 28.9728L24.5341 28.9766L24.5572 28.9799L24.84 27ZM34.8791 41.1422C35.9786 39.293 36.5132 36.9143 36.5694 34.7007C36.6248 32.5154 36.2216 30.1344 35.0721 28.3827L31.7279 30.5773C32.2584 31.3856 32.6152 32.8446 32.5706 34.5993C32.5268 36.3257 32.1014 37.987 31.4409 39.0978L34.8791 41.1422ZM35.0993 28.4253C33.4472 25.7635 31.158 23.8073 28.2147 22.9243L27.0653 26.7556C28.922 27.3127 30.4729 28.5565 31.7007 30.5347L35.0993 28.4253ZM28.1815 22.9147C25.2707 22.096 22.0998 22.118 19.2463 22.4537L19.7137 26.4263C22.3002 26.122 24.8893 26.144 27.0985 26.7653L28.1815 22.9147ZM20.7652 25.9724C23.37 23.7877 26.1867 20.5082 27.3183 17.8678L23.6417 16.2922C22.8533 18.1318 20.55 20.9323 18.1948 22.9076L20.7652 25.9724ZM27.337 17.8228C28.5333 14.832 29.4117 10.7913 27.5089 6.98557L23.9311 8.77443C25.0683 11.0487 24.6667 13.728 23.623 16.3372L27.337 17.8228ZM27.5089 6.98557C26.1777 4.3233 24.2082 2.52187 21.638 1.53331L20.202 5.26669C21.7918 5.87812 23.0223 6.9567 23.9311 8.77443L27.5089 6.98557ZM21.6791 1.54966C19.7161 0.744339 17.1886 0.577539 14.8892 0.68206C12.5423 0.788738 10.1632 1.19223 8.3582 1.72053L9.4818 5.55947C10.9568 5.12777 13.0177 4.77126 15.0708 4.67793C17.1714 4.58245 19.0039 4.77565 20.1609 5.25033L21.6791 1.54966ZM8.06383 1.83252L6.54383 2.55252L8.25617 6.16747L9.77617 5.44748L8.06383 1.83252ZM6.54383 2.55252C4.9321 3.31597 2.35339 4.92839 1.97544 7.95193L5.94456 8.44807C6.04661 7.63161 6.8279 6.84402 8.25617 6.16748L6.54383 2.55252ZM1.96 8.2C1.96 8.76322 2.12089 9.53077 2.57795 10.176C2.82507 10.5249 3.24306 10.9518 3.8851 11.1719C4.56802 11.406 5.24775 11.3185 5.81228 11.0676L4.18772 7.41238C4.39225 7.32147 4.76198 7.24397 5.1824 7.38811C5.56194 7.51824 5.76493 7.75509 5.84205 7.86397C5.91973 7.97364 5.94118 8.0496 5.94492 8.06275C5.94919 8.07776 5.96 8.11711 5.96 8.2H1.96ZM6.34535 10.7199L8.10535 9.11987L5.41465 6.16012L3.65465 7.76012L6.34535 10.7199ZM7.86939 9.3041C8.37242 8.96875 8.7463 8.72292 9.09443 8.54885L7.30557 4.97115C6.6937 5.27708 6.10758 5.67125 5.65061 5.97589L7.86939 9.3041ZM6.38286 5.92453C3.05379 13.1653 1.25766 21.8951 0.606006 30.2851L4.59399 30.5949C5.22234 22.5049 6.94621 14.2747 10.0171 7.59546L6.38286 5.92453ZM0.605567 30.2909C-0.0487241 39.042 0.605763 48.1771 2.15448 56.4098L6.08552 55.6702C4.59424 47.7429 3.96872 38.958 4.59443 30.5891L0.605567 30.2909ZM2.17122 56.4897C2.44795 57.6889 3.22483 58.4374 4.00851 58.8498C4.72335 59.2261 5.4623 59.3392 5.89914 59.3878L6.34086 55.4122C6.21402 55.3981 6.10661 55.3805 6.01693 55.3583C5.92555 55.3357 5.88173 55.3156 5.87149 55.3102C5.86483 55.3067 5.9099 55.3292 5.96524 55.3952C5.9927 55.428 6.01707 55.4649 6.03627 55.5035C6.05543 55.5421 6.06477 55.5729 6.06878 55.5903L2.17122 56.4897ZM6.49555 59.3644C12.0454 58.3034 18.4306 56.3985 23.396 53.0597L21.164 49.7403C16.8494 52.6415 11.0746 54.4166 5.74445 55.4356L6.49555 59.3644ZM23.3821 53.0689C27.8765 50.1009 32.1577 45.5648 34.8633 41.1682L31.4567 39.0718C29.0423 42.9952 25.1635 47.0991 21.1779 49.7311L23.3821 53.0689ZM29.1875 31.4867C29.5466 32.0133 29.8277 32.8376 29.9068 33.7947C29.9856 34.7484 29.8477 35.6419 29.5694 36.2745L33.2306 37.8855C33.8323 36.5181 34.0144 34.9316 33.8932 33.4653C33.7723 32.0024 33.3334 30.4667 32.4925 29.2333L29.1875 31.4867ZM29.5567 36.3039C27.8305 40.4037 23.7478 44.8418 19.3439 47.7271L21.5361 51.0729C26.4122 47.8782 31.1295 42.8763 33.2433 37.8561L29.5567 36.3039ZM19.3228 47.7411C15.721 50.1669 10.6688 51.7012 6.19493 52.8197L7.16507 56.7003C11.6512 55.5788 17.319 53.9131 21.5572 51.0589L19.3228 47.7411ZM8.64873 54.4077C7.31688 46.965 6.84715 38.8913 7.39492 31.2225L3.40508 30.9375C2.83285 38.9487 3.32312 47.355 4.71127 55.1123L8.64873 54.4077ZM7.39473 31.2251C8.02323 22.5833 9.82653 13.8697 13.142 6.54471L9.49796 4.89528C5.93347 12.7703 4.05677 21.9767 3.40527 30.9349L7.39473 31.2251ZM11.5843 7.70245C12.7074 7.55272 14.314 7.4206 15.868 7.42996C17.5034 7.43981 18.7747 7.60863 19.4207 7.88193L20.9793 4.19806C19.5453 3.59137 17.5766 3.44018 15.892 3.43003C14.126 3.41939 12.3327 3.56728 11.0557 3.73754L11.5843 7.70245ZM19.4025 7.87414C20.6434 8.41362 21.3818 9.26698 21.7941 10.7393L25.6459 9.66074C24.9382 7.13301 23.4366 5.26637 20.9975 4.20586L19.4025 7.87414ZM21.7797 10.6851C22.1878 12.3173 21.7934 14.3699 20.9056 16.0773L24.4544 17.9227C25.6466 15.6301 26.3722 12.5627 25.6603 9.71492L21.7797 10.6851ZM20.9368 16.0195C19.6695 18.2725 17.2417 20.8054 14.9506 22.6383L17.4494 25.7617C19.9583 23.7546 22.8105 20.8475 24.4232 17.9805L20.9368 16.0195ZM14.9196 22.6636C14.102 23.3449 12.9506 24.0717 11.8188 24.6753L13.7012 28.2047C14.9694 27.5283 16.378 26.6551 17.4804 25.7364L14.9196 22.6636ZM11.7795 24.6968C10.55 25.3884 9.25239 26.0814 7.9706 26.9359L10.1894 30.2641C11.3076 29.5186 12.41 28.9316 13.7405 28.1832L11.7795 24.6968ZM7.54356 27.3196C6.34713 28.7553 6.83965 30.6062 7.57 31.58C7.99307 32.1441 8.66328 32.6859 9.57059 32.8594C10.5222 33.0414 11.4379 32.7617 12.1864 32.2101L9.8136 28.9899C9.80214 28.9983 9.99777 28.8686 10.3219 28.9306C10.6017 28.9841 10.7369 29.1359 10.77 29.18C10.8014 29.2218 10.8184 29.261 10.8233 29.327C10.8283 29.3954 10.8232 29.6323 10.6164 29.8804L7.54356 27.3196ZM12.2393 32.1698C13.5018 31.1731 15.4968 30.3026 16.5925 29.9374L15.3275 26.1426C14.0232 26.5774 11.5382 27.6269 9.76071 29.0302L12.2393 32.1698ZM16.5925 29.9374C19.3198 29.0283 22.0839 28.5682 24.5112 28.9728L25.1688 25.0272C21.8361 24.4718 18.3602 25.1317 15.3275 26.1426L16.5925 29.9374ZM24.5572 28.9799C26.4732 29.2536 28.3245 30.1923 29.1759 31.4694L32.5041 29.2506C30.7955 26.6877 27.6868 25.3864 25.1228 25.0201L24.5572 28.9799ZM63.6556 28.04V26.04H63.4576L63.2634 26.0788L63.6556 28.04ZM64.5356 26.76L66.4513 26.1853L66.1922 25.3218L65.3737 24.9441L64.5356 26.76ZM61.3356 26.6L60.9779 24.6323L60.9679 24.6341L60.9579 24.636L61.3356 26.6ZM56.2956 28.12L55.6182 26.2382L55.5924 26.2475L55.5668 26.2575L56.2956 28.12ZM50.1356 31.8L48.8069 30.3052L48.8003 30.311L48.7938 30.3169L50.1356 31.8ZM45.0156 37.56L43.0163 37.61L43.1836 44.304L46.7149 38.6147L45.0156 37.56ZM46.2956 29.08L48.1206 29.8981L48.2956 29.5078V29.08H46.2956ZM46.6156 28.28L44.9006 27.251L44.8611 27.3169L44.8268 27.3856L46.6156 28.28ZM47.8956 25.72H49.8956V25.0533L49.4956 24.52L47.8956 25.72ZM46.2156 25V23H45.8443L45.4977 23.1333L46.2156 25ZM44.2156 26.84L45.9639 27.8113L45.985 27.7733L46.0045 27.7344L44.2156 26.84ZM43.0956 29.16L41.3473 28.1887L41.2327 28.395L41.1692 28.6224L43.0956 29.16ZM42.2956 39.4L44.2851 39.1952L44.2835 39.1794L44.2816 39.1636L42.2956 39.4ZM46.6156 55.24L44.7302 55.9072L44.8673 56.2946L45.146 56.5966L46.6156 55.24ZM47.5756 56.28L46.106 57.6366L46.1331 57.6659L46.1614 57.6942L47.5756 56.28ZM49.0956 55.8L50.993 56.4325L51.1855 55.855L51.0236 55.2681L49.0956 55.8ZM47.0156 49.08L48.9387 48.5306L48.936 48.5212L48.9332 48.5118L47.0156 49.08ZM45.5756 42.28L43.6945 41.6007L43.5404 42.0275L43.5856 42.479L45.5756 42.28ZM50.6156 34.84L52.0029 36.2806L50.6156 34.84ZM57.0956 30.04L57.8603 31.888L57.8756 31.8817L57.8908 31.8751L57.0956 30.04ZM63.6556 30.04C64.4936 30.04 65.3204 29.6543 65.8793 29.0072C66.5148 28.2713 66.7683 27.242 66.4513 26.1853L62.62 27.3347C62.5915 27.2398 62.5686 27.0774 62.6113 26.8784C62.6532 26.6828 62.7445 26.5172 62.852 26.3928C63.0308 26.1857 63.2976 26.04 63.6556 26.04V30.04ZM65.3737 24.9441C63.7044 24.1736 61.8468 24.4743 60.9779 24.6323L61.6934 28.5677C62.0902 28.4956 62.4932 28.44 62.8756 28.44C63.2637 28.44 63.5294 28.4983 63.6975 28.5759L65.3737 24.9441ZM60.9579 24.636C58.6956 25.0711 57.5819 25.5313 55.6182 26.2382L56.9731 30.0018C59.0093 29.2687 59.8157 28.9289 61.7133 28.564L60.9579 24.636ZM55.5668 26.2575C53.5451 27.0486 50.452 28.8429 48.8069 30.3052L51.4644 33.2948C52.6993 32.1971 55.3662 30.6314 57.0244 29.9825L55.5668 26.2575ZM48.7938 30.3169C47.0986 31.8507 44.9152 33.9293 43.3163 36.5053L46.7149 38.6147C47.996 36.5507 49.8127 34.7893 51.4775 33.2831L48.7938 30.3169ZM47.015 37.51C46.9379 34.4258 47.2605 31.8169 48.1206 29.8981L44.4706 28.2619C43.2508 30.9831 42.9334 34.2942 43.0163 37.61L47.015 37.51ZM48.2956 29.08C48.2956 29.124 48.2928 29.1738 48.2857 29.2278C48.2786 29.282 48.2679 29.3347 48.2544 29.3849C48.2271 29.4861 48.1945 29.5545 48.1845 29.5744C48.1802 29.583 48.1798 29.5831 48.1882 29.5682C48.1979 29.5508 48.2081 29.5333 48.2305 29.4944C48.2698 29.4264 48.3357 29.312 48.4045 29.1744L44.8268 27.3856C44.8156 27.408 44.8015 27.4336 44.7658 27.4956C44.7395 27.541 44.6695 27.6601 44.6068 27.7856C44.4486 28.1019 44.2956 28.5298 44.2956 29.08H48.2956ZM48.3306 29.309C48.3916 29.2073 48.4745 29.0914 48.6181 28.9C48.7434 28.733 48.9371 28.4798 49.1125 28.21C49.4901 27.629 49.8956 26.8084 49.8956 25.72H45.8956C45.8956 25.7516 45.9011 25.811 45.7587 26.03C45.6741 26.1602 45.5778 26.287 45.4181 26.5C45.2767 26.6886 45.0796 26.9527 44.9006 27.251L48.3306 29.309ZM49.4956 24.52C48.4341 23.1047 46.9624 23 46.2156 23V27C46.311 27 46.3702 27.0037 46.4093 27.0083C46.4465 27.0128 46.4504 27.0165 46.4336 27.0107C46.4138 27.0039 46.3807 26.9892 46.3455 26.964C46.3097 26.9383 46.294 26.9179 46.2956 26.92L49.4956 24.52ZM45.4977 23.1333C43.9091 23.7443 43.0068 24.7855 42.4268 25.9456L46.0045 27.7344C46.2244 27.2945 46.4421 27.0557 46.9336 26.8667L45.4977 23.1333ZM42.4673 25.8687C42.2189 26.3158 42.0044 26.7958 41.8318 27.1793C41.6444 27.5958 41.4989 27.9158 41.3473 28.1887L44.8439 30.1313C45.0923 29.6842 45.3069 29.2042 45.4795 28.8207C45.6669 28.4042 45.8123 28.0842 45.9639 27.8113L42.4673 25.8687ZM41.1692 28.6224C40.1383 32.3165 39.8791 36.0196 40.3097 39.6364L44.2816 39.1636C43.9122 36.0604 44.1329 32.8835 45.022 29.6976L41.1692 28.6224ZM40.3061 39.6048C40.8956 45.3311 42.9141 50.7747 44.7302 55.9072L48.5011 54.5728C46.6372 49.3053 44.8156 44.3489 44.2851 39.1952L40.3061 39.6048ZM45.146 56.5966L46.106 57.6366L49.0452 54.9234L48.0852 53.8834L45.146 56.5966ZM46.1614 57.6942C46.9601 58.4929 48.0658 58.6958 49.0184 58.4001C49.9532 58.11 50.6793 57.3737 50.993 56.4325L47.1983 55.1675C47.272 54.9463 47.4781 54.69 47.8328 54.5799C48.2055 54.4642 48.6712 54.5471 48.9898 54.8658L46.1614 57.6942ZM51.0236 55.2681C50.6904 54.0602 50.3176 52.9016 49.9581 51.793C49.5946 50.6723 49.2469 49.6094 48.9387 48.5306L45.0926 49.6294C45.4243 50.7906 45.7966 51.9277 46.1532 53.027C46.5136 54.1384 46.8609 55.2198 47.1676 56.3319L51.0236 55.2681ZM48.9332 48.5118C48.3085 46.4033 47.7876 44.3004 47.5657 42.081L43.5856 42.479C43.8436 45.0596 44.4428 47.4367 45.098 49.6482L48.9332 48.5118ZM47.4567 42.9593C48.3657 40.442 49.9985 38.2108 52.0029 36.2806L49.2283 33.3994C46.9127 35.6292 44.8655 38.358 43.6945 41.6007L47.4567 42.9593ZM52.0029 36.2806C54.1692 34.1946 55.9281 32.6876 57.8603 31.888L56.3309 28.192C53.6232 29.3124 51.3821 31.3254 49.2283 33.3994L52.0029 36.2806ZM57.8908 31.8751C60.1303 30.9047 61.7486 30.461 64.0479 30.0012L63.2634 26.0788C60.7626 26.579 58.8609 27.0953 56.3004 28.2049L57.8908 31.8751ZM95 55.48L93.8237 57.0975L94.1601 57.3421L94.5661 57.4324L95 55.48ZM96.92 54.76L98.9141 54.6066L98.8563 53.8549L98.3167 53.3284L96.92 54.76ZM91.48 44.04L89.566 44.62L89.5706 44.6355L89.5756 44.6509L91.48 44.04ZM89.72 35.96L91.7078 35.7391L91.6844 35.5286L91.6174 35.3275L89.72 35.96ZM89 34.2L87.0137 34.4337L87.0613 34.8384L87.2635 35.1923L89 34.2ZM88.04 30.04L86.1673 30.7422L86.2597 30.9885L86.4125 31.2025L88.04 30.04ZM84.04 25.56L83.1456 27.3489L83.1759 27.364L83.2067 27.3781L84.04 25.56ZM81.64 25.4L81.0653 23.4843L81.0363 23.493L81.0075 23.5026L81.64 25.4ZM79.48 26.44L78.5087 24.6917L78.3376 24.7868L78.1881 24.9132L79.48 26.44ZM69.32 42.52L71.248 43.0519L71.2511 43.0404L71.2542 43.029L69.32 42.52ZM68.52 50.68L66.5337 50.9137L66.5372 50.9435L66.5416 50.9731L68.52 50.68ZM71.72 55.96L72.7938 54.2727L72.7716 54.2586L72.749 54.245L71.72 55.96ZM77.56 55.32L76.3167 53.7534L76.3106 53.7583L77.56 55.32ZM87.64 40.28L89.5903 39.8368L88.161 33.5482L85.7812 39.5419L87.64 40.28ZM89 45.48L87.1026 46.1125L87.1085 46.1301L87.1147 46.1477L89 45.48ZM85.88 30.92L87.6358 29.9623L87.6263 29.9449L87.6165 29.9277L85.88 30.92ZM87.16 34.04L88.7985 35.1869L89.354 34.3932L89.0757 33.4653L87.16 34.04ZM86.36 36.68L88.2574 37.3125L88.3023 37.1776L88.3277 37.0378L86.36 36.68ZM75.32 53.4L75.9525 55.2974L76.2756 55.1897L76.5448 54.9811L75.32 53.4ZM72.36 52.84L70.7425 54.0163L70.8348 54.1432L70.9458 54.2542L72.36 52.84ZM71.32 49.72L69.3244 49.853L71.32 49.72ZM71.48 46.04L69.5188 45.6478L69.4931 45.7762L69.4844 45.907L71.48 46.04ZM75.16 35.8L73.4304 34.7957L73.4188 34.8158L73.4076 34.8362L75.16 35.8ZM81.32 28.6L80.26 26.904L80.2288 26.9235L80.1983 26.9442L81.32 28.6ZM83.4 28.2L84.3482 26.4391L84.1693 26.3427L83.9747 26.2843L83.4 28.2ZM94.5661 57.4324C94.9507 57.5178 95.7862 57.6833 96.6048 57.5401C97.0359 57.4646 97.6886 57.2654 98.2181 56.6974C98.7995 56.0735 98.9671 55.2952 98.9141 54.6066L94.9259 54.9134C94.9129 54.7448 94.9505 54.3365 95.2919 53.9701C95.5814 53.6596 95.8841 53.6054 95.9152 53.5999C95.9599 53.5921 95.9323 53.6026 95.8073 53.5905C95.6953 53.5797 95.5657 53.5569 95.4339 53.5276L94.5661 57.4324ZM98.3167 53.3284C95.4629 50.5443 94.7881 47.8053 93.3844 43.4291L89.5756 44.6509C90.8919 48.7547 91.8171 52.5757 95.5234 56.1916L98.3167 53.3284ZM93.3941 43.46C92.6129 40.8822 92.0091 38.4512 91.7078 35.7391L87.7322 36.1809C88.0709 39.2288 88.7471 41.9178 89.566 44.62L93.3941 43.46ZM91.6174 35.3275C91.3839 34.6271 91.1688 33.9643 90.7365 33.2077L87.2635 35.1923C87.4712 35.5557 87.5761 35.8529 87.8226 36.5925L91.6174 35.3275ZM90.9863 33.9663C90.9303 33.4902 90.8589 32.4685 90.7335 31.7056C90.5951 30.8633 90.331 29.8064 89.6675 28.8775L86.4125 31.2025C86.549 31.3936 86.6849 31.7367 86.7865 32.3544C86.9011 33.0515 86.9097 33.5498 87.0137 34.4337L90.9863 33.9663ZM89.9127 29.3377C89.0428 27.0182 87.3586 24.881 84.8733 23.7419L83.2067 27.3781C84.5614 27.999 85.5972 29.2218 86.1673 30.7422L89.9127 29.3377ZM84.9344 23.7711C83.5903 23.0991 82.2495 23.1291 81.0653 23.4843L82.2147 27.3157C82.6305 27.1909 82.8897 27.2209 83.1456 27.3489L84.9344 23.7711ZM81.0075 23.5026C80.0783 23.8124 79.1911 24.3126 78.5087 24.6917L80.4513 28.1883C81.2089 27.7674 81.7617 27.4676 82.2725 27.2974L81.0075 23.5026ZM78.1881 24.9132C72.6633 29.588 69.0865 35.5484 67.3858 42.011L71.2542 43.029C72.7535 37.3316 75.8967 32.092 80.7719 27.9668L78.1881 24.9132ZM67.392 41.9881C66.7125 44.4512 66.1729 47.8468 66.5337 50.9137L70.5063 50.4463C70.2271 48.0732 70.6475 45.2288 71.248 43.0519L67.392 41.9881ZM66.5416 50.9731C66.9153 53.4954 68.0071 56.0646 70.691 57.675L72.749 54.245C71.4329 53.4554 70.7647 52.1846 70.4984 50.3869L66.5416 50.9731ZM70.6462 57.6473C73.336 59.359 76.757 58.5237 78.8094 56.8817L76.3106 53.7583C75.163 54.6763 73.624 54.801 72.7938 54.2727L70.6462 57.6473ZM78.8033 56.8866C84.2617 52.5545 87.301 46.5534 89.4988 41.0181L85.7812 39.5419C83.659 44.8866 80.9383 50.0855 76.3167 53.7534L78.8033 56.8866ZM85.6897 40.7232C86.0858 42.4658 86.5062 44.3232 87.1026 46.1125L90.8974 44.8475C90.3738 43.2768 89.9942 41.6142 89.5903 39.8368L85.6897 40.7232ZM87.1147 46.1477C88.4243 49.8453 89.7112 54.1066 93.8237 57.0975L96.1763 53.8625C93.2488 51.7334 92.2957 48.7947 90.8853 44.8123L87.1147 46.1477ZM84.1242 31.8777C84.5234 32.6096 85.0345 33.9153 85.2443 34.6147L89.0757 33.4653C88.8055 32.5647 88.1966 30.9904 87.6358 29.9623L84.1242 31.8777ZM85.5215 32.8931C84.64 34.1524 84.5013 35.7228 84.3923 36.3222L88.3277 37.0378C88.5387 35.8772 88.56 35.5276 88.7985 35.1869L85.5215 32.8931ZM84.4626 36.0475C82.4541 42.0731 79.3502 47.7481 74.0952 51.8189L76.5448 54.9811C82.6498 50.2519 86.1059 43.7669 88.2574 37.3125L84.4626 36.0475ZM74.6875 51.5026C74.5356 51.5533 74.3089 51.5763 74.0848 51.5382C73.8566 51.4995 73.7725 51.4241 73.7742 51.4258L70.9458 54.2542C72.3351 55.6435 74.4726 55.7907 75.9525 55.2974L74.6875 51.5026ZM73.9775 51.6637C73.6083 51.1561 73.3766 50.5031 73.3156 49.587L69.3244 49.853C69.4234 51.3369 69.8317 52.7639 70.7425 54.0163L73.9775 51.6637ZM73.3156 49.587C73.2474 48.5643 73.3845 47.5391 73.4756 46.173L69.4844 45.907C69.4155 46.9409 69.2326 48.4757 69.3244 49.853L73.3156 49.587ZM73.4412 46.4322C74.1252 43.0121 75.2602 39.7678 76.9124 36.7638L73.4076 34.8362C71.5398 38.2322 70.2748 41.8679 69.5188 45.6478L73.4412 46.4322ZM76.8896 36.8043C78.2782 34.4128 80.3348 31.6831 82.4417 30.2558L80.1983 26.9442C77.3452 28.8769 74.9218 32.2272 73.4304 34.7957L76.8896 36.8043ZM82.38 30.296C82.6103 30.1521 82.7187 30.1161 82.7581 30.1068C82.7662 30.1049 82.7704 30.1044 82.7714 30.1043C82.7723 30.1042 82.7724 30.1042 82.7727 30.1042C82.773 30.1043 82.7764 30.1043 82.7836 30.1055C82.791 30.1067 82.8047 30.1095 82.8253 30.1157L83.9747 26.2843C82.38 25.8059 81.1202 26.3664 80.26 26.904L82.38 30.296ZM82.4518 29.9609C82.9932 30.2525 83.5626 30.8957 84.1435 31.9123L87.6165 29.9277C86.9174 28.7042 85.8868 27.2675 84.3482 26.4391L82.4518 29.9609ZM124.76 56.28L126.026 57.8279L126.043 57.8147L126.059 57.8011L124.76 56.28ZM132.04 46.44L133.859 47.2706L133.936 47.1034L133.98 46.9251L132.04 46.44ZM131.16 45.8L129.746 44.3858L129.655 44.4769L129.576 44.579L131.16 45.8ZM128.2 49.64L129.67 50.9966L129.73 50.9313L129.784 50.861L128.2 49.64ZM125.16 52.52L123.166 52.3704L122.846 56.6306L126.322 54.1475L125.16 52.52ZM125.48 42.84L123.481 42.8876L123.481 42.89L125.48 42.84ZM125.16 32.52L127.14 32.2372L127.138 32.2265L127.137 32.2159L125.16 32.52ZM123.24 26.76L124.962 25.7425L124.781 25.4369L124.506 25.2121L123.24 26.76ZM120.36 25.48L120.096 27.4625L120.156 27.4706L120.218 27.4749L120.36 25.48ZM117.48 26.44L116.451 24.725L116.267 24.8354L116.111 24.9823L117.48 26.44ZM111.24 34.76L109.501 33.7728L109.495 33.7827L109.49 33.7926L111.24 34.76ZM107 44.44L105.01 44.639L108.878 45.1272L107 44.44ZM105.4 27.56L107.384 27.305L107.34 26.9688L107.189 26.6656L105.4 27.56ZM105 26.76L103.179 27.5876L103.195 27.6213L103.211 27.6544L105 26.76ZM103 24.92L103.304 22.9433L102.933 22.8861L102.566 22.9676L103 24.92ZM102.2 26.36L100.239 26.7522L100.279 26.9518L100.358 27.1393L102.2 26.36ZM103.4 33L105.397 32.8826L105.396 32.87L105.395 32.8575L103.4 33ZM104.52 49.32H106.52V49.2897L106.519 49.2594L104.52 49.32ZM104.6 55.08H102.6V55.3601L102.677 55.6294L104.6 55.08ZM106.84 55.16L108.72 55.8435L108.79 55.6511L108.819 55.4486L106.84 55.16ZM109.48 43.88L111.364 44.55L111.369 44.5363L111.374 44.5226L109.48 43.88ZM115.96 31.4L114.424 30.1196L114.406 30.141L114.389 30.1629L115.96 31.4ZM118.68 28.44L117.722 26.6842L117.676 26.7093L117.632 26.7367L118.68 28.44ZM121.16 28.6L119.746 30.0142L119.846 30.1147L119.96 30.2L121.16 28.6ZM122.12 30.92L124.109 30.7142L124.103 30.6524L124.093 30.5912L122.12 30.92ZM122.52 52.36L120.525 52.2224L120.498 52.6171L120.623 52.9924L122.52 52.36ZM122.6 53.08L124.588 53.3009L124.6 53.1908V53.08H122.6ZM122.52 55.4L120.568 55.8339L120.59 55.9346L120.623 56.0325L122.52 55.4ZM126.059 57.8011C129.595 54.782 132.079 51.171 133.859 47.2706L130.221 45.6094C128.641 49.069 126.485 52.178 123.461 54.7589L126.059 57.8011ZM133.98 46.9251C134.158 46.2152 133.944 45.6146 133.818 45.3325C133.665 44.9892 133.437 44.6642 133.153 44.396C132.885 44.1422 132.422 43.8063 131.776 43.7087C131.021 43.5946 130.281 43.8508 129.746 44.3858L132.574 47.2142C132.239 47.5492 131.719 47.7454 131.179 47.6638C130.748 47.5987 130.495 47.3878 130.407 47.304C130.303 47.2058 130.225 47.0958 130.167 46.965C130.136 46.8954 129.962 46.5048 130.1 45.9549L133.98 46.9251ZM129.576 44.579L126.616 48.419L129.784 50.861L132.744 47.021L129.576 44.579ZM126.73 48.2834C125.744 49.3526 124.921 50.233 123.998 50.8925L126.322 54.1475C127.639 53.207 128.736 52.0074 129.67 50.9966L126.73 48.2834ZM127.154 52.6696C127.397 49.4393 127.562 46.0849 127.479 42.79L123.481 42.89C123.558 45.9951 123.403 49.2007 123.166 52.3704L127.154 52.6696ZM127.479 42.7924C127.406 39.6936 127.641 35.7459 127.14 32.2372L123.18 32.8028C123.639 36.0141 123.394 39.2664 123.481 42.8876L127.479 42.7924ZM127.137 32.2159C126.792 29.9734 126.171 27.7882 124.962 25.7425L121.518 27.7775C122.389 29.2518 122.888 30.9066 123.183 32.8241L127.137 32.2159ZM124.506 25.2121C123.447 24.3454 122.184 23.6052 120.502 23.4851L120.218 27.4749C120.776 27.5148 121.273 27.7346 121.974 28.3079L124.506 25.2121ZM120.624 23.4975C118.58 23.225 117.026 24.38 116.451 24.725L118.509 28.155C119.018 27.8497 119.251 27.6891 119.553 27.5603C119.785 27.4616 119.939 27.4415 120.096 27.4625L120.624 23.4975ZM116.111 24.9823C113.261 27.6593 111.225 30.735 109.501 33.7728L112.979 35.7472C114.615 32.865 116.419 30.1807 118.849 27.8977L116.111 24.9823ZM109.49 33.7926C107.735 36.967 106.334 40.4399 105.122 43.7528L108.878 45.1272C110.066 41.8801 111.385 38.633 112.99 35.7274L109.49 33.7926ZM108.99 44.241C108.444 38.7773 108.106 32.9218 107.384 27.305L103.416 27.815C104.134 33.3982 104.436 38.9027 105.01 44.639L108.99 44.241ZM107.189 26.6656L106.789 25.8656L103.211 27.6544L103.611 28.4544L107.189 26.6656ZM106.821 25.9324C106.359 24.916 105.402 23.266 103.304 22.9433L102.696 26.8967C102.729 26.9019 102.739 26.9081 102.741 26.9091C102.745 26.9114 102.766 26.9233 102.804 26.9623C102.894 27.0551 103.021 27.239 103.179 27.5876L106.821 25.9324ZM102.566 22.9676C101.377 23.2318 100.735 24.1006 100.452 24.7853C100.19 25.4195 100.117 26.1414 100.239 26.7522L104.161 25.9678C104.189 26.1062 104.18 26.1846 104.179 26.2C104.176 26.2253 104.17 26.2622 104.148 26.3147C104.126 26.3669 104.072 26.4763 103.951 26.5937C103.817 26.7226 103.637 26.8273 103.434 26.8724L102.566 22.9676ZM100.358 27.1393C101.086 28.8595 101.24 30.8336 101.405 33.1425L105.395 32.8575C105.24 30.6864 105.074 28.0205 104.042 25.5807L100.358 27.1393ZM101.403 33.1174C101.654 37.3803 102.361 44.1006 102.521 49.3806L106.519 49.2594C106.359 43.9794 105.626 36.7797 105.397 32.8826L101.403 33.1174ZM102.52 49.32C102.52 50.103 102.54 51.2047 102.56 52.2674C102.581 53.346 102.6 54.3833 102.6 55.08H106.6C106.6 54.3367 106.579 53.254 106.56 52.1926C106.54 51.1153 106.52 50.057 106.52 49.32H102.52ZM102.677 55.6294C103.143 57.261 104.597 57.8938 105.762 57.8696C106.807 57.8478 108.198 57.2785 108.72 55.8435L104.96 54.4765C105.062 54.1979 105.243 54.039 105.363 53.966C105.478 53.8962 105.584 53.8724 105.678 53.8704C105.774 53.8684 105.939 53.8888 106.123 54.0071C106.332 54.1416 106.47 54.3444 106.523 54.5306L102.677 55.6294ZM108.819 55.4486C109.368 51.6817 110.144 47.9819 111.364 44.55L107.596 43.21C106.256 46.9781 105.432 50.9583 104.861 54.8714L108.819 55.4486ZM111.374 44.5226C112.847 40.1812 114.754 36.1647 117.531 32.6371L114.389 30.1629C111.246 34.1553 109.153 38.6188 107.586 43.2374L111.374 44.5226ZM117.496 32.6804C117.724 32.4077 117.952 32.1124 118.157 31.8479C118.371 31.5723 118.567 31.3193 118.766 31.0804C119.184 30.5789 119.495 30.2868 119.728 30.1433L117.632 26.7367C116.825 27.2332 116.176 27.9411 115.694 28.5196C115.443 28.8207 115.204 29.1277 114.996 29.3971C114.778 29.6776 114.596 29.9123 114.424 30.1196L117.496 32.6804ZM119.638 30.1958C119.758 30.1302 119.845 30.0966 119.9 30.0805C119.954 30.0648 119.961 30.0701 119.932 30.0694C119.898 30.0686 119.846 30.06 119.792 30.0366C119.74 30.0137 119.726 29.994 119.746 30.0142L122.574 27.1858C121.865 26.477 120.982 26.0933 120.028 26.0706C119.138 26.0494 118.345 26.3443 117.722 26.6842L119.638 30.1958ZM119.96 30.2C119.819 30.094 119.773 29.9969 119.792 30.0313C119.8 30.0467 119.817 30.0795 119.844 30.1417C119.872 30.2064 119.901 30.2778 119.943 30.3828L123.657 28.8972C123.551 28.6314 123.213 27.6394 122.36 27L119.96 30.2ZM119.943 30.3828C120.018 30.5696 120.07 30.7885 120.147 31.2488L124.093 30.5912C124.01 30.0915 123.902 29.5104 123.657 28.8972L119.943 30.3828ZM120.131 31.1258C120.839 37.9777 120.996 45.3827 120.525 52.2224L124.515 52.4976C125.004 45.4173 124.841 37.7823 124.109 30.7142L120.131 31.1258ZM120.623 52.9924C120.599 52.9209 120.596 52.8758 120.597 52.8861C120.597 52.8921 120.598 52.9083 120.599 52.9417C120.6 52.9774 120.6 53.0165 120.6 53.08H124.6C124.6 52.8851 124.616 52.3228 124.417 51.7276L120.623 52.9924ZM120.612 52.8591C120.585 53.1076 120.509 53.6511 120.476 54.0904C120.44 54.5643 120.425 55.1918 120.568 55.8339L124.472 54.9661C124.455 54.8882 124.44 54.7157 124.464 54.3896C124.491 54.0289 124.535 53.7724 124.588 53.3009L120.612 52.8591ZM120.623 56.0325C120.923 56.9337 121.643 57.7174 122.472 58.1517C123.396 58.6355 124.803 58.8285 126.026 57.8279L123.494 54.7321C123.611 54.636 123.798 54.5553 124.008 54.5485C124.191 54.5426 124.302 54.5945 124.328 54.6083C124.354 54.6222 124.353 54.6262 124.346 54.6178C124.333 54.6028 124.375 54.6419 124.417 54.7675L120.623 56.0325ZM160.572 49.88L162.134 48.6306L162.127 48.622L162.12 48.6135L160.572 49.88ZM162.652 50.28L163.61 52.0358L164.902 51.331L164.613 49.8878L162.652 50.28ZM162.332 49.32L164.229 48.6876L164.211 48.6318L164.189 48.5772L162.332 49.32ZM161.372 46.92L163.34 46.5622L163.334 46.5322L163.328 46.5024L161.372 46.92ZM160.172 25L158.173 24.9311L158.173 24.9348L160.172 25ZM162.652 4.68L164.635 4.93668L164.639 4.90789L164.642 4.879L162.652 4.68ZM160.412 3.88L158.733 2.79349L158.583 3.02446L158.502 3.2872L160.412 3.88ZM158.972 11L160.954 11.2643V11.2643L158.972 11ZM158.012 18.36L156.037 18.0415L156.032 18.0727L156.028 18.1041L158.012 18.36ZM157.532 25.88L155.536 25.7512L155.535 25.7702L155.534 25.7892L157.532 25.88ZM156.572 30.92L154.632 31.4051L156.205 37.7001L158.449 31.6114L156.572 30.92ZM155.372 28.28L156.934 27.0306L156.921 27.015L156.908 26.9996L155.372 28.28ZM150.332 25.72L150.189 27.7149L150.219 27.717L150.249 27.7183L150.332 25.72ZM142.572 30.84L144.259 31.9137L144.266 31.9024L144.273 31.891L142.572 30.84ZM137.852 43L139.826 43.3214L139.829 43.3046L139.831 43.2879L137.852 43ZM138.652 53.48L136.759 54.1254L136.827 54.3266L136.937 54.509L138.652 53.48ZM142.972 56.36L143.159 54.3687L143.153 54.3682L142.972 56.36ZM149.132 52.6L150.776 53.7384L150.777 53.7372L149.132 52.6ZM157.452 35L159.441 34.7906L155.557 34.3602L157.452 35ZM158.172 43.96L156.199 44.2888L156.202 44.3065L156.205 44.3242L158.172 43.96ZM154.572 36.12L156.452 36.8013L157.111 34.9818L155.315 34.263L154.572 36.12ZM146.492 51.72L148.036 52.9914L148.041 52.9853L148.046 52.9792L146.492 51.72ZM142.572 53.48L141.677 55.2689L141.819 55.3396L141.97 55.3872L142.572 53.48ZM140.732 51.16L142.643 50.5718L142.629 50.5238L142.611 50.4765L140.732 51.16ZM140.332 44.76L138.369 44.3752L138.332 44.5658V44.76H140.332ZM144.252 33.24L142.561 32.172L142.545 32.197L142.53 32.2225L144.252 33.24ZM147.932 28.92L146.858 27.2327L146.72 27.3205L146.598 27.4295L147.932 28.92ZM151.052 28.52L150.334 30.3867L150.398 30.4114L150.464 30.4316L151.052 28.52ZM153.532 30.44L155.342 29.5884L155.331 29.5669L155.321 29.5456L153.532 30.44ZM159.01 51.1294C159.436 51.662 160.089 52.1061 160.832 52.3271C161.631 52.5646 162.633 52.5687 163.61 52.0358L161.694 48.5242C161.727 48.5062 161.782 48.4872 161.847 48.4821C161.907 48.4775 161.95 48.4865 161.972 48.4929C161.991 48.4986 162.003 48.5049 162.014 48.5124C162.02 48.516 162.066 48.5463 162.134 48.6306L159.01 51.1294ZM164.613 49.8878C164.543 49.5393 164.443 49.247 164.365 49.0378C164.327 48.9385 164.288 48.8393 164.266 48.7837C164.253 48.7517 164.245 48.7293 164.238 48.7115C164.231 48.6938 164.229 48.687 164.229 48.6876L160.435 49.9524C160.473 50.0673 160.515 50.1757 160.543 50.2463C160.576 50.3307 160.596 50.3815 160.619 50.4422C160.661 50.553 160.68 50.6207 160.691 50.6722L164.613 49.8878ZM164.189 48.5772C164.006 48.121 163.726 47.5681 163.608 47.3119C163.453 46.9755 163.375 46.7552 163.34 46.5622L159.404 47.2778C159.529 47.9648 159.771 48.5445 159.976 48.9881C160.218 49.5119 160.337 49.719 160.475 50.0628L164.189 48.5772ZM163.328 46.5024C161.864 39.6466 161.931 32.4276 162.171 25.0652L158.173 24.9348C157.933 32.2924 157.84 39.9534 159.416 47.3376L163.328 46.5024ZM162.171 25.0689C162.407 18.2296 163.73 11.9361 164.635 4.93668L160.668 4.42331C159.814 11.0239 158.417 17.8504 158.173 24.9311L162.171 25.0689ZM164.642 4.879C164.722 4.07939 164.426 3.3969 164.153 2.9619C163.859 2.49399 163.433 2.05543 162.904 1.74516C162.373 1.43349 161.615 1.1859 160.754 1.35722C159.856 1.53599 159.179 2.10389 158.733 2.79349L162.091 4.9665C162.093 4.96379 162.054 5.02453 161.954 5.09839C161.85 5.17597 161.706 5.24614 161.535 5.28028C161.189 5.3491 160.95 5.23651 160.879 5.19483C160.811 5.15456 160.785 5.12101 160.766 5.09059C160.753 5.06987 160.725 5.02042 160.7 4.93658C160.676 4.8569 160.64 4.69797 160.662 4.48099L164.642 4.879ZM158.502 3.2872C157.731 5.77034 157.314 8.30328 156.989 10.7357L160.954 11.2643C161.27 8.89671 161.653 6.62965 162.322 4.4728L158.502 3.2872ZM156.989 10.7357C156.655 13.2432 156.434 15.5855 156.037 18.0415L159.986 18.6785C160.39 16.1745 160.649 13.5568 160.954 11.2643L156.989 10.7357ZM156.028 18.1041C155.699 20.6568 155.684 23.4577 155.536 25.7512L159.528 26.0088C159.7 23.3423 159.685 21.0232 159.995 18.6159L156.028 18.1041ZM155.534 25.7892C155.462 27.3809 155.172 28.9333 154.695 30.2286L158.449 31.6114C159.091 29.8667 159.442 27.8991 159.53 25.9708L155.534 25.7892ZM158.512 30.4349C158.241 29.3507 157.832 28.1531 156.934 27.0306L153.81 29.5294C154.192 30.0069 154.423 30.5693 154.632 31.4051L158.512 30.4349ZM156.908 26.9996C155.382 25.1683 152.952 23.8274 150.415 23.7217L150.249 27.7183C151.552 27.7726 152.962 28.5117 153.835 29.5604L156.908 26.9996ZM150.474 23.7251C145.933 23.4007 142.637 26.9284 140.87 29.789L144.273 31.891C145.867 29.3116 148.011 27.5593 150.189 27.7149L150.474 23.7251ZM140.885 29.7662C138.531 33.464 136.563 37.9691 135.873 42.7121L139.831 43.2879C140.421 39.2309 142.132 35.256 144.259 31.9137L140.885 29.7662ZM135.878 42.6786C135.272 46.4004 135.44 50.2565 136.759 54.1254L140.545 52.8346C139.464 49.6635 139.312 46.4796 139.826 43.3214L135.878 42.6786ZM136.937 54.509C138.172 56.567 140.298 58.1252 142.791 58.3518L143.153 54.3682C142.126 54.2748 141.052 53.593 140.367 52.451L136.937 54.509ZM142.785 58.3513C146.495 58.699 149.25 55.9425 150.776 53.7384L147.487 51.4616C146.133 53.4175 144.569 54.501 143.159 54.3687L142.785 58.3513ZM150.777 53.7372C154.691 48.0743 157.242 41.8727 159.347 35.6398L155.557 34.3602C153.502 40.4473 151.093 46.2457 147.487 51.4628L150.777 53.7372ZM155.463 35.2094C155.616 36.6628 155.673 38.1082 155.755 39.6465C155.835 41.1534 155.939 42.7298 156.199 44.2888L160.145 43.6312C159.924 42.3102 159.829 40.9266 159.749 39.4335C159.671 37.9718 159.608 36.3772 159.441 34.7906L155.463 35.2094ZM156.205 44.3242C156.622 46.5768 157.257 48.9868 159.024 51.1465L162.12 48.6135C161.007 47.2532 160.521 45.6632 160.138 43.5958L156.205 44.3242ZM151.932 35C151.932 35.5463 152.103 36.0935 152.313 36.5144C152.507 36.9029 152.956 37.6278 153.829 37.977L155.315 34.263C155.574 34.3666 155.725 34.5127 155.79 34.5846C155.857 34.6593 155.885 34.7135 155.891 34.7256C155.898 34.7408 155.903 34.7528 155.908 34.7708C155.909 34.7765 155.932 34.8563 155.932 35H151.932ZM152.691 35.4387C150.708 40.9126 148.479 46.0909 144.938 50.4608L148.046 52.9792C152.025 48.0691 154.436 42.3673 156.452 36.8013L152.691 35.4387ZM144.948 50.4486C144.471 51.0282 144.078 51.3538 143.776 51.5067C143.538 51.6275 143.379 51.6375 143.174 51.5728L141.97 55.3872C144.748 56.2644 146.817 54.4716 148.036 52.9914L144.948 50.4486ZM143.466 51.6911C143.111 51.5133 142.845 51.2272 142.643 50.5718L138.82 51.7482C139.259 53.1728 140.113 54.4867 141.677 55.2689L143.466 51.6911ZM142.611 50.4765C142.392 49.8737 142.252 48.9981 142.252 48.04H138.252C138.252 49.3219 138.431 50.6862 138.852 51.8435L142.611 50.4765ZM142.252 48.04C142.252 47.5219 142.27 46.9973 142.291 46.4427C142.31 45.9013 142.332 45.3232 142.332 44.76H138.332C138.332 45.2368 138.314 45.7387 138.293 46.2973C138.273 46.8427 138.252 47.4381 138.252 48.04H142.252ZM142.295 45.1448C143.083 41.1261 144.071 37.4777 145.974 34.2575L142.53 32.2225C140.273 36.0423 139.181 40.2339 138.369 44.3752L142.295 45.1448ZM145.943 34.308C146.803 32.9464 147.882 31.6483 149.265 30.4105L146.598 27.4295C144.942 28.9117 143.621 30.4935 142.561 32.172L145.943 34.308ZM149.006 30.6073C149.475 30.3084 150.011 30.2627 150.334 30.3867L151.77 26.6533C150.012 25.9773 148.148 26.4116 146.858 27.2327L149.006 30.6073ZM150.464 30.4316C151.169 30.6485 151.583 31.0147 151.743 31.3344L155.321 29.5456C154.521 27.9453 153.015 27.0315 151.64 26.6084L150.464 30.4316ZM151.722 31.2916C151.868 31.6006 151.955 32.0544 151.973 32.7406C151.981 33.0739 151.973 33.4222 151.96 33.807C151.949 34.1728 151.932 34.5985 151.932 35H155.932C155.932 34.6815 155.945 34.3472 155.958 33.9355C155.971 33.5428 155.983 33.0961 155.971 32.6394C155.949 31.7456 155.836 30.6394 155.342 29.5884L151.722 31.2916ZM182.621 54.92L181.924 53.0452L181.913 53.0492L181.903 53.0533L182.621 54.92ZM190.541 49.48L188.902 48.3331L188.893 48.3462L188.884 48.3594L190.541 49.48ZM190.621 46.68L192.536 46.1053L192.494 45.966L192.433 45.8342L190.621 46.68ZM187.901 44.28L187.244 46.169L187.278 46.1809L187.312 46.1916L187.901 44.28ZM182.301 43L181.972 44.9728L182.301 43ZM176.541 42.04L176.148 44.0012L176.18 44.0075L176.212 44.0128L176.541 42.04ZM174.381 41.08L175.795 39.6658L175.717 39.5875L175.63 39.5183L174.381 41.08ZM174.061 39.56L175.899 40.3478L175.957 40.212L175.995 40.069L174.061 39.56ZM175.981 35.16L174.255 34.1486L174.244 34.1685L174.232 34.1887L175.981 35.16ZM181.501 28.76L182.691 30.3671L182.701 30.36L181.501 28.76ZM183.581 27.96V29.96H183.723L183.863 29.9399L183.581 27.96ZM185.181 28.44L183.931 30.0017L184.036 30.0858L184.152 30.155L185.181 28.44ZM186.221 29.32L187.635 27.9058V27.9058L186.221 29.32ZM187.181 30.44L185.766 31.8542L186.677 32.7648L187.883 32.3127L187.181 30.44ZM188.221 29.24H190.221V29.1734L190.216 29.107L188.221 29.24ZM186.461 26.2L187.534 24.5127V24.5127L186.461 26.2ZM183.661 25.32V23.32H183.513L183.368 23.3416L183.661 25.32ZM177.981 28.12L176.685 26.5961L176.676 26.6042L176.666 26.6125L177.981 28.12ZM171.341 38.6L169.481 37.8647L169.436 37.9776L169.405 38.0952L171.341 38.6ZM172.861 43.48L171.674 45.0901L171.763 45.1556L171.859 45.2109L172.861 43.48ZM177.901 45L178.24 43.0291L178.206 43.0231L178.171 43.0183L177.901 45ZM184.781 46.2L185.33 44.277L185.298 44.2678L185.266 44.2597L184.781 46.2ZM187.981 47.48L189.878 46.8475L189.744 46.447L189.461 46.1347L187.981 47.48ZM187.661 48.92L188.972 50.4301L189.025 50.3839L189.075 50.3342L187.661 48.92ZM177.181 53.56L176.858 51.5861L176.852 51.5872L177.181 53.56ZM172.781 53.56L173.413 51.6626L173.384 51.6531L173.355 51.6443L172.781 53.56ZM171.741 51.88H169.741V51.9798L169.751 52.079L171.741 51.88ZM171.661 48.2L172.146 46.2597L171.907 46.2H171.661V48.2ZM171.021 48.36L169.911 46.6959L169.865 46.7267L169.821 46.76L171.021 48.36ZM169.821 50.28L167.923 49.6475L167.884 49.7657L167.859 49.8878L169.821 50.28ZM169.741 53.88L167.861 54.5635L167.88 54.6162L167.902 54.6678L169.741 53.88ZM172.461 56.2L171.623 58.0159L171.891 58.1399L172.184 58.1808L172.461 56.2ZM183.317 56.7949C186.206 55.7217 189.992 53.8607 192.197 50.6006L188.884 48.3594C187.409 50.5393 184.635 52.0383 181.924 53.0452L183.317 56.7949ZM192.179 50.6269C192.808 49.7278 192.908 48.7277 192.879 48.0001C192.849 47.2579 192.677 46.5743 192.536 46.1053L188.705 47.2547C188.804 47.5857 188.872 47.9021 188.882 48.1599C188.893 48.4323 188.833 48.4322 188.902 48.3331L192.179 50.6269ZM192.433 45.8342C191.622 44.0973 190.043 42.8465 188.489 42.3684L187.312 46.1916C187.839 46.3535 188.499 46.8627 188.808 47.5258L192.433 45.8342ZM188.558 42.391C186.536 41.6879 184.538 41.3453 182.629 41.0272L181.972 44.9728C183.903 45.2947 185.585 45.5921 187.244 46.169L188.558 42.391ZM182.629 41.0272L176.869 40.0672L176.212 44.0128L181.972 44.9728L182.629 41.0272ZM176.933 40.0788C176.179 39.9282 175.903 39.7744 175.795 39.6658L172.966 42.4942C173.978 43.5056 175.302 43.8318 176.148 44.0012L176.933 40.0788ZM175.63 39.5183C175.833 39.6804 175.908 39.8631 175.933 39.9761C175.96 40.0977 175.951 40.2264 175.899 40.3478L172.222 38.7722C171.664 40.0743 171.96 41.7047 173.131 42.6417L175.63 39.5183ZM175.995 40.069C176.328 38.8017 176.945 37.5418 177.729 36.1313L174.232 34.1887C173.416 35.6582 172.593 37.2783 172.126 39.051L175.995 40.069ZM177.706 36.1714C178.973 34.0109 180.807 31.7629 182.691 30.3671L180.31 27.1529C177.874 28.9571 175.709 31.6691 174.255 34.1486L177.706 36.1714ZM182.701 30.36C183.165 30.0116 183.387 29.96 183.581 29.96V25.96C182.174 25.96 181.116 26.5484 180.301 27.16L182.701 30.36ZM183.863 29.9399C183.838 29.9435 183.819 29.9444 183.807 29.9445C183.795 29.9446 183.788 29.9439 183.788 29.9438C183.787 29.9437 183.791 29.9441 183.799 29.9458C183.806 29.9475 183.816 29.9501 183.829 29.9541C183.854 29.9623 183.881 29.9736 183.904 29.9859C183.928 29.9986 183.937 30.0062 183.931 30.0017L186.43 26.8783C185.705 26.2984 184.526 25.8046 183.298 25.9801L183.863 29.9399ZM184.152 30.155C184.307 30.2481 184.46 30.388 184.806 30.7342L187.635 27.9058C187.341 27.612 186.854 27.1119 186.21 26.725L184.152 30.155ZM184.806 30.7342C184.866 30.7938 184.928 30.8703 185.101 31.0893C185.253 31.2816 185.476 31.5636 185.766 31.8542L188.595 29.0258C188.485 28.9164 188.389 28.7984 188.24 28.6107C188.113 28.4497 187.895 28.1662 187.635 27.9058L184.806 30.7342ZM187.883 32.3127C188.969 31.9053 190.221 30.8614 190.221 29.24H186.221C186.221 28.9114 186.356 28.7051 186.422 28.6284C186.489 28.5504 186.524 28.5501 186.478 28.5673L187.883 32.3127ZM190.216 29.107C190.151 28.1328 189.807 27.2121 189.361 26.4604C188.919 25.7148 188.296 24.9975 187.534 24.5127L185.387 27.8873C185.505 27.9625 185.722 28.1652 185.92 28.4996C186.115 28.8279 186.21 29.1472 186.225 29.373L190.216 29.107ZM187.534 24.5127C186.412 23.7985 185.165 23.32 183.661 23.32V27.32C184.237 27.32 184.749 27.4814 185.387 27.8873L187.534 24.5127ZM183.368 23.3416C180.711 23.7351 178.454 25.0924 176.685 26.5961L179.276 29.6439C180.707 28.4276 182.29 27.5449 183.954 27.2984L183.368 23.3416ZM176.666 26.6125C173.169 29.6614 170.866 34.3605 169.481 37.8647L173.201 39.3353C174.535 35.9595 176.552 32.0186 179.295 29.6275L176.666 26.6125ZM169.405 38.0952C168.765 40.5512 169.361 43.3853 171.674 45.0901L174.047 41.8699C173.321 41.3347 172.957 40.3288 173.276 39.1048L169.405 38.0952ZM171.859 45.2109C173.715 46.2857 175.781 46.7295 177.63 46.9817L178.171 43.0183C176.5 42.7905 175.046 42.4343 173.863 41.7491L171.859 45.2109ZM177.561 46.9709C180.068 47.4032 182.143 47.6022 184.296 48.1403L185.266 44.2597C182.938 43.6778 180.373 43.3968 178.24 43.0291L177.561 46.9709ZM184.231 48.123C184.574 48.221 184.923 48.2988 185.195 48.361C185.49 48.4283 185.716 48.4818 185.92 48.5438C186.326 48.6671 186.45 48.7695 186.501 48.8253L189.461 46.1347C188.711 45.3105 187.795 44.9329 187.082 44.7162C186.726 44.6082 186.372 44.5267 186.086 44.4615C185.778 44.3912 185.547 44.339 185.33 44.277L184.231 48.123ZM186.083 48.1124C186.059 48.0409 186.047 47.9478 186.069 47.8378C186.093 47.7185 186.155 47.5976 186.246 47.5058L189.075 50.3342C190.085 49.3244 190.242 47.941 189.878 46.8475L186.083 48.1124ZM186.349 47.4099C183.656 49.7491 180.509 50.9901 176.858 51.5861L177.503 55.5339C181.692 54.8499 185.586 53.3709 188.972 50.4301L186.349 47.4099ZM176.852 51.5872C175.335 51.84 174.309 51.9611 173.413 51.6626L172.148 55.4574C174.133 56.1189 176.146 55.76 177.509 55.5328L176.852 51.5872ZM173.355 51.6443C173.377 51.6508 173.463 51.6818 173.565 51.7662C173.669 51.8518 173.733 51.9461 173.767 52.0112C173.795 52.066 173.792 52.0809 173.778 52.0168C173.763 51.9511 173.748 51.8492 173.731 51.681L169.751 52.079C169.793 52.499 169.875 53.1936 170.214 53.8488C170.617 54.6266 171.294 55.202 172.206 55.4757L173.355 51.6443ZM173.741 51.88C173.741 51.572 173.802 51.1926 173.908 50.6078C173.998 50.1133 174.141 49.3782 174.141 48.68H170.141C170.141 48.9418 170.083 49.2867 169.973 49.8922C169.879 50.4074 169.741 51.148 169.741 51.88H173.741ZM174.141 48.68C174.141 47.3956 173.138 46.5079 172.146 46.2597L171.176 50.1403C170.948 50.0834 170.715 49.9518 170.526 49.7387C170.37 49.5638 170.141 49.2101 170.141 48.68H174.141ZM171.661 46.2C171.483 46.2 170.694 46.1741 169.911 46.6959L172.13 50.0241C171.827 50.2259 171.518 50.2 171.661 50.2V46.2ZM169.821 46.76C168.665 47.627 168.187 48.856 167.923 49.6475L171.718 50.9125C171.934 50.264 172.097 50.053 172.221 49.96L169.821 46.76ZM167.859 49.8878C167.762 50.3731 167.65 51.1455 167.604 51.9342C167.564 52.6279 167.547 53.6995 167.861 54.5635L171.62 53.1965C171.634 53.2352 171.606 53.1669 171.592 52.9325C171.578 52.7213 171.58 52.459 171.597 52.1657C171.632 51.5745 171.719 50.9869 171.782 50.6722L167.859 49.8878ZM167.902 54.6678C168.705 56.5411 170.56 57.5254 171.623 58.0159L173.299 54.3841C172.281 53.9146 171.736 53.4589 171.579 53.0922L167.902 54.6678ZM172.184 58.1808C176.009 58.7145 179.952 58.0893 183.339 56.7867L181.903 53.0533C179.049 54.1507 175.792 54.6455 172.737 54.2192L172.184 58.1808Z" fill="#151515"/>
</svg>
