<svg width="294" height="70" viewBox="0 0 294 70" fill="none" xmlns="http://www.w3.org/2000/svg">
<path d="M2.96 67L3.64 65.2L10.64 63.68L33.32 9.36L27.12 7.84L27.84 6.08H46.84C52.4667 6.08 56.9333 7.18666 60.24 9.4C63.5733 11.5867 65.24 14.6 65.24 18.44C65.24 21.1067 64.4533 23.6267 62.88 26C61.3067 28.3467 59.1467 30.3467 56.4 32C53.6533 33.6267 50.5333 34.72 47.04 35.28V35.56C50.2133 36.36 52.6533 37.88 54.36 40.12C56.0667 42.36 56.92 45.1467 56.92 48.48C56.92 52.1867 55.8533 55.44 53.72 58.24C51.6133 61.0133 48.64 63.1733 44.8 64.72C40.9867 66.24 36.52 67 31.4 67H2.96ZM32 33.04H39.4C44.9733 33.04 49.2933 31.76 52.36 29.2C55.4533 26.6133 57 23.0667 57 18.56C57 12.3733 53.6133 9.28 46.84 9.28H42L32 33.04ZM27.2 64C34.1333 64 39.4 62.5467 43 59.64C46.6 56.7067 48.4 52.5333 48.4 47.12C48.4 43.36 47.4 40.6 45.4 38.84C43.4267 37.08 40.4133 36.2 36.36 36.2H30.68L22.4 56.32C21.52 58.4533 21.08 60.0667 21.08 61.16C21.08 62.2 21.5333 62.9333 22.44 63.36C23.3733 63.7867 24.96 64 27.2 64ZM66.0781 67L81.3581 31.68C81.5715 31.12 81.7715 30.5867 81.9581 30.08C82.1448 29.5733 82.2381 29.1333 82.2381 28.76C82.2381 28.12 81.8781 27.8 81.1581 27.8C80.2515 27.8 78.9981 28.4267 77.3981 29.68C75.7981 30.9333 74.2115 32.5467 72.6381 34.52L71.1581 33.28C73.2648 30.5867 75.6115 28.4133 78.1981 26.76C80.7848 25.08 83.1581 24.24 85.3181 24.24C86.4115 24.24 87.2915 24.5867 87.9581 25.28C88.6515 25.9467 88.9981 26.9467 88.9981 28.28C88.9981 29.3467 88.7715 30.48 88.3181 31.68C87.8648 32.88 86.9715 34.5867 85.6381 36.8L85.9981 36.92C88.7448 32.44 91.3448 29.2133 93.7981 27.24C96.2781 25.24 98.8115 24.24 101.398 24.24C103.105 24.24 104.518 24.64 105.638 25.44C106.758 26.24 107.318 27.32 107.318 28.68C107.318 29.7467 107.011 30.6133 106.398 31.28C105.811 31.92 104.958 32.24 103.838 32.24C102.825 32.24 102.065 32 101.558 31.52C101.051 31.04 100.558 30.5733 100.078 30.12C99.5981 29.64 98.8648 29.4 97.8781 29.4C95.6381 29.4 93.1715 31.2667 90.4781 35C87.8115 38.7067 84.6915 44.2667 81.1181 51.68L73.7581 67H66.0781ZM112.955 67.84C110.262 67.84 108.142 66.92 106.595 65.08C105.048 63.2133 104.275 60.6267 104.275 57.32C104.275 54.4667 104.862 51.5067 106.035 48.44C107.208 45.3467 108.795 42.3733 110.795 39.52C112.822 36.64 115.102 34.0533 117.635 31.76C120.195 29.4667 122.848 27.64 125.595 26.28C128.342 24.92 131.022 24.24 133.635 24.24C135.102 24.24 136.328 24.5333 137.315 25.12C138.302 25.68 139.262 26.6267 140.195 27.96L141.475 25.04H149.515L135.955 58.36C135.235 60.12 134.942 61.36 135.075 62.08C135.208 62.7733 135.648 63.12 136.395 63.12C137.168 63.12 138.275 62.56 139.715 61.44C141.155 60.2933 142.982 58.5067 145.195 56.08L146.755 57.2C141.128 64.2933 136.128 67.84 131.755 67.84C128.635 67.84 127.075 66.3067 127.075 63.24C127.075 62.0667 127.248 60.8533 127.595 59.6C127.968 58.3467 128.688 56.88 129.755 55.2L129.275 54.92C126.208 59.4533 123.395 62.7467 120.835 64.8C118.275 66.8267 115.648 67.84 112.955 67.84ZM114.475 65C115.835 65 117.422 64.28 119.235 62.84C121.075 61.4 123.008 59.4133 125.035 56.88C127.088 54.3467 129.088 51.4267 131.035 48.12C133.008 44.8133 134.795 41.28 136.395 37.52C137.168 35.7067 137.648 34.32 137.835 33.36C138.022 32.3733 138.115 31.5067 138.115 30.76C138.115 29.5067 137.768 28.5333 137.075 27.84C136.382 27.1467 135.515 26.8 134.475 26.8C132.902 26.8 131.102 27.5867 129.075 29.16C127.075 30.7067 125.048 32.76 122.995 35.32C120.942 37.8533 119.048 40.6267 117.315 43.64C115.582 46.6533 114.182 49.6267 113.115 52.56C112.048 55.4933 111.515 58.1067 111.515 60.4C111.515 63.4667 112.502 65 114.475 65ZM182.371 67.84C179.251 67.84 177.691 66.4267 177.691 63.6C177.691 61.3333 178.651 58.3067 180.571 54.52L191.331 33.2C191.625 32.64 191.865 32.0133 192.051 31.32C192.238 30.6267 192.331 29.9867 192.331 29.4C192.331 27.8 191.491 27 189.811 27C188.025 27 185.918 28.08 183.491 30.24C181.065 32.3733 178.558 35.2933 175.971 39C173.385 42.7067 170.958 46.9333 168.691 51.68L161.291 67H153.611L168.811 31.68C169.425 30.2933 169.731 29.4 169.731 29C169.731 28.2 169.345 27.8 168.571 27.8C167.665 27.8 166.451 28.4267 164.931 29.68C163.411 30.9067 161.851 32.52 160.251 34.52L158.611 33.28C160.665 30.5067 163.038 28.3067 165.731 26.68C168.451 25.0533 171.078 24.24 173.611 24.24C176.118 24.24 177.371 25.3067 177.371 27.44C177.371 28.5067 177.105 29.7467 176.571 31.16C176.065 32.5467 175.185 34.4267 173.931 36.8L174.251 36.92C177.638 32.44 180.718 29.2267 183.491 27.28C186.265 25.3067 189.105 24.32 192.011 24.32C196.811 24.32 199.211 26.6133 199.211 31.2C199.211 33.4667 198.571 35.8933 197.291 38.48L187.971 57.4C187.518 58.36 187.145 59.2667 186.851 60.12C186.558 60.9467 186.411 61.5867 186.411 62.04C186.411 62.76 186.731 63.12 187.371 63.12C188.305 63.12 189.571 62.5067 191.171 61.28C192.771 60.0267 194.585 58.2667 196.611 56L198.291 57.2C192.585 64.2933 187.278 67.84 182.371 67.84ZM215.37 67.84C209.637 67.84 206.77 64.4 206.77 57.52C206.77 54.56 207.317 51.5333 208.41 48.44C209.53 45.32 211.037 42.32 212.93 39.44C214.85 36.56 217.023 33.9867 219.45 31.72C221.903 29.4267 224.477 27.6133 227.17 26.28C229.863 24.92 232.53 24.24 235.17 24.24C236.69 24.24 237.957 24.5333 238.97 25.12C239.983 25.68 240.983 26.6267 241.97 27.96L251.13 4.24L245.01 3.24L244.65 2.12H259.73L238.49 58.36C237.877 60.04 237.61 61.2533 237.69 62C237.797 62.7467 238.25 63.12 239.05 63.12C239.877 63.12 240.93 62.56 242.21 61.44C243.49 60.2933 245.223 58.5067 247.41 56.08L248.97 57.2C243.743 64.2933 238.903 67.84 234.45 67.84C232.743 67.84 231.517 67.36 230.77 66.4C230.023 65.4133 229.65 63.9867 229.65 62.12C229.65 61.1867 229.85 60.1733 230.25 59.08C230.65 57.96 231.223 56.6667 231.97 55.2L231.77 54.92C228.623 59.5867 225.81 62.9067 223.33 64.88C220.877 66.8533 218.223 67.84 215.37 67.84ZM216.85 65C218.183 65 219.757 64.28 221.57 62.84C223.383 61.3733 225.29 59.3733 227.29 56.84C229.29 54.28 231.237 51.3467 233.13 48.04C235.05 44.7333 236.77 41.2267 238.29 37.52C239.01 35.7067 239.503 34.32 239.77 33.36C240.063 32.4 240.223 31.5333 240.25 30.76C239.877 28.12 238.637 26.8 236.53 26.8C234.93 26.8 233.13 27.5867 231.13 29.16C229.157 30.7333 227.157 32.8 225.13 35.36C223.103 37.92 221.237 40.72 219.53 43.76C217.85 46.7733 216.49 49.76 215.45 52.72C214.41 55.6533 213.89 58.2667 213.89 60.56C213.89 62.1067 214.157 63.24 214.69 63.96C215.25 64.6533 215.97 65 216.85 65ZM267.352 67.84C263.485 67.84 260.379 67.08 258.032 65.56C255.685 64.04 254.512 62.2 254.512 60.04C254.512 59.1067 254.845 58.3067 255.512 57.64C256.179 56.9467 257.045 56.6 258.112 56.6C259.499 56.6 260.432 57 260.912 57.8C261.392 58.6 261.792 59.5067 262.112 60.52C262.459 61.6667 262.965 62.76 263.632 63.8C264.299 64.84 265.685 65.36 267.792 65.36C270.005 65.36 271.779 64.6533 273.112 63.24C274.472 61.8 275.152 59.9733 275.152 57.76C275.152 56.6133 274.819 55.3867 274.152 54.08C273.485 52.7467 272.299 50.9333 270.592 48.64C268.485 45.7867 266.992 43.4267 266.112 41.56C265.259 39.6667 264.832 37.8533 264.832 36.12C264.832 33.9333 265.485 31.9467 266.792 30.16C268.125 28.3467 269.899 26.9067 272.112 25.84C274.325 24.7733 276.779 24.24 279.472 24.24C281.685 24.24 283.712 24.5867 285.552 25.28C287.419 25.9467 288.899 26.84 289.992 27.96C291.112 29.0533 291.672 30.24 291.672 31.52C291.672 32.48 291.325 33.2667 290.632 33.88C289.965 34.4933 289.112 34.8 288.072 34.8C286.045 34.8 284.872 33.64 284.552 31.32C284.285 29.3733 283.859 28.0933 283.272 27.48C282.712 26.8667 281.605 26.56 279.952 26.56C277.605 26.56 275.832 27.2 274.632 28.48C273.432 29.76 272.832 31.48 272.832 33.64C272.832 35 273.179 36.44 273.872 37.96C274.565 39.4533 275.805 41.4667 277.592 44C279.539 46.7467 280.885 48.9733 281.632 50.68C282.405 52.3867 282.792 54.0533 282.792 55.68C282.792 58.0267 282.112 60.12 280.752 61.96C279.392 63.7733 277.539 65.2133 275.192 66.28C272.872 67.32 270.259 67.84 267.352 67.84Z" fill="#151515"/>
<path d="M2.96 67L1.08906 66.2932L0.0664868 69H2.96V67ZM3.64 65.2L3.2156 63.2455L2.15324 63.4762L1.76906 64.4932L3.64 65.2ZM10.64 63.68L11.0644 65.6345L12.0837 65.4131L12.4856 64.4506L10.64 63.68ZM33.32 9.36L35.1656 10.1306L36.066 7.97399L33.7962 7.41752L33.32 9.36ZM27.12 7.84L25.2689 7.08273L24.3905 9.23005L26.6438 9.78247L27.12 7.84ZM27.84 6.07999V4.08H26.4973L25.9889 5.32273L27.84 6.07999ZM60.24 9.4L59.1275 11.062L59.1352 11.0672L59.143 11.0723L60.24 9.4ZM62.88 26L64.5412 27.1138L64.547 27.1051L62.88 26ZM56.4 32L57.4191 33.7209L57.4253 33.7172L57.4314 33.7135L56.4 32ZM47.04 35.28L46.7234 33.3052L45.04 33.5751V35.28H47.04ZM47.04 35.56H45.04V37.1184L46.5511 37.4993L47.04 35.56ZM54.36 40.12L55.9509 38.9079L54.36 40.12ZM53.72 58.24L52.1291 57.0279L52.1274 57.0302L53.72 58.24ZM44.8 64.72L45.5405 66.5779L45.5472 66.5752L44.8 64.72ZM32 33.04L30.1566 32.2642L28.9883 35.04H32V33.04ZM52.36 29.2L53.6417 30.7353L53.643 30.7343L52.36 29.2ZM42 9.28V7.28H40.6718L40.1566 8.50416L42 9.28ZM43 59.64L44.2564 61.1961L44.2633 61.1905L43 59.64ZM45.4 38.84L44.0687 40.3326L44.0787 40.3414L45.4 38.84ZM30.68 36.2V34.2H29.3403L28.8305 35.4389L30.68 36.2ZM22.4 56.32L24.2489 57.0827L24.2495 57.0811L22.4 56.32ZM22.44 63.36L21.5884 65.1696L21.5984 65.1743L21.6085 65.1789L22.44 63.36ZM4.83094 67.7068L5.51094 65.9068L1.76906 64.4932L1.08906 66.2932L4.83094 67.7068ZM4.0644 67.1545L11.0644 65.6345L10.2156 61.7255L3.2156 63.2455L4.0644 67.1545ZM12.4856 64.4506L35.1656 10.1306L31.4744 8.58941L8.79441 62.9094L12.4856 64.4506ZM33.7962 7.41752L27.5962 5.89752L26.6438 9.78247L32.8438 11.3025L33.7962 7.41752ZM28.9711 8.59726L29.6911 6.83726L25.9889 5.32273L25.2689 7.08273L28.9711 8.59726ZM27.84 8.07999H46.84V4.08H27.84V8.07999ZM46.84 8.07999C52.228 8.07999 56.2602 9.14279 59.1275 11.062L61.3525 7.73796C57.6065 5.23053 52.7053 4.08 46.84 4.08V8.07999ZM59.143 11.0723C61.9386 12.9062 63.24 15.3043 63.24 18.44H67.24C67.24 13.8957 65.208 10.2671 61.337 7.72771L59.143 11.0723ZM63.24 18.44C63.24 20.6865 62.5846 22.8259 61.213 24.8949L64.547 27.1051C66.3221 24.4274 67.24 21.5268 67.24 18.44H63.24ZM61.2188 24.8862C59.8296 26.9583 57.8978 28.764 55.3686 30.2865L57.4314 33.7135C60.3955 31.9293 62.7838 29.735 64.5412 27.1138L61.2188 24.8862ZM55.3809 30.2791C52.8726 31.7646 49.9955 32.7807 46.7234 33.3052L47.3566 37.2548C51.0711 36.6593 54.4341 35.4887 57.4191 33.7209L55.3809 30.2791ZM45.04 35.28V35.56H49.04V35.28H45.04ZM46.5511 37.4993C49.3599 38.2074 51.3801 39.5089 52.7691 41.3321L55.9509 38.9079C53.9266 36.2511 51.0668 34.5126 47.5289 33.6207L46.5511 37.4993ZM52.7691 41.3321C54.164 43.1629 54.92 45.5014 54.92 48.48H58.92C58.92 44.792 57.9693 41.5571 55.9509 38.9079L52.7691 41.3321ZM54.92 48.48C54.92 51.7736 53.9824 54.5955 52.1291 57.0279L55.3109 59.4521C57.7243 56.2845 58.92 52.5998 58.92 48.48H54.92ZM52.1274 57.0302C50.2772 59.466 47.6215 61.4274 44.0528 62.8648L45.5472 66.5752C49.6585 64.9192 52.9495 62.5607 55.3126 59.4498L52.1274 57.0302ZM44.0595 62.8622C40.5321 64.2682 36.3269 65 31.4 65V69C36.7131 69 41.4413 68.2118 45.5405 66.5779L44.0595 62.8622ZM31.4 65H2.96V69H31.4V65ZM32 35.04H39.4V31.04H32V35.04ZM39.4 35.04C45.2585 35.04 50.0961 33.6951 53.6417 30.7353L51.0783 27.6646C48.4906 29.8249 44.6882 31.04 39.4 31.04V35.04ZM53.643 30.7343C57.2477 27.72 59 23.5805 59 18.56H55C55 22.5528 53.659 25.5067 51.077 27.6657L53.643 30.7343ZM59 18.56C59 15.1094 58.0472 12.1678 55.8088 10.1233C53.6048 8.11014 50.4924 7.28 46.84 7.28V11.28C49.961 11.28 51.9286 11.9965 53.1112 13.0767C54.2595 14.1255 55 15.8239 55 18.56H59ZM46.84 7.28H42V11.28H46.84V7.28ZM40.1566 8.50416L30.1566 32.2642L33.8434 33.8158L43.8434 10.0558L40.1566 8.50416ZM27.2 66C34.3719 66 40.1614 64.5025 44.2564 61.1961L41.7436 58.0839C38.6387 60.5909 33.8948 62 27.2 62V66ZM44.2633 61.1905C48.4095 57.8122 50.4 53.0232 50.4 47.12H46.4C46.4 52.0434 44.7905 55.6012 41.7367 58.0895L44.2633 61.1905ZM50.4 47.12C50.4 43.0294 49.3073 39.6143 46.7213 37.3386L44.0787 40.3414C45.4927 41.5857 46.4 43.6906 46.4 47.12H50.4ZM46.7312 37.3474C44.2391 35.1247 40.6522 34.2 36.36 34.2V38.2C40.1744 38.2 42.6142 39.0353 44.0688 40.3326L46.7312 37.3474ZM36.36 34.2H30.68V38.2H36.36V34.2ZM28.8305 35.4389L20.5505 55.5589L24.2495 57.0811L32.5295 36.9611L28.8305 35.4389ZM20.5511 55.5573C19.6576 57.7236 19.08 59.6474 19.08 61.16H23.08C23.08 60.486 23.3824 59.1831 24.2489 57.0827L20.5511 55.5573ZM19.08 61.16C19.08 61.9744 19.2599 62.7993 19.7188 63.5416C20.1806 64.2887 20.8426 64.8187 21.5884 65.1696L23.2916 61.5504C23.2067 61.5104 23.1624 61.4774 23.1429 61.4608C23.1251 61.4456 23.1213 61.4386 23.1212 61.4384C23.1208 61.4377 23.1123 61.4246 23.1027 61.3872C23.0926 61.3476 23.08 61.2752 23.08 61.16H19.08ZM21.6085 65.1789C22.9658 65.7995 24.934 66 27.2 66V62C24.986 62 23.7808 61.7739 23.2715 61.5411L21.6085 65.1789ZM66.0781 67L64.2425 66.2059L63.0338 69H66.0781V67ZM81.3581 31.68L83.1937 32.4741L83.2113 32.4334L83.2271 32.392L81.3581 31.68ZM77.3981 29.68L76.1648 28.1055L77.3981 29.68ZM72.6381 34.52L71.3537 36.053L72.9244 37.3691L74.2019 35.7668L72.6381 34.52ZM71.1581 33.28L69.5828 32.0478L68.3913 33.5711L69.8737 34.813L71.1581 33.28ZM78.1981 26.76L79.2752 28.4452L79.2814 28.4412L79.2875 28.4373L78.1981 26.76ZM87.9581 25.28L86.5165 26.6662L86.5436 26.6945L86.5719 26.7217L87.9581 25.28ZM88.3181 31.68L90.1891 32.3868L88.3181 31.68ZM85.6381 36.8L83.925 35.768L82.6361 37.9075L85.0057 38.6974L85.6381 36.8ZM85.9981 36.92L85.3657 38.8174L86.8728 39.3197L87.7032 37.9654L85.9981 36.92ZM93.7981 27.24L95.0516 28.7984L95.0536 28.7968L93.7981 27.24ZM106.398 31.28L104.926 29.9259L104.924 29.9286L106.398 31.28ZM100.078 30.12L98.6639 31.5342L98.6841 31.5544L98.7049 31.574L100.078 30.12ZM90.4781 35L88.8562 33.8299L88.8546 33.832L90.4781 35ZM81.1181 51.68L79.3165 50.8116L79.3154 50.8139L81.1181 51.68ZM73.7581 67V69H75.0161L75.5609 67.8661L73.7581 67ZM67.9137 67.7941L83.1937 32.4741L79.5225 30.8859L64.2425 66.2059L67.9137 67.7941ZM83.2271 32.392C83.4428 31.8259 83.6454 31.2856 83.8348 30.7714L80.0814 29.3886C79.8976 29.8877 79.7002 30.4141 79.4892 30.968L83.2271 32.392ZM83.8348 30.7714C84.0698 30.1336 84.2381 29.4493 84.2381 28.76H80.2381C80.2381 28.8173 80.2198 29.0131 80.0814 29.3886L83.8348 30.7714ZM84.2381 28.76C84.2381 28.0667 84.0323 27.1989 83.2969 26.5452C82.6063 25.9314 81.7722 25.8 81.1581 25.8V29.8C81.2641 29.8 80.97 29.8287 80.6394 29.5348C80.2639 29.2011 80.2381 28.8133 80.2381 28.76H84.2381ZM81.1581 25.8C80.2707 25.8 79.411 26.0975 78.6437 26.4811C77.8569 26.8746 77.0276 27.4297 76.1648 28.1055L78.6314 31.2545C79.3686 30.677 79.9661 30.2921 80.4326 30.0589C80.6629 29.9437 80.8407 29.8759 80.9704 29.8383C81.1008 29.8004 81.1589 29.8 81.1581 29.8V25.8ZM76.1648 28.1055C74.417 29.4746 72.7224 31.2061 71.0743 33.2732L74.2019 35.7668C75.7005 33.8872 77.1792 32.392 78.6314 31.2545L76.1648 28.1055ZM73.9226 32.987L72.4426 31.747L69.8737 34.813L71.3537 36.053L73.9226 32.987ZM72.7335 34.5122C74.7166 31.9768 76.8995 29.9637 79.2752 28.4452L77.121 25.0748C74.3235 26.8629 71.813 29.1965 69.5828 32.0478L72.7335 34.5122ZM79.2875 28.4373C81.6822 26.882 83.6771 26.24 85.3181 26.24V22.24C82.6392 22.24 79.8874 23.278 77.1088 25.0827L79.2875 28.4373ZM85.3181 26.24C85.9489 26.24 86.2798 26.4201 86.5165 26.6662L89.3998 23.8938C88.3031 22.7532 86.8741 22.24 85.3181 22.24V26.24ZM86.5719 26.7217C86.7411 26.8843 86.9981 27.2754 86.9981 28.28H90.9981C90.9981 26.618 90.5618 25.009 89.3443 23.8383L86.5719 26.7217ZM86.9981 28.28C86.9981 29.0618 86.832 29.9545 86.4472 30.9732L90.1891 32.3868C90.7109 31.0055 90.9981 29.6316 90.9981 28.28H86.9981ZM86.4472 30.9732C86.0605 31.9967 85.2453 33.5763 83.925 35.768L87.3513 37.832C88.6977 35.597 89.669 33.7633 90.1891 32.3868L86.4472 30.9732ZM85.0057 38.6974L85.3657 38.8174L86.6306 35.0226L86.2706 34.9026L85.0057 38.6974ZM87.7032 37.9654C90.399 33.5683 92.8573 30.5635 95.0516 28.7984L92.5446 25.6816C89.8323 27.8632 87.0906 31.3117 84.2931 35.8746L87.7032 37.9654ZM95.0536 28.7968C97.2628 27.0152 99.3665 26.24 101.398 26.24V22.24C98.2564 22.24 95.2934 23.4648 92.5426 25.6832L95.0536 28.7968ZM101.398 26.24C102.789 26.24 103.769 26.5626 104.476 27.0675L106.801 23.8125C105.267 22.7174 103.42 22.24 101.398 22.24V26.24ZM104.476 27.0675C105.078 27.4974 105.318 27.9751 105.318 28.68H109.318C109.318 26.6649 108.439 24.9826 106.801 23.8125L104.476 27.0675ZM105.318 28.68C105.318 29.3397 105.141 29.6926 104.926 29.9259L107.87 32.6341C108.882 31.5341 109.318 30.1536 109.318 28.68H105.318ZM104.924 29.9286C104.819 30.0434 104.57 30.24 103.838 30.24V34.24C105.346 34.24 106.804 33.7966 107.872 32.6314L104.924 29.9286ZM103.838 30.24C103.483 30.24 103.251 30.1972 103.11 30.1528C102.978 30.1111 102.938 30.072 102.934 30.0681L100.183 32.9719C101.199 33.9351 102.543 34.24 103.838 34.24V30.24ZM102.934 30.0681C102.426 29.5874 101.932 29.1201 101.451 28.666L98.7049 31.574C99.1841 32.0266 99.6767 32.4926 100.183 32.9719L102.934 30.0681ZM101.492 28.7058C100.496 27.7093 99.1545 27.4 97.8781 27.4V31.4C98.575 31.4 98.7004 31.5707 98.6639 31.5342L101.492 28.7058ZM97.8781 27.4C96.1836 27.4 94.5921 28.1073 93.1412 29.2052C91.6921 30.3018 90.2683 31.8725 88.8562 33.8299L92.1001 36.1701C93.3813 34.3942 94.5375 33.1648 95.555 32.3948C96.5709 31.6261 97.3326 31.4 97.8781 31.4V27.4ZM88.8546 33.832C86.0864 37.6798 82.9071 43.3624 79.3165 50.8116L82.9198 52.5484C86.4758 45.1709 89.5365 39.7336 92.1016 36.168L88.8546 33.832ZM79.3154 50.8139L71.9554 66.1339L75.5609 67.8661L82.9209 52.5461L79.3154 50.8139ZM73.7581 65H66.0781V69H73.7581V65ZM106.595 65.08L105.055 66.356L105.059 66.3615L105.064 66.3669L106.595 65.08ZM106.035 48.44L107.903 49.1547L107.905 49.1493L106.035 48.44ZM110.795 39.52L109.159 38.369L109.157 38.372L110.795 39.52ZM117.635 31.76L116.3 30.2703L116.293 30.2773L117.635 31.76ZM125.595 26.28L126.482 28.0723V28.0723L125.595 26.28ZM137.315 25.12L136.293 26.8391L136.31 26.8494L136.328 26.8594L137.315 25.12ZM140.195 27.96L138.557 29.1069L140.598 32.0229L142.027 28.763L140.195 27.96ZM141.475 25.04V23.04H140.168L139.643 24.237L141.475 25.04ZM149.515 25.04L151.367 25.7939L152.488 23.04H149.515V25.04ZM135.955 58.36L137.806 59.1173L137.807 59.1139L135.955 58.36ZM135.075 62.08L133.108 62.4442L133.111 62.4577L135.075 62.08ZM139.715 61.44L140.943 63.0187L140.952 63.0117L140.961 63.0046L139.715 61.44ZM145.195 56.08L146.361 54.4554L144.916 53.4178L143.717 54.7322L145.195 56.08ZM146.755 57.2L148.322 58.4429L149.626 56.7991L147.921 55.5754L146.755 57.2ZM127.595 59.6L125.678 59.029L125.673 59.0479L125.667 59.0668L127.595 59.6ZM129.755 55.2L131.443 56.272L132.557 54.5188L130.763 53.4724L129.755 55.2ZM129.275 54.92L130.283 53.1924L128.667 52.2498L127.618 53.7994L129.275 54.92ZM120.835 64.8L122.076 66.3681L122.086 66.3602L120.835 64.8ZM119.235 62.84L118.002 61.265L117.997 61.2694L117.991 61.2738L119.235 62.84ZM125.035 56.88L123.481 55.6206L123.473 55.6306L125.035 56.88ZM131.035 48.12L129.318 47.0951L129.311 47.1054L131.035 48.12ZM136.395 37.52L134.555 36.7354L134.555 36.7369L136.395 37.52ZM137.835 33.36L139.798 33.7417L139.8 33.7318L137.835 33.36ZM137.075 27.84L135.661 29.2542V29.2542L137.075 27.84ZM129.075 29.16L130.299 30.7421L130.301 30.7398L129.075 29.16ZM122.995 35.32L124.549 36.5793L124.555 36.5714L122.995 35.32ZM117.315 43.64L115.581 42.6428L117.315 43.64ZM113.115 52.56L114.995 53.2435L113.115 52.56ZM112.955 65.84C110.772 65.84 109.244 65.1231 108.126 63.7931L105.064 66.3669C107.039 68.7169 109.751 69.84 112.955 69.84V65.84ZM108.135 63.804C106.978 62.4077 106.275 60.3299 106.275 57.32H102.275C102.275 60.9234 103.118 64.0189 105.055 66.356L108.135 63.804ZM106.275 57.32C106.275 54.7449 106.804 52.0271 107.903 49.1547L104.167 47.7253C102.919 50.9862 102.275 54.1885 102.275 57.32H106.275ZM107.905 49.1493C109.016 46.2193 110.523 43.3925 112.433 40.6679L109.157 38.372C107.067 41.3542 105.4 44.474 104.165 47.7307L107.905 49.1493ZM112.431 40.671C114.375 37.9084 116.557 35.4337 118.977 33.2427L116.293 30.2773C113.646 32.673 111.269 35.3716 109.159 38.369L112.431 40.671ZM118.969 33.2497C121.411 31.0626 123.916 29.3431 126.482 28.0723L124.708 24.4877C121.781 25.9369 118.979 27.8708 116.301 30.2703L118.969 33.2497ZM126.482 28.0723C129.001 26.8254 131.378 26.24 133.635 26.24V22.24C130.665 22.24 127.683 23.0146 124.708 24.4877L126.482 28.0723ZM133.635 26.24C134.84 26.24 135.69 26.4807 136.293 26.8391L138.337 23.4009C136.966 22.5859 135.363 22.24 133.635 22.24V26.24ZM136.328 26.8594C136.969 27.2233 137.725 27.9188 138.557 29.1069L141.833 26.8131C140.798 25.3345 139.634 24.1367 138.302 23.3806L136.328 26.8594ZM142.027 28.763L143.307 25.843L139.643 24.237L138.363 27.157L142.027 28.763ZM141.475 27.04H149.515V23.04H141.475V27.04ZM147.663 24.2861L134.103 57.6061L137.807 59.1139L151.367 25.7939L147.663 24.2861ZM134.104 57.6027C133.722 58.5371 133.428 59.3921 133.249 60.1496C133.079 60.869 132.967 61.6792 133.108 62.4442L137.042 61.7158C137.05 61.7608 137.018 61.591 137.141 61.0704C137.255 60.5879 137.468 59.9429 137.806 59.1173L134.104 57.6027ZM133.111 62.4577C133.244 63.1497 133.579 63.8889 134.267 64.431C134.942 64.9624 135.722 65.12 136.395 65.12V61.12C136.321 61.12 136.508 61.1043 136.743 61.289C136.991 61.4844 137.039 61.7036 137.039 61.7023L133.111 62.4577ZM136.395 65.12C137.229 65.12 138.026 64.8299 138.708 64.4845C139.416 64.1264 140.164 63.6244 140.943 63.0187L138.487 59.8613C137.826 60.3756 137.301 60.7136 136.902 60.9155C136.478 61.1301 136.334 61.12 136.395 61.12V65.12ZM140.961 63.0046C142.524 61.7598 144.434 59.8822 146.673 57.4278L143.717 54.7322C141.529 57.1311 139.786 58.8269 138.469 59.8754L140.961 63.0046ZM144.029 57.7046L145.589 58.8246L147.921 55.5754L146.361 54.4554L144.029 57.7046ZM145.188 55.9571C142.442 59.4191 139.919 61.9235 137.628 63.5487C135.334 65.1756 133.391 65.84 131.755 65.84V69.84C134.493 69.84 137.236 68.7311 139.942 66.8113C142.651 64.8899 145.441 62.0743 148.322 58.4429L145.188 55.9571ZM131.755 65.84C130.495 65.84 129.919 65.5305 129.647 65.2636C129.382 65.003 129.075 64.4562 129.075 63.24H125.075C125.075 65.0904 125.548 66.8437 126.843 68.1164C128.131 69.3828 129.895 69.84 131.755 69.84V65.84ZM129.075 63.24C129.075 62.2651 129.219 61.2314 129.523 60.1332L125.667 59.0668C125.278 60.4753 125.075 61.8682 125.075 63.24H129.075ZM129.512 60.171C129.813 59.1609 130.43 57.8684 131.443 56.272L128.067 54.128C126.947 55.8916 126.124 57.5325 125.678 59.029L129.512 60.171ZM130.763 53.4724L130.283 53.1924L128.267 56.6476L128.747 56.9276L130.763 53.4724ZM127.618 53.7994C124.6 58.2617 121.918 61.3677 119.584 63.2398L122.086 66.3602C124.872 64.1256 127.817 60.6449 130.932 56.0406L127.618 53.7994ZM119.594 63.2319C117.31 65.0401 115.108 65.84 112.955 65.84V69.84C116.189 69.84 119.24 68.6132 122.076 66.3681L119.594 63.2319ZM114.475 67C116.509 67 118.537 65.9479 120.479 64.4062L117.991 61.2738C116.306 62.6121 115.161 63 114.475 63V67ZM120.468 64.415C122.466 62.8508 124.508 60.7407 126.597 58.1294L123.473 55.6306C121.509 58.086 119.684 59.9492 118.002 61.265L120.468 64.415ZM126.589 58.1393C128.714 55.5167 130.77 52.5125 132.759 49.1346L129.311 47.1054C127.407 50.3409 125.462 53.1766 123.481 55.6207L126.589 58.1393ZM132.752 49.1449C134.775 45.756 136.602 42.1414 138.235 38.3031L134.555 36.7369C132.988 40.4186 131.242 43.8707 129.318 47.0951L132.752 49.1449ZM138.235 38.3046C139.019 36.4644 139.57 34.918 139.798 33.7417L135.872 32.9783C135.727 33.722 135.317 34.9489 134.555 36.7354L138.235 38.3046ZM139.8 33.7318C140.003 32.6615 140.115 31.6656 140.115 30.76H136.115C136.115 31.3477 136.041 32.0852 135.87 32.9882L139.8 33.7318ZM140.115 30.76C140.115 29.131 139.654 27.591 138.489 26.4258L135.661 29.2542C135.882 29.4757 136.115 29.8824 136.115 30.76H140.115ZM138.489 26.4258C137.396 25.3329 136.01 24.8 134.475 24.8V28.8C135.02 28.8 135.367 28.9605 135.661 29.2542L138.489 26.4258ZM134.475 24.8C132.254 24.8 130.022 25.8929 127.849 27.5802L130.301 30.7398C132.181 29.2804 133.549 28.8 134.475 28.8V24.8ZM127.852 27.5779C125.696 29.2448 123.559 31.4198 121.435 34.0686L124.555 36.5714C126.537 34.1001 128.454 32.1685 130.298 30.7421L127.852 27.5779ZM121.441 34.0607C119.317 36.6817 117.364 39.5434 115.581 42.6428L119.049 44.6372C120.733 41.7099 122.566 39.025 124.549 36.5793L121.441 34.0607ZM115.581 42.6428C113.797 45.7451 112.346 48.8231 111.235 51.8765L114.995 53.2435C116.018 50.4302 117.367 47.5615 119.049 44.6372L115.581 42.6428ZM111.235 51.8765C110.116 54.9552 109.515 57.8062 109.515 60.4H113.515C113.515 58.4071 113.981 56.0315 114.995 53.2435L111.235 51.8765ZM109.515 60.4C109.515 62.0837 109.774 63.6908 110.573 64.9323C111.469 66.3249 112.875 67 114.475 67V63C114.243 63 114.138 62.9562 114.1 62.9366C114.069 62.9205 114.013 62.8857 113.937 62.7677C113.749 62.4759 113.515 61.783 113.515 60.4H109.515ZM180.571 54.52L182.355 55.4245L182.357 55.4211L180.571 54.52ZM191.331 33.2L189.56 32.272L189.553 32.2854L189.546 32.2989L191.331 33.2ZM192.051 31.32L190.12 30.8V30.8001L192.051 31.32ZM183.491 30.24L184.812 31.7421L184.821 31.7339L183.491 30.24ZM168.691 51.68L170.492 52.5499L170.496 52.5418L168.691 51.68ZM161.291 67V69H162.546L163.092 67.8699L161.291 67ZM153.611 67L151.774 66.2094L150.573 69H153.611V67ZM168.811 31.68L166.982 30.871L166.978 30.8802L166.974 30.8894L168.811 31.68ZM164.931 29.68L166.187 31.2364L166.195 31.2298L166.204 31.2231L164.931 29.68ZM160.251 34.52L159.045 36.1153L160.597 37.289L161.813 35.7694L160.251 34.52ZM158.611 33.28L157.004 32.0899L155.826 33.6812L157.405 34.8753L158.611 33.28ZM165.731 26.68L164.705 24.9635L164.697 24.968L165.731 26.68ZM176.571 31.16L174.7 30.4539L174.696 30.4637L174.693 30.4736L176.571 31.16ZM173.931 36.8L172.163 35.8661L171.102 37.875L173.229 38.6727L173.931 36.8ZM174.251 36.92L173.549 38.7927L174.947 39.3167L175.847 38.1261L174.251 36.92ZM183.491 27.28L184.64 28.917L184.651 28.9096L183.491 27.28ZM197.291 38.48L195.499 37.593L195.497 37.5962L197.291 38.48ZM187.971 57.4L186.177 56.5162L186.17 56.531L186.163 56.546L187.971 57.4ZM186.851 60.12L188.736 60.7888L188.739 60.7795L188.743 60.7702L186.851 60.12ZM191.171 61.28L192.388 62.8672L192.396 62.8609L192.405 62.8545L191.171 61.28ZM196.611 56L197.774 54.3725L196.315 53.3307L195.12 54.6669L196.611 56ZM198.291 57.2L199.85 58.4537L201.177 56.8035L199.454 55.5725L198.291 57.2ZM182.371 65.84C181.073 65.84 180.473 65.5418 180.204 65.2978C179.972 65.0878 179.691 64.6513 179.691 63.6H175.691C175.691 65.3753 176.19 67.0588 177.518 68.2622C178.809 69.4315 180.549 69.84 182.371 69.84V65.84ZM179.691 63.6C179.691 61.8161 180.474 59.1349 182.355 55.4245L178.787 53.6155C176.829 57.4785 175.691 60.8506 175.691 63.6H179.691ZM182.357 55.4211L193.117 34.1011L189.546 32.2989L178.786 53.6189L182.357 55.4211ZM193.103 34.128C193.473 33.4221 193.763 32.656 193.982 31.8399L190.12 30.8001C189.966 31.3707 189.777 31.8579 189.56 32.272L193.103 34.128ZM193.982 31.8399C194.205 31.0134 194.331 30.1963 194.331 29.4H190.331C190.331 29.7771 190.271 30.2399 190.12 30.8L193.982 31.8399ZM194.331 29.4C194.331 28.2662 194.029 27.0547 193.081 26.1517C192.151 25.2661 190.936 25 189.811 25V29C190.367 29 190.412 29.1339 190.322 29.0483C190.281 29.0093 190.275 28.9806 190.286 29.0107C190.3 29.0515 190.331 29.1694 190.331 29.4H194.331ZM189.811 25C187.266 25 184.686 26.4986 182.161 28.7461L184.821 31.7339C187.149 29.6614 188.783 29 189.811 29V25ZM182.171 28.7379C179.586 31.0098 176.976 34.0651 174.331 37.8554L177.611 40.1445C180.14 36.5215 182.543 33.7368 184.812 31.7421L182.171 28.7379ZM174.331 37.8554C171.673 41.6648 169.193 45.9885 166.886 50.8182L170.496 52.5418C172.723 47.8782 175.096 43.7485 177.611 40.1445L174.331 37.8554ZM166.89 50.8101L159.49 66.1301L163.092 67.8699L170.492 52.5499L166.89 50.8101ZM161.291 65H153.611V69H161.291V65ZM155.448 67.7906L170.648 32.4706L166.974 30.8894L151.774 66.2094L155.448 67.7906ZM170.64 32.489C170.958 31.7705 171.213 31.1424 171.393 30.6194C171.547 30.171 171.731 29.5664 171.731 29H167.731C167.731 28.8763 167.75 28.8353 167.728 28.9311C167.709 29.009 167.673 29.1356 167.61 29.3206C167.482 29.691 167.278 30.2028 166.982 30.871L170.64 32.489ZM171.731 29C171.731 28.3084 171.565 27.4193 170.879 26.71C170.181 25.988 169.284 25.8 168.571 25.8V29.8C168.632 29.8 168.314 29.812 168.003 29.49C167.704 29.1807 167.731 28.8916 167.731 29H171.731ZM168.571 25.8C167.678 25.8 166.822 26.1011 166.063 26.493C165.289 26.8932 164.485 27.4559 163.659 28.1369L166.204 31.2231C166.898 30.6507 167.46 30.2735 167.899 30.047C168.115 29.9353 168.281 29.8708 168.401 29.8355C168.52 29.8001 168.573 29.8 168.571 29.8V25.8ZM163.675 28.1236C162.014 29.4643 160.354 31.1903 158.69 33.2706L161.813 35.7694C163.349 33.8497 164.809 32.349 166.187 31.2364L163.675 28.1236ZM161.457 32.9247L159.817 31.6847L157.405 34.8753L159.045 36.1153L161.457 32.9247ZM160.219 34.4701C162.132 31.8861 164.316 29.8712 166.765 28.392L164.697 24.968C161.76 26.7421 159.197 29.1272 157.004 32.0899L160.219 34.4701ZM166.758 28.3965C169.245 26.9092 171.52 26.24 173.611 26.24V22.24C170.636 22.24 167.658 23.1975 164.705 24.9635L166.758 28.3965ZM173.611 26.24C174.628 26.24 175.018 26.4632 175.135 26.5631C175.191 26.6104 175.371 26.7736 175.371 27.44H179.371C179.371 25.9731 178.925 24.5362 177.727 23.5169C176.592 22.5502 175.101 22.24 173.611 22.24V26.24ZM175.371 27.44C175.371 28.1877 175.181 29.1797 174.7 30.4539L178.442 31.8661C179.028 30.3136 179.371 28.8257 179.371 27.44H175.371ZM174.693 30.4736C174.233 31.7331 173.402 33.5193 172.163 35.8661L175.7 37.7339C176.967 35.334 177.897 33.3602 178.45 31.8464L174.693 30.4736ZM173.229 38.6727L173.549 38.7927L174.954 35.0473L174.633 34.9273L173.229 38.6727ZM175.847 38.1261C179.179 33.7181 182.112 30.6914 184.64 28.917L182.342 25.643C179.323 27.762 176.097 31.1619 172.656 35.7139L175.847 38.1261ZM184.651 28.9096C187.145 27.1348 189.588 26.32 192.011 26.32V22.32C188.621 22.32 185.384 23.4786 182.332 25.6504L184.651 28.9096ZM192.011 26.32C194.125 26.32 195.339 26.8264 196.03 27.486C196.703 28.1293 197.211 29.2387 197.211 31.2H201.211C201.211 28.5746 200.52 26.2441 198.793 24.594C197.083 22.9602 194.697 22.32 192.011 22.32V26.32ZM197.211 31.2C197.211 33.0866 196.678 35.209 195.499 37.593L199.084 39.367C200.464 36.5777 201.211 33.8467 201.211 31.2H197.211ZM195.497 37.5962L186.177 56.5162L189.765 58.2838L199.085 39.3638L195.497 37.5962ZM186.163 56.546C185.683 57.5611 185.281 58.5363 184.96 59.4698L188.743 60.7702C189.008 59.9971 189.352 59.1589 189.78 58.254L186.163 56.546ZM184.966 59.4512C184.654 60.3307 184.411 61.2342 184.411 62.04H188.411C188.411 61.9391 188.462 61.5626 188.736 60.7888L184.966 59.4512ZM184.411 62.04C184.411 62.6541 184.543 63.4882 185.156 64.1787C185.81 64.9142 186.678 65.12 187.371 65.12V61.12C187.425 61.12 187.812 61.1458 188.146 61.5213C188.44 61.8518 188.411 62.1459 188.411 62.04H184.411ZM187.371 65.12C188.254 65.12 189.114 64.8374 189.893 64.4601C190.688 64.0751 191.523 63.5308 192.388 62.8672L189.954 59.6928C189.22 60.2558 188.621 60.6316 188.15 60.8599C187.662 61.0959 187.422 61.12 187.371 61.12V65.12ZM192.405 62.8545C194.131 61.5022 196.031 59.649 198.102 57.3331L195.12 54.6669C193.138 56.8843 191.412 58.5511 189.938 59.7055L192.405 62.8545ZM195.449 57.6275L197.129 58.8275L199.454 55.5725L197.774 54.3725L195.449 57.6275ZM196.733 55.9463C191.103 62.9437 186.315 65.84 182.371 65.84V69.84C188.241 69.84 194.066 65.6429 199.85 58.4537L196.733 55.9463ZM208.41 48.44L206.528 47.7643L206.524 47.7735L208.41 48.44ZM212.93 39.44L211.266 38.3306L211.259 38.3413L212.93 39.44ZM219.45 31.72L220.815 33.1816L220.816 33.1811L219.45 31.72ZM227.17 26.28L228.057 28.0724L228.064 28.0689L228.071 28.0653L227.17 26.28ZM238.97 25.12L237.968 26.8509L237.985 26.8608L238.003 26.8705L238.97 25.12ZM241.97 27.96L240.362 29.1497L242.526 32.073L243.836 28.6805L241.97 27.96ZM251.13 4.24L252.996 4.96048L253.883 2.66328L251.453 2.26617L251.13 4.24ZM245.01 3.24L243.106 3.85201L243.48 5.01656L244.687 5.21382L245.01 3.24ZM244.65 2.12V0.119996H241.906L242.746 2.73201L244.65 2.12ZM259.73 2.12L261.601 2.82662L262.623 0.119996H259.73V2.12ZM238.49 58.36L236.619 57.6534L236.615 57.6637L236.611 57.6741L238.49 58.36ZM237.69 62L235.701 62.2131L235.705 62.248L235.71 62.2828L237.69 62ZM242.21 61.44L243.527 62.9452L243.536 62.9375L243.544 62.9297L242.21 61.44ZM247.41 56.08L248.576 54.4554L247.122 53.4115L245.924 54.7412L247.41 56.08ZM248.97 57.2L250.58 58.3864L251.781 56.7563L250.136 55.5754L248.97 57.2ZM230.77 66.4L229.175 67.6069L229.183 67.6174L229.191 67.6279L230.77 66.4ZM230.25 59.08L232.128 59.7672L232.131 59.7599L232.133 59.7527L230.25 59.08ZM231.97 55.2L233.752 56.1074L234.303 55.0254L233.597 54.0375L231.97 55.2ZM231.77 54.92L233.397 53.7575L231.723 51.4128L230.112 53.8019L231.77 54.92ZM223.33 64.88L222.085 63.315L222.076 63.3216L223.33 64.88ZM221.57 62.84L222.814 64.4062L222.821 64.4007L222.828 64.395L221.57 62.84ZM227.29 56.84L228.86 58.0793L228.866 58.0713L227.29 56.84ZM233.13 48.04L231.4 47.0357L231.394 47.0462L233.13 48.04ZM238.29 37.52L240.14 38.2788L240.145 38.2685L240.149 38.2581L238.29 37.52ZM239.77 33.36L237.857 32.7756L237.85 32.8L237.843 32.8247L239.77 33.36ZM240.25 30.76L242.249 30.8289L242.255 30.6536L242.23 30.48L240.25 30.76ZM231.13 29.16L229.893 27.5881L229.883 27.5962L231.13 29.16ZM225.13 35.36L226.698 36.6014L225.13 35.36ZM219.53 43.76L217.786 42.7809L217.783 42.7861L219.53 43.76ZM215.45 52.72L217.335 53.3883L217.337 53.383L215.45 52.72ZM214.69 63.96L213.083 65.1505L213.108 65.1841L213.134 65.2167L214.69 63.96ZM215.37 65.84C212.917 65.84 211.408 65.1216 210.456 63.9796C209.447 62.7678 208.77 60.7315 208.77 57.52H204.77C204.77 61.1885 205.527 64.3122 207.384 66.5404C209.299 68.8384 212.089 69.84 215.37 69.84V65.84ZM208.77 57.52C208.77 54.8103 209.27 52.0088 210.296 49.1065L206.524 47.7735C205.363 51.0578 204.77 54.3097 204.77 57.52H208.77ZM210.292 49.1157C211.357 46.1504 212.791 43.2918 214.601 40.5387L211.259 38.3413C209.282 41.3482 207.703 44.4896 206.528 47.7643L210.292 49.1157ZM214.594 40.5494C216.432 37.7925 218.506 35.3384 220.815 33.1816L218.085 30.2584C215.541 32.6349 213.268 35.3275 211.266 38.3306L214.594 40.5494ZM220.816 33.1811C223.143 31.0055 225.558 29.3097 228.057 28.0724L226.283 24.4876C223.395 25.917 220.664 27.8479 218.084 30.2589L220.816 33.1811ZM228.071 28.0653C230.525 26.8262 232.885 26.24 235.17 26.24V22.24C232.175 22.24 229.201 23.0138 226.269 24.4947L228.071 28.0653ZM235.17 26.24C236.441 26.24 237.337 26.4855 237.968 26.8509L239.972 23.3891C238.576 22.5811 236.939 22.24 235.17 22.24V26.24ZM238.003 26.8705C238.681 27.2451 239.478 27.9546 240.362 29.1497L243.578 26.7703C242.489 25.2987 241.286 24.1149 239.937 23.3695L238.003 26.8705ZM243.836 28.6805L252.996 4.96048L249.264 3.51951L240.104 27.2395L243.836 28.6805ZM251.453 2.26617L245.333 1.26617L244.687 5.21382L250.807 6.21382L251.453 2.26617ZM246.914 2.62798L246.554 1.50798L242.746 2.73201L243.106 3.85201L246.914 2.62798ZM244.65 4.12H259.73V0.119996H244.65V4.12ZM257.859 1.41338L236.619 57.6534L240.361 59.0666L261.601 2.82662L257.859 1.41338ZM236.611 57.6741C236 59.3487 235.567 60.9574 235.701 62.2131L239.679 61.7869C239.653 61.5493 239.753 60.7313 240.369 59.0459L236.611 57.6741ZM235.71 62.2828C235.813 63.0052 236.127 63.7977 236.839 64.3839C237.534 64.9568 238.354 65.12 239.05 65.12V61.12C238.946 61.12 239.139 61.0966 239.381 61.2961C239.64 61.5089 239.673 61.7415 239.67 61.7172L235.71 62.2828ZM239.05 65.12C240.665 65.12 242.206 64.1008 243.527 62.9452L240.893 59.9348C240.324 60.4327 239.868 60.7495 239.521 60.9341C239.164 61.1239 239.023 61.12 239.05 61.12V65.12ZM243.544 62.9297C244.905 61.7105 246.696 59.8604 248.896 57.4188L245.924 54.7412C243.751 57.153 242.075 58.8762 240.876 59.9503L243.544 62.9297ZM246.244 57.7047L247.804 58.8246L250.136 55.5754L248.576 54.4554L246.244 57.7047ZM247.36 56.0136C242.173 63.0535 237.858 65.84 234.45 65.84V69.84C239.948 69.84 245.314 65.5332 250.58 58.3864L247.36 56.0136ZM234.45 65.84C233.097 65.84 232.58 65.4693 232.349 65.1721L229.191 67.6279C230.453 69.2507 232.389 69.84 234.45 69.84V65.84ZM232.365 65.1931C231.985 64.6908 231.65 63.7613 231.65 62.12H227.65C227.65 64.212 228.062 66.1359 229.175 67.6069L232.365 65.1931ZM231.65 62.12C231.65 61.471 231.79 60.6927 232.128 59.7672L228.372 58.3928C227.91 59.654 227.65 60.9023 227.65 62.12H231.65ZM232.133 59.7527C232.496 58.7368 233.031 57.5246 233.752 56.1074L230.188 54.2926C229.416 55.8088 228.804 57.1832 228.367 58.4073L232.133 59.7527ZM233.597 54.0375L233.397 53.7575L230.143 56.0825L230.343 56.3625L233.597 54.0375ZM230.112 53.8019C227.005 58.409 224.327 61.5308 222.085 63.315L224.575 66.445C227.293 64.2825 230.241 60.7644 233.428 56.0381L230.112 53.8019ZM222.076 63.3216C219.939 65.0406 217.72 65.84 215.37 65.84V69.84C218.727 69.84 221.814 68.6661 224.584 66.4384L222.076 63.3216ZM216.85 67C218.864 67 220.881 65.9409 222.814 64.4062L220.326 61.2738C218.632 62.6191 217.503 63 216.85 63V67ZM222.828 64.395C224.791 62.8071 226.8 60.6882 228.86 58.0793L225.72 55.6007C223.78 58.0585 221.976 59.9396 220.312 61.285L222.828 64.395ZM228.866 58.0713C230.934 55.4245 232.933 52.4096 234.866 49.0338L231.394 47.0462C229.541 50.2838 227.646 53.1355 225.714 55.6087L228.866 58.0713ZM234.86 49.0443C236.828 45.655 238.587 42.066 240.14 38.2788L236.44 36.7612C234.953 40.3874 233.272 43.8117 231.4 47.0357L234.86 49.0443ZM240.149 38.2581C240.875 36.4284 241.401 34.9615 241.697 33.8953L237.843 32.8247C237.606 33.6785 237.145 34.9849 236.431 36.7819L240.149 38.2581ZM241.683 33.9444C242.013 32.8638 242.215 31.82 242.249 30.8289L238.251 30.6911C238.232 31.2467 238.114 31.9362 237.857 32.7756L241.683 33.9444ZM242.23 30.48C242.012 28.9349 241.505 27.4926 240.498 26.4207C239.437 25.2918 238.037 24.8 236.53 24.8V28.8C237.13 28.8 237.403 28.9682 237.582 29.1594C237.815 29.4074 238.115 29.9451 238.27 31.04L242.23 30.48ZM236.53 24.8C234.285 24.8 232.052 25.8903 229.893 27.5881L232.367 30.7319C234.208 29.283 235.575 28.8 236.53 28.8V24.8ZM229.883 27.5962C227.762 29.2874 225.657 31.4721 223.562 34.1186L226.698 36.6014C228.656 34.1279 230.551 32.1793 232.377 30.7238L229.883 27.5962ZM223.562 34.1186C221.466 36.7666 219.541 39.6551 217.786 42.7809L221.274 44.7391C222.932 41.7849 224.741 39.0734 226.698 36.6014L223.562 34.1186ZM217.783 42.7861C216.053 45.8892 214.644 48.9796 213.563 52.057L217.337 53.383C218.336 50.5404 219.647 47.6575 221.277 44.7339L217.783 42.7861ZM213.565 52.0517C212.474 55.1281 211.89 57.9738 211.89 60.56H215.89C215.89 58.5595 216.346 56.1785 217.335 53.3883L213.565 52.0517ZM211.89 60.56C211.89 62.2567 212.167 63.9147 213.083 65.1505L216.297 62.7695C216.146 62.5653 215.89 61.9566 215.89 60.56H211.89ZM213.134 65.2167C214.068 66.3731 215.357 67 216.85 67V63C216.583 63 216.432 62.9335 216.246 62.7033L213.134 65.2167ZM258.032 65.56L259.119 63.8814L258.032 65.56ZM255.512 57.64L256.926 59.0542L256.94 59.0404L256.954 59.0262L255.512 57.64ZM260.912 57.8L259.197 58.829V58.829L260.912 57.8ZM262.112 60.52L264.026 59.9412L264.023 59.9295L264.019 59.9177L262.112 60.52ZM263.632 63.8L265.316 62.7207L263.632 63.8ZM273.112 63.24L271.658 61.8668L271.657 61.8676L273.112 63.24ZM274.152 54.08L272.363 54.9744L272.367 54.9817L272.37 54.9889L274.152 54.08ZM270.592 48.64L268.983 49.8279L268.987 49.834L270.592 48.64ZM266.112 41.56L264.289 42.3818L264.296 42.3974L264.303 42.4128L266.112 41.56ZM266.792 30.16L265.181 28.9752L265.178 28.9794L266.792 30.16ZM272.112 25.84L271.244 24.0383V24.0383L272.112 25.84ZM285.552 25.28L284.847 27.1515L284.863 27.1576L284.879 27.1635L285.552 25.28ZM289.992 27.96L288.561 29.3571L288.578 29.3743L288.595 29.3911L289.992 27.96ZM290.632 33.88L289.307 32.382L289.292 32.3949L289.278 32.4081L290.632 33.88ZM284.552 31.32L282.57 31.5914L282.571 31.5933L284.552 31.32ZM283.272 27.48L281.795 28.8285L281.811 28.8457L281.827 28.8624L283.272 27.48ZM274.632 28.48L273.173 27.1121L274.632 28.48ZM273.872 37.96L272.052 38.79L272.058 38.8022L273.872 37.96ZM277.592 44L275.957 45.1527L275.96 45.1565L277.592 44ZM281.632 50.68L279.8 51.4816L279.805 51.4936L279.81 51.5055L281.632 50.68ZM280.752 61.96L282.352 63.16L282.36 63.1488L280.752 61.96ZM275.192 66.28L276.01 68.105L276.019 68.1007L275.192 66.28ZM267.352 65.84C263.729 65.84 261.04 65.1256 259.119 63.8814L256.945 67.2386C259.717 69.0344 263.242 69.84 267.352 69.84V65.84ZM259.119 63.8814C257.153 62.6078 256.512 61.3242 256.512 60.04H252.512C252.512 63.0758 254.217 65.4722 256.945 67.2386L259.119 63.8814ZM256.512 60.04C256.512 59.6431 256.63 59.3501 256.926 59.0542L254.098 56.2258C253.06 57.2632 252.512 58.5702 252.512 60.04H256.512ZM256.954 59.0262C257.2 58.7698 257.524 58.6 258.112 58.6V54.6C256.567 54.6 255.157 55.1235 254.07 56.2538L256.954 59.0262ZM258.112 58.6C258.627 58.6 258.92 58.6764 259.064 58.7383C259.18 58.7881 259.193 58.8217 259.197 58.829L262.627 56.771C261.629 55.1076 259.831 54.6 258.112 54.6V58.6ZM259.197 58.829C259.586 59.4777 259.925 60.238 260.205 61.1223L264.019 59.9177C263.658 58.7754 263.198 57.7223 262.627 56.771L259.197 58.829ZM260.197 61.0988C260.599 62.4276 261.185 63.6888 261.948 64.8793L265.316 62.7207C264.745 61.8312 264.318 60.9057 264.026 59.9412L260.197 61.0988ZM261.948 64.8793C263.184 66.8073 265.488 67.36 267.792 67.36V63.36C265.882 63.36 265.413 62.8727 265.316 62.7207L261.948 64.8793ZM267.792 67.36C270.472 67.36 272.801 66.4836 274.567 64.6124L271.657 61.8676C270.756 62.823 269.539 63.36 267.792 63.36V67.36ZM274.566 64.6132C276.319 62.7573 277.152 60.419 277.152 57.76H273.152C273.152 59.5277 272.625 60.8427 271.658 61.8668L274.566 64.6132ZM277.152 57.76C277.152 56.2215 276.705 54.6829 275.933 53.1711L272.37 54.9889C272.932 56.0905 273.152 57.0051 273.152 57.76H277.152ZM275.941 53.1856C275.194 51.6911 273.922 49.7646 272.196 47.446L268.987 49.834C270.675 52.1021 271.777 53.8022 272.363 54.9744L275.941 53.1856ZM272.201 47.4521C270.125 44.6404 268.72 42.4014 267.921 40.7072L264.303 42.4128C265.264 44.452 266.845 46.9329 268.983 49.8279L272.201 47.4521ZM267.935 40.7382C267.176 39.0529 266.832 37.5195 266.832 36.12H262.832C262.832 38.1871 263.341 40.2805 264.289 42.3818L267.935 40.7382ZM266.832 36.12C266.832 34.3634 267.347 32.7892 268.406 31.3406L265.178 28.9794C263.624 31.1041 262.832 33.5033 262.832 36.12H266.832ZM268.403 31.3448C269.526 29.8183 271.034 28.5798 272.98 27.6417L271.244 24.0383C268.763 25.2335 266.725 26.875 265.181 28.9752L268.403 31.3448ZM272.98 27.6417C274.897 26.7177 277.05 26.24 279.472 26.24V22.24C276.507 22.24 273.753 22.829 271.244 24.0383L272.98 27.6417ZM279.472 26.24C281.474 26.24 283.259 26.5531 284.847 27.1515L286.257 23.4085C284.165 22.6202 281.896 22.24 279.472 22.24V26.24ZM284.879 27.1635C286.533 27.7543 287.729 28.5049 288.561 29.3571L291.423 26.5629C290.068 25.1751 288.304 24.139 286.225 23.3965L284.879 27.1635ZM288.595 29.3911C289.421 30.1977 289.672 30.8947 289.672 31.52H293.672C293.672 29.5852 292.803 27.909 291.389 26.5289L288.595 29.3911ZM289.672 31.52C289.672 31.9313 289.553 32.164 289.307 32.382L291.957 35.378C293.097 34.3693 293.672 33.0287 293.672 31.52H289.672ZM289.278 32.4081C289.035 32.6316 288.69 32.8 288.072 32.8V36.8C289.534 36.8 290.896 36.3551 291.986 35.3519L289.278 32.4081ZM288.072 32.8C287.458 32.8 287.208 32.6367 287.078 32.5077C286.912 32.3432 286.658 31.9488 286.533 31.0467L282.571 31.5933C282.766 33.0112 283.259 34.3568 284.266 35.3523C285.309 36.3833 286.66 36.8 288.072 36.8V32.8ZM286.533 31.0486C286.39 30.0027 286.195 29.0649 285.929 28.2675C285.672 27.4946 285.3 26.7071 284.717 26.0976L281.827 28.8624C281.82 28.8554 281.856 28.8919 281.919 29.0088C281.98 29.1241 282.055 29.2939 282.135 29.5325C282.295 30.0151 282.447 30.6907 282.57 31.5914L286.533 31.0486ZM284.749 26.1315C283.573 24.8432 281.676 24.56 279.952 24.56V28.56C280.67 28.56 281.166 28.6283 281.488 28.7174C281.812 28.8072 281.848 28.8867 281.795 28.8285L284.749 26.1315ZM279.952 24.56C277.247 24.56 274.866 25.306 273.173 27.1121L276.091 29.8479C276.798 29.094 277.964 28.56 279.952 28.56V24.56ZM273.173 27.1121C271.549 28.844 270.832 31.0953 270.832 33.64H274.832C274.832 31.8647 275.315 30.676 276.091 29.8479L273.173 27.1121ZM270.832 33.64C270.832 35.344 271.267 37.0676 272.052 38.79L275.692 37.13C275.091 35.8124 274.832 34.6559 274.832 33.64H270.832ZM272.058 38.8022C272.828 40.4609 274.151 42.591 275.957 45.1527L279.226 42.8473C277.46 40.3423 276.302 38.4458 275.686 37.1178L272.058 38.8022ZM275.96 45.1565C277.88 47.8656 279.135 49.9617 279.8 51.4816L283.464 49.8784C282.636 47.985 281.197 45.6277 279.224 42.8435L275.96 45.1565ZM279.81 51.5055C280.484 52.992 280.792 54.3782 280.792 55.68H284.792C284.792 53.7285 284.327 51.7813 283.454 49.8545L279.81 51.5055ZM280.792 55.68C280.792 57.6105 280.242 59.2847 279.144 60.7712L282.36 63.1488C283.982 60.9553 284.792 58.4428 284.792 55.68H280.792ZM279.152 60.76C278.019 62.2699 276.448 63.5121 274.364 64.4593L276.019 68.1007C278.629 66.9145 280.764 65.2767 282.352 63.16L279.152 60.76ZM274.374 64.455C272.345 65.3642 270.017 65.84 267.352 65.84V69.84C270.5 69.84 273.398 69.2758 276.01 68.105L274.374 64.455Z" fill="#151515"/>
</svg>
