<svg width="222" height="61" viewBox="0 0 222 61" fill="none" xmlns="http://www.w3.org/2000/svg">
<path d="M13.84 2.32C11.76 2.32 10.92 3.2 9.2 6.04C8.8 6.72 7.92 7.16 6.8 7.24C6.6 7.28 6.12 7.28 5.4 7.28C4.88 7.32 4.52 7.36 4.24 7.4C3.08 7.64 2.48 8.08 2.12 8.64C2.04 8.8 2 9.04 2 9.28C2 9.6 2.08 9.92 2.28 10.28C3.04 11.84 4.32 12.72 6.12 13.08C6.24 13.12 6.72 13.16 7.72 13.16C8.56 13.2 9.28 13.2 9.4 13.48C9.64 14.44 9.84 24.2 9.96 28.56C8.08 29.8 7.04 30.84 6.72 31.8C6.64 31.96 6.64 32.08 6.64 32.24C6.64 33.08 7.28 33.88 8.8 34.8C10.6 35.92 11.6 37.92 11.8 40.6V44.04C11.76 44.68 11.76 45.24 11.76 45.76C11.76 46.4 11.8 46.92 11.8 47.32C11.84 47.64 11.84 47.84 11.84 48.08C11.84 50.04 11.16 50.76 9.36 51.04C7.2 51.32 6.56 51.44 6.12 53C6.08 53.2 6.04 53.32 6.04 53.48C6.04 54.76 7.48 57.16 8.96 57.2H9.04C9.44 57.2 10 57.08 10.64 56.84C10.92 56.76 11.16 56.72 11.44 56.72C12.16 56.72 12.84 56.88 14.12 58.24C14.4 58.52 14.96 58.68 15.92 58.68H16.2C18.56 58.6 20.36 57.2 20.2 54.92C32.72 52.68 49.36 44 49.36 33.64C49.36 29.52 44.32 28.2 38.12 28.04C28.28 27.68 27.12 27.92 23.8 28.08L21.64 28.32C24.16 26.92 27.88 25.04 28.72 24.48C29.88 23.68 31.44 23.04 34.12 21.2L36.52 19.32C38.72 17.52 39.96 14.52 40.16 11.64V11.36C40.16 7.88 36.36 7.36 29.84 6.84C29.36 6.8 28.48 6.8 27.24 6.8C25.88 6.8 24.88 6.76 24.24 6.72C21.88 6.64 20.12 6.24 19 5.56C18.64 5.48 17.8 4.44 16.64 3.36C15.92 2.68 15.2 2.36 14.32 2.36C14.16 2.32 14 2.32 13.84 2.32ZM23.52 12.16C26.4 12.16 29.12 12.56 31.48 13.32C29.68 17.04 25.12 20.56 17.8 23.88L17.36 23.6C17.2 19.4 17.04 15.96 16.84 13.44C18.04 12.64 19.84 12.24 22 12.2C22.52 12.16 23.04 12.16 23.52 12.16ZM27.24 34.16C27.8 34.16 28.4 34.2 29 34.24C32.04 34.36 39.16 35.4 39.72 35.48L39.92 36C36.72 40.16 29.96 44.16 19.8 47.96L19.36 47.72L18.36 36.32C20.32 34.88 23.36 34.16 27.24 34.16ZM75.5825 28.28C69.6625 28.28 62.6625 36.72 61.1425 42.32C60.8225 37.68 59.6625 34.72 57.6225 33.48C57.1825 33.2 56.7425 33.08 56.3025 33.08C55.9425 33.08 55.5425 33.2 55.1825 33.44C54.3825 34 53.8225 35.04 53.4625 36.56C53.4625 43.96 55.3825 54.48 59.1825 57.92C59.9425 58.64 60.6225 58.96 61.2625 58.96C62.7425 58.96 63.8625 57.16 64.6625 53.52C66.8225 43.56 72.4625 36.36 80.1825 32.44C80.2625 32.24 80.3025 32 80.3025 31.8C80.3025 30.16 77.7425 28.28 75.6225 28.28H75.5825ZM111.782 51C110.982 49.96 110.542 49.2 110.342 48.76C109.742 47.56 109.262 45.64 108.742 43.16C108.582 42.2 108.462 41.68 108.462 41.72L108.142 39.56C107.342 33.12 106.342 28.72 104.102 28.72H103.822C100.542 28.72 95.6219 31.36 88.7419 36.92C83.4619 42.92 80.8219 48.04 80.8219 52.24C81.0619 56.2 83.3819 58.6 86.8219 58.6C87.4219 58.6 88.0219 58.6 88.7419 58.36C94.4619 56.4 96.7019 53.48 99.3019 49.48L101.382 45.36C102.502 46.24 103.462 48.28 104.382 51.36C105.462 54.68 106.502 56.76 107.622 57.76C108.222 58.28 108.742 58.48 109.462 58.48C111.262 58.48 113.342 57 113.662 55.4C113.662 54.24 113.062 52.76 111.782 51ZM88.3819 51.16C88.2219 49.32 91.7819 42.32 94.9419 38.8C95.9819 37.68 97.0619 36.92 97.9019 36.92C98.2619 36.92 98.7019 37.12 98.7819 37.24C98.8219 41.92 92.6219 50.88 88.3819 51.16ZM137.016 24.64C136.096 24.64 135.096 25 133.776 25.8C131.976 26.92 131.496 27.56 129.616 30.4C128.696 31.96 127.856 33.04 127.176 33.76L126.496 33.56C126.336 32.64 124.376 32.4 123.536 32.4C121.616 32.4 119.736 33.72 119.696 37.4C119.696 38.4 119.496 40.28 119.096 42.96C118.656 46.04 118.416 48.56 118.416 50.6C118.416 54.92 119.936 57.48 121.896 57.48C124.176 57.48 126.736 52.76 126.736 50.24C126.816 43.96 128.576 39.48 134.296 35.28L134.936 35.44C135.176 36.48 135.536 38.72 136.016 42.2C137.336 52.4 138.496 58.04 141.336 58.52C141.896 58.64 142.336 58.68 142.816 58.68C144.936 58.68 145.496 57.68 145.496 55.88C145.496 54.68 145.256 53.2 144.776 51.32C144.456 50.2 144.256 49.4 144.176 48.92C143.936 47.56 143.616 45.56 143.176 42.84C142.096 35.24 140.736 29.68 139.256 26.16C138.776 25.08 138.096 24.64 137.016 24.64ZM174.659 7.04C173.419 7.04 172.379 7.44 171.619 8.28C170.499 9.4 169.939 11.8 169.939 15.44C169.939 16.04 169.979 16.64 169.979 17.28L170.019 17.56C170.059 18.16 170.059 18.92 170.059 19.84C170.059 21.12 170.019 22.72 169.979 24.64C169.979 26.2 169.939 27.56 169.939 28.8C169.939 31.24 169.979 33.08 170.139 34.32C170.139 35.08 168.499 36.12 165.299 37.4C163.979 37.96 163.139 38.32 162.779 38.56C155.779 43.32 152.259 48.4 152.259 53.8C152.259 54.68 152.339 55.52 152.539 56.4C152.539 58.12 153.979 59 156.899 59C158.939 59 161.219 58.68 163.659 58C168.899 56.56 172.419 53.92 174.259 50C174.539 50.36 175.299 51 175.699 52.16C177.259 56.52 179.459 58.72 181.059 58.72C182.419 58.72 183.579 57.64 184.579 55.52C184.699 55.2 184.779 54.84 184.779 54.48C184.779 53.24 184.059 51.76 182.499 50C178.019 41.32 177.139 36.84 177.139 28.16V26.04C177.179 24.72 177.179 23.76 177.179 23.12V21.48C177.179 16.68 177.059 13.32 176.739 11.36C176.499 9.56 176.539 7.2 175.299 7.08C175.099 7.04 174.859 7.04 174.659 7.04ZM169.619 43.44C169.139 47.04 165.219 51.48 161.939 51.48L161.179 51.4C160.859 51.04 160.739 50.64 160.739 50.2C160.739 50 160.739 49.84 160.819 49.64C161.459 47.4 165.859 44.76 169.619 43.44ZM203.768 29.16C197.808 29.16 190.888 32.68 190.888 38.16C190.888 38.52 190.928 38.92 190.968 39.32C190.968 43.8 203.568 46.48 211.848 50.44C210.528 51.76 206.528 52.08 204.368 52.08C202.328 52.08 199.968 51.48 197.168 50.32C196.608 50.08 196.048 49.92 195.568 49.92C193.728 49.92 193.168 51.96 193.168 53.4C193.168 54.32 193.368 55.36 193.848 56.52C194.768 58.88 199.048 59 201.168 59C202.648 59 204.248 58.84 206.048 58.6C212.008 57.76 217.408 55.64 218.648 53.24C219.208 52.12 219.488 51.12 219.488 50.12C219.488 49.04 219.088 48.04 218.368 47.12C217.288 45.76 215.288 44.56 212.328 43.44C204.328 40.52 199.888 38.96 199.008 38.72L198.768 38.52C198.648 38.36 198.568 38.16 198.568 37.92C198.568 36.72 199.608 36.64 206.048 35.6C207.368 35.28 208.288 34.76 208.768 34.04C209.008 33.64 209.128 33.24 209.128 32.8C209.128 32.52 209.088 32.2 208.928 31.88C208.288 30.4 206.408 29.16 204.248 29.16H203.768Z" fill="#151515"/>
<path d="M9.2 6.04L7.48928 5.00393L7.48264 5.0149L7.47613 5.02596L9.2 6.04ZM6.8 7.24L6.65751 5.24508L6.53159 5.25408L6.40779 5.27883L6.8 7.24ZM5.4 7.27999V5.27999H5.32319L5.2466 5.28589L5.4 7.27999ZM4.24 7.4L3.95718 5.4201L3.89565 5.42888L3.83479 5.44148L4.24 7.4ZM2.12 8.64L0.437645 7.55848L0.379356 7.64915L0.33115 7.74556L2.12 8.64ZM2.28 10.28L4.07798 9.40406L4.05443 9.35572L4.02832 9.30872L2.28 10.28ZM6.12 13.08L6.75241 11.1826L6.63431 11.1433L6.51223 11.1188L6.12 13.08ZM7.72 13.16L7.81512 11.1623L7.76759 11.16H7.72V13.16ZM9.4 13.48L11.3403 12.9949L11.3014 12.8395L11.2383 12.6922L9.4 13.48ZM9.96 28.56L11.0612 30.2295L11.9899 29.617L11.9592 28.505L9.96 28.56ZM6.72 31.8L8.50885 32.6944L8.57242 32.5673L8.61737 32.4325L6.72 31.8ZM8.8 34.8L9.8566 33.1019L9.84614 33.0954L9.83561 33.089L8.8 34.8ZM11.8 40.6H13.8V40.5255L13.7945 40.4512L11.8 40.6ZM11.8 44.04L13.7961 44.1648L13.8 44.1024V44.04H11.8ZM11.8 47.32H9.8V47.4445L9.81544 47.5681L11.8 47.32ZM9.36 51.04L9.61711 53.0234L9.64231 53.0201L9.66741 53.0162L9.36 51.04ZM6.12 53L4.1951 52.4571L4.17405 52.5317L4.15884 52.6078L6.12 53ZM8.96 57.2L8.90597 59.1993L8.93298 59.2H8.96V57.2ZM10.64 56.84L10.0906 54.917L10.0131 54.9391L9.93775 54.9673L10.64 56.84ZM14.12 58.24L12.6636 59.6107L12.6844 59.6328L12.7058 59.6542L14.12 58.24ZM16.2 58.68V60.68H16.2339L16.2678 60.6788L16.2 58.68ZM20.2 54.92L19.8478 52.9513L18.0791 53.2677L18.2049 55.06L20.2 54.92ZM38.12 28.04L38.0469 30.0387L38.0576 30.0391L38.0684 30.0393L38.12 28.04ZM23.8 28.08L23.7037 26.0823L23.6413 26.0853L23.5791 26.0922L23.8 28.08ZM21.64 28.32L20.6687 26.5717L21.8609 30.3078L21.64 28.32ZM28.72 24.48L29.8294 26.1441L29.8425 26.1354L29.8555 26.1264L28.72 24.48ZM34.12 21.2L35.252 22.8488L35.3038 22.8132L35.3533 22.7745L34.12 21.2ZM36.52 19.32L37.7533 20.8945L37.77 20.8814L37.7865 20.8679L36.52 19.32ZM40.16 11.64L42.1552 11.7786L42.16 11.7094V11.64H40.16ZM29.84 6.84L29.6739 8.8331L29.681 8.83367L29.84 6.84ZM24.24 6.72L24.3647 4.72389L24.3363 4.72211L24.3078 4.72115L24.24 6.72ZM19 5.56L20.038 3.85042L19.7559 3.67919L19.4339 3.60762L19 5.56ZM16.64 3.36L15.2668 4.81402L15.2719 4.81892L15.2772 4.82379L16.64 3.36ZM14.32 2.36L13.8349 4.30028L14.0738 4.36H14.32V2.36ZM31.48 13.32L33.2803 14.1911L34.2819 12.1212L32.0931 11.4163L31.48 13.32ZM17.8 23.88L16.7262 25.5673L17.6399 26.1487L18.6261 25.7014L17.8 23.88ZM17.36 23.6L15.3615 23.6761L15.4014 24.7242L16.2862 25.2873L17.36 23.6ZM16.84 13.44L15.7306 11.7759L14.7533 12.4274L14.8463 13.5982L16.84 13.44ZM22 12.2L22.037 14.1997L22.0953 14.1986L22.1534 14.1941L22 12.2ZM29 34.24L28.867 36.2356L28.894 36.2374L28.9211 36.2384L29 34.24ZM39.72 35.48L41.5867 34.762L41.1652 33.6662L40.0028 33.5001L39.72 35.48ZM39.92 36L41.5052 37.2194L42.1896 36.3297L41.7867 35.282L39.92 36ZM19.8 47.96L18.8423 49.7158L19.6446 50.1534L20.5006 49.8333L19.8 47.96ZM19.36 47.72L17.3677 47.8948L17.4613 48.9625L18.4023 49.4758L19.36 47.72ZM18.36 36.32L17.1758 34.7082L16.2694 35.3742L16.3677 36.4948L18.36 36.32ZM13.84 0.319998C12.4514 0.319998 11.2278 0.635744 10.0991 1.58315C9.12514 2.40074 8.33183 3.61274 7.48928 5.00393L10.9107 7.07607C11.7882 5.62725 12.2749 4.97925 12.6709 4.64685C12.9122 4.44425 13.1486 4.32 13.84 4.32V0.319998ZM7.47613 5.02596C7.50889 4.97026 7.51152 5.00817 7.37557 5.07615C7.23881 5.14453 7.00248 5.22044 6.65751 5.24508L6.94249 9.23492C8.42026 9.12936 10.0628 8.51793 10.9239 7.05403L7.47613 5.02596ZM6.40779 5.27883C6.4855 5.26329 6.51967 5.26391 6.4651 5.26755C6.42331 5.27034 6.35556 5.27325 6.25246 5.27545C6.04362 5.27989 5.76824 5.27999 5.4 5.27999V9.27999C5.75176 9.27999 6.07638 9.2801 6.33754 9.27454C6.54786 9.27007 6.89197 9.26121 7.19221 9.20117L6.40779 5.27883ZM5.2466 5.28589C4.69597 5.32825 4.29111 5.37239 3.95718 5.4201L4.52282 9.3799C4.74889 9.3476 5.06403 9.31175 5.5534 9.27411L5.2466 5.28589ZM3.83479 5.44148C2.29361 5.76034 1.15962 6.43541 0.437645 7.55848L3.80235 9.72152C3.8268 9.68349 3.85432 9.64895 3.93099 9.60159C4.0242 9.54402 4.23088 9.44424 4.64521 9.35852L3.83479 5.44148ZM0.33115 7.74556C0.0556428 8.29657 0 8.88752 0 9.28H4C4 9.26615 4.00154 9.26685 3.99774 9.28777C3.99561 9.29951 3.99042 9.32498 3.97906 9.36192C3.96811 9.39751 3.94704 9.45806 3.90885 9.53443L0.33115 7.74556ZM0 9.28C0 9.97403 0.184033 10.6255 0.531682 11.2513L4.02832 9.30872C4.01193 9.27922 4.00293 9.25942 3.99843 9.2486C3.99403 9.23803 3.99351 9.23505 3.99453 9.23876C3.99559 9.24267 3.99724 9.24992 3.99848 9.25932C3.99971 9.26867 4 9.27606 4 9.28H0ZM0.48202 11.1559C1.55856 13.3657 3.41878 14.5794 5.72777 15.0412L6.51223 11.1188C5.22122 10.8606 4.52144 10.3143 4.07798 9.40406L0.48202 11.1559ZM5.48759 14.9774C5.72322 15.0559 5.94849 15.0839 6.03982 15.0949C6.17294 15.111 6.32012 15.1228 6.47481 15.1317C6.78638 15.1497 7.1976 15.16 7.72 15.16V11.16C7.2424 11.16 6.91362 11.1503 6.70519 11.1383C6.59988 11.1322 6.54206 11.1265 6.52018 11.1238C6.50937 11.1225 6.52033 11.1235 6.54656 11.1284C6.56263 11.1314 6.6431 11.1462 6.75241 11.1826L5.48759 14.9774ZM7.62488 15.1577C7.87122 15.1695 8.02612 15.1747 8.21349 15.1847C8.38679 15.1939 8.49593 15.2032 8.56567 15.2125C8.6549 15.2243 8.58393 15.2245 8.44588 15.1678C8.32865 15.1197 7.83022 14.8944 7.56171 14.2678L11.2383 12.6922C10.9098 11.9256 10.2763 11.5953 9.96412 11.4672C9.63107 11.3305 9.3051 11.2756 9.09433 11.2475C8.68297 11.1927 8.15124 11.1783 7.81512 11.1623L7.62488 15.1577ZM7.45972 13.9651C7.44139 13.8918 7.46229 13.9727 7.49411 14.3804C7.52057 14.7193 7.54743 15.1741 7.57424 15.7253C7.62772 16.825 7.67853 18.2568 7.72594 19.8062C7.82092 22.9106 7.90025 26.4168 7.96076 28.615L11.9592 28.505C11.8997 26.3432 11.8191 22.7894 11.7241 19.6838C11.6765 18.1282 11.6248 16.6675 11.5695 15.531C11.5419 14.9641 11.5129 14.4648 11.482 14.0691C11.4565 13.7423 11.4186 13.3082 11.3403 12.9949L7.45972 13.9651ZM8.85881 26.8905C6.96967 28.1365 5.37861 29.4996 4.82263 31.1675L8.61737 32.4325C8.70139 32.1804 9.19033 31.4635 11.0612 30.2295L8.85881 26.8905ZM4.93115 30.9056C4.62322 31.5214 4.64 32.0625 4.64 32.24H8.64C8.64 32.1928 8.64021 32.1908 8.64006 32.1952C8.63971 32.2054 8.63805 32.2458 8.6299 32.3028C8.62132 32.3629 8.60692 32.4323 8.58388 32.5065C8.56101 32.5802 8.53437 32.6434 8.50885 32.6944L4.93115 30.9056ZM4.64 32.24C4.64 34.2431 6.19469 35.5609 7.76439 36.511L9.83561 33.089C9.1652 32.6832 8.83518 32.3881 8.68644 32.2096C8.56687 32.0661 8.64 32.0945 8.64 32.24H4.64ZM7.7434 36.4981C8.83505 37.1774 9.63628 38.4807 9.80555 40.7488L13.7945 40.4512C13.5637 37.3593 12.365 34.6626 9.8566 33.1019L7.7434 36.4981ZM9.8 40.6V44.04H13.8V40.6H9.8ZM9.80389 43.9152C9.75952 44.6252 9.76 45.2428 9.76 45.76H13.76C13.76 45.2372 13.7605 44.7348 13.7961 44.1648L9.80389 43.9152ZM9.76 45.76C9.76 46.1203 9.77129 46.442 9.78148 46.7069C9.79234 46.9893 9.8 47.1689 9.8 47.32H13.8C13.8 47.0711 13.7877 46.7907 13.7785 46.5531C13.7687 46.298 13.76 46.0397 13.76 45.76H9.76ZM9.81544 47.5681C9.82865 47.6737 9.83405 47.7487 9.83673 47.8133C9.83974 47.8853 9.84 47.9549 9.84 48.08H13.84C13.84 47.821 13.8405 47.5197 13.7846 47.0719L9.81544 47.5681ZM9.84 48.08C9.84 48.8909 9.68628 48.9702 9.75765 48.8871C9.83056 48.8022 9.79469 48.9483 9.05259 49.0638L9.66741 53.0162C10.7253 52.8517 11.9294 52.4978 12.7923 51.4929C13.6537 50.4898 13.84 49.2291 13.84 48.08H9.84ZM9.10289 49.0566C8.57651 49.1248 8.05987 49.1932 7.60769 49.2847C7.15492 49.3764 6.64112 49.5141 6.15005 49.7773C4.97735 50.406 4.48258 51.4378 4.1951 52.4571L8.0449 53.5429C8.12718 53.2512 8.18064 53.1717 8.17563 53.1793C8.14668 53.223 8.08602 53.278 8.03995 53.3027C8.03388 53.3059 8.11258 53.2636 8.40106 53.2053C8.69013 53.1468 9.06349 53.0952 9.61711 53.0234L9.10289 49.0566ZM4.15884 52.6078C4.15368 52.6336 4.14803 52.6593 4.13894 52.6999C4.13146 52.7333 4.11684 52.7977 4.10384 52.8628C4.0742 53.011 4.04 53.2214 4.04 53.48H8.04C8.04 53.5256 8.03701 53.567 8.03295 53.6013C8.02916 53.6332 8.02522 53.6519 8.02616 53.6472C8.02666 53.6447 8.02793 53.6385 8.03076 53.6257C8.03381 53.6117 8.03702 53.5975 8.04231 53.5738C8.05197 53.5307 8.06632 53.4664 8.08116 53.3922L4.15884 52.6078ZM4.04 53.48C4.04 54.6931 4.64053 56.0172 5.3161 56.9655C5.67919 57.4751 6.14193 57.9895 6.69971 58.3969C7.25016 58.799 8.00352 59.1749 8.90597 59.1993L9.01403 55.2007C9.17648 55.2051 9.19484 55.266 9.05904 55.1668C8.93057 55.073 8.75581 54.8999 8.5739 54.6445C8.39562 54.3943 8.24874 54.1185 8.15154 53.8692C8.04592 53.5983 8.04 53.4652 8.04 53.48H4.04ZM8.96 59.2H9.04V55.2H8.96V59.2ZM9.04 59.2C9.77473 59.2 10.5881 58.9954 11.3422 58.7127L9.93775 54.9673C9.69215 55.0594 9.48223 55.1207 9.31614 55.1576C9.14269 55.1962 9.05356 55.2 9.04 55.2V59.2ZM11.1894 58.763C11.3274 58.7236 11.3804 58.72 11.44 58.72V54.72C10.9396 54.72 10.5126 54.7964 10.0906 54.917L11.1894 58.763ZM11.44 58.72C11.5461 58.72 11.5842 58.7262 11.5979 58.7289C11.6049 58.7303 11.626 58.7341 11.6756 58.7589C11.7983 58.8202 12.1013 59.0133 12.6636 59.6107L15.5764 56.8693C14.8587 56.1067 14.1817 55.5398 13.4644 55.1811C12.6804 54.7891 11.997 54.72 11.44 54.72V58.72ZM12.7058 59.6542C13.6024 60.5508 14.9149 60.68 15.92 60.68V56.68C15.536 56.68 15.3355 56.6464 15.2578 56.6267C15.1762 56.6059 15.3365 56.6281 15.5342 56.8258L12.7058 59.6542ZM15.92 60.68H16.2V56.68H15.92V60.68ZM16.2678 60.6788C17.8039 60.6268 19.3262 60.1408 20.4744 59.1192C21.6687 58.0567 22.3179 56.5303 22.1951 54.78L18.2049 55.06C18.2421 55.5897 18.0713 55.9033 17.8156 56.1308C17.5138 56.3992 16.9561 56.6532 16.1322 56.6811L16.2678 60.6788ZM20.5522 56.8887C27.0567 55.725 34.603 52.9019 40.5699 48.9987C46.4116 45.1773 51.36 39.8958 51.36 33.64H47.36C47.36 37.7442 43.9884 41.9827 38.3801 45.6513C32.897 49.2381 25.8633 51.875 19.8478 52.9513L20.5522 56.8887ZM51.36 33.64C51.36 32.1658 50.8964 30.8646 50.0321 29.7934C49.1946 28.7555 48.0608 28.0301 46.8474 27.5144C44.4574 26.4985 41.3401 26.1224 38.1716 26.0407L38.0684 30.0393C41.0999 30.1176 43.6026 30.4815 45.2826 31.1956C46.1042 31.5448 46.6179 31.932 46.9191 32.3053C47.1936 32.6454 47.36 33.0542 47.36 33.64H51.36ZM38.1931 26.0413C28.2686 25.6782 27.0426 25.9214 23.7037 26.0823L23.8963 30.0777C27.1974 29.9186 28.2914 29.6818 38.0469 30.0387L38.1931 26.0413ZM23.5791 26.0922L21.4191 26.3322L21.8609 30.3078L24.0209 30.0678L23.5791 26.0922ZM22.6113 30.0683C23.8488 29.3808 25.3846 28.5735 26.7461 27.8524C28.036 27.1692 29.3013 26.4962 29.8294 26.1441L27.6106 22.8159C27.2987 23.0238 26.284 23.5708 24.8739 24.3176C23.5354 25.0265 21.9512 25.8592 20.6687 26.5717L22.6113 30.0683ZM29.8555 26.1264C30.337 25.7943 30.8887 25.5036 31.8315 24.9726C32.7325 24.4651 33.8471 23.8134 35.252 22.8488L32.988 19.5512C31.7129 20.4266 30.7075 21.0148 29.8685 21.4874C29.0713 21.9364 28.263 22.3657 27.5845 22.8336L29.8555 26.1264ZM35.3533 22.7745L37.7533 20.8945L35.2867 17.7455L32.8867 19.6255L35.3533 22.7745ZM37.7865 20.8679C40.5164 18.6343 41.9273 15.06 42.1552 11.7786L38.1648 11.5014C37.9927 13.98 36.9236 16.4056 35.2535 17.7721L37.7865 20.8679ZM42.16 11.64V11.36H38.16V11.64H42.16ZM42.16 11.36C42.16 10.0957 41.8023 8.934 40.9968 7.97355C40.2268 7.0555 39.1865 6.48801 38.1173 6.10639C36.0523 5.36929 33.182 5.10019 29.999 4.84633L29.681 8.83367C33.018 9.09981 35.3077 9.35071 36.7727 9.8736C37.4685 10.122 37.7857 10.3695 37.932 10.5439C38.0427 10.676 38.16 10.8843 38.16 11.36H42.16ZM30.0061 4.84691C29.4198 4.79805 28.4262 4.8 27.24 4.8V8.8C28.5339 8.8 29.3002 8.80195 29.6739 8.83309L30.0061 4.84691ZM27.24 4.8C25.9183 4.8 24.96 4.7611 24.3647 4.72389L24.1153 8.7161C24.8 8.7589 25.8417 8.8 27.24 8.8V4.8ZM24.3078 4.72115C22.0704 4.64531 20.7211 4.26521 20.038 3.85042L17.962 7.26957C19.5189 8.21479 21.6896 8.63469 24.1722 8.71885L24.3078 4.72115ZM19.4339 3.60762C19.7195 3.67109 19.896 3.7863 19.921 3.80229C19.9665 3.83144 19.976 3.84303 19.9393 3.81177C19.8635 3.74722 19.7413 3.63045 19.543 3.42959C19.1825 3.06459 18.6237 2.47429 18.0028 1.89621L15.2772 4.82379C15.8163 5.3257 16.2575 5.7954 16.697 6.2404C16.8987 6.44454 17.1265 6.67027 17.3457 6.85698C17.4565 6.95134 17.5997 7.06574 17.7646 7.1713C17.909 7.26369 18.1905 7.4289 18.5661 7.51237L19.4339 3.60762ZM18.0133 1.90598C16.9897 0.93927 15.7967 0.360001 14.32 0.360001V4.36C14.6033 4.36 14.8503 4.42072 15.2668 4.81402L18.0133 1.90598ZM14.8051 0.41972C14.3681 0.310478 13.9629 0.319998 13.84 0.319998V4.32C13.8607 4.32 13.8767 4.32 13.8922 4.32006C13.9072 4.32012 13.919 4.32022 13.9288 4.32038C13.9385 4.32053 13.9452 4.32071 13.9497 4.32087C13.9542 4.32103 13.9559 4.32114 13.9552 4.3211C13.9542 4.32104 13.9419 4.32025 13.9215 4.31738C13.9008 4.31447 13.8711 4.30933 13.8349 4.30028L14.8051 0.41972ZM23.52 14.16C26.2218 14.16 28.7317 14.5361 30.8669 15.2237L32.0931 11.4163C29.5083 10.5839 26.5782 10.16 23.52 10.16V14.16ZM29.6797 12.4489C28.203 15.5007 24.2135 18.775 16.9739 22.0586L18.6261 25.7014C26.0265 22.345 31.157 18.5793 33.2803 14.1911L29.6797 12.4489ZM18.8738 22.1927L18.4338 21.9127L16.2862 25.2873L16.7262 25.5673L18.8738 22.1927ZM19.3586 23.5239C19.1986 19.3245 19.0373 15.8473 18.8337 13.2818L14.8463 13.5982C15.0427 16.0727 15.2014 19.4755 15.3615 23.6761L19.3586 23.5239ZM17.9494 15.1041C18.6858 14.6132 20.0353 14.2367 22.037 14.1997L21.963 10.2003C19.6447 10.2433 17.3942 10.6668 15.7306 11.7759L17.9494 15.1041ZM22.1534 14.1941C22.5846 14.1609 23.0288 14.16 23.52 14.16V10.16C23.0512 10.16 22.4554 10.1591 21.8466 10.2059L22.1534 14.1941ZM27.24 36.16C27.7212 36.16 28.2523 36.1946 28.867 36.2356L29.133 32.2444C28.5477 32.2054 27.8788 32.16 27.24 32.16V36.16ZM28.9211 36.2384C31.8302 36.3533 38.8143 37.3709 39.4372 37.4599L40.0028 33.5001C39.5057 33.4291 32.2498 32.3667 29.0789 32.2416L28.9211 36.2384ZM37.8533 36.198L38.0533 36.718L41.7867 35.282L41.5867 34.762L37.8533 36.198ZM38.3348 34.7806C35.5028 38.4622 29.2163 42.3028 19.0994 46.0867L20.5006 49.8333C30.7037 46.0172 37.9372 41.8578 41.5052 37.2194L38.3348 34.7806ZM20.7577 46.2042L20.3177 45.9642L18.4023 49.4758L18.8423 49.7158L20.7577 46.2042ZM21.3524 47.5452L20.3524 36.1452L16.3677 36.4948L17.3677 47.8948L21.3524 47.5452ZM19.5442 37.9318C21.0026 36.8602 23.5352 36.16 27.24 36.16V32.16C23.1848 32.16 19.6374 32.8998 17.1758 34.7082L19.5442 37.9318ZM61.1425 42.32L59.1472 42.4576L63.0727 42.8439L61.1425 42.32ZM57.6225 33.48L56.5487 35.1673L56.5661 35.1784L56.5837 35.189L57.6225 33.48ZM55.1825 33.44L54.0731 31.7759L54.0542 31.7885L54.0356 31.8015L55.1825 33.44ZM53.4625 36.56L51.5163 36.0991L51.4625 36.3264V36.56H53.4625ZM59.1825 57.92L60.558 56.4681L60.5415 56.4525L60.5247 56.4373L59.1825 57.92ZM64.6625 53.52L66.6159 53.9493L66.6171 53.9439L64.6625 53.52ZM80.1825 32.44L81.088 34.2233L81.7597 33.8822L82.0395 33.1828L80.1825 32.44ZM75.5825 26.28C71.7734 26.28 68.0448 28.9053 65.2652 31.8197C62.4246 34.7981 60.0824 38.5904 59.2123 41.7961L63.0727 42.8439C63.7226 40.4496 65.6404 37.2219 68.1598 34.5803C70.7402 31.8747 73.4716 30.28 75.5825 30.28V26.28ZM63.1378 42.1824C62.8135 37.4813 61.6177 33.568 58.6613 31.771L56.5837 35.189C57.7073 35.872 58.8315 37.8787 59.1472 42.4576L63.1378 42.1824ZM58.6963 31.7927C57.9446 31.3143 57.1337 31.08 56.3025 31.08V35.08C56.3376 35.08 56.3663 35.0843 56.3958 35.093C56.4259 35.1019 56.4762 35.1212 56.5487 35.1673L58.6963 31.7927ZM56.3025 31.08C55.5152 31.08 54.7336 31.3356 54.0731 31.7759L56.2919 35.1041C56.3038 35.0962 56.3147 35.0901 56.3242 35.0855C56.3337 35.081 56.3408 35.0784 56.3448 35.0772C56.3488 35.0759 56.3481 35.0764 56.3422 35.0774C56.3364 35.0783 56.3232 35.08 56.3025 35.08V31.08ZM54.0356 31.8015C52.6398 32.7785 51.9192 34.3979 51.5163 36.0991L55.4087 37.0209C55.7258 35.6821 56.1252 35.2215 56.3294 35.0785L54.0356 31.8015ZM51.4625 36.56C51.4625 40.4087 51.9591 45.0455 52.9526 49.1911C53.4498 51.2659 54.0818 53.2614 54.8621 54.9934C55.6321 56.7023 56.6028 58.2825 57.8403 59.4027L60.5247 56.4373C59.8622 55.8375 59.1679 54.8127 58.5091 53.3503C57.8607 51.9111 57.3002 50.1691 56.8424 48.2589C55.9259 44.4345 55.4625 40.1113 55.4625 36.56H51.4625ZM57.807 59.3719C58.7586 60.2734 59.9075 60.96 61.2625 60.96V56.96C61.3375 56.96 61.1264 57.0066 60.558 56.4681L57.807 59.3719ZM61.2625 60.96C62.9684 60.96 64.1586 59.8741 64.914 58.6642C65.6586 57.4716 66.1982 55.85 66.6159 53.9493L62.7091 53.0907C62.3268 54.83 61.9064 55.9284 61.521 56.5458C61.1464 57.1459 61.0366 56.96 61.2625 56.96V60.96ZM66.6171 53.9439C68.659 44.5281 73.9429 37.8514 81.088 34.2233L79.277 30.6567C70.9821 34.8686 64.986 42.5919 62.7079 53.0961L66.6171 53.9439ZM82.0395 33.1828C82.2242 32.721 82.3025 32.2254 82.3025 31.8H78.3025C78.3025 31.7842 78.3032 31.7748 78.3036 31.771C78.304 31.767 78.3044 31.7644 78.3048 31.7622C78.3051 31.7601 78.3062 31.7549 78.3086 31.7461C78.311 31.7376 78.316 31.721 78.3256 31.6972L82.0395 33.1828ZM82.3025 31.8C82.3025 30.0204 81.0254 28.6215 79.9532 27.8218C78.7945 26.9575 77.2152 26.28 75.6225 26.28V30.28C76.1498 30.28 76.9105 30.5425 77.5618 31.0282C77.8714 31.2591 78.0862 31.4901 78.2088 31.6728C78.338 31.8652 78.3025 31.9061 78.3025 31.8H82.3025ZM75.6225 26.28H75.5825V30.28H75.6225V26.28ZM111.782 51L113.399 49.8237L113.384 49.8019L113.367 49.7806L111.782 51ZM110.342 48.76L112.163 47.9324L112.147 47.8987L112.131 47.8656L110.342 48.76ZM108.742 43.16L106.769 43.4888L106.776 43.5298L106.784 43.5704L108.742 43.16ZM108.462 41.72L106.483 42.0131L110.462 41.72H108.462ZM108.142 39.56L106.157 39.8066L106.16 39.8299L106.163 39.8531L108.142 39.56ZM88.7419 36.92L87.4848 35.3645L87.3527 35.4712L87.2404 35.5987L88.7419 36.92ZM80.8219 52.24H78.8219V52.3006L78.8255 52.361L80.8219 52.24ZM88.7419 58.36L89.3743 60.2574L89.3823 60.2547L89.3902 60.252L88.7419 58.36ZM99.3019 49.48L100.979 50.57L101.038 50.4786L101.087 50.3814L99.3019 49.48ZM101.382 45.36L102.618 43.7874L100.697 42.2785L99.5965 44.4586L101.382 45.36ZM104.382 51.36L102.466 51.9324L102.472 51.9556L102.48 51.9787L104.382 51.36ZM107.622 57.76L106.29 59.2519L106.301 59.2617L106.312 59.2714L107.622 57.76ZM113.662 55.4L115.623 55.7922L115.662 55.598V55.4H113.662ZM88.3819 51.16L86.3894 51.3333L86.5591 53.2847L88.5137 53.1557L88.3819 51.16ZM94.9419 38.8L93.4763 37.4391L93.4648 37.4514L93.4536 37.4639L94.9419 38.8ZM98.7819 37.24L100.782 37.2229L100.777 36.6267L100.446 36.1306L98.7819 37.24ZM113.367 49.7806C112.627 48.8189 112.28 48.1914 112.163 47.9324L108.521 49.5876C108.803 50.2086 109.336 51.1011 110.197 52.2194L113.367 49.7806ZM112.131 47.8656C111.666 46.9363 111.229 45.2769 110.699 42.7496L106.784 43.5704C107.295 46.0031 107.818 48.1837 108.553 49.6544L112.131 47.8656ZM110.715 42.8312C110.631 42.3301 110.557 41.9362 110.501 41.6651C110.474 41.5317 110.45 41.4185 110.429 41.3327C110.421 41.2984 110.406 41.2345 110.387 41.1687C110.381 41.1499 110.371 41.1174 110.358 41.0781C110.352 41.0595 110.316 40.9539 110.254 40.8284C110.236 40.793 110.138 40.5881 109.945 40.376C109.858 40.2793 109.607 40.0154 109.182 39.8517C108.638 39.6422 107.932 39.6539 107.327 40.0714C106.857 40.3956 106.668 40.8188 106.608 40.969C106.532 41.1566 106.502 41.3145 106.489 41.3918C106.462 41.551 106.462 41.6776 106.462 41.72H110.462C110.462 41.7611 110.461 41.8868 110.435 42.0452C110.422 42.1222 110.392 42.2798 110.316 42.4672C110.256 42.6172 110.068 43.0402 109.598 43.3644C108.992 43.7818 108.287 43.7935 107.743 43.5841C107.318 43.4204 107.067 43.1566 106.98 43.0601C106.788 42.8483 106.69 42.6442 106.673 42.6097C106.611 42.486 106.577 42.3833 106.572 42.3687C106.56 42.3334 106.552 42.306 106.548 42.2934C106.536 42.252 106.531 42.2297 106.537 42.2535C106.544 42.284 106.559 42.3533 106.582 42.4649C106.627 42.6838 106.693 43.0299 106.769 43.4888L110.715 42.8312ZM110.44 41.4269L110.12 39.2669L106.163 39.8531L106.483 42.0131L110.44 41.4269ZM110.127 39.3134C109.727 36.0935 109.259 33.2078 108.561 31.097C108.214 30.0481 107.76 29.0288 107.111 28.2391C106.426 27.4041 105.422 26.72 104.102 26.72V30.72C103.902 30.72 103.863 30.5859 104.02 30.7772C104.214 31.0137 104.48 31.4969 104.763 32.353C105.325 34.0522 105.757 36.5864 106.157 39.8066L110.127 39.3134ZM104.102 26.72H103.822V30.72H104.102V26.72ZM103.822 26.72C101.692 26.72 99.2925 27.5601 96.6789 28.9767C94.0304 30.4121 90.9747 32.5441 87.4848 35.3645L89.999 38.4755C93.389 35.7359 96.2333 33.7679 98.5849 32.4933C100.971 31.1999 102.672 30.72 103.822 30.72V26.72ZM87.2404 35.5987C81.8907 41.678 78.8219 47.2744 78.8219 52.24H82.8219C82.8219 48.8056 85.0331 44.162 90.2433 38.2413L87.2404 35.5987ZM78.8255 52.361C78.9671 54.6973 79.7368 56.7715 81.1717 58.2823C82.6267 59.8142 84.6103 60.6 86.8219 60.6V56.6C85.5935 56.6 84.6971 56.1858 84.072 55.5277C83.427 54.8485 82.9166 53.7427 82.8182 52.119L78.8255 52.361ZM86.8219 60.6C87.4227 60.6 88.3159 60.6102 89.3743 60.2574L88.1094 56.4626C87.7279 56.5898 87.421 56.6 86.8219 56.6V60.6ZM89.3902 60.252C92.4811 59.1929 94.7204 57.8399 96.5475 56.1555C98.3452 54.4982 99.6693 52.5845 100.979 50.57L97.625 48.39C96.3344 50.3755 95.2385 51.9218 93.8363 53.2145C92.4634 54.4801 90.7226 55.5671 88.0936 56.468L89.3902 60.252ZM101.087 50.3814L103.167 46.2614L99.5965 44.4586L97.5165 48.5786L101.087 50.3814ZM100.146 46.9326C100.365 47.1042 100.723 47.5266 101.163 48.4187C101.589 49.284 102.022 50.4467 102.466 51.9324L106.298 50.7876C105.822 49.1933 105.315 47.796 104.751 46.6513C104.2 45.5333 103.519 44.4958 102.618 43.7874L100.146 46.9326ZM102.48 51.9787C103.037 53.6916 103.603 55.1464 104.201 56.3312C104.791 57.4991 105.466 58.5164 106.29 59.2519L108.954 56.2681C108.658 56.0036 108.253 55.4809 107.772 54.5288C107.3 53.5936 106.807 52.3484 106.284 50.7413L102.48 51.9787ZM106.312 59.2714C107.243 60.0787 108.22 60.48 109.462 60.48V56.48C109.297 56.48 109.242 56.4587 109.223 56.4516C109.197 56.4415 109.111 56.4039 108.932 56.2486L106.312 59.2714ZM109.462 60.48C110.871 60.48 112.243 59.9197 113.292 59.1584C114.32 58.4116 115.331 57.2527 115.623 55.7922L111.701 55.0078C111.673 55.1473 111.483 55.5284 110.942 55.9216C110.42 56.3003 109.853 56.48 109.462 56.48V60.48ZM115.662 55.4C115.662 53.6109 114.77 51.7085 113.399 49.8237L110.164 52.1763C111.354 53.8114 111.662 54.8691 111.662 55.4H115.662ZM90.3744 50.9867C90.3818 51.0725 90.3637 51.006 90.4349 50.7036C90.4981 50.4354 90.6075 50.0805 90.7696 49.6444C91.0931 48.7744 91.5835 47.6956 92.1893 46.5365C93.4114 44.1985 95.0022 41.7267 96.4301 40.1361L93.4536 37.4639C91.7216 39.3933 89.9523 42.1814 88.6444 44.6835C87.9853 45.9444 87.4181 47.1806 87.0204 48.2505C86.8219 48.7845 86.6547 49.3058 86.5415 49.7864C86.4363 50.2328 86.3419 50.7875 86.3894 51.3333L90.3744 50.9867ZM96.4075 40.1609C96.8558 39.6781 97.2629 39.3286 97.5909 39.1142C97.9551 38.8763 98.0439 38.92 97.9019 38.92V34.92C96.9198 34.92 96.0487 35.3437 95.4028 35.7658C94.7209 36.2114 94.0679 36.8019 93.4763 37.4391L96.4075 40.1609ZM97.9019 38.92C97.8143 38.92 97.7612 38.9088 97.7475 38.9058C97.7306 38.902 97.7214 38.8988 97.7138 38.8958C97.7102 38.8944 97.6758 38.8811 97.6161 38.8446C97.5862 38.8262 97.5286 38.789 97.4572 38.7297C97.3989 38.6812 97.2557 38.5563 97.1178 38.3494L100.446 36.1306C100.173 35.7218 99.8144 35.5004 99.7064 35.4342C99.5305 35.3264 99.3486 35.2406 99.1799 35.1742C98.8642 35.0498 98.4085 34.92 97.9019 34.92V38.92ZM96.782 37.2571C96.7886 38.0351 96.5219 39.1807 95.9308 40.5643C95.3537 41.9152 94.5273 43.3533 93.5681 44.6755C92.6055 46.0022 91.5508 47.1547 90.543 47.9704C89.4883 48.824 88.7008 49.1346 88.2501 49.1643L88.5137 53.1557C90.183 53.0454 91.7605 52.131 93.0595 51.0796C94.4054 49.9903 95.6932 48.5578 96.8057 47.0245C97.9214 45.4867 98.9026 43.7898 99.6092 42.1357C100.302 40.5143 100.795 38.7849 100.782 37.2229L96.782 37.2571ZM133.776 25.8L132.739 24.0896L132.729 24.0957L132.719 24.1019L133.776 25.8ZM129.616 30.4L127.948 29.296L127.919 29.3393L127.893 29.384L129.616 30.4ZM127.176 33.76L126.611 35.6787L127.788 36.0247L128.63 35.1332L127.176 33.76ZM126.496 33.56L124.525 33.9027L124.738 35.1278L125.931 35.4787L126.496 33.56ZM119.696 37.4L117.696 37.3783L117.696 37.3891V37.4H119.696ZM119.096 42.96L117.118 42.6648L117.116 42.6772L119.096 42.96ZM126.736 50.24L124.736 50.2145L124.736 50.2273V50.24H126.736ZM134.296 35.28L134.781 33.3397L133.869 33.1118L133.112 33.6679L134.296 35.28ZM134.936 35.44L136.884 34.9903L136.609 33.7968L135.421 33.4997L134.936 35.44ZM136.016 42.2L137.999 41.9433L137.998 41.935L137.997 41.9267L136.016 42.2ZM141.336 58.52L141.755 56.5644L141.712 56.5552L141.669 56.548L141.336 58.52ZM144.776 51.32L146.713 50.8252L146.706 50.7978L146.699 50.7706L144.776 51.32ZM144.176 48.92L146.148 48.5912L146.147 48.5818L146.145 48.5724L144.176 48.92ZM143.176 42.84L141.196 43.1214L141.198 43.1404L141.201 43.1594L143.176 42.84ZM139.256 26.16L141.099 25.3848L141.091 25.3662L141.083 25.3477L139.256 26.16ZM137.016 22.64C135.557 22.64 134.18 23.2163 132.739 24.0896L134.812 27.5104C136.011 26.7837 136.634 26.64 137.016 26.64V22.64ZM132.719 24.1019C131.722 24.7223 130.98 25.2803 130.228 26.1291C129.537 26.9102 128.866 27.9087 127.948 29.296L131.283 31.504C132.245 30.0513 132.755 29.3098 133.223 28.7809C133.631 28.3197 134.029 27.9977 134.832 27.4981L132.719 24.1019ZM127.893 29.384C127.037 30.8359 126.284 31.7915 125.722 32.3867L128.63 35.1332C129.428 34.2885 130.355 33.0841 131.338 31.416L127.893 29.384ZM127.74 31.8413L127.06 31.6413L125.931 35.4787L126.611 35.6787L127.74 31.8413ZM128.466 33.2173C128.302 32.2722 127.696 31.6745 127.222 31.3462C126.751 31.0202 126.233 30.8294 125.818 30.7114C124.981 30.4733 124.089 30.4 123.536 30.4V34.4C123.66 34.4 123.86 34.4095 124.089 34.4374C124.32 34.4653 124.542 34.507 124.723 34.5586C124.923 34.6156 124.978 34.6573 124.945 34.635C124.91 34.6105 124.61 34.3878 124.525 33.9027L128.466 33.2173ZM123.536 30.4C122.108 30.4 120.583 30.9017 119.428 32.1779C118.289 33.4363 117.719 35.215 117.696 37.3783L121.696 37.4217C121.712 35.9049 122.102 35.1837 122.393 34.8621C122.668 34.5583 123.043 34.4 123.536 34.4V30.4ZM117.696 37.4C117.696 38.2325 117.519 39.9757 117.118 42.6648L121.074 43.2552C121.472 40.5843 121.696 38.5675 121.696 37.4H117.696ZM117.116 42.6772C116.671 45.7926 116.416 48.4207 116.416 50.6H120.416C120.416 48.6993 120.641 46.2874 121.076 43.2428L117.116 42.6772ZM116.416 50.6C116.416 52.9611 116.826 55.0343 117.653 56.5961C118.48 58.1578 119.91 59.48 121.896 59.48V55.48C121.867 55.48 121.814 55.4778 121.71 55.4013C121.589 55.3124 121.395 55.1154 121.188 54.7239C120.765 53.9257 120.416 52.5589 120.416 50.6H116.416ZM121.896 59.48C123.147 59.48 124.185 58.849 124.917 58.2198C125.679 57.5656 126.338 56.7199 126.871 55.8573C127.902 54.191 128.736 52.0116 128.736 50.24H124.736C124.736 50.9884 124.289 52.429 123.47 53.7527C123.079 54.3851 122.67 54.8769 122.31 55.1864C121.921 55.521 121.784 55.48 121.896 55.48V59.48ZM128.735 50.2655C128.773 47.3028 129.206 44.9266 130.204 42.8446C131.197 40.7738 132.822 38.8436 135.479 36.8921L133.112 33.6679C130.05 35.9164 127.934 38.3262 126.597 41.1154C125.265 43.8934 124.778 46.8972 124.736 50.2145L128.735 50.2655ZM133.811 37.2203L134.451 37.3803L135.421 33.4997L134.781 33.3397L133.811 37.2203ZM132.987 35.8897C133.203 36.8266 133.552 38.975 134.034 42.4733L137.997 41.9267C137.519 38.465 137.148 36.1334 136.884 34.9903L132.987 35.8897ZM134.032 42.4567C134.69 47.5381 135.326 51.6513 136.187 54.571C136.618 56.0289 137.144 57.3352 137.853 58.3485C138.583 59.392 139.607 60.2562 141.002 60.492L141.669 56.548C141.645 56.5438 141.458 56.523 141.131 56.0552C140.782 55.5573 140.404 54.7261 140.024 53.439C139.265 50.8688 138.661 47.0619 137.999 41.9433L134.032 42.4567ZM140.917 60.4756C141.619 60.6261 142.2 60.68 142.816 60.68V56.68C142.472 56.68 142.172 56.6539 141.755 56.5644L140.917 60.4756ZM142.816 60.68C144.144 60.68 145.521 60.3685 146.473 59.2526C147.36 58.2123 147.496 56.8933 147.496 55.88H143.496C143.496 56.2388 143.466 56.4636 143.433 56.5976C143.403 56.721 143.383 56.7109 143.429 56.6574C143.483 56.5937 143.527 56.5874 143.472 56.6065C143.396 56.6331 143.2 56.68 142.816 56.68V60.68ZM147.496 55.88C147.496 54.4368 147.21 52.7709 146.713 50.8252L142.838 51.8148C143.301 53.6291 143.496 54.9232 143.496 55.88H147.496ZM146.699 50.7706C146.379 49.6511 146.208 48.9481 146.148 48.5912L142.203 49.2488C142.303 49.8519 142.532 50.7489 142.853 51.8694L146.699 50.7706ZM146.145 48.5724C145.908 47.2308 145.592 45.2517 145.15 42.5206L141.201 43.1594C141.64 45.8683 141.963 47.8892 142.206 49.2676L146.145 48.5724ZM145.156 42.5586C144.067 34.8997 142.678 29.1405 141.099 25.3848L137.412 26.9352C138.793 30.2195 140.124 35.5803 141.196 43.1214L145.156 42.5586ZM141.083 25.3477C140.744 24.5854 140.248 23.8531 139.475 23.3344C138.693 22.8091 137.831 22.64 137.016 22.64V26.64C137.152 26.64 137.223 26.6541 137.25 26.661C137.271 26.6666 137.263 26.667 137.246 26.6556C137.203 26.6269 137.287 26.6546 137.428 26.9723L141.083 25.3477ZM171.619 8.28L173.034 9.69421L173.069 9.65888L173.102 9.62182L171.619 8.28ZM169.979 17.28H167.979V17.4221L167.999 17.5628L169.979 17.28ZM170.019 17.56L172.015 17.427L172.01 17.3518L171.999 17.2772L170.019 17.56ZM169.979 24.64L167.98 24.5983L167.979 24.6192V24.64H169.979ZM170.139 34.32H172.139V34.1915L172.123 34.0641L170.139 34.32ZM165.299 37.4L164.557 35.543L164.537 35.5507L164.518 35.5588L165.299 37.4ZM162.779 38.56L161.67 36.8959L161.662 36.901L161.655 36.9061L162.779 38.56ZM152.539 56.4H154.539V56.1756L154.49 55.9568L152.539 56.4ZM163.659 58L163.129 56.0715L163.122 56.0734L163.659 58ZM174.259 50L175.838 48.7721L173.835 46.1969L172.449 49.1502L174.259 50ZM175.699 52.16L173.809 52.812L173.812 52.8229L173.816 52.8338L175.699 52.16ZM184.579 55.52L186.388 56.3732L186.423 56.299L186.452 56.2222L184.579 55.52ZM182.499 50L180.722 50.9173L180.837 51.1395L181.003 51.3266L182.499 50ZM177.139 26.04L175.14 25.9794L175.139 26.0097V26.04H177.139ZM176.739 11.36L174.757 11.6243L174.761 11.6534L174.766 11.6823L176.739 11.36ZM175.299 7.08L174.907 9.04116L175.006 9.06097L175.107 9.0707L175.299 7.08ZM169.619 43.44L171.602 43.7043L172.033 40.4731L168.957 41.5529L169.619 43.44ZM161.939 51.48L161.73 53.469L161.834 53.48H161.939V51.48ZM161.179 51.4L159.685 52.7287L160.199 53.3079L160.97 53.389L161.179 51.4ZM160.819 49.64L162.676 50.3828L162.714 50.2878L162.742 50.1894L160.819 49.64ZM174.659 5.04C172.962 5.04 171.342 5.60542 170.136 6.93818L173.102 9.62182C173.417 9.27458 173.877 9.04 174.659 9.04V5.04ZM170.205 6.86579C169.274 7.79737 168.734 9.08623 168.412 10.4587C168.085 11.8565 167.939 13.5328 167.939 15.44H171.939C171.939 13.7072 172.074 12.3635 172.307 11.3713C172.545 10.3538 172.845 9.88263 173.034 9.69421L170.205 6.86579ZM167.939 15.44C167.939 15.7786 167.951 16.1122 167.96 16.4105C167.971 16.7191 167.979 16.9976 167.979 17.28H171.979C171.979 16.9224 171.968 16.5809 171.958 16.2795C171.948 15.9678 171.939 15.7014 171.939 15.44H167.939ZM167.999 17.5628L168.039 17.8428L171.999 17.2772L171.959 16.9972L167.999 17.5628ZM168.024 17.693C168.058 18.2114 168.059 18.8945 168.059 19.84H172.059C172.059 18.9455 172.06 18.1086 172.015 17.427L168.024 17.693ZM168.059 19.84C168.059 21.0928 168.02 22.6611 167.98 24.5983L171.979 24.6817C172.019 22.7789 172.059 21.1472 172.059 19.84H168.059ZM167.979 24.64C167.979 25.404 167.97 26.121 167.96 26.811C167.95 27.496 167.939 28.1623 167.939 28.8H171.939C171.939 28.1977 171.949 27.564 171.959 26.869C171.969 26.1789 171.979 25.436 171.979 24.64H167.979ZM167.939 28.8C167.939 31.2205 167.977 33.188 168.156 34.5759L172.123 34.0641C171.982 32.972 171.939 31.2595 171.939 28.8H167.939ZM168.139 34.32C168.139 33.7874 168.413 33.5305 168.352 33.5973C168.318 33.6358 168.178 33.7664 167.846 33.9772C167.192 34.3931 166.117 34.919 164.557 35.543L166.042 39.257C167.682 38.601 169.027 37.9669 169.992 37.3527C170.471 37.0486 170.941 36.6967 171.314 36.2864C171.661 35.9045 172.139 35.2325 172.139 34.32H168.139ZM164.518 35.5588C163.864 35.8364 163.301 36.0761 162.855 36.2778C162.443 36.464 162.003 36.6738 161.67 36.8959L163.889 40.2241C163.885 40.2268 163.926 40.1999 164.046 40.1391C164.158 40.082 164.308 40.0108 164.504 39.9222C164.898 39.7439 165.415 39.5236 166.08 39.2412L164.518 35.5588ZM161.655 36.9061C154.433 41.8169 150.259 47.4227 150.259 53.8H154.259C154.259 49.3773 157.126 44.8231 163.904 40.2139L161.655 36.9061ZM150.259 53.8C150.259 54.8084 150.352 55.7989 150.589 56.8432L154.49 55.9568C154.327 55.2411 154.259 54.5516 154.259 53.8H150.259ZM150.539 56.4C150.539 57.9406 151.249 59.2524 152.595 60.06C153.78 60.771 155.303 61 156.899 61V57C155.576 57 154.918 56.789 154.653 56.63C154.55 56.5682 154.546 56.5382 154.557 56.5589C154.568 56.5772 154.539 56.5452 154.539 56.4H150.539ZM156.899 61C159.145 61 161.606 60.6485 164.196 59.9266L163.122 56.0734C160.833 56.7115 158.734 57 156.899 57V61ZM164.189 59.9285C169.831 58.3782 173.918 55.4351 176.07 50.8498L172.449 49.1502C170.921 52.4049 167.968 54.7418 163.129 56.0715L164.189 59.9285ZM172.681 51.2279C172.811 51.3958 172.987 51.5843 173.065 51.6705C173.174 51.7899 173.269 51.8978 173.362 52.0156C173.542 52.2447 173.701 52.4998 173.809 52.812L177.59 51.508C177.046 49.9297 175.83 48.7618 175.838 48.7721L172.681 51.2279ZM173.816 52.8338C174.655 55.1776 175.703 57.0524 176.85 58.3817C177.933 59.6366 179.389 60.72 181.059 60.72V56.72C181.13 56.72 180.685 56.7034 179.878 55.7683C179.136 54.9076 178.304 53.5024 177.582 51.4862L173.816 52.8338ZM181.059 60.72C183.669 60.72 185.326 58.6246 186.388 56.3732L182.771 54.6668C181.832 56.6554 181.17 56.72 181.059 56.72V60.72ZM186.452 56.2222C186.638 55.7257 186.779 55.1262 186.779 54.48H182.779C182.779 54.5538 182.76 54.6743 182.707 54.8178L186.452 56.2222ZM186.779 54.48C186.779 52.4963 185.658 50.548 183.996 48.6734L181.003 51.3266C182.461 52.972 182.779 53.9837 182.779 54.48H186.779ZM184.277 49.0827C182.075 44.8161 180.813 41.6879 180.085 38.6186C179.358 35.5495 179.139 32.438 179.139 28.16H175.139C175.139 32.562 175.361 36.0304 176.193 39.5414C177.026 43.0521 178.444 46.5039 180.722 50.9173L184.277 49.0827ZM179.139 28.16V26.04H175.139V28.16H179.139ZM179.138 26.1006C179.179 24.7496 179.179 23.7652 179.179 23.12H175.179C175.179 23.7548 175.179 24.6904 175.14 25.9794L179.138 26.1006ZM179.179 23.12V21.48H175.179V23.12H179.179ZM179.179 21.48C179.179 16.703 179.063 13.183 178.713 11.0377L174.766 11.6823C175.055 13.457 175.179 16.657 175.179 21.48H179.179ZM178.722 11.0957C178.667 10.6842 178.631 10.2638 178.577 9.7425C178.527 9.25964 178.462 8.70257 178.351 8.17738C178.246 7.67808 178.065 7.02747 177.687 6.45048C177.264 5.80468 176.543 5.19099 175.492 5.0893L175.107 9.0707C174.676 9.029 174.415 8.75531 174.341 8.64202C174.312 8.59752 174.368 8.67191 174.437 9.00261C174.502 9.30743 174.549 9.68535 174.598 10.155C174.643 10.5862 174.692 11.1358 174.757 11.6243L178.722 11.0957ZM175.692 5.11883C175.26 5.03255 174.81 5.04 174.659 5.04V9.04C174.766 9.04 174.831 9.04033 174.889 9.04294C174.914 9.04411 174.929 9.04539 174.935 9.04601C174.941 9.04669 174.931 9.04589 174.907 9.04116L175.692 5.11883ZM167.637 43.1757C167.467 44.4507 166.623 46.0945 165.364 47.4484C164.064 48.8472 162.759 49.48 161.939 49.48V53.48C164.4 53.48 166.694 51.8928 168.294 50.1716C169.936 48.4055 171.292 46.0293 171.602 43.7043L167.637 43.1757ZM162.149 49.491L161.389 49.411L160.97 53.389L161.73 53.469L162.149 49.491ZM162.674 50.0713C162.676 50.073 162.685 50.0837 162.697 50.1035C162.708 50.1235 162.719 50.1461 162.727 50.1693C162.744 50.2178 162.739 50.2368 162.739 50.2H158.739C158.739 51.0512 158.99 51.9478 159.685 52.7287L162.674 50.0713ZM162.739 50.2C162.739 50.1446 162.74 50.1247 162.74 50.1103C162.74 50.1 162.74 50.1138 162.737 50.1409C162.734 50.17 162.728 50.21 162.716 50.2565C162.705 50.3032 162.691 50.3459 162.676 50.3828L158.962 48.8972C158.724 49.4925 158.739 50.0061 158.739 50.2H162.739ZM162.742 50.1894C162.775 50.0759 162.922 49.7707 163.377 49.2988C163.809 48.8493 164.415 48.3574 165.162 47.8568C166.658 46.8551 168.544 45.9372 170.282 45.3271L168.957 41.5529C166.935 42.2628 164.741 43.3249 162.936 44.5332C162.034 45.1376 161.185 45.8082 160.495 46.5249C159.826 47.2193 159.184 48.0841 158.896 49.0906L162.742 50.1894ZM190.967 39.32H192.967V39.2202L192.958 39.121L190.967 39.32ZM211.848 50.44L213.262 51.8542L215.261 49.8554L212.71 48.6357L211.848 50.44ZM197.167 50.32L196.38 52.1583L196.391 52.1631L196.402 52.1677L197.167 50.32ZM193.848 56.52L195.711 55.7936L195.703 55.7744L195.696 55.7553L193.848 56.52ZM206.048 58.6L206.312 60.5825L206.319 60.5815L206.327 60.5804L206.048 58.6ZM218.648 53.24L220.424 54.158L220.43 54.1463L220.436 54.1344L218.648 53.24ZM218.368 47.12L219.943 45.8874L219.938 45.8818L219.934 45.8762L218.368 47.12ZM212.327 43.44L213.035 41.5694L213.024 41.5653L213.013 41.5612L212.327 43.44ZM199.008 38.72L197.727 40.2564L198.061 40.535L198.481 40.6495L199.008 38.72ZM198.768 38.52L197.167 39.72L197.308 39.9069L197.487 40.0564L198.768 38.52ZM206.048 35.6L206.366 37.5744L206.443 37.562L206.519 37.5437L206.048 35.6ZM208.768 34.04L210.432 35.1494L210.458 35.1098L210.482 35.069L208.768 34.04ZM208.928 31.88L207.092 32.6738L207.114 32.7248L207.139 32.7744L208.928 31.88ZM203.768 27.16C200.435 27.16 196.84 28.1337 194.024 29.9146C191.218 31.6887 188.887 34.4838 188.887 38.16H192.887C192.887 36.3561 194.017 34.6513 196.161 33.2954C198.295 31.9463 201.14 31.16 203.768 31.16V27.16ZM188.887 38.16C188.887 38.639 188.94 39.1438 188.977 39.519L192.958 39.121C192.915 38.6962 192.887 38.401 192.887 38.16H188.887ZM188.967 39.32C188.967 41.4492 190.457 42.9777 191.897 44.014C193.407 45.1004 195.422 46.0511 197.54 46.9241C199.673 47.8032 202.081 48.6701 204.391 49.5349C206.732 50.4114 209 51.2953 210.985 52.2443L212.71 48.6357C210.555 47.6047 208.143 46.6686 205.793 45.7888C203.412 44.8974 201.117 44.0718 199.065 43.2259C196.998 42.3739 195.345 41.5671 194.234 40.7672C193.053 39.9173 192.967 39.4308 192.967 39.32H188.967ZM210.433 49.0258C210.402 49.0573 210.218 49.2009 209.744 49.373C209.299 49.5344 208.733 49.6731 208.086 49.7835C206.792 50.0044 205.37 50.08 204.368 50.08V54.08C205.525 54.08 207.183 53.9956 208.759 53.7265C209.547 53.5919 210.364 53.4031 211.108 53.1332C211.822 52.8741 212.633 52.4827 213.262 51.8542L210.433 49.0258ZM204.368 50.08C202.7 50.08 200.618 49.5847 197.933 48.4723L196.402 52.1677C199.317 53.3753 201.955 54.08 204.368 54.08V50.08ZM197.955 48.4817C197.29 48.1968 196.44 47.92 195.568 47.92V51.92C195.655 51.92 195.924 51.9632 196.38 52.1583L197.955 48.4817ZM195.568 47.92C193.727 47.92 192.537 49.0153 191.915 50.1749C191.338 51.25 191.167 52.4773 191.167 53.4H195.167C195.167 52.8827 195.277 52.37 195.44 52.0651C195.513 51.9301 195.56 51.9019 195.548 51.9099C195.518 51.931 195.501 51.92 195.568 51.92V47.92ZM191.167 53.4C191.167 54.6148 191.432 55.9141 191.999 57.2847L195.696 55.7553C195.303 54.8059 195.167 54.0252 195.167 53.4H191.167ZM191.984 57.2464C192.837 59.4335 195.072 60.2497 196.62 60.5966C198.304 60.9741 200.098 61 201.167 61V57C200.117 57 198.711 56.9659 197.495 56.6934C196.143 56.3903 195.778 55.9665 195.711 55.7936L191.984 57.2464ZM201.167 61C202.781 61 204.485 60.826 206.312 60.5825L205.783 56.6175C204.01 56.854 202.514 57 201.167 57V61ZM206.327 60.5804C209.439 60.1418 212.449 59.3644 214.885 58.3519C216.103 57.8458 217.222 57.2626 218.152 56.6026C219.061 55.9566 219.911 55.1515 220.424 54.158L216.871 52.322C216.764 52.5285 216.474 52.8884 215.836 53.3411C215.218 53.7799 214.382 54.2292 213.35 54.6581C211.286 55.5156 208.616 56.2182 205.768 56.6196L206.327 60.5804ZM220.436 54.1344C221.091 52.8249 221.488 51.516 221.488 50.12H217.488C217.488 50.724 217.324 51.4151 216.859 52.3456L220.436 54.1344ZM221.488 50.12C221.488 48.5094 220.881 47.087 219.943 45.8874L216.792 48.3526C217.294 48.993 217.488 49.5706 217.488 50.12H221.488ZM219.934 45.8762C218.506 44.0779 216.079 42.721 213.035 41.5694L211.62 45.3106C214.496 46.399 216.069 47.4421 216.801 48.3638L219.934 45.8762ZM213.013 41.5612C205.071 38.6622 200.518 37.059 199.534 36.7905L198.481 40.6495C199.257 40.861 203.584 42.3778 211.642 45.3188L213.013 41.5612ZM200.288 37.1836L200.048 36.9836L197.487 40.0564L197.727 40.2564L200.288 37.1836ZM200.368 37.32C200.481 37.4719 200.568 37.6862 200.568 37.92H196.568C196.568 38.6338 196.814 39.2481 197.167 39.72L200.368 37.32ZM200.568 37.92C200.568 37.9062 200.57 38.0114 200.516 38.1698C200.453 38.3504 200.348 38.5122 200.224 38.6319C200.045 38.8064 199.961 38.7586 200.435 38.6251C201.355 38.3658 203.047 38.1105 206.366 37.5744L205.729 33.6256C202.608 34.1295 200.56 34.4341 199.35 34.7749C198.759 34.9414 198.013 35.2036 197.437 35.7631C196.721 36.4585 196.568 37.2926 196.568 37.92H200.568ZM206.519 37.5437C208.044 37.1739 209.545 36.479 210.432 35.1494L207.103 32.9306C207.03 33.041 206.691 33.3861 205.576 33.6563L206.519 37.5437ZM210.482 35.069C210.888 34.3935 211.128 33.6416 211.128 32.8H207.128C207.128 32.8384 207.127 32.8865 207.053 33.011L210.482 35.069ZM211.128 32.8C211.128 32.3304 211.061 31.6743 210.716 30.9856L207.139 32.7744C207.134 32.7646 207.13 32.7552 207.127 32.7473C207.126 32.7436 207.125 32.7405 207.125 32.7383C207.124 32.7362 207.124 32.735 207.124 32.735C207.124 32.7358 207.128 32.7541 207.128 32.8H211.128ZM210.763 31.0862C209.76 28.7654 207.08 27.16 204.247 27.16V31.16C205.735 31.16 206.815 32.0346 207.092 32.6738L210.763 31.0862ZM204.247 27.16H203.768V31.16H204.247V27.16Z" fill="#151515"/>
</svg>
