<svg width="23" height="24" viewBox="0 0 23 24" fill="none" xmlns="http://www.w3.org/2000/svg">
<path d="M22.0361 7.65958L22.0359 7.66055L19.3583 23.1291L4.14192 20.4102L4.1415 20.4101L4.14126 20.4101L4.14067 20.41L4.14009 20.4099L4.13788 20.4094L4.11118 20.4039C4.08539 20.3983 4.0442 20.389 3.99005 20.3751C3.88151 20.3473 3.72239 20.3018 3.53183 20.2332C3.14742 20.0947 2.65323 19.8686 2.18955 19.5184C1.72867 19.1702 1.30881 18.7082 1.04409 18.0934C0.781353 17.4832 0.650578 16.6747 0.838887 15.5953L0.839004 15.5946L2.81407 4.21188L2.81412 4.21159L2.81416 4.21138L2.81426 4.21081L2.81435 4.21027L2.81489 4.20751L2.82046 4.17979C2.826 4.15318 2.83531 4.1109 2.84905 4.05542C2.87661 3.94422 2.92168 3.78151 2.98957 3.58676C3.12657 3.19378 3.35005 2.6891 3.69581 2.21566C4.03979 1.74466 4.49421 1.31842 5.09521 1.04982C5.69031 0.783852 6.47881 0.649926 7.53405 0.837457C7.53421 0.837487 7.53438 0.837517 7.53455 0.837547L18.7331 2.84469L18.7335 2.84476L18.7337 2.8448L18.7343 2.84492L18.7349 2.84502L18.7371 2.84547L18.7638 2.85101C18.7896 2.85656 18.8308 2.86592 18.885 2.87979C18.9935 2.90758 19.1526 2.9531 19.3432 3.02174C19.7276 3.16022 20.2218 3.38632 20.6854 3.73654C21.1463 4.08466 21.5662 4.54673 21.8309 5.16148C22.0937 5.77166 22.2244 6.58018 22.0361 7.65958Z" stroke="black" stroke-width="1.5"/>
</svg>
