<svg width="219" height="45" viewBox="0 0 219 45" fill="none" xmlns="http://www.w3.org/2000/svg">
<path d="M43.9559 44.3943H0V0.605469H43.9559V44.3943ZM1.44118 42.9586H42.5148V2.04117H1.44118V42.9586Z" fill="#BFE2EB"/>
<path d="M29.9132 16.6742C30.1617 16.6742 30.3999 16.5758 30.5756 16.4008C30.7513 16.2258 30.85 15.9884 30.85 15.7409V12.1517L33.3216 10.0628L38.0919 16.3942C38.1654 16.4927 38.261 16.5726 38.3712 16.6274C38.4813 16.6823 38.6029 16.7106 38.726 16.71H38.8341C38.9826 16.7111 39.1283 16.6705 39.2548 16.5931C39.3812 16.5156 39.4833 16.4044 39.5494 16.272C39.6155 16.1396 39.6429 15.9913 39.6286 15.8441C39.6142 15.6969 39.5587 15.5567 39.4682 15.4395L34.6475 9.02906L38.0127 6.19356C38.0974 6.12615 38.1679 6.04279 38.2202 5.94823C38.2726 5.85367 38.3057 5.74977 38.3178 5.64245C38.3298 5.53513 38.3205 5.4265 38.2904 5.32275C38.2603 5.21901 38.21 5.12219 38.1424 5.03782C38.0747 4.95345 37.991 4.88318 37.8961 4.83102C37.8012 4.77887 37.6969 4.74585 37.5892 4.73385C37.4814 4.72185 37.3724 4.73111 37.2682 4.76109C37.1641 4.79108 37.0669 4.8412 36.9822 4.90861L30.85 10.0269V5.68388C30.85 5.43638 30.7513 5.19902 30.5756 5.02401C30.3999 4.849 30.1617 4.75068 29.9132 4.75068C29.6648 4.75068 29.4265 4.849 29.2508 5.02401C29.0752 5.19902 28.9765 5.43638 28.9765 5.68388V15.7338C28.9755 15.8569 28.999 15.979 29.0457 16.0931C29.0923 16.2071 29.1612 16.3109 29.2483 16.3983C29.3354 16.4857 29.439 16.5551 29.5531 16.6024C29.6672 16.6498 29.7896 16.6742 29.9132 16.6742Z" fill="#23272B"/>
<path d="M77.5505 8.07779C77.5505 5.98885 76.1093 4.75415 73.6377 4.75415H65.949C65.7961 4.75415 65.6495 4.81465 65.5413 4.92235C65.4332 5.03005 65.3725 5.17612 65.3725 5.32843V15.8162C65.3744 16.0453 65.4671 16.2644 65.6304 16.4258C65.7937 16.5871 66.0144 16.6776 66.2444 16.6776H66.3813C66.6107 16.6776 66.8306 16.5869 66.9928 16.4253C67.1549 16.2638 67.246 16.0447 67.246 15.8162V11.4589H72.4847L75.6625 16.2828C75.7393 16.404 75.8457 16.5037 75.9717 16.5728C76.0977 16.6418 76.2393 16.6779 76.3831 16.6776C76.5368 16.6757 76.6873 16.633 76.8189 16.5539C76.9505 16.4748 77.0586 16.3622 77.132 16.2276C77.2054 16.0931 77.2415 15.9414 77.2365 15.7884C77.2316 15.6353 77.1857 15.4863 77.1037 15.3568L74.6033 11.4301C75.4215 11.3281 76.1736 10.9304 76.7169 10.3124C77.2602 9.69444 77.5569 8.89925 77.5505 8.07779ZM73.6377 9.71449H67.246V6.47699H73.6377C74.9275 6.47699 75.6193 7.05127 75.6193 8.07779C75.6193 9.10432 74.9419 9.71449 73.6377 9.71449Z" fill="#23272B"/>
<path d="M93.8262 4.72461H85.6835C85.5306 4.72461 85.384 4.78511 85.2759 4.89281C85.1678 5.00051 85.1071 5.14658 85.1071 5.29889V15.7436C85.1071 15.9911 85.2057 16.2285 85.3814 16.4035C85.5571 16.5785 85.7954 16.6768 86.0438 16.6768C86.2923 16.6768 86.5305 16.5785 86.7062 16.4035C86.8819 16.2285 86.9806 15.9911 86.9806 15.7436V11.4365H94.028C96.3555 11.4365 97.739 9.92184 97.739 8.02672C97.739 5.95931 96.2978 4.72461 93.8262 4.72461ZM93.8262 9.74955H86.9806V6.47616H93.9127C95.1521 6.47616 95.815 7.07198 95.815 8.07696C95.815 9.08195 95.116 9.71366 93.8262 9.71366V9.74955Z" fill="#23272B"/>
<path d="M38.9759 32.1213H30.9197V22.7462C30.9197 22.5177 30.8286 22.2986 30.6664 22.1371C30.5042 21.9755 30.2843 21.8848 30.055 21.8848H29.9108C29.6815 21.8848 29.4616 21.9755 29.2994 22.1371C29.1372 22.2986 29.0461 22.5177 29.0461 22.7462V33.2699C29.0461 33.3449 29.0611 33.4193 29.0902 33.4885C29.1192 33.5578 29.1618 33.6207 29.2154 33.6734C29.269 33.7262 29.3326 33.7678 29.4026 33.7959C29.4725 33.8239 29.5473 33.8379 29.6226 33.837H38.9903C39.11 33.8479 39.2306 33.8338 39.3446 33.7957C39.4585 33.7575 39.5632 33.6961 39.652 33.6154C39.7408 33.5347 39.8117 33.4364 39.8602 33.3269C39.9088 33.2173 39.9338 33.0989 39.9338 32.9791C39.9338 32.8594 39.9088 32.741 39.8602 32.6314C39.8117 32.5218 39.7408 32.4236 39.652 32.3428C39.5632 32.2621 39.4585 32.2007 39.3446 32.1626C39.2306 32.1244 39.11 32.1104 38.9903 32.1213H38.9759Z" fill="#23272B"/>
<path d="M53.3252 22.4088C53.2444 22.2514 53.1216 22.1192 52.9704 22.0267C52.8191 21.9343 52.6452 21.8852 52.4677 21.8848C52.2906 21.8868 52.1173 21.9365 51.9663 22.0288C51.8153 22.1211 51.6922 22.2524 51.6102 22.4088L46.4508 32.5592C46.3615 32.7655 46.3546 32.998 46.4314 33.2092C46.5081 33.4205 46.6629 33.5946 46.864 33.6962C47.0652 33.7978 47.2977 33.8191 47.5141 33.7559C47.7305 33.6927 47.9146 33.5497 48.0289 33.356L49.3403 30.8005H55.6671L56.9786 33.356C57.0526 33.5002 57.1651 33.6214 57.3036 33.7062C57.4421 33.791 57.6014 33.8363 57.764 33.837C57.9155 33.8363 58.0642 33.797 58.1961 33.7229C58.328 33.6487 58.4386 33.5421 58.5174 33.4132C58.5961 33.2844 58.6404 33.1376 58.6461 32.9868C58.6517 32.836 58.6184 32.6863 58.5495 32.552L53.3252 22.4088ZM50.1186 29.2284L52.4821 24.6413L54.8096 29.2284H50.1186Z" fill="#23272B"/>
<path d="M96.9234 27.4884H92.117C91.8928 27.4864 91.6768 27.5729 91.5162 27.7288C91.3556 27.8848 91.2633 28.0977 91.2596 28.3211C91.2614 28.4314 91.2851 28.5402 91.3292 28.6414C91.3733 28.7426 91.437 28.8341 91.5166 28.9108C91.5963 28.9874 91.6903 29.0477 91.7933 29.0882C91.8963 29.1286 92.0063 29.1485 92.117 29.1466H95.6119V30.3957C94.949 31.4437 93.0898 32.3051 90.9425 32.3051C87.5413 32.3051 85.3651 30.3382 85.3651 27.876C85.3651 25.4138 87.5701 23.4469 90.9425 23.4469C92.5477 23.3912 94.1166 23.9309 95.3453 24.9615C95.4954 25.1029 95.6897 25.1887 95.8956 25.2044C96.1016 25.22 96.3067 25.1647 96.4766 25.0477C96.582 24.9753 96.6694 24.8799 96.7323 24.7688C96.7951 24.6577 96.8318 24.5338 96.8394 24.4065C96.847 24.2792 96.8255 24.1518 96.7764 24.0341C96.7272 23.9163 96.6518 23.8112 96.5559 23.7268C95.0054 22.3836 92.9951 21.6869 90.9425 21.7815C86.4532 21.7815 83.4484 24.4662 83.4484 27.9047C83.4484 31.3432 86.4244 33.9921 90.9425 33.9921C93.8897 33.9921 96.1235 32.944 97.4998 30.9771V28.0411C97.4989 27.967 97.4832 27.8937 97.4536 27.8257C97.4241 27.7576 97.3812 27.6961 97.3276 27.6447C97.274 27.5933 97.2106 27.553 97.1412 27.5261C97.0718 27.4993 96.9978 27.4865 96.9234 27.4884Z" fill="#23272B"/>
<path d="M115.294 32.1182H106.229V28.6366H111.518C111.638 28.6476 111.758 28.6335 111.872 28.5954C111.986 28.5572 112.091 28.4958 112.18 28.4151C112.268 28.3344 112.339 28.2361 112.388 28.1266C112.436 28.017 112.461 27.8986 112.461 27.7788C112.461 27.6591 112.436 27.5406 112.388 27.4311C112.339 27.3215 112.268 27.2233 112.18 27.1425C112.091 27.0618 111.986 27.0004 111.872 26.9623C111.758 26.9241 111.638 26.9101 111.518 26.921H106.229V23.6332H114.746C114.859 23.6332 114.971 23.6109 115.076 23.5675C115.18 23.5242 115.275 23.4606 115.355 23.3805C115.435 23.3004 115.498 23.2054 115.54 23.1009C115.583 22.9965 115.605 22.8846 115.604 22.7718C115.605 22.659 115.583 22.5472 115.54 22.4427C115.498 22.3382 115.435 22.2432 115.355 22.1631C115.275 22.083 115.18 22.0195 115.076 21.9761C114.971 21.9327 114.859 21.9104 114.746 21.9104H104.932C104.856 21.9104 104.781 21.9253 104.711 21.9541C104.641 21.983 104.578 22.0253 104.524 22.0786C104.471 22.1319 104.428 22.1952 104.399 22.2649C104.37 22.3346 104.355 22.4093 104.355 22.4847V33.2668C104.355 33.3419 104.37 33.4162 104.399 33.4855C104.428 33.5547 104.471 33.6176 104.524 33.6703C104.578 33.7231 104.642 33.7647 104.712 33.7928C104.782 33.8209 104.856 33.8348 104.932 33.8339H115.294C115.413 33.8448 115.534 33.8307 115.648 33.7926C115.762 33.7544 115.867 33.693 115.955 33.6123C116.044 33.5316 116.115 33.4333 116.164 33.3238C116.212 33.2142 116.237 33.0958 116.237 32.976C116.237 32.8563 116.212 32.7379 116.164 32.6283C116.115 32.5188 116.044 32.4205 115.955 32.3398C115.867 32.259 115.762 32.1977 115.648 32.1595C115.534 32.1214 115.413 32.1073 115.294 32.1182Z" fill="#23272B"/>
<path d="M134.692 25.234C134.692 23.1451 133.251 21.9104 130.779 21.9104H123.097C122.945 21.9104 122.798 21.9709 122.69 22.0786C122.582 22.1863 122.521 22.3324 122.521 22.4847V32.9724C122.521 33.2009 122.612 33.42 122.774 33.5816C122.936 33.7431 123.156 33.8339 123.386 33.8339H123.53C123.759 33.8339 123.979 33.7431 124.141 33.5816C124.303 33.42 124.394 33.2009 124.394 32.9724V28.6007H129.633L132.768 33.4247C132.903 33.5886 133.094 33.6972 133.304 33.7297C133.514 33.7622 133.729 33.7163 133.908 33.6007C134.086 33.4852 134.215 33.3081 134.271 33.1035C134.327 32.8988 134.305 32.6809 134.209 32.4915L131.73 28.6007C132.553 28.5002 133.309 28.1014 133.856 27.4804C134.402 26.8594 134.7 26.0597 134.692 25.234ZM130.779 26.8707H124.394V23.6332H130.779C132.076 23.6332 132.768 24.2075 132.768 25.234C132.768 26.2606 132.076 26.8707 130.779 26.8707Z" fill="#23272B"/>
<path d="M153.486 21.8848C153.322 21.8861 153.16 21.9265 153.015 22.0027C152.869 22.0789 152.744 22.1886 152.65 22.3227L148.038 28.8838L143.398 22.3227C143.273 22.1463 143.095 22.014 142.889 21.9449C142.684 21.8758 142.462 21.8733 142.255 21.938C142.049 22.0027 141.868 22.1311 141.739 22.3047C141.61 22.4783 141.54 22.6882 141.539 22.9041V32.9109C141.541 33.1572 141.64 33.3927 141.816 33.5662C141.991 33.7396 142.228 33.837 142.475 33.837C142.723 33.837 142.96 33.7396 143.135 33.5662C143.311 33.3927 143.41 33.1572 143.412 32.9109V25.2371L147.541 31.2096C147.594 31.2866 147.665 31.3496 147.748 31.3931C147.831 31.4366 147.923 31.4594 148.017 31.4594C148.11 31.4594 148.203 31.4366 148.286 31.3931C148.368 31.3496 148.439 31.2866 148.492 31.2096L152.621 25.2371V32.9109C152.642 33.1434 152.749 33.3597 152.922 33.5173C153.094 33.6749 153.32 33.7624 153.554 33.7624C153.789 33.7624 154.014 33.6749 154.187 33.5173C154.36 33.3597 154.467 33.1434 154.488 32.9109V22.9041C154.488 22.6375 154.383 22.3814 154.196 22.1908C154.008 22.0003 153.754 21.8904 153.486 21.8848Z" fill="#23272B"/>
<path d="M167.682 22.3657C167.608 22.2204 167.494 22.0985 167.354 22.0136C167.214 21.9287 167.053 21.8841 166.89 21.8848H166.796C166.633 21.8854 166.474 21.9307 166.335 22.0155C166.197 22.1003 166.085 22.2215 166.01 22.3657L160.808 32.5592C160.719 32.7655 160.712 32.998 160.788 33.2092C160.865 33.4205 161.02 33.5946 161.221 33.6962C161.422 33.7978 161.655 33.8191 161.871 33.7559C162.088 33.6927 162.272 33.5497 162.386 33.356L163.69 30.8005H170.06L171.364 33.356C171.44 33.5008 171.553 33.6222 171.693 33.707C171.833 33.7919 171.993 33.8368 172.157 33.837C172.309 33.8363 172.457 33.7971 172.589 33.7229C172.721 33.6487 172.832 33.5421 172.91 33.4132C172.989 33.2844 173.034 33.1376 173.039 32.9868C173.045 32.836 173.012 32.6863 172.943 32.552L167.682 22.3657ZM164.497 29.2284L166.861 24.6413L169.188 29.2284H164.497Z" fill="#23272B"/>
<path d="M189.168 21.8848C188.924 21.8848 188.689 21.9816 188.516 22.1539C188.343 22.3262 188.246 22.5599 188.246 22.8036V30.2836L180.824 22.1432C180.759 22.0749 180.681 22.0201 180.594 21.9819C180.508 21.9438 180.414 21.9229 180.32 21.9207C180.14 21.9207 179.968 21.9918 179.841 22.1183C179.714 22.2448 179.642 22.4165 179.642 22.5954V32.9109C179.642 33.1546 179.74 33.3883 179.912 33.5606C180.085 33.733 180.32 33.8298 180.565 33.8298C180.809 33.8298 181.044 33.733 181.217 33.5606C181.39 33.3883 181.487 33.1546 181.487 32.9109V25.4668L188.909 33.6288C189.04 33.7623 189.219 33.8396 189.406 33.8441C189.583 33.8339 189.749 33.7595 189.874 33.6351C189.999 33.5107 190.073 33.345 190.084 33.1694V22.8036C190.082 22.5617 189.985 22.3302 189.814 22.1585C189.643 21.9867 189.411 21.8885 189.168 21.8848Z" fill="#23272B"/>
<path d="M76.2758 21.8848C76.0324 21.8867 75.7997 21.9843 75.6283 22.1564C75.4568 22.3285 75.3606 22.5612 75.3607 22.8036V30.4415L66.5479 22.1432C66.4826 22.0749 66.4044 22.0201 66.3179 21.9819C66.2313 21.9438 66.1381 21.9229 66.0434 21.9207C65.8638 21.9207 65.6915 21.9918 65.5645 22.1183C65.4375 22.2448 65.3661 22.4165 65.3661 22.5954V32.9109C65.3661 33.1546 65.4633 33.3883 65.6362 33.5606C65.8092 33.733 66.0438 33.8298 66.2884 33.8298C66.5331 33.8298 66.7677 33.733 66.9406 33.5606C67.1136 33.3883 67.2108 33.1546 67.2108 32.9109V25.273L76.0164 33.6288C76.1494 33.764 76.3307 33.8414 76.5208 33.8441C76.7004 33.8441 76.8727 33.773 76.9998 33.6465C77.1268 33.5199 77.1982 33.3483 77.1982 33.1694V22.8036C77.1982 22.5599 77.101 22.3262 76.928 22.1539C76.755 21.9816 76.5204 21.8848 76.2758 21.8848Z" fill="#23272B"/>
<path d="M53.3245 5.24748C53.2431 5.09088 53.1201 4.95957 52.9689 4.86791C52.8176 4.77626 52.644 4.72778 52.467 4.72778C52.29 4.72778 52.1164 4.77626 51.9651 4.86791C51.8139 4.95957 51.6909 5.09088 51.6095 5.24748L46.4501 15.3979C46.3952 15.5013 46.3615 15.6145 46.351 15.731C46.3404 15.8474 46.3531 15.9649 46.3885 16.0764C46.4239 16.1879 46.4811 16.2913 46.5569 16.3806C46.6327 16.4699 46.7256 16.5433 46.8301 16.5966C46.9346 16.6498 47.0487 16.6819 47.1658 16.6908C47.2828 16.6998 47.4005 16.6855 47.512 16.6488C47.6234 16.612 47.7265 16.5536 47.8151 16.4769C47.9037 16.4002 47.9761 16.3067 48.0282 16.2019L49.3396 13.6463H55.6664L56.9779 16.2019C57.0519 16.3461 57.1643 16.4673 57.3029 16.5521C57.4414 16.6369 57.6007 16.6821 57.7633 16.6828C57.9148 16.6822 58.0635 16.6429 58.1954 16.5687C58.3273 16.4946 58.4379 16.388 58.5166 16.2591C58.5954 16.1302 58.6397 15.9834 58.6453 15.8327C58.651 15.6819 58.6177 15.5322 58.5488 15.3979L53.3245 5.24748ZM50.1395 12.0886L52.503 7.50153L54.8305 12.0886H50.1395Z" fill="#23272B"/>
<path d="M115.836 15.0421C115.182 14.8952 114.564 14.6247 114.013 14.2453C114.738 13.3556 115.368 12.3933 115.893 11.3739C115.99 11.1891 116.009 10.9737 115.947 10.7747C115.885 10.5756 115.747 10.4091 115.562 10.3115C115.466 10.2615 115.362 10.2307 115.254 10.2209C115.147 10.2112 115.038 10.2226 114.935 10.2546C114.832 10.2866 114.737 10.3386 114.654 10.4074C114.571 10.4763 114.502 10.5608 114.452 10.656C113.999 11.611 113.406 12.4939 112.694 13.2762C111.652 12.3862 110.672 11.4269 109.761 10.4048C110.414 10.2008 110.984 9.7923 111.385 9.24003C111.786 8.68775 111.997 8.02122 111.988 7.33958C111.988 5.65981 110.828 4.61893 108.954 4.61893C108.592 4.58791 108.227 4.63261 107.884 4.75015C107.54 4.86769 107.225 5.05549 106.958 5.3015C106.691 5.54751 106.479 5.8463 106.335 6.17873C106.191 6.51116 106.119 6.86988 106.122 7.2319C106.127 8.04546 106.378 8.83869 106.843 9.50748C104.681 10.2253 103.564 11.5246 103.564 13.2834C103.564 15.602 105.113 16.9372 107.816 16.9372C109.526 16.9825 111.206 16.4793 112.607 15.5015C113.428 16.1705 114.4 16.6289 115.439 16.8367C115.568 16.8642 115.701 16.8631 115.829 16.8336C115.956 16.8041 116.076 16.7469 116.18 16.666C116.283 16.5852 116.367 16.4826 116.426 16.3657C116.485 16.2488 116.517 16.1204 116.52 15.9897C116.545 15.7752 116.488 15.5594 116.362 15.3842C116.235 15.2091 116.048 15.0871 115.836 15.0421ZM109.041 6.0977C109.177 6.0977 110.33 6.0977 110.33 7.18165C110.33 8.2656 109.473 8.67478 108.601 8.9691C108.133 8.52087 107.844 7.9191 107.787 7.27497C107.781 7.11259 107.81 6.95083 107.872 6.80051C107.934 6.65019 108.027 6.51478 108.146 6.40333C108.265 6.29188 108.406 6.20696 108.56 6.15425C108.714 6.10155 108.878 6.08227 109.041 6.0977ZM108.003 15.2431C106.987 15.2431 105.286 14.9847 105.286 13.2475C105.286 11.8118 106.727 11.2662 107.924 10.8714C108.952 12.0904 110.06 13.2414 111.238 14.3171C110.257 14.8958 109.143 15.2146 108.003 15.2431Z" fill="#23272B"/>
<path d="M204.72 32.6592C204.632 32.6583 204.544 32.6749 204.463 32.7081C204.381 32.7413 204.307 32.7904 204.244 32.8526C204.182 32.9148 204.132 32.9888 204.099 33.0702C204.066 33.1516 204.049 33.2389 204.05 33.3268C204.049 33.4144 204.066 33.5013 204.099 33.5824C204.133 33.6634 204.182 33.7369 204.245 33.7986C204.307 33.8602 204.381 33.9086 204.463 33.941C204.545 33.9735 204.632 33.9892 204.72 33.9872C204.808 33.9902 204.896 33.9752 204.977 33.9431C205.059 33.911 205.133 33.8624 205.196 33.8005C205.258 33.7386 205.307 33.6645 205.339 33.5831C205.371 33.5016 205.386 33.4144 205.383 33.3268C205.385 33.2392 205.369 33.1521 205.337 33.0707C205.304 32.9893 205.256 32.9153 205.194 32.853C205.132 32.7907 205.058 32.7415 204.977 32.7082C204.895 32.6749 204.808 32.6582 204.72 32.6592Z" fill="#23272B"/>
<path d="M218.337 32.6592C218.248 32.6583 218.161 32.6749 218.079 32.7081C217.997 32.7413 217.923 32.7904 217.861 32.8526C217.798 32.9148 217.749 32.9888 217.716 33.0702C217.682 33.1516 217.666 33.2389 217.667 33.3268C217.666 33.4144 217.682 33.5013 217.716 33.5824C217.749 33.6634 217.799 33.7369 217.861 33.7986C217.924 33.8602 217.998 33.9086 218.08 33.941C218.161 33.9735 218.249 33.9892 218.337 33.9872C218.425 33.9902 218.512 33.9752 218.594 33.9431C218.676 33.911 218.75 33.8624 218.812 33.8005C218.874 33.7386 218.923 33.6645 218.955 33.5831C218.988 33.5016 219.003 33.4144 219 33.3268C219.002 33.2392 218.986 33.1521 218.953 33.0707C218.921 32.9893 218.872 32.9153 218.81 32.853C218.748 32.7907 218.675 32.7415 218.593 32.7082C218.512 32.6749 218.425 32.6582 218.337 32.6592Z" fill="#23272B"/>
<path d="M201.635 27.7316H197.563C197.452 27.7316 197.346 27.7755 197.268 27.8536C197.189 27.9316 197.145 28.0375 197.145 28.148V33.3667C197.136 33.45 197.145 33.5342 197.17 33.614C197.196 33.6937 197.238 33.7672 197.294 33.8296C197.35 33.892 197.419 33.9419 197.496 33.976C197.573 34.0102 197.656 34.0278 197.74 34.0278C197.824 34.0278 197.907 34.0102 197.984 33.976C198.061 33.9419 198.129 33.892 198.185 33.8296C198.241 33.7672 198.284 33.6937 198.309 33.614C198.335 33.5342 198.344 33.45 198.334 33.3667V31.529H201.764C202.018 31.55 202.273 31.5181 202.513 31.4355C202.753 31.3528 202.974 31.2212 203.16 31.0489C203.347 30.8767 203.495 30.6677 203.596 30.4352C203.697 30.2027 203.748 29.9518 203.746 29.6985C203.754 29.4261 203.704 29.1551 203.599 28.9034C203.494 28.6518 203.337 28.4253 203.137 28.2392C202.937 28.053 202.7 27.9115 202.441 27.8239C202.182 27.7364 201.907 27.7049 201.635 27.7316ZM201.635 30.402H198.334V28.8586H201.678C201.788 28.8584 201.897 28.8808 201.999 28.9243C202.1 28.9678 202.191 29.0315 202.267 29.1116C202.343 29.1917 202.401 29.2863 202.439 29.3898C202.476 29.4932 202.492 29.6031 202.485 29.7129C202.485 30.28 202.031 30.402 201.635 30.402Z" fill="#23272B"/>
<path d="M212.572 28.4852C213.346 28.4514 214.104 28.7075 214.698 29.2031C214.794 29.2931 214.917 29.3478 215.048 29.3583C215.179 29.3687 215.31 29.3342 215.419 29.2605C215.487 29.2118 215.543 29.1484 215.583 29.0751C215.623 29.0017 215.645 28.9203 215.649 28.837C215.656 28.7518 215.644 28.6661 215.613 28.5864C215.582 28.5068 215.532 28.4353 215.469 28.3775C214.683 27.667 213.647 27.2931 212.587 27.3367C210.331 27.3367 208.688 28.7221 208.688 30.6316C208.688 32.5411 210.331 33.9265 212.587 33.9265C213.64 33.9721 214.669 33.6063 215.455 32.9072C215.518 32.8494 215.567 32.7779 215.598 32.6983C215.63 32.6186 215.642 32.5329 215.635 32.4477C215.632 32.3651 215.61 32.2844 215.57 32.212C215.53 32.1397 215.473 32.0778 215.404 32.0314C215.296 31.9564 215.165 31.9211 215.034 31.9315C214.902 31.942 214.779 31.9976 214.684 32.0888C214.089 32.5819 213.331 32.8377 212.558 32.8067C211.002 32.8067 209.877 31.895 209.877 30.6101C209.877 29.3251 211.009 28.4852 212.572 28.4852Z" fill="#23272B"/>
</svg>
