<svg width="201" height="41" viewBox="0 0 201 41" fill="none" xmlns="http://www.w3.org/2000/svg">
<path d="M40.3427 40.1893H0V0H40.3427V40.1893ZM1.32271 38.8717H39.02V1.31768H1.32271V38.8717Z" fill="white"/>
<path d="M27.4526 14.7511C27.6806 14.7511 27.8993 14.6608 28.0606 14.5002C28.2218 14.3396 28.3124 14.1217 28.3124 13.8946V10.6004L30.5808 8.68314L34.959 14.4941C35.0264 14.5845 35.1142 14.6579 35.2153 14.7082C35.3164 14.7586 35.428 14.7845 35.541 14.784H35.6402C35.7765 14.785 35.9102 14.7478 36.0263 14.6767C36.1423 14.6056 36.236 14.5035 36.2967 14.3819C36.3573 14.2604 36.3825 14.1244 36.3693 13.9893C36.3562 13.8542 36.3052 13.7255 36.2222 13.6179L31.7977 7.73441L34.8863 5.13199C34.964 5.07012 35.0287 4.99362 35.0768 4.90683C35.1248 4.82004 35.1553 4.72468 35.1663 4.62618C35.1774 4.52768 35.1688 4.42798 35.1412 4.33276C35.1136 4.23755 35.0674 4.14869 35.0053 4.07125C34.9432 3.99382 34.8664 3.92932 34.7793 3.88146C34.6922 3.83359 34.5965 3.80328 34.4976 3.79227C34.3987 3.78126 34.2986 3.78975 34.203 3.81727C34.1075 3.84479 34.0183 3.8908 33.9405 3.95266L28.3124 8.6502V4.66421C28.3124 4.43705 28.2218 4.2192 28.0606 4.05858C27.8993 3.89795 27.6806 3.80772 27.4526 3.80772C27.2246 3.80772 27.0059 3.89795 26.8447 4.05858C26.6834 4.2192 26.5929 4.43705 26.5929 4.66421V13.888C26.592 14.001 26.6136 14.1131 26.6564 14.2178C26.6992 14.3225 26.7624 14.4177 26.8423 14.4979C26.9223 14.5781 27.0173 14.6418 27.1221 14.6853C27.2268 14.7287 27.3392 14.7511 27.4526 14.7511Z" fill="white"/>
<path d="M71.1747 6.85781C71.1747 4.94058 69.852 3.80737 67.5836 3.80737H60.5269C60.3866 3.80737 60.252 3.8629 60.1528 3.96175C60.0535 4.06059 59.9978 4.19466 59.9978 4.33445V13.9601C59.9995 14.1704 60.0846 14.3715 60.2345 14.5196C60.3844 14.6677 60.5869 14.7507 60.798 14.7507H60.9237C61.1342 14.7507 61.336 14.6674 61.4849 14.5192C61.6337 14.3709 61.7173 14.1698 61.7173 13.9601V9.96095H66.5254L69.442 14.3884C69.5125 14.4996 69.6101 14.5911 69.7258 14.6545C69.8414 14.7179 69.9713 14.751 70.1033 14.7507C70.2444 14.749 70.3825 14.7098 70.5033 14.6372C70.6241 14.5646 70.7233 14.4612 70.7907 14.3377C70.8581 14.2142 70.8912 14.0751 70.8866 13.9346C70.882 13.7941 70.84 13.6574 70.7647 13.5385L68.4698 9.9346C69.2208 9.84098 69.9111 9.47594 70.4097 8.90875C70.9084 8.34157 71.1806 7.61174 71.1747 6.85781ZM67.5836 8.35997H61.7173V5.38859H67.5836C68.7674 5.38859 69.4023 5.91567 69.4023 6.85781C69.4023 7.79995 68.7806 8.35997 67.5836 8.35997Z" fill="white"/>
<path d="M86.115 3.78247H78.6416C78.5013 3.78247 78.3667 3.838 78.2675 3.93685C78.1683 4.03569 78.1125 4.16976 78.1125 4.30954V13.8957C78.1125 14.1228 78.2031 14.3407 78.3644 14.5013C78.5256 14.6619 78.7443 14.7522 78.9723 14.7522C79.2003 14.7522 79.419 14.6619 79.5803 14.5013C79.7415 14.3407 79.8321 14.1228 79.8321 13.8957V9.94264H86.3001C88.4363 9.94264 89.7061 8.55248 89.7061 6.81314C89.7061 4.91568 88.3834 3.78247 86.115 3.78247ZM86.115 8.39436H79.8321V5.39004H86.1943C87.3319 5.39004 87.9403 5.93688 87.9403 6.85926C87.9403 7.78164 87.2988 8.36142 86.115 8.36142V8.39436Z" fill="white"/>
<path d="M35.7724 28.9227H28.3784V20.3182C28.3784 20.1085 28.2948 19.9074 28.146 19.7592C27.9971 19.6109 27.7953 19.5276 27.5848 19.5276H27.4525C27.242 19.5276 27.0402 19.6109 26.8913 19.7592C26.7425 19.9074 26.6589 20.1085 26.6589 20.3182V29.9768C26.6589 30.0457 26.6726 30.114 26.6993 30.1775C26.7259 30.2411 26.765 30.2988 26.8142 30.3472C26.8635 30.3956 26.9218 30.4338 26.986 30.4596C27.0501 30.4854 27.1188 30.4982 27.188 30.4973H35.7856C35.8955 30.5073 36.0062 30.4944 36.1108 30.4594C36.2154 30.4244 36.3115 30.3681 36.3929 30.294C36.4744 30.2199 36.5395 30.1297 36.5841 30.0291C36.6286 29.9286 36.6516 29.8199 36.6516 29.71C36.6516 29.6001 36.6286 29.4914 36.5841 29.3908C36.5395 29.2903 36.4744 29.2001 36.3929 29.126C36.3115 29.0519 36.2154 28.9956 36.1108 28.9606C36.0062 28.9256 35.8955 28.9127 35.7856 28.9227H35.7724Z" fill="white"/>
<path d="M48.9402 20.0085C48.8661 19.8641 48.7534 19.7427 48.6145 19.6579C48.4757 19.5731 48.3161 19.528 48.1532 19.5276C47.9906 19.5294 47.8316 19.5751 47.693 19.6598C47.5544 19.7445 47.4415 19.865 47.3662 20.0085L42.6309 29.3246C42.5489 29.5139 42.5426 29.7273 42.613 29.9212C42.6835 30.115 42.8255 30.2749 43.0102 30.3681C43.1948 30.4613 43.4081 30.4809 43.6068 30.4229C43.8054 30.3649 43.9744 30.2336 44.0792 30.0559L45.2829 27.7104H51.0896L52.2933 30.0559C52.3612 30.1882 52.4644 30.2995 52.5916 30.3773C52.7187 30.4552 52.8649 30.4967 53.0142 30.4973C53.1532 30.4967 53.2897 30.4607 53.4107 30.3926C53.5318 30.3245 53.6333 30.2267 53.7056 30.1084C53.7779 29.9901 53.8185 29.8554 53.8237 29.717C53.8288 29.5786 53.7983 29.4413 53.735 29.318L48.9402 20.0085ZM45.9972 26.2675L48.1664 22.0575L50.3026 26.2675H45.9972Z" fill="white"/>
<path d="M88.959 24.6733H84.5477C84.3419 24.6716 84.1437 24.7509 83.9963 24.894C83.8489 25.0372 83.7642 25.2326 83.7607 25.4376C83.7624 25.5388 83.7842 25.6387 83.8246 25.7316C83.8651 25.8245 83.9236 25.9085 83.9967 25.9788C84.0698 26.0492 84.156 26.1045 84.2506 26.1417C84.3451 26.1788 84.4461 26.197 84.5477 26.1953H87.7553V27.3416C87.1469 28.3036 85.4406 29.0942 83.4697 29.0942C80.3481 29.0942 78.3508 27.2889 78.3508 25.0291C78.3508 22.7693 80.3746 20.9641 83.4697 20.9641C84.943 20.913 86.3829 21.4083 87.5106 22.3542C87.6483 22.484 87.8267 22.5627 88.0157 22.5771C88.2047 22.5915 88.393 22.5407 88.5489 22.4333C88.6456 22.3668 88.7259 22.2793 88.7836 22.1773C88.8413 22.0753 88.8749 21.9616 88.8819 21.8448C88.8889 21.728 88.8691 21.6111 88.824 21.503C88.779 21.3949 88.7097 21.2985 88.6217 21.221C87.1987 19.9881 85.3536 19.3487 83.4697 19.4355C79.3495 19.4355 76.5916 21.8996 76.5916 25.0555C76.5916 28.2113 79.323 30.6424 83.4697 30.6424C86.1747 30.6424 88.2249 29.6805 89.4881 27.8753V25.1806C89.4872 25.1126 89.4728 25.0454 89.4457 24.9829C89.4185 24.9205 89.3792 24.864 89.33 24.8168C89.2808 24.7696 89.2226 24.7326 89.1589 24.708C89.0952 24.6834 89.0273 24.6716 88.959 24.6733Z" fill="white"/>
<path d="M105.817 28.9237H97.4975V25.7283H102.352C102.462 25.7383 102.572 25.7254 102.677 25.6904C102.782 25.6554 102.878 25.599 102.959 25.5249C103.041 25.4509 103.106 25.3607 103.15 25.2601C103.195 25.1596 103.218 25.0509 103.218 24.941C103.218 24.8311 103.195 24.7224 103.15 24.6218C103.106 24.5213 103.041 24.4311 102.959 24.357C102.878 24.2829 102.782 24.2266 102.677 24.1915C102.572 24.1565 102.462 24.1436 102.352 24.1536H97.4975V21.1362H105.315C105.419 21.1362 105.521 21.1157 105.617 21.0758C105.713 21.036 105.8 20.9777 105.874 20.9042C105.947 20.8307 106.005 20.7435 106.044 20.6476C106.083 20.5517 106.103 20.4491 106.102 20.3455C106.103 20.242 106.083 20.1394 106.044 20.0435C106.005 19.9476 105.947 19.8604 105.874 19.7869C105.8 19.7134 105.713 19.655 105.617 19.6152C105.521 19.5754 105.419 19.5549 105.315 19.5549H96.307C96.2376 19.5549 96.1688 19.5686 96.1046 19.5951C96.0404 19.6215 95.982 19.6604 95.9329 19.7093C95.8838 19.7583 95.8448 19.8164 95.8182 19.8803C95.7916 19.9442 95.778 20.0128 95.778 20.082V29.9778C95.7779 30.0467 95.7917 30.1149 95.8183 30.1785C95.845 30.2421 95.8841 30.2998 95.9333 30.3482C95.9825 30.3966 96.0409 30.4348 96.1051 30.4606C96.1692 30.4863 96.2379 30.4992 96.307 30.4983H105.817C105.927 30.5083 106.038 30.4954 106.143 30.4604C106.247 30.4254 106.343 30.369 106.425 30.295C106.506 30.2209 106.571 30.1307 106.616 30.0301C106.66 29.9296 106.683 29.8209 106.683 29.711C106.683 29.6011 106.66 29.4924 106.616 29.3918C106.571 29.2913 106.506 29.2011 106.425 29.127C106.343 29.0529 106.247 28.9966 106.143 28.9616C106.038 28.9265 105.927 28.9136 105.817 28.9237Z" fill="white"/>
<path d="M123.621 22.6054C123.621 20.6881 122.298 19.5549 120.029 19.5549H112.979C112.839 19.5549 112.704 19.6105 112.605 19.7093C112.506 19.8082 112.45 19.9422 112.45 20.082V29.7077C112.45 29.9174 112.534 30.1185 112.683 30.2667C112.831 30.415 113.033 30.4983 113.244 30.4983H113.376C113.587 30.4983 113.788 30.415 113.937 30.2667C114.086 30.1185 114.17 29.9174 114.17 29.7077V25.6953H118.978L121.855 30.1227C121.979 30.2732 122.154 30.3729 122.347 30.4027C122.54 30.4325 122.737 30.3904 122.901 30.2843C123.065 30.1783 123.183 30.0158 123.234 29.8279C123.285 29.6401 123.265 29.4401 123.177 29.2663L120.902 25.6953C121.657 25.6031 122.352 25.237 122.853 24.6671C123.355 24.0971 123.628 23.3632 123.621 22.6054ZM120.029 24.1075H114.17V21.1362H120.029C121.22 21.1362 121.855 21.6632 121.855 22.6054C121.855 23.5475 121.22 24.1075 120.029 24.1075Z" fill="white"/>
<path d="M140.869 19.5276C140.718 19.5288 140.569 19.5659 140.436 19.6358C140.303 19.7057 140.188 19.8064 140.101 19.9295L135.869 25.9513L131.61 19.9295C131.495 19.7676 131.331 19.6462 131.143 19.5828C130.955 19.5193 130.751 19.5171 130.561 19.5765C130.371 19.6358 130.205 19.7537 130.087 19.913C129.969 20.0724 129.905 20.265 129.903 20.4631V29.6474C129.905 29.8734 129.996 30.0896 130.157 30.2488C130.318 30.408 130.536 30.4973 130.763 30.4973C130.99 30.4973 131.208 30.408 131.369 30.2488C131.53 30.0896 131.621 29.8734 131.623 29.6474V22.6044L135.412 28.0859C135.461 28.1566 135.526 28.2144 135.602 28.2543C135.678 28.2943 135.763 28.3151 135.849 28.3151C135.935 28.3151 136.02 28.2943 136.096 28.2543C136.172 28.2144 136.237 28.1566 136.285 28.0859L140.075 22.6044V29.6474C140.094 29.8607 140.192 30.0593 140.351 30.204C140.509 30.3486 140.716 30.4288 140.931 30.4288C141.146 30.4288 141.354 30.3486 141.512 30.204C141.671 30.0593 141.769 29.8607 141.788 29.6474V20.4631C141.788 20.2184 141.692 19.9834 141.52 19.8085C141.348 19.6336 141.114 19.5328 140.869 19.5276Z" fill="white"/>
<path d="M153.898 19.969C153.83 19.8356 153.725 19.7238 153.597 19.6459C153.469 19.5679 153.321 19.527 153.171 19.5276H153.085C152.935 19.5282 152.789 19.5697 152.662 19.6476C152.535 19.7254 152.432 19.8366 152.364 19.969L147.589 29.3246C147.507 29.5139 147.5 29.7273 147.571 29.9212C147.641 30.1151 147.783 30.2749 147.968 30.3681C148.153 30.4613 148.366 30.4809 148.565 30.4229C148.763 30.3649 148.932 30.2337 149.037 30.0559L150.234 27.7104H156.081L157.278 30.0559C157.347 30.1888 157.451 30.3002 157.579 30.3781C157.708 30.4559 157.855 30.4972 158.005 30.4973C158.144 30.4967 158.281 30.4607 158.402 30.3926C158.523 30.3245 158.624 30.2267 158.697 30.1084C158.769 29.9901 158.809 29.8554 158.815 29.717C158.82 29.5786 158.789 29.4413 158.726 29.318L153.898 19.969ZM150.975 26.2675L153.144 22.0575L155.28 26.2675H150.975Z" fill="white"/>
<path d="M173.619 19.5276C173.395 19.5276 173.179 19.6164 173.021 19.7746C172.862 19.9327 172.773 20.1472 172.773 20.3709V27.236L165.961 19.7648C165.901 19.7021 165.829 19.6518 165.75 19.6168C165.67 19.5817 165.585 19.5626 165.498 19.5605C165.333 19.5605 165.175 19.6258 165.058 19.7419C164.942 19.8581 164.876 20.0156 164.876 20.1798V29.6474C164.876 29.8711 164.965 30.0856 165.124 30.2437C165.283 30.4019 165.498 30.4907 165.723 30.4907C165.947 30.4907 166.162 30.4019 166.321 30.2437C166.48 30.0856 166.569 29.8711 166.569 29.6474V22.8152L173.381 30.3062C173.502 30.4288 173.665 30.4997 173.837 30.5039C173.999 30.4945 174.152 30.4262 174.266 30.312C174.381 30.1979 174.45 30.0458 174.459 29.8846V20.3709C174.457 20.1489 174.369 19.9364 174.212 19.7788C174.055 19.6212 173.842 19.531 173.619 19.5276Z" fill="white"/>
<path d="M70.0046 19.5276C69.7812 19.5293 69.5676 19.6189 69.4103 19.7769C69.2529 19.9349 69.1646 20.1484 69.1647 20.3709V27.381L61.0763 19.7648C61.0163 19.7021 60.9446 19.6518 60.8652 19.6168C60.7857 19.5817 60.7002 19.5626 60.6133 19.5605C60.4484 19.5605 60.2903 19.6258 60.1737 19.7419C60.0571 19.8581 59.9916 20.0156 59.9916 20.1798V29.6474C59.9916 29.8711 60.0808 30.0856 60.2396 30.2437C60.3983 30.4019 60.6137 30.4907 60.8382 30.4907C61.0627 30.4907 61.278 30.4019 61.4368 30.2437C61.5955 30.0856 61.6847 29.8711 61.6847 29.6474V22.6373L69.7665 30.3062C69.8886 30.4304 70.055 30.5014 70.2294 30.5039C70.3943 30.5039 70.5524 30.4386 70.669 30.3225C70.7856 30.2063 70.8511 30.0488 70.8511 29.8846V20.3709C70.8511 20.1472 70.7619 19.9327 70.6032 19.7746C70.4444 19.6164 70.2291 19.5276 70.0046 19.5276Z" fill="white"/>
<path d="M48.9397 4.26335C48.865 4.11962 48.7521 3.99911 48.6133 3.91499C48.4745 3.83087 48.3151 3.78638 48.1527 3.78638C47.9902 3.78638 47.8309 3.83087 47.6921 3.91499C47.5533 3.99911 47.4404 4.11962 47.3657 4.26335L42.6303 13.5794C42.58 13.6743 42.5491 13.7782 42.5394 13.8851C42.5297 13.992 42.5414 14.0998 42.5738 14.2021C42.6063 14.3045 42.6588 14.3994 42.7284 14.4813C42.798 14.5633 42.8832 14.6307 42.9791 14.6796C43.0751 14.7284 43.1798 14.7578 43.2872 14.766C43.3947 14.7743 43.5027 14.7611 43.605 14.7274C43.7073 14.6937 43.8018 14.6401 43.8832 14.5697C43.9645 14.4993 44.031 14.4135 44.0787 14.3173L45.2824 11.9718H51.0891L52.2928 14.3173C52.3607 14.4497 52.4639 14.5609 52.5911 14.6387C52.7182 14.7166 52.8644 14.7581 53.0136 14.7587C53.1526 14.7581 53.2892 14.7221 53.4102 14.654C53.5312 14.5859 53.6328 14.4881 53.705 14.3698C53.7773 14.2515 53.818 14.1168 53.8232 13.9784C53.8283 13.84 53.7978 13.7027 53.7345 13.5794L48.9397 4.26335ZM46.0165 10.5421L48.1857 6.33212L50.3219 10.5421H46.0165Z" fill="white"/>
<path d="M106.313 13.249C105.713 13.1141 105.145 12.8659 104.64 12.5177C105.305 11.7011 105.884 10.8179 106.366 9.8823C106.455 9.71267 106.473 9.51497 106.416 9.33232C106.359 9.14966 106.231 8.99685 106.062 8.90721C105.974 8.8613 105.878 8.83306 105.779 8.82411C105.681 8.81516 105.581 8.82567 105.487 8.85504C105.392 8.88441 105.304 8.93207 105.228 8.99528C105.152 9.0585 105.089 9.13603 105.043 9.22346C104.627 10.0999 104.083 10.9102 103.43 11.6282C102.474 10.8114 101.574 9.93095 100.738 8.99286C101.337 8.80565 101.86 8.43072 102.228 7.92384C102.596 7.41696 102.79 6.80522 102.781 6.17961C102.781 4.63792 101.717 3.6826 99.9971 3.6826C99.6648 3.65413 99.3302 3.69515 99.0147 3.80303C98.6992 3.91091 98.4099 4.08327 98.1652 4.30906C97.9204 4.53485 97.7258 4.80908 97.5937 5.11418C97.4616 5.41928 97.3949 5.74852 97.398 6.08078C97.402 6.82746 97.6325 7.55549 98.0593 8.16931C96.0753 8.82815 95.0502 10.0207 95.0502 11.6348C95.0502 13.7629 96.4721 14.9883 98.9522 14.9883C100.522 15.0299 102.064 14.568 103.35 13.6706C104.103 14.2846 104.995 14.7054 105.949 14.8961C106.067 14.9213 106.189 14.9203 106.307 14.8933C106.424 14.8662 106.534 14.8137 106.629 14.7394C106.723 14.6652 106.8 14.5711 106.855 14.4638C106.909 14.3565 106.938 14.2387 106.941 14.1186C106.964 13.9218 106.912 13.7238 106.796 13.563C106.68 13.4022 106.508 13.2903 106.313 13.249ZM100.076 5.03981C100.202 5.03981 101.26 5.03981 101.26 6.03466C101.26 7.02951 100.473 7.40505 99.6731 7.67518C99.2436 7.26379 98.9782 6.7115 98.9257 6.12031C98.9203 5.97128 98.947 5.82281 99.0038 5.68485C99.0606 5.54689 99.1464 5.4226 99.2554 5.32032C99.3643 5.21803 99.4939 5.14009 99.6355 5.09172C99.7771 5.04334 99.9275 5.02565 100.076 5.03981ZM99.1241 13.4335C98.1916 13.4335 96.6308 13.1963 96.6308 11.6019C96.6308 10.2842 97.9535 9.78347 99.0514 9.42111C99.9955 10.5399 101.012 11.5963 102.094 12.5835C101.193 13.1147 100.171 13.4073 99.1241 13.4335Z" fill="white"/>
<path d="M187.891 29.4175C187.81 29.4166 187.73 29.4319 187.654 29.4624C187.579 29.4928 187.511 29.5379 187.454 29.595C187.397 29.6521 187.351 29.72 187.321 29.7947C187.29 29.8695 187.275 29.9495 187.276 30.0302C187.275 30.1106 187.29 30.1904 187.321 30.2648C187.352 30.3392 187.397 30.4066 187.454 30.4632C187.512 30.5198 187.58 30.5642 187.655 30.594C187.73 30.6237 187.81 30.6381 187.891 30.6364C187.972 30.6391 188.052 30.6253 188.127 30.5959C188.202 30.5664 188.27 30.5218 188.327 30.465C188.384 30.4081 188.429 30.3402 188.459 30.2654C188.488 30.1906 188.502 30.1106 188.499 30.0302C188.501 29.9498 188.487 29.8699 188.457 29.7952C188.427 29.7205 188.382 29.6525 188.326 29.5954C188.269 29.5382 188.201 29.493 188.126 29.4625C188.052 29.4319 187.972 29.4166 187.891 29.4175Z" fill="white"/>
<path d="M200.391 29.4175C200.31 29.4166 200.23 29.4319 200.155 29.4624C200.08 29.4928 200.012 29.5379 199.954 29.595C199.897 29.6521 199.852 29.72 199.821 29.7947C199.79 29.8695 199.775 29.9495 199.776 30.0302C199.775 30.1106 199.79 30.1904 199.821 30.2648C199.852 30.3392 199.897 30.4066 199.955 30.4632C200.012 30.5198 200.08 30.5642 200.155 30.594C200.23 30.6237 200.31 30.6381 200.391 30.6364C200.472 30.6391 200.552 30.6253 200.627 30.5959C200.702 30.5664 200.77 30.5218 200.827 30.465C200.885 30.4081 200.929 30.3402 200.959 30.2654C200.988 30.1906 201.002 30.1106 201 30.0302C201.001 29.9498 200.987 29.8699 200.957 29.7952C200.927 29.7205 200.882 29.6525 200.826 29.5954C200.769 29.5382 200.701 29.493 200.627 29.4625C200.552 29.4319 200.472 29.4166 200.391 29.4175Z" fill="white"/>
<path d="M185.061 24.8964H181.325C181.223 24.8964 181.125 24.9366 181.053 25.0083C180.981 25.08 180.941 25.1772 180.941 25.2785V30.0683C180.933 30.1447 180.94 30.222 180.964 30.2952C180.988 30.3684 181.026 30.4358 181.078 30.4931C181.129 30.5503 181.192 30.5961 181.263 30.6275C181.333 30.6589 181.41 30.6751 181.487 30.6751C181.564 30.6751 181.64 30.6589 181.711 30.6275C181.781 30.5961 181.844 30.5503 181.896 30.4931C181.947 30.4358 181.986 30.3684 182.009 30.2952C182.033 30.222 182.041 30.1447 182.032 30.0683V28.3817H185.18C185.413 28.4009 185.647 28.3716 185.867 28.2958C186.088 28.2199 186.29 28.0991 186.461 27.941C186.633 27.783 186.769 27.5911 186.861 27.3777C186.954 27.1643 187.001 26.9341 186.999 26.7016C187.007 26.4516 186.961 26.2028 186.865 25.9719C186.768 25.7409 186.624 25.5331 186.44 25.3622C186.257 25.1914 186.039 25.0614 185.801 24.9811C185.563 24.9008 185.311 24.8719 185.061 24.8964ZM185.061 27.3473H182.032V25.9308H185.101C185.202 25.9306 185.303 25.9511 185.396 25.991C185.489 26.0309 185.572 26.0895 185.642 26.1629C185.711 26.2364 185.765 26.3233 185.799 26.4182C185.834 26.5131 185.848 26.6141 185.842 26.7148C185.842 27.2353 185.425 27.3473 185.061 27.3473Z" fill="white"/>
<path d="M195.1 25.5898C195.81 25.5587 196.506 25.7938 197.051 26.2486C197.138 26.3312 197.252 26.3815 197.372 26.391C197.492 26.4006 197.612 26.369 197.712 26.3013C197.774 26.2566 197.826 26.1984 197.863 26.1311C197.899 26.0638 197.92 25.9891 197.924 25.9126C197.93 25.8344 197.919 25.7557 197.89 25.6826C197.861 25.6095 197.816 25.544 197.758 25.4909C197.037 24.8388 196.086 24.4957 195.113 24.5356C193.043 24.5356 191.535 25.8072 191.535 27.5597C191.535 29.3122 193.043 30.5838 195.113 30.5838C196.079 30.6256 197.024 30.2899 197.745 29.6482C197.803 29.5952 197.848 29.5296 197.877 29.4565C197.905 29.3834 197.917 29.3047 197.91 29.2266C197.908 29.1507 197.887 29.0766 197.851 29.0102C197.814 28.9438 197.762 28.887 197.699 28.8444C197.599 28.7756 197.479 28.7432 197.359 28.7528C197.238 28.7624 197.124 28.8134 197.037 28.8971C196.491 29.3497 195.796 29.5844 195.086 29.556C193.658 29.556 192.626 28.7192 192.626 27.5399C192.626 26.3606 193.664 25.5898 195.1 25.5898Z" fill="white"/>
</svg>
