<svg width="306" height="80" viewBox="0 0 306 80" fill="none" xmlns="http://www.w3.org/2000/svg">
<path d="M40.075 0C15.4898 0 0 15.3248 0 40.0268C0 64.7287 15.4347 80 40.075 80C64.6603 80 80.1501 64.7287 80.1501 40.0268C80.1501 15.3248 64.6603 0 40.075 0ZM40.075 18.1112C49.832 18.1112 56.3366 26.6309 56.3366 40.0268C56.3366 53.3691 49.8871 61.8888 40.075 61.8888C30.263 61.8888 23.8135 53.3691 23.8135 40.0268C23.8135 26.6309 30.3181 18.1112 40.075 18.1112Z" fill="#068880"/>
<path d="M88.5682 1.33958V78.6604H111.941V57.5486H123.296C141.873 57.5486 154.496 46.564 154.496 29.5244C154.496 12.3242 142.59 1.33958 124.895 1.33958H88.5682ZM111.941 18.4327H118.666C126.273 18.4327 130.903 22.2371 130.903 29.578C130.903 36.9725 126.273 40.777 118.5 40.777H111.941V18.4327Z" fill="#068880"/>
<path d="M203.375 78.6604V19.3972H224.322V1.33958H159.056V19.3972H180.003V78.6604H203.375Z" fill="#068880"/>
<path d="M265.925 0C241.34 0 225.85 15.3248 225.85 40.0268C225.85 64.7287 241.285 80 265.925 80C290.51 80 306 64.7287 306 40.0268C306 15.3248 290.51 0 265.925 0ZM265.925 18.1112C275.682 18.1112 282.186 26.6309 282.186 40.0268C282.186 53.3691 275.737 61.8888 265.925 61.8888C256.113 61.8888 249.663 53.3691 249.663 40.0268C249.663 26.6309 256.168 18.1112 265.925 18.1112Z" fill="#068880"/>
</svg>
