<svg width="31" height="31" viewBox="0 0 31 31" fill="none" xmlns="http://www.w3.org/2000/svg">
<g opacity="0.5" clip-path="url(#clip0_2303_456)">
<path d="M17.4404 4.13848L20.2732 9.87047C20.3559 10.0341 20.4765 10.1757 20.6249 10.2833C20.7734 10.3909 20.9455 10.4615 21.1267 10.4892L27.4562 11.3986C27.6664 11.4278 27.864 11.5157 28.0266 11.6521C28.1891 11.7886 28.3099 11.968 28.3752 12.1699C28.4405 12.3718 28.4476 12.588 28.3958 12.7937C28.3439 12.9995 28.2351 13.1864 28.0819 13.3333L23.5145 17.7697C23.3863 17.9006 23.2913 18.0604 23.2376 18.2356C23.184 18.4109 23.1732 18.5964 23.2063 18.7767L24.2904 25.0746C24.3277 25.2833 24.3056 25.4982 24.2265 25.6949C24.1475 25.8916 24.0147 26.0621 23.8434 26.1869C23.6721 26.3117 23.4691 26.3857 23.2576 26.4006C23.0462 26.4155 22.8348 26.3706 22.6477 26.2711L16.9911 23.3067C16.8285 23.2202 16.6472 23.1747 16.4631 23.1743C16.2789 23.1738 16.0974 23.2184 15.9344 23.3041L10.2595 26.3075C10.0725 26.4053 9.86185 26.4491 9.65131 26.434C9.44076 26.4188 9.23859 26.3453 9.06745 26.2218C8.89631 26.0982 8.76295 25.9294 8.68232 25.7343C8.60169 25.5393 8.57698 25.3256 8.61094 25.1172L9.68037 18.8368C9.71168 18.6562 9.69803 18.4707 9.64065 18.2967C9.58326 18.1227 9.48389 17.9654 9.35133 17.8389L4.78012 13.3543C4.62576 13.2098 4.51504 13.0249 4.46055 12.8207C4.40605 12.6164 4.40998 12.4009 4.47187 12.1987C4.53376 11.9966 4.65114 11.8158 4.81065 11.6771C4.97017 11.5383 5.16542 11.4471 5.37421 11.4138L11.7314 10.4937C11.9129 10.4658 12.0852 10.3949 12.2337 10.2869C12.3823 10.1788 12.5028 10.0368 12.5852 9.87259L15.3962 4.16905C15.4866 3.97594 15.6295 3.81214 15.8085 3.69637C15.9876 3.5806 16.1956 3.51751 16.4088 3.51433C16.6219 3.51114 16.8317 3.56797 17.0142 3.67834C17.1966 3.78871 17.3443 3.94816 17.4404 4.13848V4.13848Z" fill="#EAB300"/>
<path d="M17.1875 3.27415L20.0202 9.00614C20.102 9.17053 20.2223 9.31267 20.371 9.42042C20.5196 9.52816 20.6921 9.5983 20.8738 9.62484L27.2033 10.5342C27.4119 10.566 27.6077 10.6552 27.7685 10.7919C27.9293 10.9286 28.0489 11.1074 28.1139 11.3083C28.1788 11.5091 28.1866 11.7241 28.1363 11.9291C28.0859 12.1341 27.9795 12.321 27.829 12.4689L23.2683 16.9074C23.1385 17.0373 23.0425 17.197 22.9888 17.3725C22.935 17.5481 22.9251 17.7341 22.96 17.9144L24.0508 24.2144C24.0881 24.423 24.066 24.638 23.9869 24.8347C23.9079 25.0313 23.7751 25.2018 23.6038 25.3266C23.4325 25.4514 23.2295 25.5255 23.018 25.5404C22.8066 25.5553 22.5952 25.5104 22.4081 25.4109L16.7515 22.4465C16.5896 22.3614 16.4094 22.3169 16.2265 22.3168C16.0436 22.3167 15.8634 22.361 15.7014 22.4459L10.0414 25.4247C9.85653 25.5315 9.64514 25.5838 9.43177 25.5754C9.2184 25.567 9.01178 25.4983 8.83585 25.3772C8.65993 25.2562 8.52191 25.0878 8.4378 24.8915C8.35368 24.6952 8.3269 24.4791 8.36058 24.2683L9.43355 17.9524C9.46423 17.7684 9.44856 17.5796 9.38798 17.4032C9.32739 17.2267 9.22379 17.0682 9.08654 16.9418L4.52717 12.49C4.37523 12.3429 4.26763 12.1561 4.21661 11.9508C4.16559 11.7456 4.1732 11.5302 4.23857 11.329C4.30395 11.1279 4.42446 10.9492 4.5864 10.8132C4.74834 10.6771 4.94521 10.5893 5.1546 10.5597L11.4784 9.62936C11.6603 9.60593 11.8335 9.53746 11.9822 9.43016C12.131 9.32287 12.2506 9.18014 12.3302 9.01493L15.1479 3.31343C15.236 3.11895 15.3773 2.95341 15.5556 2.83599C15.7339 2.71856 15.9418 2.65406 16.1553 2.64995C16.3687 2.64584 16.579 2.70229 16.7617 2.81276C16.9444 2.92324 17.092 3.08321 17.1875 3.27415V3.27415Z" fill="#F7D100"/>
<path d="M15.2635 7.55673C15.0308 8.31693 14.5142 8.83706 14.1761 8.72628C13.8381 8.61549 13.7032 7.88862 13.936 7.12842C14.1687 6.36821 14.6787 5.84604 15.0254 5.9522C15.3722 6.05836 15.5132 6.76523 15.2635 7.55673Z" fill="white"/>
<path d="M15.6324 5.42327C15.6072 5.50067 15.5597 5.56886 15.4958 5.61924C15.4319 5.66962 15.3545 5.69992 15.2734 5.70631C15.1922 5.7127 15.111 5.69489 15.04 5.65513C14.969 5.61538 14.9114 5.55546 14.8745 5.48296C14.8375 5.41046 14.8229 5.32863 14.8324 5.24782C14.842 5.16701 14.8753 5.09084 14.9281 5.02895C14.981 4.96706 15.051 4.92223 15.1293 4.90013C15.2076 4.87802 15.2907 4.87963 15.3681 4.90476C15.4195 4.92144 15.4671 4.94809 15.5082 4.98319C15.5493 5.01828 15.5831 5.06112 15.6077 5.10927C15.6322 5.15742 15.647 5.20994 15.6513 5.26381C15.6555 5.31769 15.6491 5.37188 15.6324 5.42327V5.42327Z" fill="white"/>
<path d="M23.4573 23.3176C23.5877 23.7732 23.4509 24.22 23.1552 24.3045C22.8594 24.389 22.4883 24.1004 22.3708 23.6268C22.2532 23.1532 22.3772 22.7243 22.6749 22.6332C22.9727 22.542 23.3223 22.8532 23.4573 23.3176Z" fill="white"/>
<g style="mix-blend-mode:overlay" opacity="0.4">
<path d="M10.7929 17.8941C16.3299 17.8899 20.8851 14.303 21.4601 9.70912L20.8734 9.62432C20.6918 9.59778 20.5192 9.52764 20.3706 9.4199C20.2219 9.31216 20.1016 9.17001 20.0199 9.00563L17.1871 3.27363C17.0936 3.08402 16.9488 2.92445 16.7691 2.81307C16.5894 2.70169 16.382 2.64297 16.1706 2.64359C15.9592 2.64421 15.7521 2.70414 15.5731 2.81657C15.394 2.929 15.2501 3.08941 15.1577 3.27957L12.3299 9.01441C12.2502 9.17963 12.1306 9.32235 11.9819 9.42965C11.8331 9.53694 11.66 9.60541 11.478 9.62884L5.15424 10.5591C4.94485 10.5888 4.74798 10.6766 4.58604 10.8126C4.4241 10.9487 4.30359 11.1274 4.23821 11.3285C4.17284 11.5296 4.16523 11.7451 4.21625 11.9503C4.26727 12.1556 4.37487 12.3424 4.52681 12.4895L9.08618 16.9413C9.19921 17.0546 9.28721 17.1903 9.34448 17.3398C9.40174 17.4892 9.42701 17.649 9.41863 17.8089C9.87493 17.8611 10.3336 17.8895 10.7929 17.8941V17.8941Z" fill="#FFF0F5"/>
</g>
</g>
<defs>
<clipPath id="clip0_2303_456">
<rect width="23.5232" height="24.7366" fill="white" transform="translate(7.70911) rotate(17.022)"/>
</clipPath>
</defs>
</svg>
