<svg width="31" height="31" viewBox="0 0 31 31" fill="none" xmlns="http://www.w3.org/2000/svg">
<g clip-path="url(#clip0_2303_446)">
<path d="M17.7061 4.13848L20.5388 9.87047C20.6215 10.0341 20.7421 10.1757 20.8906 10.2833C21.039 10.3909 21.2111 10.4615 21.3924 10.4892L27.7218 11.3986C27.932 11.4278 28.1296 11.5157 28.2922 11.6521C28.4547 11.7886 28.5755 11.968 28.6408 12.1699C28.7061 12.3718 28.7132 12.588 28.6614 12.7937C28.6095 12.9995 28.5007 13.1864 28.3475 13.3333L23.7802 17.7697C23.6519 17.9006 23.5569 18.0604 23.5033 18.2356C23.4496 18.4109 23.4389 18.5964 23.4719 18.7767L24.556 25.0746C24.5933 25.2833 24.5712 25.4982 24.4922 25.6949C24.4131 25.8916 24.2804 26.0621 24.109 26.1869C23.9377 26.3117 23.7347 26.3857 23.5233 26.4006C23.3118 26.4155 23.1005 26.3706 22.9133 26.2711L17.2567 23.3067C17.0942 23.2202 16.9129 23.1747 16.7287 23.1743C16.5445 23.1738 16.363 23.2184 16.2 23.3041L10.5252 26.3075C10.3381 26.4053 10.1275 26.4491 9.91693 26.434C9.70639 26.4188 9.50422 26.3453 9.33308 26.2218C9.16193 26.0982 9.02858 25.9294 8.94795 25.7343C8.86732 25.5393 8.8426 25.3256 8.87656 25.1172L9.946 18.8368C9.9773 18.6562 9.96366 18.4707 9.90627 18.2967C9.84888 18.1227 9.74952 17.9654 9.61695 17.8389L5.04574 13.3543C4.89138 13.2098 4.78066 13.0249 4.72617 12.8207C4.67168 12.6164 4.6756 12.4009 4.73749 12.1987C4.79939 11.9966 4.91676 11.8158 5.07628 11.6771C5.23579 11.5383 5.43105 11.4471 5.63983 11.4138L11.997 10.4937C12.1785 10.4658 12.3508 10.3949 12.4994 10.2869C12.6479 10.1788 12.7684 10.0368 12.8508 9.87259L15.6618 4.16905C15.7522 3.97594 15.8951 3.81214 16.0741 3.69637C16.2532 3.5806 16.4612 3.51751 16.6744 3.51433C16.8876 3.51114 17.0974 3.56797 17.2798 3.67834C17.4622 3.78871 17.6099 3.94816 17.7061 4.13848V4.13848Z" fill="#EAB300"/>
<path d="M17.4531 3.27415L20.2859 9.00614C20.3676 9.17053 20.4879 9.31267 20.6366 9.42042C20.7852 9.52816 20.9578 9.5983 21.1394 9.62484L27.4689 10.5342C27.6776 10.566 27.8733 10.6552 28.0341 10.7919C28.195 10.9286 28.3146 11.1074 28.3795 11.3083C28.4445 11.5091 28.4522 11.7241 28.4019 11.9291C28.3516 12.1341 28.2452 12.321 28.0946 12.4689L23.5339 16.9074C23.4041 17.0373 23.3081 17.197 23.2544 17.3725C23.2006 17.5481 23.1908 17.7341 23.2256 17.9144L24.3164 24.2144C24.3537 24.423 24.3316 24.638 24.2526 24.8347C24.1735 25.0313 24.0408 25.2018 23.8694 25.3266C23.6981 25.4514 23.4951 25.5255 23.2837 25.5404C23.0722 25.5553 22.8609 25.5104 22.6737 25.4109L17.0171 22.4465C16.8552 22.3614 16.6751 22.3169 16.4922 22.3168C16.3093 22.3167 16.1291 22.361 15.967 22.4459L10.307 25.4247C10.1222 25.5315 9.91077 25.5838 9.6974 25.5754C9.48402 25.567 9.2774 25.4983 9.10148 25.3772C8.92556 25.2562 8.78754 25.0878 8.70342 24.8915C8.6193 24.6952 8.59253 24.4791 8.6262 24.2683L9.69918 17.9524C9.72985 17.7684 9.71419 17.5796 9.6536 17.4032C9.59302 17.2267 9.48942 17.0682 9.35217 16.9418L4.7928 12.49C4.64086 12.3429 4.53325 12.1561 4.48224 11.9508C4.43122 11.7456 4.43883 11.5302 4.5042 11.329C4.56957 11.1279 4.69009 10.9492 4.85203 10.8132C5.01397 10.6771 5.21083 10.5893 5.42023 10.5597L11.744 9.62936C11.9259 9.60593 12.0991 9.53746 12.2479 9.43016C12.3966 9.32287 12.5162 9.18014 12.5958 9.01493L15.4135 3.31343C15.5016 3.11895 15.643 2.95341 15.8212 2.83599C15.9995 2.71856 16.2075 2.65406 16.4209 2.64995C16.6344 2.64584 16.8446 2.70229 17.0273 2.81276C17.21 2.92324 17.3576 3.08321 17.4531 3.27415V3.27415Z" fill="#F7D100"/>
<path d="M15.5291 7.55673C15.2964 8.31693 14.7798 8.83706 14.4417 8.72628C14.1037 8.61549 13.9688 7.88862 14.2015 7.12842C14.4343 6.36821 14.9442 5.84604 15.291 5.9522C15.6377 6.05836 15.7787 6.76523 15.5291 7.55673Z" fill="white"/>
<path d="M15.8981 5.42327C15.8729 5.50067 15.8254 5.56886 15.7615 5.61924C15.6976 5.66962 15.6202 5.69992 15.5391 5.70631C15.4579 5.7127 15.3767 5.69489 15.3057 5.65513C15.2347 5.61538 15.1771 5.55546 15.1402 5.48296C15.1032 5.41046 15.0886 5.32863 15.0981 5.24782C15.1077 5.16701 15.141 5.09084 15.1938 5.02895C15.2467 4.96706 15.3167 4.92223 15.395 4.90013C15.4733 4.87802 15.5564 4.87963 15.6338 4.90476C15.6852 4.92144 15.7328 4.94809 15.7739 4.98319C15.815 5.01828 15.8488 5.06112 15.8733 5.10927C15.8979 5.15742 15.9127 5.20994 15.9169 5.26381C15.9212 5.31769 15.9148 5.37188 15.8981 5.42327V5.42327Z" fill="white"/>
<path d="M23.7229 23.3176C23.8533 23.7732 23.7165 24.22 23.4208 24.3045C23.1251 24.389 22.7539 24.1004 22.6364 23.6268C22.5188 23.1532 22.6428 22.7243 22.9406 22.6332C23.2383 22.542 23.588 22.8532 23.7229 23.3176Z" fill="white"/>
<g style="mix-blend-mode:overlay" opacity="0.4">
<path d="M11.0585 17.8941C16.5955 17.8899 21.1508 14.303 21.7257 9.70912L21.139 9.62432C20.9574 9.59778 20.7849 9.52764 20.6362 9.4199C20.4876 9.31216 20.3672 9.17001 20.2855 9.00563L17.4528 3.27363C17.3592 3.08402 17.2144 2.92445 17.0347 2.81307C16.855 2.70169 16.6476 2.64297 16.4362 2.64359C16.2248 2.64421 16.0178 2.70414 15.8387 2.81657C15.6597 2.929 15.5158 3.08941 15.4234 3.27957L12.5955 9.01441C12.5159 9.17963 12.3962 9.32235 12.2475 9.42965C12.0988 9.53694 11.9256 9.60541 11.7437 9.62884L5.41987 10.5591C5.21047 10.5888 5.01361 10.6766 4.85167 10.8126C4.68973 10.9487 4.56921 11.1274 4.50384 11.3285C4.43847 11.5296 4.43086 11.7451 4.48187 11.9503C4.53289 12.1556 4.6405 12.3424 4.79243 12.4895L9.35181 16.9413C9.46484 17.0546 9.55283 17.1903 9.6101 17.3398C9.66737 17.4892 9.69263 17.649 9.68426 17.8089C10.1406 17.8611 10.5993 17.8895 11.0585 17.8941V17.8941Z" fill="#FFF0F5"/>
</g>
</g>
<defs>
<clipPath id="clip0_2303_446">
<rect width="23.5232" height="24.7366" fill="white" transform="translate(7.97473) rotate(17.022)"/>
</clipPath>
</defs>
</svg>
