<svg width="241" height="56" viewBox="0 0 241 56" fill="none" xmlns="http://www.w3.org/2000/svg">
<path d="M2.79288 25.8628H0V30.033H2.79288V25.8628Z" fill="white"/>
<path d="M28.7578 1.37305H24.5876V4.19994H28.7578V1.37305Z" fill="white"/>
<path d="M2.83114 33.9397H0C2.31253 44.1845 10.4149 52.2571 20.6767 54.5186V51.6832C11.9367 49.5237 5.03739 42.6584 2.83114 33.9397Z" fill="white"/>
<path d="M0 21.9562H2.83114C5.03314 13.2332 11.9367 6.36793 20.6767 4.20844V1.37305C10.4149 3.63456 2.31253 11.7114 0 21.9562Z" fill="white"/>
<path d="M28.7578 51.6108H24.5876V54.5185H28.7578V51.6108Z" fill="white"/>
<path d="M74.1836 5.31361C76.1603 5.31361 76.9084 6.53788 77.2825 7.90244H83.3444C82.4602 2.55473 78.7491 0.00415039 74.1496 0.00415039C71.3227 0.00415039 69.1759 0.956367 67.4075 2.72902C64.8527 5.28385 64.9547 8.68887 64.9547 12.332C64.9547 15.975 64.8527 19.3801 67.4075 21.9349C69.1759 23.7075 71.3227 24.6598 74.1496 24.6598C78.7448 24.6598 82.4559 22.1049 83.3444 16.7615H77.2825C76.9084 18.1218 76.1603 19.3503 74.1836 19.3503C73.0953 19.3503 72.2749 18.9082 71.8328 18.3301C71.2887 17.6159 70.9146 16.7657 70.9146 12.3362C70.9146 7.9067 71.2887 7.0565 71.8328 6.34234C72.2749 5.76421 73.0911 5.32211 74.1836 5.32211V5.31361Z" fill="white"/>
<path d="M99.4513 12.3959L91.689 0.204102H86.4774V24.4474H92.4372V12.2598L100.199 24.4474H105.411V0.204102H99.4513V12.3959Z" fill="white"/>
<path d="M118.759 5.31361C120.736 5.31361 121.484 6.53788 121.858 7.90244H127.92C127.036 2.55473 123.325 0.00415039 118.725 0.00415039C115.898 0.00415039 113.756 0.956367 111.983 2.72902C109.428 5.28385 109.53 8.68887 109.53 12.332C109.53 15.975 109.428 19.3801 111.983 21.9349C113.752 23.7075 115.898 24.6598 118.725 24.6598C123.321 24.6598 127.032 22.1049 127.92 16.7615H121.858C121.484 18.1218 120.736 19.3503 118.759 19.3503C117.671 19.3503 116.851 18.9082 116.408 18.3301C115.864 17.6159 115.49 16.7657 115.49 12.3362C115.49 7.9067 115.864 7.0565 116.408 6.34234C116.851 5.76421 117.667 5.32211 118.759 5.32211V5.31361Z" fill="white"/>
<path d="M74.834 42.1653L72.2111 41.7572C70.8508 41.5191 69.4523 40.975 68.6021 40.2608C67.7519 39.5467 67.3438 38.4924 67.3438 37.0939C67.3438 33.9949 69.4225 32.0905 72.9636 32.0905C75.8245 32.0905 77.4228 32.9747 78.8554 34.3392L80.0457 33.149C77.9669 31.3423 76.0625 30.5261 73.0656 30.5261C68.4023 30.5261 65.5414 33.081 65.5414 37.1661C65.5414 39.0748 66.1875 40.5712 67.4501 41.6254C68.5043 42.5436 69.9369 43.1217 71.7733 43.398L74.6002 43.8401C76.6109 44.1122 77.189 44.4183 78.1072 45.1324C79.0254 45.9146 79.4335 47.0751 79.4335 48.5375C79.4335 51.7044 77.0487 53.5409 73.2016 53.5409C70.3067 53.5409 68.5043 52.8607 66.3235 50.68L65.0312 51.9722C67.246 54.187 69.5245 55.1732 73.0996 55.1732C78.171 55.1732 81.2699 52.5844 81.2699 48.4652C81.2699 46.5225 80.4878 44.8561 79.1572 43.7679C78.171 42.9177 77.1125 42.4756 74.834 42.1695V42.1653Z" fill="white"/>
<path d="M94.3799 30.522C92.0631 30.522 89.9206 31.4062 88.318 33.0088C86.1033 35.2235 86.0693 37.366 86.0693 42.8498C86.0693 48.3335 86.1033 50.476 88.318 52.6908C89.9206 54.2891 92.0631 55.1776 94.3799 55.1776C96.6967 55.1776 98.8392 54.2934 100.442 52.6908C102.657 50.476 102.691 48.2995 102.691 42.8498C102.691 37.4 102.657 35.2235 100.442 33.0088C98.8434 31.4104 96.6967 30.522 94.3799 30.522ZM98.9752 51.6663C97.7509 52.8906 96.1143 53.5367 94.3799 53.5367C92.6455 53.5367 91.0089 52.8906 89.7846 51.6663C88.0502 49.9276 87.9099 48.0232 87.9099 42.8455C87.9099 37.6678 88.046 35.7634 89.7846 34.0248C91.0089 32.8005 92.6455 32.1501 94.3799 32.1501C96.1143 32.1501 97.7509 32.7962 98.9752 34.0248C100.71 35.7634 100.846 37.6678 100.846 42.8455C100.846 48.0232 100.71 49.9276 98.9752 51.6663Z" fill="white"/>
<path d="M111.065 30.7261H109.224V54.9693H123.933V53.3327H111.065V30.7261Z" fill="white"/>
<path d="M142.73 46.8626C142.73 50.8798 140.176 53.5366 136.26 53.5366C132.345 53.5366 129.79 50.8798 129.79 46.8626V30.7217H127.954V47.1007C127.954 51.832 131.393 55.169 136.26 55.169C141.128 55.169 144.567 51.832 144.567 47.1007V30.7217H142.726V46.8626H142.73Z" fill="white"/>
<path d="M148.996 32.3584H156.214V54.9693H158.051V32.3584H165.307V30.7261H148.996V32.3584Z" fill="white"/>
<path d="M171.913 30.7261H170.073V54.9693H171.913V30.7261Z" fill="white"/>
<path d="M186.758 30.522C184.441 30.522 182.298 31.4062 180.696 33.0088C178.481 35.2235 178.447 37.366 178.447 42.8498C178.447 48.3335 178.481 50.476 180.696 52.6908C182.294 54.2891 184.441 55.1776 186.758 55.1776C189.074 55.1776 191.217 54.2934 192.82 52.6908C195.034 50.476 195.068 48.2995 195.068 42.8498C195.068 37.4 195.034 35.2235 192.82 33.0088C191.217 31.4104 189.074 30.522 186.758 30.522ZM191.353 51.6663C190.129 52.8906 188.492 53.5367 186.758 53.5367C185.023 53.5367 183.387 52.8906 182.162 51.6663C180.428 49.9276 180.288 48.0232 180.288 42.8455C180.288 37.6678 180.424 35.7634 182.162 34.0248C183.387 32.8005 185.023 32.1501 186.758 32.1501C188.492 32.1501 190.129 32.7962 191.353 34.0248C193.092 35.7634 193.228 37.6678 193.228 42.8455C193.228 48.0232 193.092 49.9276 191.353 51.6663Z" fill="white"/>
<path d="M217.437 51.7343L203.443 30.7261H201.602V54.9693H203.443V33.893L217.437 54.9693H219.273V30.7261H217.437V51.7343Z" fill="white"/>
<path d="M238.887 43.768C237.901 42.9178 236.843 42.4757 234.564 42.1697L231.941 41.7616C230.581 41.5235 229.182 40.9794 228.332 40.2652C227.482 39.5511 227.074 38.4968 227.074 37.0983C227.074 33.9993 229.153 32.0949 232.694 32.0949C235.555 32.0949 237.153 32.9791 238.585 34.3436L239.776 33.1534C237.697 31.3467 235.793 30.5305 232.796 30.5305C228.132 30.5305 225.271 33.0853 225.271 37.1705C225.271 39.0792 225.918 40.5755 227.18 41.6298C228.234 42.548 229.667 43.1261 231.503 43.4024L234.33 43.8445C236.341 44.1166 236.919 44.4227 237.837 45.1368C238.755 45.919 239.164 47.0795 239.164 48.5419C239.164 51.7088 236.779 53.5452 232.932 53.5452C230.037 53.5452 228.234 52.8651 226.054 50.6843L224.761 51.9766C226.976 54.1914 229.255 55.1776 232.83 55.1776C237.901 55.1776 241 52.5888 241 48.4696C241 46.5269 240.218 44.8605 238.887 43.7723V43.768Z" fill="white"/>
<path d="M51.4961 14.2535H39.3129V0H35.3425V18.2239H39.3129V24.3623H35.3425V45.5959L45.4045 55.6579L55.4665 45.5959V24.3623H51.4961V18.2239H55.4665V0H51.4961V14.2535ZM43.2833 18.2239H47.5257V24.3623H43.2833V18.2239ZM51.6067 44.937L50.8627 45.7106L39.1981 33.7357V28.711L51.6067 41.4512V44.937ZM39.1981 44.937V39.2662L48.1889 48.4993L45.413 51.3899L39.1981 44.937ZM51.6067 27.9288V35.9207L43.8231 27.9288H51.6067Z" fill="white"/>
</svg>
