<svg width="155" height="250" viewBox="0 0 155 250" fill="none" xmlns="http://www.w3.org/2000/svg"><path fill-rule="evenodd" clip-rule="evenodd" d="M43.445 124.723c-10.138.724-29.69.724-39.827 0-1.448 0-2.172-.724-2.896-1.448 1.448 2.172 6.517 9.414 8.689 11.586.724.724 7.241 8.689 7.965 8.689h17.38c2.896-5.793 5.792-12.31 8.689-18.827Z" fill="#7B7B7B"/><path fill-rule="evenodd" clip-rule="evenodd" d="M136.857 8.863c-13.758 22.448-31.861 48.517-46.343 70.965 7.965-.725 18.103-.725 27.516-.725 11.586-17.378 23.172-35.482 33.31-51.412.724-.724.724-2.897 0-3.62-1.448-3.622-12.31-17.38-15.207-20.276 1.449 2.896 1.449 3.62.724 5.068Z" fill="#D8D8D8"/><path fill-rule="evenodd" clip-rule="evenodd" d="M139.03 84.896c-36.206 47.068-76.033 92.688-114.411 131.791-5.793 5.793-15.207 14.482-16.655 13.034.724 1.448 12.31 16.655 14.482 18.827 2.173.724 11.586-7.241 16.655-13.034 38.379-39.103 78.205-85.447 114.411-131.79.724-.725.724-2.897.724-3.621 0-.724 0-.724-.724-.724-1.448-2.897-11.586-15.93-14.482-18.827.724 1.448.724 2.896 0 4.344Z" fill="#898989"/><path opacity=".5" fill-rule="evenodd" clip-rule="evenodd" d="M136.86 9.588c3.62 2.896 7.965 7.965 7.965 11.586 2.173 15.206-12.31 34.757-20.275 45.62-5.793 8.689-10.862 11.585-15.931 13.034h10.138c11.586-17.38 23.172-35.482 33.309-51.413.725-.724.725-2.897 0-3.62-1.448-3.621-12.31-17.38-15.206-20.276.724 1.448.724 2.172 0 3.62v1.449Z" fill="#A4A4A4"/><path opacity=".5" fill-rule="evenodd" clip-rule="evenodd" d="M153.513 99.379c-1.448-2.173-8.689-12.31-12.31-16.655 7.965 16.655 7.965 22.448-2.897 36.93-13.034 17.379-26.792 35.482-40.55 52.137-13.035 15.207-26.793 30.413-40.551 44.896-6.517 6.517-13.759 12.31-21 17.379-8.69 5.793-17.379 5.793-23.172 2.172 3.62 5.069 8.69 11.586 10.138 13.034 2.172.724 11.586-7.241 16.655-13.034 38.378-39.103 78.205-85.446 114.411-131.79 0-1.449 0-3.621-.724-5.07Z" fill="#6A6A6A"/><path fill-rule="evenodd" clip-rule="evenodd" d="M32.584 242.755c-1.448.724-3.62 1.448-4.345.724-2.172-1.448-8.69-10.862-10.137-12.31v-.724c-.725-1.448-.725-4.345 0-6.517-4.345 3.62-8.69 7.241-10.138 6.517.724 1.448 12.31 16.655 14.482 18.827.724.724 5.07-2.896 10.138-6.517ZM134.685 90.689c1.449-.724 2.897-.724 4.345 0l.724.725c1.448 1.448 8.689 10.861 10.138 13.034.724 1.448.724 3.62 0 5.793 1.448-1.449 2.896-3.621 4.344-5.069.725-.724.725-2.897.725-3.621 0-.724 0-.724-.725-.724-1.448-2.896-11.586-15.93-14.482-18.827.724 1.448.724 2.896-.724 3.62-2.173 1.449-3.621 2.897-4.345 5.07-.724 0-.724 0-.724.724 0 0 0-.725.724-.725Z" fill="#7D7D7D"/><path fill-rule="evenodd" clip-rule="evenodd" d="M61.55 3.795c14.483-2.897 54.31-3.62 73.137 0 1.448 0 2.172.724 2.896 2.172.724 1.448.724 2.173 0 3.62-13.758 22.448-31.861 48.517-46.344 70.965 13.759-.724 34.034-.724 45.62-.724 1.448 0 2.172.724 2.897 2.172.724 1.448.724 2.897-.725 3.62-36.206 47.069-76.032 92.688-114.41 131.791-5.794 5.793-15.207 14.482-16.656 13.034-2.172-.724.724-11.586 2.173-16.655 3.62-15.206 19.551-56.481 33.31-89.067-10.138.724-29.69.724-39.827 0-1.449 0-2.173-.724-2.897-1.448C0 122.551 0 121.103 0 120.379 10.138 90.689 42 26.967 57.206 5.967c1.448-1.448 2.896-2.172 4.344-2.172Z" fill="#BFBEBE"/><path fill-rule="evenodd" clip-rule="evenodd" d="M131.787 58.828c-10.137 8.69-29.689 15.93-34.034 10.138-2.896 4.345-5.793 7.965-7.965 12.31 7.965-.724 20.275-1.448 29.689-1.448 5.069-6.517 7.966-14.483 12.31-21Z" fill="#666"/><path fill-rule="evenodd" clip-rule="evenodd" d="M28.96 125.447c5.07 4.345-2.896 17.379-13.758 17.379l2.172 2.173h17.38c2.896-6.518 5.792-13.759 8.689-19.552H28.96Z" fill="#7C7C7C"/><path fill-rule="evenodd" clip-rule="evenodd" d="M62.996 19.725c15.206-2.896 36.206-2.896 52.137-1.448 2.172 0 4.344.724 6.517 2.173 3.62 2.896 1.448 9.413-2.173 15.206 6.517-9.413 12.31-18.827 17.379-27.516.724-.725.724-2.173 0-3.621s-1.448-2.173-2.896-2.173c-18.827-2.896-58.654-2.896-73.137 0-1.448.725-2.896 1.449-4.344 2.897-7.242 10.138-18.103 29.689-28.965 50.688 7.965-11.585 23.896-34.033 35.482-36.206Z" fill="#D8D8D8"/><path fill-rule="evenodd" clip-rule="evenodd" d="M136.132 79.103h-13.758c8.689 2.897 8.689 8.69 1.448 18.103-18.103 23.896-67.343 83.274-91.24 101.378-12.31 8.689-15.93 3.62-16.654-4.345-2.897 8.689-5.07 15.931-6.517 20.275-1.449 5.069-3.62 14.483-2.173 15.931 1.449.724 5.793-2.172 10.138-6.517 2.172-2.173 5.069-4.345 7.241-6.517 36.206-37.655 74.585-81.102 109.343-125.273 1.448-2.173 3.62-4.345 5.068-6.518.725-.724.725-2.172.725-3.62-1.449-2.173-2.173-2.897-3.621-2.897Z" fill="#AFAFAF"/><path fill-rule="evenodd" clip-rule="evenodd" d="M65.17 5.967c-2.172.724-3.62.724-5.069 2.172-11.586 12.31-40.55 68.792-44.895 83.275 0 .724-.724 2.896 0 3.62 1.448.724 2.896-1.448 3.62-2.172C29.688 76.207 39.102 58.828 49.24 42.173c5.07-8.69 11.586-18.103 17.38-26.068 3.62-5.07 10.861-6.517 16.654-7.966 7.965-2.172 5.069-4.344-.724-3.62-5.793-.724-11.586 0-17.379 1.448Z" fill="#E7E7E7"/><path fill-rule="evenodd" clip-rule="evenodd" d="M132.512 79.828c-13.034 0-26.068 0-39.102.724-6.517 0-1.449 6.517 2.896 7.241 10.138.724 25.344-1.448 35.482-5.069.724 0 2.897-.724 2.897-2.172 0-.724-1.449-.724-2.173-.724Z" fill="#C9C9C9"/><path opacity=".5" fill-rule="evenodd" clip-rule="evenodd" d="M21.72 219.583c-.724 14.483 31.861-11.586 39.102-18.827 25.345-23.172 55.034-55.033 71.689-84.722 5.792-10.138 6.517-23.172-2.173-21-33.31 42.723-70.24 84.722-104.998 120.204l-.724.724c-1.448 2.173-2.172 2.897-2.896 3.621Z" fill="#777"/><path fill-rule="evenodd" clip-rule="evenodd" d="M66.621 31.311c-3.62 2.173-6.517 5.793-8.69 9.414-11.585 20.276-22.447 41.999-33.309 62.999-2.172 4.344-5.069 12.31 3.62 13.034 9.414.724 18.828 0 28.966 0-10.138 21.724-21.724 43.447-28.241 66.619-2.173 7.241 3.62 7.241 7.965 2.896 21-19.551 57.206-59.377 72.412-84.722 3.621-6.517-2.896-10.137-7.965-10.137-7.965 0-15.93 0-23.896.724 9.413-15.207 18.827-29.69 28.241-45.62 1.448-2.172 2.172-5.069 2.172-7.241.724-3.62-.724-7.241-3.621-9.414-4.344-3.62-15.206-3.62-24.62-2.172-6.517 0-10.862 1.448-13.034 3.62Z" fill="#D3D3D3"/></svg>