<svg width="156" height="250" viewBox="0 0 156 250" fill="none" xmlns="http://www.w3.org/2000/svg"><path fill-rule="evenodd" clip-rule="evenodd" d="M44.128 124.723c-10.137.724-29.689.724-39.826 0-1.449 0-2.173-.724-2.897-1.448 1.449 2.172 6.517 9.414 8.69 11.586.724.724 7.24 8.689 7.965 8.689h17.379c2.896-5.793 5.793-12.31 8.69-18.827Z" fill="url(#a)"/><path fill-rule="evenodd" clip-rule="evenodd" d="M137.541 8.863C123.783 31.311 105.68 57.38 91.197 79.828c7.966-.725 18.103-.725 27.517-.725 11.586-17.378 23.172-35.482 33.309-51.412.725-.724.725-2.897 0-3.62-1.448-3.622-12.31-17.38-15.206-20.276 1.448 2.896 1.448 3.62.724 5.068Z" fill="url(#b)"/><path fill-rule="evenodd" clip-rule="evenodd" d="M139.713 84.896c-36.206 47.068-76.032 92.688-114.41 131.791-5.794 5.793-15.207 14.482-16.656 13.034.725 1.448 12.31 16.655 14.483 18.827 2.172.724 11.586-7.241 16.655-13.034 38.378-39.103 78.205-85.447 114.411-131.79.724-.725.724-2.897.724-3.621 0-.724 0-.724-.724-.724-1.448-2.897-11.586-15.93-14.483-18.827.725 1.448.725 2.896 0 4.344Z" fill="url(#c)"/><path opacity=".5" fill-rule="evenodd" clip-rule="evenodd" d="M137.543 9.588c3.621 2.896 7.966 7.965 7.966 11.586 2.172 15.206-12.31 34.757-20.276 45.62-5.793 8.689-10.861 11.585-15.93 13.034h10.137c11.586-17.38 23.172-35.482 33.31-51.413.724-.724.724-2.897 0-3.62-1.448-3.621-12.31-17.38-15.207-20.276.725 1.448.725 2.172 0 3.62v1.449Z" fill="url(#d)"/><path opacity=".5" fill-rule="evenodd" clip-rule="evenodd" d="M154.196 99.379c-1.448-2.173-8.689-12.31-12.309-16.655 7.965 16.655 7.965 22.448-2.897 36.93-13.034 17.379-26.792 35.482-40.55 52.137-13.035 15.207-26.793 30.413-40.552 44.896-6.517 6.517-13.758 12.31-21 17.379-8.689 5.793-17.378 5.793-23.171 2.172 3.62 5.069 8.69 11.586 10.138 13.034 2.172.724 11.586-7.241 16.654-13.034 38.379-39.103 78.206-85.446 114.412-131.79 0-1.449 0-3.621-.725-5.07 0 .725 0 0 0 0Z" fill="url(#e)"/><path fill-rule="evenodd" clip-rule="evenodd" d="M33.268 242.755c-1.449.724-3.621 1.448-4.345.724-2.173-1.448-8.69-10.862-10.138-12.31v-.724c-.724-1.448-.724-4.345 0-6.517-4.345 3.62-8.69 7.241-10.138 6.517.725 1.448 12.31 16.655 14.483 18.827.724.724 5.069-2.896 10.138-6.517ZM135.369 90.689c1.448-.724 2.896-.724 4.344 0l.725.725c1.448 1.448 8.689 10.861 10.137 13.034.724 1.448.724 3.62 0 5.793 1.448-1.449 2.897-3.621 4.345-5.069.724-.724.724-2.897.724-3.621 0-.724 0-.724-.724-.724-1.448-2.896-11.586-15.93-14.482-18.827.724 1.448.724 2.896-.725 3.62-2.172 1.449-3.62 2.897-4.344 5.07-.724 0-.724 0-.724.724 0 0 0-.725.724-.725Z" fill="#FB9F24"/><path fill-rule="evenodd" clip-rule="evenodd" d="M62.234 3.795c14.482-2.897 54.309-3.62 73.136 0 1.449 0 2.173.724 2.897 2.172.724 1.448.724 2.173 0 3.62-13.758 22.448-31.862 48.517-46.344 70.965 13.758-.724 34.034-.724 45.62-.724 1.448 0 2.172.724 2.896 2.172.724 1.448.724 2.897-.724 3.62-36.206 47.069-76.033 92.688-114.411 131.791-5.793 5.793-15.207 14.482-16.655 13.034-2.172-.724.724-11.586 2.172-16.655 3.62-15.206 19.552-56.481 33.31-89.067-10.138.724-29.69.724-39.827 0-1.448 0-2.172-.724-2.896-1.448-.724-.724-.724-2.172-.724-2.896C10.82 90.689 42.683 26.967 57.889 5.967c1.448-1.448 2.897-2.172 4.345-2.172Z" fill="url(#f)"/><path fill-rule="evenodd" clip-rule="evenodd" d="M132.471 58.828c-10.138 8.69-29.69 15.93-34.034 10.138-2.897 4.345-5.793 7.965-7.966 12.31 7.966-.724 20.276-1.448 29.689-1.448 5.069-6.517 7.966-14.483 12.311-21Z" fill="#FD7B00"/><path fill-rule="evenodd" clip-rule="evenodd" d="M29.644 125.447c5.069 4.345-2.896 17.379-13.758 17.379l2.172 2.173h17.379c2.896-6.518 5.793-13.759 8.69-19.552H29.643Z" fill="#FE7600"/><path fill-rule="evenodd" clip-rule="evenodd" d="M63.68 19.725c15.206-2.896 36.205-2.896 52.136-1.448 2.172 0 4.345.724 6.517 2.173 3.621 2.896 1.448 9.413-2.172 15.206 6.517-9.413 12.31-18.827 17.379-27.516.724-.725.724-2.173 0-3.621s-1.448-2.173-2.897-2.173c-18.827-2.896-58.654-2.896-73.136 0-1.448.725-2.897 1.449-4.345 2.897C49.921 15.38 39.06 34.932 28.197 55.931c7.966-11.585 23.896-34.033 35.482-36.206Z" fill="#FEF14A"/><path fill-rule="evenodd" clip-rule="evenodd" d="M136.816 79.103h-13.759c8.69 2.897 8.69 8.69 1.449 18.103-18.103 23.896-67.344 83.274-91.24 101.378-12.31 8.689-15.93 3.62-16.655-4.345-2.896 8.689-5.069 15.931-6.517 20.275-1.448 5.069-3.62 14.483-2.172 15.931 1.448.724 5.793-2.172 10.138-6.517 2.172-2.173 5.069-4.345 7.24-6.517 36.207-37.655 74.585-81.102 109.343-125.273 1.449-2.173 3.621-4.345 5.069-6.518.724-.724.724-2.172.724-3.62-1.448-2.173-2.172-2.897-3.62-2.897Z" fill="#FDC000"/><path fill-rule="evenodd" clip-rule="evenodd" d="M65.854 5.967c-2.173.724-3.621.724-5.07 2.172C49.2 20.45 20.235 76.931 15.89 91.414c0 .724-.724 2.896 0 3.62 1.448.724 2.897-1.448 3.62-2.172 10.863-16.655 20.276-34.034 30.414-50.689 5.069-8.69 11.586-18.103 17.379-26.068 3.62-5.07 10.862-6.517 16.655-7.966 7.965-2.172 5.069-4.344-.724-3.62-5.794-.724-11.586 0-17.38 1.448Z" fill="#FFFEC4"/><path fill-rule="evenodd" clip-rule="evenodd" d="M133.196 79.828c-13.034 0-26.069 0-39.103.724-6.517 0-1.448 6.517 2.897 7.241 10.137.724 25.344-1.448 35.482-5.069.724 0 2.896-.724 2.896-2.172 0-.724-1.448-.724-2.172-.724Z" fill="#FEEB7A"/><path opacity=".5" fill-rule="evenodd" clip-rule="evenodd" d="M22.404 219.583c-.725 14.483 31.86-11.586 39.102-18.827 25.344-23.172 55.033-55.033 71.688-84.722 5.793-10.138 6.517-23.172-2.172-21-33.31 42.723-70.24 84.722-104.998 120.204l-.724.724c-1.448 2.173-2.172 2.897-2.896 3.621Z" fill="#FDB132"/><path fill-rule="evenodd" clip-rule="evenodd" d="M67.305 31.311c-3.621 2.173-6.517 5.793-8.69 9.414-11.586 20.276-22.448 41.999-33.31 62.999-2.172 4.344-5.068 12.31 3.621 13.034 9.414.724 18.827 0 28.965 0-10.138 21.724-21.724 43.447-28.24 66.619-2.173 7.241 3.62 7.241 7.965 2.896 21-19.551 57.205-59.377 72.412-84.722 3.621-6.517-2.897-10.137-7.965-10.137-7.966 0-15.931 0-23.897.724 9.414-15.207 18.828-29.69 28.241-45.62 1.449-2.172 2.173-5.069 2.173-7.241.724-3.62-.725-7.241-3.621-9.414-4.345-3.62-15.207-3.62-24.62-2.172-6.517 0-10.862 1.448-13.034 3.62Z" fill="#FEDF3E"/><defs><radialGradient id="a" cx="0" cy="0" r="1" gradientUnits="userSpaceOnUse" gradientTransform="matrix(63.84 0 0 63.8398 -11.206 112.356)"><stop stop-color="#F8AB0F"/><stop offset="1" stop-color="#EE741C"/></radialGradient><radialGradient id="b" cx="0" cy="0" r="1" gradientUnits="userSpaceOnUse" gradientTransform="translate(114.549 21.003) scale(156.439)"><stop stop-color="#F8AB0F"/><stop offset="1" stop-color="#EE741C"/></radialGradient><radialGradient id="c" cx="0" cy="0" r="1" gradientUnits="userSpaceOnUse" gradientTransform="translate(140.469 204.408) scale(293.983)"><stop stop-color="#F8AB0F"/><stop offset="1" stop-color="#EE741C"/></radialGradient><radialGradient id="d" cx="0" cy="0" r="1" gradientUnits="userSpaceOnUse" gradientTransform="translate(131.018 41.645) scale(30.6014)"><stop offset="0" stop-color="#fff"/><stop offset=".098" stop-color="#FFFDFB"/><stop offset=".225" stop-color="#FFF6ED"/><stop offset=".367" stop-color="#FEEBD5"/><stop offset=".521" stop-color="#FDDBB4"/><stop offset=".684" stop-color="#FBC788"/><stop offset=".851" stop-color="#F7AD4F"/><stop offset="1" stop-color="#F39208"/></radialGradient><radialGradient id="e" cx="0" cy="0" r="1" gradientUnits="userSpaceOnUse" gradientTransform="translate(17.841 99.012) scale(163.691)"><stop offset="0" stop-color="#fff"/><stop offset=".098" stop-color="#FFFDFB"/><stop offset=".225" stop-color="#FFF6ED"/><stop offset=".367" stop-color="#FEEBD5"/><stop offset=".521" stop-color="#FDDBB4"/><stop offset=".684" stop-color="#FBC788"/><stop offset=".851" stop-color="#F7AD4F"/><stop offset="1" stop-color="#F39208"/></radialGradient><radialGradient id="f" cx="0" cy="0" r="1" gradientUnits="userSpaceOnUse" gradientTransform="translate(53.082 3.676) scale(227.4)"><stop stop-color="#F3DE1D"/><stop offset="1" stop-color="#F49716"/></radialGradient></defs></svg>