<?xml version="1.0" encoding="utf-8"?>
<!-- Generator: Adobe Illustrator 25.4.1, SVG Export Plug-In . SVG Version: 6.00 Build 0)  -->
<svg version="1.1" xmlns="http://www.w3.org/2000/svg" xmlns:xlink="http://www.w3.org/1999/xlink" x="0px" y="0px"
	 viewBox="0 0 64 64" enable-background="new 0 0 64 64" xml:space="preserve">
<g id="Layer_3">
</g>
<g id="Layer_4">
</g>
<g id="Layer_5">
</g>
<g id="Layer_6">
</g>
<g id="Layer_7">
</g>
<g id="Layer_8">
</g>
<g id="Layer_9">
</g>
<g id="Layer_10">
</g>
<g id="Layer_11">
</g>
<g id="Layer_12">
</g>
<g id="Layer_13">
</g>
<g id="Layer_14">
</g>
<g id="Layer_15">
</g>
<g id="Layer_16">
</g>
<g id="Layer_17">
	<g>
		<path fill="#B19367" d="M32.226,12.033l-0.276-0.345C30.041,9.301,29,6.334,29,3.277v0C29,2.572,28.428,2,27.723,2h0
			c-0.449,0-0.864,0.235-1.095,0.62l-1.185,1.975C24.499,6.169,24,7.97,24,9.805v0c0,2.223,0.731,4.371,2.06,6.122"/>
		<path fill="#967A56" d="M35,12.051C34.412,12.017,33.824,12,33.234,12h-0.281c-3.036,0-5.811,1.715-7.168,4.43l0,0
			c-1.17,2.339-2.93,4.333-5.106,5.784l0,0C19.005,23.33,18,25.208,18,27.22v0c0,2.486-0.579,4.938-1.691,7.161l0,0
			c-0.866,1.732-2.038,3.292-3.461,4.605l-9.991,9.222C2.311,48.713,2,49.423,2,50.167v0c0,1.847,0.547,3.653,1.571,5.189l0,0
			C3.851,55.776,4,56.269,4,56.773v0c0,0.776,0.353,1.509,0.958,1.994l2.785,2.228C8.557,61.645,9.568,62,10.61,62h0
			c0.906,0,1.792-0.268,2.546-0.771L15,60h0c1.763,0,3.3-1.2,3.728-2.91L19,56l0.984-0.123C24.531,55.309,28.759,53.241,32,50l0,0
			h2.515c5.433,0,10.644-2.158,14.485-6l0,0l0,0c3.252,4.553,5,10.008,5,15.602V63h9V26l-0.876-0.876
			c-5.24-5.24-11.592-9.19-18.553-11.578"/>
		<path fill="#B19367" d="M30,49h2.515c5.433,0,10.644-2.158,14.485-6c2.589-3.237,4-7.258,4-11.403V27l0.52-9.888
			c-2.535-1.419-5.192-2.62-7.95-3.566L35,12.051C34.412,12.017,33.824,12,33.234,12h-0.281c-3.036,0-5.811,1.715-7.168,4.43
			c-1.17,2.339-2.93,4.333-5.106,5.784C19.005,23.33,18,25.208,18,27.22c0,2.486-0.579,4.938-1.69,7.161
			c-0.866,1.732-2.039,3.292-3.461,4.605l-9.991,9.222C2.311,48.713,2,49.423,2,50.167c0,1.847,0.547,3.653,1.571,5.189
			C3.851,55.776,4,56.269,4,56.773c0,0.776,0.353,1.509,0.958,1.994l2.629,2.103C7.922,60.947,8.262,61,8.61,61
			c0.906,0,1.792-0.268,2.546-0.771L13,59c1.763,0,3.3-1.2,3.728-2.91L17,55l0.984-0.123C22.531,54.309,26.759,52.241,30,49z"/>
		<g>
			<path fill="#967A56" d="M17,53h-2v-0.395c0-1.923-0.955-3.707-2.555-4.773l1.109-1.664C15.712,47.605,17,50.013,17,52.605V53z"/>
		</g>
		<path fill="#C6AA89" d="M45.773,17.583l-3.369-6.176c-1.6-2.933-3.453-5.719-5.54-8.328l0,0C36.318,2.397,35.491,2,34.617,2l0,0
			C33.724,2,33,2.724,33,3.617v0c0,0.251,0.058,0.499,0.171,0.724v0C34.374,6.747,35,9.401,35,12.091V15"/>
		<path fill="#2D2D2D" d="M8,54.046L8,54.046C8,55.125,8.875,56,9.954,56h0c0.653,0,1.264-0.327,1.626-0.87l1.033-1.55
			C12.865,53.202,13,52.757,13,52.303v0C13,51.031,11.969,50,10.697,50h0c-0.436,0-0.842,0.218-1.084,0.58L8.58,52.13
			C8.202,52.697,8,53.364,8,54.046z"/>
		<path fill="#2D2D2D" d="M30.535,33h0.439c1.297,0,2.541-0.515,3.458-1.433l0,0C34.796,31.204,35,30.711,35,30.197v0
			c0-0.734-0.415-1.405-1.071-1.733l0,0C33.318,28.159,32.644,28,31.961,28h0c-0.601,0-1.162,0.3-1.495,0.8l-1.209,1.813
			C29.09,30.865,29,31.162,29,31.465v0C29,32.313,29.687,33,30.535,33z"/>
		<path fill="#A5BADB" d="M26.315,44.016c-2.708-3.702-6.258-6.747-10.412-8.874l-0.013-0.008c-0.675,1.185-1.497,2.277-2.449,3.253
			l0.017,0.006c3.853,1.844,7.138,4.588,9.613,7.963l2.182,3.549c0.624,1.228,1.152,2.513,1.578,3.847
			c1.224-0.628,2.382-1.38,3.462-2.244c-0.426-1.185-0.923-2.333-1.487-3.441L26.315,44.016z"/>
		<path fill="#D7E0EF" d="M49.946,16.278l-2.702-1.282c-0.16-0.07-0.319-0.144-0.48-0.212c-0.598,2.231-1.605,4.351-2.959,6.223
			l-2.538,4.231c-3.16,6.753-7.79,12.815-13.483,17.633l-1.369,1.159l2.584,3.054l1.37-1.159
			c6.154-5.208,11.154-11.766,14.558-19.07l2.028-3.377c1.54-2.099,2.717-4.462,3.472-6.954
			C50.267,16.439,50.106,16.359,49.946,16.278z"/>
		<path fill="#A5BADB" d="M51,46.53c0-7.201-1.538-14.356-4.474-20.916l-3.951-4.255c-4.855-3.351-10.601-5.222-16.54-5.352
			c-0.082,0.142-0.176,0.274-0.25,0.422c-0.659,1.318-1.522,2.509-2.524,3.572L23.295,20h2.074c5.743,0,11.306,1.877,15.858,5.321
			l2.498,3.954c2.056,5.235,3.171,10.825,3.267,16.46C47.691,45.197,48.37,44.63,49,44c0.75,1.051,1.411,2.154,1.999,3.291
			L51,47.282V46.53z"/>
		<path fill="#C1CFE8" d="M50.999,47.291L51,47.282V46.53c0-7.201-1.538-14.356-4.474-20.916l-3.951-4.255
			c-4.855-3.351-10.601-5.222-16.54-5.352c-0.082,0.142-0.176,0.274-0.25,0.422c-0.659,1.318-1.522,2.509-2.524,3.572L23.295,20
			h2.074c5.743,0,11.306,1.877,15.858,5.321l2.498,3.954c1.737,4.424,2.794,9.102,3.141,13.847C46.909,43.079,46.957,43.043,47,43
			c0.412,0.577,0.799,1.169,1.162,1.773C48.448,44.523,48.73,44.27,49,44C49.75,45.051,50.411,46.154,50.999,47.291z"/>
		<path fill="#C1CFE8" d="M28.805,48.067l-2.49-4.051c-2.708-3.702-6.258-6.747-10.412-8.874l-0.013-0.008c0,0,0,0,0,0
			c-0.675,1.185-1.496,2.276-2.448,3.253c0,0,0,0,0,0l0.017,0.006c3.853,1.844,7.138,4.588,9.613,7.963l2.182,3.549
			c0.344,0.677,0.652,1.376,0.937,2.087c1.172-0.718,2.268-1.56,3.283-2.507C29.259,49.008,29.041,48.532,28.805,48.067z"/>
		<circle fill="#A6100E" cx="26" cy="47" r="3"/>
		<circle fill="#A6100E" cx="44" cy="24" r="3"/>
		<path fill="#967A56" d="M19.555,53.832l-1.109-1.664c-2.157,1.438-3.625,3.629-4.133,6.171l-0.302,1.518l-0.129,0.889L15,60
			c0.364,0,0.714-0.063,1.052-0.159l0.222-1.11C16.677,56.713,17.842,54.974,19.555,53.832z"/>
	</g>
</g>
<g id="Layer_18">
</g>
<g id="Layer_19">
</g>
<g id="Layer_20">
</g>
<g id="Layer_21">
</g>
<g id="Layer_22">
</g>
<g id="Layer_23">
</g>
<g id="Layer_24">
</g>
<g id="Layer_25">
</g>
<g id="Layer_26">
</g>
<g id="Layer_27">
</g>
<g id="Layer_28">
</g>
<g id="Layer_29">
</g>
<g id="Layer_30">
</g>
<g id="Layer_31">
</g>
<g id="Layer_32">
</g>
<g id="Layer_1" display="none">
</g>
<g id="Layer_2">
</g>
</svg>
