<svg width="18" height="18" viewBox="0 0 18 18" fill="none" xmlns="http://www.w3.org/2000/svg">
<path d="M9 18C4.03472 18 0 13.9653 0 9C0 4.03472 4.03472 0 9 0C13.9653 0 18 4.03472 18 9C18 13.9653 13.9583 18 9 18Z" fill="#30D580"/>
<path d="M13.9517 6.76385L8.76424 12.6875C8.56285 12.9166 8.27119 13.0555 7.96563 13.0694C7.95174 13.0694 7.93785 13.0694 7.93091 13.0694C7.63924 13.0694 7.35452 12.9514 7.14619 12.743L4.18091 9.78468C3.74341 9.34718 3.74341 8.64579 4.18091 8.21524C4.61841 7.78468 5.3198 7.77774 5.75035 8.21524L7.87535 10.3402L12.2781 5.30552C12.6809 4.84718 13.3823 4.79857 13.8476 5.20135C14.3059 5.60413 14.3545 6.30552 13.9517 6.76385Z" fill="white"/>
</svg>
