<svg width="30" height="31" viewBox="0 0 30 31" fill="none" xmlns="http://www.w3.org/2000/svg">
<g opacity="0.5">
<g clip-path="url(#clip0_1434_4845)">
<path d="M16.9714 4.13848L19.8041 9.87047C19.8868 10.0341 20.0074 10.1757 20.1559 10.2833C20.3044 10.3909 20.4764 10.4615 20.6577 10.4892L26.9871 11.3986C27.1973 11.4278 27.395 11.5157 27.5575 11.6521C27.72 11.7886 27.8409 11.968 27.9062 12.1699C27.9714 12.3718 27.9786 12.588 27.9267 12.7937C27.8748 12.9995 27.7661 13.1864 27.6128 13.3333L23.0455 17.7697C22.9172 17.9006 22.8222 18.0604 22.7686 18.2356C22.7149 18.4109 22.7042 18.5964 22.7372 18.7767L23.8213 25.0746C23.8586 25.2833 23.8365 25.4982 23.7575 25.6949C23.6785 25.8916 23.5457 26.0621 23.3744 26.1869C23.203 26.3117 23 26.3857 22.7886 26.4006C22.5772 26.4155 22.3658 26.3706 22.1786 26.2711L16.5221 23.3067C16.3595 23.2202 16.1782 23.1747 15.994 23.1743C15.8098 23.1738 15.6283 23.2184 15.4653 23.3041L9.79047 26.3075C9.6034 26.4053 9.3928 26.4491 9.18225 26.434C8.97171 26.4188 8.76954 26.3453 8.5984 26.2218C8.42725 26.0982 8.2939 25.9294 8.21327 25.7343C8.13264 25.5393 8.10792 25.3256 8.14188 25.1172L9.21132 18.8368C9.24262 18.6562 9.22898 18.4707 9.17159 18.2967C9.1142 18.1227 9.01484 17.9654 8.88227 17.8389L4.31106 13.3543C4.1567 13.2098 4.04598 13.0249 3.99149 12.8207C3.937 12.6164 3.94092 12.4009 4.00281 12.1987C4.06471 11.9966 4.18208 11.8158 4.3416 11.6771C4.50111 11.5383 4.69637 11.4471 4.90515 11.4138L11.2623 10.4937C11.4439 10.4658 11.6161 10.3949 11.7647 10.2869C11.9132 10.1788 12.0337 10.0368 12.1162 9.87259L14.9271 4.16905C15.0175 3.97594 15.1604 3.81214 15.3395 3.69637C15.5185 3.5806 15.7265 3.51751 15.9397 3.51433C16.1529 3.51114 16.3627 3.56797 16.5451 3.67834C16.7275 3.78871 16.8753 3.94816 16.9714 4.13848Z" fill="#ED5E1D"/>
<path d="M16.7204 3.27415L19.5531 9.00614C19.6349 9.17053 19.7552 9.31267 19.9039 9.42042C20.0525 9.52816 20.225 9.5983 20.4067 9.62484L26.7362 10.5342C26.9448 10.566 27.1406 10.6552 27.3014 10.7919C27.4622 10.9286 27.5818 11.1074 27.6468 11.3083C27.7117 11.5091 27.7195 11.7241 27.6692 11.9291C27.6188 12.1341 27.5124 12.321 27.3619 12.4689L22.8012 16.9074C22.6714 17.0373 22.5754 17.197 22.5217 17.3725C22.4679 17.5481 22.458 17.7341 22.4929 17.9144L23.5837 24.2144C23.621 24.423 23.5989 24.638 23.5198 24.8347C23.4408 25.0313 23.308 25.2018 23.1367 25.3266C22.9654 25.4514 22.7624 25.5255 22.5509 25.5404C22.3395 25.5553 22.1281 25.5104 21.941 25.4109L16.2844 22.4465C16.1225 22.3614 15.9423 22.3169 15.7594 22.3168C15.5765 22.3167 15.3963 22.361 15.2343 22.4459L9.57432 25.4247C9.38942 25.5315 9.17804 25.5838 8.96467 25.5754C8.7513 25.567 8.54468 25.4983 8.36875 25.3772C8.19283 25.2562 8.05481 25.0878 7.97069 24.8915C7.88657 24.6952 7.8598 24.4791 7.89348 24.2683L8.96645 17.9524C8.99712 17.7684 8.98146 17.5796 8.92088 17.4032C8.86029 17.2267 8.75669 17.0682 8.61944 16.9418L4.06007 12.49C3.90813 12.3429 3.80053 12.1561 3.74951 11.9508C3.69849 11.7456 3.7061 11.5302 3.77147 11.329C3.83685 11.1279 3.95736 10.9492 4.1193 10.8132C4.28124 10.6771 4.47811 10.5893 4.6875 10.5597L11.0113 9.62936C11.1932 9.60593 11.3664 9.53746 11.5151 9.43016C11.6639 9.32287 11.7835 9.18014 11.8631 9.01493L14.6808 3.31343C14.7689 3.11895 14.9102 2.95341 15.0885 2.83599C15.2668 2.71856 15.4747 2.65406 15.6882 2.64995C15.9016 2.64584 16.1119 2.70229 16.2946 2.81276C16.4772 2.92324 16.6249 3.08321 16.7204 3.27415Z" fill="#ED811D"/>
<path d="M14.7955 7.55673C14.5627 8.31693 14.0461 8.83706 13.7081 8.72628C13.37 8.61549 13.2352 7.88862 13.4679 7.12842C13.7006 6.36821 14.2106 5.84604 14.5573 5.9522C14.9041 6.05836 15.0451 6.76523 14.7955 7.55673Z" fill="white"/>
<path d="M15.1643 5.42327C15.1392 5.50067 15.0916 5.56886 15.0277 5.61924C14.9638 5.66962 14.8864 5.69992 14.8053 5.70631C14.7242 5.7127 14.643 5.69489 14.572 5.65513C14.501 5.61538 14.4433 5.55546 14.4064 5.48296C14.3694 5.41046 14.3548 5.32863 14.3644 5.24782C14.3739 5.16701 14.4072 5.09084 14.4601 5.02895C14.5129 4.96706 14.5829 4.92223 14.6612 4.90013C14.7395 4.87802 14.8226 4.87963 14.9 4.90476C14.9514 4.92144 14.999 4.94809 15.0402 4.98319C15.0813 5.01828 15.115 5.06112 15.1396 5.10927C15.1641 5.15742 15.1789 5.20994 15.1832 5.26381C15.1874 5.31769 15.181 5.37188 15.1643 5.42327Z" fill="white"/>
<path d="M22.9892 23.3176C23.1196 23.7732 22.9828 24.22 22.6871 24.3045C22.3914 24.389 22.0202 24.1004 21.9027 23.6268C21.7851 23.1532 21.9091 22.7243 22.2069 22.6332C22.5046 22.542 22.8542 22.8532 22.9892 23.3176Z" fill="white"/>
<g style="mix-blend-mode:overlay" opacity="0.4">
<path d="M10.3248 17.8941C15.8618 17.8899 20.4171 14.303 20.992 9.70912L20.4053 9.62432C20.2237 9.59778 20.0512 9.52764 19.9025 9.4199C19.7539 9.31216 19.6335 9.17001 19.5518 9.00563L16.7191 3.27363C16.6255 3.08402 16.4807 2.92445 16.301 2.81307C16.1213 2.70169 15.9139 2.64297 15.7025 2.64359C15.4911 2.64421 15.2841 2.70414 15.105 2.81657C14.926 2.929 14.7821 3.08941 14.6896 3.27957L11.8618 9.01441C11.7822 9.17963 11.6625 9.32235 11.5138 9.42965C11.365 9.53694 11.1919 9.60541 11.01 9.62884L4.68616 10.5591C4.47677 10.5888 4.2799 10.6766 4.11796 10.8126C3.95602 10.9487 3.83551 11.1274 3.77014 11.3285C3.70476 11.5296 3.69715 11.7451 3.74817 11.9503C3.79919 12.1556 3.90679 12.3424 4.05873 12.4895L8.6181 16.9413C8.73114 17.0546 8.81913 17.1903 8.8764 17.3398C8.93366 17.4892 8.95893 17.649 8.95055 17.8089C9.40685 17.8611 9.86556 17.8895 10.3248 17.8941Z" fill="#FFF0F5"/>
</g>
</g>
</g>
<defs>
<clipPath id="clip0_1434_4845">
<rect x="7.24225" width="23.5232" height="24.7366" transform="rotate(17.022 7.24225 0)" fill="white"/>
</clipPath>
</defs>
</svg>
