<svg width="31" height="31" viewBox="0 0 31 31" fill="none" xmlns="http://www.w3.org/2000/svg">
<g clip-path="url(#clip0_1434_4813)">
<g clip-path="url(#clip1_1434_4813)">
<path d="M17.9714 4.13848L20.8041 9.87047C20.8868 10.0341 21.0074 10.1757 21.1559 10.2833C21.3044 10.3909 21.4764 10.4615 21.6577 10.4892L27.9871 11.3986C28.1973 11.4278 28.395 11.5157 28.5575 11.6521C28.72 11.7886 28.8409 11.968 28.9062 12.1699C28.9714 12.3718 28.9786 12.588 28.9267 12.7937C28.8748 12.9995 28.7661 13.1864 28.6128 13.3333L24.0455 17.7697C23.9172 17.9006 23.8222 18.0604 23.7686 18.2356C23.7149 18.4109 23.7042 18.5964 23.7372 18.7767L24.8213 25.0746C24.8586 25.2833 24.8365 25.4982 24.7575 25.6949C24.6785 25.8916 24.5457 26.0621 24.3744 26.1869C24.203 26.3117 24 26.3857 23.7886 26.4006C23.5772 26.4155 23.3658 26.3706 23.1786 26.2711L17.5221 23.3067C17.3595 23.2202 17.1782 23.1747 16.994 23.1743C16.8098 23.1738 16.6283 23.2184 16.4653 23.3041L10.7905 26.3075C10.6034 26.4053 10.3928 26.4491 10.1823 26.434C9.97171 26.4188 9.76954 26.3453 9.5984 26.2218C9.42725 26.0982 9.2939 25.9294 9.21327 25.7343C9.13264 25.5393 9.10792 25.3256 9.14188 25.1172L10.2113 18.8368C10.2426 18.6562 10.229 18.4707 10.1716 18.2967C10.1142 18.1227 10.0148 17.9654 9.88227 17.8389L5.31106 13.3543C5.1567 13.2098 5.04598 13.0249 4.99149 12.8207C4.937 12.6164 4.94092 12.4009 5.00281 12.1987C5.06471 11.9966 5.18208 11.8158 5.3416 11.6771C5.50111 11.5383 5.69637 11.4471 5.90515 11.4138L12.2623 10.4937C12.4439 10.4658 12.6161 10.3949 12.7647 10.2869C12.9132 10.1788 13.0337 10.0368 13.1162 9.87259L15.9271 4.16905C16.0175 3.97594 16.1604 3.81214 16.3395 3.69637C16.5185 3.5806 16.7265 3.51751 16.9397 3.51433C17.1529 3.51114 17.3627 3.56797 17.5451 3.67834C17.7275 3.78871 17.8753 3.94816 17.9714 4.13848Z" fill="#ED5E1D"/>
<path d="M17.7204 3.27415L20.5531 9.00614C20.6349 9.17053 20.7552 9.31267 20.9039 9.42042C21.0525 9.52816 21.225 9.5983 21.4067 9.62484L27.7362 10.5342C27.9448 10.566 28.1406 10.6552 28.3014 10.7919C28.4622 10.9286 28.5818 11.1074 28.6468 11.3083C28.7117 11.5091 28.7195 11.7241 28.6692 11.9291C28.6188 12.1341 28.5124 12.321 28.3619 12.4689L23.8012 16.9074C23.6714 17.0373 23.5754 17.197 23.5217 17.3725C23.4679 17.5481 23.458 17.7341 23.4929 17.9144L24.5837 24.2144C24.621 24.423 24.5989 24.638 24.5198 24.8347C24.4408 25.0313 24.308 25.2018 24.1367 25.3266C23.9654 25.4514 23.7624 25.5255 23.5509 25.5404C23.3395 25.5553 23.1281 25.5104 22.941 25.4109L17.2844 22.4465C17.1225 22.3614 16.9423 22.3169 16.7594 22.3168C16.5765 22.3167 16.3963 22.361 16.2343 22.4459L10.5743 25.4247C10.3894 25.5315 10.178 25.5838 9.96467 25.5754C9.7513 25.567 9.54468 25.4983 9.36875 25.3772C9.19283 25.2562 9.05481 25.0878 8.97069 24.8915C8.88657 24.6952 8.8598 24.4791 8.89348 24.2683L9.96645 17.9524C9.99712 17.7684 9.98146 17.5796 9.92088 17.4032C9.86029 17.2267 9.75669 17.0682 9.61944 16.9418L5.06007 12.49C4.90813 12.3429 4.80053 12.1561 4.74951 11.9508C4.69849 11.7456 4.7061 11.5302 4.77147 11.329C4.83685 11.1279 4.95736 10.9492 5.1193 10.8132C5.28124 10.6771 5.47811 10.5893 5.6875 10.5597L12.0113 9.62936C12.1932 9.60593 12.3664 9.53746 12.5151 9.43016C12.6639 9.32287 12.7835 9.18014 12.8631 9.01493L15.6808 3.31343C15.7689 3.11895 15.9102 2.95341 16.0885 2.83599C16.2668 2.71856 16.4747 2.65406 16.6882 2.64995C16.9016 2.64584 17.1119 2.70229 17.2946 2.81276C17.4772 2.92324 17.6249 3.08321 17.7204 3.27415Z" fill="#ED811D"/>
<path d="M15.7955 7.55673C15.5627 8.31693 15.0461 8.83706 14.7081 8.72628C14.37 8.61549 14.2352 7.88862 14.4679 7.12842C14.7006 6.36821 15.2106 5.84604 15.5573 5.9522C15.9041 6.05836 16.0451 6.76523 15.7955 7.55673Z" fill="white"/>
<path d="M16.1643 5.42327C16.1392 5.50067 16.0916 5.56886 16.0277 5.61924C15.9638 5.66962 15.8864 5.69992 15.8053 5.70631C15.7242 5.7127 15.643 5.69489 15.572 5.65513C15.501 5.61538 15.4433 5.55546 15.4064 5.48296C15.3694 5.41046 15.3548 5.32863 15.3644 5.24782C15.3739 5.16701 15.4072 5.09084 15.4601 5.02895C15.5129 4.96706 15.5829 4.92223 15.6612 4.90013C15.7395 4.87802 15.8226 4.87963 15.9 4.90476C15.9514 4.92144 15.999 4.94809 16.0402 4.98319C16.0813 5.01828 16.115 5.06112 16.1396 5.10927C16.1641 5.15742 16.1789 5.20994 16.1832 5.26381C16.1874 5.31769 16.181 5.37188 16.1643 5.42327Z" fill="white"/>
<path d="M23.9892 23.3176C24.1196 23.7732 23.9828 24.22 23.6871 24.3045C23.3914 24.389 23.0202 24.1004 22.9027 23.6268C22.7851 23.1532 22.9091 22.7243 23.2069 22.6332C23.5046 22.542 23.8542 22.8532 23.9892 23.3176Z" fill="white"/>
<g style="mix-blend-mode:overlay" opacity="0.4">
<path d="M11.3248 17.8941C16.8618 17.8899 21.4171 14.303 21.992 9.70912L21.4053 9.62432C21.2237 9.59778 21.0512 9.52764 20.9025 9.4199C20.7539 9.31216 20.6335 9.17001 20.5518 9.00563L17.7191 3.27363C17.6255 3.08402 17.4807 2.92445 17.301 2.81307C17.1213 2.70169 16.9139 2.64297 16.7025 2.64359C16.4911 2.64421 16.2841 2.70414 16.105 2.81657C15.926 2.929 15.7821 3.08941 15.6896 3.27957L12.8618 9.01441C12.7822 9.17963 12.6625 9.32235 12.5138 9.42965C12.365 9.53694 12.1919 9.60541 12.01 9.62884L5.68616 10.5591C5.47677 10.5888 5.2799 10.6766 5.11796 10.8126C4.95602 10.9487 4.83551 11.1274 4.77014 11.3285C4.70476 11.5296 4.69715 11.7451 4.74817 11.9503C4.79919 12.1556 4.90679 12.3424 5.05873 12.4895L9.6181 16.9413C9.73114 17.0546 9.81913 17.1903 9.8764 17.3398C9.93366 17.4892 9.95893 17.649 9.95055 17.8089C10.4069 17.8611 10.8656 17.8895 11.3248 17.8941Z" fill="#FFF0F5"/>
</g>
</g>
</g>
<defs>
<clipPath id="clip0_1434_4813">
<rect x="7.97662" width="23.5232" height="24.7366" transform="rotate(17.022 7.97662 0)" fill="white"/>
</clipPath>
<clipPath id="clip1_1434_4813">
<rect width="23.5232" height="24.7366" fill="white" transform="translate(8.24225) rotate(17.022)"/>
</clipPath>
</defs>
</svg>
