<svg width="82" height="82" viewBox="0 0 82 82" fill="none" xmlns="http://www.w3.org/2000/svg">
<path fill-rule="evenodd" clip-rule="evenodd" d="M44.3289 3.39061C43.2811 0.166011 38.7192 0.166032 37.6715 3.39061L35.3078 10.6652C35.2409 10.8712 35.0489 11.0107 34.8323 11.0107H27.1833C23.7928 11.0107 22.3831 15.3493 25.1261 17.3422L31.3142 21.8382C31.4895 21.9655 31.5628 22.1912 31.4959 22.3972L29.1322 29.6718C28.0845 32.8964 31.7752 35.5778 34.5182 33.5849L40.7063 29.0889C40.8815 28.9616 41.1188 28.9616 41.2941 29.0889L47.4822 33.5849C50.2252 35.5778 53.9159 32.8963 52.8681 29.6718L50.5045 22.3972C50.4375 22.1912 50.5109 21.9655 50.6861 21.8382L56.8742 17.3422C59.6172 15.3493 58.2075 11.0107 54.817 11.0107H47.168C46.9514 11.0107 46.7595 10.8712 46.6925 10.6652L44.3289 3.39061ZM40.5246 4.31766C40.6743 3.857 41.326 3.85701 41.4757 4.31766L43.8394 11.5922C44.3079 13.0343 45.6518 14.0107 47.168 14.0107H54.817C55.3014 14.0107 55.5027 14.6305 55.1109 14.9152L48.9228 19.4111C47.6961 20.3024 47.1827 21.8822 47.6513 23.3242L50.015 30.5988C50.1646 31.0595 49.6374 31.4425 49.2455 31.1578L43.0574 26.6619C41.8307 25.7706 40.1696 25.7706 38.9429 26.6619L32.7548 31.1578C32.3629 31.4425 31.8357 31.0595 31.9854 30.5988L34.349 23.3242C34.8176 21.8822 34.3043 20.3024 33.0776 19.4111L26.8895 14.9152C26.4976 14.6305 26.699 14.0107 27.1833 14.0107H34.8323C36.3486 14.0107 37.6924 13.0343 38.161 11.5922L40.5246 4.31766ZM41.0002 53C39.0672 53 37.5002 54.567 37.5002 56.5C37.5002 58.433 39.0672 60 41.0002 60C42.9332 60 44.5002 58.433 44.5002 56.5C44.5002 54.567 42.9332 53 41.0002 53ZM34.5002 56.5C34.5002 52.9102 37.4103 50 41.0002 50C44.59 50 47.5002 52.9102 47.5002 56.5C47.5002 60.0899 44.59 63 41.0002 63C37.4103 63 34.5002 60.0899 34.5002 56.5ZM34.5002 67.5C30.358 67.5 27.0002 70.8579 27.0002 75V80.5C27.0002 81.3285 27.6717 82 28.5002 82C29.3286 82 30.0002 81.3285 30.0002 80.5V75C30.0002 72.5147 32.0149 70.5 34.5002 70.5H47.5002C49.9855 70.5 52.0002 72.5147 52.0002 75V80.5C52.0002 81.3285 52.6717 82 53.5002 82C54.3286 82 55.0002 81.3285 55.0002 80.5V75C55.0002 70.8579 51.6423 67.5 47.5002 67.5H34.5002ZM71.9999 25.5C71.9999 24.6716 72.6715 24 73.4999 24C74.3283 24 74.9999 24.6716 74.9999 25.5V30.5453L79.873 29.2396C80.6732 29.0251 81.4957 29.5 81.7101 30.3002C81.9245 31.1004 81.4496 31.9229 80.6494 32.1373L75.9576 33.3945L78.7432 37.3726C79.2183 38.0513 79.0534 38.9866 78.3748 39.4617C77.6962 39.9369 76.7609 39.772 76.2857 39.0934L73.4998 35.1147L70.7133 39.0944C70.2381 39.773 69.3028 39.9379 68.6242 39.4627C67.9456 38.9876 67.7806 38.0523 68.2558 37.3736L71.0424 33.394L66.3504 32.1368C65.5502 31.9224 65.0753 31.0999 65.2898 30.2997C65.5042 29.4995 66.3267 29.0247 67.1269 29.2391L71.9999 30.5448V25.5ZM8.59852 24C7.77009 24 7.09852 24.6716 7.09852 25.5V30.5448L2.22551 29.2391C1.42532 29.0247 0.60281 29.4995 0.388398 30.2997C0.173985 31.0999 0.648857 31.9224 1.44906 32.1368L6.141 33.394L3.35445 37.3736C2.87928 38.0523 3.04421 38.9876 3.72281 39.4627C4.40142 39.9379 5.33674 39.773 5.81191 39.0944L8.59848 35.1147L11.3843 39.0934C11.8595 39.772 12.7948 39.9369 13.4734 39.4617C14.152 38.9866 14.317 38.0513 13.8418 37.3726L11.0563 33.3945L15.7481 32.1373C16.5483 31.9229 17.0232 31.1004 16.8087 30.3002C16.5943 29.5 15.7718 29.0251 14.9716 29.2396L10.0985 30.5453V25.5C10.0985 24.6716 9.42694 24 8.59852 24Z" fill="white"/>
</svg>
