<svg width="82" height="81" viewBox="0 0 82 81" fill="none" xmlns="http://www.w3.org/2000/svg">
<path fill-rule="evenodd" clip-rule="evenodd" d="M41 3C39.067 3 37.5 4.567 37.5 6.5C37.5 8.433 39.067 10 41 10C42.933 10 44.5 8.433 44.5 6.5C44.5 4.567 42.933 3 41 3ZM34.5 6.5C34.5 2.91015 37.4101 0 41 0C44.5899 0 47.5 2.91015 47.5 6.5C47.5 10.0899 44.5899 13 41 13C37.4101 13 34.5 10.0899 34.5 6.5ZM34.5 17.5C30.3579 17.5 27 20.8579 27 25V30.5C27 31.3284 27.6716 32 28.5 32C29.3284 32 30 31.3284 30 30.5V25C30 22.5147 32.0147 20.5 34.5 20.5H47.5C49.9853 20.5 52 22.5147 52 25V30.5C52 31.3284 52.6716 32 53.5 32C54.3284 32 55 31.3284 55 30.5V25C55 20.8579 51.6421 17.5 47.5 17.5H34.5ZM14 52C12.067 52 10.5 53.567 10.5 55.5C10.5 57.433 12.067 59 14 59C15.933 59 17.5 57.433 17.5 55.5C17.5 53.567 15.933 52 14 52ZM7.5 55.5C7.5 51.9101 10.4101 49 14 49C17.5899 49 20.5 51.9101 20.5 55.5C20.5 59.0899 17.5899 62 14 62C10.4101 62 7.5 59.0899 7.5 55.5ZM7.5 66.5C3.35786 66.5 0 69.8579 0 74V79.5C0 80.3284 0.671573 81 1.5 81C2.32843 81 3 80.3284 3 79.5V74C3 71.5147 5.01472 69.5 7.5 69.5H20.5C22.9853 69.5 25 71.5147 25 74V79.5C25 80.3284 25.6716 81 26.5 81C27.3284 81 28 80.3284 28 79.5V74C28 69.8579 24.6421 66.5 20.5 66.5H7.5ZM64.5 55.5C64.5 53.567 66.067 52 68 52C69.933 52 71.5 53.567 71.5 55.5C71.5 57.433 69.933 59 68 59C66.067 59 64.5 57.433 64.5 55.5ZM68 49C64.4101 49 61.5 51.9101 61.5 55.5C61.5 59.0899 64.4101 62 68 62C71.5899 62 74.5 59.0899 74.5 55.5C74.5 51.9101 71.5899 49 68 49ZM54 74C54 69.8579 57.3579 66.5 61.5 66.5H74.5C78.6421 66.5 82 69.8579 82 74V79.5C82 80.3284 81.3284 81 80.5 81C79.6716 81 79 80.3284 79 79.5V74C79 71.5147 76.9853 69.5 74.5 69.5H61.5C59.0147 69.5 57 71.5147 57 74V79.5C57 80.3284 56.3284 81 55.5 81C54.6716 81 54 80.3284 54 79.5V74ZM21.7169 12.6028C22.699 11.9103 24 12.6446 24 13.8463C24 14.3631 23.7411 14.8439 23.3202 15.1438C15.5604 20.6732 10.5 29.7455 10.5 39.9998C10.5 41.4293 10.5983 42.8358 10.7886 44.213C10.917 45.1419 10.2154 45.9998 9.27763 45.9998C8.55868 45.9998 7.93916 45.4857 7.83761 44.774C7.61511 43.2146 7.5 41.6207 7.5 39.9998C7.5 28.6773 13.1172 18.6667 21.7169 12.6028ZM32.0409 72.2884C34.8925 73.0779 37.897 73.4998 41 73.4998C44.103 73.4998 47.1075 73.0779 49.9591 72.2884C50.5813 72.1161 51 71.5423 51 70.8967C51 69.8818 49.9982 69.1686 49.0188 69.4347C46.4636 70.1292 43.7751 70.4998 41 70.4998C38.2249 70.4998 35.5364 70.1292 32.9812 69.4347C32.0018 69.1686 31 69.8818 31 70.8967C31 71.5423 31.4187 72.1161 32.0409 72.2884ZM74.1624 44.774C74.0608 45.4857 73.4413 45.9998 72.7224 45.9998C71.7846 45.9998 71.083 45.1419 71.2114 44.213C71.4017 42.8358 71.5 41.4293 71.5 39.9998C71.5 29.7455 66.4396 20.6732 58.6798 15.1438C58.2589 14.8439 58 14.3631 58 13.8463C58 12.6446 59.301 11.9103 60.2831 12.6028C68.8828 18.6667 74.5 28.6773 74.5 39.9998C74.5 41.6207 74.3849 43.2146 74.1624 44.774Z" fill="white"/>
</svg>
