<svg width="82" height="80" viewBox="0 0 82 80" fill="none" xmlns="http://www.w3.org/2000/svg">
<path fill-rule="evenodd" clip-rule="evenodd" d="M20.5 23.5C20.5 12.1782 29.6782 3 41 3C52.3218 3 61.5 12.1782 61.5 23.5C61.5 25.5306 60.7828 28.2147 59.5019 31.3299C58.2337 34.4141 56.4686 37.7902 54.4972 41.163C50.5554 47.9068 45.855 54.5256 42.8473 58.587C41.9093 59.8535 40.0907 59.8535 39.1527 58.587C36.145 54.5256 31.4446 47.9068 27.5028 41.163C25.5314 37.7902 23.7663 34.4141 22.4981 31.3299C21.2172 28.2147 20.5 25.5306 20.5 23.5ZM41 0C28.0213 0 17.5 10.5213 17.5 23.5C17.5 26.1223 18.3959 29.2422 19.7235 32.4708C21.0638 35.7303 22.9026 39.2378 24.9128 42.6768C28.934 49.5566 33.7073 56.2748 36.7419 60.3724C38.8791 63.2583 43.1209 63.2583 45.2581 60.3724C48.2927 56.2748 53.066 49.5566 57.0872 42.6768C59.0974 39.2378 60.9362 35.7303 62.2765 32.4708C63.6041 29.2422 64.5 26.1223 64.5 23.5C64.5 10.5213 53.9787 0 41 0ZM29.5 23.5C29.5 17.1487 34.6487 12 41 12C47.3513 12 52.5 17.1487 52.5 23.5C52.5 29.8513 47.3513 35 41 35C34.6487 35 29.5 29.8513 29.5 23.5ZM41 9C32.9919 9 26.5 15.4919 26.5 23.5C26.5 31.5081 32.9919 38 41 38C49.0081 38 55.5 31.5081 55.5 23.5C55.5 15.4919 49.0081 9 41 9ZM24 54.56C24 53.4207 22.8193 52.6653 21.8503 53.2645C21.0302 53.7716 20.3016 54.3232 19.686 54.9186C18.3858 56.1762 17.5 57.7247 17.5 59.5C17.5 61.2754 18.3858 62.8238 19.686 64.0814C20.9819 65.3347 22.7784 66.3943 24.8757 67.2523C29.0777 68.9713 34.7793 70 41 70C47.2207 70 52.9223 68.9713 57.1243 67.2523C59.2216 66.3943 61.0181 65.3347 62.314 64.0814C63.6142 62.8238 64.5 61.2754 64.5 59.5C64.5 57.7247 63.6142 56.1762 62.314 54.9186C61.9848 54.6003 61.6234 54.2944 61.2329 54.0012C60.2743 53.2814 59 54.0462 59 55.245C59 55.7752 59.2695 56.2629 59.6826 56.5952C59.8801 56.7542 60.0621 56.9143 60.2283 57.075C61.1546 57.9709 61.5 58.7901 61.5 59.5C61.5 60.21 61.1546 61.0291 60.2283 61.925C59.2976 62.8252 57.8723 63.705 55.9884 64.4757C52.228 66.014 46.9296 67 41 67C35.0704 67 29.772 66.014 26.0116 64.4757C24.1277 63.705 22.7024 62.8252 21.7717 61.925C20.8454 61.0291 20.5 60.21 20.5 59.5C20.5 58.7901 20.8454 57.9709 21.7717 57.075C22.1641 56.6955 22.6443 56.3197 23.2098 55.9541C23.6872 55.6454 24 55.1285 24 54.56ZM16.0742 48.6116C17.0315 48.295 18 49.0215 18 50.0298C18 50.693 17.5671 51.2766 16.9377 51.4859C15.9082 51.8281 14.9249 52.1915 13.9922 52.5742C10.5704 53.978 7.90028 55.6116 6.10918 57.3489C4.32263 59.0818 3.5 60.8221 3.5 62.5001C3.5 64.1782 4.32263 65.9185 6.10918 67.6513C7.90028 69.3886 10.5704 71.0223 13.9922 72.4261C20.8285 75.2307 30.3765 77.0001 41 77.0001C51.6235 77.0001 61.1715 75.2307 68.0078 72.4261C71.4296 71.0223 74.0997 69.3886 75.8908 67.6513C77.6774 65.9185 78.5 64.1782 78.5 62.5001C78.5 60.8221 77.6774 59.0818 75.8908 57.3489C74.0997 55.6116 71.4296 53.978 68.0078 52.5742C67.0751 52.1915 66.0919 51.8281 65.0623 51.4859C64.4329 51.2766 64 50.693 64 50.0298C64 49.0215 64.9685 48.295 65.9258 48.6116C67.049 48.9829 68.1241 49.3792 69.1465 49.7987C72.7823 51.2903 75.8236 53.1044 77.9795 55.1955C80.14 57.2911 81.5 59.7599 81.5 62.5001C81.5 65.2404 80.14 67.7092 77.9795 69.8048C75.8236 71.8959 72.7823 73.71 69.1465 75.2016C61.8676 78.1878 51.9156 80.0001 41 80.0001C30.0844 80.0001 20.1324 78.1878 12.8535 75.2016C9.21768 73.71 6.17636 71.8959 4.02045 69.8048C1.85998 67.7092 0.5 65.2404 0.5 62.5001C0.5 59.7599 1.85998 57.2911 4.02045 55.1955C6.17636 53.1044 9.21768 51.2903 12.8535 49.7987C13.8759 49.3792 14.951 48.9829 16.0742 48.6116Z" fill="white"/>
</svg>
