<svg width="70" height="73" viewBox="0 0 70 73" fill="none" xmlns="http://www.w3.org/2000/svg">
<path fill-rule="evenodd" clip-rule="evenodd" d="M57.5 3C58.3284 3 59 2.32843 59 1.5C59 0.671573 58.3284 0 57.5 0C56.6716 0 56 0.671573 56 1.5C56 2.32843 56.6716 3 57.5 3ZM7 4.5C6.17157 4.5 5.5 5.17157 5.5 6C5.5 6.82843 6.17157 7.5 7 7.5C7.82843 7.5 8.5 6.82843 8.5 6C8.5 5.17157 7.82843 4.5 7 4.5ZM2.5 6C2.5 3.51472 4.51472 1.5 7 1.5C9.48528 1.5 11.5 3.51472 11.5 6C11.5 8.48528 9.48528 10.5 7 10.5C4.51472 10.5 2.5 8.48528 2.5 6ZM35 6.5C18.7076 6.5 5.5 19.7076 5.5 36C5.5 52.2924 18.7076 65.5 35 65.5C51.2924 65.5 64.5 52.2924 64.5 36C64.5 19.7076 51.2924 6.5 35 6.5ZM2.5 36C2.5 18.0507 17.0507 3.5 35 3.5C52.9493 3.5 67.5 18.0507 67.5 36C67.5 53.9493 52.9493 68.5 35 68.5C17.0507 68.5 2.5 53.9493 2.5 36ZM35 15.5C23.6782 15.5 14.5 24.6782 14.5 36C14.5 47.3218 23.6782 56.5 35 56.5C46.3218 56.5 55.5 47.3218 55.5 36C55.5 24.6782 46.3218 15.5 35 15.5ZM11.5 36C11.5 23.0213 22.0213 12.5 35 12.5C47.9787 12.5 58.5 23.0213 58.5 36C58.5 48.9787 47.9787 59.5 35 59.5C22.0213 59.5 11.5 48.9787 11.5 36ZM58.5 68C58.5 67.1716 59.1716 66.5 60 66.5C60.8284 66.5 61.5 67.1716 61.5 68C61.5 68.8284 60.8284 69.5 60 69.5C59.1716 69.5 58.5 68.8284 58.5 68ZM60 63.5C57.5147 63.5 55.5 65.5147 55.5 68C55.5 70.4853 57.5147 72.5 60 72.5C62.4853 72.5 64.5 70.4853 64.5 68C64.5 65.5147 62.4853 63.5 60 63.5ZM70 15.5C70 16.3284 69.3284 17 68.5 17C67.6716 17 67 16.3284 67 15.5C67 14.6716 67.6716 14 68.5 14C69.3284 14 70 14.6716 70 15.5ZM67.5 58C68.3284 58 69 57.3284 69 56.5C69 55.6716 68.3284 55 67.5 55C66.6716 55 66 55.6716 66 56.5C66 57.3284 66.6716 58 67.5 58ZM13 69.5C13 70.3284 12.3284 71 11.5 71C10.6716 71 10 70.3284 10 69.5C10 68.6716 10.6716 68 11.5 68C12.3284 68 13 68.6716 13 69.5ZM1.5 58C2.32843 58 3 57.3284 3 56.5C3 55.6716 2.32843 55 1.5 55C0.671573 55 0 55.6716 0 56.5C0 57.3284 0.671573 58 1.5 58ZM3 17.5C3 18.3284 2.32843 19 1.5 19C0.671573 19 0 18.3284 0 17.5C0 16.6716 0.671573 16 1.5 16C2.32843 16 3 16.6716 3 17.5ZM32.5 28C32.5 26.6193 33.6193 25.5 35 25.5C36.3807 25.5 37.5 26.6193 37.5 28V32C37.5 32.8284 38.1716 33.5 39 33.5H43C44.3807 33.5 45.5 34.6193 45.5 36C45.5 37.3807 44.3807 38.5 43 38.5H39C38.1716 38.5 37.5 39.1716 37.5 40V44C37.5 45.3807 36.3807 46.5 35 46.5C33.6193 46.5 32.5 45.3807 32.5 44V40C32.5 39.1716 31.8284 38.5 31 38.5H27C25.6193 38.5 24.5 37.3807 24.5 36C24.5 34.6193 25.6193 33.5 27 33.5H31C31.8284 33.5 32.5 32.8284 32.5 32V28ZM35 22.5C31.9624 22.5 29.5 24.9624 29.5 28V30.5H27C23.9624 30.5 21.5 32.9624 21.5 36C21.5 39.0376 23.9624 41.5 27 41.5H29.5V44C29.5 47.0376 31.9624 49.5 35 49.5C38.0376 49.5 40.5 47.0376 40.5 44V41.5H43C46.0376 41.5 48.5 39.0376 48.5 36C48.5 32.9624 46.0376 30.5 43 30.5H40.5V28C40.5 24.9624 38.0376 22.5 35 22.5Z" fill="white"/>
</svg>
