<svg width="81" height="67" viewBox="0 0 81 67" fill="none" xmlns="http://www.w3.org/2000/svg">
<path fill-rule="evenodd" clip-rule="evenodd" d="M49.4551 4.06465C51.8314 -1.40818 60 0.288696 60 6.2552V21.0001C60 22.3808 61.1193 23.5001 62.5 23.5001H67C74.4558 23.5001 80.5 29.5442 80.5 37.0001V53.0001C80.5 60.4559 74.4558 66.5001 67 66.5001H42C37.6157 66.5001 33.7195 64.4101 31.2534 61.172C30.5578 63.4121 28.4689 65.0388 26 65.0388H25.5C24.6716 65.0388 24 64.3672 24 63.5388C24 62.7103 24.6716 62.0388 25.5 62.0388H26C27.3807 62.0388 28.5 60.9195 28.5 59.5388V30.9997V30.9072C28.5 29.5265 27.3807 28.4072 26 28.4072H25.5C24.6716 28.4072 24 27.7357 24 26.9072C24 26.0788 24.6716 25.4072 25.5 25.4072H26C27.9087 25.4072 29.5903 26.3795 30.5766 27.8558C30.599 27.8508 30.6215 27.846 30.6441 27.8414L31.3786 27.6945C33.4562 27.279 35.4691 26.5884 37.3641 25.6409C39.6103 24.5178 41.3895 22.6399 42.3897 20.3364L48.8741 5.4026L49.4551 4.06465ZM31.5 30.9072V53.0001C31.5 58.7991 36.201 63.5001 42 63.5001H67C72.799 63.5001 77.5 58.7991 77.5 53.0001V37.0001C77.5 31.2011 72.799 26.5001 67 26.5001H62.5C59.4624 26.5001 57 24.0377 57 21.0001V6.2552C57 3.54317 53.287 2.77184 52.2068 5.2595L51.6259 6.59745L45.1415 21.5312C43.8606 24.4811 41.5822 26.886 38.7057 28.3242C36.5722 29.3909 34.306 30.1685 31.9669 30.6363L31.5 30.7297V30.9072ZM1.5 29C0.671573 29 0 29.6716 0 30.5C0 31.3284 0.671573 32 1.5 32H23.5C24.3284 32 25 31.3284 25 30.5C25 29.6716 24.3284 29 23.5 29H1.5ZM5 36.5C5 35.6716 5.67157 35 6.5 35H23.5C24.3284 35 25 35.6716 25 36.5C25 37.3284 24.3284 38 23.5 38H6.5C5.67157 38 5 37.3284 5 36.5ZM16.5 41C15.6716 41 15 41.6716 15 42.5C15 43.3284 15.6716 44 16.5 44H23.5C24.3284 44 25 43.3284 25 42.5C25 41.6716 24.3284 41 23.5 41H16.5ZM9 48.5C9 47.6716 9.67157 47 10.5 47H23.5C24.3284 47 25 47.6716 25 48.5C25 49.3284 24.3284 50 23.5 50H10.5C9.67157 50 9 49.3284 9 48.5ZM19.5 53C18.6716 53 18 53.6716 18 54.5C18 55.3284 18.6716 56 19.5 56H23.5C24.3284 56 25 55.3284 25 54.5C25 53.6716 24.3284 53 23.5 53H19.5ZM4 60.5C4 59.6716 4.67157 59 5.5 59H23.5C24.3284 59 25 59.6716 25 60.5C25 61.3284 24.3284 62 23.5 62H5.5C4.67157 62 4 61.3284 4 60.5Z" fill="white"/>
</svg>
