<svg width="81" height="81" viewBox="0 0 81 81" fill="none" xmlns="http://www.w3.org/2000/svg">
<path fill-rule="evenodd" clip-rule="evenodd" d="M59.6713 2.41844C60.719 -0.806136 65.281 -0.806157 66.3287 2.41844L68.6924 9.69301C68.7593 9.89903 68.9513 10.0385 69.1679 10.0385H76.8168C80.2073 10.0385 81.6171 14.3772 78.8741 16.3701L72.6859 20.866C72.5107 20.9933 72.4374 21.219 72.5043 21.425L74.868 28.6996C75.9157 31.9242 72.225 34.6056 69.482 32.6127L63.2939 28.1168C63.1186 27.9895 62.8813 27.9895 62.7061 28.1168L56.518 32.6127C53.775 34.6056 50.0843 31.9242 51.132 28.6996L53.4957 21.425C53.5626 21.219 53.4893 20.9933 53.3141 20.866L47.1259 16.3701C44.3829 14.3772 45.7926 10.0385 49.1832 10.0385H56.8321C57.0487 10.0385 57.2407 9.89903 57.3076 9.69302L59.6713 2.41844ZM63.4755 3.34549C63.3259 2.88484 62.6741 2.88483 62.5245 3.34549L60.1608 10.6201C59.6923 12.0621 58.3484 13.0385 56.8321 13.0385H49.1832C48.6988 13.0385 48.4974 13.6583 48.8893 13.943L55.0774 18.439C56.3041 19.3302 56.8174 20.91 56.3489 22.3521L53.9852 29.6266C53.8355 30.0873 54.3628 30.4704 54.7546 30.1857L60.9427 25.6897C62.1695 24.7985 63.8305 24.7985 65.0573 25.6897L71.2454 30.1857C71.6372 30.4704 72.1645 30.0873 72.0148 29.6266L69.6511 22.3521C69.1826 20.91 69.6959 19.3302 70.9226 18.4389L77.1107 13.943C77.5026 13.6583 77.3012 13.0385 76.8168 13.0385H69.1679C67.6516 13.0385 66.3077 12.0621 65.8392 10.6201L63.4755 3.34549ZM34 21.5279C34 20.6994 34.6716 20.0279 35.5 20.0279H44.5C45.3284 20.0279 46 20.6994 46 21.5279C46 22.3563 45.3284 23.0279 44.5 23.0279H37V42.0279V45.0279V67.0279H44.5C45.3284 67.0279 46 67.6994 46 68.5279C46 69.3563 45.3284 70.0279 44.5 70.0279H35.5C34.6716 70.0279 34 69.3563 34 68.5279V45.0279H29.5C28.6716 45.0279 28 44.3563 28 43.5279C28 42.6994 28.6716 42.0279 29.5 42.0279H34V21.5279ZM14 29.5279C12.067 29.5279 10.5 31.0949 10.5 33.0279C10.5 34.9609 12.067 36.5279 14 36.5279C15.933 36.5279 17.5 34.9609 17.5 33.0279C17.5 31.0949 15.933 29.5279 14 29.5279ZM7.5 33.0279C7.5 29.438 10.4101 26.5279 14 26.5279C17.5899 26.5279 20.5 29.438 20.5 33.0279C20.5 36.6177 17.5899 39.5279 14 39.5279C10.4101 39.5279 7.5 36.6177 7.5 33.0279ZM7.5 44.0279C3.35786 44.0279 0 47.3857 0 51.5279V57.0279C0 57.8563 0.671573 58.5279 1.5 58.5279C2.32843 58.5279 3 57.8563 3 57.0279V51.5279C3 49.0426 5.01472 47.0279 7.5 47.0279H20.5C22.9853 47.0279 25 49.0426 25 51.5279V57.0279C25 57.8563 25.6716 58.5279 26.5 58.5279C27.3284 58.5279 28 57.8563 28 57.0279V51.5279C28 47.3857 24.6421 44.0279 20.5 44.0279H7.5ZM66.3287 49.4184C65.281 46.1938 60.719 46.1939 59.6713 49.4184L57.3076 56.693C57.2407 56.899 57.0487 57.0385 56.8321 57.0385H49.1832C45.7926 57.0385 44.3829 61.3772 47.1259 63.3701L53.3141 67.866C53.4893 67.9933 53.5626 68.219 53.4957 68.425L51.132 75.6996C50.0843 78.9242 53.775 81.6056 56.518 79.6127L62.7061 75.1168C62.8813 74.9895 63.1186 74.9895 63.2939 75.1168L69.482 79.6127C72.225 81.6056 75.9157 78.9242 74.868 75.6996L72.5043 68.425C72.4374 68.219 72.5107 67.9933 72.6859 67.866L78.8741 63.3701C81.6171 61.3772 80.2073 57.0385 76.8168 57.0385H69.1679C68.9513 57.0385 68.7593 56.899 68.6924 56.693L66.3287 49.4184ZM62.5245 50.3455C62.6741 49.8848 63.3259 49.8848 63.4755 50.3455L65.8392 57.6201C66.3077 59.0621 67.6516 60.0385 69.1679 60.0385H76.8168C77.3012 60.0385 77.5026 60.6583 77.1107 60.943L70.9226 65.4389C69.6959 66.3302 69.1826 67.91 69.6511 69.3521L72.0148 76.6266C72.1645 77.0873 71.6372 77.4704 71.2454 77.1857L65.0573 72.6897C63.8305 71.7985 62.1695 71.7985 60.9427 72.6897L54.7546 77.1857C54.3628 77.4704 53.8355 77.0873 53.9852 76.6266L56.3489 69.3521C56.8174 67.91 56.3041 66.3302 55.0774 65.4389L48.8893 60.943C48.4974 60.6583 48.6988 60.0385 49.1832 60.0385H56.8321C58.3484 60.0385 59.6923 59.0621 60.1608 57.6201L62.5245 50.3455Z" fill="white"/>
</svg>
