<svg width="273" height="277" viewBox="0 0 273 277" fill="none" xmlns="http://www.w3.org/2000/svg">
<path fill-rule="evenodd" clip-rule="evenodd" d="M267.082 69.9404H267.116L266.672 68.3689C266.398 67.3394 266.115 66.3073 265.821 65.2728L265.063 62.6091H265.02C259.49 44.1281 250.736 24.4869 238.313 2.68813L236.799 0.0488739L233.941 1.02637L233.934 1.02863C233.439 1.19437 211.045 8.69978 183.053 8.69978C169.286 8.69978 139.008 1.43304 137.007 0.95298L136.905 0.928627L136.05 0.733124L135.195 0.928627C135.184 0.931046 135.137 0.941734 135.056 0.960152L135.042 0.963264L135.036 0.9646C132.51 1.53898 101.017 8.69978 87.0686 8.69978C60.0328 8.69978 39.1814 1.40788 38.195 1.06292L38.1602 1.05082L35.2531 0L33.7384 2.68813C20.7907 25.3906 11.8005 45.8693 6.27941 65.2728L4.96021 69.9404H5.04125C1.69786 82.9736 0 95.5031 0 107.232C0 208.453 102.141 277 136.049 277C169.958 277 272.075 208.453 272.099 107.232C272.099 95.4242 270.404 82.8949 267.082 69.9404ZM257.369 62.6091H14.7321C19.9357 45.8938 27.7776 28.2743 38.6244 8.91972C45.5624 11.0947 63.9825 16.0311 87.0686 16.0311C101.189 16.0311 130.505 9.50622 136.001 8.2599C141.327 9.53065 169.177 16.0311 183.053 16.0311C206.775 16.0311 226.245 10.9969 233.403 8.87084C244.323 28.3476 252.214 45.9915 257.369 62.6091ZM7.32894 107.232C7.32894 95.5754 9.11231 83.039 12.6058 69.9404H259.493C262.987 82.9412 264.746 95.4777 264.746 107.232C264.746 163.512 231.448 205.178 211.586 225.021C183.614 252.978 151.22 269.669 136.049 269.669C120.903 269.669 88.4847 252.978 60.5126 225.021C40.6512 205.178 7.32894 163.487 7.32894 107.232ZM48.7859 133.014V85.7759H67.4014C72.0919 85.7759 75.4877 86.1913 77.5886 87.0466C79.714 87.9019 81.3997 89.3927 82.67 91.5676C83.9404 93.7425 84.5755 96.2107 84.5755 99.0211C84.5755 102.564 83.5983 105.497 81.6684 107.794C79.7384 110.116 76.8557 111.558 72.9958 112.168C74.9013 113.366 76.4893 114.686 77.7352 116.127C78.9811 117.569 80.6668 120.111 82.7677 123.801L88.1179 133.014H77.5398L71.1392 122.726C68.8672 119.06 67.3281 116.738 66.4731 115.785C65.6424 114.832 64.7385 114.172 63.8102 113.83C62.8819 113.464 61.3917 113.293 59.364 113.293H57.5806V133.014H48.7859ZM57.6539 105.741H64.1767C68.4274 105.741 71.0659 105.546 72.1163 105.155C73.1668 104.764 73.9974 104.104 74.5837 103.151C75.1701 102.198 75.4876 101.025 75.4876 99.6075C75.4876 98.0191 75.0968 96.7239 74.315 95.7464C73.5333 94.7689 72.4095 94.158 70.9926 93.8892C70.2841 93.7914 68.1343 93.7181 64.5431 93.7181H57.6539V105.741ZM92.5892 97.5549C91.2455 100.83 90.5859 104.862 90.5859 109.676C90.5859 117.203 92.5159 123.092 96.3514 127.369C100.211 131.645 105.366 133.796 111.889 133.796C118.314 133.796 123.468 131.645 127.304 127.344C131.139 123.043 133.069 117.081 133.069 109.456C133.069 101.758 131.139 95.771 127.255 91.4456C123.371 87.1201 118.216 84.9696 111.767 84.9696C108.2 84.9696 105.073 85.5805 102.337 86.8269C100.285 87.7555 98.379 89.1729 96.669 91.079C94.9344 92.9851 93.5908 95.1601 92.5892 97.5549ZM103.143 121.528C100.846 118.767 99.6982 114.71 99.6982 109.358C99.6982 103.933 100.822 99.8521 103.045 97.164C105.293 94.4758 108.224 93.1318 111.864 93.1318C115.504 93.1318 118.436 94.4514 120.635 97.1151C122.833 99.7788 123.933 103.835 123.933 109.236C123.933 114.71 122.809 118.816 120.537 121.553C118.289 124.29 115.382 125.658 111.864 125.658C108.346 125.658 105.439 124.29 103.143 121.528ZM178.876 133.014H169.25L165.439 122.286H147.948L144.332 133.014H134.951L152.003 85.7759H161.36L178.876 133.014ZM162.605 114.319L156.571 96.7972L150.659 114.319H162.605ZM199.152 85.7759H183.003V132.989H199.64C202.889 132.989 205.503 132.647 207.458 131.987C210.047 131.083 212.124 129.837 213.663 128.224C215.69 126.098 217.254 123.336 218.353 119.891C219.257 117.08 219.697 113.732 219.697 109.847C219.697 105.424 219.208 101.685 218.256 98.6789C217.303 95.6731 215.91 93.1072 214.078 91.03C212.246 88.9528 210.047 87.4865 207.482 86.6801C205.577 86.0691 202.792 85.7759 199.152 85.7759ZM191.823 125.047V93.7914H195.805C199.396 93.7914 201.814 93.938 203.06 94.2313C204.697 94.6223 206.065 95.3554 207.14 96.4551C208.215 97.5548 209.07 99.0699 209.656 101.025C210.267 102.98 210.56 105.79 210.56 109.431C210.56 113.073 210.243 115.956 209.656 118.082C209.046 120.208 208.288 121.748 207.335 122.652C206.383 123.556 205.21 124.216 203.769 124.607C202.669 124.9 200.886 125.047 198.419 125.047H191.823ZM80.8379 45.3073L85.8216 44.8185C86.1147 46.5047 86.7255 47.7266 87.6538 48.5086C88.5821 49.2906 89.8036 49.6816 91.3671 49.6816C93.0284 49.6816 94.2743 49.3395 95.1049 48.6308C95.9355 47.9221 96.3508 47.1157 96.3508 46.187C96.3508 45.5761 96.1798 45.0874 95.8134 44.6475C95.4713 44.232 94.8362 43.8655 93.9567 43.5478C93.3459 43.3523 91.9779 42.9613 89.8525 42.4481C87.0919 41.7638 85.162 40.933 84.0626 39.931C82.4991 38.5381 81.7174 36.8275 81.7174 34.8236C81.7174 33.5284 82.0838 32.3309 82.8167 31.2068C83.5496 30.0827 84.6001 29.2274 85.9926 28.6409C87.3851 28.0544 89.0463 27.7611 91.0007 27.7611C94.201 27.7611 96.5951 28.4698 98.2075 29.8627C99.8198 31.2557 100.675 33.1129 100.748 35.4589L95.6179 35.6789C95.398 34.3837 94.9339 33.4306 94.201 32.8686C93.4681 32.3065 92.3932 32.0133 90.9518 32.0133C89.4616 32.0133 88.289 32.3309 87.4584 32.9419C86.9209 33.3329 86.6522 33.8705 86.6522 34.5059C86.6522 35.1168 86.8965 35.63 87.4095 36.0455C88.0447 36.5831 89.6326 37.1451 92.1245 37.7316C94.6163 38.3181 96.473 38.9291 97.67 39.5645C98.8671 40.1998 99.7954 41.0552 100.479 42.1548C101.163 43.2545 101.505 44.5986 101.505 46.187C101.505 47.6533 101.09 48.9974 100.284 50.2681C99.4778 51.5389 98.3296 52.4919 96.8638 53.1029C95.398 53.7138 93.5414 54.0315 91.3427 54.0315C88.1424 54.0315 85.675 53.2984 83.9405 51.8077C82.206 50.317 81.1799 48.1421 80.8379 45.3073ZM111.23 32.4775V53.5672H116.336V32.4775H123.86V28.1765H103.681V32.4775H111.23ZM147.141 53.5672H141.571L139.348 47.7999H129.185L127.084 53.5672H121.636L131.53 28.1765H136.953L147.141 53.5672ZM137.686 43.5233L134.193 34.1148L130.773 43.5233H137.686ZM152.613 32.4775V53.5672H157.719V32.4775H165.244V28.1765H145.065V32.4775H152.613ZM168.273 53.5672V28.1765H187.109V32.4775H173.404V38.0982H186.156V42.3747H173.404V49.2906H187.597V53.5672H168.273ZM94.788 213.78L96.1072 212.216C96.547 211.703 97.3043 211.654 97.8173 212.069L109.25 221.673C109.763 222.089 109.837 222.871 109.397 223.384L108.078 224.948C107.663 225.461 106.881 225.534 106.368 225.095L94.9346 215.491C94.4216 215.075 94.3483 214.293 94.788 213.78ZM101.042 206.326L98.2082 209.723C97.7684 210.236 97.8417 211.018 98.3548 211.434L109.788 221.038C110.301 221.478 111.083 221.404 111.498 220.891L114.356 217.494C114.796 216.981 114.723 216.199 114.21 215.784L102.777 206.18C102.264 205.74 101.482 205.813 101.042 206.326ZM103.191 203.785L106.025 200.388C106.465 199.875 107.222 199.802 107.735 200.242L119.168 209.846C119.681 210.261 119.755 211.043 119.315 211.556L116.481 214.953C116.066 215.466 115.284 215.54 114.771 215.1L103.338 205.496C102.825 205.08 102.752 204.298 103.191 203.785ZM110.984 194.499L108.151 197.896C107.711 198.409 107.784 199.191 108.297 199.606L119.73 209.21C120.243 209.65 121.025 209.577 121.44 209.063L124.274 205.667C124.714 205.153 124.641 204.371 124.128 203.956L112.695 194.352C112.181 193.912 111.4 193.986 110.984 194.499ZM141.18 182.304L134.266 176.488C133.924 176.195 133.411 176.219 133.093 176.513L170.862 208.233C171.375 208.648 171.448 209.43 171.008 209.943L170.129 211.018C169.714 211.532 168.932 211.605 168.419 211.165L130.626 179.445C130.308 179.836 130.357 180.398 130.748 180.716L137.662 186.532L137.1 187.192C136.684 187.705 135.903 187.778 135.39 187.339L133.948 186.117L126.228 195.305L129.258 197.847C129.771 198.262 129.844 199.044 129.404 199.557L126.57 202.954C126.155 203.467 125.373 203.541 124.86 203.101L113.427 193.497C112.914 193.081 112.841 192.299 113.281 191.786L116.115 188.389C116.53 187.876 117.312 187.803 117.825 188.243L121.367 191.224L129.087 182.036L127.572 180.765C127.059 180.349 126.986 179.567 127.426 179.054L128.549 177.71L128.354 177.563C127.841 177.148 127.768 176.366 128.207 175.853L129.136 174.753C129.551 174.24 130.333 174.167 130.846 174.607L131.041 174.753L132.092 173.507C132.507 172.994 133.289 172.92 133.802 173.36L135.316 174.631L137.515 172.016C137.93 171.503 138.712 171.43 139.225 171.87L142.206 174.387C142.719 174.802 142.792 175.584 142.352 176.097L140.153 178.712L141.595 179.934C142.108 180.349 142.181 181.131 141.741 181.645L141.18 182.304ZM156.376 161.312L153.078 158.551C152.663 158.209 152.052 158.258 151.71 158.673C151.368 159.089 151.417 159.7 151.832 160.042L155.13 162.803C154.861 163.292 154.959 163.927 155.399 164.294L186.083 190.051C186.596 190.491 187.377 190.418 187.793 189.904L188.721 188.805C189.161 188.292 189.088 187.509 188.574 187.094L157.915 161.312C157.451 160.946 156.84 160.97 156.376 161.312ZM141.595 171.283L150.072 161.166C150.341 160.848 150.781 160.799 151.099 161.068C151.416 161.337 151.465 161.777 151.196 162.094L142.719 172.212C142.45 172.529 142.011 172.578 141.693 172.309C141.375 172.041 141.327 171.601 141.595 171.283ZM178.924 157.036L175.039 158.869L171.179 155.619C170.153 154.739 168.614 154.885 167.735 155.912L161.847 162.925L171.13 170.721L177.018 163.707C177.873 162.681 177.751 161.141 176.725 160.262L176.285 159.895L179.559 158.356C179.925 158.185 180.072 157.745 179.901 157.378C179.705 157.012 179.29 156.865 178.924 157.036ZM124.056 174.998L121.295 178.272C120.904 178.761 120.196 178.81 119.732 178.419C119.243 178.028 119.194 177.319 119.585 176.855L122.346 173.58L121.1 172.529C120.587 172.114 120.514 171.332 120.953 170.819L122.883 168.522C123.299 168.008 124.08 167.935 124.593 168.375L125.839 169.426L128.746 165.956C129.137 165.467 129.846 165.418 130.31 165.809C130.799 166.2 130.847 166.909 130.457 167.373L127.549 170.843L128.795 171.894C129.308 172.309 129.382 173.091 128.942 173.605L127.012 175.902C126.597 176.415 125.815 176.488 125.302 176.048L124.056 174.998ZM154.323 168.18L143.525 181.058C142.646 182.084 142.792 183.624 143.818 184.504L150.61 190.198C151.636 191.078 153.175 190.931 154.054 189.905L164.852 177.026C165.732 176 165.585 174.46 164.559 173.58L157.768 167.886C156.742 167.007 155.202 167.153 154.323 168.18ZM155.276 190.906L166.074 178.028C166.929 177.001 168.468 176.855 169.519 177.735L176.31 183.428C177.336 184.308 177.483 185.848 176.603 186.874L165.805 199.753C164.926 200.779 163.387 200.926 162.361 200.046L155.569 194.352C154.543 193.472 154.396 191.933 155.276 190.906ZM87.0925 234.943L85.6511 236.678L86.897 237.729L88.314 236.018C88.9736 235.236 89.8286 234.674 90.8058 234.381L92.6377 233.843L92.638 233.843L101.408 223.384C101.848 222.871 101.774 222.113 101.261 221.673L98.9894 219.767C98.4764 219.352 97.7191 219.401 97.2793 219.914L88.5094 230.373L88.5093 230.374L88.2651 232.279C88.143 233.257 87.7277 234.185 87.0925 234.943ZM169.64 201.61C169.323 200.559 169.518 199.411 170.275 198.507C171.473 197.089 173.549 196.918 174.942 198.091C176.358 199.264 176.529 201.366 175.357 202.783C174.624 203.687 173.5 204.078 172.425 203.956L170.959 205.691C170.544 206.204 169.762 206.278 169.249 205.838L168.321 205.056C167.808 204.64 167.735 203.858 168.174 203.345L169.64 201.61ZM97.3282 226.317L93.9569 230.349C93.4438 230.96 92.5644 231.033 91.9536 230.52C91.3429 230.007 91.2696 229.127 91.7826 228.516L95.1539 224.484C95.667 223.873 96.5464 223.8 97.1572 224.313C97.7435 224.801 97.8168 225.706 97.3282 226.317ZM172.475 193.399L177.971 186.85C178.582 186.117 179.755 186.336 180.048 187.216L182.98 195.256C183.297 196.136 182.54 197.04 181.611 196.869L173.208 195.378C172.279 195.232 171.864 194.108 172.475 193.399Z" fill="#2D2D42"/>
</svg>
