<svg width="363" height="78" viewBox="0 0 363 78" fill="none" xmlns="http://www.w3.org/2000/svg">
<path d="M233.283 76.2127C233.837 76.6376 234.39 77.0626 235.136 77.6355C233.471 78.1926 233.461 78.1989 232.828 77.0311C232.784 76.9461 233.037 76.6439 233.283 76.2127ZM341.52 16.802C343.443 17.3245 345.359 17.3812 347.27 16.4274C345.356 16.3896 343.441 16.355 341.527 16.3172C341.527 16.4777 341.523 16.6414 341.523 16.802H341.52ZM340.911 8.32821C339.739 7.94104 338.92 7.79624 337.919 8.47301C339.049 9.27884 339.835 9.05534 340.911 8.32821ZM356.714 41.1561C356.564 41.1687 356.444 41.4237 356.313 41.5685C356.566 41.6881 356.808 41.8675 357.073 41.9053C357.284 41.9368 357.525 41.792 357.753 41.7259C357.673 41.5937 357.591 41.4615 357.511 41.3293C357.244 41.2632 356.969 41.1341 356.714 41.1561ZM203.806 4.89716C202.329 4.68941 200.96 4.4974 199.543 4.29909C199.679 4.702 199.811 5.09547 199.867 5.26545C200.915 5.37877 201.794 5.47635 202.671 5.57393C203.396 5.65577 204.12 5.75965 204.847 5.81316C205.853 5.88871 206.052 5.28119 205.98 4.42185C205.288 4.26761 204.699 4.13541 203.94 3.96858C203.905 4.21095 203.86 4.50369 203.804 4.89401L203.806 4.89716ZM239.286 5.68095C238.589 5.45746 238.158 5.84464 238.02 6.73545C238.767 7.05023 239.504 7.35871 240.383 7.72699C240.571 6.5277 240.097 5.93907 239.288 5.67781L239.286 5.68095ZM228.831 4.84365C229.375 5.29693 229.902 5.73447 230.465 6.20348C230.746 4.74292 230.521 4.5698 228.831 4.84365ZM218.566 4.55091C217.98 4.77755 217.393 5.00419 216.531 5.33785C217.511 5.49209 218.291 6.07757 218.566 4.55091ZM226.488 5.83205C226.514 5.83834 226.54 5.84778 226.566 5.85408C226.566 5.85408 226.552 5.83834 226.54 5.8226L226.566 5.85408C226.559 5.8289 226.552 5.80686 226.545 5.78168C226.533 5.78168 226.524 5.78798 226.512 5.79112C226.502 5.80372 226.495 5.81945 226.486 5.83205H226.488ZM227.272 4.80273C227.161 4.52888 226.695 4.40926 226.05 4.0095C226.294 4.87828 226.423 5.341 226.547 5.78168C227.039 5.65577 227.532 5.45117 227.272 4.80273ZM225.97 6.53085C226.165 6.50881 226.32 6.09331 226.488 5.8289C226.045 5.70299 225.597 5.57393 225.082 5.42599C225.058 6.33254 225.478 6.58121 225.97 6.5277V6.53085ZM196.474 7.91271C196.915 7.94419 197.358 7.97567 198.043 8.02603C197.454 7.24539 197.042 6.97468 196.474 7.91271ZM356.2 52.4471C355.921 54.6317 354.622 55.5162 353.53 56.0828C351.441 57.1656 349.975 59.0606 348.601 61.5914C349.499 64.566 348.712 66.5239 346.433 67.9844C344.852 68.9949 343.619 70.9874 342.086 72.193C341.164 72.917 339.968 73.2097 338.883 73.2853C334.214 73.6189 329.542 73.7354 324.873 74.0785C323.609 74.1729 322.362 74.8056 321.105 75.1613C320.519 75.3281 319.924 75.5202 319.33 75.5422C314.662 75.7122 309.992 75.964 305.323 75.9608C295.982 75.9546 286.641 75.9231 277.305 75.687C261.201 75.2809 245.098 74.8119 228.997 74.2988C228.946 74.5286 228.894 74.7616 228.84 75.0102C229.837 74.856 230.699 74.7238 231.818 74.5538C230.464 76.9104 228.861 77.6365 227.009 76.732C226.514 76.4928 225.879 76.1119 225.466 76.2914C224.041 76.9052 223.15 75.901 222.13 75.1172C221.614 74.7175 221.089 74.3555 220.561 74.0281C219.274 73.9872 217.984 73.9463 216.697 73.9022C216.43 73.8928 216.165 73.8833 215.898 73.8676C214.899 74.0029 213.818 73.7228 212.826 73.7795C211.318 73.8676 209.792 73.748 208.275 73.7165C208.249 73.5339 208.223 73.3514 208.198 73.1688C206.575 73.0145 204.953 72.8949 203.325 72.876C202.641 72.8698 201.956 72.8792 201.271 72.9012C201.016 73.2538 200.892 73.5056 200.765 73.5087C200.073 73.5213 199.386 73.5717 198.704 73.6441C198.069 74.0502 197.316 74.2044 196.448 74.2076C196.008 74.2076 195.567 74.2076 195.126 74.2076C191.787 74.856 188.463 75.6933 184.978 75.5611C179.013 75.3313 173.011 76.54 167.027 77.1255C166.251 77.2011 165.374 77.6417 164.72 77.3585C161.682 76.0301 158.556 76.795 155.489 76.6817C140.657 76.1371 125.822 75.7846 110.987 75.3722C99.9487 75.0637 88.91 74.6545 77.8689 74.4971C66.9428 74.3429 56.0166 74.4625 45.0881 74.4247C39.1795 74.4059 33.2686 74.2107 27.3623 74.2925C25.3084 74.3209 23.2685 75.2085 21.2146 75.2306C17.8899 75.2652 14.5464 75.0574 11.2333 74.6703C8.68467 74.3744 6.17353 73.6472 3.16062 73.0114C4.52991 71.0629 5.72335 70.8993 7.10671 71.0724C9.65771 71.3935 12.2134 71.7838 14.7714 71.8373C26.0376 72.0734 37.3061 72.2024 48.5746 72.3661C65.1983 72.6085 81.8244 72.7029 98.4458 73.1247C113.724 73.5119 128.995 74.5853 144.27 74.7238C149.886 74.7741 155.503 74.6419 161.121 74.4279C160.265 74.0722 159.487 73.5497 158.791 72.8162C154.598 72.8855 150.401 72.8855 146.204 72.7879C135.168 72.5298 124.136 71.7429 113.1 71.4816C88.3403 70.8961 63.5758 70.4869 38.8161 70.021C34.9216 69.9486 30.9755 69.4954 27.1419 70.0462C18.8277 71.2392 10.6894 69.999 2.53225 68.4818C1.69989 68.3275 0.919112 67.805 0 67.4021C0.337633 63.9364 2.98946 61.5095 2.33295 58.0061C2.29778 57.8203 2.4877 57.4552 2.65183 57.3608C5.6788 55.6012 5.5475 51.8522 6.891 48.5156C5.23566 48.4841 3.88043 48.4589 2.03752 48.4211C2.72686 45.4339 3.62721 42.9283 3.80775 40.3503C3.97657 37.9234 5.13249 36.403 6.10084 34.5333C7.37165 32.0749 8.44551 29.5 10.2861 27.5799C10.1266 27.3186 10.0751 26.9314 10.0821 26.3711C10.0868 25.9903 10.1384 25.6031 10.2251 25.2317C10.4244 24.3723 10.823 23.8718 11.7984 24.1897C11.9789 24.2495 12.1689 24.2747 12.3775 24.2905C12.5417 24.0607 12.7152 23.8435 12.8957 23.6389C12.5206 23.4752 12.1478 23.5728 11.8195 23.5445C10.6143 23.4437 10.3189 23.2926 10.4127 22.0776C10.5698 20.0442 10.9238 18.0264 11.2169 16.0087C11.3224 15.291 11.7843 14.9385 12.4502 14.7748C13.0856 14.6174 13.6999 14.3656 14.2439 13.8053C13.4983 13.9784 12.7527 14.1516 11.8101 14.3719C12.3025 11.7719 13.2732 9.73841 15.5569 8.79408C17.2521 8.09213 19.0364 7.62312 20.7926 7.08485C26.9778 5.19305 33.3342 4.36519 39.7399 3.76082C51.8102 2.62763 63.9322 2.5993 76.0307 2.10196C86.1128 1.68645 96.2043 1.45037 106.291 1.14504C107.086 1.11986 107.881 1.18911 108.676 1.18281C111.041 1.16393 113.41 1.13245 115.775 1.09153C116.202 1.08523 116.624 0.997096 117.051 0.978209C119.421 0.874334 121.794 0.792492 124.165 0.672877C124.516 0.653991 124.903 0.537524 125.196 0.342363C125.886 -0.117209 126.575 -0.0479581 127.309 0.166089C128.516 0.518638 129.717 0.531229 130.924 0.118873C131.306 -0.010185 131.759 0.00870148 132.172 0.0496223C133.752 0.203862 135.328 0.524933 136.905 0.550115C141.862 0.631957 146.819 0.575297 151.775 0.628809C160.219 0.723242 168.659 0.846004 177.103 0.987653C179.302 1.02543 181.501 1.18281 183.703 1.2678C183.991 1.27725 184.444 1.2678 184.545 1.09468C185.159 0.0181447 186.115 0.314034 187.006 0.342363C189.698 0.424205 192.39 0.512342 195.082 0.606775C195.74 0.628809 196.402 0.537524 196.742 1.45352C196.854 1.75885 197.513 1.97605 197.935 2.00438C200.317 2.16491 202.704 2.23102 205.086 2.37266C207.147 2.49543 209.206 2.67485 211.267 2.82909C211.262 3.01481 211.257 3.20052 211.253 3.38309C209.916 3.81748 208.568 3.30125 207.225 3.26348C205.759 3.21941 204.294 3.16905 202.826 3.14072C201.452 3.11553 200.078 3.15016 198.706 3.0935C197.354 3.03684 196.003 2.89204 194.312 2.75984C194.638 3.51215 194.861 4.02838 195.138 4.66738C195.724 4.33057 196.134 4.09449 196.622 3.81748C197.553 4.43444 198.563 4.99789 198.749 6.36087C198.599 6.49937 198.505 6.65676 198.418 6.65046C196.28 6.54344 194.287 7.30205 192.24 7.73329C191.203 7.95048 190.202 8.06695 189.314 7.16355C189.065 6.91172 188.533 6.84877 188.146 6.88025C185.773 7.07541 183.405 7.33982 181.035 7.53813C180.624 7.57275 180.195 7.35556 179.778 7.36815C179.55 7.37444 179.328 7.47832 179.112 7.65145C186.221 7.80883 193.33 7.95363 200.439 8.08269C200.43 7.97252 200.439 7.84346 200.477 7.68607C201.314 7.41851 202.017 7.75218 202.739 8.12361C203.368 8.13305 203.994 8.14564 204.622 8.15823C204.772 7.98511 204.936 7.79939 205.117 7.59479C205.45 7.7931 205.78 7.98826 206.111 8.18342C210.294 8.25267 214.479 8.31562 218.664 8.36913C218.678 8.24637 218.692 8.12676 218.704 8.00714C218.896 7.98511 219.1 7.89382 219.236 7.95993C219.522 8.09843 219.811 8.23693 220.09 8.39117C221.185 8.40376 222.28 8.41635 223.375 8.42894C223.45 8.32192 223.534 8.18342 223.665 7.99455C223.858 8.15824 224.052 8.30618 224.249 8.43839C225.065 8.44783 225.879 8.45727 226.695 8.46671C226.528 8.35969 226.357 8.19601 226.291 8.01344C226.252 7.90641 226.425 7.7144 226.582 7.40592C226.847 7.82143 227.004 7.98826 227.051 8.18027C227.065 8.24008 226.871 8.4132 226.767 8.46357C228.542 8.48245 230.317 8.49819 232.09 8.51393C232.087 8.50134 232.083 8.48875 232.08 8.47616C232.066 8.4132 232.355 8.18656 232.472 8.21175C232.61 8.24008 232.735 8.35654 232.934 8.52337C233.431 8.52652 233.926 8.53282 234.423 8.53597C233.581 7.69866 232.91 6.73545 232.751 5.39451C233.464 4.90661 234.245 5.08603 234.139 5.63689C233.874 7.0156 234.81 7.55072 235.419 8.35969C235.461 8.41635 235.494 8.47931 235.522 8.54541C236.359 8.5517 237.199 8.55485 238.036 8.56115C238.144 8.45412 238.418 8.29044 238.498 8.33451C238.587 8.38173 238.66 8.46357 238.735 8.5643C242.376 8.58633 246.017 8.60522 249.661 8.61466C265.508 8.64928 281.358 8.77834 297.206 8.86018C303.068 8.89166 308.932 8.97665 314.791 8.92629C319.077 8.88851 323.359 8.65873 327.642 8.54541C328.547 8.52023 329.459 8.63355 330.367 8.68391C325.799 10.22 320.885 9.21588 316.285 10.7205C316.812 10.859 317.342 11.114 317.867 11.1108C320.132 11.0951 322.397 11.0132 324.662 10.9314C325.954 10.8842 327.277 10.7268 328.067 12.5525C327.012 12.2409 326.348 12.0457 325.499 11.797C324.315 13.8085 321.089 12.3699 319.342 14.5041C321.457 14.3971 323.239 14.3499 325.012 14.2082C328.24 13.9501 331.429 13.7077 334.611 14.7433C335.614 15.0707 336.845 14.8787 337.971 14.8944C339.204 14.9102 340.482 14.6269 342.24 15.4516C341.195 15.6467 340.737 15.8356 340.308 15.7915C339.216 15.6845 338.301 15.6404 337.619 16.654C337.34 17.0664 336.367 17.4315 335.809 17.3371C334.086 17.0443 332.334 18.0768 330.648 17.1451C330.472 17.0475 330.146 17.1451 329.893 17.1608C327.124 17.3686 324.353 17.5795 321.75 17.7778C320.618 18.3916 319.549 18.9708 317.971 19.827C329.03 19.8301 339.535 21.2372 350.144 20.6485C348.583 21.9674 346.393 21.2812 344.299 22.1783C346.634 22.9338 348.672 22.49 350.653 22.5749C352.751 22.6662 354.857 22.6599 356.958 22.6757C358.972 22.6914 360.986 22.6757 363 22.682L345.324 23.9348C346.681 24.5927 347.982 25.5748 349.363 26.6922C348.808 27.5232 348.376 28.1748 347.816 29.0121C348.428 29.7864 349.037 30.5608 349.682 31.3761C349.394 31.8829 349.223 32.4557 349.04 32.4652C347.964 32.5187 346.885 32.4369 345.72 32.4022C345.727 32.4148 345.734 32.4274 345.743 32.44C347.724 33.7872 349.94 32.9594 352.053 33.2993C350.404 33.5354 348.766 33.8187 347.108 33.9918C347.066 33.995 347.021 34.0013 346.979 34.0044C347.739 34.4136 348.93 34.1209 352.069 33.3466C352.385 34.9057 353.391 36.2215 355.087 37.2938C352.88 38.2759 351.073 39.0786 348.986 40.0072C349.387 41.1908 349.687 42.0784 350.055 43.1707C349.26 43.6019 348.515 42.9472 347.783 42.346C347.019 42.5695 346.313 42.5726 345.546 41.9053C345.3 42.1414 345.054 42.516 344.803 43.0668C345.799 45.1538 348.585 43.262 349.223 46.6049C348.714 47.0645 348.163 47.5587 347.53 48.1284C347.825 48.4621 348.057 48.9405 348.254 48.909C349.042 48.7894 350.24 48.865 350.531 48.2354C352.315 44.3511 354.116 47.14 356.189 47.6279C354.508 50.2626 351.821 48.4432 350.25 50.9677C351.021 52.5227 352.118 52.189 353.052 52.3118C354.036 52.4408 355.035 52.3968 356.2 52.4345V52.4471ZM192.005 2.97074C192.188 3.18793 192.336 3.46808 192.563 3.59084C192.678 3.65065 192.931 3.42087 193.304 3.22885C192.936 2.92352 192.749 2.67485 192.514 2.60875C192.385 2.57097 192.179 2.84168 192.005 2.97074ZM60.3308 8.48245C60.0565 8.29359 59.7751 7.93474 59.5102 7.94419C58.4808 7.98196 57.4586 8.18657 56.4269 8.23378C55.407 8.281 54.38 8.2086 53.3554 8.18971C53.3296 8.33766 53.3062 8.48875 53.2804 8.63669C53.3859 8.76575 53.4914 9.00813 53.5992 9.01128C55.6579 9.06479 57.7165 9.10571 59.7751 9.09312C59.9627 9.09312 60.1432 8.6965 60.3284 8.4856L60.3308 8.48245ZM73.3273 4.77125C72.4574 4.89401 71.7423 4.99789 70.9217 5.11436C71.9135 6.51196 72.3027 6.45215 73.3273 4.77125ZM80.0823 5.72817C79.8103 5.30952 79.6626 4.88457 79.5079 4.88142C78.4551 4.85624 77.4 4.90031 76.3496 4.97586C76.2042 4.9853 76.08 5.29693 75.6532 5.84778C77.3156 5.80372 78.5817 5.76909 80.08 5.73132L80.0823 5.72817ZM82.4551 3.54678C84.6099 3.79545 85.5384 3.54992 86.3027 2.57412C83.5665 2.69059 81.0061 2.79761 78.4434 2.90463C78.4481 3.09665 78.4528 3.28551 78.4598 3.47753C79.7658 4.06301 81.1234 3.39254 82.4528 3.54678H82.4551ZM86.6896 4.93494C84.8014 4.51943 83.622 4.54566 83.1515 5.01363C84.5958 5.93592 84.7177 5.93592 86.6896 4.93494ZM94.3286 4.85939C93.4282 3.77971 92.6287 4.19207 91.447 4.47851C92.4669 5.4008 93.243 5.22453 94.3286 4.85939ZM94.8889 2.91093C93.4845 2.33174 92.0847 2.33489 90.6896 2.83853C92.0941 3.32643 93.4939 3.31384 94.8889 2.91093ZM100.987 4.2802C99.1937 3.7262 98.0073 3.81119 96.9757 4.48166C97.9651 4.84365 99.9159 4.79014 100.987 4.2802ZM113.719 6.08072C113.571 6.06498 113.424 6.04924 113.274 6.03035C113.278 6.04609 113.285 6.05868 113.29 6.07127C113.433 6.07127 113.576 6.07757 113.719 6.08072ZM114.066 4.09134C114.092 4.04097 113.803 3.7262 113.78 3.74194C113.56 3.88359 113.349 4.05356 113.18 4.25502C113.152 4.2865 113.349 4.52573 113.529 4.80273C113.749 4.52573 113.939 4.32742 114.064 4.09134H114.066ZM116.075 2.62134C116.075 2.49228 116.075 2.36322 116.075 2.23416C115.522 2.14603 114.917 1.85958 114.427 2.00123C112.511 2.54894 110.57 2.25935 108.643 2.28138C105.417 2.3223 102.188 2.28138 98.9616 2.30027C98.6779 2.30027 98.3966 2.51746 98.1152 2.63078C103.949 2.94556 109.717 2.92352 115.485 2.8826C115.684 2.8826 115.881 2.70947 116.078 2.61819L116.075 2.62134ZM307.403 19.5279C308.458 19.5468 309.516 19.5688 310.571 19.5877C310.571 19.509 310.566 19.4272 310.564 19.3485C309.506 19.3296 308.451 19.3076 307.394 19.2887C307.396 19.3674 307.398 19.4492 307.401 19.5279H307.403ZM296.104 13.1317C294.347 12.6008 292.998 12.7288 292.057 13.5157C293.684 13.3615 294.894 13.245 296.104 13.1317ZM306.418 9.9619C307.014 10.8023 307.42 11.435 308.667 11.2241C309.75 11.0416 310.887 11.0825 311.994 10.9849C312.447 10.944 312.887 10.8023 313.333 10.7048C313.321 10.5002 313.312 10.2956 313.3 10.0941C311.089 10.05 308.878 10.0091 306.418 9.9619ZM305.438 12.4392C307.391 13.5598 308.536 13.8871 309.251 13.522C309.513 13.3867 309.565 12.9491 309.872 12.329C308.301 12.3668 307.103 12.3983 305.441 12.4392H305.438ZM290.303 10.8527C292.132 11.0636 293.945 10.9597 295.755 10.9849C297.483 11.0101 299.216 11.1203 300.932 11.3091C301.368 11.3564 301.748 11.8474 302.355 12.2755C301.232 12.5651 300.493 12.7571 299.541 13.0026C302.4 14.4412 302.507 14.4349 304.233 12.9774C303.758 12.3248 303.67 11.2997 303.971 9.90209C299.225 9.91468 294.709 9.77303 290.301 10.8496L290.303 10.8527ZM276.678 10.4215C279.241 11.1864 279.37 11.1675 280.294 10.0437C279.034 9.84438 277.829 9.97029 276.678 10.4215ZM172.992 7.49091C173.03 7.50035 173.07 7.51295 173.107 7.52239C173.698 7.53498 174.289 7.55072 174.88 7.56331C174.892 7.49406 174.903 7.42166 174.915 7.35241C174.31 7.22965 173.705 7.10689 173.1 6.98412L172.992 7.49091ZM167.797 6.88969C167.916 7.09429 168.019 7.26427 168.118 7.40592C168.711 7.41851 169.307 7.43425 169.9 7.44684C169.994 7.38704 170.092 7.32093 170.2 7.25168C169.246 7.10689 168.601 7.01245 167.797 6.88969ZM151.553 7.00301C152.174 7.01875 152.795 7.03449 153.419 7.05023C152.943 6.71342 152.476 6.69453 151.553 7.00301ZM145.911 6.86136C146.284 6.8708 146.657 6.88025 147.03 6.88969C146.68 6.75119 146.315 6.74175 145.911 6.86136ZM227.037 74.2327C226.838 74.2264 226.636 74.2201 226.437 74.2138C226.568 74.2957 226.723 74.3744 226.901 74.4468C226.946 74.3775 226.99 74.3051 227.035 74.2327H227.037ZM327.176 68.9949C327.148 68.6329 327.122 68.2709 327.094 67.912C325.387 68.5416 323.68 69.1711 321.262 70.062C323.825 70.6663 325.481 69.6496 327.173 68.9949H327.176ZM331.753 67.3958C331.077 67.5847 330.4 67.7735 329.267 68.0883C330.639 69.7314 331.295 69.3726 331.753 67.3958ZM336.794 68.466C336.763 68.0852 336.733 67.7011 336.702 67.3203C335.722 67.4588 334.744 67.5941 333.764 67.7326C334.81 69.4544 335.806 69.3537 336.791 68.466H336.794ZM340.524 65.397C340.081 64.6384 339.706 64.4747 339.373 64.5754C338.93 64.7076 338.517 65.0507 338.09 65.3026C338.123 65.652 338.156 66.0014 338.189 66.3476C338.967 66.0297 339.748 65.7149 340.526 65.397H340.524Z" fill="url(#paint0_linear_31_3707)"/>
<defs>
<linearGradient id="paint0_linear_31_3707" x1="281.803" y1="-38.2041" x2="107.509" y2="-141.344" gradientUnits="userSpaceOnUse">
<stop offset="0.00230539" stop-color="#3F1254"/>
<stop offset="1" stop-color="#030812"/>
</linearGradient>
</defs>
</svg>
