<svg xmlns="http://www.w3.org/2000/svg" width="251" height="56" viewBox="0 0 251 56" fill="none">
    <path d="M161.306 54.7168C161.689 55.0219 162.071 55.327 162.587 55.7383C161.436 56.1383 161.429 56.1428 160.992 55.3044C160.961 55.2433 161.136 55.0264 161.306 54.7168ZM236.148 12.063C237.477 12.4381 238.802 12.4788 240.123 11.794C238.8 11.7669 237.476 11.742 236.153 11.7149C236.153 11.8302 236.149 11.9477 236.149 12.063H236.148ZM235.726 5.97923C234.916 5.70126 234.35 5.5973 233.658 6.08319C234.439 6.66173 234.982 6.50127 235.726 5.97923ZM246.653 29.548C246.55 29.557 246.467 29.7401 246.376 29.844C246.551 29.9299 246.718 30.0587 246.901 30.0859C247.047 30.1085 247.214 30.0045 247.372 29.957C247.317 29.8621 247.26 29.7672 247.205 29.6723C247.02 29.6248 246.83 29.5322 246.653 29.548ZM140.924 3.51591C139.902 3.36676 138.956 3.2289 137.976 3.08653C138.07 3.3758 138.161 3.65829 138.2 3.78032C138.925 3.86168 139.533 3.93174 140.139 4.0018C140.64 4.06055 141.141 4.13513 141.644 4.17355C142.339 4.22779 142.477 3.79162 142.427 3.17466C141.948 3.06393 141.541 2.96901 141.016 2.84923C140.992 3.02325 140.961 3.23342 140.922 3.51365L140.924 3.51591ZM165.456 4.07863C164.975 3.91818 164.677 4.19615 164.581 4.83571C165.098 5.0617 165.607 5.28317 166.215 5.54759C166.345 4.68655 166.017 4.26395 165.458 4.07637L165.456 4.07863ZM158.227 3.47749C158.603 3.80292 158.968 4.11705 159.357 4.45378C159.552 3.40518 159.396 3.28088 158.227 3.47749ZM151.129 3.26732C150.724 3.43003 150.319 3.59275 149.722 3.8323C150.4 3.94304 150.94 4.36338 151.129 3.26732ZM156.608 4.18711C156.626 4.19163 156.643 4.19841 156.661 4.20293C156.661 4.20293 156.651 4.19163 156.643 4.18033L156.661 4.20293C156.656 4.18485 156.651 4.16903 156.647 4.15095C156.638 4.15095 156.632 4.15547 156.624 4.15773C156.617 4.16677 156.613 4.17807 156.606 4.18711H156.608ZM157.149 3.44811C157.073 3.2515 156.75 3.16562 156.305 2.87861C156.473 3.50235 156.562 3.83456 156.648 4.15095C156.989 4.06055 157.329 3.91366 157.149 3.44811ZM156.249 4.68881C156.384 4.67299 156.491 4.37468 156.608 4.18485C156.301 4.09445 155.992 4.0018 155.635 3.89558C155.619 4.54644 155.909 4.72497 156.249 4.68655V4.68881ZM135.854 5.68092C136.159 5.70352 136.465 5.72612 136.939 5.76228C136.532 5.20182 136.246 5.00746 135.854 5.68092ZM246.298 37.6543C246.105 39.2227 245.207 39.8578 244.452 40.2646C243.007 41.042 241.994 42.4025 241.044 44.2194C241.665 46.3551 241.12 47.7607 239.544 48.8093C238.452 49.5348 237.599 50.9653 236.538 51.8309C235.901 52.3506 235.074 52.5608 234.324 52.6151C231.096 52.8546 227.865 52.9382 224.637 53.1846C223.763 53.2524 222.901 53.7066 222.032 53.962C221.626 54.0817 221.214 54.2196 220.804 54.2354C217.576 54.3575 214.347 54.5382 211.119 54.536C204.66 54.5315 198.201 54.5089 191.745 54.3394C180.61 54.0478 169.476 53.7111 158.342 53.3428C158.307 53.5077 158.271 53.675 158.234 53.8535C158.923 53.7428 159.519 53.6478 160.293 53.5258C159.357 55.2177 158.248 55.739 156.968 55.0897C156.626 54.9179 156.186 54.6445 155.901 54.7733C154.915 55.214 154.299 54.4931 153.594 53.9303C153.237 53.6433 152.874 53.3834 152.509 53.1484C151.619 53.119 150.727 53.0896 149.837 53.058C149.653 53.0512 149.469 53.0444 149.285 53.0331C148.594 53.1303 147.846 52.9292 147.161 52.9699C146.118 53.0331 145.063 52.9473 144.014 52.9247C143.996 52.7936 143.978 52.6625 143.96 52.5314C142.838 52.4207 141.717 52.3348 140.591 52.3213C140.118 52.3167 139.645 52.3235 139.171 52.3393C138.994 52.5925 138.909 52.7733 138.821 52.7755C138.343 52.7845 137.868 52.8207 137.396 52.8727C136.957 53.1642 136.436 53.275 135.836 53.2772C135.531 53.2772 135.227 53.2772 134.922 53.2772C132.613 53.7428 130.314 54.3439 127.905 54.249C123.781 54.084 119.63 54.9518 115.493 55.3722C114.956 55.4264 114.35 55.7428 113.898 55.5394C111.796 54.5857 109.635 55.1349 107.515 55.0535C97.2587 54.6625 87.001 54.4094 76.7434 54.1134C69.1106 53.8919 61.4777 53.5981 53.8433 53.4851C46.2882 53.3744 38.7332 53.4603 31.1766 53.4331C27.0911 53.4196 23.0039 53.2795 18.92 53.3382C17.4998 53.3586 16.0893 53.9959 14.6691 54.0117C12.3701 54.0365 10.0582 53.8874 7.7674 53.6094C6.0051 53.397 4.26875 52.8749 2.18544 52.4184C3.13225 51.0196 3.95747 50.902 4.914 51.0263C6.67792 51.2568 8.44508 51.5371 10.2139 51.5755C18.004 51.745 25.7957 51.8376 33.5874 51.9552C45.082 52.1292 56.5783 52.197 68.0713 52.4998C78.6354 52.7778 89.1946 53.5484 99.757 53.6478C103.64 53.684 107.524 53.5891 111.409 53.4354C110.817 53.18 110.279 52.8049 109.797 52.2783C106.899 52.328 103.997 52.328 101.095 52.258C93.4633 52.0727 85.8354 51.5077 78.2041 51.3201C61.0838 50.8998 43.9601 50.606 26.8398 50.2715C24.1469 50.2195 21.4183 49.8941 18.7676 50.2896C13.0186 51.1461 7.39127 50.2557 1.75095 49.1664C1.1754 49.0557 0.635529 48.6805 0 48.3913C0.23346 45.9031 2.06709 44.1607 1.61314 41.6454C1.58882 41.512 1.72014 41.2499 1.83363 41.1821C3.92666 39.9188 3.83587 37.2272 4.76485 34.8317C3.62025 34.8091 2.68317 34.791 1.40886 34.7639C1.88551 32.6192 2.50807 30.8203 2.63291 28.9695C2.74964 27.227 3.54891 26.1355 4.21849 24.7931C5.0972 23.0281 5.83974 21.1795 7.11241 19.8009C7.00217 19.6134 6.9665 19.3354 6.97137 18.9331C6.97461 18.6597 7.01028 18.3817 7.07026 18.115C7.20807 17.4981 7.48368 17.1387 8.15812 17.367C8.28296 17.4099 8.41428 17.428 8.55857 17.4393C8.67206 17.2743 8.79203 17.1184 8.91686 16.9715C8.65746 16.854 8.39969 16.9241 8.17271 16.9037C7.33939 16.8314 7.13511 16.7229 7.19996 15.8506C7.30859 14.3907 7.55339 12.9421 7.75605 11.4934C7.82901 10.9782 8.14839 10.7251 8.60883 10.6076C9.04818 10.4946 9.47295 10.3138 9.84908 9.9115C9.33352 10.0358 8.81797 10.1601 8.16623 10.3183C8.50669 8.45159 9.17789 6.99168 10.757 6.3137C11.9291 5.80974 13.1629 5.47301 14.3772 5.08656C18.6541 3.72834 23.0493 3.13398 27.4785 2.70008C35.8247 1.88651 44.2066 1.86617 52.5722 1.5091C59.5436 1.21079 66.5214 1.04129 73.496 0.82208C74.0456 0.804001 74.5952 0.853719 75.1448 0.849199C76.7807 0.83564 78.4181 0.813041 80.054 0.783662C80.3491 0.779142 80.6409 0.715864 80.9359 0.702304C82.575 0.627727 84.2157 0.568969 85.8548 0.483092C86.098 0.469532 86.3655 0.385915 86.5682 0.245799C87.0448 -0.0841498 87.5214 -0.0344315 88.0289 0.119243C88.8638 0.372355 89.6939 0.381395 90.5289 0.0853446C90.7931 -0.00731234 91.106 0.00624722 91.3914 0.0356262C92.4841 0.146363 93.5736 0.376875 94.6647 0.394954C98.092 0.453712 101.519 0.413034 104.947 0.451453C110.785 0.51925 116.621 0.607387 122.459 0.709084C123.98 0.736203 125.501 0.8492 127.023 0.910218C127.223 0.916997 127.535 0.910217 127.605 0.785922C128.03 0.013027 128.691 0.22546 129.307 0.245799C131.169 0.304557 133.03 0.367835 134.891 0.435633C135.347 0.451453 135.804 0.385915 136.039 1.04355C136.117 1.26277 136.572 1.4187 136.864 1.43904C138.511 1.5543 140.162 1.60175 141.809 1.70345C143.234 1.79159 144.657 1.9204 146.083 2.03114C146.079 2.16448 146.076 2.29781 146.073 2.42889C145.149 2.74076 144.216 2.37013 143.288 2.34301C142.274 2.31137 141.261 2.27521 140.246 2.25487C139.296 2.23679 138.346 2.26165 137.398 2.22097C136.462 2.1803 135.528 2.07634 134.359 1.98142C134.585 2.52154 134.739 2.89217 134.93 3.35094C135.335 3.10913 135.619 2.93963 135.956 2.74076C136.6 3.1837 137.299 3.58823 137.427 4.56678C137.323 4.66621 137.258 4.77921 137.198 4.77469C135.72 4.69785 134.341 5.2425 132.926 5.5521C132.21 5.70804 131.517 5.79166 130.903 5.14306C130.731 4.96226 130.363 4.91707 130.095 4.93966C128.455 5.07978 126.817 5.26961 125.178 5.41199C124.894 5.43685 124.598 5.28091 124.309 5.28995C124.152 5.29447 123.998 5.36905 123.849 5.49335C128.764 5.60634 133.68 5.7103 138.596 5.80296C138.589 5.72386 138.596 5.6312 138.622 5.51821C139.2 5.32611 139.687 5.56566 140.186 5.83234C140.621 5.83912 141.053 5.84815 141.488 5.85719C141.592 5.7329 141.705 5.59956 141.83 5.45267C142.06 5.59504 142.289 5.73516 142.517 5.87527C145.41 5.92499 148.304 5.97019 151.198 6.00861C151.207 5.92047 151.217 5.8346 151.225 5.74872C151.358 5.7329 151.499 5.66736 151.593 5.71482C151.791 5.81426 151.99 5.91369 152.183 6.02443C152.94 6.03347 153.698 6.04251 154.455 6.05155C154.507 5.97471 154.565 5.87527 154.656 5.73968C154.789 5.85719 154.923 5.96341 155.059 6.05833C155.624 6.06511 156.186 6.07189 156.75 6.07867C156.635 6.00183 156.517 5.88431 156.472 5.75324C156.444 5.6764 156.564 5.53855 156.673 5.31707C156.856 5.61538 156.964 5.73516 156.997 5.87301C157.007 5.91595 156.872 6.04025 156.801 6.07641C158.028 6.08997 159.255 6.10127 160.481 6.11257C160.479 6.10353 160.476 6.09449 160.474 6.08545C160.465 6.04025 160.664 5.87753 160.745 5.89561C160.841 5.91595 160.927 5.99957 161.064 6.11935C161.408 6.12161 161.75 6.12613 162.094 6.12839C161.512 5.52725 161.048 4.83571 160.938 3.87298C161.431 3.52269 161.971 3.65151 161.898 4.04699C161.715 5.03684 162.361 5.42103 162.783 6.00183C162.812 6.04251 162.835 6.08771 162.854 6.13517C163.433 6.13969 164.014 6.14195 164.592 6.14646C164.667 6.06963 164.857 5.95211 164.912 5.98375C164.973 6.01765 165.024 6.07641 165.075 6.14873C167.593 6.16454 170.111 6.1781 172.63 6.18488C183.589 6.20974 194.548 6.3024 205.506 6.36116C209.559 6.38376 213.614 6.44478 217.666 6.40862C220.629 6.3815 223.59 6.21652 226.552 6.13517C227.177 6.11709 227.808 6.19844 228.435 6.2346C225.277 7.33745 221.879 6.61653 218.698 7.69677C219.063 7.79621 219.429 7.97926 219.793 7.977C221.359 7.9657 222.925 7.90695 224.491 7.84819C225.384 7.81429 226.299 7.70129 226.845 9.01205C226.115 8.78832 225.657 8.6482 225.07 8.46967C224.251 9.91376 222.02 8.88097 220.812 10.4132C222.275 10.3364 223.507 10.3025 224.733 10.2008C226.965 10.0155 229.17 9.84144 231.37 10.585C232.064 10.82 232.915 10.6821 233.693 10.6934C234.546 10.7047 235.43 10.5013 236.645 11.0934C235.922 11.2336 235.606 11.3692 235.31 11.3375C234.554 11.2607 233.922 11.229 233.45 11.9567C233.257 12.2528 232.584 12.5149 232.198 12.4471C231.007 12.237 229.796 12.9782 228.63 12.3093C228.508 12.2392 228.283 12.3093 228.108 12.3206C226.193 12.4697 224.277 12.6212 222.477 12.7635C221.694 13.2042 220.955 13.62 219.864 14.2347C227.511 14.237 234.775 15.2472 242.111 14.8246C241.031 15.7715 239.517 15.2788 238.069 15.9229C239.684 16.4653 241.093 16.1466 242.463 16.2077C243.914 16.2732 245.369 16.2687 246.822 16.28C248.215 16.2913 249.607 16.28 251 16.2845L238.777 17.1839C239.716 17.6563 240.616 18.3614 241.571 19.1636C241.187 19.7603 240.888 20.2281 240.501 20.8292C240.924 21.3851 241.345 21.9411 241.791 22.5264C241.592 22.8903 241.474 23.3016 241.347 23.3083C240.603 23.3468 239.857 23.288 239.051 23.2631C239.056 23.2722 239.061 23.2812 239.068 23.2903C240.438 24.2575 241.97 23.6631 243.43 23.9072C242.291 24.0767 241.157 24.2801 240.011 24.4044C239.982 24.4067 239.951 24.4112 239.922 24.4134C240.447 24.7072 241.271 24.4971 243.442 23.9411C243.66 25.0605 244.356 26.0052 245.528 26.7751C244.003 27.4802 242.753 28.0564 241.31 28.7231C241.587 29.5729 241.795 30.2102 242.049 30.9943C241.499 31.304 240.984 30.8339 240.478 30.4022C239.95 30.5627 239.462 30.565 238.931 30.0859C238.761 30.2554 238.591 30.5243 238.417 30.9198C239.107 32.4181 241.033 31.0599 241.474 33.4599C241.122 33.7899 240.741 34.1447 240.303 34.5537C240.507 34.7933 240.668 35.1368 240.804 35.1142C241.349 35.0283 242.177 35.0826 242.378 34.6306C243.612 31.8418 244.857 33.8441 246.29 34.1944C245.128 36.086 243.27 34.7797 242.184 36.5922C242.717 37.7086 243.476 37.469 244.121 37.5572C244.802 37.6498 245.493 37.6182 246.298 37.6453V37.6543ZM132.764 2.13284C132.89 2.28877 132.993 2.48991 133.15 2.57804C133.229 2.62098 133.404 2.45601 133.662 2.31815C133.408 2.09894 133.278 1.9204 133.116 1.87295C133.027 1.84583 132.884 2.04018 132.764 2.13284ZM41.7163 6.08997C41.5266 5.95437 41.3321 5.69674 41.1489 5.70352C40.4372 5.73064 39.7303 5.87753 39.017 5.91143C38.3117 5.94533 37.6016 5.89335 36.8931 5.87979C36.8753 5.98601 36.8591 6.09449 36.8412 6.2007C36.9142 6.29336 36.9872 6.46737 37.0617 6.46963C38.4852 6.50805 39.9086 6.53743 41.3321 6.52839C41.4618 6.52839 41.5866 6.24364 41.7147 6.09223L41.7163 6.08997ZM50.7029 3.42551C50.1014 3.51365 49.6069 3.58823 49.0395 3.67185C49.7253 4.67525 49.9944 4.63232 50.7029 3.42551ZM55.3737 4.11253C55.1857 3.81196 55.0835 3.50687 54.9765 3.50461C54.2486 3.48653 53.519 3.51817 52.7927 3.57241C52.6922 3.57919 52.6063 3.80292 52.3112 4.19841C53.4606 4.16677 54.3361 4.14191 55.3721 4.11479L55.3737 4.11253ZM57.0144 2.5464C58.5044 2.72494 59.1464 2.54866 59.6749 1.84809C57.7829 1.9317 56.0125 2.00854 54.2405 2.08538C54.2437 2.22323 54.247 2.35883 54.2518 2.49669C55.1549 2.91703 56.0936 2.43567 57.0128 2.5464H57.0144ZM59.9424 3.54303C58.6368 3.24472 57.8213 3.26355 57.4959 3.59953C58.4946 4.26169 58.5789 4.26169 59.9424 3.54303ZM65.2244 3.48879C64.6019 2.71364 64.049 3.00969 63.2319 3.21534C63.9372 3.8775 64.4738 3.75094 65.2244 3.48879ZM65.6119 2.0899C64.6408 1.67407 63.6729 1.67633 62.7082 2.03792C63.6794 2.38821 64.6473 2.37917 65.6119 2.0899ZM69.8288 3.07297C68.5885 2.67522 67.7682 2.73624 67.0548 3.2176C67.739 3.47749 69.0879 3.43907 69.8288 3.07297ZM78.6321 4.36564C78.53 4.35434 78.4279 4.34304 78.3241 4.32948C78.3274 4.34078 78.3322 4.34982 78.3355 4.35886C78.4344 4.35886 78.5332 4.36338 78.6321 4.36564ZM78.8721 2.93737C78.8899 2.90121 78.6905 2.67522 78.6743 2.68652C78.5219 2.78822 78.376 2.91025 78.2593 3.05489C78.2398 3.07749 78.376 3.24924 78.5008 3.44811C78.6532 3.24924 78.7845 3.10687 78.8705 2.93737H78.8721ZM80.2615 1.88199C80.2615 1.78933 80.2615 1.69667 80.2615 1.60401C79.8789 1.54074 79.4606 1.33508 79.1218 1.43678C77.7972 1.83001 76.4548 1.62209 75.1221 1.63791C72.8913 1.66729 70.6588 1.63791 68.428 1.65147C68.2318 1.65147 68.0373 1.80741 67.8427 1.88877C71.8764 2.11476 75.8647 2.09894 79.8529 2.06956C79.9908 2.06956 80.1269 1.94526 80.2631 1.87973L80.2615 1.88199ZM212.557 14.02C213.287 14.0336 214.018 14.0494 214.747 14.063C214.747 14.0065 214.744 13.9477 214.742 13.8912C214.011 13.8777 213.282 13.8619 212.55 13.8483C212.552 13.9048 212.554 13.9635 212.555 14.02H212.557ZM204.744 9.42788C203.529 9.0467 202.597 9.13861 201.946 9.70359C203.071 9.59285 203.908 9.50923 204.744 9.42788ZM211.876 7.15213C212.288 7.75553 212.568 8.20978 213.431 8.05836C214.18 7.92729 214.966 7.95667 215.731 7.88661C216.044 7.85723 216.349 7.75553 216.657 7.68547C216.649 7.53858 216.643 7.39168 216.634 7.24705C215.106 7.21541 213.577 7.18603 211.876 7.15213ZM211.198 8.93069C212.549 9.73523 213.34 9.97026 213.835 9.70811C214.016 9.61093 214.052 9.2968 214.264 8.8516C213.178 8.87872 212.349 8.90131 211.2 8.93069H211.198ZM200.733 7.79169C201.998 7.94311 203.251 7.86853 204.503 7.88661C205.697 7.90469 206.896 7.98378 208.082 8.11938C208.384 8.15328 208.647 8.50583 209.066 8.81318C208.29 9.02109 207.779 9.15895 207.121 9.33522C209.097 10.368 209.172 10.3635 210.365 9.31714C210.036 8.84858 209.976 8.1126 210.183 7.10919C206.902 7.11823 203.78 7.01654 200.732 7.78943L200.733 7.79169ZM191.312 7.48208C193.084 8.03124 193.173 8.01768 193.812 7.21089C192.941 7.06776 192.108 7.15816 191.312 7.48208ZM119.617 5.37809C119.643 5.38487 119.671 5.39391 119.697 5.40069C120.105 5.40973 120.514 5.42103 120.922 5.43007C120.931 5.38035 120.939 5.32837 120.947 5.27865C120.528 5.19052 120.11 5.10238 119.692 5.01424L119.617 5.37809ZM116.025 4.94644C116.107 5.09334 116.179 5.21538 116.247 5.31707C116.657 5.32611 117.069 5.33741 117.479 5.34645C117.544 5.30351 117.612 5.25605 117.686 5.20634C117.027 5.10238 116.581 5.03458 116.025 4.94644ZM104.793 5.0278C105.222 5.0391 105.652 5.0504 106.083 5.0617C105.754 4.81989 105.431 4.80633 104.793 5.0278ZM100.892 4.92611C101.15 4.93289 101.407 4.93966 101.665 4.94644C101.424 4.84701 101.171 4.84023 100.892 4.92611ZM156.987 53.2953C156.849 53.2908 156.71 53.2863 156.572 53.2817C156.663 53.3405 156.77 53.397 156.893 53.449C156.924 53.3993 156.955 53.3473 156.985 53.2953H156.987ZM226.229 49.5348C226.209 49.2749 226.192 49.015 226.172 48.7574C224.992 49.2094 223.812 49.6613 222.14 50.3009C223.912 50.7348 225.057 50.0048 226.227 49.5348H226.229ZM229.394 48.3867C228.927 48.5223 228.458 48.6579 227.675 48.8839C228.624 50.0636 229.077 49.806 229.394 48.3867ZM232.879 49.1551C232.858 48.8817 232.837 48.6059 232.816 48.3325C232.138 48.4319 231.462 48.5291 230.785 48.6285C231.508 49.8647 232.197 49.7924 232.878 49.1551H232.879ZM235.459 46.9517C235.152 46.407 234.893 46.2895 234.663 46.3618C234.356 46.4568 234.071 46.7031 233.776 46.8839C233.799 47.1347 233.821 47.3856 233.844 47.6342C234.382 47.4059 234.922 47.1799 235.46 46.9517H235.459Z" fill="url(#paint0_linear_31_4621)"/>
    <defs>
        <linearGradient id="paint0_linear_31_4621" x1="10.4165" y1="8.49034" x2="46.0977" y2="90.0956" gradientUnits="userSpaceOnUse">
            <stop stop-color="#BC8431"/>
            <stop offset="0.104167" stop-color="#ECC777"/>
            <stop offset="0.297169" stop-color="#ECC777"/>
            <stop offset="0.370425" stop-color="#ECC777"/>
            <stop offset="0.49793" stop-color="#FFEAA2"/>
            <stop offset="0.607315" stop-color="#ECC777"/>
            <stop offset="0.687052" stop-color="#ECC777"/>
            <stop offset="0.895833" stop-color="#ECC777"/>
            <stop offset="1" stop-color="#BC8431"/>
        </linearGradient>
    </defs>
</svg>