<svg xmlns="http://www.w3.org/2000/svg" width="251" height="56" viewBox="0 0 280 61" fill="none">
    <path d="M179.943 59.6022C180.37 59.9345 180.797 60.2669 181.372 60.7149C180.088 61.1506 180.08 61.1555 179.592 60.2423C179.558 60.1758 179.753 59.9395 179.943 59.6022ZM263.432 13.14C264.915 13.5486 266.392 13.593 267.866 12.8471C266.391 12.8175 264.913 12.7904 263.437 12.7609C263.437 12.8864 263.434 13.0145 263.434 13.14H263.432ZM262.962 6.51309C262.057 6.2103 261.426 6.09706 260.654 6.62633C261.526 7.25653 262.131 7.08174 262.962 6.51309ZM275.151 32.1862C275.035 32.1961 274.943 32.3955 274.842 32.5087C275.037 32.6022 275.224 32.7426 275.428 32.7721C275.591 32.7967 275.777 32.6835 275.952 32.6318C275.891 32.5284 275.828 32.425 275.766 32.3216C275.56 32.2699 275.348 32.169 275.151 32.1862ZM157.206 3.82983C156.066 3.66736 155.01 3.5172 153.918 3.36211C154.023 3.67721 154.124 3.98492 154.167 4.11785C154.976 4.20647 155.654 4.28279 156.33 4.3591C156.889 4.4231 157.448 4.50434 158.009 4.54619C158.785 4.60527 158.938 4.13016 158.882 3.45812C158.349 3.33749 157.895 3.2341 157.309 3.10363C157.282 3.29318 157.247 3.52212 157.204 3.82737L157.206 3.82983ZM184.573 4.4428C184.036 4.26802 183.703 4.57081 183.596 5.26747C184.173 5.51364 184.741 5.75489 185.419 6.04291C185.564 5.105 185.199 4.64466 184.575 4.44034L184.573 4.4428ZM176.509 3.78798C176.928 4.14247 177.335 4.48465 177.769 4.85144C177.986 3.70921 177.813 3.57382 176.509 3.78798ZM168.591 3.55905C168.139 3.73629 167.686 3.91353 167.021 4.17447C167.777 4.29509 168.379 4.75297 168.591 3.55905ZM174.702 4.56096C174.722 4.56588 174.742 4.57327 174.761 4.57819C174.761 4.57819 174.751 4.56588 174.742 4.55357L174.761 4.57819C174.756 4.5585 174.751 4.54127 174.745 4.52157C174.736 4.52157 174.729 4.52649 174.72 4.52896C174.713 4.5388 174.707 4.55111 174.7 4.56096H174.702ZM175.306 3.75598C175.221 3.54181 174.861 3.44827 174.364 3.13563C174.552 3.81506 174.651 4.17693 174.747 4.52157C175.127 4.4231 175.507 4.26309 175.306 3.75598ZM174.302 5.10746C174.452 5.09023 174.572 4.76528 174.702 4.5585C174.36 4.46003 174.015 4.3591 173.617 4.2434C173.599 4.95237 173.922 5.14684 174.302 5.105V5.10746ZM151.55 6.18815C151.89 6.21276 152.232 6.23738 152.76 6.27677C152.306 5.66626 151.988 5.45456 151.55 6.18815ZM274.755 41.0163C274.54 42.7248 273.538 43.4165 272.695 43.8596C271.084 44.7064 269.953 46.1884 268.894 48.1676C269.586 50.4939 268.979 52.0251 267.221 53.1673C266.002 53.9575 265.05 55.5158 263.868 56.4586C263.157 57.0248 262.234 57.2537 261.397 57.3128C257.796 57.5738 254.192 57.6649 250.591 57.9332C249.616 58.007 248.654 58.5018 247.685 58.78C247.232 58.9105 246.773 59.0606 246.316 59.0779C242.715 59.2108 239.112 59.4077 235.511 59.4053C228.306 59.4004 221.101 59.3757 213.899 59.1911C201.478 58.8736 189.056 58.5068 176.637 58.1055C176.597 58.2852 176.557 58.4674 176.516 58.6618C177.284 58.5412 177.95 58.4378 178.813 58.3049C177.769 60.1479 176.532 60.7157 175.103 60.0084C174.722 59.8213 174.232 59.5234 173.913 59.6638C172.814 60.1438 172.126 59.3585 171.34 58.7455C170.942 58.4329 170.537 58.1498 170.13 57.8938C169.137 57.8618 168.142 57.8298 167.149 57.7953C166.943 57.7879 166.739 57.7806 166.533 57.7682C165.762 57.8741 164.928 57.655 164.163 57.6993C163 57.7682 161.823 57.6747 160.653 57.6501C160.633 57.5073 160.613 57.3645 160.593 57.2217C159.342 57.1011 158.09 57.0076 156.835 56.9928C156.307 56.9879 155.779 56.9953 155.251 57.0125C155.054 57.2882 154.958 57.4851 154.86 57.4876C154.327 57.4975 153.797 57.5368 153.27 57.5935C152.78 57.911 152.2 58.0317 151.53 58.0341C151.19 58.0341 150.85 58.0341 150.51 58.0341C147.935 58.5412 145.371 59.196 142.683 59.0926C138.082 58.9129 133.452 59.8582 128.837 60.3161C128.238 60.3752 127.562 60.7198 127.057 60.4983C124.713 59.4594 122.302 60.0576 119.937 59.969C108.496 59.5431 97.0529 59.2674 85.6102 58.9449C77.0954 58.7037 68.5807 58.3837 60.0642 58.2606C51.6363 58.14 43.2084 58.2335 34.7787 58.204C30.2211 58.1892 25.6617 58.0366 21.1059 58.1006C19.5216 58.1227 17.9482 58.8169 16.3639 58.8342C13.7993 58.8612 11.2203 58.6988 8.66483 58.396C6.69892 58.1646 4.76195 57.5959 2.43794 57.0987C3.49414 55.5749 4.4147 55.4469 5.48176 55.5823C7.44947 55.8333 9.42081 56.1386 11.3939 56.1804C20.0841 56.3651 28.7761 56.466 37.468 56.594C50.2907 56.7836 63.1152 56.8574 75.9362 57.1873C87.7208 57.4901 99.4999 58.3295 111.283 58.4378C115.614 58.4772 119.948 58.3738 124.281 58.2064C123.621 57.9283 123.02 57.5196 122.483 56.946C119.249 57.0002 116.012 57.0002 112.775 56.9239C104.262 56.722 95.7526 56.1066 87.2397 55.9023C68.1412 55.4444 49.0392 55.1244 29.9408 54.76C26.9367 54.7034 23.8929 54.3489 20.9359 54.7797C14.5228 55.7127 8.24524 54.7428 1.95325 53.5563C1.31121 53.4356 0.708957 53.027 0 52.7119C0.260433 50.0016 2.30592 48.1036 1.79952 45.3637C1.77239 45.2185 1.91889 44.9329 2.04549 44.8591C4.38034 43.483 4.27906 40.5511 5.31537 37.9417C4.03852 37.9171 2.99317 37.8974 1.57164 37.8678C2.10336 35.5317 2.79785 33.5721 2.93711 31.556C3.06732 29.658 3.95895 28.469 4.70588 27.0068C5.68612 25.0842 6.51445 23.0705 7.93417 21.5689C7.81119 21.3646 7.7714 21.0618 7.77682 20.6236C7.78044 20.3257 7.82023 20.0229 7.88715 19.7324C8.04087 19.0604 8.34833 18.669 9.10069 18.9176C9.23995 18.9644 9.38645 18.9841 9.54741 18.9964C9.67401 18.8167 9.80784 18.6468 9.9471 18.4868C9.65773 18.3588 9.37017 18.4351 9.11697 18.413C8.18737 18.3342 7.95949 18.216 8.03183 17.2658C8.153 15.6756 8.4261 14.0976 8.65217 12.5197C8.73355 11.9584 9.08984 11.6827 9.60347 11.5547C10.0936 11.4316 10.5674 11.2346 10.987 10.7965C10.4119 10.9319 9.83678 11.0672 9.10973 11.2396C9.48953 9.2062 10.2383 7.61593 11.9998 6.87742C13.3074 6.32846 14.6837 5.96167 16.0383 5.54072C20.8093 4.06123 25.7123 3.4138 30.6533 2.94116C39.9638 2.05494 49.3141 2.03279 58.6463 1.64384C66.4231 1.31889 74.2072 1.13427 81.9876 0.89548C82.6007 0.875787 83.2138 0.929944 83.8269 0.925021C85.6518 0.910251 87.4784 0.885634 89.3032 0.853631C89.6324 0.848708 89.9579 0.77978 90.2871 0.76501C92.1156 0.683774 93.9458 0.619769 95.7743 0.526225C96.0456 0.511454 96.344 0.420371 96.57 0.267746C97.1018 -0.0916632 97.6335 -0.0375057 98.1996 0.12989C99.131 0.405601 100.057 0.415448 100.988 0.0929647C101.283 -0.00796522 101.632 0.006805 101.951 0.0388072C103.169 0.159431 104.385 0.410525 105.602 0.430218C109.425 0.494223 113.249 0.449912 117.072 0.491761C123.585 0.565612 130.095 0.661618 136.608 0.772395C138.304 0.801936 140.001 0.925021 141.699 0.991487C141.922 0.998872 142.271 0.991487 142.348 0.856093C142.822 0.0141901 143.56 0.24559 144.247 0.267746C146.324 0.33175 148.4 0.400678 150.476 0.474529C150.984 0.491761 151.494 0.420371 151.757 1.13673C151.843 1.37551 152.352 1.54537 152.677 1.56753C154.515 1.69307 156.356 1.74477 158.193 1.85555C159.783 1.95155 161.371 2.09187 162.961 2.21249C162.957 2.35773 162.953 2.50297 162.95 2.64575C161.919 2.98547 160.879 2.58175 159.843 2.55221C158.712 2.51774 157.582 2.47836 156.45 2.4562C155.39 2.43651 154.33 2.46359 153.272 2.41928C152.229 2.37496 151.187 2.26173 149.883 2.15833C150.134 2.74668 150.306 3.1504 150.52 3.65013C150.972 3.38673 151.288 3.2021 151.664 2.98547C152.382 3.46796 153.162 3.90861 153.305 4.97453C153.189 5.08284 153.117 5.20593 153.05 5.201C151.4 5.1173 149.863 5.71058 148.284 6.04783C147.485 6.21769 146.712 6.30877 146.027 5.60226C145.835 5.40532 145.425 5.35609 145.126 5.38071C143.296 5.53333 141.469 5.74012 139.641 5.8952C139.324 5.92228 138.994 5.75242 138.672 5.76227C138.496 5.76719 138.324 5.84843 138.158 5.98382C143.642 6.10691 149.125 6.22015 154.609 6.32108C154.601 6.23492 154.609 6.13399 154.638 6.0109C155.283 5.80166 155.826 6.0626 156.383 6.35308C156.868 6.36047 157.35 6.37031 157.835 6.38016C157.951 6.24476 158.077 6.09952 158.217 5.93951C158.474 6.0946 158.729 6.24723 158.984 6.39985C162.21 6.45401 165.438 6.50324 168.667 6.54509C168.677 6.44909 168.688 6.35554 168.697 6.262C168.846 6.24476 169.003 6.17338 169.108 6.22507C169.329 6.33339 169.551 6.4417 169.766 6.56233C170.611 6.57217 171.455 6.58202 172.3 6.59187C172.358 6.50817 172.423 6.39985 172.524 6.25215C172.673 6.38016 172.823 6.49586 172.975 6.59925C173.604 6.60664 174.232 6.61402 174.861 6.62141C174.733 6.53771 174.601 6.4097 174.55 6.26692C174.519 6.18322 174.653 6.03306 174.774 5.79181C174.979 6.11676 175.1 6.24723 175.136 6.39739C175.147 6.44416 174.997 6.57956 174.917 6.61894C176.286 6.63371 177.655 6.64602 179.022 6.65833C179.021 6.64848 179.017 6.63864 179.015 6.62879C179.004 6.57956 179.227 6.40231 179.317 6.42201C179.424 6.44416 179.52 6.53525 179.674 6.66572C180.057 6.66818 180.439 6.6731 180.822 6.67556C180.173 6.02075 179.655 5.26747 179.532 4.21878C180.082 3.83722 180.685 3.97754 180.603 4.40833C180.399 5.48656 181.12 5.90505 181.591 6.53771C181.623 6.58202 181.648 6.63125 181.67 6.68295C182.316 6.68787 182.963 6.69033 183.609 6.69526C183.692 6.61156 183.904 6.48355 183.965 6.51801C184.034 6.55494 184.09 6.61894 184.148 6.69772C186.957 6.71495 189.765 6.72972 192.576 6.73711C204.8 6.76418 217.026 6.86511 229.25 6.92912C233.771 6.95374 238.295 7.0202 242.814 6.98081C246.12 6.95127 249.423 6.77157 252.727 6.68295C253.425 6.66325 254.128 6.75188 254.828 6.79126C251.305 7.99258 247.515 7.20729 243.966 8.38399C244.373 8.4923 244.782 8.6917 245.187 8.68924C246.934 8.67693 248.681 8.61292 250.428 8.54892C251.425 8.51199 252.445 8.38891 253.054 9.8167C252.24 9.57299 251.729 9.42036 251.074 9.22589C250.16 10.7989 247.672 9.67392 246.325 11.343C247.956 11.2593 249.33 11.2223 250.698 11.1116C253.188 10.9097 255.648 10.7201 258.102 11.53C258.876 11.7861 259.825 11.6359 260.694 11.6482C261.645 11.6605 262.631 11.439 263.987 12.0839C263.18 12.2366 262.828 12.3843 262.497 12.3498C261.654 12.2661 260.949 12.2316 260.422 13.0243C260.207 13.3468 259.457 13.6323 259.026 13.5585C257.697 13.3296 256.346 14.137 255.045 13.4083C254.91 13.332 254.658 13.4083 254.463 13.4206C252.327 13.5831 250.189 13.748 248.182 13.9031C247.308 14.3832 246.484 14.8361 245.267 15.5057C253.798 15.5082 261.9 16.6085 270.084 16.1482C268.879 17.1797 267.19 16.643 265.575 17.3446C267.376 17.9354 268.948 17.5883 270.476 17.6548C272.095 17.7262 273.719 17.7212 275.339 17.7335C276.893 17.7458 278.446 17.7335 280 17.7385L266.365 18.7182C267.412 19.2327 268.416 20.0008 269.481 20.8747C269.053 21.5246 268.72 22.0341 268.288 22.689C268.76 23.2945 269.23 23.9001 269.727 24.5377C269.505 24.934 269.373 25.3821 269.232 25.3894C268.402 25.4313 267.57 25.3673 266.671 25.3402C266.676 25.3501 266.682 25.3599 266.689 25.3697C268.217 26.4234 269.926 25.7759 271.556 26.0418C270.284 26.2264 269.02 26.448 267.742 26.5834C267.709 26.5858 267.675 26.5908 267.642 26.5932C268.228 26.9132 269.147 26.6843 271.568 26.0787C271.812 27.2981 272.588 28.3271 273.896 29.1657C272.194 29.9338 270.8 30.5615 269.19 31.2877C269.499 32.2133 269.731 32.9075 270.015 33.7617C269.402 34.099 268.827 33.5869 268.262 33.1167C267.673 33.2915 267.128 33.294 266.537 32.7721C266.347 32.9567 266.157 33.2497 265.964 33.6805C266.732 35.3126 268.881 33.8331 269.373 36.4474C268.98 36.8068 268.555 37.1933 268.067 37.6389C268.295 37.8998 268.474 38.274 268.626 38.2494C269.234 38.1558 270.158 38.2149 270.382 37.7226C271.758 34.6848 273.147 36.8659 274.746 37.2475C273.449 39.3079 271.377 37.8851 270.165 39.8593C270.76 41.0754 271.606 40.8145 272.326 40.9105C273.086 41.0114 273.856 40.977 274.755 41.0065V41.0163ZM148.103 2.32327C148.244 2.49313 148.358 2.71222 148.534 2.80822C148.622 2.855 148.818 2.67529 149.105 2.52513C148.821 2.28634 148.677 2.09187 148.496 2.04017C148.396 2.01063 148.237 2.22234 148.103 2.32327ZM46.5361 6.63371C46.3245 6.48601 46.1075 6.20538 45.9031 6.21276C45.1092 6.2423 44.3207 6.40231 43.5249 6.43924C42.7382 6.47617 41.946 6.41955 41.1557 6.40478C41.1358 6.52048 41.1177 6.63864 41.0978 6.75434C41.1792 6.85527 41.2606 7.04482 41.3438 7.04728C42.9317 7.08913 44.5196 7.12113 46.1075 7.11129C46.2522 7.11129 46.3915 6.80111 46.5343 6.63618L46.5361 6.63371ZM56.561 3.73136C55.89 3.82737 55.3384 3.90861 54.7054 3.99969C55.4704 5.09269 55.7707 5.04591 56.561 3.73136ZM61.7715 4.47972C61.5617 4.15232 61.4477 3.81999 61.3284 3.81752C60.5163 3.79783 59.7025 3.83229 58.8922 3.89138C58.7801 3.89876 58.6843 4.14247 58.3551 4.57327C59.6374 4.5388 60.614 4.51172 61.7697 4.48218L61.7715 4.47972ZM63.6017 2.77376C65.2638 2.96824 65.98 2.77622 66.5696 2.01309C64.459 2.10418 62.4841 2.18788 60.5073 2.27157C60.5109 2.42174 60.5145 2.56944 60.52 2.7196C61.5273 3.17748 62.5745 2.65314 63.5999 2.77376H63.6017ZM66.868 3.85937C65.4115 3.53443 64.5018 3.55494 64.1389 3.92092C65.253 4.6422 65.347 4.6422 66.868 3.85937ZM72.7603 3.80029C72.0658 2.95593 71.4491 3.27841 70.5376 3.50243C71.3243 4.22371 71.923 4.08585 72.7603 3.80029ZM73.1926 2.2765C72.1092 1.82354 71.0295 1.826 69.9534 2.21988C71.0368 2.60144 72.1165 2.59159 73.1926 2.2765ZM77.8966 3.34734C76.5131 2.91408 75.5979 2.98054 74.8022 3.50489C75.5654 3.78798 77.0701 3.74613 77.8966 3.34734ZM87.7171 4.75543C87.6032 4.74312 87.4893 4.73082 87.3735 4.71605C87.3771 4.72835 87.3826 4.7382 87.3862 4.74805C87.4965 4.74805 87.6068 4.75297 87.7171 4.75543ZM87.9848 3.19964C88.0047 3.16025 87.7822 2.91408 87.7642 2.92639C87.5942 3.03716 87.4314 3.1701 87.3012 3.32764C87.2795 3.35226 87.4314 3.53935 87.5706 3.75598C87.7406 3.53935 87.8871 3.38426 87.983 3.19964H87.9848ZM89.5347 2.05002C89.5347 1.94909 89.5347 1.84816 89.5347 1.74723C89.1079 1.6783 88.6413 1.45429 88.2633 1.56506C86.7857 1.9934 85.2882 1.76692 83.8016 1.78416C81.313 1.81616 78.8226 1.78416 76.334 1.79893C76.1152 1.79893 75.8982 1.96878 75.6811 2.0574C80.1809 2.30358 84.6299 2.28634 89.079 2.25434C89.2327 2.25434 89.3846 2.11895 89.5365 2.04756L89.5347 2.05002ZM237.115 15.2718C237.929 15.2866 238.745 15.3038 239.559 15.3186C239.559 15.2571 239.555 15.1931 239.553 15.1315C238.738 15.1167 237.924 15.0995 237.108 15.0847C237.11 15.1463 237.112 15.2103 237.114 15.2718H237.115ZM228.4 10.2697C227.045 9.85444 226.004 9.95455 225.278 10.57C226.533 10.4494 227.467 10.3583 228.4 10.2697ZM236.356 7.79072C236.815 8.44799 237.128 8.94279 238.09 8.77786C238.926 8.63508 239.803 8.66708 240.657 8.59077C241.006 8.55877 241.346 8.44799 241.689 8.37168C241.68 8.21167 241.673 8.05166 241.664 7.89411C239.958 7.85964 238.253 7.82764 236.356 7.79072ZM235.6 9.72808C237.106 10.6044 237.989 10.8605 238.54 10.5749C238.743 10.469 238.783 10.1269 239.02 9.64192C237.808 9.67146 236.884 9.69607 235.602 9.72808H235.6ZM223.925 8.48738C225.336 8.65231 226.734 8.57108 228.13 8.59077C229.463 8.61046 230.8 8.69662 232.124 8.84433C232.46 8.88125 232.753 9.26528 233.221 9.60007C232.355 9.82654 231.786 9.97671 231.051 10.1687C233.256 11.2937 233.339 11.2888 234.67 10.149C234.304 9.63863 234.236 8.83694 234.468 7.74394C230.807 7.75379 227.324 7.64301 223.924 8.48492L223.925 8.48738ZM213.416 8.15012C215.393 8.74832 215.492 8.73355 216.205 7.85472C215.233 7.69881 214.303 7.79728 213.416 8.15012ZM133.438 5.85828C133.467 5.86566 133.497 5.87551 133.526 5.88289C133.982 5.89274 134.438 5.90505 134.894 5.9149C134.903 5.86074 134.912 5.80412 134.921 5.74996C134.454 5.65396 133.987 5.55795 133.521 5.46194L133.438 5.85828ZM129.43 5.38809C129.522 5.5481 129.602 5.68103 129.678 5.79181C130.135 5.80166 130.595 5.81397 131.052 5.82381C131.124 5.77704 131.2 5.72535 131.284 5.67119C130.548 5.55795 130.05 5.4841 129.43 5.38809ZM116.9 5.47671C117.379 5.48902 117.859 5.50133 118.34 5.51364C117.973 5.25024 117.613 5.23547 116.9 5.47671ZM112.549 5.36594C112.836 5.37332 113.124 5.38071 113.411 5.38809C113.142 5.27978 112.86 5.27239 112.549 5.36594ZM175.125 58.0538C174.971 58.0489 174.816 58.044 174.662 58.039C174.763 58.103 174.883 58.1646 175.02 58.2212C175.054 58.167 175.089 58.1104 175.123 58.0538H175.125ZM252.367 53.9575C252.345 53.6744 252.325 53.3913 252.304 53.1107C250.987 53.603 249.67 54.0954 247.806 54.792C249.783 55.2647 251.059 54.4696 252.365 53.9575H252.367ZM255.897 52.707C255.376 52.8547 254.854 53.0024 253.98 53.2486C255.038 54.5336 255.545 54.2529 255.897 52.707ZM259.786 53.544C259.762 53.2461 259.739 52.9458 259.715 52.6479C258.959 52.7562 258.205 52.8621 257.449 52.9704C258.256 54.3169 259.024 54.2382 259.784 53.544H259.786ZM262.663 51.1438C262.321 50.5505 262.032 50.4225 261.775 50.5013C261.433 50.6047 261.115 50.873 260.786 51.0699C260.811 51.3432 260.836 51.6164 260.862 51.8872C261.462 51.6386 262.064 51.3924 262.665 51.1438H262.663Z" fill="url(#paint0_linear_31_7001)"/>
    <defs>
        <linearGradient id="paint0_linear_31_7001" x1="217.368" y1="-29.8776" x2="81.9728" y2="-108.903" gradientUnits="userSpaceOnUse">
            <stop offset="0.00230539" stop-color="#3F1254"/>
            <stop offset="1" stop-color="#030812"/>
        </linearGradient>
    </defs>
</svg>