<svg width="18" height="18" viewBox="0 0 18 18" fill="none" xmlns="http://www.w3.org/2000/svg">
<g opacity="0.2" clip-path="url(#clip0_238_248)">
<path d="M17 8.39C17.1858 8.25156 17.3237 8.05844 17.3942 7.8377C17.4648 7.61697 17.4644 7.3797 17.3933 7.15915C17.3222 6.93861 17.1838 6.74586 16.9976 6.60792C16.8114 6.46998 16.5867 6.39378 16.355 6.39L11.855 6.22C11.8329 6.21847 11.8117 6.21058 11.7939 6.19727C11.7762 6.18396 11.7627 6.16581 11.755 6.145L10.2 1.945C10.1219 1.73132 9.97998 1.54681 9.79351 1.41645C9.60705 1.28608 9.38503 1.21617 9.15751 1.21617C8.93 1.21617 8.70798 1.28608 8.52151 1.41645C8.33504 1.54681 8.19314 1.73132 8.11501 1.945L6.56501 6.16C6.55735 6.18081 6.54383 6.19896 6.52609 6.21227C6.50835 6.22558 6.48714 6.23347 6.46501 6.235L1.96501 6.405C1.73331 6.40878 1.50861 6.48498 1.32241 6.62292C1.13621 6.76086 0.997842 6.95361 0.926717 7.17415C0.855592 7.3947 0.855273 7.63197 0.925804 7.8527C0.996336 8.07344 1.13418 8.26656 1.32001 8.405L4.85001 11.18C4.86768 11.1939 4.88088 11.2127 4.88799 11.234C4.8951 11.2553 4.8958 11.2783 4.89001 11.3L3.67501 15.605C3.61205 15.8242 3.61815 16.0575 3.69248 16.2731C3.76681 16.4888 3.90576 16.6763 4.09044 16.8101C4.27511 16.944 4.49653 17.0177 4.72459 17.0213C4.95264 17.0248 5.17626 16.958 5.36501 16.83L9.09501 14.33C9.11339 14.3173 9.13519 14.3105 9.15751 14.3105C9.17984 14.3105 9.20164 14.3173 9.22001 14.33L12.95 16.83C13.1362 16.9624 13.359 17.0336 13.5875 17.0336C13.816 17.0336 14.0388 16.9624 14.225 16.83C14.4097 16.6974 14.5488 16.5108 14.6231 16.2959C14.6975 16.081 14.7033 15.8484 14.64 15.63L13.415 11.31C13.4085 11.2883 13.4089 11.2651 13.416 11.2437C13.4232 11.2222 13.4368 11.2035 13.455 11.19L17 8.39Z" fill="#BD00FF"/>
</g>
<defs>
<clipPath id="clip0_238_248">
<rect width="18" height="18" fill="white"/>
</clipPath>
</defs>
</svg>
