<svg width="18" height="17" viewBox="0 0 18 17" fill="none" xmlns="http://www.w3.org/2000/svg">
<path d="M17 7.39C17.1858 7.25156 17.3237 7.05844 17.3942 6.8377C17.4647 6.61697 17.4644 6.3797 17.3933 6.15915C17.3222 5.93861 17.1838 5.74586 16.9976 5.60792C16.8114 5.46998 16.5867 5.39378 16.355 5.39L11.855 5.22C11.8329 5.21847 11.8117 5.21058 11.7939 5.19727C11.7762 5.18396 11.7627 5.16581 11.755 5.145L10.2 0.944997C10.1219 0.731317 9.97996 0.546806 9.7935 0.416445C9.60703 0.286084 9.38501 0.216171 9.1575 0.216171C8.92998 0.216171 8.70796 0.286084 8.52149 0.416445C8.33503 0.546806 8.19313 0.731317 8.115 0.944997L6.565 5.16C6.55734 5.18081 6.54382 5.19896 6.52608 5.21227C6.50833 5.22558 6.48712 5.23347 6.465 5.235L1.965 5.405C1.7333 5.40878 1.5086 5.48498 1.32239 5.62292C1.13619 5.76086 0.997827 5.95361 0.926702 6.17415C0.855577 6.3947 0.855258 6.63197 0.925789 6.8527C0.996321 7.07344 1.13417 7.26656 1.32 7.405L4.85 10.18C4.86766 10.1939 4.88087 10.2127 4.88798 10.234C4.89509 10.2553 4.89579 10.2783 4.89 10.3L3.675 14.605C3.61204 14.8242 3.61814 15.0575 3.69247 15.2731C3.7668 15.4888 3.90575 15.6763 4.09042 15.8101C4.27509 15.944 4.49652 16.0177 4.72457 16.0213C4.95263 16.0248 5.17624 15.958 5.365 15.83L9.095 13.33C9.11337 13.3173 9.13517 13.3105 9.1575 13.3105C9.17982 13.3105 9.20162 13.3173 9.22 13.33L12.95 15.83C13.1362 15.9624 13.359 16.0336 13.5875 16.0336C13.816 16.0336 14.0388 15.9624 14.225 15.83C14.4097 15.6974 14.5488 15.5108 14.6231 15.2959C14.6974 15.081 14.7033 14.8484 14.64 14.63L13.415 10.31C13.4085 10.2883 13.4089 10.2651 13.416 10.2437C13.4232 10.2222 13.4368 10.2035 13.455 10.19L17 7.39Z" fill="#BD00FF"/>
</svg>
