<svg width="38" height="34" viewBox="0 0 38 34" fill="none" xmlns="http://www.w3.org/2000/svg">
<g clip-path="url(#clip0_205_537)">
<path d="M4.68235 13.0418L27.2698 11.492C27.4981 11.4762 27.7267 11.5179 27.9293 11.6121C28.1318 11.7063 28.3001 11.8493 28.4145 12.0245C28.529 12.1996 28.585 12.3999 28.5761 12.602C28.5671 12.8041 28.4936 12.9999 28.364 13.1667L15.5514 29.6769C15.4201 29.8463 15.2365 29.9787 15.0225 30.0586C14.8085 30.1384 14.573 30.1622 14.3441 30.1272C14.1152 30.0922 13.9025 29.9998 13.7313 29.861C13.5601 29.7222 13.4377 29.5429 13.3785 29.3444L11.4012 22.7044C11.3769 22.623 11.3803 22.5372 11.4109 22.4575C11.4415 22.3778 11.498 22.3079 11.5733 22.2563L19.4776 16.851C19.5105 16.8282 19.5361 16.7983 19.5521 16.7642C19.5681 16.73 19.5737 16.6928 19.5686 16.6561L19.5537 16.6024C19.5332 16.5576 19.4962 16.5202 19.4487 16.4963C19.4011 16.4724 19.3459 16.4634 19.2918 16.4707L19.2383 16.4832L9.997 19.825C9.90894 19.8567 9.81228 19.8647 9.71906 19.8483C9.62584 19.8318 9.54016 19.7914 9.47267 19.7323L3.92226 14.8716C3.75704 14.7271 3.64231 14.5437 3.59172 14.3433C3.54113 14.1428 3.55681 13.9337 3.63691 13.7409C3.717 13.5481 3.85812 13.3797 4.04347 13.2557C4.22882 13.1318 4.45059 13.0575 4.68235 13.0418Z" fill="white"/>
</g>
<defs>
<clipPath id="clip0_205_537">
<rect width="26.4059" height="24.8279" fill="white" transform="matrix(0.890775 -0.454445 0.546976 0.837148 0.153564 12.6077)"/>
</clipPath>
</defs>
</svg>
