<svg width="18" height="18" viewBox="0 0 18 18" fill="none" xmlns="http://www.w3.org/2000/svg">
<path d="M9 18C4.03472 18 0 13.9653 0 9C0 4.03472 4.03472 0 9 0C13.9653 0 18 4.03472 18 9C18 13.9653 13.9583 18 9 18Z" fill="#30D580"/>
<path d="M13.9517 6.76391L8.76424 12.6875C8.56285 12.9167 8.27119 13.0556 7.96563 13.0695C7.95174 13.0695 7.93785 13.0695 7.93091 13.0695C7.63924 13.0695 7.35452 12.9514 7.14619 12.7431L4.18091 9.78474C3.74341 9.34724 3.74341 8.64586 4.18091 8.2153C4.61841 7.78474 5.3198 7.7778 5.75035 8.2153L7.87535 10.3403L12.2781 5.30558C12.6809 4.84724 13.3823 4.79863 13.8476 5.20141C14.3059 5.60419 14.3545 6.30558 13.9517 6.76391Z" fill="white"/>
</svg>
