<svg width="16" height="16" viewBox="0 0 16 16" fill="none" xmlns="http://www.w3.org/2000/svg">
<path fill-rule="evenodd" clip-rule="evenodd" d="M16 11.3083C16 12.6917 15.517 13.8947 14.6717 14.7368C13.8264 15.5789 12.6189 16 11.2906 16H4.70943C3.38113 16 2.17358 15.5789 1.3283 14.7368C0.422642 13.8947 0 12.6917 0 11.3083V4.69173C0 1.92481 1.8717 0 4.70943 0H11.3509C12.7396 0 13.8868 0.481203 14.7321 1.32331C15.5774 2.16541 16 3.30827 16 4.69173V11.3083ZM11.0138 2H4.93088C4.04608 2 3.27189 2.2765 2.77419 2.77419C2.2765 3.27189 2 4.04608 2 4.93088V11.0138C2 11.8986 2.2765 12.6728 2.82949 13.2258C3.38249 13.7235 4.10138 14 4.98618 14H11.0138C11.8986 14 12.6728 13.7235 13.1705 13.2258C13.7235 12.7281 14 11.9539 14 11.0691V4.98618C14 4.10138 13.7235 3.38249 13.2258 2.82949C12.6728 2.2765 11.9539 2 11.0138 2Z" fill="white"/>
<path fill-rule="evenodd" clip-rule="evenodd" d="M11 4C11 4.5625 11.4375 5 12 5C12.5625 5 13 4.5625 13 4C13 3.4375 12.5625 3 12 3C11.4375 3 11 3.4375 11 4ZM10 8C10 9.10457 9.10457 10 8 10C6.89543 10 6 9.10457 6 8C6 6.89543 6.89543 6 8 6C9.10457 6 10 6.89543 10 8ZM7.9708 12C5.75182 12 4 10.1765 4 8C4 5.76471 5.81022 4 7.9708 4C10.1314 4 12 5.76471 12 8C12 10.2353 10.1898 12 7.9708 12Z" fill="white"/>
</svg>
