<svg width="18" height="18" viewBox="0 0 18 18" fill="none" xmlns="http://www.w3.org/2000/svg">
<path d="M6.75 1.5C3.85939 1.5 1.5 3.85939 1.5 6.75C1.5 9.64061 3.85939 12 6.75 12C8.061 12 9.25876 11.511 10.1807 10.7109L10.5 11.0303V12L15 16.5L16.5 15L12 10.5H11.0303L10.7109 10.1807C11.511 9.25876 12 8.061 12 6.75C12 3.85939 9.64061 1.5 6.75 1.5ZM6.75 3C8.82995 3 10.5 4.67005 10.5 6.75C10.5 8.82995 8.82995 10.5 6.75 10.5C4.67005 10.5 3 8.82995 3 6.75C3 4.67005 4.67005 3 6.75 3Z" fill="white"/>
</svg>
