<svg width="18" height="21" viewBox="0 0 18 21" fill="none" xmlns="http://www.w3.org/2000/svg">
<path d="M15 0C14.2044 0 13.4413 0.316132 12.8787 0.878851C12.3161 1.44157 12 2.20478 12 3.00059C12.0006 3.18877 12.0189 3.37649 12.0547 3.56124L4.93945 7.71244C4.39751 7.25326 3.71026 7.00129 3 7.00137C2.20435 7.00137 1.44129 7.3175 0.87868 7.88022C0.316071 8.44294 0 9.20615 0 10.002C0 10.7978 0.316071 11.561 0.87868 12.1237C1.44129 12.6864 2.20435 13.0025 3 13.0025C3.70916 13.0011 4.3949 12.7485 4.93555 12.2895L12.0547 16.4427C12.0189 16.6274 12.0006 16.8151 12 17.0033C12 17.7991 12.3161 18.5623 12.8787 19.1251C13.4413 19.6878 14.2044 20.0039 15 20.0039C15.7956 20.0039 16.5587 19.6878 17.1213 19.1251C17.6839 18.5623 18 17.7991 18 17.0033C18 16.2075 17.6839 15.4443 17.1213 14.8816C16.5587 14.3189 15.7956 14.0027 15 14.0027C14.2902 14.0037 13.6037 14.2563 13.0625 14.7158L5.94531 10.5626C5.98108 10.3779 5.99939 10.1901 6 10.002C5.99939 9.81377 5.98108 9.62605 5.94531 9.4413L13.0605 5.2901C13.6025 5.74928 14.2897 6.00125 15 6.00117C15.7956 6.00117 16.5587 5.68504 17.1213 5.12232C17.6839 4.5596 18 3.79639 18 3.00059C18 2.20478 17.6839 1.44157 17.1213 0.878851C16.5587 0.316132 15.7956 0 15 0Z" fill="black"/>
</svg>
