<svg width="14" height="12" viewBox="0 0 14 12" fill="none" xmlns="http://www.w3.org/2000/svg">
<path fill-rule="evenodd" clip-rule="evenodd" d="M14 1.36295C13.4773 1.59789 12.9219 1.75227 12.3529 1.82083C12.9545 1.45441 13.403 0.88246 13.6154 0.210829C13.0527 0.549337 12.436 0.788363 11.7921 0.917417C11.251 0.331154 10.4891 -0.00158763 9.69129 5.69603e-06C8.92451 0.00479526 8.19106 0.314055 7.65234 0.859725C7.11362 1.4054 6.81378 2.14276 6.81882 2.90954C6.81859 3.13287 6.84345 3.35552 6.89294 3.5733C4.57586 3.45256 2.42126 2.34588 0.973412 0.532829C0.21095 1.86124 0.597842 3.55259 1.862 4.41742C1.40523 4.403 0.958768 4.2781 0.560824 4.05342V4.09048C0.554821 5.46836 1.51827 6.66062 2.86671 6.94401C2.44398 7.06035 2.0001 7.07754 1.56965 6.99424C1.9385 8.17326 3.01768 8.98612 4.25271 9.01518C3.2389 9.82236 1.98107 10.2614 0.685176 10.2604C0.460272 10.3369 0.21437 10.3224 0 10.22C1.30869 11.0746 2.83793 11.5296 4.40094 11.5294C6.58687 11.5292 8.68163 10.6534 10.2173 9.09776C11.753 7.54212 12.6016 5.43623 12.5736 3.25048C12.5736 3.12365 12.5736 2.99848 12.5654 2.8733C13.1299 2.45944 13.6157 1.94793 14 1.36295Z" fill="white"/>
</svg>
