<svg height="512" viewBox="0 0 64 64" width="512" xmlns="http://www.w3.org/2000/svg"><g id="Watch-3" data-name="Watch"><path d="m47.56 19.27-2.92 2.92a15.8 15.8 0 0 0 -2.83-2.83l2.92-2.92z" fill="#fee9ab"/><path d="m47.56 44.73-2.83 2.83-2.92-2.92a15.8 15.8 0 0 0 2.83-2.83z" fill="#fee9ab"/><path d="m48 32a16 16 0 0 1 -6.19 12.64 14.7 14.7 0 0 1 -1.81 1.22 16.023 16.023 0 0 1 -16 0 14.7 14.7 0 0 1 -1.81-1.22 16 16 0 0 1 0-25.28 14.7 14.7 0 0 1 1.81-1.22 16.023 16.023 0 0 1 16 0 14.7 14.7 0 0 1 1.81 1.22 16 16 0 0 1 6.19 12.64z" fill="#ff7956"/><circle cx="32" cy="32" fill="#46f8ff" r="12"/><path d="m40 56v5h-16v-15.14a16.023 16.023 0 0 0 16 0z" fill="#ffc477"/><path d="m40 8v10.14a16.023 16.023 0 0 0 -16 0v-15.14h16z" fill="#ffc477"/><path d="m22.19 44.64-2.92 2.92-2.83-2.83 2.92-2.92a15.8 15.8 0 0 0 2.83 2.83z" fill="#fee9ab"/><path d="m19.27 16.44 2.92 2.92a15.8 15.8 0 0 0 -2.83 2.83l-2.92-2.92z" fill="#fee9ab"/><path d="m32 45a13 13 0 1 0 -13-13 13.015 13.015 0 0 0 13 13zm0-24a11 11 0 1 1 -11 11 11.013 11.013 0 0 1 11-11z"/><path d="m45.943 41.7a16.915 16.915 0 0 0 0-19.4l2.324-2.324a1 1 0 0 0 0-1.414l-2.83-2.83a1 1 0 0 0 -1.414 0l-2.323 2.325c-.228-.159-.464-.3-.7-.453v-14.604a1 1 0 0 0 -1-1h-16a1 1 0 0 0 -1 1v14.6c-.235.148-.471.294-.7.453l-2.324-2.324a1.03 1.03 0 0 0 -1.415 0l-2.829 2.83a1 1 0 0 0 0 1.414l2.325 2.327a16.915 16.915 0 0 0 0 19.4l-2.324 2.324a1 1 0 0 0 0 1.414l2.829 2.83a1 1 0 0 0 1.415 0l2.323-2.325c.228.159.464.3.7.453v14.604a1 1 0 0 0 1 1h16a1 1 0 0 0 1-1v-14.6c.235-.148.471-.294.7-.453l2.324 2.324a1 1 0 0 0 1.414 0l2.83-2.83a1 1 0 0 0 0-1.414zm-1.213-23.846 1.416 1.416-1.457 1.456a17.2 17.2 0 0 0 -1.416-1.416zm-19.73-13.854h14v12.526a16.818 16.818 0 0 0 -14 0zm-7.146 15.27 1.416-1.416 1.457 1.456a17.2 17.2 0 0 0 -1.416 1.416zm14.146-2.27a15 15 0 1 1 -15 15 15.017 15.017 0 0 1 15-15zm-12.73 29.146-1.416-1.416 1.457-1.456a17.2 17.2 0 0 0 1.416 1.416zm19.73 13.854h-14v-12.526a16.818 16.818 0 0 0 14 0zm5.73-13.854-1.457-1.456a17.2 17.2 0 0 0 1.416-1.416l1.457 1.456z"/><path d="m32.707 32.707a1 1 0 0 0 .293-.707v-8h-2v7.586l-3.707 3.707 1.414 1.414z"/><path d="m27 6h2v2h-2z"/><path d="m35 6h2v2h-2z"/><path d="m27 56h2v2h-2z"/><path d="m35 56h2v2h-2z"/></g></svg>