<svg width="14" height="14" viewBox="0 0 14 14" fill="none" xmlns="http://www.w3.org/2000/svg">
<g clip-path="url(#clip0)">
<path d="M9.73 1.7675L5.06333 0.0175C4.99333 -0.00583333 4.92333 -0.00583333 4.85333 0.0175L0.186667 1.7675C0.0758333 1.80833 0 1.91917 0 2.04167V5.7925C0 11.1125 4.8475 12.2325 4.89417 12.2442C4.9175 12.25 4.935 12.25 4.95833 12.25C4.98167 12.25 4.99917 12.25 5.0225 12.2442C5.04583 12.2383 6.335 11.9408 7.58333 10.9317C7.58333 10.0975 8.06167 9.38 8.75 9.0125C8.76167 8.155 9.1875 7.39083 9.835 6.91833C9.8875 6.56833 9.91667 6.18917 9.91667 5.7925V2.04167C9.91667 1.91917 9.84083 1.80833 9.73 1.7675Z" fill="#80C54A"/>
<path d="M12.9792 9.91676H12.8333V9.04177C12.8333 8.23793 12.1794 7.58344 11.375 7.58344C10.5706 7.58344 9.91667 8.23793 9.91667 9.04177V9.91676H9.77083C9.20792 9.91676 8.75 10.3747 8.75 10.9376V12.9793C8.75 13.5422 9.20792 14.0001 9.77083 14.0001H12.9792C13.5421 14.0001 14 13.5422 14 12.9793V10.9376C14 10.3747 13.5421 9.91676 12.9792 9.91676ZM10.7917 9.04177C10.7917 8.72035 11.053 8.45843 11.375 8.45843C11.697 8.45843 11.9583 8.72035 11.9583 9.04177V9.91676H10.7917V9.04177Z" fill="#80C54A"/>
</g>
<defs>
<clipPath id="clip0">
<rect width="14" height="14" fill="white"/>
</clipPath>
</defs>
</svg>
