<?xml version="1.0" standalone="no"?>
<!DOCTYPE svg PUBLIC "-//W3C//DTD SVG 20010904//EN"
 "http://www.w3.org/TR/2001/REC-SVG-20010904/DTD/svg10.dtd">
<svg version="1.0" xmlns="http://www.w3.org/2000/svg"
 width="612.000000pt" height="612.000000pt" viewBox="0 0 612.000000 612.000000"
 preserveAspectRatio="xMidYMid meet">
<metadata>
Created by potrace 1.14, written by Peter Selinger 2001-2017
</metadata>
<g transform="translate(0.000000,612.000000) scale(0.100000,-0.100000)"
fill="#000000" stroke="none">
<path d="M2888 6085 c-2 -2 -37 -6 -78 -9 -218 -19 -493 -73 -669 -132 -96
-32 -237 -87 -246 -95 -5 -5 -15 -9 -22 -9 -22 0 -335 -158 -341 -172 -2 -5
-8 -8 -14 -8 -5 0 -29 -13 -53 -30 -24 -16 -48 -30 -54 -30 -6 0 -11 -4 -11
-8 0 -4 -15 -16 -32 -27 -18 -10 -45 -28 -59 -39 -15 -12 -39 -30 -55 -41
-238 -167 -616 -575 -744 -803 -8 -15 -18 -29 -21 -32 -27 -23 -220 -409 -215
-430 0 -3 -7 -16 -17 -30 -9 -13 -17 -31 -17 -38 0 -8 -7 -28 -14 -45 -14 -30
-65 -183 -70 -210 -2 -7 -8 -32 -15 -57 -7 -25 -15 -52 -16 -60 -2 -8 -9 -37
-15 -65 -14 -61 -18 -80 -24 -125 -3 -19 -7 -44 -10 -55 -2 -12 -7 -48 -11
-80 -4 -33 -9 -71 -11 -85 -5 -35 -16 -252 -16 -325 0 -68 10 -247 16 -297 2
-18 7 -60 11 -93 4 -33 9 -69 12 -80 2 -11 8 -43 13 -71 15 -92 62 -279 72
-292 6 -6 8 -12 5 -12 -8 0 82 -262 94 -275 5 -5 9 -14 9 -21 0 -36 151 -327
242 -467 21 -32 38 -60 38 -62 0 -6 169 -229 217 -285 21 -25 90 -97 153 -161
99 -100 159 -154 281 -253 26 -22 214 -154 245 -173 247 -150 441 -242 669
-317 115 -37 327 -93 386 -100 19 -3 34 -5 34 -6 0 -1 11 -3 25 -5 14 -2 41
-6 60 -9 162 -28 551 -40 715 -22 108 12 151 17 175 21 14 2 41 6 60 9 19 3
46 8 60 11 14 3 35 7 48 9 13 3 31 7 40 10 9 3 28 7 42 10 14 2 45 9 70 16 25
7 50 13 55 14 61 12 306 101 425 155 25 11 49 20 54 20 5 -1 12 3 15 8 11 15
68 43 75 36 3 -3 6 -1 6 5 0 7 4 12 9 12 7 0 116 60 186 103 106 65 329 227
360 261 6 6 24 22 40 34 83 64 283 273 375 392 19 25 37 47 40 50 11 10 107
146 120 170 7 14 16 27 19 30 31 24 177 300 255 480 41 96 123 342 141 428 3
12 7 31 10 42 9 36 13 54 30 145 23 123 25 144 41 350 12 153 7 407 -11 530
-2 17 -6 53 -9 80 -3 28 -8 61 -11 75 -3 14 -8 39 -10 55 -5 33 -38 178 -55
240 -6 22 -13 50 -16 63 -5 25 -85 251 -104 297 -8 17 -14 32 -15 35 -20 59
-140 294 -203 395 -34 55 -144 219 -151 225 -3 3 -26 32 -51 65 -25 33 -47 62
-50 65 -3 3 -22 25 -44 50 -64 75 -200 213 -266 271 -35 30 -68 59 -74 64 -6
6 -47 39 -91 73 -44 34 -86 67 -94 73 -49 42 -300 191 -426 253 -198 98 -461
194 -630 231 -142 31 -271 52 -430 71 -50 6 -452 14 -457 9z m442 -468 c8 -3
40 -9 70 -12 81 -8 107 -12 158 -24 26 -6 58 -13 72 -15 23 -5 136 -34 200
-52 14 -4 31 -11 38 -17 6 -5 12 -7 12 -3 0 6 56 -13 117 -40 17 -8 34 -14 37
-14 13 0 237 -110 308 -151 357 -206 642 -475 872 -823 42 -62 76 -118 76
-124 0 -6 3 -12 8 -14 12 -5 126 -243 165 -343 33 -85 75 -215 82 -253 2 -9 4
-17 5 -17 1 0 3 -7 5 -15 2 -8 10 -44 18 -80 8 -36 20 -99 27 -140 6 -41 13
-86 15 -99 23 -141 23 -520 1 -638 -2 -10 -7 -40 -10 -68 -4 -27 -14 -84 -23
-125 -8 -41 -16 -82 -18 -90 -2 -8 -8 -35 -15 -60 -7 -25 -12 -47 -12 -50 0
-3 -4 -11 -10 -18 -6 -6 -8 -12 -5 -12 3 0 -12 -51 -34 -112 -23 -62 -44 -122
-47 -133 -3 -11 -12 -26 -19 -33 -7 -7 -13 -20 -13 -28 0 -17 -82 -175 -146
-284 -49 -82 -150 -225 -202 -286 -18 -22 -49 -59 -70 -83 -65 -77 -224 -228
-322 -306 -185 -148 -420 -287 -615 -365 -44 -17 -89 -36 -100 -41 -22 -9
-141 -49 -165 -55 -8 -2 -40 -10 -70 -18 -61 -17 -247 -54 -270 -54 -8 0 -26
-3 -40 -6 -113 -27 -523 -28 -690 -2 -14 3 -43 7 -65 10 -41 6 -49 8 -100 19
-16 4 -41 9 -55 11 -69 14 -181 44 -230 63 -8 3 -19 7 -25 8 -57 14 -420 175
-435 194 -3 3 -25 17 -50 30 -68 37 -204 131 -300 207 -89 71 -310 287 -370
363 -19 24 -41 49 -47 56 -7 8 -13 16 -13 20 0 5 -7 15 -36 48 -9 11 -82 117
-112 163 -6 10 -18 30 -24 44 -7 14 -15 27 -18 30 -18 17 -130 248 -165 340
-25 66 -86 249 -90 272 -2 11 -7 28 -10 38 -6 20 -10 36 -26 115 -10 53 -13
72 -24 145 -4 25 -8 56 -10 70 -33 218 -18 560 37 820 10 52 22 106 24 120 3
14 27 91 54 171 55 164 120 312 193 439 27 47 55 94 61 105 103 184 371 486
571 643 50 39 97 77 106 84 18 15 20 16 141 93 48 30 92 55 97 55 5 0 11 4 13
9 4 11 271 141 290 141 8 0 18 4 24 8 11 10 92 41 123 47 11 2 27 7 34 12 6 4
17 8 22 9 6 1 54 14 109 28 105 28 116 30 216 47 92 15 107 17 185 24 39 4 72
8 73 10 6 6 426 -2 442 -8z"/>
<path d="M3190 5207 c-19 -12 -37 -24 -40 -28 -3 -3 -16 -12 -29 -19 -44 -23
-176 -128 -241 -192 -138 -135 -210 -243 -258 -385 -21 -61 -25 -78 -37 -158
-3 -23 -8 -52 -10 -65 -8 -38 -8 -219 -1 -270 17 -107 50 -204 108 -309 36
-65 116 -180 151 -216 7 -7 32 -37 57 -66 24 -30 193 -202 375 -384 318 -317
405 -407 405 -420 0 -3 9 -16 21 -28 25 -26 162 -233 164 -247 1 -3 13 -29 28
-58 30 -56 88 -202 81 -202 -2 0 1 -11 6 -24 5 -13 11 -41 15 -62 3 -22 9 -61
13 -89 12 -74 6 -203 -13 -302 -10 -48 -21 -92 -25 -98 -3 -5 -17 -38 -29 -73
-52 -147 -192 -353 -335 -494 -16 -15 -25 -28 -21 -28 33 0 380 231 393 262 2
5 8 8 13 8 20 0 275 248 344 335 22 27 46 56 53 63 56 60 202 315 253 442 28
71 77 238 83 287 3 21 8 61 12 88 16 111 6 335 -20 455 -3 14 -8 38 -11 55
-29 143 -116 347 -209 490 -32 49 -62 92 -65 95 -4 3 -21 25 -38 50 -17 25
-41 57 -54 71 -13 14 -39 43 -57 65 -77 90 -231 242 -337 329 -33 28 -62 52
-65 55 -3 3 -39 32 -80 65 -179 143 -344 314 -447 465 -43 64 -109 206 -123
267 -17 75 -19 159 -5 228 7 33 12 61 11 62 -1 1 -17 -8 -36 -20z"/>
<path d="M2247 4020 c-31 -22 -61 -40 -66 -40 -5 0 -11 -3 -13 -7 -1 -5 -39
-35 -83 -68 -84 -64 -248 -221 -305 -294 -19 -24 -41 -49 -47 -56 -7 -8 -13
-18 -13 -23 0 -6 -4 -12 -8 -14 -24 -10 -196 -319 -206 -371 -2 -7 -9 -25 -15
-42 -23 -54 -69 -248 -77 -325 -10 -92 -10 -274 -1 -355 35 -313 185 -660 389
-900 73 -86 199 -204 267 -253 36 -25 68 -49 71 -52 9 -11 129 -81 136 -80 4
1 10 -2 13 -7 8 -11 63 -37 74 -35 4 1 7 -2 7 -7 0 -5 8 -11 18 -14 9 -3 49
-17 87 -32 70 -27 151 -53 189 -61 143 -32 220 -39 222 -19 0 6 3 28 7 50 4
22 10 58 13 80 3 22 7 42 9 45 9 15 20 183 19 305 -1 255 -56 380 -310 705
-385 494 -483 655 -543 895 -11 44 -23 105 -27 135 -7 61 -7 267 0 278 2 4 7
28 11 52 8 59 23 116 41 165 9 22 16 42 16 45 2 32 108 238 141 272 14 14 49
68 45 68 -2 0 -29 -18 -61 -40z"/>
<path d="M2425 3825 c-40 -61 -111 -206 -119 -245 -3 -14 -11 -43 -17 -65 -6
-22 -13 -96 -14 -165 -3 -142 17 -245 74 -383 29 -67 133 -253 150 -267 3 -3
19 -23 36 -45 16 -22 32 -42 35 -45 3 -3 16 -18 29 -35 12 -16 56 -66 96 -110
40 -44 99 -112 130 -150 31 -39 65 -80 76 -93 10 -12 19 -26 19 -31 0 -5 3
-11 8 -13 10 -5 92 -127 92 -138 0 -6 3 -10 8 -10 4 0 12 -10 18 -23 6 -12 29
-58 52 -103 117 -229 153 -466 108 -714 -15 -86 -47 -234 -52 -241 -3 -5 2 -9
11 -9 24 0 168 111 240 185 207 211 309 449 307 715 -1 47 -3 100 -6 118 -3
17 -8 47 -11 65 -28 166 -137 388 -290 591 -60 80 -180 211 -301 327 -179 172
-362 357 -389 394 -17 22 -35 45 -41 50 -44 41 -191 335 -168 335 4 0 2 6 -3
13 -10 11 -18 42 -30 112 -3 17 -6 31 -8 33 -1 2 -19 -22 -40 -53z"/>
</g>
</svg>
