<svg width="79" height="73" viewBox="0 0 79 73" fill="none" xmlns="http://www.w3.org/2000/svg">
<rect x="0.666626" width="78" height="73" rx="8" fill="url(#paint0_linear_113_1165)"/>
<path d="M37.028 34.3379H39.1334C39.8079 34.3379 40.3639 34.224 40.8014 33.9961C41.2389 33.7591 41.5625 33.431 41.7721 33.0117C41.9908 32.5833 42.1002 32.0866 42.1002 31.5215C42.1002 31.0111 42 30.5599 41.7994 30.168C41.608 29.7669 41.3118 29.457 40.9108 29.2383C40.5097 29.0104 40.0039 28.8965 39.3932 28.8965C38.9101 28.8965 38.4635 28.9922 38.0533 29.1836C37.6432 29.375 37.3151 29.6439 37.069 29.9902C36.8229 30.3366 36.6998 30.7559 36.6998 31.248H32.7487C32.7487 30.1543 33.0403 29.2018 33.6237 28.3906C34.2161 27.5794 35.0091 26.946 36.0026 26.4902C36.9961 26.0345 38.0898 25.8066 39.2838 25.8066C40.6328 25.8066 41.8131 26.0254 42.8248 26.4629C43.8365 26.8913 44.625 27.5247 45.1901 28.3633C45.7552 29.2018 46.0377 30.2409 46.0377 31.4805C46.0377 32.1094 45.8919 32.7201 45.6002 33.3125C45.3086 33.8958 44.8893 34.4245 44.3424 34.8984C43.8046 35.3633 43.1484 35.737 42.3737 36.0195C41.5989 36.293 40.7285 36.4297 39.7623 36.4297H37.028V34.3379ZM37.028 37.332V35.2949H39.7623C40.847 35.2949 41.7994 35.418 42.6198 35.6641C43.4401 35.9102 44.1282 36.2656 44.6842 36.7305C45.2402 37.1862 45.6595 37.7285 45.942 38.3574C46.2246 38.9772 46.3658 39.6654 46.3658 40.4219C46.3658 41.3516 46.1881 42.181 45.8326 42.9102C45.4772 43.6302 44.9759 44.2409 44.3287 44.7422C43.6907 45.2435 42.9433 45.6263 42.0865 45.8906C41.2298 46.1458 40.2955 46.2734 39.2838 46.2734C38.4453 46.2734 37.6204 46.1595 36.8092 45.9316C36.0071 45.6947 35.278 45.3438 34.6217 44.8789C33.9746 44.4049 33.455 43.8125 33.0631 43.1016C32.6803 42.3815 32.4889 41.5293 32.4889 40.5449H36.4401C36.4401 41.0553 36.5677 41.5111 36.8229 41.9121C37.0781 42.3132 37.429 42.6276 37.8756 42.8555C38.3313 43.0833 38.8372 43.1973 39.3932 43.1973C40.0221 43.1973 40.5599 43.0833 41.0065 42.8555C41.4622 42.6185 41.8086 42.2904 42.0455 41.8711C42.2916 41.4427 42.4147 40.946 42.4147 40.3809C42.4147 39.6517 42.2825 39.0684 42.0182 38.6309C41.7539 38.1842 41.3756 37.8561 40.8834 37.6465C40.3912 37.4368 39.8079 37.332 39.1334 37.332H37.028Z" fill="#0E1229"/>
<defs>
<linearGradient id="paint0_linear_113_1165" x1="3.04748" y1="72.4016" x2="75.8055" y2="70.8173" gradientUnits="userSpaceOnUse">
<stop stop-color="#32C1FF"/>
<stop offset="0.573171" stop-color="#5EFFFF"/>
<stop offset="1" stop-color="#00D1FF"/>
</linearGradient>
</defs>
</svg>
