<svg width="78" height="73" viewBox="0 0 78 73" fill="none" xmlns="http://www.w3.org/2000/svg">
<rect x="-1.52588e-05" width="78" height="73" rx="8" fill="url(#paint0_linear_113_1158)"/>
<path d="M45.9453 42.9238V46H32.3281V43.375L38.7676 36.4707C39.4147 35.7507 39.9251 35.1172 40.2988 34.5703C40.6725 34.0143 40.9414 33.5176 41.1055 33.0801C41.2786 32.6335 41.3652 32.2096 41.3652 31.8086C41.3652 31.207 41.265 30.6921 41.0644 30.2637C40.8639 29.8262 40.5677 29.4889 40.1758 29.252C39.793 29.015 39.319 28.8965 38.7539 28.8965C38.1523 28.8965 37.6328 29.0423 37.1953 29.334C36.7669 29.6257 36.4388 30.0312 36.2109 30.5508C35.9922 31.0703 35.8828 31.6582 35.8828 32.3145H31.9316C31.9316 31.1296 32.2142 30.0449 32.7793 29.0605C33.3444 28.0671 34.1419 27.2786 35.1719 26.6953C36.2018 26.1029 37.4232 25.8066 38.8359 25.8066C40.2305 25.8066 41.4062 26.0345 42.3633 26.4902C43.3294 26.9368 44.0586 27.584 44.5508 28.4316C45.0521 29.2702 45.3027 30.2728 45.3027 31.4395C45.3027 32.0957 45.1979 32.7383 44.9883 33.3672C44.7786 33.987 44.4778 34.6068 44.0859 35.2266C43.7031 35.8372 43.2383 36.457 42.6914 37.0859C42.1445 37.7148 41.5384 38.3665 40.873 39.041L37.414 42.9238H45.9453Z" fill="#0E1229"/>
<defs>
<linearGradient id="paint0_linear_113_1158" x1="2.38084" y1="72.4016" x2="75.1389" y2="70.8173" gradientUnits="userSpaceOnUse">
<stop stop-color="#32C1FF"/>
<stop offset="0.573171" stop-color="#5EFFFF"/>
<stop offset="1" stop-color="#00D1FF"/>
</linearGradient>
</defs>
</svg>
