<svg width="36" height="36" viewBox="0 0 36 36" fill="none" xmlns="http://www.w3.org/2000/svg">
<path d="M29.0985 1.59889C29.4429 1.23475 29.8569 0.943349 30.3159 0.741918C30.7748 0.540487 31.2695 0.433114 31.7707 0.426144C32.2719 0.419174 32.7694 0.512749 33.2338 0.701339C33.6982 0.889929 34.1201 1.1697 34.4745 1.52413C34.8289 1.87856 35.1087 2.30044 35.2973 2.76484C35.4859 3.22924 35.5795 3.72674 35.5725 4.22793C35.5655 4.72911 35.4582 5.22381 35.2567 5.68279C35.0553 6.14177 34.7639 6.55571 34.3997 6.90014L23.4123 17.8876C23.3977 17.9022 23.3862 17.9194 23.3783 17.9384C23.3704 17.9574 23.3663 17.9777 23.3663 17.9983C23.3663 18.0188 23.3704 18.0392 23.3783 18.0582C23.3862 18.0771 23.3977 18.0944 23.4123 18.1089L34.3997 29.0964C34.7527 29.4435 35.0334 29.8571 35.2256 30.3133C35.4179 30.7694 35.518 31.2591 35.5201 31.7542C35.5221 32.2492 35.4262 32.7397 35.2377 33.1975C35.0493 33.6552 34.7721 34.0711 34.4221 34.4212C34.0721 34.7713 33.6562 35.0486 33.1985 35.2372C32.7408 35.4257 32.2503 35.5218 31.7553 35.5198C31.2602 35.5179 30.7705 35.4179 30.3143 35.2257C29.8581 35.0336 29.4445 34.753 29.0972 34.4001L18.1098 23.4126C18.0952 23.3981 18.078 23.3865 18.059 23.3787C18.04 23.3708 18.0197 23.3667 17.9991 23.3667C17.9786 23.3667 17.9582 23.3708 17.9392 23.3787C17.9203 23.3865 17.903 23.3981 17.8885 23.4126L6.901 34.4001C6.55387 34.7531 6.1403 35.0338 5.68414 35.226C5.22798 35.4183 4.73827 35.5184 4.24325 35.5205C3.74823 35.5225 3.25769 35.4266 2.79994 35.2381C2.34219 35.0497 1.92628 34.7724 1.5762 34.4225C1.22612 34.0725 0.948806 33.6566 0.760245 33.1989C0.571684 32.7412 0.475611 32.2507 0.477568 31.7557C0.479526 31.2606 0.579474 30.7709 0.771648 30.3147C0.963822 29.8585 1.24442 29.4449 1.59725 29.0976L12.5848 18.1101C12.5993 18.0956 12.6108 18.0784 12.6187 18.0594C12.6266 18.0404 12.6307 18.0201 12.6307 17.9995C12.6307 17.979 12.6266 17.9586 12.6187 17.9396C12.6108 17.9206 12.5993 17.9034 12.5848 17.8889L1.59725 6.90139C0.903368 6.19628 0.516216 5.24555 0.520127 4.25628C0.524038 3.26702 0.918696 2.31937 1.61813 1.61977C2.31757 0.920166 3.26512 0.525285 4.25439 0.52114C5.24365 0.516996 6.19448 0.903924 6.89975 1.59764L17.8873 12.5851C17.9018 12.5997 17.919 12.6112 17.938 12.6191C17.957 12.627 17.9773 12.631 17.9979 12.631C18.0184 12.631 18.0388 12.627 18.0578 12.6191C18.0767 12.6112 18.094 12.5997 18.1085 12.5851L29.096 1.59764L29.0985 1.59889Z" fill="white"/>
</svg>
