<svg width="28" height="24" viewBox="0 0 28 24" fill="none" xmlns="http://www.w3.org/2000/svg">
<path d="M3.69629 3.57005L9.39233 1.22412H18.0503L23.8392 3.78101L18.7254 6.3379H9.11385L3.69629 3.57005Z" fill="#7FCFF5"/>
<path d="M3.6961 3.57031L0 7.74741L7.50189 12.7852L9.11366 6.33816L3.6961 3.57031Z" fill="#59A1BB"/>
<path d="M18.7251 6.33814L21.1976 12.7852L27.9316 7.60392L23.8389 3.78125L18.7251 6.33814Z" fill="#59A1BB"/>
<path d="M9.11372 6.33789H18.7253L21.1978 12.785H7.50195L9.11372 6.33789Z" fill="#4D8EA0"/>
<path d="M21.1977 12.7853L21.0458 13.0806L14.354 24.0002L27.9317 7.604L21.1977 12.7853Z" fill="#4D8EA0"/>
<path d="M7.50189 12.7849L14.354 23.9998L0 7.74707L7.50189 12.7849Z" fill="#4D8EA0"/>
<path d="M21.1978 12.7852L14.3541 24L7.50195 12.7852H21.1978Z" fill="#59A1BB"/>
<path d="M4.11816 3.78125C4.42195 4.22006 4.69199 4.70105 4.94514 5.13142C5.64555 6.32126 6.07591 7.63768 6.62442 8.89503C6.97884 9.72201 7.18137 10.549 7.28263 11.435C7.33326 11.857 7.37545 12.3126 7.45984 12.743L7.50203 12.7683L9.1138 6.32126L4.11816 3.78125Z" fill="#64B7CE"/>
<path d="M22.5226 3.24951C22.4467 3.28327 22.3623 3.31702 22.2779 3.34234C21.3159 3.67144 20.2358 3.75583 19.2316 3.8824C18.0249 4.0343 16.8434 4.16088 15.6199 4.16088C14.1769 4.16088 12.7507 4.24527 11.3077 4.16088C9.88163 4.07649 8.41331 4.144 7.01251 3.85709C6.18553 3.68832 5.34167 3.51955 4.52313 3.27483L3.70459 3.61237L9.12215 6.38022H18.7337L23.8475 3.82334L22.5226 3.24951Z" fill="#8EDAFC"/>
<path d="M18.7254 5.72216H9.11385L4.37138 3.30029L3.69629 3.57033L9.11385 6.33818H18.7254L23.8392 3.78129L23.181 3.49438L18.7254 5.72216Z" fill="white"/>
<path d="M3.69624 3.57031L3.45996 3.84035L8.76783 6.54913L7.24888 12.608L7.50204 12.7852L9.11381 6.33816L3.69624 3.57031Z" fill="#8EDAFC"/>
<path opacity="0.2" d="M21.3241 12.7427C21.3241 10.7006 22.1004 8.96224 23.0878 7.21546C23.5097 6.46443 24.0076 5.77246 24.2945 4.94548C24.5645 4.16913 24.0413 3.8991 23.3747 4.23664C22.2355 4.81047 21.1131 5.40117 19.957 5.96655C19.1976 6.33785 18.8178 6.51506 19.1301 7.42642C19.3495 8.05088 19.6448 8.67533 19.9148 9.28291C20.3958 10.3546 20.9612 11.5613 21.3157 12.5824V12.7427H21.3241Z" fill="#8EDAFC"/>
<path d="M19.1386 6.46472L24.0667 4.00065L23.8389 3.78125L18.7251 6.34658L21.1976 12.7852L21.4845 12.5658L19.1386 6.46472Z" fill="#8EDAFC"/>
<path opacity="0.1" d="M24.5714 6.90149C25.1848 4.31673 23.5867 1.72412 21.002 1.11074C18.4172 0.49736 15.8246 2.09548 15.2112 4.68023C14.5978 7.26499 16.1959 9.8576 18.7807 10.471C21.3655 11.0844 23.9581 9.48624 24.5714 6.90149Z" fill="white"/>
<path opacity="0.2" d="M23.794 6.16807C24.1068 4.23572 22.7939 2.41567 20.8615 2.10287C18.9292 1.79008 17.1091 3.10299 16.7963 5.03534C16.4835 6.9677 17.7965 8.78775 19.7288 9.10054C21.6612 9.41334 23.4812 8.10042 23.794 6.16807Z" fill="white"/>
<path opacity="0.7" d="M20.2946 3.17345C20.1427 4.25359 20.2946 5.60376 18.3706 5.77254C18.9444 6.03413 19.5773 6.27041 19.9739 6.80204C20.3284 7.2746 20.6153 8.07627 20.6743 8.65853C20.784 8.03407 20.6406 7.44337 21.0288 6.80204C21.3157 6.32104 21.8051 5.99194 22.3536 5.92443C21.7376 5.58689 21.206 5.63752 20.8347 4.90336C20.6912 4.62489 20.5646 4.32954 20.4718 4.03419C20.379 3.7304 20.4127 3.26628 20.2187 3.04688L20.2946 3.17345Z" fill="white"/>
<path opacity="0.1" d="M10.9537 14.293C11.4573 12.2045 10.1724 10.1031 8.08388 9.59954C5.99533 9.09594 3.89398 10.3808 3.39037 12.4693C2.88677 14.5579 4.17161 16.6592 6.26016 17.1628C8.34871 17.6664 10.4501 16.3816 10.9537 14.293Z" fill="white"/>
<path opacity="0.2" d="M7.50193 16.0932C9.0865 16.0932 10.371 14.8087 10.371 13.2241C10.371 11.6395 9.0865 10.355 7.50193 10.355C5.91736 10.355 4.63281 11.6395 4.63281 13.2241C4.63281 14.8087 5.91736 16.0932 7.50193 16.0932Z" fill="white"/>
<path opacity="0.7" d="M7.50192 11.258C7.37534 12.1272 7.50192 13.2242 5.94922 13.3592C6.41334 13.5702 6.92809 13.7643 7.24876 14.1946C7.53567 14.5828 7.76351 15.2241 7.81414 15.6967C7.89853 15.1904 7.78039 14.7178 8.10106 14.1946C8.33734 13.8065 8.73395 13.5364 9.17275 13.4858C8.67488 13.2073 8.24451 13.2495 7.94072 12.6588C7.82258 12.431 7.72132 12.1947 7.64537 11.9584C7.56943 11.7137 7.59474 11.3339 7.43441 11.1567L7.50192 11.258Z" fill="white"/>
<path opacity="0.1" d="M7.85645 12.7432C8.25306 12.8866 8.64123 13.0976 8.89439 13.241C10.2952 14.0343 11.6032 15.3001 12.6158 16.5405C13.6031 17.7472 14.2444 19.0805 14.5145 20.6164C14.6579 21.4602 14.7508 22.3209 14.8351 23.1732L21.1978 12.7432H7.85645Z" fill="white"/>
<path opacity="0.2" d="M16.2695 12.7432C16.2695 12.7432 11.5017 18.9877 11.5861 18.8611C11.6705 18.7346 19.4761 12.7854 19.4761 12.7854L16.2695 12.7432Z" fill="white"/>
<path opacity="0.2" d="M5.21484 4.43078L13.2737 1.22412H14.531L7.57764 5.60374L5.21484 4.43078Z" fill="white"/>
<path opacity="0.2" d="M10.7847 6.37165L18.0503 1.22412L19.0207 1.65449L15.5356 6.38853L10.7847 6.37165Z" fill="white"/>
</svg>
