<svg width="24" height="25" viewBox="0 0 24 25" fill="none" xmlns="http://www.w3.org/2000/svg">
<path d="M13.4311 5.35032C10.1326 4.5038 6.4547 2.08103 2.98107 3.92C-0.492549 5.75898 -2.711 18.5151 6.77579 23.1271C16.2626 27.7391 23.6185 16.5593 23.2098 11.1883C22.9471 7.62715 17.0507 6.25521 13.4311 5.35032Z" fill="url(#paint0_linear_465_4882)"/>
<path opacity="0.3" d="M8.26367 3.89087C9.86913 4.79576 9.95669 6.19689 12.7298 7.88992C15.4736 9.58294 18.1007 8.35696 18.7721 8.26939C19.4435 8.21101 18.3051 7.10178 14.4812 6.19689C10.6573 5.29199 8.26367 3.89087 8.26367 3.89087Z" fill="#5F7761"/>
<path opacity="0.5" d="M11.2408 6.75151C10.8905 5.43796 15.736 7.86073 16.0571 8.09425C16.349 8.32777 13.8387 9.29105 11.2408 6.75151Z" fill="#5F7761"/>
<path opacity="0.3" d="M0.325017 13.0274C1.75533 10.8673 5.66681 17.3475 9.95775 18.8362C14.2487 20.3249 17.8099 20.1205 18.598 20.1497C19.3862 20.1789 14.2779 26.1045 7.4474 23.0687C0.558536 20.033 0.179066 13.2025 0.325017 13.0274Z" fill="#605473"/>
<path opacity="0.2" d="M8.90746 5.72984C3.56567 4.62062 3.30296 16.9972 12.1476 19.1281C20.9922 21.259 23.2106 11.7722 21.9846 10.0208C20.7295 8.26938 17.7521 10.1084 14.1909 9.11589C10.6005 8.09423 10.0459 5.96336 8.90746 5.72984Z" fill="#ACB2AA"/>
<path opacity="0.5" d="M0.908203 16.7929C1.43363 15.742 8.46845 23.5066 8.73116 23.7109C8.96468 23.9153 3.41855 22.7768 0.908203 16.7929Z" fill="#ACB2AA"/>
<path opacity="0.8" d="M16.2619 6.25525C15.8824 6.25525 18.5096 7.36448 19.0934 8.06504C19.6772 8.79479 20.9615 8.7656 21.4869 8.79479C21.9832 8.79479 19.6772 6.89743 16.2619 6.25525Z" fill="#ACB2AA"/>
<path opacity="0.25" d="M13.7237 8.64885C11.0091 8.06505 12.6729 15.5377 16.0298 15.9464C19.3866 16.3259 22.3932 10.1667 20.5834 9.02832C18.7736 7.88991 16.4384 9.23266 13.7237 8.64885Z" fill="#ACB2AA"/>
<path d="M15.7956 12.0057C14.6572 11.7722 15.5037 13.9906 16.1167 13.8155C16.7297 13.6403 17.9557 12.4728 15.7956 12.0057Z" fill="white"/>
<path d="M16.2048 6.57635C15.9713 6.57635 16.3508 7.18935 16.701 7.30611C17.0513 7.45206 17.5767 7.33529 17.7227 7.21853C17.8978 7.13096 16.9638 6.60555 16.2048 6.57635Z" fill="white"/>
<path d="M17.8979 2.22704C17.6643 3.16112 16.6135 3.97845 15.4751 5.292C15.3875 5.37957 15.2999 5.49633 15.2124 5.5839C13.9572 7.04341 13.9864 8.03587 13.9864 8.03587C13.9864 8.03587 13.1691 8.64887 12.9355 7.33531C13.1983 7.53964 14.5118 4.7082 15.2124 2.9276C15.3583 2.54813 15.4751 2.22704 15.5627 1.99351C16.0005 0.59239 16.7594 0.00859283 17.1389 0.0377829C17.4892 0.066973 18.1606 1.20539 17.8979 2.22704Z" fill="url(#paint1_linear_465_4882)"/>
<path d="M17.8968 2.22698C17.6633 3.16106 16.6124 3.97839 15.474 5.29194C15.1237 5.1168 15.0654 4.00757 15.2113 2.92754C15.3573 2.54807 15.474 2.22697 15.5616 1.99345C15.9995 0.592328 16.7584 0.00853179 17.1379 0.0377219C17.4881 0.066912 18.1595 1.20533 17.8968 2.22698Z" fill="url(#paint2_linear_465_4882)"/>
<path d="M17.1088 0.03775C16.1747 -0.370912 16.4082 2.66486 16.7877 3.04433C17.1671 3.4238 17.9261 2.34377 17.9261 1.93511C17.9553 1.52645 17.7509 0.300461 17.1088 0.03775Z" fill="url(#paint3_linear_465_4882)"/>
<path opacity="0.3" d="M12.877 7.45204C12.9353 7.30609 13.4316 6.80986 13.6943 6.25525C13.9862 5.70064 14.0737 7.68556 13.8986 8.00665C13.6943 8.32775 13.0521 8.38613 12.877 7.45204Z" fill="#5F7761"/>
<path d="M2.45655 4.94173C1.93113 5.81743 3.04034 5.87581 3.50739 4.88334C3.94524 3.89088 2.95278 4.1244 2.45655 4.94173Z" fill="white"/>
<path opacity="0.2" d="M2.80634 19.7411C1.93064 18.3108 -0.17105 13.6112 0.908984 12.9106C1.98902 12.1808 8.14813 18.807 9.69521 21.2006C11.2423 23.5942 4.87884 23.1563 2.80634 19.7411Z" fill="#605473"/>
<path opacity="0.2" d="M19.1523 20.0622C18.5393 20.4708 21.3123 15.8296 22.0129 14.1074C22.7426 12.3852 22.2756 17.9605 19.1523 20.0622Z" fill="#605473"/>
<path opacity="0.2" d="M12.2638 23.3606C10.8919 22.9811 16.4672 20.354 18.1894 20.2081C19.9117 20.0913 15.7375 24.2947 12.2638 23.3606Z" fill="#605473"/>
<path d="M2.19413 15.0415C1.55195 15.3042 1.61033 16.8804 2.66118 17.4351C3.68283 17.9897 3.68283 14.4577 2.19413 15.0415Z" fill="url(#paint4_linear_465_4882)"/>
<path opacity="0.5" d="M1.93203 16.3842C2.36988 17.0556 3.1872 16.4718 3.21639 15.9172C3.27477 15.3626 2.69097 14.6328 2.10717 15.0707C1.52337 15.5085 1.93203 16.3842 1.93203 16.3842Z" fill="#78907E"/>
<path d="M2.19297 17.0556C2.07621 16.5594 2.89354 16.6469 3.18544 16.4426C3.47734 16.2383 3.47734 17.2308 3.06868 17.4059C2.6892 17.5518 2.19297 17.0556 2.19297 17.0556Z" fill="white"/>
<path d="M21.2241 10.4878C20.6695 10.8964 21.0489 12.0057 21.7203 12.1516C22.3917 12.2684 22.1874 9.72884 21.2241 10.4878Z" fill="url(#paint5_linear_465_4882)"/>
<path opacity="0.5" d="M21.0207 10.6921C20.8455 11.1299 21.2834 11.6554 21.5461 11.6262C21.8088 11.597 22.1299 10.7505 21.8088 10.4586C21.4877 10.1667 21.1083 10.5169 21.0207 10.6921Z" fill="#78907E"/>
<path d="M21.4879 12.064C21.1084 11.6262 21.6922 11.7721 21.9549 11.5094C22.2468 11.2467 22.1301 12.5019 21.4879 12.064Z" fill="white"/>
<path opacity="0.4" d="M7.94415 8.50288C7.91496 8.53207 7.91495 8.56126 7.88576 8.56126C7.41872 9.08668 6.25112 9.49534 5.81327 8.82397C5.75489 8.70721 5.69651 8.59045 5.66732 8.50288C5.49218 7.8607 5.87165 7.18932 6.6014 7.10175C7.09763 7.04337 8.35281 7.94827 7.94415 8.50288Z" fill="#94A59C"/>
<path opacity="0.4" d="M7.94426 8.50288C7.91507 8.53207 7.91507 8.56126 7.88588 8.56126C7.91507 8.38612 7.59398 7.18932 6.63071 7.21851C5.69662 7.2477 5.69662 8.4445 5.69662 8.50288C5.52148 7.8607 5.90095 7.18932 6.63071 7.10175C7.09775 7.04337 8.35292 7.94827 7.94426 8.50288Z" fill="#94A59C"/>
<path d="M5.8125 8.82394C5.8125 8.82394 6.07521 9.2618 6.74658 9.17423C7.41795 9.08666 7.88499 8.53204 7.88499 8.53204C7.88499 8.53204 7.59309 9.14504 6.80496 9.32018C5.98764 9.46613 5.8125 8.82394 5.8125 8.82394Z" fill="white"/>
<path opacity="0.4" d="M21.2544 13.7279C21.1668 14.2241 20.5538 14.5744 20.1744 13.903C19.8533 13.29 20.8457 12.677 21.196 13.3192C21.2836 13.4652 21.2836 13.6111 21.2544 13.7279Z" fill="#94A59C"/>
<path opacity="0.4" d="M21.2544 13.7279C21.2544 13.7279 21.1668 13.0273 20.6414 13.0857C20.116 13.1441 20.2619 13.9614 20.1744 13.903C19.8533 13.29 20.8457 12.677 21.196 13.3192C21.2836 13.4652 21.2836 13.6111 21.2544 13.7279Z" fill="#94A59C"/>
<path d="M20.1445 13.8447C20.1445 13.8447 20.3489 14.195 20.7575 14.195C21.1662 14.195 21.2246 13.8447 21.2246 13.8447C21.2246 13.8447 21.1078 14.3117 20.6116 14.2825C20.1445 14.2533 20.1445 13.8447 20.1445 13.8447Z" fill="white"/>
<path opacity="0.4" d="M4.76222 9.87482C4.67465 10.371 4.06165 10.7213 3.68218 10.05C3.36109 9.46616 4.35355 8.82398 4.70383 9.46616C4.76221 9.58292 4.79141 9.72887 4.76222 9.87482Z" fill="#94A59C"/>
<path opacity="0.4" d="M4.76222 9.87482C4.76222 9.87482 4.67464 9.17426 4.14922 9.23264C3.6238 9.29102 3.76975 10.1083 3.68218 10.05C3.36109 9.46616 4.35355 8.82398 4.70383 9.46616C4.76221 9.58292 4.79141 9.72887 4.76222 9.87482Z" fill="#94A59C"/>
<path d="M3.65234 9.9624C3.65234 9.9624 3.85668 10.3127 4.26534 10.3127C4.674 10.3127 4.73238 9.9624 4.73238 9.9624C4.73238 9.9624 4.61562 10.4294 4.11939 10.4003C3.65235 10.3711 3.65234 9.9624 3.65234 9.9624Z" fill="white"/>
<path opacity="0.7" d="M1.14258 17.3183C1.14258 17.3183 3.82806 22.3682 9.95799 23.1855C16.555 24.0904 21.2546 17.6686 21.2546 17.6686C21.2546 17.6686 17.3139 25.1121 9.95799 23.9445C2.57289 22.7769 1.14258 17.3183 1.14258 17.3183Z" fill="white"/>
<path d="M12.0596 24.0612C10.3666 24.1488 14.3948 22.6309 15.2413 22.7185C16.117 22.7769 13.7234 23.9737 12.0596 24.0612Z" fill="white"/>
<path opacity="0.4" d="M16.3496 0.913446C16.1453 0.709115 15.0069 3.7157 15.2404 4.27031C15.4739 4.82492 16.4372 3.89084 16.5248 3.24865C16.6123 2.57728 16.3496 0.913446 16.3496 0.913446Z" fill="#94A59C"/>
<path d="M16.3797 1.11776C16.0878 1.2929 16.1462 2.37293 16.5548 2.28536C16.9343 2.1686 17.0803 0.709098 16.3797 1.11776Z" fill="white"/>
<defs>
<linearGradient id="paint0_linear_465_4882" x1="-0.411359" y1="10.3103" x2="21.4085" y2="18.1516" gradientUnits="userSpaceOnUse">
<stop stop-color="#8889B1"/>
<stop offset="1" stop-color="#8D88B1"/>
</linearGradient>
<linearGradient id="paint1_linear_465_4882" x1="14.7006" y1="8.39195" x2="16.3675" y2="-0.122439" gradientUnits="userSpaceOnUse">
<stop stop-color="#8889B1"/>
<stop offset="1" stop-color="#8D88B1"/>
</linearGradient>
<linearGradient id="paint2_linear_465_4882" x1="15.1173" y1="2.6465" x2="17.9535" y2="2.6465" gradientUnits="userSpaceOnUse">
<stop stop-color="#8889B1"/>
<stop offset="1" stop-color="#8D88B1"/>
</linearGradient>
<linearGradient id="paint3_linear_465_4882" x1="16.4671" y1="1.54515" x2="17.9424" y2="1.54515" gradientUnits="userSpaceOnUse">
<stop stop-color="#9E88B1"/>
<stop offset="1" stop-color="#A491B1"/>
</linearGradient>
<linearGradient id="paint4_linear_465_4882" x1="2.57701" y1="17.4894" x2="2.57692" y2="14.9714" gradientUnits="userSpaceOnUse">
<stop stop-color="#9688B0"/>
<stop offset="1" stop-color="#80A5A0"/>
</linearGradient>
<linearGradient id="paint5_linear_465_4882" x1="21.5342" y1="12.1386" x2="21.5342" y2="10.3423" gradientUnits="userSpaceOnUse">
<stop stop-color="#9688B0"/>
<stop offset="1" stop-color="#80A5A0"/>
</linearGradient>
</defs>
</svg>
