<svg width="24" height="25" viewBox="0 0 24 25" fill="none" xmlns="http://www.w3.org/2000/svg">
<path d="M13.4311 5.35038C10.1327 4.50387 6.4547 2.08109 2.98107 3.92006C-0.492549 5.75904 -2.711 18.5151 6.77579 23.1272C16.2626 27.7392 23.6185 16.5594 23.2098 11.1884C22.9471 7.62721 17.0507 6.25527 13.4311 5.35038Z" fill="url(#paint0_linear_465_4838)"/>
<path opacity="0.3" d="M8.26367 3.89087C9.86913 4.79576 9.95669 6.19689 12.7298 7.88992C15.4736 9.58294 18.1007 8.35696 18.7721 8.26939C19.4435 8.21101 18.3051 7.10178 14.4812 6.19689C10.6573 5.29199 8.26367 3.89087 8.26367 3.89087Z" fill="#C41B75"/>
<path opacity="0.5" d="M11.2408 6.75151C10.8905 5.43796 15.736 7.86074 16.0571 8.09426C16.349 8.32778 13.8387 9.29105 11.2408 6.75151Z" fill="#C41B75"/>
<path opacity="0.3" d="M0.324025 13.0274C1.75434 10.8673 5.66582 17.3475 9.95676 18.8362C14.2477 20.3249 17.8089 20.1206 18.597 20.1497C19.3852 20.1789 14.2769 26.1045 7.44641 23.0688C0.586739 20.033 0.207265 13.2025 0.324025 13.0274Z" fill="#E12A75"/>
<path opacity="0.19" d="M8.90746 5.72984C3.56567 4.62062 3.30296 16.9972 12.1476 19.1281C20.9922 21.259 23.2106 11.7722 21.9846 10.0208C20.7295 8.26938 17.7521 10.1084 14.1909 9.1159C10.6297 8.09424 10.0459 5.96336 8.90746 5.72984Z" fill="#F3D8EA"/>
<path opacity="0.7" d="M1.58088 8.24018C1.46412 10.1667 5.0837 7.18934 6.51402 5.8174C7.94433 4.44547 4.52909 3.68652 3.18634 4.3287C1.81441 5.00008 1.61007 7.5688 1.58088 8.24018Z" fill="white"/>
<path opacity="0.5" d="M0.908203 16.7929C1.43363 15.742 8.46844 23.5066 8.73115 23.7109C8.96467 23.9153 3.41855 22.7768 0.908203 16.7929Z" fill="#F3D8EA"/>
<path opacity="0.8" d="M16.2619 6.25525C15.8824 6.25525 18.5096 7.36447 19.0934 8.06503C19.6772 8.79478 20.9615 8.76559 21.4869 8.79478C21.9832 8.79478 19.6772 6.89743 16.2619 6.25525Z" fill="#F3D8EA"/>
<path opacity="0.25" d="M13.7237 8.64885C11.0091 8.06504 12.6729 15.5377 16.0298 15.9464C19.3866 16.3258 22.3932 10.1667 20.5834 9.02832C18.7736 7.88991 16.4384 9.23265 13.7237 8.64885Z" fill="#F3D8EA"/>
<path d="M15.7956 12.0057C14.6572 11.7722 15.5037 13.9906 16.1167 13.8155C16.7297 13.6112 17.9849 12.4728 15.7956 12.0057Z" fill="white"/>
<path d="M16.2048 6.57635C15.9713 6.57635 16.3508 7.18935 16.701 7.30611C17.0513 7.45206 17.5767 7.33529 17.7227 7.21853C17.8978 7.13096 16.9638 6.60555 16.2048 6.57635Z" fill="white"/>
<path d="M17.8979 2.19781C17.6643 3.13189 16.6135 3.94921 15.4751 5.26277C15.3875 5.35034 15.2999 5.4671 15.2124 5.55467C13.9572 7.01417 13.9864 8.00664 13.9864 8.00664C13.9864 8.00664 13.1691 8.61963 12.9355 7.30607C13.1983 7.51041 14.5118 4.67896 15.2124 2.89837C15.3583 2.51889 15.4751 2.1978 15.5627 1.96428C16.0005 0.563154 16.7594 -0.020643 17.1389 0.0085471C17.4892 0.0669273 18.1606 1.20534 17.8979 2.19781Z" fill="url(#paint1_linear_465_4838)"/>
<path d="M17.8968 2.1978C17.6633 3.13189 16.6124 3.94921 15.474 5.26277C15.1237 5.08763 15.0654 3.9784 15.2113 2.89837C15.3573 2.51889 15.474 2.1978 15.5616 1.96428C15.9995 0.563154 16.7584 -0.020643 17.1379 0.0085471C17.4881 0.0669273 18.1595 1.20534 17.8968 2.1978Z" fill="url(#paint2_linear_465_4838)"/>
<path d="M17.1088 0.0377499C16.1747 -0.370912 16.4082 2.66486 16.7877 3.04434C17.1671 3.42381 17.9261 2.34377 17.9261 1.93511C17.9553 1.52645 17.7801 0.300461 17.1088 0.0377499Z" fill="url(#paint3_linear_465_4838)"/>
<path opacity="0.3" d="M12.877 7.45204C12.9353 7.30609 13.4316 6.80986 13.6943 6.25525C13.9862 5.70064 14.0737 7.68556 13.8986 8.00665C13.7235 8.32775 13.0521 8.38613 12.877 7.45204Z" fill="#C41B75"/>
<path d="M2.48585 4.94173C1.96042 5.81743 3.06965 5.87581 3.53669 4.88334C3.94535 3.89088 2.95289 4.1244 2.48585 4.94173Z" fill="white"/>
<path opacity="0.2" d="M2.80634 19.7411C1.93064 18.3108 -0.17105 13.6112 0.908984 12.9106C1.98902 12.1808 8.14813 18.807 9.69521 21.2006C11.2423 23.5942 4.87884 23.1563 2.80634 19.7411Z" fill="#E12A75"/>
<path opacity="0.2" d="M19.1523 20.0622C18.5393 20.4708 21.3123 15.8296 22.0129 14.1074C22.7426 12.3852 22.2756 17.9605 19.1523 20.0622Z" fill="#E12A75"/>
<path opacity="0.2" d="M12.2638 23.3607C10.8919 22.9812 16.4672 20.3541 18.1894 20.2081C19.9117 20.0914 15.7375 24.2948 12.2638 23.3607Z" fill="#E12A75"/>
<path d="M2.19413 15.0415C1.55195 15.3042 1.61033 16.8804 2.66117 17.4351C3.68283 17.9897 3.68283 14.4577 2.19413 15.0415Z" fill="url(#paint4_linear_465_4838)"/>
<path opacity="0.5" d="M1.9601 16.3842C2.39795 17.0556 3.21527 16.4718 3.24446 15.9172C3.30284 15.3626 2.71904 14.6328 2.13524 15.0707C1.52225 15.5085 1.9601 16.3842 1.9601 16.3842Z" fill="#DF386E"/>
<path d="M2.19297 17.0556C2.07621 16.5594 2.89353 16.6469 3.18543 16.4426C3.47734 16.2383 3.47734 17.2307 3.06868 17.4059C2.6892 17.5518 2.19297 17.0556 2.19297 17.0556Z" fill="white"/>
<path d="M21.226 10.4878C20.6714 10.8964 21.0509 12.0057 21.7223 12.1516C22.3936 12.2684 22.1893 9.72884 21.226 10.4878Z" fill="url(#paint5_linear_465_4838)"/>
<path opacity="0.5" d="M21.0519 10.6921C20.8768 11.1299 21.3146 11.6554 21.5774 11.6262C21.8401 11.597 22.1612 10.7505 21.8401 10.4586C21.4898 10.1667 21.1103 10.5169 21.0519 10.6921Z" fill="#DF386E"/>
<path d="M21.4879 12.064C21.1084 11.6262 21.6922 11.7721 21.9549 11.5094C22.2468 11.2467 22.1301 12.5019 21.4879 12.064Z" fill="white"/>
<path opacity="0.4" d="M7.9422 8.50287C7.91301 8.53206 7.91301 8.56126 7.88382 8.56126C7.41678 9.08668 6.24917 9.49534 5.81132 8.82397C5.75294 8.70721 5.69456 8.59044 5.66537 8.50287C5.49023 7.86069 5.8697 7.18932 6.59945 7.10175C7.09568 7.04337 8.35086 7.94826 7.9422 8.50287Z" fill="#F08792"/>
<path opacity="0.4" d="M7.9423 8.50287C7.91311 8.53206 7.91311 8.56126 7.88392 8.56126C7.91311 8.38612 7.59202 7.18932 6.62875 7.21851C5.69467 7.2477 5.69467 8.44449 5.69467 8.50287C5.51953 7.86069 5.899 7.18932 6.62875 7.10175C7.09579 7.04337 8.35096 7.94826 7.9423 8.50287Z" fill="#F08792"/>
<path d="M5.81055 8.82394C5.81055 8.82394 6.07326 9.2618 6.74463 9.17423C7.416 9.08666 7.88305 8.53204 7.88305 8.53204C7.88305 8.53204 7.59115 9.14504 6.80301 9.32018C6.01488 9.46613 5.81055 8.82394 5.81055 8.82394Z" fill="white"/>
<path opacity="0.4" d="M21.2544 13.7279C21.1668 14.2241 20.5538 14.5744 20.1744 13.903C19.8533 13.29 20.8457 12.677 21.196 13.3192C21.2836 13.4652 21.2836 13.6111 21.2544 13.7279Z" fill="#F08792"/>
<path opacity="0.4" d="M21.2544 13.7279C21.2544 13.7279 21.1668 13.0273 20.6414 13.0857C20.116 13.1441 20.2619 13.9614 20.1744 13.903C19.8533 13.29 20.8457 12.677 21.196 13.3192C21.2836 13.4652 21.2836 13.6111 21.2544 13.7279Z" fill="#F08792"/>
<path d="M20.1445 13.8447C20.1445 13.8447 20.3489 14.1949 20.7575 14.1949C21.1662 14.1949 21.2246 13.8447 21.2246 13.8447C21.2246 13.8447 21.1078 14.3117 20.6116 14.2825C20.1445 14.2533 20.1445 13.8447 20.1445 13.8447Z" fill="white"/>
<path opacity="0.4" d="M4.76222 9.87482C4.67465 10.371 4.06165 10.7213 3.68218 10.05C3.36109 9.46616 4.35355 8.82398 4.70383 9.46616C4.76221 9.58292 4.79141 9.72887 4.76222 9.87482Z" fill="#F08792"/>
<path opacity="0.4" d="M4.76222 9.87482C4.76222 9.87482 4.67464 9.17425 4.14922 9.23263C3.6238 9.29101 3.76975 10.1083 3.68218 10.05C3.36109 9.46616 4.35355 8.82398 4.70383 9.46616C4.76221 9.58292 4.79141 9.72887 4.76222 9.87482Z" fill="#F08792"/>
<path d="M3.65234 9.9624C3.65234 9.9624 3.85667 10.3127 4.26533 10.3127C4.67399 10.3127 4.73238 9.9624 4.73238 9.9624C4.73238 9.9624 4.61561 10.4294 4.11938 10.4003C3.65234 10.3711 3.65234 9.9624 3.65234 9.9624Z" fill="white"/>
<path opacity="0.7" d="M1.14062 17.3183C1.14062 17.3183 3.82611 22.3682 9.95604 23.1855C16.553 24.0904 21.2526 17.6686 21.2526 17.6686C21.2526 17.6686 17.3119 25.1121 9.95604 23.9445C2.60013 22.7769 1.14062 17.3183 1.14062 17.3183Z" fill="white"/>
<path d="M12.0596 24.0612C10.3666 24.1488 14.3948 22.6309 15.2413 22.7185C16.117 22.7769 13.7234 23.9737 12.0596 24.0612Z" fill="white"/>
<path opacity="0.4" d="M16.3496 0.913446C16.1453 0.709115 15.0069 3.7157 15.2404 4.27031C15.4739 4.82492 16.4372 3.89084 16.5248 3.24865C16.6123 2.57728 16.3496 0.913446 16.3496 0.913446Z" fill="#F08792"/>
<path d="M16.3797 1.11776C16.0878 1.2929 16.1462 2.37293 16.5548 2.28536C16.9635 2.1686 17.0803 0.709098 16.3797 1.11776Z" fill="white"/>
<defs>
<linearGradient id="paint0_linear_465_4838" x1="-0.408561" y1="10.3085" x2="21.4113" y2="18.1498" gradientUnits="userSpaceOnUse">
<stop stop-color="#F4951B"/>
<stop offset="1" stop-color="#F7A715"/>
</linearGradient>
<linearGradient id="paint1_linear_465_4838" x1="14.7034" y1="8.39005" x2="16.3703" y2="-0.124345" gradientUnits="userSpaceOnUse">
<stop stop-color="#F4951B"/>
<stop offset="1" stop-color="#F7A715"/>
</linearGradient>
<linearGradient id="paint2_linear_465_4838" x1="15.1201" y1="2.64465" x2="17.9563" y2="2.64465" gradientUnits="userSpaceOnUse">
<stop stop-color="#F4951B"/>
<stop offset="1" stop-color="#F7A715"/>
</linearGradient>
<linearGradient id="paint3_linear_465_4838" x1="16.4699" y1="1.54332" x2="17.9452" y2="1.54332" gradientUnits="userSpaceOnUse">
<stop stop-color="#FFDE0D"/>
<stop offset="1" stop-color="#FFE936"/>
</linearGradient>
<linearGradient id="paint4_linear_465_4838" x1="2.57981" y1="17.4875" x2="2.57972" y2="14.9696" gradientUnits="userSpaceOnUse">
<stop stop-color="#FDC50A"/>
<stop offset="1" stop-color="#E52716"/>
</linearGradient>
<linearGradient id="paint5_linear_465_4838" x1="21.5389" y1="12.1367" x2="21.539" y2="10.3405" gradientUnits="userSpaceOnUse">
<stop stop-color="#FDC50A"/>
<stop offset="1" stop-color="#E52716"/>
</linearGradient>
</defs>
</svg>
