<svg width="983" height="933" viewBox="0 0 983 933" fill="none" xmlns="http://www.w3.org/2000/svg">
<g clip-path="url(#clip0_214_1442)">
<mask id="mask0_214_1442" style="mask-type:luminance" maskUnits="userSpaceOnUse" x="0" y="0" width="983" height="933">
<path d="M983 0H0V933H983V0Z" fill="white"/>
</mask>
<g mask="url(#mask0_214_1442)">
<path d="M950.414 501.05C920.477 504.081 892.13 517.302 864.653 527.265C804.362 549.124 729.009 506.543 661.528 513.93C651.385 512.188 643.853 508.702 633.824 504.194C642.869 497.186 652.217 491.427 660.809 486.844C689.875 489.23 719.547 486.881 742.634 468.887C790.586 493.663 861.246 490.139 905.981 459.719C872.298 467.864 843.988 475.971 817.344 476.88C795.62 474.797 769.278 474.418 750.468 462.409C753.799 458.847 757.091 455.249 760.422 451.687C759.627 452.559 772.268 455.135 773.782 455.4C777.718 456.006 781.73 456.158 785.704 456.12C794.901 455.968 804.022 454.567 813.029 452.975C833.921 449.225 854.585 443.997 875.742 441.913C904.732 438.996 934.632 442.936 956.621 463.659C963.622 470.25 967.142 478.699 973.008 485.934C969.11 493.966 961.276 499.951 950.414 501.05ZM668.908 659.177C644.724 658.154 624.589 659.631 601.237 667.814C599.989 652.471 583.184 635.31 571.944 627.468C571.982 627.354 572.247 625.422 572.777 622.24C579.475 616.254 585.493 609.776 590.867 602.768C592.76 600.722 594.614 598.6 596.355 596.403C602.827 588.41 608.277 579.507 612.629 570.15C616.982 560.793 620.237 550.905 622.167 540.79C623.075 536.13 623.719 531.471 624.059 526.735C636.095 529.198 651.65 526.849 670.762 525.636C670.308 525.599 669.816 525.523 669.362 525.485C671.179 525.561 672.958 525.485 675.077 525.409C673.639 525.485 672.163 525.561 670.762 525.636C675.569 525.94 680.338 525.75 684.879 525.03C682.911 525.068 680.981 525.144 679.051 525.22C680.716 525.144 682.646 525.068 684.879 525.03C707.588 524.614 734.572 527.152 766.023 540.297C790.851 550.678 814.543 548.783 841.377 543.707C766.061 578.977 718.942 633.453 668.908 659.177ZM762.503 698.613C774.917 709.183 790.018 723.806 793.652 740.399C795.62 749.34 794.598 756.538 785.363 758.129C773.441 760.137 758.757 756.424 747.667 752.295C733.21 746.915 720.001 745.476 704.408 745.892C681.549 746.498 643.74 752.143 617.928 751.916C620.123 752.257 622.356 752.522 624.589 752.674C624.286 752.636 614.219 751.726 613.916 751.689C612.175 751.461 610.737 751.082 609.867 750.401C605.703 747.143 583.26 745.476 570.014 737.823C557.789 730.777 548.214 718.692 549.538 704.031C549.576 703.766 549.501 703.538 549.425 703.349C569.9 706.531 594.993 700.432 600.291 678.573C627.844 670.996 656.873 668.269 685.258 671.716C711.145 674.823 742.217 681.301 762.503 698.613ZM564.677 748.734C565.926 749.605 567.213 750.438 568.538 751.196C566.305 757.826 566.191 757.977 564.677 760.25C565.207 756.386 565.169 752.446 564.677 748.734ZM691.465 790.368C613.159 844.693 623.492 892.123 526.603 896.518C527.776 894.737 528.571 893.942 528.344 892.389C534.173 886.517 538.033 880.38 540.569 874.015C548.025 874.167 555.518 873.977 562.974 873.219C610.359 868.56 615.468 851.247 601.843 823.516C591.019 801.657 570.165 785.708 553.096 780.783C555.253 779.419 557.07 777.677 558.622 775.669C566.115 771.54 572.095 762.561 574.745 754.265C585.152 758.773 596.923 760.515 607.974 759.19C601.654 767.6 595.977 775.442 590.565 785.064C599.951 777.828 609.602 768.471 617.777 759.833C625.724 761.046 634.051 761.425 642.339 761.349C622.999 780.48 614.749 788.436 607.028 796.997C620.918 790.671 638.82 778.586 655.813 760.856C663.571 760.402 671.179 759.644 678.37 758.886C645.026 792.527 637.192 797.907 614.9 818.856C639.274 807.264 668.151 785.291 691.54 757.523C697.558 756.917 703.084 756.424 707.852 756.31C713.908 758.394 720.077 760.099 726.36 761.538C713.227 769.039 701.608 779.116 691.465 790.368ZM494.471 909.36C494.887 909.323 495.342 909.285 495.758 909.247C415.484 956.943 375.821 881.061 370.522 871.212C376.805 870.037 384.488 868.067 392.209 865.567C393.193 867.31 394.177 869.014 395.236 870.719C401.254 880.379 409.694 891.669 418.399 899.132C415.333 887.199 407.801 872.841 400.913 862.498C402.124 862.044 403.336 861.551 404.509 861.059C408.483 860.68 412.419 860.491 416.393 860.415C418.399 872.803 425.476 886.024 435.884 892.616C432.932 882.652 430.547 877.766 425.665 860.453C435.695 860.718 445.648 861.703 455.527 863.029C453.18 871.212 451.628 881.061 452.877 889.509C458.592 882.653 462.415 873.03 464.686 864.355C472.974 865.643 481.262 867.082 489.513 868.446C482.852 879.773 479.976 883.865 475.888 890.987C483.155 887.236 491.481 880.379 498.861 869.961C509.383 871.59 519.904 872.992 530.539 873.674C512.94 892.01 509.118 901.216 494.471 909.36ZM326.09 863.029C311.292 862.877 273.369 866.59 271.287 843.822C269.887 828.251 292.671 809.423 304.101 801.771C325.371 787.489 347.36 786.542 371.847 784.268C428.542 778.775 471.082 783.511 519.412 791.504C504.765 784.079 489.059 778.927 472.974 775.328C562.936 777.109 590.035 821.546 601.616 840.677C604 846.019 601.313 852.346 598.626 855.073C591.662 862.12 580.497 860.377 579.248 862.612C530.199 868.257 475.85 846.208 423.319 852.118C423.319 852.042 423.281 851.967 423.243 851.891C416.355 852.99 415.674 853.103 415.636 853.103C395.653 856.664 382.028 863.521 326.09 863.029ZM106.464 655.615C140.45 672.208 156.497 689.067 176.556 700.697C179.736 708.728 183.937 716.381 188.932 723.389C194.004 730.512 199.984 736.99 206.607 742.634C213.268 748.203 220.61 753.052 228.71 756.272C222.843 749.87 217.09 743.809 211.716 737.444C206.304 731.118 201.233 724.677 196.464 717.972C193.852 714.335 191.355 710.623 188.894 706.834C193.89 708.918 199.265 710.698 205.282 712.1C205.774 712.896 206.228 713.691 206.758 714.487C223.032 739.755 248.806 760.023 272.309 768.054C262.318 758.583 243.924 744.794 216.144 714.146C216.901 714.259 223.562 716.495 230.753 717.783C246.271 738.656 267.541 752.863 285.139 758.015C273.52 746.877 264.929 740.513 242.751 718.616C245.741 718.389 248.541 717.745 251.001 716.57C252.932 716.608 254.9 716.684 256.83 716.722C269.357 730.436 282.566 742.9 297.78 753.81C307.015 764.228 319.694 771.615 333.092 776.048C323.705 777.222 314.244 781.048 305.463 786.201C306.788 785.216 308.113 784.193 309.361 783.094C167.435 816.167 116.417 670.92 106.464 655.615ZM58.663 652.016C50.6394 633.719 49.6932 616.898 70.1684 608.185C90.568 599.472 119.634 600.305 145.446 605.647C203.276 644.061 227.158 682.93 250.661 709.827C236.582 703.235 229.429 711.57 195.593 697.666C171.031 686.491 118.196 633.719 65.0213 642.811C71.758 641.674 82.3173 646.069 88.6378 648.228C91.4006 649.175 97.2291 650.312 99.0079 652.585C102.149 656.525 100.522 662.283 101.241 666.791C101.657 669.519 106.577 684.104 109.189 684.937C87.0482 677.702 88.827 691.264 58.663 652.016ZM108.772 512.945C123.003 534.122 147.376 567.081 147.641 567.384C121.148 546.548 89.9624 527.19 59.3821 515.181C99.5756 545.336 121.224 562.459 132.767 571.892C118.764 567.99 104.685 564.24 90.6815 560.3C72.6664 549.655 52.5696 535.865 43.3349 524.576C39.2096 517.113 36.2575 508.816 34.7815 499.762C27.3257 453.051 62.5234 417.327 107.561 405.318C185.337 397.438 298.916 448.013 368.251 471.463C395.198 480.631 421.918 488.851 443.643 506.922C461.961 522.265 470.817 539.805 472.898 554.921C472.747 556.474 472.558 557.989 472.368 559.505C456.738 594.812 436.111 608.791 407.461 613.261C406.023 613.299 404.584 613.261 403.108 613.148C396.334 612.617 390.089 610.534 383.504 609.246C398.87 585.985 426.157 569.203 450.266 555.451C356.67 582.765 322.305 661.942 406.023 713.502C406.969 714.07 408.861 714.941 411.17 715.926C417.755 720.548 424.833 724.602 432.364 727.973C435.922 735.399 451.742 761.084 475.283 771.123C467.6 771.274 459.008 771.691 458.1 772.487C403.6 764.001 379 775.82 332.827 764.19C253.84 729.981 225.53 637.886 176.481 592.047C190.068 611.292 206.569 635.954 218.945 656.676C206.569 635.954 189.992 611.216 176.481 592.047C151.123 556.057 127.128 524.348 114.525 508.665C102.036 492.867 89.319 477.259 75.8455 462.181C86.2913 479.532 97.4183 496.352 108.772 512.945ZM21.6108 512.112C-18.2421 447.482 43.3728 380.049 116.645 375.882L123.041 375.314C206.872 377.549 237.604 389.52 336.649 415.281C401.708 432.177 448.601 469.985 468.281 501.77C478.916 518.135 480.127 537.115 479.9 556.891C479.749 556.284 479.446 555.83 479.067 555.451C470.06 501.353 425.4 480.441 371.847 461.272C328.853 445.74 186.056 383.838 120.505 394.332C46.4384 399.105 0.378595 454.908 21.6108 512.112ZM71.4931 354.667C79.2139 226.507 265.27 167.901 397.772 248.252C402.427 251.927 406.855 255.829 411.094 260.034C400.875 262.42 390.922 265.148 381.611 267.118C348.382 255.942 318.558 246.13 284.95 242.153C199.681 233.174 99.0836 287.31 83.0364 318.375C75.3156 333.339 72.1743 351.826 77.0188 367.093C77.1323 366.752 77.208 366.449 77.3215 366.108C77.5486 367.396 77.8135 368.722 78.1163 370.048C75.8455 364.972 73.007 360.16 71.4931 354.667ZM205.963 186.161C202.898 180.061 201.27 173.053 201.157 165.779C200.93 153.581 202.86 143.579 222.54 122.933C308.377 33.1104 441.977 23.1848 462.945 19.6617C529.707 8.52385 598.891 5.6068 685.22 39.4748C737.865 60.6139 779.875 95.6943 761.406 148.694C762.466 123.311 749.446 102.4 733.248 87.5114C691.313 48.7564 604.795 52.9993 530.993 60.273C448.071 69.0241 411.586 82.094 390.392 86.0339C298.348 103.119 326.317 90.58 287.032 102.741C250.017 114.068 231.283 131.494 221.556 143.579C220.232 145.436 218.794 146.951 217.545 149.035L215.652 152.103C203.579 176.728 216.106 198.549 234.727 201.163C230.148 201.731 225.568 202.451 221.027 203.284C214.441 198.586 209.294 192.752 205.963 186.161ZM772.836 170.818C792.781 175.364 811.894 183.016 829.947 192.752C839.03 197.526 847.924 202.792 856.705 208.285C861.133 210.974 865.523 213.74 869.913 216.581C874.19 219.422 878.921 222.302 883.614 224.726C895.309 230.901 907.495 235.485 919.833 239.539L922.823 241.622C931.112 247.305 994.392 279.165 938.151 323.224C937.546 323.716 936.94 324.133 936.297 324.588C936.335 324.474 936.373 324.36 936.41 324.247C941.406 317.693 943.753 310.646 943.942 303.411C945.456 270.452 904.278 257.837 872.827 250.298C824.875 238.857 771.511 219.65 763.866 219.081C733.588 216.846 700.132 236.167 647.411 232.606C615.241 230.257 577.924 216.013 564.412 222.302C549.425 229.045 536.633 250.26 534.702 262.875C533.075 262.496 531.485 262.004 529.82 261.663C536.935 217.339 586.212 184.342 612.705 183.888C626.519 183.622 700.359 184.759 737.032 170.022C748.273 169.189 758.151 169.151 767.159 169.719C769.127 170.06 770.981 170.439 772.836 170.818ZM316.817 200.253C309.853 197.185 302.738 194.419 295.547 191.995C288.356 189.57 281.052 187.411 273.634 185.63C266.216 183.888 258.722 182.372 250.888 181.728C257.473 186.009 264.361 189.343 271.287 192.487C278.251 195.556 285.366 198.321 292.557 200.746C293.352 201.011 294.147 201.238 294.942 201.503C265.989 197.791 246.876 201.163 235.143 192.07C229.807 187.903 215.842 169.075 230.488 151.08L232.419 148.883C236.128 145.17 248.958 129.979 290.324 111.757C330.821 94.2547 320.337 111.568 392.587 98.1946C461.241 85.5035 423.205 79.6316 532.015 71.9033C604.341 66.2586 675.531 63.2658 714.968 85.0489C715.043 85.8445 715.157 85.5793 719.244 89.4056C756.41 128.388 743.429 136.23 751.339 159.377C697.823 156.498 707.588 169.227 666.296 171.121C652.899 171.727 639.274 170.249 625.8 170.59C667.735 143.541 686.999 133.767 704.106 123.008C676.439 127.592 641.204 145.398 616.376 171.159C571.187 175.856 522.932 214.043 524.786 260.602C490.421 253.328 445.724 253.177 423.357 257.42C421.729 255.829 420.064 254.275 418.361 252.836C406.628 229.196 372.074 191.199 332.372 173.545C320.11 168.166 307.318 163.999 294.071 162.142C305.615 168.886 316.893 175.212 327.831 182.107C366.018 205.86 389.408 226.999 411.851 247.532C398.378 237.152 383.277 229.575 366.965 224.461C357.276 219.347 347.171 214.99 336.763 211.467C336.157 211.24 335.552 211.05 334.908 210.861C335.665 210.937 336.384 211.05 337.141 211.088C330.631 206.731 323.781 203.398 316.817 200.253ZM276.927 388.611C269.319 386.603 261.636 384.52 253.916 382.474C253.159 381.262 252.44 379.974 251.683 378.761C239.117 359.1 219.437 334.096 202.406 319.739C211.262 339.249 228.331 362.774 242.789 379.519C227.99 375.693 213.041 372.056 197.978 369.177C186.094 358.38 167.814 346.181 152.599 341.597C159.374 350.727 169.895 359.441 179.319 365.995C150.026 361.714 120.656 361.07 92.1576 368.04C91.4385 360.274 88.4486 352.053 89.584 344.136C90.9843 334.816 94.6933 326.065 100.181 318.488C145.862 271.929 228.71 258.784 230.375 258.518C306.069 246.661 355.081 271.816 360.871 273.104C360.758 273.142 360.644 273.217 360.531 273.255C363.634 274.43 366.662 275.793 369.614 277.271C339.563 288.106 301.83 316.594 284.912 347.659C285.404 342.885 285.102 338.377 284.496 333.945C282.755 321.292 277.381 305.381 269.433 295.645C267.692 311.177 274.656 335.498 284.761 347.924C277.419 361.448 274.012 375.39 276.927 388.611ZM739.871 435.322C746.267 418.539 742.823 397.779 727.079 387.437C714.93 374.632 701.154 370.427 684.425 364.517C676.174 361.6 553.853 286.893 398.453 331.975C375.707 338.567 344.597 346.863 329.193 366.487C327.755 368.305 310.156 397.135 315.682 398.65C296.493 393.384 302.208 395.165 283.588 390.316C279.727 369.063 296.38 346.03 311.67 330.649C355.194 285.795 396.826 278.029 456.132 265.641C518.466 265.072 601.048 304.509 622.28 307.881C651.536 312.238 707.625 302.501 738.471 349.515C744.678 358.986 749.484 369.556 751.944 380.466C752.096 380.769 752.247 381.034 752.398 381.337C755.615 406.568 762.125 427.404 745.435 448.846C725.035 463.431 701.57 474.342 676.969 478.85C692.184 471.955 728.555 464.985 739.871 435.322ZM378.47 672.739C369.803 657.055 368.554 641.712 375.896 623.717C385.775 629.892 399.437 630.726 412.343 628.339C397.091 638.719 380.59 654.403 378.47 672.739ZM428.769 707.781C428.693 708.766 428.655 709.789 428.693 710.774C428.655 707.402 412.797 704.751 417.301 695.393C417.907 694.143 422.108 692.817 425.022 692.173C426.044 695.242 427.066 698.273 428.163 701.265C428.277 703.463 428.466 705.622 428.769 707.781ZM522.856 689.218C506.014 687.589 489.362 684.596 472.444 683.422C449.774 681.869 423.432 682.096 400.838 689.18C397.242 684.634 394.214 679.634 391.868 674.141C401.67 644.099 413.403 631.105 459.122 621.444C478.31 617.391 498.369 617.012 517.709 620.081C533.945 622.657 550.712 627.506 564.45 636.825C569.9 640.5 574.404 644.743 578.302 650.009C582.844 656.07 590.602 662.51 591.322 670.352C592.154 679.596 583.033 689.787 574.669 692.855C571.49 694.03 567.478 694.295 562.52 693.348C549.387 690.923 536.368 690.544 522.856 689.218ZM450.455 690.582C455.829 690.544 461.166 690.62 466.54 690.885C471.271 712.782 481.755 732.444 492.919 744.529C488.983 731.913 483.458 717.48 477.213 695.621C476.834 694.257 476.456 692.855 476.077 691.491C477.856 691.643 479.597 691.719 481.338 691.908C483.723 692.135 486.22 692.363 488.756 692.59C489.551 696.492 490.459 700.318 491.708 704.107C493.941 710.698 496.742 717.101 500.829 722.897C500.451 716.305 499.429 707.592 497.764 693.385C506.998 694.257 516.612 695.318 525.506 697.136C524.862 700.849 526.263 704.864 527.512 708.425C529.404 713.881 531.788 718.957 534.513 724.033C535.081 725.132 536.67 724.564 536.746 723.427C537.011 717.442 536.935 711.494 536.216 705.546C535.989 703.576 535.686 701.531 535.119 699.636C536.406 700.015 537.73 700.356 538.941 700.811C540.493 701.379 542.12 701.834 543.786 702.25C542.575 743.127 558.205 787.943 492.73 764.758C479.257 759.985 465.972 754.416 455.678 744.188C446.708 735.285 438.458 708.918 438.382 708.615C438.079 708.691 437.776 708.728 437.436 708.766C436.641 704.864 434.521 695.052 432.856 691.416C437.057 691.037 434.521 691.226 441.069 690.923C445.989 708.35 453.558 721.836 460.977 730.549C458.668 720.51 456.511 713.956 450.455 690.582ZM553.21 737.861C554.724 739.869 556.464 741.725 558.319 743.506C559.53 768.509 548.1 772.146 547.343 779.495C540.72 778.548 540.644 777.942 538.752 777.601C554.951 771.312 554.837 753.81 553.21 737.861ZM610.51 526.659C605.817 541.964 603.281 558.027 596.242 572.953C590.338 585.417 583.222 597.275 575.426 608.677C580.005 587.425 589.808 552.761 608.845 528.667C609.375 527.947 609.942 527.341 610.51 526.659ZM589.921 537.38C586.099 544.881 584.698 553.443 581.065 560.868C574.745 573.787 562.861 607.465 563.693 622.354C535.573 606.556 493.828 601.101 466.805 605.003C495.644 570.112 500.716 519.12 465.594 481.616C465.367 481.35 465.102 481.085 464.875 480.858C464.988 481.009 465.102 481.199 465.215 481.35C464.761 480.706 463.891 479.759 461.09 476.956C463.588 478.282 463.437 479.305 465.594 481.616C458.895 444.679 446.708 393.688 433.575 359.1C436.679 392.74 446.557 438.58 455.451 471.538C450.455 466.879 445.421 462.333 440.766 457.825C426.574 428.01 405.682 398.953 391.716 384.861C394.706 393.195 398.491 401.037 402.503 408.803C409.164 421.494 415.863 432.329 423.432 443.202C414.5 436.648 405.076 431.041 395.388 426.192C396.485 427.631 397.545 429.033 398.68 430.586C397.583 429.071 396.523 427.669 395.388 426.192C390.43 419.714 385.207 413.425 379.719 407.364C374.118 401.264 368.327 395.279 361.817 389.899C365.299 397.627 369.538 404.75 374.004 411.758C375.48 414.069 377.032 416.304 378.584 418.577C362.044 411.834 345.051 406.719 328.436 402.136C336.687 388.687 343.462 375.352 355.459 364.176C356.897 362.85 358.373 361.6 359.849 360.388C370.182 354.099 381.611 348.795 394.025 343.605C586.288 298.031 716.444 387.323 727.911 409.03C729.085 420.358 724.354 431.798 716.065 440.853C708.42 443.429 701.002 447.066 693.773 451.195C684.766 453.354 676.099 456.726 667.848 460.931C658.651 465.553 649.984 471.198 641.961 477.6C633.937 484.04 626.481 491.238 619.972 499.194C618.95 500.406 618.004 501.694 617.057 502.906C616.225 503.664 615.392 504.422 614.56 505.179C604.568 514.499 596.052 525.258 589.921 537.38ZM921.158 318.413C917.26 325.497 911.81 331.179 905.414 335.688C905.073 335.65 904.695 335.688 904.278 335.839C887.209 342.052 871.389 346.674 853.223 343.529C856.288 341.105 859.43 338.605 862.647 336.142C868.929 332.467 875.325 328.944 881.721 325.421C888.572 321.671 895.498 317.996 902.386 314.056C899.51 314.624 896.633 315.344 893.795 316.177C874.076 320.989 863.782 325.27 819.312 355.728C801.183 368.154 782.638 381.981 766.213 397.59C767.045 367.472 747.592 338.794 725.376 321.708C677.196 284.431 638.82 307.464 601.275 288.825C588.861 281.628 568.954 272.914 548.819 266.739C549.652 255.526 554.004 244.805 564.223 238.781C585.758 226.128 603.584 246.471 666.032 242.38C683.517 241.206 699.98 242.91 717.314 239.16C758.681 230.181 783.433 237.114 825.859 249.464C846.145 255.374 866.999 258.859 887.474 264.049C911.848 270.262 935.881 291.667 921.158 318.413ZM928.273 436.761C852.012 425.964 763.109 460.211 762.617 442.936C762.352 434.185 766.553 415.849 771.17 408.008C775.674 400.355 788.012 393.081 794.711 387.247C799.594 383.004 819.804 360.198 826.957 361.335C827.26 361.411 883.917 363.684 905.111 354.932C920.363 348.53 933.269 344.477 945.759 329.096C964.833 314.245 980.351 275.263 954.312 246.812C945.759 238.175 935.54 232.303 925.473 227.227C923.353 226.242 921.272 225.294 919.152 224.347C883.917 216.354 858.067 196.503 829.001 176.046C813.256 164.984 787.672 162.938 769.278 160.778C772.344 153.164 774.123 145.019 774.274 136.798C774.463 126.153 767.272 94.482 752.247 75.4265C744.223 65.0085 734.307 56.1058 723.408 48.8321C712.47 41.4827 700.737 35.8759 688.967 30.5722C606.65 -6.06138 530.729 -4.58391 460.939 8.1829C460.636 8.25867 285.026 29.322 215.35 116.606C198.697 137.366 191.695 164.188 191.582 164.718C188.327 180.023 193.777 196.162 207.288 206.201C140.034 222.643 85.7236 275.983 74.7858 296.97C68.3518 309.245 64.7942 323.3 65.2862 337.43C62.864 350.349 63.8859 364.934 72.0608 374.518C0.340748 402.59 -30.1261 483.169 38.7933 542.343C52.7588 561.664 74.1424 575.643 97.8725 578.522C110.665 583.447 123.911 586.402 137.12 586.023C142.797 588.41 150.026 591.895 155.438 595.38C129.399 588.145 42.9186 588.069 39.9287 625.157C39.8909 625.46 40.6857 684.824 116.266 695.09C123.192 710.698 132.124 734.83 162.402 760.174C172.582 768.698 230.299 817.833 297.629 791.353C291.649 795.596 286.956 800.899 281.279 805.483C266.897 816.962 254.9 837.457 263.415 853.671C266.178 858.975 273.71 863.597 278.857 866.779C305.198 883.145 348.722 870.113 360.72 874.47C366.965 891.29 382.293 906.065 396.447 915.763C397.129 917.278 431.115 939.289 462.415 931.295C485.918 929.628 508.361 920.385 523.159 901.519C634.013 917.316 627.655 824.349 741.536 772.335C747.024 769.835 749.03 765.213 754.858 767.221C765.191 770.782 778.399 769.267 788.618 765.024C821.734 751.31 795.241 714.108 777.415 697.174C747.743 668.988 688.853 659.707 686.545 660.843C733.702 637.318 822.075 556.322 862.912 542.457C883.917 532.001 895.119 524.045 916.881 518.855C939.59 513.438 982.016 516.506 983.114 482.297C977.702 466.007 955.447 440.588 928.273 436.761Z" fill="#CBBB9D" fill-opacity="0.5"/>
</g>
<path d="M360.114 166.461L366.775 173.053C368.932 175.326 371.203 177.447 373.398 179.645L379.908 186.388C403.638 211.088 412.835 222.567 430.434 242.228C420.253 219.991 403.335 197.26 386.569 179.948C382.065 175.439 377.524 170.969 372.793 166.688C367.986 162.521 363.18 158.316 358.07 154.49C347.965 146.724 337.33 139.639 325.9 133.919L353.377 159.945C355.572 162.104 357.805 164.302 360.114 166.461Z" fill="#CBBB9D" fill-opacity="0.5"/>
<path d="M473.238 476.047C473.73 455.097 470.4 366.525 468.81 349.515C458.819 386.376 460.749 440.322 473.238 476.047Z" fill="#CBBB9D" fill-opacity="0.5"/>
<path d="M491.027 486.881C499.732 451.763 504.349 389.293 500.83 352.622C498.143 363.646 486.107 436.079 491.027 486.881Z" fill="#CBBB9D" fill-opacity="0.5"/>
<path d="M510.518 474.531C520.283 411.682 519.677 414.41 537.541 354.175C513.546 385.543 502.343 436.686 510.518 474.531Z" fill="#CBBB9D" fill-opacity="0.5"/>
<path d="M566.796 363.418C554.118 358.38 523.234 437.595 525.316 488.473C543.71 429.033 558.054 363.532 566.796 363.418Z" fill="#CBBB9D" fill-opacity="0.5"/>
<path d="M591.586 393.763C597.641 383.914 604.34 374.405 611.38 364.82C601.615 371.677 593.062 380.239 585.682 389.672C583.865 392.059 582.049 394.445 580.345 396.908L575.387 404.446C573.836 407.023 572.398 409.637 570.922 412.251L566.796 420.206C557.221 439.943 549.614 465.439 546.889 488.473C556.085 469.076 562.33 450.892 575.123 424.222C580.043 413.766 585.606 403.651 591.586 393.763Z" fill="#CBBB9D" fill-opacity="0.5"/>
<path d="M624.589 403.045C631.629 395.241 639.085 387.74 646.73 380.049C636.852 384.595 627.806 390.808 619.556 397.893C611.229 404.939 603.811 413.046 597.302 421.835C590.792 430.624 585.191 440.095 580.838 450.096C576.41 460.06 573.117 470.516 571.604 481.275C576.751 471.728 581.784 462.409 587.234 453.392C592.722 444.414 598.513 435.7 604.72 427.328C610.927 418.918 617.588 410.887 624.589 403.045Z" fill="#CBBB9D" fill-opacity="0.5"/>
<path d="M637.949 444.414C645.556 438.163 653.012 431.685 660.165 424.904C667.356 418.122 674.357 411.114 680.754 403.386C671.897 408.159 663.647 413.614 655.585 419.335C647.524 425.017 639.727 431.041 632.082 437.292C624.475 443.542 617.019 450.021 609.866 456.84C602.675 463.621 595.711 470.629 589.277 478.358C598.096 473.584 606.346 468.129 614.408 462.409C622.545 456.688 630.341 450.627 637.949 444.414Z" fill="#CBBB9D" fill-opacity="0.5"/>
<path d="M216.825 630.953C193.019 588.94 176.026 558.254 155.664 508.702C154.188 504.838 152.637 501.012 151.047 497.148C145.029 481.691 139.428 466.045 133.751 450.248C135.719 466.917 139.428 483.358 144.272 499.459C158.768 546.51 183.217 594.509 216.825 630.953Z" fill="#CBBB9D" fill-opacity="0.5"/>
<path d="M444.815 227.946C437.132 203.057 419.155 170.363 397.09 144.261C390.202 136.002 382.822 128.161 374.571 121.114C379.832 130.585 385.585 139.601 391.3 148.542C400.837 163.582 431.455 210.558 444.815 227.946Z" fill="#CBBB9D" fill-opacity="0.5"/>
<path d="M420.858 112.439C424.454 143.503 440.879 193.737 456.018 220.521C452.461 189.494 435.997 139.336 420.858 112.439Z" fill="#CBBB9D" fill-opacity="0.5"/>
<path d="M466.237 98.1188C455.451 132.252 456.246 182.978 468.395 216.922C469.038 200.897 467.411 114.03 466.237 98.1188Z" fill="#CBBB9D" fill-opacity="0.5"/>
<path d="M501.056 121.569L508.21 90.4284C486.826 123.501 477.402 176.197 486.864 215.407C489.172 199.496 490.194 171.992 501.056 121.569Z" fill="#CBBB9D" fill-opacity="0.5"/>
<path d="M516.498 195.063C560.287 105.961 546.208 135.889 572.095 90.9588C543.104 113.613 519.299 157.899 516.498 195.063Z" fill="#CBBB9D" fill-opacity="0.5"/>
<path d="M604.719 100.657C582.087 118.387 550.825 156.498 537.844 181.88C560.363 164.226 591.7 126.191 604.719 100.657Z" fill="#CBBB9D" fill-opacity="0.5"/>
<path d="M571.489 181.425C584.963 168.848 599.155 153.088 629.811 126.721C636.51 120.887 643.399 115.204 650.173 109.029C619.025 119.031 584.622 150.019 571.489 181.425Z" fill="#CBBB9D" fill-opacity="0.5"/>
<path d="M675.001 163.544C680.867 163.544 686.469 162.711 691.956 161.574C697.444 160.4 702.819 158.922 708.079 157.104C713.34 155.323 718.487 153.202 723.559 150.777C728.592 148.315 733.55 145.549 738.168 141.95C732.263 141.912 726.7 142.784 721.174 143.882C715.686 145.057 710.312 146.534 705.051 148.353C699.791 150.171 694.606 152.255 689.572 154.717C684.576 157.18 679.618 159.907 675.001 163.544Z" fill="#CBBB9D" fill-opacity="0.5"/>
<path d="M235.9 307.805C239.344 326.406 250.32 350.614 260.312 367.245C264.059 373.344 267.995 379.367 272.839 384.974C271.514 377.701 269.319 370.844 266.897 364.1C260.122 345.727 248.125 322.012 235.9 307.805Z" fill="#CBBB9D" fill-opacity="0.5"/>
<path d="M625.535 597.881C630.379 591.327 634.467 584.167 637.646 576.704C640.787 569.203 643.134 561.361 643.966 553.216C639.5 560.035 635.489 566.778 631.25 573.294C627.011 579.848 622.658 586.175 618.117 592.388C613.575 598.6 608.806 604.662 603.849 610.648C598.928 616.671 593.706 622.505 588.521 628.794C596.014 625.574 602.789 620.99 608.996 615.762C615.165 610.496 620.728 604.435 625.535 597.881Z" fill="#CBBB9D" fill-opacity="0.5"/>
<path d="M649.227 604.624C655.207 597.653 660.733 590.304 665.539 582.462C670.384 574.658 674.66 566.513 677.764 557.762C671.406 564.467 665.539 571.362 659.711 578.181L642.226 598.563L624.665 618.868C618.76 625.649 612.818 632.431 607.104 639.704C615.278 635.348 622.734 629.93 629.698 623.983C636.738 618.111 643.21 611.557 649.227 604.624Z" fill="#CBBB9D" fill-opacity="0.5"/>
<path d="M688.815 610.42C697.633 602.881 705.846 594.547 713.075 585.493C720.342 576.476 726.814 566.778 731.771 556.284C717.2 571.135 703.954 585.379 682.797 603.412C674.244 610.723 665.464 617.694 656.418 624.475C647.373 631.218 638.024 637.696 628.601 644.364C639.728 641.106 650.325 636.257 660.354 630.499C670.459 624.74 679.959 617.959 688.815 610.42Z" fill="#CBBB9D" fill-opacity="0.5"/>
<path d="M657.743 648.607C696.574 639.515 739.379 606.935 758.265 570.415C750.203 577.727 742.445 585.038 734.497 592.047C704.03 618.679 686.923 629.324 657.743 648.607Z" fill="#CBBB9D" fill-opacity="0.5"/>
<path d="M663.988 281.741C672.617 276.059 677.689 262.458 674.775 252.419C672.087 254.2 661.112 271.778 663.988 281.741Z" fill="#CBBB9D" fill-opacity="0.5"/>
<path d="M710.35 247.835C707.247 251.624 681.397 287.689 679.354 290.909C692.903 285.946 710.577 265.868 710.35 247.835Z" fill="#CBBB9D" fill-opacity="0.5"/>
<path d="M752.322 251.32C736.54 259.655 717.314 281.287 710.842 297.728C726.473 289.432 745.812 267.876 752.322 251.32Z" fill="#CBBB9D" fill-opacity="0.5"/>
<path d="M722.612 315.723C738.47 306.025 757.848 282.423 764.206 264.845C748.273 274.505 728.971 298.221 722.612 315.723Z" fill="#CBBB9D" fill-opacity="0.5"/>
<path d="M810.191 264.618C799.139 273.823 752.398 319.057 742.785 329.816C769.165 319.89 799.101 291.477 810.191 264.618Z" fill="#CBBB9D" fill-opacity="0.5"/>
<path d="M835.586 290.113C815.11 298.296 785.438 321.481 772.419 339.476C788.958 332.808 822.718 307.919 835.586 290.113Z" fill="#CBBB9D" fill-opacity="0.5"/>
<path d="M773.706 374.708C803.037 360.123 848.454 326.027 871.086 301.062C840.884 316.064 795.733 350.5 773.706 374.708Z" fill="#CBBB9D" fill-opacity="0.5"/>
<path d="M613.878 751.651C615.089 751.802 616.452 751.878 617.852 751.878C616.603 751.689 615.354 751.499 614.181 751.234C614.105 751.385 613.991 751.499 613.878 751.651Z" fill="#CBBB9D" fill-opacity="0.5"/>
<path d="M457.154 840.943C411.851 814.121 350.766 848.141 296.569 841.246C309.172 846.701 323.403 848.254 337.141 847.875C344.067 847.8 350.88 847.004 357.692 846.246C364.467 845.375 371.166 844.238 377.827 843.216C404.358 838.783 430.358 834.124 457.154 840.943Z" fill="#CBBB9D" fill-opacity="0.5"/>
<path d="M411.283 820.144C391.186 814.765 356.783 816.28 337.33 823.213C357.313 828.555 391.678 827.191 411.283 820.144Z" fill="#CBBB9D" fill-opacity="0.5"/>
<path d="M566.872 714.6C595.333 755.553 660.998 739.149 699.072 738.353C714.097 738.24 729.236 739.945 743.542 746.082C731.128 736.497 714.967 732.33 699.337 731.118C657.667 727.329 603.811 747.218 566.872 714.6Z" fill="#CBBB9D" fill-opacity="0.5"/>
<path d="M677.84 719.601C671.027 718.692 664.48 718.427 657.97 718.086L638.554 717.328L619.139 716.76C612.591 716.684 606.044 716.495 599.231 716.911C620.766 728.883 656.115 729.868 677.84 719.601Z" fill="#CBBB9D" fill-opacity="0.5"/>
<path d="M417.188 645.235C433.045 642.659 451.288 637.962 485.123 634.552C492.73 633.719 500.375 633.15 508.323 632.165C500.867 629.286 492.957 627.885 485.047 627.278C458.63 625.309 432.667 633.491 417.188 645.235Z" fill="#CBBB9D" fill-opacity="0.5"/>
<path d="M429.753 658.116C441.637 658.381 465.708 655.274 477.024 653.57C482.247 652.736 487.47 651.903 492.957 650.388C474.602 642.053 445.459 645.728 429.753 658.116Z" fill="#CBBB9D" fill-opacity="0.5"/>
<path d="M678.786 214.232C652.141 217.793 624.173 219.195 598.285 211.694C621.94 226.545 652.028 226.431 679.921 223.438C705.165 220.445 731.317 213.967 761.33 212.414C747.743 209.232 706.717 210.823 678.786 214.232Z" fill="#CBBB9D" fill-opacity="0.5"/>
<path d="M397.318 313.563C383.845 315.458 370.333 318.602 357.579 324.057C344.824 329.55 332.865 337.241 323.176 347.318C313.487 357.243 306.069 369.821 303.685 383.27C309.702 371.109 318.218 360.956 328.096 352.584C333.092 348.454 338.315 344.628 343.916 341.332C349.442 337.998 355.194 335.006 361.212 332.581C373.172 327.543 385.813 323.792 398.718 320.686C411.624 317.541 424.833 314.965 437.928 311.48C424.303 311.139 410.829 311.707 397.318 313.563Z" fill="#CBBB9D" fill-opacity="0.5"/>
<path d="M374.307 76.6766C378.546 76.0326 519.336 50.1201 532.999 47.1652C485.236 43.7936 418.55 55.9921 374.307 76.6766Z" fill="#CBBB9D" fill-opacity="0.5"/>
<path d="M154.491 658.343C163.536 663.116 172.733 667.625 182.119 671.716C191.505 675.883 201.005 679.747 210.959 682.778C202.822 676.3 194.23 670.655 185.488 665.314C176.783 659.896 167.851 654.896 158.806 650.16C149.76 645.425 140.563 640.917 131.177 636.787C121.791 632.62 112.292 628.756 102.338 625.687C110.513 632.128 119.104 637.772 127.809 643.152C136.514 648.569 145.446 653.57 154.491 658.343Z" fill="#CBBB9D" fill-opacity="0.5"/>
<path d="M607.709 265.527C606.044 262.951 604.151 260.526 601.994 258.329C599.837 256.17 597.452 254.124 594.538 252.646C595.446 255.791 596.733 258.518 598.058 261.208C599.42 263.86 600.896 266.398 602.486 268.861C604.076 271.323 605.741 273.748 607.595 276.096C609.45 278.445 611.418 280.756 613.878 282.916C613.727 279.658 612.894 276.627 611.834 273.748C610.774 270.869 609.374 268.103 607.709 265.527Z" fill="#CBBB9D" fill-opacity="0.5"/>
<path d="M626.86 268.292C625.989 265.754 624.929 263.33 623.643 260.943C622.318 258.594 620.842 256.283 618.798 254.162C618.458 257.117 618.685 259.844 619.101 262.496C619.517 265.186 620.199 267.762 621.031 270.262C621.902 272.801 622.924 275.225 624.248 277.612C625.573 279.961 627.049 282.272 629.13 284.393C629.471 281.476 629.244 278.71 628.828 276.059C628.374 273.407 627.692 270.793 626.86 268.292Z" fill="#CBBB9D" fill-opacity="0.5"/>
<path d="M645.519 260.867C644.762 258.291 643.853 255.715 642.339 253.215C641.318 255.98 640.939 258.67 640.712 261.36C640.523 264.049 640.561 266.701 640.826 269.315C641.09 271.929 641.545 274.543 642.264 277.157C643.021 279.733 643.891 282.309 645.443 284.81C646.465 282.044 646.881 279.354 647.108 276.665C647.297 273.975 647.26 271.323 646.995 268.709C646.692 266.095 646.238 263.481 645.519 260.867Z" fill="#CBBB9D" fill-opacity="0.5"/>
<path d="M336.346 623.68C335.854 636.901 337.444 650.198 341.72 662.548C341.796 649.516 342.591 636.863 344.521 624.437C346.527 612.049 349.517 599.926 353.642 588.182C357.73 576.438 362.915 565.073 369.084 554.125C375.291 543.214 382.519 532.834 390.581 522.568C379.567 529.576 370.068 539.009 362.196 549.655C354.285 560.262 348.079 572.196 343.688 584.735C339.336 597.237 336.724 610.458 336.346 623.68Z" fill="#CBBB9D" fill-opacity="0.5"/>
<path d="M326.506 648.115C326.544 635.613 326.62 623.452 327.301 611.367C328.058 599.282 329.269 587.311 331.124 575.454C332.978 563.558 335.438 551.814 338.428 540.07C341.456 528.364 345.089 516.734 348.874 504.838C341.229 514.726 335.287 525.864 330.669 537.532C325.976 549.162 322.722 561.399 320.753 573.825C318.823 586.25 318.18 598.904 319.126 611.443C319.959 623.907 322.23 636.371 326.506 648.115Z" fill="#CBBB9D" fill-opacity="0.5"/>
<path d="M302.624 653.57L301.3 611.14C300.959 597.085 300.959 583.106 301.224 569.127L301.451 558.633C301.602 555.148 301.829 551.663 301.867 548.139L302.359 537.646C302.662 534.16 302.813 530.637 302.965 527.114L306.03 484.76C300.808 498.133 297.288 512.036 294.828 526.129C293.541 533.175 292.746 540.297 291.951 547.42C291.611 550.981 291.422 554.58 291.157 558.141L290.702 568.9C290.4 583.22 291.232 597.578 293.087 611.784C294.979 625.953 297.931 640.007 302.624 653.57Z" fill="#CBBB9D" fill-opacity="0.5"/>
<path d="M277.154 644.402C274.088 629.968 271.288 615.762 269.32 601.48C267.352 587.198 266.216 572.915 265.8 558.595L265.611 547.836C265.686 544.237 265.838 540.676 265.8 537.077L266.254 526.318C266.595 522.757 266.784 519.158 267.011 515.559C268.222 501.202 270.228 486.844 272.574 472.258C266.103 485.556 261.712 499.838 258.912 514.423C258.268 518.098 257.625 521.734 257.095 525.409L255.884 536.509C255.619 540.222 255.543 543.934 255.316 547.685L255.278 558.86C255.619 573.749 257.663 588.599 261.22 603.033C264.816 617.467 269.963 631.484 277.154 644.402Z" fill="#CBBB9D" fill-opacity="0.5"/>
<path d="M235.976 581.098C238.814 592.766 242.751 604.207 248.352 614.853L244.075 579.659C242.864 568.028 241.842 556.474 241.237 544.843C240.593 533.251 240.366 521.621 240.291 509.953C240.291 498.247 240.669 486.503 240.783 474.493C236.392 485.707 233.743 497.489 232.153 509.384C230.488 521.28 230.11 533.365 230.753 545.412C231.359 557.497 233.062 569.468 235.976 581.098Z" fill="#CBBB9D" fill-opacity="0.5"/>
<path d="M192.604 533.137C194.609 542.874 197.221 552.458 200.211 561.891C203.352 571.286 206.872 580.53 210.732 589.622C214.744 598.638 218.869 607.579 223.487 616.254C232.57 633.681 242.675 650.463 253.689 666.678C246.536 648.38 238.474 630.612 230.905 612.731C227.196 603.753 223.335 594.888 219.929 585.834C216.409 576.855 213.079 567.801 210.165 558.633C207.099 549.541 204.488 540.26 202.255 530.978C199.908 521.697 198.205 512.226 196.691 502.755C193.928 483.775 193.133 464.454 194.685 444.868C188.819 463.659 187.229 483.813 188.554 503.626C189.159 513.514 190.711 523.363 192.604 533.137Z" fill="#CBBB9D" fill-opacity="0.5"/>
</g>
<defs>
<clipPath id="clip0_214_1442">
<rect width="983" height="933" fill="white"/>
</clipPath>
</defs>
</svg>
