<?xml version="1.0" encoding="UTF-8"?><svg id="Laag_1" xmlns="http://www.w3.org/2000/svg" viewBox="0 0 27 27"><defs><style>.cls-1{fill:#fff;stroke-width:0px;}</style></defs><g id="_10.Linkedin"><path class="cls-1" d="m27,27v-9.89c0-4.86-1.05-8.57-6.72-8.57-2.73,0-4.56,1.49-5.3,2.9h-.07v-2.46h-5.37v18.02h5.6v-8.94c0-2.36.44-4.62,3.34-4.62s2.9,2.67,2.9,4.76v8.77h5.6v.03Z"/><path class="cls-1" d="m.44,8.98h5.6v18.02H.44V8.98Z"/><path class="cls-1" d="m3.24,0C1.45,0,0,1.45,0,3.24s1.45,3.27,3.24,3.27,3.24-1.48,3.24-3.27S5.03,0,3.24,0Z"/></g></svg>