<svg width="27" height="27" viewBox="0 0 27 27" fill="none" xmlns="http://www.w3.org/2000/svg">
<circle cx="13.5" cy="13.5" r="13.5" fill="white"/>
<g clip-path="url(#clip0_394_147)">
<path d="M13.5 0C6.0453 0 0 6.0453 0 13.5C0 20.9547 6.0453 27 13.5 27C20.9547 27 27 20.9547 27 13.5C27 6.0453 20.9547 0 13.5 0ZM13.7861 21.3601C13.7859 21.3601 13.7863 21.3601 13.7861 21.3601H13.7828C12.4305 21.3595 11.1016 21.0204 9.92148 20.3769L5.63825 21.5002L6.78461 17.3144C6.07743 16.0895 5.70541 14.6999 5.70602 13.2763C5.70788 8.82271 9.33254 5.19949 13.7861 5.19949C15.9474 5.20031 17.9762 6.04159 19.5016 7.56821C21.0272 9.09503 21.8668 11.1245 21.866 13.2827C21.8642 17.7365 18.2391 21.3601 13.7861 21.3601Z" fill="#CBBB9D"/>
<path d="M13.7888 6.56372C10.0844 6.56372 7.07172 9.57514 7.07007 13.2768C7.06966 14.5454 7.42479 15.7807 8.09695 16.8496L8.25659 17.1036L7.57805 19.5811L10.1198 18.9145L10.3651 19.0599C11.3961 19.6717 12.5781 19.9953 13.7832 19.9957H13.7859C17.4874 19.9957 20.5 16.9841 20.5017 13.2822C20.5023 11.4882 19.8044 9.80153 18.5365 8.53261C17.2686 7.26369 15.5823 6.56434 13.7888 6.56372ZM17.7389 16.1632C17.5706 16.6345 16.7641 17.0649 16.3762 17.123C16.0283 17.1749 15.5883 17.1965 15.1046 17.043C14.8113 16.9499 14.4354 16.8257 13.9536 16.6179C11.9284 15.7436 10.6057 13.7051 10.5048 13.5704C10.4039 13.4357 9.68042 12.4759 9.68042 11.4824C9.68042 10.4891 10.202 10.0007 10.387 9.79885C10.5722 9.59677 10.7909 9.5463 10.9254 9.5463C11.06 9.5463 11.1947 9.54754 11.3123 9.55331C11.4363 9.55949 11.6028 9.50613 11.7665 9.89979C11.9348 10.3039 12.3386 11.2972 12.389 11.3982C12.4395 11.4993 12.4731 11.6172 12.4059 11.7519C12.3386 11.8866 12.1149 12.1773 11.9012 12.4422C11.8116 12.5532 11.6948 12.6521 11.8127 12.8541C11.9303 13.056 12.3357 13.7171 12.9357 14.2522C13.707 14.9398 14.3575 15.1528 14.5594 15.254C14.761 15.3549 14.8789 15.338 14.9967 15.2035C15.1143 15.0688 15.5014 14.6142 15.6359 14.4121C15.7704 14.21 15.9051 14.2438 16.0901 14.3111C16.2753 14.3783 17.2678 14.8667 17.4697 14.9676C17.6715 15.0688 17.806 15.1193 17.8565 15.2035C17.9072 15.2878 17.9072 15.6917 17.7389 16.1632Z" fill="#CBBB9D"/>
</g>
<defs>
<clipPath id="clip0_394_147">
<rect width="27" height="27" fill="white"/>
</clipPath>
</defs>
</svg>
