<svg width="220" height="326" viewBox="0 0 220 326" fill="none" xmlns="http://www.w3.org/2000/svg">
<path opacity="0.15" d="M266.473 141.96C269.114 119.955 251.044 101.877 243.577 97.9089C233.504 92.4841 207.338 89.4211 205.145 88.5195C203.939 88.0236 203.507 87.2045 203.623 86.6108C203.874 85.6879 204.951 85.8742 204.951 85.8742C235.322 86.8174 219.65 68.8279 218.681 55.6013C217.712 42.3746 194.371 43.0388 194.371 43.0388C194.371 43.0388 73.7283 43.4592 58.5839 105.221C44.7026 161.729 96.2709 187.168 105.06 191.039C105.937 191.4 106.679 192.089 107.22 192.954C112.999 202.899 98.7683 201.665 80.3902 192.44C73.4903 188.961 68.99 192.114 67.5716 193.07C67.3717 193.244 67.1268 193.528 67.101 193.902C66.8191 206.743 87.3896 216.869 92.3871 219.053C92.9353 219.278 93.2578 220.052 92.9225 220.556C89.3577 227.043 71.0306 261.327 76.6614 272.878C81.4729 282.682 86.9147 280.045 89.2228 278.172C89.932 277.694 90.293 276.816 90.3896 275.958C92.3014 251.986 121.212 233.728 127.943 229.825C128.807 229.282 129.864 229.204 130.787 229.455C177.504 242.38 173.145 238.022 184.467 235.109C195.944 232.132 194.784 238.069 194.784 238.069C194.784 238.069 193.624 244.006 198.461 244.712C203.297 245.418 204.005 240.578 204.005 240.578C212.308 220.388 151.456 207.552 141.59 205.676C140.887 205.515 140.52 204.851 140.79 204.192L142.776 199.364C143.453 197.718 144.981 196.807 146.741 196.89C177.801 199.271 231.112 184.633 242.943 177.055C255.193 169.392 263.832 163.965 266.473 141.96ZM156.951 170.814C156.093 170.718 155.552 169.854 155.758 169.04C156.306 167.085 157.614 163.903 160.051 162.339C163.597 159.949 162.041 139.425 141.8 140.338C141.272 140.378 140.762 140.681 140.427 141.185C138.409 144.845 130.448 159.531 125.013 165.891C123.988 167.137 122.376 167.629 120.861 167.262C98.4855 161.525 94.034 144.3 93.1883 136.384C92.9042 133.958 93.8969 131.544 95.7408 129.865C107.778 119.293 158.344 79.537 211.427 98.7995C225.355 103.886 235.422 116.492 236.398 131.261C237.865 152.004 226.423 177.958 156.951 170.814Z" fill="white"/>
</svg>
