<svg width="26" height="32" viewBox="0 0 26 32" fill="#ffffff" xmlns="http://www.w3.org/2000/svg">
<path d="M25.0117 8.17505C24.295 5.5948 21.4424 4.40501 20.4246 4.30467C19.0485 4.16132 15.9808 5.02141 15.6941 5.02141C15.5365 5.02141 15.4504 4.94973 15.4361 4.87806C15.4218 4.76338 15.5508 4.73471 15.5508 4.73471C18.9911 3.44458 16.4109 2.15445 15.6941 0.720979C14.9774 -0.712497 12.3971 0.434284 12.3971 0.434284C12.3971 0.434284 -1.07752 6.02484 0.0692558 13.6223C1.11569 20.5746 8.05372 21.0477 9.21483 21.0763C9.32951 21.0763 9.44419 21.1193 9.54453 21.191C10.6483 22.0368 8.99981 22.5528 6.5199 22.3665C5.58814 22.2948 5.22977 22.8538 5.11509 23.0259C5.10076 23.0545 5.08642 23.0975 5.10075 23.1405C5.65981 24.5883 8.42642 24.7747 9.08582 24.789C9.15749 24.789 9.22917 24.8607 9.21483 24.9324C9.11449 25.8211 8.64144 30.4943 9.80256 31.5264C10.7917 32.4008 11.279 31.8561 11.4511 31.5407C11.5084 31.4547 11.5084 31.34 11.4797 31.2397C10.591 28.4731 12.9849 25.1044 13.5583 24.359C13.6299 24.2587 13.7446 24.2013 13.8593 24.187C19.6792 23.4846 18.9911 23.1979 20.1236 22.3521C21.2704 21.492 21.4137 22.2088 21.4137 22.2088C21.4137 22.2088 21.5571 22.9255 22.1304 22.7822C22.7038 22.6388 22.5605 22.0654 22.5605 22.0654C22.5605 19.4278 15.1638 20.7896 13.974 21.0333C13.888 21.0477 13.8163 20.9903 13.8163 20.9043V20.2736C13.8163 20.0586 13.9453 19.8865 14.146 19.8149C17.7297 18.6538 23.0192 14.5684 23.994 13.1779C25.0117 11.7587 25.7285 10.7553 25.0117 8.17505ZM14.0886 16.4319C13.9883 16.4605 13.888 16.3889 13.8736 16.2885C13.845 16.0448 13.845 15.6291 14.0456 15.3424C14.3323 14.9124 13.2142 12.6905 10.9923 13.7226C10.935 13.7513 10.892 13.8086 10.8777 13.8803C10.8203 14.382 10.6053 16.3889 10.2899 17.3493C10.2326 17.5356 10.0749 17.6647 9.88856 17.6933C7.12196 18.0804 5.83183 16.3602 5.37312 15.5144C5.22977 15.2564 5.22977 14.9411 5.35878 14.6687C6.21887 12.9342 10.0462 6.16819 16.8696 5.88149C18.6614 5.80982 20.3673 6.75591 21.1557 8.3614C22.2738 10.612 22.1878 14.038 14.0886 16.4319Z" fill="#F1BFB5"/>
</svg>
