<svg width="15" height="21" viewBox="0 0 15 21" fill="none" xmlns="http://www.w3.org/2000/svg"><path d="M4.726 20.685a6.494 6.494 0 0 1-2.501-1.946c-2.523-3.164-2.245-8.36.021-9.386.128-.043.235-.107.342-.193.92-.556 1.71-1.625 2.502-2.673 1.454-1.924 3.015-3.848 5.794-2.865 4.47 1.604 1.668 7.078 3.058 9.9.214.45.278.962.171 1.54-.47 2.95-4.96 6.863-9.387 5.623Z" fill="url(#a)"/><path opacity=".2" d="M4.73 20.685C-.296 18.505-.596 10.657 2.25 9.353c.127-.043.234-.107.341-.193-1.497 1.326 2.117 5.324 5.816 7.078 3.7 1.753 5.73-1.176 5.73-1.176-.491 2.95-4.981 6.863-9.408 5.623Z" fill="#5F5373"/><path opacity=".2" d="M.902 11.191c1.839-2.138 3.528 2.031 6.586 4.448 3.057 2.395 6.222-.364 6.543-.15.32.214-4.512 6.864-9.451 4.276C-.36 17.178.902 11.191.902 11.191Z" fill="#5F5373"/><path opacity=".2" d="M13.58 16.173c.214-.705-1.176.513-2.844 1.09-1.668.578-2.288 2.374-1.967 2.481.3.107 2.373-.62 3.507-1.732 1.112-1.112 1.304-1.839 1.304-1.839Z" fill="#899C90"/><path opacity=".5" d="M9.536 3.836c-.962.32 1.69 1.326 2.246.983.556-.342-1.134-1.347-2.246-.983Z" fill="#5E7660"/><path opacity=".4" d="M9.9 3.75c-.534.065.75.428 1.327.727.556.321.77.236.727 0-.043-.213-1.22-.812-2.053-.727Z" fill="#627862"/><path opacity=".2" d="M4.125 8.71c-.47 1.711 4.533 3.443 5.816 3.38 1.283-.065 2.138-3.85 1.497-4.876-.642-1.026-2.502-1.604-3.186-2.31-.663-.705-3.464 1.412-4.127 3.807Z" fill="#5F5373"/><path opacity=".2" d="M4 12.175C.943 9.032-.468 14.569 2.418 17.69c2.908 3.122 6.35.236 6.372-.556.043-.77-2.373-2.48-4.79-4.96Z" fill="#667668"/><path opacity=".2" d="M8.084 4.798c-.877-.256-3.122 3.977-2.523 5.795.599 1.817 5.388-1.24 5.517-3.357.064-.855-1.454-1.39-2.224-1.925l-.77-.513Z" fill="#5F5373"/><path opacity=".5" d="M3.94 8.775c-.62.45-.492 5.046 4.04 7.099 4.534 2.053 5.945-1.048 5.881-2.224-.086-1.154-1.818-.32-5.046-1.582-3.229-1.24-4.576-3.528-4.875-3.293Z" fill="#ACB1AA"/><path opacity=".5" d="M5.924 10.806c-1.86-.256-.47 4.683 2.93 5.56 3.378.877 4.768-2.63 4.575-3.378-.192-.749-1.946.064-3.763-.6-1.839-.662-3.058-1.475-3.742-1.582ZM8.58 4.028c-.834.107 1.154 2.181 2.758 2.716 1.604.534 1.56-1.561 1.155-1.903-.407-.343-.663.427-1.818.042-1.155-.406-1.753-.898-2.095-.855Z" fill="#ACB1AA"/><path d="M.578 14.933c.342-.577.556 2.545 2.352 3.999 1.882 1.496 1.775 1.753 1.775 1.753S1.519 19.637.578 14.933Z" fill="#fff"/><path opacity=".2" d="M4.022 12.645C2.12 10.23.173 16.238 2.825 18.483c2.651 2.245 5.56-.171 5.965-1.326.278-.77-3.057-2.352-4.768-4.512Z" fill="#5F5373"/><path d="M11.568 5.546c-.364.022.085.62.257.513.17-.106.427-.555-.257-.513ZM7.396 20.856c-1.69-.599 2.63-1.283 3.57-1.732.92-.449-1.475 1.582-3.57 1.732Z" fill="#fff"/><path d="M12.295 1.762c-.32.406-.598.877-.812 1.326-.407.833-.62 1.56-.62 1.56s-.898-.042-.941-.449c.256 0 .513-.427.727-.983.342-.898.599-2.096.641-2.352.086-.406 1.198-.855 1.583-.77.406.064.363.45-.578 1.668Z" fill="url(#b)"/><path d="M12.297 1.762c-.32.406-.598.876-.812 1.325-.535.428-.94.685-.877.3.022-.064.022-.128.043-.193.342-.898.599-2.095.642-2.352.085-.406 1.197-.855 1.582-.77.406.086.363.471-.578 1.69Z" fill="url(#c)"/><path d="M11.333.757c-.257.363 1.325.15 1.625-.45.3-.598-1.112-.256-1.625.45Z" fill="url(#d)"/><path d="M8.53 3.644c-.792.406 0 .834.278.834.256-.022.47-.706.513-.834.021-.107-.578-.107-.791 0ZM2.927 9.224c-.513.535.834.578 1.283-.812.47-1.369-.855.385-1.283.812ZM9.557 16.11c-1.283-.856-.962-2.545 0-2.909.962-.363 2.202 1.54 2.395 2.416.214.899-2.01.749-2.395.492Z" fill="#fff"/><path d="M7.727 13.886c-.492-.15-1.155.812-.812 1.582.342.791 1.903-1.24.812-1.582Z" fill="url(#e)"/><path opacity=".5" d="M6.955 14.549c-.043.577.684.62.962.32.278-.3.278-.983-.256-1.005-.535 0-.706.684-.706.684Z" fill="#77907E"/><path d="M6.805 15.062c.15-.342.577.085.855.107.257.021-.192.577-.492.492-.3-.086-.363-.6-.363-.6Z" fill="#fff"/><path d="M3.995 11.897c-.47.214-.385 1.048.064 1.261.449.214.748-1.625-.064-1.261Z" fill="url(#f)"/><path opacity=".5" d="M3.825 12.025c-.192.278.022.727.214.748.193.022.578-.534.385-.79-.192-.279-.513-.086-.599.042Z" fill="#77907E"/><path d="M3.933 13.073c-.214-.385.214-.171.428-.3.235-.149-.064.706-.428.3Z" fill="#fff"/><path opacity=".4" d="M12.661 10.807c-.021.021-.043.042-.043.064-.406.47-1.475.855-1.86.235a.75.75 0 0 1-.128-.3c-.15-.577.171-1.175.834-1.26.428-.044 1.56.769 1.197 1.26Z" fill="#93A49B"/><path opacity=".4" d="M12.661 10.807c-.021.021-.043.042-.043.064.022-.171-.256-1.24-1.133-1.198-.834.043-.834 1.09-.855 1.134-.15-.578.171-1.176.834-1.262.428-.043 1.56.77 1.197 1.262Z" fill="#93A49B"/><path d="M10.758 11.085s.235.385.834.3c.598-.086 1.005-.557 1.005-.557s-.278.556-.984.706c-.684.15-.855-.45-.855-.45Z" fill="#fff"/><path opacity=".4" d="M10.548 18.397c-.064.364-.513.62-.79.129-.236-.45.49-.898.748-.428a.512.512 0 0 1 .042.3Z" fill="#93A49B"/><path opacity=".4" d="M10.548 18.397s-.064-.513-.449-.47c-.385.043-.278.641-.342.599-.235-.45.492-.898.748-.428a.512.512 0 0 1 .043.3Z" fill="#93A49B"/><path d="M9.735 18.461s.15.257.449.257c.299 0 .342-.257.342-.257s-.086.343-.45.321c-.363 0-.341-.32-.341-.32ZM11.658.842c.042.407.705.257.876-.15.171-.406-.92-.235-.877.15Z" fill="#fff"/><defs><linearGradient id="a" x1="1.269" y1="9.816" x2="14.39" y2="14.507" gradientUnits="userSpaceOnUse"><stop stop-color="#8889B1"/><stop offset="1" stop-color="#8D88B1"/></linearGradient><linearGradient id="b" x1="9.941" y1="2.351" x2="13.123" y2="2.351" gradientUnits="userSpaceOnUse"><stop stop-color="#8889B1"/><stop offset="1" stop-color="#8D88B1"/></linearGradient><linearGradient id="c" x1="10.613" y1="1.82" x2="13.125" y2="1.82" gradientUnits="userSpaceOnUse"><stop stop-color="#8889B1"/><stop offset="1" stop-color="#8D88B1"/></linearGradient><linearGradient id="d" x1="11.313" y1=".469" x2="13.015" y2=".469" gradientUnits="userSpaceOnUse"><stop stop-color="#9E88B1"/><stop offset="1" stop-color="#A390B1"/></linearGradient><linearGradient id="e" x1="7.46" y1="15.654" x2="7.46" y2="13.87" gradientUnits="userSpaceOnUse"><stop stop-color="#9688B1"/><stop offset="1" stop-color="#7FA59F"/></linearGradient><linearGradient id="f" x1="4.509" y1="12.91" x2="3.78" y2="12.054" gradientUnits="userSpaceOnUse"><stop stop-color="#9688B1"/><stop offset="1" stop-color="#7FA59F"/></linearGradient></defs></svg>