<svg width="15" height="21" viewBox="0 0 15 21" fill="none" xmlns="http://www.w3.org/2000/svg"><path d="M5 20.685a6.494 6.494 0 0 1-2.502-1.946c-2.502-3.186-2.245-8.36.021-9.386.128-.043.235-.107.342-.193.92-.556 1.71-1.625 2.502-2.673 1.454-1.924 3.015-3.848 5.795-2.865 4.468 1.604 1.667 7.078 3.057 9.9.214.45.278.962.171 1.54-.47 2.95-4.96 6.863-9.387 5.623Z" fill="url(#a)"/><path opacity=".2" d="M5.003 20.685c-5.025-2.18-5.324-10.028-2.48-11.332.128-.043.235-.107.342-.193-1.497 1.326 2.116 5.324 5.816 7.078 3.699 1.753 5.73-1.176 5.73-1.176-.492 2.95-4.982 6.863-9.408 5.623Z" fill="#E02774"/><path opacity=".2" d="M1.199 11.191c1.839-2.138 3.528 2.031 6.586 4.448 3.057 2.395 6.222-.364 6.543-.15.32.214-4.512 6.864-9.451 4.276-4.94-2.587-3.678-8.574-3.678-8.574Z" fill="#E02774"/><path opacity=".2" d="M13.853 16.173c.214-.705-1.176.513-2.843 1.09-1.668.578-2.288 2.374-1.968 2.481.3.107 2.374-.62 3.507-1.732 1.112-1.112 1.304-1.839 1.304-1.839Z" fill="#EA6F8B"/><path opacity=".5" d="M9.818 3.836c-.962.32 1.689 1.326 2.245.983.556-.342-1.133-1.347-2.245-.983Z" fill="#C41874"/><path opacity=".4" d="M10.174 3.75c-.534.065.749.428 1.326.727.556.321.77.236.727 0-.021-.213-1.219-.812-2.053-.727Z" fill="#C62792"/><path opacity=".2" d="M4.422 8.71c-.47 1.711 4.533 3.443 5.816 3.38 1.283-.065 2.138-3.85 1.496-4.876-.641-1.026-2.501-1.604-3.186-2.31-.684-.705-3.485 1.412-4.126 3.807Z" fill="#E02774"/><path opacity=".2" d="M4.297 12.175C1.24 9.032-.172 14.569 2.715 17.69c2.908 3.122 6.35.236 6.372-.556.021-.77-2.395-2.48-4.79-4.96Z" fill="#C45592"/><path opacity=".2" d="M8.358 4.798c-.877-.256-3.122 3.977-2.524 5.795.6 1.817 5.389-1.24 5.517-3.357.064-.855-1.454-1.39-2.224-1.925-.77-.534-.77-.513-.77-.513Z" fill="#E02774"/><path opacity=".5" d="M4.213 8.775c-.62.45-.492 5.046 4.041 7.099s5.945-1.048 5.88-2.224c-.085-1.154-1.817-.32-5.046-1.582-3.229-1.24-4.576-3.528-4.875-3.293Z" fill="#FFD8FF"/><path opacity=".5" d="M6.22 10.806c-1.86-.256-.47 4.683 2.93 5.56 3.379.898 4.768-2.609 4.576-3.378-.192-.77-1.946.064-3.763-.6-1.839-.662-3.08-1.475-3.742-1.582ZM8.853 4.028c-.834.107 1.155 2.181 2.758 2.716 1.604.534 1.561-1.561 1.155-1.903-.406-.343-.663.427-1.818.042-1.154-.406-1.753-.898-2.095-.855Z" fill="#FFD8FF"/><path d="M.852 14.933c.342-.577.555 2.545 2.352 3.999 1.881 1.496 1.774 1.753 1.774 1.753S1.792 19.637.852 14.933Z" fill="#fff"/><path opacity=".2" d="M4.319 12.645C2.416 10.23.47 16.238 3.12 18.483c2.652 2.245 5.56-.171 5.966-1.326.257-.77-3.058-2.352-4.768-4.512Z" fill="#E02774"/><path d="M11.865 5.546c-.364.022.085.62.256.513.15-.106.428-.555-.256-.513ZM7.677 20.856c-1.69-.599 2.63-1.283 3.57-1.732.92-.449-1.453 1.582-3.57 1.732Z" fill="#fff"/><path d="M12.569 1.762c-.321.406-.599.877-.813 1.326a11.22 11.22 0 0 0-.62 1.56s-.898-.042-.94-.449c.256 0 .513-.427.726-.983.342-.898.599-2.096.642-2.352.085-.406 1.197-.855 1.582-.77.406.064.364.45-.577 1.668Z" fill="url(#b)"/><path d="M12.57 1.762c-.32.406-.598.876-.812 1.325-.534.428-.94.685-.876.3.021-.064.021-.128.042-.193.343-.898.6-2.095.642-2.352.085-.406 1.197-.855 1.582-.77.407.086.364.471-.577 1.69Z" fill="url(#c)"/><path d="M11.63.757c-.257.363 1.325.15 1.625-.45.299-.598-1.134-.256-1.625.45Z" fill="url(#d)"/><path d="M8.826 3.644c-.79.406 0 .833.278.833.257-.02.47-.705.514-.833.042-.129-.6-.107-.792 0ZM3.224 9.224c-.513.535.834.578 1.283-.812.45-1.369-.877.385-1.283.812ZM9.838 16.11c-1.283-.856-.962-2.545 0-2.909.963-.363 2.203 1.54 2.395 2.416.214.899-2.01.749-2.395.492Z" fill="#fff"/><path d="M7.993 13.886c-.492-.15-1.155.812-.813 1.582.342.791 1.925-1.24.813-1.582Z" fill="url(#e)"/><path opacity=".5" d="M7.244 14.549c-.043.577.684.62.962.32.278-.3.278-.983-.256-1.005-.556 0-.706.684-.706.684Z" fill="#DE376D"/><path d="M7.094 15.062c.15-.342.577.085.855.107.257.021-.192.577-.492.492-.32-.086-.363-.6-.363-.6Z" fill="#fff"/><path d="M4.3 11.897c-.471.214-.386 1.048.064 1.261.449.214.748-1.625-.065-1.261Z" fill="url(#f)"/><path opacity=".5" d="M4.107 12.025c-.193.278.021.727.213.748.193.022.578-.534.385-.79-.192-.279-.513-.086-.598.042Z" fill="#DE376D"/><path d="M4.215 13.073c-.214-.385.213-.171.427-.3.235-.149-.064.706-.427.3Z" fill="#fff"/><path opacity=".4" d="M12.935 10.807c-.022.021-.043.042-.043.064-.406.47-1.475.855-1.86.235a.75.75 0 0 1-.129-.3c-.15-.577.171-1.175.834-1.26.45-.044 1.561.769 1.198 1.26Z" fill="#F28692"/><path opacity=".4" d="M12.935 10.807c-.022.021-.043.042-.043.064.043-.171-.257-1.24-1.133-1.198-.834.043-.834 1.09-.856 1.134-.15-.578.171-1.176.834-1.262.45-.043 1.561.77 1.198 1.262Z" fill="#F28692"/><path d="M11.031 11.085s.236.385.834.3c.599-.086 1.005-.557 1.005-.557s-.278.556-.983.706c-.685.15-.856-.45-.856-.45Z" fill="#fff"/><path opacity=".4" d="M10.814 18.397c-.064.364-.513.62-.791.129-.235-.45.492-.898.748-.428a.512.512 0 0 1 .043.3Z" fill="#F28692"/><path opacity=".4" d="M10.814 18.397s-.064-.513-.45-.47c-.384.043-.277.641-.341.599-.235-.45.492-.898.748-.428a.512.512 0 0 1 .043.3Z" fill="#F28692"/><path d="M10 18.461s.15.257.449.257c.3 0 .342-.257.342-.257s-.085.343-.449.321c-.342 0-.342-.32-.342-.32ZM11.954.842c.043.407.706.257.877-.15.15-.406-.92-.235-.877.15Z" fill="#fff"/><defs><linearGradient id="a" x1="1.549" y1="9.816" x2="14.67" y2="14.507" gradientUnits="userSpaceOnUse"><stop stop-color="#FF9600"/><stop offset="1" stop-color="#FFA900"/></linearGradient><linearGradient id="b" x1="10.222" y1="2.351" x2="13.403" y2="2.351" gradientUnits="userSpaceOnUse"><stop stop-color="#FF9600"/><stop offset="1" stop-color="#FFA900"/></linearGradient><linearGradient id="c" x1="10.893" y1="1.82" x2="13.405" y2="1.82" gradientUnits="userSpaceOnUse"><stop stop-color="#FF9600"/><stop offset="1" stop-color="#FFA900"/></linearGradient><linearGradient id="d" x1="11.595" y1=".469" x2="13.298" y2=".469" gradientUnits="userSpaceOnUse"><stop stop-color="#FFDE00"/><stop offset="1" stop-color="#FFE834"/></linearGradient><linearGradient id="e" x1="7.733" y1="15.654" x2="7.733" y2="13.87" gradientUnits="userSpaceOnUse"><stop stop-color="#FFC500"/><stop offset="1" stop-color="#F31600"/></linearGradient><linearGradient id="f" x1="4.799" y1="12.91" x2="4.07" y2="12.054" gradientUnits="userSpaceOnUse"><stop stop-color="#FFC500"/><stop offset="1" stop-color="#F31600"/></linearGradient></defs></svg>