<svg width="100" height="100" viewBox="0 0 100 100" fill="none" xmlns="http://www.w3.org/2000/svg">
<path d="M41.1723 82.6284C42.1591 82.9395 42.9084 83.472 43.4201 84.226C43.9318 84.98 44.1177 85.8271 43.978 86.7672L42.8128 86.6852C42.9259 85.9715 42.8075 85.3358 42.4576 84.7782C42.1077 84.2206 41.5716 83.8279 40.8493 83.6003C40.1066 83.3662 39.4824 83.3596 38.9766 83.5805C38.4607 83.7981 38.1161 84.1816 37.943 84.731C37.7634 85.3007 37.8074 85.8178 38.0748 86.2823C38.3288 86.7538 38.8711 87.3218 39.7018 87.9862C40.652 88.733 41.2717 89.3925 41.5611 89.9646C41.8506 90.5367 41.8862 91.1687 41.6682 91.8605C41.4149 92.6641 40.9366 93.2236 40.2334 93.5388C39.5167 93.8609 38.7057 93.8793 37.8003 93.594C36.4269 93.1611 35.5958 92.2673 35.307 90.9125L36.4005 90.6364C36.6131 91.6653 37.1925 92.3287 38.1386 92.6269C38.688 92.8001 39.1971 92.7816 39.6659 92.5715C40.1246 92.3581 40.426 92.0226 40.5703 91.5648C40.7178 91.0968 40.6581 90.6474 40.3913 90.2166C40.1212 89.796 39.6017 89.2799 38.8326 88.6685C37.8107 87.8655 37.1614 87.1576 36.8848 86.5448C36.5981 85.9288 36.5749 85.2393 36.8154 84.4763C37.1008 83.5708 37.6269 82.9482 38.3939 82.6083C39.1576 82.2787 40.0838 82.2854 41.1723 82.6284Z" fill="white"/>
<path d="M27.6498 75.5125C28.4521 76.2632 28.8208 77.1415 28.7561 78.1473C28.6914 79.1532 28.2691 80.0728 27.4893 80.9061C26.724 81.7239 25.8422 82.2136 24.8439 82.375C23.8383 82.5442 22.9227 82.2426 22.0971 81.47C20.9911 80.4351 20.7078 79.1767 21.2473 77.6947L22.3026 78.1125C22.0851 78.6103 22.0219 79.0916 22.1128 79.5564C22.1886 80.0218 22.4057 80.4221 22.7639 80.7574C23.3403 81.2967 23.9881 81.4865 24.7072 81.3268C25.4191 81.1749 26.0739 80.7796 26.6715 80.1409C27.2691 79.5022 27.6165 78.8266 27.7136 78.114C27.8106 77.4014 27.5671 76.7718 26.983 76.2252C26.6169 75.8826 26.2067 75.6887 25.7524 75.6434C25.283 75.5986 24.8226 75.7083 24.371 75.9723L23.8857 74.9923C24.5609 74.6453 25.2246 74.5214 25.8769 74.6205C26.5292 74.7196 27.1202 75.0169 27.6498 75.5125Z" fill="white"/>
<path d="M11.5709 67.207C11.3602 66.7521 11.2714 66.2937 11.3043 65.8317L12.346 65.9489C12.3576 66.3549 12.4307 66.7031 12.5652 66.9935C12.8296 67.5646 13.2528 67.9329 13.8349 68.0983C14.4124 68.254 15.0787 68.1571 15.8337 67.8075L19.8265 65.9588L20.2903 66.9606L13.1324 70.2749L12.6685 69.2731L13.7429 68.7756C12.7475 68.7075 12.0235 68.1847 11.5709 67.207Z" fill="white"/>
<path d="M14.8474 49.9531C15.6338 50.6364 16.0419 51.5379 16.0716 52.6575C16.1014 53.7771 15.7417 54.699 14.9927 55.4231C14.2433 56.1366 13.2769 56.5091 12.0933 56.5405C10.9097 56.5719 9.9302 56.2512 9.15473 55.5782C8.36831 54.8948 7.96024 53.9933 7.93051 52.8737C7.90106 51.7648 8.26086 50.8482 9.0099 50.1241C9.75866 49.3893 10.7195 49.0063 11.8924 48.9752C13.0653 48.944 14.0503 49.27 14.8474 49.9531ZM15.096 52.6834C15.0739 51.8517 14.7686 51.2036 14.18 50.7391C13.5808 50.2748 12.8281 50.0547 11.9217 50.0788C11.0047 50.1031 10.2702 50.3681 9.71804 50.8736C9.15499 51.3687 8.88436 52.0268 8.90616 52.8478C8.92825 53.6795 9.23356 54.3276 9.8221 54.7922C10.4104 55.2461 11.1577 55.461 12.064 55.4369C12.981 55.4125 13.721 55.1528 14.2841 54.6577C14.8472 54.1626 15.1178 53.5045 15.096 52.6834Z" fill="white"/>
<path d="M17.8102 39.1134C17.6573 39.5572 17.3912 39.8547 17.0118 40.006C16.6224 40.1539 16.1453 40.1305 15.5806 39.9359L6.65565 36.8604L7.01534 35.8166L15.8798 38.8713C16.4445 39.0659 16.8051 38.9363 16.9615 38.4825C17.031 38.2808 17.0672 38.0282 17.0703 37.7246L17.968 38.017C17.9636 38.4555 17.911 38.821 17.8102 39.1134Z" fill="white"/>
<path d="M21.4519 31.6087C21.1948 32.0013 20.8639 32.2245 20.459 32.2782C20.0452 32.326 19.5884 32.1864 19.0887 31.8592L11.1906 26.6886L11.7953 25.765L19.6398 30.9005C20.1396 31.2276 20.5209 31.1904 20.7838 30.7888C20.9007 30.6103 20.9978 30.3743 21.0752 30.0808L21.8738 30.5845C21.762 31.0085 21.6213 31.3499 21.4519 31.6087Z" fill="white"/>
<path d="M34.621 16.9445C34.4443 17.426 34.1188 17.7766 33.6445 17.9962C33.1702 18.2158 32.6923 18.2372 32.2108 18.0605C31.7249 17.8741 31.3743 17.5486 31.1592 17.084C30.9396 16.6097 30.9182 16.1318 31.0949 15.6503C31.2671 15.1592 31.5904 14.8038 32.0647 14.5842C32.539 14.3646 33.0191 14.348 33.5051 14.5344C33.9865 14.7111 34.3371 15.0366 34.5567 15.5109C34.7718 15.9755 34.7933 16.4534 34.621 16.9445Z" fill="white"/>
<path d="M56.0227 16.8107C55.0163 16.5703 54.2313 16.0921 53.6675 15.3762C53.1038 14.6603 52.8584 13.8285 52.9312 12.8808L54.0993 12.8802C54.037 13.6001 54.2001 14.2258 54.5886 14.7573C54.977 15.2888 55.5396 15.6425 56.2762 15.8185C57.0335 15.9994 57.6566 15.9618 58.1455 15.7058C58.6448 15.4522 58.9613 15.0453 59.0952 14.485C59.234 13.904 59.1536 13.3913 58.854 12.9469C58.5673 12.4945 57.9861 11.9664 57.1105 11.3624C56.1099 10.6846 55.445 10.0707 55.1159 9.52047C54.7867 8.97025 54.7064 8.34241 54.875 7.63693C55.0708 6.81733 55.5083 6.22546 56.1875 5.86131C56.8795 5.48928 57.6872 5.41356 58.6106 5.63415C60.0112 5.96877 60.9034 6.80156 61.2873 8.13253L60.216 8.48525C59.9312 7.47405 59.3064 6.8532 58.3415 6.62269C57.7813 6.48885 57.2748 6.5433 56.822 6.78606C56.3795 7.0313 56.1026 7.38735 55.991 7.85421C55.877 8.33145 55.9683 8.77549 56.265 9.18634C56.5641 9.58681 57.1189 10.0648 57.9293 10.6203C59.0054 11.349 59.7031 12.0092 60.0224 12.6009C60.352 13.1951 60.4239 13.8812 60.238 14.6593C60.0174 15.5827 59.5366 16.241 58.7956 16.6342C58.0571 17.0171 57.1328 17.0759 56.0227 16.8107Z" fill="white"/>
<path d="M70.0146 22.9523C69.1613 22.2602 68.7314 21.4102 68.7248 20.4023C68.7182 19.3944 69.0743 18.4472 69.7932 17.5608C70.4987 16.6909 71.3437 16.1401 72.3281 15.9085C73.3192 15.6686 74.2539 15.9047 75.1321 16.6169C76.3085 17.571 76.68 18.8062 76.2468 20.3226L75.1646 19.9805C75.3462 19.4687 75.3753 18.9841 75.2517 18.5268C75.1432 18.0679 74.8984 17.684 74.5173 17.3749C73.9042 16.8777 73.2447 16.7342 72.5386 16.9444C71.8392 17.1463 71.2141 17.5869 70.6631 18.2663C70.1122 18.9456 69.8135 19.6441 69.767 20.3618C69.7206 21.0795 70.0081 21.6903 70.6294 22.1942C71.0188 22.51 71.4417 22.6744 71.898 22.6875C72.3694 22.6989 72.821 22.557 73.2527 22.2617L73.8062 23.205C73.1572 23.5988 72.5038 23.7693 71.8462 23.7166C71.1885 23.6639 70.578 23.4091 70.0146 22.9523Z" fill="white"/>
<path d="M86.6408 30.0996C86.8831 30.5385 87.0041 30.9895 87.0039 31.4526L85.9566 31.4094C85.9163 31.0053 85.8187 30.6631 85.6641 30.383C85.3599 29.832 84.9117 29.4946 84.3194 29.3708C83.7323 29.2563 83.0745 29.4001 82.3462 29.8022L78.4942 31.9287L77.9606 30.9622L84.8662 27.1499L85.3997 28.1164L84.3632 28.6887C85.3609 28.6862 86.1201 29.1565 86.6408 30.0996Z" fill="white"/>
<path d="M84.593 47.5421C83.7602 46.9161 83.2894 46.0458 83.1805 44.9311C83.0717 43.8164 83.3652 42.8714 84.0611 42.096C84.7581 41.3313 85.6958 40.8915 86.8742 40.7764C88.0526 40.6613 89.0524 40.912 89.8735 41.5284C90.7063 42.1545 91.1771 43.0248 91.286 44.1395C91.3938 45.2436 91.0997 46.1833 90.4038 46.9586C89.7089 47.7445 88.7775 48.1945 87.6098 48.3086C86.442 48.4226 85.4364 48.1671 84.593 47.5421ZM84.1519 44.8362C84.2328 45.6643 84.5832 46.2892 85.2031 46.7109C85.8336 47.1316 86.6001 47.2979 87.5025 47.2098C88.4154 47.1206 89.1294 46.8044 89.6444 46.2611C90.171 45.7274 90.3944 45.0518 90.3146 44.2344C90.2337 43.4063 89.8833 42.7814 89.2634 42.3597C88.6445 41.9485 87.8839 41.787 86.9815 41.8752C86.0685 41.9643 85.3487 42.2758 84.8221 42.8095C84.2955 43.3432 84.0721 44.0188 84.1519 44.8362Z" fill="white"/>
<path d="M82.4043 58.5642C82.5254 58.1108 82.7698 57.7952 83.1375 57.6174C83.5155 57.4423 83.993 57.4319 84.5701 57.5861L93.6903 60.0226L93.4053 61.0892L84.347 58.6692C83.7699 58.515 83.4194 58.6698 83.2955 59.1335C83.2405 59.3396 83.2221 59.5942 83.2405 59.8972L82.3244 59.669C82.2978 59.2313 82.3244 58.8631 82.4043 58.5642Z" fill="white"/>
<path d="M79.3026 66.3077C79.5312 65.8978 79.8456 65.6518 80.2456 65.5696C80.655 65.4926 81.1205 65.5997 81.6422 65.8907L89.8862 70.4896L89.3483 71.4537L81.1602 66.886C80.6386 66.595 80.2608 66.6591 80.027 67.0782C79.923 67.2645 79.8428 67.5068 79.7864 67.8051L78.9542 67.3592C79.0357 66.9283 79.1519 66.5779 79.3026 66.3077Z" fill="white"/>
<path d="M67.2039 81.8667C67.3461 81.3739 67.646 81.0012 68.1035 80.7486C68.5611 80.496 69.0363 80.4408 69.5291 80.583C70.027 80.7346 70.3997 81.0345 70.6471 81.4827C70.8997 81.9403 70.9549 82.4155 70.8127 82.9082C70.6756 83.4104 70.3783 83.7877 69.9208 84.0403C69.4632 84.2929 68.9854 84.3435 68.4875 84.1919C67.9947 84.0497 67.622 83.7498 67.3694 83.2922C67.122 82.844 67.0668 82.3688 67.2039 81.8667Z" fill="white"/>
</svg>
