<?xml version="1.0" encoding="utf-8"?>
<!-- Generator: Adobe Illustrator 27.6.1, SVG Export Plug-In . SVG Version: 6.00 Build 0)  -->
<svg version="1.1" id="Laag_1" xmlns="http://www.w3.org/2000/svg" xmlns:xlink="http://www.w3.org/1999/xlink" x="0px" y="0px"
	 viewBox="0 0 18.4 22.6" style="enable-background:new 0 0 18.4 22.6;" xml:space="preserve">
<style type="text/css">
	.st0{fill:#FFFFFF;}
</style>
<path class="st0" d="M15.7,6.8c-1.7-1.7-4-2.7-6.5-2.7S4.4,5,2.7,6.8C0.9,8.5,0,11,0,13.4c0,2.4,1,4.8,2.7,6.5
	c1.7,1.7,4,2.7,6.5,2.7s4.8-1,6.5-2.8c1.7-1.7,2.7-4.1,2.7-6.5S17.4,8.5,15.7,6.8z M14.7,18.8c-1.5,1.5-3.4,2.3-5.5,2.3
	s-4-0.8-5.5-2.3s-2.3-3.4-2.3-5.5s0.8-4,2.3-5.5c1.5-1.4,3.4-2.2,5.5-2.2s4,0.8,5.5,2.2c1.4,1.5,2.3,3.4,2.3,5.5
	S16.2,17.3,14.7,18.8z M9.5,4.8v-4C9.5,0.4,9.2,0,8.7,0S7.9,0.4,7.9,0.8v4c0,0.4,0.3,0.8,0.8,0.8S9.5,5.2,9.5,4.8z M15.1,7.4l2-1
	c0.4-0.2,0.5-0.6,0.3-1s-0.6-0.5-1-0.3l-2,1c-0.4,0.2-0.5,0.6-0.3,1c0.1,0.3,0.4,0.4,0.7,0.4C14.9,7.5,15,7.4,15.1,7.4z M9.5,13.8
	v-4C9.5,9.4,9.2,9,8.7,9S7.9,9.4,7.9,9.8v4c0,0.4,0.3,0.8,0.8,0.8S9.5,14.2,9.5,13.8z M9.5,13.8c0-0.4-0.3-0.8-0.8-0.8h-3
	c-0.4,0-0.8,0.3-0.8,0.8s0.3,0.8,0.8,0.8h3C9.1,14.6,9.5,14.2,9.5,13.8z M11.5,0.8c0-0.4-0.3-0.8-0.8-0.8h-4
	C6.3,0.1,5.9,0.4,5.9,0.8s0.4,0.8,0.8,0.8h4C11.1,1.6,11.5,1.2,11.5,0.8z"/>
</svg>
