<?xml version="1.0" encoding="utf-8"?>
<!-- Generator: Adobe Illustrator 27.6.1, SVG Export Plug-In . SVG Version: 6.00 Build 0)  -->
<svg version="1.1" id="Laag_1" xmlns="http://www.w3.org/2000/svg" xmlns:xlink="http://www.w3.org/1999/xlink" x="0px" y="0px"
	 viewBox="0 0 34.5 22.5" style="enable-background:new 0 0 34.5 22.5;" xml:space="preserve">
<style type="text/css">
	.st0{fill:#FFFFFF;}
</style>
<path class="st0" d="M34.3,11.9l-4.8-6.4c-0.1-0.2-0.4-0.3-0.6-0.3h-5.7V0.8c0-0.4-0.3-0.8-0.8-0.8H0.8C0.3,0,0,0.3,0,0.8v18
	c0,0.4,0.3,0.8,0.8,0.8h3.8c0.1,0.7,0.5,1.4,1,1.9c0.7,0.7,1.6,1.1,2.7,1.1c1,0,1.9-0.4,2.7-1.1c0.5-0.5,0.9-1.2,1-1.9h9.9
	c0.1,0.7,0.5,1.4,1,1.9c0.7,0.7,1.7,1.1,2.7,1.1c1,0,1.9-0.4,2.7-1.1c0.5-0.5,0.9-1.2,1-1.9h4.6c0.4,0,0.8-0.3,0.8-0.8v-6.4
	C34.5,12.2,34.4,12.1,34.3,11.9z M1.5,1.5h20.2V6v12h-9.8c-0.1-0.7-0.5-1.4-1-1.9c-1.4-1.4-3.9-1.4-5.3,0c-0.5,0.5-0.9,1.2-1,1.9
	H1.5V1.5z M9.8,20.3c-0.8,0.8-2.3,0.8-3.2,0c-0.4-0.4-0.7-1-0.7-1.6s0.2-1.2,0.7-1.6c0.4-0.4,1-0.7,1.6-0.7s1.2,0.2,1.6,0.7
	s0.7,1,0.7,1.6S10.3,19.9,9.8,20.3z M27.1,20.3c-0.8,0.8-2.3,0.8-3.2,0c-0.4-0.4-0.7-1-0.7-1.6s0.2-1.2,0.7-1.6
	c0.4-0.4,1-0.7,1.6-0.7c0.6,0,1.2,0.2,1.6,0.7s0.7,1,0.7,1.6S27.5,19.9,27.1,20.3z M33,18h-3.8c-0.1-0.7-0.5-1.4-1-1.9
	c-0.7-0.7-1.7-1.1-2.7-1.1c-0.8,0-1.6,0.3-2.2,0.8v-9h5.3l4.4,5.9V18z"/>
</svg>
