<?xml version="1.0" encoding="utf-8"?>
<!-- Generator: Adobe Illustrator 27.6.1, SVG Export Plug-In . SVG Version: 6.00 Build 0)  -->
<svg version="1.1" id="Laag_1" xmlns="http://www.w3.org/2000/svg" xmlns:xlink="http://www.w3.org/1999/xlink" x="0px" y="0px"
	 viewBox="0 0 21.5 21.5" style="enable-background:new 0 0 21.5 21.5;" xml:space="preserve">
<style type="text/css">
	.st0{fill:#FFFFFF;}
</style>
<path class="st0" d="M17.4,4.4l-2.3-4C15,0.2,14.9,0.1,14.7,0s-0.4,0-0.6,0.1l-6.7,4C7.1,4.3,6.9,4.6,7,4.9s0.4,0.6,0.7,0.6h9l0,0
	c0.3,0,0.5-0.1,0.6-0.4C17.5,4.9,17.5,4.6,17.4,4.4z M10.5,4l3.7-2.2L15.5,4H10.5z M21,4.5C20.7,4.2,20.2,4,19.8,4h-18
	c-0.5,0-1,0.2-1.3,0.5S0,5.3,0,5.8v14c0,0.5,0.2,0.9,0.5,1.2c0.3,0.3,0.8,0.5,1.2,0.5h18c0.5,0,0.9-0.2,1.2-0.5
	c0.3-0.3,0.5-0.8,0.5-1.2v-14C21.5,5.3,21.3,4.8,21,4.5z M20,19.8c0,0.1,0,0.1-0.1,0.2s-0.1,0-0.1,0h-18c-0.1,0-0.1,0-0.2-0.1
	c0,0-0.1-0.1-0.1-0.2v-14c0-0.1,0-0.1,0.1-0.2c0,0,0.1-0.1,0.2-0.1h18c0.1,0,0.1,0,0.2,0.1c0,0,0.1,0.1,0.1,0.2v14.1H20z M20.8,10
	h-4.4c-1.9,0-3.4,1.5-3.4,3.2s1.5,3.2,3.4,3.2h4.4c0.4,0,0.8-0.3,0.8-0.8v-5C21.5,10.3,21.2,10,20.8,10z M20,15h-3.6
	c-1,0-1.9-0.8-1.9-1.8s0.8-1.8,1.9-1.8H20V15z"/>
</svg>
