<svg width="127" height="56" viewBox="0 0 127 56" fill="none" xmlns="http://www.w3.org/2000/svg">
<g clip-path="url(#clip0)">
<path d="M0.3125 1.4698V15.505H9.74356V55.2331H27.6779V1.4698H0.3125Z" fill="#0085FF"/>
<path d="M65.4166 0.626297C53.5118 0.626297 45.7041 6.30173 45.7041 15.1217C45.7041 19.1865 48.178 23.6348 51.9659 26.3958C46.4771 29.08 42.844 34.5256 42.844 40.2777C42.844 49.7877 51.8111 56.0002 65.494 56.0002C79.254 56.0002 88.2213 49.7111 88.2213 39.9709C88.2213 34.372 84.9744 29.08 79.9496 26.3958C83.2737 23.9416 85.361 19.7233 85.361 15.6585C85.361 6.53182 77.5533 0.626297 65.4166 0.626297ZM65.494 12.1305C68.8181 12.1305 70.5187 13.6644 70.5187 16.5788C70.5187 19.3399 68.8181 20.7204 65.494 20.7204C62.2472 20.7204 60.5464 19.3399 60.5464 16.5788C60.5464 13.6644 62.2472 12.1305 65.494 12.1305ZM65.5713 33.375C69.4364 33.375 71.5237 35.139 71.5237 38.4369C71.5237 41.6581 69.4364 43.3453 65.494 43.3453C61.6287 43.3453 59.6188 41.6581 59.6188 38.4369C59.6188 35.139 61.6287 33.375 65.5713 33.375Z" fill="#0085FF"/>
<path d="M125.555 9.50028H115.979V0H107.601V9.50028H98.0249V17.813H107.601V27.3133H115.979V17.813H125.555V9.50028Z" fill="#0085FF"/>
</g>
<defs>
<clipPath id="clip0">
<rect width="127" height="56" fill="white"/>
</clipPath>
</defs>
</svg>
