<svg width="80" height="80" viewBox="0 0 80 80" fill="none" xmlns="http://www.w3.org/2000/svg">
<g clip-path="url(#clip0)">
<path d="M78.6202 38.7063C76.4766 39.4888 74.1283 39.7564 71.7243 39.7564C70.598 39.7564 69.499 39.6504 68.4149 39.4977C68.3124 39.617 68.219 39.7434 68.0888 39.8409L65.7533 41.5933C64.9957 42.1617 63.9571 42.1845 63.1749 41.6498L59.9657 39.4562C59.0614 38.8381 58.8226 37.9918 59.3106 37.0146C59.4249 36.7857 59.5216 36.3211 59.0588 36.036C52.5093 32.0011 48.2761 24.6788 48.2761 16.4512C48.2761 11.7315 49.7021 7.35112 52.1319 3.68396C52.6395 2.91797 52.2316 1.89288 51.3468 1.63258C47.1595 0.400656 42.6892 -0.174779 38.05 0.0471356C17.7892 1.01568 1.20106 17.3359 0.0650299 37.465C-1.23307 60.4611 17.1452 79.5125 40.0002 79.5125C62.0916 79.5125 80.0002 61.7131 80.0002 39.7564C80.0002 39.2508 79.6554 38.3285 78.6202 38.7063Z" fill="#B97850"/>
<path d="M16.5517 39.7561C16.5517 20.62 30.1564 4.64615 48.2759 0.856812C45.605 0.298342 42.8379 0 40 0C17.9086 0 0 17.7993 0 39.7561C0 61.7128 17.9086 79.5122 40 79.5122C42.8379 79.5122 45.605 79.2139 48.2759 78.6554C30.1564 74.8659 16.5517 58.8921 16.5517 39.7561Z" fill="#A5694B"/>
<path d="M33.1896 38.4267L31.8163 42.5214C31.3822 43.8158 31.9718 45.2306 33.1998 45.8407L37.5573 48.0062C38.6194 48.534 39.902 48.3271 40.7416 47.4926L43.3299 44.9201C44.2249 44.0306 44.3961 42.6495 43.7448 41.5706L41.5185 37.8829C41.0199 37.0571 40.122 36.5518 39.153 36.5518H35.8066C34.6192 36.5518 33.5651 37.307 33.1896 38.4267Z" fill="#734B46"/>
<path d="M17.9344 20.597L19.2395 24.7137C19.6521 26.015 20.9647 26.8168 22.3192 26.5951L27.1263 25.8076C28.2978 25.6157 29.2144 24.7001 29.4018 23.5349L29.9792 19.9424C30.1788 18.7 29.5021 17.482 28.338 16.9881L24.3583 15.3C23.4671 14.922 22.4416 15.0365 21.657 15.6015L18.9471 17.5528C17.9854 18.2452 17.5775 19.4715 17.9344 20.597Z" fill="#734B46"/>
<path d="M47.3682 16.5257L43.8768 19.0923C42.773 19.9037 42.4375 21.3982 43.0896 22.5989L45.4035 26.86C45.9675 27.8985 47.1368 28.4619 48.3065 28.2585L51.9122 27.6317C53.159 27.4149 54.0975 26.3824 54.1884 25.1275L54.4987 20.8382C54.5682 19.8775 54.1256 18.9511 53.3325 18.3976L50.5939 16.4862C49.6223 15.808 48.3228 15.8239 47.3682 16.5257Z" fill="#734B46"/>
<path d="M10.8758 43.5372L11.7858 46.8672C12.0736 47.9198 13.0962 48.602 14.1853 48.4679L18.0507 47.9916C18.9927 47.8756 19.7544 47.1734 19.9415 46.2484L20.5184 43.3969C20.7179 42.4109 20.2165 41.4163 19.3025 40.9848L16.1779 39.5097C15.4781 39.1793 14.6553 39.2381 14.0103 39.6646L11.7829 41.1373C10.9924 41.6603 10.627 42.6268 10.8758 43.5372Z" fill="#734B46"/>
<path d="M59.3703 51.7446L55.1389 50.7738C53.8013 50.4669 52.4401 51.1842 51.9453 52.4571L50.1891 56.9737C49.761 58.0746 50.0898 59.3241 51.0051 60.0757L53.827 62.3929C54.8029 63.1942 56.2022 63.2326 57.2211 62.4861L60.7039 59.9342C61.4839 59.3627 61.9049 58.4264 61.813 57.4676L61.496 54.1565C61.3836 52.9817 60.5272 52.0102 59.3703 51.7446Z" fill="#734B46"/>
<path d="M33.9335 63.1851L31.6427 60.5994C30.9185 59.782 29.6997 59.6182 28.7832 60.2152L25.5304 62.3336C24.7377 62.8499 24.3663 63.8124 24.6083 64.7232L25.3547 67.5308C25.6128 68.5017 26.5027 69.1735 27.513 69.1601L30.9664 69.1144C31.7399 69.1041 32.4511 68.6913 32.8402 68.0269L34.1839 65.7324C34.6608 64.9182 34.5597 63.8921 33.9335 63.1851Z" fill="#734B46"/>
<path d="M22.2335 24.7137L20.9284 20.5971C20.5715 19.4716 20.9794 18.2451 21.941 17.5527L24.6508 15.6014C24.7082 15.5599 24.7747 15.5388 24.8346 15.5021L24.3577 15.2998C23.4665 14.9219 22.441 15.0364 21.6563 15.6014L18.9465 17.5527C17.9849 18.2451 17.577 19.4714 17.9339 20.5971L19.2391 24.7137C19.6516 26.015 20.9642 26.8169 22.3187 26.5951L23.7059 26.3679C23.0242 26.0526 22.4739 25.4722 22.2335 24.7137Z" fill="#644141"/>
<path d="M48.3981 26.8602L46.0841 22.5991C45.4321 21.3984 45.7676 19.9038 46.8712 19.0924L50.3626 16.5259C50.4095 16.4913 50.4657 16.4788 50.5141 16.4476C49.5514 15.8214 48.2984 15.8421 47.3681 16.5259L43.8767 19.0924C42.7731 19.9038 42.4374 21.3984 43.0896 22.5991L45.4036 26.8602C45.9676 27.8989 47.1369 28.4621 48.3066 28.2587L49.6322 28.0282C49.1195 27.7832 48.6819 27.3825 48.3981 26.8602Z" fill="#644141"/>
<path d="M56.8213 62.3929L53.9994 60.0758C53.0841 59.324 52.7553 58.0746 53.1834 56.9738L54.9396 52.4572C55.1874 51.8202 55.652 51.3226 56.222 51.0223L55.1389 50.774C53.8011 50.4671 52.4401 51.1845 51.9453 52.4572L50.1891 56.9738C49.761 58.0746 50.0898 59.324 51.0051 60.0758L53.827 62.3929C54.7653 63.1635 56.0879 63.2095 57.0946 62.5496C57.0055 62.4921 56.9048 62.4613 56.8213 62.3929Z" fill="#644141"/>
<path d="M36.1941 45.8405C34.9662 45.2303 34.3765 43.8157 34.8106 42.5214L36.1839 38.4265C36.5594 37.3068 37.6136 36.5518 38.801 36.5518H35.8067C34.6193 36.5518 33.5651 37.3068 33.1896 38.4265L31.8163 42.5214C31.3822 43.8157 31.9717 45.2304 33.1996 45.8405L37.557 48.0062C38.4303 48.4401 39.4394 48.3527 40.2422 47.8526L36.1941 45.8405Z" fill="#644141"/>
<path d="M14.7805 46.8672L13.8705 43.5371C13.6217 42.6266 13.9868 41.6601 14.7774 41.1375L16.7972 39.8022L16.1782 39.51C15.4784 39.1797 14.6556 39.2386 14.0106 39.665L11.7832 41.1375C10.9929 41.6601 10.6275 42.6266 10.8763 43.5371L11.7863 46.8672C12.0739 47.92 13.0967 48.602 14.1858 48.468L15.9848 48.2463C15.4167 47.9805 14.9553 47.5072 14.7805 46.8672Z" fill="#644141"/>
<path d="M28.349 67.5306L27.6027 64.723C27.3606 63.8122 27.732 62.8497 28.5247 62.3334L31.4361 60.4374C30.7018 59.7876 29.6239 59.6676 28.7832 60.2151L25.5304 62.3334C24.7377 62.8498 24.3663 63.8122 24.6083 64.723L25.3547 67.5306C25.6128 68.5016 26.5027 69.1735 27.513 69.1601L30.2708 69.1234C29.3639 69.0357 28.5861 68.4227 28.349 67.5306Z" fill="#644141"/>
<path d="M37.2411 30.1598C36.4794 30.1598 35.8618 29.546 35.8618 28.7889V26.0471C35.8618 25.29 36.4794 24.6762 37.2411 24.6762C38.0029 24.6762 38.6204 25.29 38.6204 26.0471V28.7889C38.6204 29.546 38.0029 30.1598 37.2411 30.1598Z" fill="#C98850"/>
<path d="M25.3989 36.2113C24.8602 36.7466 23.9868 36.7466 23.4482 36.2113L21.4975 34.2725C20.9589 33.7372 20.9589 32.8692 21.4975 32.3337C22.0361 31.7984 22.9095 31.7984 23.4482 32.3337L25.3989 34.2725C25.9375 34.8079 25.9375 35.676 25.3989 36.2113Z" fill="#925F4A"/>
<path d="M25.1934 54.6442C24.485 54.3661 24.1375 53.5696 24.4174 52.8655L25.431 50.3154C25.7108 49.6113 26.5122 49.266 27.2206 49.5441C27.9291 49.8222 28.2765 50.6187 27.9967 51.3228L26.9831 53.8729C26.7032 54.577 25.9019 54.9223 25.1934 54.6442Z" fill="#C98850"/>
<path d="M41.4686 58.6007C40.7277 58.7772 39.9834 58.3232 39.8058 57.5869L39.1631 54.9205C38.9855 54.1841 39.4422 53.4444 40.1831 53.2679C40.9239 53.0914 41.6682 53.5453 41.8458 54.2817L42.4886 56.948C42.6662 57.6842 42.2094 58.4242 41.4686 58.6007Z" fill="#925F4A"/>
<path d="M45.62 70.4338C45.3321 69.7328 45.6704 68.9327 46.3757 68.6465L48.9297 67.6101C49.635 67.3239 50.44 67.6602 50.7279 68.3612C51.0159 69.0622 50.6776 69.8623 49.9723 70.1485L47.4183 71.1849C46.713 71.4709 45.908 71.1347 45.62 70.4338Z" fill="#925F4A"/>
<path d="M37.565 11.0054C37.7438 10.2694 38.4889 9.81682 39.2294 9.99436L41.911 10.6377C42.6515 10.8154 43.1069 11.556 42.9282 12.292C42.7494 13.028 42.0043 13.4806 41.2638 13.303L38.5822 12.6597C37.8417 12.482 37.3862 11.7414 37.565 11.0054Z" fill="#925F4A"/>
<path d="M12.4022 60.0808C11.6848 59.8263 11.3107 59.042 11.5667 58.3289L12.4938 55.7467C12.7498 55.0336 13.5389 54.6618 14.2563 54.9162C14.9738 55.1707 15.3479 55.955 15.0919 56.6681L14.1648 59.2503C13.9088 59.9634 13.1196 60.3352 12.4022 60.0808Z" fill="#925F4A"/>
<path d="M10.4215 27.8174C11.1617 27.6387 11.9075 28.0902 12.0874 28.826L12.7384 31.4904C12.9182 32.226 12.4639 32.9673 11.7236 33.1461C10.9834 33.3248 10.2375 32.8733 10.0577 32.1374L9.40667 29.4731C9.22701 28.7374 9.68132 27.9961 10.4215 27.8174Z" fill="#C98850"/>
<path d="M49.0837 40.3239C48.545 39.7886 48.545 38.9205 49.0837 38.3852L51.0343 36.4464C51.573 35.911 52.4464 35.911 52.985 36.4464C53.5237 36.9817 53.5237 37.8496 52.985 38.3852L51.0343 40.3239C50.4957 40.8593 49.6223 40.8593 49.0837 40.3239Z" fill="#925F4A"/>
<path d="M67.4186 45.6412C67.9572 45.1058 68.8307 45.1058 69.3693 45.6412L71.32 47.58C71.8586 48.1153 71.8586 48.9834 71.32 49.5188C70.7814 50.0541 69.9079 50.0541 69.3693 49.5188L67.4186 47.58C66.88 47.0446 66.88 46.1765 67.4186 45.6412Z" fill="#925F4A"/>
<path d="M67.7802 56.5153C68.4849 56.8031 68.8212 57.6041 68.5316 58.3044L67.483 60.8404C67.1933 61.5408 66.3875 61.8751 65.683 61.5872C64.9783 61.2994 64.6419 60.4984 64.9316 59.798L65.9802 57.262C66.2697 56.5617 67.0757 56.2274 67.7802 56.5153Z" fill="#C98850"/>
<path d="M66.2334 23.034L67.1696 27.6867C67.3157 28.4122 68.0146 28.8917 68.7489 28.77L74.4013 27.8337C75.1312 27.7127 75.635 27.0411 75.5432 26.3115L74.605 18.8512C74.4777 17.84 73.3243 17.3153 72.4712 17.8806L66.8208 21.6245C66.3557 21.9326 66.1238 22.4892 66.2334 23.034Z" fill="#B97850"/>
<path d="M61.9985 17.2435L71.9158 12.8626C72.5828 12.568 72.9034 11.8079 72.6472 11.1286L69.4323 2.60777C69.1718 1.91735 68.4085 1.55543 67.7047 1.78865L61.2965 3.91166C60.9116 4.03916 60.6027 4.32859 60.452 4.70302L58.1358 10.4581C58.0042 10.7848 58.0042 11.1495 58.1358 11.4763L60.1575 16.4998C60.448 17.2217 61.2837 17.5591 61.9985 17.2435Z" fill="#B97850"/>
<path d="M60.3042 23.3053H61.7654C62.6358 23.3053 63.2887 24.0968 63.118 24.9451L62.4726 28.1525C62.2801 29.1093 61.172 29.5655 60.3551 29.0242L58.8075 27.9987C58.2899 27.6558 58.0673 27.011 58.264 26.4246L58.9958 24.2427C59.1835 23.6828 59.7106 23.3053 60.3042 23.3053Z" fill="#A5694B"/>
<path d="M64.8276 34.2725V34.5196C64.8276 35.173 65.2918 35.7358 65.9364 35.864L70.0744 36.6865C70.9278 36.8561 71.7242 36.2074 71.7242 35.3422V34.2725C71.7242 33.5154 71.1066 32.9016 70.3449 32.9016H66.2069C65.4452 32.9016 64.8276 33.5154 64.8276 34.2725Z" fill="#A5694B"/>
<path d="M62.8099 15.5888L60.7882 10.5653C60.6566 10.2385 60.6566 9.87382 60.7882 9.54703L63.1044 3.792C63.2368 3.46298 63.5042 3.21964 63.8253 3.07416L61.2965 3.91195C60.9116 4.03944 60.6027 4.32905 60.452 4.70347L58.1358 10.4585C58.0042 10.7851 58.0042 11.1498 58.1358 11.4766L60.1575 16.5002C60.448 17.2218 61.2835 17.5596 61.9984 17.2438L63.8863 16.4099C63.4215 16.3381 62.9984 16.0566 62.8099 15.5888Z" fill="#A5694B"/>
<path d="M69.5523 27.4152L68.3856 21.6175C68.3032 21.2083 68.391 20.8024 68.5884 20.4536L66.8213 21.6244C66.3561 21.9327 66.1242 22.4893 66.2339 23.034L67.1701 27.6867C67.3161 28.4121 68.0151 28.8915 68.7494 28.77L70.3165 28.5103C69.9365 28.2686 69.6477 27.8885 69.5523 27.4152Z" fill="#A5694B"/>
</g>
<defs>
<clipPath id="clip0">
<rect width="80" height="79.5122" fill="white"/>
</clipPath>
</defs>
</svg>
