<svg width="80" height="80" viewBox="0 0 80 80" fill="none" xmlns="http://www.w3.org/2000/svg">
<g clip-path="url(#clip0)">
<path d="M51.0196 62.8588H28.9771V75.3388H51.0196V62.8588Z" fill="#239999"/>
<path d="M69.2384 10.3466H71.6853C76.2777 10.3466 80.0002 14.069 80.0002 18.6596V57.1421C80.0002 61.7326 76.2778 65.455 71.6853 65.455H8.31297C3.72047 65.4549 0 61.7326 0 57.1421V18.6596C0 14.0691 3.72047 10.3466 8.31297 10.3466H10.2986" fill="#45B8C4"/>
<path d="M10.2991 16.6172H8.31343C7.18655 16.6172 6.27124 17.5343 6.27124 18.6612V57.1401C6.27124 58.2669 7.18655 59.184 8.31343 59.184H14.8212H64.7167H71.6856C72.8125 59.184 73.7295 58.2669 73.7295 57.1401V18.6612C73.7295 17.5343 72.8125 16.6172 71.6856 16.6172H69.2388" fill="#424C59"/>
<path d="M58.2051 79.3191H21.7954C21.7954 75.751 24.6879 72.8582 28.2563 72.8582H51.7445C55.3126 72.8582 58.2051 75.7508 58.2051 79.3191Z" fill="#45B8C4"/>
<path d="M60.3885 0.681091C61.1919 0.681091 61.8434 1.33234 61.8434 2.13593V23.5983C61.8434 34.297 53.3735 45.8873 39.9999 49.4536C26.6263 45.8873 18.1565 34.297 18.1565 23.5983V2.13593C18.1565 1.3325 18.8077 0.681091 19.6113 0.681091C19.6113 0.681091 60.3885 0.681091 60.3885 0.681091Z" fill="#FCC63F"/>
<path d="M41.701 29.7581H38.3009C37.429 29.7581 36.7129 29.0695 36.6788 28.1983L35.8465 6.88969C35.8105 5.96906 36.5473 5.20312 37.4685 5.20312H42.5335C43.4548 5.20312 44.1915 5.96906 44.1555 6.88969L43.323 28.1981C43.289 29.0695 42.5729 29.7581 41.701 29.7581Z" fill="#F9572B"/>
<path d="M40.0012 40.9567C42.1519 40.9567 43.8953 39.2133 43.8953 37.0626C43.8953 34.912 42.1519 33.1686 40.0012 33.1686C37.8506 33.1686 36.1072 34.912 36.1072 37.0626C36.1072 39.2133 37.8506 40.9567 40.0012 40.9567Z" fill="#F9572B"/>
</g>
<defs>
<clipPath id="clip0">
<rect width="80" height="80" fill="white"/>
</clipPath>
</defs>
</svg>
