<svg width="80" height="80" viewBox="0 0 80 80" fill="none" xmlns="http://www.w3.org/2000/svg">
<g clip-path="url(#clip0)">
<path d="M68.5191 27.8671C67.5298 25.5465 66.2655 23.3712 64.7679 21.3821C64.132 20.5376 63.9559 19.4332 64.314 18.4387L66.5876 12.1241C67.0984 10.7052 66.5199 9.12391 65.2138 8.36985L54.7867 2.34911C53.4805 1.59489 51.8216 1.88442 50.8481 3.03676L46.5194 8.16064C45.8382 8.96704 44.7958 9.36688 43.7479 9.24016C42.519 9.09172 41.2688 9.01501 40.0009 9.01501C38.7313 9.01501 37.4807 9.09188 36.2518 9.24032C35.2039 9.36688 34.1615 8.96719 33.4803 8.16079L29.1514 3.03692C28.178 1.88474 26.5191 1.59521 25.2128 2.34926L14.7855 8.36954C13.4795 9.1236 12.901 10.7048 13.4118 12.1237L15.6854 18.4384C16.0437 19.4332 15.8674 20.5373 15.2315 21.3818C13.7338 23.3709 12.4698 25.5463 11.4802 27.8668C11.0665 28.8371 10.199 29.5389 9.16073 29.7257L2.5642 30.9124C1.07999 31.1797 0 32.4714 0 33.9797V46.0199C0 47.5282 1.07999 48.8198 2.56436 49.0868L9.16057 50.2735C10.199 50.4602 11.0665 51.1623 11.4802 52.1327C12.4698 54.4543 13.7341 56.6294 15.2321 58.6194C15.8679 59.4639 16.0437 60.5681 15.6857 61.5627L13.4123 67.8756C12.9012 69.2945 13.4799 70.8759 14.786 71.63L25.2131 77.6509C26.5192 78.4049 28.178 78.1155 29.1515 76.9635L33.4803 71.8409C34.1615 71.0346 35.2037 70.635 36.2517 70.7615C37.4807 70.91 38.7313 70.9868 40.001 70.9868C41.2693 70.9868 42.5194 70.91 43.7483 70.7615C44.7963 70.635 45.8385 71.0345 46.5197 71.8409L50.8485 76.9635C51.822 78.1155 53.4808 78.4049 54.7869 77.6509L65.2141 71.63C66.5202 70.8759 67.0988 69.2945 66.5879 67.8756L64.3145 61.5627C63.9562 60.568 64.1323 59.4639 64.7681 58.6196C66.266 56.6296 67.5304 54.4546 68.5199 52.1329C68.9337 51.1624 69.8012 50.4604 70.8396 50.2737L77.4358 49.087C78.9202 48.8199 80.0002 47.5282 80.0002 46.0201V33.9799C80.0002 32.4716 78.9202 31.18 77.4358 30.913L70.8393 29.7263C69.8004 29.5393 68.9329 28.8374 68.5191 27.8671Z" fill="#424C59"/>
<path d="M62.9211 40C62.9211 40.3723 62.9122 40.7448 62.8943 41.1126C62.6362 46.5087 60.5131 51.4149 57.1527 55.2011C56.6616 55.7575 56.1423 56.2886 55.5994 56.7946C52.77 59.4222 49.2761 61.3449 45.398 62.2795C44.0138 62.6148 42.5806 62.8241 41.1118 62.8922C40.7439 62.9114 40.3714 62.9205 39.999 62.9205C39.6251 62.9205 39.2542 62.9116 38.8864 62.8922C37.4175 62.8239 35.9858 62.6148 34.6017 62.2809C30.7234 61.3449 27.2296 59.422 24.4004 56.793C23.8574 56.2885 23.3382 55.7574 22.8454 55.201C19.4863 51.4147 17.3632 46.5082 17.1051 41.1125C17.0873 40.7445 17.0784 40.372 17.0784 39.9998C17.0784 39.6275 17.0871 39.255 17.1051 38.887C17.3632 33.4924 19.4863 28.5861 22.8454 24.7999C23.3365 24.2435 23.8558 23.7124 24.3986 23.2065C27.228 20.5774 30.7233 18.6532 34.6031 17.7185C35.9858 17.3846 37.4176 17.1756 38.8864 17.1073C39.2543 17.0881 39.6251 17.079 39.999 17.079C40.3729 17.079 40.7439 17.0878 41.1118 17.1057C41.4738 17.1235 41.8343 17.1489 42.1934 17.1829C43.2868 17.2868 44.3565 17.4678 45.3996 17.7199C49.2777 18.656 52.7703 20.5788 55.5981 23.2079C56.1427 23.7124 56.662 24.2435 57.1531 24.7999C60.15 28.1768 62.1618 32.4436 62.7464 37.1541C62.8176 37.7253 62.8665 38.3039 62.8948 38.887C62.9122 39.2551 62.9211 39.6275 62.9211 40Z" fill="#239999"/>
<path d="M62.7453 37.1546C61.0807 44.7003 54.3538 50.3427 46.3095 50.3427C37.0116 50.3427 29.4746 42.8072 29.4746 33.5093C29.4746 25.6326 34.884 19.02 42.1922 17.1833C52.8823 18.1982 61.4324 26.5555 62.7453 37.1546Z" fill="#45B8C4"/>
<path d="M57.1528 55.2012C56.6617 55.7576 56.1425 56.2886 55.5996 56.7946C51.4616 52.5588 45.9218 50.2249 39.9992 50.2249C34.0764 50.2249 28.538 52.5587 24.4002 56.793C23.8572 56.2885 23.338 55.7574 22.8452 55.201C27.4014 50.5559 33.4903 47.9995 39.999 47.9995C46.5079 47.9998 52.5982 50.556 57.1528 55.2012Z" fill="#187C79"/>
<path d="M57.1528 24.8001C52.5952 29.4452 46.5062 32.0002 39.999 32.0002C33.4919 32.0002 27.4028 29.4453 22.8452 24.8001C23.3363 24.2437 23.8557 23.7126 24.3985 23.2066C28.5378 27.4424 34.0792 29.7747 39.9989 29.7747C45.9199 29.7747 51.4585 27.4425 55.5978 23.208C56.1425 23.7126 56.6617 24.2437 57.1528 24.8001Z" fill="#187C79"/>
<path d="M62.9212 39.9999C62.9212 40.3723 62.9123 40.7448 62.8945 41.1126H17.1051C17.0873 40.7446 17.0784 40.3721 17.0784 39.9999C17.0784 39.6276 17.0871 39.2551 17.1051 38.8871H62.8945C62.9123 39.2551 62.9212 39.6274 62.9212 39.9999Z" fill="#187C79"/>
<path d="M41.1119 17.1059V62.8923C40.744 62.9115 40.3715 62.9206 39.9991 62.9206C39.6252 62.9206 39.2543 62.9117 38.8865 62.8923V17.1073C39.2544 17.0881 39.6252 17.079 39.9991 17.079C40.3732 17.079 40.744 17.0881 41.1119 17.1059Z" fill="#187C79"/>
<path d="M50.2302 23.2407C48.8429 20.815 47.2021 18.9531 45.3996 17.7202C44.3567 17.468 43.287 17.287 42.1934 17.1831C41.4707 17.1148 40.7393 17.0792 39.9992 17.0792C38.1403 17.0792 36.3331 17.3003 34.6031 17.7188C32.7975 18.9517 31.1566 20.8136 29.7695 23.2409C27.1999 27.7348 25.7861 33.6873 25.7861 40C25.7861 46.313 27.2 52.2653 29.7695 56.7607C31.1567 59.1865 32.7977 61.0483 34.6017 62.2813C36.3331 62.6997 38.1401 62.9208 39.9992 62.9208C41.8596 62.9208 43.6668 62.6997 45.3982 62.2799C47.2023 61.0483 48.8432 59.1865 50.2305 56.7607C52.7986 52.2653 54.214 46.313 54.214 40C54.2138 33.6871 52.7985 27.7348 50.2302 23.2407ZM48.2971 55.6553C46.0302 59.624 43.0821 61.8079 39.9992 61.8079C36.9162 61.8079 33.9697 59.6238 31.7011 55.6553C29.3214 51.4921 28.0113 45.9316 28.0113 39.9999C28.0113 34.0683 29.3213 28.5092 31.7011 24.3447C33.9697 20.3773 36.9161 18.192 39.9992 18.192C43.0821 18.192 46.0301 20.3775 48.2971 24.3447C50.6783 28.5092 51.9883 34.0683 51.9883 39.9999C51.9883 45.9316 50.6783 51.4921 48.2971 55.6553Z" fill="#187C79"/>
</g>
<defs>
<clipPath id="clip0">
<rect width="80" height="80" fill="white"/>
</clipPath>
</defs>
</svg>
