<svg width="75" height="75" viewBox="0 0 75 75" fill="none" xmlns="http://www.w3.org/2000/svg">
<g clip-path="url(#clip0)">
<path d="M68.3476 41.1198C68.3476 59.8315 53.1773 75 34.4662 75C29.876 75 25.5003 74.0874 21.5092 72.4331C10.6007 67.9144 2.56577 57.8614 0.904656 45.7764C0.693512 44.2543 0.585938 42.6996 0.585938 41.1198C0.585938 22.407 15.7545 7.2384 34.4662 7.2384C53.1773 7.2384 68.3476 22.407 68.3476 41.1198Z" fill="#2E1F54"/>
<path d="M34.4662 7.2384C32.6746 7.2384 30.9162 7.37859 29.2002 7.64639C45.4113 10.1761 57.8162 24.198 57.8162 41.1198C57.8162 58.0393 45.4125 72.0606 29.2025 74.5915C30.918 74.8593 32.6752 75 34.4656 75C53.1773 75 68.3476 59.8315 68.3476 41.1198C68.3476 22.407 53.1773 7.2384 34.4662 7.2384Z" fill="#7570D6"/>
<path d="M72.5778 38.6152L53.231 51.4263C51.8525 52.3395 50.1828 52.7017 48.5509 52.4408C46.915 52.1804 45.2413 52.5375 43.8594 53.4524L41.2702 55.1685L26.7705 33.7949L30.3279 18.4266C30.6043 17.2302 30.741 16.0177 30.741 14.8097C30.741 11.6849 29.8272 8.60073 28.0746 5.95314C27.6437 5.30197 27.4377 4.56554 27.4377 3.83827C27.4377 2.59544 28.0408 1.37607 29.1555 0.637931C30.6575 -0.357134 32.6482 -0.172311 33.9414 1.08196L36.2462 3.31413C38.8818 5.87132 40.9148 8.98468 42.1914 12.4282L43.4411 15.7928L56.3106 7.28981C58.3659 5.92911 61.1463 6.5242 62.4589 8.62934C63.7246 10.6572 63.0746 13.3369 61.0805 14.6569C61.0564 14.673 61.0547 14.6987 61.0627 14.7182C61.0742 14.7393 61.0982 14.7537 61.1251 14.7422C61.6338 14.5465 62.166 14.4515 62.6935 14.4515C63.5358 14.4515 64.3707 14.6941 65.0848 15.1559C65.5769 15.4741 66.0129 15.8969 66.3568 16.4165C67.0211 17.4201 67.2191 18.5972 67.0017 19.6912C66.6606 21.4147 65.4081 22.3027 65.162 22.4698C65.1202 22.499 65.1088 22.5568 65.138 22.6003C65.138 22.6014 65.1397 22.6032 65.1408 22.6032C65.1683 22.6421 65.2244 22.6529 65.2644 22.6278C65.6152 22.5425 65.9723 22.5019 66.3293 22.5019C67.2008 22.5019 68.0677 22.7496 68.8047 23.2194C69.3031 23.5381 69.7437 23.9593 70.0847 24.4754C71.4225 26.4953 70.8698 29.2178 68.8476 30.5562C68.7978 30.59 68.748 30.6238 68.6982 30.6558C68.6696 30.6787 68.661 30.7153 68.6759 30.7411C68.6788 30.7473 68.6857 30.7542 68.6919 30.7571C68.7143 30.7748 68.7497 30.7765 68.7789 30.7542C70.0349 30.3262 71.4019 30.5208 72.5017 31.2332C73.0081 31.5582 73.4573 31.9959 73.8126 32.5326C75.151 34.5542 74.5977 37.2768 72.5778 38.6152Z" fill="#FFCDAB"/>
<path d="M41.4542 59.225L33.2922 64.63L21.5088 72.4332C10.6003 67.9139 2.56541 57.8626 0.904297 45.7764L14.5788 36.7207L22.9033 31.2075C23.8617 30.5724 25.1549 30.8362 25.7901 31.7963L42.043 56.3365C42.6781 57.2966 42.4143 58.5875 41.4542 59.225Z" fill="#87DBFF"/>
<path d="M41.4544 59.225L33.2925 64.63L14.5791 36.7207L22.9035 31.2075C23.862 30.5724 25.1552 30.8362 25.7903 31.7963L42.0432 56.3359C42.6784 57.2966 42.4146 58.5875 41.4544 59.225Z" fill="#6FC7FF"/>
<path d="M65.0838 15.1554L58.6459 18.6006C57.7327 19.0881 56.6003 18.8335 55.9863 18.0021L61.0618 14.7182C61.0732 14.7394 61.0973 14.7537 61.1242 14.7422C61.6328 14.5465 62.165 14.4515 62.6926 14.4515C63.5354 14.4515 64.3697 14.6942 65.0838 15.1554Z" fill="#FAC5AA"/>
<path d="M68.8036 23.2194L62.5059 26.5868C61.5926 27.076 60.4603 26.822 59.8457 25.9906L64.9212 22.7061L65.1403 22.6031C65.1678 22.642 65.2239 22.6529 65.2639 22.6277C65.6147 22.5425 65.9717 22.5018 66.3288 22.5018C67.2003 22.5018 68.0671 22.7496 68.8036 23.2194Z" fill="#FAC5AA"/>
<path d="M72.5011 31.2332L66.9541 34.2006C66.042 34.6876 64.9102 34.4335 64.2939 33.6021L68.6908 30.7571C68.7137 30.7748 68.7491 30.7765 68.7777 30.7537C70.0337 30.3262 71.4007 30.5208 72.5011 31.2332Z" fill="#FAC5AA"/>
</g>
<defs>
<clipPath id="clip0">
<rect width="75" height="75" fill="white"/>
</clipPath>
</defs>
</svg>
