<svg width="80" height="80" viewBox="0 0 80 80" fill="none" xmlns="http://www.w3.org/2000/svg">
<g clip-path="url(#clip0)">
<path d="M51.0203 58.0261H28.9778V70.5061H51.0203V58.0261Z" fill="#239999"/>
<path d="M69.2384 5.51379H71.6853C76.2777 5.51379 80.0002 9.23614 80.0002 13.8268V52.3093C80.0002 56.8997 76.2778 60.6222 71.6853 60.6222H8.31297C3.72047 60.6221 0 56.8997 0 52.3093V13.8268C0 9.23629 3.72047 5.51379 8.31297 5.51379H10.2986" fill="#45B8C4"/>
<path d="M10.2988 11.7847H8.31318C7.18631 11.7847 6.271 12.7017 6.271 13.8286V52.3075C6.271 53.4343 7.18631 54.3514 8.31318 54.3514H14.821H64.7165H71.6854C72.8122 54.3514 73.7293 53.4343 73.7293 52.3075V13.8286C73.7293 12.7017 72.8122 11.7847 71.6854 11.7847H69.2385H10.2988Z" fill="white"/>
<path d="M58.2051 74.4863H21.7954C21.7954 70.9182 24.6879 68.0254 28.2564 68.0254H51.7445C55.3126 68.0254 58.2051 70.918 58.2051 74.4863Z" fill="#45B8C4"/>
<path d="M73.7295 41.9477V52.3069C73.7295 53.1003 73.2756 53.7877 72.6143 54.1274L55.3768 36.8899C51.8062 38.0653 47.7196 37.2327 44.8821 34.3952C42.8037 32.3168 41.8014 29.5724 41.8732 26.8507L47.4504 29.636C48.0953 29.9593 48.781 30.1111 49.4553 30.1111C51.1059 30.1111 52.6945 29.2 53.4814 27.623C54.59 25.4025 53.6887 22.7022 51.4682 21.5919L46.0168 18.8703C50.0446 15.8696 55.7687 16.1961 59.4242 19.8516C62.2209 22.65 63.07 26.6564 61.9695 30.1878L73.7295 41.9477Z" fill="#FCC63D"/>
<path d="M15.1121 20.3625L10.9736 24.5008L16.4752 34.1408L22.4338 34.8066L25.4177 31.8227L24.7519 25.864L15.1121 20.3625Z" fill="#424C59"/>
<path d="M34.7686 46.9463L37.6545 44.0604L25.4175 31.8233L22.5315 34.7093L34.7686 46.9463Z" fill="#424C59"/>
<path d="M52.9228 54.3508H37.1937L35.1089 52.2659C33.5464 50.7034 33.5464 48.168 35.1089 46.6055L37.3147 44.3997C37.4109 44.305 37.5089 44.2152 37.6119 44.1319C39.184 42.842 41.5073 42.9334 42.9751 44.4013L52.9228 54.3508Z" fill="#D8401D"/>
<path d="M52.9229 54.3508H42.7351L37.8796 49.4953C36.4135 48.0293 36.3237 45.7043 37.6118 44.1321C39.184 42.8422 41.5072 42.9336 42.9751 44.4014L52.9229 54.3508Z" fill="#F9572B"/>
</g>
<defs>
<clipPath id="clip0">
<rect width="80" height="80" fill="white"/>
</clipPath>
</defs>
</svg>
