<svg width="192" height="56" viewBox="0 0 192 56" fill="none" xmlns="http://www.w3.org/2000/svg">
<g clip-path="url(#clip0)">
<path d="M40.0902 17.6992C40.3038 17.6992 40.4611 17.6992 40.6223 17.6992C42.3555 17.6992 44.0887 17.6838 45.8221 17.7069C46.5032 17.7146 47.1885 17.7682 47.8617 17.86C48.4219 17.9366 48.942 18.1587 49.3933 18.5034C49.9858 18.9514 50.2922 19.5258 50.3245 20.2496C50.3447 20.7166 50.2358 21.161 50.131 21.609C49.4216 24.6149 48.7082 27.621 48.0027 30.6307C47.1845 34.0963 46.3742 37.5656 45.5601 41.035C45.423 41.6246 45.2094 42.1838 44.8224 42.6739C44.246 43.4091 43.4681 43.8266 42.5288 43.9645C42.146 44.0219 41.7549 44.041 41.3681 44.041C30.7991 44.0448 20.2262 44.0448 9.65735 44.041C8.827 44.041 8.02889 43.8955 7.31947 43.4475C6.51733 42.9458 6.03362 42.2221 5.80791 41.3528C5.50157 40.1542 5.22343 38.948 4.93724 37.7418C4.41727 35.5744 3.90938 33.4109 3.40149 31.2474C2.63967 28.0038 1.88186 24.7605 1.12004 21.517C1.01523 21.0805 0.930586 20.644 0.950741 20.196C0.978957 19.4875 1.30142 18.9246 1.8859 18.4957C2.46633 18.0707 3.14352 17.86 3.85697 17.7835C4.40114 17.7261 4.95337 17.7107 5.50559 17.7069C7.21064 17.6992 8.91568 17.703 10.6248 17.703C10.7336 17.703 10.8384 17.6992 10.9472 17.6992C11.1165 17.6992 11.1891 17.6112 11.1931 17.4618C11.1971 17.3469 11.1971 17.232 11.1971 17.1171C11.1971 15.9952 11.2012 14.8732 11.1971 13.7512C11.1609 7.63198 15.4255 2.36286 21.3468 0.624362C22.9913 0.14187 24.6802 -0.0878885 26.3934 0.0308198C31.5892 0.398434 35.5393 2.71899 38.2038 6.97717C39.1914 8.55485 39.7356 10.2857 39.9774 12.0969C40.0458 12.6024 40.062 13.1117 40.066 13.621C40.0781 14.8196 40.066 16.0181 40.066 17.2168C40.066 17.3584 40.0781 17.4963 40.0902 17.6992ZM16.2518 17.6992C16.4695 17.6992 16.6428 17.6992 16.8161 17.6992C20.1617 17.6992 23.5033 17.6992 26.8488 17.6992C29.4287 17.6992 32.0044 17.6992 34.5841 17.6992C35.0235 17.6992 35.0435 17.68 35.0476 17.2742C35.0516 16.5619 35.0597 15.8458 35.0476 15.1336C35.0356 14.2299 35.0435 13.3223 34.9751 12.4224C34.8702 11.0516 34.3946 9.78405 33.6247 8.61995C31.1579 4.9017 26.3853 3.40827 22.1086 5.0472C18.6662 6.36448 16.3365 9.46239 16.2276 13.0887C16.1833 14.4903 16.2155 15.8956 16.2155 17.2971C16.2155 17.4082 16.2317 17.5192 16.2518 17.6992ZM25.6195 23.2211C23.8459 23.2211 22.0724 23.2211 20.2988 23.2211C20.1254 23.2211 19.9481 23.2173 19.7788 23.244C19.4039 23.3053 19.2266 23.4776 19.2225 23.8376C19.2064 24.6149 19.2064 25.3923 19.2225 26.1696C19.2306 26.5296 19.3918 26.6712 19.7667 26.7096C19.8876 26.7211 20.0086 26.7173 20.1295 26.7173C20.8429 26.7173 21.5523 26.7173 22.2657 26.7173C22.9308 26.7173 22.9308 26.7173 22.9308 27.353C22.9308 30.2861 22.9308 33.2194 22.9349 36.1526C22.9349 36.3555 22.9632 36.5586 22.9834 36.7614C23.0115 37.0258 23.1808 37.1712 23.4509 37.2133C23.5678 37.2325 23.6887 37.2632 23.8097 37.2669C24.898 37.2707 25.9863 37.2861 27.0747 37.263C27.8324 37.2478 28.034 37.0181 28.0421 36.2904C28.0421 36.1757 28.0421 36.0608 28.0421 35.9459C28.0421 33.139 28.0421 30.3322 28.0421 27.529C28.0421 27.4256 28.0421 27.3261 28.0421 27.2227C28.0461 26.7363 28.0621 26.7211 28.558 26.7173C28.9329 26.7134 29.3118 26.7173 29.6865 26.7173C30.2226 26.7173 30.7628 26.725 31.299 26.7134C31.8149 26.7019 31.9761 26.5526 31.9841 26.0662C31.9922 25.3654 31.9882 24.6646 31.9882 23.9602C31.9882 23.9333 31.9882 23.9104 31.9882 23.8835C31.9601 23.447 31.7787 23.267 31.319 23.2211C31.174 23.2058 31.0248 23.2096 30.8758 23.2096C29.1102 23.2211 27.3649 23.2211 25.6195 23.2211Z" fill="#0085FF"/>
<path d="M67.7702 17.6646C71.1964 17.6646 74.6185 17.6646 78.0446 17.6685C78.339 17.6685 78.6372 17.6877 78.9234 17.7374C79.4835 17.8331 79.7013 18.0897 79.7134 18.6334C79.7254 19.2193 79.7175 19.8053 79.7175 20.3949C79.7175 21.2872 79.7175 22.1793 79.7175 23.0717C79.7175 23.175 79.7214 23.2745 79.7094 23.3779C79.673 23.7877 79.5038 23.9638 79.0643 24.0289C78.8548 24.0595 78.6372 24.071 78.4235 24.071C76.6903 24.0749 74.9571 24.071 73.2279 24.0749C73.0546 24.0749 72.8772 24.0749 72.7038 24.1017C72.4176 24.1438 72.2807 24.2816 72.2524 24.5574C72.2362 24.7105 72.2403 24.8637 72.2403 25.0168C72.2403 30.8565 72.2403 36.6961 72.2403 42.5397C72.2403 42.7541 72.2241 42.9725 72.2041 43.1869C72.1638 43.6043 71.9139 43.88 71.4987 43.9757C71.1641 44.0523 70.8094 44.1021 70.4668 44.1021C68.3868 44.1097 66.3029 44.1021 64.2231 44.0905C63.9974 44.0905 63.7675 44.0523 63.5459 44.0062C63.179 43.9336 62.9574 43.7115 62.9091 43.3553C62.8808 43.1523 62.8648 42.9494 62.8648 42.7465C62.8607 36.8685 62.8648 30.9905 62.8607 25.1088C62.8607 24.9288 62.8648 24.7526 62.8446 24.5726C62.8122 24.2739 62.6713 24.1361 62.3649 24.0979C62.1916 24.0749 62.0183 24.0749 61.8409 24.0749C60.2446 24.0749 58.6445 24.0749 57.0483 24.071C56.8065 24.071 56.5646 24.0518 56.3268 24.0097C56.0003 23.9485 55.851 23.7761 55.8108 23.4584C55.7906 23.2937 55.7867 23.1291 55.7867 22.9605C55.7867 21.6088 55.7827 20.2571 55.7867 18.9053C55.7867 18.0016 56.0607 17.7259 57.0201 17.6761C57.1934 17.6685 57.3707 17.6685 57.544 17.6685C60.95 17.6646 64.3602 17.6646 67.7702 17.6646Z" fill="#0085FF"/>
<path d="M118.615 32.7178C118.615 34.8085 118.627 36.8994 118.607 38.9901C118.599 39.8632 118.409 40.7133 118.034 41.5175C117.24 43.2101 115.854 44.1176 113.907 44.1368C110.577 44.1712 107.244 44.1482 103.914 44.1443C103.157 44.1443 102.415 44.0256 101.706 43.7691C100.214 43.2253 99.3153 42.1762 98.868 40.7479C98.6543 40.0586 98.5495 39.3501 98.5495 38.6341C98.5455 34.6171 98.5455 30.6002 98.5536 26.5832C98.5536 26.2691 98.614 25.9437 98.7107 25.645C98.9285 24.9749 99.3798 24.6762 100.122 24.6723C101.141 24.6647 102.161 24.6685 103.185 24.6685C103.87 24.6685 104.555 24.6495 105.241 24.6762C105.571 24.6877 105.918 24.7336 106.22 24.8523C106.889 25.1128 107.24 25.6029 107.236 26.3114C107.228 29.3211 107.232 32.3311 107.236 35.3408C107.236 35.6701 107.256 36.0071 107.333 36.325C107.49 36.9912 107.933 37.3359 108.631 37.3818C109.332 37.4279 109.924 37.0946 110.142 36.4704C110.247 36.1757 110.295 35.8463 110.295 35.5362C110.307 32.5378 110.299 29.5432 110.307 26.545C110.307 26.2042 110.327 25.8557 110.392 25.5187C110.493 25.0131 110.819 24.7567 111.363 24.6954C111.525 24.6762 111.686 24.6685 111.847 24.6685C113.447 24.6685 115.044 24.6647 116.644 24.6685C116.857 24.6685 117.075 24.68 117.285 24.7069C118.058 24.8064 118.542 25.2813 118.619 26.0203C118.635 26.185 118.635 26.3496 118.635 26.5181C118.635 28.5859 118.635 30.6499 118.635 32.7178C118.627 32.7178 118.619 32.7178 118.615 32.7178Z" fill="#0085FF"/>
<path d="M180.763 33.4415C180.864 33.2155 180.928 33.0815 180.984 32.9437C181.932 30.7074 182.878 28.4749 183.818 26.2386C184.007 25.7944 184.266 25.3962 184.648 25.0821C184.975 24.8103 185.346 24.6685 185.789 24.6723C187.321 24.6762 188.852 24.6685 190.385 24.68C190.674 24.6839 190.976 24.7183 191.256 24.7949C191.629 24.8944 191.766 25.1472 191.682 25.5034C191.641 25.6757 191.574 25.8442 191.501 26.0088C187.953 33.924 184.406 41.8429 180.864 49.7581C180.677 50.1755 180.436 50.5507 180.086 50.861C179.727 51.1787 179.316 51.3472 178.811 51.3434C177.453 51.332 176.099 51.3434 174.74 51.3359C174.474 51.3359 174.205 51.309 173.942 51.2592C173.447 51.1635 173.27 50.8839 173.398 50.4207C173.45 50.2368 173.522 50.0568 173.603 49.8807C174.474 47.92 175.341 45.9557 176.221 43.9989C176.333 43.7461 176.34 43.5355 176.232 43.2751C173.802 37.5848 171.378 31.8867 168.957 26.1927C168.876 26.005 168.792 25.8135 168.751 25.6144C168.653 25.1511 168.835 24.8715 169.31 24.7528C169.529 24.6992 169.762 24.6762 169.987 24.6723C172.044 24.6647 174.1 24.6685 176.155 24.6685C176.643 24.6685 177.034 24.8677 177.376 25.1741C177.714 25.4803 177.933 25.8519 178.087 26.2691C178.912 28.5055 179.747 30.7379 180.578 32.9743C180.625 33.1045 180.677 33.2271 180.763 33.4415Z" fill="#0085FF"/>
<path d="M132.764 23.9218C134.614 23.9983 135.972 24.0175 137.298 24.3162C137.48 24.3583 137.657 24.4273 137.838 24.4617C138.201 24.5345 138.358 24.7604 138.362 25.0897C138.366 25.534 138.403 25.9858 138.33 26.4223C138.229 27.0503 138.048 27.6629 137.899 28.2834C137.879 28.3676 137.834 28.4519 137.798 28.5322C137.459 29.2943 137.278 29.3861 136.42 29.2789C135.5 29.1641 134.585 29.0415 133.662 28.9497C133.021 28.8845 132.377 28.8615 131.736 28.9879C131.566 29.0225 131.393 29.0761 131.248 29.1564C130.857 29.3823 130.813 29.8036 131.163 30.0754C131.389 30.2516 131.643 30.4047 131.905 30.5311C132.574 30.8529 133.259 31.1477 133.936 31.4617C135.267 32.0858 136.536 32.7943 137.584 33.8129C138.991 35.1761 139.62 36.8074 139.503 38.7105C139.459 39.4305 139.338 40.1313 139.06 40.8013C138.552 42.0305 137.649 42.9228 136.428 43.5316C135.416 44.037 134.328 44.3052 133.203 44.4506C131.317 44.6957 129.426 44.6383 127.536 44.4737C126.008 44.3434 124.496 44.129 123.013 43.7652C122.791 43.7116 122.578 43.6349 122.356 43.5775C122.082 43.5087 121.937 43.3516 121.884 43.0759C121.727 42.2679 121.667 41.4561 121.687 40.6405C121.699 40.1849 121.767 39.7253 121.82 39.2697C121.832 39.17 121.864 39.0705 121.892 38.9709C122.07 38.4004 122.215 38.3161 122.824 38.4693C124.774 38.9671 126.766 39.0858 128.773 39.0053C129.092 38.9938 129.414 38.925 129.724 38.8522C129.902 38.8101 130.079 38.722 130.224 38.6148C130.567 38.3583 130.591 37.9217 130.26 37.6537C130.027 37.466 129.757 37.3129 129.482 37.1826C129.003 36.9567 128.499 36.7767 128.011 36.5585C127.233 36.21 126.455 35.8692 125.697 35.4863C125.045 35.1569 124.456 34.7319 123.924 34.2341C122.723 33.1082 122.154 31.7412 122.134 30.1482C122.118 28.854 122.529 27.7165 123.436 26.7477C124.073 26.07 124.851 25.5761 125.706 25.1855C127.028 24.5842 128.426 24.2357 129.878 24.0941C131.002 23.9945 132.131 23.9601 132.764 23.9218Z" fill="#0085FF"/>
<path d="M143.538 29.949C143.143 29.949 142.8 29.949 142.453 29.949C141.526 29.9451 141.188 29.6427 141.167 28.7542C141.147 27.797 141.16 26.8397 141.164 25.8861C141.164 25.7483 141.188 25.6066 141.224 25.4725C141.317 25.0896 141.567 24.8406 141.978 24.768C142.175 24.7334 142.377 24.7144 142.574 24.7106C143.018 24.7029 143.457 24.7067 143.945 24.7067C143.953 24.5611 143.965 24.4386 143.965 24.3162C143.965 23.6382 143.977 22.9643 143.961 22.2866C143.949 21.6968 144.239 21.2986 144.751 21.0075C145.227 20.7395 145.759 20.6667 146.287 20.5826C147.556 20.3795 148.826 20.1766 150.1 19.989C150.402 19.943 150.717 19.9315 151.019 19.9507C151.414 19.9774 151.591 20.1536 151.644 20.529C151.68 20.7816 151.692 21.0382 151.696 21.2909C151.7 22.2712 151.7 23.2554 151.7 24.2357C151.7 24.3736 151.7 24.5114 151.7 24.6722C151.837 24.6837 151.938 24.7029 152.043 24.7029C152.7 24.7067 153.361 24.7029 154.018 24.7067C154.618 24.7106 154.981 24.948 155.155 25.4917C155.235 25.7445 155.284 26.0163 155.288 26.2805C155.304 27.1995 155.292 28.1186 155.292 29.0338C155.292 29.1104 155.284 29.187 155.275 29.2635C155.223 29.8074 154.977 30.041 154.397 30.0523C153.752 30.0638 153.107 30.0562 152.462 30.0562C152.317 30.0562 152.168 30.0562 151.994 30.0562C151.982 30.171 151.958 30.2707 151.958 30.3664C151.958 32.8554 151.954 35.3406 151.958 37.8298C151.958 38.3811 152.208 38.6875 152.784 38.7909C153.095 38.8483 153.425 38.8637 153.744 38.8445C154.002 38.8291 154.127 38.9248 154.195 39.1278C154.276 39.3691 154.364 39.6141 154.417 39.863C154.667 40.9888 154.812 42.1261 154.808 43.2787C154.808 43.3438 154.804 43.4051 154.8 43.4702C154.776 43.9106 154.764 43.9603 154.324 44.0523C153.474 44.2285 152.619 44.4008 151.757 44.5118C150.717 44.6459 149.669 44.6726 148.625 44.5347C147.303 44.3624 146.097 43.949 145.122 43.0451C144.199 42.1912 143.703 41.1306 143.582 39.9243C143.517 39.2656 143.513 38.5994 143.513 37.937C143.51 35.3598 143.517 32.7827 143.521 30.2094C143.538 30.1405 143.538 30.0792 143.538 29.949Z" fill="#0085FF"/>
<path d="M158.343 30.7531C158.343 26.7361 158.343 22.7193 158.343 18.6985C158.343 18.6105 158.343 18.5185 158.343 18.4305C158.351 17.6263 158.726 17.2702 159.585 17.2702C161.399 17.2663 163.213 17.2625 165.026 17.274C165.345 17.274 165.671 17.3122 165.982 17.3774C166.389 17.4617 166.631 17.7182 166.663 18.1279C166.675 18.2926 166.687 18.4572 166.687 18.6257C166.687 26.6212 166.687 34.6207 166.687 42.6163C166.687 42.8307 166.679 43.0489 166.647 43.2633C166.582 43.7153 166.32 43.9756 165.849 44.0561C165.627 44.0943 165.393 44.102 165.167 44.102C163.394 44.1059 161.62 44.1059 159.847 44.102C159.605 44.102 159.363 44.0905 159.121 44.0675C158.625 44.0215 158.428 43.8454 158.371 43.3745C158.339 43.1217 158.343 42.8651 158.343 42.6086C158.343 38.6606 158.343 34.7087 158.343 30.7531Z" fill="#0085FF"/>
<path d="M81.0721 35.3485C81.0721 33.2845 81.064 31.2167 81.0802 29.1527C81.0842 28.6586 81.1245 28.157 81.2171 27.6708C81.4308 26.5833 82.0838 25.7981 83.1317 25.3081C83.9661 24.9213 84.8611 24.7529 85.7759 24.7106C86.6748 24.6685 87.5736 24.6609 88.4725 24.6532C90.633 24.6417 92.7976 24.6417 94.9581 24.6341C95.0509 24.6341 95.1475 24.6341 95.2403 24.6341C95.8448 24.6455 96.0383 24.8293 96.0383 25.3922C96.0383 26.7057 96.0383 28.0193 96.0383 29.3327C96.0383 29.3709 96.0383 29.4092 96.0383 29.4476C96.0183 29.9721 95.7441 30.2517 95.1959 30.2746C94.8331 30.29 94.4703 30.2708 94.1075 30.2938C93.5191 30.3321 92.9306 30.3818 92.3462 30.4546C91.8101 30.5236 91.3183 30.7303 90.8427 30.9793C89.9357 31.4503 89.4883 32.1817 89.4359 33.1505C89.4237 33.3533 89.4238 33.5602 89.4238 33.7631C89.4238 36.6466 89.4238 39.5263 89.4199 42.4097C89.4199 42.6892 89.3956 42.9727 89.3392 43.2445C89.2385 43.7423 88.9079 44.0141 88.3758 44.0793C88.2025 44.0985 88.0292 44.1061 87.8519 44.1061C86.2677 44.11 84.6835 44.1138 83.0995 44.1023C82.7932 44.1023 82.4787 44.0716 82.1845 44.0028C81.5718 43.861 81.2292 43.4589 81.1285 42.8769C81.0842 42.6281 81.0721 42.3676 81.0721 42.1149C81.0721 39.8633 81.0721 37.6077 81.0721 35.3485Z" fill="#0085FF"/>
<path d="M29.7144 50.6008C29.6418 47.748 32.1934 45.2358 35.3656 45.2245C38.4735 45.2129 41.0653 47.6675 41.0532 50.62C41.0411 53.6718 38.3647 56.0193 35.3456 56.0001C32.2741 55.9809 29.6459 53.5532 29.7144 50.6008Z" fill="#0085FF"/>
<path d="M15.869 45.236C18.9526 45.1709 21.5606 47.6446 21.5566 50.6161C21.5525 53.603 18.9245 55.9925 15.8973 56.0001C12.858 56.0078 10.2057 53.6144 10.2097 50.6046C10.2138 47.6101 12.8419 45.1785 15.869 45.236Z" fill="#0085FF"/>
</g>
<defs>
<clipPath id="clip0">
<rect width="192" height="56" fill="white"/>
</clipPath>
</defs>
</svg>
