<svg width="14" height="14" viewBox="0 0 14 14" fill="none" xmlns="http://www.w3.org/2000/svg">
<g opacity="0.2" clip-path="url(#clip0_101_452)">
<path d="M13.2222 6.52557C13.3668 6.41789 13.474 6.26768 13.5288 6.096C13.5837 5.92432 13.5834 5.73978 13.5281 5.56824C13.4728 5.39671 13.3652 5.24679 13.2204 5.13951C13.0755 5.03222 12.9008 4.97295 12.7205 4.97001L9.22055 4.83779C9.20334 4.8366 9.18684 4.83046 9.17304 4.82011C9.15924 4.80976 9.14873 4.79564 9.14277 4.77945L7.93333 1.51279C7.87256 1.34659 7.76219 1.20308 7.61716 1.10169C7.47213 1.0003 7.29945 0.945923 7.12249 0.945923C6.94554 0.945923 6.77285 1.0003 6.62783 1.10169C6.4828 1.20308 6.37243 1.34659 6.31166 1.51279L5.10611 4.79112C5.10015 4.80731 5.08963 4.82143 5.07583 4.83178C5.06203 4.84213 5.04554 4.84827 5.02833 4.84945L1.52833 4.98168C1.34812 4.98462 1.17335 5.04389 1.02852 5.15117C0.883701 5.25846 0.776084 5.40838 0.720765 5.57991C0.665445 5.75144 0.665197 5.93599 0.720055 6.10767C0.774913 6.27935 0.882126 6.42956 1.02666 6.53723L3.77222 8.69557C3.78596 8.70638 3.79623 8.72098 3.80176 8.73757C3.80729 8.75416 3.80783 8.772 3.80333 8.7889L2.85833 12.1372C2.80936 12.3077 2.8141 12.4892 2.87191 12.6569C2.92973 12.8246 3.0378 12.9704 3.18144 13.0746C3.32507 13.1787 3.49729 13.236 3.67467 13.2388C3.85204 13.2415 4.02596 13.1896 4.17277 13.09L7.07388 11.1456C7.08817 11.1357 7.10513 11.1304 7.12249 11.1304C7.13986 11.1304 7.15682 11.1357 7.17111 11.1456L10.0722 13.09C10.217 13.193 10.3903 13.2483 10.568 13.2483C10.7458 13.2483 10.9191 13.193 11.0639 13.09C11.2076 12.9869 11.3157 12.8418 11.3735 12.6746C11.4313 12.5075 11.4359 12.3265 11.3867 12.1567L10.4339 8.79668C10.4288 8.77981 10.4291 8.76179 10.4347 8.74509C10.4402 8.72839 10.4508 8.71381 10.465 8.70334L13.2222 6.52557Z" fill="white"/>
</g>
<defs>
<clipPath id="clip0_101_452">
<rect width="14" height="14" fill="white"/>
</clipPath>
</defs>
</svg>
