<svg width="287" height="342" viewBox="0 0 287 342" fill="none" xmlns="http://www.w3.org/2000/svg">
<g clip-path="url(#clip0_1_1448)">
<path d="M0.590515 177.417V322.613C0.590515 333.3 9.99871 341.96 21.6088 341.96H265.982C277.592 341.96 287 333.3 287 322.613V177.417H0.590515Z" fill="url(#paint0_linear_1_1448)"/>
<path d="M215.248 134.179L153.133 96.6641C150.239 94.8768 146.903 93.93 143.5 93.93C140.097 93.93 136.761 94.8768 133.867 96.6641L71.7525 134.159L0 177.477L71.7525 220.675L143.495 263.884L215.248 220.635L287 177.477L215.248 134.179Z" fill="url(#paint1_linear_1_1448)"/>
<path d="M242.261 0H20.5179C17.0148 0 14.5727 3.42589 14.5727 6.99162V275.67H272.798V30.3836L242.261 0Z" fill="white"/>
<path d="M242.771 0.579285V27.9664C242.727 28.3044 242.752 28.6479 242.845 28.9759C242.938 29.3039 243.097 29.6095 243.312 29.8742C243.541 30.1196 243.818 30.3155 244.127 30.4495C244.435 30.5835 244.767 30.6529 245.104 30.6532L272.237 30.3836L242.771 0.579285Z" fill="url(#paint2_linear_1_1448)"/>
<path d="M88.2769 63.9233H32.9487C31.6442 63.9233 30.5866 64.9787 30.5866 66.2805V66.5602C30.5866 67.862 31.6442 68.9174 32.9487 68.9174H88.2769C89.5814 68.9174 90.6389 67.862 90.6389 66.5602V66.2805C90.6389 64.9787 89.5814 63.9233 88.2769 63.9233Z" fill="url(#paint3_linear_1_1448)"/>
<path d="M88.2769 75.909H32.9487C31.6442 75.909 30.5866 76.9643 30.5866 78.2662V78.5458C30.5866 79.8477 31.6442 80.903 32.9487 80.903H88.2769C89.5814 80.903 90.6389 79.8477 90.6389 78.5458V78.2662C90.6389 76.9643 89.5814 75.909 88.2769 75.909Z" fill="url(#paint4_linear_1_1448)"/>
<path d="M88.2769 85.897H32.9487C31.6442 85.897 30.5866 86.9524 30.5866 88.2542V88.5339C30.5866 89.8357 31.6442 90.891 32.9487 90.891H88.2769C89.5814 90.891 90.6389 89.8357 90.6389 88.5339V88.2542C90.6389 86.9524 89.5814 85.897 88.2769 85.897Z" fill="url(#paint5_linear_1_1448)"/>
<path d="M253.571 112.865H60.823C59.0486 112.865 57.6102 114.3 57.6102 116.071V116.65C57.6102 118.421 59.0486 119.856 60.823 119.856H253.571C255.345 119.856 256.784 118.421 256.784 116.65V116.071C256.784 114.3 255.345 112.865 253.571 112.865Z" fill="url(#paint6_linear_1_1448)"/>
<path d="M254.472 134.838H37.903C36.0733 134.838 34.5901 136.319 34.5901 138.144V138.524C34.5901 140.35 36.0733 141.83 37.903 141.83H254.472C256.301 141.83 257.785 140.35 257.785 138.524V138.144C257.785 136.319 256.301 134.838 254.472 134.838Z" fill="url(#paint7_linear_1_1448)"/>
<path d="M254.472 157.811H37.903C36.0733 157.811 34.5901 159.291 34.5901 161.117V161.496C34.5901 163.322 36.0733 164.802 37.903 164.802H254.472C256.301 164.802 257.785 163.322 257.785 161.496V161.117C257.785 159.291 256.301 157.811 254.472 157.811Z" fill="url(#paint8_linear_1_1448)"/>
<path d="M254.472 180.783H37.903C36.0733 180.783 34.5901 182.263 34.5901 184.089V184.469C34.5901 186.295 36.0733 187.775 37.903 187.775H254.472C256.301 187.775 257.785 186.295 257.785 184.469V184.089C257.785 182.263 256.301 180.783 254.472 180.783Z" fill="url(#paint9_linear_1_1448)"/>
<path d="M254.472 203.756H37.903C36.0733 203.756 34.5901 205.236 34.5901 207.062V207.441C34.5901 209.267 36.0733 210.747 37.903 210.747H254.472C256.301 210.747 257.785 209.267 257.785 207.441V207.062C257.785 205.236 256.301 203.756 254.472 203.756Z" fill="url(#paint10_linear_1_1448)"/>
<path d="M254.472 226.728H37.903C36.0733 226.728 34.5901 228.208 34.5901 230.034V230.414C34.5901 232.24 36.0733 233.72 37.903 233.72H254.472C256.301 233.72 257.785 232.24 257.785 230.414V230.034C257.785 228.208 256.301 226.728 254.472 226.728Z" fill="url(#paint11_linear_1_1448)"/>
<path d="M254.472 249.701H37.903C36.0733 249.701 34.5901 251.181 34.5901 253.007V253.386C34.5901 255.212 36.0733 256.692 37.903 256.692H254.472C256.301 256.692 257.785 255.212 257.785 253.386V253.007C257.785 251.181 256.301 249.701 254.472 249.701Z" fill="url(#paint12_linear_1_1448)"/>
</g>
<defs>
<linearGradient id="paint0_linear_1_1448" x1="138.23" y1="118.238" x2="152.753" y2="463.916" gradientUnits="userSpaceOnUse">
<stop stop-color="#FDF53F"/>
<stop offset="1" stop-color="#D93C65"/>
</linearGradient>
<linearGradient id="paint1_linear_1_1448" x1="137.8" y1="42.519" x2="151.854" y2="376.811" gradientUnits="userSpaceOnUse">
<stop stop-color="#FDF53F"/>
<stop offset="1" stop-color="#D93C65"/>
</linearGradient>
<linearGradient id="paint2_linear_1_1448" x1="219.902" y1="66.8898" x2="82.1242" y2="256.125" gradientUnits="userSpaceOnUse">
<stop stop-color="#53D8FF"/>
<stop offset="1" stop-color="#3840F7"/>
</linearGradient>
<linearGradient id="paint3_linear_1_1448" x1="8.17713" y1="138.134" x2="-212.848" y2="441.707" gradientUnits="userSpaceOnUse">
<stop stop-color="#53D8FF"/>
<stop offset="1" stop-color="#3840F7"/>
</linearGradient>
<linearGradient id="paint4_linear_1_1448" x1="8.17713" y1="150.12" x2="-212.848" y2="453.692" gradientUnits="userSpaceOnUse">
<stop stop-color="#53D8FF"/>
<stop offset="1" stop-color="#3840F7"/>
</linearGradient>
<linearGradient id="paint5_linear_1_1448" x1="8.17713" y1="160.108" x2="-212.848" y2="463.68" gradientUnits="userSpaceOnUse">
<stop stop-color="#53D8FF"/>
<stop offset="1" stop-color="#3840F7"/>
</linearGradient>
<linearGradient id="paint6_linear_1_1448" x1="-11.0296" y1="346.455" x2="-720.13" y2="1320.39" gradientUnits="userSpaceOnUse">
<stop stop-color="#53D8FF"/>
<stop offset="1" stop-color="#3840F7"/>
</linearGradient>
<linearGradient id="paint7_linear_1_1448" x1="-41.6863" y1="395.306" x2="-833.644" y2="1483.03" gradientUnits="userSpaceOnUse">
<stop stop-color="#53D8FF"/>
<stop offset="1" stop-color="#3840F7"/>
</linearGradient>
<linearGradient id="paint8_linear_1_1448" x1="-41.6863" y1="418.279" x2="-833.644" y2="1506.01" gradientUnits="userSpaceOnUse">
<stop stop-color="#53D8FF"/>
<stop offset="1" stop-color="#3840F7"/>
</linearGradient>
<linearGradient id="paint9_linear_1_1448" x1="-41.6863" y1="441.251" x2="-833.644" y2="1528.98" gradientUnits="userSpaceOnUse">
<stop stop-color="#53D8FF"/>
<stop offset="1" stop-color="#3840F7"/>
</linearGradient>
<linearGradient id="paint10_linear_1_1448" x1="-41.6863" y1="464.223" x2="-833.644" y2="1551.95" gradientUnits="userSpaceOnUse">
<stop stop-color="#53D8FF"/>
<stop offset="1" stop-color="#3840F7"/>
</linearGradient>
<linearGradient id="paint11_linear_1_1448" x1="-41.6863" y1="487.196" x2="-833.644" y2="1574.92" gradientUnits="userSpaceOnUse">
<stop stop-color="#53D8FF"/>
<stop offset="1" stop-color="#3840F7"/>
</linearGradient>
<linearGradient id="paint12_linear_1_1448" x1="-41.6863" y1="510.168" x2="-833.644" y2="1597.9" gradientUnits="userSpaceOnUse">
<stop stop-color="#53D8FF"/>
<stop offset="1" stop-color="#3840F7"/>
</linearGradient>
<clipPath id="clip0_1_1448">
<rect width="287" height="342" fill="white"/>
</clipPath>
</defs>
</svg>
