<svg width="24" height="26" viewBox="0 0 24 26" fill="none" xmlns="http://www.w3.org/2000/svg">
<g clip-path="url(#clip0_101_605)">
<path d="M24 13C24 16.3948 22.7357 19.6505 20.4853 22.051C18.2348 24.4514 15.1826 25.8 12 25.8C8.8174 25.8 5.76516 24.4514 3.51472 22.051C1.26428 19.6505 0 16.3948 0 13C0 9.60523 1.26428 6.3495 3.51472 3.94903C5.76516 1.54856 8.8174 0.199997 12 0.199997C15.1826 0.199997 18.2348 1.54856 20.4853 3.94903C22.7357 6.3495 24 9.60523 24 13ZM10.185 8.3488C10.0729 8.26363 9.9409 8.21303 9.80358 8.20253C9.66627 8.19204 9.52889 8.22207 9.40651 8.28932C9.28413 8.35657 9.18147 8.45846 9.10976 8.58381C9.03806 8.70917 9.00008 8.85315 9 9V17C9.00008 17.1468 9.03806 17.2908 9.10976 17.4162C9.18147 17.5415 9.28413 17.6434 9.40651 17.7107C9.52889 17.7779 9.66627 17.808 9.80358 17.7975C9.9409 17.787 10.0729 17.7364 10.185 17.6512L15.435 13.6512C15.5322 13.5772 15.6115 13.4795 15.6661 13.3662C15.7208 13.253 15.7494 13.1274 15.7494 13C15.7494 12.8726 15.7208 12.747 15.6661 12.6338C15.6115 12.5205 15.5322 12.4228 15.435 12.3488L10.185 8.3488Z" fill="url(#paint0_linear_101_605)"/>
</g>
<defs>
<linearGradient id="paint0_linear_101_605" x1="12.4186" y1="20.7913" x2="9.7491" y2="7.40505" gradientUnits="userSpaceOnUse">
<stop stop-color="#FFB432"/>
<stop offset="1" stop-color="#FFD996"/>
</linearGradient>
<clipPath id="clip0_101_605">
<rect width="24" height="25.6" fill="white" transform="translate(0 0.199997)"/>
</clipPath>
</defs>
</svg>
