<svg width="40" height="40" viewBox="0 0 40 40" fill="none" xmlns="http://www.w3.org/2000/svg">
<path d="M31.099 3.59865C31.4434 3.2345 31.8574 2.9431 32.3163 2.74167C32.7753 2.54024 33.27 2.43287 33.7712 2.4259C34.2724 2.41893 34.7699 2.51251 35.2343 2.70109C35.6987 2.88968 36.1206 3.16946 36.475 3.52389C36.8294 3.87831 37.1092 4.3002 37.2978 4.7646C37.4864 5.229 37.58 5.7265 37.573 6.22768C37.566 6.72887 37.4586 7.22357 37.2572 7.68255C37.0558 8.14153 36.7644 8.55547 36.4002 8.8999L25.4127 19.8874C25.3982 19.9019 25.3866 19.9192 25.3788 19.9381C25.3709 19.9571 25.3668 19.9775 25.3668 19.998C25.3668 20.0186 25.3709 20.0389 25.3788 20.0579C25.3866 20.0769 25.3982 20.0941 25.4127 20.1086L36.4002 31.0962C36.7532 31.4433 37.0338 31.8569 37.2261 32.313C37.4184 32.7692 37.5185 33.2589 37.5205 33.7539C37.5226 34.2489 37.4267 34.7395 37.2382 35.1972C37.0498 35.655 36.7725 36.0709 36.4225 36.421C36.0725 36.771 35.6567 37.0483 35.199 37.2369C34.7413 37.4255 34.2508 37.5215 33.7558 37.5196C33.2607 37.5176 32.771 37.4177 32.3148 37.2255C31.8586 37.0333 31.445 36.7527 31.0977 36.3999L20.1102 25.4124C20.0957 25.3978 20.0785 25.3863 20.0595 25.3784C20.0405 25.3706 20.0202 25.3665 19.9996 25.3665C19.9791 25.3665 19.9587 25.3706 19.9397 25.3784C19.9207 25.3863 19.9035 25.3978 19.889 25.4124L8.90149 36.3999C8.55436 36.7528 8.14079 37.0335 7.68463 37.2258C7.22847 37.4181 6.73876 37.5181 6.24374 37.5202C5.74871 37.5223 5.25818 37.4263 4.80043 37.2379C4.34268 37.0494 3.92677 36.7722 3.57669 36.4222C3.22661 36.0722 2.94929 35.6564 2.76073 35.1987C2.57217 34.741 2.4761 34.2504 2.47806 33.7554C2.48001 33.2604 2.57996 32.7707 2.77214 32.3145C2.96431 31.8583 3.24491 31.4446 3.59774 31.0974L14.5852 20.1099C14.5998 20.0954 14.6113 20.0781 14.6192 20.0592C14.6271 20.0402 14.6311 20.0198 14.6311 19.9993C14.6311 19.9787 14.6271 19.9584 14.6192 19.9394C14.6113 19.9204 14.5998 19.9032 14.5852 19.8886L3.59774 8.90115C2.90386 8.19604 2.5167 7.2453 2.52062 6.25604C2.52453 5.26677 2.91918 4.31913 3.61862 3.61953C4.31806 2.91992 5.26561 2.52504 6.25488 2.5209C7.24414 2.51675 8.19496 2.90368 8.90024 3.5974L19.8877 14.5849C19.9023 14.5995 19.9195 14.611 19.9385 14.6189C19.9575 14.6267 19.9778 14.6308 19.9984 14.6308C20.0189 14.6308 20.0393 14.6267 20.0583 14.6189C20.0772 14.611 20.0945 14.5995 20.109 14.5849L31.0965 3.5974L31.099 3.59865Z" fill="white"/>
</svg>
