<svg width="37" height="36" viewBox="0 0 37 36" fill="none" xmlns="http://www.w3.org/2000/svg">
<path d="M11.8816 24.1293V14.3563H9.6223V11.8518H14.9992V24.1293H11.8816ZM19.6405 17.5614C18.6072 16.9835 17.9416 16.0027 17.9416 14.9343C17.9416 12.9727 19.658 11.7292 22.3202 11.7292C25.0174 11.7292 26.7163 13.0077 26.7163 15.0219C26.7163 16.0902 26.1383 17.036 25.1751 17.5614C26.5237 18.1219 27.3644 19.2954 27.3644 20.6615C27.3644 22.8683 25.4027 24.2695 22.3377 24.2695C19.2727 24.2695 17.3111 22.8858 17.3111 20.714C17.3111 19.3129 18.2219 18.1219 19.6405 17.5614ZM20.5688 15.197C20.5688 16.0727 21.1993 16.5631 22.3377 16.5631C23.4762 16.5631 24.1067 16.0727 24.1067 15.197C24.1067 14.2863 23.4762 13.7783 22.3377 13.7783C21.1993 13.7783 20.5688 14.2863 20.5688 15.197ZM20.2535 20.3988C20.2535 21.4321 20.9891 22.0101 22.3377 22.0101C23.6863 22.0101 24.4395 21.4496 24.4395 20.3988C24.4395 19.3829 23.6863 18.805 22.3377 18.805C20.9891 18.805 20.2535 19.3829 20.2535 20.3988ZM35.9409 13.5638C35.8917 13.3711 35.7165 13.2376 35.5173 13.2376H33.1496C32.8562 13.2376 32.6482 13.52 32.7314 13.8024C33.1288 15.1521 33.3313 16.5522 33.3335 17.9763C33.3455 25.9859 26.9177 32.6129 18.9115 32.834C10.3885 33.0693 3.40688 26.0778 3.65975 17.5505C3.89728 9.553 10.5232 3.14274 18.5251 3.15916C19.9459 3.16244 21.3438 3.36495 22.6902 3.76121C22.9715 3.84441 23.255 3.63642 23.255 3.34306V0.975332C23.255 0.776106 23.1215 0.600962 22.9288 0.551703C21.4861 0.18609 20.0007 0 18.4933 0C8.52217 0 0.417398 8.15075 0.494023 18.1405C0.569554 27.9311 8.56268 35.9242 18.3521 35.9986C28.3408 36.0752 36.4915 27.9716 36.4915 17.9993C36.4926 16.492 36.3065 15.0065 35.9409 13.5638ZM26.1799 7.31006H29.1727V10.3236C29.1727 10.5655 29.3687 10.7615 29.6106 10.7615H31.2164C31.4583 10.7615 31.6543 10.5655 31.6543 10.3236V7.31006H34.6678C34.9098 7.31006 35.1057 7.11412 35.1057 6.8722V5.26635C35.1057 5.02444 34.9098 4.82849 34.6678 4.82849H31.6543V1.81493C31.6543 1.57301 31.4583 1.37707 31.2164 1.37707H29.6106C29.3687 1.37707 29.1727 1.57301 29.1727 1.81493V4.82849H26.1799C25.938 4.82849 25.7421 5.02444 25.7421 5.26635V6.8722C25.7421 7.11412 25.938 7.31006 26.1799 7.31006Z" fill="white"/>
</svg>
