<svg width="33" height="36" viewBox="0 0 33 36" fill="none" xmlns="http://www.w3.org/2000/svg">
<path d="M5.24796 15.75V24.7497C5.24796 25.9914 4.23971 26.9996 2.99804 26.9996C1.75636 26.9996 0.748116 25.9914 0.748116 24.7497V15.75C0.748116 14.5083 1.75636 13.5001 2.99804 13.5001C4.23971 13.5001 5.24796 14.5076 5.24796 15.75ZM29.9971 13.5001C28.7554 13.5001 27.7472 14.5083 27.7472 15.75V24.7497C27.7472 25.9914 28.7554 26.9996 29.9971 26.9996C31.2388 26.9996 32.247 25.9914 32.247 24.7497V15.75C32.247 14.5076 31.2388 13.5001 29.9971 13.5001ZM7.49788 27.1297C7.49788 28.3714 8.50613 29.3796 9.7478 29.3796V33.7487C9.7478 34.9904 10.756 35.9986 11.9977 35.9986C13.2394 35.9986 14.2476 34.9904 14.2476 33.7487V29.3796H18.7475V33.7487C18.7475 34.9904 19.7557 35.9986 20.9974 35.9986C22.2391 35.9986 23.2473 34.9904 23.2473 33.7487V29.3796C24.489 29.3796 25.4973 28.3714 25.4973 27.1297V13.6302H7.49788V27.1297ZM25.4973 11.2502H7.49788C7.49788 8.43355 8.8183 5.9495 10.846 4.30002L8.87033 1.82933C8.48363 1.34349 8.56237 0.636871 9.04611 0.247353C9.53195 -0.142164 10.2386 -0.0606048 10.6281 0.423128L12.7585 3.08718C13.8989 2.56055 15.1589 2.25049 16.4976 2.25049C17.818 2.25049 19.0625 2.55001 20.1917 3.06046L22.3811 0.40766C22.777 -0.0718544 23.4836 -0.13654 23.9652 0.257197C24.4447 0.653042 24.5122 1.36177 24.1157 1.84128L22.1132 4.26909C24.1607 5.91786 25.4973 8.41527 25.4973 11.2502ZM15.3726 6.75033C15.3726 6.12949 14.8685 5.62537 14.2476 5.62537C13.6268 5.62537 13.1227 6.12949 13.1227 6.75033C13.1227 7.37117 13.6268 7.87529 14.2476 7.87529C14.8685 7.87529 15.3726 7.37117 15.3726 6.75033ZM19.8724 6.75033C19.8724 6.12949 19.3683 5.62537 18.7475 5.62537C18.1266 5.62537 17.6225 6.12949 17.6225 6.75033C17.6225 7.37117 18.1266 7.87529 18.7475 7.87529C19.3683 7.87529 19.8724 7.37117 19.8724 6.75033Z" fill="white"/>
</svg>
