<svg width="31" height="36" viewBox="0 0 31 36" fill="none" xmlns="http://www.w3.org/2000/svg">
<path d="M20.3808 5.8427C21.5549 4.32824 22.4436 2.18662 22.1223 0C20.2029 0.132885 17.96 1.36119 16.653 2.96072C15.4605 4.41191 14.4797 6.56759 14.8622 8.6621C16.9581 8.72749 19.125 7.46966 20.3808 5.8427Z" fill="white"/>
<path d="M29.7066 12.0776C27.8638 9.76728 25.2743 8.42578 22.8289 8.42578C19.6003 8.42578 18.2349 9.97118 15.9914 9.97118C13.6782 9.97118 11.9212 8.43 9.12917 8.43C6.3864 8.43 3.46646 10.1062 1.61451 12.9727C-0.988337 17.0091 -0.543279 24.5976 3.67528 31.0619C5.18482 33.375 7.20059 35.9758 9.83789 35.9983C12.1848 36.0208 12.8457 34.493 16.0251 34.4775C19.2045 34.4592 19.807 36.0187 22.149 35.9941C24.7885 35.9737 26.9146 33.0917 28.4241 30.7785C29.5062 29.1206 29.9091 28.2853 30.7486 26.4137C24.6443 24.0893 23.6656 15.4096 29.7066 12.0776Z" fill="white"/>
</svg>
