<svg width="108" height="108" viewBox="0 0 108 108" fill="none" xmlns="http://www.w3.org/2000/svg">
<path d="M54 0C24.2241 0 0 24.2241 0 54C0 83.7759 24.2241 108 54 108C83.7759 108 108 83.7759 108 54C108 24.2241 83.7759 0 54 0ZM54 15.7507C68.2678 15.7507 79.8757 27.3586 79.8757 41.6264C79.8757 55.8942 68.2678 67.5 54 67.5C39.7322 67.5 28.1243 55.8921 28.1243 41.6243C28.1243 27.3565 39.7343 15.7507 54 15.7507ZM54 98.9993C39.2955 98.9993 26.2575 91.878 18.0415 80.9409C27.0443 76.6104 39.8988 71.9993 54 71.9993C68.1033 71.9993 80.9599 76.6083 89.9585 80.9388C81.7425 91.8802 68.7045 98.9993 54 98.9993Z" fill="white"/>
</svg>
