<svg width="37" height="36" viewBox="0 0 37 36" fill="none" xmlns="http://www.w3.org/2000/svg">
<path d="M14.7021 14.2078H12.3333C11.8101 14.2078 11.3855 14.631 11.3855 15.1556V20.8396C11.3855 21.3628 11.8087 21.7875 12.3333 21.7875C12.8578 21.7875 13.2811 21.3642 13.2811 20.8396V18.9454H14.7021C16.0079 18.9454 17.0709 17.8838 17.0709 16.5766C17.0709 15.2694 16.0079 14.2078 14.7021 14.2078ZM14.7021 17.0498H13.2811V16.102H14.7021C14.963 16.102 15.1753 16.3143 15.1753 16.5752C15.1753 16.8375 14.963 17.0498 14.7021 17.0498Z" fill="white"/>
<path d="M22.3415 14.2078H21.2743C20.0018 14.2078 18.9665 15.243 18.9665 16.5155V20.8382C18.9665 21.3614 19.3898 21.786 19.9143 21.786C20.4389 21.786 20.8621 21.3628 20.8621 20.8382V18.944H22.7564V20.8382C22.7564 21.3614 23.1796 21.786 23.7042 21.786C24.2287 21.786 24.652 21.3628 24.652 20.8382V16.5155C24.6492 15.243 23.614 14.2078 22.3415 14.2078ZM22.755 17.0498H20.8608V16.5155C20.8608 16.2879 21.0467 16.102 21.2743 16.102H22.3415C22.569 16.102 22.755 16.2879 22.755 16.5155V17.0498Z" fill="white"/>
<path d="M5.77496 16.1015H8.54484C9.068 16.1015 9.49264 15.6783 9.49264 15.1537C9.49264 14.6292 9.06939 14.2059 8.54484 14.2059H5.77496C4.69116 14.2059 3.80858 15.0885 3.80858 16.1723V16.9758C3.80858 18.0596 4.69116 18.9422 5.77496 18.9422H7.52487C7.56511 18.9422 7.59703 18.9741 7.59703 19.0143V19.8178C7.59703 19.8581 7.56511 19.89 7.52487 19.89H4.755C4.23183 19.89 3.80719 20.3132 3.80719 20.8378C3.80719 21.3623 4.23044 21.7856 4.755 21.7856H7.52487C8.60867 21.7856 9.49125 20.903 9.49125 19.8192V19.0157C9.49125 17.9319 8.60867 17.0493 7.52487 17.0493H5.77496C5.73472 17.0493 5.7028 17.0174 5.7028 16.9772V16.1737C5.70142 16.1335 5.73333 16.1015 5.77496 16.1015Z" fill="white"/>
<path d="M32.6327 14.299C32.3024 14.1394 31.9097 14.1893 31.6266 14.4225L29.8587 15.8699L28.0907 14.4225C27.8063 14.1893 27.4135 14.1408 27.0846 14.299C26.753 14.4558 26.5421 14.7888 26.5421 15.1552V20.8393C26.5421 21.3624 26.9653 21.7871 27.4899 21.7871C28.0144 21.7871 28.4377 21.3638 28.4377 20.8393V17.1549L29.2578 17.8265C29.6075 18.1138 30.1085 18.1138 30.4582 17.8265L31.2783 17.1549V20.8393C31.2783 21.3624 31.7015 21.7871 32.2261 21.7871C32.7507 21.7871 33.1739 21.3638 33.1739 20.8393V15.1552C33.1753 14.7888 32.9644 14.4558 32.6327 14.299Z" fill="white"/>
<path d="M18.4919 0C8.55038 0 0.491943 8.05844 0.491943 18C0.491943 27.9416 8.55038 36 18.4919 36C28.4335 36 36.4919 27.9416 36.4919 18C36.4919 8.05844 28.4321 0 18.4919 0ZM29.8448 29.3529C26.8127 32.385 22.78 34.0558 18.4906 34.0558C14.6313 34.0558 10.9789 32.7028 8.07717 30.2216L17.4692 20.8323C17.8397 20.4618 17.8397 19.8623 17.4692 19.4932C17.0987 19.124 16.4992 19.1227 16.1301 19.4932L6.71166 28.9088C3.94873 25.9322 2.43474 22.0826 2.43474 18C2.43474 13.7106 4.10554 9.67928 7.13769 6.64575C10.1698 3.6136 14.2025 1.9428 18.4919 1.9428C22.576 1.9428 26.4255 3.45818 29.4021 6.22111L23.4044 12.2188C23.0339 12.5893 23.0339 13.1888 23.4044 13.5579C23.589 13.7425 23.8319 13.8355 24.0747 13.8355C24.3176 13.8355 24.559 13.7425 24.745 13.5579L30.7163 7.58662C33.1961 10.4883 34.5491 14.1394 34.5491 17.9986C34.5478 22.288 32.8783 26.3207 29.8448 29.3529Z" fill="white"/>
</svg>
