<svg width="36" height="40" viewBox="0 0 36 40" fill="none" xmlns="http://www.w3.org/2000/svg">
<path d="M8.4 16.5624H1.2C0.5376 16.5624 0 17.0874 0 17.7343V38.8281C0 39.4749 0.5376 39.9999 1.2 39.9999H8.4C9.8312 39.9999 11.0696 39.1804 11.6496 37.996L11.6608 37.9999V18.5921C11.0864 17.3945 9.8416 16.5624 8.4 16.5624ZM6 35.3124C5.3376 35.3124 4.8 34.7874 4.8 34.1406C4.8 33.4937 5.3376 32.9687 6 32.9687C6.6624 32.9687 7.2 33.4937 7.2 34.1406C7.2 34.7874 6.6624 35.3124 6 35.3124Z" fill="white"/>
<path d="M35.0808 24.7656C35.652 24.143 36 23.3211 36 22.4219C36 20.4836 34.3848 18.9062 32.4 18.9062H25.4128C26.1048 16.8555 26.4 14.1344 26.4 12.968V11.7969C26.4 9.2125 24.2464 7.10938 21.6 7.10938H20.4C19.8496 7.10938 19.3696 7.475 19.236 7.99688L18.5824 10.5508C17.9064 13.1898 16.1464 16.0297 14.0608 17.6258V38.7812L15.7728 39.3383C17.1208 39.7773 18.5256 40 19.9472 40H30C31.9848 40 33.6 38.4227 33.6 36.4844C33.6 36.0273 33.5104 35.5898 33.3472 35.1891C34.8736 34.782 36 33.4156 36 31.7969C36 30.8977 35.652 30.0758 35.0808 29.4531C35.652 28.8305 36 28.0086 36 27.1094C36 26.2102 35.652 25.3883 35.0808 24.7656Z" fill="white"/>
<path d="M22.8 4.76562C23.4624 4.76562 24 4.24062 24 3.59375V1.17188C24 0.525 23.4624 0 22.8 0C22.1376 0 21.6 0.525 21.6 1.17188V3.59375C21.6 4.24062 22.1376 4.76562 22.8 4.76562Z" fill="white"/>
<path d="M16.012 6.8249C16.4808 7.28271 17.2408 7.28271 17.7088 6.8249C18.1776 6.36709 18.1776 5.62568 17.7088 5.16787L16.012 3.51084C15.5432 3.05303 14.784 3.05303 14.3152 3.51084C13.8464 3.96865 13.8464 4.71006 14.3152 5.16787L16.012 6.8249Z" fill="white"/>
<path d="M29.588 6.8249L31.2848 5.16787C31.7536 4.71006 31.7536 3.96865 31.2848 3.51084C30.816 3.05303 30.0568 3.05303 29.588 3.51084L27.8912 5.16787C27.4224 5.62568 27.4224 6.36709 27.8912 6.8249C28.36 7.28271 29.1192 7.28271 29.588 6.8249Z" fill="white"/>
</svg>
