<svg width="374" height="348" viewBox="0 0 374 348" fill="none" xmlns="http://www.w3.org/2000/svg"><g clip-path="url(#a)"><path fill-rule="evenodd" clip-rule="evenodd" d="M316.5 253.32S249.76 242.63 182 221.1c0 0 9.62 56.56 0 61.37 0 0 71.16-12.06 127.32-3.81l7.18-25.34Z" fill="url(#b)"/><path d="M203.42 230.3s51 11 57.08 16.54l-1 7-49.37-9.67 39.15 9.15-.54 3.52-42.77-5.59.43 14.08 56.15 5.23 8.48-3.79-2.15-22.74s-40.77-8.65-66.6-16.46l1.14 2.73Z" fill="#4D1F1D" style="mix-blend-mode:multiply" opacity=".2"/><path fill-rule="evenodd" clip-rule="evenodd" d="m203.89 89.19 167.04-17.87v1.76L203.89 91.12v-1.93Z" fill="url(#c)"/><path fill-rule="evenodd" clip-rule="evenodd" d="m249.09 262.93 20.78-212.79h2.23l-19.13 212.91-3.88-.12Z" fill="url(#d)"/><path fill-rule="evenodd" clip-rule="evenodd" d="m214.8 87.69-.08.15a.377.377 0 0 1 .08-.18s-.01.01 0 .03Z" fill="url(#e)"/><path fill-rule="evenodd" clip-rule="evenodd" d="M368.09 226.44h-1.61s-15-12.38-50.6-19.81a273.594 273.594 0 0 0-48.56-5.34c-56.8-1.47-93.42 18.74-105.79 26.88-3.1 2-4.67 3.32-4.67 3.32l.06-.18c.22-.65 1-2.92 2.29-6.57 2.38-6.76 6.51-18.24 12-32.82 1.46-3.87 3-8 4.68-12.24 2.05-5.28 4.22-10.85 6.54-16.64v-.11c4.78-12 10.13-25 15.91-38.48.25-.57.49-1.14.75-1.71 1.17-2.73 2.36-5.49 3.58-8.25 3.81-8.75 7.81-17.65 11.95-26.58-.05.25.05.69 1.05 1.14 2.65 1.19 11.55 2.56 40.43 1 20.41-1.1 43.16-4.8 62.05-8.54 10.34-2 19.52-4.1 26.52-5.75h.13c3.94-.92 7.19-1.72 9.55-2.31 2.82-.72 4.4-1.15 4.4-1.15l2.36 1.51s-7.63 22.4-3.38 70.29c4.25 47.89 10.36 82.34 10.36 82.34Z" fill="url(#f)"/><path style="mix-blend-mode:multiply" opacity=".3" fill-rule="evenodd" clip-rule="evenodd" d="M220.15 92.44a46.746 46.746 0 0 1-4.37-3.44c2.65 1.19 11.54 2.56 40.42 1 31.59-1.71 68.79-9.61 88.58-14.3-6.95 1.86-17.52 4.69-31.94 8.64-28.84 7.93-75.44 9.69-75.44 9.69 13.21 5.09 36.61 8.8 36.61 8.8-11.62-.53-47.76-5.99-53.86-10.39Z" fill="url(#g)"/><path style="mix-blend-mode:multiply" opacity=".3" fill-rule="evenodd" clip-rule="evenodd" d="M368.09 226.44h-1.61s-28.17-23.29-99.16-25.14c-70.99-1.85-110.46 30.2-110.46 30.2s9.8-28.84 25.63-68.52l-17.27 52.35c7-9.29 17-28.72 17.95-30.52l-14.67 36.12c13.36-12.16 36.07-25.55 37.48-26.37L176 217.04s46.28-17.34 79.21-17.54c32.93-.2 89.14 10.91 89.14 10.91-12-11-35.67-15.55-37.51-16 40.34 1.91 53.56 26.52 55.56 27.57L351 206.31l10.27 11.66c-10.72-17-19.83-37.31-20.39-38.32 9.52 14.52 19.76 33.81 20.37 34.32-.32-.71-1.45-26.19-3.37-46.73-2-20.86-2.54-74.62-2.54-74.62s-1.71 1.22-9.19 12c-7.31 10.47-23.25 42.24-24 43.76.52-1.2 9-20.68 16.69-36.07 7.9-15.92 17.77-33.81 17.77-33.81-10 8.64-30.37 19.8-31.17 20.23 9.7-7.76 26.24-22.51 26.24-22.51C334 86.64 310.41 93.93 296.26 97.7c23.42-7.09 53.47-22 58.2-24.35l4.4-1.14 2.35 1.5s-7.62 22.4-3.37 70.29c4.25 47.89 10.25 82.44 10.25 82.44Z" fill="url(#h)"/><path style="mix-blend-mode:multiply" opacity=".6" fill-rule="evenodd" clip-rule="evenodd" d="M185.19 161.69s20.83-37.29 25-58.51c.02 0-19.93 50.05-25 58.51Z" fill="url(#i)"/><path style="mix-blend-mode:multiply" opacity=".3" fill-rule="evenodd" clip-rule="evenodd" d="m321.69 88.36 33.72-15.54 3.45-.61 2.35 1.5s-2.73 8.65-2.83 13.73c0 0-6.81 5.65-15.88 22.81-7.73 14.64-16.43 29.1-16.43 29.1s18.2-38.83 24.71-50.08l5.83-10.77s-11 6.46-19.3 10.29c0 0 11.38-8.82 14.84-13.12l-30.46 12.69Z" fill="url(#j)"/><path style="mix-blend-mode:multiply" opacity=".3" fill-rule="evenodd" clip-rule="evenodd" d="m183.17 184.79-17.7 29.71-8.61 17a116.722 116.722 0 0 0 13.46-19.5 289.545 289.545 0 0 0 12.85-27.21Z" fill="url(#k)"/><path style="mix-blend-mode:multiply" opacity=".3" fill-rule="evenodd" clip-rule="evenodd" d="M164.23 226.44s14.87-17.63 36.52-28.72c0 0-26.64 18.64-36.52 28.72Z" fill="url(#l)"/><path style="mix-blend-mode:screen" opacity=".5" fill-rule="evenodd" clip-rule="evenodd" d="M257.87 97.18s18.93 5.34 45.64-2.34a182.602 182.602 0 0 0 44.82-19.47s-56.78 19.52-90.46 21.81Z" fill="url(#m)"/><path style="mix-blend-mode:screen" opacity=".5" fill-rule="evenodd" clip-rule="evenodd" d="M223.39 98.99s20.34 12 45.5 13.29c25.16 1.29 60.91-16 78.61-32.55 0 0-27.83 21.81-70.79 23-42.96 1.19-53.32-3.74-53.32-3.74Z" fill="url(#n)"/><path style="mix-blend-mode:screen" opacity=".5" fill-rule="evenodd" clip-rule="evenodd" d="M355.73 79.73s-13.84 14-21.72 27c-7.88 13-11.18 40-11.18 40a563.756 563.756 0 0 1 32.9-67Z" fill="url(#o)"/><path style="mix-blend-mode:multiply" opacity=".3" fill-rule="evenodd" clip-rule="evenodd" d="M368.09 226.44h-1.61s-28.17-23.29-99.16-25.14c-70.99-1.85-110.46 30.2-110.46 30.2l.06-.18 19-51.56c-.7 2.14-12.61 12.17 41.19 12.88 53.8.71 114.35 2.57 125.15-27.14 11.13-30.66 13.88-77.23 10.85-81.11-3.03-3.88-82.44 10-118.66 6.79l-15.52-.55a155.374 155.374 0 0 0-19.74 32.09c4.88-11.37 10.08-23.07 15.53-34.83-.05.25.05.68 1.05 1.14 2.65 1.19 11.54 2.56 40.42 1 31.59-1.71 68.79-9.61 88.58-14.3h.13c3.94-.92 7.19-1.72 9.55-2.31l4.4-1.14 2.35 1.5s-7.62 22.4-3.37 70.29c4.25 47.89 10.26 82.37 10.26 82.37Z" fill="url(#p)"/><path style="mix-blend-mode:screen" opacity=".5" fill-rule="evenodd" clip-rule="evenodd" d="M210.21 106.7s9.94 20.24 36.74 28.68c0 0-32.09-17.33-36.74-37.7 0 0-1.4 2.51 0 9.02Z" fill="url(#q)"/><g style="mix-blend-mode:multiply" opacity=".4" fill-rule="evenodd" clip-rule="evenodd" fill="#F0C6D0"><path d="M304.25 156.85c-2.61 2.32-4.81 4.58-5.76 8.26a31.165 31.165 0 0 0-1.22 9c.19 3.84 2.57 5.24 5.22 6.92a67.143 67.143 0 0 1 7.46 5.38 13.508 13.508 0 0 0 11 3.31c4.84-.53 9.32-2.81 13.53-5.4 3.62-2.22 7.64-5.25 9.58-9.49a21.28 21.28 0 0 0 1.22-4.88c.38-2 .81-3.9 1.1-5.87a15.089 15.089 0 0 0-1.06-9.09c-1.75-3.43-4.62-5.17-8-6.23-4.24-1.35-8.64-1.44-13-1.87-2.64-.25-5.79-.77-8.38 0a19.66 19.66 0 0 0-5.43 2.51 11.105 11.105 0 0 0-2.06 2.15 14.171 14.171 0 0 0-1.83 2.15c-.68 1.49-1.92 2.25-2.37 3.15ZM289 173.04a9.803 9.803 0 0 1 3.71-1.65c.5 1.06 1.49 1.47 1.82 2.71.178.871.242 1.762.19 2.65a2.931 2.931 0 0 1-1.9 2.89c-.6.33-.82.5-1.44.24a3.7 3.7 0 0 1-1.45-1.28 26.582 26.582 0 0 1-1.19-2.39c-.32-.69-.71-1.85-.06-2.46l.32-.71ZM298.51 139.96a17.017 17.017 0 0 0-2.66 3.15 10.71 10.71 0 0 0-.46 2.51c-.26 1.61.3 2.52 1.81 2.37 1.69-.17 3.37-.51 5.05-.72 1.93-.24 4-.73 5.36-2.44 2-2.55 2.94-8.12-.34-9.93-1.08-.61-3.46-.34-4.61-.05-3 .77-5.34 3.54-7 6.16l2.85-1.05ZM214.43 143.69a35.763 35.763 0 0 1-3.8 8.91c-2 3.2-3.88 6.65-6.29 9.53-3.02 3.6-6.266 7.004-9.72 10.19-1.51 1.38-3.11 2.65-4.66 4-1.8 1.55-3.44 3.22-5.33 4.62a104.704 104.704 0 0 0-8.21 6.55c-1.73 1.54-3.43 3-5.18 4.45 1.46-3.87 3-8 4.69-12.24 2-5.28 4.22-10.85 6.54-16.65v-.1c4.79-12 10.13-25 15.91-38.48.24-.567.49-1.137.75-1.71 1.17-2.73 2.37-5.49 3.57-8.25 5.3 1.23 9 6.76 10.61 12.15 1.61 5.39 2.69 11.57 1.12 17.03ZM200.15 175.16c.336-1.627.93-3.19 1.76-4.63l3-2.71a47.463 47.463 0 0 1 5.52-4.92c2.11-1.41 4.66-2.35 6.73-.45a7.998 7.998 0 0 1 2.16 5.56c.06 3.03-.627 6.028-2 8.73a31.186 31.186 0 0 1-6 7.21 4.06 4.06 0 0 1-2.5 1.44c-1 .078-2.005.055-3-.07a6.665 6.665 0 0 1-5.35-4.26 15.317 15.317 0 0 1-.58-2.52c-.17-1.38.48-2.43.26-3.38ZM216.39 152.63c.27-.47-2.66 3.47-1.86 4.16.28.24 1.23.08 1.53.07.81 0 2.58-.31 3.14-1.13.56-.82-.38-1.8-.89-2.14a4.12 4.12 0 0 0-1.28-.63c-.4-.07-.69.14-1-.18l-.24.2.6-.35ZM321.12 122.71c-.13.22-3.14 4.14-1.62 5.23.62.44 1.58-.36 2.1-.65a1.383 1.383 0 0 0 .81-1.76c-.14-.84-.56-1.62-.66-2.47l-.63-.35ZM347.54 133.97c-.58.87-2.48 3.08-2.19 4.68.18 1 .9 1.32 1.56 1.74.44.29 1 .91 1.58.92.58.01 1.1-.65 1.43-1.16a6.08 6.08 0 0 0 1.09-4.42c-.26-1.62-1-2.81-2.52-2.81l-.95 1.05ZM300.11 93.15a40.435 40.435 0 0 0-9.43 2.82c-1.18.53-2.53.87-3.66 1.5-.47.27-1 .6-1.15 1.24a5.828 5.828 0 0 0 2.51 1.13c1.447.5 2.97.74 4.5.71 1.943-.01 3.88-.221 5.78-.63 1.21-.26 2.47-.24 3.68-.51a29.45 29.45 0 0 0 3.83-1.33 12.548 12.548 0 0 0 4.46-2.82A7.581 7.581 0 0 0 312 92.5c.21-.56.35-.34-.07-.78a1.94 1.94 0 0 0-1.34-.36 9.311 9.311 0 0 0-2.1.29c-.979.113-1.967.137-2.95.07-1 0-2 .27-3 .34-1.48.12-2.62.69-2.43 1.09ZM279.42 99.13c-1.49.313-2.951.748-4.37 1.3-.12.06-.68.25-.66.5.02.25.58.27.72.29 1.33.123 2.666.16 4 .11.46 0 1 .08 1.4-.28a1.199 1.199 0 0 0 .36-1.56c-.12-.23-.24-.23-.48-.29a.93.93 0 0 0-.55 0c-.3 0-.54.14-.42-.07ZM282.76 96.5c.37-.08 1-.39 1.3.09.15.27-.16.44-.35.59a1.272 1.272 0 0 1-.72.38c-.303.03-.607.03-.91 0-.2 0-.87-.35-.67-.68a3.62 3.62 0 0 1 .33-.2c.115-.069.24-.12.37-.15h.2c.06 0 .09-.12.21-.08l.24.05ZM325.57 95.96a99.438 99.438 0 0 0-11.09 7.14c-.64.49-7.11 5.18-4.51 6.43 1.53.74 3.38.13 4.9-.35a42.417 42.417 0 0 0 6.14-2.52 52.835 52.835 0 0 0 11.53-7.42 54.174 54.174 0 0 0 4.66-4.33c.57-.64 1.17-1.25 1.71-1.93.11-.14.67-.82.66-1.14 0-1.27-5.75.17-6.5.46-1.58.61-3.11 1.48-4.63 2.25a21.99 21.99 0 0 0-1.89 1.17c-.8.51-1.62.96-.98.24ZM330.35 88.04s-4.21 1.84-3.14 2.44c.19.11.55-.09.72-.14.449-.127.907-.22 1.37-.28.439-.019.873-.1 1.29-.24.47-.2.6-.57.71-1.07 0-.17.21-.52.14-.68-.07-.16-1.38 0-1.57 0l.48-.03ZM335.76 97.9c-.663.295-1.307.629-1.93 1a11.05 11.05 0 0 0-1.52 1.54c-.17.17-1.48 1.32-1.14 1.79.17.26.74.35 1 .44a2.308 2.308 0 0 0 2-.33 6.712 6.712 0 0 0 2.29-2.52c.235-.38.417-.79.54-1.22.08-.92-1.29-.46-1.68-.35l.44-.35ZM349.77 100.5c-.695.373-1.363.794-2 1.26-.24.31-.47.63-.71 1a24.97 24.97 0 0 0-3 4.93 20.518 20.518 0 0 0-1.81 7.24c0 .43 0 .85.34 1.06.461.18.956.258 1.45.23a7.433 7.433 0 0 0 4.36-1.42 13.358 13.358 0 0 0 5-10.57 7.407 7.407 0 0 0-.4-2.73c-.11-.27-.27-.78-.53-.91a3.093 3.093 0 0 0-1.22 0c-.86-.03-1.41.72-1.48-.09ZM351.83 96.14a6.42 6.42 0 0 1 1.5-1.49 4.539 4.539 0 0 1-.5 2.38.723.723 0 0 1-.67.3c-.33 0-.74-.3-.33-.66v-.53ZM216.39 92.97c.401.66.852 1.29 1.35 1.88.615.56 1.285 1.056 2 1.48a45.238 45.238 0 0 0 6.48 3.36c2.64 1.19 5.49 2.17 8.3 1 1.48-.6-.86-2.29-1.42-2.71-1.07-.8-2.13-1.66-3.24-2.4a25.63 25.63 0 0 0-4-2.11c-1.67-.73-3.31-1.59-4.93-2.46a5.72 5.72 0 0 0-2.78-.88c-.76.03-1.488.311-2.07.8-.36.27-.53.37-.4.86a13.64 13.64 0 0 0 2 3.45l-1.29-2.27ZM217.18 98.43c.433.672.908 1.316 1.42 1.93.398.369.826.703 1.28 1a9.007 9.007 0 0 0 2.7 1.61c.34.09.51.07.5-.34 0-1-.92-1.72-1.51-2.28a20.034 20.034 0 0 0-3.6-2.6c-.18-.11-.54-.37-.76-.19-.45.38.68 1.79-.03.87Z"/></g><path fill-rule="evenodd" clip-rule="evenodd" d="m159.21 222.25 211.37 7.42v1.59L159.21 224v-1.75Z" fill="url(#r)"/><path fill-rule="evenodd" clip-rule="evenodd" d="M211.33 88.3s-.2-1.61-1.52-1.85-.8 1.68-.8 1.68-.86-2.75-4.95-3-1.93 4-1.93 4h.75s-1.42-2.52.13-3.24c1.55-.72 5.53 2.89 5.53 2.89s-1.61-1.1-2.2-.44c.058.428.091.858.1 1.29 0 0 .09-2-1.43-2s-1.12 1.59-1.12 1.59a6.37 6.37 0 0 0-3.39.32c-1.55.7-2.32 6.25 0 7.21s3.05-5.73 3.05-5.73h-.51s-.6 5.42-2.24 5.15c-1.64-.27-.3-4.82-.3-4.82l3.37-.33s.58 1 1.31.84a2.45 2.45 0 0 0 1.32-1s-.22.16.08.37 1.07-.57 1.07-.57a2.845 2.845 0 0 0 2.49.7c1.46-.43 1.19-3.06 1.19-3.06ZM370.72 71.5s.59-2.17-2.27-2.34c-2.86-.17-6.4 2.32-6.4 2.32a1.8 1.8 0 0 0-2-1.08c-1.45.24-2.35 2.15-2.35 2.15v.65s-.62 8.78 2.35 8.67c2.97-.11 4.22-8 4.22-8s-.26 16.2 3.32 13.52c3.58-2.68 1.55-13.11 1.55-13.11s3.34 4.82 3.82 1.62a4.152 4.152 0 0 0-2.24-4.4Zm-10.93 9.47c-1.77-.11-.94-7.48-.94-7.48 1.72 2.25 4.76.81 4.76.81s-2.04 6.75-3.82 6.64v.03Zm6.54 5.53c-2.11-.59-1.35-12.23-1.35-12.23.78 1.93 3.6.57 3.6.57s-.13 12.25-2.25 11.66ZM369.79 222.74c-2.33-.39-3.31 3.69-3.31 3.69s-2-4.47-4.32-3.58c-2.32.89-2.6 5.71-2.6 5.71s-1.17-1.3-1.79-1c-.804.6-1.553 1.269-2.24 2 .76.36.36 1.65.36 1.65s.18 1.26.62 1.44c.44.18 1.8-1.37 1.8-1.37s2.6 26.76 5.6 25.59c3-1.17 5.88-24 5.88-24s1.07 2.06 2.06.9c.99-1.16.27-10.64-2.06-11.03Zm-5.88 32.69c-2.21-.34-4.7-24.32-4.7-24.32a8.842 8.842 0 0 0 2.23 1.88c.82.27 1.53-1.51 1.53-1.51a3.438 3.438 0 0 0 2.24 2.59c1.89.53 3.69-1.44 3.69-1.44s-2.79 23.14-4.99 22.8Zm7.36-22.21c-.87.2-1.57-2.11-1.57-2.11.94 1 2.06-.45 2.06-.45s.38 2.35-.49 2.56Z" fill="#661B3E"/><path style="mix-blend-mode:multiply" opacity=".6" fill-rule="evenodd" clip-rule="evenodd" d="M315.88 206.62a273.594 273.594 0 0 0-48.56-5.34c-56.8-1.47-93.42 18.74-105.79 26.88l-2.32-3.43c2.38-6.76 6.51-18.24 12-32.82 1.46-3.87 3-8 4.68-12.24 2.05-5.28 4.22-10.85 6.54-16.64v-.11c4.78-12 10.13-25 15.91-38.48.25-.57.49-1.14.75-1.71 1.17-2.73 2.36-5.49 3.58-8.25 3.81-8.75 7.81-17.65 11.95-26.58-.05.25.05.69 1.05 1.14 2.65 1.19 11.55 2.56 40.43 1 20.41-1.1 43.16-4.8 62.05-8.54l.35 2.27s-12.19 75.96-2.62 122.85Z" fill="url(#s)"/><path fill-rule="evenodd" clip-rule="evenodd" d="M211.05 270.01 234 .5h2l-17.18 270s-4.39 2.26-7.77-.49Z" fill="url(#t)"/><path fill-rule="evenodd" clip-rule="evenodd" d="M213.93 236.69a7.126 7.126 0 0 1 4.45 0c2.46.8 1.5 17.15 1.5 17.15l3.12-49.13-6.38-.2-2.69 32.18Z" fill="#7E0100" style="mix-blend-mode:multiply" opacity=".46"/><path fill-rule="evenodd" clip-rule="evenodd" d="m130.68 121.7 159.96-19.18v1l-159.96 19.67v-1.49Z" fill="url(#u)"/><path fill-rule="evenodd" clip-rule="evenodd" d="m110.56 207.81 199.55 7.56v1.66l-199.55-7.49v-1.73Z" fill="url(#v)"/><path fill-rule="evenodd" clip-rule="evenodd" d="M290.64 102.5h-1.45c-8.78-.6-55.49-3.45-87.43 1.1l-.55.08-1.55.24c-2.5.39-5 .86-7.57 1.37h-.14c-25.43 5.16-51 15.54-52.76 16.26h-.1l-1.77.16v-.08c.61-1 6.52-11.27 12.52-21.09 1.92-3.14 3.85-6.25 5.62-9 13.05-20.27 19.29-29.19 23.42-36.73h.42l2.17-.15h.13c9-.69 39.15-.05 71.56-7.86 2-.467 4-.98 6-1.54h.06c.43-.1.84-.22 1.27-.34l.19-.05c1.55-.43 3.09-.88 4.65-1.34 2.55-.76 5.12-1.55 7.67-2.4.64-.2 1.27-.4 1.91-.62a117.407 117.407 0 0 0 0 20.76v.16a91.164 91.164 0 0 0 1.31 9.35 81.337 81.337 0 0 0 14.41 31.72h.01Z" fill="url(#w)"/><path style="mix-blend-mode:multiply" opacity=".3" fill-rule="evenodd" clip-rule="evenodd" d="M184.39 67.04s-3.51-9-5-12.28l2.17-.15 10.34 7.89c-.57-.13-9.63-6.16-11-6.91l3.49 11.45Z" fill="url(#x)"/><path style="mix-blend-mode:multiply" opacity=".6" fill-rule="evenodd" clip-rule="evenodd" d="M234.55 52.01c-20 5.2-50.54 2.53-52.9 2.59 9.69-.73 43.81 0 78.91-9.76-1.33.42-7.11 2.27-26.01 7.17Z" fill="url(#y)"/><path style="mix-blend-mode:multiply" opacity=".3" fill-rule="evenodd" clip-rule="evenodd" d="M290.64 102.5h-1.45c-8.78-.66-55.62-3.74-88 1.18l-1.55.24-1.17.2c-2.17.37-4.31.76-6.4 1.17h-.14c-30.75 6-51.22 15.53-52.76 16.26h-.1l-1.77.16v-.08c.61-1 6.52-11.27 12.52-21.09 2.06-2.54 5-6 8.43-9.56 0 0-8.06 12.09-11.48 19.52 0 0 12.78-11.23 19.43-14.12a164.746 164.746 0 0 0-14.53 15c.91-.62 27.13-22 43.58-27.25-.66.36-22.05 11.78-31.93 23.55 1.09-.24 35.65-8.67 59.25-9.87 24-1.22 55.1 3.74 55.1 3.74s-26.15-12.44-33.87-14c1.69.25 20.08 3 33 7.93l-12-8.56a145.336 145.336 0 0 0 17.78 8.67s-9-9.65-12.5-19.81c.41 1 3.93 8.76 9.66 12.39-.35-.55-6-9.48-7.5-19.33-1.51-10.18-.61-25.77-.61-25.77s-8.08 1.66-19.66 10c.92-.8 8.44-7.31 13.46-9.59.115-.063.236-.117.36-.16-.3.07-2.92.77-6.49 1.9h-.06a126.705 126.705 0 0 0-12.08 4.5l6.06-3 4-2c5.3-1.33 11.49-2.36 16.78-4 0 0 1-.82 1-.41-.3 3-1.6 17 1.32 30.27a88.164 88.164 0 0 0 14.31 31.92h.01Z" fill="url(#z)"/><path style="mix-blend-mode:screen" opacity=".5" fill-rule="evenodd" clip-rule="evenodd" d="M271.62 43.04s-9.55 3.06-16 7.25c-6.45 4.19-13.46 19.45-13.46 19.45s13.59-13 19.17-17.46a128.111 128.111 0 0 0 10.29-9.24Z" fill="url(#A)"/><path style="mix-blend-mode:screen" opacity=".5" fill-rule="evenodd" clip-rule="evenodd" d="M224.13 82.63s16.71 4 26.1 6c13.66 2.87 26.46 6.87 26.46 6.87a182.678 182.678 0 0 0-23.33-9.61c-10.83-3.56-29.23-3.26-29.23-3.26Z" fill="url(#B)"/><path style="mix-blend-mode:screen" opacity=".5" fill-rule="evenodd" clip-rule="evenodd" d="M160.94 109.62a154.982 154.982 0 0 1 20.65-17.19c10.8-7.23 23.83-8.31 23.83-8.31s-19.48 10.19-25.49 14.31c-7.08 4.85-18.99 11.19-18.99 11.19Z" fill="url(#C)"/><path style="mix-blend-mode:screen" opacity=".5" fill-rule="evenodd" clip-rule="evenodd" d="M162.17 104.42S169.53 86.1 174 77.25a104.634 104.634 0 0 1-4 13.59c-2.2 5.54-7.83 13.58-7.83 13.58Z" fill="url(#D)"/><g style="mix-blend-mode:multiply" opacity=".4" fill-rule="evenodd" clip-rule="evenodd" fill="#F2CFD7"><path d="M178.2 70.31a12.092 12.092 0 0 0-1.92 4.38 38.651 38.651 0 0 0-.86 5 6.23 6.23 0 0 0 .85 4.1 29.262 29.262 0 0 1 1.5 3.31c.67 1.77 1.43 2.4 2.5 2.31 1.07-.09 2.46-1.19 3.65-2.47a12.76 12.76 0 0 0 2.93-4.93c.248-.882.448-1.777.6-2.68.21-1.08.44-2.15.63-3.24a18.74 18.74 0 0 0 .3-5.14 5.831 5.831 0 0 0-1.56-3.82 8.342 8.342 0 0 0-3.07-1.58c-.63-.25-1.37-.66-2.05-.36a4.505 4.505 0 0 0-1.49 1.19 5.795 5.795 0 0 0-.63 1.12c-.224.362-.422.74-.59 1.13-.28.81-.62 1.19-.79 1.68ZM264.12 48.07c.555-.443 1.2-.76 1.89-.93.25.6.75.83.92 1.53.093.494.127.998.1 1.5a1.704 1.704 0 0 1-1 1.64c-.3.18-.41.28-.72.13a2 2 0 0 1-.74-.72c-.21-.39-.44-.94-.61-1.35-.17-.41-.36-1 0-1.4l.16-.4ZM233.18 75.34a9.694 9.694 0 0 0-1.35 1.78c-.127.45-.204.913-.23 1.38-.14.91.15 1.42.92 1.34.77-.08 1.7-.29 2.56-.41a3.687 3.687 0 0 0 2.72-1.38c1-1.44 1.48-4.59-.18-5.61a3.64 3.64 0 0 0-2.33 0c-1.5.43-2.71 2-3.56 3.48l1.45-.58ZM268.45 78.82a6.23 6.23 0 0 1 2.15 1l1.31 1.78a27.434 27.434 0 0 1 2.38 3.33c.69 1.28 1.18 2.86.36 4.2a3.317 3.317 0 0 1-2.51 1.48 6.629 6.629 0 0 1-4-1 16.169 16.169 0 0 1-3.44-3.6 2.8 2.8 0 0 1-.7-1.51 11.55 11.55 0 0 1 0-1.86 4.222 4.222 0 0 1 1.83-3.45 5.395 5.395 0 0 1 1.14-.42c.55-.18 1.03.21 1.48.05ZM189.79 78.42c.14-.26-1.35 2-.94 2.36.14.13.62 0 .77 0 .41 0 1.31-.18 1.6-.64.29-.46-.19-1-.46-1.21a1.739 1.739 0 0 0-.65-.36c-.2 0-.35.08-.52-.1l-.12.11.32-.16ZM265.59 65.95c-.07.12-1.6 2.34-.82 3 .31.25.8-.2 1.06-.37.26-.17.49-.43.41-1-.08-.57-.28-.92-.33-1.4l-.32-.23ZM169.17 91.57c-.29.49-1.26 1.74-1.11 2.64.09.56.45.75.79 1s.52.51.8.52c.28.01.56-.37.73-.66a3.747 3.747 0 0 0 .55-2.5c-.13-.91-.5-1.59-1.28-1.59l-.48.59ZM239.17 52.44c-1.548.322-3.043.86-4.44 1.6-.56.3-1.19.49-1.72.84a.992.992 0 0 0-.55.7c.33.316.737.54 1.18.65.673.274 1.394.41 2.12.4a12.003 12.003 0 0 0 2.73-.36c.57-.15 1.16-.13 1.73-.29.618-.203 1.22-.454 1.8-.75a5.92 5.92 0 0 0 2.1-1.6c.304-.473.517-.999.63-1.55.1-.32.17-.19 0-.44a.881.881 0 0 0-.63-.21 4.105 4.105 0 0 0-1 .17 7.189 7.189 0 0 1-1.39 0c-.48 0-.92.15-1.4.19-.71.1-1.25.42-1.16.65ZM207.55 62.2c-.708.182-1.398.43-2.06.74-.06 0-.32.14-.31.28.01.14.27.16.34.17a12.85 12.85 0 0 0 1.86.06c.22 0 .49 0 .66-.16a.763.763 0 0 0 .17-.88c-.05-.13-.11-.13-.22-.17a.47.47 0 0 0-.26 0c-.13.01-.24.08-.18-.04ZM192.55 58.71c.17 0 .49-.22.61 0s-.07.25-.16.34a.57.57 0 0 1-.34.21 2.06 2.06 0 0 1-.43 0c-.1 0-.41-.2-.32-.39l.16-.11a.524.524 0 0 1 .17-.08h.1s0-.07.09-.05l.12.08ZM253.88 48.92a45.196 45.196 0 0 0-5.23 4c-.3.27-3.35 2.93-2.12 3.63a2.702 2.702 0 0 0 2.31-.2 17.86 17.86 0 0 0 2.88-1.42 25.014 25.014 0 0 0 5.44-4.19 28.808 28.808 0 0 0 2.19-2.45c.27-.36.55-.71.81-1.09a2.07 2.07 0 0 0 .31-.65c0-.72-2.71.1-3.07.26-.744.387-1.468.81-2.17 1.27-.31.19-.6.44-.89.66-.29.22-.77.59-.46.18ZM246.41 49.57s-2 1-1.48 1.38c.09.06.26-.06.34-.09.21-.064.424-.114.64-.15.21-.012.416-.06.61-.14.22-.11.28-.32.34-.61 0-.09.09-.29.06-.38-.03-.09-.65 0-.74 0l.23-.01ZM254.18 54.03a8.629 8.629 0 0 0-.91.58c-.263.27-.504.561-.72.87-.08.1-.69.75-.54 1 .15.25.35.2.48.24a.9.9 0 0 0 .93-.18c.47-.379.84-.866 1.08-1.42.109-.226.19-.464.24-.71 0-.52-.6-.26-.79-.2l.23-.18Z"/><path d="M268.36 49.62c-.336.21-.654.447-.95.71-.12.18-.23.36-.34.54a14.827 14.827 0 0 0-1.39 2.79 13.002 13.002 0 0 0-.85 4.1c0 .24 0 .47.16.59.212.101.446.146.68.13a3.151 3.151 0 0 0 2.05-.8 8.237 8.237 0 0 0 2.35-6 4.733 4.733 0 0 0-.2-1.56c-.05-.16-.12-.45-.25-.52a1.21 1.21 0 0 0-.57 0c-.4.03-.66.45-.69.02ZM250.9 51.09c.187-.316.423-.6.7-.84.027.458-.052.917-.23 1.34a.331.331 0 0 1-.32.17c-.15 0-.34-.17-.15-.37v-.3ZM179.5 60.05c.077.427.184.848.32 1.26.12.264.26.518.42.76.247.496.587.94 1 1.31.15.1.23.13.3-.1a2.11 2.11 0 0 0-.3-1.47c-.34-.71-.756-1.38-1.24-2-.06-.08-.19-.28-.33-.22-.14.06 0 1.07-.17.46Z"/></g><path style="mix-blend-mode:multiply" opacity=".3" fill-rule="evenodd" clip-rule="evenodd" d="M290.64 102.5s-50.29-5.57-92.15 1.51C161 110.39 156 119.97 156 119.97l-.91.15s3.76-11.23 8.54-24.4c0 0 1.66 3.8 45.48-2.37 44.8-6.32 56.21-10 61.46-13.54 4.91-3.33 4.46-16.83 4.4-18.46a90.69 90.69 0 0 0 1.31 9.34 81.223 81.223 0 0 0 14.36 31.81Z" fill="url(#E)"/><path fill-rule="evenodd" clip-rule="evenodd" d="m308.92 217.38-2.15.11h-.18c-1.05-.33-7.65-2.36-19.35-4.73-16.84-3.4-44.27-7.48-81-8.19a613.22 613.22 0 0 0-18.58-.06c-68 .86-102.2 12.23-102.2 12.23a263.472 263.472 0 0 1 12.34-32.11c.4-.88.81-1.78 1.23-2.68a275.863 275.863 0 0 1 22.81-40.23c1.72-2.5 3.507-4.983 5.36-7.45a199.78 199.78 0 0 1 10.19-12.52h1.77c4.73.13 20.16 0 60.35-4.66 46.55-5.35 80.36-12.49 85.9-13.69l.8-.17 2.48.24v3.2a298.643 298.643 0 0 0 1.51 30.29c3.92 34.54 18.72 80.42 18.72 80.42Z" fill="url(#F)"/><path style="mix-blend-mode:multiply" opacity=".3" fill-rule="evenodd" clip-rule="evenodd" d="M199.34 121.71c-2.15.18-42.78 3.55-59.84 2.39 0 0 15.53 14.89 30.62 21.61-9-3.58-28.65-12-35.69-19.7l-7.3 8.21a199.78 199.78 0 0 1 10.19-12.52H138.53a558.413 558.413 0 0 0 60.81.01Z" fill="url(#G)"/><path style="mix-blend-mode:multiply" opacity=".3" fill-rule="evenodd" clip-rule="evenodd" d="m308.92 217.38-2.15.11h-.18l-11.91-2.6s-2.76-.81-7.44-2.13c-15.29-4.3-50.93-13.92-76.76-17.68 0 0 52.07 4.65 74.64 14.34L259.5 197.7c.73.17 24.2 5.78 31.74 11.66-.42-.51-14-17-18.43-36.92.33.59 12.86 29.2 29.2 37.55 0 0-10.52-46.85-13.14-76.28-1.83-20.51-1.6-24.09-1.6-24.09s-9.91 13.62-16 23.48c.28-.65 7.58-17.5 12.42-23.48a179.565 179.565 0 0 0-23.43 22.33c.92-1.33 11-16 17.95-23.41 0 0-14 4.3-50.82 7.53 1.81-.25 30.82-4.21 38.36-6.81 0 0-86.49 14.58-126.65 12.54 4.73.13 20.16 0 60.35-4.66 46.55-5.35 80.36-12.49 85.9-13.69l3.28.07c0 6 .21 22.34 1.5 33.49 3.99 34.49 18.79 80.37 18.79 80.37Z" fill="url(#H)"/><path style="mix-blend-mode:screen" opacity=".5" fill-rule="evenodd" clip-rule="evenodd" d="M283.68 109.62s-15.87 12.24-21.13 19.71c-5.26 7.47-4.47 23.71-4.47 23.71s10.41-15.79 16-26.2 10-17.22 10-17.22h-.4Z" fill="url(#I)"/><path style="mix-blend-mode:screen" opacity=".5" fill-rule="evenodd" clip-rule="evenodd" d="M278.2 108.5a122.663 122.663 0 0 0-15.5 9.42c-7.43 5.3-15.48 15.75-15.48 15.75s12.12-5.75 18.63-12 12.35-13.17 12.35-13.17Z" fill="url(#J)"/><path style="mix-blend-mode:screen" opacity=".5" fill-rule="evenodd" clip-rule="evenodd" d="M134.43 126.01s4.13 8.9 17 17c12.87 8.1 37.05 10.39 37.05 10.39s-41.71-15.49-54.05-27.39Z" fill="url(#K)"/><path style="mix-blend-mode:screen" opacity=".5" fill-rule="evenodd" clip-rule="evenodd" d="M165.13 122.55s29.73-.85 54.2-4.5c24.47-3.65 45.25-8.43 45.25-8.43s-77.72 11.2-99.45 12.93Z" fill="url(#L)"/><g style="mix-blend-mode:multiply" opacity=".4" fill-rule="evenodd" clip-rule="evenodd" fill="#E8C0CF"><path d="M126.82 155.78a11.242 11.242 0 0 0-3.51 5.56 24.21 24.21 0 0 0-.85 6.11c.06 2.62 1.45 3.59 3 4.75a43.053 43.053 0 0 1 4.33 3.73 7.256 7.256 0 0 0 6.46 2.36c2.86-.31 5.54-1.82 8.06-3.54a15.16 15.16 0 0 0 5.78-6.35c.383-1.071.648-2.181.79-3.31.25-1.32.53-2.64.73-4a11.625 11.625 0 0 0-.5-6.18 7.598 7.598 0 0 0-1.835-2.658 7.592 7.592 0 0 0-2.775-1.652c-2.48-1-5.08-1.07-7.64-1.4-1.56-.2-3.4-.58-4.94-.1a10.81 10.81 0 0 0-3.24 1.65 7.306 7.306 0 0 0-1.25 1.44c-.413.446-.784.927-1.11 1.44-.48 1.04-1.22 1.55-1.5 2.15ZM140.44 143.75a5.615 5.615 0 0 1 2.21-1.08c.28.72.86 1 1 1.86a8.34 8.34 0 0 1 .08 1.8 2.066 2.066 0 0 1-1.17 1.95c-.36.22-.49.33-.85.15a2.388 2.388 0 0 1-.83-.89 17.106 17.106 0 0 1-.68-1.64c-.17-.47-.39-1.26 0-1.67l.24-.48ZM242.71 164.5a12.947 12.947 0 0 0-2.23 2.14 6.054 6.054 0 0 0-.38 1.71c-.22 1.1.25 1.71 1.51 1.61 1.26-.1 2.81-.34 4.21-.49 1.62-.16 3.38-.49 4.48-1.65 1.64-1.74 2.45-5.52-.28-6.76a8.085 8.085 0 0 0-3.85 0c-2.46.52-4.46 2.4-5.85 4.18l2.39-.74ZM245.49 176.25a14.409 14.409 0 0 1 2.27-4.86l3.81-2.85a58.704 58.704 0 0 1 7.12-5.16c2.72-1.49 6-2.48 8.69-.48a7.6 7.6 0 0 1 2.78 5.84 16.559 16.559 0 0 1-2.53 9.17 35.521 35.521 0 0 1-7.79 7.58 5.66 5.66 0 0 1-3.23 1.51c-1.28.083-2.565.057-3.84-.08-2.84-.33-5.91-1.95-6.9-4.47a12.434 12.434 0 0 1-.74-2.65c-.21-1.45.64-2.55.36-3.55ZM118.3 161.89c.17-.31-1.62 2.33-1.15 2.81.16.16.72.06.9.06.48 0 1.53-.18 1.87-.74.34-.56-.2-1.22-.5-1.46a2.261 2.261 0 0 0-.74-.44c-.23-.05-.41.09-.61-.14l-.15.14.38-.23ZM236.31 123.58c-.11.15-2.62 2.81-1.35 3.55.52.3 1.32-.24 1.75-.44.63-.29.81-.52.68-1.2-.13-.68-.47-1.1-.55-1.67l-.53-.24ZM280.9 176.5c-.1.14-2.62 2.81-1.35 3.55.52.3 1.32-.24 1.75-.44.63-.29.81-.52.68-1.2-.13-.68-.47-1.1-.55-1.67l-.53-.24ZM277.64 133.28c-.47.59-2.06 2.09-1.82 3.17.15.67.75.9 1.3 1.19.391.298.841.509 1.32.62.52 0 .92-.44 1.2-.79a3.585 3.585 0 0 0 .91-3 2.007 2.007 0 0 0-.656-1.396 2.008 2.008 0 0 0-1.454-.514l-.8.72ZM243.28 189.28c-.38.48-1.68 1.7-1.48 2.58.12.54.61.73 1.06 1 .317.243.682.417 1.07.51.43 0 .74-.36 1-.64a2.935 2.935 0 0 0 .74-2.44 1.66 1.66 0 0 0-1.71-1.56l-.68.55ZM236.57 114.03a35.356 35.356 0 0 0-7.3 1.92c-.92.36-2 .59-2.84 1-.37.18-.81.41-.89.84.6.404 1.284.667 2 .77 1.128.342 2.302.508 3.48.49a25.811 25.811 0 0 0 4.48-.44c.94-.17 1.91-.16 2.86-.34a25.926 25.926 0 0 0 3-.9 10.149 10.149 0 0 0 3.46-1.92 5.006 5.006 0 0 0 1-1.87c.16-.38.28-.23 0-.53-.3-.182-.65-.266-1-.24a7.453 7.453 0 0 0-1.63.19c-.759.06-1.521.06-2.28 0-.79 0-1.52.19-2.3.24-1.3.13-2.18.52-2.04.79ZM220.54 118.1a23.19 23.19 0 0 0-3.39.89c-.09 0-.52.16-.5.33.02.17.45.19.56.2 1.018.083 2.04.107 3.06.07.373.064.757 0 1.09-.18.37-.32.53-.65.27-1.07-.09-.15-.18-.15-.36-.2a.894.894 0 0 0-.43 0c-.21.01-.39.1-.3-.04ZM223.13 116.3c.29 0 .8-.26 1 .06.2.32-.11.31-.26.41-.156.14-.352.227-.56.25-.236.02-.474.02-.71 0-.15 0-.67-.24-.51-.46a.851.851 0 0 1 .25-.13.815.815 0 0 1 .28-.11h.17c.06 0 .06-.08.15 0l.19-.02ZM256.3 115.95a78.048 78.048 0 0 0-8.59 4.85c-.5.33-5.51 3.52-3.5 4.36 1.19.51 2.62.09 3.8-.23a36.523 36.523 0 0 0 4.76-1.71 42.426 42.426 0 0 0 8.93-5 37.679 37.679 0 0 0 3.61-2.94c.44-.43.91-.85 1.32-1.31.09-.1.52-.56.52-.78 0-.86-4.45.12-5 .32-1.218.45-2.413.961-3.58 1.53-.503.238-.994.501-1.47.79-.66.3-1.3.6-.8.12ZM260 110.56c.05 0-3.26 1.25-2.43 1.66.15.08.43-.06.56-.1a9.263 9.263 0 0 1 1.06-.19c.338-.009.674-.06 1-.15.37-.14.46-.4.55-.74 0-.11.17-.35.11-.45-.06-.1-1.07 0-1.22 0l.37-.03ZM264.2 117.26a15.36 15.36 0 0 0-1.5.7 8.327 8.327 0 0 0-1.17 1.05c-.13.12-1.15.9-.89 1.22.13.17.57.24.78.29a1.996 1.996 0 0 0 1.54-.22 4.845 4.845 0 0 0 1.77-1.71c.174-.261.305-.548.39-.85.07-.63-1-.31-1.29-.24l.37-.24ZM275.05 119.06c-.537.252-1.058.535-1.56.85l-.55.65a16.694 16.694 0 0 0-2.3 3.36 12.577 12.577 0 0 0-1.4 4.92c0 .29 0 .58.26.72.362.117.74.171 1.12.16a6.23 6.23 0 0 0 3.38-1 8.68 8.68 0 0 0 3.87-7.18 4.416 4.416 0 0 0-.32-1.87c-.09-.19-.21-.54-.42-.62a2.437 2.437 0 0 0-.94 0c-.66.02-1.09.53-1.14.01ZM276.65 116.07a4.664 4.664 0 0 1 1.16-1c-.07.53 0 1.17-.39 1.61a.621.621 0 0 1-.52.21c-.26 0-.57-.21-.25-.45v-.37ZM161.1 127.09a9.82 9.82 0 0 0 1.13 1.28c.522.383 1.077.718 1.66 1a41.409 41.409 0 0 0 5.4 2.28c2.21.81 4.59 1.47 6.93.7 1.24-.42-.71-1.56-1.18-1.85-.9-.54-1.78-1.13-2.71-1.63a24.16 24.16 0 0 0-3.34-1.44c-1.4-.49-2.76-1.08-4.11-1.67a5.693 5.693 0 0 0-2.32-.59 3.125 3.125 0 0 0-1.73.54c-.31.19-.44.25-.33.59a8.95 8.95 0 0 0 1.66 2.34l-1.06-1.55ZM161.76 130.8c.364.465.762.903 1.19 1.31.333.26.688.491 1.06.69.69.482 1.453.85 2.26 1.09.28.06.42.05.41-.23 0-.66-.76-1.17-1.26-1.55a17.244 17.244 0 0 0-3-1.76c-.15-.07-.45-.25-.63-.13-.38.28.56 1.21-.03.58Z"/></g><path style="mix-blend-mode:multiply" opacity=".3" fill-rule="evenodd" clip-rule="evenodd" d="m308.92 217.38-2.15.11h-.18c-1.05-.33-7.65-2.36-19.35-4.73-19.57-4-53.44-8.82-99.6-8.25-68 .86-102.2 12.23-102.2 12.23a263.472 263.472 0 0 1 12.34-32.11c.4-.88.81-1.78 1.23-2.68l3.61-6.6s32.78 23.72 106.28 14.61c73.3-9.09 77.82-25.41 77.82-25.41 1.94-15.25 1.95-61 1.95-61v3.2a298.643 298.643 0 0 0 1.51 30.29c3.94 34.46 18.74 80.34 18.74 80.34Z" fill="url(#M)"/><path fill-rule="evenodd" clip-rule="evenodd" d="M178.62 54.16 275 40.42v1.41l-96.38 13.64v-1.31Z" fill="url(#N)"/><path fill-rule="evenodd" clip-rule="evenodd" d="m205.06 14.68 68.4-10.51v1.04l-68.4 10.44v-.97Z" fill="url(#O)"/><path fill-rule="evenodd" clip-rule="evenodd" d="m225.08 105.25 4.17 1.83.36-5.85-4.22.21-.31 3.81Z" fill="#7E0100" style="mix-blend-mode:multiply" opacity=".46"/><path fill-rule="evenodd" clip-rule="evenodd" d="M283.51 103.5s1.7-2.62 2.59-2.62c.89 0 1.17 1.31 1.17 1.31s.81-2.31 2.42-2.57c1.61-.26 3.05 2.34 3.05 2.34s.09-.13-.36 1.37c-.45 1.5-3.76.51-3.76.51a7.669 7.669 0 0 1-2.07 3c-1.25.9-1.61-2.87-1.61-2.87l.45-.12s-.12 2.33.8 2.57c.92.24 1.5-2.88 1.5-2.88l-3.68.34v.51s-2.49 10.6-4.62 11.46c-2.13.86-.32-10.7-.32-10.7l.65-.08s-2.07 9-.65 9.67c1.42.67 3.55-10 3.55-10s-.87-2-.45-2.12c.42-.12 1.34.88 1.34.88ZM311.5 211.2c-2.87 0-6.16 2.43-6.16 2.43s-.13-1.93-2.28-1.21-7 2.42-7 2.42-1.89 2.33-1 3.32c.89.99 2.94-.66 2.94-.66s.08 3.72 1.34 3.61c1.26-.11 1.79-2.58 1.79-2.58s-.9 22.61 4.4 21.79c5.3-.82 7.27-24.89 7.27-24.89s1.56-4.27-1.3-4.23Zm-12.35 9.51c-.57-.06-.53-3.22-.53-3.22s1.53.84 1.92.53c0 0-.81 2.77-1.39 2.69Zm6.06 18.8c-4.72-.78-3.11-21.41-3.11-21.41s1 1.79 2.52 2c1.52.21 2.38-1.6 2.38-1.6a1.996 1.996 0 0 0 1.5 1.57c1.26.16 3.35-3.43 3.35-3.43s-1.91 23.64-6.64 22.86v.01Z" fill="#661B3E"/><path fill-rule="evenodd" clip-rule="evenodd" d="m274.2 41.5-2.27.24a251.654 251.654 0 0 0-55 3.11c-5.19.93-9.66 1.85-13.5 2.73h-.19c-6.14 1.4-10.66 2.72-13.94 3.82l-.23.08h-.12a35.817 35.817 0 0 0-7.28 3.05l-2.18-.37c1.27-3.23 2.65-6.26 4.09-9.1.91-1.83 1.91-3.65 2.78-5.17.11-.18.22-.37.32-.56l.42-.71c.14-.25.29-.5.44-.74.29-.48.53-.87.71-1.18.08-.13.16-.26.26-.4l.14-.22v-.06c1.65-2.66 3.33-5.07 5-7.24l.1-.15.22-.3.56-.72.18-.23a78.587 78.587 0 0 1 12.32-13l1.4-.34a.582.582 0 0 0 0 .76c.36.4 1.48.85 4.54.89a79.342 79.342 0 0 0 9.57-.57c16.66-1.8 46.63-10.22 46.63-10.22l1.13-.31c1.04 15.77 3.9 36.91 3.9 36.91Z" fill="url(#P)"/><path style="mix-blend-mode:multiply" opacity=".3" fill-rule="evenodd" clip-rule="evenodd" d="M184.38 52.02a91.508 91.508 0 0 1 18.71-9.71c-.7.35-12 6-14.15 9.23h.11-.12a35.817 35.817 0 0 0-7.28 3.05l-2.18-.37c1.27-3.23 2.65-6.26 4.09-9.1a25.94 25.94 0 0 0-2.68 7.52s6.79-7.27 9.41-9.35c-.29.35-4.96 5.84-5.91 8.73Z" fill="url(#Q)"/><path style="mix-blend-mode:multiply" opacity=".3" fill-rule="evenodd" clip-rule="evenodd" d="M194.69 27.5a78.595 78.595 0 0 1 12.32-13l1.4-.34a4.384 4.384 0 0 0 0 .76 8.993 8.993 0 0 0 3.34 6.31c-.23-.13-3.81-2.38-4.51-5.94 0 0-2.51 4.31-2.78 11.66.055-3.815.572-7.61 1.54-11.3a153.488 153.488 0 0 0-11.31 11.85Z" fill="url(#R)"/><path style="mix-blend-mode:multiply" opacity=".3" fill-rule="evenodd" clip-rule="evenodd" d="m274.2 41.5-2.27.24a251.654 251.654 0 0 0-55 3.11c-5.19.93-9.66 1.85-13.5 2.73 6.54-1.61 14.74-3.37 23.39-4.65a288.137 288.137 0 0 1 41.61-2.5s-12.36-3.52-19.53-4c7.411.071 14.79.973 22 2.69l-5.42-4c.35.15 6 2.7 7 3.66 0 0-5-9-5-17 0 0 2.69 10.14 4.67 14 0 0-3.89-18.23-2.27-26.85a20.321 20.321 0 0 0-2.88 7.68 20.88 20.88 0 0 1 1.84-9.26c-.43.18-14.44 6-26.51 8.27 1.61-.42 18.92-4.92 24.16-8.69-.87.21-28.79 7-41.5 8.72-3.993.641-8.06.665-12.06.07a79.322 79.322 0 0 0 9.57-.57c16.66-1.8 46.63-10.22 46.63-10.22l1.13-.31c1.08 15.74 3.94 36.88 3.94 36.88Z" fill="url(#S)"/><path style="mix-blend-mode:screen" opacity=".5" fill-rule="evenodd" clip-rule="evenodd" d="M268.87 7.35a41.896 41.896 0 0 1-9 5.25c-5.38 2.33-17.55 3-17.55 3a137.673 137.673 0 0 0 26.55-8.25Z" fill="url(#T)"/><path style="mix-blend-mode:screen" opacity=".5" fill-rule="evenodd" clip-rule="evenodd" d="M207.25 15.2a9.552 9.552 0 0 0 1.26 4.76c1.35 2.15 7.49 2.78 7.49 2.78s-6.86-1.43-8.75-7.54Z" fill="url(#U)"/><path style="mix-blend-mode:screen" opacity=".5" fill-rule="evenodd" clip-rule="evenodd" d="M184.38 52.02a37.394 37.394 0 0 1 7.52-7.18c4.59-3.27 17.33-5.24 17.33-5.24s-13.67 4.99-24.85 12.42Z" fill="url(#V)"/><path style="mix-blend-mode:screen" opacity=".5" fill-rule="evenodd" clip-rule="evenodd" d="M243.94 36.1s17.85.63 26.91 3a43.345 43.345 0 0 0-13.45-4.12c-4.517-.51-9.09-.13-13.46 1.12Z" fill="url(#W)"/><g style="mix-blend-mode:multiply" opacity=".4" fill-rule="evenodd" clip-rule="evenodd" fill="#F2CFD7"><path d="M219.71 28.96a9.222 9.222 0 0 0-3.53-.93 29.144 29.144 0 0 0-3.86 0 4.611 4.611 0 0 0-3 1.13 23.23 23.23 0 0 1-2.32 1.47c-1.25.72-1.63 1.37-1.44 2.16a5.11 5.11 0 0 0 2.29 2.45 9.688 9.688 0 0 0 4.06 1.62c.69.085 1.385.128 2.08.13.84 0 1.67.08 2.52.09a14.238 14.238 0 0 0 3.9-.38 4.412 4.412 0 0 0 2.68-1.64c.454-.76.737-1.61.83-2.49.11-.51.34-1.11 0-1.59a3.524 3.524 0 0 0-1.07-1 4.439 4.439 0 0 0-.92-.35 8.342 8.342 0 0 0-.92-.3c-.59-.09-.91-.31-1.3-.37ZM262.21 14.93a2.55 2.55 0 0 1 1-.5c.14.32.41.44.5.82.047.264.064.532.05.8a.91.91 0 0 1-.52.87c-.16.1-.22.15-.39.07a1.093 1.093 0 0 1-.39-.38c-.11-.21-.23-.5-.32-.72-.09-.22-.2-.56 0-.75l.07-.21ZM249.38 15.3c-.224.232-.418.49-.58.77a2.426 2.426 0 0 0-.1.61c-.06.4.06.62.39.58.33-.04.74-.12 1.11-.18a1.542 1.542 0 0 0 1.17-.59c.44-.62.65-2-.07-2.43a1.66 1.66 0 0 0-1 0 3.089 3.089 0 0 0-1.54 1.51l.62-.27ZM265.71 27.5c.414.1.805.28 1.15.53l.7.94c.466.562.89 1.157 1.27 1.78a2.228 2.228 0 0 1 .19 2.24 1.765 1.765 0 0 1-1.34.79 3.481 3.481 0 0 1-2.15-.54 8.372 8.372 0 0 1-1.84-1.91 1.495 1.495 0 0 1-.38-.82 6.676 6.676 0 0 1 0-1 2.253 2.253 0 0 1 1-1.84c.196-.096.4-.173.61-.23.29-.03.56.18.79.06ZM212 39.41c.54.18-4.1-2-4.71-1.07-.22.3.09 1.18.15 1.47.15.77.72 2.42 1.69 2.82.97.4 1.85-.67 2.14-1.22.244-.407.404-.86.47-1.33 0-.39-.24-.64.05-1l-.26-.2.47.53ZM251.31 31.17c0 .07-.85 1.25-.43 1.58.16.13.43-.11.56-.2.13-.09.27-.23.22-.53-.05-.3-.15-.49-.17-.74l-.18-.11ZM202.65 24.69c-.41-.15-1.46-.73-2.12-.52-.41.14-.51.44-.65.72-.14.28-.32.45-.3.66.02.21.35.38.58.47a2.89 2.89 0 0 0 2 .12c.67-.21 1.13-.56 1-1.15l-.51-.3ZM262.61 7.93c-1.543.312-3.035.84-4.43 1.57-.56.3-1.19.49-1.73.85a1.001 1.001 0 0 0-.54.7c.333.31.739.53 1.18.64.673.274 1.394.41 2.12.4a10.867 10.867 0 0 0 2.72-.36c.57-.15 1.17-.13 1.74-.29.62-.2 1.222-.45 1.8-.75a5.855 5.855 0 0 0 2.1-1.59 4.618 4.618 0 0 0 .63-1.56c.1-.32.17-.19 0-.44a.84.84 0 0 0-.63-.2 3.66 3.66 0 0 0-1 .16 6.47 6.47 0 0 1-1.39 0c-.48 0-.92.16-1.4.2-.72.12-1.25.45-1.17.67ZM236.86 14.58c-.709.18-1.399.427-2.06.74-.05 0-.31.14-.3.28.01.14.27.15.34.16.617.07 1.239.09 1.86.06a.74.74 0 0 0 .66-.16.78.78 0 0 0 .17-.88c-.06-.12-.12-.13-.23-.16a.39.39 0 0 0-.26 0c-.12 0-.23.08-.18-.04ZM230.14 38.37c.05.13.22.35 0 .47s-.19 0-.27-.08c-.08-.08-.18-.14-.2-.23-.01-.11-.01-.22 0-.33 0-.07.1-.33.26-.28l.1.1c.033.035.06.076.08.12v.14l.03.09ZM256.74 15.38A23.486 23.486 0 0 0 254 17.5c-.16.14-1.79 1.56-1.14 1.93a1.502 1.502 0 0 0 1.24-.1 10.028 10.028 0 0 0 1.54-.76 13.251 13.251 0 0 0 2.9-2.24c.413-.412.804-.846 1.17-1.3.14-.2.29-.38.43-.59a.991.991 0 0 0 .17-.34c0-.39-1.45 0-1.64.14-.398.202-.786.426-1.16.67-.17.11-.32.24-.48.36-.16.12-.45.33-.29.11ZM269.85 5.06s-2 1-1.47 1.38c.09.06.26-.05.34-.08a3.53 3.53 0 0 1 .64-.16c.209-.013.414-.057.61-.13.22-.12.28-.33.33-.61 0-.09.11-.29.07-.38-.04-.09-.65 0-.74 0l.22-.02ZM256.9 18.11a5.562 5.562 0 0 0-.49.31 3.627 3.627 0 0 0-.38.46c0 .05-.37.4-.29.55.08.15.19.1.26.13a.52.52 0 0 0 .5-.1c.248-.204.444-.465.57-.76.058-.121.102-.249.13-.38 0-.28-.32-.14-.42-.11l.12-.1ZM265.31 21.77c-.18.112-.351.24-.51.38l-.18.29c-.298.47-.546.97-.74 1.49a7.176 7.176 0 0 0-.46 2.18c0 .13 0 .26.09.32a.66.66 0 0 0 .36.07c.408 0 .8-.154 1.1-.43a4.387 4.387 0 0 0 1.25-3.19c.012-.28-.021-.56-.1-.83 0-.08-.07-.24-.13-.28a.65.65 0 0 0-.31 0c-.22 0-.35.23-.37 0Z"/><path d="M255.15 16.5a1.68 1.68 0 0 1 .38-.45c.009.247-.035.492-.13.72a.192.192 0 0 1-.17.09c-.08 0-.18-.1-.08-.2v-.16ZM227.58 28.72a7.116 7.116 0 0 0-.91.39 3.48 3.48 0 0 0-.52.41 3.38 3.38 0 0 0-.87.9c-.06.13 0 .77.18.78a5.14 5.14 0 0 0 2.1 0c.51-.34-.16-1.67.25-2.1.06-.06.19-.18.13-.28-.06-.1-.8.1-.36-.1Z"/></g><path style="mix-blend-mode:multiply" opacity=".3" fill-rule="evenodd" clip-rule="evenodd" d="M188.67 36.09s-2.63 6.47-2 8.75c.63 2.28 24.64-1.18 53.47-6s32.09-13.67 32.09-13.67l2 16.3s-55.76-3-91.09 12.34l-3.64.4s4.94-11.86 9.17-18.12Z" fill="url(#X)"/><path fill-rule="evenodd" clip-rule="evenodd" d="M183.19 53.3a3.4 3.4 0 0 0-1.49-.64c-.79-.1-1 1-1 1s-.12.12-.54 0c-.42-.12-.66.54-.66.54a5.389 5.389 0 0 0-2.69 0c-1.73.36-1.5 2.39-1.5 2.39s2.71.83 3.17 0c-.08.28-1.07 4 .24 4.16 1.31.16 3.61-5.6 3.61-5.6s.71-.15 1.11-.21a1.822 1.822 0 0 1-.25-1.64Zm-4.55 6.45c-.73-.76.83-4.2.83-4.2l2.16-.3s-2.26 5.25-2.99 4.5ZM267.65 42s1.18-1.7 2-1.94c.82-.24 1.1.86 1.1.86s2.5-2.89 4.24-2.89c1.74 0 1.62 2.89 1.62 2.89s.91-1.41 1.5 0 3.22 16.89-.87 17.34c-4.09.45-4.43-15.34-4.43-15.34l.81-.18s0 15.33 3.17 14.79c3.89-.66.88-15.87.34-16.27-.54-.4-.6.36-.6.36s.59 1.75-.71 2.42c-1.3.67-3.37-1.34-3.37-1.34s-.46 1.31-1.33 1.08a2.31 2.31 0 0 1-1.27-.86s-2.34 1.58-2.2-.92ZM141.41 120.69s.22-.71-.83-.76c-1.05-.05-1.12.76-1.12.76s-1.43-2.22-3.11-2c-1.68.22-1.77 3.31-1.77 3.31a22.405 22.405 0 0 0-2.52 4.31c-.6 1.71-5 16.6-2.67 17.49 2.33.89 13.61-22.11 13.61-22.11l-.8.11s-9.66 19.8-12.08 20.07c-2.42.27 4.65-19.08 4.65-19.08s1.76 2.35 3.34.85l1.57-1.51s1.43 1.1 1.68.42c.145-.61.162-1.243.05-1.86ZM275 2.88c-1.12-.68-5.05 1.3-5.05 1.3a1.366 1.366 0 0 0-1.063-1.265 1.371 1.371 0 0 0-.587-.005c-1.26.337-2.443.918-3.48 1.71a.84.84 0 0 0-1.06-.44c-1.06.55-2.064 1.2-3 1.94v1.06l4.06-.68s.34.67.82.69c.48.02.9-.69.9-.69a1.926 1.926 0 0 0 1.1 1.81c1.16.44 2.59-2.53 2.59-2.53s.14 5.19 2.18 6.38c2.04 1.19 3.71-8.59 2.59-9.28Zm-6.9 5.05c-.84.09-1.22-1.45-1.24-1.6a2 2 0 0 0 1.52.11A3.996 3.996 0 0 0 270 5.6s-1 2.26-1.9 2.33Zm4.69 3.57c-1.19.19-2.12-4.59-2.15-5.74a1.998 1.998 0 0 0 1.86 1.04c1.4 0 2.45-2.18 2.45-2.18s-.95 6.67-2.16 6.88ZM212.08 13.6s-.37-.88-.79-.76c-.42.12-.6.76-.6.76-.822-.352-1.68-.61-2.56-.77-1-.11-1.42 1.6-1.42 1.6s-2.71-1.41-4-.46-.78 5.53 0 5.61c.78.08 3-2.8 3-2.8s-2.29 6.35-.66 6.82c1.63.47 6-8.86 6-8.86s.31.74.58.46c.174-.188.325-.396.45-.62 0 0-.4-.33 0-.98Zm-9.4 5.64c-.78-.3 0-3.11 0-3.11.83.66 2.58-1.05 2.58-1.05-.04.84-1.8 4.42-2.58 4.16Zm2.58 3.79c-1.43-.33.41-6.35 1.5-7.35-.16.24-1.18 1.91.65 1.44a5.79 5.79 0 0 0 3.06-2.34c-.21.49-3.83 8.58-5.21 8.25Z" fill="#661B3E"/><path d="m18.78 139.5-.16-.44c1.11-.39 110.79-39.48 160.69-83.64l.32.36C129.65 99.94 19.89 139.06 18.78 139.5Z" fill="#661B3E"/><path d="m15.67 139.5-.08-.47c39.58-6.7 256.34-96.82 258.52-97.73l.18.44c-2.18.88-218.99 91.02-258.62 97.76Z" fill="#661B3E"/><path d="m14.05 139.91-.19-.43C66 115.81 205.22 16.5 206.62 15.5l.28.38c-1.4.99-140.69 100.34-192.85 124.03ZM17.82 141.17l-.15-.45c67.57-21.56 251-134 252.85-135.17l.25.4C268.92 7.08 85.44 119.59 17.82 141.17ZM28.45 153.61l-.11-.46c34.12-7.84 107.2-34.46 107.93-34.73l.17.45c-.74.26-73.85 26.89-107.99 34.74ZM29.19 154.95l-.07-.47c95.93-13.28 262-53.75 263.7-54.16l.12.46c-1.67.41-167.8 40.88-263.75 54.17ZM248.4 221.11c-11.13 0-23.52-.34-36.74-1.22a452.957 452.957 0 0 1-84.4-13.34c-32.41-8.53-61-20.76-85-36.34l.26-.4c54.29 35.23 122 46.42 169.19 49.6 51.17 3.45 90-1.5 90.39-1.55l.06.47c-.32.04-21.79 2.78-53.76 2.78Z" fill="#661B3E"/><path d="m219.53 259.67-.31-.36C292.44 196.5 362.71 75.37 363.41 74.16l.41.23c-.18.31-17.85 30.87-44.35 68.81-24.47 35.01-61.65 83.64-99.94 116.47Z" fill="#661B3E"/><path d="m234.77 260.18-.33-.35c68.89-64.15 133.16-189.54 133.8-190.8l.42.21c-.16.32-16.32 32-40.79 71.11-22.58 36.15-57.07 86.27-93.1 119.83Z" fill="#661B3E"/><path d="m211.43 259.83-.08-.46c98.92-16.82 156.12-30.54 156.65-30.67l.11.46c-.53.13-57.74 13.85-156.68 30.67Z" fill="#661B3E"/><path fill-rule="evenodd" clip-rule="evenodd" d="M118.75 253.32s145.43 6.53 192.75 18.75c0 0-14.67 18-60 17.33-45.33-.67-95.45-7.09-95.45-7.09l-37.3-28.99Z" fill="url(#Y)"/><path fill-rule="evenodd" clip-rule="evenodd" d="M323.67 258.24a241.182 241.182 0 0 1-7.17 29.55c-14.15 45.23-35.42 59.7-35.42 59.7H90.39s-.23-8.46-6.87-23.35c-3.42-7.64-10.75-15.3-29.31-47.85-15.68-27.49-10.06-53.44-6.62-68.54 1.36-6 .89-14.13.89-14.13L0 125.08l3.62-1.18 54.93 66.29c.55.33 1.1.65 1.66.94l.16.09c.36.2.72.38 1.09.56l.8.38h.07l.58.26c17.66 7.67 41.76 1.64 88 8.19 32.15 4.56 49.35 12 50.89 12.63h.11c.255 6.025.815 12.032 1.68 18 .09.56.17 1.11.26 1.64a114.454 114.454 0 0 0 5.33 21.46c.13.36.25.7.38 1a40.779 40.779 0 0 0 2 4.59l35.83 3.89 9.27 1 3.85.42a104.237 104.237 0 0 0 9.49-14.13c.53-.92 1-1.82 1.49-2.69 3.07-5.69 4.87-9.92 4.87-9.92s7.54 1.39 22.72 6.21c23.18 7.34 24.59 13.53 24.59 13.53Z" fill="url(#Z)"/><path fill-rule="evenodd" clip-rule="evenodd" d="M48.48 193.62s.92 52.44 18.78 86.79C85.12 314.76 89 324.15 90.39 347.5c0 0 3.19-14.49-21.33-38.74-32.95-32.61-35.88-64.11-29.9-98.64 0 0 6.28-3.22 7.42-5.18 2.24-3.85 1.9-11.32 1.9-11.32Z" fill="url(#aa)"/><path fill-rule="evenodd" clip-rule="evenodd" d="M90.39 347.5h1.88s.35-11.3-6.82-31.75-15.26-32.15-22.27-60.34c-8.28-33.3-6-58.82-3.17-64.4L3.62 123.9 0 125.08l51 68.54s-1.07 44.09 7.9 68.49c8.97 24.4 29.61 54.9 31.49 85.39Z" fill="url(#ab)"/><path fill-rule="evenodd" clip-rule="evenodd" d="M19 151.93s27.2 36.38 27.83 43.68c.63 7.3-1.38 44 10.1 74.95 11.48 30.95 30.5 43 33.47 76.94 0 0 3.82-7.88-11.58-42.15C63.18 270.56 51 261.04 53.16 193.62L19 151.93Z" fill="url(#ac)"/><path style="mix-blend-mode:multiply" opacity=".5" fill-rule="evenodd" clip-rule="evenodd" d="M203.56 231.29c.09.56.17 1.11.26 1.64-6.22-1-12.57-1.82-19-2.39-72.48-6.46-84.12-5.76-101.11-8.76-16.99-3-26.29-8-26.29-8v-.47a110.423 110.423 0 0 0 31.25 8.19c27.33 3.12 68.18 2.25 114.89 9.79Z" fill="url(#ad)"/><path style="mix-blend-mode:multiply" opacity=".5" fill-rule="evenodd" clip-rule="evenodd" d="M321.15 270.56S301.8 259.5 270 251.11c.53-.92 1-1.82 1.49-2.69 16.29 5.77 34.63 11.75 49.66 22.14Z" fill="url(#ae)"/><path style="mix-blend-mode:multiply" opacity=".5" fill-rule="evenodd" clip-rule="evenodd" d="M60 240.44c2.39.78 4.76 1.47 7.17 2.07-6.32-1.09-7.17-2.07-7.17-2.07Z" fill="url(#af)"/><path style="mix-blend-mode:multiply" opacity=".5" fill-rule="evenodd" clip-rule="evenodd" d="M209.15 254.41c.13.36.25.7.38 1-8.12-1.45-16.46-2.69-24.93-3.64-58.21-6.54-89-2.16-117.35-9.27 6.27 1.07 18 2.24 39.54 2.73 28.81.65 65.05 2.84 102.36 9.18Z" fill="url(#ag)"/><path style="mix-blend-mode:multiply" opacity=".5" fill-rule="evenodd" clip-rule="evenodd" d="M316.33 287.71a485.473 485.473 0 0 0-68.95-23.8l9.27 1c20.78 5.79 41.05 13.24 59.68 22.8Z" fill="url(#ah)"/><path style="mix-blend-mode:multiply" opacity=".5" fill-rule="evenodd" clip-rule="evenodd" d="M67.51 270.56s17.72 1.54 50.23 2.91c36.82 1.55 69.25 2.34 112.3 9.81 65.65 11.39 79.36 23.64 79.36 23.64l-.34.79s2.29-9.32-78.3-22.88c-80.59-13.56-140.88-8.68-163.25-14.27Z" fill="url(#ai)"/><path style="mix-blend-mode:multiply" opacity=".5" fill-rule="evenodd" clip-rule="evenodd" d="M75.52 289.41s56.45 11.28 118.64 18.3c62.19 7.02 111.17 7.84 111.17 7.84l-.53 1.05s-47.76-1.24-115.72-8.89c-67.52-7.59-113.56-16.21-113.56-16.21v-2.09Z" fill="url(#aj)"/><path style="mix-blend-mode:multiply" opacity=".5" fill-rule="evenodd" clip-rule="evenodd" d="M84.42 312.89s66.21 1.85 125.05 7.11 87.5 9.78 87.5 9.78l-1 1.38s-59-9.25-118.83-12.6c-59.83-3.35-92.12-3.9-92.12-3.9l-.6-1.77Z" fill="url(#ak)"/><path style="mix-blend-mode:multiply" opacity=".5" fill-rule="evenodd" clip-rule="evenodd" d="M91 336.27s60.55-3.83 109.82-2.4c49.27 1.43 85.51 9 85.51 9a683.391 683.391 0 0 0-95.68-7.89c-53.91-.76-99.65 1.29-99.65 1.29Z" fill="url(#al)"/><path style="mix-blend-mode:multiply" opacity=".5" fill-rule="evenodd" clip-rule="evenodd" d="M47.36 216.69s-4.73 3.7-10.23 8.95L37 227.2s6.59-7.01 10.36-10.51Z" fill="url(#am)"/><path style="mix-blend-mode:multiply" opacity=".5" fill-rule="evenodd" clip-rule="evenodd" d="M49.21 238.04a36.452 36.452 0 0 0-11.87 10.19v1.49s5.26-8.08 12.11-9.95l-.24-1.73Z" fill="url(#an)"/><path style="mix-blend-mode:multiply" opacity=".5" fill-rule="evenodd" clip-rule="evenodd" d="M48.25 282.02s4.55-7.67 8.67-11.46l.7 1.82s-5.55 2.4-9.37 9.64Z" fill="url(#ao)"/><path style="mix-blend-mode:multiply" opacity=".5" fill-rule="evenodd" clip-rule="evenodd" d="M67.94 293.21a47.354 47.354 0 0 0-4.34 9.85s3.45-6.37 5.05-8.65l-.71-1.2Z" fill="url(#ap)"/><path style="mix-blend-mode:multiply" opacity=".5" fill-rule="evenodd" clip-rule="evenodd" d="m76.36 316.6 3.32-3.71.99 1.86-4.31 1.85Z" fill="url(#aq)"/><path fill-rule="evenodd" clip-rule="evenodd" d="m46.82 195.61 6.34-2-52-68.93-1.16.4s43.73 58.48 46.82 70.53Z" fill="#704786" style="mix-blend-mode:multiply" opacity=".6"/><path fill-rule="evenodd" clip-rule="evenodd" d="m276.4 238.5-6.62-.79a66.002 66.002 0 0 1-9.28 27.62h1.66s10.36-13.13 14.24-26.83Z" fill="url(#ar)"/><path style="mix-blend-mode:screen" opacity=".5" d="M80.66 292.39s55.55 11.58 123.16 18.52c67.61 6.94 101 5.69 101 5.69s-24.7 1.21-103.19-7.4-120.97-16.81-120.97-16.81Z" fill="url(#as)"/><path style="mix-blend-mode:screen" opacity=".5" d="M71.38 271.37s3.45 2.09 57.3 4.92c63.2 3.32 93.68 7 120.56 12.37 28.41 5.71 49.1 12.12 60.16 18.26 0 0-22.43-16.23-105.58-26.07-77.98-9.23-92.82-3.64-132.44-9.48Z" fill="url(#at)"/><path style="mix-blend-mode:screen" opacity=".5" d="M67.25 242.5s8.06 3 30.58 4.79c22.52 1.79 40.28 3 67.27 4.21 26.99 1.21 45 5.32 45 5.32l-1.38-1.55a605.69 605.69 0 0 0-80.12-7.46c-49.01-1.25-61.35-5.31-61.35-5.31Z" fill="url(#au)"/><path style="mix-blend-mode:screen" opacity=".5" d="M245.29 263.68s49.92 15.66 71 24a504.46 504.46 0 0 0-68.11-23.71l-2.89-.29Z" fill="url(#av)"/><path style="mix-blend-mode:screen" opacity=".2" d="M90.81 314.79S174 318.5 220 322.75s73.13 8 73.13 8-72.46-13.15-202.32-15.96Z" fill="url(#aw)"/><path style="mix-blend-mode:screen" opacity=".5" d="M70.15 218.61s9.92 3.8 30 5.95c20.08 2.15 85.68 6.47 103.66 8.37 0 0-30.66-4.17-73.2-6.83-42.54-2.66-43.76-3.41-60.46-7.49Z" fill="url(#ax)"/><path style="mix-blend-mode:screen" opacity=".5" d="M271 251.5s35.78 10.81 50.16 19c-.01.06-19.63-11.81-50.16-19Z" fill="url(#ay)"/><path d="M104.28 246.84s25.54.32 50.36 1.58a370.458 370.458 0 0 1 47.6 5.8s-20.82-3.29-46.11-5-51.85-2.38-51.85-2.38ZM107 273.93l28.28.68 8.31-.34 26.91 1.42 10.17 1.73 35 5.05s-55.94-6.97-108.67-8.54ZM79.11 220.5l7.29 1.14 10.95-.57 3 .57 12.25 1.72 2.1 1 52.44 4.61s-77.51-3.93-88.03-8.47Z" fill="#6A171D"/><path d="m85.39 293.21 11.36.65 20.17 3h6.92s38.11 7.3 57.69 10.09c0-.03-83.53-10.26-96.14-13.74Z" fill="#5E0B1D"/><path d="m227.07 321.63 11.45 2.9s14.44 2.51 25.64 2.7c11.2.19 12.24-.23 12.24-.23l-49.33-5.37Z" fill="#4D0B1D"/><path style="mix-blend-mode:screen" opacity=".2" d="M227.77 321.63h-5.14l16.37 4.11s15.77 3.18 26.2 3c5.222.002 10.437-.389 15.6-1.17l-3.52-.51s-5.14 1.29-22.13-.12c-16.99-1.41-27.38-5.31-27.38-5.31Z" fill="url(#az)"/><path style="mix-blend-mode:screen" opacity=".2" d="M60 240.44s2.57 20.88 7.47 30.12c0 0 33.14 3.58 72.72 3.85l-6.77-1.17 4.19-15.81 22.61-3.21s-26-.9-38.93-.9l14.48-3.3-8.56-2.67s-13.41 1.85-36.73-1.5C67.16 242.5 60 240.44 60 240.44Z" fill="url(#aA)"/><path d="m165.29 278.5 1.84 10.91s21.68 4.64 21.58 4.45c-.1-.19-34.37-4.45-34.37-4.45l-1.08 4.46v8.38s33.11 5.19 61.86 7.66c28.75 2.47 50.07 3.91 50.07 3.91v-6.9l-15.95-1 25.76 1 4.56-6.85s-23.65-6.37-52.49-11.52l33.43 2.5-1.4-1.17s-36-8.18-72.94-10.62l-20.87-.76Z" fill="#4D1F1D" style="mix-blend-mode:screen" opacity=".2"/><path style="mix-blend-mode:multiply" opacity=".6" d="M91.24 196.85s-10.65 27.44-5.85 58.58c6.88 44.64 46.17 58.91 116.85 65.2 70.68 6.29 107-40.42 111.76-70.13 0 0 7.54 2.75 9.72 7.71 0 0-10.57 64.86-42.59 89.26H92.27s-3.87-35.08-17.63-58.09C60.88 266.37 53.22 213.56 60 191.01c0 0 8.63 5.3 31.24 5.84Z" fill="url(#aB)"/><path d="m147.37 227.79 5.89 2.15H149l-6.14 12.56 7.65.7-7.65.67 22.72 5.1 37.84 4.53 5.73.94s-4.3-13.71-5.33-21.48c0-.03-36.52-5.16-56.45-5.17Z" fill="#4D1F1D" style="mix-blend-mode:multiply" opacity=".2"/><path d="m100.35 296.16 3.93 18.63s67.09 2.65 102.44 5.84l2.43-9.18 4.59-1.66s-61.35-5.06-113.39-13.63Z" fill="#5C1838" style="mix-blend-mode:multiply" opacity=".2"/><path d="m271 251.5-3.51-.35 4.81-2.19 22.7 9.74s-16.79-5.93-24-7.2Z" fill="#6A171D"/><path style="mix-blend-mode:screen" opacity=".5" fill-rule="evenodd" clip-rule="evenodd" d="M103 346.25s2-10.62 20.09-15.53c23.2-6.29 81.87.51 107.88 2.83C256.98 335.87 271 347.5 271 347.5l-168-1.25Z" fill="url(#aC)"/><path fill-rule="evenodd" clip-rule="evenodd" d="M201.76 213.27c-25.71-10.84-86.29-14.18-86.29-14.18l-34.32-1.68a65.31 65.31 0 0 1-18.24-5c17.66 7.67 41.76 1.64 88 8.19 32.09 4.6 49.31 11.99 50.85 12.67Z" fill="url(#aD)"/><path d="M201.76 213.27s-.2 12.57 0 13.26c.2.69-.85 4.34-.85 4.34l-9.53.56 11.3 1.44s4.31 16.28 3 21l-12.95-1.28 14.7 2.47 2.65 4.07-9.28-.63 11.64 1.6-1.05-.52s-8.62-19.14-9.63-46.31Z" fill="#A295A0" style="mix-blend-mode:multiply" opacity=".6"/><path style="mix-blend-mode:screen" opacity=".2" d="m100.35 198.35 6.63 2.41-2.7 22.16 36.42 1.79V211.5l11.11-2.15-12-1.57 15.78-4.95 1.46-1.28s-30.31-5.79-56.7-3.2Z" fill="url(#aE)"/><path d="m98.42 246.84 2.46.8 29.47 2 2.79.94 1.06-.87 20.77-.64s-45.73-2.07-56.55-2.23Z" fill="#E55E4F"/><path d="M123.51 274.85s27.4 1.33 37.11 2.14a135.3 135.3 0 0 1-18.3 0 120.573 120.573 0 0 1-18.81-2.14ZM118.34 225.77s4.42.78 9.21 1.15c2.995.224 5.999.281 9 .17 0 0-11.55-.77-18.21-1.32Z" fill="#E5774F"/><path d="M120.4 299.05s13 3 17.43 3.49c4.479.482 8.987.656 13.49.52 0 0-21.1-1.84-30.92-4.01Z" fill="#C75E4F"/><path d="m60 191.01 5.76 2.61s-9.47 38.2 1.74 71.71c11.21 33.51 24.29 50.84 24.77 82.17 0 0-1.93-18.34-9.82-33.68-7.89-15.34-24.87-57.19-26.3-86-1.43-28.81 3.85-36.81 3.85-36.81Z" fill="#A295A0" style="mix-blend-mode:multiply" opacity=".6"/><path d="M55.64 266.9h3.62s7.25 14.69 10.89 20.38c0 0-17.15-24.81-17.16-71.45 0 0-.66 21 2.91 41l-2.74 1.67s1.93 6.79 2.48 8.4Z" fill="#FF7A2F"/><path style="mix-blend-mode:screen" d="m39.16 210.12 3-.75s-5.31 20.18 1.21 48.06a124.436 124.436 0 0 0 22.76 47.07s-24.43-24.71-27.67-49.07a159.63 159.63 0 0 1 .7-45.31Z" fill="url(#aF)"/><path style="mix-blend-mode:screen" opacity=".76" d="m321.15 255.43-2.84 13.14-2-.64 1.95 1.18-5.83 16.56-2.51-.59 2.38 2.42-7 16.43-3.34-.92 3.34 3s-9.75 25.23-19 33.36c0 0 27.35-22.58 37.3-81.13l-2.45-2.81Z" fill="url(#aG)"/><path d="m246.73 287.14-13.52-3.3 15.17 2.91 5-14.59-3.28-1.6 7.77.81 2.63-2.87 2.28-.38 27.22 9.14h-4.34l9.93 4.76-4.95 14.14 3.41 2.89s-24.05-6.94-47.32-11.91Z" fill="#4D1F1D" style="mix-blend-mode:multiply" opacity=".2"/><path fill-rule="evenodd" clip-rule="evenodd" d="m276.4 238.5 21.68 5.89s23.41 8.89 25.59 13.85c0 0-1.59-10.44-47.27-19.74Z" fill="#F48D19"/><path fill-rule="evenodd" clip-rule="evenodd" d="M75.52 209.5c0 2.53-1.14 4.64-2.69 5.17a1.99 1.99 0 0 1-.74.13c-1.89 0-3.43-2.37-3.43-5.3a6.66 6.66 0 0 1 1.27-4.1 2.795 2.795 0 0 1 2.16-1.19c1.91-.05 3.43 2.29 3.43 5.29Z" fill="url(#aH)"/><path fill-rule="evenodd" clip-rule="evenodd" d="M74.08 210.5a6.66 6.66 0 0 1-1.25 4.09 1.99 1.99 0 0 1-.74.13c-1.89 0-3.43-2.37-3.43-5.3a6.66 6.66 0 0 1 1.27-4.1c.237-.072.483-.109.73-.11 1.89.03 3.42 2.4 3.42 5.29Z" fill="#481013"/><path d="m138.67 275.62 5.05 6.85-1.89-6.66-3.16-.19Z" fill="#E5774F"/><path d="m143.72 282.47-3.02-5.83-.76-.95-.38 1.14 4.16 5.64Z" fill="#5E0B1D"/><path fill-rule="evenodd" clip-rule="evenodd" d="M183.05 293.67c-.32 2.4-1.78 4.21-3.4 4.39a2.62 2.62 0 0 1-.56 0c-1.82-.25-3-2.63-2.64-5.3a5.998 5.998 0 0 1 1.83-3.66 2.709 2.709 0 0 1 2.15-.73c1.82.25 3 2.62 2.62 5.3Z" fill="url(#aI)"/><path fill-rule="evenodd" clip-rule="evenodd" d="M181.48 294.4a5.878 5.878 0 0 1-1.83 3.66 2.62 2.62 0 0 1-.56 0c-1.82-.25-3-2.63-2.64-5.3a5.998 5.998 0 0 1 1.83-3.66c.189-.03.381-.03.57 0 1.82.25 3 2.63 2.63 5.3Z" fill="url(#aJ)"/><path fill-rule="evenodd" clip-rule="evenodd" d="M160.34 291.41c-.32 2.4-1.78 4.21-3.4 4.39a2.1 2.1 0 0 1-.56 0c-1.83-.25-3-2.62-2.64-5.29a6 6 0 0 1 1.83-3.67 2.704 2.704 0 0 1 2.15-.72c1.82.24 3 2.61 2.62 5.29Z" fill="url(#aK)"/><path fill-rule="evenodd" clip-rule="evenodd" d="M158.77 292.14a5.926 5.926 0 0 1-1.83 3.66 2.1 2.1 0 0 1-.56 0c-1.83-.25-3-2.62-2.64-5.29a6 6 0 0 1 1.83-3.67c.189-.025.381-.025.57 0 1.86.25 3 2.66 2.63 5.3Z" fill="url(#aL)"/><path fill-rule="evenodd" clip-rule="evenodd" d="M206.67 295.5c-.32 2.4-1.79 4.21-3.4 4.39-.189.02-.381.02-.57 0-1.82-.25-3-2.63-2.63-5.3a6 6 0 0 1 1.82-3.67 2.718 2.718 0 0 1 2.16-.72c1.82.3 2.95 2.66 2.62 5.3Z" fill="url(#aM)"/><path fill-rule="evenodd" clip-rule="evenodd" d="M205.1 296.27a5.928 5.928 0 0 1-1.83 3.66c-.189.02-.381.02-.57 0-1.82-.25-3-2.63-2.63-5.3a6 6 0 0 1 1.82-3.67c.193-.025.387-.025.58 0 1.82.26 2.99 2.64 2.63 5.31Z" fill="url(#aN)"/><path fill-rule="evenodd" clip-rule="evenodd" d="M227.73 298.5c-.32 2.39-1.78 4.21-3.4 4.39a2.175 2.175 0 0 1-.57 0c-1.82-.25-3-2.62-2.63-5.3a6.004 6.004 0 0 1 1.82-3.66 2.73 2.73 0 0 1 2.16-.72c1.82.29 3 2.65 2.62 5.29Z" fill="url(#aO)"/><path fill-rule="evenodd" clip-rule="evenodd" d="M226.16 299.26a5.93 5.93 0 0 1-1.83 3.67 2.175 2.175 0 0 1-.57 0c-1.82-.25-3-2.62-2.63-5.3a6.004 6.004 0 0 1 1.82-3.66c.193-.025.387-.025.58 0 1.82.25 3 2.62 2.63 5.29Z" fill="url(#aP)"/><path fill-rule="evenodd" clip-rule="evenodd" d="M248.53 302.9c-.55 2.36-2.17 4-3.8 4.05a1.821 1.821 0 0 1-.56-.06c-1.79-.41-2.74-2.89-2.12-5.52a5.926 5.926 0 0 1 2.15-3.47 2.774 2.774 0 0 1 2.22-.53c1.78.43 2.73 2.9 2.11 5.53Z" fill="url(#aQ)"/><path fill-rule="evenodd" clip-rule="evenodd" d="M246.9 303.5a5.92 5.92 0 0 1-2.17 3.47 1.821 1.821 0 0 1-.56-.06c-1.79-.41-2.74-2.89-2.12-5.52a5.926 5.926 0 0 1 2.15-3.47c.192-.005.383.015.57.06 1.79.4 2.74 2.87 2.13 5.52Z" fill="url(#aR)"/><path fill-rule="evenodd" clip-rule="evenodd" d="M10.66 140.15a9.17 9.17 0 0 0 4.43-2.6s5.24.3 3.9 4.64l-5.17 2.43s-3.95-.9-3.16-4.47ZM20.89 154.86l6.28-2.93s2.93 1 2.93 3.77l-7.1 2.51s-3-.45-2.11-3.35ZM32 170.01l6.55-4.58s4.26.83 3.84 4.58l-8.18 3.4s-2.89-.91-2.21-3.4Z" fill="#661B3E"/></g><defs><linearGradient id="b" x1="249.24" y1="282.47" x2="249.24" y2="221.1" gradientUnits="userSpaceOnUse"><stop stop-color="#5F123E"/><stop offset="1" stop-color="#801E1D"/></linearGradient><linearGradient id="c" x1="203.89" y1="81.22" x2="370.93" y2="81.22" gradientUnits="userSpaceOnUse"><stop stop-color="#E16419"/><stop offset="1" stop-color="#6B073E"/></linearGradient><linearGradient id="d" x1="260.6" y1="263.05" x2="260.6" y2="50.14" gradientUnits="userSpaceOnUse"><stop stop-color="#E16419"/><stop offset="1" stop-color="#8E1B3E"/></linearGradient><linearGradient id="g" x1="280.28" y1="102.83" x2="280.28" y2="75.7" gradientUnits="userSpaceOnUse"><stop stop-color="#A981C0"/><stop offset="1" stop-color="#D6607C"/></linearGradient><linearGradient id="h" x1="262.48" y1="231.48" x2="262.48" y2="72.21" gradientUnits="userSpaceOnUse"><stop stop-color="#A981C0"/><stop offset="1" stop-color="#D6607C"/></linearGradient><linearGradient id="i" x1="197.7" y1="161.69" x2="197.7" y2="103.18" gradientUnits="userSpaceOnUse"><stop stop-color="#A981C0"/><stop offset="1" stop-color="#D6607C"/></linearGradient><linearGradient id="j" x1="341.45" y1="139.35" x2="341.45" y2="72.21" gradientUnits="userSpaceOnUse"><stop stop-color="#A981C0"/><stop offset="1" stop-color="#D6607C"/></linearGradient><linearGradient id="k" x1="170.02" y1="231.48" x2="170.02" y2="184.79" gradientUnits="userSpaceOnUse"><stop stop-color="#A981C0"/><stop offset="1" stop-color="#D6607C"/></linearGradient><linearGradient id="l" x1="182.49" y1="226.44" x2="182.49" y2="197.72" gradientUnits="userSpaceOnUse"><stop stop-color="#A981C0"/><stop offset="1" stop-color="#D6607C"/></linearGradient><linearGradient id="m" x1="303.1" y1="98.99" x2="303.1" y2="75.37" gradientUnits="userSpaceOnUse"><stop/><stop offset="1" stop-color="#FF9A00"/></linearGradient><linearGradient id="n" x1="285.44" y1="112.35" x2="285.44" y2="79.73" gradientUnits="userSpaceOnUse"><stop/><stop offset="1" stop-color="#FF9A00"/></linearGradient><linearGradient id="o" x1="339.28" y1="146.67" x2="339.28" y2="79.73" gradientUnits="userSpaceOnUse"><stop/><stop offset="1" stop-color="#FF9A00"/></linearGradient><linearGradient id="p" x1="262.48" y1="231.48" x2="262.48" y2="72.21" gradientUnits="userSpaceOnUse"><stop stop-color="#F8DCE4"/><stop offset="1" stop-color="#BB9BCD"/></linearGradient><linearGradient id="q" x1="228.27" y1="135.38" x2="228.27" y2="97.68" gradientUnits="userSpaceOnUse"><stop/><stop offset="1" stop-color="#FF9A00"/></linearGradient><linearGradient id="r" x1="159.21" y1="226.76" x2="370.58" y2="226.76" gradientUnits="userSpaceOnUse"><stop stop-color="#E16419"/><stop offset="1" stop-color="#8E1B3E"/></linearGradient><linearGradient id="s" x1="159.21" y1="154.81" x2="318.61" y2="154.81" gradientUnits="userSpaceOnUse"><stop stop-color="#D6607C"/><stop offset="1" stop-color="#A981C0"/></linearGradient><linearGradient id="t" x1="223.55" y1="271.37" x2="223.55" y2=".5" gradientUnits="userSpaceOnUse"><stop stop-color="#E16419"/><stop offset="1" stop-color="#8E1B3E"/></linearGradient><linearGradient id="x" x1="179.35" y1="60.83" x2="191.9" y2="60.83" gradientUnits="userSpaceOnUse"><stop stop-color="#A981C0"/><stop offset="1" stop-color="#D6607C"/></linearGradient><linearGradient id="y" x1="181.65" y1="50.04" x2="260.56" y2="50.04" gradientUnits="userSpaceOnUse"><stop stop-color="#A981C0"/><stop offset="1" stop-color="#D6607C"/></linearGradient><linearGradient id="z" x1="137.32" y1="81" x2="290.64" y2="81" gradientUnits="userSpaceOnUse"><stop stop-color="#A981C0"/><stop offset="1" stop-color="#D6607C"/></linearGradient><linearGradient id="A" x1="242.14" y1="56.39" x2="271.62" y2="56.39" gradientUnits="userSpaceOnUse"><stop/><stop offset="1" stop-color="#FFFFE1"/></linearGradient><linearGradient id="B" x1="224.13" y1="89.04" x2="276.69" y2="89.04" gradientUnits="userSpaceOnUse"><stop/><stop offset="1" stop-color="#FFFFE1"/></linearGradient><linearGradient id="C" x1="160.94" y1="96.87" x2="205.42" y2="96.87" gradientUnits="userSpaceOnUse"><stop/><stop offset="1" stop-color="#FFFFE1"/></linearGradient><linearGradient id="D" x1="162.17" y1="90.84" x2="173.95" y2="90.84" gradientUnits="userSpaceOnUse"><stop stop-color="#FF9A00"/><stop offset="1"/></linearGradient><linearGradient id="E" x1="155.13" y1="90.73" x2="290.64" y2="90.73" gradientUnits="userSpaceOnUse"><stop stop-color="#F8DCE4"/><stop offset="1" stop-color="#BB9BCD"/></linearGradient><linearGradient id="G" x1="163.24" y1="145.71" x2="163.24" y2="121.7" gradientUnits="userSpaceOnUse"><stop stop-color="#A981C0"/><stop offset="1" stop-color="#D6607C"/></linearGradient><linearGradient id="H" x1="224.01" y1="217.49" x2="224.01" y2="103.45" gradientUnits="userSpaceOnUse"><stop stop-color="#A981C0"/><stop offset="1" stop-color="#D6607C"/></linearGradient><linearGradient id="I" x1="271.06" y1="153.04" x2="271.06" y2="109.62" gradientUnits="userSpaceOnUse"><stop/><stop offset="1" stop-color="#FFFFE1"/></linearGradient><linearGradient id="J" x1="262.71" y1="133.71" x2="262.71" y2="108.54" gradientUnits="userSpaceOnUse"><stop/><stop offset="1" stop-color="#FFFFE1"/></linearGradient><linearGradient id="K" x1="161.47" y1="153.38" x2="161.47" y2="126.01" gradientUnits="userSpaceOnUse"><stop/><stop offset="1" stop-color="#FFFFE1"/></linearGradient><linearGradient id="L" x1="214.86" y1="122.55" x2="214.86" y2="109.62" gradientUnits="userSpaceOnUse"><stop/><stop offset="1" stop-color="#FF9A00"/></linearGradient><linearGradient id="M" x1="85.39" y1="160.51" x2="308.92" y2="160.51" gradientUnits="userSpaceOnUse"><stop stop-color="#F8DCE4"/><stop offset="1" stop-color="#BB9BCD"/></linearGradient><linearGradient id="Q" x1="179.47" y1="48.46" x2="203.09" y2="48.46" gradientUnits="userSpaceOnUse"><stop stop-color="#A981C0"/><stop offset="1" stop-color="#D6607C"/></linearGradient><linearGradient id="R" x1="194.69" y1="20.76" x2="211.76" y2="20.76" gradientUnits="userSpaceOnUse"><stop stop-color="#A981C0"/><stop offset="1" stop-color="#D6607C"/></linearGradient><linearGradient id="S" x1="203.41" y1="26.09" x2="274.2" y2="26.09" gradientUnits="userSpaceOnUse"><stop stop-color="#A981C0"/><stop offset="1" stop-color="#D6607C"/></linearGradient><linearGradient id="T" x1="242.36" y1="11.48" x2="268.87" y2="11.48" gradientUnits="userSpaceOnUse"><stop/><stop offset="1" stop-color="#FFFFE1"/></linearGradient><linearGradient id="U" x1="207.25" y1="18.97" x2="216" y2="18.97" gradientUnits="userSpaceOnUse"><stop/><stop offset="1" stop-color="#FFFFE1"/></linearGradient><linearGradient id="V" x1="184.38" y1="45.81" x2="209.23" y2="45.81" gradientUnits="userSpaceOnUse"><stop/><stop offset="1" stop-color="#FFFFE1"/></linearGradient><linearGradient id="W" x1="243.94" y1="36.97" x2="270.85" y2="36.97" gradientUnits="userSpaceOnUse"><stop/><stop offset="1" stop-color="#FFFFE1"/></linearGradient><linearGradient id="X" x1="179.47" y1="39.71" x2="274.2" y2="39.71" gradientUnits="userSpaceOnUse"><stop stop-color="#F8DCE4"/><stop offset="1" stop-color="#BB9BCD"/></linearGradient><linearGradient id="Z" x1="161.83" y1="347.5" x2="161.83" y2="123.9" gradientUnits="userSpaceOnUse"><stop stop-color="#5F123E"/><stop offset="1" stop-color="#D2603B"/></linearGradient><linearGradient id="aa" x1="63.6" y1="347.5" x2="63.6" y2="193.62" gradientUnits="userSpaceOnUse"><stop stop-color="#5F123E"/><stop offset="1" stop-color="#D2603B"/></linearGradient><linearGradient id="ab" x1="46.13" y1="347.5" x2="46.13" y2="123.9" gradientUnits="userSpaceOnUse"><stop stop-color="#44032F"/><stop offset="1" stop-color="#AC3B1D"/></linearGradient><linearGradient id="ad" x1="130.62" y1="232.93" x2="130.62" y2="213.32" gradientUnits="userSpaceOnUse"><stop offset=".01" stop-color="#AE429A"/><stop offset="1" stop-color="#E08368"/></linearGradient><linearGradient id="ae" x1="295.59" y1="270.56" x2="295.59" y2="248.42" gradientUnits="userSpaceOnUse"><stop offset=".01" stop-color="#AE429A"/><stop offset="1" stop-color="#E08368"/></linearGradient><linearGradient id="af" x1="63.62" y1="242.51" x2="63.62" y2="240.44" gradientUnits="userSpaceOnUse"><stop offset=".01" stop-color="#AE429A"/><stop offset="1" stop-color="#E08368"/></linearGradient><linearGradient id="ag" x1="138.39" y1="255.43" x2="138.39" y2="242.52" gradientUnits="userSpaceOnUse"><stop offset=".01" stop-color="#AE429A"/><stop offset="1" stop-color="#E08368"/></linearGradient><linearGradient id="ah" x1="281.85" y1="287.71" x2="281.85" y2="263.91" gradientUnits="userSpaceOnUse"><stop offset=".01" stop-color="#AE429A"/><stop offset="1" stop-color="#E08368"/></linearGradient><linearGradient id="ai" x1="188.45" y1="307.71" x2="188.45" y2="270.56" gradientUnits="userSpaceOnUse"><stop offset=".01" stop-color="#AE429A"/><stop offset="1" stop-color="#E08368"/></linearGradient><linearGradient id="aj" x1="190.43" y1="316.6" x2="190.43" y2="289.41" gradientUnits="userSpaceOnUse"><stop offset=".01" stop-color="#AE429A"/><stop offset="1" stop-color="#E08368"/></linearGradient><linearGradient id="ak" x1="190.69" y1="331.16" x2="190.69" y2="312.89" gradientUnits="userSpaceOnUse"><stop offset=".01" stop-color="#AE429A"/><stop offset="1" stop-color="#E08368"/></linearGradient><linearGradient id="al" x1="188.71" y1="342.84" x2="188.71" y2="333.55" gradientUnits="userSpaceOnUse"><stop offset=".01" stop-color="#AE429A"/><stop offset="1" stop-color="#E08368"/></linearGradient><linearGradient id="am" x1="42.18" y1="227.2" x2="42.18" y2="216.69" gradientUnits="userSpaceOnUse"><stop offset=".01" stop-color="#AE429A"/><stop offset="1" stop-color="#E08368"/></linearGradient><linearGradient id="an" x1="43.39" y1="249.72" x2="43.39" y2="238.04" gradientUnits="userSpaceOnUse"><stop offset=".01" stop-color="#AE429A"/><stop offset="1" stop-color="#E08368"/></linearGradient><linearGradient id="ao" x1="52.93" y1="282.02" x2="52.93" y2="270.56" gradientUnits="userSpaceOnUse"><stop offset=".01" stop-color="#AE429A"/><stop offset="1" stop-color="#E08368"/></linearGradient><linearGradient id="ap" x1="66.13" y1="303.06" x2="66.13" y2="293.21" gradientUnits="userSpaceOnUse"><stop offset=".01" stop-color="#AE429A"/><stop offset="1" stop-color="#E08368"/></linearGradient><linearGradient id="aq" x1="78.51" y1="316.6" x2="78.51" y2="312.89" gradientUnits="userSpaceOnUse"><stop offset=".01" stop-color="#AE429A"/><stop offset="1" stop-color="#E08368"/></linearGradient><linearGradient id="as" x1="192.73" y1="316.68" x2="192.73" y2="292.39" gradientUnits="userSpaceOnUse"><stop/><stop offset="1" stop-color="#D7883D"/></linearGradient><linearGradient id="at" x1="190.39" y1="306.92" x2="190.39" y2="271.37" gradientUnits="userSpaceOnUse"><stop/><stop offset="1" stop-color="#D7883D"/></linearGradient><linearGradient id="au" x1="138.67" y1="256.84" x2="138.67" y2="242.52" gradientUnits="userSpaceOnUse"><stop/><stop offset="1" stop-color="#D7883D"/></linearGradient><linearGradient id="av" x1="280.81" y1="287.71" x2="280.81" y2="263.68" gradientUnits="userSpaceOnUse"><stop/><stop offset="1" stop-color="#D7883D"/></linearGradient><linearGradient id="aw" x1="191.97" y1="330.72" x2="191.97" y2="314.79" gradientUnits="userSpaceOnUse"><stop/><stop offset="1" stop-color="#D7883D"/></linearGradient><linearGradient id="ax" x1="136.98" y1="232.93" x2="136.98" y2="218.61" gradientUnits="userSpaceOnUse"><stop/><stop offset="1" stop-color="#D7883D"/></linearGradient><linearGradient id="ay" x1="296.07" y1="270.56" x2="296.07" y2="251.52" gradientUnits="userSpaceOnUse"><stop/><stop offset="1" stop-color="#D7883D"/></linearGradient><linearGradient id="aA" x1="60.04" y1="257.42" x2="160.26" y2="257.42" gradientUnits="userSpaceOnUse"><stop stop-color="#D7883D"/><stop offset="1"/></linearGradient><linearGradient id="aB" x1="190.58" y1="347.5" x2="190.58" y2="191.01" gradientUnits="userSpaceOnUse"><stop stop-color="#A981C0"/><stop offset="1" stop-color="#FCB47C"/></linearGradient><linearGradient id="aC" x1="187.01" y1="347.5" x2="187.01" y2="328.12" gradientUnits="userSpaceOnUse"><stop stop-color="#51888D"/><stop offset="1"/></linearGradient><linearGradient id="aE" x1="128.7" y1="224.71" x2="128.7" y2="197.68" gradientUnits="userSpaceOnUse"><stop/><stop offset="1" stop-color="#D7883D"/></linearGradient><linearGradient id="aF" x1="51.65" y1="304.54" x2="51.65" y2="209.37" gradientUnits="userSpaceOnUse"><stop/><stop offset="1" stop-color="#D7883D"/></linearGradient><linearGradient id="aG" x1="273.08" y1="324.08" x2="334.49" y2="270.69" gradientUnits="userSpaceOnUse"><stop/><stop offset="1" stop-color="#D7883D"/></linearGradient><linearGradient id="aH" x1="68.65" y1="209.46" x2="75.52" y2="209.46" gradientUnits="userSpaceOnUse"><stop stop-color="#6A1A1D"/><stop offset="1" stop-color="#5F123E"/></linearGradient><linearGradient id="aI" x1="176.39" y1="293.21" x2="183.12" y2="293.21" gradientUnits="userSpaceOnUse"><stop stop-color="#6A1A1D"/><stop offset="1" stop-color="#5F123E"/></linearGradient><linearGradient id="aJ" x1="176.39" y1="293.58" x2="181.55" y2="293.58" gradientUnits="userSpaceOnUse"><stop stop-color="#4A001D"/><stop offset="1" stop-color="#520034"/></linearGradient><linearGradient id="aK" x1="153.68" y1="290.95" x2="160.41" y2="290.95" gradientUnits="userSpaceOnUse"><stop stop-color="#6A1A1D"/><stop offset="1" stop-color="#5F123E"/></linearGradient><linearGradient id="aL" x1="153.68" y1="291.32" x2="158.84" y2="291.32" gradientUnits="userSpaceOnUse"><stop stop-color="#4A001D"/><stop offset="1" stop-color="#520034"/></linearGradient><linearGradient id="aM" x1="200" y1="295.08" x2="206.74" y2="295.08" gradientUnits="userSpaceOnUse"><stop stop-color="#6A1A1D"/><stop offset="1" stop-color="#5F123E"/></linearGradient><linearGradient id="aN" x1="200" y1="295.45" x2="205.17" y2="295.45" gradientUnits="userSpaceOnUse"><stop stop-color="#4A001D"/><stop offset="1" stop-color="#520034"/></linearGradient><linearGradient id="aO" x1="221.07" y1="298.08" x2="227.8" y2="298.08" gradientUnits="userSpaceOnUse"><stop stop-color="#6A1A1D"/><stop offset="1" stop-color="#5F123E"/></linearGradient><linearGradient id="aP" x1="221.07" y1="298.44" x2="226.23" y2="298.44" gradientUnits="userSpaceOnUse"><stop stop-color="#4A001D"/><stop offset="1" stop-color="#520034"/></linearGradient><linearGradient id="aQ" x1="244.368" y1="302.566" x2="251.108" y2="303.172" gradientUnits="userSpaceOnUse"><stop stop-color="#6A1A1D"/><stop offset="1" stop-color="#5F123E"/></linearGradient><linearGradient id="aR" x1="244.335" y1="302.936" x2="249.495" y2="303.4" gradientUnits="userSpaceOnUse"><stop stop-color="#4A001D"/><stop offset="1" stop-color="#520034"/></linearGradient><radialGradient id="e" cx="0" cy="0" r="1" gradientUnits="userSpaceOnUse" gradientTransform="matrix(.1 0 0 .111 214.74 88.164)"><stop stop-color="#FF2C22"/><stop offset="1" stop-color="#D6002A"/></radialGradient><radialGradient id="f" cx="0" cy="0" r="1" gradientUnits="userSpaceOnUse" gradientTransform="translate(218.8 123.15) scale(150.02)"><stop stop-color="#FFCF9A"/><stop offset="1" stop-color="#EC9FA0"/></radialGradient><radialGradient id="u" cx="0" cy="0" r="1" gradientUnits="userSpaceOnUse" gradientTransform="translate(170.34 108.75) scale(65.05)"><stop stop-color="#E16419"/><stop offset="1" stop-color="#8D323E"/></radialGradient><radialGradient id="v" cx="0" cy="0" r="1" gradientUnits="userSpaceOnUse" gradientTransform="translate(160.04 210.59) scale(80.65)"><stop stop-color="#E16419"/><stop offset="1" stop-color="#8D323E"/></radialGradient><radialGradient id="w" cx="0" cy="0" r="1" gradientUnits="userSpaceOnUse" gradientTransform="matrix(78.5 0 0 78.5 171.22 72.04)"><stop stop-color="#FFF9DB"/><stop offset="1" stop-color="#FDB7A0"/></radialGradient><radialGradient id="F" cx="0" cy="0" r="1" gradientUnits="userSpaceOnUse" gradientTransform="matrix(146.331 0 0 131.83 150.784 139.81)"><stop stop-color="#FFF9DB"/><stop offset="1" stop-color="#FDB7A0"/></radialGradient><radialGradient id="N" cx="0" cy="0" r="1" gradientUnits="userSpaceOnUse" gradientTransform="translate(202.51 44.95) scale(39.33)"><stop stop-color="#E16419"/><stop offset="1" stop-color="#8D323E"/></radialGradient><radialGradient id="O" cx="0" cy="0" r="1" gradientUnits="userSpaceOnUse" gradientTransform="translate(222.02 7.63) scale(27.95)"><stop stop-color="#E16419"/><stop offset="1" stop-color="#8D323E"/></radialGradient><radialGradient id="P" cx="0" cy="0" r="1" gradientUnits="userSpaceOnUse" gradientTransform="translate(200.41 24.06) scale(48.47)"><stop stop-color="#FFF9DB"/><stop offset="1" stop-color="#FDB7A0"/></radialGradient><radialGradient id="Y" cx="0" cy="0" r="1" gradientUnits="userSpaceOnUse" gradientTransform="matrix(68.64004 4.8048 -9.32274 133.1821 215.981 272.381)"><stop stop-color="#E16419"/><stop offset="1" stop-color="#CF463E"/></radialGradient><radialGradient id="ac" cx="0" cy="0" r="1" gradientUnits="userSpaceOnUse" gradientTransform="translate(54.9 249.72) scale(73.66)"><stop stop-color="#E16419"/><stop offset="1" stop-color="#9D323E"/></radialGradient><radialGradient id="ar" cx="0" cy="0" r="1" gradientUnits="userSpaceOnUse" gradientTransform="translate(268.45 251.52) scale(11.27)"><stop stop-color="#E16419"/><stop offset="1" stop-color="#C8513E"/></radialGradient><radialGradient id="az" cx="0" cy="0" r="1" gradientUnits="userSpaceOnUse" gradientTransform="translate(251.72 325.18) scale(20.72)"><stop stop-color="#D7883D"/><stop offset="1"/></radialGradient><radialGradient id="aD" cx="0" cy="0" r="1" gradientUnits="userSpaceOnUse" gradientTransform="translate(132.34 202.86) scale(49.64)"><stop stop-color="#E16419"/><stop offset="1" stop-color="#E0543E"/></radialGradient><clipPath id="a"><path fill="#fff" d="M0 .5h373.04v347H0z"/></clipPath></defs></svg>