<svg width="139" height="100" viewBox="0 0 139 100" fill="none" xmlns="http://www.w3.org/2000/svg"><g clip-path="url(#a)"><path d="M121.79 5.966 99.027 96.152l-.213.852h-86.65a218.26 218.26 0 0 1-8.586-27.488C-2.79 42.28 1.196 27.438 6.748 19.378a23.903 23.903 0 0 1 7.521-7.12 16.17 16.17 0 0 1 5.014-2.042 753.191 753.191 0 0 1 21.309-2.733c4.312-.489 8.423-.927 12.309-1.253H53.979c.639-.076 1.253-.126 1.88-.176 12.058-1.278 22.173-1.842 30.471-2.08h.075a216.478 216.478 0 0 1 27.062.689c1.254.125 2.244.238 3.159.363 1.731.2 3.448.51 5.139.928 0 0 .013 0 .025.012Z" fill="url(#b)"/><path d="M132.871 66.897v.451c0 .037 0 .413-.113.702-.113.288 0 .225 0 .363 0 .138-.075.414-.113.64-2.632 14.89-5.929 26.535-5.929 26.535l-27.902 1.416s-.075-.3-.2-.865c-1.254-5.84-8.36-40.21-2.607-68.137 3.12-15.254 12.108-22.926 20.619-22.988a14.438 14.438 0 0 1 5.139.927c6.568 2.507 12.096 9.802 13.45 22.036 1.316 11.795-.214 26.347-2.344 38.92Z" fill="url(#c)"/><path d="M123.332 87.027a34.985 34.985 0 0 1-13.45 2.106 26.026 26.026 0 0 1-5.816-.94s-11.155-71.134 11.896-74.33c.288 0 .576-.075.864-.1 24.179-1.542 6.506 73.264 6.506 73.264Z" fill="#D42F55" style="mix-blend-mode:multiply" opacity=".91"/><path d="M120.248 87.027a35.435 35.435 0 0 1-10.366 2.106 26.02 26.02 0 0 1-5.816-.94s-11.155-71.134 11.896-74.33c20.832 3.146 4.286 73.164 4.286 73.164Z" fill="url(#d)"/><path d="M126.064 90.9c2.858-3.322 5.49-16.596 6.443-21.848-2.632 14.891-5.929 26.536-5.929 26.536l-27.764 1.416H12.966l16.182-5.252s4.136 1.63 14.778 2.77c10.028 1.09 50.213 1.58 54.65 1.617h.414c.69-.012 23.54-1.128 27.074-5.239Z" fill="#D42F55" style="mix-blend-mode:multiply" opacity=".8"/><path d="m.319 52.983 93.457-1.504 41.075-1.153s-37.704 2.607-41.075 2.657c-3.372.05-93.457 0-93.457 0Z" fill="#97001A"/><path d="M118.469 5.014s-2.332-.2-5.014-.364a42.622 42.622 0 0 0-7.333-.075c-2.394.476-16.295 5.077-20.055 32.652-3.02 22.161 3.372 59.288 4.5 59.777 1.153.49 4.876 0 4.876 0s-4.726 2.507-5.867 2.507c-1.14 0-14.803.99-15.617 0a11.121 11.121 0 0 1-.702-2.507c-1.667-8.01-5.428-33.417-3.999-56.48C70.6 18.689 79.398 8.674 85.93 4.249c.123-.107.257-.2.401-.276A21.535 21.535 0 0 1 92.86.965c2.72-.664 18.038-1.153 19.116-.89 2.319.54 6.091 4.525 6.467 4.939h.026Z" fill="url(#e)"/><path d="M53.991 6.067H52.913c-2.707.238-9.714.915-12.309 1.253l-.539.2c-2.369.49-15.93 4.94-18.024 31.65-1.667 21.07 6.793 56.092 8.197 57.86h.076c1.178.476 4.9 0 4.9 0s-4.562 2.506-5.715 2.506c-1.153 0-14.74.965-15.606 0a11.467 11.467 0 0 1-.877-2.507c-2.231-7.859-7.52-32.376-7.52-54.662 0-15.217 4.198-24.505 8.899-30.083a26.054 26.054 0 0 1 2.732-2.858 22.738 22.738 0 0 1 9.476-5.365c2.733-.627 13.512-1.692 18.451-.877a69.93 69.93 0 0 1 8.787 2.807l.15.076Z" fill="url(#f)"/><path d="M111.976.063c-7.809.3-23.026 8.874-28.065 31.812-4.7 21.309 4.512 68 5.69 67.686 1.179-.313 5.867-2.507 5.867-2.507a15.28 15.28 0 0 1-3.585-1.792c-1.254-1.015-7.02-41.063-2.77-62.56 4.249-21.496 20.506-28.215 20.506-28.215l8.85.527S114.019 0 111.976.063ZM54.004 6.067A33.843 33.843 0 0 0 42.723 3.86c-5.152.188-18 4.65-22.813 27.074-4.813 22.424 8.172 68.238 9.564 68.639 1.391.4 6.931-2.582 6.931-2.582s-3.597-.665-5.014-2.131c-1.416-1.467-9.262-41.853-6.73-63.713C26.54 15.041 39.174 5.891 54.004 6.067Z" fill="#D42F55" style="mix-blend-mode:multiply" opacity=".5"/><path d="M70.436 30.935c-.601 6.13 10.83 1.918 12.146 1.429 1.316-.489 5.152-14.816 11.118-23.427 5.967-8.611-5.928-6.68-9.313-3.572-3.384 3.108-12.56 11.431-13.95 25.57ZM5.96 33.53c-.402 4.525 10.027 2.594 12.032 0C19.998 30.935 23.558 15.768 29.724 9 35.891 2.23 8.992 4.187 5.96 33.53Z" fill="#fff" style="mix-blend-mode:soft-light"/><path d="M70.8 35.297c-1.04-.1-1.504 8.549-.389 10.504 1.116 1.955 10.028.113 11.13 0 1.104-.113 1.505-11.958 1.342-12.271-.163-.314-7.195 2.256-12.083 1.767ZM6.586 36.25c-.928-.301-1.254 10.641 0 11.87 1.253 1.228 10.967.138 11.694 0 .727-.138.803-10.316.59-11.87-.213-1.555-7.383 1.554-12.284 0Z" fill="#F35" style="mix-blend-mode:multiply" opacity=".5"/><path d="M20.913 40.11a38.682 38.682 0 0 0 0 16.822s18.714 9.112 23.602 9.94c4.889.827 24.355-9.69 24.43-9.94.075-.251-.827-14.967.827-20.67l-48.86 3.848Z" fill="url(#g)"/><path d="M20.913 40.11s35.898-6.267 48.884-3.848c-.025-.012-38.468 4.237-48.884 3.848Z" fill="#FFE016"/><path d="M45.819 66.859c-6.97.263 23.063-12.033 23.063-12.033v3.76S53.678 66.571 45.82 66.86Z" fill="#D42F55" style="mix-blend-mode:multiply" opacity=".5"/><path d="M20.123 45.325c1.053 6.868 14.954-.44 29.607-1.254 14.652-.815 18.162-1.88 19.215-6.167 1.053-4.287-16.107 1.14-30.434.802-14.327-.338-19.027 2.482-18.388 6.619Z" fill="#fff" style="mix-blend-mode:soft-light"/><path d="M20.913 50.025c.714 4.638 19.29-4.186 32.439-3.648 13.149.54 15.518.878 15.555-3.76.038-4.638-1.604.138-8.598 1.254-6.995 1.115-12.36 2.105-23.44 3.51-10.027 1.253-15.041.614-15.956.852-.915.238 0 1.792 0 1.792Z" fill="#F35" style="mix-blend-mode:multiply" opacity=".5"/><path d="M43.074 52.356s-5.59-6.467.438-7.395c6.03-.927 1.191 7.395 1.191 7.395s2.733 6.82 2.695 7.333c-.038.514-6.267.163-6.806 0-.54-.163 2.482-7.333 2.482-7.333Z" fill="url(#h)"/><path d="M20.913 56.919s16.457 7.007 21.822 7.145c5.365.138 21.146-7.145 21.146-7.145s-17.46 8.837-21.208 8.473c-3.748-.363-21.76-8.473-21.76-8.473Z" fill="#FFE016"/><path d="M30.64 39.81c-4.801 3.622 3.522 4.06 6.718 2.431 3.196-1.63 3.171-3.522 3.171-3.522s-8.197-.175-9.89 1.09ZM87.157 8.937c-2.682 3.297-1.579 7.809 0 5.854 1.58-1.956 4.525-5.603 3.059-5.854a10.892 10.892 0 0 0-3.059 0ZM20.913 10.516c-1.517-1.115-3.986 4.124-2.62 4.751 1.366.627 4.588-3.322 2.62-4.75Z" fill="#fff"/><path d="M12.703 79.368c-2.156 2.908.576 16.47 2.356 18.551 1.78 2.081 12.096.828 12.697 0 .602-.827-5.79-19.49-6.267-21.672-.476-2.18-5.929-.727-8.786 3.121ZM72.768 83.53c-.489-7.521 8.21-4.375 10.98-3.109 2.77 1.266 4.212 15.706 3.572 17.548-.639 1.843-11.017.915-12.534 0-1.517-.915-1.956-13.562-2.018-14.44Z" fill="#F35" style="mix-blend-mode:multiply" opacity=".2"/><path d="M86.932 22.361c-3.886 8.123 6.455-5.979 11.945-11.08a32.752 32.752 0 0 1 11.595-6.957s-.853-2.206-4.149-2.206c-3.297 0-12.41 5.603-19.391 20.243ZM21.527 25.896a78.426 78.426 0 0 1 10.027-11.832c5.854-5.616 16.721-7.446 16.721-7.446a12.146 12.146 0 0 0-7.696-2.507c-4.688.188-14.753 6.53-19.052 21.785Z" fill="#D42F55" style="mix-blend-mode:multiply" opacity=".5"/><path d="M135.691 42.617a37.727 37.727 0 0 1 2.507 6.117c.326 1.742-.376 11.218-1.329 12.823a15.766 15.766 0 0 1-3.76 3.522l2.582-22.462Z" fill="#FF5215"/><path d="M22.204 72.437s1.404 21.572 7.307 27.137a179.692 179.692 0 0 1-7.307-27.137ZM82.582 56.556s-.275 21.86 5.014 35.698c-.013 0-3.083-20.13-5.014-35.699Z" fill="#FFE016"/><path d="M103.941 28.34c1.454.94 5.014-12.76 12.685-13.311 7.671-.552 8.047 20.581 11.143 23.677s2.507-20.544-6.806-24.342c-9.313-3.797-14.728 6.606-17.022 13.976Z" fill="#D42F55" style="mix-blend-mode:multiply" opacity=".8"/><path d="M26.766 29.193c-.2 4.186 34.758 2.143 38.732-1.88C69.47 23.289 78.295 9.539 81.993 6.73c3.698-2.808-28.328-1.366-36.65 1.103-8.324 2.47-18.088 11.331-18.577 21.359ZM89.313 31.487c1.341 1.616 3.936-4.588 8.987-13.15 5.052-8.56 12.974-11.28 12.121-12.534-.852-1.253-19.278 7.22-21.108 25.684Z" fill="#FFA200" style="mix-blend-mode:soft-light"/><path d="M99.028 96.152S93.11 57.42 93.8 54.788c.689-2.632 5.44-2.331 6.154-1.817.715.514 2.219 32.59 3.986 37.227 1.767 4.638-4.913 5.954-4.913 5.954Z" fill="#F35" style="mix-blend-mode:multiply" opacity=".5"/><path d="M86.806 53.008s5.378.853 7.12 1.028c1.742.176 7.796-1.391 7.796-1.391l-14.916.363ZM.832 52.983s0 1.329.552 1.48c.552.15 4.437-1.455 4.437-1.455l-4.989-.025Z" fill="#FF740E"/><path d="M68.907 61.52c0-2.884-20.168 6.104-26.51 13.937-6.343 7.835-8.687 16.584-5.804 19.078 2.883 2.494 30.083 2.068 33.18 1.103 3.095-.965-.866-34.119-.866-34.119ZM97.536 24.83c-1.53 5.516 9.902-8.071 19.353-11.042 9.451-2.97 4.149-7.52.978-8.561-3.171-1.04-14.954.225-20.331 19.604Z" fill="#F35" style="mix-blend-mode:multiply" opacity=".5"/><path d="M70.938 10.366c-1.04-2.093-9.614 2.394-9.877 3.497-.264 1.103 11.707.213 9.877-3.497Z" fill="#fff" style="mix-blend-mode:soft-light"/><path d="M3.578 69.516C-2.79 42.28 1.196 27.438 6.748 19.378A41.364 41.364 0 0 0 3.065 30.66c-2.169 11.194-.477 30.008.514 38.857ZM45.004 3.146a69.939 69.939 0 0 1 8.837 2.845l-2.507.15S41.432 2.872 32.77 4.15a50.615 50.615 0 0 0-15.693 5.24 22.738 22.738 0 0 1 9.476-5.365c2.733-.627 13.512-1.693 18.451-.878ZM118.443 5.014c-.564-.25-10.942-4.939-21.032-3.66-7.797 1.015-10.279 2.118-11.006 2.62a1.09 1.09 0 0 0-.313.263h-.163L55.846 5.879C67.917 4.776 78.032 4.212 86.33 3.973A21.534 21.534 0 0 1 92.86.965c2.72-.664 18.038-1.153 19.116-.89 2.319.54 6.091 4.525 6.467 4.939Z" fill="#D42F55" style="mix-blend-mode:multiply" opacity=".8"/><path d="M88.06 51.391s3.221.326 4.475-.363c1.253-.69 2.394-16.784 2.394-16.784s-1.717.577-4.325 3.673C87.997 41.013 88.06 51.39 88.06 51.39ZM2.224 52.858c-1.542-.677-.276-10.667.601-12.748.878-2.08 2.282 10.692 2.32 11.908.037 1.216-2.921.84-2.921.84Z" fill="#FFE2C2" style="mix-blend-mode:soft-light"/><path d="M104.066 88.193c4.751 1.253 12.109.84 15.882-1.053l3.384-.113s-9.414 6.982-19.266 1.166Z" fill="#fff" style="mix-blend-mode:soft-light"/></g><defs><linearGradient id="b" x1="61.061" y1="97.029" x2="61.061" y2="3.861" gradientUnits="userSpaceOnUse"><stop stop-color="#D83303"/><stop offset="1" stop-color="#FF8911"/></linearGradient><linearGradient id="c" x1="114.746" y1="97.004" x2="114.746" y2="5.026" gradientUnits="userSpaceOnUse"><stop stop-color="#A71100"/><stop offset=".65" stop-color="#D83303"/><stop offset="1" stop-color="#EC5C11"/></linearGradient><linearGradient id="d" x1="113.918" y1="89.133" x2="113.918" y2="13.863" gradientUnits="userSpaceOnUse"><stop stop-color="#A71100"/><stop offset="1" stop-color="#D83303"/></linearGradient><linearGradient id="e" x1="93.713" y1="100" x2="93.713" y2="0" gradientUnits="userSpaceOnUse"><stop stop-color="#FF8B00"/><stop offset="1" stop-color="#FFAE00"/></linearGradient><linearGradient id="f" x1="29.724" y1="100" x2="29.724" y2="2.858" gradientUnits="userSpaceOnUse"><stop stop-color="#FF8B00"/><stop offset="1" stop-color="#FFAE00"/></linearGradient><linearGradient id="g" x1="44.866" y1="66.909" x2="44.866" y2="36.25" gradientUnits="userSpaceOnUse"><stop stop-color="#FF8B00"/><stop offset="1" stop-color="#FFAE00"/></linearGradient><linearGradient id="h" x1="43.964" y1="59.952" x2="43.964" y2="44.886" gradientUnits="userSpaceOnUse"><stop stop-color="#DE330E"/><stop offset="1" stop-color="#930000"/></linearGradient><clipPath id="a"><path fill="#fff" d="M.319 0h138.03v100H.319z"/></clipPath></defs></svg>