<svg width="100" height="100" viewBox="0 0 100 100" fill="none" xmlns="http://www.w3.org/2000/svg"><g clip-path="url(#a)"><path d="M25.143 6.929C29.044 1.642 88.187.152 92.814 3.502c4.627 3.35-3.22 88.867-3.674 93.304-.454 4.438-53.427 2.078-57.59 1.6-4.162-.48-6.407-91.477-6.407-91.477Z" fill="url(#b)"/><path d="M92.814 3.502s4.537-1.087 6.317 1.273c1.781 2.36-4.536 92.956-5.83 93.543-1.292.588-4.161-1.512-4.161-1.512s4.4-72.126 3.674-93.304Z" fill="url(#c)"/><path d="M31.55 98.362s24.508 3.687 61.752 0a5.268 5.268 0 0 0-1.9-1.223 5.453 5.453 0 0 0-2.262-.332c-2.416.25-30.961 4.111-57.59 1.555Z" fill="#9A002B"/><path d="M28.647 5.221s47.008-9.79 69.067-1.523l-5.353-.435S70.563-.816 28.647 5.221Z" fill="#FF4A2B"/><path d="M78.933 5.21s10.751-.935 10.91 1.6c.159 2.533-2.801 86.07-3.402 88.224-.602 2.153-10.502 1.696-10.502 1.696l2.994-91.52Z" fill="url(#d)"/><path d="M0 6.592c4.003-5.308 67.014-6.82 72.049-3.46 5.035 3.362-.726 89.193-1.134 93.62-.408 4.427-56.898 2.089-61.355 1.61C5.103 97.883 0 6.592 0 6.592Z" fill="url(#e)"/><path d="M72.049 3.133s4.854-1.088 6.804 1.283c1.951 2.371-1.984 93.304-3.402 93.946-1.417.642-4.536-1.61-4.536-1.61s2.551-72.355 1.134-93.62Z" fill="url(#f)"/><path d="M9.594 98.362s26.255 3.687 65.846 0a5.913 5.913 0 0 0-2.087-1.274 6.106 6.106 0 0 0-2.45-.336c-2.506.294-32.843 4.166-61.309 1.61Z" fill="#9A002B"/><path d="M3.686 4.873s49.832-9.855 73.591-1.534l-5.67-.446s-23.42-4.09-67.921 1.98Z" fill="#FF4A2B"/><path d="M78.933 5.21c7.61 1.958 5.035 64.958 3.096 77.826-1.94 12.868-6.147 13.694-6.147 13.694s3.504-50.665 3.05-91.52Z" fill="#E85955" style="mix-blend-mode:multiply" opacity=".5"/><path d="M49.412 97.611C46.498 96.97 67.127 74.835 68.93 74.28c1.803-.555.907 17.653-.42 20.275-1.326 2.621-17.476 3.404-19.098 3.056Z" fill="url(#g)"/><path d="M50.513 4.133C47.269 6.091 66.288 25.8 68.329 26.78c2.042.98 2.064-17.25 2.268-20.981.204-3.731-17.59-3.177-20.084-1.665Z" fill="url(#h)"/><path d="M51.295 7.799s11.341 15.228 14.528 16.86c3.187 1.631 1.973-16.773 2.926-18.97.952-2.197 1.837.109 1.837.109s.919 18.132-1.304 22.385S51.295 7.799 51.295 7.799ZM69.531 75.052c-2.268-1.37-1.485 17.632-2.62 19.71-1.134 2.077-17.01 2.925-17.01 2.925s13.2.61 17.691-.968c4.491-1.577 1.94-21.667 1.94-21.667Z" fill="#CA006D" style="mix-blend-mode:multiply"/><path d="M56.104 88.997c-1.724 5.188 8.165 2.36 9.82.826 1.657-1.533 1.883-13.618 1.328-13.683-.556-.065-10.366 10.475-11.148 12.857ZM51.34 5.297c-2.154 1.458 8.359 7.614 11.727 6.624 3.368-.99 6.26-6.004 5.171-7.179-1.088-1.174-13.722-1.588-16.898.555Z" fill="#fff" style="mix-blend-mode:soft-light"/><path d="M53.892 96.458c-2.393-.37 10.014-4.71 11.772-4.927 1.758-.218.238 6.798-11.772 4.927ZM56.512 11.214c-.454.511 2.96 4.144 6.385 5.559 3.425 1.413 4.786-3.514 4.831-5.591.045-2.078-1.633.37-4.661.74-3.028.37-5.977-1.371-6.555-.708Z" fill="#F35" style="mix-blend-mode:multiply" opacity=".5"/><path d="M77.98 5.21c-2.154-1.99-4.207.566-4.944 1.893-.738 1.327-.851 62.51-.375 66.144.477 3.632 5.308-35.536 6.215-47.142A84.421 84.421 0 0 0 77.98 5.21ZM10.808 3.535s2.7 88.333 5.341 95.512c2.643 7.179-3.311-77.238-5.341-95.512Z" fill="#D42F55" style="mix-blend-mode:multiply" opacity=".8"/><path d="M10.808 3.535a209.702 209.702 0 0 0-1.883 27.4c-.192 16.63 7.224 68.112 7.224 68.112L10.808 3.535Z" fill="#CA006D" style="mix-blend-mode:multiply"/><path d="M0 6.592s1.055 33.425 4.366 60.107c3.255 26.268 10.377 22.602 8.177 1.827-2.245-20.982-4.91-22.614-3.47-42.29 1.36-19.906 1.52-20.21-.08-21.374C7.394 3.698 0 6.592 0 6.592Z" fill="#FFF886" style="mix-blend-mode:soft-light" opacity=".8"/><path d="M1.6 31.315S8.13 93.054 12.94 96.72c4.809 3.666 35.826 3.035 35.826 3.035s-37.425.99-39.138-1.392C4.978 91.999 1.6 31.315 1.6 31.315Z" fill="#D42F55" style="mix-blend-mode:multiply"/><path d="M23.816 68.526c-1.826 3.47 10.91 7.69 14.584 12.857 3.675 5.166 22.932-14.38 26.493-30.054 3.56-15.674-11.817-22.44-15.877-30.89-4.06-8.452-20.165 6.264-25.824 11.355-5.659 5.09-2.733 17.469 1.134 24.05 3.868 6.58 13.292 5.079 17.102 0 3.811-5.08 13.428-7.462 8.654-18.862-4.775-11.399-8.767-3.578-15.209-2.393-6.441 1.186-4.184 12.074-1.429 14.445 2.756 2.371 9.13-1.73 9.073-5.003-.056-3.274-5.886-4.612-5.954-7.245-.068-2.632 6.056-4.48 8.846-2.773 2.79 1.708.318 13.259-9.186 19.285S23.657 38.21 24.508 34.035c.85-4.177 13.915-10.878 21.343-8.104 7.429 2.774 11.863 9.963 8.824 23.8-3.04 13.835-12.17 20.144-21.39 15.684-9.22-4.46-9.469 3.11-9.469 3.11Z" fill="#9A002B"/><path d="M33.626 76.901c-5.591-4.699-5.274-10.55-3.867-11.442 1.406-.892 5.534 4.23 12.475 1.522 6.94-2.708 13.71-5.373 15.321-19.263 1.61-13.89-4.842-19.242-10.116-21.102-5.273-1.86-11.069-2.447-17.703 2.252-6.634 4.699-5.001 20.427-.919 23.766 4.083 3.34 8.62 1.458 9.073 1.85.454.391-3.867 6.363-9.39 3.165-5.523-3.198-7.508-19.35-6.317-23.604 1.19-4.253 12.157-9.789 17.862-12.051 5.704-2.263 8.097-2.97 10.15.445 2.053 3.416 13.19 11.791 14.641 19.732 1.452 7.94-.748 13.052-4.457 20.122-3.708 7.07-10.479 14.51-15.934 18.198-5.455 3.687-6.35.174-10.82-3.59Z" fill="#CC0034"/><path d="M37.493 33.72c-1.202.412-5.285 5.949-4.604 9.94.68 3.993 4.377 6.723 7.292 3.351s1.202-4.906-2.143-7.516c-3.346-2.61-.624-5.504 3.288-6.526 3.913-1.023 5.67 2.392 6.635 5.764.964 3.372-6.918 12.53-8.665 14.565-1.746 2.034 1.134.392 5.297-1.349 2.2-.845 4.047-2.363 5.257-4.317a9.987 9.987 0 0 0 1.434-6.495c-.613-5.166-3.13-9.104-5.84-10.202-2.711-1.099-5.864 2.055-7.95 2.784Z" fill="#CC0034"/><path d="M58.86 64.958S52.6 75.64 44.75 82.057c-7.848 6.418-7.938-2.175-11.136-4.547-3.199-2.37-7.53-5.199-7.53-5.199s8.55 4.72 10.07 6.178c1.52 1.458 1.69 4.351 5.466 3.71 3.777-.642 17.238-17.24 17.238-17.24ZM50.252 46.99c-1.395 3.197-7.576 6.069-9.243 7.613-1.667 1.545-4.968 5.874-9.254 5.613-5.15-.327-7.939-5.439-7.939-5.439a9.007 9.007 0 0 0 2.554 3.476 9.522 9.522 0 0 0 3.933 1.963c5.285 1.272 8.925-1.708 12.112-4.558 3.187-2.85 6.351-5.416 7.837-8.669Z" fill="#FF3634"/><path d="M13.246 5.439c-1.542.456.238 21.754 2.597 25.398 2.36 3.643 15.447-9.246 24.417-12.933 8.971-3.688 9.164.24 12.067 4.699 2.903 4.46 6.714 1.087 7.145-.675.43-1.762-8.994-13.346-10.32-16.62-1.327-3.274-26.731-2.567-35.906.13Z" fill="#FFF886" style="mix-blend-mode:soft-light" opacity=".8"/><path d="M26.016 74.302c-7.031-3.786-8.075 13.988-6.294 19.35 1.78 5.362 23.18 1.719 27.218 0S62.66 81.296 64.95 71.038c2.29-10.257-17.409 11.965-25.472 13.053-8.064 1.088-7.281-6.015-10.366-7.918l-3.096-1.871Z" fill="#D42F55" style="mix-blend-mode:multiply" opacity=".6"/><path d="M60.402 3.035c-3.697.924.6 3.339 2.688 3.491 2.086.153 4.264-1.479 3.039-2.371-1.225-.892-5.727-1.12-5.727-1.12ZM62.715 81.296c-1.678 2.37 4.344 1.011 4.809-2.665.465-3.677-3.21.424-4.809 2.665Z" fill="#fff"/><path d="M61.717 44.922s-3.322 9.79.375 15.566c0 0 33.455 1.664 35.621 1.24 2.167-.425 3.131-13.673.862-15.805-2.268-2.132-23.124-3.067-36.858-1Z" fill="url(#i)"/><path d="M77.277 44.118c-2.642 0-2.268 13.835-1.395 14.977.873 1.142 20.618 1.97 21.831 1.393 1.214-.577 3.301-9.627 1.713-12.77-1.588-3.144-13.473-3.644-22.149-3.6Z" fill="#E85955" style="mix-blend-mode:multiply" opacity=".5"/><path d="M62.092 60.488c-.862-1.719 8.437-.783 20.776-.305 12.34.479 14.846 1.545 14.846 1.545h-.998l-.25 3.535s-4.775.272-5.33.424a26.905 26.905 0 0 0-3.403 3.035l-10.138 1.446.113-6.896s-3.278-.152-6.18-.533c-2.904-.38-9.436-2.251-9.436-2.251Z" fill="#BD0955" style="mix-blend-mode:multiply"/><path d="M75.44 50.97c.454 9.55 16.932.555 20.652-2.175 3.72-2.73-16.535-5.069-18.815-4.634-2.28.435-1.837 6.81-1.837 6.81Z" fill="#E85955" style="mix-blend-mode:multiply" opacity=".5"/><path d="M61.717 46.99c-2.03 1.783 1.724 9.114 3.278 10.398 1.554 1.283 7.848 1.153 9.073 0 1.224-1.153 2.268-12.106 1.054-12.465-1.213-.36-10.66-.327-13.405 2.066Z" fill="#FFC283" style="mix-blend-mode:soft-light"/></g><defs><linearGradient id="b" x1="59.699" y1="99.395" x2="59.699" y2="1.719" gradientUnits="userSpaceOnUse"><stop stop-color="#F4002B"/><stop offset="1" stop-color="#FF1D34"/></linearGradient><linearGradient id="c" x1="89.14" y1="50.861" x2="99.426" y2="50.861" gradientUnits="userSpaceOnUse"><stop stop-color="#AC002B"/><stop offset="1" stop-color="#B30034"/></linearGradient><linearGradient id="d" x1="82.868" y1="96.774" x2="82.868" y2="5.036" gradientUnits="userSpaceOnUse"><stop stop-color="#FFA274"/><stop offset="1" stop-color="#FFC488"/></linearGradient><linearGradient id="e" x1="38.797" y1="98.949" x2="38.797" y2="1.338" gradientUnits="userSpaceOnUse"><stop stop-color="#F4002B"/><stop offset="1" stop-color="#FF1D34"/></linearGradient><linearGradient id="f" x1="69.847" y1="50.448" x2="80.129" y2="50.234" gradientUnits="userSpaceOnUse"><stop stop-color="#AC002B"/><stop offset="1" stop-color="#B30034"/></linearGradient><linearGradient id="g" x1="59.54" y1="97.687" x2="59.54" y2="74.258" gradientUnits="userSpaceOnUse"><stop stop-color="#FF8B00"/><stop offset="1" stop-color="#FFAE00"/></linearGradient><linearGradient id="h" x1="60.368" y1="26.812" x2="60.368" y2="2.969" gradientUnits="userSpaceOnUse"><stop stop-color="#FF8B00"/><stop offset="1" stop-color="#FFAE00"/></linearGradient><linearGradient id="i" x1="60.345" y1="52.787" x2="99.868" y2="52.787" gradientUnits="userSpaceOnUse"><stop stop-color="#FF5911"/><stop offset="1" stop-color="#D83303"/></linearGradient><clipPath id="a"><path fill="#fff" d="M0 0h100v100H0z"/></clipPath></defs></svg>