<svg width="101" height="100" viewBox="0 0 101 100" fill="none" xmlns="http://www.w3.org/2000/svg"><g clip-path="url(#a)"><path d="M72.839 70.736c-.635.836-12.04-5.526-20.113.196-8.074 5.72-12.818 2.197-8.248-3.31 4.57-5.508 22.726-6.745 29.488-.499 4.109 3.782-1.127 3.613-1.127 3.613Z" fill="url(#b)"/><path d="M82.931 72.96c-6.445 3.835-9.518 8.008-7.47 11.79 4.365 7.803 23.085 13.853 24.591 11.246 2.377-3.861-2.47-31.746-17.12-23.036Zm-.768 11.007c-2.941-3.666 1.864-10.126 6.219-7.875 1.947 1.006 5.46 4.92 3.863 7.697a5.614 5.614 0 0 1-2.113 1.826 6.622 6.622 0 0 1-2.869.704 6.674 6.674 0 0 1-2.9-.597 5.711 5.711 0 0 1-2.2-1.747v-.008Z" fill="url(#c)"/><path d="M93.792 97.295h-.79v-.89c0-2.802-.44-11.744-2.755-16.371-2.787-5.526-11.558-6.851-11.558-6.851 1.819-1.153 3.952-1.873 6.19-2.09a14.71 14.71 0 0 1 6.566.853c7.685 2.571 9.222 22.297 8.668 24.103-.389 1.37-4.559 1.335-6.321 1.246Z" fill="url(#d)"/><path d="M95.011 96.432c1.885-4.689-2.777-29.985-16.311-23.294-.328.16-.656.347-1.025.543-3.453 2.082-5.287 4.253-5.83 6.397a.638.638 0 0 0 0 .152c-2.244 9.084 16.936 17.848 21.947 17.065.207-.022.407-.084.584-.18.177-.098.327-.227.44-.38.113-.098.113-.187.195-.303ZM76.906 84.705c-2.94-3.666 1.865-10.117 6.22-7.874 1.946 1.005 5.46 4.929 3.862 7.696a5.613 5.613 0 0 1-2.114 1.825 6.625 6.625 0 0 1-2.87.7 6.673 6.673 0 0 1-2.9-.599 5.71 5.71 0 0 1-2.198-1.748Z" fill="url(#e)"/><path d="M87.572 71.635c-1.731.275 5.41 6.335 6.025 9.894.615 3.559 4.508 3.31 5.246 2.615.738-.694-2.05-7.74-4.55-10.294-2.5-2.554-6.72-2.215-6.72-2.215Z" fill="#FF8390" style="mix-blend-mode:screen" opacity=".3"/><path d="M77.06 78.877c-1.936 4.449.676 4.271 2.613 1.78a29.554 29.554 0 0 1 3.453-3.817s-3.146-1.967-6.066 2.037Z" fill="#D42F55" style="mix-blend-mode:multiply" opacity=".8"/><path d="M93.792 97.295c-5.031.783-24.19-8.008-21.978-17.065-.164.89-.563 5.525 7.347 10.801 6.209 4.129 10.952 5.134 13.821 5.339.681.054 1.366.072 2.05.053h.563c1.752-.062 4.549-.41 4.549-.41-.42 1.407-4.59 1.371-6.352 1.282Z" fill="#D42F55" style="mix-blend-mode:multiply" opacity=".8"/><path d="M75.564 75.576c-2.715 2.927-2.807 3.675-1.619 4.787 1.189 1.112 2.654-5.588 8.853-4.013 6.199 1.575 5.983 6.736 3.832 10.063-2.152 3.328 5.533 9.556 7.613 9.565 2.08.01 1.219-11.744-3.013-18.23C87 71.26 80.288 70.486 75.564 75.575Z" fill="#D42F55" style="mix-blend-mode:multiply" opacity=".8"/><path d="M83.659 71.937s4.825.454 7.233 3.64c2.408 3.184 3.791 11.041 3.791 11.041S92.706 73.85 83.658 71.937Z" fill="#FF7A7A"/><path d="M84.53 77.845s-2.367 5.49-7.531 3.862c-1.954-.706-3.584-1.954-4.633-3.55-1.05-1.595-1.46-3.448-1.166-5.268.273-1.402 1.047-2.694 2.213-3.692 2.96-2.545 6.424-1.184 8.627.213.804.527 1.549 1.12 2.223 1.77 0 0-5.195 1.46-6.26 2.608-1.066 1.148.061 2.838 2.264 2.367 2.203-.472 4.262 1.69 4.262 1.69Z" fill="url(#f)"/><path d="M63.863 64.445c7.5 1.62 6.466 3.56 4.314 4.12s-3.904-.757-8.566 0c-4.661.756-1.26-5.312 4.252-4.12ZM84.53 77.845s-2.367 5.49-7.531 3.862c-1.954-.706-3.584-1.954-4.633-3.55-1.05-1.595-1.46-3.448-1.166-5.268.47 3.977 2.305 2.127 5.655-2.118 1.68-2.073 3.607-1.993 5.205-1.37.798.53 1.536 1.127 2.203 1.78 0 0-5.195 1.459-6.26 2.607-1.066 1.148.061 2.838 2.264 2.367 2.203-.472 4.262 1.69 4.262 1.69Z" fill="#B32A55" style="mix-blend-mode:multiply" opacity=".8"/><path d="M72.275 15.847c-.594 4.288-3.535 12.091-6.496 20.74-.799 2.349-1.598 4.751-2.356 7.171a229.38 229.38 0 0 0-2.05 6.87s0 .07-.05.204c-.052.133 0 .16-.062.24a87.393 87.393 0 0 0-.943 3.897c0 .25-.112.49-.153.703-.113.498-.205.979-.297 1.46a.857.857 0 0 0 0 .16 26.933 26.933 0 0 0-.318 1.78.596.596 0 0 0 0 .133 50.656 50.656 0 0 0-.318 2.313c-.082.756-.164 1.655-.164 2.34a87.703 87.703 0 0 0-.143 6.433v1.228c.051 1.69.154 3.256.287 4.733v.196c.082 1.068.205 2.073.328 3.016a87.128 87.128 0 0 0 2.48 11.567c0 1.006-3.013 9.467-16.292 8.898h-.276a34.598 34.598 0 0 1-6.2-.89c-10.092-2.322-17.417-8.301-17.51-9.591 0-.659.8-3.008 1.558-6.505a45.646 45.646 0 0 0 1.024-13.55 38.714 38.714 0 0 0-.235-2.11 35.955 35.955 0 0 0-1.404-6.157c-.666-2.117-1.578-4.573-2.664-7.242a68.152 68.152 0 0 0-.676-1.646c-.236-.552-.482-1.157-.738-1.78C11.876 34.95 1.18 14.868 1.18 14.868 9.253-1.592 30.154 1.61 30.154 1.61l1.25 3.364.533 1.477c13.002-2.5 25.328-1.326 32.859 1.37-.026.21-.026.422 0 .632 0 .24 0 .49.082.756a1.786 1.786 0 0 0 0 .231 21.72 21.72 0 0 0 1.024 3.381c.656.614 1.63.17 2.52-.516l.308-.258c.502-.436.968-.903 1.394-1.397 1.042.754 1.782 1.776 2.11 2.919 0 .133 0 .276.062.436.058.613.05 1.23-.02 1.842Z" fill="url(#g)"/><path d="M20.995 20.544c0 .178.502 2.287 1.454 3.035-9.016-1.335-16.731-3.755-20.163-7.26C-6.414 7.455 22.756 0 22.756 0l7.398 1.61S7.244 4.342 4.765 11.896c-1.178 3.56 6.148 6.602 16.27 8.64l-.04.008Z" fill="#FFC59F"/><path d="M30.38 18.338C9.816 17.235 4.765 8.55 31.322 4.992c2.726-.374 5.8-.694 9.222-.944 11.977-.89 20.246.508 25.348 2.901-.727-.16-1.024.24-1.117.89-.026.21-.026.422 0 .631-4.508-2.375-12.428-3.772-24.539-2.669-18.75 1.584-26.547 5.437-21.352 7.848.076.044.16.08.246.107h.072c.183.08.371.15.563.213a35.67 35.67 0 0 0 8.392 1.415h.44c1.762.133 3.73.222 5.922.258 2.963.09 5.93-.02 8.873-.33 6.998-.836 6.148-2.891 6.148-2.891l7.735 1.005c-.205.41-4.836 6.086-26.895 4.912Z" fill="#FFC59F"/><path d="M72.275 15.847c-.696 3.256-4.21 6.228-9.918 7.518-7.684 1.78-20.492 2.189-32.53 1.103.317-1.2.573-2.313.604-2.438 7.625.955 15.34 1.253 23.033.89H54.304a61.983 61.983 0 0 0 4.436-.445 20.215 20.215 0 0 0 3.925-.89l.174-.062c2.236-.71 4.163-2.006 5.512-3.71a5.483 5.483 0 0 0 1.117-3.052.07.07 0 0 0 0-.044.573.573 0 0 0 0-.134 4.569 4.569 0 0 0-.38-1.842 3.39 3.39 0 0 0-.296-.65c.502-.436.967-.902 1.393-1.396.226-.25.349-.418.349-.418.897.968 1.502 2.114 1.762 3.336 0 .134 0 .276.061.436.077.6.05 1.206-.082 1.798Z" fill="#FFC59F"/><path d="M64.191 54.907c-1.215 1.703-2.781 3.196-4.62 4.404-8.371 5.57-21.517 5.802-30.318 3.969a27.136 27.136 0 0 1-6.547-2.11 8.374 8.374 0 0 1-1.988-1.334c-1.209-1.033-2.051-2.345-2.428-3.781a4.088 4.088 0 0 1 .044-1.978c.177-.649.511-1.258.98-1.786.649 1.536 1.781 2.884 3.269 3.888 3.135 2.136 8.606 3.328 17.992 1.566C54.919 55.076 62.09 46.401 62.53 45.013l.103-.32.143-.436.103-.258c.83-2.252 2.684-6.78 2.91-7.34 0 0 4.098 10.16-1.599 18.248Z" fill="url(#h)"/><path d="M69.478 14.503a.583.583 0 0 1 0 .133.07.07 0 0 1 0 .045 4.998 4.998 0 0 1-.39 1.628.591.591 0 0 0 0 .098c-1.823 4.057-8.38 5.606-12.397 6.175a42.35 42.35 0 0 1-2.346.267h-.84l.102-.258 3.75-9.129-7.766-1.005s.061-.125 0-.187c-.062-.063-.133-.054-.359.08a.738.738 0 0 0-.235.142c-.154.107-.339.24-.574.427-.349.276-.8.668-1.363 1.184a7.532 7.532 0 0 1-3.637 1.219 68.36 68.36 0 0 1-14.795.07h-.44a42.619 42.619 0 0 1-8.392-1.414 6.307 6.307 0 0 1-.564-.213h-.072l-.245-.107C14.816 11.61 23.259 7.82 37.357 6.7c2.797-.214 5.595-.33 8.29-.33h.235c1.854 0 3.77.063 5.666.196.379 0 .748 0 1.117.08h.41c4.084.243 8.088 1.101 11.834 2.536a1.786 1.786 0 0 0 0 .232c.247 1.147.59 2.277 1.024 3.38.656.615 1.63.17 2.52-.515l.308-.258c.148.19.266.396.348.614.294.588.42 1.229.37 1.868Z" fill="#C60055" style="mix-blend-mode:multiply" opacity=".3"/><path d="M14.14 17.653c-1.034-1.713-1.363-3.681-.932-5.579.778-2.954 8.053-5.472 13.073-6.29 5.02-.82 3.269-5.09-2.889-3.035C17.234 4.805 3.422 7.741 5.79 14.921c.85 2.536 8.35 2.732 8.35 2.732Z" fill="#C60055" style="mix-blend-mode:multiply" opacity=".3"/><path d="M9.775 21.63c-4.795 2.029 9.98 28.16 13.32 33.588 3.34 5.428 19.949.579 30.86-5.774 10.913-6.353 13.515-23.57 13.31-25.652-.205-2.082-18.443 5.205-33.811 4.396-15.37-.81-22.818-6.914-23.679-6.558Z" fill="#EF7A98" style="mix-blend-mode:multiply" opacity=".2"/><path d="M35.052 94.412c-1.588-5.917-2.592-14.414 0-16.834s9.488 1.38 16.393-1.04c6.906-2.421 10.185 11.263 9.98 14.556-.205 3.292-13.627 13.177-26.373 3.318Z" fill="#FF8390" style="mix-blend-mode:screen" opacity=".3"/><path d="M69.12 16.176a1.19 1.19 0 0 1 0 .133.593.593 0 0 0 0 .098c-.17.463-.4.908-.687 1.326-1.287 1.754-3.235 3.065-5.512 3.71l-.174.063a25.71 25.71 0 0 1-5.974 1.076 29.047 29.047 0 0 1-3.074.062l3.75-9.129s-5.717-1.503-7.725-1.192c-.123.013-.244.04-.359.08a.739.739 0 0 0-.235.143c-.17.163-.363.306-.574.427-1.66.996-5.635 2.206-7.336.765-1.967-1.664-6.588-7.296 4.55-7.385h.235c1.854 0 3.77.062 5.666.196.379 0 .748 0 1.117.08h.41c4.538.418 8.842 1.263 11.874 2.767a21.72 21.72 0 0 0 1.025 3.38c.656.615 1.63.17 2.52-.515.712 1.208.89 2.6.502 3.915ZM4.632 13c.195 2.393 2.244 3.105 6.783 4.448 3.186.89 2.889 1.495 2.889 1.495s-2.971-4.671-.789-7.527c2.182-2.857-1.977-3.809-4.15-3.408-3.831.738-4.733 4.991-4.733 4.991Z" fill="#C60055" style="mix-blend-mode:multiply" opacity=".3"/><path d="M20.995 20.536s8.012 5.098 8.514 5.071c0 0-.533 1.993-.84 1.887-.308-.107-5.779-3.39-6.578-3.889-.8-.498-1.096-3.07-1.096-3.07Z" fill="#C60055" style="mix-blend-mode:multiply" opacity=".7"/><path d="M17.85 22.902c4.6.677 9.425 4.245 10.624 5.57 1.199 1.326 1.352-4.004 1.352-4.004l.123-.453s-.481 2.9-1.28 3.016c-.8.116-6.578-3.426-6.578-3.426l-4.242-.703Z" fill="#C60055" style="mix-blend-mode:multiply" opacity=".3"/><path d="M30.667 33.357c.184-3.345 5.05-3.06 5.85-1.557.8 1.504-.86 4.733-3.33 5.25-2.47.516-2.612-2.065-2.52-3.693Z" fill="#C60055" style="mix-blend-mode:multiply" opacity=".2"/><path d="M30.902 32.334c.574 4.395.37-.063 2.777-1.015 2.408-.951 3.074 1.709 3.002 1.842-.072.134.727-2.598-2.695-2.438-3.422.16-3.084 1.61-3.084 1.61Z" fill="#C60055" style="mix-blend-mode:multiply" opacity=".3"/><path d="M27.122 85.773c.112-2.047 3.073-1.878 3.586-.952.512.925-.533 2.9-2.05 3.22-1.516.321-1.588-1.263-1.536-2.268Z" fill="#C60055" style="mix-blend-mode:multiply" opacity=".2"/><path d="M27.306 85.15c.348 2.67.225 0 1.7-.623 1.476-.623 1.855 1.041 1.845 1.13.062-.201.064-.412.004-.614a1.177 1.177 0 0 0-.344-.537 1.442 1.442 0 0 0-.603-.321 1.597 1.597 0 0 0-.707-.023c-2.14.098-1.895.988-1.895.988Z" fill="#C60055" style="mix-blend-mode:multiply" opacity=".3"/><path d="M26.947 43.856c2.408-2.544-.666-11.05-7.448-10.597-6.783.454-3.463 9.005 0 11.024 3.463 2.02 6.127.952 7.448-.427Z" fill="#C60055" style="mix-blend-mode:multiply" opacity=".2"/><path d="M15.738 38.26c.328 1.414.267-3.355 3.474-4.52 3.207-1.166 4.58 2.518 7.008 4.52s-.523-5.837-6.721-5.019c-5.359.721-3.76 5.019-3.76 5.019Z" fill="#C60055" style="mix-blend-mode:multiply" opacity=".3"/><path d="M39.376 25.056s17.336.605 19.467.738c2.131.134 3.996 2.82 6.783.89 2.787-1.93 5.358-5.766 5.287-6.842-.072-1.077-3.484 3.559-10.37 4.448-6.885.89-21.167.766-21.167.766Z" fill="#EF7A98" style="mix-blend-mode:multiply" opacity=".2"/><path d="M39.232 99.093C29.14 96.77 21.814 90.79 21.722 89.5c.461.694 9.324 7.18 17.51 9.591ZM62.009 91.058c0 1.005-3.012 9.467-16.291 8.897h-.277a8.57 8.57 0 0 0 1.086-.115c3.354-.572 6.418-2.04 8.764-4.198 2.346-2.159 3.857-4.9 4.32-7.84a40.636 40.636 0 0 0-.082-8.338 87.11 87.11 0 0 0 2.48 11.594Z" fill="#C60055" style="mix-blend-mode:multiply" opacity=".7"/><path d="M65.913 6.931c.87-.231.717 6.175.717 6.175s-.646.614-1.537-1.317a6.235 6.235 0 0 1-.256-4.226c.266-.988 1.076-.632 1.076-.632Z" fill="#DB6345"/><path d="M66.63 13.106c.922-.24 3.914-2.91 3.914-2.91a7.395 7.395 0 0 1-1.445 2.465 4.41 4.41 0 0 1-2.47.445Z" fill="#FFDBB1"/><path d="M15.554 43.812s-.779-16.15-2.357-19.094c-1.577-2.946-10.82-7.564-10.82-7.564l13.177 26.658ZM21.722 89.5s5.123-10.365 6.045-13.248c.922-2.882-3.617-8.444-3.617-8.444s1.793 8.035-2.428 21.693ZM64.785 8.453C63.69 7.474 55.8 6.05 54.417 6.362c-1.384.311 2.612 5.4 2.9 7.118.286 1.717-3.69 9.378-3.69 9.378s10.523-.267 13.73-3.986c3.207-3.72 1.742-6.229 1.742-6.229s-2.141.659-3.176.16c-1.035-.498-1.138-4.35-1.138-4.35Z" fill="#C60055" style="mix-blend-mode:multiply" opacity=".3"/><path d="M64.191 54.907a24.571 24.571 0 0 1-.512 5.57 4.36 4.36 0 0 1-1.619.418 7.326 7.326 0 0 0-2.807.73c-.185.089.246-1.718.072-1.61-2.132 1.316-3.156 3.487-7.326 5.338-3.566 1.566-12.295 2.02-18.136 1.112-3.77-.587-6.629-.89-6.741.133-.297 2.599 6.69 7.448 15.625 8.008 8.934.56 16.055-4.315 16.055-4.315v.062l.082.997v.142c-.164.463-3.555 8.835-13.453 6.228-8.904-2.33-17.572-7.74-21.199-8.274a38.714 38.714 0 0 0-.235-2.109 22.15 22.15 0 0 1-4.713-5.054 7.36 7.36 0 0 1-1.247-3.023c-.176-1.07-.1-2.16.222-3.205a4.088 4.088 0 0 1 .045-1.978c.176-.649.51-1.258.98-1.786-.236-.578-.482-1.156-.738-1.78l-1.301-2.98 5.307 8.613a3.512 3.512 0 0 0 0 1.05c.154 1.37 1.107 3.772 5.553 5.205 1.542.48 3.145.797 4.775.943 9.6 1.032 21.065-1.059 26.803-5.072a9.875 9.875 0 0 0 2.787-2.776c.532-.885.968-1.811 1.301-2.767 1.752-4.858 1.404-10.446-.4-8.897-.37.35-.674.75-.901 1.183l.102-.32.144-.436.102-.258c.83-2.252 2.685-6.78 2.91-7.34 0 0 4.16 10.16-1.537 18.248Z" fill="#D42F55" style="mix-blend-mode:multiply" opacity=".8"/><path d="M29.867 62.15c-.799 1.13 14.345 1.78 23.566-2.856C62.654 54.657 65.267 48.047 64.5 45.43c-.769-2.616-5.492 8.96-13.627 11.647-8.136 2.687-20.37 4.173-21.005 5.072ZM35.226 70.086c-3.596 1.06 7.05 4.45 13.832 3.115 6.783-1.335 10.502-2.866 11.773-7.555 1.27-4.689-3.29 4.36-13.033 5.793-9.744 1.432-11.096-1.789-12.572-1.353Z" fill="#FF6D42" style="mix-blend-mode:screen" opacity=".2"/><path d="M19.284 52.273s4.18 8.07 20.563 5.339C56.23 54.88 64.56 39.594 64.56 39.594a24.777 24.777 0 0 1-2.05 5.401c-1.024 1.61-6.556 10.962-22.397 13.169-15.84 2.206-18.268-1.3-19.815-2.768a3.395 3.395 0 0 1-.952-1.452 3.036 3.036 0 0 1-.063-1.67Z" fill="#D42F55" style="mix-blend-mode:multiply" opacity=".5"/><path d="M18.29 56.055s-.892 5.214 10.891 7.251c0 0-6.045 2.207-8.33 1.024-2.285-1.184-2.561-8.275-2.561-8.275Z" fill="#D42F55" style="mix-blend-mode:multiply" opacity=".8"/><path d="M42.675 25.056c-2.152-.89 16.158-1.69 20.891-3.435 4.734-1.744 4.099-4.6 6.148-4.449 2.049.152-2.264 5.846-9.221 7.118-6.958 1.273-17.818.766-17.818.766ZM28.597 15.455c-5.615.516 3.996 3.63 10.953 2.972 6.957-.659 11.322-.703 13.37-2.972 2.05-2.269-2.479-1.326-10.245 0a40.638 40.638 0 0 1-14.078 0ZM13.638 18.685c-6.588-.285.973 3.23 2.746 3.737 1.773.507 4.457 1.121 4.908.943.45-.178-.297-2.856-.297-2.856l-7.357-1.824Z" fill="#FFDEC8"/></g><defs><linearGradient id="b" x1="55.611" y1="77.657" x2="61.256" y2="61.614" gradientUnits="userSpaceOnUse"><stop stop-color="#A71100"/><stop offset="1" stop-color="#B32203"/></linearGradient><linearGradient id="c" x1="76.972" y1="77.233" x2="102.296" y2="92.329" gradientUnits="userSpaceOnUse"><stop stop-color="#F4002B"/><stop offset="1" stop-color="#FF4234"/></linearGradient><linearGradient id="d" x1="76.163" y1="77.35" x2="102.066" y2="92.792" gradientUnits="userSpaceOnUse"><stop stop-color="#F4002B"/><stop offset="1" stop-color="#FF4234"/></linearGradient><linearGradient id="e" x1="72.709" y1="78.112" x2="97.234" y2="92.732" gradientUnits="userSpaceOnUse"><stop stop-color="#B6002B"/><stop offset="1" stop-color="#CC0034"/></linearGradient><linearGradient id="f" x1="71.087" y1="74.891" x2="84.529" y2="74.891" gradientUnits="userSpaceOnUse"><stop stop-color="#A71100"/><stop offset="1" stop-color="#B32203"/></linearGradient><linearGradient id="g" x1="36.783" y1="100" x2="36.783" y2="1.361" gradientUnits="userSpaceOnUse"><stop stop-color="#FFA274"/><stop offset="1" stop-color="#E47745"/></linearGradient><linearGradient id="h" x1="18.187" y1="50.458" x2="67.204" y2="50.458" gradientUnits="userSpaceOnUse"><stop stop-color="#A71100"/><stop offset="1" stop-color="#B32203"/></linearGradient><clipPath id="a"><path fill="#fff" d="M.667 0h100v100h-100z"/></clipPath></defs></svg>