<svg width="89" height="68" viewBox="0 0 89 68" fill="none" xmlns="http://www.w3.org/2000/svg"><g clip-path="url(#a)"><path d="M81.35 60.93c-.57 2.5-1.06 4.08-1.42 4.35-2.34 1.77-67.4 4.45-71.39-1.7-.65-1-3.16-3.92-3.92-6.86-.14-.54-.28-1.08-.41-1.61v-.07C-2.82 26.63.73 5.58 2.3 4.89 13.46.04 85.62-.77 88.1 2.73c1.98 2.99-3.58 44.47-6.75 58.2Z" fill="url(#b)"/><path d="M88.11 2.74c-.46-4.49-5.85 16.36-7.54 32.6-1.22 11.75-1.42 28.17-1 29.06.42.89 10.48-42.37 8.54-61.66Z" fill="#C60055" style="mix-blend-mode:multiply" opacity=".4"/><path d="M81.35 60.93c-.57 2.5-1.06 4.08-1.42 4.35-2.34 1.77-67.4 4.45-71.39-1.7-.65-1-3.69-5.45-4.32-8.42 3.29 7.14 15 12.6 42.69 11.62 27.69-.98 32.37-1.99 34.44-5.85Z" fill="#C60055" style="mix-blend-mode:multiply" opacity=".4"/><path d="M2.3 4.89c-.45 2.53 19.31 28.47 32.58 35C48.15 46.42 80.57 6.91 88.11 2.74c0 0 .26.27.24 2.07-.02 1.8-30.19 24.31-35.78 30.53-5.59 6.22 22.94 28.61 27.36 29.94 0 0-1.06.64-1.7.44-.64-.2-23.06-16.73-28.9-28.22 0 0-6.24 5.46-9.94 5.65-3.7.19-7.79-4.77-8.7-5.16 0 0-18 16.52-20.1 26.41 0 0 0 .79-1-.9s19.67-25.38 19.67-25.77c0-.39-20.71-20.15-26.96-32.84Z" fill="#C60055" style="mix-blend-mode:multiply" opacity=".4"/><path d="M32.75 38.68s4.78 6.56 7 6.56c4.18 0 9.16-1 22.48-12.9C86.17 11.08 87.07 3.42 87.07 3.42s-8 7.79-20.73 19.43-22.54 16.6-25.27 17.48c-2.73.88-8.32-1.65-8.32-1.65Z" fill="#C60055" style="mix-blend-mode:multiply" opacity=".4"/><path d="M88.1 2.73c-.37-.13-9.44-3.55-31.94 0C33.19 6.38 6.57 1.37 3.45 5.78.33 10.19 1.5 15.07 1.11 25.12c-.37 9.59 2.79 28.25 3.09 30C-2.82 26.63.73 5.58 2.3 4.89 13.46.04 85.62-.77 88.1 2.73Z" fill="#C60055" style="mix-blend-mode:multiply" opacity=".3"/><path d="M5.68 5.98c-1.59.82 7.79 11.68 16.4 21.84s23.57 9.23 33.31 2.76c9.74-6.47 28.36-25.11 27.46-27.16-.9-2.05-23.18.16-41.2 1.09-18.02.93-33.39.14-35.97 1.47Z" fill="#FFB64A" style="mix-blend-mode:screen" opacity=".3"/><path d="M10.59 64.4c-.91-2.17 10.65-15.82 30.9-15.45C61.74 49.32 76 65.76 76 65.76S34 69.7 10.59 64.4Z" fill="#EB5694" style="mix-blend-mode:multiply" opacity=".2"/><path d="M64.78 54.22a83.81 83.81 0 0 0 8.3 7.7c3.75 2.85 5.15 3.8 5.15 3.8s1.58.64 2.17-1.31c.59-1.95-6.23-1.83-15.62-10.19Z" fill="#C60055" style="mix-blend-mode:multiply" opacity=".4"/><path d="M50.63 39.75c-1.28-.72 3.9 9 11.47 15.12A95.231 95.231 0 0 0 76 64.41S65.91 54.22 50.63 39.75ZM11.15 62.49s11.92-16.83 19.54-24.5c0 0-14.99 9.71-19.54 24.5Z" fill="#FFD8A7"/><path d="M80.72 34c-1.25 16.76 4.49.78 6.26-8.88 1.77-9.66.2-20.66.09-21.7-.11-1.04-5.29 16.46-6.35 30.58Z" fill="#C60055" style="mix-blend-mode:multiply" opacity=".4"/><path d="M12.5 35.19a1.62 1.62 0 0 1 2.88-.89 2.61 2.61 0 0 1-1.64 3c-1.21.28-1.28-1.19-1.24-2.11ZM68.27 8.95a1.61 1.61 0 0 1 2.87-.89 2.6 2.6 0 0 1-1.63 3c-1.21.28-1.29-1.19-1.24-2.11ZM11.62 33.66c1.43-1.72-.36-7.47-4.36-7.16-4 .31-2 6.08 0 7.45s3.59.63 4.36-.29Z" fill="#C60055" style="mix-blend-mode:multiply" opacity=".2"/><path d="M39.46 40.5c-1.94-.25 23.77-14.92 23.77-14.92S48.47 38.8 39.46 40.5Z" fill="#FFC59F"/><path d="M2.3 4.89s2.06 7.1 9.46 16.69c7.4 9.59 21 17.15 21 17.15S10.56 20.97 2.3 4.89Z" fill="#C60055" style="mix-blend-mode:multiply" opacity=".4"/><path d="M32.55 22.46c-6.17 2.42-8.55 6.66-9.45 14.3-.9 7.64 16.12 17.52 23.95 10.91 7.83-6.61 7.46-16.75 5.19-22.26-2.27-5.51-16.43-4.23-19.69-2.95Z" fill="url(#c)"/><path d="M42.298 44.602c5.209-2.174 7.67-8.159 5.496-13.368-2.174-5.209-8.159-7.67-13.368-5.496-5.209 2.174-7.67 8.159-5.496 13.367 2.174 5.21 8.159 7.67 13.368 5.497Z" fill="#D40055" style="mix-blend-mode:multiply" opacity=".8"/><path d="M39.67 44.28c4.855 0 8.79-4.079 8.79-9.11s-3.935-9.11-8.79-9.11c-4.855 0-8.79 4.079-8.79 9.11s3.935 9.11 8.79 9.11Z" fill="#F20041"/><path d="M23.79 40.22a22.61 22.61 0 0 0 14.57 8c9.47 1.12 13.29-6.18 14.36-12.14 1.07-5.96-1.79-12.39-1.79-12.39a6.57 6.57 0 0 1 2 2.36c.32 1.09 1.19 13.28 1.49 16.63.3 3.35-4.9 8.3-13.89 8.9-8.99.6-14.93-7.85-16.74-11.36Z" fill="#C90055" style="mix-blend-mode:multiply" opacity=".8"/><path d="M28.23 33.91c.49 5.29-.62 3.45 3.68-3s14.8-.89 15.74 0c.94.89-3.19-7.33-10.65-5.96-7.46 1.37-8.77 8.96-8.77 8.96Z" fill="#A10055" style="mix-blend-mode:multiply" opacity=".5"/><path d="M23.79 39.03a4.33 4.33 0 0 0 5.31 3.24c.82-.3-2.77-5.69-.45-11.84 2.32-6.15 7.94-8.19 14.76-5.48 6.82 2.71 6.85-.13 6.22-1.25-.63-1.12-13.06-4.48-19.64 0s-6.63 13.35-6.2 15.33ZM41.84 48.25c-1.84-1.67 5.32-5.73 7.72-10.61 2.4-4.88 2 1.26.58 5.3s-8.3 5.31-8.3 5.31Z" fill="#FFB64A" style="mix-blend-mode:screen" opacity=".3"/><path d="M40.21 21.95c-2 .47 1.94 3.25 4.94 2.8 3-.45-.74-3.79-4.94-2.8ZM42 47.77c-.92-.21 2-2.63 2.76-2.36.76.27-.58 2.87-2.76 2.36Z" fill="#fff"/><path d="M57.92 42.69c.32 3.41 14.94 18.29 18.94 19.27 4 .98.92-26.58.73-34.14-.19-7.56-20.06 10.76-19.67 14.87Z" fill="#EB5694" style="mix-blend-mode:multiply" opacity=".2"/><path d="M62.1 54.87c-4.72-2.33 2.33 5.4 5.65 8.34A9.901 9.901 0 0 0 76 65.35c.71-.19-8.64-5.3-13.9-10.48Z" fill="#DC6A94" style="mix-blend-mode:multiply" opacity=".2"/><path d="M4.94 7.46c3.31 5.12 11.36-.06 21.49-1.68C36.56 4.16 11.23 3.06 7.6 4.16c-3.63 1.1-2.66 3.3-2.66 3.3Z" fill="#FFD8A7"/></g><defs><linearGradient id="b" x1="44.26" y1="67.42" x2="44.26" y2=".58" gradientUnits="userSpaceOnUse"><stop stop-color="#FFA274"/><stop offset="1" stop-color="#FFC488"/></linearGradient><linearGradient id="c" x1="38.36" y1="49.84" x2="38.36" y2="21.35" gradientUnits="userSpaceOnUse"><stop stop-color="#DE0086"/><stop offset="1" stop-color="#FF003B"/></linearGradient><clipPath id="a"><path fill="#fff" d="M0 .58h88.52v66.84H0z"/></clipPath></defs></svg>