<svg width="18" height="17" viewBox="0 0 18 17" fill="none" xmlns="http://www.w3.org/2000/svg"><path d="M8.11.731a1 1 0 0 1 1.78 0l1.888 3.677a1 1 0 0 0 .73.53l4.081.66a1 1 0 0 1 .55 1.693l-2.913 2.933a1 1 0 0 0-.28.857l.634 4.086a1 1 0 0 1-1.44 1.045l-3.689-1.864a1 1 0 0 0-.902 0l-3.69 1.864a1 1 0 0 1-1.439-1.045l.633-4.085a1 1 0 0 0-.279-.858L.861 7.29a1 1 0 0 1 .55-1.692l4.08-.66a1 1 0 0 0 .73-.53L8.111.73Z" fill="url(#a)"/><defs><radialGradient id="a" cx="0" cy="0" r="1" gradientUnits="userSpaceOnUse" gradientTransform="matrix(10 0 0 42.6223 9 9)"><stop stop-color="#FFD79C"/><stop offset="1" stop-color="#FFAD3C"/></radialGradient></defs></svg>