<svg width="30" height="30" viewBox="0 0 30 30" fill="none" xmlns="http://www.w3.org/2000/svg">
<path d="M11.4023 26.375L0.871094 15.875C0.746094 15.75 0.65776 15.6146 0.606094 15.4688C0.553594 15.3229 0.527344 15.1667 0.527344 15C0.527344 14.8333 0.553594 14.6771 0.606094 14.5312C0.65776 14.3854 0.746094 14.25 0.871094 14.125L11.4023 3.59375C11.694 3.30208 12.0586 3.15625 12.4961 3.15625C12.9336 3.15625 13.3086 3.3125 13.6211 3.625C13.9336 3.9375 14.0898 4.30208 14.0898 4.71875C14.0898 5.13542 13.9336 5.5 13.6211 5.8125L4.43359 15L13.6211 24.1875C13.9128 24.4792 14.0586 24.8383 14.0586 25.265C14.0586 25.6925 13.9023 26.0625 13.5898 26.375C13.2773 26.6875 12.9128 26.8438 12.4961 26.8438C12.0794 26.8438 11.7148 26.6875 11.4023 26.375Z" fill="white"/>
</svg>
