<svg width="30" height="30" viewBox="0 0 30 30" fill="none" xmlns="http://www.w3.org/2000/svg">
<path d="M18.5977 3.625L29.1289 14.125C29.2539 14.25 29.3422 14.3854 29.3939 14.5312C29.4464 14.6771 29.4727 14.8333 29.4727 15C29.4727 15.1667 29.4464 15.3229 29.3939 15.4687C29.3422 15.6146 29.2539 15.75 29.1289 15.875L18.5977 26.4062C18.306 26.6979 17.9414 26.8437 17.5039 26.8437C17.0664 26.8437 16.6914 26.6875 16.3789 26.375C16.0664 26.0625 15.9102 25.6979 15.9102 25.2812C15.9102 24.8646 16.0664 24.5 16.3789 24.1875L25.5664 15L16.3789 5.8125C16.0872 5.52083 15.9414 5.16167 15.9414 4.735C15.9414 4.3075 16.0977 3.9375 16.4102 3.625C16.7227 3.3125 17.0872 3.15625 17.5039 3.15625C17.9206 3.15625 18.2852 3.3125 18.5977 3.625Z" fill="white"/>
</svg>
