<svg width="27" height="25" viewBox="0 0 27 25" fill="none" xmlns="http://www.w3.org/2000/svg">
<path d="M21.2432 23.636C21.4556 24.4858 20.8182 24.6983 20.1809 24.4858L14.4445 21.5114C13.8071 21.0865 12.5324 21.0865 11.895 21.5114L6.15862 24.2734C5.52125 24.6983 4.88387 24.2734 5.09633 23.4235L6.15862 17.0498C6.37108 16.1999 5.94616 15.1377 5.30878 14.7127L0.847163 10.0387C0.209788 9.40128 0.42224 8.97636 1.27207 8.76391L7.64582 7.70161C8.49565 7.48916 9.34549 6.85178 9.7704 6.2144L12.7448 0.478031C13.1697 -0.159344 13.5947 -0.159344 14.0196 0.478031L16.994 6.2144C17.4189 6.85178 18.2687 7.48916 19.1186 7.70161L25.4923 8.76391C26.3422 8.97636 26.3422 9.40128 25.9172 10.0387L21.4556 14.7127C20.8182 15.3501 20.6058 16.4124 20.6058 17.0498L21.2432 23.636Z" fill="#E0DC28"/>
<path opacity="0.5" d="M13.386 0.478139C13.5984 0.478139 13.5984 0.690597 13.8109 0.903055L16.7853 6.63943C17.2102 7.48926 18.2725 8.12664 19.1224 8.3391L25.4961 9.40139C25.7086 9.40139 25.921 9.61384 25.921 9.61384C25.921 9.8263 25.921 9.8263 25.7086 10.0388L21.0345 14.7128C20.3971 15.3502 19.9722 16.4125 20.1846 17.4748L21.0345 23.8485C21.0345 24.061 21.0345 24.2735 21.0345 24.2735C21.0345 24.2735 21.0345 24.2735 20.822 24.2735C20.822 24.2735 20.6096 24.2735 20.3971 24.2735L14.6607 21.299C14.2358 21.0866 13.8109 21.0866 13.1735 21.0866C12.7486 21.0866 12.1112 21.0866 11.6863 21.299L5.94994 24.061C5.73748 24.061 5.73748 24.061 5.52502 24.061C5.31256 24.061 5.31257 24.061 5.31257 24.061C5.31257 24.061 5.31257 23.8486 5.31257 23.6361L6.37486 17.2623C6.58732 16.4125 6.1624 15.1378 5.52502 14.5004L1.0634 9.8263C0.850943 9.61385 0.850946 9.40139 0.850946 9.40139C0.850946 9.18893 1.0634 9.18893 1.27586 9.18893L7.6496 8.12664C8.49944 7.91418 9.56173 7.2768 9.98665 6.42697L12.9611 0.690596C12.9611 0.478138 13.1735 0.478139 13.386 0.478139ZM13.386 0.0532227C13.1735 0.0532227 12.9611 0.265681 12.7486 0.478139L9.56173 6.42697C9.13682 7.06435 8.28698 7.70172 7.43715 7.91418L1.0634 8.97647C0.213568 9.18893 0.213566 9.61384 0.638483 10.2512L5.31257 14.7128C5.94994 15.3502 6.1624 16.4125 6.1624 17.0499L5.10011 23.4236C5.10011 24.061 5.31257 24.2735 5.73748 24.2735C5.94994 24.2735 5.94994 24.2735 6.1624 24.061L11.8988 21.299C12.3237 21.0866 12.7486 21.0866 13.1735 21.0866C13.5984 21.0866 14.0234 21.0866 14.4483 21.299L20.1846 24.2735C20.3971 24.2735 20.6096 24.4859 20.6096 24.4859C21.0345 24.4859 21.2469 24.061 21.2469 23.6361L20.3971 17.2623C20.1846 16.4125 20.6096 15.3502 21.2469 14.9253L25.7086 10.2512C26.3459 9.61384 26.1335 9.18893 25.2836 8.97647L18.9099 7.91418C18.0601 7.70172 17.2102 7.06435 16.7853 6.42697L13.8109 0.690596C13.8109 0.265679 13.5984 0.0532227 13.386 0.0532227Z" fill="url(#paint0_radial_1937_317)"/>
<defs>
<radialGradient id="paint0_radial_1937_317" cx="0" cy="0" r="1" gradientUnits="userSpaceOnUse" gradientTransform="translate(2.76498 31.5279) scale(38.7658 38.7658)">
<stop offset="0.3548" stop-color="#FFC200"/>
<stop offset="0.5084" stop-color="#FFBD07"/>
<stop offset="0.7249" stop-color="#FFAF19"/>
<stop offset="0.9777" stop-color="#FF9737"/>
<stop offset="1" stop-color="#FF953A"/>
</radialGradient>
</defs>
</svg>
