<svg width="36" height="36" viewBox="0 0 36 36" fill="none" xmlns="http://www.w3.org/2000/svg">
<path d="M11.3882 24.1293V14.3563H9.12881V11.8518H14.5057V24.1293H11.3882ZM19.147 17.5614C18.1137 16.9835 17.4481 16.0027 17.4481 14.9343C17.4481 12.9727 19.1645 11.7292 21.8267 11.7292C24.5239 11.7292 26.2228 13.0077 26.2228 15.0219C26.2228 16.0902 25.6449 17.036 24.6816 17.5614C26.0302 18.1219 26.8709 19.2954 26.8709 20.6615C26.8709 22.8683 24.9093 24.2695 21.8442 24.2695C18.7792 24.2695 16.8176 22.8858 16.8176 20.714C16.8176 19.3129 17.7284 18.1219 19.147 17.5614ZM20.0753 15.197C20.0753 16.0727 20.7058 16.5631 21.8442 16.5631C22.9827 16.5631 23.6132 16.0727 23.6132 15.197C23.6132 14.2863 22.9827 13.7783 21.8442 13.7783C20.7058 13.7783 20.0753 14.2863 20.0753 15.197ZM19.76 20.3988C19.76 21.4321 20.4956 22.0101 21.8442 22.0101C23.1929 22.0101 23.946 21.4496 23.946 20.3988C23.946 19.3829 23.1929 18.805 21.8442 18.805C20.4956 18.805 19.76 19.3829 19.76 20.3988ZM35.4474 13.5638C35.3982 13.3711 35.223 13.2376 35.0238 13.2376H32.6561C32.3627 13.2376 32.1547 13.52 32.2379 13.8024C32.6353 15.1521 32.8378 16.5522 32.84 17.9763C32.852 25.9859 26.4243 32.6129 18.418 32.834C9.89507 33.0693 2.9134 26.0778 3.16626 17.5505C3.4038 9.553 10.0297 3.14274 18.0316 3.15916C19.4524 3.16244 20.8503 3.36495 22.1967 3.76121C22.478 3.84441 22.7616 3.63642 22.7616 3.34306V0.975332C22.7616 0.776106 22.628 0.600962 22.4354 0.551703C20.9926 0.18609 19.5072 0 17.9998 0C8.02869 0 -0.0760865 8.15075 0.000538894 18.1405C0.0760696 27.9311 8.06919 35.9242 17.8586 35.9986C27.8473 36.0752 35.998 27.9716 35.998 17.9993C35.9991 16.492 35.8131 15.0065 35.4474 13.5638ZM25.6865 7.31006H28.6792V10.3236C28.6792 10.5655 28.8752 10.7615 29.1171 10.7615H30.7229C30.9649 10.7615 31.1608 10.5655 31.1608 10.3236V7.31006H34.1744C34.4163 7.31006 34.6122 7.11412 34.6122 6.8722V5.26635C34.6122 5.02444 34.4163 4.82849 34.1744 4.82849H31.1608V1.81493C31.1608 1.57301 30.9649 1.37707 30.7229 1.37707H29.1171C28.8752 1.37707 28.6792 1.57301 28.6792 1.81493V4.82849H25.6865C25.4445 4.82849 25.2486 5.02444 25.2486 5.26635V6.8722C25.2486 7.11412 25.4445 7.31006 25.6865 7.31006Z" fill="white"/>
</svg>
