<svg width="1920" height="1501" viewBox="0 0 1920 1501" fill="none" xmlns="http://www.w3.org/2000/svg">
<path opacity="0.4" d="M1982 39.7374V37.0927H1949.14V0.860352H1946.76V37.0927H1881.75V0.860352H1879.37V37.0927H1814.36V0.860352H1811.98V37.0927H1746.97V0.860352H1744.59V37.0927H1679.58V0.860352H1677.2V37.0927H1612.19V0.860352H1609.81V37.0927H1544.81V0.860352H1542.42V37.0927H1477.42V0.860352H1475.04V37.0927H1410.03V0.860352H1407.65V37.0927H1342.64V0.860352H1340.26V37.0927H1275.25V0.860352H1272.87V37.0927H1207.86V0.860352H1205.48V37.0927H1140.47V0.860352H1138.09V37.0927H1073.08V0.860352H1070.7V37.0927H1005.69V0.860352H1003.31V37.0927H938.306V0.860352H935.925V37.0927H870.917V0.860352H868.536V37.0927H803.528V0.860352H801.147V37.0927H736.139V0.860352H733.758V37.0927H668.75V0.860352H666.369V37.0927H601.361V0.860352H598.98V37.0927H533.973V0.860352H531.591V37.0927H466.584V0.860352H464.202V37.0927H399.195V0.860352H396.814V37.0927H331.806V0.860352H329.425V37.0927H264.417V0.860352H262.036V37.0927H194.647V0.860352H192.266V37.0927H127.258V0.860352H124.877V37.0927H59.6311V0.860352H57.2499V37.0927H-7.75776V0.860352H-10.139V37.0927H-43V39.7374H-10.139V111.938H-43V114.582H-10.139V186.783H-43V189.427H-10.139V261.627H-43V264.272H-10.139V336.472H-43V339.117H-10.139V411.317H-43V413.962H-10.139V486.162H-43V488.807H-10.139V561.007H-43V563.652H-10.139V635.852H-43V638.497H-10.139V710.697H-43V713.342H-10.139V785.542H-43V788.187H-10.139V860.387H-43V863.032H-10.139V935.232H-43V937.876H-10.139V1010.08H-43V1012.72H-10.139V1084.92H-43V1087.57H-10.139V1159.77H-43V1162.41H-10.139V1234.61H-43V1237.26H-10.139V1309.46H-43V1312.1H-10.139V1384.3H-43V1386.95H-10.139V1459.15H-43V1461.79H-10.139V1498.02H-7.75776V1461.79H57.2499V1498.02H59.6311V1461.79H124.639V1498.02H127.02V1461.79H192.028V1498.02H194.409V1461.79H259.417V1498.02H261.798V1461.79H326.805V1498.02H329.187V1461.79H394.194V1498.02H396.576V1461.79H461.583V1498.02H463.964V1461.79H528.972V1498.02H531.353V1461.79H596.361V1498.02H598.742V1461.79H663.75V1498.02H666.131V1461.79H731.139V1498.02H733.52V1461.79H798.527V1498.02H800.909V1461.79H865.916V1498.02H868.298V1461.79H933.305V1498.02H935.686V1461.79H1000.69V1498.02H1003.08V1461.79H1068.08V1498.02H1070.46V1461.79H1135.47V1498.02H1137.85V1461.79H1202.86V1498.02H1205.24V1461.79H1270.25V1498.02H1272.63V1461.79H1337.64V1498.02H1340.02V1461.79H1405.03V1498.02H1407.41V1461.79H1472.42V1498.02H1474.8V1461.79H1539.81V1498.02H1542.19V1461.79H1607.19V1498.02H1609.58V1461.79H1674.58V1498.02H1676.96V1461.79H1741.97V1498.02H1744.35V1461.79H1809.36V1498.02H1811.74V1461.79H1876.75V1498.02H1879.13V1461.79H1944.14V1498.02H1946.52V1461.79H1979.38V1459.15H1946.52V1386.95H1979.38V1384.3H1946.52V1312.1H1979.38V1309.46H1946.52V1237.26H1979.38V1234.61H1946.52V1162.41H1979.38V1159.77H1946.52V1087.57H1979.38V1084.92H1946.52V1012.72H1979.38V1010.08H1946.52V937.876H1979.38V935.232H1946.52V863.032H1979.38V860.387H1946.52V788.187H1979.38V785.542H1946.52V713.342H1979.38V710.697H1946.52V638.497H1979.38V635.852H1946.52V563.652H1979.38V561.007H1946.52V488.807H1979.38V486.162H1946.52V413.962H1979.38V411.317H1946.52V339.117H1979.38V336.472H1946.52V264.801H1979.38V262.156H1946.52V189.692H1979.38V187.047H1946.52V114.847H1979.38V112.202H1946.52V39.7374H1982ZM57.2499 1461.26H-7.75776V1389.06H57.2499V1461.26ZM57.2499 1386.15H-7.75776V1313.95H57.2499V1386.15ZM57.2499 1311.31H-7.75776V1239.11H57.2499V1311.31ZM57.2499 1236.46H-7.75776V1164.26H57.2499V1236.46ZM57.2499 1161.35H-7.75776V1089.15H57.2499V1161.35ZM57.2499 1086.51H-7.75776V1014.31H57.2499V1086.51ZM57.2499 1011.66H-7.75776V939.463H57.2499V1011.66ZM57.2499 936.554H-7.75776V864.354H57.2499V936.554ZM57.2499 861.709H-7.75776V789.509H57.2499V861.709ZM57.2499 786.6H-7.75776V714.4H57.2499V786.6ZM57.2499 711.755H-7.75776V639.555H57.2499V711.755ZM57.2499 636.91H-7.75776V564.71H57.2499V636.91ZM57.2499 561.801H-7.75776V489.6H57.2499V561.801ZM57.2499 486.956H-7.75776V414.755H57.2499V486.956ZM57.2499 411.846H-7.75776V339.646H57.2499V411.846ZM57.2499 337.001H-7.75776V264.801H57.2499V337.001ZM57.2499 262.156H-7.75776V189.692H57.2499V262.156ZM57.2499 187.047H-7.75776V114.847H57.2499V187.047ZM57.2499 112.202H-7.75776V39.7374H57.2499V112.202ZM124.877 1461.26H59.6311V1389.06H124.639V1461.26H124.877ZM124.877 1386.15H59.6311V1313.95H124.639V1386.15H124.877ZM124.877 1311.31H59.6311V1239.11H124.639V1311.31H124.877ZM124.877 1236.46H59.6311V1164.26H124.639V1236.46H124.877ZM124.877 1161.35H59.6311V1089.15H124.639V1161.35H124.877ZM124.877 1086.51H59.6311V1014.31H124.639V1086.51H124.877ZM124.877 1011.66H59.6311V939.463H124.639V1011.66H124.877ZM124.877 936.554H59.6311V864.354H124.639V936.554H124.877ZM124.877 861.709H59.6311V789.509H124.639V861.709H124.877ZM124.877 786.6H59.6311V714.4H124.639V786.6H124.877ZM124.877 711.755H59.6311V639.555H124.639V711.755H124.877ZM124.877 636.91H59.6311V564.71H124.639V636.91H124.877ZM124.877 561.801H59.6311V489.6H124.639V561.801H124.877ZM124.877 486.956H59.6311V414.755H124.639V486.956H124.877ZM124.877 411.846H59.6311V339.646H124.639V411.846H124.877ZM124.877 337.001H59.6311V264.801H124.639V337.001H124.877ZM124.877 262.156H59.6311V189.692H124.639V262.156H124.877ZM124.877 187.047H59.6311V114.847H124.639V187.047H124.877ZM124.877 112.202H59.6311V39.7374H124.639V112.202H124.877ZM192.266 1461.26H127.258V1389.06H192.266V1461.26ZM192.266 1386.15H127.258V1313.95H192.266V1386.15ZM192.266 1311.31H127.258V1239.11H192.266V1311.31ZM192.266 1236.46H127.258V1164.26H192.266V1236.46ZM192.266 1161.35H127.258V1089.15H192.266V1161.35ZM192.266 1086.51H127.258V1014.31H192.266V1086.51ZM192.266 1011.66H127.258V939.463H192.266V1011.66ZM192.266 936.554H127.258V864.354H192.266V936.554ZM192.266 861.709H127.258V789.509H192.266V861.709ZM192.266 786.6H127.258V714.4H192.266V786.6ZM192.266 711.755H127.258V639.555H192.266V711.755ZM192.266 636.91H127.258V564.71H192.266V636.91ZM192.266 561.801H127.258V489.6H192.266V561.801ZM192.266 486.956H127.258V414.755H192.266V486.956ZM192.266 411.846H127.258V339.646H192.266V411.846ZM192.266 337.001H127.258V264.801H192.266V337.001ZM192.266 262.156H127.258V189.692H192.266V262.156ZM192.266 187.047H127.258V114.847H192.266V187.047ZM192.266 112.202H127.258V39.7374H192.266V112.202ZM259.655 1461.26H194.647V1389.06H259.655V1461.26ZM259.655 1386.15H194.647V1313.95H259.655V1386.15ZM259.655 1311.31H194.647V1239.11H259.655V1311.31ZM259.655 1236.46H194.647V1164.26H259.655V1236.46ZM259.655 1161.35H194.647V1089.15H259.655V1161.35ZM259.655 1086.51H194.647V1014.31H259.655V1086.51ZM259.655 1011.66H194.647V939.463H259.655V1011.66ZM259.655 936.554H194.647V864.354H259.655V936.554ZM259.655 861.709H194.647V789.509H259.655V861.709ZM259.655 786.6H194.647V714.4H259.655V786.6ZM259.655 711.755H194.647V639.555H259.655V711.755ZM259.655 636.91H194.647V564.71H259.655V636.91ZM259.655 561.801H194.647V489.6H259.655V561.801ZM259.655 486.956H194.647V414.755H259.655V486.956ZM259.655 411.846H194.647V339.646H259.655V411.846ZM259.655 337.001H194.647V264.801H259.655V337.001ZM259.655 262.156H194.647V189.692H259.655V262.156ZM259.655 187.047H194.647V114.847H259.655V187.047ZM259.655 112.202H194.647V39.7374H259.655V112.202ZM327.282 1461.26H262.274V1389.06H327.282V1461.26ZM327.282 1386.15H262.274V1313.95H327.282V1386.15ZM327.282 1311.31H262.274V1239.11H327.282V1311.31ZM327.282 1236.46H262.274V1164.26H327.282V1236.46ZM327.282 1161.35H262.274V1089.15H327.282V1161.35ZM327.282 1086.51H262.274V1014.31H327.282V1086.51ZM327.282 1011.66H262.274V939.463H327.282V1011.66ZM327.282 936.554H262.274V864.354H327.282V936.554ZM327.282 861.709H262.274V789.509H327.282V861.709ZM327.282 786.6H262.274V714.4H327.282V786.6ZM327.282 711.755H262.274V639.555H327.282V711.755ZM327.282 636.91H262.274V564.71H327.282V636.91ZM327.282 561.801H262.274V489.6H327.282V561.801ZM327.282 486.956H262.274V414.755H327.282V486.956ZM327.282 411.846H262.274V339.646H327.282V411.846ZM327.282 337.001H262.274V264.801H327.282V337.001ZM327.282 262.156H262.274V189.692H327.282V262.156ZM327.282 187.047H262.274V114.847H327.282V187.047ZM327.282 112.202H262.274V39.7374H327.282V112.202ZM394.671 1461.26H329.663V1389.06H394.671V1461.26ZM394.671 1386.15H329.663V1313.95H394.671V1386.15ZM394.671 1311.31H329.663V1239.11H394.671V1311.31ZM394.671 1236.46H329.663V1164.26H394.671V1236.46ZM394.671 1161.35H329.663V1089.15H394.671V1161.35ZM394.671 1086.51H329.663V1014.31H394.671V1086.51ZM394.671 1011.66H329.663V939.463H394.671V1011.66ZM394.671 936.554H329.663V864.354H394.671V936.554ZM394.671 861.709H329.663V789.509H394.671V861.709ZM394.671 786.6H329.663V714.4H394.671V786.6ZM394.671 711.755H329.663V639.555H394.671V711.755ZM394.671 636.91H329.663V564.71H394.671V636.91ZM394.671 561.801H329.663V489.6H394.671V561.801ZM394.671 486.956H329.663V414.755H394.671V486.956ZM394.671 411.846H329.663V339.646H394.671V411.846ZM394.671 337.001H329.663V264.801H394.671V337.001ZM394.671 262.156H329.663V189.692H394.671V262.156ZM394.671 187.047H329.663V114.847H394.671V187.047ZM394.671 112.202H329.663V39.7374H394.671V112.202ZM462.298 1461.26H397.29V1389.06H462.298V1461.26ZM462.298 1386.15H397.29V1313.95H462.298V1386.15ZM462.298 1311.31H397.29V1239.11H462.298V1311.31ZM462.298 1236.46H397.29V1164.26H462.298V1236.46ZM462.298 1161.35H397.29V1089.15H462.298V1161.35ZM462.298 1086.51H397.29V1014.31H462.298V1086.51ZM462.298 1011.66H397.29V939.463H462.298V1011.66ZM462.298 936.554H397.29V864.354H462.298V936.554ZM462.298 861.709H397.29V789.509H462.298V861.709ZM462.298 786.6H397.29V714.4H462.298V786.6ZM462.298 711.755H397.29V639.555H462.298V711.755ZM462.298 636.91H397.29V564.71H462.298V636.91ZM462.298 561.801H397.29V489.6H462.298V561.801ZM462.298 486.956H397.29V414.755H462.298V486.956ZM462.298 411.846H397.29V339.646H462.298V411.846ZM462.298 337.001H397.29V264.801H462.298V337.001ZM462.298 262.156H397.29V189.692H462.298V262.156ZM462.298 187.047H397.29V114.847H462.298V187.047ZM462.298 112.202H397.29V39.7374H462.298V112.202ZM529.686 1461.26H464.679V1389.06H529.686V1461.26ZM529.686 1386.15H464.679V1313.95H529.686V1386.15ZM529.686 1311.31H464.679V1239.11H529.686V1311.31ZM529.686 1236.46H464.679V1164.26H529.686V1236.46ZM529.686 1161.35H464.679V1089.15H529.686V1161.35ZM529.686 1086.51H464.679V1014.31H529.686V1086.51ZM529.686 1011.66H464.679V939.463H529.686V1011.66ZM529.686 936.554H464.679V864.354H529.686V936.554ZM529.686 861.709H464.679V789.509H529.686V861.709ZM529.686 786.6H464.679V714.4H529.686V786.6ZM529.686 711.755H464.679V639.555H529.686V711.755ZM529.686 636.91H464.679V564.71H529.686V636.91ZM529.686 561.801H464.679V489.6H529.686V561.801ZM529.686 486.956H464.679V414.755H529.686V486.956ZM529.686 411.846H464.679V339.646H529.686V411.846ZM529.686 337.001H464.679V264.801H529.686V337.001ZM529.686 262.156H464.679V189.692H529.686V262.156ZM529.686 187.047H464.679V114.847H529.686V187.047ZM529.686 112.202H464.679V39.7374H529.686V112.202ZM597.075 1461.26H532.068V1389.06H597.075V1461.26ZM597.075 1386.15H532.068V1313.95H597.075V1386.15ZM597.075 1311.31H532.068V1239.11H597.075V1311.31ZM597.075 1236.46H532.068V1164.26H597.075V1236.46ZM597.075 1161.35H532.068V1089.15H597.075V1161.35ZM597.075 1086.51H532.068V1014.31H597.075V1086.51ZM597.075 1011.66H532.068V939.463H597.075V1011.66ZM597.075 936.554H532.068V864.354H597.075V936.554ZM597.075 861.709H532.068V789.509H597.075V861.709ZM597.075 786.6H532.068V714.4H597.075V786.6ZM597.075 711.755H532.068V639.555H597.075V711.755ZM597.075 636.91H532.068V564.71H597.075V636.91ZM597.075 561.801H532.068V489.6H597.075V561.801ZM597.075 486.956H532.068V414.755H597.075V486.956ZM597.075 411.846H532.068V339.646H597.075V411.846ZM597.075 337.001H532.068V264.801H597.075V337.001ZM597.075 262.156H532.068V189.692H597.075V262.156ZM597.075 187.047H532.068V114.847H597.075V187.047ZM597.075 112.202H532.068V39.7374H597.075V112.202ZM664.702 1461.26H599.695V1389.06H664.702V1461.26ZM664.702 1386.15H599.695V1313.95H664.702V1386.15ZM664.702 1311.31H599.695V1239.11H664.702V1311.31ZM664.702 1236.46H599.695V1164.26H664.702V1236.46ZM664.702 1161.35H599.695V1089.15H664.702V1161.35ZM664.702 1086.51H599.695V1014.31H664.702V1086.51ZM664.702 1011.66H599.695V939.463H664.702V1011.66ZM664.702 936.554H599.695V864.354H664.702V936.554ZM664.702 861.709H599.695V789.509H664.702V861.709ZM664.702 786.6H599.695V714.4H664.702V786.6ZM664.702 711.755H599.695V639.555H664.702V711.755ZM664.702 636.91H599.695V564.71H664.702V636.91ZM664.702 561.801H599.695V489.6H664.702V561.801ZM664.702 486.956H599.695V414.755H664.702V486.956ZM664.702 411.846H599.695V339.646H664.702V411.846ZM664.702 337.001H599.695V264.801H664.702V337.001ZM664.702 262.156H599.695V189.692H664.702V262.156ZM664.702 187.047H599.695V114.847H664.702V187.047ZM664.702 112.202H599.695V39.7374H664.702V112.202ZM732.091 1461.26H667.084V1389.06H732.091V1461.26ZM732.091 1386.15H667.084V1313.95H732.091V1386.15ZM732.091 1311.31H667.084V1239.11H732.091V1311.31ZM732.091 1236.46H667.084V1164.26H732.091V1236.46ZM732.091 1161.35H667.084V1089.15H732.091V1161.35ZM732.091 1086.51H667.084V1014.31H732.091V1086.51ZM732.091 1011.66H667.084V939.463H732.091V1011.66ZM732.091 936.554H667.084V864.354H732.091V936.554ZM732.091 861.709H667.084V789.509H732.091V861.709ZM732.091 786.6H667.084V714.4H732.091V786.6ZM732.091 711.755H667.084V639.555H732.091V711.755ZM732.091 636.91H667.084V564.71H732.091V636.91ZM732.091 561.801H667.084V489.6H732.091V561.801ZM732.091 486.956H667.084V414.755H732.091V486.956ZM732.091 411.846H667.084V339.646H732.091V411.846ZM732.091 337.001H667.084V264.801H732.091V337.001ZM732.091 262.156H667.084V189.692H732.091V262.156ZM732.091 187.047H667.084V114.847H732.091V187.047ZM732.091 112.202H667.084V39.7374H732.091V112.202ZM799.48 1461.26H734.472V1389.06H799.48V1461.26ZM799.48 1386.15H734.472V1313.95H799.48V1386.15ZM799.48 1311.31H734.472V1239.11H799.48V1311.31ZM799.48 1236.46H734.472V1164.26H799.48V1236.46ZM799.48 1161.35H734.472V1089.15H799.48V1161.35ZM799.48 1086.51H734.472V1014.31H799.48V1086.51ZM799.48 1011.66H734.472V939.463H799.48V1011.66ZM799.48 936.554H734.472V864.354H799.48V936.554ZM799.48 861.709H734.472V789.509H799.48V861.709ZM799.48 786.6H734.472V714.4H799.48V786.6ZM799.48 711.755H734.472V639.555H799.48V711.755ZM799.48 636.91H734.472V564.71H799.48V636.91ZM799.48 561.801H734.472V489.6H799.48V561.801ZM799.48 486.956H734.472V414.755H799.48V486.956ZM799.48 411.846H734.472V339.646H799.48V411.846ZM799.48 337.001H734.472V264.801H799.48V337.001ZM799.48 262.156H734.472V189.692H799.48V262.156ZM799.48 187.047H734.472V114.847H799.48V187.047ZM799.48 112.202H734.472V39.7374H799.48V112.202ZM867.107 1461.26H802.099V1389.06H867.107V1461.26ZM867.107 1386.15H802.099V1313.95H867.107V1386.15ZM867.107 1311.31H802.099V1239.11H867.107V1311.31ZM867.107 1236.46H802.099V1164.26H867.107V1236.46ZM867.107 1161.35H802.099V1089.15H867.107V1161.35ZM867.107 1086.51H802.099V1014.31H867.107V1086.51ZM867.107 1011.66H802.099V939.463H867.107V1011.66ZM867.107 936.554H802.099V864.354H867.107V936.554ZM867.107 861.709H802.099V789.509H867.107V861.709ZM867.107 786.6H802.099V714.4H867.107V786.6ZM867.107 711.755H802.099V639.555H867.107V711.755ZM867.107 636.91H802.099V564.71H867.107V636.91ZM867.107 561.801H802.099V489.6H867.107V561.801ZM867.107 486.956H802.099V414.755H867.107V486.956ZM867.107 411.846H802.099V339.646H867.107V411.846ZM867.107 337.001H802.099V264.801H867.107V337.001ZM867.107 262.156H802.099V189.692H867.107V262.156ZM867.107 187.047H802.099V114.847H867.107V187.047ZM867.107 112.202H802.099V39.7374H867.107V112.202ZM934.496 1461.26H869.488V1389.06H934.496V1461.26ZM934.496 1386.15H869.488V1313.95H934.496V1386.15ZM934.496 1311.31H869.488V1239.11H934.496V1311.31ZM934.496 1236.46H869.488V1164.26H934.496V1236.46ZM934.496 1161.35H869.488V1089.15H934.496V1161.35ZM934.496 1086.51H869.488V1014.31H934.496V1086.51ZM934.496 1011.66H869.488V939.463H934.496V1011.66ZM934.496 936.554H869.488V864.354H934.496V936.554ZM934.496 861.709H869.488V789.509H934.496V861.709ZM934.496 786.6H869.488V714.4H934.496V786.6ZM934.496 711.755H869.488V639.555H934.496V711.755ZM934.496 636.91H869.488V564.71H934.496V636.91ZM934.496 561.801H869.488V489.6H934.496V561.801ZM934.496 486.956H869.488V414.755H934.496V486.956ZM934.496 411.846H869.488V339.646H934.496V411.846ZM934.496 337.001H869.488V264.801H934.496V337.001ZM934.496 262.156H869.488V189.692H934.496V262.156ZM934.496 187.047H869.488V114.847H934.496V187.047ZM934.496 112.202H869.488V39.7374H934.496V112.202ZM1002.12 1461.26H937.115V1389.06H1002.12V1461.26ZM1002.12 1386.15H937.115V1313.95H1002.12V1386.15ZM1002.12 1311.31H937.115V1239.11H1002.12V1311.31ZM1002.12 1236.46H937.115V1164.26H1002.12V1236.46ZM1002.12 1161.35H937.115V1089.15H1002.12V1161.35ZM1002.12 1086.51H937.115V1014.31H1002.12V1086.51ZM1002.12 1011.66H937.115V939.463H1002.12V1011.66ZM1002.12 936.554H937.115V864.354H1002.12V936.554ZM1002.12 861.709H937.115V789.509H1002.12V861.709ZM1002.12 786.6H937.115V714.4H1002.12V786.6ZM1002.12 711.755H937.115V639.555H1002.12V711.755ZM1002.12 636.91H937.115V564.71H1002.12V636.91ZM1002.12 561.801H937.115V489.6H1002.12V561.801ZM1002.12 486.956H937.115V414.755H1002.12V486.956ZM1002.12 411.846H937.115V339.646H1002.12V411.846ZM1002.12 337.001H937.115V264.801H1002.12V337.001ZM1002.12 262.156H937.115V189.692H1002.12V262.156ZM1002.12 187.047H937.115V114.847H1002.12V187.047ZM1002.12 112.202H937.115V39.7374H1002.12V112.202ZM1069.51 1461.26H1004.5V1389.06H1069.51V1461.26ZM1069.51 1386.15H1004.5V1313.95H1069.51V1386.15ZM1069.51 1311.31H1004.5V1239.11H1069.51V1311.31ZM1069.51 1236.46H1004.5V1164.26H1069.51V1236.46ZM1069.51 1161.35H1004.5V1089.15H1069.51V1161.35ZM1069.51 1086.51H1004.5V1014.31H1069.51V1086.51ZM1069.51 1011.66H1004.5V939.463H1069.51V1011.66ZM1069.51 936.554H1004.5V864.354H1069.51V936.554ZM1069.51 861.709H1004.5V789.509H1069.51V861.709ZM1069.51 786.6H1004.5V714.4H1069.51V786.6ZM1069.51 711.755H1004.5V639.555H1069.51V711.755ZM1069.51 636.91H1004.5V564.71H1069.51V636.91ZM1069.51 561.801H1004.5V489.6H1069.51V561.801ZM1069.51 486.956H1004.5V414.755H1069.51V486.956ZM1069.51 411.846H1004.5V339.646H1069.51V411.846ZM1069.51 337.001H1004.5V264.801H1069.51V337.001ZM1069.51 262.156H1004.5V189.692H1069.51V262.156ZM1069.51 187.047H1004.5V114.847H1069.51V187.047ZM1069.51 112.202H1004.5V39.7374H1069.51V112.202ZM1136.9 1461.26H1071.89V1389.06H1136.9V1461.26ZM1136.9 1386.15H1071.89V1313.95H1136.9V1386.15ZM1136.9 1311.31H1071.89V1239.11H1136.9V1311.31ZM1136.9 1236.46H1071.89V1164.26H1136.9V1236.46ZM1136.9 1161.35H1071.89V1089.15H1136.9V1161.35ZM1136.9 1086.51H1071.89V1014.31H1136.9V1086.51ZM1136.9 1011.66H1071.89V939.463H1136.9V1011.66ZM1136.9 936.554H1071.89V864.354H1136.9V936.554ZM1136.9 861.709H1071.89V789.509H1136.9V861.709ZM1136.9 786.6H1071.89V714.4H1136.9V786.6ZM1136.9 711.755H1071.89V639.555H1136.9V711.755ZM1136.9 636.91H1071.89V564.71H1136.9V636.91ZM1136.9 561.801H1071.89V489.6H1136.9V561.801ZM1136.9 486.956H1071.89V414.755H1136.9V486.956ZM1136.9 411.846H1071.89V339.646H1136.9V411.846ZM1136.9 337.001H1071.89V264.801H1136.9V337.001ZM1136.9 262.156H1071.89V189.692H1136.9V262.156ZM1136.9 187.047H1071.89V114.847H1136.9V187.047ZM1136.9 112.202H1071.89V39.7374H1136.9V112.202ZM1204.53 1461.26H1139.52V1389.06H1204.53V1461.26ZM1204.53 1386.15H1139.52V1313.95H1204.53V1386.15ZM1204.53 1311.31H1139.52V1239.11H1204.53V1311.31ZM1204.53 1236.46H1139.52V1164.26H1204.53V1236.46ZM1204.53 1161.35H1139.52V1089.15H1204.53V1161.35ZM1204.53 1086.51H1139.52V1014.31H1204.53V1086.51ZM1204.53 1011.66H1139.52V939.463H1204.53V1011.66ZM1204.53 936.554H1139.52V864.354H1204.53V936.554ZM1204.53 861.709H1139.52V789.509H1204.53V861.709ZM1204.53 786.6H1139.52V714.4H1204.53V786.6ZM1204.53 711.755H1139.52V639.555H1204.53V711.755ZM1204.53 636.91H1139.52V564.71H1204.53V636.91ZM1204.53 561.801H1139.52V489.6H1204.53V561.801ZM1204.53 486.956H1139.52V414.755H1204.53V486.956ZM1204.53 411.846H1139.52V339.646H1204.53V411.846ZM1204.53 337.001H1139.52V264.801H1204.53V337.001ZM1204.53 262.156H1139.52V189.692H1204.53V262.156ZM1204.53 187.047H1139.52V114.847H1204.53V187.047ZM1204.53 112.202H1139.52V39.7374H1204.53V112.202ZM1271.92 1461.26H1206.91V1389.06H1271.92V1461.26ZM1271.92 1386.15H1206.91V1313.95H1271.92V1386.15ZM1271.92 1311.31H1206.91V1239.11H1271.92V1311.31ZM1271.92 1236.46H1206.91V1164.26H1271.92V1236.46ZM1271.92 1161.35H1206.91V1089.15H1271.92V1161.35ZM1271.92 1086.51H1206.91V1014.31H1271.92V1086.51ZM1271.92 1011.66H1206.91V939.463H1271.92V1011.66ZM1271.92 936.554H1206.91V864.354H1271.92V936.554ZM1271.92 861.709H1206.91V789.509H1271.92V861.709ZM1271.92 786.6H1206.91V714.4H1271.92V786.6ZM1271.92 711.755H1206.91V639.555H1271.92V711.755ZM1271.92 636.91H1206.91V564.71H1271.92V636.91ZM1271.92 561.801H1206.91V489.6H1271.92V561.801ZM1271.92 486.956H1206.91V414.755H1271.92V486.956ZM1271.92 411.846H1206.91V339.646H1271.92V411.846ZM1271.92 337.001H1206.91V264.801H1271.92V337.001ZM1271.92 262.156H1206.91V189.692H1271.92V262.156ZM1271.92 187.047H1206.91V114.847H1271.92V187.047ZM1271.92 112.202H1206.91V39.7374H1271.92V112.202ZM1339.54 1461.26H1274.54V1389.06H1339.54V1461.26ZM1339.54 1386.15H1274.54V1313.95H1339.54V1386.15ZM1339.54 1311.31H1274.54V1239.11H1339.54V1311.31ZM1339.54 1236.46H1274.54V1164.26H1339.54V1236.46ZM1339.54 1161.35H1274.54V1089.15H1339.54V1161.35ZM1339.54 1086.51H1274.54V1014.31H1339.54V1086.51ZM1339.54 1011.66H1274.54V939.463H1339.54V1011.66ZM1339.54 936.554H1274.54V864.354H1339.54V936.554ZM1339.54 861.709H1274.54V789.509H1339.54V861.709ZM1339.54 786.6H1274.54V714.4H1339.54V786.6ZM1339.54 711.755H1274.54V639.555H1339.54V711.755ZM1339.54 636.91H1274.54V564.71H1339.54V636.91ZM1339.54 561.801H1274.54V489.6H1339.54V561.801ZM1339.54 486.956H1274.54V414.755H1339.54V486.956ZM1339.54 411.846H1274.54V339.646H1339.54V411.846ZM1339.54 337.001H1274.54V264.801H1339.54V337.001ZM1339.54 262.156H1274.54V189.692H1339.54V262.156ZM1339.54 187.047H1274.54V114.847H1339.54V187.047ZM1339.54 112.202H1274.54V39.7374H1339.54V112.202ZM1406.93 1461.26H1341.92V1389.06H1406.93V1461.26ZM1406.93 1386.15H1341.92V1313.95H1406.93V1386.15ZM1406.93 1311.31H1341.92V1239.11H1406.93V1311.31ZM1406.93 1236.46H1341.92V1164.26H1406.93V1236.46ZM1406.93 1161.35H1341.92V1089.15H1406.93V1161.35ZM1406.93 1086.51H1341.92V1014.31H1406.93V1086.51ZM1406.93 1011.66H1341.92V939.463H1406.93V1011.66ZM1406.93 936.554H1341.92V864.354H1406.93V936.554ZM1406.93 861.709H1341.92V789.509H1406.93V861.709ZM1406.93 786.6H1341.92V714.4H1406.93V786.6ZM1406.93 711.755H1341.92V639.555H1406.93V711.755ZM1406.93 636.91H1341.92V564.71H1406.93V636.91ZM1406.93 561.801H1341.92V489.6H1406.93V561.801ZM1406.93 486.956H1341.92V414.755H1406.93V486.956ZM1406.93 411.846H1341.92V339.646H1406.93V411.846ZM1406.93 337.001H1341.92V264.801H1406.93V337.001ZM1406.93 262.156H1341.92V189.692H1406.93V262.156ZM1406.93 187.047H1341.92V114.847H1406.93V187.047ZM1406.93 112.202H1341.92V39.7374H1406.93V112.202ZM1474.32 1461.26H1409.31V1389.06H1474.32V1461.26ZM1474.32 1386.15H1409.31V1313.95H1474.32V1386.15ZM1474.32 1311.31H1409.31V1239.11H1474.32V1311.31ZM1474.32 1236.46H1409.31V1164.26H1474.32V1236.46ZM1474.32 1161.35H1409.31V1089.15H1474.32V1161.35ZM1474.32 1086.51H1409.31V1014.31H1474.32V1086.51ZM1474.32 1011.66H1409.31V939.463H1474.32V1011.66ZM1474.32 936.554H1409.31V864.354H1474.32V936.554ZM1474.32 861.709H1409.31V789.509H1474.32V861.709ZM1474.32 786.6H1409.31V714.4H1474.32V786.6ZM1474.32 711.755H1409.31V639.555H1474.32V711.755ZM1474.32 636.91H1409.31V564.71H1474.32V636.91ZM1474.32 561.801H1409.31V489.6H1474.32V561.801ZM1474.32 486.956H1409.31V414.755H1474.32V486.956ZM1474.32 411.846H1409.31V339.646H1474.32V411.846ZM1474.32 337.001H1409.31V264.801H1474.32V337.001ZM1474.32 262.156H1409.31V189.692H1474.32V262.156ZM1474.32 187.047H1409.31V114.847H1474.32V187.047ZM1474.32 112.202H1409.31V39.7374H1474.32V112.202ZM1541.95 1461.26H1476.94V1389.06H1541.95V1461.26ZM1541.95 1386.15H1476.94V1313.95H1541.95V1386.15ZM1541.95 1311.31H1476.94V1239.11H1541.95V1311.31ZM1541.95 1236.46H1476.94V1164.26H1541.95V1236.46ZM1541.95 1161.35H1476.94V1089.15H1541.95V1161.35ZM1541.95 1086.51H1476.94V1014.31H1541.95V1086.51ZM1541.95 1011.66H1476.94V939.463H1541.95V1011.66ZM1541.95 936.554H1476.94V864.354H1541.95V936.554ZM1541.95 861.709H1476.94V789.509H1541.95V861.709ZM1541.95 786.6H1476.94V714.4H1541.95V786.6ZM1541.95 711.755H1476.94V639.555H1541.95V711.755ZM1541.95 636.91H1476.94V564.71H1541.95V636.91ZM1541.95 561.801H1476.94V489.6H1541.95V561.801ZM1541.95 486.956H1476.94V414.755H1541.95V486.956ZM1541.95 411.846H1476.94V339.646H1541.95V411.846ZM1541.95 337.001H1476.94V264.801H1541.95V337.001ZM1541.95 262.156H1476.94V189.692H1541.95V262.156ZM1541.95 187.047H1476.94V114.847H1541.95V187.047ZM1541.95 112.202H1476.94V39.7374H1541.95V112.202ZM1609.34 1461.26H1544.33V1389.06H1609.34V1461.26ZM1609.34 1386.15H1544.33V1313.95H1609.34V1386.15ZM1609.34 1311.31H1544.33V1239.11H1609.34V1311.31ZM1609.34 1236.46H1544.33V1164.26H1609.34V1236.46ZM1609.34 1161.35H1544.33V1089.15H1609.34V1161.35ZM1609.34 1086.51H1544.33V1014.31H1609.34V1086.51ZM1609.34 1011.66H1544.33V939.463H1609.34V1011.66ZM1609.34 936.554H1544.33V864.354H1609.34V936.554ZM1609.34 861.709H1544.33V789.509H1609.34V861.709ZM1609.34 786.6H1544.33V714.4H1609.34V786.6ZM1609.34 711.755H1544.33V639.555H1609.34V711.755ZM1609.34 636.91H1544.33V564.71H1609.34V636.91ZM1609.34 561.801H1544.33V489.6H1609.34V561.801ZM1609.34 486.956H1544.33V414.755H1609.34V486.956ZM1609.34 411.846H1544.33V339.646H1609.34V411.846ZM1609.34 337.001H1544.33V264.801H1609.34V337.001ZM1609.34 262.156H1544.33V189.692H1609.34V262.156ZM1609.34 187.047H1544.33V114.847H1609.34V187.047ZM1609.34 112.202H1544.33V39.7374H1609.34V112.202ZM1676.96 1461.26H1611.96V1389.06H1676.96V1461.26ZM1676.96 1386.15H1611.96V1313.95H1676.96V1386.15ZM1676.96 1311.31H1611.96V1239.11H1676.96V1311.31ZM1676.96 1236.46H1611.96V1164.26H1676.96V1236.46ZM1676.96 1161.35H1611.96V1089.15H1676.96V1161.35ZM1676.96 1086.51H1611.96V1014.31H1676.96V1086.51ZM1676.96 1011.66H1611.96V939.463H1676.96V1011.66ZM1676.96 936.554H1611.96V864.354H1676.96V936.554ZM1676.96 861.709H1611.96V789.509H1676.96V861.709ZM1676.96 786.6H1611.96V714.4H1676.96V786.6ZM1676.96 711.755H1611.96V639.555H1676.96V711.755ZM1676.96 636.91H1611.96V564.71H1676.96V636.91ZM1676.96 561.801H1611.96V489.6H1676.96V561.801ZM1676.96 486.956H1611.96V414.755H1676.96V486.956ZM1676.96 411.846H1611.96V339.646H1676.96V411.846ZM1676.96 337.001H1611.96V264.801H1676.96V337.001ZM1676.96 262.156H1611.96V189.692H1676.96V262.156ZM1676.96 187.047H1611.96V114.847H1676.96V187.047ZM1676.96 112.202H1611.96V39.7374H1676.96V112.202ZM1744.35 1461.26H1679.35V1389.06H1744.35V1461.26ZM1744.35 1386.15H1679.35V1313.95H1744.35V1386.15ZM1744.35 1311.31H1679.35V1239.11H1744.35V1311.31ZM1744.35 1236.46H1679.35V1164.26H1744.35V1236.46ZM1744.35 1161.35H1679.35V1089.15H1744.35V1161.35ZM1744.35 1086.51H1679.35V1014.31H1744.35V1086.51ZM1744.35 1011.66H1679.35V939.463H1744.35V1011.66ZM1744.35 936.554H1679.35V864.354H1744.35V936.554ZM1744.35 861.709H1679.35V789.509H1744.35V861.709ZM1744.35 786.6H1679.35V714.4H1744.35V786.6ZM1744.35 711.755H1679.35V639.555H1744.35V711.755ZM1744.35 636.91H1679.35V564.71H1744.35V636.91ZM1744.35 561.801H1679.35V489.6H1744.35V561.801ZM1744.35 486.956H1679.35V414.755H1744.35V486.956ZM1744.35 411.846H1679.35V339.646H1744.35V411.846ZM1744.35 337.001H1679.35V264.801H1744.35V337.001ZM1744.35 262.156H1679.35V189.692H1744.35V262.156ZM1744.35 187.047H1679.35V114.847H1744.35V187.047ZM1744.35 112.202H1679.35V39.7374H1744.35V112.202ZM1811.74 1461.26H1746.73V1389.06H1811.74V1461.26ZM1811.74 1386.15H1746.73V1313.95H1811.74V1386.15ZM1811.74 1311.31H1746.73V1239.11H1811.74V1311.31ZM1811.74 1236.46H1746.73V1164.26H1811.74V1236.46ZM1811.74 1161.35H1746.73V1089.15H1811.74V1161.35ZM1811.74 1086.51H1746.73V1014.31H1811.74V1086.51ZM1811.74 1011.66H1746.73V939.463H1811.74V1011.66ZM1811.74 936.554H1746.73V864.354H1811.74V936.554ZM1811.74 861.709H1746.73V789.509H1811.74V861.709ZM1811.74 786.6H1746.73V714.4H1811.74V786.6ZM1811.74 711.755H1746.73V639.555H1811.74V711.755ZM1811.74 636.91H1746.73V564.71H1811.74V636.91ZM1811.74 561.801H1746.73V489.6H1811.74V561.801ZM1811.74 486.956H1746.73V414.755H1811.74V486.956ZM1811.74 411.846H1746.73V339.646H1811.74V411.846ZM1811.74 337.001H1746.73V264.801H1811.74V337.001ZM1811.74 262.156H1746.73V189.692H1811.74V262.156ZM1811.74 187.047H1746.73V114.847H1811.74V187.047ZM1811.74 112.202H1746.73V39.7374H1811.74V112.202ZM1879.37 1461.26H1814.36V1389.06H1879.37V1461.26ZM1879.37 1386.15H1814.36V1313.95H1879.37V1386.15ZM1879.37 1311.31H1814.36V1239.11H1879.37V1311.31ZM1879.37 1236.46H1814.36V1164.26H1879.37V1236.46ZM1879.37 1161.35H1814.36V1089.15H1879.37V1161.35ZM1879.37 1086.51H1814.36V1014.31H1879.37V1086.51ZM1879.37 1011.66H1814.36V939.463H1879.37V1011.66ZM1879.37 936.554H1814.36V864.354H1879.37V936.554ZM1879.37 861.709H1814.36V789.509H1879.37V861.709ZM1879.37 786.6H1814.36V714.4H1879.37V786.6ZM1879.37 711.755H1814.36V639.555H1879.37V711.755ZM1879.37 636.91H1814.36V564.71H1879.37V636.91ZM1879.37 561.801H1814.36V489.6H1879.37V561.801ZM1879.37 486.956H1814.36V414.755H1879.37V486.956ZM1879.37 411.846H1814.36V339.646H1879.37V411.846ZM1879.37 337.001H1814.36V264.801H1879.37V337.001ZM1879.37 262.156H1814.36V189.692H1879.37V262.156ZM1879.37 187.047H1814.36V114.847H1879.37V187.047ZM1879.37 112.202H1814.36V39.7374H1879.37V112.202ZM1946.76 1461.26H1881.75V1389.06H1946.76V1461.26ZM1946.76 1386.15H1881.75V1313.95H1946.76V1386.15ZM1946.76 1311.31H1881.75V1239.11H1946.76V1311.31ZM1946.76 1236.46H1881.75V1164.26H1946.76V1236.46ZM1946.76 1161.35H1881.75V1089.15H1946.76V1161.35ZM1946.76 1086.51H1881.75V1014.31H1946.76V1086.51ZM1946.76 1011.66H1881.75V939.463H1946.76V1011.66ZM1946.76 936.554H1881.75V864.354H1946.76V936.554ZM1946.76 861.709H1881.75V789.509H1946.76V861.709ZM1946.76 786.6H1881.75V714.4H1946.76V786.6ZM1946.76 711.755H1881.75V639.555H1946.76V711.755ZM1946.76 636.91H1881.75V564.71H1946.76V636.91ZM1946.76 561.801H1881.75V489.6H1946.76V561.801ZM1946.76 486.956H1881.75V414.755H1946.76V486.956ZM1946.76 411.846H1881.75V339.646H1946.76V411.846ZM1946.76 337.001H1881.75V264.801H1946.76V337.001ZM1946.76 262.156H1881.75V189.692H1946.76V262.156ZM1946.76 187.047H1881.75V114.847H1946.76V187.047ZM1946.76 112.202H1881.75V39.7374H1946.76V112.202Z" fill="#848484"/>
</svg>
