<svg width="20" height="21" viewBox="0 0 20 21" fill="none" xmlns="http://www.w3.org/2000/svg">
<g clip-path="url(#clip0_404_172)">
<path d="M10 0.5L6.9231 10.5L10 20.5C15.5229 20.5 20 16.0229 20 10.5C20 4.97715 15.5229 0.5 10 0.5Z" fill="#282828"/>
<path d="M0 10.5C0 16.0229 4.47715 20.5 10 20.5V0.5C4.47715 0.5 0 4.97715 0 10.5Z" fill="#2B2B2B"/>
<path d="M10.095 1.81958V19.1804C14.8383 19.1299 18.6813 15.2552 18.6813 10.5C18.6813 5.74485 14.8383 1.87013 10.095 1.81958Z" fill="#666666"/>
<path d="M10.095 1.81956C14.1112 1.87976 17.3626 5.75054 17.3626 10.5C17.3626 15.2494 14.1112 19.1202 10.095 19.1804C10.0633 19.1809 10.0317 19.1813 9.99999 19.1813C5.2132 19.1813 1.31866 15.2868 1.31866 10.5C1.31866 5.71316 5.2132 1.81866 9.99999 1.81866C10.0316 1.81866 10.0633 1.81909 10.095 1.81956Z" fill="#848484"/>
<path d="M10.8404 16.005C10.5015 14.9329 10.3297 13.8131 10.3297 12.6768V10.4333H9.67032V12.6768C9.67032 13.8806 9.85251 15.0673 10.2117 16.2038C10.2562 16.3443 10.386 16.4342 10.526 16.4342C10.5589 16.4342 10.5924 16.4292 10.6255 16.4188C10.7991 16.3639 10.8953 16.1786 10.8404 16.005Z" fill="#282828"/>
<path d="M14.6455 13.686C14.8002 13.4654 14.8964 13.2216 14.9371 12.9722L10 10.4333L11.6876 13.5272C11.8124 13.7536 11.9889 13.9563 12.2152 14.1145C13.0046 14.6675 14.0924 14.4754 14.6455 13.686Z" fill="#282828"/>
<path d="M14.8963 12.2154C14.9648 12.4602 14.9796 12.7191 14.9371 12.9722C14.9217 12.9913 14.9042 13.0098 14.8851 13.0276C14.4842 13.3991 13.4866 13.3433 12.6564 12.9022C12.4185 12.7759 12.2206 12.6318 12.068 12.4818L10 10.4333L13.6513 10.3589L14.8963 12.2154Z" fill="#2B2B2B"/>
<path d="M14.8963 12.2154L10 10.4333L13.2814 9.14795C13.5226 9.0547 13.7881 9.01287 14.0632 9.0372C15.0234 9.12103 15.7332 9.96736 15.6494 10.9276C15.6021 11.4689 15.3125 11.9304 14.8963 12.2154Z" fill="#666666"/>
<path d="M5.35454 13.686C5.19985 13.4654 5.10364 13.2216 5.0629 12.9722L10 10.4333L8.31243 13.5272C8.18762 13.7536 8.01114 13.9563 7.78477 14.1145C6.99536 14.6675 5.90758 14.4754 5.35454 13.686Z" fill="#282828"/>
<path d="M5.10371 12.2154C5.0352 12.4602 5.02043 12.7191 5.06293 12.9721C5.07832 12.9913 5.09582 13.0098 5.11492 13.0276C5.51582 13.399 6.5134 13.3433 7.3436 12.9022C7.58153 12.7758 7.77938 12.6318 7.93199 12.4818L10.0001 10.4333L6.34875 10.359L5.10371 12.2154Z" fill="#2B2B2B"/>
<path d="M5.10372 12.2154L10 10.4333L6.71856 9.14795C6.47743 9.0547 6.21192 9.01287 5.93684 9.0372C4.97661 9.12103 4.26677 9.96736 4.35059 10.9276C4.3979 11.4689 4.68751 11.9304 5.10372 12.2154Z" fill="#666666"/>
<path d="M11.4677 4.95545C11.2075 4.88557 10.9455 4.87854 10.6971 4.92557L10 10.4333L12.3301 7.78932C12.5002 7.59459 12.6304 7.35943 12.7016 7.0926C12.9512 6.16162 12.3987 5.20514 11.4677 4.95545Z" fill="#282828"/>
<path d="M10 5.22275C10.2066 5.07462 10.4449 4.9722 10.6972 4.9256C10.7204 4.93353 10.7438 4.94361 10.767 4.95548C11.2532 5.20517 11.542 6.16165 11.4115 7.09263C11.3741 7.35943 11.3064 7.59462 11.2176 7.78935L10 10.4333L8.68134 7.02759L10 5.22275Z" fill="#2B2B2B"/>
<path d="M9.99999 5.22273V10.4333L7.66987 7.78933C7.49975 7.59461 7.36963 7.35945 7.29842 7.09262C7.04874 6.16164 7.60128 5.20515 8.53225 4.95547C9.05713 4.8148 9.58987 4.9291 9.99999 5.22273Z" fill="#666666"/>
<path d="M10 3.46705C10.1821 3.46705 10.3297 3.31945 10.3297 3.13737C10.3297 2.95528 10.1821 2.80768 10 2.80768C9.81792 2.80768 9.67032 2.95528 9.67032 3.13737C9.67032 3.31945 9.81792 3.46705 10 3.46705Z" fill="#2B2B2B"/>
<path d="M8.09449 3.71809C8.27657 3.71809 8.42418 3.57048 8.42418 3.3884C8.42418 3.20632 8.27657 3.05872 8.09449 3.05872C7.91241 3.05872 7.7648 3.20632 7.7648 3.3884C7.7648 3.57048 7.91241 3.71809 8.09449 3.71809Z" fill="#2B2B2B"/>
<path d="M6.31867 4.45344C6.50075 4.45344 6.64836 4.30584 6.64836 4.12375C6.64836 3.94167 6.50075 3.79407 6.31867 3.79407C6.13659 3.79407 5.98898 3.94167 5.98898 4.12375C5.98898 4.30584 6.13659 4.45344 6.31867 4.45344Z" fill="#2B2B2B"/>
<path d="M4.79383 5.62355C4.97591 5.62355 5.12352 5.47594 5.12352 5.29386C5.12352 5.11178 4.97591 4.96417 4.79383 4.96417C4.61175 4.96417 4.46414 5.11178 4.46414 5.29386C4.46414 5.47594 4.61175 5.62355 4.79383 5.62355Z" fill="#2B2B2B"/>
<path d="M3.62375 7.14839C3.80584 7.14839 3.95344 7.00078 3.95344 6.8187C3.95344 6.63662 3.80584 6.48901 3.62375 6.48901C3.44167 6.48901 3.29407 6.63662 3.29407 6.8187C3.29407 7.00078 3.44167 7.14839 3.62375 7.14839Z" fill="#2B2B2B"/>
<path d="M2.88834 8.92421C3.07042 8.92421 3.21803 8.7766 3.21803 8.59452C3.21803 8.41244 3.07042 8.26483 2.88834 8.26483C2.70626 8.26483 2.55865 8.41244 2.55865 8.59452C2.55865 8.7766 2.70626 8.92421 2.88834 8.92421Z" fill="#2B2B2B"/>
<path d="M2.63734 10.8297C2.81942 10.8297 2.96702 10.6821 2.96702 10.5C2.96702 10.318 2.81942 10.1703 2.63734 10.1703C2.45525 10.1703 2.30765 10.318 2.30765 10.5C2.30765 10.6821 2.45525 10.8297 2.63734 10.8297Z" fill="#2B2B2B"/>
<path d="M2.88834 12.7352C3.07042 12.7352 3.21803 12.5876 3.21803 12.4056C3.21803 12.2235 3.07042 12.0759 2.88834 12.0759C2.70626 12.0759 2.55865 12.2235 2.55865 12.4056C2.55865 12.5876 2.70626 12.7352 2.88834 12.7352Z" fill="#2B2B2B"/>
<path d="M3.62375 14.5111C3.80584 14.5111 3.95344 14.3635 3.95344 14.1814C3.95344 13.9993 3.80584 13.8517 3.62375 13.8517C3.44167 13.8517 3.29407 13.9993 3.29407 14.1814C3.29407 14.3635 3.44167 14.5111 3.62375 14.5111Z" fill="#2B2B2B"/>
<path d="M4.79383 16.0359C4.97591 16.0359 5.12352 15.8883 5.12352 15.7062C5.12352 15.5241 4.97591 15.3765 4.79383 15.3765C4.61175 15.3765 4.46414 15.5241 4.46414 15.7062C4.46414 15.8883 4.61175 16.0359 4.79383 16.0359Z" fill="#2B2B2B"/>
<path d="M6.31867 17.2059C6.50075 17.2059 6.64836 17.0583 6.64836 16.8763C6.64836 16.6942 6.50075 16.5466 6.31867 16.5466C6.13659 16.5466 5.98898 16.6942 5.98898 16.8763C5.98898 17.0583 6.13659 17.2059 6.31867 17.2059Z" fill="#2B2B2B"/>
<path d="M8.09449 17.9414C8.27657 17.9414 8.42418 17.7938 8.42418 17.6117C8.42418 17.4296 8.27657 17.282 8.09449 17.282C7.91241 17.282 7.7648 17.4296 7.7648 17.6117C7.7648 17.7938 7.91241 17.9414 8.09449 17.9414Z" fill="#2B2B2B"/>
<path d="M10 18.1924C10.1821 18.1924 10.3297 18.0448 10.3297 17.8627C10.3297 17.6806 10.1821 17.533 10 17.533C9.81792 17.533 9.67032 17.6806 9.67032 17.8627C9.67032 18.0448 9.81792 18.1924 10 18.1924Z" fill="#2B2B2B"/>
<path d="M11.9055 17.9414C12.0876 17.9414 12.2352 17.7938 12.2352 17.6117C12.2352 17.4296 12.0876 17.282 11.9055 17.282C11.7234 17.282 11.5758 17.4296 11.5758 17.6117C11.5758 17.7938 11.7234 17.9414 11.9055 17.9414Z" fill="#2B2B2B"/>
<path d="M13.6813 17.2059C13.8634 17.2059 14.011 17.0583 14.011 16.8763C14.011 16.6942 13.8634 16.5466 13.6813 16.5466C13.4992 16.5466 13.3516 16.6942 13.3516 16.8763C13.3516 17.0583 13.4992 17.2059 13.6813 17.2059Z" fill="#2B2B2B"/>
<path d="M15.2062 16.0359C15.3882 16.0359 15.5358 15.8883 15.5358 15.7062C15.5358 15.5241 15.3882 15.3765 15.2062 15.3765C15.0241 15.3765 14.8765 15.5241 14.8765 15.7062C14.8765 15.8883 15.0241 16.0359 15.2062 16.0359Z" fill="#2B2B2B"/>
<path d="M16.3762 14.5111C16.5583 14.5111 16.7059 14.3635 16.7059 14.1814C16.7059 13.9993 16.5583 13.8517 16.3762 13.8517C16.1941 13.8517 16.0465 13.9993 16.0465 14.1814C16.0465 14.3635 16.1941 14.5111 16.3762 14.5111Z" fill="#2B2B2B"/>
<path d="M17.1116 12.7352C17.2937 12.7352 17.4413 12.5876 17.4413 12.4056C17.4413 12.2235 17.2937 12.0759 17.1116 12.0759C16.9296 12.0759 16.782 12.2235 16.782 12.4056C16.782 12.5876 16.9296 12.7352 17.1116 12.7352Z" fill="#2B2B2B"/>
<path d="M17.3626 10.8297C17.5447 10.8297 17.6923 10.6821 17.6923 10.5C17.6923 10.318 17.5447 10.1703 17.3626 10.1703C17.1806 10.1703 17.033 10.318 17.033 10.5C17.033 10.6821 17.1806 10.8297 17.3626 10.8297Z" fill="#2B2B2B"/>
<path d="M17.1116 8.92421C17.2937 8.92421 17.4413 8.7766 17.4413 8.59452C17.4413 8.41244 17.2937 8.26483 17.1116 8.26483C16.9296 8.26483 16.782 8.41244 16.782 8.59452C16.782 8.7766 16.9296 8.92421 17.1116 8.92421Z" fill="#2B2B2B"/>
<path d="M16.3762 7.14839C16.5583 7.14839 16.7059 7.00078 16.7059 6.8187C16.7059 6.63662 16.5583 6.48901 16.3762 6.48901C16.1941 6.48901 16.0465 6.63662 16.0465 6.8187C16.0465 7.00078 16.1941 7.14839 16.3762 7.14839Z" fill="#2B2B2B"/>
<path d="M15.2062 5.62355C15.3882 5.62355 15.5358 5.47594 15.5358 5.29386C15.5358 5.11178 15.3882 4.96417 15.2062 4.96417C15.0241 4.96417 14.8765 5.11178 14.8765 5.29386C14.8765 5.47594 15.0241 5.62355 15.2062 5.62355Z" fill="#2B2B2B"/>
<path d="M13.6813 4.45344C13.8634 4.45344 14.011 4.30584 14.011 4.12375C14.011 3.94167 13.8634 3.79407 13.6813 3.79407C13.4992 3.79407 13.3516 3.94167 13.3516 4.12375C13.3516 4.30584 13.4992 4.45344 13.6813 4.45344Z" fill="#2B2B2B"/>
<path d="M11.9055 3.71809C12.0876 3.71809 12.2352 3.57048 12.2352 3.3884C12.2352 3.20632 12.0876 3.05872 11.9055 3.05872C11.7234 3.05872 11.5758 3.20632 11.5758 3.3884C11.5758 3.57048 11.7234 3.71809 11.9055 3.71809Z" fill="#2B2B2B"/>
</g>
<defs>
<clipPath id="clip0_404_172">
<rect width="20" height="20" fill="white" transform="translate(0 0.5)"/>
</clipPath>
</defs>
</svg>
