<svg width="17" height="17" viewBox="0 0 17 17" fill="none" xmlns="http://www.w3.org/2000/svg">
<path d="M15.9418 7.47282C16.1212 7.33278 16.2542 7.13743 16.3223 6.91415C16.3904 6.69087 16.3901 6.45085 16.3214 6.22776C16.2528 6.00467 16.1192 5.8097 15.9395 5.67017C15.7597 5.53064 15.5428 5.45356 15.3191 5.44973L10.9749 5.27777C10.9535 5.27622 10.933 5.26824 10.9159 5.25478C10.8988 5.24132 10.8857 5.22295 10.8783 5.2019L9.37717 0.953411C9.30174 0.737264 9.16475 0.550623 8.98474 0.418757C8.80473 0.286892 8.5904 0.216171 8.37076 0.216171C8.15112 0.216171 7.93678 0.286892 7.75677 0.418757C7.57676 0.550623 7.43977 0.737264 7.36434 0.953411L5.868 5.21707C5.86061 5.23813 5.84756 5.25649 5.83043 5.26995C5.8133 5.28341 5.79282 5.29139 5.77146 5.29294L1.42724 5.4649C1.20357 5.46873 0.986643 5.54581 0.806887 5.68534C0.62713 5.82487 0.493556 6.01985 0.424893 6.24294C0.35623 6.46603 0.355922 6.70604 0.424012 6.92932C0.492102 7.1526 0.625175 7.34796 0.804573 7.48799L4.21237 10.295C4.22943 10.3091 4.24217 10.3281 4.24904 10.3497C4.2559 10.3712 4.25658 10.3944 4.25099 10.4164L3.07805 14.7711C3.01727 14.9929 3.02315 15.2289 3.09491 15.447C3.16667 15.6651 3.30081 15.8548 3.47909 15.9902C3.65737 16.1256 3.87113 16.2001 4.09129 16.2037C4.31145 16.2073 4.52732 16.1398 4.70954 16.0103L8.31042 13.4814C8.32816 13.4686 8.3492 13.4617 8.37076 13.4617C8.39231 13.4617 8.41335 13.4686 8.43109 13.4814L12.032 16.0103C12.2117 16.1442 12.4268 16.2162 12.6474 16.2162C12.868 16.2162 13.0831 16.1442 13.2628 16.0103C13.4412 15.8761 13.5754 15.6874 13.6472 15.47C13.7189 15.2526 13.7246 15.0173 13.6635 14.7964L12.4809 10.4265C12.4746 10.4046 12.4749 10.3812 12.4819 10.3594C12.4888 10.3377 12.5019 10.3188 12.5195 10.3051L15.9418 7.47282Z" fill="#D52D1A"/>
</svg>
