<svg width="77" height="77" viewBox="0 0 77 77" fill="none" xmlns="http://www.w3.org/2000/svg">
<path d="M38.5 72.1875C29.5655 72.1875 20.997 68.6383 14.6793 62.3207C8.36171 56.003 4.8125 47.4345 4.8125 38.5C4.8125 29.5655 8.36171 20.997 14.6793 14.6793C20.997 8.36171 29.5655 4.8125 38.5 4.8125C47.4345 4.8125 56.003 8.36171 62.3207 14.6793C68.6383 20.997 72.1875 29.5655 72.1875 38.5C72.1875 47.4345 68.6383 56.003 62.3207 62.3207C56.003 68.6383 47.4345 72.1875 38.5 72.1875ZM38.5 77C48.7108 77 58.5035 72.9438 65.7236 65.7236C72.9438 58.5035 77 48.7108 77 38.5C77 28.2892 72.9438 18.4965 65.7236 11.2764C58.5035 4.05624 48.7108 0 38.5 0C28.2892 0 18.4965 4.05624 11.2764 11.2764C4.05624 18.4965 0 28.2892 0 38.5C0 48.7108 4.05624 58.5035 11.2764 65.7236C18.4965 72.9438 28.2892 77 38.5 77Z" fill="white"/>
<path d="M30.1792 24.3275C30.5728 24.1248 31.0146 24.0347 31.4562 24.0669C31.8977 24.0992 32.3218 24.2527 32.6817 24.5104L49.5254 36.5416C49.8374 36.7642 50.0916 37.0581 50.267 37.3988C50.4425 37.7395 50.534 38.1171 50.534 38.5003C50.534 38.8835 50.4425 39.2612 50.267 39.6019C50.0916 39.9426 49.8374 40.2364 49.5254 40.459L32.6817 52.4903C32.3219 52.7478 31.898 52.9011 31.4567 52.9334C31.0154 52.9656 30.5738 52.8756 30.1803 52.6732C29.7869 52.4707 29.4569 52.1637 29.2266 51.7859C28.9963 51.4081 28.8746 50.9741 28.875 50.5316V26.4691C28.8745 26.0267 28.996 25.5928 29.2261 25.215C29.4562 24.8372 29.786 24.5301 30.1792 24.3275Z" fill="white"/>
</svg>
