<svg width="77" height="78" viewBox="0 0 77 78" fill="none" xmlns="http://www.w3.org/2000/svg">
<path d="M38.4511 72.1953C29.5279 72.1953 20.9703 68.6506 14.6607 62.341C8.35108 56.0314 4.80638 47.4738 4.80638 38.5507C4.80638 29.6275 8.35108 21.0699 14.6607 14.7603C20.9703 8.45069 29.5279 4.90599 38.4511 4.90599C47.3742 4.90599 55.9318 8.45069 62.2414 14.7603C68.551 21.0699 72.0957 29.6275 72.0957 38.5507C72.0957 47.4738 68.551 56.0314 62.2414 62.341C55.9318 68.6506 47.3742 72.1953 38.4511 72.1953ZM38.4511 77.0017C48.6489 77.0017 58.4291 72.9506 65.6401 65.7397C72.851 58.5287 76.9021 48.7485 76.9021 38.5507C76.9021 28.3528 72.851 18.5726 65.6401 11.3617C58.4291 4.15069 48.6489 0.0996094 38.4511 0.0996094C28.2532 0.0996094 18.473 4.15069 11.2621 11.3617C4.05108 18.5726 0 28.3528 0 38.5507C0 48.7485 4.05108 58.5287 11.2621 65.7397C18.473 72.9506 28.2532 77.0017 38.4511 77.0017Z" fill="white"/>
<path d="M30.1463 24.3955C30.5394 24.1931 30.9807 24.1031 31.4216 24.1353C31.8626 24.1675 32.2861 24.3208 32.6456 24.5782L49.4679 36.5941C49.7795 36.8164 50.0334 37.1099 50.2086 37.4502C50.3838 37.7904 50.4752 38.1676 50.4752 38.5503C50.4752 38.933 50.3838 39.3102 50.2086 39.6505C50.0334 39.9907 49.7795 40.2842 49.4679 40.5065L32.6456 52.5225C32.2862 52.7797 31.8629 52.9328 31.4222 52.965C30.9815 52.9973 30.5404 52.9073 30.1474 52.7051C29.7545 52.503 29.4249 52.1963 29.1949 51.819C28.9649 51.4417 28.8434 51.0082 28.8438 50.5663V26.5344C28.8433 26.0926 28.9646 25.6592 29.1944 25.2819C29.4242 24.9046 29.7535 24.5979 30.1463 24.3955Z" fill="white"/>
</svg>
