<svg width="23" height="31" viewBox="0 0 23 31" fill="none" xmlns="http://www.w3.org/2000/svg">
<path d="M22.6614 18.2632L22.6411 17.9795C22.3099 13.6551 20.3001 10.9438 18.5278 8.55247C16.8859 6.33845 15.4685 4.42631 15.4685 1.60512C15.4685 1.37856 15.3419 1.17126 15.1412 1.06762C14.94 0.963399 14.6981 0.980391 14.515 1.11349C11.853 3.0228 9.63135 6.24046 8.85536 9.31087C8.31675 11.4484 8.24554 13.8516 8.23536 15.4387C5.77686 14.9125 5.22016 11.227 5.21394 11.1868C5.18625 10.9953 5.06982 10.8294 4.90027 10.7382C4.72902 10.6487 4.52782 10.6419 4.35375 10.728C4.22489 10.7903 1.18933 12.3365 1.013 18.5091C1.00057 18.7141 1 18.9191 1 19.1253C1 25.1211 5.86841 30 11.8514 30C17.8343 30 22.7027 25.1217 22.7027 19.1253C22.7027 18.8245 22.6824 18.5436 22.6614 18.2632ZM15.6612 28.0023C16.2868 27.1471 16.674 26.0902 16.674 24.9302C16.674 24.7881 16.6649 24.6561 16.6474 24.4086C16.5044 22.4364 15.6488 21.2175 14.8937 20.142C14.25 19.2261 13.695 18.4349 13.695 17.3128C13.695 17.0835 13.5655 16.8739 13.3604 16.7719C13.1569 16.6694 12.9105 16.6921 12.7285 16.8308C11.5722 17.7065 10.608 19.1802 10.2711 20.5871C10.0993 21.3087 10.0394 22.0892 10.0179 22.7309C9.5997 22.2801 9.47027 21.4447 9.46914 21.4333C9.44201 21.2391 9.32333 21.0697 9.14925 20.9797C8.97687 20.8902 8.77002 20.8873 8.59651 20.9774C8.44448 21.0556 7.1101 21.8224 7.03324 24.6436C7.02815 24.7394 7.02759 24.8351 7.02759 24.9297C7.02759 26.0896 7.41473 27.1465 8.04038 28.0018C4.61203 26.5178 2.20495 23.0991 2.20495 19.1247C2.20495 18.9435 2.20439 18.7628 2.21682 18.5617C2.32025 14.9402 3.47659 13.1442 4.23167 12.3518C4.75785 14.2396 6.13687 16.7079 8.83671 16.7079C9.17016 16.7079 9.43975 16.4378 9.43975 16.1036C9.43975 14.0816 9.48497 11.7452 10.0241 9.60596C10.6362 7.18237 12.3137 4.56508 14.3381 2.79341C14.6744 5.38125 16.0806 7.27866 17.559 9.27236C19.3162 11.6427 21.1332 14.0946 21.4378 18.0639L21.4582 18.3527C21.4768 18.6042 21.4966 18.8546 21.4966 19.1247C21.4972 23.0997 19.0901 26.5184 15.6612 28.0023Z" fill="#0085FF" stroke="#0085FF" stroke-width="0.5"/>
</svg>
