<svg width="30" height="30" viewBox="0 0 30 30" fill="none" xmlns="http://www.w3.org/2000/svg">
<path d="M16.1994 26.2554L19.8953 13.6357H27.2482L16.1994 26.2554ZM28.8648 13.4486C29.0267 13.2637 29.0453 12.9941 28.9108 12.7884L24.4268 5.9505C24.3256 5.79626 24.1539 5.70328 23.9696 5.70328H6.05175C5.868 5.70328 5.69627 5.79571 5.5951 5.9494L1.10401 12.7671C1.08269 12.7966 1.06409 12.8284 1.04878 12.8623C0.960181 13.0575 0.994089 13.2867 1.13573 13.4486L3.41245 16.0483C3.61152 16.2752 3.95661 16.2982 4.18411 16.0991C4.41108 15.9 4.43404 15.5544 4.23498 15.3274L2.7529 13.6351H10.1086L13.8051 26.256L9.62789 21.486C9.42882 21.259 9.08318 21.2361 8.85622 21.4352C8.62926 21.6342 8.60629 21.9799 8.80536 22.2069L14.5909 28.8135C14.6948 28.9322 14.8447 29 15.0022 29C15.1597 29 15.3096 28.9322 15.4135 28.8135L28.8648 13.4486ZM2.56203 12.5418L6.05066 7.24622L9.52288 12.5418H2.56203ZM7.06405 6.79717H13.9888L10.5264 12.0774L7.06405 6.79717ZM15.0017 7.24786L18.4733 12.5418H11.53L15.0017 7.24786ZM15.0017 26.4534L11.2478 13.6357H18.7555L15.0017 26.4534ZM19.4856 12.0911L16.014 6.79717H22.9573L19.4856 12.0911ZM20.4979 12.5418L23.9696 7.24786L27.4407 12.5418H20.4979Z" fill="#0085FF" stroke="#0085FF" stroke-width="0.5"/>
<path d="M9.59615 18.8847C8.18572 18.8847 7.03779 17.7366 7.03779 16.326C7.03779 16.0241 6.79278 15.7791 6.4909 15.7791C6.18901 15.7791 5.944 16.0241 5.944 16.326C5.944 17.7366 4.79607 18.8847 3.38564 18.8847C3.08375 18.8847 2.83875 19.1297 2.83875 19.4316C2.83875 19.7335 3.08375 19.9786 3.38564 19.9786C4.79607 19.9786 5.944 21.126 5.944 22.5372C5.944 22.8391 6.18901 23.0841 6.4909 23.0841C6.79278 23.0841 7.03779 22.8391 7.03779 22.5372C7.03779 21.1266 8.18572 19.9786 9.59615 19.9786C9.89804 19.9786 10.143 19.7335 10.143 19.4316C10.143 19.1297 9.89804 18.8847 9.59615 18.8847Z" fill="#0085FF" stroke="#0085FF" stroke-width="0.5"/>
<path d="M28.4535 3.18776C27.549 3.18776 26.8129 2.45157 26.8129 1.54692C26.8129 1.245 26.5678 0.999969 26.266 0.999969C25.9641 0.999969 25.7191 1.245 25.7191 1.54692C25.7191 2.45157 24.9829 3.18776 24.0784 3.18776C23.7765 3.18776 23.5315 3.4328 23.5315 3.73471C23.5315 4.03663 23.7765 4.28166 24.0784 4.28166C24.9829 4.28166 25.7191 5.01785 25.7191 5.9225C25.7191 6.22442 25.9641 6.46945 26.266 6.46945C26.5678 6.46945 26.8129 6.22442 26.8129 5.9225C26.8129 5.01785 27.549 4.28166 28.4535 4.28166C28.7554 4.28166 29.0004 4.03663 29.0004 3.73471C29.0004 3.4328 28.7554 3.18776 28.4535 3.18776Z" fill="#0085FF" stroke="#0085FF" stroke-width="0.5"/>
</svg>
