<svg width="108" height="64" viewBox="0 0 108 64" fill="none" xmlns="http://www.w3.org/2000/svg">
<path fill-rule="evenodd" clip-rule="evenodd" d="M41.6023 29.8788C38.2762 27.9936 35.7901 23.3204 36.0897 19.509C36.127 19.0352 36.146 18.5563 36.146 18.073C36.146 8.09155 28.0544 0 18.073 0C8.09155 0 0 8.09155 0 18.073C0 24.8192 3.69631 30.7021 9.17416 33.8069C12.5002 35.6922 14.9863 40.3653 14.6867 44.1767C14.6495 44.6505 14.6305 45.1294 14.6305 45.6128C14.6305 55.5942 22.7221 63.6858 32.7035 63.6858C42.6849 63.6858 50.7765 55.5942 50.7765 45.6128C50.7765 38.8666 47.0802 32.9837 41.6023 29.8788Z" fill="#E8154E"/>
<path d="M14.6304 22.6687V21.1661H19.4481C19.5617 21.1661 19.6185 21.1093 19.6185 20.9957V19.9423C19.6185 19.7977 19.5565 19.7151 19.4326 19.6944L16.5668 19.1058C15.2758 18.8579 14.6304 17.9956 14.6304 16.5187V15.6357C14.6304 13.8181 15.5392 12.9093 17.3568 12.9093H20.7958L22.0041 13.8388V15.3414H17.4962C17.3826 15.3414 17.3258 15.3982 17.3258 15.5118V16.5032C17.3258 16.6375 17.3878 16.7201 17.5117 16.7511L20.3776 17.3088C21.6685 17.5773 22.314 18.4448 22.314 19.9113V20.8717C22.314 22.6894 21.4052 23.5982 19.5875 23.5982H15.8387L14.6304 22.6687Z" fill="white"/>
<path d="M41.5024 19.6496V14.4136C41.5024 12.5959 42.4113 11.6871 44.2289 11.6871H47.6989C49.5165 11.6871 50.4253 12.5959 50.4253 14.4136V19.6496C50.4253 21.4672 49.5165 22.376 47.6989 22.376H44.2289C42.4113 22.376 41.5024 21.4672 41.5024 19.6496ZM44.1979 19.7735C44.1979 19.8871 44.2547 19.9439 44.3683 19.9439H47.5595C47.6731 19.9439 47.7299 19.8871 47.7299 19.7735V14.2896C47.7299 14.176 47.6731 14.1192 47.5595 14.1192H44.3683C44.2547 14.1192 44.1979 14.176 44.1979 14.2896V19.7735Z" fill="white"/>
<path d="M56.2523 19.6496V14.4136C56.2523 12.5959 57.1611 11.6871 58.9787 11.6871H62.9909L64.1992 12.6166V14.1192H59.1181C59.0045 14.1192 58.9477 14.176 58.9477 14.2896V19.7735C58.9477 19.8871 59.0045 19.9439 59.1181 19.9439H64.1992V21.4465L62.9909 22.376H58.9787C57.1611 22.376 56.2523 21.4672 56.2523 19.6496Z" fill="white"/>
<path d="M69.9014 22.376V11.6871H72.5969V22.376H69.9014Z" fill="white"/>
<path d="M77.7912 21.8803L80.812 11.6871H84.8397L87.8605 21.8803L87.5352 22.376H85.2735L84.7468 20.4706H80.905L80.3783 22.376H78.1166L77.7912 21.8803ZM81.6176 18.0385H84.0342L82.9188 14.1192H82.7329L81.6176 18.0385Z" fill="white"/>
<path d="M93.0473 22.376V11.6871H95.7428V19.9439H100.065V22.376H93.0473Z" fill="white"/>
<path d="M54.4824 50.2807L57.5032 40.0875H61.5309L64.5517 50.2807L64.2263 50.7764H61.9646L61.4379 48.871H57.5961L57.0694 50.7764H54.8077L54.4824 50.2807ZM58.3087 46.4389H60.7253L59.61 42.5196H59.4241L58.3087 46.4389Z" fill="white"/>
<path d="M69.7385 50.7764V40.0875H72.8677L75.5942 45.9122L78.3206 40.0875H81.4498V50.7764H78.7544V45.0137L76.6785 49.4597H74.5098L72.434 45.0137V50.7764H69.7385Z" fill="white"/>
<path d="M87.5896 50.7764V40.0875H95.0718V42.5196H90.2851V44.1152H94.6071V46.5473H90.2851V48.3443H95.0718V50.7764H87.5896Z" fill="white"/>
<path d="M100.317 49.8469V48.3443H105.134C105.248 48.3443 105.305 48.2875 105.305 48.1739V47.1205C105.305 46.9759 105.243 46.8933 105.119 46.8726L102.253 46.284C100.962 46.0361 100.317 45.1738 100.317 43.697V42.814C100.317 40.9963 101.225 40.0875 103.043 40.0875H106.482L107.69 41.017V42.5196H103.182C103.069 42.5196 103.012 42.5764 103.012 42.69V43.6815C103.012 43.8157 103.074 43.8983 103.198 43.9293L106.064 44.487C107.355 44.7555 108 45.623 108 47.0895V48.05C108 49.8676 107.091 50.7764 105.274 50.7764H101.525L100.317 49.8469Z" fill="white"/>
<path d="M28.4004 48.4115V43.1755C28.4004 41.3579 29.3092 40.4491 31.1268 40.4491H35.4953L36.7036 41.3786V42.8812H31.2662C31.1526 42.8812 31.0958 42.938 31.0958 43.0516V48.5355C31.0958 48.6491 31.1526 48.7059 31.2662 48.7059H34.318V46.9089H32.5675V44.4768H37.0135V51.138H31.1268C29.3092 51.138 28.4004 50.2292 28.4004 48.4115Z" fill="white"/>
</svg>
