<svg width="40" height="40" viewBox="0 0 40 40" fill="none" xmlns="http://www.w3.org/2000/svg">
<path d="M8.49585 36.8536C11.796 39.0302 15.6492 40.1405 19.563 40.0425C22.0448 40.0143 24.5129 39.657 26.9067 38.9795C35.1762 36.1414 38.6116 28.7856 37.655 19.1337C36.5853 8.3019 27.6679 -0.0743965 17.8144 0.14883C10.2855 0.318907 3.30171 6.16531 0.874351 13.755C-1.22388 20.3136 0.11323 31.2942 8.49585 36.8536Z" fill="#EA833D"/>
<g style="mix-blend-mode:multiply">
<path d="M7.07638 26.5746C10.0077 25.1395 12.8259 25.6179 15.963 25.2777C21.3011 24.7037 25.5593 21.0258 29.55 17.0715C31.4734 15.1688 33.3453 13.1704 35.2893 11.2039C36.5769 13.6597 37.381 16.3549 37.6549 19.1337C38.6115 28.7962 35.1761 36.1414 26.9067 38.9052C24.5128 39.5826 22.0447 39.9399 19.5629 39.9681C15.6491 40.0661 11.7959 38.9558 8.49577 36.7792C5.4267 34.7329 3.03647 31.7656 1.64568 28.2753C4.64902 29.3702 5.14272 27.5313 7.07638 26.5746Z" fill="#CC692E"/>
</g>
<path d="M3.31191 19.4951C3.90846 30.4013 12.6614 39.426 22.9365 39.4154C33.2116 39.4047 40.9668 30.1781 39.8971 19.0486C38.848 8.19559 29.8894 -0.223222 19.9537 4.46197e-06C10.018 0.223231 2.72564 8.85464 3.31191 19.4951Z" fill="#94260D"/>
<path d="M18.9355 0.0637817C9.62716 0.839758 2.74621 9.22668 3.31191 19.4951C3.90847 30.3588 12.5688 39.3622 22.8542 39.4154H22.7411C12.3425 39.426 3.42505 30.4119 2.80793 19.5163C2.22166 9.14165 9.34945 0.690941 18.9355 0.0637817Z" fill="#EDA086"/>
<g style="mix-blend-mode:screen" opacity="0.55">
<path d="M20.2109 5.49542C16.0967 5.49542 12.1059 5.49542 8.13577 5.38913C9.66187 3.72638 11.4925 2.39369 13.5213 1.4685C15.5501 0.543313 17.7366 0.044077 19.9537 -0.000191399C24.6774 -0.0501425 29.2498 1.71955 32.7796 4.96393C28.542 5.31472 24.3765 5.53794 20.2109 5.49542Z" fill="#B1604E"/>
</g>
<g style="mix-blend-mode:screen" opacity="0.55">
<path d="M29.9409 11.6184C25.8267 11.6715 22.1034 10.7361 18.1641 10.3853C13.7722 9.99204 9.35974 10.2472 5.08101 9.99204C5.36091 9.39172 5.66987 8.80634 6.0067 8.23812C10.9951 8.34442 16.0658 8.39756 21.2085 8.44008C25.8987 8.44008 30.5786 8.15308 35.3819 7.74915C36.2049 8.81161 36.9314 9.95028 37.5521 11.1507C34.9704 11.3739 32.4505 11.5865 29.9409 11.6184Z" fill="#B1604E"/>
</g>
<g style="mix-blend-mode:screen" opacity="0.55">
<path d="M25.9707 31.8257C21.26 30.6458 16.7138 29.2639 12.1368 27.8608C9.61687 27.0742 7.08666 26.3726 4.57701 25.7348C4.02071 24.1914 3.641 22.586 3.44562 20.9514L6.64438 21.6105C12.8671 22.8967 19.1823 24.2892 25.6518 25.5222C29.9614 26.3407 34.3225 27.4037 38.7966 28.0309C37.9762 30.2517 36.7427 32.2848 35.1659 34.0155C32.2345 32.9525 28.9843 32.5804 25.9707 31.8257Z" fill="#B1604E"/>
</g>
<path d="M5.20443 19.5695C5.72898 29.317 13.5562 37.3957 22.7411 37.3532C31.9259 37.3106 38.7658 29.0619 37.7886 19.1337C36.8321 9.56682 28.8918 2.12595 20.0874 2.25351C11.2831 2.38107 4.71073 10.0664 5.20443 19.5695Z" fill="#401A00"/>
<path d="M6.45925 19.4526C6.99409 28.4454 14.2145 35.8438 22.6279 35.8225C31.0414 35.8012 37.4698 28.2222 36.6264 19.1337C35.7933 10.1834 28.3981 3.18896 20.1697 3.3803C11.9414 3.57164 5.94498 10.6298 6.45925 19.4526Z" fill="#CD7F33"/>
<path d="M8.56776 19.4313C9.04089 27.1379 15.2533 33.4627 22.4839 33.4308C29.7146 33.3989 35.1556 26.9359 34.4459 19.1337C33.7362 11.3314 27.4312 5.41057 20.3754 5.55938C13.3196 5.7082 8.10492 11.8522 8.56776 19.4313Z" fill="#316D4E"/>
<path d="M13.3711 19.3675C13.5067 21.6751 14.4747 23.8461 16.0838 25.452C17.6929 27.0579 19.8261 27.9819 22.0622 28.0415C23.1386 28.0272 24.1999 27.7772 25.1759 27.3078C26.1519 26.8384 27.0204 26.1604 27.7242 25.3186C28.428 24.4767 28.9509 23.4901 29.2586 22.424C29.5662 21.3579 29.6515 20.2364 29.5089 19.1337C29.3353 16.8466 28.3436 14.7085 26.7272 13.1362C25.1108 11.5639 22.9857 10.6704 20.7663 10.6298C19.7099 10.6541 18.67 10.9053 17.7128 11.3676C16.7556 11.83 15.9019 12.4932 15.2063 13.3151C14.5107 14.1371 13.9882 15.0997 13.6723 16.1417C13.3563 17.1837 13.2537 18.2823 13.3711 19.3675Z" fill="#D2822C"/>
<g style="mix-blend-mode:screen" opacity="0.32">
<path d="M21.5994 18.0707C20.9617 16.9439 20.3137 15.8384 19.6452 14.7223C19.172 13.9463 18.7709 13.0534 18.2669 12.2562C19.0924 11.8601 19.9899 11.6499 20.9 11.6397C22.1427 11.6275 23.3665 11.9538 24.4484 12.5857C24.0904 13.4993 23.6604 14.381 23.1628 15.2219C22.5251 16.1042 22.0314 17.0715 21.5994 18.0707Z" fill="#D79132"/>
</g>
<g style="mix-blend-mode:screen" opacity="0.32">
<path d="M20.828 19.9628C21.188 19.8778 21.5582 19.8034 21.9182 19.7502C22.4016 20.3987 24.7159 25.0652 25.2816 25.6604C24.2917 26.2903 23.1526 26.625 21.9902 26.6277C21.0253 26.6351 20.0692 26.4361 19.1823 26.0431C19.1823 26.0431 20.3549 21.3979 20.828 19.9628Z" fill="#D79132"/>
</g>
<path d="M10.5117 20.7069C10.6227 21.3999 10.7878 22.0824 11.0054 22.7478L8.74261 23.8108C8.39254 22.812 8.14098 21.7792 7.99178 20.7282L10.5117 20.7069Z" fill="#CA1C18"/>
<path d="M31.8848 15.7853L34.1682 14.7223C34.5518 15.7177 34.8378 16.7505 35.0219 17.8049H32.4505C32.3133 17.1175 32.1242 16.4422 31.8848 15.7853Z" fill="#CA1C18"/>
<path d="M10.3369 18.0707H7.83749C7.86603 17.0636 7.99704 16.0625 8.22834 15.0837L10.6043 16.0829C10.4643 16.7372 10.3749 17.4018 10.3369 18.0707Z" fill="#CA1C18"/>
<path d="M32.6562 20.4518H35.2378C35.2558 21.5225 35.1593 22.592 34.9499 23.6407L32.4608 22.5777C32.5868 21.8765 32.6522 21.165 32.6562 20.4518Z" fill="#CA1C18"/>
<path d="M31.7305 24.9907L34.2196 26.0537C33.8425 26.9874 33.3665 27.8751 32.8002 28.7005L30.7431 26.7234C31.1212 26.1771 31.4516 25.5973 31.7305 24.9907Z" fill="#CA1C18"/>
<path d="M13.8545 10.1409L11.9722 8.29126C12.6545 7.62113 13.4105 7.03603 14.2247 6.54797L15.3561 8.99283C14.8218 9.32597 14.3191 9.71034 13.8545 10.1409Z" fill="#CA1C18"/>
<path d="M29.4986 11.6928L31.134 9.74756C31.8312 10.5352 32.4545 11.3894 32.9956 12.2987L30.7226 13.3617C30.3605 12.771 29.951 12.2128 29.4986 11.6928Z" fill="#CA1C18"/>
<path d="M17.4852 7.97236L16.3538 5.53813C17.2518 5.21052 18.1839 4.99289 19.1309 4.88971L19.3263 7.54716C18.7007 7.62653 18.084 7.76894 17.4852 7.97236Z" fill="#CA1C18"/>
<path d="M21.7228 7.494L21.5171 4.83655C22.4922 4.9108 23.4573 5.08891 24.397 5.36804L23.6565 7.85542C23.0229 7.67914 22.376 7.55825 21.7228 7.494Z" fill="#CA1C18"/>
<path d="M11.314 13.6912L8.97917 12.7558C9.35776 11.8407 9.8375 10.9739 10.4088 10.1727L12.3425 11.9798C11.9511 12.5175 11.6069 13.0902 11.314 13.6912Z" fill="#CA1C18"/>
<path d="M25.9398 8.80147L26.7421 6.30347C27.6302 6.77232 28.4708 7.33137 29.2517 7.97235L27.6266 9.90697C27.0961 9.48922 26.5317 9.11936 25.9398 8.80147Z" fill="#CA1C18"/>
<path d="M21.0954 31.3473L21.3011 34.1748C20.2989 34.0771 19.3095 33.8705 18.3492 33.5583L19.1515 30.954C19.7869 31.1442 20.4375 31.2758 21.0954 31.3473Z" fill="#CA1C18"/>
<path d="M16.8167 29.9336L16.0144 32.5379C15.1032 32.0358 14.2449 31.4374 13.4533 30.7521L15.1196 28.7643C15.6509 29.2048 16.2188 29.5961 16.8167 29.9336Z" fill="#CA1C18"/>
<path d="M25.4564 30.9115L26.6598 33.5158C25.7274 33.8466 24.761 34.0642 23.7799 34.1642L23.5639 31.3367C24.2061 31.2555 24.8396 31.1132 25.4564 30.9115Z" fill="#CA1C18"/>
<path d="M13.2682 26.904L11.602 28.8812C10.9237 28.0648 10.3243 27.1819 9.8123 26.245L12.0854 25.182C12.4375 25.7857 12.8329 26.3613 13.2682 26.904Z" fill="#CA1C18"/>
<path d="M29.19 28.7006L31.1957 30.6777C30.4947 31.3814 29.7142 31.9953 28.8712 32.506L27.6575 29.8698C28.2032 29.5313 28.7163 29.1398 29.19 28.7006Z" fill="#CA1C18"/>
<path d="M22.3296 31.4217C22.7422 31.4152 23.1542 31.3869 23.5639 31.3367L23.7799 34.1642C23.3698 34.2072 22.9578 34.2285 22.5456 34.228C22.1342 34.228 21.7125 34.228 21.3011 34.1748L21.0954 31.3473C21.5049 31.3986 21.9171 31.4234 22.3296 31.4217Z" fill="#3C3C3C"/>
<path d="M20.5708 7.44085C20.1718 7.45118 19.7736 7.48311 19.3777 7.53651L19.1309 4.88969C19.5217 4.88969 19.9126 4.81528 20.324 4.80465C20.7354 4.79402 21.1263 4.80465 21.5171 4.80465L21.7228 7.46211C21.3394 7.43541 20.9549 7.42832 20.5708 7.44085Z" fill="#3C3C3C"/>
<path d="M15.1196 28.7643L13.4533 30.752C12.784 30.1861 12.1645 29.56 11.602 28.8812L13.2682 26.9041C13.8255 27.5847 14.4456 28.2077 15.1196 28.7643Z" fill="#3C3C3C"/>
<path d="M27.6266 9.90698L29.2517 7.97235C29.9296 8.50824 30.5595 9.1059 31.134 9.75816L29.4986 11.6928C28.938 11.0303 28.3104 10.4316 27.6266 9.90698Z" fill="#3C3C3C"/>
<path d="M10.3574 19.41C10.3574 19.8458 10.4397 20.2816 10.5117 20.7068H7.99178C7.93007 20.2816 7.88893 19.8458 7.85807 19.41C7.82722 18.9742 7.85807 18.5384 7.85807 18.1132H10.3574C10.2854 18.5384 10.2854 18.9635 10.3574 19.41Z" fill="#3C3C3C"/>
<path d="M32.6151 19.1336C32.6151 18.6872 32.5122 18.2514 32.4299 17.8156H35.0013C35.0733 18.2514 35.135 18.6872 35.1761 19.1336C35.2173 19.5801 35.2378 20.0266 35.2378 20.4624H32.6562C32.6665 20.0266 32.6459 19.5801 32.6151 19.1336Z" fill="#3C3C3C"/>
<path d="M12.3425 11.9798L10.4089 10.1196C10.8715 9.45925 11.395 8.84693 11.9722 8.29126L13.8545 10.1408C13.2871 10.695 12.7801 11.3117 12.3425 11.9798Z" fill="#3C3C3C"/>
<path d="M30.7843 26.7552L32.8414 28.7324C32.3712 29.4252 31.8335 30.0663 31.2368 30.6458L29.19 28.7005C29.8012 28.1267 30.3372 27.4727 30.7843 26.7552Z" fill="#3C3C3C"/>
<path d="M15.3561 8.99282L14.2247 6.54797C14.9027 6.1226 15.6192 5.76659 16.3641 5.48499L17.4852 7.97236C16.738 8.22171 16.023 8.5644 15.3561 8.99282Z" fill="#3C3C3C"/>
<path d="M27.6575 29.8698L28.8712 32.4741C28.1679 32.8991 27.4275 33.255 26.6598 33.537L25.4564 30.9327C26.2302 30.6749 26.9697 30.3178 27.6575 29.8698Z" fill="#3C3C3C"/>
<path d="M23.6565 7.85542L24.4279 5.36804C25.2226 5.61451 25.9965 5.92734 26.7421 6.30347L25.981 8.80147C25.2428 8.39736 24.4631 8.08003 23.6565 7.85542Z" fill="#3C3C3C"/>
<path d="M19.1515 30.954L18.3492 33.5583C17.5424 33.2751 16.7611 32.9194 16.0144 32.4953L16.8167 29.891C17.556 30.3303 18.3388 30.6867 19.1515 30.954Z" fill="#3C3C3C"/>
<path d="M30.7226 13.3935L32.9956 12.3306C33.4408 13.0947 33.826 13.8945 34.1476 14.7223L31.8642 15.7853C31.5651 14.9492 31.1825 14.1476 30.7226 13.3935Z" fill="#3C3C3C"/>
<path d="M12.0854 25.1714L9.81229 26.2344C9.41182 25.454 9.06802 24.6439 8.78375 23.8108L11.0465 22.7478C11.3175 23.5879 11.6654 24.3995 12.0854 25.1714Z" fill="#3C3C3C"/>
<path d="M32.4608 22.5245L34.9499 23.5875C34.7752 24.4331 34.5309 25.2617 34.2196 26.0643L31.7305 25.0013C32.0653 24.2075 32.3104 23.3764 32.4608 22.5245Z" fill="#3C3C3C"/>
<path d="M10.5837 16.0829L8.22835 15.0837C8.41033 14.286 8.66162 13.5068 8.97918 12.7558L11.3448 13.7444C11.0134 14.4945 10.7584 15.2783 10.5837 16.0829Z" fill="#3C3C3C"/>
<path d="M18.812 18.1451L21.2908 18.6447L21.4245 19.2932L19.604 21.0683C19.1378 20.7758 18.7966 20.3111 18.6496 19.7683C18.5025 19.2256 18.5606 18.6453 18.812 18.1451Z" fill="#E0D4C6"/>
<g style="mix-blend-mode:multiply" opacity="0.55">
<path d="M20.1286 20.2924C19.2852 19.7502 19.3572 19.1018 19.5834 18.2939L21.2908 18.6447L21.4245 19.2931L20.2829 20.4093C20.2358 20.3645 20.1841 20.3252 20.1286 20.2924Z" fill="#E4B97D"/>
</g>
<path d="M16.6932 23.9383L17.3206 24.5655L26.0735 14.1908L25.4461 13.5849L16.6932 23.9383Z" fill="#FFC400"/>
<path d="M25.0553 13.2022C24.911 13.4084 24.843 13.6613 24.8638 13.9149C24.8845 14.1684 24.9926 14.4059 25.1684 14.5841C25.252 14.6748 25.3525 14.747 25.4639 14.7963C25.5753 14.8457 25.6952 14.8711 25.8164 14.8711C25.9376 14.8711 26.0575 14.8457 26.1689 14.7963C26.2803 14.747 26.3808 14.6748 26.4644 14.5841C26.6087 14.3779 26.6767 14.1251 26.6559 13.8715C26.6351 13.6179 26.527 13.3804 26.3512 13.2022C26.2669 13.1129 26.1662 13.0419 26.0549 12.9934C25.9436 12.9449 25.824 12.9199 25.7033 12.9199C25.5825 12.9199 25.4629 12.9449 25.3517 12.9934C25.2404 13.0419 25.1396 13.1129 25.0553 13.2022Z" fill="#FFC400"/>
<path d="M16.3127 23.5663C16.1614 23.7729 16.0884 24.0296 16.1073 24.288C16.1262 24.5464 16.2359 24.7887 16.4155 24.9694C16.4983 25.0615 16.5986 25.135 16.7101 25.1852C16.8216 25.2354 16.9419 25.2613 17.0635 25.2613C17.1851 25.2613 17.3055 25.2354 17.4169 25.1852C17.5284 25.135 17.6287 25.0615 17.7115 24.9694C17.8628 24.7628 17.9358 24.5062 17.9169 24.2478C17.8979 23.9894 17.7883 23.747 17.6086 23.5663C17.5259 23.4742 17.4256 23.4008 17.3141 23.3506C17.2026 23.3003 17.0823 23.2744 16.9607 23.2744C16.839 23.2744 16.7187 23.3003 16.6072 23.3506C16.4957 23.4008 16.3955 23.4742 16.3127 23.5663Z" fill="#FFC400"/>
<path d="M16.5595 13.7125L16.0247 14.3396L26.3204 24.4911L26.8552 23.8427L16.5595 13.7125Z" fill="#FFC400"/>
<path d="M27.1844 23.4494C27.1007 23.357 26.9995 23.2834 26.8872 23.233C26.7748 23.1827 26.6537 23.1567 26.5312 23.1567C26.4088 23.1567 26.2877 23.1827 26.1753 23.233C26.063 23.2834 25.9618 23.357 25.8781 23.4494C25.7281 23.6573 25.6568 23.9146 25.6777 24.1731C25.6985 24.4315 25.81 24.6731 25.9913 24.8525C26.0759 24.9452 26.1779 25.019 26.2911 25.0694C26.4043 25.1199 26.5263 25.1459 26.6495 25.1459C26.7728 25.1459 26.8948 25.1199 27.008 25.0694C27.1212 25.019 27.2232 24.9452 27.3078 24.8525C27.4565 24.6434 27.5261 24.3852 27.5033 24.1268C27.4806 23.8683 27.3671 23.6274 27.1844 23.4494Z" fill="#FFC400"/>
<path d="M16.8784 13.3298C16.7966 13.2397 16.6978 13.1679 16.5882 13.1188C16.4785 13.0697 16.3602 13.0444 16.2407 13.0444C16.1212 13.0444 16.0029 13.0697 15.8932 13.1188C15.7835 13.1679 15.6848 13.2397 15.603 13.3298C15.4601 13.5339 15.3921 13.7838 15.4109 14.035C15.4298 14.2861 15.5343 14.5222 15.7058 14.7011C15.7876 14.7912 15.8864 14.863 15.9961 14.9121C16.1058 14.9612 16.224 14.9865 16.3435 14.9865C16.4631 14.9865 16.5813 14.9612 16.691 14.9121C16.8007 14.863 16.8995 14.7912 16.9812 14.7011C17.1241 14.497 17.1921 14.2471 17.1733 13.9959C17.1545 13.7448 17.05 13.5087 16.8784 13.3298Z" fill="#FFC400"/>
<path d="M20.4268 18.0707C20.2014 18.3527 20.0904 18.7139 20.1172 19.0787C20.1441 19.4434 20.3067 19.7832 20.5708 20.0266C20.6863 20.1537 20.8257 20.255 20.9805 20.3243C21.1353 20.3935 21.3021 20.4293 21.4708 20.4293C21.6395 20.4293 21.8064 20.3935 21.9612 20.3243C22.1159 20.255 22.2554 20.1537 22.3708 20.0266C22.5975 19.7444 22.7084 19.3817 22.6795 19.0162C22.6507 18.6506 22.4845 18.3112 22.2165 18.0707C22.102 17.9439 21.9635 17.8428 21.8095 17.7736C21.6556 17.7045 21.4895 17.6688 21.3217 17.6688C21.1538 17.6688 20.9878 17.7045 20.8338 17.7736C20.6799 17.8428 20.5414 17.9439 20.4268 18.0707Z" fill="#FFC400"/>
<path d="M21.2805 18.0707C21.1059 18.0621 20.9341 18.1185 20.7964 18.2297C20.6586 18.3409 20.564 18.4994 20.5297 18.6766C20.5031 18.7567 20.4931 18.8418 20.5003 18.9262C20.5075 19.0106 20.5317 19.0926 20.5715 19.1667C20.6112 19.2408 20.6656 19.3055 20.731 19.3566C20.7965 19.4077 20.8715 19.444 20.9514 19.4632C21.1255 19.4696 21.2963 19.4124 21.4336 19.3016C21.5709 19.1907 21.6661 19.0334 21.7022 18.8573C21.7288 18.7771 21.7389 18.6921 21.7317 18.6076C21.7245 18.5232 21.7002 18.4413 21.6605 18.3672C21.6207 18.293 21.5664 18.2283 21.5009 18.1773C21.4355 18.1262 21.3604 18.0899 21.2805 18.0707Z" fill="#FFF3D9"/>
<g style="mix-blend-mode:multiply" opacity="0.55">
<path d="M6.17125 22.0144C10.3574 23.8852 15.1196 25.9899 19.9949 25.3521C28.2232 24.2891 32.5122 17.3585 33.8288 9.49243C36.1252 12.375 37.5553 15.889 37.9429 19.6014C38.9715 29.5403 32.1419 37.8209 22.8336 37.8528C14.1219 37.8528 6.65467 30.6777 5.34842 21.6636L6.17125 22.0144Z" fill="#9D7A6F"/>
</g>
<path style="mix-blend-mode:overlay" opacity="0.85" d="M25.9911 39.1603L26.3408 39.0752C34.9702 37.3 40.8535 28.9237 39.8969 19.0486C39.4646 14.5139 37.6338 10.2427 34.6746 6.86478C31.7153 3.48686 27.7842 1.18095 23.4608 0.287018L22.6277 0.14883H22.422L21.7432 0.0531616H21.3318H20.8586H19.9535L19.069 0.106311H18.9353C18.6267 0.106311 18.3181 0.106311 18.0096 0.191349H17.8141C10.2852 0.318907 3.30142 6.16531 0.874062 13.755C-0.507445 18.5704 -0.231202 23.7318 1.65575 28.3604C2.69466 30.9607 4.29133 33.2832 6.32534 35.1528L6.92189 35.6843L7.08646 35.8119L7.60073 36.2158L7.78586 36.354C8.01214 36.5241 8.24871 36.6835 8.48527 36.843C8.89669 37.1193 9.31839 37.3744 9.7401 37.6083L10.3778 37.9485C10.6555 38.0866 10.9332 38.2248 11.2212 38.3418C13.8534 39.4854 16.6872 40.0501 19.5421 40C20.7432 39.98 21.9419 39.8842 23.1317 39.713L23.7694 39.6067C24.5172 39.4995 25.2589 39.3505 25.9911 39.1603Z" fill="url(#paint0_radial_105_2769)"/>
<defs>
<radialGradient id="paint0_radial_105_2769" cx="0" cy="0" r="1" gradientUnits="userSpaceOnUse" gradientTransform="translate(20.2852 19.5657) scale(19.4826 20.135)">
<stop offset="0.04" stop-color="#FFE1C7"/>
<stop offset="0.19" stop-color="#FCDDC3"/>
<stop offset="0.35" stop-color="#F2D0B7"/>
<stop offset="0.52" stop-color="#E3BBA3"/>
<stop offset="0.69" stop-color="#CD9D87"/>
<stop offset="0.86" stop-color="#B17764"/>
<stop offset="1" stop-color="#955141"/>
</radialGradient>
</defs>
</svg>
