<svg width="25" height="24" viewBox="0 0 25 24" fill="none" xmlns="http://www.w3.org/2000/svg">
<g opacity="0.2" clip-path="url(#clip0_1_1205)">
<path d="M23.3333 11.1867C23.5811 11.0021 23.7649 10.7446 23.8589 10.4503C23.953 10.156 23.9525 9.8396 23.8577 9.54554C23.7629 9.25148 23.5784 8.99448 23.3301 8.81056C23.0818 8.62665 22.7822 8.52504 22.4733 8.52L16.4733 8.29333C16.4438 8.2913 16.4155 8.28077 16.3919 8.26303C16.3682 8.24529 16.3502 8.22108 16.34 8.19333L14.2666 2.59333C14.1625 2.30843 13.9733 2.06241 13.7246 1.8886C13.476 1.71478 13.18 1.62156 12.8766 1.62156C12.5733 1.62156 12.2773 1.71478 12.0286 1.8886C11.78 2.06241 11.5908 2.30843 11.4866 2.59333L9.41997 8.21333C9.40976 8.24108 9.39174 8.26529 9.36808 8.28303C9.34442 8.30077 9.31614 8.3113 9.28664 8.31333L3.28664 8.54C2.97771 8.54505 2.67811 8.64665 2.42984 8.83056C2.18157 9.01448 1.99708 9.27148 1.90225 9.56554C1.80742 9.8596 1.80699 10.176 1.90103 10.4703C1.99507 10.7646 2.17887 11.0221 2.42664 11.2067L7.13331 14.9067C7.15686 14.9252 7.17447 14.9502 7.18395 14.9787C7.19343 15.0071 7.19436 15.0377 7.18664 15.0667L5.56664 20.8067C5.48269 21.099 5.49083 21.41 5.58993 21.6975C5.68904 21.985 5.87431 22.235 6.12054 22.4135C6.36677 22.592 6.662 22.6903 6.96608 22.695C7.27015 22.6998 7.5683 22.6107 7.81997 22.44L12.7933 19.1067C12.8178 19.0898 12.8469 19.0807 12.8766 19.0807C12.9064 19.0807 12.9355 19.0898 12.96 19.1067L17.9333 22.44C18.1816 22.6166 18.4787 22.7114 18.7833 22.7114C19.088 22.7114 19.385 22.6166 19.6333 22.44C19.8796 22.2632 20.065 22.0144 20.1641 21.7279C20.2632 21.4414 20.2711 21.1312 20.1866 20.84L18.5533 15.08C18.5447 15.0511 18.5451 15.0202 18.5547 14.9916C18.5642 14.9629 18.5824 14.9379 18.6066 14.92L23.3333 11.1867Z" fill="#0D0210"/>
</g>
<defs>
<clipPath id="clip0_1_1205">
<rect width="24" height="24" fill="white" transform="translate(0.666656)"/>
</clipPath>
</defs>
</svg>
