<svg width="24" height="24" viewBox="0 0 24 24" fill="none" xmlns="http://www.w3.org/2000/svg">
<path d="M6.4208 22.4282L6.30347 23.1689L6.30347 23.1689L6.4208 22.4282ZM1.57182 17.5792L2.31258 17.4619L2.31258 17.4619L1.57182 17.5792ZM22.4282 17.5792L23.1689 17.6965L23.1689 17.6965L22.4282 17.5792ZM17.5792 22.4282L17.6965 23.1689L17.6965 23.1689L17.5792 22.4282ZM21.9334 10.3829C21.6847 10.0517 21.2145 9.98489 20.8833 10.2337C20.5521 10.4824 20.4853 10.9526 20.7341 11.2838L21.9334 10.3829ZM3.26591 11.2838C3.51468 10.9526 3.44786 10.4824 3.11667 10.2337C2.78548 9.98489 2.31533 10.0517 2.06656 10.3829L3.26591 11.2838ZM12.75 1.5C12.75 1.08579 12.4142 0.75 12 0.75C11.5858 0.75 11.25 1.08579 11.25 1.5H12.75ZM7.92102 12.7007C7.66367 12.3761 7.19193 12.3216 6.86736 12.579C6.54279 12.8363 6.4883 13.3081 6.74565 13.6326L7.92102 12.7007ZM8.96415 15.2235L8.37647 15.6894L8.37647 15.6894L8.96415 15.2235ZM15.0358 15.2235L14.4482 14.7575L14.4482 14.7575L15.0358 15.2235ZM17.2543 13.6326C17.5117 13.3081 17.4572 12.8363 17.1326 12.579C16.8081 12.3216 16.3363 12.3761 16.079 12.7007L17.2543 13.6326ZM11.7076 17.8101L11.5895 18.5508L11.5896 18.5508L11.7076 17.8101ZM12.2924 17.8101L12.4104 18.5508L12.4105 18.5508L12.2924 17.8101ZM21.75 14.3333V15.5H23.25V14.3333H21.75ZM15.5 21.75H8.5V23.25H15.5V21.75ZM2.25 15.5V14.3333H0.75V15.5H2.25ZM8.5 21.75C7.3875 21.75 6.91857 21.7477 6.53812 21.6874L6.30347 23.1689C6.82991 23.2523 7.44482 23.25 8.5 23.25V21.75ZM0.75 15.5C0.75 16.5552 0.747672 17.1701 0.831052 17.6965L2.31258 17.4619C2.25233 17.0814 2.25 16.6125 2.25 15.5H0.75ZM6.53812 21.6874C4.363 21.3429 2.65709 19.637 2.31258 17.4619L0.831052 17.6965C1.27721 20.5135 3.48651 22.7228 6.30347 23.1689L6.53812 21.6874ZM21.75 15.5C21.75 16.6125 21.7477 17.0814 21.6874 17.4619L23.1689 17.6965C23.2523 17.1701 23.25 16.5552 23.25 15.5H21.75ZM15.5 23.25C16.5552 23.25 17.1701 23.2523 17.6965 23.1689L17.4619 21.6874C17.0814 21.7477 16.6125 21.75 15.5 21.75V23.25ZM21.6874 17.4619C21.3429 19.637 19.637 21.3429 17.4619 21.6874L17.6965 23.1689C20.5135 22.7228 22.7228 20.5135 23.1689 17.6965L21.6874 17.4619ZM23.25 14.3333C23.25 12.8521 22.7599 11.4833 21.9334 10.3829L20.7341 11.2838C21.3722 12.1333 21.75 13.1881 21.75 14.3333H23.25ZM2.25 14.3333C2.25 13.1881 2.62782 12.1333 3.26591 11.2838L2.06656 10.3829C1.24005 11.4833 0.75 12.8521 0.75 14.3333H2.25ZM11.25 1.5V16.6667H12.75V1.5H11.25ZM6.74565 13.6326L8.37647 15.6894L9.55184 14.7575L7.92102 12.7007L6.74565 13.6326ZM15.6235 15.6894L17.2543 13.6326L16.079 12.7007L14.4482 14.7575L15.6235 15.6894ZM8.37647 15.6894C9.01536 16.4952 9.53362 17.1507 9.99499 17.6138C10.4597 18.0804 10.9598 18.4504 11.5895 18.5508L11.8256 17.0695C11.6628 17.0435 11.4414 16.9404 11.0577 16.5552C10.6706 16.1667 10.2135 15.592 9.55184 14.7575L8.37647 15.6894ZM14.4482 14.7575C13.7865 15.592 13.3294 16.1667 12.9423 16.5552C12.5586 16.9404 12.3372 17.0435 12.1744 17.0695L12.4105 18.5508C13.0402 18.4504 13.5403 18.0804 14.005 17.6138C14.4664 17.1507 14.9846 16.4952 15.6235 15.6894L14.4482 14.7575ZM11.5896 18.5508C11.7255 18.5725 11.8627 18.5833 12 18.5833L12 17.0833C11.942 17.0833 11.8838 17.0787 11.8256 17.0695L11.5896 18.5508ZM12 18.5833C12.1373 18.5833 12.2745 18.5725 12.4104 18.5508L12.1744 17.0695C12.1162 17.0787 12.058 17.0833 12 17.0833L12 18.5833ZM11.25 16.6667V17.8333H12.75V16.6667H11.25Z" fill="white"/>
</svg>
