<svg width="30" height="30" viewBox="0 0 30 30" fill="none" xmlns="http://www.w3.org/2000/svg">
<path d="M11.2484 10.4741L11.8682 10.8965L11.2484 10.4741ZM17.0132 11.1455L17.4063 10.5068L17.4063 10.5068L17.0132 11.1455ZM13.0869 9.34261L13.0034 8.59727L13.0869 9.34261ZM13.0869 20.6575L13.0034 21.4028L13.0869 20.6575ZM11.2484 19.526L10.6287 19.9484L11.2484 19.526ZM20.4411 16.1315L19.749 15.8424L20.4411 16.1315ZM20.4411 13.8686L19.749 14.1577L20.4411 13.8686ZM28.4167 15C28.4167 22.4099 22.4099 28.4167 15 28.4167V29.9167C23.2383 29.9167 29.9167 23.2383 29.9167 15H28.4167ZM15 28.4167C7.59022 28.4167 1.58337 22.4099 1.58337 15H0.083374C0.083374 23.2383 6.76179 29.9167 15 29.9167V28.4167ZM1.58337 15C1.58337 7.59022 7.59022 1.58337 15 1.58337V0.083374C6.76179 0.083374 0.083374 6.76179 0.083374 15H1.58337ZM15 1.58337C22.4099 1.58337 28.4167 7.59022 28.4167 15H29.9167C29.9167 6.76179 23.2383 0.083374 15 0.083374V1.58337ZM11.5 15C11.5 13.7212 11.5007 12.8109 11.5596 12.1269C11.619 11.4369 11.7308 11.098 11.8682 10.8965L10.6287 10.0517C10.2677 10.5813 10.1303 11.2405 10.0651 11.9983C9.99938 12.7619 10 13.749 10 15L11.5 15ZM17.4063 10.5068C16.3918 9.88241 15.5853 9.38511 14.9264 9.06122C14.2727 8.73988 13.6442 8.52548 13.0034 8.59727L13.1704 10.0879C13.3729 10.0653 13.6798 10.1199 14.2647 10.4074C14.8443 10.6923 15.5793 11.1437 16.6201 11.7842L17.4063 10.5068ZM11.8682 10.8965C12.1858 10.4305 12.6626 10.1448 13.1704 10.0879L13.0034 8.59727C12.0402 8.70519 11.1805 9.24204 10.6287 10.0517L11.8682 10.8965ZM16.6201 18.2158C15.5793 18.8564 14.8443 19.3078 14.2647 19.5927C13.6798 19.8802 13.3729 19.9348 13.1704 19.9121L13.0034 21.4028C13.6442 21.4746 14.2727 21.2602 14.9264 20.9389C15.5853 20.615 16.3918 20.1177 17.4063 19.4933L16.6201 18.2158ZM10 15C10 16.2511 9.99938 17.2381 10.0651 18.0018C10.1303 18.7596 10.2677 19.4187 10.6287 19.9484L11.8682 19.1036C11.7308 18.9021 11.619 18.5632 11.5596 17.8732C11.5007 17.1891 11.5 16.2788 11.5 15L10 15ZM13.1704 19.9121C12.6626 19.8552 12.1858 19.5696 11.8682 19.1036L10.6287 19.9484C11.1805 20.758 12.0402 21.2949 13.0034 21.4028L13.1704 19.9121ZM17.4063 19.4933C18.4212 18.8687 19.228 18.3731 19.8198 17.9274C20.4114 17.4818 20.8833 17.0187 21.1331 16.4205L19.749 15.8424C19.654 16.07 19.4396 16.3359 18.9174 16.7292C18.3953 17.1224 17.6606 17.5755 16.6201 18.2158L17.4063 19.4933ZM16.6201 11.7842C17.6606 12.4246 18.3953 12.8777 18.9174 13.2709C19.4396 13.6641 19.654 13.9301 19.749 14.1577L21.1331 13.5795C20.8833 12.9814 20.4114 12.5183 19.8198 12.0726C19.228 11.627 18.4212 11.1314 17.4063 10.5068L16.6201 11.7842ZM21.1331 16.4205C21.5112 15.5154 21.5112 14.4847 21.1331 13.5795L19.749 14.1577C19.9726 14.6929 19.9726 15.3072 19.749 15.8424L21.1331 16.4205Z" fill="white"/>
</svg>
