<svg width="30" height="30" viewBox="0 0 28 21" fill="none" xmlns="http://www.w3.org/2000/svg">
<path d="M19.8333 15.3531L20.3 14.8864C20.3698 14.8166 20.4047 14.7817 20.4338 14.7517C22.6337 12.4879 22.6337 8.8849 20.4338 6.62111C20.4047 6.59115 20.3698 6.55624 20.3 6.48641L19.8333 6.01974M22.1666 18.8531L22.9833 18.0364C23.6801 17.3396 24.0285 16.9912 24.2959 16.6712C27.1911 13.2066 27.1911 8.16623 24.2959 4.70157C24.0285 4.3816 23.6801 4.03318 22.9833 3.33641L22.1666 2.51974M8.06741 15.5405L9.2294 16.4982C12.0553 18.8272 13.4682 19.9917 14.6529 19.6464C14.888 19.5779 15.1109 19.4728 15.3134 19.3349C16.3333 18.6403 16.3333 16.8093 16.3333 13.1474V8.22542C16.3333 4.56349 16.3333 2.73252 15.3134 2.03792C15.1109 1.90005 14.888 1.79492 14.6529 1.72638C13.4682 1.38108 12.0553 2.54559 9.2294 4.87459L8.06741 5.83228C7.84118 6.01874 7.72806 6.11196 7.61367 6.1972C6.68463 6.8895 5.57048 7.28947 4.41325 7.3461C4.27077 7.35307 4.12418 7.35307 3.83101 7.35307C3.52355 7.35307 3.36982 7.35307 3.24049 7.36754C2.15728 7.48875 1.3023 8.34373 1.1811 9.42694C1.16663 9.55627 1.16663 9.71 1.16663 10.0175V11.3554C1.16663 11.6628 1.16663 11.8165 1.1811 11.9459C1.3023 13.0291 2.15728 13.8841 3.24049 14.0053C3.36982 14.0197 3.52355 14.0197 3.83101 14.0197C4.12418 14.0197 4.27077 14.0197 4.41325 14.0267C5.57048 14.0833 6.68464 14.4833 7.61367 15.1756C7.72806 15.2608 7.84118 15.3541 8.06741 15.5405Z" stroke="white" stroke-width="1.5" stroke-linecap="round"/>
</svg>
