<svg width="36" height="36" viewBox="0 0 36 36" fill="none" xmlns="http://www.w3.org/2000/svg">
<path d="M29.0985 1.59877C29.4429 1.23463 29.8569 0.943227 30.3159 0.741796C30.7748 0.540365 31.2695 0.432992 31.7707 0.426022C32.2719 0.419052 32.7694 0.512627 33.2338 0.701217C33.6982 0.889807 34.1201 1.16958 34.4745 1.52401C34.8289 1.87843 35.1087 2.30032 35.2973 2.76472C35.4859 3.22912 35.5795 3.72662 35.5725 4.2278C35.5655 4.72899 35.4582 5.22369 35.2567 5.68267C35.0553 6.14165 34.7639 6.55559 34.3997 6.90002L23.4123 17.8875C23.3977 17.902 23.3862 17.9193 23.3783 17.9383C23.3704 17.9572 23.3663 17.9776 23.3663 17.9981C23.3663 18.0187 23.3704 18.039 23.3783 18.058C23.3862 18.077 23.3977 18.0943 23.4123 18.1088L34.3997 29.0963C34.7527 29.4434 35.0334 29.857 35.2256 30.3131C35.4179 30.7693 35.518 31.259 35.5201 31.754C35.5221 32.2491 35.4262 32.7396 35.2377 33.1973C35.0493 33.6551 34.7721 34.071 34.4221 34.4211C34.0721 34.7712 33.6562 35.0485 33.1985 35.237C32.7408 35.4256 32.2503 35.5217 31.7553 35.5197C31.2602 35.5177 30.7705 35.4178 30.3143 35.2256C29.8581 35.0335 29.4445 34.7529 29.0972 34.4L18.1098 23.4125C18.0952 23.398 18.078 23.3864 18.059 23.3785C18.04 23.3707 18.0197 23.3666 17.9991 23.3666C17.9786 23.3666 17.9582 23.3707 17.9392 23.3785C17.9203 23.3864 17.903 23.398 17.8885 23.4125L6.901 34.4C6.55387 34.7529 6.1403 35.0336 5.68414 35.2259C5.22798 35.4182 4.73827 35.5183 4.24325 35.5203C3.74823 35.5224 3.25769 35.4264 2.79994 35.238C2.34219 35.0495 1.92628 34.7723 1.5762 34.4223C1.22612 34.0723 0.948806 33.6565 0.760245 33.1988C0.571684 32.7411 0.475611 32.2506 0.477568 31.7555C0.479526 31.2605 0.579474 30.7708 0.771648 30.3146C0.963822 29.8584 1.24442 29.4447 1.59725 29.0975L12.5848 18.11C12.5993 18.0955 12.6108 18.0783 12.6187 18.0593C12.6266 18.0403 12.6307 18.0199 12.6307 17.9994C12.6307 17.9788 12.6266 17.9585 12.6187 17.9395C12.6108 17.9205 12.5993 17.9033 12.5848 17.8888L1.59725 6.90127C0.903368 6.19616 0.516216 5.24542 0.520127 4.25616C0.524038 3.2669 0.918696 2.31925 1.61813 1.61965C2.31757 0.920044 3.26512 0.525163 4.25439 0.521018C5.24365 0.516874 6.19448 0.903802 6.89975 1.59752L17.8873 12.585C17.9018 12.5996 17.919 12.6111 17.938 12.619C17.957 12.6269 17.9773 12.6309 17.9979 12.6309C18.0184 12.6309 18.0388 12.6269 18.0578 12.619C18.0767 12.6111 18.094 12.5996 18.1085 12.585L29.096 1.59752L29.0985 1.59877Z" fill="white"/>
</svg>
