<svg width="27" height="28" viewBox="0 0 27 28" fill="none" xmlns="http://www.w3.org/2000/svg">
<g clip-path="url(#clip0_449_16917)">
<path d="M14.884 4.04409L17.3653 9.05745C17.4378 9.20061 17.5434 9.32441 17.6735 9.41854C17.8035 9.51266 17.9542 9.57439 18.113 9.59858L23.6574 10.394C23.8415 10.4196 24.0146 10.4964 24.157 10.6158C24.2994 10.7351 24.4052 10.892 24.4624 11.0686C24.5196 11.2452 24.5259 11.4343 24.4804 11.6142C24.435 11.7942 24.3397 11.9577 24.2055 12.0861L20.2047 15.9664C20.0923 16.0808 20.0091 16.2206 19.9621 16.3738C19.9151 16.5271 19.9057 16.6894 19.9346 16.8471L20.8842 22.3554C20.917 22.5379 20.8976 22.7259 20.8284 22.898C20.7591 23.07 20.6428 23.2191 20.4927 23.3282C20.3427 23.4374 20.1648 23.5022 19.9796 23.5152C19.7944 23.5282 19.6093 23.489 19.4453 23.4019L14.4904 20.8092C14.348 20.7335 14.1892 20.6937 14.0278 20.6933C13.8665 20.6929 13.7075 20.7319 13.5647 20.8069L8.59375 23.4338C8.42988 23.5193 8.2454 23.5576 8.06097 23.5443C7.87654 23.5311 7.69945 23.4668 7.54953 23.3588C7.39962 23.2507 7.2828 23.1031 7.21217 22.9324C7.14155 22.7618 7.11989 22.5749 7.14964 22.3927L8.08643 16.8996C8.11385 16.7417 8.1019 16.5795 8.05163 16.4273C8.00136 16.275 7.91432 16.1375 7.7982 16.0269L3.79398 12.1045C3.65877 11.9781 3.56178 11.8164 3.51405 11.6378C3.46631 11.4591 3.46975 11.2706 3.52397 11.0938C3.57818 10.917 3.681 10.7589 3.82073 10.6376C3.96046 10.5162 4.13149 10.4364 4.31438 10.4073L9.88302 9.60254C10.0421 9.57817 10.193 9.51614 10.3231 9.42163C10.4532 9.32713 10.5588 9.20289 10.631 9.0593L13.0933 4.07082C13.1725 3.90193 13.2976 3.75867 13.4545 3.65741C13.6113 3.55615 13.7935 3.50097 13.9802 3.49819C14.167 3.4954 14.3508 3.54511 14.5106 3.64164C14.6704 3.73817 14.7998 3.87763 14.884 4.04409Z" fill="#AFAFAF"/>
<path d="M14.6624 3.28768L17.1438 8.30104C17.2154 8.44482 17.3208 8.56914 17.451 8.66338C17.5812 8.75762 17.7323 8.81896 17.8914 8.84217L23.4358 9.63755C23.6186 9.66532 23.7901 9.74336 23.931 9.86293C24.0718 9.9825 24.1766 10.1389 24.2335 10.3145C24.2904 10.4902 24.2972 10.6782 24.2531 10.8575C24.209 11.0368 24.1158 11.2003 23.9839 11.3297L19.9889 15.2118C19.8752 15.3253 19.7912 15.465 19.7441 15.6185C19.697 15.7721 19.6884 15.9348 19.7189 16.0924L20.6744 21.6026C20.7071 21.7851 20.6877 21.9731 20.6185 22.1451C20.5492 22.3171 20.4329 22.4662 20.2828 22.5754C20.1328 22.6845 19.9549 22.7493 19.7697 22.7624C19.5845 22.7754 19.3994 22.7361 19.2354 22.6491L14.2805 20.0564C14.1386 19.9819 13.9808 19.943 13.8206 19.9429C13.6604 19.9428 13.5025 19.9816 13.3606 20.0559L8.40268 22.6612C8.24072 22.7546 8.05555 22.8003 7.86865 22.793C7.68174 22.7856 7.50075 22.7255 7.34665 22.6197C7.19254 22.5138 7.07165 22.3665 6.99796 22.1948C6.92428 22.0232 6.90082 21.8342 6.93032 21.6497L7.87021 16.1257C7.89708 15.9648 7.88336 15.7997 7.83029 15.6453C7.77721 15.491 7.68647 15.3523 7.56624 15.2418L3.57239 11.3481C3.4393 11.2194 3.34504 11.0561 3.30035 10.8766C3.25566 10.6971 3.26233 10.5086 3.31959 10.3327C3.37686 10.1568 3.48242 10.0005 3.62428 9.88151C3.76613 9.76255 3.93858 9.68573 4.122 9.65979L9.66143 8.84613C9.82077 8.82563 9.97246 8.76575 10.1028 8.67191C10.2331 8.57806 10.3378 8.45323 10.4076 8.30873L12.8758 3.32203C12.9529 3.15194 13.0767 3.00715 13.2329 2.90445C13.3891 2.80175 13.5712 2.74533 13.7582 2.74173C13.9452 2.73814 14.1293 2.78751 14.2894 2.88414C14.4494 2.98076 14.5787 3.12068 14.6624 3.28768Z" fill="#ACACAC"/>
<path d="M12.9773 7.03346C12.7734 7.69836 12.3209 8.15328 12.0248 8.05638C11.7286 7.95949 11.6105 7.32374 11.8144 6.65885C12.0183 5.99395 12.465 5.53725 12.7687 5.6301C13.0725 5.72295 13.1959 6.34119 12.9773 7.03346Z" fill="white"/>
<path d="M13.3002 5.16707C13.2782 5.2347 13.2366 5.2943 13.1806 5.33832C13.1247 5.38235 13.0569 5.40883 12.9859 5.41441C12.9149 5.42 12.8439 5.40443 12.7817 5.36969C12.7196 5.33495 12.6692 5.28259 12.6368 5.21923C12.6045 5.15587 12.5917 5.08436 12.6 5.01374C12.6084 4.94312 12.6375 4.87657 12.6838 4.82248C12.73 4.7684 12.7913 4.72922 12.8598 4.7099C12.9284 4.69059 13.0011 4.69199 13.0689 4.71395C13.1139 4.72853 13.1555 4.75182 13.1915 4.78249C13.2275 4.81315 13.257 4.85059 13.2785 4.89267C13.3 4.93475 13.313 4.98064 13.3167 5.02772C13.3204 5.0748 13.3148 5.12216 13.3002 5.16707Z" fill="white"/>
<path d="M20.155 20.8186C20.2692 21.2171 20.1494 21.6078 19.8903 21.6818C19.6313 21.7557 19.3062 21.5032 19.2032 21.089C19.1002 20.6747 19.2088 20.2997 19.4697 20.2199C19.7305 20.1402 20.0368 20.4124 20.155 20.8186Z" fill="white"/>
<g style="mix-blend-mode:overlay" opacity="0.4">
<path d="M9.06106 16.075C13.9113 16.0714 17.9015 12.9342 18.4052 8.91623L17.8912 8.84206C17.7321 8.81885 17.581 8.7575 17.4508 8.66326C17.3206 8.56903 17.2152 8.4447 17.1436 8.30093L14.6622 3.28756C14.5803 3.12172 14.4534 2.98216 14.296 2.88474C14.1386 2.78733 13.9569 2.73597 13.7717 2.73651C13.5865 2.73705 13.4052 2.78947 13.2483 2.8878C13.0915 2.98613 12.9654 3.12644 12.8845 3.29275L10.4074 8.30861C10.3376 8.45311 10.2329 8.57795 10.1026 8.67179C9.97227 8.76563 9.82057 8.82552 9.66123 8.84601L4.12181 9.65968C3.93838 9.68562 3.76594 9.76244 3.62408 9.8814C3.48223 10.0004 3.37666 10.1567 3.3194 10.3326C3.26213 10.5085 3.25547 10.6969 3.30016 10.8764C3.34485 11.0559 3.4391 11.2193 3.5722 11.348L7.56604 15.2417C7.66506 15.3408 7.74214 15.4595 7.7923 15.5902C7.84246 15.7209 7.86459 15.8607 7.85726 16.0005C8.25696 16.0462 8.65877 16.071 9.06106 16.075Z" fill="#FFF0F5"/>
</g>
</g>
<defs>
<clipPath id="clip0_449_16917">
<rect width="20.6028" height="21.6382" fill="white" transform="matrix(0.956317 0.292331 -0.293147 0.956067 6.35938 0.424164)"/>
</clipPath>
</defs>
</svg>
