<svg width="27" height="28" viewBox="0 0 27 28" fill="none" xmlns="http://www.w3.org/2000/svg">
<g clip-path="url(#clip0_449_16897)">
<path d="M15.7922 4.04409L18.2735 9.05745C18.346 9.20061 18.4516 9.32441 18.5817 9.41854C18.7117 9.51266 18.8624 9.57439 19.0212 9.59858L24.5656 10.394C24.7497 10.4196 24.9229 10.4964 25.0652 10.6158C25.2076 10.7351 25.3134 10.892 25.3706 11.0686C25.4278 11.2452 25.4341 11.4343 25.3886 11.6142C25.3432 11.7942 25.2479 11.9577 25.1137 12.0861L21.1129 15.9664C21.0005 16.0808 20.9173 16.2206 20.8703 16.3738C20.8233 16.5271 20.8139 16.6894 20.8428 16.8471L21.7925 22.3554C21.8252 22.5379 21.8058 22.7259 21.7366 22.898C21.6673 23.07 21.551 23.2191 21.4009 23.3282C21.2509 23.4374 21.0731 23.5022 20.8878 23.5152C20.7026 23.5282 20.5175 23.489 20.3535 23.4019L15.3986 20.8092C15.2562 20.7335 15.0974 20.6937 14.936 20.6933C14.7747 20.6929 14.6157 20.7319 14.4729 20.8069L9.50195 23.4338C9.33808 23.5193 9.1536 23.5576 8.96917 23.5443C8.78474 23.5311 8.60765 23.4668 8.45773 23.3588C8.30782 23.2507 8.19101 23.1031 8.12038 22.9324C8.04975 22.7618 8.0281 22.5749 8.05785 22.3927L8.99463 16.8996C9.02205 16.7417 9.0101 16.5795 8.95983 16.4273C8.90956 16.275 8.82252 16.1375 8.7064 16.0269L4.70218 12.1045C4.56697 11.9781 4.46998 11.8164 4.42225 11.6378C4.37452 11.4591 4.37795 11.2706 4.43217 11.0938C4.48638 10.917 4.5892 10.7589 4.72893 10.6376C4.86866 10.5162 5.0397 10.4364 5.22259 10.4073L10.7912 9.60254C10.9503 9.57817 11.1012 9.51614 11.2313 9.42163C11.3614 9.32713 11.467 9.20289 11.5392 9.0593L14.0015 4.07082C14.0807 3.90193 14.2058 3.75867 14.3627 3.65741C14.5195 3.55615 14.7017 3.50097 14.8885 3.49819C15.0752 3.4954 15.259 3.54511 15.4188 3.64164C15.5786 3.73817 15.708 3.87763 15.7922 4.04409Z" fill="#EAB300"/>
<path d="M15.5706 3.28768L18.052 8.30104C18.1236 8.44482 18.229 8.56914 18.3592 8.66338C18.4894 8.75762 18.6405 8.81896 18.7996 8.84217L24.344 9.63755C24.5268 9.66532 24.6983 9.74336 24.8392 9.86293C24.9801 9.9825 25.0848 10.1389 25.1417 10.3145C25.1986 10.4902 25.2054 10.6782 25.1613 10.8575C25.1172 11.0368 25.024 11.2003 24.8921 11.3297L20.8971 15.2118C20.7834 15.3253 20.6994 15.465 20.6523 15.6185C20.6052 15.7721 20.5966 15.9348 20.6271 16.0924L21.5826 21.6026C21.6153 21.7851 21.5959 21.9731 21.5267 22.1451C21.4574 22.3171 21.3411 22.4662 21.191 22.5754C21.041 22.6845 20.8632 22.7493 20.6779 22.7624C20.4927 22.7754 20.3076 22.7361 20.1436 22.6491L15.1887 20.0564C15.0468 19.9819 14.889 19.943 14.7288 19.9429C14.5686 19.9428 14.4107 19.9816 14.2688 20.0559L9.31088 22.6612C9.14892 22.7546 8.96376 22.8003 8.77685 22.793C8.58994 22.7856 8.40895 22.7255 8.25485 22.6197C8.10075 22.5138 7.97985 22.3665 7.90616 22.1948C7.83248 22.0232 7.80903 21.8342 7.83853 21.6497L8.77841 16.1257C8.80528 15.9648 8.79156 15.7997 8.73849 15.6453C8.68542 15.491 8.59467 15.3523 8.47444 15.2418L4.4806 11.3481C4.3475 11.2194 4.25325 11.0561 4.20856 10.8766C4.16386 10.6971 4.17053 10.5086 4.2278 10.3327C4.28506 10.1568 4.39063 10.0005 4.53248 9.88151C4.67434 9.76255 4.84678 9.68573 5.0302 9.65979L10.5696 8.84613C10.729 8.82563 10.8807 8.76575 11.011 8.67191C11.1413 8.57806 11.246 8.45323 11.3158 8.30873L13.784 3.32203C13.8611 3.15194 13.9849 3.00715 14.1411 2.90445C14.2973 2.80175 14.4794 2.74533 14.6664 2.74173C14.8534 2.73814 15.0376 2.78751 15.1976 2.88414C15.3576 2.98076 15.4869 3.12068 15.5706 3.28768Z" fill="#F7D100"/>
<path d="M13.8855 7.03346C13.6816 7.69836 13.2291 8.15328 12.933 8.05638C12.6368 7.95949 12.5187 7.32374 12.7226 6.65885C12.9265 5.99395 13.3732 5.53725 13.6769 5.6301C13.9807 5.72295 14.1041 6.34119 13.8855 7.03346Z" fill="white"/>
<path d="M14.2084 5.16707C14.1864 5.2347 14.1448 5.2943 14.0888 5.33832C14.0329 5.38235 13.9651 5.40883 13.8941 5.41441C13.8231 5.42 13.7521 5.40443 13.6899 5.36969C13.6278 5.33495 13.5774 5.28259 13.545 5.21923C13.5127 5.15587 13.4999 5.08436 13.5082 5.01374C13.5166 4.94312 13.5458 4.87657 13.592 4.82248C13.6382 4.7684 13.6995 4.72922 13.768 4.7099C13.8366 4.69059 13.9093 4.69199 13.9771 4.71395C14.0221 4.72853 14.0637 4.75182 14.0997 4.78249C14.1357 4.81315 14.1652 4.85059 14.1867 4.89267C14.2082 4.93475 14.2212 4.98064 14.2249 5.02772C14.2286 5.0748 14.223 5.12216 14.2084 5.16707Z" fill="white"/>
<path d="M21.0632 20.8186C21.1774 21.2171 21.0576 21.6078 20.7985 21.6818C20.5395 21.7557 20.2144 21.5032 20.1114 21.089C20.0084 20.6747 20.117 20.2997 20.3779 20.2199C20.6387 20.1402 20.945 20.4124 21.0632 20.8186Z" fill="white"/>
<g style="mix-blend-mode:overlay" opacity="0.4">
<path d="M9.96926 16.075C14.8195 16.0714 18.8097 12.9342 19.3134 8.91623L18.7994 8.84206C18.6403 8.81885 18.4892 8.7575 18.359 8.66326C18.2288 8.56903 18.1234 8.4447 18.0518 8.30093L15.5704 3.28756C15.4885 3.12172 15.3616 2.98216 15.2042 2.88474C15.0468 2.78733 14.8651 2.73597 14.6799 2.73651C14.4947 2.73705 14.3134 2.78947 14.1566 2.8878C13.9997 2.98613 13.8736 3.12644 13.7927 3.29275L11.3156 8.30861C11.2458 8.45311 11.1411 8.57795 11.0108 8.67179C10.8805 8.76563 10.7288 8.82552 10.5694 8.84601L5.03001 9.65968C4.84659 9.68562 4.67414 9.76244 4.53229 9.8814C4.39043 10.0004 4.28487 10.1567 4.2276 10.3326C4.17034 10.5085 4.16367 10.6969 4.20836 10.8764C4.25305 11.0559 4.34731 11.2193 4.4804 11.348L8.47425 15.2417C8.57326 15.3408 8.65034 15.4595 8.7005 15.5902C8.75067 15.7209 8.7728 15.8607 8.76546 16.0005C9.16516 16.0462 9.56697 16.071 9.96926 16.075Z" fill="#FFF0F5"/>
</g>
</g>
<defs>
<clipPath id="clip0_449_16897">
<rect width="20.6028" height="21.6382" fill="white" transform="matrix(0.956317 0.292331 -0.293147 0.956067 7.26758 0.424164)"/>
</clipPath>
</defs>
</svg>
