<svg width="10" height="13" viewBox="0 0 10 13" fill="none" xmlns="http://www.w3.org/2000/svg">
<path d="M5.65 1C5.65 0.641015 5.35899 0.35 5 0.35C4.64101 0.35 4.35 0.641015 4.35 1L5.65 1ZM4.54038 11.9596C4.79422 12.2135 5.20578 12.2135 5.45962 11.9596L9.59619 7.82304C9.85003 7.5692 9.85003 7.15765 9.59619 6.90381C9.34235 6.64997 8.9308 6.64997 8.67695 6.90381L5 10.5808L1.32304 6.90381C1.0692 6.64997 0.657646 6.64997 0.403806 6.90381C0.149965 7.15765 0.149965 7.5692 0.403806 7.82304L4.54038 11.9596ZM4.35 1L4.35 11.5L5.65 11.5L5.65 1L4.35 1Z" fill="white"/>
</svg>
