<svg width="25" height="25" viewBox="0 0 25 25" fill="none" xmlns="http://www.w3.org/2000/svg">
<path d="M8.27143 22.4438C7.9785 22.1507 7.81395 21.7534 7.81395 21.3391C7.81395 20.9247 7.9785 20.5274 8.27143 20.2344L16.0058 12.5L8.27143 4.76563C7.98681 4.47093 7.82931 4.07624 7.83288 3.66656C7.83644 3.25688 8.00076 2.86498 8.29046 2.57528C8.58016 2.28558 8.97206 2.12126 9.38174 2.1177C9.79142 2.11414 10.1861 2.27163 10.4808 2.55625L19.3199 11.3953C19.6128 11.6883 19.7773 12.0857 19.7773 12.5C19.7773 12.9143 19.6128 13.3117 19.3199 13.6047L10.4808 22.4438C10.1878 22.7367 9.79043 22.9012 9.37611 22.9012C8.96179 22.9012 8.56444 22.7367 8.27143 22.4438Z" fill="#FF0099"/>
</svg>
