<svg width="24" height="25" viewBox="0 0 24 25" fill="none" xmlns="http://www.w3.org/2000/svg">
<path d="M20.8488 5.45454C21.9527 1.94805 23.1864 0 23.1864 0C23.1864 0 -6.55383 2.987 2.86175 20.3247C16.3033 26.3636 18.3812 13.2468 20.8488 5.45454Z" fill="#D8D8D8"/>
<path d="M21.7557 1.03894C21.7557 1.03894 20.1323 2.20778 17.7947 4.15584C15.457 6.03895 12.47 8.76623 9.74274 11.6883C8.3791 13.1818 7.08041 14.6753 5.97651 16.1688C5.71677 16.5584 5.45702 16.8831 5.19728 17.2727C4.93754 17.6623 4.6778 17.987 4.48299 18.3766C4.22325 18.7013 4.02845 19.0909 3.83364 19.4156C3.63884 19.7403 3.44404 20.1299 3.31417 20.4545C3.11936 20.7792 2.98949 21.1039 2.85962 21.4286C2.72975 21.7532 2.59987 22.013 2.47 22.2727C2.34013 22.5325 2.2752 22.7922 2.21027 23.0519C2.14533 23.3117 2.0804 23.5065 2.01547 23.7013C1.8856 24.0909 1.82065 24.4156 1.82065 24.6753C1.75572 24.8701 1.75573 25 1.75573 25L0.457031 24.7402C0.457031 24.7402 0.457015 24.6104 0.52195 24.3506C0.586886 24.0909 0.651836 23.7662 0.781707 23.3117C0.846642 23.1169 0.911573 22.8571 1.04144 22.5974C1.17131 22.3377 1.23625 22.0779 1.36612 21.7532C1.49599 21.4286 1.62585 21.1688 1.82065 20.8441C1.95052 20.5195 2.14534 20.1948 2.34014 19.8701C2.53495 19.5454 2.72975 19.1558 2.92456 18.8312C3.11936 18.5065 3.37911 18.1169 3.63885 17.7273C3.89859 17.3377 4.15831 17.013 4.41805 16.6234C4.67779 16.2337 5.00248 15.9091 5.26222 15.5195C6.43105 14.026 7.79468 12.5324 9.28818 11.1039C12.1453 8.24673 15.2622 5.71428 17.6648 3.8961C20.0674 2.14285 21.7557 1.03894 21.7557 1.03894Z" fill="#AAAAAA"/>
</svg>
