<svg width="24" height="25" viewBox="0 0 24 25" fill="none" xmlns="http://www.w3.org/2000/svg">
<path d="M21.1183 5.45454C22.2222 1.94805 23.456 0 23.456 0C23.456 0 -6.2843 2.987 3.13129 20.3247C16.5728 26.3636 18.6508 13.2468 21.1183 5.45454Z" fill="#69B42E"/>
<path d="M22.0253 1.03894C22.0253 1.03894 20.4019 2.20778 18.0642 4.15584C15.7266 6.03895 12.7395 8.76623 10.0123 11.6883C8.64863 13.1818 7.34994 14.6753 6.24604 16.1688C5.9863 16.5584 5.72655 16.8831 5.46681 17.2727C5.20707 17.6623 4.94733 17.987 4.75252 18.3766C4.49278 18.7013 4.29798 19.0909 4.10317 19.4156C3.90837 19.7403 3.71357 20.1299 3.5837 20.4545C3.3889 20.7792 3.25902 21.1039 3.12915 21.4286C2.99928 21.7532 2.8694 22.013 2.73953 22.2727C2.60966 22.5325 2.54473 22.7922 2.4798 23.0519C2.41486 23.3117 2.34994 23.5065 2.285 23.7013C2.15513 24.0909 2.09018 24.4156 2.09018 24.6753C2.02525 24.8701 2.02526 25 2.02526 25L0.726563 24.7402C0.726563 24.7402 0.726547 24.6104 0.791482 24.3506C0.856417 24.0909 0.921368 23.7662 1.05124 23.3117C1.11617 23.1169 1.1811 22.8571 1.31097 22.5974C1.44084 22.3377 1.50578 22.0779 1.63565 21.7532C1.76552 21.4286 1.89538 21.1688 2.09018 20.8441C2.22005 20.5195 2.41487 20.1948 2.60968 19.8701C2.80448 19.5454 2.99928 19.1558 3.19409 18.8312C3.38889 18.5065 3.64864 18.1169 3.90838 17.7273C4.16812 17.3377 4.42785 17.013 4.68759 16.6234C4.94733 16.2337 5.27201 15.9091 5.53175 15.5195C6.70058 14.026 8.06421 12.5324 9.55772 11.1039C12.4149 8.24673 15.5318 5.71428 17.9344 3.8961C20.337 2.14285 22.0253 1.03894 22.0253 1.03894Z" fill="#4C8D32"/>
</svg>
