<?xml version="1.0" encoding="utf-8"?>
<!-- Generator: Adobe Illustrator 23.0.6, SVG Export Plug-In . SVG Version: 6.00 Build 0)  -->
<svg version="1.1" id="Layer_1" xmlns="http://www.w3.org/2000/svg" xmlns:xlink="http://www.w3.org/1999/xlink" x="0px" y="0px"
	 viewBox="0 0 80 80" style="enable-background:new 0 0 80 80;" xml:space="preserve">
<style type="text/css">
	.st0{fill:#38C695;}
</style>
<g>
	<g>
		<path class="st0" d="M34.7,54.7l-2.2-0.9V26.3l2.2-0.9 M35,51.2 M35,28.8 M80,40c0,11-3.9,20.5-11.7,28.3C60.5,76.1,51,80,40,80
			c-11,0-20.5-3.9-28.3-11.7C3.9,60.5,0,51,0,40c0-11,3.9-20.5,11.7-28.3C19.5,3.9,29,0,40,0c11,0,20.5,3.9,28.3,11.7
			C76.1,19.5,80,29,80,40L80,40z M77.5,40c0-10.2-3.6-19.1-10.9-26.6C59.1,6.1,50.2,2.5,40,2.5c-10.2,0-19.1,3.6-26.6,10.9
			C6.1,20.9,2.5,29.8,2.5,40c0,10.2,3.6,19.1,10.9,26.6c7.5,7.3,16.4,10.9,26.6,10.9c10.2,0,19.1-3.6,26.6-10.9
			C73.9,59.1,77.5,50.2,77.5,40L77.5,40z"/>
	</g>
</g>
<polyline class="st0" points="43.4,25.3 45.6,26.2 46,53.7 43.8,54.7 "/>
<path class="st0" d="M43.2,28.8"/>
<path class="st0" d="M43.5,51.3"/>
</svg>
