<svg width="90" height="82" viewBox="0 0 90 82" fill="none" xmlns="http://www.w3.org/2000/svg">
<path d="M10.9957 25.2486L11.1947 27.7701C11.2279 28.2346 11.4933 28.6659 11.8914 28.8982L14.0812 30.1921C15.0765 30.7893 14.977 32.2823 13.9153 32.7136L11.5597 33.6758C11.1284 33.8417 10.8298 34.2398 10.7302 34.6711L10.1994 37.1262C9.93397 38.2543 8.50732 38.6192 7.74424 37.7234L6.11852 35.7991C5.81992 35.4342 5.35545 35.2683 4.89097 35.3015L2.36947 35.5337C1.20825 35.6332 0.41199 34.3725 1.04237 33.3772L2.36947 31.2206C2.60172 30.8225 2.63487 30.3248 2.46898 29.9267L1.44048 27.6043C0.975994 26.5426 1.93815 25.3814 3.06619 25.6799L5.52135 26.2771C5.98584 26.3767 6.4503 26.2771 6.78208 25.9454L8.67323 24.2533C9.53585 23.5234 10.9293 24.0874 10.9957 25.2486Z" fill="url(#paint0_linear_1806_1840)"/>
<path d="M9.60188 23.9544C10.2986 23.9544 10.9622 24.4853 11.0285 25.2484L11.2276 27.7699C11.2608 28.2344 11.5262 28.6657 11.9243 28.8979L14.1141 30.1918C15.1094 30.789 15.0099 32.282 13.9482 32.7133L11.5925 33.6755C11.1612 33.8414 10.8626 34.2395 10.7631 34.6708L10.2323 37.126C10.0664 37.8227 9.4692 38.2208 8.83882 38.2208C8.44069 38.2208 8.04253 38.0549 7.77711 37.7232L6.15144 35.7989C5.88602 35.4671 5.48786 35.3012 5.08973 35.3012C5.05655 35.3012 4.99019 35.3012 4.95701 35.3012L2.43552 35.5334C2.40234 35.5334 2.33598 35.5334 2.3028 35.5334C1.20794 35.5334 0.511214 34.339 1.10841 33.3769L2.43552 31.2203C2.66776 30.8222 2.70096 30.3246 2.53507 29.9264L1.50657 27.604C1.07526 26.6418 1.80513 25.6133 2.80046 25.6133C2.9 25.6133 3.03271 25.6133 3.13224 25.6465L5.5874 26.2437C5.68693 26.2769 5.81964 26.2769 5.91917 26.2769C6.25095 26.2769 6.58274 26.1442 6.84816 25.9119L8.73927 24.2199C8.93834 24.054 9.27011 23.9544 9.60188 23.9544ZM9.60188 23.125C9.07104 23.125 8.5402 23.3241 8.10889 23.689L6.21778 25.3811C6.11825 25.4806 5.98555 25.5138 5.81966 25.5138C5.78649 25.5138 5.72012 25.5138 5.68694 25.4806L3.23179 24.8834C3.0659 24.8502 2.86684 24.8171 2.70096 24.8171C1.93787 24.8171 1.24115 25.182 0.843015 25.8456C0.444883 26.4759 0.378528 27.2722 0.677127 27.9689L1.70563 30.2914C1.77198 30.4573 1.77199 30.6563 1.67246 30.8222L0.34535 32.9788C-0.0859592 33.6755 -0.119161 34.5381 0.278971 35.2348C0.677103 35.9316 1.40702 36.3961 2.23646 36.3961C2.30282 36.3961 2.40233 36.3961 2.46869 36.3961L4.99022 36.1638C5.22247 36.1638 5.38835 36.2302 5.48789 36.3629L7.11356 38.2872C7.54487 38.7849 8.17528 39.0834 8.80565 39.0834C9.86734 39.0834 10.7631 38.3535 10.9954 37.325L11.5262 34.8699C11.5594 34.6708 11.6921 34.5381 11.8912 34.4386L14.2468 33.4764C15.043 33.1447 15.5739 32.4147 15.6402 31.5521C15.7066 30.6895 15.2753 29.8932 14.5454 29.4619L12.3556 28.168C12.1898 28.0685 12.0902 27.9026 12.057 27.7035L11.858 25.182C11.7584 24.0208 10.7963 23.125 9.60188 23.125Z" fill="#AD5E00"/>
<path opacity="0.5" d="M7.6149 28.4665C7.41584 28.9642 6.71912 29.1632 6.05557 28.8978C5.39202 28.6324 5.02706 28.002 5.22613 27.5043C5.42519 27.0067 6.12191 26.8076 6.78546 27.073C7.44901 27.3385 7.81397 27.9688 7.6149 28.4665Z" fill="url(#paint1_linear_1806_1840)"/>
<path opacity="0.5" d="M8.90143 27.1064C8.76872 27.405 8.37061 27.5045 8.00565 27.3718C7.6407 27.2059 7.44163 26.8741 7.54116 26.5755C7.67387 26.2769 8.07199 26.1774 8.43694 26.3101C8.80189 26.4428 9.00097 26.8078 8.90143 27.1064Z" fill="url(#paint2_linear_1806_1840)"/>
<path d="M15.9405 47.1123L17.3671 47.809C17.6325 47.9417 17.9311 47.9417 18.1965 47.7758L19.59 46.9796C20.2204 46.6146 21.0166 47.1455 20.9171 47.8754L20.6848 49.4679C20.6517 49.7665 20.7512 50.0651 20.9834 50.2642L22.1778 51.359C22.7087 51.8567 22.4765 52.7525 21.7465 52.8852L20.154 53.1506C19.8554 53.217 19.6232 53.3829 19.4905 53.6483L18.8269 55.1081C18.5283 55.7716 17.5661 55.8048 17.2344 55.1745L16.4713 53.7478C16.3386 53.4824 16.0732 53.3165 15.7746 53.2833L14.182 53.1174C13.4521 53.0511 13.1203 52.1553 13.6512 51.6244L14.746 50.4632C14.9451 50.2642 15.0447 49.9656 14.9783 49.667L14.6465 48.1076C14.5138 47.3777 15.2769 46.7805 15.9405 47.1123Z" fill="url(#paint3_linear_1806_1840)"/>
<path d="M20.0223 46.8802C20.52 46.8802 20.9845 47.3447 20.9181 47.9087L20.6859 49.5013C20.6527 49.7999 20.7522 50.0985 20.9845 50.2975L22.1789 51.3924C22.7097 51.89 22.4775 52.7858 21.7476 52.9186L20.155 53.184C19.8564 53.2503 19.6242 53.4162 19.4915 53.6816L18.8279 55.1415C18.662 55.4732 18.3303 55.6723 17.9985 55.6723C17.6999 55.6723 17.3681 55.5064 17.2022 55.2078L16.4392 53.7812C16.3064 53.5157 16.041 53.3499 15.7424 53.3167L14.1499 53.1508C13.42 53.0844 13.0882 52.1886 13.6191 51.6578L14.7139 50.4966C14.913 50.2975 15.0125 49.9989 14.9462 49.7003L14.6144 48.141C14.4817 47.5438 14.9462 47.0793 15.477 47.0793C15.6097 47.0793 15.7424 47.1125 15.8751 47.1788L17.3018 47.8756C17.4345 47.9419 17.5672 47.9751 17.6999 47.9751C17.8658 47.9751 17.9985 47.9419 18.1312 47.8424L19.5247 47.0461C19.7569 46.9134 19.8896 46.8802 20.0223 46.8802ZM20.0223 46.0508C19.7237 46.0508 19.4251 46.1171 19.1597 46.283L17.7663 47.0793L16.2733 46.3826C16.041 46.283 15.7756 46.2167 15.5102 46.2167C14.9793 46.2167 14.5148 46.4489 14.1831 46.847C13.8513 47.2452 13.7186 47.776 13.8513 48.2737L14.1831 49.833L13.055 51.0606C12.5905 51.5251 12.4578 52.2218 12.6901 52.819C12.9223 53.4494 13.4532 53.8807 14.1167 53.9471L15.7092 54.1129L16.5055 55.5728C16.8041 56.1368 17.3681 56.4686 18.0317 56.4686C18.7284 56.4686 19.3256 56.0704 19.591 55.4732L20.2546 54.0134L21.8803 53.6816C22.5438 53.5821 23.0415 53.1176 23.2406 52.4541C23.4396 51.8237 23.2406 51.1601 22.7429 50.6957L21.5485 49.6008L21.7476 47.9419C21.8139 47.4442 21.6812 46.9466 21.3494 46.5816C21.0176 46.283 20.52 46.0508 20.0223 46.0508Z" fill="#AD5E00"/>
<path opacity="0.5" d="M16.6057 49.9989C16.8047 50.2643 16.7052 50.7288 16.3402 50.9942C15.9753 51.2596 15.5108 51.2596 15.3117 50.9942C15.1127 50.7288 15.2122 50.2643 15.5771 49.9989C15.9421 49.7334 16.4066 49.7334 16.6057 49.9989Z" fill="url(#paint4_linear_1806_1840)"/>
<path opacity="0.5" d="M16.2755 48.871C16.4082 49.0369 16.3419 49.2691 16.1428 49.435C15.9438 49.6009 15.6783 49.6009 15.5456 49.435C15.4129 49.2691 15.4793 49.0369 15.6783 48.871C15.8774 48.7051 16.1428 48.7051 16.2755 48.871Z" fill="url(#paint5_linear_1806_1840)"/>
<path d="M29.4995 33.3102C28.9023 31.9499 27.9733 30.855 27.0775 29.8265L26.978 29.6938C24.6224 26.9401 22.7976 24.5513 21.6032 21.8307C20.2761 18.8115 19.9775 15.726 20.7738 13.2045C21.6364 10.4508 23.992 8.32739 26.4803 8.02879C27.3761 7.92926 28.4378 8.02879 29.6654 8.32739C31.1252 8.72552 32.4191 9.25636 33.4476 9.95309C34.2107 10.4508 35.2392 10.2517 35.7369 9.52178C36.2346 8.7587 36.0355 7.73019 35.3056 7.23252C33.9453 6.30355 32.3528 5.63999 30.4948 5.14233C28.8691 4.71102 27.4425 4.61149 26.1154 4.7442C22.2999 5.17551 18.9158 8.19467 17.6551 12.2092L17.1242 14.233L17.2237 14.1998C16.8256 17.0199 17.2901 20.1386 18.6172 23.1578C20.0771 26.4424 22.2999 29.2625 24.5228 31.8503L24.6224 31.9831C25.3855 32.8789 26.1154 33.7083 26.5135 34.6373C26.8784 35.4999 26.9116 36.3625 26.613 36.9265C26.2813 37.5237 25.3523 37.8223 24.7219 37.5237C24.0916 37.2251 23.7266 36.3625 23.9588 35.699C24.2574 34.8363 23.8261 33.9074 22.9635 33.6088C22.1009 33.3102 21.1719 33.7415 20.8733 34.6041L20.3425 36.6279L20.6411 36.5947C20.807 38.2536 21.8023 39.813 23.3616 40.5097C23.5939 40.6092 23.8593 40.7088 24.0915 40.7751C26.1154 41.306 28.4046 40.4102 29.4663 38.5522C30.2958 37.0924 30.2957 35.1349 29.4995 33.3102Z" fill="url(#paint6_linear_1806_1840)"/>
<path d="M23.5293 42.7988C23.2639 42.7324 23.0317 42.6329 22.7994 42.5334C20.6097 41.538 19.5148 38.8838 20.3111 36.6277C20.6097 35.7651 21.5387 35.3006 22.4013 35.6324C23.2639 35.931 23.6952 36.8932 23.3966 37.7226C23.1644 38.3862 23.5293 39.2488 24.1597 39.5474C24.7901 39.846 25.7191 39.5474 26.0508 38.9502C26.3826 38.3862 26.3494 37.4904 25.9513 36.6609C25.5532 35.7319 24.8233 34.9025 24.0602 34.0067L23.9606 33.874C21.7709 31.2861 19.5148 28.466 18.055 25.1814C16.3961 21.4324 16.0644 17.5506 17.0929 14.2328C18.3536 10.2183 21.7709 7.23234 25.5532 6.76785C26.8803 6.60196 28.3069 6.73467 29.9326 7.16598C31.7906 7.66365 33.3831 8.3272 34.7434 9.25618C35.5065 9.75384 35.7055 10.7823 35.1747 11.5454C34.677 12.3085 33.6485 12.5076 32.8854 11.9767C31.8569 11.28 30.563 10.7492 29.1032 10.351C27.8756 10.0524 26.8139 9.91973 25.9181 10.0524C23.4298 10.351 21.0742 12.4744 20.2115 15.2282C19.4153 17.7497 19.7139 20.8352 21.041 23.8543C22.2354 26.5749 24.0602 28.9637 26.4158 31.7174L26.5153 31.8502C27.4111 32.8787 28.3401 33.9735 28.9373 35.3338C29.7335 37.1586 29.7004 39.1161 28.8709 40.6091C27.8424 42.4338 25.5531 43.3296 23.5293 42.7988Z" fill="url(#paint7_linear_1806_1840)"/>
<path d="M68.2256 43.4626C69.42 42.5668 70.7471 42.0692 72.041 41.6047L72.1737 41.5383C75.591 40.3107 78.3448 39.1163 80.7336 37.3247C83.3878 35.3341 85.1462 32.8126 85.7102 30.2247C86.3074 27.4046 85.3121 24.3855 83.2883 22.8925C82.5584 22.3616 81.5962 21.9303 80.3686 21.5985C78.9088 21.2336 77.5153 21.0677 76.2877 21.1672C75.3919 21.2336 74.5957 20.57 74.4962 19.6742C74.4298 18.7784 75.0934 17.9822 75.9892 17.8826C77.6149 17.7499 79.3733 17.949 81.1981 18.4135C82.8238 18.8448 84.1177 19.442 85.2125 20.2383C88.2981 22.4943 89.7911 26.7743 88.9285 30.8883L88.3976 32.9121L88.3313 32.8458C87.3027 35.5 85.3784 37.9883 82.7242 39.9458C79.8709 42.0692 76.52 43.4626 73.335 44.5907L73.1691 44.657C72.0742 45.0551 71.0125 45.4533 70.2163 46.0505C69.4532 46.6145 69.0219 47.3444 69.0219 48.008C69.0219 48.7047 69.6854 49.4014 70.3821 49.4678C71.0789 49.5341 71.8419 48.9369 71.9415 48.2734C72.1074 47.3776 72.9368 46.7804 73.8326 46.9463C74.7284 47.1122 75.3256 47.9416 75.1597 48.8374L74.6289 50.8612L74.3635 50.6954C73.4013 52.0556 71.7756 52.9183 70.0835 52.7855C69.8181 52.7524 69.5527 52.7192 69.3204 52.6528C67.2966 52.122 65.7373 50.2309 65.7041 48.0743C65.6709 46.4154 66.5999 44.657 68.2256 43.4626Z" fill="url(#paint8_linear_1806_1840)"/>
<path d="M68.7559 54.71C69.0213 54.7763 69.2536 54.8095 69.519 54.8427C71.9078 55.0418 74.197 53.2833 74.5952 50.9277C74.7611 50.0319 74.1639 49.1693 73.2681 49.0366C72.3723 48.8707 71.5097 49.4679 71.377 50.3637C71.2442 51.0273 70.4811 51.6245 69.8176 51.5581C69.154 51.4917 68.4905 50.795 68.4573 50.0983C68.4573 49.4347 68.9218 48.7048 69.6517 48.1408C70.4811 47.5436 71.5096 47.1455 72.6045 46.7473L72.7704 46.681C75.9555 45.5198 79.3064 44.1595 82.1597 42.0361C85.4443 39.581 87.6672 36.3627 88.3971 32.9786C89.2597 28.8646 87.7667 24.5847 84.6812 22.3286C83.6195 21.5323 82.2924 20.9683 80.6667 20.5038C78.8087 20.0393 77.0835 19.8403 75.4578 19.973C74.562 20.0393 73.8653 20.8356 73.9648 21.7646C74.0311 22.6604 74.8274 23.3571 75.7564 23.2576C77.0171 23.158 78.3774 23.3239 79.8373 23.6889C81.0648 24.0207 82.027 24.452 82.7569 24.9828C84.7807 26.4758 85.776 29.4618 85.1789 32.3151C84.6148 34.9029 82.8564 37.4244 80.2022 39.4151C77.8134 41.2067 75.0596 42.3679 71.6423 43.6286L71.5097 43.695C70.2157 44.1595 68.8886 44.6572 67.6942 45.553C66.1017 46.7473 65.1395 48.4726 65.1727 50.1978C65.1727 52.2548 66.7321 54.1791 68.7559 54.71Z" fill="url(#paint9_linear_1806_1840)"/>
<path d="M59.3653 71.2323C58.569 66.1561 52.1989 60.8476 43.5727 58.5916C34.9465 56.3355 26.7848 57.7953 23.5998 61.843L23.0357 61.7103L22.3722 64.2649C20.846 70.071 27.8797 76.9388 38.0321 79.6262C48.2176 82.3136 57.7064 79.7589 59.2326 73.986L59.8961 71.4313L59.3653 71.2323Z" fill="url(#paint10_linear_1806_1840)"/>
<path d="M59.8974 71.365C58.3712 77.1711 48.8824 79.6926 38.6969 77.0052C28.5113 74.3178 21.5108 67.45 23.037 61.6439C24.5632 55.8378 34.052 53.3163 44.2375 56.0037C54.4231 58.6911 61.4236 65.5589 59.8974 71.365Z" fill="url(#paint11_linear_1806_1840)"/>
<path opacity="0.5" d="M40.6518 76.2753C30.4663 73.5879 23.4658 66.7202 24.9919 60.9141C25.556 58.7243 27.2812 56.9991 29.7695 55.8379C26.2527 56.8996 23.7644 58.9234 23.0677 61.644C21.5415 67.4501 28.5751 74.3178 38.7275 77.0052C45.0644 78.6641 51.1028 78.3323 55.1504 76.4412C51.2355 77.6356 46.0266 77.702 40.6518 76.2753Z" fill="url(#paint12_linear_1806_1840)"/>
<path d="M40.8813 68.7441C36.5682 67.616 34.0135 63.2034 35.1415 58.9235L38.7579 45.1216L54.3182 49.2024L50.7018 63.0043C49.5738 67.2843 45.1944 69.8721 40.8813 68.7441Z" fill="url(#paint13_linear_1806_1840)"/>
<path d="M44.4063 55.3731C31.9315 52.0885 24.4665 39.3151 27.7511 26.8403L31.2016 13.702C32.1638 10.0856 35.8464 7.92908 39.4628 8.89123L71.5788 17.3184C75.1952 18.2805 77.3517 21.9632 76.3896 25.5796L72.9391 38.7179C69.6545 51.1927 56.8811 58.6577 44.4063 55.3731Z" fill="url(#paint14_linear_1806_1840)"/>
<path opacity="0.5" d="M29.7086 27.3712L33.159 14.2329C34.1212 10.6165 37.8039 8.45995 41.4203 9.4221L39.4628 8.92444C35.8464 7.96228 32.1638 10.1188 31.2016 13.7352L27.7511 26.8735C24.4665 39.3483 31.9315 52.1217 44.4063 55.4063C44.7381 55.5059 45.0698 55.5722 45.4016 55.6386C33.4908 51.9227 26.4904 39.5142 29.7086 27.3712Z" fill="url(#paint15_linear_1806_1840)"/>
<path d="M77.4455 21.3332C76.3838 14.9299 68.388 8.29437 57.5057 5.44109C46.6566 2.58781 36.4047 4.41258 32.3239 9.48876L31.594 9.28969L30.7314 12.5743C28.8071 19.9065 37.6655 28.5659 50.5052 31.95C63.345 35.3342 75.3221 32.1491 77.2464 24.8168L78.109 21.5323L77.4455 21.3332Z" fill="url(#paint16_linear_1806_1840)"/>
<g opacity="0.6">
<path d="M78.1761 21.5321C76.2518 28.8644 64.2747 32.0494 51.435 28.6653C38.5952 25.2812 29.7367 16.6218 31.661 9.28955C33.5854 1.95729 45.5625 -1.22777 58.4023 2.15635C71.242 5.54047 80.1004 14.1998 78.1761 21.5321Z" fill="url(#paint17_linear_1806_1840)"/>
<path d="M73.0001 6.83447L27.2812 8.49336L41.9458 34.0401L76.6828 10.3181L73.0001 6.83447Z" fill="url(#paint18_linear_1806_1840)"/>
</g>
<path d="M51.4978 65.3599L51.3319 60.6155C49.8058 60.9473 46.687 61.4449 42.938 60.4164C39.3216 59.4543 36.9328 57.5631 35.7716 56.5015C34.9422 57.8617 34.1127 59.222 33.2833 60.5491C32.7856 61.0136 32.4538 61.5776 32.2879 62.208C31.4917 65.2272 35.1744 68.8436 40.4829 70.237C45.7913 71.6305 50.7679 70.3034 51.5642 67.2842C51.73 66.687 51.6969 66.0234 51.4978 65.3599Z" fill="url(#paint19_linear_1806_1840)"/>
<path d="M35.643 47.079C34.9794 46.349 34.2495 45.4533 33.5528 44.3916C33.5528 44.3916 33.5528 44.3584 33.5196 44.3584C32.3252 42.6 32.0266 40.3771 32.5575 38.3201L35.4771 27.1724C35.8089 27.67 36.3729 28.3999 37.3019 28.9971C37.7995 29.3289 38.264 29.528 38.6622 29.6939C37.7332 31.5186 36.7047 34.007 36.0743 37.0925C35.1785 41.1733 35.3444 44.6902 35.643 47.079Z" fill="url(#paint20_linear_1806_1840)"/>
<path d="M73.9666 18.9773C72.4736 24.5843 62.9184 26.94 52.567 24.2194C42.2156 21.4988 35.0492 14.7306 36.509 9.12356C37.9689 3.51653 47.5572 1.16092 57.9086 3.88149C68.26 6.63524 75.4596 13.3703 73.9666 18.9773Z" fill="url(#paint21_linear_1806_1840)"/>
<path d="M57.0115 7.39824C47.7549 4.97627 39.1287 6.60198 36.375 10.9814C36.6404 16.1571 43.3423 21.8305 52.5989 24.2525C61.8554 26.6745 70.4816 25.0488 73.2354 20.6693C72.9699 15.4936 66.2349 9.82021 57.0115 7.39824Z" fill="url(#paint22_linear_1806_1840)"/>
<path d="M71.4247 22.5641C72.3284 19.1263 65.3467 14.3118 55.8307 11.8105C46.3147 9.30924 37.8679 10.0685 36.9643 13.5063C36.0606 16.9441 43.0424 21.7586 52.5584 24.2599C62.0744 26.7611 70.5211 26.002 71.4247 22.5641Z" fill="#BE6D00"/>
<path d="M48.3173 0.796267C51.4692 0.796267 54.8865 1.22757 58.3701 2.15655C69.1861 5.00983 77.1487 11.579 78.2767 17.9491C79.2057 18.0486 80.1679 18.2145 81.1964 18.48C82.8221 18.9113 84.116 19.5085 85.2109 20.3047C88.2964 22.5608 89.7894 26.8407 88.9268 30.9548L88.3959 32.9786C87.666 36.3627 85.4763 39.5809 82.1585 42.0361C79.3053 44.1595 75.9543 45.5529 72.7692 46.681L72.6034 46.7473C71.5085 47.1454 70.4468 47.5436 69.6505 48.1408C69.4515 48.3067 69.2856 48.4726 69.1197 48.6384C69.3519 49.1029 69.8164 49.5011 70.3141 49.5342C70.3473 49.5342 70.3805 49.5342 70.4136 49.5342C71.0772 49.5342 71.7739 48.9702 71.8735 48.3067C72.0062 47.5104 72.7029 46.9464 73.4992 46.9464C73.5987 46.9464 73.6982 46.9464 73.7977 46.9796C74.6935 47.1454 75.2907 47.9749 75.1249 48.8707L74.594 50.8945C74.1959 53.1174 72.1389 54.8427 69.8828 54.8427C69.7501 54.8427 69.6506 54.8427 69.5179 54.8427C69.2524 54.8095 68.987 54.7763 68.7548 54.7099C66.93 54.2455 65.5034 52.6529 65.2048 50.795C61.6216 53.7478 57.2089 55.6057 52.5309 56.0702L51.7346 59.0562C57.5739 62.374 60.9912 67.1516 59.8963 71.3651L59.2328 73.9198C58.1047 78.1334 52.7631 80.6549 45.9949 80.6549C43.4734 80.6549 40.786 80.3231 38.0323 79.5932C27.8467 76.9058 20.8462 70.038 22.3724 64.2319L23.0359 61.6773C23.1355 61.3455 23.235 61.0469 23.3677 60.7151C23.3677 60.6819 23.3677 60.6819 23.4009 60.6488C23.5336 60.3502 23.6995 60.0847 23.8654 59.8193C23.8986 59.7861 23.8986 59.753 23.9318 59.7198C24.0976 59.4544 24.2967 59.1889 24.5289 58.9567C24.5621 58.9235 24.5953 58.8903 24.5953 58.8572C24.8276 58.6249 25.0598 58.3927 25.292 58.1604C25.3252 58.1273 25.3584 58.0941 25.3916 58.0609C25.657 57.8286 25.9224 57.6296 26.221 57.4305C26.2542 57.3973 26.2874 57.3973 26.3205 57.3642C26.6191 57.1651 26.9509 56.966 27.2827 56.8001C27.3159 56.767 27.3491 56.767 27.3822 56.767C27.714 56.6011 28.079 56.4352 28.4771 56.2693C28.5103 56.2693 28.5103 56.2693 28.5435 56.2361C28.9416 56.0702 29.3397 55.9375 29.771 55.8048C31.6621 55.2076 33.8519 54.909 36.2075 54.909L37.0038 51.923C34.7809 50.3637 32.8565 48.4394 31.3304 46.2828C30.9322 45.7188 30.5341 45.1216 30.2023 44.5244C29.8374 43.894 29.4724 43.2305 29.1738 42.5338C28.9416 42.0693 28.7757 41.5716 28.5766 41.1071C27.6477 42.2683 26.221 42.9319 24.7612 42.9319C24.3631 42.9319 23.9649 42.8987 23.5668 42.766C23.3014 42.6996 23.0691 42.6001 22.8369 42.5006C20.6472 41.5052 19.5523 38.851 20.3486 36.595L20.8794 34.5711C21.1116 33.9076 21.742 33.4763 22.4388 33.4763C22.6378 33.4763 22.8037 33.5094 23.0028 33.5758C23.8654 33.8744 24.2967 34.8365 23.9981 35.666C23.7659 36.3295 24.1308 37.1922 24.7612 37.4907C24.9271 37.5571 25.093 37.5903 25.292 37.5903C25.6238 37.5903 25.9888 37.4907 26.2542 37.2917C26.1878 37.0594 26.1215 36.8272 26.0219 36.595C25.6238 35.666 24.8939 34.8365 24.1308 33.9407L24.0313 33.808C21.8415 31.2202 19.5855 28.4001 18.1257 25.1155C16.4668 21.3664 16.135 17.4846 17.1635 14.1669L17.6943 12.143C18.9551 8.12853 22.3724 5.14254 26.1546 4.67805C26.5196 4.64487 26.8846 4.6117 27.2495 4.6117C28.2449 4.6117 29.3397 4.77758 30.5341 5.07618C31.5295 5.3416 32.4584 5.67338 33.321 6.03834C36.0748 2.72057 41.6486 0.796267 48.3173 0.796267ZM27.15 29.8931C27.2827 28.8646 27.4818 27.8692 27.7472 26.8407L30.6005 15.9253C30.4346 14.7972 30.4677 13.6692 30.7663 12.5743L31.1645 11.0482C30.5341 10.7827 29.8705 10.5505 29.1406 10.3514C28.2117 10.1192 27.4154 9.98648 26.6855 9.98648C26.4201 9.98648 26.1878 9.98648 25.9556 10.0197C23.6332 10.2851 21.4434 12.1762 20.4481 14.6645C20.1163 16.8543 20.5145 19.3426 21.6093 21.7977C22.8037 24.5183 24.6285 26.9071 26.9841 29.6608L27.0836 29.7935C27.1168 29.8599 27.15 29.8599 27.15 29.8931ZM71.9398 41.6711C71.973 41.6711 72.0062 41.638 72.0394 41.638L72.1721 41.5716C75.5894 40.344 78.3431 39.1496 80.7319 37.358C82.8884 35.7655 84.4478 33.7749 85.244 31.7178C85.609 29.0636 84.6137 26.3431 82.7225 24.9828C81.9926 24.4519 81.0305 24.0206 79.8029 23.6888C79.073 23.4898 78.3763 23.3571 77.7127 23.2907L77.3146 24.8169C77.016 25.9117 76.5183 26.9071 75.7884 27.8361L72.9351 38.7515C72.6697 39.7468 72.3379 40.709 71.9398 41.6711ZM48.3173 0C41.5823 0 36.0748 1.85795 33.0224 5.14254C32.2925 4.84394 31.4962 4.57852 30.6668 4.34627C29.406 4.0145 28.2448 3.88179 27.1831 3.88179C26.785 3.88179 26.3869 3.91497 25.9888 3.94814C21.8747 4.44581 18.192 7.66404 16.8317 11.9771L16.3009 14.0341C15.206 17.4846 15.571 21.5987 17.2962 25.5136C18.4906 28.1678 20.1495 30.5566 21.9079 32.7132C21.0453 32.8791 20.3154 33.4763 20.0168 34.3389C20.0168 34.372 20.0168 34.3721 19.9836 34.4052L19.4528 36.3959C18.5238 39.0501 19.8509 42.1356 22.4056 43.2968C22.671 43.4295 22.9696 43.5291 23.2682 43.5954C23.7327 43.7281 24.1972 43.7613 24.6617 43.7613C25.9556 43.7613 27.1831 43.33 28.1785 42.5669C28.2448 42.6665 28.278 42.7992 28.3444 42.8987C28.6761 43.5954 29.0411 44.2922 29.4061 44.9557C29.771 45.5529 30.1692 46.1833 30.5673 46.7805C32.0603 48.9039 33.885 50.7618 35.9752 52.288L35.4776 54.1459C33.2878 54.2123 31.264 54.5109 29.4392 55.0749C29.0079 55.2076 28.5766 55.3735 28.1453 55.5394L28.079 55.5726C27.6808 55.7385 27.3159 55.9043 26.9177 56.1034L26.8182 56.1698C26.4532 56.3688 26.1215 56.5679 25.7897 56.767L25.6902 56.8333C25.3916 57.0324 25.0598 57.2646 24.7944 57.4969L24.6948 57.5632C24.3962 57.8286 24.1308 58.0941 23.8986 58.3263L23.8322 58.3927C23.5668 58.6913 23.3345 58.9899 23.1687 59.2553C23.1687 59.2553 23.1355 59.3217 23.1023 59.3217C22.8701 59.6534 22.7042 59.9852 22.5715 60.2838L22.5383 60.3501C22.3724 60.7151 22.2397 61.0469 22.1733 61.4118L21.5098 63.9665C20.6803 67.0852 22.0074 70.5025 25.1925 73.6212C28.2448 76.6072 32.7238 78.996 37.8 80.3231C40.5537 81.053 43.3075 81.418 45.9949 81.418C53.3272 81.418 58.8346 78.5315 60.029 74.0857L60.6926 71.531C61.8538 67.1516 58.8015 62.2413 52.6968 58.5917L53.1944 56.7338C57.408 56.2361 61.3561 54.6436 64.7734 52.1221C65.437 53.7146 66.8636 54.9754 68.5557 55.4399C68.8543 55.5062 69.1529 55.5726 69.4515 55.6057C69.5842 55.6057 69.7501 55.6389 69.8828 55.6389C72.5702 55.6389 74.9258 53.6814 75.3903 51.0604L75.9211 49.0697C75.9211 49.0366 75.9211 49.0366 75.9211 49.0034C76.0207 48.3398 75.888 47.7095 75.523 47.1454C75.3903 46.9796 75.2576 46.8137 75.0917 46.681C77.6795 45.6525 80.3338 44.4249 82.6562 42.6665C86.1067 40.0786 88.4291 36.6945 89.1922 33.1113L89.723 31.1206C90.6852 26.6417 89.0595 22.03 85.7085 19.5748C84.5473 18.7454 83.1538 18.0818 81.4286 17.6173C80.5992 17.4183 79.8029 17.2524 79.0067 17.1529C77.4141 10.5173 69.1861 4.08085 58.6024 1.29393C55.1188 0.431313 51.6683 0 48.3173 0ZM21.2444 14.8968C22.1402 12.707 24.0645 11.0813 26.0551 10.8491C26.2542 10.8159 26.4532 10.8159 26.6855 10.8159C27.349 10.8159 28.079 10.9155 28.9416 11.1477C29.3729 11.2472 29.8042 11.3799 30.1691 11.5458L29.9369 12.3753C29.6383 13.5033 29.572 14.6977 29.7379 15.8921L26.9177 26.6417C26.785 27.073 26.6855 27.5375 26.6191 28.0019C24.7944 25.779 23.3345 23.7552 22.3392 21.4991C21.3771 19.243 20.979 16.9538 21.2444 14.8968ZM76.5515 28.201C77.2814 27.2389 77.8122 26.1772 78.1108 25.0491L78.3431 24.2197C78.7744 24.286 79.1726 24.3856 79.637 24.4851C80.7651 24.7837 81.6277 25.1818 82.2913 25.6463C83.8838 26.8075 84.7796 29.1632 84.481 31.5188C83.7179 33.4431 82.258 35.2347 80.2674 36.7277C78.3099 38.1875 76.0539 39.2492 73.3665 40.2777C73.4992 39.8132 73.6319 39.3819 73.7646 38.9506L76.5515 28.201ZM25.1261 36.8272C25.093 36.8272 25.0598 36.8272 25.0266 36.794C24.7944 36.6945 24.6285 36.3295 24.6617 36.0641C24.8607 36.3295 24.9934 36.5618 25.1261 36.8272ZM70.3141 48.6716C70.5463 48.5057 70.8118 48.373 71.0772 48.2403C70.9777 48.4725 70.6791 48.7048 70.4468 48.7048C70.3805 48.7048 70.3473 48.7048 70.3141 48.6716Z" fill="#AD5E00"/>
<defs>
<linearGradient id="paint0_linear_1806_1840" x1="4.96185" y1="36.7984" x2="10.1341" y2="24.0604" gradientUnits="userSpaceOnUse">
<stop stop-color="#BE6D00"/>
<stop offset="0.1746" stop-color="#CE8F1F"/>
<stop offset="0.4354" stop-color="#E3BB48"/>
<stop offset="0.6693" stop-color="#F2DB66"/>
<stop offset="0.8654" stop-color="#FCEE78"/>
<stop offset="1" stop-color="#FFF57F"/>
</linearGradient>
<linearGradient id="paint1_linear_1806_1840" x1="6.04249" y1="28.9084" x2="6.79142" y2="27.0639" gradientUnits="userSpaceOnUse">
<stop stop-color="white"/>
<stop offset="0.8605" stop-color="white"/>
<stop offset="1" stop-color="white"/>
</linearGradient>
<linearGradient id="paint2_linear_1806_1840" x1="8.00709" y1="27.3528" x2="8.43172" y2="26.307" gradientUnits="userSpaceOnUse">
<stop stop-color="white"/>
<stop offset="0.8605" stop-color="white"/>
<stop offset="1" stop-color="white"/>
</linearGradient>
<linearGradient id="paint3_linear_1806_1840" x1="20.3393" y1="54.0884" x2="14.9939" y2="47.2108" gradientUnits="userSpaceOnUse">
<stop stop-color="#BE6D00"/>
<stop offset="0.1746" stop-color="#CE8F1F"/>
<stop offset="0.4354" stop-color="#E3BB48"/>
<stop offset="0.6693" stop-color="#F2DB66"/>
<stop offset="0.8654" stop-color="#FCEE78"/>
<stop offset="1" stop-color="#FFF57F"/>
</linearGradient>
<linearGradient id="paint4_linear_1806_1840" x1="16.3556" y1="50.9949" x2="15.5816" y2="49.999" gradientUnits="userSpaceOnUse">
<stop stop-color="white"/>
<stop offset="0.8605" stop-color="white"/>
<stop offset="1" stop-color="white"/>
</linearGradient>
<linearGradient id="paint5_linear_1806_1840" x1="16.1296" y1="49.4199" x2="15.6908" y2="48.8552" gradientUnits="userSpaceOnUse">
<stop stop-color="white"/>
<stop offset="0.8605" stop-color="white"/>
<stop offset="1" stop-color="white"/>
</linearGradient>
<linearGradient id="paint6_linear_1806_1840" x1="15.2729" y1="32.9432" x2="38.0611" y2="9.93659" gradientUnits="userSpaceOnUse">
<stop stop-color="#FFF57F"/>
<stop offset="0.2443" stop-color="#FEF27C"/>
<stop offset="0.4124" stop-color="#F9E974"/>
<stop offset="0.5577" stop-color="#F2DA66"/>
<stop offset="0.69" stop-color="#E8C451"/>
<stop offset="0.8135" stop-color="#DAA837"/>
<stop offset="0.9289" stop-color="#CA8617"/>
<stop offset="1" stop-color="#BE6D00"/>
</linearGradient>
<linearGradient id="paint7_linear_1806_1840" x1="15.0644" y1="21.9233" x2="32.7571" y2="26.5738" gradientUnits="userSpaceOnUse">
<stop stop-color="#FFF57F"/>
<stop offset="0.1853" stop-color="#FDF17C"/>
<stop offset="0.3558" stop-color="#F8E671"/>
<stop offset="0.5204" stop-color="#EFD460"/>
<stop offset="0.6816" stop-color="#E2B947"/>
<stop offset="0.8401" stop-color="#D29728"/>
<stop offset="0.9948" stop-color="#BF6F01"/>
<stop offset="1" stop-color="#BE6D00"/>
</linearGradient>
<linearGradient id="paint8_linear_1806_1840" x1="80.7832" y1="50.1608" x2="72.2532" y2="18.9225" gradientUnits="userSpaceOnUse">
<stop stop-color="#FFF57F"/>
<stop offset="0.2443" stop-color="#FEF27C"/>
<stop offset="0.4124" stop-color="#F9E974"/>
<stop offset="0.5577" stop-color="#F2DA66"/>
<stop offset="0.69" stop-color="#E8C451"/>
<stop offset="0.8135" stop-color="#DAA837"/>
<stop offset="0.9289" stop-color="#CA8617"/>
<stop offset="1" stop-color="#BE6D00"/>
</linearGradient>
<linearGradient id="paint9_linear_1806_1840" x1="86.3847" y1="40.6691" x2="68.6916" y2="36.0185" gradientUnits="userSpaceOnUse">
<stop stop-color="#FFF57F"/>
<stop offset="0.1853" stop-color="#FDF17C"/>
<stop offset="0.3558" stop-color="#F8E671"/>
<stop offset="0.5204" stop-color="#EFD460"/>
<stop offset="0.6816" stop-color="#E2B947"/>
<stop offset="0.8401" stop-color="#D29728"/>
<stop offset="0.9948" stop-color="#BF6F01"/>
<stop offset="1" stop-color="#BE6D00"/>
</linearGradient>
<linearGradient id="paint10_linear_1806_1840" x1="22.3597" y1="64.2265" x2="59.2324" y2="73.9184" gradientUnits="userSpaceOnUse">
<stop stop-color="#BE6D00"/>
<stop offset="0.1919" stop-color="#C07103"/>
<stop offset="0.3619" stop-color="#C57B0D"/>
<stop offset="0.5237" stop-color="#CE8D1E"/>
<stop offset="0.6804" stop-color="#DAA736"/>
<stop offset="0.8335" stop-color="#E9C855"/>
<stop offset="0.9819" stop-color="#FCF07A"/>
<stop offset="1" stop-color="#FFF57F"/>
</linearGradient>
<linearGradient id="paint11_linear_1806_1840" x1="32.0463" y1="76.0328" x2="50.8897" y2="57.0089" gradientUnits="userSpaceOnUse">
<stop stop-color="#FFF57F"/>
<stop offset="0.1398" stop-color="#FCEF7A"/>
<stop offset="0.3243" stop-color="#F4DF6A"/>
<stop offset="0.5339" stop-color="#E7C350"/>
<stop offset="0.7619" stop-color="#D59D2D"/>
<stop offset="1" stop-color="#BE6D00"/>
</linearGradient>
<linearGradient id="paint12_linear_1806_1840" x1="37.1027" y1="76.5998" x2="41.7279" y2="59.0032" gradientUnits="userSpaceOnUse">
<stop stop-color="white"/>
<stop offset="0.1468" stop-color="white"/>
<stop offset="1" stop-color="white"/>
</linearGradient>
<linearGradient id="paint13_linear_1806_1840" x1="40.8806" y1="68.7361" x2="46.5521" y2="47.1588" gradientUnits="userSpaceOnUse">
<stop stop-color="#FFF57F"/>
<stop offset="0.2098" stop-color="#E5BF4D"/>
<stop offset="0.4107" stop-color="#D09323"/>
<stop offset="0.5658" stop-color="#C3770A"/>
<stop offset="0.6562" stop-color="#BE6D00"/>
</linearGradient>
<linearGradient id="paint14_linear_1806_1840" x1="27.3638" y1="28.2994" x2="72.5497" y2="40.1764" gradientUnits="userSpaceOnUse">
<stop stop-color="#FFF57F"/>
<stop offset="0.2802" stop-color="#EBCB58"/>
<stop offset="0.7702" stop-color="#CB8819"/>
<stop offset="1" stop-color="#BE6D00"/>
</linearGradient>
<linearGradient id="paint15_linear_1806_1840" x1="27.3638" y1="28.2994" x2="50.9326" y2="34.4944" gradientUnits="userSpaceOnUse">
<stop stop-color="white"/>
<stop offset="0.1413" stop-color="white"/>
<stop offset="1" stop-color="white"/>
</linearGradient>
<linearGradient id="paint16_linear_1806_1840" x1="30.7634" y1="12.5805" x2="77.3083" y2="24.8147" gradientUnits="userSpaceOnUse">
<stop stop-color="#FFF57F"/>
<stop offset="0.1384" stop-color="#FCEF79"/>
<stop offset="0.3249" stop-color="#F4DE69"/>
<stop offset="0.5387" stop-color="#E6C24F"/>
<stop offset="0.7708" stop-color="#D49B2B"/>
<stop offset="1" stop-color="#BE6D00"/>
</linearGradient>
<linearGradient id="paint17_linear_1806_1840" x1="54.9009" y1="30.0112" x2="54.9009" y2="0.807945" gradientUnits="userSpaceOnUse">
<stop stop-color="#FFF57F"/>
<stop offset="0.1372" stop-color="#FCEF79"/>
<stop offset="0.3257" stop-color="#F4DD69"/>
<stop offset="0.544" stop-color="#E6C04E"/>
<stop offset="0.7826" stop-color="#D39828"/>
<stop offset="1" stop-color="#BE6D00"/>
</linearGradient>
<linearGradient id="paint18_linear_1806_1840" x1="41.7395" y1="33.9572" x2="56.0071" y2="-0.265805" gradientUnits="userSpaceOnUse">
<stop stop-color="white"/>
<stop offset="1" stop-color="white"/>
</linearGradient>
<linearGradient id="paint19_linear_1806_1840" x1="40.4782" y1="70.2654" x2="43.5517" y2="58.5724" gradientUnits="userSpaceOnUse">
<stop stop-color="#FFF57F"/>
<stop offset="0.19" stop-color="#F5E16C"/>
<stop offset="0.5806" stop-color="#DCAC3B"/>
<stop offset="1" stop-color="#BE6D00"/>
</linearGradient>
<linearGradient id="paint20_linear_1806_1840" x1="33.1138" y1="46.4265" x2="37.9953" y2="27.8547" gradientUnits="userSpaceOnUse">
<stop stop-color="white"/>
<stop offset="1" stop-color="white"/>
</linearGradient>
<linearGradient id="paint21_linear_1806_1840" x1="52.5822" y1="24.2458" x2="57.9297" y2="3.90161" gradientUnits="userSpaceOnUse">
<stop stop-color="#BE6D00"/>
<stop offset="0.1746" stop-color="#CE8F1F"/>
<stop offset="0.4354" stop-color="#E3BB48"/>
<stop offset="0.6693" stop-color="#F2DB66"/>
<stop offset="0.8654" stop-color="#FCEE78"/>
<stop offset="1" stop-color="#FFF57F"/>
</linearGradient>
<linearGradient id="paint22_linear_1806_1840" x1="52.5809" y1="24.2457" x2="57.0101" y2="7.39493" gradientUnits="userSpaceOnUse">
<stop stop-color="#BE6D00"/>
<stop offset="0.2051" stop-color="#C07003"/>
<stop offset="0.3746" stop-color="#C47B0D"/>
<stop offset="0.5313" stop-color="#CD8C1D"/>
<stop offset="0.6804" stop-color="#D8A433"/>
<stop offset="0.8242" stop-color="#E7C351"/>
<stop offset="0.962" stop-color="#F9E974"/>
<stop offset="1" stop-color="#FFF57F"/>
</linearGradient>
</defs>
</svg>
