<svg width="91" height="77" viewBox="0 0 91 77" fill="none" xmlns="http://www.w3.org/2000/svg">
<path d="M21.881 0.813279C22.1412 0.813279 22.4015 0.84581 22.6617 0.975935C23.8003 1.39884 24.3859 2.70008 23.963 3.83867C23.8654 4.13145 23.6702 4.39171 23.475 4.61943L32.356 14.0209L35.5766 7.80748C34.8284 7.35204 34.4705 6.44117 34.7958 5.59536C35.0886 4.87968 35.7718 4.42423 36.4875 4.42423C36.7152 4.42423 36.9104 4.45677 37.1381 4.55436C38.0815 4.91221 38.5369 5.95321 38.1791 6.89661C38.049 7.25445 37.7887 7.54723 37.4959 7.74241L44.0347 16.4933L55.6483 8.65328C55.258 8.06772 55.1278 7.31951 55.4206 6.60382C55.7459 5.72548 56.5917 5.17244 57.5026 5.17244C57.7628 5.17244 58.0231 5.20497 58.2834 5.3351C59.4219 5.758 60.0075 7.05927 59.5846 8.19786C59.3244 8.91354 58.7388 9.40149 58.0556 9.56415L61.5039 23.1622L72.2067 20.9826C72.1091 20.6248 72.1416 20.2669 72.2718 19.9091C72.5645 19.1934 73.2477 18.7379 73.9634 18.7379C74.1911 18.7379 74.3863 18.7705 74.614 18.8681C75.5574 19.2259 76.0128 20.2669 75.655 21.2103C75.3622 21.926 74.679 22.3814 73.9634 22.3814C73.8332 22.3814 73.7357 22.3814 73.6055 22.3489L71.8814 29.1479L84.7637 28.0093C84.7637 27.7165 84.7962 27.3912 84.8938 27.0985C85.2191 26.2201 86.065 25.6671 86.9758 25.6671C87.2361 25.6671 87.4963 25.6996 87.7566 25.8297C88.8952 26.2526 89.4807 27.5539 89.0578 28.6925C88.7325 29.5708 87.8867 30.1239 86.9758 30.1239C86.7156 30.1239 86.4553 30.0913 86.1951 29.9937C85.9674 29.8961 85.7397 29.766 85.577 29.6034L69.2789 49.4799C69.6692 49.6751 69.962 50.0655 70.0271 50.5209C70.1572 51.3342 69.6042 52.0824 68.8235 52.2125C68.303 52.3101 67.7824 52.3752 67.2619 52.4402L66.9366 53.3186L64.9197 58.5886C64.9523 58.5886 65.0173 58.5886 65.0498 58.5886C65.7655 58.5886 66.3836 59.1091 66.5137 59.8248C66.6438 60.6381 66.0908 61.3863 65.3101 61.5164C62.4799 61.9719 59.6497 62.1996 56.852 62.1996C50.3783 62.1996 44.0022 60.9959 38.0164 58.7188C29.4607 55.4656 21.7509 49.9679 15.7977 42.6483C15.2772 42.0303 15.3747 41.0869 16.0254 40.5664C16.2856 40.3386 16.6109 40.2411 16.9363 40.2411C17.3266 40.2411 17.717 40.4037 18.0098 40.6965L20.0267 35.4264L20.352 34.5481C20.0267 34.1577 19.6688 33.7673 19.3435 33.3444C18.823 32.7264 18.9206 31.7829 19.5713 31.2624C19.8315 31.0347 20.1568 30.9371 20.4821 30.9371C20.6122 30.9371 20.7099 30.9371 20.84 30.9697L21.9135 5.30258C21.6858 5.30258 21.4255 5.27004 21.1978 5.17244C20.0592 4.74954 19.4737 3.4483 19.8966 2.3097C20.1243 1.33377 20.9701 0.813279 21.881 0.813279ZM21.881 0C20.6448 0 19.5062 0.780748 19.0508 1.95187C18.4652 3.51337 19.2459 5.27005 20.8074 5.85561C20.8725 5.88814 20.9376 5.88814 21.0026 5.92068L19.9941 30.1239C19.6363 30.1889 19.2785 30.3516 18.9857 30.5793C18.4977 30.9697 18.205 31.5227 18.1399 32.1083C18.0748 32.7264 18.2375 33.3119 18.6279 33.7673C18.8556 34.0601 19.1158 34.3529 19.3435 34.6131L19.1809 35.0361L17.5218 39.4278C17.3266 39.3627 17.0989 39.3302 16.8712 39.3302C16.3507 39.3302 15.8627 39.5254 15.4398 39.8507C14.4639 40.6314 14.3012 42.0953 15.1145 43.0713C21.0351 50.3908 28.8426 56.0187 37.6911 59.4019C43.8395 61.7441 50.2482 62.9153 56.7869 62.9153C59.6497 62.9153 62.5449 62.6876 65.3751 62.2321C66.6113 62.0369 67.4571 60.8658 67.2619 59.5971C67.1318 58.8164 66.6438 58.1983 65.9932 57.9055L67.6523 53.5138L67.815 53.0909C68.1728 53.0258 68.5632 52.9933 68.921 52.9282C69.5066 52.8306 70.0596 52.5053 70.4175 52.0173C70.7753 51.5294 70.9054 50.9113 70.8079 50.3257C70.7428 49.9679 70.5801 49.61 70.3849 49.3172L85.7397 30.5793C85.8047 30.6118 85.8698 30.6444 85.9023 30.6444C86.2602 30.7745 86.618 30.8395 86.9758 30.8395C88.212 30.8395 89.3506 30.0588 89.8061 28.8877C90.0988 28.1395 90.0663 27.2937 89.741 26.578C89.4157 25.8298 88.7976 25.2767 88.0494 24.9839C87.6915 24.8538 87.3337 24.7888 86.9758 24.7888C85.7396 24.7888 84.6011 25.5695 84.1456 26.7406C84.0806 26.8707 84.048 27.0334 84.0155 27.196L72.9549 28.172L74.2561 23.0971C75.2321 22.9995 76.1104 22.3489 76.4683 21.4055C76.9888 20.0392 76.3056 18.5428 74.9393 18.0223C74.6465 17.8921 74.3212 17.8596 73.9959 17.8596C72.9224 17.8596 71.9139 18.5428 71.5235 19.5512C71.4259 19.7789 71.3934 20.0392 71.3609 20.2669L62.0895 22.1537L58.999 9.98707C59.6171 9.62923 60.0725 9.10871 60.3328 8.42556C60.6256 7.67734 60.5931 6.83154 60.2677 6.11586C59.9424 5.36764 59.3244 4.8146 58.5761 4.52182C58.2183 4.3917 57.8604 4.32664 57.5026 4.32664C56.2664 4.32664 55.1278 5.10739 54.6724 6.27851C54.4122 6.92913 54.4121 7.67735 54.6398 8.32797L44.2624 15.3547L38.602 7.77494C38.7647 7.57975 38.8622 7.35203 38.9598 7.12431C39.2201 6.47369 39.1876 5.75802 38.8948 5.1074C38.602 4.45677 38.0815 3.9688 37.4309 3.74108C37.1381 3.61096 36.8128 3.57843 36.4875 3.57843C35.4139 3.57843 34.4055 4.26159 34.0151 5.27005C33.6573 6.21346 33.885 7.25445 34.5356 7.97014L32.1283 12.5896L24.516 4.4893C24.5811 4.35917 24.6461 4.22905 24.7112 4.0664C25.2967 2.5049 24.516 0.748217 22.9545 0.162656C22.5967 0.0650623 22.2388 0 21.881 0Z" fill="#AD5E00"/>
<path d="M38.1793 6.86444C38.5371 5.92104 38.0817 4.88004 37.1383 4.52219C36.1949 4.16435 35.1539 4.61979 34.796 5.56319C34.4707 6.409 34.8286 7.3524 35.5768 7.77531L29.4609 19.5516L40.9444 29.3435L46.4747 19.6817L37.5286 7.71026C37.7889 7.51508 38.0491 7.22228 38.1793 6.86444Z" fill="#BE6D00"/>
<path d="M75.6549 21.113C76.0127 20.1696 75.5573 19.1286 74.6139 18.7707C73.6705 18.4129 72.6295 18.8683 72.2716 19.8117C72.1415 20.1696 72.1089 20.5599 72.2065 20.8853L57.5675 23.8781L55.2578 34.776L70.3523 35.1014L73.6379 22.219C74.4512 22.4467 75.3296 21.9588 75.6549 21.113Z" fill="#BE6D00"/>
<path d="M67.5885 51.4317L86.9771 27.749L63.1643 29.831L57.4713 7.35196L38.3105 20.3319L21.9147 2.92773L20.646 33.5396L16.9375 43.2013L38.2454 57.8729L63.9125 61.0935L67.5885 51.4317Z" fill="url(#paint0_linear_1806_1877)"/>
<path opacity="0.1" d="M67.9769 50.0983C50.3776 52.9936 32.4529 46.162 21.2297 32.2712C21.0995 32.1086 20.9044 31.9459 20.7092 31.8809L20.6441 33.5399L19.9609 35.3617C25.7515 42.0956 33.1036 47.1705 41.1713 50.2284C49.2715 53.3189 58.0875 54.425 66.9034 53.2538L67.5866 51.4321L68.6276 50.1634C68.4324 50.0658 68.2046 50.0658 67.9769 50.0983Z" fill="black"/>
<path d="M41.4979 49.3499C32.9422 46.0968 25.2323 40.599 19.2791 33.2795C18.7586 32.6614 18.8562 31.718 19.5068 31.1975C20.1249 30.677 21.0683 30.7746 21.5888 31.4253C32.812 45.2835 50.7367 52.1151 68.3361 49.2523C69.1494 49.1222 69.8976 49.6752 70.0277 50.456C70.1578 51.2693 69.6048 52.0175 68.8241 52.1476C59.4551 53.6766 50.0536 52.6031 41.4979 49.3499Z" fill="url(#paint1_linear_1806_1877)"/>
<path d="M37.951 58.6214C29.3953 55.3683 21.6854 49.8705 15.7322 42.551C15.2117 41.9329 15.3093 40.9895 15.9599 40.469C16.578 39.9485 17.5214 40.0461 18.0419 40.6967C29.2651 54.555 47.1898 61.3866 64.7892 58.5238C65.6025 58.3937 66.3507 58.9467 66.4808 59.7275C66.6109 60.5407 66.0579 61.289 65.2772 61.4191C55.9082 62.9481 46.5067 61.9071 37.951 58.6214Z" fill="url(#paint2_linear_1806_1877)"/>
<path d="M20.4161 30.8724C20.839 30.8724 21.2619 31.0676 21.5547 31.4254C31.0863 43.2017 45.4326 49.9031 60.2993 49.9031C62.9669 49.9031 65.6344 49.6754 68.302 49.2525C68.367 49.2525 68.4647 49.2199 68.5297 49.2199C69.2454 49.2199 69.8635 49.7404 69.9936 50.4561C70.1238 51.2694 69.5707 52.0176 68.79 52.1478C65.9597 52.6032 63.1295 52.8309 60.3318 52.8309C53.8581 52.8309 47.4821 51.6273 41.4963 49.3501C32.9406 46.097 25.2307 40.5992 19.2775 33.2797C18.757 32.6616 18.8546 31.7182 19.5052 31.1977C19.7655 30.97 20.0908 30.8724 20.4161 30.8724ZM20.4161 30.0591C19.8956 30.0591 19.3751 30.2543 18.9847 30.5796C18.4968 30.97 18.204 31.523 18.1389 32.1086C18.0739 32.7267 18.2365 33.3122 18.6269 33.7676C24.5476 41.0872 32.3551 46.7151 41.2035 50.0983C47.3519 52.4405 53.7606 53.6117 60.2993 53.6117C63.1621 53.6117 66.0574 53.3839 68.8876 52.9285C70.1237 52.7333 70.9696 51.5622 70.7744 50.2935C70.5792 49.1874 69.6358 48.3741 68.5297 48.3741C68.3996 48.3741 68.2695 48.3741 68.1719 48.4067C65.5694 48.8296 62.9344 49.0573 60.2993 49.0573C45.4326 49.0573 31.5093 42.4209 22.1728 30.9049C21.7499 30.3844 21.0993 30.0591 20.4161 30.0591Z" fill="#AD5E00"/>
<path d="M16.8712 40.1438C17.2941 40.1438 17.717 40.339 18.0098 40.6969C27.5414 52.4732 41.8876 59.1746 56.7544 59.1746C59.4219 59.1746 62.0895 58.9469 64.7571 58.524C64.8221 58.524 64.9197 58.4914 64.9848 58.4914C65.7005 58.4914 66.3185 59.0119 66.4487 59.7276C66.5788 60.5409 66.0258 61.2891 65.245 61.4192C62.4148 61.8747 59.5846 62.1024 56.7869 62.1024C50.3132 62.1024 43.9371 60.8987 37.9514 58.6216C29.3957 55.3684 21.6858 49.8707 15.7326 42.5512C15.2121 41.9331 15.3097 40.9897 15.9603 40.4692C16.2206 40.2414 16.5459 40.1438 16.8712 40.1438ZM16.8712 39.3306C16.3507 39.3306 15.8302 39.5258 15.4398 39.8511C14.4639 40.6318 14.3012 42.0957 15.1145 43.0717C21.0351 50.3912 28.8426 56.0191 37.6911 59.4023C43.8395 61.7445 50.2482 62.9157 56.7869 62.9157C59.6497 62.9157 62.5449 62.688 65.3751 62.2325C65.9607 62.1349 66.5137 61.8096 66.8716 61.3216C67.2294 60.8337 67.3595 60.2156 67.2619 59.63C67.0668 58.524 66.1234 57.7107 65.0173 57.7107C64.8872 57.7107 64.757 57.7107 64.6595 57.7432C62.057 58.1661 59.422 58.3938 56.7869 58.3938C41.9202 58.3938 27.9968 51.7575 18.6604 40.2415C18.2049 39.6559 17.5543 39.3306 16.8712 39.3306Z" fill="#AD5E00"/>
<path d="M59.5516 8.16532C59.1287 9.30391 57.8275 9.88947 56.6889 9.46656C55.5503 9.04366 54.9647 7.74242 55.3876 6.60382C55.8105 5.46523 57.1118 4.87967 58.2504 5.30258C59.4215 5.72548 60.0071 7.02673 59.5516 8.16532Z" fill="url(#paint3_linear_1806_1877)"/>
<path d="M23.9656 3.80645C23.5427 4.94504 22.2414 5.5306 21.1028 5.1077C19.9643 4.68479 19.3787 3.38353 19.8016 2.24494C20.2245 1.10635 21.5258 0.520786 22.6644 0.943691C23.8029 1.3666 24.3885 2.66786 23.9656 3.80645Z" fill="url(#paint4_linear_1806_1877)"/>
<path d="M89.0281 28.595C88.6052 29.7336 87.3039 30.3192 86.1653 29.8963C85.0268 29.4733 84.4412 28.1721 84.8641 27.0335C85.287 25.8949 86.5883 25.3094 87.7269 25.7323C88.898 26.1877 89.4835 27.4564 89.0281 28.595Z" fill="url(#paint5_linear_1806_1877)"/>
<path opacity="0.3" d="M87.402 26.6432C88.4104 27.0336 88.9634 28.042 88.8008 29.0505C88.8984 28.9204 88.9635 28.7902 89.0285 28.6276C89.4514 27.489 88.8984 26.1878 87.7273 25.7649C86.5887 25.3419 85.2874 25.895 84.8645 27.0661C84.7994 27.2288 84.7669 27.3589 84.7344 27.5215C85.3199 26.6432 86.426 26.2528 87.402 26.6432Z" fill="white"/>
<path opacity="0.3" d="M22.3395 1.82191C23.3479 2.21229 23.9009 3.22076 23.7383 4.22923C23.8359 4.0991 23.901 3.96898 23.966 3.80632C24.3889 2.66773 23.8359 1.36647 22.6648 0.943566C21.5262 0.520661 20.2249 1.07369 19.802 2.24481C19.7369 2.40747 19.7044 2.5376 19.6719 2.70026C20.2249 1.82192 21.331 1.46407 22.3395 1.82191Z" fill="white"/>
<path opacity="0.3" d="M57.9253 6.18129C58.9338 6.57166 59.4868 7.58011 59.3241 8.58858C59.4217 8.45846 59.4868 8.32834 59.5518 8.16568C59.9747 7.02709 59.4217 5.72585 58.2506 5.30294C57.112 4.88004 55.8107 5.43307 55.3878 6.60419C55.3228 6.76684 55.2902 6.89698 55.2577 7.05963C55.8433 6.18129 56.9494 5.79091 57.9253 6.18129Z" fill="white"/>
<path d="M54.5397 13.1104L43.902 41.0221C43.5116 42.0631 42.3079 42.5836 41.267 42.1282C39.5103 41.3799 37.5259 40.3389 35.4439 38.875C33.492 37.5087 31.9305 36.1099 30.6943 34.8412C30.0762 34.1905 29.7509 33.3122 29.7835 32.4013C30.0763 27.0012 30.4015 21.601 30.6943 16.1683C33.2643 19.1286 35.8668 22.1215 38.4368 25.0818C43.8369 21.0805 49.2046 17.0792 54.5397 13.1104Z" fill="url(#paint6_linear_1806_1877)"/>
<path d="M28.9035 15.8427L27.1468 30.189C27.1143 30.5143 26.6914 30.6119 26.4962 30.3516L25.5528 28.9853C25.2926 28.5949 25.1625 28.107 25.2275 27.619L26.9191 13.7607L28.9035 15.8427Z" fill="url(#paint7_linear_1806_1877)"/>
<path d="M27.8978 39.6234C28.158 39.3306 28.6134 39.2981 28.9062 39.5583C29.2966 39.9161 29.752 40.274 30.2075 40.6318C30.7605 41.0547 31.3135 41.4776 31.8666 41.803C32.1919 42.0307 32.2895 42.4536 32.0618 42.7789C31.8341 43.1042 31.4112 43.2018 31.0858 42.9741C30.6304 42.6813 30.175 42.356 29.687 42.0307C29.0364 41.5752 28.4508 41.0873 27.8978 40.6318C27.605 40.3716 27.5725 39.9161 27.8327 39.6234C27.8653 39.6884 27.8652 39.6559 27.8978 39.6234Z" fill="url(#paint8_linear_1806_1877)"/>
<path d="M24.3509 48.9598C24.6111 48.667 25.0666 48.6345 25.3594 48.8947C25.7497 49.2526 26.2052 49.6104 26.6606 49.9683C27.2136 50.3912 27.7667 50.8141 28.3197 51.1394C28.645 51.3671 28.7426 51.79 28.5149 52.1153C28.2872 52.4406 27.8643 52.5382 27.539 52.3105C27.0835 52.0177 26.6281 51.6924 26.1401 51.3671C25.4895 50.9117 24.9039 50.4237 24.3509 49.9683C24.0581 49.708 24.0256 49.2526 24.2858 48.9598C24.3184 48.9923 24.3184 48.9598 24.3509 48.9598Z" fill="url(#paint9_linear_1806_1877)"/>
<path d="M10.7818 21.6008L10.9769 24.0732C11.0095 24.5286 11.2697 24.9515 11.6601 25.1792L13.8071 26.448C14.7831 27.0335 14.6855 28.4974 13.6445 28.9203L11.3348 29.8637C10.9119 30.0264 10.6191 30.4168 10.5215 30.8397L10.001 33.247C9.74076 34.353 8.34191 34.7109 7.59369 33.8325L5.99966 31.9457C5.70688 31.5879 5.25146 31.4252 4.79602 31.4578L2.32366 31.6855C1.18507 31.7831 0.404321 30.5469 1.02241 29.5709L2.32366 27.4564C2.55138 27.066 2.58389 26.5781 2.42123 26.1877L1.41277 23.9105C0.957335 22.8695 1.90075 21.731 3.00681 22.0237L5.41412 22.6093C5.86956 22.7069 6.32497 22.6093 6.65028 22.284L8.50458 20.6249C9.35039 19.9092 10.7167 20.4622 10.7818 21.6008Z" fill="url(#paint10_linear_1806_1877)"/>
<path d="M9.41478 20.2993C10.0979 20.2993 10.7486 20.8198 10.8136 21.568L11.0088 24.0404C11.0414 24.4958 11.3016 24.9187 11.692 25.1464L13.8391 26.4152C14.815 27.0007 14.7174 28.4646 13.6764 28.8875L11.3667 29.8309C10.9437 29.9936 10.651 30.384 10.5534 30.8069L10.0329 33.2142C9.87023 33.8973 9.28468 34.2877 8.66659 34.2877C8.27622 34.2877 7.88582 34.125 7.62557 33.7997L6.03158 31.9129C5.77133 31.5876 5.38093 31.425 4.99055 31.425C4.95802 31.425 4.89295 31.425 4.86042 31.425L2.38806 31.6527C2.35553 31.6527 2.29046 31.6527 2.25793 31.6527C1.1844 31.6527 0.501253 30.4816 1.08681 29.5381L2.38806 27.4236C2.61578 27.0332 2.64833 26.5453 2.48567 26.1549L1.47721 23.8777C1.05431 22.9343 1.76996 21.9258 2.7459 21.9258C2.84349 21.9258 2.97361 21.9259 3.07121 21.9584L5.47852 22.5439C5.57612 22.5765 5.70624 22.5765 5.80383 22.5765C6.12914 22.5765 6.45447 22.4464 6.71472 22.2186L8.56898 20.5596C8.76417 20.4294 9.08947 20.2993 9.41478 20.2993ZM9.41478 19.5186C8.89429 19.5186 8.37379 19.7137 7.95088 20.0716L6.09662 21.7307C5.99903 21.8283 5.86892 21.8608 5.70626 21.8608C5.67373 21.8608 5.60866 21.8608 5.57613 21.8283L3.16882 21.2427C3.00616 21.2102 2.81098 21.1776 2.64833 21.1776C1.90011 21.1776 1.21696 21.5355 0.826588 22.1861C0.436214 22.8042 0.371152 23.5849 0.663933 24.2681L1.67239 26.5453C1.73745 26.7079 1.73746 26.9031 1.63987 27.0658L0.338621 29.1803C-0.0842842 29.8635 -0.116839 30.7093 0.273535 31.3924C0.663909 32.0756 1.3796 32.531 2.19288 32.531C2.25794 32.531 2.35552 32.531 2.42058 32.531L4.89298 32.3033C5.1207 32.3033 5.28336 32.3684 5.38095 32.4985L6.97495 34.3853C7.39785 34.8733 8.01598 35.166 8.63407 35.166C9.67507 35.166 10.5534 34.4504 10.7811 33.4419L11.3016 31.0346C11.3341 30.8394 11.4643 30.7093 11.6594 30.6117L13.9691 29.6683C14.7499 29.343 15.2704 28.6273 15.3355 27.7815C15.4005 26.9356 14.9776 26.1549 14.2619 25.732L12.1149 24.4633C11.9522 24.3657 11.8546 24.203 11.8221 24.0079L11.6269 21.5355C11.4968 20.3644 10.5534 19.5186 9.41478 19.5186Z" fill="#AD5E00"/>
<path opacity="0.5" d="M7.42667 24.7237C7.23149 25.2116 6.54835 25.4068 5.89772 25.1466C5.2471 24.8863 4.88926 24.2682 5.08444 23.7803C5.27963 23.2923 5.96277 23.0971 6.61339 23.3574C7.29655 23.6176 7.65439 24.2357 7.42667 24.7237Z" fill="url(#paint11_linear_1806_1877)"/>
<path opacity="0.5" d="M8.70256 23.39C8.57243 23.6828 8.18207 23.7804 7.82423 23.6503C7.46639 23.4876 7.27119 23.1623 7.36879 22.8695C7.49891 22.5768 7.88927 22.4792 8.24711 22.6093C8.63749 22.7719 8.83268 23.1298 8.70256 23.39Z" fill="url(#paint12_linear_1806_1877)"/>
<path d="M27.5977 61.9064L29.5171 63.4679C29.8749 63.7607 30.3303 63.8583 30.7858 63.7282L33.1605 63.045C34.2666 62.7197 35.2426 63.8258 34.8197 64.8668L33.9088 67.1765C33.7461 67.5994 33.8112 68.0874 34.0389 68.4452L35.4377 70.4947C36.0883 71.4381 35.3401 72.7068 34.2016 72.6417L31.7292 72.5116C31.2738 72.4791 30.8508 72.6743 30.558 73.0321L29.0291 74.984C28.3134 75.8949 26.882 75.6021 26.5893 74.496L25.9712 72.0887C25.841 71.6333 25.5157 71.308 25.0928 71.1453L22.7506 70.2995C21.677 69.9091 21.5144 68.4452 22.4903 67.8271L24.5723 66.4933C24.9627 66.2331 25.1904 65.8427 25.223 65.3873L25.3205 62.9149C25.3856 61.7763 26.7194 61.1582 27.5977 61.9064Z" fill="url(#paint13_linear_1806_1877)"/>
<path d="M26.7214 61.5813C27.0142 61.5813 27.3395 61.6789 27.5997 61.9067L29.5191 63.4681C29.7793 63.6633 30.0721 63.7935 30.3974 63.7935C30.5275 63.7935 30.6577 63.7609 30.7878 63.7284L33.1625 63.0452C33.2927 63.0127 33.4228 62.9802 33.5529 62.9802C34.4963 62.9802 35.212 63.9236 34.8217 64.867L33.9108 67.1767C33.7481 67.5996 33.8132 68.0876 34.0409 68.4454L35.4397 70.4949C36.0578 71.4058 35.4072 72.6419 34.3011 72.6419C34.2686 72.6419 34.2361 72.6419 34.2036 72.6419L31.7312 72.5118C31.6987 72.5118 31.6661 72.5118 31.6661 72.5118C31.2432 72.5118 30.8528 72.707 30.56 73.0323L29.0311 74.9842C28.7383 75.342 28.3479 75.5047 27.9575 75.5047C27.372 75.5047 26.7864 75.1468 26.6238 74.4637L26.0057 72.0564C25.8755 71.6009 25.5503 71.2756 25.1273 71.113L22.7851 70.2672C21.7116 69.8768 21.5489 68.4129 22.5249 67.7948L24.6069 66.461C24.9972 66.2008 25.2249 65.8104 25.2575 65.355L25.355 62.8826C25.355 62.1344 26.0382 61.5813 26.7214 61.5813ZM26.7214 60.7681C25.5177 60.7681 24.5743 61.7115 24.5418 62.8826L24.4442 65.355C24.4442 65.5501 24.3466 65.7128 24.1839 65.8104L22.1019 67.1442C21.3862 67.5996 21.0284 68.4129 21.0935 69.2262C21.1911 70.072 21.7441 70.7551 22.5249 71.0479L24.8671 71.8937C25.0297 71.9588 25.1924 72.1215 25.225 72.2841L25.843 74.6914C26.1033 75.6673 26.9816 76.318 27.9575 76.318C28.6407 76.318 29.2588 76.0252 29.6817 75.4722L31.2107 73.5203C31.3083 73.3902 31.4709 73.2926 31.6661 73.2926L34.171 73.4227C34.2036 73.4227 34.2686 73.4227 34.3011 73.4227C35.1144 73.4227 35.8626 72.9672 36.2205 72.2516C36.6108 71.5359 36.5458 70.6575 36.0903 70.0069L34.6915 67.9574C34.5939 67.7948 34.5614 67.5996 34.6264 67.437L35.5373 65.1273C35.7976 64.4441 35.7325 63.6959 35.3096 63.1103C34.8867 62.5248 34.2361 62.1344 33.5204 62.1344C33.3252 62.1344 33.0975 62.1669 32.9023 62.232L30.5275 62.9151C30.4625 62.9151 30.4299 62.9477 30.3649 62.9477C30.2347 62.9477 30.1046 62.9151 30.007 62.8175L28.0877 61.256C27.6973 60.9633 27.2419 60.7681 26.7214 60.7681Z" fill="#AD5E00"/>
<path opacity="0.5" d="M27.5697 66.4934C27.7974 66.9814 27.472 67.5995 26.8214 67.8923C26.2033 68.185 25.4877 68.0224 25.26 67.5344C25.0322 67.0464 25.3575 66.4283 26.0081 66.1356C26.6588 65.8428 27.3419 66.0054 27.5697 66.4934Z" fill="url(#paint14_linear_1806_1877)"/>
<path opacity="0.5" d="M27.4667 64.6395C27.5968 64.9322 27.4017 65.2901 27.0438 65.4527C26.686 65.6154 26.2956 65.5178 26.1654 65.2575C26.0353 64.9973 26.2305 64.6069 26.5884 64.4443C26.9462 64.2816 27.3366 64.3792 27.4667 64.6395Z" fill="url(#paint15_linear_1806_1877)"/>
<path d="M10.2968 51.334L11.6956 52.0171C11.9559 52.1472 12.2487 52.1472 12.5089 51.9846L13.8752 51.2038C14.4933 50.846 15.2741 51.3665 15.1765 52.0822L14.9487 53.6437C14.9162 53.9364 15.0138 54.2292 15.2415 54.4244L16.4126 55.4979C16.9331 55.9859 16.7054 56.8643 15.9898 56.9944L14.4283 57.2546C14.1355 57.3197 13.9078 57.4824 13.7776 57.7426L13.127 59.174C12.8342 59.8246 11.8908 59.8571 11.5655 59.239L10.8173 57.8402C10.6872 57.5799 10.4269 57.4173 10.1342 57.3847L8.57264 57.2221C7.85696 57.157 7.53165 56.2787 8.05215 55.7582L9.12569 54.6196C9.32088 54.4244 9.41846 54.1316 9.3534 53.8389L9.02808 52.3099C8.89796 51.5617 9.64619 51.0086 10.2968 51.334Z" fill="url(#paint16_linear_1806_1877)"/>
<path d="M14.3302 51.0737C14.8182 51.0737 15.2736 51.5292 15.2085 52.0822L14.9808 53.6437C14.9483 53.9365 15.0459 54.2292 15.2736 54.4244L16.4447 55.498C16.9652 55.9859 16.7375 56.8643 16.0218 56.9944L14.4603 57.2546C14.1675 57.3197 13.9398 57.4824 13.8097 57.7426L13.159 59.174C12.9964 59.4993 12.6711 59.6945 12.3458 59.6945C12.053 59.6945 11.7277 59.5318 11.5651 59.239L10.8168 57.8402C10.6867 57.58 10.4265 57.4173 10.1337 57.3848L8.57216 57.2221C7.85648 57.157 7.53117 56.2787 8.05167 55.7582L9.12522 54.6196C9.3204 54.4244 9.41798 54.1317 9.35292 53.8389L9.02761 52.3099C8.89748 51.7243 9.35291 51.2689 9.87341 51.2689C10.0035 51.2689 10.1337 51.3014 10.2638 51.3665L11.6626 52.0497C11.7927 52.1147 11.9229 52.1472 12.053 52.1472C12.2157 52.1472 12.3458 52.1147 12.4759 52.0171L13.8422 51.2364C14.0374 51.1388 14.1675 51.0737 14.3302 51.0737ZM14.3302 50.293C14.0374 50.293 13.7446 50.358 13.4844 50.5207L12.1181 51.3014L10.6542 50.6183C10.4264 50.5207 10.1662 50.4556 9.90593 50.4556C9.38543 50.4556 8.93 50.6834 8.60469 51.0737C8.27937 51.4641 8.14925 51.9846 8.27937 52.4726L8.60469 54.0015L7.49866 55.2052C7.04322 55.6606 6.91307 56.3438 7.14078 56.9293C7.3685 57.5474 7.88902 57.9703 8.53964 58.0354L10.1012 58.198L10.8819 59.6294C11.1746 60.1824 11.7277 60.5078 12.3783 60.5078C13.0615 60.5078 13.647 60.1174 13.9073 59.5318L14.5579 58.1004L16.1519 57.7751C16.8026 57.6775 17.2905 57.2221 17.4857 56.5715C17.6809 55.9534 17.4857 55.3028 16.9977 54.8473L15.8266 53.7738L16.0218 52.1472C16.0869 51.6593 15.9568 51.1713 15.6314 50.8135C15.2736 50.4882 14.8182 50.293 14.3302 50.293Z" fill="#AD5E00"/>
<path opacity="0.5" d="M10.9455 54.1644C11.1407 54.4247 11.043 54.8801 10.6852 55.1403C10.3274 55.4006 9.87193 55.4006 9.67674 55.1403C9.48155 54.8801 9.57916 54.4247 9.93701 54.1644C10.2948 53.8716 10.7503 53.8716 10.9455 54.1644Z" fill="url(#paint17_linear_1806_1877)"/>
<path opacity="0.5" d="M10.6191 53.0258C10.7493 53.1885 10.6842 53.4162 10.489 53.5788C10.2938 53.7415 10.0335 53.7415 9.90342 53.5788C9.7733 53.4162 9.83837 53.1885 10.0336 53.0258C10.2613 52.8631 10.489 52.8631 10.6191 53.0258Z" fill="url(#paint18_linear_1806_1877)"/>
<path d="M55.1147 66.9816L55.7328 68.413C55.8304 68.6732 56.0906 68.8684 56.3509 68.9335L57.8798 69.2588C58.5955 69.3889 58.8233 70.2998 58.2702 70.7878L57.0991 71.8288C56.8714 72.0239 56.7738 72.3167 56.8063 72.577L57.0015 74.1385C57.0991 74.8541 56.3184 75.3747 55.6677 74.9843L54.334 74.171C54.0737 74.0083 53.7809 74.0083 53.5207 74.1385L52.0893 74.7891C51.4387 75.0819 50.723 74.4963 50.8856 73.8131L51.2435 72.2842C51.3086 71.9914 51.2435 71.6986 51.0483 71.5034L49.9748 70.3323C49.4868 69.8118 49.8121 68.9335 50.5278 68.8684L52.0893 68.7383C52.3821 68.7058 52.6423 68.5431 52.7725 68.2828L53.5532 66.9166C53.9111 66.2659 54.8544 66.2984 55.1147 66.9816Z" fill="url(#paint19_linear_1806_1877)"/>
<path d="M54.3353 66.4287C54.6607 66.4287 54.986 66.6239 55.1486 66.9492L55.7667 68.3806C55.8643 68.6408 56.1245 68.836 56.3848 68.9011L57.9138 69.2264C58.6295 69.3565 58.8572 70.2674 58.3041 70.7553L57.133 71.7963C56.9053 71.9915 56.8077 72.2843 56.8402 72.5446L57.0354 74.1061C57.1005 74.6591 56.6451 75.082 56.1571 75.082C55.9944 75.082 55.8643 75.0494 55.7016 74.9519L54.3679 74.1386C54.2377 74.041 54.0751 74.0085 53.9124 74.0085C53.7823 74.0085 53.6522 74.041 53.5546 74.0735L52.1232 74.7242C51.9931 74.7892 51.863 74.8217 51.7654 74.8217C51.2449 74.8217 50.7894 74.3338 50.9196 73.7482L51.2774 72.2192C51.3425 71.9265 51.2774 71.6337 51.0822 71.4385L50.0087 70.2674C49.5207 69.7469 49.846 68.8685 50.5617 68.8035L52.1232 68.6733C52.416 68.6408 52.6762 68.4782 52.8064 68.2179L53.5871 66.8516C53.7172 66.5914 54.0426 66.4287 54.3353 66.4287ZM54.3353 65.6479C53.7173 65.6479 53.1642 65.9733 52.8714 66.4938L52.0907 67.8601L50.4641 68.0227C49.8135 68.0878 49.293 68.4782 49.0328 69.0962C48.805 69.7143 48.9352 70.365 49.3581 70.8529L50.4316 72.024L50.1063 73.6181C49.9762 74.1061 50.1063 74.6266 50.4316 75.0495C50.7569 75.4398 51.2449 75.7001 51.7329 75.7001C51.9606 75.7001 52.2208 75.635 52.4485 75.5374L53.8799 74.8868L55.2787 75.7001C55.539 75.8627 55.8318 75.9278 56.1246 75.9278C56.6125 75.9278 57.0679 75.7326 57.3932 75.3748C57.7186 75.0169 57.8487 74.5615 57.8162 74.0735L57.621 72.512L58.8246 71.406C59.3126 70.9831 59.5078 70.3324 59.3451 69.7143C59.1825 69.0963 58.6945 68.6083 58.0439 68.5107L56.5149 68.1854L55.8318 66.689C55.6041 66.0383 54.986 65.6479 54.3353 65.6479Z" fill="#AD5E00"/>
<path opacity="0.5" d="M53.7838 69.5515C53.7512 69.8768 53.3934 70.1371 52.938 70.1371C52.4825 70.1045 52.1572 69.8117 52.1897 69.4864C52.2223 69.1611 52.5801 68.9009 53.0356 68.9009C53.4585 68.9009 53.7838 69.1937 53.7838 69.5515Z" fill="url(#paint20_linear_1806_1877)"/>
<path opacity="0.5" d="M54.2725 68.4783C54.2725 68.6735 54.0448 68.8036 53.8171 68.8036C53.5568 68.8036 53.3616 68.6084 53.3942 68.4132C53.3942 68.218 53.6219 68.0879 53.8496 68.0879C54.0773 68.1204 54.2725 68.2831 54.2725 68.4783Z" fill="url(#paint21_linear_1806_1877)"/>
<defs>
<linearGradient id="paint0_linear_1806_1877" x1="15.3251" y1="20.2232" x2="80.4029" y2="45.0147" gradientUnits="userSpaceOnUse">
<stop stop-color="#BE6D00"/>
<stop offset="0.0301085" stop-color="#C67D0F"/>
<stop offset="0.1206" stop-color="#DAA837"/>
<stop offset="0.2084" stop-color="#EAC956"/>
<stop offset="0.2917" stop-color="#F6E16D"/>
<stop offset="0.3686" stop-color="#FDF07A"/>
<stop offset="0.433" stop-color="#FFF57F"/>
<stop offset="0.5667" stop-color="#E8C653"/>
<stop offset="0.6967" stop-color="#D69F2F"/>
<stop offset="0.8161" stop-color="#C98415"/>
<stop offset="0.9209" stop-color="#C17306"/>
<stop offset="1" stop-color="#BE6D00"/>
</linearGradient>
<linearGradient id="paint1_linear_1806_1877" x1="17.7974" y1="35.0519" x2="68.6873" y2="54.4386" gradientUnits="userSpaceOnUse">
<stop stop-color="#BE6D00"/>
<stop offset="0.00510054" stop-color="#C07104"/>
<stop offset="0.067105" stop-color="#D6A030"/>
<stop offset="0.1262" stop-color="#E8C552"/>
<stop offset="0.181" stop-color="#F5DF6B"/>
<stop offset="0.2299" stop-color="#FCEF7A"/>
<stop offset="0.2679" stop-color="#FFF57F"/>
<stop offset="0.3167" stop-color="#FAEA75"/>
<stop offset="0.6429" stop-color="#DAA736"/>
<stop offset="0.8792" stop-color="#C67D0F"/>
<stop offset="1" stop-color="#BE6D00"/>
</linearGradient>
<linearGradient id="paint2_linear_1806_1877" x1="14.2609" y1="44.3312" x2="65.1508" y2="63.7179" gradientUnits="userSpaceOnUse">
<stop stop-color="#BE6D00"/>
<stop offset="0.00510054" stop-color="#C07104"/>
<stop offset="0.067105" stop-color="#D6A030"/>
<stop offset="0.1262" stop-color="#E8C552"/>
<stop offset="0.181" stop-color="#F5DF6B"/>
<stop offset="0.2299" stop-color="#FCEF7A"/>
<stop offset="0.2679" stop-color="#FFF57F"/>
<stop offset="0.3167" stop-color="#FAEA75"/>
<stop offset="0.6429" stop-color="#DAA736"/>
<stop offset="0.8792" stop-color="#C67D0F"/>
<stop offset="1" stop-color="#BE6D00"/>
</linearGradient>
<linearGradient id="paint3_linear_1806_1877" x1="56.6905" y1="9.4461" x2="58.2746" y2="5.28794" gradientUnits="userSpaceOnUse">
<stop stop-color="#BE6D00"/>
<stop offset="0.1339" stop-color="#C27407"/>
<stop offset="0.3344" stop-color="#CB891A"/>
<stop offset="0.5767" stop-color="#DBAA39"/>
<stop offset="0.8493" stop-color="#F1D864"/>
<stop offset="1" stop-color="#FFF57F"/>
</linearGradient>
<linearGradient id="paint4_linear_1806_1877" x1="21.0868" y1="5.10288" x2="22.6708" y2="0.944705" gradientUnits="userSpaceOnUse">
<stop stop-color="#BE6D00"/>
<stop offset="0.1339" stop-color="#C27407"/>
<stop offset="0.3344" stop-color="#CB891A"/>
<stop offset="0.5767" stop-color="#DBAA39"/>
<stop offset="0.8493" stop-color="#F1D864"/>
<stop offset="1" stop-color="#FFF57F"/>
</linearGradient>
<linearGradient id="paint5_linear_1806_1877" x1="86.1634" y1="29.8976" x2="87.7474" y2="25.7394" gradientUnits="userSpaceOnUse">
<stop stop-color="#BE6D00"/>
<stop offset="0.1339" stop-color="#C27407"/>
<stop offset="0.3344" stop-color="#CB891A"/>
<stop offset="0.5767" stop-color="#DBAA39"/>
<stop offset="0.8493" stop-color="#F1D864"/>
<stop offset="1" stop-color="#FFF57F"/>
</linearGradient>
<linearGradient id="paint6_linear_1806_1877" x1="33.3267" y1="39.076" x2="44.6602" y2="9.32549" gradientUnits="userSpaceOnUse">
<stop stop-color="white"/>
<stop offset="0.1467" stop-color="white"/>
<stop offset="1" stop-color="white"/>
</linearGradient>
<linearGradient id="paint7_linear_1806_1877" x1="24.1614" y1="29.5455" x2="29.7562" y2="14.8591" gradientUnits="userSpaceOnUse">
<stop stop-color="white"/>
<stop offset="0.1467" stop-color="white"/>
<stop offset="1" stop-color="white"/>
</linearGradient>
<linearGradient id="paint8_linear_1806_1877" x1="29.4745" y1="41.9297" x2="30.4035" y2="40.6442" gradientUnits="userSpaceOnUse">
<stop stop-color="white"/>
<stop offset="1" stop-color="white"/>
</linearGradient>
<linearGradient id="paint9_linear_1806_1877" x1="25.9278" y1="51.2357" x2="26.8568" y2="49.9502" gradientUnits="userSpaceOnUse">
<stop stop-color="white"/>
<stop offset="1" stop-color="white"/>
</linearGradient>
<linearGradient id="paint10_linear_1806_1877" x1="4.85612" y1="32.9066" x2="9.92757" y2="20.4167" gradientUnits="userSpaceOnUse">
<stop stop-color="#BE6D00"/>
<stop offset="0.1746" stop-color="#CE8F1F"/>
<stop offset="0.4354" stop-color="#E3BB48"/>
<stop offset="0.6693" stop-color="#F2DB66"/>
<stop offset="0.8654" stop-color="#FCEE78"/>
<stop offset="1" stop-color="#FFF57F"/>
</linearGradient>
<linearGradient id="paint11_linear_1806_1877" x1="5.90801" y1="25.1704" x2="6.64233" y2="23.362" gradientUnits="userSpaceOnUse">
<stop stop-color="white"/>
<stop offset="0.8605" stop-color="white"/>
<stop offset="1" stop-color="white"/>
</linearGradient>
<linearGradient id="paint12_linear_1806_1877" x1="7.84876" y1="23.6452" x2="8.26512" y2="22.6198" gradientUnits="userSpaceOnUse">
<stop stop-color="white"/>
<stop offset="0.8605" stop-color="white"/>
<stop offset="1" stop-color="white"/>
</linearGradient>
<linearGradient id="paint13_linear_1806_1877" x1="31.7066" y1="73.9895" x2="26.1435" y2="61.7108" gradientUnits="userSpaceOnUse">
<stop stop-color="#BE6D00"/>
<stop offset="0.1746" stop-color="#CE8F1F"/>
<stop offset="0.4354" stop-color="#E3BB48"/>
<stop offset="0.6693" stop-color="#F2DB66"/>
<stop offset="0.8654" stop-color="#FCEE78"/>
<stop offset="1" stop-color="#FFF57F"/>
</linearGradient>
<linearGradient id="paint14_linear_1806_1877" x1="26.8296" y1="67.896" x2="26.0241" y2="66.1181" gradientUnits="userSpaceOnUse">
<stop stop-color="white"/>
<stop offset="0.8605" stop-color="white"/>
<stop offset="1" stop-color="white"/>
</linearGradient>
<linearGradient id="paint15_linear_1806_1877" x1="27.0499" y1="65.4438" x2="26.5931" y2="64.4358" gradientUnits="userSpaceOnUse">
<stop stop-color="white"/>
<stop offset="0.8605" stop-color="white"/>
<stop offset="1" stop-color="white"/>
</linearGradient>
<linearGradient id="paint16_linear_1806_1877" x1="14.6128" y1="58.16" x2="9.37145" y2="51.4164" gradientUnits="userSpaceOnUse">
<stop stop-color="#BE6D00"/>
<stop offset="0.1746" stop-color="#CE8F1F"/>
<stop offset="0.4354" stop-color="#E3BB48"/>
<stop offset="0.6693" stop-color="#F2DB66"/>
<stop offset="0.8654" stop-color="#FCEE78"/>
<stop offset="1" stop-color="#FFF57F"/>
</linearGradient>
<linearGradient id="paint17_linear_1806_1877" x1="10.7031" y1="55.1269" x2="9.94413" y2="54.1504" gradientUnits="userSpaceOnUse">
<stop stop-color="white"/>
<stop offset="0.8605" stop-color="white"/>
<stop offset="1" stop-color="white"/>
</linearGradient>
<linearGradient id="paint18_linear_1806_1877" x1="10.4788" y1="53.5824" x2="10.0485" y2="53.0288" gradientUnits="userSpaceOnUse">
<stop stop-color="white"/>
<stop offset="0.8605" stop-color="white"/>
<stop offset="1" stop-color="white"/>
</linearGradient>
<linearGradient id="paint19_linear_1806_1877" x1="53.91" y1="74.9724" x2="54.3712" y2="66.4439" gradientUnits="userSpaceOnUse">
<stop stop-color="#BE6D00"/>
<stop offset="0.1746" stop-color="#CE8F1F"/>
<stop offset="0.4354" stop-color="#E3BB48"/>
<stop offset="0.6693" stop-color="#F2DB66"/>
<stop offset="0.8654" stop-color="#FCEE78"/>
<stop offset="1" stop-color="#FFF57F"/>
</linearGradient>
<linearGradient id="paint20_linear_1806_1877" x1="52.9495" y1="70.12" x2="53.0163" y2="68.8852" gradientUnits="userSpaceOnUse">
<stop stop-color="white"/>
<stop offset="0.8605" stop-color="white"/>
<stop offset="1" stop-color="white"/>
</linearGradient>
<linearGradient id="paint21_linear_1806_1877" x1="53.794" y1="68.8076" x2="53.8319" y2="68.1074" gradientUnits="userSpaceOnUse">
<stop stop-color="white"/>
<stop offset="0.8605" stop-color="white"/>
<stop offset="1" stop-color="white"/>
</linearGradient>
</defs>
</svg>
