<svg width="91" height="80" viewBox="0 0 91 80" fill="none" xmlns="http://www.w3.org/2000/svg">
<path d="M77.1537 59.972C83.5913 47.852 80.93 31.5601 69.6731 20.3392C58.4162 9.08229 42.1603 6.42093 30.0403 12.8586L29.1411 11.9595L23.3149 17.7857C11.1949 29.9057 12.3458 50.6572 25.8324 64.1439C39.3191 77.6306 60.1065 78.7814 72.1906 66.6614L78.0169 60.8351L77.1537 59.972Z" fill="url(#paint0_linear_1806_1809)"/>
<path d="M78.05 60.871C65.93 72.9911 45.1785 71.8402 31.6918 58.3535C18.2051 44.8668 17.0543 24.0794 29.1743 11.9953C41.2943 -0.0887539 62.0458 1.02614 75.5325 14.5128C89.0192 27.9995 90.1341 48.751 78.05 60.871Z" fill="url(#paint1_linear_1806_1809)"/>
<path d="M29.1429 14.9086C41.2629 2.78862 62.0145 3.93949 75.5011 17.4262C82.3703 24.2954 86.0027 33.0347 86.3624 41.5583C86.8299 32.1356 83.1256 22.1735 75.5011 14.513C62.0145 1.02636 41.227 -0.124505 29.1429 11.9955C23.2088 17.9297 20.4755 25.9857 20.7992 34.2216C21.1588 27.0287 23.8921 20.1595 29.1429 14.9086Z" fill="url(#paint2_linear_1806_1809)"/>
<path d="M32.4518 57.5622C19.1089 44.2194 17.8502 23.7556 29.5386 11.5996C29.3948 11.7435 29.2509 11.8514 29.143 11.9952C17.023 24.1152 18.1739 44.8667 31.6606 58.3534C45.1472 71.8401 65.9347 72.991 78.0188 60.8709C78.1626 60.7271 78.2705 60.6192 78.4144 60.4753C66.2584 72.1638 45.7946 70.905 32.4518 57.5622Z" fill="url(#paint3_linear_1806_1809)"/>
<path d="M49.9979 3.57945C58.953 3.57945 68.2678 7.24783 75.4967 14.5126C88.9834 27.9993 90.1342 48.7868 78.0142 60.8709L72.1879 66.6971C66.5775 72.3076 59.0969 75.0768 51.3285 75.0768C42.3734 75.0768 33.0586 71.4084 25.8298 64.1436C12.3431 50.6569 11.1922 29.8695 23.3122 17.7854L29.1385 11.9592C34.7489 6.34872 42.2655 3.57945 49.9979 3.57945ZM49.9979 2.71631C41.726 2.71631 34.0656 5.77329 28.4911 11.3478L22.6649 17.174C16.6228 23.2161 13.5659 31.4879 14.0694 40.515C14.5729 49.5061 18.493 58.1016 25.1824 64.791C32.3033 71.9119 41.7979 75.9759 51.3285 75.9759C59.6004 75.9759 67.2608 72.9189 72.8353 67.3445L78.6615 61.5182C91.1052 49.0745 89.9544 27.7116 76.144 13.9013C69.023 6.7803 59.5284 2.71631 49.9979 2.71631Z" fill="#AD5E00"/>
<path d="M72.7884 55.6162C82.2967 46.1078 81.4086 29.8037 70.8048 19.1998C60.2009 8.59592 43.8967 7.70783 34.3884 17.2162C24.88 26.7246 25.7681 43.0288 36.3719 53.6326C46.9758 64.2365 63.28 65.1246 72.7884 55.6162Z" fill="#BA7625"/>
<path d="M68.592 21.4183C78.77 31.5962 79.9928 47.025 71.685 56.6634C72.0806 56.3398 72.4403 55.9801 72.8359 55.6205C82.3665 46.0899 81.4673 29.798 70.8578 19.1885C60.2483 8.57894 43.9204 7.67983 34.4258 17.2104C34.0662 17.5701 33.7066 17.9657 33.3829 18.3613C42.9494 10.0175 58.4141 11.2403 68.592 21.4183Z" fill="#AD5E00"/>
<path d="M65.3864 24.6187C57.654 16.8864 46.1814 15.6276 38.413 21.1661L38.2332 20.9863L36.2192 23.0003C28.5947 30.6248 29.314 43.6439 37.8016 52.1316C46.2892 60.6192 59.3443 61.3385 66.9328 53.714L68.9468 51.7L68.767 51.5202C74.3775 43.8238 73.1187 32.3511 65.3864 24.6187Z" fill="#AD5E00"/>
<path d="M68.9875 51.736C61.3631 59.3605 48.3439 58.6412 39.8563 50.1536C31.3687 41.6659 30.6494 28.6108 38.2739 21.0223C45.8983 13.3979 58.9175 14.1172 67.4051 22.6048C75.8927 31.0924 76.612 44.1475 68.9875 51.736Z" fill="url(#paint4_linear_1806_1809)"/>
<path d="M38.2749 23.0363C45.8993 15.4119 58.9185 16.1312 67.4061 24.6188C71.6859 28.8986 73.9876 34.2932 74.2393 39.616C74.5271 33.6818 72.2253 27.424 67.4061 22.6048C58.9185 14.1172 45.8634 13.3979 38.2749 21.0223C34.4986 24.7986 32.7723 29.9415 33.0241 35.1923C33.2399 30.6608 34.9661 26.3451 38.2749 23.0363Z" fill="url(#paint5_linear_1806_1809)"/>
<path d="M44.779 25.9137L52.9789 29.2944L59.3446 24.7988L59.956 33.2145L67.2568 38.6811L59.3806 40.5153L57.5464 48.3556L52.1158 41.0547L43.6641 40.4793L48.1597 34.1136L44.779 25.9137Z" fill="#BA7625"/>
<path d="M52.4058 30.5172L58.7355 26.0216L59.3469 34.4373L65.5328 39.0767L67.2591 38.6811L59.9583 33.2145L59.3469 24.7988L52.9812 29.2944L44.7813 25.9137L45.5006 27.676L52.4058 30.5172Z" fill="#AD5E00"/>
<path d="M19.7488 64.0722L19.9646 66.8055C20.0005 67.309 20.2882 67.7766 20.7198 68.0283L23.0935 69.4309C24.1724 70.0783 24.0645 71.6967 22.9136 72.1642L20.3602 73.2072C19.8926 73.387 19.569 73.8186 19.4611 74.2861L18.8856 76.9475C18.5979 78.1703 17.0514 78.5659 16.2243 77.5949L14.462 75.5089C14.1383 75.1133 13.6348 74.9335 13.1313 74.9695L10.398 75.2212C9.13928 75.3291 8.27613 73.9624 8.95945 72.8835L10.398 70.5458C10.6498 70.1143 10.6857 69.5748 10.5059 69.1432L9.39101 66.6257C8.88751 65.4748 9.93049 64.2161 11.1533 64.5398L13.8147 65.1871C14.3182 65.295 14.8216 65.1871 15.1813 64.8275L17.2313 62.9933C18.1664 62.1661 19.6769 62.7775 19.7488 64.0722Z" fill="url(#paint6_linear_1806_1809)"/>
<path d="M18.2443 62.6335C18.9996 62.6335 19.7189 63.2089 19.7908 64.0361L20.0066 66.7694C20.0426 67.2729 20.3303 67.7404 20.7619 67.9922L23.1356 69.3948C24.2145 70.0422 24.1066 71.6606 22.9557 72.1281L20.4022 73.1711C19.9347 73.3509 19.611 73.7825 19.5031 74.25L18.9277 76.9114C18.7479 77.6666 18.1005 78.0982 17.4172 78.0982C16.9856 78.0982 16.554 77.9184 16.2663 77.5587L14.5041 75.4728C14.2164 75.1132 13.7848 74.9333 13.3532 74.9333C13.3172 74.9333 13.2453 74.9333 13.2093 74.9333L10.476 75.1851C10.4401 75.1851 10.3681 75.1851 10.3322 75.1851C9.14534 75.1851 8.39009 73.8904 9.03745 72.8474L10.476 70.5097C10.7278 70.0781 10.7638 69.5387 10.5839 69.1071L9.46905 66.5896C9.00151 65.5466 9.7927 64.4317 10.8716 64.4317C10.9795 64.4317 11.1234 64.4317 11.2313 64.4677L13.8927 65.115C14.0005 65.151 14.1444 65.151 14.2523 65.151C14.6119 65.151 14.9716 65.0072 15.2593 64.7554L17.3093 62.9212C17.5251 62.7414 17.8847 62.6335 18.2443 62.6335ZM18.2443 61.7344C17.6689 61.7344 17.0935 61.9502 16.6259 62.3458L14.576 64.18C14.4681 64.2879 14.3243 64.3238 14.1444 64.3238C14.1085 64.3238 14.0365 64.3238 14.0006 64.2879L11.3392 63.6405C11.1594 63.6045 10.9436 63.5686 10.7638 63.5686C9.93658 63.5686 9.18134 63.9642 8.74976 64.6835C8.31819 65.3668 8.24626 66.2299 8.56994 66.9852L9.68483 69.5027C9.75676 69.6825 9.75677 69.8983 9.64887 70.0781L8.2103 72.4158C7.74276 73.1711 7.70677 74.1062 8.13834 74.8614C8.56991 75.6167 9.36114 76.1202 10.2603 76.1202C10.3322 76.1202 10.4401 76.1202 10.512 76.1202L13.2453 75.8684C13.4971 75.8684 13.6769 75.9403 13.7848 76.0842L15.547 78.1701C16.0146 78.7096 16.6979 79.0333 17.3812 79.0333C18.5321 79.0333 19.5031 78.2421 19.7549 77.1272L20.3303 74.4658C20.3663 74.25 20.5101 74.1062 20.7259 73.9983L23.2794 72.9553C24.1425 72.5956 24.718 71.8044 24.7899 70.8694C24.8618 69.9343 24.3943 69.0711 23.6031 68.6036L21.2294 67.201C21.0496 67.0931 20.9417 66.9133 20.9057 66.6975L20.6899 63.9642C20.5461 62.7054 19.5031 61.7344 18.2443 61.7344Z" fill="#AD5E00"/>
<path opacity="0.5" d="M16.0857 67.5246C15.8699 68.0641 15.1147 68.2799 14.3954 67.9921C13.6761 67.7044 13.2805 67.0211 13.4963 66.4816C13.7121 65.9422 14.4673 65.7264 15.1866 66.0141C15.9059 66.3018 16.3015 66.9851 16.0857 67.5246Z" fill="url(#paint7_linear_1806_1809)"/>
<path opacity="0.5" d="M17.4944 66.0502C17.3505 66.3738 16.919 66.4818 16.5234 66.3379C16.1278 66.1581 15.912 65.7984 16.0199 65.4747C16.1637 65.1511 16.5953 65.0432 16.9909 65.187C17.3865 65.3669 17.6023 65.7265 17.4944 66.0502Z" fill="url(#paint8_linear_1806_1809)"/>
<path d="M3.60776 46.6651L5.15425 47.4203C5.44196 47.5642 5.76564 47.5642 6.05336 47.3844L7.56385 46.5212C8.24718 46.1256 9.11032 46.7011 9.00243 47.4923L8.7507 49.2186C8.71473 49.5423 8.82259 49.8659 9.07434 50.0817L10.3691 51.2686C10.9445 51.808 10.6928 52.7791 9.90154 52.9229L8.17523 53.2106C7.85155 53.2826 7.5998 53.4624 7.45594 53.7501L6.73665 55.3325C6.41297 56.0518 5.37003 56.0878 5.01038 55.4045L4.18318 53.858C4.03932 53.5703 3.75162 53.3905 3.42794 53.3545L1.70163 53.1747C0.910407 53.1027 0.550771 52.1317 1.1262 51.5563L2.31305 50.2975C2.52883 50.0817 2.63671 49.7581 2.56478 49.4344L2.20514 47.744C2.06128 46.9528 2.88847 46.3055 3.60776 46.6651Z" fill="url(#paint9_linear_1806_1809)"/>
<path d="M8.06948 46.4133C8.60895 46.4133 9.11243 46.9168 9.0405 47.5282L8.78877 49.2545C8.7528 49.5782 8.86071 49.9018 9.11246 50.1176L10.4072 51.3044C10.9826 51.8439 10.7308 52.815 9.93961 52.9588L8.21335 53.2465C7.88967 53.3184 7.63791 53.4983 7.49406 53.786L6.77477 55.3684C6.59494 55.7281 6.2353 55.9439 5.87566 55.9439C5.55198 55.9439 5.19232 55.764 5.0125 55.4403L4.1853 53.8939C4.04144 53.6062 3.75373 53.4264 3.43005 53.3904L1.70374 53.2106C0.912524 53.1386 0.552888 52.1676 1.12832 51.5922L2.31516 50.3334C2.53095 50.1176 2.63883 49.7939 2.5669 49.4703L2.20725 47.7799C2.0634 47.1326 2.56689 46.629 3.14232 46.629C3.28618 46.629 3.43006 46.665 3.57392 46.737L5.12037 47.4922C5.26422 47.5641 5.40811 47.6001 5.55197 47.6001C5.73179 47.6001 5.87562 47.5641 6.01948 47.4563L7.53001 46.5931C7.7458 46.4492 7.88966 46.4133 8.06948 46.4133ZM8.06948 45.5142C7.7458 45.5142 7.42213 45.5861 7.13441 45.7659L5.62388 46.629L4.00548 45.8738C3.75373 45.7659 3.46604 45.694 3.17832 45.694C2.60289 45.694 2.09939 45.9457 1.73974 46.3773C1.3801 46.8089 1.23624 47.3843 1.3801 47.9238L1.73974 49.6141L0.516941 50.9448C0.0134384 51.4483 -0.130411 52.2036 0.121341 52.8509C0.373092 53.5342 0.948497 54.0018 1.66779 54.0737L3.3941 54.2535L4.25725 55.836C4.58093 56.4474 5.19232 56.807 5.91161 56.807C6.66686 56.807 7.31421 56.3754 7.60192 55.7281L8.32121 54.1456L10.0835 53.786C10.8028 53.6781 11.3422 53.1746 11.558 52.4553C11.7738 51.772 11.558 51.0527 11.0185 50.5492L9.72383 49.3624L9.93961 47.5641C10.0115 47.0247 9.8677 46.4852 9.50806 46.0896C9.11245 45.7299 8.60895 45.5142 8.06948 45.5142Z" fill="#AD5E00"/>
<path opacity="0.5" d="M4.36344 49.7939C4.57923 50.0816 4.47136 50.5851 4.07576 50.8728C3.68015 51.1606 3.17661 51.1606 2.96082 50.8728C2.74503 50.5851 2.85295 50.0816 3.24855 49.7939C3.6082 49.5062 4.11169 49.5062 4.36344 49.7939Z" fill="url(#paint10_linear_1806_1809)"/>
<path opacity="0.5" d="M3.96762 48.5353C4.11147 48.7151 4.03954 48.9669 3.82375 49.1467C3.60796 49.3265 3.32027 49.3265 3.17642 49.1467C3.03256 48.9669 3.10445 48.7151 3.32024 48.5353C3.53603 48.3555 3.85972 48.3915 3.96762 48.5353Z" fill="url(#paint11_linear_1806_1809)"/>
<path d="M17.0541 10.4488L16.8743 12.1751C16.8383 12.4988 16.9822 12.8225 17.198 13.0023L18.5286 14.1172C19.14 14.6207 18.8883 15.6277 18.0971 15.8075L16.4067 16.1672C16.083 16.2391 15.8313 16.4549 15.7234 16.7426L15.0761 18.361C14.7524 19.1163 13.7454 19.1882 13.3497 18.4689L12.4866 16.9584C12.3427 16.6707 12.055 16.4909 11.7313 16.4909L10.0051 16.347C9.21385 16.2751 8.81823 15.34 9.35769 14.7286L10.5085 13.4339C10.7243 13.1821 10.7963 12.8584 10.7244 12.5707L10.3287 10.8804C10.1489 10.0892 10.9401 9.44182 11.6594 9.76551L13.2419 10.4848C13.5296 10.6287 13.8533 10.5927 14.141 10.4129L15.6155 9.51375C16.2629 9.11814 17.126 9.65761 17.0541 10.4488Z" fill="url(#paint12_linear_1806_1809)"/>
<path d="M16.0878 9.36981C16.6273 9.36981 17.1308 9.83735 17.0589 10.4487L16.879 12.175C16.8431 12.4987 16.987 12.8224 17.2027 13.0022L18.5334 14.1171C19.1448 14.6206 18.8931 15.6276 18.1018 15.8075L16.4115 16.1671C16.0878 16.239 15.8361 16.4548 15.7282 16.7425L15.0808 18.3609C14.901 18.7565 14.5414 18.9723 14.1817 18.9723C13.858 18.9723 13.5343 18.8285 13.3545 18.5048L12.4914 16.9943C12.3475 16.7066 12.0598 16.5268 11.7361 16.5268L10.0098 16.3829C9.21863 16.311 8.823 15.3759 9.36247 14.7645L10.5133 13.4698C10.7291 13.218 10.8011 12.8943 10.7291 12.6066L10.3335 10.9163C10.1896 10.2689 10.6932 9.72946 11.2686 9.72946C11.4125 9.72946 11.5203 9.76543 11.6642 9.80139L13.2466 10.5207C13.3545 10.5926 13.4984 10.5926 13.6422 10.5926C13.8221 10.5926 14.0019 10.5566 14.1458 10.4487L15.6203 9.54964C15.7282 9.40578 15.908 9.36981 16.0878 9.36981ZM16.0878 8.4707C15.7641 8.4707 15.4045 8.57859 15.1168 8.75841L13.6422 9.65753L11.9879 8.9742C11.7361 8.86631 11.4844 8.79438 11.2326 8.79438C10.6572 8.79438 10.1177 9.04613 9.75807 9.51367C9.39842 9.94524 9.29053 10.5566 9.39842 11.0961L9.79402 12.7864L8.60722 14.1531C8.13968 14.6926 7.99583 15.4118 8.24758 16.0952C8.49933 16.7425 9.11073 17.2101 9.83002 17.246L11.5563 17.3899L12.4914 18.9364C12.815 19.5118 13.4264 19.8714 14.1098 19.8714C14.865 19.8714 15.5484 19.4039 15.8361 18.7206L16.4834 17.1022L18.2457 16.7066C18.929 16.5627 19.4685 16.0232 19.6483 15.3399C19.8281 14.6566 19.6123 13.9373 19.0369 13.4698L17.7062 12.3549L17.8501 10.5566C17.922 10.0172 17.7422 9.51367 17.3826 9.11806C17.1308 8.72245 16.6273 8.4707 16.0878 8.4707Z" fill="#AD5E00"/>
<path opacity="0.5" d="M14.3616 12.2111C14.1459 12.5348 13.6783 12.5708 13.2468 12.319C12.8511 12.0673 12.6713 11.5997 12.8511 11.276C13.0669 10.9524 13.5345 10.9164 13.966 11.1681C14.3976 11.4199 14.5774 11.8874 14.3616 12.2111Z" fill="url(#paint13_linear_1806_1809)"/>
<path opacity="0.5" d="M15.4055 11.4199C15.2976 11.5997 15.0099 11.6357 14.7581 11.4918C14.5423 11.348 14.4344 11.0962 14.5423 10.8804C14.6502 10.7006 14.9379 10.6646 15.1897 10.8085C15.4054 10.9883 15.5134 11.2401 15.4055 11.4199Z" fill="url(#paint14_linear_1806_1809)"/>
<defs>
<linearGradient id="paint0_linear_1806_1809" x1="47.7557" y1="75.0922" x2="47.7557" y2="9.43136" gradientUnits="userSpaceOnUse">
<stop stop-color="#9F4A00"/>
<stop offset="0.4749" stop-color="#CE8C1F"/>
<stop offset="1" stop-color="#FFD140"/>
</linearGradient>
<linearGradient id="paint1_linear_1806_1809" x1="53.5893" y1="69.2587" x2="53.5893" y2="3.59172" gradientUnits="userSpaceOnUse">
<stop stop-color="#BE6D00"/>
<stop offset="0.0924253" stop-color="#C88314"/>
<stop offset="0.2904" stop-color="#DCAB3A"/>
<stop offset="0.4844" stop-color="#EBCC58"/>
<stop offset="0.6709" stop-color="#F6E26E"/>
<stop offset="0.8464" stop-color="#FDF07B"/>
<stop offset="1" stop-color="#FFF57F"/>
</linearGradient>
<linearGradient id="paint2_linear_1806_1809" x1="75.865" y1="52.0678" x2="32.462" y2="8.66484" gradientUnits="userSpaceOnUse">
<stop stop-color="white"/>
<stop offset="1" stop-color="white"/>
</linearGradient>
<linearGradient id="paint3_linear_1806_1809" x1="67.2763" y1="71.6355" x2="18.3837" y2="22.7429" gradientUnits="userSpaceOnUse">
<stop stop-color="#BE6D00"/>
<stop offset="0.0838952" stop-color="#C07204"/>
<stop offset="0.1796" stop-color="#C77F11"/>
<stop offset="0.2811" stop-color="#D29627"/>
<stop offset="0.3866" stop-color="#E1B644"/>
<stop offset="0.4941" stop-color="#F4DF6A"/>
<stop offset="0.5452" stop-color="#FFF57F"/>
<stop offset="0.5935" stop-color="#FAE76C"/>
<stop offset="0.7223" stop-color="#EEC53D"/>
<stop offset="0.8367" stop-color="#E5AC1C"/>
<stop offset="0.9313" stop-color="#E09C07"/>
<stop offset="0.9944" stop-color="#DE9700"/>
</linearGradient>
<linearGradient id="paint4_linear_1806_1809" x1="53.6365" y1="57.02" x2="53.6365" y2="15.7372" gradientUnits="userSpaceOnUse">
<stop stop-color="#BE6D00"/>
<stop offset="0.0924253" stop-color="#C88314"/>
<stop offset="0.2904" stop-color="#DCAB3A"/>
<stop offset="0.4844" stop-color="#EBCC58"/>
<stop offset="0.6709" stop-color="#F6E26E"/>
<stop offset="0.8464" stop-color="#FDF07B"/>
<stop offset="1" stop-color="#FFF57F"/>
</linearGradient>
<linearGradient id="paint5_linear_1806_1809" x1="67.6011" y1="46.2621" x2="40.309" y2="18.9699" gradientUnits="userSpaceOnUse">
<stop stop-color="white"/>
<stop offset="1" stop-color="white"/>
</linearGradient>
<linearGradient id="paint6_linear_1806_1809" x1="13.2013" y1="76.5585" x2="18.808" y2="62.7504" gradientUnits="userSpaceOnUse">
<stop stop-color="#BE6D00"/>
<stop offset="0.1746" stop-color="#CE8F1F"/>
<stop offset="0.4354" stop-color="#E3BB48"/>
<stop offset="0.6693" stop-color="#F2DB66"/>
<stop offset="0.8654" stop-color="#FCEE78"/>
<stop offset="1" stop-color="#FFF57F"/>
</linearGradient>
<linearGradient id="paint7_linear_1806_1809" x1="14.3744" y1="68.0059" x2="15.1863" y2="66.0065" gradientUnits="userSpaceOnUse">
<stop stop-color="white"/>
<stop offset="0.8605" stop-color="white"/>
<stop offset="1" stop-color="white"/>
</linearGradient>
<linearGradient id="paint8_linear_1806_1809" x1="16.5181" y1="66.3196" x2="16.9784" y2="65.186" gradientUnits="userSpaceOnUse">
<stop stop-color="white"/>
<stop offset="0.8605" stop-color="white"/>
<stop offset="1" stop-color="white"/>
</linearGradient>
<linearGradient id="paint9_linear_1806_1809" x1="8.38887" y1="54.2236" x2="2.59438" y2="46.7682" gradientUnits="userSpaceOnUse">
<stop stop-color="#BE6D00"/>
<stop offset="0.1746" stop-color="#CE8F1F"/>
<stop offset="0.4354" stop-color="#E3BB48"/>
<stop offset="0.6693" stop-color="#F2DB66"/>
<stop offset="0.8654" stop-color="#FCEE78"/>
<stop offset="1" stop-color="#FFF57F"/>
</linearGradient>
<linearGradient id="paint10_linear_1806_1809" x1="4.06908" y1="50.8699" x2="3.23008" y2="49.7905" gradientUnits="userSpaceOnUse">
<stop stop-color="white"/>
<stop offset="0.8605" stop-color="white"/>
<stop offset="1" stop-color="white"/>
</linearGradient>
<linearGradient id="paint11_linear_1806_1809" x1="3.82214" y1="49.1627" x2="3.34642" y2="48.5506" gradientUnits="userSpaceOnUse">
<stop stop-color="white"/>
<stop offset="0.8605" stop-color="white"/>
<stop offset="1" stop-color="white"/>
</linearGradient>
<linearGradient id="paint12_linear_1806_1809" x1="11.564" y1="17.5178" x2="16.5958" y2="9.52774" gradientUnits="userSpaceOnUse">
<stop stop-color="#BE6D00"/>
<stop offset="0.1746" stop-color="#CE8F1F"/>
<stop offset="0.4354" stop-color="#E3BB48"/>
<stop offset="0.6693" stop-color="#F2DB66"/>
<stop offset="0.8654" stop-color="#FCEE78"/>
<stop offset="1" stop-color="#FFF57F"/>
</linearGradient>
<linearGradient id="paint13_linear_1806_1809" x1="13.2477" y1="12.3128" x2="13.9762" y2="11.1558" gradientUnits="userSpaceOnUse">
<stop stop-color="white"/>
<stop offset="0.8605" stop-color="white"/>
<stop offset="1" stop-color="white"/>
</linearGradient>
<linearGradient id="paint14_linear_1806_1809" x1="14.7693" y1="11.4984" x2="15.1824" y2="10.8424" gradientUnits="userSpaceOnUse">
<stop stop-color="white"/>
<stop offset="0.8605" stop-color="white"/>
<stop offset="1" stop-color="white"/>
</linearGradient>
</defs>
</svg>
