<svg width="14" height="14" viewBox="0 0 14 14" fill="none" xmlns="http://www.w3.org/2000/svg">
<g opacity="0.2" clip-path="url(#clip0_701_315)">
<path d="M13.0039 6.9789C13.1484 6.87123 13.2556 6.72102 13.3105 6.54934C13.3654 6.37766 13.3651 6.19311 13.3098 6.02158C13.2545 5.85005 13.1469 5.70013 13.002 5.59284C12.8572 5.48556 12.6824 5.42629 12.5022 5.42335L9.00223 5.29113C8.98502 5.28994 8.96853 5.2838 8.95473 5.27345C8.94093 5.2631 8.93041 5.24898 8.92446 5.23279L7.71501 1.96613C7.65424 1.79993 7.54387 1.65642 7.39885 1.55503C7.25382 1.45364 7.08113 1.39926 6.90418 1.39926C6.72722 1.39926 6.55454 1.45364 6.40951 1.55503C6.26448 1.65642 6.15411 1.79993 6.09334 1.96613L4.88779 5.24446C4.88183 5.26065 4.87132 5.27477 4.85752 5.28512C4.84372 5.29547 4.82722 5.3016 4.81001 5.30279L1.31001 5.43502C1.1298 5.43796 0.955032 5.49723 0.810208 5.60451C0.665384 5.71179 0.557767 5.86171 0.502448 6.03325C0.447128 6.20478 0.44688 6.38933 0.501738 6.56101C0.556596 6.73269 0.663809 6.8829 0.808344 6.99057L3.5539 9.1489C3.56764 9.15972 3.57791 9.17432 3.58344 9.19091C3.58897 9.2075 3.58951 9.22534 3.58501 9.24224L2.64001 12.5906C2.59104 12.7611 2.59578 12.9425 2.6536 13.1102C2.71141 13.278 2.81948 13.4238 2.96312 13.5279C3.10675 13.632 3.27897 13.6894 3.45635 13.6921C3.63372 13.6949 3.80765 13.6429 3.95445 13.5433L6.85557 11.5989C6.86986 11.589 6.88681 11.5838 6.90418 11.5838C6.92154 11.5838 6.9385 11.589 6.95279 11.5989L9.8539 13.5433C9.99872 13.6463 10.172 13.7017 10.3497 13.7017C10.5274 13.7017 10.7007 13.6463 10.8456 13.5433C10.9892 13.4402 11.0974 13.2951 11.1552 13.128C11.213 12.9608 11.2176 12.7799 11.1683 12.61L10.2156 9.25002C10.2105 9.23315 10.2108 9.21513 10.2164 9.19843C10.2219 9.18173 10.2325 9.16715 10.2467 9.15668L13.0039 6.9789Z" fill="white"/>
</g>
<defs>
<clipPath id="clip0_701_315">
<rect width="14" height="14" fill="white"/>
</clipPath>
</defs>
</svg>
