<svg width="14" height="13" viewBox="0 0 14 13" fill="none" xmlns="http://www.w3.org/2000/svg">
<path d="M13.0039 5.9789C13.1484 5.87123 13.2556 5.72102 13.3105 5.54934C13.3654 5.37766 13.3651 5.19311 13.3098 5.02158C13.2545 4.85005 13.1469 4.70013 13.002 4.59284C12.8572 4.48556 12.6824 4.42629 12.5022 4.42335L9.00223 4.29113C8.98503 4.28994 8.96853 4.2838 8.95473 4.27345C8.94093 4.2631 8.93042 4.24898 8.92446 4.23279L7.71501 0.966126C7.65425 0.79993 7.54388 0.656422 7.39885 0.55503C7.25382 0.453638 7.08114 0.399261 6.90418 0.399261C6.72722 0.399261 6.55454 0.453638 6.40951 0.55503C6.26448 0.656422 6.15411 0.79993 6.09335 0.966126L4.88779 4.24446C4.88183 4.26065 4.87132 4.27477 4.85752 4.28512C4.84372 4.29547 4.82722 4.3016 4.81001 4.30279L1.31001 4.43502C1.1298 4.43796 0.955034 4.49723 0.81021 4.60451C0.665386 4.71179 0.557769 4.86171 0.502449 5.03325C0.44713 5.20478 0.446882 5.38933 0.50174 5.56101C0.556598 5.73269 0.663811 5.8829 0.808346 5.99057L3.5539 8.1489C3.56764 8.15972 3.57791 8.17432 3.58344 8.19091C3.58897 8.2075 3.58952 8.22534 3.58501 8.24224L2.64001 11.5906C2.59104 11.7611 2.59579 11.9425 2.6536 12.1102C2.71141 12.278 2.81949 12.4238 2.96312 12.5279C3.10675 12.632 3.27897 12.6894 3.45635 12.6921C3.63373 12.6949 3.80765 12.6429 3.95446 12.5433L6.85557 10.5989C6.86986 10.589 6.88681 10.5838 6.90418 10.5838C6.92155 10.5838 6.9385 10.589 6.95279 10.5989L9.8539 12.5433C9.99872 12.6463 10.172 12.7017 10.3497 12.7017C10.5274 12.7017 10.7007 12.6463 10.8456 12.5433C10.9892 12.4402 11.0974 12.2951 11.1552 12.128C11.213 11.9608 11.2176 11.7799 11.1683 11.61L10.2156 8.25002C10.2105 8.23315 10.2108 8.21513 10.2164 8.19843C10.2219 8.18173 10.2325 8.16715 10.2467 8.15668L13.0039 5.9789Z" fill="white"/>
</svg>
