<svg width="168" height="205" viewBox="0 0 168 205" fill="none" xmlns="http://www.w3.org/2000/svg"><path fill-rule="evenodd" clip-rule="evenodd" d="m115.64 35.023-4.48-.01-2.06 1.78.17 10.61-3.64.14-2.98.9 1.16 15.9-4.69 2.08-.07 14.67-5.38 2.93 1.74 9.47-1.74 3.85 8.89 31.83 46.04 2.97 4.26-1.9-8.98-32.92-5.23-20.05-5.96-10.98-6.29-19.14-3.68-1.34-7.08-10.79Z" fill="url(#a)"/><path style="mix-blend-mode:multiply" opacity=".5" fill-rule="evenodd" clip-rule="evenodd" d="m111.16 35.013 8.07 13.19 4.93 2.31 7.03 19.09 1.88 6.74-.67-5.46 4.33 8.44 4.49 23.46 7.38 29.36 4.26-1.9-14.21-52.97-6.27-11.92-5.98-18.2-3.68-1.34-7.08-10.79-4.48-.01Z" fill="url(#b)"/><path style="mix-blend-mode:multiply" opacity=".5" fill-rule="evenodd" clip-rule="evenodd" d="m140.04 131.262-2.87.14-7.39-35.17-3.63-5.53-2.15-23.28-10.03-9.41-2.31-9.11-9.01-.46 2.98-.9 7.75-.31 3.65 10.76 9.65 8.44 1.11 22.39 4.34 6.88 7.91 35.56Z" fill="url(#c)"/><path style="mix-blend-mode:multiply" opacity=".5" fill-rule="evenodd" clip-rule="evenodd" d="m93.67 84.022 21.97-.25 2.26 1.95 10.35 45.111 7.22.46-15.41-46.63-2.74-1.79-18.27-1.78-5.38 2.93Z" fill="url(#d)"/><path fill-rule="evenodd" clip-rule="evenodd" d="M104.54 67.123c.41 6.41.27 12.19 1.81 12.93 1.54.74 8.22 2.28 8.22-.81a92.908 92.908 0 0 0-4.85-27.76c-.56-1-5.85-1.33-6-.69-.33 1.08.43 10.17.82 16.33ZM95 86.752c.7 2.63 1 5.26 2.19 5.91 1.19.65 10.1 7.521 11.09 7.721.99.2 2.95-9.51 1.44-11.61-1.51-2.1-8-4.06-11.48-4.11-3.48-.05-3.64.58-3.24 2.09ZM95.94 96.022c.54 2.6 2.62 12.251 3.41 12.881.79.63 10.25 2.23 9.84.54-.41-1.69-5.19-9.11-7.55-10.36-2.36-1.25-5.96-4.37-5.7-3.06ZM117.39 82.013c2.05 1.6 5.88 4 6.61 2.65.73-1.35.17-17-1.47-16.78-1.64.22-6.11.78-6.88 2.16-.77 1.38.59 11.07 1.74 11.97ZM114.01 62.483c.24 2.17.2 4.87 1.11 5.29.91.42 6.71-1.25 6.21-2.16-.5-.91-7.76-7.21-7.32-3.13ZM113.38 87.293c-1.33 3.2-2.63 37.63-1.8 39.21.83 1.58 13.67 1.49 13.88 0 .21-1.49-8.59-47.55-12.08-39.21Z" fill="#E05D6C" style="mix-blend-mode:soft-light" opacity=".5"/><path style="mix-blend-mode:multiply" opacity=".5" fill-rule="evenodd" clip-rule="evenodd" d="M103.05 53.883c11.91 5.66 12.37 28.83 12.37 28.83l-5.15-.53-6.59 1.72s4.4 17.42-7.63 21.49l-2.38-8 1.74-3.85-1.74-9.47 5.39-2.93.06-14.67 4.69-2.08-.76-10.51Z" fill="url(#e)"/><path d="M65.32 26.392c-.93-2.57-3.44-6.16-4.06-5.93-.91.34-3.06 10 .45 10.4 1.43.15 4.23-2.79 3.61-4.47Z" fill="url(#f)"/><path d="M94.04 36.602c1.17 4.45 1 12.22-.37 24.16-.35 3.07-.42 7.8-4.91 10.36-16 9.11-11.38 13.53-17.19 10.79-7.81-3.7-10.39-11.74-10.78-17.94-.85-13.62-1.85-28.89 4.52-32.9 4.81-2.99 25.17-7.9 28.73 5.53Z" fill="url(#g)"/><path style="mix-blend-mode:multiply" opacity=".5" d="M92.64 53.083a398.184 398.184 0 0 1-1.62 7.09c-1.08 4.49-.44 6.76-5.94 10-3.9 2.29-15.65 9-17.61 8-5.53-2.64-6.72-15.33-6.73-15.89-.54-19.46 9.4-30 9.4-30-3.56 16.03 31.16-18.73 22.5 20.8Z" fill="url(#h)"/><path d="M75.72 51.212s1.31.34 2.55 2.83c1.24 2.49.41 3.65-.69 4.41-1.73 1.21-8.23 1.41-8.92-.66-.69-2.07-1.45-18.31 1.16-19.25 2.61-.94 17.34-1.51 18.37 2.68 1.03 4.19-.21 21.1-2.32 21.9-2.11.8-10.18 0-15.24-2 0 0 4.91.69 7.64 0 3-.77 3.87-4.33 3.87-8.72 0-8.16-5.92-9.43-8.32-9.58-2.4-.15-2.72 3.19-2.65 5.9.07 2.71 2.26 5.8 3.74 5.62 1.48-.18.81-3.13.81-3.13Z" fill="#FDBA45"/><path d="M76.09 98.343c-1.09 3 .79 7.19 1.67 7.19.88 0 1.69-5.38.93-6-.76-.62-1.59-3.91-2.6-1.19Z" fill="url(#i)"/><path d="M77.16 85.282c-1.17.82-5.09 4.35-1.34 8.12 2.22 2.22 3.82 5.62 5.55 6.07 4 1 3.36-7.89 3.67-10.08.31-2.19-1.32-12.25-3.44-9.15a19.578 19.578 0 0 1-4.44 5.04Z" fill="url(#j)"/><path d="M68.21 11.092c-2.42 2.76-3.4-6.41.42-7 1.11-.13 1.31 5.07-.42 7Z" fill="url(#k)"/><path d="M66.75 22.483c-3.62 1.39-4.26-8.89-1.46-8.34.88.17 2.61-1.76 4.18-1.14 3.47 1.38 6.15 6.11-2.72 9.48Z" fill="url(#l)"/><path d="M65.09.923c0 2 1.43 2.05 2.12.33.56-1.42-2.12-1.77-2.12-.33Z" fill="url(#m)"/><path d="M85.25 78.593c0 .44 2.34 2.3 2.9 0s-3.13-2.75-2.9 0Z" fill="url(#n)"/><path style="mix-blend-mode:multiply" opacity=".5" d="M75.43 80.713c-5.58 4.47-16.84-10.92-13.88-18.41 2.96-7.49 10.44 6.85 18.07 6 7.63-.85 8.46 2.41 5.46 4.35-3 1.94-7.22 6.12-9.65 8.06Z" fill="url(#o)"/><path style="mix-blend-mode:multiply" opacity=".5" d="M79.62 72.022c-10.33 2.79-17.43-6.7-17.24-2.44.19 4.26 8.82 14.4 12.76 11 3.94-3.4 10.5-10.18 4.48-8.56Z" fill="url(#p)"/><path d="M69.64 39.153c-1.28 2.78-1.21 5.27-.65 5.77.56.5 5.54-4.8 4.57-5.91-.97-1.11-3.57-.65-3.92.14ZM78.94 39.612c-.45 1.51 6.47 9.52 7.76 8.46 1.29-1.06 2.18-6 .33-7.35-1.85-1.35-7.64-2.68-8.09-1.11ZM80.25 61.752c-.59 2 6.1.23 6.47-1.39.37-1.62-1.78-7.12-2.88-6.42-1.1.7-3.17 6.38-3.59 7.81ZM69.22 57.682c1.9 3.11 7.63 1 7.67 0 .04-1-5.95-6.2-7.21-5.2-1.26 1-1.2 4-.46 5.2Z" fill="#FCD719" style="mix-blend-mode:soft-light"/><path style="mix-blend-mode:multiply" opacity=".5" d="M72.3 29.483c-2.12 3.54-2.49 7.63.49 7.12 2.98-.51 16.38-6.19 13.38-7.49-3-1.3-12.62-1.74-13.87.37Z" fill="url(#q)"/><path style="mix-blend-mode:multiply" opacity=".5" d="M68.7 31.332c-.22-1.5-4.21-.47-5.66 2.11-1.74 3.11-2.5 8.65-1.9 9 .6.35 7.9-8.77 7.56-11.11Z" fill="url(#r)"/><path style="mix-blend-mode:multiply" opacity=".5" d="M93.67 37.343c-2.57-7.3-11.74-9.69-17.73-8.49-7.16 1.43-12.39 11.25 3 7.77 9.28-2.11 10.35 3.57 10.9 9.47.55 5.9 5.88-2.89 3.83-8.75Z" fill="url(#s)"/><path style="mix-blend-mode:multiply" opacity=".5" d="M60.71 52.483c-1.36 6.23.35 19.53 17.14 19.51 2.23 0-3.21-1.2-5.06-2.87-3.91-3.55-6.1-11.25-6.34-17.14-.24-5.89-4.43-5.5-5.74.5Z" fill="url(#t)"/><path style="mix-blend-mode:multiply" opacity=".5" d="M72.49 63.413c-4.46 1.45 4.89 12 15.28 6.72 6.29-3.2 5.42-9.64 3-8.64s-1.73 4.51-7.89 3.4c-6.16-1.11-7.94-2.28-10.39-1.48Z" fill="url(#u)"/><path style="mix-blend-mode:multiply" opacity=".5" d="M61.7 53.553c-.4 5.45-2.16 23.67 12 27.92 1.79.54 6.53-3.57.19-9.72-3.34-3.27-5.9-2.79-8.25-12.43-1.97-8.1-3.63-10.09-3.94-5.77Z" fill="url(#v)"/><path style="mix-blend-mode:multiply" opacity=".5" d="M81.38 53.883c.64-4.83-4.49-12.79-8.88-8.92-1.7 1.5-1.16 5.69 2.08 5.23 5.21-.71 6.36 7.29 6.8 3.69Z" fill="url(#w)"/><path d="M77.07 41.182c.45 1.91 4.68 2.27 6.16 8.18 1.48 5.91 2.59 9.57 3.74 7.26 1.15-2.31 2.14-11.28-.2-14.18-2.34-2.9-10.32-3.96-9.7-1.26Z" fill="#FCD719" style="mix-blend-mode:soft-light"/><path opacity=".54" d="M76.46 86.282c-3.29 2.49-2 4.87.43 7.06 2.43 2.19 4.85-1.47 6-2.58 1.15-1.11 3.33-2.63 1.17-4.79s-4.58-1.97-7.6.31Z" fill="url(#x)"/><path style="mix-blend-mode:multiply" opacity=".5" d="M76.46 87.483c-2.92 3.44-1.69 2.61.61 6.71s9.28-1.7 6.08-11c-1.31-3.71-1.76-1.47-6.69 4.29Z" fill="url(#y)"/><path style="mix-blend-mode:multiply" opacity=".5" d="M76.71 97.743a4.53 4.53 0 0 0-.53 4.219c.47 1 3-1.39 2.59-1.86-.41-.47-1.33-3.3-2.06-2.36Z" fill="url(#z)"/><path d="M64.29 15.553c-.95 2.08-.56 6.39 1.79 6.57 2.35.18 6.86-6.64 4.25-7.49-2.61-.85-5.59-.07-6.04.92ZM60.47 28.742c1 1.3 4.83.74 4.35-1.57-.48-2.31-1.58-5.08-2.78-4.25-1.2.83-2.41 4.71-1.57 5.82Z" fill="#FCD719" style="mix-blend-mode:soft-light"/><path d="M68.28 4.202c-2.83 1.11-1.58 4.62-.51 4.34 1.07-.28 1.72-4.81.51-4.34Z" fill="#FCD719"/><path opacity=".54" d="M81.42 81.243c-2.17 3.41-7.32 5.89-6.54 7.69.78 1.8 11.35 4.44 9.29-4.28-1.02-4.3-1.85-4.82-2.75-3.41Z" fill="url(#A)"/><path style="mix-blend-mode:color-dodge" opacity=".5" d="M78.55 80.233c10.924 0 19.78-12.411 19.78-27.72 0-15.31-8.856-27.72-19.78-27.72-10.924 0-19.78 12.41-19.78 27.72 0 15.309 8.856 27.72 19.78 27.72Z" fill="url(#B)"/><path d="m61.39 123.293-13.85-11.51 11.84-.68c2.38 3.24 16.62 4.28 16.62 4.28a86.663 86.663 0 0 0-14.61 7.91Z" fill="url(#C)"/><path d="m82.66 113.812-.06 4.6-21.21 4.88-3.4-6.55 24.67-2.93Z" fill="url(#D)"/><path d="m63.59 116.672 10.32-.9 8.81-1.65-2.73-.8-19.12-3.02-13.33 1.48 10.45 4.96 5.6-.07Z" fill="url(#E)"/><path style="mix-blend-mode:multiply" opacity=".5" d="m57.99 116.743 3.4 6.55 20.55-4.74s-7.87-2.8-8.07-2.78l-9.92 1-5.96-.03Z" fill="url(#F)"/><path d="M49.85 112.053c2.28 1.5 7.18 4 8.52 4 1.34 0 15.54-.44 15.22-1.2-.32-.76-10.44-4.24-12.81-4.16-2.37.08-11.92.7-10.93 1.36ZM70.7 112.483c-.67 0 3.6 2.48 4.18 2.48.58 0 4.81-.62 4.53-.94-.28-.32-6.74-1.54-8.71-1.54Z" fill="#EBA249" style="mix-blend-mode:soft-light" opacity=".6"/><path d="m63.99 131.783-14.14-10.91 17-.52 34.61 2.95c-14.65 8.37-37.47 8.48-37.47 8.48Z" fill="url(#G)"/><path style="mix-blend-mode:multiply" opacity=".5" d="m64.66 125.642-.67 6.14s11.83-.69 17.68-1.83c12.32-2.41 19.78-6.65 19.78-6.65l-36.79 2.34Z" fill="url(#H)"/><path d="m72.71 125.643 14.87-.75 13.87-1.59-5.06-.65-27.4-3.04-19.14 1.26 14.81 4.77h8.05Z" fill="url(#I)"/><path d="M62.34 123.303c-1.5.35 1.49 1.81 2.71 1.81s13.94.4 13.45-.72c-.49-1.12-12.23-2-16.16-1.09ZM74.62 120.783c-1.08 0 4.77 2.93 5.71 3.27.94.34 14.31 0 13.07-.55-1.24-.55-13.87-2.86-18.78-2.72Z" fill="#EBA249" style="mix-blend-mode:soft-light" opacity=".6"/><path d="M72.74 121.483c-2.31.6 1 1.56 1.75 1.47.75-.09 1.82-2.47-1.75-1.47Z" fill="#EBA249" style="mix-blend-mode:soft-light" opacity=".6"/><path d="m54.14 122.253 6.19 3.39 3.66-.22-5.49-2.12-4.36-1.05Z" fill="#D65429"/><path fill-rule="evenodd" clip-rule="evenodd" d="m10.18 130.643 3.06-17.25 2.25-.33 3.54-11.37 1.82-.29 4.13 1.3 7.89-25.33 1.7-.68 6.99.83-.53 19.95 2.83 4.07-1.62 39.25-32.06-10.15Z" fill="url(#J)"/><path style="mix-blend-mode:multiply" opacity=".5" fill-rule="evenodd" clip-rule="evenodd" d="m34.57 76.692-1.7.68 4.58 1.35.02 20.74-5.51-1.48 1.39 1.11 7.63 2.54-4.26 35.691 5.59 1.76 1.55-37.54-2.83-4.07.53-19.95-6.99-.83Z" fill="url(#K)"/><path style="mix-blend-mode:multiply" opacity=".5" fill-rule="evenodd" clip-rule="evenodd" d="M15.49 113.062c.41.271 10.35 4.521 10.35 4.521l-.35 14.39-2.89-1.491.7-11.89-5.17-2.66-4.89-2.539 2.25-.331Z" fill="url(#L)"/><path style="mix-blend-mode:multiply" opacity=".5" fill-rule="evenodd" clip-rule="evenodd" d="m19.03 101.693 11.77 4.54-3.24 26.03 1.59.58 4.47-13.65 4.26-6.65-3.7 3.49 2.39-11.97-2.69.83-8.9-2.19-4.13-1.3-1.82.29Z" fill="url(#M)"/><path d="M154.02 121.863c.95-2.62-1.5-14.621-6.09-14.621-4.2 0-8.39 6.901-8.39 6.901s-2.74-4.331-9.5-4.411c-6.76-.08-12.6 10.75-12.6 10.75s-10.88-5-12 6c0 0-6.3-3-11.22 1.5-6.17 5.69-5.67 18.821-5.67 18.821h7.48l5.4-.421 22.94.36 29.65-24.879Z" fill="url(#N)"/><path d="M6.94 127.403c-7.46-4.43-1.15-14.31 4.74-10.47 0 0 2.7-5.62 9.28-3.26 6.58 2.36 4.67 12.59 4.67 12.59s2.17.92 6 2.38l9.72.59a7.654 7.654 0 0 1 6.2-4.88c4.91-.76 7.88 4.3 8.25 9 0 0 5.55-3.18 12.61 1.6 0 0 3.81-6 7.49-6.32 8.63-.7 10 6.2 10 6.2s4.16-6.25 10.12-5.13c8.52 1.59 11 13.36 11 13.36l-42.58 4.07-57.5-19.73Z" fill="url(#O)"/><path d="M17.47 113.412c-6.36 1-7.94 7.7-3.49 9 4.45 1.3 8.67 2.29 9.66-.31 2.08-5.52-3.5-9.13-6.17-8.69Z" fill="#FCD719" style="mix-blend-mode:soft-light"/><path d="M23.53 122.803c-3.15 5.28-5.32.33-4.5 2.79.82 2.46 5.35 2.76 6.35-2.44.46-2.39-.33-2.9-1.85-.35ZM46.94 125.213c-2 .66-3.06 2.14 4.59 4.09 3.5.89 3.87 5.79 4 4.38.09-2.71-2.59-10.42-8.59-8.47Z" fill="#FCD719" style="mix-blend-mode:soft-light"/><path d="M52.94 127.023c-1.17-3-6.31-3.71-10.22.74-3.91 4.45 1.17-1.32 5.43.89 5.44 2.83 5.88 1.09 4.79-1.63ZM8.38 116.932c-5.89 1.38-5 6.38-2.38 7.31 2.62.93 6.71-8.32 2.38-7.31ZM21.94 114.633c-7.27-2.84-10.57 1.4-7 4.91 3.42 3.32 3.42 10.39 7.4 7.63 3.98-2.76 3.65-10.95-.4-12.54ZM75.77 129.303c-6.83 1.56-9.6 9.18-8.83 10.62.77 1.44 4.86-4.12 9-4.12s9.82 3 8.68-1.65c-.44-1.67-3.91-5.98-8.85-4.85Z" fill="#FCD719" style="mix-blend-mode:soft-light"/><path d="M82.46 134.643c-2.42-3.14-8.08-4.95-10.89-2.67-2.81 2.28-5.66 7.35-2.89 6.81s3.69-3 8.47-1.84c4.78 1.16 6.96-.16 5.31-2.3ZM97.39 131.062c-10.45-1.21-14.17 7.441-11.81 10 2.36 2.56 18.36-9.25 11.81-10ZM130.66 110.883c-11.21.21-14.94 15.51-10.79 17 1 .37 5.83-6.51 11.11-6.36 19.21.55 6.9-10.77-.32-10.64Z" fill="#FCD719" style="mix-blend-mode:soft-light"/><path d="M146.99 107.903c-7 2.85-4.07 10-2.06 10.86 2.01.86 7.37 2.28 8.19 0 .82-2.28-1.8-12.62-6.13-10.86ZM108.94 120.763c-5.42 2.28-3.48 14.16.86 14.12 1.31 0 3.58-5.25 7.11-7.86 3.53-2.61-3.46-8.17-7.97-6.26ZM124.51 112.312c-4.23 3.11-.85 3.75 3.78 2.92 4.23-.76 8.15 2.3 8.66.41.51-1.89-4.01-9.55-12.44-3.33Z" fill="#FCD719" style="mix-blend-mode:soft-light"/><path d="M137.74 113.202c4.33 2.56 5.22 10.53 1.76 11.43-3.46.9-7.95-6.529-11.31-7.489-4.12-1.18-5.55 0-6.22-.81-1.69-2.01 8.65-7.341 15.77-3.131ZM114.57 121.803c-4.54-2.5-8.17 5.5-6.11 7.87 2.06 2.37 3.26-3.8 4.5-4.73 1.24-.93 3.36-2.18 1.61-3.14ZM146.66 108.822c3.11-1.34 5.78 4.19 6.27 7.32.49 3.13-4.76 6.24-8-.33-1.16-2.33-.53-6.01 1.73-6.99Z" fill="#FCD719" style="mix-blend-mode:soft-light"/><path d="M134.94 118.173c-11.29-5.34-15.73 4.22-13.55 6.18 3 2.67 1.82-4.16 8.45 1.42 6.63 5.58 10.69-4.94 5.1-7.6Z" fill="#FCD719" style="mix-blend-mode:soft-light"/><path fill-rule="evenodd" clip-rule="evenodd" d="m20.21 153.503 141.95-.39-29.35 28.1-16.3 4.08-2.98 7.29-12.94 4.43-7.82-4.71-3.58-7.28-9.85.01-3.49 10.16-19.26 9.28-9.2-2.58-9.61-14.8-14.77-5.68-2.8-27.91Z" fill="url(#P)"/><path style="mix-blend-mode:multiply" opacity=".5" fill-rule="evenodd" clip-rule="evenodd" d="m22.4 175.303 10.97 1.98 4.41 9.809 4.41-10.1 12.96.38 1.44 27.101 19.26-9.28 3.49-10.16 9.85-.011 3.58 7.281 7.82 4.709 12.94-4.429 2.98-7.291 16.3-4.08 29.35-28.099-142.64-3.241 2.88 25.431Z" fill="url(#Q)"/><path style="mix-blend-mode:multiply" opacity=".5" fill-rule="evenodd" clip-rule="evenodd" d="m22.15 172.783 15.82.449.97 11.25 3.27-7.479 13 .379 8.68-3.12 7.05-4.22 8.44 15h9.85l-1.9-10.099 13.1 5.329.2 16.761 12.94-4.431 3-7.29 3.37-14.15s14.28-.479 14.2.391c-.08.87-1.33 9.659-1.33 9.659l29.35-28.11-142.64-3.23 2.63 22.911Z" fill="url(#R)"/><path style="mix-blend-mode:multiply" opacity=".5" fill-rule="evenodd" clip-rule="evenodd" d="m42.19 176.993 7.28-12.91 10.69-5.71 1.89-5.89-20.34.34.48 24.17Z" fill="url(#S)"/><path style="mix-blend-mode:multiply" opacity=".5" fill-rule="evenodd" clip-rule="evenodd" d="m89.19 185.023-1.9-10.1 6.38-10.48-21.04-3.79-1.73 9.39 8.44 14.99 9.85-.01Z" fill="url(#T)"/><path style="mix-blend-mode:multiply" opacity=".5" fill-rule="evenodd" clip-rule="evenodd" d="m152.2 162.643-31.32-5.62-.68 10.21-19.81 13.02.2 16.76 12.94-4.43 2.98-7.29 16.3-4.08 19.39-18.57Z" fill="url(#U)"/><path fill-rule="evenodd" clip-rule="evenodd" d="m167.56 166.122-17.83 6.26-25.12-10.73-.41 5.64-23.81-2.099-1.31-.11-40.77-3.591 1.35-4.73-9.37 1.041-11.07 8.98-19.18 5.94-11.95-7.83-5.29-25.821 4.27-1.849-6.63-14.951 11.73-1.9 47.6 12.351 5.5 9.019 34.07-.299.13.11 1.06.909v-1.019l-.02-.011h.02l13.87-.129 1.16-11.561 41.77-8.56-1.6-4.69 9.52 14.451-7.41 17.189 8.13 2.19 1.59 15.8Z" fill="url(#V)"/><path fill-rule="evenodd" clip-rule="evenodd" d="m12.17 120.372 47.6 12.351-2.05 3.53-13.37 1.97L.44 122.272l11.73-1.9Z" fill="url(#W)"/><path fill-rule="evenodd" clip-rule="evenodd" d="m115.56 129.743 13.01 2.49 28.76-11.05-1.6-4.69-1.51-.02-1.65 3.6-37.01 9.67Z" fill="url(#X)"/><path fill-rule="evenodd" clip-rule="evenodd" d="m125.66 147.442-15.63-.34-1.8 3.37-2.37-3.46-43.06-.92 2.47-4.35 34.07-.3.13.11 1.06.91v-1.02l-.02-.01h.02l13.87-.13 11.26 6.14Z" fill="url(#Y)"/><path style="mix-blend-mode:multiply" opacity=".5" fill-rule="evenodd" clip-rule="evenodd" d="m8.09 164.893 27.53-4.291-.02-13.14-32.8-8.39 4.27-1.849 37.04 8.47.24-7.47 13.37-1.97 5.08 9.839 43.06.92 2.37 3.461 1.8-3.371 9.47.21 6.16.131.1 10.909 3.44-19.61-.63-6.51 28.76-11.05-1.6-4.69 9.52 14.451-7.41 17.189-25.12 9.03 14.86 1.44 18.39-8.28 1.59 15.8-17.83 6.26-25.12-10.73-.41 5.64-65.89-5.8 1.35-4.73-9.37 1.041-11.07 8.98-19.18 5.94-11.95-7.83Z" fill="url(#Z)"/><path style="mix-blend-mode:multiply" opacity=".5" fill-rule="evenodd" clip-rule="evenodd" d="m39.22 166.783-3.6-6.18-.02-13.14-27.22-9.94 35.73 8.17 15.55 11.07 3.14-10.67-3.14 10.67-9.37 1.04-11.07 8.98Z" fill="url(#aa)"/><path style="mix-blend-mode:multiply" opacity=".5" fill-rule="evenodd" clip-rule="evenodd" d="m129.2 138.742 36.05-7.799-7.41 17.189 5.91 1.591-24.38 8.049 8.21.83 2.15 13.78-25.12-10.73 1.15-3.3 3.44-19.61Z" fill="url(#ab)"/><path style="mix-blend-mode:multiply" opacity=".5" fill-rule="evenodd" clip-rule="evenodd" d="m50.29 157.803-9.26-10.5-8.33-4.22 11.41 2.61 12.67 9.02 6.02-8.62-4.49 15.4 24.84 2.18 41.05 3.62.41-5.64 19.8 8.46-3.8 3.63-10.79-7.04-9.88 4.46-1.83 5.94-4.81-5.72-21.91-3.2-3.2 5.26-16.54-7.49-26.78 6.27-2.87-4.6-.06-3.05 8.35-6.77Z" fill="url(#ac)"/><path style="mix-blend-mode:multiply" opacity=".5" fill-rule="evenodd" clip-rule="evenodd" d="m99.47 141.553-.13-.11.13.11Z" fill="url(#ad)"/><path style="mix-blend-mode:multiply" opacity=".5" fill-rule="evenodd" clip-rule="evenodd" d="m110.03 147.102-9.64 18.091h-1.36l.05-.11 6.94-17.931-.16-.14-5.33-4.55v-1.019l9.5 5.659Z" fill="url(#ae)"/><path fill-rule="evenodd" clip-rule="evenodd" d="M100.53 141.432v.011l-.02-.011h.02Z" fill="url(#af)"/><path fill-rule="evenodd" clip-rule="evenodd" d="m99.47 141.552 1.06.91-1.06-.91Z" fill="url(#ag)"/><path style="mix-blend-mode:screen" opacity=".6" fill-rule="evenodd" clip-rule="evenodd" d="m149.73 172.383 17.83-6.26-1.59-15.8-2.22-.6-5.91-1.59 7.41-17.19-9.52-14.45-1.51-.02-1.65 3.6-37.01 9.67-1.16 11.56-49.13.44-5.5-9.02-47.6-12.35-11.73 1.9 6.63 14.95-4.27 1.85 5.29 25.82 11.95 7.83 2-.62.36 3.2.61 6.11 14.77 5.68 9.61 14.8 9.2 2.58 19.26-9.28 3.49-10.16 9.85-.01 3.58 7.28 7.82 4.71 12.94-4.43 2.98-7.29 16.3-4.08 7.8-7.47 3.8-3.63 5.32 2.27Z" fill="url(#ah)"/><path d="m83.69 137.483-13.36-5.25.37-3.89 12.13-1 22.62 1.42-2.5 5.2a623.72 623.72 0 0 1-19.26 3.52Z" fill="url(#ai)"/><path d="m97.11 131.183 8.34-2.37-21.43-2.21-13.32 1.76 13.32 4.16 13.09-1.34Z" fill="url(#aj)"/><path style="mix-blend-mode:multiply" opacity=".5" d="m84.02 132.482-.33 5 15.79-2.82 3.47-.67 2.5-5.2s-8 2.36-8.34 2.37c-.34.01-13.09 1.32-13.09 1.32Z" fill="url(#ak)"/><path d="m71.92 128.753 14.84 3.479-2.88 2.48-11.96-5.959Z" fill="#D65429"/><path d="M77.12 128.813c8.34 2.51 7.72 2.9 11 3 3.28.1 13.81-2.12 12.42-2.61-1.39-.49-13.25-2.32-16.15-2.14-2.9.18-11.29.54-7.27 1.75Z" fill="#EBA249" style="mix-blend-mode:soft-light" opacity=".6"/><defs><linearGradient id="a" x1="101.36" y1="102.383" x2="164.13" y2="61.922" gradientUnits="userSpaceOnUse"><stop stop-color="#9B1F27"/><stop offset="1" stop-color="#3D003E"/></linearGradient><linearGradient id="b" x1="132.61" y1="79.227" x2="129.634" y2="148.106" gradientUnits="userSpaceOnUse"><stop stop-color="#3445A1"/><stop offset="1" stop-color="#191E84"/></linearGradient><linearGradient id="c" x1="121.04" y1="76.906" x2="117.956" y2="148.155" gradientUnits="userSpaceOnUse"><stop stop-color="#3445A1"/><stop offset="1" stop-color="#191E84"/></linearGradient><linearGradient id="d" x1="112.008" y1="70.948" x2="108.596" y2="149.781" gradientUnits="userSpaceOnUse"><stop stop-color="#3445A1"/><stop offset="1" stop-color="#191E84"/></linearGradient><linearGradient id="e" x1="104.54" y1="130.443" x2="104.54" y2="57.862" gradientUnits="userSpaceOnUse"><stop stop-color="#fff"/><stop offset="1" stop-color="#191E84"/></linearGradient><linearGradient id="f" x1="62.92" y1="23.052" x2="61.26" y2="40.992" gradientUnits="userSpaceOnUse"><stop stop-color="#FDA902"/><stop offset=".13" stop-color="#FDA402"/><stop offset=".3" stop-color="#FD9402"/><stop offset=".48" stop-color="#FD7A01"/><stop offset=".68" stop-color="#FD5601"/><stop offset=".88" stop-color="#FD2900"/><stop offset="1" stop-color="#FD0C00"/></linearGradient><linearGradient id="g" x1="77.47" y1="33.142" x2="77.47" y2="80.272" gradientUnits="userSpaceOnUse"><stop stop-color="#FDA902"/><stop offset=".13" stop-color="#FDA402"/><stop offset=".3" stop-color="#FD9402"/><stop offset=".48" stop-color="#FD7A01"/><stop offset=".68" stop-color="#FD5601"/><stop offset=".88" stop-color="#FD2900"/><stop offset="1" stop-color="#FD0C00"/></linearGradient><linearGradient id="h" x1="76.17" y1="71.022" x2="78.53" y2="32.413" gradientUnits="userSpaceOnUse"><stop stop-color="#fff"/><stop offset="1" stop-color="#E75A29"/></linearGradient><linearGradient id="i" x1="78.56" y1="106.653" x2="76.67" y2="97.313" gradientUnits="userSpaceOnUse"><stop stop-color="#FDA902"/><stop offset=".99" stop-color="#FD0C00"/></linearGradient><linearGradient id="j" x1="79.65" y1="104.842" x2="79.65" y2="89.612" gradientUnits="userSpaceOnUse"><stop stop-color="#FDA902"/><stop offset=".99" stop-color="#FD0C00"/></linearGradient><linearGradient id="k" x1="68.85" y1="15.102" x2="71.44" y2="33.222" gradientUnits="userSpaceOnUse"><stop stop-color="#FDA902"/><stop offset=".99" stop-color="#FD0C00"/></linearGradient><linearGradient id="l" x1="67.74" y1="14.672" x2="70.54" y2="34.292" gradientUnits="userSpaceOnUse"><stop stop-color="#FDA902"/><stop offset=".99" stop-color="#FD0C00"/></linearGradient><linearGradient id="m" x1="68.22" y1="15.193" x2="70.81" y2="33.313" gradientUnits="userSpaceOnUse"><stop stop-color="#FDA902"/><stop offset=".99" stop-color="#FD0C00"/></linearGradient><linearGradient id="n" x1="86.72" y1="80.522" x2="86.72" y2="78.213" gradientUnits="userSpaceOnUse"><stop stop-color="#FDA902"/><stop offset=".99" stop-color="#FD0C00"/></linearGradient><linearGradient id="o" x1="73.24" y1="78.022" x2="74.31" y2="60.612" gradientUnits="userSpaceOnUse"><stop stop-color="#fff"/><stop offset="1" stop-color="#E75A29"/></linearGradient><linearGradient id="p" x1="72.3" y1="65.912" x2="72.14" y2="74.782" gradientUnits="userSpaceOnUse"><stop stop-color="#F70715"/><stop offset="1" stop-color="#D01C5C"/></linearGradient><linearGradient id="q" x1="81.39" y1="26.133" x2="75.84" y2="36.053" gradientUnits="userSpaceOnUse"><stop stop-color="#fff"/><stop offset="1" stop-color="#E75A29"/></linearGradient><linearGradient id="r" x1="63.05" y1="42.443" x2="65.92" y2="31.622" gradientUnits="userSpaceOnUse"><stop stop-color="#fff"/><stop offset="1" stop-color="#E75A29"/></linearGradient><linearGradient id="s" x1="86.62" y1="29.773" x2="80.95" y2="39.922" gradientUnits="userSpaceOnUse"><stop stop-color="#fff"/><stop offset="1" stop-color="#E75A29"/></linearGradient><linearGradient id="t" x1="74.43" y1="52.992" x2="67.24" y2="65.853" gradientUnits="userSpaceOnUse"><stop stop-color="#fff"/><stop offset="1" stop-color="#E75A29"/></linearGradient><linearGradient id="u" x1="85.79" y1="57.892" x2="79.56" y2="69.022" gradientUnits="userSpaceOnUse"><stop stop-color="#fff"/><stop offset="1" stop-color="#E75A29"/></linearGradient><linearGradient id="v" x1="65.45" y1="54.892" x2="70.26" y2="75.052" gradientUnits="userSpaceOnUse"><stop stop-color="#fff"/><stop offset="1" stop-color="#E75A29"/></linearGradient><linearGradient id="w" x1="75.41" y1="45.352" x2="77.22" y2="52.922" gradientUnits="userSpaceOnUse"><stop stop-color="#fff"/><stop offset="1" stop-color="#E75A29"/></linearGradient><linearGradient id="x" x1="74.49" y1="89.243" x2="84.92" y2="89.243" gradientUnits="userSpaceOnUse"><stop stop-color="#FDA902"/><stop offset=".99" stop-color="#FD0C00"/></linearGradient><linearGradient id="y" x1="74.75" y1="88.483" x2="83.97" y2="88.483" gradientUnits="userSpaceOnUse"><stop stop-color="#fff"/><stop offset="1" stop-color="#E75A29"/></linearGradient><linearGradient id="z" x1="75.88" y1="99.882" x2="78.82" y2="99.882" gradientUnits="userSpaceOnUse"><stop stop-color="#fff"/><stop offset="1" stop-color="#E75A29"/></linearGradient><linearGradient id="A" x1="74.8" y1="85.653" x2="84.43" y2="85.653" gradientUnits="userSpaceOnUse"><stop stop-color="#FDA902"/><stop offset=".99" stop-color="#FD0C00"/></linearGradient><linearGradient id="C" x1="59.56" y1="123.853" x2="61.56" y2="114.523" gradientUnits="userSpaceOnUse"><stop stop-color="#9B1F27"/><stop offset="1" stop-color="#3D003E"/></linearGradient><linearGradient id="D" x1="70.48" y1="119.552" x2="70.26" y2="113.573" gradientUnits="userSpaceOnUse"><stop stop-color="#B61922"/><stop offset="1" stop-color="#45003D"/></linearGradient><linearGradient id="E" x1="65.13" y1="148.542" x2="65.13" y2="109.072" gradientUnits="userSpaceOnUse"><stop stop-color="#8D092D"/><stop offset="1" stop-color="#FD5925"/></linearGradient><linearGradient id="F" x1="75.88" y1="115.913" x2="61.33" y2="120.193" gradientUnits="userSpaceOnUse"><stop stop-color="#F70715"/><stop offset="1" stop-color="#882785"/></linearGradient><linearGradient id="G" x1="49.85" y1="126.063" x2="101.45" y2="126.063" gradientUnits="userSpaceOnUse"><stop stop-color="#B61922"/><stop offset="1" stop-color="#45003D"/></linearGradient><linearGradient id="H" x1="99.05" y1="124.602" x2="61.02" y2="129.382" gradientUnits="userSpaceOnUse"><stop stop-color="#F70715"/><stop offset="1" stop-color="#882785"/></linearGradient><linearGradient id="I" x1="75.65" y1="148.543" x2="75.65" y2="109.073" gradientUnits="userSpaceOnUse"><stop stop-color="#8D092D"/><stop offset="1" stop-color="#FD5925"/></linearGradient><linearGradient id="J" x1="45.658" y1="129.497" x2="7.852" y2="89.25" gradientUnits="userSpaceOnUse"><stop stop-color="#9B1F27"/><stop offset="1" stop-color="#3D003E"/></linearGradient><linearGradient id="K" x1="35.934" y1="94.515" x2="35.714" y2="152.02" gradientUnits="userSpaceOnUse"><stop stop-color="#3445A1"/><stop offset="1" stop-color="#191E84"/></linearGradient><linearGradient id="L" x1="17.496" y1="94.446" x2="17.285" y2="151.951" gradientUnits="userSpaceOnUse"><stop stop-color="#3445A1"/><stop offset="1" stop-color="#191E84"/></linearGradient><linearGradient id="M" x1="26.44" y1="94.483" x2="26.229" y2="151.988" gradientUnits="userSpaceOnUse"><stop stop-color="#3445A1"/><stop offset="1" stop-color="#191E84"/></linearGradient><linearGradient id="N" x1="113.64" y1="108.122" x2="126.99" y2="149.233" gradientUnits="userSpaceOnUse"><stop stop-color="#FDA902"/><stop offset=".99" stop-color="#FD0C00"/></linearGradient><linearGradient id="O" x1="63.2" y1="148.513" x2="44.79" y2="111.213" gradientUnits="userSpaceOnUse"><stop stop-color="#FDA902"/><stop offset=".99" stop-color="#FD0C00"/></linearGradient><linearGradient id="P" x1="20.21" y1="178.793" x2="162.16" y2="178.793" gradientUnits="userSpaceOnUse"><stop stop-color="#9B1F27"/><stop offset="1" stop-color="#3D003E"/></linearGradient><linearGradient id="Q" x1="84.44" y1="221.323" x2="89.72" y2="163.713" gradientUnits="userSpaceOnUse"><stop stop-color="#3445A1"/><stop offset="1" stop-color="#191E84"/></linearGradient><linearGradient id="R" x1="85.73" y1="207.243" x2="90.02" y2="160.493" gradientUnits="userSpaceOnUse"><stop stop-color="#3445A1"/><stop offset="1" stop-color="#191E84"/></linearGradient><linearGradient id="S" x1="41.71" y1="164.733" x2="62.05" y2="164.733" gradientUnits="userSpaceOnUse"><stop stop-color="#3445A1"/><stop offset="1" stop-color="#191E84"/></linearGradient><linearGradient id="T" x1="70.9" y1="172.843" x2="93.67" y2="172.843" gradientUnits="userSpaceOnUse"><stop stop-color="#3445A1"/><stop offset="1" stop-color="#191E84"/></linearGradient><linearGradient id="U" x1="100.39" y1="177.013" x2="152.2" y2="177.013" gradientUnits="userSpaceOnUse"><stop stop-color="#3445A1"/><stop offset="1" stop-color="#191E84"/></linearGradient><linearGradient id="V" x1=".44" y1="144.602" x2="167.56" y2="144.602" gradientUnits="userSpaceOnUse"><stop stop-color="#9B1F27"/><stop offset="1" stop-color="#3D003E"/></linearGradient><linearGradient id="W" x1="30.11" y1="185.163" x2="30.11" y2="92.463" gradientUnits="userSpaceOnUse"><stop stop-color="#791130"/><stop offset="1" stop-color="#DD592D"/></linearGradient><linearGradient id="X" x1="136.44" y1="185.163" x2="136.44" y2="92.463" gradientUnits="userSpaceOnUse"><stop stop-color="#791130"/><stop offset="1" stop-color="#DD592D"/></linearGradient><linearGradient id="Y" x1="94.23" y1="206.852" x2="94.23" y2="68.323" gradientUnits="userSpaceOnUse"><stop stop-color="#791130"/><stop offset="1" stop-color="#DD592D"/></linearGradient><linearGradient id="Z" x1="2.8" y1="144.602" x2="167.56" y2="144.602" gradientUnits="userSpaceOnUse"><stop stop-color="#3445A1"/><stop offset="1" stop-color="#191E84"/></linearGradient><linearGradient id="aa" x1="8.38" y1="152.153" x2="62.8" y2="152.153" gradientUnits="userSpaceOnUse"><stop stop-color="#3445A1"/><stop offset="1" stop-color="#191E84"/></linearGradient><linearGradient id="ab" x1="124.61" y1="151.662" x2="165.25" y2="151.662" gradientUnits="userSpaceOnUse"><stop stop-color="#3445A1"/><stop offset="1" stop-color="#191E84"/></linearGradient><linearGradient id="ac" x1="86.39" y1="177.503" x2="88.63" y2="155.863" gradientUnits="userSpaceOnUse"><stop stop-color="#3445A1"/><stop offset="1" stop-color="#191E84"/></linearGradient><linearGradient id="ad" x1="99.4" y1="141.553" x2="99.4" y2="141.473" gradientUnits="userSpaceOnUse"><stop stop-color="#3445A1"/><stop offset="1" stop-color="#191E84"/></linearGradient><linearGradient id="ae" x1="102.99" y1="166.443" x2="104.9" y2="147.953" gradientUnits="userSpaceOnUse"><stop stop-color="#3445A1"/><stop offset="1" stop-color="#191E84"/></linearGradient><linearGradient id="af" x1="100.52" y1="141.443" x2="100.52" y2="141.432" gradientUnits="userSpaceOnUse"><stop stop-color="#3445A1"/><stop offset="1" stop-color="#191E84"/></linearGradient><linearGradient id="ag" x1="99.96" y1="142.432" x2="100.02" y2="141.812" gradientUnits="userSpaceOnUse"><stop stop-color="#3445A1"/><stop offset="1" stop-color="#191E84"/></linearGradient><linearGradient id="ah" x1="84" y1="214.113" x2="84" y2="165.303" gradientUnits="userSpaceOnUse"><stop stop-color="#3D56FD"/><stop offset="1"/></linearGradient><linearGradient id="ai" x1="70.33" y1="132.443" x2="105.45" y2="132.443" gradientUnits="userSpaceOnUse"><stop stop-color="#B61922"/><stop offset="1" stop-color="#45003D"/></linearGradient><linearGradient id="aj" x1="88.08" y1="148.543" x2="88.08" y2="109.073" gradientUnits="userSpaceOnUse"><stop stop-color="#8D092D"/><stop offset="1" stop-color="#FD5925"/></linearGradient><linearGradient id="ak" x1="104.78" y1="132.622" x2="97.95" y2="132.982" gradientUnits="userSpaceOnUse"><stop stop-color="#F70715"/><stop offset="1" stop-color="#882785"/></linearGradient><radialGradient id="B" cx="0" cy="0" r="1" gradientUnits="userSpaceOnUse" gradientTransform="matrix(19.722 0 0 27.6108 78.323 57.989)"><stop stop-color="#EFE332"/><stop offset=".08" stop-color="#D1C62C"/><stop offset=".27" stop-color="#928B1F"/><stop offset=".45" stop-color="#5E5914"/><stop offset=".62" stop-color="#35330B"/><stop offset=".77" stop-color="#181705"/><stop offset=".9" stop-color="#060601"/><stop offset="1"/></radialGradient></defs></svg>