<svg width="216" height="268" viewBox="0 0 216 268" fill="none" xmlns="http://www.w3.org/2000/svg"><path style="mix-blend-mode:screen" opacity=".3" d="M107.445 267.49c58.951 0 106.74-43.76 106.74-97.74s-47.789-97.74-106.74-97.74c-58.95 0-106.74 43.76-106.74 97.74s47.79 97.74 106.74 97.74Z" fill="url(#a)"/><path style="mix-blend-mode:screen" opacity=".3" d="M108.555 213.48c58.951 0 106.74-47.789 106.74-106.74C215.295 47.79 167.506 0 108.555 0 49.605 0 1.815 47.79 1.815 106.74c0 58.951 47.79 106.74 106.74 106.74Z" fill="url(#b)"/><path style="mix-blend-mode:screen" d="M106.385 145.11c32.066 0 58.06-24.951 58.06-55.73 0-30.779-25.994-55.73-58.06-55.73s-58.06 24.951-58.06 55.73c0 30.779 25.994 55.73 58.06 55.73Z" fill="url(#c)"/><path style="mix-blend-mode:screen" d="M30.445 150.28c8.26-52.88 28.26-147.83 79.47-147.83 53.29 0 69.71 148.55 69.71 148.55s-32.56 28.37-80.65 21c-48.09-7.37-68.53-21.72-68.53-21.72Z" fill="url(#d)"/><defs><radialGradient id="a" cx="0" cy="0" r="1" gradientUnits="userSpaceOnUse" gradientTransform="matrix(106.74 0 0 98.2008 107.445 171.537)"><stop stop-color="#173CFF"/><stop offset=".25" stop-color="#122EC4"/><stop offset=".82" stop-color="#040B30"/><stop offset="1"/></radialGradient><radialGradient id="b" cx="0" cy="0" r="1" gradientUnits="userSpaceOnUse" gradientTransform="translate(108.555 106.74) scale(106.74)"><stop stop-color="#E54136"/><stop offset=".28" stop-color="#AA3028"/><stop offset=".91" stop-color="#160605"/><stop offset="1"/></radialGradient><radialGradient id="c" cx="0" cy="0" r="1" gradientUnits="userSpaceOnUse" gradientTransform="matrix(58.206 0 0 55.536 106.746 89.753)"><stop stop-color="#FD3800"/><stop offset=".12" stop-color="#D12E00"/><stop offset=".3" stop-color="#922000"/><stop offset=".47" stop-color="#5E1500"/><stop offset=".64" stop-color="#350C00"/><stop offset=".78" stop-color="#180500"/><stop offset=".91" stop-color="#060100"/><stop offset="1"/></radialGradient><linearGradient id="d" x1="106.675" y1="209.69" x2="102.665" y2="65.28" gradientUnits="userSpaceOnUse"><stop stop-color="#900"/><stop offset=".08" stop-color="#8D0000"/><stop offset=".71" stop-color="#280000"/><stop offset="1"/></linearGradient></defs></svg>