<svg width="192" height="252" viewBox="0 0 192 252" fill="none" xmlns="http://www.w3.org/2000/svg">
<path fill-rule="evenodd" clip-rule="evenodd" d="M44.346 240.151L57.3406 244.961L68.7618 239.868L70.3465 222.9L96.845 222.877L89.046 249.036L94.0717 251.64L100.048 247.169L103.478 237.14L106.919 239.415L113.213 237.106L124.747 211.841L36.7734 205.389L44.346 240.151Z" fill="url(#paint0_linear_701_3948)"/>
<g style="mix-blend-mode:multiply" opacity="0.5">
<path fill-rule="evenodd" clip-rule="evenodd" d="M57.3406 244.961L44.346 240.151L36.7734 205.389L53.3788 205.547L57.3406 244.961Z" fill="#B83D64"/>
</g>
<g style="mix-blend-mode:multiply" opacity="0.5">
<path fill-rule="evenodd" clip-rule="evenodd" d="M89.046 249.036L93.4944 251.334L108.526 210.528L100.014 210.03L96.845 222.877L89.046 249.036Z" fill="#B83D64"/>
</g>
<g style="mix-blend-mode:multiply" opacity="0.5">
<path fill-rule="evenodd" clip-rule="evenodd" d="M106.919 239.415L103.478 237.14L111.651 211.06L118.318 211.4L106.919 239.415Z" fill="#B83D64"/>
</g>
<g style="mix-blend-mode:multiply" opacity="0.8">
<path fill-rule="evenodd" clip-rule="evenodd" d="M42.6821 232.533L56.5369 236.959L68.9882 237.491L70.3465 222.9L96.845 222.877L92.1135 238.77L96.9922 241.339L104.237 234.695L105.504 230.665L108.674 235.102L116.484 229.941L124.747 211.841L36.8979 206.227L42.6821 232.533Z" fill="#B83D64"/>
</g>
<path fill-rule="evenodd" clip-rule="evenodd" d="M12.3803 179.807L16.1723 202.469L29.88 214.671L47.5494 226.59L63.0229 225.424L64.7661 230.993L75.6892 237.423L105.074 230.076L116.552 221.61L124.702 218.293L125.256 233.608L136.168 236.811L147.861 219.3L155.853 208.988L164.716 209.068L187.49 184.776L167.557 173.74L13.7499 176.049L12.3803 179.807Z" fill="url(#paint1_linear_701_3948)"/>
<g style="mix-blend-mode:multiply" opacity="0.7">
<path fill-rule="evenodd" clip-rule="evenodd" d="M187.49 184.777L164.716 209.068L155.853 208.989L166.47 186.814L152.525 179.558L125.256 233.608L124.702 218.293L122.212 219.312L137.379 189.904L122.042 187.527L116.552 221.61L105.074 230.076L75.6892 237.423L76.6966 235.464L80.7037 222.889L90.7552 189.995L54.624 192.078L99.7314 176.412L54.624 192.078L63.0116 225.424L47.5494 226.59L29.88 214.671L16.1723 202.469L45.5685 215.622L40.6333 188.365L30.2309 175.902L165.146 176.536L187.49 184.777Z" fill="#7D2154"/>
</g>
<g style="mix-blend-mode:multiply" opacity="0.8">
<path fill-rule="evenodd" clip-rule="evenodd" d="M47.5494 226.59L40.6333 188.365C40.6333 188.365 73.6291 177.566 74.0932 177.306C74.5573 177.045 111.209 171.884 111.209 171.884L110.553 178.675L54.624 192.077L63.0682 225.424L47.5494 226.59Z" fill="#B83D64"/>
</g>
<g style="mix-blend-mode:multiply" opacity="0.46">
<path fill-rule="evenodd" clip-rule="evenodd" d="M124.702 218.293L147.465 184.527L124.204 177.679L137.379 189.904L122.212 219.312L124.702 218.293Z" fill="#7D2154"/>
</g>
<g style="mix-blend-mode:multiply" opacity="0.5">
<path fill-rule="evenodd" clip-rule="evenodd" d="M105.074 230.076L114.605 186.554L122.11 184.641L116.552 221.61L105.074 230.076Z" fill="#B83D64"/>
</g>
<g style="mix-blend-mode:multiply" opacity="0.5">
<path fill-rule="evenodd" clip-rule="evenodd" d="M13.3311 184.641L41.3804 192.485L60.6458 216.018L55.3031 194.805L87.9367 199.231L112.964 194.058L119.223 203.872L132.569 199.231L126.468 211.06L143.605 190.255L143.899 196.662L163.867 192.247L160.131 200.058L179.77 193.006L187.49 184.777L170.511 173.48H40.6333L12.3803 179.807L13.3311 184.641Z" fill="#7D2154"/>
</g>
<path d="M54.624 192.077C85.9785 195.53 122.042 187.55 122.042 187.55L137.379 189.927L136.632 186.893L127.894 180.271C127.894 180.271 153.238 186.769 166.47 186.837L167.319 178.732C167.319 178.732 178.072 181.698 188.033 185.376L191.146 175.031C191.146 175.031 180.857 171.94 179.487 170.808C176.374 168.228 144.499 163.383 144.499 163.383L117.208 160.112C117.208 160.112 61.0307 161.459 49.485 164.13C37.9393 166.801 12.2558 169.563 9.01849 170.526L10.8635 179.807C10.8635 179.807 35.766 186.757 40.622 188.365C40.622 188.365 78.1116 177.306 97.2185 176.638L55.8352 188.614L54.624 192.077Z" fill="url(#paint2_radial_701_3948)"/>
<g style="mix-blend-mode:multiply" opacity="0.33">
<path d="M191.146 175.008L166.798 173.752L167.557 180.973L188.033 185.354L191.146 175.008Z" fill="#0E0EAA"/>
</g>
<g style="mix-blend-mode:multiply" opacity="0.33">
<path d="M166.47 186.769L166.957 182.15C166.957 182.15 162.135 182.15 152.242 181.426C143.773 180.879 135.366 179.61 127.113 177.634L127.882 180.204L147.023 185.105L149.74 185.399C149.74 185.399 160.561 187.199 166.47 186.769Z" fill="#0E0EAA"/>
</g>
<g style="mix-blend-mode:multiply" opacity="0.33">
<path d="M137.379 189.904L136.632 186.871L124.362 185.354L83.7599 187.618L55.8351 188.659L54.624 192.123C54.624 192.123 82.9222 197.228 88.7177 196.707C100.139 195.7 113.62 191.183 113.62 191.183L121.419 190.221L137.379 189.904Z" fill="#0E0EAA"/>
</g>
<g style="mix-blend-mode:multiply" opacity="0.33">
<path d="M9.02982 170.526C9.02982 170.526 28.4311 179.875 41.2332 182.071C41.2332 182.071 57.2274 180.588 71.7954 178.551C86.3633 176.513 98.4976 175.449 98.4976 175.449L97.2299 176.581C78.0932 179.107 59.1975 183.207 40.7352 188.84L10.8749 179.785L9.02982 170.526Z" fill="#0E0EAA"/>
</g>
<path style="mix-blend-mode:overlay" opacity="0.4" d="M188.033 185.354L191.146 175.008C191.146 175.008 180.857 171.918 179.487 170.786C176.374 168.205 144.499 163.36 144.499 163.36L117.208 160.089C117.208 160.089 61.0307 161.459 49.485 164.13C37.9393 166.801 12.2558 169.563 9.01849 170.526L10.8635 179.807L12.4482 180.283L16.161 202.469L29.348 214.207L29.8687 214.671L40.2937 221.7L42.6708 232.533L44.3347 240.151L57.3293 244.961L68.7278 239.868L68.9542 237.491L69.3051 233.687L75.6553 237.423L92.0796 233.314L93.8341 232.884L89.1026 249.025L94.1171 251.628L100.094 247.157L103.489 237.128L106.885 239.392L113.179 237.128L121.102 219.765L122.178 219.334L122.506 219.199L124.668 218.316L125.223 233.631L136.134 236.834L147.827 219.323L155.819 209.011L164.682 209.09L174.688 198.416L187.139 185.184L188.033 185.354Z" fill="url(#paint3_linear_701_3948)"/>
<path style="mix-blend-mode:screen" opacity="0.6" d="M188.033 185.354L191.146 175.008C191.146 175.008 180.857 171.918 179.487 170.786C176.374 168.205 144.499 163.36 144.499 163.36L117.208 160.089C117.208 160.089 61.0307 161.459 49.485 164.13C37.9393 166.801 12.2558 169.563 9.01849 170.526L10.8635 179.807L12.4482 180.283L16.161 202.469L29.348 214.207L29.8687 214.671L40.2937 221.7L42.6708 232.533L44.3347 240.151L57.3293 244.961L68.7278 239.868L68.9542 237.491L69.3051 233.687L75.6553 237.423L92.0796 233.314L93.8341 232.884L89.1026 249.025L94.1171 251.628L100.094 247.157L103.489 237.128L106.885 239.392L113.179 237.128L121.102 219.765L122.178 219.334L122.506 219.199L124.668 218.316L125.223 233.631L136.134 236.834L147.827 219.323L155.819 209.011L164.682 209.09L174.688 198.416L187.139 185.184L188.033 185.354Z" fill="url(#paint4_linear_701_3948)"/>
<path fill-rule="evenodd" clip-rule="evenodd" d="M147.963 199.876L144.918 209.373L148.076 222.843L153.826 228.627L167.602 219.334L179.77 197.137L157.132 196.662L147.963 199.876Z" fill="url(#paint5_linear_701_3948)"/>
<g style="mix-blend-mode:multiply" opacity="0.7">
<path fill-rule="evenodd" clip-rule="evenodd" d="M163.957 200.114L161.354 207.449L144.918 209.373L148.076 222.843L153.826 228.628L167.602 219.334L179.77 197.137L163.957 200.114Z" fill="#7D2154"/>
</g>
<path fill-rule="evenodd" clip-rule="evenodd" d="M163.595 202.231L147.035 199.865L147.465 197.748L170.013 194.805L180.144 195.451L179.77 197.137L163.595 202.231Z" fill="url(#paint6_radial_701_3948)"/>
<g style="mix-blend-mode:multiply" opacity="0.7">
<path fill-rule="evenodd" clip-rule="evenodd" d="M163.595 202.231L161.354 207.449L153.826 228.628L167.602 219.334L179.77 197.137L163.595 202.231Z" fill="#7D2154"/>
</g>
<path style="mix-blend-mode:overlay" opacity="0.4" fill-rule="evenodd" clip-rule="evenodd" d="M180.144 195.451L170.013 194.805L147.465 197.748L147.035 199.865L147.963 199.876L144.918 209.373L148.076 222.843L153.826 228.627L167.602 219.334L173.68 208.23L179.77 197.137L180.144 195.451Z" fill="url(#paint7_linear_701_3948)"/>
<path style="mix-blend-mode:multiply" opacity="0.5" d="M150.227 164.266L120.966 160.089L56.7407 163.089L27.1294 167.843C-1.84802 182.965 72.7915 171.397 72.7915 171.397L67.4941 179.558C76.4583 175.008 86.1043 171.949 96.0527 170.503C101.712 169.722 113.948 169.858 127.124 170.412C118.759 180.826 106.749 185.195 108.436 185.037C119.246 184.086 132.014 172.982 134.47 170.763C142.609 171.193 150.725 171.737 157.562 172.291C149.31 179.151 142.032 179.422 146.242 179.694C151.902 180.045 161.275 174.035 163.221 172.778C165.78 173.016 168.021 173.242 169.877 173.457C171.077 173.604 174.858 169.688 174.858 169.688C166.529 168.469 158.298 166.657 150.227 164.266V164.266Z" fill="url(#paint8_linear_701_3948)"/>
<path d="M64.1095 85.3364C65.332 71.5948 82.0393 64.8145 100.524 63.3883C120.299 61.8715 130.837 59.2794 132.557 55.3742C134.167 51.7987 136.18 48.4187 138.557 45.3C138.557 45.3 127.158 56.9476 122.427 57.1514C104.78 57.9211 89.6912 59.8567 73.2555 64.5202C56.8199 69.1838 59.0159 83.3782 59.0159 83.3782L64.1095 85.3364Z" fill="#FFA4DA"/>
<path d="M153.826 164.877C160.256 160.836 162.033 163.134 158.569 158.086C155.105 153.037 152.615 149.426 144.499 151.883C136.383 154.339 130.599 162.432 130.599 162.432L132.557 162.908C132.557 162.908 141.364 153.343 147.997 154.452C159.192 156.263 153.826 164.877 153.826 164.877Z" fill="#FFA4DA"/>
<path d="M178.684 170.401C178.684 170.401 164.036 168.137 155.92 165.579C155.162 165.341 154.46 165.115 153.826 164.877C153.826 164.877 162.135 159.093 148.665 153.196C145.269 151.724 131.414 162.251 128.516 163.609C128.516 163.609 113.994 162.025 107.01 162.228C90.6873 162.715 90.9363 167.073 90.9363 167.073C81.6092 168.499 69.0787 166.134 62.0494 164.481C58.7668 163.711 56.6728 163.089 56.6728 163.089C56.6728 163.089 59.6384 160.168 51.93 159.104C38.3468 157.225 35.8 166.417 35.3585 166.756C33.6308 167.883 31.5703 168.386 29.5177 168.182C28.6901 168.147 27.8676 168.034 27.0614 167.843C38.5392 147.298 43.3952 145.295 61.0873 132.153C71.8746 124.23 59.5705 112.344 52.0318 105.983L50.4811 104.692C47.3459 102.406 43.8645 100.636 40.1692 99.4516C39.1278 98.9988 32.8003 97.267 28.7707 98.6932C25.2843 99.9157 20.8471 93.6221 22.6356 90.5659C24.4806 87.9851 25.9182 85.3477 25.8729 82.4387C25.8431 81.5893 25.5409 80.772 25.0109 80.1075C24.481 79.443 23.7514 78.9666 22.9299 78.7486C22.5365 78.5899 22.1316 78.4612 21.7187 78.3637V78.3637C21.3792 78.2807 21.0283 78.2128 20.666 78.16C20.1527 78.0724 19.635 78.0119 19.1153 77.9789C13.3538 77.6619 4.1059 76.8469 0.868573 72.8965C0.59691 72.5682 4.17381 71.0514 4.26437 71.5155C4.60394 73.6662 3.03056 74.2322 8.10161 75.8961C21.4584 80.2767 30.2422 65.9238 30.2422 65.9238L31.6797 66.5803C20.5981 75.7037 34.453 75.149 28.1481 87.5324C26.8011 90.1698 31.3401 92.4336 35.8452 93.192C39.3882 93.8146 42.9085 93.5203 43.5424 91.7771C44.0857 90.2716 43.9159 80.8653 47.9342 75.6584C49.6435 73.3945 51.4206 71.1307 53.3222 69.0706C55.2306 66.9401 57.2681 64.929 59.4233 63.0487C65.083 58.1927 61.6872 51.8539 56.3671 49.1146C52.175 47.1231 47.6867 45.8271 43.0783 45.2774C42.9877 42.0514 41.2785 39.6177 39.1505 37.4784C37.0224 35.339 35.3132 34.3316 33.4908 32.2036C33.6379 32.2226 33.7873 32.1945 33.9175 32.1233C34.0476 32.0521 34.1519 31.9415 34.2153 31.8074C34.6341 33.4261 36.9092 33.8902 38.743 34.4108C45.5346 36.1201 49.6322 27.9815 53.9901 24.4612C53.9901 24.348 56.0276 25.1969 56.6048 25.1403C52.3715 27.904 48.3393 30.9641 44.5385 34.2977C43.1235 35.5654 41.6973 36.8332 41.9916 38.4066C42.2387 39.6411 42.8842 40.7603 43.8289 41.5926C44.7736 42.4248 45.9653 42.924 47.2211 43.0135C54.3184 44.1388 61.3056 45.8732 68.1053 48.1978C73.2555 50.2013 78.8699 48.1978 80.7942 43.67C82.077 42.0844 82.7769 40.1066 82.7769 38.067C82.7769 36.0274 82.077 34.0496 80.7942 32.4639C79.3783 30.5723 77.4494 29.1266 75.2364 28.2984C72.5992 27.3841 70.0112 26.3338 67.4827 25.1517C60.3968 21.7559 54.9409 17.5111 53.0959 11.7043C53.91 11.527 54.734 11.3985 55.5635 11.3195C55.3085 12.485 55.3926 13.6992 55.8059 14.8185C56.2191 15.9378 56.9441 16.9153 57.8952 17.6356C60.5336 20.17 63.7006 22.0883 67.1687 23.2529C70.6368 24.4174 74.3198 24.7991 77.9531 24.3706C80.4773 24.0084 79.6283 21.62 78.2587 20.59C78.9944 20.59 80.0018 20.0919 80.3188 20.59C81.2294 21.9198 82.0391 23.316 82.7411 24.7668C83.0694 25.4233 83.3637 26.0912 83.658 26.7703C83.9523 27.4495 84.19 28.072 84.439 28.7399C85.2653 31.6263 86.0916 34.592 87.167 37.5689C88.2423 40.5459 87.6424 50.0881 92.0795 49.5221C94.6151 48.277 96.6073 46.2735 95.713 44.4511C95.713 44.4511 98.3504 43.5908 98.0561 44.0775C97.1959 45.4358 95.2603 48.0846 93.7435 50.0088C93.3473 50.4843 92.9625 50.937 92.6116 51.3672L92.1927 51.8313C91.0422 53.0963 89.8055 54.2801 88.4913 55.3742C89.9062 59.1096 114.707 59.5057 121.827 55.6232C123.779 54.4869 125.308 52.7468 126.185 50.6654C126.456 47.2696 127.837 35.9503 127.837 35.9503L130.701 35.6446C129.207 38.5084 126.966 40.3648 127.056 49.6127C127.26 51.9897 128.188 53.4839 129.479 52.8953C132.874 51.2766 136.406 44.4284 136.406 44.4284C140.119 43.3871 140.3 44.1002 140.3 44.1002C140.088 44.2272 139.884 44.367 139.689 44.519V44.519C138.477 45.4811 135.761 48.1298 132.263 54.7064C129.852 59.2001 109.76 63.3883 94.1849 63.0487C83.1599 62.8336 72.4858 69.8403 67.4714 73.7002C65.6871 76.4132 64.3779 79.4104 63.6002 82.5632C63.3738 83.6272 63.0568 84.7591 64.1095 85.3364C69.7692 87.8267 75.8024 89.2755 82.0393 90.781C87.0158 91.8807 91.9282 93.2524 96.7544 94.8899C99.8623 95.8378 102.728 97.4482 105.153 99.6101C110.632 104.874 110.813 113.533 122.981 134.587C136.44 129.878 154.438 135.719 166.787 147.649C169.3 149.913 172.288 155.21 174.711 160.1C177.461 165.873 179.385 171.148 178.684 170.401Z" fill="url(#paint9_linear_701_3948)"/>
<path fill-rule="evenodd" clip-rule="evenodd" d="M83.7599 167.39C83.7599 167.39 74.2403 165.013 74.3762 183.237L62.2306 186.769C62.9151 184.946 63.3676 183.045 63.5776 181.109C63.9075 178.656 64.0663 176.182 64.053 173.706C64.053 167.922 62.0834 168.443 63.3738 163.519C64.868 157.859 71.0483 144.627 72.2934 143.789C79.4812 139.092 91.4683 163.983 83.7599 167.39Z" fill="url(#paint10_linear_701_3948)"/>
<path d="M128.516 163.609C128.516 163.609 110.304 161.991 104.248 162.387C91.2646 163.225 90.9476 167.073 90.9476 167.073C90.9476 167.073 94.9094 148.147 92.0796 138.865C88.797 128.361 86.0803 116.691 86.0803 116.691L84.8239 110.284L85.5483 110.918C90.6986 119.679 115.827 134.077 121.476 144.355C122.63 146.551 128.516 163.609 128.516 163.609Z" fill="#4C0C0C"/>
<path style="mix-blend-mode:multiply" opacity="0.42" d="M166.787 147.604C149.808 140.326 136.632 140.212 136.632 140.212C136.632 140.212 155.592 144.967 161.535 152.437C161.535 152.437 139.349 146.88 133.938 144.718C128.528 142.556 122.959 134.53 122.959 134.53C113.609 118.411 111.334 109.56 108.323 103.968C106.957 100.912 104.55 98.4408 101.531 96.9953C96.7092 94.9126 82.028 90.8037 82.028 90.8037C75.7911 89.2982 69.7013 87.8493 64.0982 85.3591C63.0455 84.7818 63.3625 83.6499 63.5889 82.5858C64.3666 79.4331 65.6757 76.4359 67.4601 73.7228C72.4745 69.8629 83.1486 62.8563 94.1736 63.0714C109.76 63.3883 129.852 59.2002 132.116 54.8196C135.614 48.1978 138.33 45.5491 139.541 44.6322C136.232 47.2154 133.407 50.3658 131.199 53.9367C130.214 55.4648 94.8754 65.788 104.848 58.6908C104.848 58.6908 38.9354 73.7455 88.4347 55.4421L92.0343 51.9332H92.1362L92.555 51.4691C92.9398 51.0389 93.3247 50.5862 93.6869 50.1108C95.2037 48.1865 97.1393 45.583 97.9996 44.1794C98.2939 43.6927 95.6565 44.553 95.6565 44.553C96.562 46.3754 94.5245 48.3789 92.023 49.624C87.5858 50.19 88.2197 40.7157 87.1104 37.6708C86.0011 34.6259 85.2087 31.7282 84.3824 28.8418C84.1334 28.1739 83.8731 27.5287 83.6014 26.8722C83.2367 26.233 82.9299 25.5625 82.6845 24.8687L80.3188 20.6013C80.4433 20.8956 87.9593 39.0065 84.5522 47.3375C82.6732 51.8652 75.6779 57.1287 72.7801 58.4191C75.044 53.7329 69.8598 48.7751 69.8598 48.7751C64.6286 46.8435 59.2443 45.3554 53.7637 44.3266L52.213 44.0323C57.5557 45.2208 65.7961 47.5413 69.69 51.1974C74.6365 55.7817 58.2461 66.7049 57.3519 67.2935C53.8382 68.8691 50.8463 71.4134 48.7266 74.6284C48.7266 74.6284 37.3281 89.2303 58.5404 90.8942C58.5404 90.8942 74.8629 89.5019 71.7274 91.6187L76.1533 91.2564C90.9703 92.6714 104.791 102.881 87.665 104.364C77.1041 105.27 43.033 91.845 58.5404 100.968C52.4507 98.1725 47.2211 95.7615 43.531 91.7998C42.8972 93.5429 39.3769 93.8372 35.8339 93.2147C29.4498 97.0066 25.2504 93.2147 25.2504 93.2147C26.954 89.7907 27.5889 85.9337 27.0728 82.1444C26.3597 76.5753 25.273 79.0089 22.9412 78.7486C23.7627 78.9666 24.4923 79.4431 25.0222 80.1075C25.5522 80.772 25.8544 81.5893 25.8843 82.4387C25.8843 85.3478 24.492 87.9852 22.6469 90.566C20.8358 93.6222 25.2956 99.9157 28.782 98.6932C32.8117 97.267 39.1392 98.9989 40.1805 99.4516C41.7296 99.9506 43.2424 100.556 44.7083 101.263C44.7083 101.263 47.6626 102.395 53.7637 107.466C57.9845 111.242 61.5864 115.657 64.4378 120.551L64.7434 121.343C68.1192 124.655 70.3987 128.921 71.2747 133.568C71.2747 133.568 66.679 137.96 55.122 144.57C39.1844 153.626 37.3054 155.222 37.3054 155.222L42.0822 153.75C36.803 157.653 32.3095 162.519 28.8386 168.092C33.3663 168.284 35.3698 166.711 35.3698 166.711C35.3698 166.711 37.7016 158.663 48.4776 158.787C60.4534 158.946 56.6841 163.021 56.6841 163.021L63.0682 164.719C63.0682 164.719 66.3055 153.66 71.252 145.566C71.9695 144.511 73.0102 143.716 74.2177 143.303C73.2782 135.481 69.0448 116.68 69.0448 116.68C69.0448 116.68 78.7454 121.705 80.8055 128.984C82.8656 136.262 88.5932 156.014 88.5932 156.014C86.6676 152.743 83.9999 149.971 80.8055 147.921C71.6708 158.855 71.4784 172.993 71.4784 172.993C70.5389 168.33 68.8637 167.107 68.8637 167.107C69.2372 173.537 67.0865 185.388 67.0865 185.388L74.3875 183.248C74.3481 180.047 74.7287 176.854 75.5194 173.752C75.8115 172.533 76.3512 171.388 77.1048 170.387C77.8584 169.386 78.8098 168.551 79.9 167.933C80.3294 167.689 80.7959 167.517 81.2809 167.424C84.4958 167.601 87.7201 167.483 90.9137 167.073C90.9137 167.073 96.5733 153.377 92.1362 139.454C89.1444 129.871 86.6731 120.134 84.7333 110.284H84.8805C85.087 110.466 85.2799 110.663 85.4578 110.873L115.284 162.727C123.694 163.179 128.482 163.564 128.482 163.564C131.38 162.217 145.269 151.679 148.631 153.15C162.101 159.048 153.792 164.832 153.792 164.832C161.116 167.571 178.695 170.356 178.695 170.356C179.985 171.782 172.266 152.573 166.787 147.604Z" fill="url(#paint11_linear_701_3948)"/>
<path style="mix-blend-mode:multiply" opacity="0.59" d="M52.2129 44.0322C49.2586 43.3757 47.2211 43.0135 47.2211 43.0135L52.2129 44.0322Z" fill="url(#paint12_linear_701_3948)"/>
<g style="mix-blend-mode:soft-light" opacity="0.5">
<path d="M53.5486 97.4707C62.8078 92.2978 74.4894 90.8149 82.0846 92.2525C89.6799 93.6901 87.3821 94.3352 87.3821 94.3352C80.9471 96.9282 73.9755 97.9075 67.0752 97.1877C55.7106 95.9652 53.5486 97.4707 53.5486 97.4707Z" fill="#FDAD45"/>
</g>
<g style="mix-blend-mode:soft-light" opacity="0.5">
<path d="M57.6802 87.555C59.0046 96.4406 44.7309 84.4761 44.7309 84.4761C44.9104 82.2375 45.5095 80.0526 46.4967 78.0355C46.4967 78.0355 50.3793 74.6397 52.6658 76.4168C56.0389 78.975 57.6802 87.555 57.6802 87.555Z" fill="#FDAD45"/>
</g>
<path style="mix-blend-mode:multiply" opacity="0.58" d="M16.2062 76.4168C24.6052 76.4168 26.6426 74.8773 25.8163 73.3832L24.99 71.889C23.2699 73.4542 21.2741 74.6863 19.104 75.5225L16.2062 76.4168Z" fill="url(#paint13_linear_701_3948)"/>
<path style="mix-blend-mode:multiply" opacity="0.24" d="M88.4574 55.3969C77.6474 60.3887 67.4714 73.7002 67.4714 73.7002C67.4714 73.7002 77.1947 65.1654 87.0538 63.8297C96.9129 62.4941 101.339 62.9016 101.339 62.9016C101.339 62.9016 91.9777 62.1318 90.2798 60.2642C88.5819 58.3965 92.5436 57.423 92.5436 57.423C92.5436 57.423 91.3098 56.9589 89.8044 56.5627C88.2989 56.1666 88.4574 55.3969 88.4574 55.3969Z" fill="url(#paint14_linear_701_3948)"/>
<path style="mix-blend-mode:multiply" opacity="0.24" d="M75.6666 61.5092C60.3742 64.373 47.923 75.681 47.923 75.681L46.4967 78.0354C46.4967 78.0354 50.1755 75.4433 64.3473 67.916C78.5191 60.3886 75.6666 61.5092 75.6666 61.5092Z" fill="url(#paint15_linear_701_3948)"/>
<path style="mix-blend-mode:multiply" opacity="0.24" d="M43.0783 92.4562C53.1525 108.62 82.1299 122.667 82.1299 122.667C82.1299 122.667 73.0744 108.133 64.3133 104.364C55.5522 100.595 43.0783 92.4562 43.0783 92.4562Z" fill="url(#paint16_linear_701_3948)"/>
<path d="M128.516 163.609L130.599 162.387C130.599 162.387 124.023 151.317 121.159 140.212C120.649 138.232 106.648 125.735 106.648 125.735L93.37 117.008L85.4464 110.918C85.4464 110.918 86.3293 113.601 93.37 119.815C100.411 126.029 111.832 135.447 111.832 135.447L128.516 163.609Z" fill="#3B1919"/>
<path style="mix-blend-mode:multiply" opacity="0.24" d="M77.6475 121.92C87.9141 130.297 88.6159 155.98 88.6159 155.98C88.6159 155.98 90.8797 136.613 87.4839 130.376C85.2595 126.523 81.7907 123.541 77.6475 121.92V121.92Z" fill="url(#paint17_linear_701_3948)"/>
<g style="mix-blend-mode:soft-light" opacity="0.5">
<path d="M66.962 130.376C59.2309 133.545 44.5498 143.653 41.5955 148.487C41.5955 148.487 56.4803 142.827 65.8414 135.402C66.5484 134.799 67.0402 133.983 67.2424 133.076C67.4445 132.17 67.3461 131.222 66.962 130.376V130.376Z" fill="#FDAD45"/>
</g>
<g style="mix-blend-mode:soft-light" opacity="0.5">
<path d="M87.8235 96.1124C82.4694 96.9727 65.8867 99.0894 63.2266 99.2478C67.9479 100.969 72.918 101.91 77.9417 102.032C92.7361 102.032 94.3094 99.0328 94.3094 99.0328C94.3094 99.0328 91.7626 95.4785 87.8235 96.1124Z" fill="#FDAD45"/>
</g>
<path style="mix-blend-mode:multiply" opacity="0.5" d="M84.7673 107.534C104.621 110.578 107.202 111.201 119.857 132.832C119.857 132.832 114.899 126.12 104.452 119.034C98.1603 114.756 91.5835 110.913 84.7673 107.534V107.534Z" fill="url(#paint18_linear_701_3948)"/>
<path style="mix-blend-mode:multiply" opacity="0.5" d="M152.253 143.269C168.824 152.811 178.684 170.435 178.684 170.435L168.247 168.556C168.247 168.556 167.489 158.776 163.595 153.592C159.701 148.408 152.253 143.269 152.253 143.269Z" fill="url(#paint19_linear_701_3948)"/>
<path style="mix-blend-mode:multiply" opacity="0.59" d="M43.0783 45.2774C50.6735 44.3945 46.4741 43.0135 46.4741 43.0135C46.4741 43.0135 60.1252 45.2774 69.8371 48.8656C69.8371 48.8656 81.9827 52.035 87.133 38.6782C87.3141 38.2028 89.0686 46.0471 84.3824 51.8539C79.5604 57.8192 52.3375 70.1798 52.3375 70.1798C52.3375 70.1798 64.9698 63.0034 68.7278 53.5631C69.6221 51.2992 68.6486 51.2313 57.9292 47.3375C53.1332 45.8064 48.11 45.1096 43.0783 45.2774V45.2774Z" fill="url(#paint20_linear_701_3948)"/>
<g style="mix-blend-mode:soft-light" opacity="0.5">
<path d="M80.2848 127.523C83.5335 136.194 84.8126 150.264 84.8126 150.264C84.8126 150.264 79.5604 148.238 76.5721 136.262C75.0863 129.959 73.1958 123.758 70.9124 117.698C70.9124 117.698 78.2474 122.056 80.2848 127.523Z" fill="#FDAD45"/>
</g>
<path style="mix-blend-mode:multiply" opacity="0.24" d="M44.7309 88.9472C45.9534 95.2974 50.0057 96.4406 51.2168 96.4406C52.428 96.4406 61.4042 92.094 55.8917 91.2564C46.9608 89.8981 44.2102 83.5027 44.7309 88.9472Z" fill="url(#paint21_linear_701_3948)"/>
<g style="mix-blend-mode:soft-light" opacity="0.5">
<path d="M73.8328 144.718C80.2282 147.672 65.9999 166.801 64.8793 166.054C63.7586 165.307 69.8598 142.872 73.8328 144.718Z" fill="#FDAD45"/>
</g>
<path style="mix-blend-mode:multiply" opacity="0.5" d="M120.717 139.454C116.575 135.799 112.116 132.519 107.395 129.651C109.07 131.425 110.557 133.367 111.832 135.447C113.677 138.548 126.875 161.017 126.875 161.017L128.516 163.609C91.4004 159.534 90.9476 167.073 90.9476 167.073C90.9476 167.073 94.2416 149.653 91.6947 138.696C89.1479 127.738 86.9067 121.513 85.786 115.446C85.1861 112.242 84.9145 110.329 84.9145 110.329C84.9145 110.329 94.9547 117.925 102.81 123.222C111.254 128.904 120.717 139.454 120.717 139.454Z" fill="url(#paint22_linear_701_3948)"/>
<path style="mix-blend-mode:multiply" opacity="0.34" d="M147.272 153.105C132.965 149.392 123.559 135.526 120.457 130.059C117.356 124.592 108.345 103.945 108.345 103.945C111.888 110.918 59.4573 102.032 59.4573 102.032C59.4573 102.032 93.5171 133.964 75.5194 115.231C63.9058 103.176 84.9597 110.329 84.9597 110.329C119.087 121.92 129.716 148.532 129.716 148.532C129.716 148.532 136.621 155.98 130.644 162.387C133.398 160.344 136.287 158.491 139.292 156.84C145.088 153.411 147.272 153.105 147.272 153.105Z" fill="url(#paint23_linear_701_3948)"/>
<path style="mix-blend-mode:multiply" opacity="0.24" d="M66.9281 98.0027C55.7672 96.101 53.9675 97.2669 54.4768 98.0027C54.9862 98.7384 57.533 100.799 59.9893 100.051C62.4456 99.3044 66.9281 98.0027 66.9281 98.0027Z" fill="url(#paint24_linear_701_3948)"/>
<path style="mix-blend-mode:multiply" opacity="0.59" d="M83.4429 147.887C78.1455 143.235 77.6474 138.107 74.3309 128.259C71.8406 120.879 69.124 117.053 69.2711 117.947C71.2633 129.946 68.4561 141.718 68.2411 141.854C66.7696 142.793 65.4565 143.676 64.2793 144.514C58.4272 148.385 50.4924 153.377 45.7383 155.346C37.1583 158.889 33.7964 163.179 28.7593 168.137H28.3518C30.75 168.534 33.2111 168.06 35.2906 166.801C35.2906 166.801 35.8452 163.519 40.554 160.519C45.7949 157.191 53.8882 156.965 60.6005 153.23C61.4741 152.755 62.3004 152.197 63.0681 151.566C66.8728 149.394 70.3742 146.73 73.4819 143.642C76.9796 140.246 83.4316 150.751 84.5069 154.554C87.1104 163.802 72.0557 167.911 89.3629 167.288C92.5663 167.13 90.2345 153.852 83.4429 147.887Z" fill="url(#paint25_linear_701_3948)"/>
<g style="mix-blend-mode:multiply" opacity="0.5">
<path d="M66.464 166.179C66.8262 166.734 67.8902 164.911 67.3582 164.798C67.1841 164.762 67.0032 164.78 66.8392 164.848C66.6752 164.917 66.5358 165.034 66.4392 165.183C66.3425 165.332 66.2932 165.507 66.2976 165.685C66.3021 165.862 66.36 166.035 66.464 166.179V166.179Z" fill="url(#paint26_linear_701_3948)"/>
<path d="M68.06 162.998C69.1919 163.96 70.72 161.459 70.2106 160.904C69.7013 160.349 67.3468 162.398 68.06 162.998Z" fill="url(#paint27_linear_701_3948)"/>
<path d="M68.1053 168.16C67.9581 166.564 66.1357 167.798 66.43 168.918C66.4875 169.213 66.6245 169.487 66.8262 169.711C66.5966 170.265 66.5966 170.888 66.8262 171.442C66.0678 171.691 65.5697 173.163 65.6943 174.555C66.1131 177.838 68.6939 174.397 68.2071 172.506C68.9882 171.635 69.2259 168.296 68.4788 168.42C68.3243 168.447 68.1727 168.489 68.026 168.545C68.0639 168.419 68.0905 168.29 68.1053 168.16V168.16Z" fill="url(#paint28_linear_701_3948)"/>
<path d="M66.1584 162.195C67.2903 161.063 68.5128 157.837 66.6677 160.055C64.8227 162.274 64.6642 163.779 66.1584 162.195Z" fill="url(#paint29_linear_701_3948)"/>
<path d="M72.1802 161.504C73.0292 160.915 73.0178 158.572 72.3953 159.965C71.7727 161.357 71.6935 161.866 72.1802 161.504Z" fill="url(#paint30_linear_701_3948)"/>
<path d="M70.5389 175.506C70.4069 175.6 70.3012 175.727 70.2319 175.873C70.1625 176.02 70.1319 176.182 70.1427 176.344C70.1427 177 70.7653 176.457 70.9351 175.993L71.1728 176.14C70.9238 177.034 71.3086 177.827 72.0444 176.593C72.5651 175.71 72.2594 175.2 71.8633 175.28C71.9185 174.829 72.0055 174.383 72.1236 173.944C72.7688 171.635 70.4144 174.318 70.5389 175.506Z" fill="url(#paint31_linear_701_3948)"/>
<path d="M71.852 163.157C70.5389 163.621 68.2751 167.82 69.973 167.956C69.973 172.269 71.7161 170.639 72.3953 169.088C72.6679 168.49 72.818 167.843 72.8367 167.186C73.3687 166.643 73.9687 164.923 73.6291 165.036C73.2035 165.316 72.8628 165.707 72.6443 166.168C72.5501 165.955 72.4111 165.766 72.2368 165.613C72.6556 164.255 72.5877 162.896 71.852 163.157Z" fill="url(#paint32_linear_701_3948)"/>
<path d="M72.9386 163.485C73.7423 163.021 73.7875 161.346 73.38 162.081C72.9725 162.817 72.4405 163.779 72.9386 163.485Z" fill="url(#paint33_linear_701_3948)"/>
<path d="M68.4335 161.323C68.7391 161.742 69.7579 159.931 69.2824 160.123C68.807 160.316 68.026 160.791 68.4335 161.323Z" fill="url(#paint34_linear_701_3948)"/>
<path d="M69.3164 174.782C70.3239 175.189 72.3161 171.748 71.4445 171.691C70.5729 171.635 68.9316 174.623 69.3164 174.782Z" fill="url(#paint35_linear_701_3948)"/>
</g>
<g style="mix-blend-mode:multiply" opacity="0.5">
<path d="M43.9272 147.366C43.6555 148.193 46.1911 147.808 45.9194 147.106C45.8252 146.902 45.6685 146.734 45.4722 146.626C45.2758 146.518 45.05 146.475 44.8277 146.504C44.6053 146.533 44.3981 146.633 44.2361 146.788C44.0742 146.943 43.9659 147.145 43.9272 147.366V147.366Z" fill="url(#paint36_linear_701_3948)"/>
<path d="M48.5342 146.132C48.5342 148.464 54.0467 147.91 54.1938 146.517C54.341 145.125 48.5455 144.729 48.5342 146.132Z" fill="url(#paint37_linear_701_3948)"/>
<path d="M43.1462 150.705C44.5611 149.268 42.2972 148.283 41.5388 149.415C41.3245 149.707 41.1776 150.044 41.1087 150.4C40.8186 150.493 40.5526 150.648 40.3296 150.856C40.1065 151.063 39.932 151.317 39.8183 151.6C39.3202 150.966 38.177 151.373 37.362 152.369C35.5962 154.543 38.4939 155.629 39.6259 153.92C40.6786 154.35 43.8027 152.324 43.1688 151.452C43.0521 151.292 42.9194 151.144 42.7726 151.011C42.9053 150.92 43.0302 150.817 43.1462 150.705V150.705Z" fill="url(#paint38_linear_701_3948)"/>
<path d="M47.6513 143.348C50.1528 143.155 56.7067 140.405 50.7301 141.492C46.4627 142.261 44.9573 143.552 47.6513 143.348Z" fill="url(#paint39_linear_701_3948)"/>
<path d="M56.5143 150.366C59.4799 151.271 65.2641 147.977 60.1591 148.792C56.0276 149.415 54.9975 149.902 56.5143 150.366Z" fill="url(#paint40_linear_701_3948)"/>
<path d="M38.3581 158.595C38.3222 158.534 38.2732 158.481 38.2147 158.44C38.1561 158.4 38.0895 158.373 38.0193 158.361C37.9492 158.349 37.8773 158.353 37.8087 158.372C37.7401 158.391 37.6765 158.424 37.6224 158.47C37.1922 158.878 37.7582 159.41 38.1544 159.41C38.1544 159.568 38.1544 159.716 38.1544 159.851C37.4186 159.919 37.0225 160.859 38.1544 161.413C39.0712 161.855 39.3542 161.097 39.1052 160.474C39.5063 160.33 39.9253 160.243 40.3503 160.214C42.9198 160.021 39.1618 157.803 38.3581 158.595Z" fill="url(#paint41_linear_701_3948)"/>
<path d="M53.0166 151.679C50.4811 150.026 43.5763 150.705 44.6517 153.037C40.6107 155.969 43.1801 157.633 45.4553 157.712C46.4437 157.786 47.4328 157.578 48.3078 157.112C49.7227 157.769 53.526 157.655 52.677 156.931C51.6998 156.35 50.5973 156.012 49.4624 155.946C49.6594 155.561 49.7604 155.134 49.7567 154.701C52.3941 154.203 54.6466 152.686 53.0166 151.679Z" fill="url(#paint42_linear_701_3948)"/>
<path d="M54.1825 153.999C56.5596 155.222 60.2836 153.422 57.7481 153.388C55.4842 153.354 52.8808 153.32 54.1825 153.999Z" fill="url(#paint43_linear_701_3948)"/>
<path d="M51.1037 144.751C50.9112 145.566 55.0881 144.684 54.0467 144.321C53.0053 143.959 51.3527 143.755 51.1037 144.751Z" fill="url(#paint44_linear_701_3948)"/>
<path d="M38.4147 156.535C38.5053 158.119 42.4897 159.285 41.9803 157.791C41.4709 156.297 38.3694 155.969 38.4147 156.535Z" fill="url(#paint45_linear_701_3948)"/>
</g>
<g style="mix-blend-mode:multiply" opacity="0.5">
<path d="M168.157 153.807C167.523 153.705 168.157 155.222 168.519 154.939C168.881 154.656 169.085 153.943 168.157 153.807Z" fill="url(#paint46_linear_701_3948)"/>
<path d="M169.164 156.025C168.032 156.24 168.609 157.667 169.164 157.587C169.719 157.508 169.855 155.89 169.164 156.025Z" fill="url(#paint47_linear_701_3948)"/>
<path d="M165.519 153.648C166.968 154.463 167.183 152.516 165.961 151.95C165.61 151.759 165.226 151.64 164.829 151.6C164.251 150.838 163.464 150.26 162.565 149.936C162.837 148.928 160.799 146.279 157.471 143.744C142.858 132.651 154.913 147.943 159.588 150.06C160.448 151.713 164.534 154.361 164.908 153.796C164.986 153.676 165.047 153.547 165.089 153.411C165.228 153.498 165.371 153.577 165.519 153.648Z" fill="url(#paint48_linear_701_3948)"/>
<path d="M170.602 155.403C170.602 156.308 171.168 157.667 171.213 156.342C171.258 154.746 170.669 153.999 170.602 155.403Z" fill="url(#paint49_linear_701_3948)"/>
<path d="M167.896 158.267C167.806 158.731 168.915 159.127 168.564 158.663C168.213 158.199 167.942 157.995 167.896 158.267Z" fill="url(#paint50_linear_701_3948)"/>
<path d="M149.785 148.283C148.999 147.295 147.98 146.517 146.82 146.019C143.537 144.434 145.688 146.698 147.567 147.909H146.707C142.643 145.521 137.402 143.97 143.843 148.26C147.239 150.524 149.333 150.864 149.412 150.264C150.544 150.819 151.845 151.464 153.226 152.233C157.72 154.803 153.532 149.902 149.785 148.283Z" fill="url(#paint51_linear_701_3948)"/>
<path d="M167.115 157.746C167.511 156.999 165.723 153.977 164.478 154.973C158.705 151.871 160.075 154.633 161.75 155.98C162.282 156.423 162.882 156.779 163.527 157.033C163.719 157.508 164.851 158.323 164.942 158.097C165.032 157.87 164.806 157.576 164.523 157.259C164.752 157.289 164.984 157.289 165.214 157.259C165.983 157.825 166.911 158.131 167.115 157.746Z" fill="url(#paint52_linear_701_3948)"/>
<path d="M166.357 158.153C166.266 158.618 167.24 158.957 167.013 158.652C166.787 158.346 166.425 157.848 166.357 158.153Z" fill="url(#paint53_linear_701_3948)"/>
<path d="M169.798 156.716C169.458 156.716 169.798 157.633 169.922 157.395C170.047 157.157 170.239 156.705 169.798 156.716Z" fill="url(#paint54_linear_701_3948)"/>
<path d="M153.34 147.943C151.076 148.521 157.867 154.362 158.592 153.682C159.316 153.003 154.143 147.74 153.34 147.943Z" fill="url(#paint55_linear_701_3948)"/>
</g>
<g style="mix-blend-mode:soft-light" opacity="0.55">
<path d="M83.7599 167.39C83.7599 167.39 74.2403 165.013 74.3762 183.237L62.2306 186.769C62.9151 184.946 63.3676 183.045 63.5776 181.109C65.2189 172.733 65.6037 169.529 67.0752 172.359C67.9943 174.473 68.4238 176.768 68.3317 179.072C68.3317 179.072 70.7653 172.846 71.4784 175.155C71.9547 176.83 72.314 178.536 72.5538 180.26C72.5538 180.26 72.9952 172.167 75.576 168.228C78.1568 164.289 79.2435 166.643 79.2435 166.643C79.2435 166.643 81.1225 153.92 82.1186 156.806C83.1147 159.693 83.7599 167.39 83.7599 167.39Z" fill="#CCFF66"/>
</g>
<g style="mix-blend-mode:soft-light" opacity="0.55">
<path d="M62.6493 160.089L62.0607 164.481C58.7781 163.711 56.6841 163.089 56.6841 163.089C56.6841 163.089 59.6497 160.168 51.9413 159.104C38.3581 157.225 35.8113 166.417 35.3698 166.756C33.6421 167.883 31.5816 168.386 29.5291 168.182C32.5513 162.036 36.3206 156.082 35.8 159.263C35.1321 163.44 41.6068 156.41 41.6068 156.41C41.6068 156.41 44.7422 153.897 45.7836 153.264C46.825 152.63 45.7836 156.659 45.7836 156.829C45.7836 156.999 49.5755 154.95 49.7567 155.346C49.9378 155.742 53.3222 156.84 53.3222 156.84C53.3222 156.84 55.4842 157.52 55.8804 157.123C56.2766 156.727 60.1251 151.136 60.6798 153.184C61.2344 155.233 58.5857 160.089 58.5857 160.089H62.6493Z" fill="#CCFF66"/>
</g>
<g style="mix-blend-mode:soft-light" opacity="0.55">
<path d="M178.684 170.401C178.684 170.401 164.036 168.137 155.92 165.579C157.867 160.508 157.664 155.901 158.569 158.04C159.302 159.676 160.348 161.153 161.648 162.387C161.648 162.387 157.12 147.932 158.637 148.34C160.154 148.747 162.35 152.041 162.35 152.041C162.35 152.041 164.263 150.139 165.463 153.173C166.9 156.739 168.349 161.549 168.451 161.878C168.451 160.044 168.541 150.23 169.945 153.298C171.237 156.475 172.267 159.754 173.024 163.1L174.665 160.123C177.461 165.873 179.385 171.148 178.684 170.401Z" fill="#CCFF66"/>
</g>
<path style="mix-blend-mode:multiply" opacity="0.59" d="M64.3246 87.2494C68.6826 90.1132 52.6997 91.4715 51.2508 84.012C49.8019 76.5526 63.0682 68.3348 73.2556 64.5202C83.4429 60.7056 88.2423 61.3168 88.2423 61.3168C88.2423 61.3168 72.0217 66.7841 66.2942 74.1529C60.5666 81.5218 61.2345 85.2119 64.3246 87.2494Z" fill="url(#paint56_linear_701_3948)"/>
<path d="M167.851 171.816L166.074 163.542C166.074 163.542 163.187 166.292 155.264 167.232C148.054 168.081 128.516 165.986 128.516 165.986C124.894 165.67 122.11 165.511 122.11 165.511C122.093 165.87 122.013 166.222 121.872 166.552L121.17 167.152C121.17 167.152 127.826 167.922 130.044 168.115C139.496 168.907 161.433 170.005 167.851 171.816Z" fill="url(#paint57_linear_701_3948)"/>
<path style="mix-blend-mode:multiply" opacity="0.5" fill-rule="evenodd" clip-rule="evenodd" d="M162.078 170.922C163.044 169.202 163.441 167.221 163.21 165.262L165.836 164.04L165.904 171.329L162.078 170.922Z" fill="url(#paint58_linear_701_3948)"/>
<path fill-rule="evenodd" clip-rule="evenodd" d="M118.352 160.859C118.307 160.534 118.331 160.203 118.42 159.887C118.51 159.572 118.664 159.278 118.872 159.025C120.661 156.637 123.593 159.659 139.191 162.421C150.951 164.504 158.886 164.323 162.893 163.926L164.082 163.791C165.349 163.621 165.949 163.474 165.949 163.474C165.949 163.474 169.572 160.282 171.688 161.391C172.684 161.9 172.322 163.383 171.688 164.787C171.141 165.916 170.498 166.995 169.764 168.013C169.698 169.071 169.74 170.132 169.888 171.182C170.126 174.102 166.787 173.276 164.489 170.627C163.963 170.121 163.541 169.517 163.244 168.85C163.244 168.85 161.58 167.424 147.578 165.002C141.724 163.891 135.755 163.511 129.807 163.87C124.985 164.787 121.566 171.793 120.095 169.02C118.703 166.383 120.525 164.945 120.604 164.323C120.638 163.904 118.612 162.545 118.352 160.859Z" fill="url(#paint59_linear_701_3948)"/>
<path style="mix-blend-mode:multiply" opacity="0.5" fill-rule="evenodd" clip-rule="evenodd" d="M120.582 164.356C121.204 163.598 122.427 161.855 122.427 161.855C121.715 161.968 120.989 161.938 120.289 161.767C119.589 161.596 118.931 161.287 118.352 160.859C118.612 162.545 120.638 163.904 120.582 164.356Z" fill="url(#paint60_linear_701_3948)"/>
<path fill-rule="evenodd" clip-rule="evenodd" d="M129.773 163.904C135.724 163.548 141.697 163.928 147.555 165.036C161.557 167.469 163.221 168.896 163.221 168.896C162.977 168.612 162.807 168.272 162.726 167.907C162.645 167.541 162.656 167.162 162.757 166.801C163.994 165.603 165.494 164.712 167.138 164.198C170.907 162.794 171.666 163.598 171.666 164.821C172.322 163.394 172.684 161.912 171.666 161.425C169.549 160.293 165.927 163.508 165.927 163.508C164.921 163.737 163.899 163.893 162.871 163.972C163.821 166.088 161.422 166.858 154.472 165.636C147.929 164.504 129.207 162.036 127.486 162.093C127.169 162.093 127.611 163.541 125.392 166.043C123.898 167.718 120.74 169.96 120.05 169.111C121.544 171.861 124.962 164.821 129.773 163.904Z" fill="url(#paint61_linear_701_3948)"/>
<path style="mix-blend-mode:multiply" opacity="0.26" fill-rule="evenodd" clip-rule="evenodd" d="M171.666 164.809C172.322 163.383 172.684 161.9 171.666 161.413C169.549 160.282 165.927 163.496 165.927 163.496C164.921 163.726 163.899 163.881 162.87 163.96V163.96C158.863 164.356 150.929 164.538 139.168 162.455C123.57 159.704 120.638 156.682 118.85 159.059C118.641 159.312 118.487 159.606 118.397 159.921C118.308 160.237 118.285 160.568 118.329 160.893V160.893C118.623 161.928 119.199 162.86 119.993 163.587C120.333 163.949 120.582 164.232 120.559 164.39C120.48 165.013 118.657 166.451 120.05 169.088C120.092 169.168 120.141 169.243 120.197 169.314C121.012 170.446 122.325 169.145 124.068 167.526C126.139 167.752 128.754 168.047 129.999 168.148C137.515 168.782 152.876 169.597 162.112 170.808C162.089 170.84 162.07 170.874 162.055 170.91L164.987 171.25C167.251 173.435 170.07 173.944 169.843 171.25C169.695 170.2 169.653 169.138 169.719 168.081C170.462 167.049 171.114 165.955 171.666 164.809V164.809ZM128.494 165.941L126.049 165.737C126.298 165.545 126.558 165.353 126.83 165.171L126.977 165.07L127.079 165.013L127.181 164.945C127.957 164.439 128.821 164.082 129.728 163.892C133.049 163.659 136.385 163.7 139.7 164.017C141.964 164.198 144.624 164.504 147.51 165.013C151.54 165.703 154.539 166.315 156.781 166.835L157.166 166.926C156.543 167.039 155.886 167.13 155.196 167.22C148.031 168.081 128.494 165.986 128.494 165.986V165.941Z" fill="url(#paint62_linear_701_3948)"/>
<path style="mix-blend-mode:screen" opacity="0.3" d="M131.493 161.866L131.335 161.696C130.565 160.915 129.66 159.976 128.686 158.901C127.713 157.825 126.649 156.637 125.619 155.267C124.045 153.31 122.658 151.211 121.476 148.996C121.09 148.26 120.742 147.504 120.434 146.732C119.761 144.813 119.235 142.845 118.861 140.846C118.635 139.714 118.442 138.582 118.25 137.451C118.25 137.201 118.171 136.964 118.137 136.715C118.131 136.662 118.131 136.609 118.137 136.556V136.556C117.831 134.575 117.571 132.583 117.356 130.738L117.254 129.787C117.186 129.199 117.129 128.655 117.073 128.055C116.801 125.384 116.654 123.29 116.597 122.396C116.597 122.226 116.597 122.102 116.597 122.034L115.873 120.517V120.856C115.86 122.338 115.689 123.814 115.363 125.26C115.215 125.916 114.95 126.541 114.582 127.105C114.459 127.274 114.31 127.423 114.141 127.546C113.89 127.707 113.596 127.787 113.298 127.775C113 127.763 112.714 127.659 112.477 127.478C111.566 126.733 110.939 125.698 110.7 124.546V124.546C110.587 124.196 110.496 123.833 110.405 123.415C109.951 121.384 109.656 119.322 109.523 117.246V117.246C109.251 113.578 109.308 110.363 109.308 110.363L108.753 110.997C108.753 110.997 108.753 113.352 108.674 116.329C108.674 118.061 108.515 119.996 108.345 121.796C108.345 122.068 108.289 122.328 108.266 122.588C108.141 123.915 107.907 125.228 107.564 126.516L107.508 126.708C107.123 127.92 106.614 128.587 105.957 128.282C102.935 126.901 102.957 123.301 102.957 123.301L102.856 123.233L102.222 122.803L101.984 122.645C101.984 122.781 101.882 123.652 101.678 125.124C101.678 125.305 101.678 125.497 101.599 125.701C101.52 125.905 101.509 126.358 101.452 126.72C101.124 128.984 100.626 132.119 99.9012 135.775C99.9065 135.794 99.9065 135.813 99.9012 135.832C99.7427 136.624 99.5842 137.451 99.4031 138.299C99.0334 140.08 98.6108 141.944 98.1354 143.891C98.1354 144.14 98.0222 144.378 97.9543 144.627C97.626 145.94 97.2864 147.276 96.9129 148.645C95.781 152.652 94.5132 156.829 92.9738 160.961C92.9058 161.13 92.8379 161.312 92.7813 161.481C92.3852 162.511 91.9777 163.542 91.5589 164.56L91.457 164.798C91.14 165.579 90.8005 166.349 90.4609 167.062L91.1287 166.983H91.1853L94.932 158.572C95.1897 157.897 95.6188 157.3 96.1771 156.84C96.6186 156.648 96.7884 158.323 96.811 160.746V161.221C96.811 161.912 96.811 162.659 96.811 163.428V163.598C96.811 165.862 96.6412 168.375 96.5167 170.492C96.4601 171.623 96.3922 172.654 96.3356 173.48C96.3356 173.676 96.3356 173.857 96.3356 174.023C96.3356 174.329 96.3356 174.6 96.279 174.816C96.279 175.223 95.9847 177.079 95.9847 177.079L96.5959 176.876C96.6276 174.888 96.8819 172.91 97.3543 170.978C98.2352 168.008 99.676 165.234 101.599 162.806L101.724 162.636C102.221 162.02 102.783 161.458 103.399 160.961L103.965 160.531C104.33 160.281 104.708 160.05 105.097 159.84C105.899 159.425 106.751 159.113 107.632 158.912C108.474 158.823 109.325 158.939 110.111 159.251C110.892 159.478 111.854 159.817 113.077 160.248L113.722 160.474L114.277 160.678C115.952 161.278 118.046 162.013 120.649 162.942L121.091 163.089L121.397 163.191C123.287 163.824 125.449 164.526 127.905 165.285C126.799 164.76 125.745 164.131 124.758 163.406H124.69L124.577 163.326C123.474 162.567 122.454 161.694 121.532 160.723C121.385 160.553 121.249 160.395 121.125 160.225C120.919 159.971 120.745 159.694 120.604 159.399C120.061 158.267 125.709 158.901 125.709 158.901C125.709 158.901 117.457 151.328 123.196 155.21L123.774 155.607L123.909 155.697L124.589 156.184C125.256 156.659 125.913 157.157 126.536 157.644C127.532 158.414 128.46 159.184 129.297 159.908C130.135 160.632 130.735 161.164 131.312 161.696L131.403 161.776L131.561 161.923L132.693 162.953L131.493 161.866ZM119.393 147.389C119.449 147.706 119.468 148.029 119.45 148.351V148.351C119.455 148.373 119.455 148.397 119.45 148.419C119.314 149.981 117.876 150.06 114.707 148.928C112.443 148.125 113.349 144.808 114.843 143.042C115.107 142.706 115.429 142.418 115.793 142.193C116.688 141.661 117.605 141.831 118.171 143.325C118.702 144.62 119.111 145.962 119.393 147.332V147.389ZM117.129 141.152C115.726 141.152 115.114 140.19 115.511 138.458C115.907 136.726 118.533 141.073 117.118 141.095L117.129 141.152ZM97.6147 153.139C98.7466 153.388 97.9656 155.72 96.6752 154.826C95.3848 153.931 96.4488 152.811 97.6034 153.082L97.6147 153.139ZM103.58 154.271C103.153 154.561 102.662 154.746 102.15 154.81C101.637 154.875 101.117 154.817 100.631 154.641C100.145 154.465 99.7075 154.177 99.3545 153.8C99.0014 153.423 98.7427 152.968 98.5995 152.471V152.471C98.3364 151.599 98.2555 150.682 98.3618 149.777V149.777C98.391 149.431 98.4402 149.087 98.5089 148.747C98.9617 146.393 99.4145 144.219 99.9012 142.284L99.9691 141.99C100.285 140.718 100.69 139.469 101.18 138.254C102.041 136.251 103.048 135.266 104.316 135.832C104.595 135.964 104.855 136.135 105.085 136.341C107.259 138.22 107.508 142.397 107.417 145.034C107.402 145.81 107.345 146.585 107.247 147.355C107.247 147.774 107.168 148.17 107.1 148.487C107.032 148.804 107.032 148.883 106.987 149.064C106.817 150.117 106.424 151.121 105.835 152.009C105.245 152.897 104.472 153.649 103.569 154.214L103.58 154.271Z" fill="url(#paint63_linear_701_3948)"/>
<path style="mix-blend-mode:soft-light" opacity="0.74" d="M33.2984 92.4789C37.7469 93.4637 39.49 95.8747 39.6372 96.0219C39.3852 95.6588 39.2138 95.2461 39.1343 94.8114C39.0548 94.3767 39.0691 93.93 39.1763 93.5013C39.2835 93.0726 39.481 92.6717 39.7557 92.3255C40.0304 91.9794 40.376 91.6959 40.7691 91.4941C44.1649 89.4454 51.5677 90.6339 51.5677 90.6339L52.4167 90.283C37.2715 89.3095 34.136 83.8876 30.91 66.4106L30.5025 66.1729C30.5025 66.2408 30.5025 66.3087 30.5025 66.3766C29.7215 77.5035 23.2582 77.3563 20.8019 76.7677C20.4394 76.691 20.0891 76.5653 19.7605 76.3942C20.0931 76.7201 20.4446 77.0263 20.8132 77.3111H20.8924L21.0283 77.4129C23.4506 79.2353 25.4767 79.3372 28.7593 86.0269C30.3947 89.8047 31.4297 93.8148 31.8269 97.9122C31.8042 97.2217 31.7363 92.128 33.2871 92.4789H33.2984ZM29.28 74.3001C30.412 71.3684 34.9397 79.5296 33.8078 80.2088C32.6758 80.888 28.499 76.3376 29.28 74.3001ZM37.8488 92.7166C38.6864 93.5429 38.2449 93.8486 37.4752 93.6222C36.7055 93.3958 37.0338 91.9469 37.8488 92.7166ZM40.9842 89.5133C42.6029 91.1772 39.6259 91.1546 38.2449 91.7771C36.864 92.3997 34.6227 87.872 34.8491 87.1022C35.0755 86.3325 40.0786 88.5851 40.9842 89.5133ZM24.0052 77.5601C26.2012 77.7185 30.5931 81.2049 31.5779 84.114C32.5626 87.023 31.6344 88.4266 28.8839 84.7931C26.1333 81.1596 22.3753 77.4356 24.0505 77.5601H24.0052ZM29.0197 85.4836C29.0989 85.11 30.7063 86.9325 31.2043 88.2455C31.5779 89.2303 30.7063 89.3095 30.4233 89.3774C30.1403 89.4453 28.9857 85.8345 29.1102 85.461L29.0197 85.4836ZM31.1817 92.445C30.3893 87.9172 32.2117 88.4492 32.1665 90.3056C32.1212 92.162 31.9061 95.8974 31.6005 95.0484C31.3842 94.1886 31.259 93.3084 31.227 92.4223L31.1817 92.445Z" fill="url(#paint64_linear_701_3948)"/>
<path style="mix-blend-mode:multiply" opacity="0.59" d="M67.8902 23.5103C79.7981 29.8491 82.6845 26.442 81.0998 24.4385L79.5151 22.435C79.5151 22.435 80.6471 24.1216 76.7645 24.5178C73.7689 24.7716 70.7527 24.4292 67.8902 23.5103V23.5103Z" fill="url(#paint65_linear_701_3948)"/>
<path style="mix-blend-mode:multiply" opacity="0.59" d="M35.3585 33.1657C38.5505 36.2219 40.3616 38.2028 41.5615 36.8671C42.7613 35.5314 44.2328 33.6638 44.2328 33.6638C43.1722 34.3794 41.9119 34.7401 40.6333 34.6938C38.7999 34.493 37.0153 33.976 35.3585 33.1657V33.1657Z" fill="url(#paint66_linear_701_3948)"/>
<path style="mix-blend-mode:multiply" opacity="0.59" d="M92.0795 49.5334C82.3789 54.7969 86.352 49.3296 87.4047 47.3374C88.0384 46.1808 88.2956 44.8552 88.1404 43.5455C88.1404 43.5455 88.5479 47.8015 89.8383 48.6618C90.4986 49.1391 91.2702 49.4392 92.0795 49.5334V49.5334Z" fill="url(#paint67_linear_701_3948)"/>
<path style="mix-blend-mode:screen" opacity="0.16" d="M115.137 54.5592C115.035 54.1177 114.99 53.8914 114.99 53.8914C114.99 53.8914 115.058 54.1404 115.137 54.5592Z" fill="url(#paint68_linear_701_3948)"/>
<path style="mix-blend-mode:soft-light" opacity="0.74" d="M12.9689 169.79C13.0595 169.665 13.2292 169.439 13.4783 169.077L12.9689 169.79ZM57.6802 101.297C57.6802 101.297 56.5482 102.961 54.6692 105.111C54.1825 105.688 53.6505 106.311 53.0845 106.934C50.1528 110.171 46.2929 113.725 43.0896 114.393C36.9771 115.672 34.1247 98.2517 34.1247 98.2517H33.7285C27.9783 144.717 16.5345 164.413 13.6028 168.828C15.6176 165.941 18.538 161.787 30.095 150.264C34.6227 145.736 34.9057 149.924 34.2266 156.184C34.1134 157.237 34.0341 157.87 34.0341 157.87L34.6567 157.655L36.6149 152.947C41.9576 140.122 45.1157 132.572 48.5002 122.916C50.583 116.996 52.7902 111.903 54.5447 108.201C54.9296 107.375 55.3031 106.605 55.6766 105.938C57.0802 103.096 57.9405 101.478 57.9405 101.478L57.6802 101.297ZM31.0345 124.207C30.8421 118.819 34.2718 121.581 34.0228 122.667C33.3889 125.407 31.0911 125.871 31.0345 124.207ZM33.8304 135.594C32.6985 139.137 31.0458 135.922 32.5287 131.417C34.0115 126.912 34.951 132.062 33.8304 135.594ZM32.8003 118.23C32.5513 116.6 32.2457 112.299 34.0455 105.564C35.2566 101.036 36.6376 110.273 37.2941 116.521C37.9846 123.098 33.0493 119.872 32.8003 118.23V118.23ZM37.4299 145.861C37.2375 148.125 35.7094 149.924 35.7886 147.162C35.9018 141.888 37.6223 143.552 37.4299 145.861V145.861ZM38.3015 142.465C36.2527 143.744 35.5736 130.987 35.3811 128.191C35.1887 125.395 41.5615 119.611 45.9534 114.325C48.4323 111.337 49.9264 110.658 51.0923 112.174C52.2582 113.691 40.3616 141.197 38.3015 142.476V142.465Z" fill="url(#paint69_linear_701_3948)"/>
<g style="mix-blend-mode:multiply" opacity="0.33">
<path fill-rule="evenodd" clip-rule="evenodd" d="M147.465 197.748L163.595 199.22C163.595 199.22 180.144 195.258 180.144 195.439C180.144 195.62 179.77 197.126 179.77 197.126L163.595 203.748L147.035 199.888L147.465 197.748Z" fill="#0E0EAA"/>
</g>
<path style="mix-blend-mode:soft-light" opacity="0.74" d="M123.955 79.3145C113.292 78.4542 106.285 63.1958 104.95 59.7434C104.825 59.4265 104.282 59.6302 104.361 59.9585C105.108 63.06 105.063 69.2856 100.524 68.6291C96.9695 68.1197 88.763 64.1014 87.7103 62.245C87.7103 62.245 122.676 88.9472 125.064 137.258L125.732 137.994C125.732 137.994 122.336 120.313 125.856 117.698C127.701 116.329 137.085 135.436 137.3 136.092C137.232 135.809 139.224 134.27 140.153 134.53C140.563 134.592 140.951 134.759 141.278 135.015C141.606 135.271 141.861 135.607 142.02 135.99C141.895 135.733 141.807 135.458 141.76 135.175C140.798 121.728 142.892 118.445 147.012 128.882C147.963 131.293 150.77 142.306 150.77 142.306C151.401 142.631 152.004 143.01 152.57 143.438C152.57 143.438 151.732 140.654 150.804 137.235C149.242 131.474 150.465 130.761 152.23 132.391C154.8 134.79 162.418 150.558 162.576 150.819C143.888 105.372 127.894 41.2477 127.894 41.2477C127.894 41.2477 128.482 79.688 123.955 79.3145ZM123.649 86.7853C116.326 91.6865 99.1768 66.5463 109.692 72.5116C117.955 77.1978 127.124 84.4535 123.649 86.7853V86.7853ZM140.82 117.721C142.134 122.056 141.692 134.27 138.489 133.568C135.761 132.934 130.837 118.728 130.158 115.027C128.992 108.665 139.485 113.261 140.82 117.721ZM150.51 127.671C142.586 115.672 125.607 92.3996 125.143 87.023C124.657 81.3633 128.222 68.7989 129.671 66.8746C132.84 62.5619 158.411 139.624 150.51 127.648V127.671ZM131.618 63.5014C129.886 57.3437 131.256 56.2684 133.395 63.5014C135.512 70.5194 132.659 67.1802 131.618 63.5014Z" fill="url(#paint70_linear_701_3948)"/>
<path style="mix-blend-mode:soft-light" opacity="0.74" d="M79.934 31.4904C79.1251 33.9971 77.9215 36.3585 76.3684 38.4858C75.5731 39.0344 74.6765 39.4192 73.731 39.6177C71.4671 40.1271 67.8563 35.8144 66.6791 34.309C65.0179 30.6914 63.9441 26.8321 63.4983 22.8765L62.6154 22.5822C63.5355 26.4149 64.7658 30.1664 66.2942 33.7996L67.5167 37.8179C68.0826 44.236 68.3883 49.0693 68.6486 46.3867C68.8524 44.2247 68.9656 39.8101 69.2712 39.0631C69.3844 39.1989 69.4862 39.3347 69.5994 39.4592C70.0522 41.2816 69.5994 44.1454 69.8937 42.4475C69.9442 41.722 70.1284 41.012 70.4371 40.3535C72.5991 42.3796 74.546 42.0514 75.9269 40.2855C76.0967 40.4101 76.2325 40.7723 76.2891 41.5759C76.5268 44.4397 76.2891 48.526 76.7306 47.1451C77.0928 46.0131 77.1268 40.2629 77.1268 38.4065C78.3763 36.2413 79.3209 33.914 79.934 31.4904V31.4904Z" fill="url(#paint71_linear_701_3948)"/>
<path style="mix-blend-mode:soft-light" opacity="0.74" d="M129.082 35.9616H128.12C128.12 35.9616 122.121 48.5374 108.979 49.9296C108.311 50.0089 107.678 50.0541 107.078 50.0881C103.093 51.22 101.418 50.3598 101.339 50.3371C97.4902 48.7637 97.5808 44.4398 97.5808 44.4398L96.8676 44.8473C97.2638 47.9374 101.09 50.6993 101.09 50.6993L101.293 51.288C100.965 60.5132 101.044 61.4753 101.825 57.672C102.38 54.978 102.765 52.069 103.093 51.22H103.444C103.852 52.8274 104.304 52.6915 104.576 51.752C104.626 51.5699 104.706 51.3976 104.814 51.2427H105.21C105.193 52.274 105.23 53.3055 105.323 54.3328C105.629 58.6568 105.606 51.9445 105.98 51.2087L107.112 51.0729C107.689 51.2653 108.357 51.5709 108.821 51.6728C109.715 51.8426 110.711 52.9858 111.209 51.8652C111.465 51.2163 111.677 50.5507 111.843 49.873H111.934C112.285 57.3664 111.424 61.464 111.775 60.6717C112.126 59.8793 112.851 50.5409 112.839 49.4769C119.54 46.964 126.32 41.7005 129.082 35.9616Z" fill="url(#paint72_linear_701_3948)"/>
<path style="mix-blend-mode:soft-light" opacity="0.74" d="M27.4124 83.2084C27.4124 83.2084 27.3331 83.4008 27.2086 83.6498C26.9369 84.1932 26.4955 85.0421 26.3144 85.0648C26.1333 85.0874 26.9822 83.1292 26.9822 83.1292H26.8238C26.4228 83.8276 25.9845 84.504 25.5107 85.1553C23.5525 87.8606 21.4584 89.3548 19.8511 89.2303C17.6664 89.0605 16.2402 87.057 13.4104 77.0167L12.8557 77.4356C12.9236 77.5827 16.127 85.8118 13.8179 85.4609C11.7578 85.144 7.67149 78.5675 6.14338 75.998C5.76984 75.3754 5.55478 74.9906 5.55478 74.9906L3.64182 74.5038L4.03799 75.1717C5.53214 77.6733 11.0333 86.491 15.9912 89.0944C17.2885 89.8756 18.8097 90.2007 20.313 90.0182C21.8163 89.8356 23.2155 89.1559 24.2882 88.087C24.5573 87.8592 24.8143 87.6174 25.0579 87.3626C25.9424 86.3346 26.6848 85.1924 27.2652 83.9668L27.6161 83.2537L27.4124 83.2084ZM16.659 88.868C15.2667 88.4832 12.7652 86.3891 13.2632 86.3212C13.7613 86.2533 14.7121 85.5628 15.3347 86.3212C16.444 87.7474 17.9494 89.2076 16.659 88.8454V88.868ZM26.054 85.7552C25.7544 86.4115 25.2657 86.9633 24.6505 87.3399C24.5324 87.4174 24.4024 87.4748 24.2656 87.5097C23.9147 87.589 23.8807 87.5097 24.3561 86.8872C24.6146 86.5663 24.9068 86.274 25.2277 86.0156C25.7145 85.5741 26.2238 85.3138 26.054 85.7326V85.7552Z" fill="url(#paint73_linear_701_3948)"/>
<path d="M88.2423 22.6388C87.9254 24.9026 84.3145 27.574 84.3145 27.574L85.786 33.6185C85.786 33.6185 85.0842 36.3465 84.2013 36.5955C80.4546 37.7274 73.6178 39.6404 69.4862 39.1197C69.4862 39.1197 69.4862 39.2895 69.4862 39.4819C69.4862 39.8894 69.3504 40.5007 68.8637 40.6138H68.7957C65.1736 41.4175 52.5639 41.4288 50.2547 40.2629C47.6795 38.6713 45.2379 36.8732 42.9538 34.8863C42.9538 34.8863 41.0521 37.2181 40.1239 37.4331C31.974 39.2782 11.2258 28.9323 8.21482 27.4042C7.73009 27.1559 7.28086 26.8438 6.87914 26.476C2.2835 22.2313 18.6059 13.0966 22.3187 12.8815C26.371 12.6665 34.7699 22.4577 34.9057 22.6048C33.7738 20.024 33.1626 16.3339 35.6528 15.9944C38.7462 16.0191 41.8321 16.3031 44.8781 16.8433C45.8628 17.1942 54.9409 22.6161 54.9409 22.6161L56.0049 21.3257L49.7906 14.3078C48.9077 9.41784 72.7688 0.0680875 78.5756 0.000171685C84.3824 -0.0677442 88.5819 20.0353 88.2423 22.6388Z" fill="url(#paint74_linear_701_3948)"/>
<g style="mix-blend-mode:multiply" opacity="0.61">
<g style="mix-blend-mode:multiply" opacity="0.5">
<path d="M68.8863 40.6251C68.8863 40.6251 68.8863 40.5459 68.8863 40.5233C68.8071 40.7496 68.7278 40.7496 68.8863 40.6251Z" fill="#606060"/>
</g>
<g style="mix-blend-mode:multiply" opacity="0.5">
<path d="M84.3145 27.5286L85.786 33.5731C85.786 33.4034 80.998 27.9135 78.7567 27.755C54.4089 26.6231 49.6887 33.1656 49.6887 33.1656C50.2887 35.9162 69.4975 39.0856 69.4975 39.0856C69.4975 39.0856 69.4975 39.2554 69.4975 39.4479C69.4975 39.8554 69.3617 40.4666 68.875 40.5798H68.8071C65.1849 41.3835 52.5752 41.3948 50.266 40.2289C47.6909 38.6373 45.2492 36.8391 42.9651 34.8522C42.9651 34.8522 41.0634 37.184 40.1353 37.3991C31.9854 39.2441 11.2371 28.8983 8.22612 27.3702C7.74139 27.1219 7.29216 26.8097 6.89044 26.442C18.821 29.6906 32.7777 33.4147 34.419 33.46C36.9658 33.5279 36.83 24.7214 36.83 24.7214C39.7322 26.8379 43.0316 28.3471 46.5307 29.1586C49.6322 29.9736 44.8667 16.7866 44.8667 16.7866C51.1376 20.3748 54.9409 22.6387 54.9409 22.6387L56.0049 21.3483L49.7906 14.3303L60.8835 24.4385C60.8835 24.4385 75.2591 25.876 88.2423 22.6161C87.9706 24.9026 84.3145 27.5286 84.3145 27.5286Z" fill="#606060"/>
</g>
</g>
<path style="mix-blend-mode:overlay" opacity="0.4" d="M78.5756 0.000171685C72.7688 0.0680875 48.9077 9.41784 49.7906 14.3078L56.0049 21.3257L54.9409 22.6388C54.9409 22.6388 45.8855 17.2168 44.878 16.8659C41.8321 16.3257 38.7462 16.0417 35.6528 16.017C33.1626 16.3566 33.7964 20.0467 34.9057 22.6275C34.7699 22.4577 26.371 12.6665 22.3187 12.8815C18.6059 13.0966 2.28349 22.2313 6.90177 26.4647C7.30349 26.8324 7.75272 27.1446 8.23745 27.3929C11.2484 28.921 32.008 39.2669 40.1466 37.4218C41.0748 37.2067 42.9764 34.875 42.9764 34.875C45.2605 36.8619 47.7022 38.66 50.2774 40.2516C52.5412 41.3836 65.1962 41.3836 68.8184 40.6025C68.8184 40.6931 68.8184 40.7044 68.8184 40.6025C69.3051 40.4441 69.4183 39.8328 69.4409 39.4706C69.4409 39.2782 69.4409 39.131 69.4409 39.1084C73.5725 39.6291 80.4093 37.6821 84.156 36.5842C85.0389 36.3351 85.7407 33.6072 85.7407 33.6072L84.2692 27.5627C84.2692 27.5627 87.9706 24.9026 88.2423 22.6388C88.5819 20.0353 84.3598 -0.0677442 78.5756 0.000171685Z" fill="url(#paint75_linear_701_3948)"/>
<path d="M145.892 167.82C143.164 159.161 139.383 150.841 137.798 149.098C136.214 147.355 131.878 147.389 121.329 138.243C114.084 130.5 108.402 121.909 107.055 121.603C105.708 121.298 90.6986 134.394 90.6986 134.394L92.3965 143.687C93.0304 143.687 102.369 134.915 106.127 134.258C107.478 136.06 108.957 137.762 110.553 139.352C116.642 145.725 120.944 149.653 124.362 149.653C126.445 149.653 132.286 152.913 132.286 152.913C132.206 155.573 138.772 162.738 141.5 167.628C143.401 171.024 144.601 176.208 145.167 179.162C145.191 179.271 145.251 179.368 145.337 179.437C145.424 179.507 145.532 179.545 145.643 179.545C145.753 179.545 145.861 179.507 145.948 179.437C146.034 179.368 146.094 179.271 146.118 179.162C146.959 175.419 146.881 171.527 145.892 167.82Z" fill="url(#paint76_radial_701_3948)"/>
<path d="M114.696 168.737C114.582 162.251 114.469 157.033 113.779 154.294C113.088 151.554 108.787 143.948 107.293 132.232C106.681 127.49 102.357 111.382 100.954 110.42C99.5503 109.458 87.6084 123.72 87.6084 123.72L90.6646 134.541C91.0382 134.134 95.5206 126.505 97.1732 123.573C97.1732 123.573 100.694 131.225 101.112 138.435C101.407 143.642 107.768 155.414 107.768 155.414C107.644 157.531 107.768 164.719 108.3 165.907C108.832 167.096 110.394 176.321 109.172 182.422C108.987 183.312 108.722 184.184 108.379 185.026C108.096 185.727 109.613 185.422 110.134 184.878C111.71 182.708 112.904 180.285 113.665 177.713C114.474 174.793 114.822 171.765 114.696 168.737Z" fill="url(#paint77_radial_701_3948)"/>
<path style="mix-blend-mode:screen" opacity="0.4" d="M101.101 112.208C96.0753 115.299 97.7053 116.159 99.6182 123.777C101.531 131.395 106.104 149.54 108.096 152.2C110.089 154.86 110.134 146.687 108.685 142.85C107.236 139.013 106.342 131.881 104.429 123.686C102.516 115.491 102.561 111.314 101.101 112.208Z" fill="url(#paint78_radial_701_3948)"/>
<path style="mix-blend-mode:screen" opacity="0.4" d="M112.556 155.007C107.429 159.534 109.421 164.311 109.692 167.401C110.372 174.997 110.439 178.913 111.436 179.162C112.432 179.411 114.684 173.152 114.684 168.205C114.684 163.258 114.118 153.626 112.556 155.007Z" fill="url(#paint79_radial_701_3948)"/>
<path style="mix-blend-mode:screen" opacity="0.4" d="M108.504 152.743C110.7 156.331 113.032 153.026 109.636 145.091C106.24 137.156 106.919 128.497 104.519 132.402C102.12 136.307 104.599 146.325 108.504 152.743Z" fill="url(#paint80_radial_701_3948)"/>
<path style="mix-blend-mode:screen" opacity="0.4" d="M112.703 129.878C111.198 137.417 127.916 148.238 130.067 148.645C132.218 149.053 137.47 148.781 135.783 147.943C134.097 147.106 124.543 142.159 120.819 138.673C117.095 135.187 113.167 127.546 112.703 129.878Z" fill="url(#paint81_radial_701_3948)"/>
<path style="mix-blend-mode:screen" opacity="0.4" d="M137.289 148.657C134.889 151.419 139.417 156.795 142.235 161.606C144.048 164.805 145.52 168.185 146.627 171.691C145.568 166.673 143.998 161.776 141.941 157.078C138.16 147.966 137.289 148.657 137.289 148.657Z" fill="url(#paint82_radial_701_3948)"/>
<path style="mix-blend-mode:multiply" opacity="0.8" d="M97.1732 123.573C95.0565 118.819 98.4976 111.925 98.4976 111.925C92.6116 117.698 87.6084 123.72 87.6084 123.72L90.6646 134.541L97.1732 123.573Z" fill="url(#paint83_linear_701_3948)"/>
<path d="M101.101 112.208C98.0448 114.902 103.365 118.264 103.365 118.264C103.365 118.264 102.652 114.336 102.391 113.442C102.283 113.153 102.111 112.891 101.888 112.677C101.664 112.464 101.395 112.303 101.101 112.208Z" fill="white"/>
<path fill-rule="evenodd" clip-rule="evenodd" d="M62.1853 163.994C61.4608 169.326 57.4764 173.887 46.1118 170.944H45.9307L45.1271 170.718C30.5478 166.507 30.2309 156.184 36.83 152.766C38.3242 151.996 35.6981 153.75 35.5849 157.859C35.4038 164.3 37.962 166.043 47.5834 168.047L47.9909 168.137C48.3757 168.205 48.7379 168.273 49.1228 168.318C50.3148 168.512 51.5303 168.512 52.7223 168.318C61.7778 166.756 59.3441 152.686 59.3441 152.686C60.4898 153.935 61.2726 155.473 61.608 157.135C61.812 157.88 61.9745 158.636 62.0947 159.399C62.3417 160.919 62.3722 162.466 62.1853 163.994V163.994Z" fill="url(#paint84_linear_701_3948)"/>
<path opacity="0.5" d="M47.5834 167.99L46.0892 170.922C57.4085 173.865 61.4382 169.303 62.1626 163.972L61.9702 161.561C61.9702 161.968 61.8683 162.398 61.7891 162.828C60.9628 167.639 53.9448 172.654 52.7336 168.239L47.5834 167.99Z" fill="#E26680"/>
<path fill-rule="evenodd" clip-rule="evenodd" d="M49.0888 168.262C47.9823 169.373 46.623 170.201 45.1271 170.673C30.5478 166.462 30.2309 156.139 36.83 152.72C38.3242 151.951 35.6981 153.705 35.5849 157.814C35.4038 164.345 38.0412 166.054 48.0361 168.081C48.3531 168.148 48.7379 168.216 49.0888 168.262Z" fill="url(#paint85_linear_701_3948)"/>
<path fill-rule="evenodd" clip-rule="evenodd" d="M51.5112 167.39C49.8585 171.51 45.7836 174.397 37.2601 171.85L35.9018 171.431C35.2453 171.205 34.6227 170.956 34.0455 170.695C23.8581 166.168 24.5259 157.542 30.2875 154.52C31.6797 153.784 27.0615 156.467 28.5103 161.663C29.5177 165.262 30.5138 167.084 38.6977 169.065L39.2184 169.19C39.9141 169.351 40.6222 169.453 41.3351 169.495C42.1713 169.556 43.0119 169.483 43.8253 169.28C51.4432 167.401 50.4245 154.452 50.4245 154.452C52.0092 155.799 53.4807 162.477 51.5112 167.39Z" fill="url(#paint86_linear_701_3948)"/>
<path opacity="0.5" d="M51.5112 167.401C49.8586 171.522 45.7836 174.408 37.2602 171.861L35.9019 171.431L35.766 169.982L41.4257 169.495L43.9159 169.28C43.2481 172.812 50.1755 169.948 51.5112 167.401Z" fill="#E26680"/>
<path fill-rule="evenodd" clip-rule="evenodd" d="M38.777 169.065C38.777 170.016 35.517 170.197 34.0681 170.695C23.8808 166.168 24.5486 157.542 30.3101 154.52C31.7024 153.784 27.0841 156.467 28.533 161.663C29.5404 165.262 30.5365 167.084 38.777 169.065Z" fill="url(#paint87_linear_701_3948)"/>
<path fill-rule="evenodd" clip-rule="evenodd" d="M30.1064 173.061C29.6649 172.914 29.2234 172.744 28.816 172.574C18.2211 168.114 19.5115 156.342 25.273 153.331C26.4435 152.844 27.6865 152.553 28.9518 152.471C28.9518 152.471 23.96 155.595 23.7789 160.949C23.677 163.96 24.741 166.734 28.9178 169.065C29.9493 169.628 31.0198 170.116 32.1212 170.525L32.7098 170.718C42.8972 173.921 43.2481 156.32 43.2481 156.32C45.5685 158.742 46.508 178.562 30.1064 173.061Z" fill="url(#paint88_linear_701_3948)"/>
<path opacity="0.5" fill-rule="evenodd" clip-rule="evenodd" d="M32.7098 170.684C31.3103 171.079 29.992 171.719 28.816 172.574C18.2211 168.114 19.5115 156.342 25.273 153.331C26.4435 152.844 27.6865 152.553 28.9518 152.471C28.9518 152.471 23.96 155.595 23.7789 160.949C23.677 163.96 24.741 166.734 28.9178 169.065C30.1533 169.669 31.419 170.21 32.7098 170.684V170.684Z" fill="#E26680"/>
<path fill-rule="evenodd" clip-rule="evenodd" d="M40.2937 168.828L37.2602 170.922C29.2687 173.186 23.7789 174.77 23.7789 174.77C20.949 174.035 21.7527 172.869 21.7867 172.812C30.6384 169.314 34.17 169.179 37.4752 169.02C38.3921 168.986 39.2976 168.941 40.2937 168.828Z" fill="url(#paint89_linear_701_3948)"/>
<path fill-rule="evenodd" clip-rule="evenodd" d="M39.558 168.896L37.2941 170.933C29.3027 173.197 23.8128 174.782 23.8128 174.782C20.983 174.046 21.7866 172.88 21.8206 172.823C24.4693 173.774 37.8827 169.733 37.5205 169.065C38.2021 169.044 38.8822 168.988 39.558 168.896V168.896Z" fill="url(#paint90_linear_701_3948)"/>
<path opacity="0.5" fill-rule="evenodd" clip-rule="evenodd" d="M37.2602 170.922C34.7133 172.054 36.2075 174.012 36.2075 174.012C34.1284 174.131 32.048 173.802 30.1064 173.05L37.2602 170.922Z" fill="#E26680"/>
<path d="M147.963 49.805C147.706 49.9189 147.429 49.9805 147.148 49.9862C143.831 50.2465 134.335 47.3374 132.523 45.3452C130.712 43.353 135.591 38.7914 135.749 38.6442C135.614 38.7234 132.082 40.7722 123.298 38.6442C121.335 37.4323 119.587 35.9021 118.125 34.1165V34.1165C117.027 32.8394 116.414 31.2163 116.393 29.5322C116.597 24.6196 143.175 16.764 145.439 18.4392C146.956 19.5712 146.458 26.476 145.948 31.0037C145.722 32.9846 145.507 34.49 145.45 34.8409V34.9088C151.359 39.0743 150.091 48.741 147.963 49.805Z" fill="url(#paint91_linear_701_3948)"/>
<g style="mix-blend-mode:multiply" opacity="0.17">
<path d="M147.963 49.8051L147.148 49.9862C143.831 50.2465 134.335 47.3375 132.523 45.3453C130.712 43.3531 135.591 38.7914 135.749 38.6443C135.614 38.7235 132.082 40.7723 123.298 38.6443C123.298 38.6443 129.365 39.3347 132.478 38.0217C141.737 34.1165 146.186 23.0576 146.446 22.9783L145.948 30.9924L145.45 34.8296V34.8976C145.45 34.8976 136.847 40.3761 138.557 42.2325C140.266 44.0888 147.963 49.8051 147.963 49.8051Z" fill="#0E0EAA"/>
</g>
<path style="mix-blend-mode:overlay" opacity="0.4" d="M145.45 34.9202V34.8523C145.507 34.5014 145.722 32.9959 145.948 31.015C146.458 26.4873 146.956 19.5599 145.439 18.4506C143.175 16.7753 116.597 24.6309 116.393 29.5435C116.414 31.2277 117.027 32.8508 118.125 34.1278V34.1278C119.587 35.9135 121.335 37.4436 123.298 38.6556C132.105 40.7836 135.636 38.7348 135.749 38.6556C135.591 38.8027 130.554 43.1833 132.523 45.3566C134.493 47.5299 143.843 50.2579 147.148 49.9975C147.43 49.9883 147.707 49.9229 147.963 49.8051C150.091 48.7411 151.359 39.0744 145.45 34.9202Z" fill="url(#paint92_linear_701_3948)"/>
<defs>
<linearGradient id="paint0_linear_701_3948" x1="121.422" y1="316.379" x2="77.8496" y2="209.544" gradientUnits="userSpaceOnUse">
<stop stop-color="#25097F"/>
<stop offset="1" stop-color="#570096"/>
</linearGradient>
<linearGradient id="paint1_linear_701_3948" x1="146.661" y1="208.456" x2="29.7328" y2="195.032" gradientUnits="userSpaceOnUse">
<stop stop-color="#25097F"/>
<stop offset="1" stop-color="#570096"/>
</linearGradient>
<radialGradient id="paint2_radial_701_3948" cx="0" cy="0" r="1" gradientUnits="userSpaceOnUse" gradientTransform="translate(100.082 176.513) scale(65.4256 65.4256)">
<stop stop-color="#F0C63D"/>
<stop offset="0.16" stop-color="#EDB63A"/>
<stop offset="0.41" stop-color="#E8A336"/>
<stop offset="0.58" stop-color="#E79C35"/>
<stop offset="1" stop-color="#E1732B"/>
</radialGradient>
<linearGradient id="paint3_linear_701_3948" x1="79.1869" y1="221.123" x2="103.252" y2="167.413" gradientUnits="userSpaceOnUse">
<stop offset="0.01" stop-color="#FCB33F"/>
<stop offset="0.12" stop-color="#F4A640"/>
<stop offset="0.35" stop-color="#E08343"/>
<stop offset="0.65" stop-color="#BE4A48"/>
<stop offset="0.99" stop-color="#93004E"/>
</linearGradient>
<linearGradient id="paint4_linear_701_3948" x1="59.9101" y1="260.899" x2="85.4804" y2="205.978" gradientUnits="userSpaceOnUse">
<stop stop-color="#3D56FD"/>
<stop offset="1"/>
</linearGradient>
<linearGradient id="paint5_linear_701_3948" x1="180.883" y1="251.532" x2="161.396" y2="203.752" gradientUnits="userSpaceOnUse">
<stop stop-color="#25097F"/>
<stop offset="1" stop-color="#570096"/>
</linearGradient>
<radialGradient id="paint6_radial_701_3948" cx="0" cy="0" r="1" gradientUnits="userSpaceOnUse" gradientTransform="translate(163.595 198.518) scale(11.9985 11.9985)">
<stop stop-color="#F0C63D"/>
<stop offset="0.16" stop-color="#EDB63A"/>
<stop offset="0.41" stop-color="#E8A336"/>
<stop offset="0.58" stop-color="#E79C35"/>
<stop offset="1" stop-color="#E1732B"/>
</radialGradient>
<linearGradient id="paint7_linear_701_3948" x1="154.528" y1="233.268" x2="164.319" y2="194.67" gradientUnits="userSpaceOnUse">
<stop offset="0.01" stop-color="#FCB33F"/>
<stop offset="0.12" stop-color="#F4A640"/>
<stop offset="0.35" stop-color="#E08343"/>
<stop offset="0.65" stop-color="#BE4A48"/>
<stop offset="0.99" stop-color="#93004E"/>
</linearGradient>
<linearGradient id="paint8_linear_701_3948" x1="97.0714" y1="161.719" x2="98.7014" y2="191.047" gradientUnits="userSpaceOnUse">
<stop stop-color="#3F3A50"/>
<stop offset="1" stop-color="#2A2332"/>
</linearGradient>
<linearGradient id="paint9_linear_701_3948" x1="41.8784" y1="90.8942" x2="132.772" y2="90.8942" gradientUnits="userSpaceOnUse">
<stop stop-color="#D47540"/>
<stop offset="1" stop-color="#702A15"/>
</linearGradient>
<linearGradient id="paint10_linear_701_3948" x1="62.2306" y1="165.013" x2="86.2501" y2="165.013" gradientUnits="userSpaceOnUse">
<stop stop-color="#D47540"/>
<stop offset="1" stop-color="#702A15"/>
</linearGradient>
<linearGradient id="paint11_linear_701_3948" x1="22.2281" y1="102.983" x2="178.831" y2="102.983" gradientUnits="userSpaceOnUse">
<stop stop-color="#38172E"/>
<stop offset="1" stop-color="#541B1F"/>
</linearGradient>
<linearGradient id="paint12_linear_701_3948" x1="47.1759" y1="43.5455" x2="52.2129" y2="43.5455" gradientUnits="userSpaceOnUse">
<stop stop-color="#38172E"/>
<stop offset="1" stop-color="#541B1F"/>
</linearGradient>
<linearGradient id="paint13_linear_701_3948" x1="16.2062" y1="74.1529" x2="25.9861" y2="74.1529" gradientUnits="userSpaceOnUse">
<stop stop-color="#38172E"/>
<stop offset="1" stop-color="#541B1F"/>
</linearGradient>
<linearGradient id="paint14_linear_701_3948" x1="67.4714" y1="64.5542" x2="101.339" y2="64.5542" gradientUnits="userSpaceOnUse">
<stop stop-color="#81BF00"/>
<stop offset="1" stop-color="#599100"/>
</linearGradient>
<linearGradient id="paint15_linear_701_3948" x1="46.4967" y1="69.7497" x2="75.893" y2="69.7497" gradientUnits="userSpaceOnUse">
<stop stop-color="#81BF00"/>
<stop offset="1" stop-color="#599100"/>
</linearGradient>
<linearGradient id="paint16_linear_701_3948" x1="43.0783" y1="107.568" x2="82.1299" y2="107.568" gradientUnits="userSpaceOnUse">
<stop stop-color="#81BF00"/>
<stop offset="1" stop-color="#599100"/>
</linearGradient>
<linearGradient id="paint17_linear_701_3948" x1="77.6475" y1="138.956" x2="89.3403" y2="138.956" gradientUnits="userSpaceOnUse">
<stop stop-color="#81BF00"/>
<stop offset="1" stop-color="#599100"/>
</linearGradient>
<linearGradient id="paint18_linear_701_3948" x1="84.7673" y1="120.211" x2="119.902" y2="120.211" gradientUnits="userSpaceOnUse">
<stop stop-color="#81BF00"/>
<stop offset="1" stop-color="#599100"/>
</linearGradient>
<linearGradient id="paint19_linear_701_3948" x1="152.253" y1="156.84" x2="178.684" y2="156.84" gradientUnits="userSpaceOnUse">
<stop stop-color="#81BF00"/>
<stop offset="1" stop-color="#599100"/>
</linearGradient>
<linearGradient id="paint20_linear_701_3948" x1="43.0783" y1="54.4007" x2="87.6311" y2="54.4007" gradientUnits="userSpaceOnUse">
<stop stop-color="#38172E"/>
<stop offset="1" stop-color="#541B1F"/>
</linearGradient>
<linearGradient id="paint21_linear_701_3948" x1="44.6743" y1="91.6186" x2="57.6802" y2="91.6186" gradientUnits="userSpaceOnUse">
<stop stop-color="#81BF00"/>
<stop offset="1" stop-color="#599100"/>
</linearGradient>
<linearGradient id="paint22_linear_701_3948" x1="115.748" y1="169.586" x2="102.923" y2="148.464" gradientUnits="userSpaceOnUse">
<stop stop-color="#3F3750"/>
<stop offset="1" stop-color="#281E2F"/>
</linearGradient>
<linearGradient id="paint23_linear_701_3948" x1="125.494" y1="164.006" x2="108.708" y2="136.364" gradientUnits="userSpaceOnUse">
<stop stop-color="#38172E"/>
<stop offset="1" stop-color="#541B1F"/>
</linearGradient>
<linearGradient id="paint24_linear_701_3948" x1="54.4089" y1="98.5913" x2="66.9281" y2="98.5913" gradientUnits="userSpaceOnUse">
<stop stop-color="#81BF00"/>
<stop offset="1" stop-color="#599100"/>
</linearGradient>
<linearGradient id="paint25_linear_701_3948" x1="28.4311" y1="143.042" x2="90.7778" y2="143.042" gradientUnits="userSpaceOnUse">
<stop stop-color="#38172E"/>
<stop offset="1" stop-color="#541B1F"/>
</linearGradient>
<linearGradient id="paint26_linear_701_3948" x1="82.649" y1="164.721" x2="83.3674" y2="163.212" gradientUnits="userSpaceOnUse">
<stop stop-color="#81BF00"/>
<stop offset="1" stop-color="#599100"/>
</linearGradient>
<linearGradient id="paint27_linear_701_3948" x1="84.6573" y1="161.763" x2="85.8854" y2="159.184" gradientUnits="userSpaceOnUse">
<stop stop-color="#81BF00"/>
<stop offset="1" stop-color="#599100"/>
</linearGradient>
<linearGradient id="paint28_linear_701_3948" x1="81.4489" y1="173.829" x2="84.9633" y2="166.448" gradientUnits="userSpaceOnUse">
<stop stop-color="#81BF00"/>
<stop offset="1" stop-color="#599100"/>
</linearGradient>
<linearGradient id="paint29_linear_701_3948" x1="81.6234" y1="161.469" x2="83.4242" y2="157.687" gradientUnits="userSpaceOnUse">
<stop stop-color="#81BF00"/>
<stop offset="1" stop-color="#599100"/>
</linearGradient>
<linearGradient id="paint30_linear_701_3948" x1="88.0529" y1="160.104" x2="89.0043" y2="158.106" gradientUnits="userSpaceOnUse">
<stop stop-color="#81BF00"/>
<stop offset="1" stop-color="#599100"/>
</linearGradient>
<linearGradient id="paint31_linear_701_3948" x1="86.8589" y1="175.379" x2="88.616" y2="171.689" gradientUnits="userSpaceOnUse">
<stop stop-color="#81BF00"/>
<stop offset="1" stop-color="#599100"/>
</linearGradient>
<linearGradient id="paint32_linear_701_3948" x1="85.8262" y1="168.697" x2="89.0202" y2="161.99" gradientUnits="userSpaceOnUse">
<stop stop-color="#81BF00"/>
<stop offset="1" stop-color="#599100"/>
</linearGradient>
<linearGradient id="paint33_linear_701_3948" x1="88.9614" y1="162.062" x2="89.7429" y2="160.421" gradientUnits="userSpaceOnUse">
<stop stop-color="#81BF00"/>
<stop offset="1" stop-color="#599100"/>
</linearGradient>
<linearGradient id="paint34_linear_701_3948" x1="84.6124" y1="159.879" x2="85.2629" y2="158.513" gradientUnits="userSpaceOnUse">
<stop stop-color="#81BF00"/>
<stop offset="1" stop-color="#599100"/>
</linearGradient>
<linearGradient id="paint35_linear_701_3948" x1="85.793" y1="173.409" x2="87.39" y2="170.055" gradientUnits="userSpaceOnUse">
<stop stop-color="#81BF00"/>
<stop offset="1" stop-color="#599100"/>
</linearGradient>
<linearGradient id="paint36_linear_701_3948" x1="43.4168" y1="146.63" x2="45.4559" y2="146.298" gradientUnits="userSpaceOnUse">
<stop stop-color="#81BF00"/>
<stop offset="1" stop-color="#599100"/>
</linearGradient>
<linearGradient id="paint37_linear_701_3948" x1="48.1838" y1="146.17" x2="53.6624" y2="145.276" gradientUnits="userSpaceOnUse">
<stop stop-color="#81BF00"/>
<stop offset="1" stop-color="#599100"/>
</linearGradient>
<linearGradient id="paint38_linear_701_3948" x1="36.1206" y1="151.753" x2="43.3917" y2="150.568" gradientUnits="userSpaceOnUse">
<stop stop-color="#81BF00"/>
<stop offset="1" stop-color="#599100"/>
</linearGradient>
<linearGradient id="paint39_linear_701_3948" x1="45.78" y1="142.219" x2="52.771" y2="141.079" gradientUnits="userSpaceOnUse">
<stop stop-color="#81BF00"/>
<stop offset="1" stop-color="#599100"/>
</linearGradient>
<linearGradient id="paint40_linear_701_3948" x1="55.4699" y1="149.449" x2="61.8335" y2="148.411" gradientUnits="userSpaceOnUse">
<stop stop-color="#81BF00"/>
<stop offset="1" stop-color="#599100"/>
</linearGradient>
<linearGradient id="paint41_linear_701_3948" x1="36.8922" y1="159.377" x2="40.7462" y2="158.749" gradientUnits="userSpaceOnUse">
<stop stop-color="#81BF00"/>
<stop offset="1" stop-color="#599100"/>
</linearGradient>
<linearGradient id="paint42_linear_701_3948" x1="41.9852" y1="154.568" x2="53.3232" y2="152.719" gradientUnits="userSpaceOnUse">
<stop stop-color="#81BF00"/>
<stop offset="1" stop-color="#599100"/>
</linearGradient>
<linearGradient id="paint43_linear_701_3948" x1="53.4877" y1="153.446" x2="58.1596" y2="152.684" gradientUnits="userSpaceOnUse">
<stop stop-color="#81BF00"/>
<stop offset="1" stop-color="#599100"/>
</linearGradient>
<linearGradient id="paint44_linear_701_3948" x1="50.6431" y1="144.041" x2="53.7465" y2="143.535" gradientUnits="userSpaceOnUse">
<stop stop-color="#81BF00"/>
<stop offset="1" stop-color="#599100"/>
</linearGradient>
<linearGradient id="paint45_linear_701_3948" x1="38.1269" y1="156.933" x2="41.4319" y2="156.394" gradientUnits="userSpaceOnUse">
<stop stop-color="#81BF00"/>
<stop offset="1" stop-color="#599100"/>
</linearGradient>
<linearGradient id="paint46_linear_701_3948" x1="179.34" y1="156.741" x2="180.322" y2="157.311" gradientUnits="userSpaceOnUse">
<stop stop-color="#81BF00"/>
<stop offset="1" stop-color="#599100"/>
</linearGradient>
<linearGradient id="paint47_linear_701_3948" x1="180.09" y1="159.092" x2="181.122" y2="159.691" gradientUnits="userSpaceOnUse">
<stop stop-color="#81BF00"/>
<stop offset="1" stop-color="#599100"/>
</linearGradient>
<linearGradient id="paint48_linear_701_3948" x1="160.868" y1="144.536" x2="178.895" y2="154.996" gradientUnits="userSpaceOnUse">
<stop stop-color="#81BF00"/>
<stop offset="1" stop-color="#599100"/>
</linearGradient>
<linearGradient id="paint49_linear_701_3948" x1="181.874" y1="158.076" x2="183.063" y2="158.766" gradientUnits="userSpaceOnUse">
<stop stop-color="#81BF00"/>
<stop offset="1" stop-color="#599100"/>
</linearGradient>
<linearGradient id="paint50_linear_701_3948" x1="179.402" y1="160.934" x2="180.217" y2="161.407" gradientUnits="userSpaceOnUse">
<stop stop-color="#81BF00"/>
<stop offset="1" stop-color="#599100"/>
</linearGradient>
<linearGradient id="paint51_linear_701_3948" x1="152.743" y1="147.471" x2="166.634" y2="155.532" gradientUnits="userSpaceOnUse">
<stop stop-color="#81BF00"/>
<stop offset="1" stop-color="#599100"/>
</linearGradient>
<linearGradient id="paint52_linear_701_3948" x1="171.851" y1="156.386" x2="178.668" y2="160.343" gradientUnits="userSpaceOnUse">
<stop stop-color="#81BF00"/>
<stop offset="1" stop-color="#599100"/>
</linearGradient>
<linearGradient id="paint53_linear_701_3948" x1="177.84" y1="160.843" x2="178.626" y2="161.299" gradientUnits="userSpaceOnUse">
<stop stop-color="#81BF00"/>
<stop offset="1" stop-color="#599100"/>
</linearGradient>
<linearGradient id="paint54_linear_701_3948" x1="181.153" y1="159.569" x2="181.595" y2="159.825" gradientUnits="userSpaceOnUse">
<stop stop-color="#81BF00"/>
<stop offset="1" stop-color="#599100"/>
</linearGradient>
<linearGradient id="paint55_linear_701_3948" x1="163.997" y1="151.567" x2="170.619" y2="155.409" gradientUnits="userSpaceOnUse">
<stop stop-color="#81BF00"/>
<stop offset="1" stop-color="#599100"/>
</linearGradient>
<linearGradient id="paint56_linear_701_3948" x1="51.1376" y1="75.432" x2="88.1857" y2="75.432" gradientUnits="userSpaceOnUse">
<stop stop-color="#38172E"/>
<stop offset="1" stop-color="#541B1F"/>
</linearGradient>
<linearGradient id="paint57_linear_701_3948" x1="121.373" y1="170.349" x2="167.492" y2="167.019" gradientUnits="userSpaceOnUse">
<stop stop-color="#F16D73"/>
<stop offset="1" stop-color="#E3786E"/>
</linearGradient>
<linearGradient id="paint58_linear_701_3948" x1="185.414" y1="156.367" x2="183.446" y2="149.619" gradientUnits="userSpaceOnUse">
<stop stop-color="#F16D73"/>
<stop offset="1" stop-color="#E3786E"/>
</linearGradient>
<linearGradient id="paint59_linear_701_3948" x1="132.072" y1="161.625" x2="142.661" y2="164.35" gradientUnits="userSpaceOnUse">
<stop stop-color="#F5CEB3"/>
<stop offset="1" stop-color="#F7B0B8"/>
</linearGradient>
<linearGradient id="paint60_linear_701_3948" x1="121.129" y1="155.583" x2="119.485" y2="158.219" gradientUnits="userSpaceOnUse">
<stop stop-color="#F16D73"/>
<stop offset="1" stop-color="#E3786E"/>
</linearGradient>
<linearGradient id="paint61_linear_701_3948" x1="156.146" y1="151.262" x2="138.235" y2="180.112" gradientUnits="userSpaceOnUse">
<stop stop-color="#F16D73"/>
<stop offset="1" stop-color="#E3786E"/>
</linearGradient>
<linearGradient id="paint62_linear_701_3948" x1="144.431" y1="172.857" x2="145.552" y2="158.595" gradientUnits="userSpaceOnUse">
<stop offset="0.03" stop-color="#DE5634"/>
<stop offset="0.2" stop-color="#CF513E"/>
<stop offset="0.52" stop-color="#A84459"/>
<stop offset="0.97" stop-color="#6A2E84"/>
<stop offset="0.99" stop-color="#662D87"/>
</linearGradient>
<linearGradient id="paint63_linear_701_3948" x1="140.255" y1="123.867" x2="108.04" y2="144.967" gradientUnits="userSpaceOnUse">
<stop stop-color="white"/>
<stop offset="0.99" stop-color="#89FFFC"/>
</linearGradient>
<linearGradient id="paint64_linear_701_3948" x1="33.2841" y1="65.7143" x2="38.1316" y2="96.6345" gradientUnits="userSpaceOnUse">
<stop stop-color="white"/>
<stop offset="0.99" stop-color="#89FFFC"/>
</linearGradient>
<linearGradient id="paint65_linear_701_3948" x1="67.8902" y1="24.8007" x2="81.496" y2="24.8007" gradientUnits="userSpaceOnUse">
<stop stop-color="#38172E"/>
<stop offset="1" stop-color="#541B1F"/>
</linearGradient>
<linearGradient id="paint66_linear_701_3948" x1="35.3585" y1="35.2258" x2="44.2668" y2="35.2258" gradientUnits="userSpaceOnUse">
<stop stop-color="#38172E"/>
<stop offset="1" stop-color="#541B1F"/>
</linearGradient>
<linearGradient id="paint67_linear_701_3948" x1="85.7068" y1="47.6544" x2="92.0795" y2="47.6544" gradientUnits="userSpaceOnUse">
<stop stop-color="#38172E"/>
<stop offset="1" stop-color="#541B1F"/>
</linearGradient>
<linearGradient id="paint68_linear_701_3948" x1="115.065" y1="53.8871" x2="115.067" y2="54.5436" gradientUnits="userSpaceOnUse">
<stop stop-color="#FFC955"/>
<stop offset="0.99" stop-color="#89FFFC"/>
</linearGradient>
<linearGradient id="paint69_linear_701_3948" x1="33.3323" y1="100.757" x2="33.3323" y2="171.893" gradientUnits="userSpaceOnUse">
<stop stop-color="white"/>
<stop offset="0.99" stop-color="#89FFFC"/>
</linearGradient>
<linearGradient id="paint70_linear_701_3948" x1="131.788" y1="41.3835" x2="121.193" y2="145.521" gradientUnits="userSpaceOnUse">
<stop stop-color="white"/>
<stop offset="0.99" stop-color="#89FFFC"/>
</linearGradient>
<linearGradient id="paint71_linear_701_3948" x1="71.2634" y1="22.4237" x2="71.32" y2="47.0885" gradientUnits="userSpaceOnUse">
<stop stop-color="white"/>
<stop offset="0.99" stop-color="#89FFFC"/>
</linearGradient>
<linearGradient id="paint72_linear_701_3948" x1="113.049" y1="35.6644" x2="112.653" y2="60.6316" gradientUnits="userSpaceOnUse">
<stop stop-color="white"/>
<stop offset="0.99" stop-color="#89FFFC"/>
</linearGradient>
<linearGradient id="paint73_linear_701_3948" x1="27.5595" y1="82.2689" x2="3.59654" y2="82.2689" gradientUnits="userSpaceOnUse">
<stop stop-color="white"/>
<stop offset="0.99" stop-color="#89FFFC"/>
</linearGradient>
<linearGradient id="paint74_linear_701_3948" x1="104.406" y1="19.9108" x2="41.6634" y2="21.1673" gradientUnits="userSpaceOnUse">
<stop stop-color="#5C6B00"/>
<stop offset="0.23" stop-color="#606E00"/>
<stop offset="0.44" stop-color="#6B7600"/>
<stop offset="0.64" stop-color="#7E8401"/>
<stop offset="0.84" stop-color="#989702"/>
<stop offset="0.91" stop-color="#A29F02"/>
</linearGradient>
<linearGradient id="paint75_linear_701_3948" x1="45.7383" y1="9.03298" x2="49.5076" y2="46.6923" gradientUnits="userSpaceOnUse">
<stop offset="0.01" stop-color="#FCB33F"/>
<stop offset="0.12" stop-color="#F4A640"/>
<stop offset="0.35" stop-color="#E08343"/>
<stop offset="0.65" stop-color="#BE4A48"/>
<stop offset="0.99" stop-color="#93004E"/>
</linearGradient>
<radialGradient id="paint76_radial_701_3948" cx="0" cy="0" r="1" gradientUnits="userSpaceOnUse" gradientTransform="translate(137.757 163.645) rotate(11.0564) scale(30.6841 23.7062)">
<stop offset="0.02" stop-color="#351761"/>
<stop offset="1" stop-color="#000E1B"/>
</radialGradient>
<radialGradient id="paint77_radial_701_3948" cx="0" cy="0" r="1" gradientUnits="userSpaceOnUse" gradientTransform="translate(102.126 114.868) rotate(17.057) scale(73.3414 70.5283)">
<stop offset="0.02" stop-color="#351761"/>
<stop offset="1" stop-color="#000E1B"/>
</radialGradient>
<radialGradient id="paint78_radial_701_3948" cx="0" cy="0" r="1" gradientUnits="userSpaceOnUse" gradientTransform="translate(102.522 116.77) rotate(-1.14) scale(33.1203 33.1203)">
<stop offset="0.01" stop-color="#8E37E2"/>
<stop offset="0.04" stop-color="#8333D0"/>
<stop offset="0.13" stop-color="#6427A0"/>
<stop offset="0.23" stop-color="#491C75"/>
<stop offset="0.33" stop-color="#331451"/>
<stop offset="0.44" stop-color="#200C33"/>
<stop offset="0.55" stop-color="#12071D"/>
<stop offset="0.68" stop-color="#08030C"/>
<stop offset="0.81" stop-color="#020103"/>
<stop offset="1"/>
</radialGradient>
<radialGradient id="paint79_radial_701_3948" cx="0" cy="0" r="1" gradientUnits="userSpaceOnUse" gradientTransform="translate(113.157 156.783) rotate(-1.14) scale(23.431 23.431)">
<stop offset="0.01" stop-color="#8E37E2"/>
<stop offset="0.04" stop-color="#8333D0"/>
<stop offset="0.13" stop-color="#6427A0"/>
<stop offset="0.23" stop-color="#491C75"/>
<stop offset="0.33" stop-color="#331451"/>
<stop offset="0.44" stop-color="#200C33"/>
<stop offset="0.55" stop-color="#12071D"/>
<stop offset="0.68" stop-color="#08030C"/>
<stop offset="0.81" stop-color="#020103"/>
<stop offset="1"/>
</radialGradient>
<radialGradient id="paint80_radial_701_3948" cx="0" cy="0" r="1" gradientUnits="userSpaceOnUse" gradientTransform="translate(110.711 151.679) scale(18.6316 18.6316)">
<stop offset="0.01" stop-color="#8E37E2"/>
<stop offset="0.04" stop-color="#8333D0"/>
<stop offset="0.13" stop-color="#6427A0"/>
<stop offset="0.23" stop-color="#491C75"/>
<stop offset="0.33" stop-color="#331451"/>
<stop offset="0.44" stop-color="#200C33"/>
<stop offset="0.55" stop-color="#12071D"/>
<stop offset="0.68" stop-color="#08030C"/>
<stop offset="0.81" stop-color="#020103"/>
<stop offset="1"/>
</radialGradient>
<radialGradient id="paint81_radial_701_3948" cx="0" cy="0" r="1" gradientUnits="userSpaceOnUse" gradientTransform="translate(134.142 146.698) scale(20.9294 20.9294)">
<stop offset="0.01" stop-color="#8E37E2"/>
<stop offset="0.04" stop-color="#8333D0"/>
<stop offset="0.13" stop-color="#6427A0"/>
<stop offset="0.23" stop-color="#491C75"/>
<stop offset="0.33" stop-color="#331451"/>
<stop offset="0.44" stop-color="#200C33"/>
<stop offset="0.55" stop-color="#12071D"/>
<stop offset="0.68" stop-color="#08030C"/>
<stop offset="0.81" stop-color="#020103"/>
<stop offset="1"/>
</radialGradient>
<radialGradient id="paint82_radial_701_3948" cx="0" cy="0" r="1" gradientUnits="userSpaceOnUse" gradientTransform="translate(138.987 152.924) scale(19.2428 19.2428)">
<stop offset="0.01" stop-color="#8E37E2"/>
<stop offset="0.04" stop-color="#8333D0"/>
<stop offset="0.13" stop-color="#6427A0"/>
<stop offset="0.23" stop-color="#491C75"/>
<stop offset="0.33" stop-color="#331451"/>
<stop offset="0.44" stop-color="#200C33"/>
<stop offset="0.55" stop-color="#12071D"/>
<stop offset="0.68" stop-color="#08030C"/>
<stop offset="0.81" stop-color="#020103"/>
<stop offset="1"/>
</radialGradient>
<linearGradient id="paint83_linear_701_3948" x1="93.2794" y1="115.129" x2="92.2833" y2="126.822" gradientUnits="userSpaceOnUse">
<stop stop-color="#27A0D7"/>
<stop offset="1" stop-color="#4F0069"/>
</linearGradient>
<linearGradient id="paint84_linear_701_3948" x1="49.4058" y1="155.086" x2="48.0814" y2="159.319" gradientUnits="userSpaceOnUse">
<stop stop-color="#F5CEB3"/>
<stop offset="1" stop-color="#F7B0B8"/>
</linearGradient>
<linearGradient id="paint85_linear_701_3948" x1="32.6985" y1="161.606" x2="49.0888" y2="161.606" gradientUnits="userSpaceOnUse">
<stop stop-color="#F16D73"/>
<stop offset="1" stop-color="#E3786E"/>
</linearGradient>
<linearGradient id="paint86_linear_701_3948" x1="41.0182" y1="156.807" x2="39.7391" y2="160.87" gradientUnits="userSpaceOnUse">
<stop stop-color="#F5CEB3"/>
<stop offset="1" stop-color="#F7B0B8"/>
</linearGradient>
<linearGradient id="paint87_linear_701_3948" x1="26.1559" y1="162.545" x2="38.777" y2="162.545" gradientUnits="userSpaceOnUse">
<stop stop-color="#F16D73"/>
<stop offset="1" stop-color="#E3786E"/>
</linearGradient>
<linearGradient id="paint88_linear_701_3948" x1="33.9323" y1="158.527" x2="32.6985" y2="162.466" gradientUnits="userSpaceOnUse">
<stop stop-color="#F5CEB3"/>
<stop offset="1" stop-color="#F7B0B8"/>
</linearGradient>
<linearGradient id="paint89_linear_701_3948" x1="21.6508" y1="171.805" x2="40.2937" y2="171.805" gradientUnits="userSpaceOnUse">
<stop stop-color="#F5CEB3"/>
<stop offset="1" stop-color="#F7B0B8"/>
</linearGradient>
<linearGradient id="paint90_linear_701_3948" x1="21.6508" y1="171.839" x2="39.558" y2="171.839" gradientUnits="userSpaceOnUse">
<stop stop-color="#F16D73"/>
<stop offset="1" stop-color="#E3786E"/>
</linearGradient>
<linearGradient id="paint91_linear_701_3948" x1="153.306" y1="40.7722" x2="127.781" y2="25.0158" gradientUnits="userSpaceOnUse">
<stop stop-color="#5C6B00"/>
<stop offset="0.23" stop-color="#606E00"/>
<stop offset="0.44" stop-color="#6B7600"/>
<stop offset="0.64" stop-color="#7E8401"/>
<stop offset="0.84" stop-color="#989702"/>
<stop offset="0.91" stop-color="#A29F02"/>
</linearGradient>
<linearGradient id="paint92_linear_701_3948" x1="116.393" y1="34.0826" x2="149.729" y2="34.0826" gradientUnits="userSpaceOnUse">
<stop offset="0.01" stop-color="#FCB33F"/>
<stop offset="0.12" stop-color="#F4A640"/>
<stop offset="0.35" stop-color="#E08343"/>
<stop offset="0.65" stop-color="#BE4A48"/>
<stop offset="0.99" stop-color="#93004E"/>
</linearGradient>
</defs>
</svg>
