<svg width="250" height="267" viewBox="0 0 250 267" fill="none" xmlns="http://www.w3.org/2000/svg"><path style="mix-blend-mode:screen" opacity=".3" d="M125 267c68.866 0 124.693-55.827 124.693-124.694 0-68.866-55.827-124.693-124.693-124.693S.307 73.44.307 142.306C.307 211.173 56.134 267 125 267Z" fill="url(#a)"/><path fill-rule="evenodd" clip-rule="evenodd" d="m76.666 240.15 12.995 4.811 11.421-5.094 1.585-16.967 26.498-.023-7.799 26.159 5.026 2.604 5.977-4.472 3.43-10.028 3.441 2.275 6.293-2.309 11.535-25.265-87.974-6.452 7.573 34.761Z" fill="url(#b)"/><path fill-rule="evenodd" clip-rule="evenodd" d="m89.661 244.961-12.995-4.811-7.572-34.761 16.605.158 3.962 39.414ZM121.366 249.036l4.449 2.298 15.032-40.806-8.512-.498-3.17 12.847-7.799 26.159ZM139.24 239.415l-3.441-2.276 8.172-26.079 6.667.339-11.398 28.016Z" fill="#B83D64" style="mix-blend-mode:multiply" opacity=".5"/><path fill-rule="evenodd" clip-rule="evenodd" d="m75.003 232.532 13.855 4.426 12.451.532 1.358-14.59 26.499-.023-4.732 15.892 4.879 2.57 7.244-6.645 1.268-4.029 3.169 4.437 7.811-5.162 8.263-18.099-87.85-5.615 5.785 26.306Z" fill="#B83D64" style="mix-blend-mode:multiply" opacity=".8"/><path fill-rule="evenodd" clip-rule="evenodd" d="m44.7 179.807 3.793 22.661L62.2 214.671l17.67 11.919 15.473-1.166 1.744 5.569 10.923 6.429 29.385-7.346 11.477-8.467 8.15-3.316.555 15.315 10.912 3.203 11.693-17.511 7.991-10.312 8.863.08 22.775-24.292-19.934-11.036-153.806 2.309-1.37 3.758Z" fill="url(#c)"/><path fill-rule="evenodd" clip-rule="evenodd" d="m219.811 184.776-22.775 24.292-8.863-.08 10.618-22.174-13.946-7.256-27.268 54.05-.555-15.315-2.49 1.019 15.168-29.408-15.338-2.377-5.49 34.082-11.477 8.467-29.385 7.347 1.007-1.959 4.007-12.575 10.052-32.894-36.131 2.082 45.107-15.666-45.107 15.666 8.387 33.347-15.462 1.166-17.67-11.919-13.707-12.202 29.396 13.153-4.935-27.257-10.403-12.463 134.915.634 22.345 8.24Z" fill="#7D2154" style="mix-blend-mode:multiply" opacity=".7"/><path fill-rule="evenodd" clip-rule="evenodd" d="m79.87 226.59-6.916-38.225s32.996-10.799 33.46-11.059c.464-.261 37.116-5.422 37.116-5.422l-.657 6.791-55.928 13.402 8.444 33.347-15.52 1.166Z" fill="#B83D64" style="mix-blend-mode:multiply" opacity=".8"/><path fill-rule="evenodd" clip-rule="evenodd" d="m157.022 218.293 22.763-33.766-23.261-6.848 13.176 12.225-15.168 29.408 2.49-1.019Z" fill="#7D2154" style="mix-blend-mode:multiply" opacity=".46"/><path fill-rule="evenodd" clip-rule="evenodd" d="m137.395 230.076 9.531-43.523 7.504-1.912-5.558 36.968-11.477 8.467Z" fill="#B83D64" style="mix-blend-mode:multiply" opacity=".5"/><path fill-rule="evenodd" clip-rule="evenodd" d="m45.652 184.641 28.049 7.844 19.265 23.533-5.342-21.213 32.633 4.426 25.027-5.173 6.26 9.814 13.345-4.641-6.101 11.829 17.138-20.805.294 6.407 19.967-4.415-3.735 7.81 19.639-7.051 7.72-8.23-16.979-11.296H72.954L44.7 179.807l.95 4.834Z" fill="#7D2154" style="mix-blend-mode:multiply" opacity=".5"/><path d="M86.945 192.077c31.354 3.453 67.417-4.527 67.417-4.527l15.338 2.377-.747-3.034-8.739-6.622s25.344 6.498 38.577 6.566l.849-8.105s10.753 2.966 20.714 6.644l3.113-10.346s-10.29-3.09-11.659-4.222c-3.113-2.58-34.988-7.425-34.988-7.425l-27.291-3.271s-56.178 1.347-67.724 4.018c-11.545 2.671-37.229 5.433-40.466 6.395l1.845 9.282s24.903 6.95 29.758 8.558c0 0 37.49-11.059 56.597-11.727l-41.383 11.976-1.212 3.463Z" fill="url(#d)"/><path d="m223.467 175.008-24.348-1.257.758 7.222 20.477 4.381 3.113-10.346ZM198.791 186.769l.486-4.619s-4.822 0-14.715-.724a149.246 149.246 0 0 1-25.129-3.792l.77 2.569 19.141 4.902 2.717.294s10.821 1.8 16.73 1.37ZM169.7 189.904l-.747-3.034-12.27-1.516-40.603 2.263-27.924 1.042-1.212 3.464s28.299 5.105 34.094 4.584c11.421-1.008 24.903-5.524 24.903-5.524l7.799-.962 15.96-.317ZM41.35 170.525s19.402 9.35 32.204 11.546c0 0 15.994-1.483 30.562-3.52 14.568-2.038 26.702-3.102 26.702-3.102l-1.268 1.132a350.987 350.987 0 0 0-56.494 12.259l-29.86-9.055-1.846-9.26Z" fill="#0E0EAA" style="mix-blend-mode:multiply" opacity=".33"/><path style="mix-blend-mode:overlay" opacity=".4" d="m220.354 185.354 3.113-10.346s-10.29-3.09-11.659-4.222c-3.113-2.581-34.988-7.426-34.988-7.426l-27.291-3.271s-56.178 1.37-67.724 4.041c-11.545 2.671-37.229 5.433-40.466 6.395l1.845 9.282 1.585.476 3.712 22.185 13.188 11.739.52.464 10.425 7.029 2.377 10.833 1.664 7.617 12.995 4.811 11.398-5.094.227-2.377.351-3.803 6.35 3.736 16.424-4.109 1.755-.431-4.732 16.142 5.015 2.603 5.976-4.471 3.396-10.029 3.396 2.264 6.293-2.264 7.924-17.364 1.075-.43.328-.136 2.162-.882.555 15.315 10.912 3.203 11.693-17.511 7.991-10.312 8.863.079 10.006-10.674 12.452-13.232.894.17Z" fill="url(#e)"/><path style="mix-blend-mode:screen" opacity=".6" d="m220.354 185.354 3.113-10.346s-10.29-3.09-11.659-4.222c-3.113-2.581-34.988-7.426-34.988-7.426l-27.291-3.271s-56.178 1.37-67.724 4.041c-11.545 2.671-37.229 5.433-40.466 6.395l1.845 9.282 1.585.476 3.712 22.185 13.188 11.739.52.464 10.425 7.029 2.377 10.833 1.664 7.617 12.995 4.811 11.398-5.094.227-2.377.351-3.803 6.35 3.736 16.424-4.109 1.755-.431-4.732 16.142 5.015 2.603 5.976-4.471 3.396-10.029 3.396 2.264 6.293-2.264 7.924-17.364 1.075-.43.328-.136 2.162-.882.555 15.315 10.912 3.203 11.693-17.511 7.991-10.312 8.863.079 10.006-10.674 12.452-13.232.894.17Z" fill="url(#f)"/><path fill-rule="evenodd" clip-rule="evenodd" d="m180.283 199.876-3.044 9.497 3.158 13.47 5.75 5.784 13.775-9.293 12.169-22.197-22.639-.475-9.169 3.214Z" fill="url(#g)"/><path fill-rule="evenodd" clip-rule="evenodd" d="m196.278 200.114-2.604 7.335-16.435 1.924 3.158 13.47 5.75 5.784 13.775-9.293 12.169-22.197-15.813 2.977Z" fill="#7D2154" style="mix-blend-mode:multiply" opacity=".7"/><path fill-rule="evenodd" clip-rule="evenodd" d="m195.915 202.231-16.56-2.366.43-2.117 22.549-2.943 10.13.645-.373 1.687-16.176 5.094Z" fill="url(#h)"/><path fill-rule="evenodd" clip-rule="evenodd" d="m195.915 202.231-2.241 5.218-7.527 21.178 13.776-9.293 12.168-22.197-16.176 5.094Z" fill="#7D2154" style="mix-blend-mode:multiply" opacity=".7"/><path style="mix-blend-mode:overlay" opacity=".4" fill-rule="evenodd" clip-rule="evenodd" d="m212.464 195.45-10.131-.645-22.548 2.943-.43 2.117.928.011-3.044 9.497 3.158 13.47 5.75 5.784 13.775-9.293 6.079-11.104 6.09-11.093.373-1.687Z" fill="url(#i)"/><path style="mix-blend-mode:multiply" opacity=".5" d="m182.547 164.266-29.26-4.177-64.226 3-29.611 4.754c-28.978 15.122 45.662 3.554 45.662 3.554l-5.297 8.161a92.497 92.497 0 0 1 28.558-9.055c5.66-.781 17.896-.645 31.072-.091-8.365 10.414-20.375 14.783-18.689 14.625 10.81-.951 23.579-12.055 26.035-14.274 8.138.43 16.254.974 23.091 1.528-8.252 6.86-15.53 7.131-11.319 7.403 5.66.351 15.032-5.66 16.979-6.916 2.558.238 4.799.464 6.656.679 1.2.147 4.98-3.769 4.98-3.769a176.906 176.906 0 0 1-24.631-5.422Z" fill="url(#j)"/><path d="M96.43 85.336c1.223-13.741 17.93-20.522 36.414-21.948 19.775-1.517 30.313-4.109 32.034-8.014a51.496 51.496 0 0 1 5.999-10.074s-11.398 11.647-16.13 11.851c-17.647.77-32.735 2.705-49.171 7.369s-14.24 18.858-14.24 18.858l5.094 1.958ZM186.147 164.877c6.429-4.041 8.206-1.743 4.743-6.792-3.464-5.048-5.954-8.659-14.07-6.203-8.116 2.457-13.9 10.55-13.9 10.55l1.958.475s8.806-9.564 15.439-8.455c11.195 1.811 5.83 10.425 5.83 10.425Z" fill="#FFA4DA"/><path d="M211.004 170.401s-14.647-2.264-22.763-4.822a41.193 41.193 0 0 1-2.094-.702s8.308-5.784-5.162-11.681c-3.395-1.472-17.25 9.055-20.148 10.413 0 0-14.523-1.584-21.507-1.381-16.322.487-16.073 4.845-16.073 4.845-9.327 1.426-21.858-.94-28.887-2.592-3.283-.77-5.377-1.392-5.377-1.392s2.966-2.921-4.742-3.985c-13.584-1.879-16.13 7.312-16.572 7.652a9.051 9.051 0 0 1-5.84 1.426 13.125 13.125 0 0 1-2.457-.339c11.478-20.545 16.334-22.548 34.026-35.69 10.787-7.924-1.517-19.809-9.056-26.17l-1.55-1.291a36.323 36.323 0 0 0-10.312-5.24c-1.042-.453-7.37-2.185-11.399-.759-3.486 1.223-7.923-5.071-6.135-8.127 1.845-2.581 3.283-5.218 3.237-8.127a3.962 3.962 0 0 0-2.943-3.69 8.397 8.397 0 0 0-1.21-.385c-.34-.083-.691-.151-1.053-.204a14.792 14.792 0 0 0-1.551-.181c-5.762-.317-15.01-1.132-18.247-5.083-.272-.328 3.305-1.845 3.396-1.38.34 2.15-1.234 2.716 3.837 4.38 13.357 4.38 22.14-9.972 22.14-9.972L64 66.58c-11.081 9.124 2.773 8.569-3.531 20.952-1.347 2.638 3.192 4.901 7.697 5.66 3.543.622 7.063.328 7.697-1.415.543-1.505.373-10.912 4.392-16.119 1.709-2.264 3.486-4.527 5.388-6.588a69.752 69.752 0 0 1 6.1-6.021c5.66-4.856 2.265-11.195-3.055-13.934a42.778 42.778 0 0 0-13.29-3.838c-.09-3.226-1.799-5.66-3.927-7.799-2.128-2.14-3.837-3.147-5.66-5.275a.702.702 0 0 0 .725-.396c.419 1.619 2.694 2.083 4.528 2.604 6.791 1.709 10.889-6.43 15.247-9.95 0-.113 2.037.736 2.614.68a107.044 107.044 0 0 0-12.066 9.157c-1.415 1.267-2.841 2.535-2.547 4.108a5.751 5.751 0 0 0 5.23 4.607 125.14 125.14 0 0 1 20.884 5.185c5.15 2.003 10.764 0 12.689-4.528a8.906 8.906 0 0 0 0-11.206 12.35 12.35 0 0 0-5.558-4.166 80.84 80.84 0 0 1-7.754-3.146c-7.086-3.396-12.542-7.641-14.387-13.448a20.935 20.935 0 0 1 2.468-.385 6.249 6.249 0 0 0 2.332 6.316 24.765 24.765 0 0 0 20.058 6.735c2.524-.362 1.675-2.75.305-3.78.736 0 1.743-.498 2.06 0a32.23 32.23 0 0 1 2.423 4.177 41.025 41.025 0 0 1 1.698 3.973c.826 2.886 1.652 5.852 2.727 8.829 1.076 2.977.476 12.519 4.913 11.953 2.536-1.245 4.528-3.249 3.634-5.071 0 0 2.637-.86 2.343-.374-.861 1.359-2.796 4.007-4.313 5.932-.396.475-.781.928-1.132 1.358l-.419.464a36.975 36.975 0 0 1-3.701 3.543c1.415 3.735 26.215 4.132 33.335.25a10.41 10.41 0 0 0 4.358-4.959c.272-3.395 1.653-14.715 1.653-14.715l2.864-.306c-1.495 2.864-3.736 4.72-3.645 13.969.203 2.377 1.132 3.87 2.422 3.282 3.396-1.619 6.927-8.467 6.927-8.467 3.713-1.041 3.894-.328 3.894-.328a6.057 6.057 0 0 0-.611.419c-1.211.962-3.928 3.61-7.425 10.187-2.411 4.494-22.503 8.682-38.079 8.343-11.025-.215-21.699 6.791-26.713 10.651a28.594 28.594 0 0 0-3.871 8.863c-.227 1.064-.544 2.196.51 2.773 5.659 2.49 11.692 3.94 17.929 5.445 4.976 1.1 9.889 2.471 14.715 4.109a22.483 22.483 0 0 1 8.399 4.72c5.478 5.263 5.66 13.923 17.828 34.977 13.458-4.709 31.456 1.132 43.806 13.062 2.512 2.264 5.501 7.561 7.923 12.451 2.751 5.773 4.675 11.048 3.973 10.301Z" fill="url(#k)"/><path fill-rule="evenodd" clip-rule="evenodd" d="M116.08 167.39s-9.519-2.377-9.383 15.847l-12.146 3.532a23.22 23.22 0 0 0 1.347-5.66c.33-2.454.489-4.927.476-7.403 0-5.784-1.97-5.263-.68-10.187 1.495-5.66 7.675-18.892 8.92-19.73 7.188-4.697 19.175 20.194 11.466 23.601Z" fill="url(#l)"/><path d="M160.837 163.609s-18.213-1.618-24.269-1.222c-12.983.837-13.3 4.686-13.3 4.686s3.962-18.926 1.132-28.208c-3.283-10.504-5.999-22.174-5.999-22.174l-1.257-6.407.725.634c5.15 8.761 30.279 23.159 35.927 33.437 1.155 2.196 7.041 19.254 7.041 19.254Z" fill="#4C0C0C"/><path style="mix-blend-mode:multiply" opacity=".42" d="M199.108 147.604c-16.979-7.279-30.155-7.392-30.155-7.392s18.96 4.754 24.902 12.225c0 0-22.185-5.558-27.596-7.72-5.411-2.162-10.98-10.187-10.98-10.187-9.35-16.119-11.625-24.97-14.636-30.562a14.112 14.112 0 0 0-6.791-6.973c-4.822-2.083-19.503-6.192-19.503-6.192-6.237-1.505-12.327-2.954-17.93-5.444-1.053-.577-.736-1.71-.51-2.773a28.592 28.592 0 0 1 3.872-8.863c5.014-3.86 15.688-10.867 26.713-10.652 15.587.317 35.679-3.871 37.942-8.252 3.498-6.621 6.215-9.27 7.426-10.187a35.454 35.454 0 0 0-8.342 9.305c-.985 1.528-36.324 11.85-26.352 4.754 0 0-65.912 15.054-16.413-3.249l3.6-3.509h.102l.418-.464c.385-.43.77-.883 1.132-1.358 1.517-1.925 3.453-4.528 4.313-5.932.294-.486-2.343.374-2.343.374.906 1.822-1.132 3.826-3.634 5.07-4.437.567-3.803-8.907-4.912-11.952s-1.902-5.943-2.728-8.83a58.668 58.668 0 0 0-.781-1.969 12.3 12.3 0 0 1-.917-2.003l-2.366-4.268c.125.294 7.641 18.405 4.234 26.736-1.879 4.528-8.875 9.791-11.772 11.082 2.264-4.686-2.921-9.644-2.921-9.644a99.41 99.41 0 0 0-16.096-4.449l-1.55-.294c5.342 1.189 13.583 3.51 17.476 7.165 4.947 4.584-11.443 15.508-12.338 16.096a20.262 20.262 0 0 0-8.625 7.335S69.65 89.23 90.861 90.894c0 0 16.322-1.392 13.187.724l4.426-.362c14.817 1.415 28.638 11.625 11.512 13.108-10.561.906-44.633-12.52-29.125-3.396-6.09-2.796-11.32-5.207-15.01-9.168-.633 1.743-4.154 2.037-7.697 1.415-6.384 3.791-10.583 0-10.583 0a19.073 19.073 0 0 0 1.822-11.07c-.713-5.57-1.8-3.136-4.131-3.397a3.962 3.962 0 0 1 2.943 3.69c0 2.91-1.392 5.547-3.237 8.128-1.812 3.056 2.648 9.35 6.134 8.127 4.03-1.426 10.358.306 11.4.758a35.434 35.434 0 0 1 4.527 1.812s2.954 1.131 9.055 6.203a54.099 54.099 0 0 1 10.674 13.085l.306.792a23.122 23.122 0 0 1 6.531 12.225S99 137.96 87.443 144.57c-15.938 9.056-17.817 10.652-17.817 10.652l4.777-1.472a52.068 52.068 0 0 0-13.244 14.342c4.528.192 6.531-1.381 6.531-1.381s2.332-8.048 13.108-7.924c11.976.159 8.207 4.234 8.207 4.234l6.384 1.698s3.237-11.059 8.184-19.153a5.9 5.9 0 0 1 2.965-2.264c-.939-7.821-5.173-26.623-5.173-26.623s9.701 5.026 11.761 12.305c2.06 7.278 7.788 27.03 7.788 27.03a24.218 24.218 0 0 0-7.788-8.093c-9.135 10.934-9.327 25.072-9.327 25.072-.94-4.664-2.615-5.886-2.615-5.886.374 6.429-1.777 18.281-1.777 18.281l7.301-2.14a36.64 36.64 0 0 1 1.132-9.497 9.142 9.142 0 0 1 4.381-5.818 4.508 4.508 0 0 1 1.38-.509c3.215.176 6.44.059 9.633-.351 0 0 5.66-13.696 1.223-27.619a278.36 278.36 0 0 1-7.403-29.17h.147c.206.182.399.379.577.589l29.827 51.853c8.41.453 13.198.838 13.198.838 2.898-1.347 16.787-11.885 20.148-10.414 13.47 5.898 5.162 11.682 5.162 11.682 7.324 2.739 24.902 5.524 24.902 5.524 1.291 1.426-6.429-17.783-11.907-22.752Z" fill="url(#m)"/><path style="mix-blend-mode:multiply" opacity=".59" d="M84.534 44.032a132.064 132.064 0 0 0-4.992-1.019l4.992 1.02Z" fill="url(#n)"/><path d="M85.87 97.47c9.258-5.172 20.94-6.655 28.535-5.218 7.595 1.438 5.298 2.083 5.298 2.083a42.529 42.529 0 0 1-20.307 2.853c-11.365-1.223-13.527.283-13.527.283ZM90 87.555c1.325 8.885-12.948-3.079-12.948-3.079.179-2.239.778-4.424 1.765-6.44 0 0 3.883-3.397 6.17-1.62C88.358 78.976 90 87.556 90 87.556Z" fill="#FDAD45" style="mix-blend-mode:soft-light" opacity=".5"/><path style="mix-blend-mode:multiply" opacity=".58" d="M48.527 76.417c8.399 0 10.436-1.54 9.61-3.034l-.827-1.494a18.776 18.776 0 0 1-5.886 3.633l-2.897.895Z" fill="url(#o)"/><path style="mix-blend-mode:multiply" opacity=".24" d="M120.778 55.397C109.968 60.389 99.792 73.7 99.792 73.7s9.723-8.535 19.582-9.87c9.859-1.336 14.285-.929 14.285-.929s-9.361-.77-11.059-2.637c-1.698-1.868 2.264-2.841 2.264-2.841s-1.234-.464-2.739-.86c-1.506-.397-1.347-1.166-1.347-1.166Z" fill="url(#p)"/><path style="mix-blend-mode:multiply" opacity=".24" d="M107.987 61.51c-15.292 2.863-27.743 14.17-27.743 14.17l-1.427 2.355s3.679-2.592 17.85-10.12c14.173-7.527 11.32-6.406 11.32-6.406Z" fill="url(#q)"/><path style="mix-blend-mode:multiply" opacity=".24" d="M75.399 92.456c10.074 16.164 39.051 30.211 39.051 30.211s-9.055-14.534-17.816-18.303-21.235-11.908-21.235-11.908Z" fill="url(#r)"/><path d="m160.837 163.609 2.083-1.222s-6.577-11.07-9.441-22.175c-.509-1.981-14.511-14.477-14.511-14.477l-13.278-8.727-7.923-6.09s.883 2.683 7.923 8.897c7.041 6.214 18.462 15.632 18.462 15.632l16.685 28.162Z" fill="#3B1919"/><path style="mix-blend-mode:multiply" opacity=".24" d="M109.968 121.92c10.267 8.377 10.968 34.06 10.968 34.06s2.264-19.367-1.132-25.604a19.605 19.605 0 0 0-9.836-8.456Z" fill="url(#s)"/><path d="M99.282 130.376c-7.73 3.169-22.412 13.277-25.366 18.111 0 0 14.885-5.66 24.246-13.085a4.281 4.281 0 0 0 1.12-5.026ZM120.144 96.112c-5.354.86-21.937 2.977-24.597 3.136a46.266 46.266 0 0 0 14.715 2.784c14.795 0 16.368-3 16.368-3s-2.547-3.554-6.486-2.92Z" fill="#FDAD45" style="mix-blend-mode:soft-light" opacity=".5"/><path style="mix-blend-mode:multiply" opacity=".5" d="M117.088 107.533c19.854 3.045 22.435 3.668 35.09 25.299 0 0-4.958-6.712-15.406-13.798a166.743 166.743 0 0 0-19.684-11.501Z" fill="url(#t)"/><path style="mix-blend-mode:multiply" opacity=".5" d="M184.574 143.268c16.571 9.543 26.43 27.167 26.43 27.167l-10.436-1.879s-.759-9.78-4.653-14.964c-3.893-5.185-11.341-10.324-11.341-10.324Z" fill="url(#u)"/><path style="mix-blend-mode:multiply" opacity=".59" d="M75.399 45.277c7.595-.883 3.396-2.264 3.396-2.264s13.65 2.264 23.363 5.852c0 0 12.145 3.17 17.296-10.187.181-.475 1.935 7.369-2.751 13.176-4.822 5.965-32.045 18.326-32.045 18.326s12.632-7.177 16.39-16.617c.895-2.264-.079-2.332-10.798-6.226a44.009 44.009 0 0 0-14.851-2.06Z" fill="url(#v)"/><path d="M112.605 127.523c3.249 8.671 4.528 22.741 4.528 22.741s-5.252-2.026-8.24-14.002a150.84 150.84 0 0 0-5.66-18.564s7.335 4.358 9.372 9.825Z" fill="#FDAD45" style="mix-blend-mode:soft-light" opacity=".5"/><path style="mix-blend-mode:multiply" opacity=".24" d="M77.051 88.947c1.223 6.35 5.275 7.493 6.486 7.493 1.212 0 10.188-4.346 4.675-5.184-8.93-1.358-11.681-7.754-11.16-2.309Z" fill="url(#w)"/><path d="M106.153 144.717c6.396 2.955-7.833 22.084-8.953 21.337-1.12-.747 4.98-23.182 8.953-21.337Z" fill="#FDAD45" style="mix-blend-mode:soft-light" opacity=".5"/><path style="mix-blend-mode:multiply" opacity=".5" d="M153.038 139.454a93.527 93.527 0 0 0-13.323-9.803 35.249 35.249 0 0 1 4.437 5.796c1.845 3.101 15.044 25.57 15.044 25.57l1.641 2.592c-37.116-4.075-37.569 3.464-37.569 3.464s3.294-17.421.747-28.378-4.788-17.182-5.908-23.249c-.6-3.204-.872-5.117-.872-5.117s10.04 7.595 17.896 12.893c8.444 5.682 17.907 16.232 17.907 16.232Z" fill="url(#x)"/><path style="mix-blend-mode:multiply" opacity=".34" d="M179.593 153.105c-14.308-3.713-23.714-17.579-26.815-23.046-3.102-5.467-12.112-26.114-12.112-26.114 3.543 6.973-48.888-1.913-48.888-1.913s34.06 31.932 16.062 13.199c-11.614-12.056 9.44-4.902 9.44-4.902 34.128 11.591 44.757 38.203 44.757 38.203s6.905 7.448.928 13.855a75.591 75.591 0 0 1 8.648-5.547c5.795-3.429 7.98-3.735 7.98-3.735Z" fill="url(#y)"/><path style="mix-blend-mode:multiply" opacity=".24" d="M99.249 98.002c-11.161-1.901-12.961-.735-12.452 0 .51.736 3.057 2.796 5.513 2.049 2.456-.747 6.939-2.049 6.939-2.049Z" fill="url(#z)"/><path style="mix-blend-mode:multiply" opacity=".59" d="M115.763 147.887c-5.297-4.653-5.795-9.78-9.112-19.628-2.49-7.38-5.206-11.206-5.059-10.312 1.992 11.999-.815 23.771-1.03 23.907a94.284 94.284 0 0 0-3.962 2.66c-5.852 3.871-13.787 8.863-18.541 10.832-8.58 3.543-11.942 7.833-16.98 12.791h-.407c2.399.397 4.86-.077 6.94-1.336 0 0 .554-3.282 5.263-6.282 5.24-3.328 13.334-3.554 20.046-7.29.874-.474 1.7-1.032 2.468-1.664a49.748 49.748 0 0 0 10.413-7.923c3.498-3.396 9.95 7.109 11.025 10.912 2.604 9.248-12.451 13.357 4.856 12.734 3.204-.158.872-13.436-5.92-19.401Z" fill="url(#A)"/><path style="mix-blend-mode:screen" d="M117.235 110.329c13.877-20.793 65.097-35.09 82.971-23.544 13.9 8.988-55.182 43.093-39.369 76.824 0 0-33.652-4.527-37.512 3.396 0 0 2.162-15.236 1.562-21.812-.838-9.361-4.109-17.613-5.524-23.692a176.975 176.975 0 0 1-2.128-11.172Z" fill="url(#B)"/><g style="mix-blend-mode:multiply" opacity=".5"><path d="M98.784 166.179c.363.554 1.427-1.268.895-1.381a.887.887 0 0 0-.92.385.882.882 0 0 0 .025.996Z" fill="url(#C)"/><path d="M100.38 162.998c1.132.962 2.66-1.539 2.151-2.094-.509-.555-2.864 1.494-2.151 2.094Z" fill="url(#D)"/><path d="M100.426 168.16c-.147-1.596-1.97-.363-1.675.758.057.295.194.569.396.792a2.264 2.264 0 0 0 0 1.732c-.759.249-1.257 1.721-1.132 3.113.419 3.283 2.999-.158 2.513-2.049.781-.871 1.018-4.211.271-4.086a2.52 2.52 0 0 0-.452.124c.037-.125.064-.254.079-.384Z" fill="url(#E)"/><path d="M98.479 162.194c1.132-1.132 2.354-4.358.51-2.139-1.846 2.219-2.004 3.724-.51 2.139Z" fill="url(#F)"/><path d="M104.501 161.504c.849-.589.837-2.932.215-1.54-.623 1.393-.702 1.902-.215 1.54Z" fill="url(#G)"/><path d="M102.859 175.506a.958.958 0 0 0-.396.837c0 .657.623.114.793-.35l.237.147c-.249.894.136 1.686.872.453.521-.883.215-1.393-.181-1.314.055-.45.142-.897.26-1.335.645-2.309-1.709.373-1.585 1.562Z" fill="url(#H)"/><path d="M104.172 163.157c-1.313.464-3.576 4.663-1.879 4.799 0 4.313 1.744 2.683 2.423 1.132a4.94 4.94 0 0 0 .441-1.902c.532-.543 1.132-2.264.793-2.15-.426.28-.767.671-.985 1.131a1.593 1.593 0 0 0-.408-.554c.419-1.359.351-2.717-.385-2.456Z" fill="url(#I)"/><path d="M105.259 163.485c.804-.464.849-2.14.442-1.404-.408.736-.94 1.698-.442 1.404Z" fill="url(#J)"/><path d="M100.754 161.323c.306.419 1.324-1.393.849-1.2-.475.192-1.257.668-.849 1.2Z" fill="url(#K)"/><path d="M101.637 174.781c1.007.408 3-3.033 2.128-3.09-.872-.056-2.513 2.932-2.128 3.09Z" fill="url(#L)"/></g><g style="mix-blend-mode:multiply" opacity=".5"><path d="M76.248 147.366c-.272.826 2.264.442 1.992-.26a1.049 1.049 0 0 0-1.092-.602 1.052 1.052 0 0 0-.9.862Z" fill="url(#M)"/><path d="M80.855 146.132c0 2.332 5.512 1.777 5.66.385.147-1.392-5.649-1.788-5.66-.385Z" fill="url(#N)"/><path d="M75.467 150.705c1.415-1.437-.85-2.422-1.608-1.29a2.455 2.455 0 0 0-.43.985 2.064 2.064 0 0 0-1.29 1.2c-.498-.634-1.642-.227-2.457.769-1.765 2.174 1.132 3.26 2.264 1.551 1.053.43 4.177-1.596 3.543-2.468a2.904 2.904 0 0 0-.396-.441c.133-.092.258-.194.374-.306Z" fill="url(#O)"/><path d="M79.972 143.348c2.501-.193 9.055-2.943 3.079-1.857-4.268.77-5.773 2.06-3.08 1.857Z" fill="url(#P)"/><path d="M88.835 150.366c2.966.905 8.75-2.389 3.645-1.574-4.132.623-5.162 1.11-3.645 1.574Z" fill="url(#Q)"/><path d="M70.679 158.595a.489.489 0 0 0-.55-.223.474.474 0 0 0-.186.098c-.43.408.136.94.532.94v.441c-.736.068-1.132 1.008 0 1.562.917.442 1.2-.317.95-.939.402-.144.82-.231 1.246-.261 2.57-.192-1.189-2.411-1.992-1.618Z" fill="url(#R)"/><path d="M85.337 151.679c-2.535-1.653-9.44-.974-8.365 1.358-4.04 2.932-1.471 4.596.804 4.675a5.236 5.236 0 0 0 2.852-.6c1.415.657 5.219.543 4.37-.181a7.097 7.097 0 0 0-3.215-.985c.197-.385.298-.812.294-1.245 2.638-.498 4.89-2.015 3.26-3.022Z" fill="url(#S)"/><path d="M86.503 153.999c2.377 1.223 6.101-.577 3.566-.611-2.264-.034-4.868-.068-3.566.611Z" fill="url(#T)"/><path d="M83.424 144.751c-.192.815 3.985-.068 2.943-.43-1.041-.362-2.694-.566-2.943.43Z" fill="url(#U)"/><path d="M70.735 156.535c.09 1.584 4.075 2.75 3.566 1.256-.51-1.494-3.611-1.822-3.566-1.256Z" fill="url(#V)"/></g><g style="mix-blend-mode:multiply" opacity=".5"><path d="M200.477 153.807c-.634-.102 0 1.415.362 1.132.363-.283.566-.996-.362-1.132Z" fill="url(#W)"/><path d="M201.485 156.025c-1.132.215-.555 1.642 0 1.562.554-.079.69-1.698 0-1.562Z" fill="url(#X)"/><path d="M197.84 153.648c1.449.815 1.664-1.132.441-1.698a3.008 3.008 0 0 0-1.132-.351 4.948 4.948 0 0 0-2.264-1.663c.272-1.008-1.765-3.657-5.093-6.192-14.614-11.093-2.558 4.199 2.116 6.316.861 1.653 4.947 4.301 5.321 3.735.078-.119.139-.248.181-.384.138.087.282.166.43.237Z" fill="url(#Y)"/><path d="M202.922 155.403c0 .905.566 2.264.611.939.046-1.596-.543-2.343-.611-.939Z" fill="url(#Z)"/><path d="M200.217 158.266c-.091.465 1.019.861.668.397-.351-.464-.623-.668-.668-.397Z" fill="url(#aa)"/><path d="M182.106 148.283a7.637 7.637 0 0 0-2.966-2.264c-3.282-1.585-1.132.679.747 1.89h-.86c-4.064-2.388-9.304-3.939-2.864.351 3.396 2.264 5.49 2.604 5.569 2.004 1.132.554 2.434 1.2 3.815 1.969 4.494 2.57.306-2.331-3.441-3.95Z" fill="url(#ab)"/><path d="M199.436 157.746c.396-.747-1.393-3.769-2.638-2.773-5.772-3.102-4.403-.34-2.728 1.007a6.52 6.52 0 0 0 1.778 1.053c.192.475 1.324 1.29 1.414 1.064.091-.227-.135-.521-.418-.838.229.029.461.029.69 0 .77.566 1.698.872 1.902.487Z" fill="url(#ac)"/><path d="M198.677 158.153c-.09.464.883.804.657.498-.226-.305-.589-.803-.657-.498Z" fill="url(#ad)"/><path d="M202.118 156.716c-.339 0 0 .917.125.679.124-.238.317-.691-.125-.679Z" fill="url(#ae)"/><path d="M185.66 147.943c-2.264.578 4.528 6.418 5.252 5.739.725-.679-4.448-5.942-5.252-5.739Z" fill="url(#af)"/></g><path d="M116.08 167.39s-9.519-2.377-9.383 15.847l-12.146 3.532a23.23 23.23 0 0 0 1.347-5.66c1.641-8.376 2.026-11.58 3.498-8.75a15.3 15.3 0 0 1 1.256 6.712s2.434-6.225 3.147-3.916a37.5 37.5 0 0 1 1.075 5.105s.442-8.093 3.023-12.032c2.58-3.94 3.667-1.585 3.667-1.585s1.879-12.723 2.875-9.837c.996 2.887 1.641 10.584 1.641 10.584ZM94.97 160.089l-.589 4.392c-3.282-.77-5.376-1.392-5.376-1.392s2.965-2.921-4.743-3.985c-13.583-1.879-16.13 7.312-16.572 7.652a9.051 9.051 0 0 1-5.84 1.426c3.022-6.146 6.791-12.1 6.27-8.919-.667 4.176 5.807-2.853 5.807-2.853s3.136-2.513 4.177-3.147c1.041-.633 0 3.396 0 3.566 0 .17 3.792-1.879 3.973-1.483.181.396 3.566 1.494 3.566 1.494s2.162.679 2.558.283c.396-.396 4.245-5.988 4.8-3.939.554 2.049-2.095 6.905-2.095 6.905h4.064ZM211.004 170.401s-14.647-2.264-22.763-4.822c1.947-5.071 1.743-9.678 2.649-7.539a13.708 13.708 0 0 0 3.079 4.347s-4.528-14.455-3.011-14.047c1.516.407 3.712 3.701 3.712 3.701s1.913-1.902 3.113 1.132c1.438 3.565 2.887 8.376 2.988 8.704 0-1.833.091-11.647 1.495-8.58a62.755 62.755 0 0 1 3.078 9.803l1.642-2.977c2.796 5.75 4.72 11.025 4.018 10.278Z" fill="#CF6" style="mix-blend-mode:soft-light" opacity=".55"/><path style="mix-blend-mode:multiply" opacity=".59" d="M96.645 87.25c4.358 2.863-11.625 4.221-13.074-3.238-1.449-7.46 11.818-15.677 22.005-19.492 10.187-3.814 14.987-3.203 14.987-3.203s-16.221 5.467-21.948 12.836c-5.728 7.369-5.06 11.059-1.97 13.096Z" fill="url(#ag)"/><path d="m200.172 171.816-1.778-8.275s-2.886 2.751-10.81 3.69c-7.21.849-26.747-1.245-26.747-1.245-3.622-.317-6.407-.475-6.407-.475a2.991 2.991 0 0 1-.238 1.041l-.701.6s6.655.77 8.874.962c9.452.793 31.388 1.891 37.807 3.702Z" fill="url(#ah)"/><path style="mix-blend-mode:multiply" opacity=".5" fill-rule="evenodd" clip-rule="evenodd" d="M194.399 170.922a9.334 9.334 0 0 0 1.132-5.66l2.626-1.223.068 7.29-3.826-.407Z" fill="url(#ai)"/><path fill-rule="evenodd" clip-rule="evenodd" d="M150.672 160.859a2.382 2.382 0 0 1 .521-1.834c1.788-2.388 4.72.634 20.318 3.396 11.761 2.083 19.696 1.901 23.703 1.505l1.188-.136c1.268-.169 1.868-.317 1.868-.317s3.622-3.192 5.739-2.082c.996.509.634 1.992 0 3.395a21.65 21.65 0 0 1-1.924 3.226 15.633 15.633 0 0 0 .124 3.17c.238 2.92-3.101 2.094-5.399-.555a5.642 5.642 0 0 1-1.245-1.777s-1.664-1.426-15.666-3.848a72.043 72.043 0 0 0-17.772-1.132c-4.822.916-8.24 7.923-9.712 5.15-1.392-2.637.431-4.075.51-4.698.034-.418-1.992-1.777-2.253-3.463Z" fill="url(#aj)"/><path style="mix-blend-mode:multiply" opacity=".5" fill-rule="evenodd" clip-rule="evenodd" d="M152.902 164.356c.623-.758 1.845-2.501 1.845-2.501a5.423 5.423 0 0 1-4.075-.996c.261 1.686 2.287 3.045 2.23 3.497Z" fill="url(#ak)"/><path fill-rule="evenodd" clip-rule="evenodd" d="M162.093 163.904a72.42 72.42 0 0 1 17.783 1.132c14.002 2.433 15.666 3.859 15.666 3.859a2.256 2.256 0 0 1-.464-2.094 11.028 11.028 0 0 1 4.38-2.603c3.77-1.404 4.528-.6 4.528.622.657-1.426 1.019-2.909 0-3.395-2.117-1.132-5.739 2.082-5.739 2.082-1.006.23-2.027.385-3.056.465.951 2.116-1.449 2.886-8.399 1.663-6.542-1.131-25.265-3.599-26.985-3.543-.317 0 .124 1.449-2.094 3.951-1.494 1.675-4.652 3.916-5.343 3.067 1.494 2.751 4.913-4.29 9.723-5.206Z" fill="url(#al)"/><path style="mix-blend-mode:multiply" opacity=".26" fill-rule="evenodd" clip-rule="evenodd" d="M203.986 164.809c.657-1.426 1.019-2.909 0-3.396-2.117-1.132-5.739 2.083-5.739 2.083a20.88 20.88 0 0 1-3.056.464c-4.007.396-11.942.577-23.703-1.505-15.598-2.751-18.529-5.773-20.318-3.396a2.364 2.364 0 0 0-.52 1.834 5.813 5.813 0 0 0 1.663 2.694c.34.362.589.645.566.803-.079.623-1.901 2.06-.509 4.698.042.079.092.155.147.226.815 1.132 2.128-.17 3.871-1.788 2.072.226 4.687.52 5.932.622 7.516.634 22.876 1.449 32.113 2.66a.511.511 0 0 0-.057.102l2.932.34c2.264 2.184 5.082 2.694 4.856 0a15.634 15.634 0 0 1-.125-3.17 21.624 21.624 0 0 0 1.947-3.271Zm-43.172 1.132-2.445-.204c.249-.192.51-.385.781-.566l.147-.102.102-.056.102-.068a7.466 7.466 0 0 1 2.547-1.053 60.266 60.266 0 0 1 9.972.125 83.54 83.54 0 0 1 7.811.996c4.029.69 7.029 1.302 9.27 1.822l.385.091c-.622.113-1.279.204-1.969.294-7.166.86-26.703-1.234-26.703-1.234v-.045Z" fill="url(#am)"/><path style="mix-blend-mode:screen" opacity=".3" d="m163.814 161.866-.159-.17a89.893 89.893 0 0 1-2.648-2.796c-.974-1.075-2.038-2.263-3.068-3.633a40.356 40.356 0 0 1-4.143-6.271 24.11 24.11 0 0 1-1.041-2.264 40.034 40.034 0 0 1-1.573-5.886c-.227-1.132-.419-2.264-.612-3.396 0-.249-.079-.486-.113-.735a.845.845 0 0 1 0-.159 159.276 159.276 0 0 1-.781-5.818l-.102-.951a82.942 82.942 0 0 1-.181-1.732 152.394 152.394 0 0 1-.475-5.659v-.363l-.725-1.516v.339a20.902 20.902 0 0 1-.509 4.403 5.659 5.659 0 0 1-.781 1.845 2.058 2.058 0 0 1-.442.442 1.45 1.45 0 0 1-1.664-.068 5.145 5.145 0 0 1-1.777-2.932 11.867 11.867 0 0 1-.294-1.132 40.086 40.086 0 0 1-.883-6.169c-.272-3.667-.215-6.882-.215-6.882l-.555.634s0 2.355-.079 5.331c0 1.732-.158 3.668-.328 5.468 0 .271-.057.532-.079.792a24.113 24.113 0 0 1-.702 3.928l-.057.192c-.385 1.211-.894 1.879-1.55 1.574-3.023-1.381-3-4.981-3-4.981l-.102-.068-.634-.43-.238-.158c0 .135-.101 1.007-.305 2.479 0 .181 0 .373-.079.577-.08.204-.091.656-.148 1.019a178.68 178.68 0 0 1-1.55 9.055.11.11 0 0 1 0 .057c-.159.792-.317 1.618-.498 2.467-.37 1.781-.793 3.645-1.268 5.592 0 .249-.113.487-.181.736a190.04 190.04 0 0 1-1.042 4.018c-1.132 4.007-2.399 8.184-3.939 12.316-.068.169-.136.35-.192.52-.396 1.03-.804 2.06-1.223 3.079l-.101.238a42.097 42.097 0 0 1-.997 2.264l.668-.08h.057l3.747-8.41a4.16 4.16 0 0 1 1.245-1.732c.441-.192.611 1.483.634 3.905V163.598c0 2.264-.17 4.777-.295 6.893a152.912 152.912 0 0 1-.181 2.989v.543c0 .306 0 .577-.056.792 0 .408-.295 2.264-.295 2.264l.611-.204a26.59 26.59 0 0 1 .759-5.897 24.287 24.287 0 0 1 4.245-8.172l.124-.17a11.192 11.192 0 0 1 1.675-1.675l.566-.431c.365-.25.743-.48 1.132-.69a10.671 10.671 0 0 1 2.536-.928 5.233 5.233 0 0 1 2.479.339c.781.227 1.743.566 2.965.996l.646.227.554.204c1.675.599 3.77 1.335 6.373 2.263l.441.148.306.101a283.63 283.63 0 0 0 6.509 2.095 19.137 19.137 0 0 1-3.147-1.88h-.068l-.113-.079a19.242 19.242 0 0 1-3.045-2.603 8.12 8.12 0 0 1-.408-.498 4.154 4.154 0 0 1-.52-.827c-.544-1.131 5.105-.498 5.105-.498s-8.252-7.572-2.513-3.69l.577.396.136.091.679.487c.668.475 1.324.973 1.947 1.46.996.77 1.924 1.539 2.762 2.264a82.882 82.882 0 0 1 2.015 1.788l.09.08.159.147 1.132 1.03-1.2-1.087Zm-12.1-14.477c.055.317.074.64.056.962a.156.156 0 0 1 0 .068c-.136 1.562-1.573 1.641-4.743.509-2.264-.804-1.358-4.12.136-5.886.265-.337.587-.624.951-.849.894-.532 1.811-.362 2.377 1.132.531 1.295.94 2.636 1.223 4.007v.057Zm-2.264-6.237c-1.404 0-2.015-.962-1.619-2.694.396-1.732 3.022 2.615 1.607 2.637l.012.057Zm-19.515 11.987c1.132.249.351 2.581-.939 1.686-1.291-.894-.227-2.014.928-1.743l.011.057Zm5.965 1.132a3.265 3.265 0 0 1-2.949.37 3.275 3.275 0 0 1-2.031-2.17 6.65 6.65 0 0 1-.238-2.694c.03-.346.079-.69.147-1.03.453-2.354.906-4.528 1.393-6.463l.068-.295c.315-1.272.72-2.52 1.211-3.735.86-2.004 1.867-2.988 3.135-2.422.28.132.539.303.77.509 2.173 1.879 2.422 6.056 2.332 8.693a22.242 22.242 0 0 1-.17 2.321c0 .419-.079.815-.147 1.132-.068.317-.068.396-.113.577a7.485 7.485 0 0 1-3.419 5.15l.011.057Z" fill="url(#an)"/><path style="mix-blend-mode:soft-light" opacity=".74" d="M65.619 92.479c4.448.985 6.192 3.396 6.339 3.543a3.102 3.102 0 0 1 1.132-4.528c3.395-2.049 10.798-.86 10.798-.86l.85-.351c-15.146-.974-18.281-6.396-21.508-23.873l-.407-.237v.203c-.781 11.127-7.244 10.98-9.7 10.392a4.087 4.087 0 0 1-1.042-.374c.333.326.684.632 1.053.917h.079l.136.102c2.422 1.822 4.448 1.924 7.73 8.614a39.517 39.517 0 0 1 3.068 11.885c-.022-.69-.09-5.784 1.46-5.433h.012ZM61.6 74.3c1.132-2.932 5.66 5.23 4.527 5.909-1.132.679-5.309-3.871-4.527-5.909Zm8.568 18.416c.838.827.397 1.132-.373.906-.77-.226-.442-1.675.373-.906Zm3.136-3.203c1.618 1.664-1.359 1.641-2.74 2.264-1.38.623-3.622-3.905-3.395-4.675.226-.77 5.23 1.483 6.135 2.411ZM56.325 77.56c2.197.158 6.589 3.645 7.573 6.554.985 2.909.057 4.313-2.694.679-2.75-3.634-6.508-7.358-4.833-7.233h-.045Zm5.015 7.924c.08-.374 1.687 1.448 2.185 2.761.373.985-.498 1.064-.781 1.132-.283.068-1.438-3.543-1.313-3.916l-.09.023Zm2.162 6.96c-.792-4.527 1.03-3.995.985-2.139-.045 1.857-.26 5.592-.566 4.743-.216-.86-.341-1.74-.373-2.626l-.046.023Z" fill="url(#ao)"/><path style="mix-blend-mode:multiply" opacity=".59" d="M100.211 23.51c11.908 6.339 14.794 2.932 13.209.928l-1.584-2.003s1.132 1.687-2.751 2.083a22.749 22.749 0 0 1-8.874-1.008Z" fill="url(#ap)"/><path style="mix-blend-mode:multiply" opacity=".59" d="M67.679 33.166c3.192 3.056 5.003 5.037 6.203 3.7 1.2-1.335 2.671-3.202 2.671-3.202a6.045 6.045 0 0 1-3.6 1.03 15.96 15.96 0 0 1-5.274-1.529Z" fill="url(#aq)"/><path style="mix-blend-mode:multiply" opacity=".59" d="M124.4 49.533c-9.701 5.264-5.728-.203-4.675-2.196a6.339 6.339 0 0 0 .736-3.792s.407 4.256 1.698 5.117c.66.477 1.432.777 2.241.871Z" fill="url(#ar)"/><path style="mix-blend-mode:screen" opacity=".16" d="M147.458 54.56a28.877 28.877 0 0 1-.148-.669s.068.25.148.668Z" fill="url(#as)"/><path style="mix-blend-mode:soft-light" opacity=".74" d="M45.29 169.79c.09-.125.26-.351.509-.714l-.51.714ZM90 101.296s-1.131 1.664-3.01 3.815c-.487.577-1.019 1.2-1.585 1.822-2.932 3.238-6.791 6.792-9.995 7.46-6.112 1.279-8.965-16.141-8.965-16.141h-.396c-5.75 46.465-17.194 66.161-20.126 70.575 2.015-2.886 4.935-7.04 16.492-18.563 4.528-4.528 4.811-.34 4.132 5.92-.113 1.052-.192 1.686-.192 1.686l.622-.215 1.959-4.709c5.342-12.824 8.5-20.374 11.885-30.03a154.963 154.963 0 0 1 6.044-14.715c.385-.826.759-1.596 1.132-2.264a186.762 186.762 0 0 1 2.264-4.459l-.26-.182Zm-26.645 22.911c-.192-5.388 3.237-2.626 2.988-1.54-.633 2.74-2.931 3.204-2.988 1.54Zm2.796 11.387c-1.132 3.543-2.785.328-1.302-4.177s2.422.645 1.302 4.177Zm-1.03-17.364c-.25-1.63-.555-5.931 1.245-12.666 1.211-4.528 2.592 4.709 3.249 10.957.69 6.576-4.245 3.35-4.494 1.709Zm4.63 27.631c-.193 2.263-1.721 4.063-1.642 1.301.113-5.274 1.834-3.611 1.641-1.301Zm.871-3.396c-2.049 1.279-2.728-11.478-2.92-14.274-.193-2.796 6.18-8.58 10.572-13.866 2.479-2.988 3.973-3.667 5.139-2.151 1.166 1.517-10.73 29.023-12.791 30.302v-.011Z" fill="url(#at)"/><path fill-rule="evenodd" clip-rule="evenodd" d="m179.785 197.748 16.13 1.472s16.549-3.962 16.549-3.781c0 .181-.373 1.687-.373 1.687l-16.176 6.621-16.56-3.859.43-2.14Z" fill="#0E0EAA" style="mix-blend-mode:multiply" opacity=".33"/><path style="mix-blend-mode:soft-light" opacity=".74" d="M156.275 79.314c-10.663-.86-17.669-16.118-19.005-19.57-.124-.318-.668-.114-.588.214.747 3.102.701 9.328-3.838 8.671-3.554-.51-11.76-4.528-12.813-6.384 0 0 34.965 26.702 37.354 75.013l.667.736s-3.395-17.681.125-20.296c1.845-1.369 11.229 17.738 11.444 18.394-.068-.283 1.924-1.822 2.852-1.562a2.41 2.41 0 0 1 1.868 1.46 2.96 2.96 0 0 1-.26-.815c-.963-13.447 1.131-16.73 5.252-6.293.951 2.411 3.758 13.424 3.758 13.424.631.325 1.233.704 1.799 1.132 0 0-.837-2.784-1.765-6.203-1.562-5.761-.34-6.474 1.426-4.844 2.569 2.399 10.187 18.167 10.346 18.427-18.688-45.447-34.683-109.57-34.683-109.57s.589 38.44-3.939 38.066Zm-.305 7.471c-7.324 4.901-24.473-20.239-13.957-14.273 8.263 4.686 17.432 11.941 13.957 14.273Zm17.171 30.936c1.313 4.335.872 16.549-2.332 15.847-2.728-.634-7.652-14.84-8.331-18.541-1.166-6.362 9.327-1.766 10.663 2.694Zm9.689 9.949c-7.923-11.998-24.902-35.27-25.366-40.647-.487-5.66 3.079-18.224 4.527-20.148 3.17-4.313 28.74 72.749 20.839 60.773v.022Zm-18.892-64.169c-1.731-6.157-.362-7.233 1.778 0 2.116 7.018-.736 3.68-1.778 0Z" fill="url(#au)"/><path style="mix-blend-mode:soft-light" opacity=".74" d="M112.254 31.49a24.736 24.736 0 0 1-3.565 6.996 7.278 7.278 0 0 1-2.637 1.132c-2.264.509-5.875-3.804-7.052-5.31a37.447 37.447 0 0 1-3.181-11.432l-.883-.294A72.711 72.711 0 0 0 98.615 33.8l1.222 4.018c.566 6.418.872 11.251 1.132 8.569.204-2.163.317-6.577.623-7.324.113.136.215.272.328.396.453 1.822 0 4.686.294 2.988a5.904 5.904 0 0 1 .544-2.094c2.162 2.026 4.108 1.698 5.489-.068.17.125.306.487.363 1.29.237 2.865 0 6.95.441 5.57.362-1.132.396-6.882.396-8.739a27.144 27.144 0 0 0 2.807-6.916Z" fill="url(#av)"/><path style="mix-blend-mode:soft-light" opacity=".74" d="M161.403 35.962h-.962s-5.999 12.575-19.141 13.967c-.668.08-1.302.125-1.902.159-3.984 1.132-5.659.272-5.739.249-3.848-1.573-3.758-5.897-3.758-5.897l-.713.407c.396 3.09 4.222 5.852 4.222 5.852l.204.589c-.328 9.225-.249 10.187.532 6.384.555-2.694.94-5.603 1.268-6.452h.351c.407 1.607.86 1.471 1.132.532.049-.182.13-.355.237-.51h.397c-.018 1.032.02 2.063.113 3.09.305 4.325.283-2.388.656-3.123l1.132-.136c.577.192 1.245.498 1.709.6.895.17 1.891 1.313 2.389.192.256-.649.468-1.314.634-1.992h.09c.351 7.493-.509 11.59-.158 10.799.351-.793 1.075-10.131 1.064-11.195 6.701-2.513 13.481-7.777 16.243-13.515Z" fill="url(#aw)"/><path style="mix-blend-mode:soft-light" opacity=".74" d="M59.733 83.208s-.08.193-.204.442c-.272.543-.713 1.392-.894 1.415-.181.022.668-1.936.668-1.936h-.159c-.4.698-.839 1.375-1.313 2.026-1.958 2.705-4.052 4.2-5.66 4.075-2.184-.17-3.61-2.173-6.44-12.214l-.555.42c.068.146 3.271 8.376.962 8.025-2.06-.317-6.146-6.894-7.674-9.463-.374-.623-.589-1.008-.589-1.008l-1.913-.486.396.667c1.495 2.502 6.996 11.32 11.954 13.923a6.791 6.791 0 0 0 8.297-1.007c.269-.228.526-.47.77-.725a15.146 15.146 0 0 0 2.207-3.395l.35-.713-.203-.046Zm-10.753 5.66c-1.393-.385-3.894-2.48-3.396-2.547.498-.068 1.449-.758 2.071 0 1.11 1.426 2.615 2.886 1.325 2.524v.023Zm9.395-3.113a3.623 3.623 0 0 1-1.404 1.585 1.279 1.279 0 0 1-.385.17c-.35.079-.385 0 .09-.623.26-.32.551-.613.872-.872.487-.441.996-.701.827-.283v.023Z" fill="url(#ax)"/><path d="M120.563 22.639c-.317 2.264-3.928 4.935-3.928 4.935l1.472 6.044s-.702 2.728-1.585 2.977c-3.747 1.132-10.584 3.045-14.715 2.525v.362c0 .407-.136 1.019-.623 1.132h-.068c-3.622.803-16.232.815-18.54-.351a55.92 55.92 0 0 1-7.302-5.377s-1.901 2.332-2.83 2.547c-8.15 1.845-28.898-8.5-31.909-10.029a6.091 6.091 0 0 1-1.335-.928c-4.596-4.245 11.726-13.38 15.44-13.595 4.051-.215 12.45 9.577 12.586 9.724-1.132-2.581-1.743-6.271.747-6.61 3.094.024 6.18.308 9.226.848.984.351 10.062 5.773 10.062 5.773l1.065-1.29-6.215-7.018C81.228 9.418 105.09.068 110.896 0c5.807-.068 10.006 20.035 9.667 22.639Z" fill="url(#ay)"/><g style="mix-blend-mode:multiply" opacity=".61"><path d="M101.207 40.625v-.102c-.079.226-.159.226 0 .102Z" fill="#606060" style="mix-blend-mode:multiply" opacity=".5"/><path d="m116.635 27.529 1.472 6.044c0-.17-4.789-5.66-7.03-5.818-24.348-1.132-29.068 5.41-29.068 5.41.6 2.751 19.809 5.92 19.809 5.92v.363c0 .407-.136 1.019-.623 1.132h-.067c-3.623.803-16.232.815-18.541-.351a55.924 55.924 0 0 1-7.301-5.377s-1.902 2.332-2.83 2.547c-8.15 1.845-28.898-8.5-31.91-10.029a6.087 6.087 0 0 1-1.335-.928c11.93 3.248 25.887 6.973 27.529 7.018 2.546.068 2.41-8.739 2.41-8.739a26.701 26.701 0 0 0 9.701 4.438c3.102.815-1.664-12.372-1.664-12.372a751.554 751.554 0 0 1 10.074 5.852l1.065-1.29-6.215-7.019 11.093 10.108s14.376 1.438 27.359-1.822c-.272 2.286-3.928 4.913-3.928 4.913Z" fill="#606060" style="mix-blend-mode:multiply" opacity=".5"/></g><path style="mix-blend-mode:overlay" opacity=".4" d="M110.896 0c-5.807.068-29.668 9.418-28.785 14.308l6.215 7.018-1.065 1.313s-9.055-5.422-10.062-5.773a55.361 55.361 0 0 0-9.226-.85c-2.49.34-1.856 4.03-.747 6.611-.136-.17-8.535-9.96-12.587-9.746-3.713.216-20.035 9.35-15.417 13.584.402.367.851.68 1.336.928 3.01 1.528 23.77 11.874 31.91 10.029.927-.215 2.829-2.547 2.829-2.547a55.915 55.915 0 0 0 7.3 5.377c2.265 1.131 14.92 1.131 18.542.35 0 .091 0 .102 0 0 .487-.158.6-.77.622-1.131v-.363c4.132.52 10.969-1.426 14.716-2.524.882-.249 1.584-2.977 1.584-2.977l-1.471-6.044s3.701-2.66 3.973-4.924c.339-2.604-3.883-22.707-9.667-22.639Z" fill="url(#az)"/><path d="M178.212 167.82c-2.728-8.659-6.509-16.979-8.093-18.722-1.585-1.743-5.92-1.709-16.47-10.855-7.244-7.743-12.926-16.334-14.273-16.64-1.347-.305-16.357 12.791-16.357 12.791l1.698 9.293c.634 0 9.972-8.772 13.73-9.429a47.132 47.132 0 0 0 4.426 5.094c6.09 6.373 10.391 10.301 13.81 10.301 2.082 0 7.923 3.26 7.923 3.26-.079 2.66 6.486 9.825 9.214 14.715 1.902 3.395 3.102 8.58 3.668 11.534a.487.487 0 0 0 .95 0 23.767 23.767 0 0 0-.226-11.342Z" fill="url(#aA)"/><path d="M147.016 168.737c-.113-6.486-.226-11.704-.917-14.444-.69-2.739-4.992-10.345-6.486-22.061-.611-4.743-4.935-20.85-6.339-21.812-1.403-.962-13.345 13.3-13.345 13.3l3.056 10.821c.374-.407 4.856-8.036 6.509-10.968 0 0 3.52 7.652 3.939 14.862.294 5.207 6.656 16.979 6.656 16.979-.125 2.117 0 9.305.532 10.493.532 1.189 2.094 10.414.871 16.515-.184.89-.449 1.762-.792 2.603-.283.702 1.234.397 1.754-.147a23.554 23.554 0 0 0 3.532-7.165 29.09 29.09 0 0 0 1.03-8.976Z" fill="url(#aB)"/><path style="mix-blend-mode:screen" opacity=".4" d="M133.422 112.208c-5.026 3.091-3.396 3.951-1.483 11.569 1.913 7.618 6.486 25.762 8.478 28.422 1.992 2.661 2.037-5.512.589-9.349-1.449-3.838-2.344-10.969-4.257-19.164-1.913-8.195-1.867-12.372-3.327-11.478Z" fill="url(#aC)"/><path style="mix-blend-mode:screen" opacity=".4" d="M144.877 155.007c-5.128 4.527-3.136 9.304-2.864 12.394.679 7.595.747 11.512 1.743 11.761.996.249 3.249-6.011 3.249-10.957 0-4.947-.566-14.579-2.128-13.198Z" fill="url(#aD)"/><path style="mix-blend-mode:screen" opacity=".4" d="M140.824 152.743c2.196 3.588 4.528.283 1.132-7.652-3.395-7.935-2.716-16.594-5.116-12.689-2.4 3.905.079 13.923 3.984 20.341Z" fill="url(#aE)"/><path style="mix-blend-mode:screen" opacity=".4" d="M145.024 129.878c-1.506 7.538 15.213 18.36 17.364 18.767 2.15.408 7.403.136 5.716-.702-1.687-.837-11.24-5.784-14.964-9.27-3.724-3.486-7.652-11.127-8.116-8.795Z" fill="url(#aF)"/><path style="mix-blend-mode:screen" opacity=".4" d="M169.609 148.656c-2.399 2.762 2.128 8.139 4.947 12.95a52.658 52.658 0 0 1 4.392 10.085 75.097 75.097 0 0 0-4.686-14.613c-3.781-9.112-4.653-8.422-4.653-8.422Z" fill="url(#aG)"/><path style="mix-blend-mode:multiply" opacity=".8" d="M129.494 123.573c-2.117-4.754 1.324-11.648 1.324-11.648-5.886 5.773-10.889 11.795-10.889 11.795l3.056 10.821 6.509-10.968Z" fill="url(#aH)"/><path d="M133.422 112.208c-3.057 2.694 2.263 6.056 2.263 6.056s-.713-3.928-.973-4.822a2.043 2.043 0 0 0-1.29-1.234Z" fill="#fff"/><path fill-rule="evenodd" clip-rule="evenodd" d="M94.506 163.994c-.725 5.332-4.709 9.893-16.074 6.95h-.18l-.804-.226c-14.58-4.211-14.897-14.534-8.297-17.953 1.494-.769-1.132.985-1.246 5.094-.18 6.441 2.377 8.184 11.999 10.187l.407.091c.385.068.747.136 1.132.181 1.192.194 2.408.194 3.6 0 9.055-1.562 6.622-15.632 6.622-15.632a9.304 9.304 0 0 1 2.263 4.449c.204.745.367 1.5.487 2.263.247 1.52.278 3.068.09 4.596Z" fill="url(#aI)"/><path opacity=".5" d="m79.904 167.99-1.494 2.931c11.319 2.944 15.349-1.618 16.073-6.95l-.192-2.411c0 .408-.102.838-.181 1.268-.827 4.811-7.845 9.825-9.056 5.411l-5.15-.249Z" fill="#E26680"/><path fill-rule="evenodd" clip-rule="evenodd" d="M81.41 168.261a9.7 9.7 0 0 1-3.962 2.411c-14.58-4.21-14.897-14.534-8.297-17.952 1.494-.77-1.132.985-1.246 5.094-.18 6.531 2.457 8.24 12.452 10.266.317.068.701.136 1.052.181Z" fill="url(#aJ)"/><path fill-rule="evenodd" clip-rule="evenodd" d="M83.832 167.39c-1.653 4.12-5.728 7.007-14.251 4.46l-1.359-.419a22.19 22.19 0 0 1-1.856-.736c-10.187-4.528-9.52-13.153-3.758-16.175 1.392-.736-3.226 1.947-1.777 7.142 1.007 3.6 2.003 5.422 10.187 7.403l.52.125c.697.161 1.405.263 2.118.305a7.91 7.91 0 0 0 2.49-.215c7.618-1.879 6.599-14.828 6.599-14.828 1.585 1.347 3.056 8.025 1.087 12.938Z" fill="url(#aK)"/><path opacity=".5" d="M83.832 167.401c-1.653 4.12-5.728 7.007-14.251 4.46l-1.359-.43-.135-1.449 5.66-.487 2.49-.215c-.668 3.532 6.259.668 7.595-1.879Z" fill="#E26680"/><path fill-rule="evenodd" clip-rule="evenodd" d="M71.097 169.065c0 .951-3.26 1.132-4.708 1.63-10.188-4.528-9.52-13.153-3.758-16.175 1.392-.736-3.226 1.947-1.778 7.142 1.008 3.6 2.004 5.422 10.244 7.403Z" fill="url(#aL)"/><path fill-rule="evenodd" clip-rule="evenodd" d="M62.427 173.061a18.918 18.918 0 0 1-1.29-.487c-10.595-4.46-9.305-16.232-3.544-19.243a11.516 11.516 0 0 1 3.68-.86s-4.992 3.124-5.174 8.478c-.101 3.011.963 5.784 5.14 8.116a24.457 24.457 0 0 0 3.203 1.46l.588.193c10.188 3.203 10.539-14.398 10.539-14.398 2.32 2.422 3.26 22.242-13.142 16.741Z" fill="url(#aM)"/><path opacity=".5" fill-rule="evenodd" clip-rule="evenodd" d="M65.03 170.684a12.307 12.307 0 0 0-3.894 1.89c-10.594-4.46-9.304-16.232-3.543-19.243a11.516 11.516 0 0 1 3.68-.86s-4.992 3.124-5.174 8.478c-.101 3.011.963 5.784 5.14 8.116a40.389 40.389 0 0 0 3.791 1.619Z" fill="#E26680"/><path fill-rule="evenodd" clip-rule="evenodd" d="m72.614 168.828-3.033 2.094a3037.187 3037.187 0 0 0-13.482 3.848c-2.83-.736-2.026-1.901-1.992-1.958 8.852-3.498 12.383-3.634 15.689-3.792a36.224 36.224 0 0 0 2.818-.192Z" fill="url(#aN)"/><path fill-rule="evenodd" clip-rule="evenodd" d="m71.879 168.895-2.264 2.038a3215.744 3215.744 0 0 0-13.482 3.848c-2.83-.735-2.026-1.901-1.992-1.958 2.649.951 16.062-3.09 15.7-3.758a19.574 19.574 0 0 0 2.038-.17Z" fill="url(#aO)"/><path opacity=".5" fill-rule="evenodd" clip-rule="evenodd" d="M69.58 170.922c-2.546 1.131-1.052 3.09-1.052 3.09-2.08.118-4.16-.21-6.101-.962l7.154-2.128Z" fill="#E26680"/><path d="M180.284 49.805a2.115 2.115 0 0 1-.815.181c-3.317.26-12.814-2.649-14.625-4.64-1.811-1.993 3.068-6.555 3.226-6.702-.136.08-3.667 2.128-12.451 0a20.792 20.792 0 0 1-5.173-4.528 7.169 7.169 0 0 1-1.732-4.584c.204-4.913 26.781-12.768 29.045-11.093 1.517 1.132 1.019 8.037.51 12.565a111.65 111.65 0 0 1-.498 3.837v.068c5.908 4.165 4.641 13.832 2.513 14.896Z" fill="url(#aP)"/><path d="m180.283 49.805-.815.181c-3.316.26-12.813-2.649-14.624-4.64-1.811-1.993 3.067-6.555 3.226-6.702-.136.08-3.668 2.128-12.451 0 0 0 6.067.69 9.18-.622 9.259-3.906 13.707-14.965 13.968-15.044l-.498 8.014-.498 3.838v.067s-8.603 5.479-6.894 7.335c1.709 1.857 9.406 7.573 9.406 7.573Z" fill="#0E0EAA" style="mix-blend-mode:multiply" opacity=".17"/><path style="mix-blend-mode:overlay" opacity=".4" d="M177.771 34.92v-.068c.056-.35.271-1.856.498-3.837.509-4.528 1.007-11.455-.51-12.564-2.264-1.676-28.841 6.18-29.045 11.092a7.168 7.168 0 0 0 1.732 4.585 20.788 20.788 0 0 0 5.173 4.527c8.806 2.128 12.338.08 12.451 0-.158.148-5.196 4.528-3.226 6.701 1.97 2.174 11.319 4.902 14.625 4.641.281-.009.558-.074.815-.192 2.128-1.064 3.395-10.73-2.513-14.885Z" fill="url(#aQ)"/><defs><linearGradient id="b" x1="153.743" y1="316.379" x2="110.17" y2="209.544" gradientUnits="userSpaceOnUse"><stop stop-color="#25097F"/><stop offset="1" stop-color="#570096"/></linearGradient><linearGradient id="c" x1="178.982" y1="208.456" x2="62.053" y2="195.032" gradientUnits="userSpaceOnUse"><stop stop-color="#25097F"/><stop offset="1" stop-color="#570096"/></linearGradient><linearGradient id="e" x1="111.507" y1="221.123" x2="135.572" y2="167.413" gradientUnits="userSpaceOnUse"><stop offset=".01" stop-color="#FCB33F"/><stop offset=".12" stop-color="#F4A640"/><stop offset=".35" stop-color="#E08343"/><stop offset=".65" stop-color="#BE4A48"/><stop offset=".99" stop-color="#93004E"/></linearGradient><linearGradient id="f" x1="92.231" y1="260.899" x2="117.801" y2="205.977" gradientUnits="userSpaceOnUse"><stop stop-color="#3D56FD"/><stop offset="1"/></linearGradient><linearGradient id="g" x1="213.203" y1="251.532" x2="193.716" y2="203.752" gradientUnits="userSpaceOnUse"><stop stop-color="#25097F"/><stop offset="1" stop-color="#570096"/></linearGradient><linearGradient id="i" x1="186.849" y1="233.268" x2="196.64" y2="194.669" gradientUnits="userSpaceOnUse"><stop offset=".01" stop-color="#FCB33F"/><stop offset=".12" stop-color="#F4A640"/><stop offset=".35" stop-color="#E08343"/><stop offset=".65" stop-color="#BE4A48"/><stop offset=".99" stop-color="#93004E"/></linearGradient><linearGradient id="j" x1="129.392" y1="161.719" x2="131.022" y2="191.047" gradientUnits="userSpaceOnUse"><stop stop-color="#3F3A50"/><stop offset="1" stop-color="#2A2332"/></linearGradient><linearGradient id="k" x1="74.199" y1="90.894" x2="165.093" y2="90.894" gradientUnits="userSpaceOnUse"><stop stop-color="#D47540"/><stop offset="1" stop-color="#702A15"/></linearGradient><linearGradient id="l" x1="94.551" y1="165.013" x2="118.571" y2="165.013" gradientUnits="userSpaceOnUse"><stop stop-color="#D47540"/><stop offset="1" stop-color="#702A15"/></linearGradient><linearGradient id="m" x1="54.549" y1="102.983" x2="211.151" y2="102.983" gradientUnits="userSpaceOnUse"><stop stop-color="#38172E"/><stop offset="1" stop-color="#541B1F"/></linearGradient><linearGradient id="n" x1="79.496" y1="43.545" x2="84.534" y2="43.545" gradientUnits="userSpaceOnUse"><stop stop-color="#38172E"/><stop offset="1" stop-color="#541B1F"/></linearGradient><linearGradient id="o" x1="48.527" y1="74.153" x2="58.307" y2="74.153" gradientUnits="userSpaceOnUse"><stop stop-color="#38172E"/><stop offset="1" stop-color="#541B1F"/></linearGradient><linearGradient id="p" x1="99.792" y1="64.554" x2="133.659" y2="64.554" gradientUnits="userSpaceOnUse"><stop stop-color="#81BF00"/><stop offset="1" stop-color="#599100"/></linearGradient><linearGradient id="q" x1="78.817" y1="69.75" x2="108.213" y2="69.75" gradientUnits="userSpaceOnUse"><stop stop-color="#81BF00"/><stop offset="1" stop-color="#599100"/></linearGradient><linearGradient id="r" x1="75.399" y1="107.567" x2="114.45" y2="107.567" gradientUnits="userSpaceOnUse"><stop stop-color="#81BF00"/><stop offset="1" stop-color="#599100"/></linearGradient><linearGradient id="s" x1="109.968" y1="138.956" x2="121.661" y2="138.956" gradientUnits="userSpaceOnUse"><stop stop-color="#81BF00"/><stop offset="1" stop-color="#599100"/></linearGradient><linearGradient id="t" x1="117.088" y1="120.211" x2="152.223" y2="120.211" gradientUnits="userSpaceOnUse"><stop stop-color="#81BF00"/><stop offset="1" stop-color="#599100"/></linearGradient><linearGradient id="u" x1="184.574" y1="156.84" x2="211.004" y2="156.84" gradientUnits="userSpaceOnUse"><stop stop-color="#81BF00"/><stop offset="1" stop-color="#599100"/></linearGradient><linearGradient id="v" x1="75.399" y1="54.401" x2="119.952" y2="54.401" gradientUnits="userSpaceOnUse"><stop stop-color="#38172E"/><stop offset="1" stop-color="#541B1F"/></linearGradient><linearGradient id="w" x1="76.995" y1="91.618" x2="90.001" y2="91.618" gradientUnits="userSpaceOnUse"><stop stop-color="#81BF00"/><stop offset="1" stop-color="#599100"/></linearGradient><linearGradient id="x" x1="148.069" y1="169.586" x2="135.244" y2="148.464" gradientUnits="userSpaceOnUse"><stop stop-color="#3F3750"/><stop offset="1" stop-color="#281E2F"/></linearGradient><linearGradient id="y" x1="157.815" y1="164.005" x2="141.028" y2="136.364" gradientUnits="userSpaceOnUse"><stop stop-color="#38172E"/><stop offset="1" stop-color="#541B1F"/></linearGradient><linearGradient id="z" x1="86.729" y1="98.591" x2="99.249" y2="98.591" gradientUnits="userSpaceOnUse"><stop stop-color="#81BF00"/><stop offset="1" stop-color="#599100"/></linearGradient><linearGradient id="A" x1="60.752" y1="143.042" x2="123.098" y2="143.042" gradientUnits="userSpaceOnUse"><stop stop-color="#38172E"/><stop offset="1" stop-color="#541B1F"/></linearGradient><linearGradient id="C" x1="114.969" y1="164.721" x2="115.688" y2="163.212" gradientUnits="userSpaceOnUse"><stop stop-color="#81BF00"/><stop offset="1" stop-color="#599100"/></linearGradient><linearGradient id="D" x1="116.978" y1="161.763" x2="118.206" y2="159.184" gradientUnits="userSpaceOnUse"><stop stop-color="#81BF00"/><stop offset="1" stop-color="#599100"/></linearGradient><linearGradient id="E" x1="113.769" y1="173.828" x2="117.284" y2="166.448" gradientUnits="userSpaceOnUse"><stop stop-color="#81BF00"/><stop offset="1" stop-color="#599100"/></linearGradient><linearGradient id="F" x1="113.944" y1="161.469" x2="115.745" y2="157.687" gradientUnits="userSpaceOnUse"><stop stop-color="#81BF00"/><stop offset="1" stop-color="#599100"/></linearGradient><linearGradient id="G" x1="120.373" y1="160.104" x2="121.325" y2="158.106" gradientUnits="userSpaceOnUse"><stop stop-color="#81BF00"/><stop offset="1" stop-color="#599100"/></linearGradient><linearGradient id="H" x1="119.179" y1="175.379" x2="120.937" y2="171.689" gradientUnits="userSpaceOnUse"><stop stop-color="#81BF00"/><stop offset="1" stop-color="#599100"/></linearGradient><linearGradient id="I" x1="118.147" y1="168.697" x2="121.341" y2="161.99" gradientUnits="userSpaceOnUse"><stop stop-color="#81BF00"/><stop offset="1" stop-color="#599100"/></linearGradient><linearGradient id="J" x1="121.282" y1="162.062" x2="122.063" y2="160.421" gradientUnits="userSpaceOnUse"><stop stop-color="#81BF00"/><stop offset="1" stop-color="#599100"/></linearGradient><linearGradient id="K" x1="116.933" y1="159.878" x2="117.583" y2="158.512" gradientUnits="userSpaceOnUse"><stop stop-color="#81BF00"/><stop offset="1" stop-color="#599100"/></linearGradient><linearGradient id="L" x1="118.113" y1="173.408" x2="119.71" y2="170.055" gradientUnits="userSpaceOnUse"><stop stop-color="#81BF00"/><stop offset="1" stop-color="#599100"/></linearGradient><linearGradient id="M" x1="75.737" y1="146.63" x2="77.776" y2="146.297" gradientUnits="userSpaceOnUse"><stop stop-color="#81BF00"/><stop offset="1" stop-color="#599100"/></linearGradient><linearGradient id="N" x1="80.504" y1="146.169" x2="85.983" y2="145.276" gradientUnits="userSpaceOnUse"><stop stop-color="#81BF00"/><stop offset="1" stop-color="#599100"/></linearGradient><linearGradient id="O" x1="68.441" y1="151.753" x2="75.712" y2="150.567" gradientUnits="userSpaceOnUse"><stop stop-color="#81BF00"/><stop offset="1" stop-color="#599100"/></linearGradient><linearGradient id="P" x1="78.1" y1="142.219" x2="85.091" y2="141.079" gradientUnits="userSpaceOnUse"><stop stop-color="#81BF00"/><stop offset="1" stop-color="#599100"/></linearGradient><linearGradient id="Q" x1="87.79" y1="149.449" x2="94.154" y2="148.411" gradientUnits="userSpaceOnUse"><stop stop-color="#81BF00"/><stop offset="1" stop-color="#599100"/></linearGradient><linearGradient id="R" x1="69.213" y1="159.377" x2="73.067" y2="158.749" gradientUnits="userSpaceOnUse"><stop stop-color="#81BF00"/><stop offset="1" stop-color="#599100"/></linearGradient><linearGradient id="S" x1="74.306" y1="154.567" x2="85.644" y2="152.719" gradientUnits="userSpaceOnUse"><stop stop-color="#81BF00"/><stop offset="1" stop-color="#599100"/></linearGradient><linearGradient id="T" x1="85.808" y1="153.446" x2="90.48" y2="152.684" gradientUnits="userSpaceOnUse"><stop stop-color="#81BF00"/><stop offset="1" stop-color="#599100"/></linearGradient><linearGradient id="U" x1="82.964" y1="144.04" x2="86.067" y2="143.534" gradientUnits="userSpaceOnUse"><stop stop-color="#81BF00"/><stop offset="1" stop-color="#599100"/></linearGradient><linearGradient id="V" x1="70.447" y1="156.933" x2="73.752" y2="156.394" gradientUnits="userSpaceOnUse"><stop stop-color="#81BF00"/><stop offset="1" stop-color="#599100"/></linearGradient><linearGradient id="W" x1="211.66" y1="156.741" x2="212.643" y2="157.311" gradientUnits="userSpaceOnUse"><stop stop-color="#81BF00"/><stop offset="1" stop-color="#599100"/></linearGradient><linearGradient id="X" x1="212.411" y1="159.092" x2="213.442" y2="159.691" gradientUnits="userSpaceOnUse"><stop stop-color="#81BF00"/><stop offset="1" stop-color="#599100"/></linearGradient><linearGradient id="Y" x1="193.188" y1="144.536" x2="211.215" y2="154.996" gradientUnits="userSpaceOnUse"><stop stop-color="#81BF00"/><stop offset="1" stop-color="#599100"/></linearGradient><linearGradient id="Z" x1="214.195" y1="158.076" x2="215.384" y2="158.766" gradientUnits="userSpaceOnUse"><stop stop-color="#81BF00"/><stop offset="1" stop-color="#599100"/></linearGradient><linearGradient id="aa" x1="211.723" y1="160.934" x2="212.538" y2="161.407" gradientUnits="userSpaceOnUse"><stop stop-color="#81BF00"/><stop offset="1" stop-color="#599100"/></linearGradient><linearGradient id="ab" x1="185.063" y1="147.471" x2="198.955" y2="155.531" gradientUnits="userSpaceOnUse"><stop stop-color="#81BF00"/><stop offset="1" stop-color="#599100"/></linearGradient><linearGradient id="ac" x1="204.171" y1="156.386" x2="210.989" y2="160.342" gradientUnits="userSpaceOnUse"><stop stop-color="#81BF00"/><stop offset="1" stop-color="#599100"/></linearGradient><linearGradient id="ad" x1="210.16" y1="160.843" x2="210.946" y2="161.299" gradientUnits="userSpaceOnUse"><stop stop-color="#81BF00"/><stop offset="1" stop-color="#599100"/></linearGradient><linearGradient id="ae" x1="213.474" y1="159.569" x2="213.916" y2="159.825" gradientUnits="userSpaceOnUse"><stop stop-color="#81BF00"/><stop offset="1" stop-color="#599100"/></linearGradient><linearGradient id="af" x1="196.318" y1="151.567" x2="202.939" y2="155.409" gradientUnits="userSpaceOnUse"><stop stop-color="#81BF00"/><stop offset="1" stop-color="#599100"/></linearGradient><linearGradient id="ag" x1="83.458" y1="75.432" x2="120.506" y2="75.432" gradientUnits="userSpaceOnUse"><stop stop-color="#38172E"/><stop offset="1" stop-color="#541B1F"/></linearGradient><linearGradient id="ah" x1="153.694" y1="170.349" x2="199.813" y2="167.019" gradientUnits="userSpaceOnUse"><stop stop-color="#F16D73"/><stop offset="1" stop-color="#E3786E"/></linearGradient><linearGradient id="ai" x1="217.735" y1="156.367" x2="215.766" y2="149.619" gradientUnits="userSpaceOnUse"><stop stop-color="#F16D73"/><stop offset="1" stop-color="#E3786E"/></linearGradient><linearGradient id="aj" x1="164.392" y1="161.625" x2="174.981" y2="164.35" gradientUnits="userSpaceOnUse"><stop stop-color="#F5CEB3"/><stop offset="1" stop-color="#F7B0B8"/></linearGradient><linearGradient id="ak" x1="153.449" y1="155.582" x2="151.806" y2="158.219" gradientUnits="userSpaceOnUse"><stop stop-color="#F16D73"/><stop offset="1" stop-color="#E3786E"/></linearGradient><linearGradient id="al" x1="188.467" y1="151.262" x2="170.555" y2="180.112" gradientUnits="userSpaceOnUse"><stop stop-color="#F16D73"/><stop offset="1" stop-color="#E3786E"/></linearGradient><linearGradient id="am" x1="176.752" y1="172.857" x2="177.872" y2="158.595" gradientUnits="userSpaceOnUse"><stop offset=".03" stop-color="#DE5634"/><stop offset=".2" stop-color="#CF513E"/><stop offset=".52" stop-color="#A84459"/><stop offset=".97" stop-color="#6A2E84"/><stop offset=".99" stop-color="#662D87"/></linearGradient><linearGradient id="an" x1="172.575" y1="123.867" x2="140.36" y2="144.966" gradientUnits="userSpaceOnUse"><stop stop-color="#fff"/><stop offset=".99" stop-color="#89FFFC"/></linearGradient><linearGradient id="ao" x1="65.605" y1="65.714" x2="70.452" y2="96.634" gradientUnits="userSpaceOnUse"><stop stop-color="#fff"/><stop offset=".99" stop-color="#89FFFC"/></linearGradient><linearGradient id="ap" x1="100.211" y1="24.801" x2="113.817" y2="24.801" gradientUnits="userSpaceOnUse"><stop stop-color="#38172E"/><stop offset="1" stop-color="#541B1F"/></linearGradient><linearGradient id="aq" x1="67.679" y1="35.226" x2="76.587" y2="35.226" gradientUnits="userSpaceOnUse"><stop stop-color="#38172E"/><stop offset="1" stop-color="#541B1F"/></linearGradient><linearGradient id="ar" x1="118.027" y1="47.654" x2="124.4" y2="47.654" gradientUnits="userSpaceOnUse"><stop stop-color="#38172E"/><stop offset="1" stop-color="#541B1F"/></linearGradient><linearGradient id="as" x1="147.386" y1="53.887" x2="147.387" y2="54.544" gradientUnits="userSpaceOnUse"><stop stop-color="#FFC955"/><stop offset=".99" stop-color="#89FFFC"/></linearGradient><linearGradient id="at" x1="65.653" y1="100.757" x2="65.653" y2="171.893" gradientUnits="userSpaceOnUse"><stop stop-color="#fff"/><stop offset=".99" stop-color="#89FFFC"/></linearGradient><linearGradient id="au" x1="164.108" y1="41.383" x2="153.513" y2="145.521" gradientUnits="userSpaceOnUse"><stop stop-color="#fff"/><stop offset=".99" stop-color="#89FFFC"/></linearGradient><linearGradient id="av" x1="103.584" y1="22.424" x2="103.64" y2="47.088" gradientUnits="userSpaceOnUse"><stop stop-color="#fff"/><stop offset=".99" stop-color="#89FFFC"/></linearGradient><linearGradient id="aw" x1="145.37" y1="35.664" x2="144.973" y2="60.632" gradientUnits="userSpaceOnUse"><stop stop-color="#fff"/><stop offset=".99" stop-color="#89FFFC"/></linearGradient><linearGradient id="ax" x1="59.88" y1="82.269" x2="35.917" y2="82.269" gradientUnits="userSpaceOnUse"><stop stop-color="#fff"/><stop offset=".99" stop-color="#89FFFC"/></linearGradient><linearGradient id="ay" x1="136.727" y1="19.911" x2="73.984" y2="21.167" gradientUnits="userSpaceOnUse"><stop stop-color="#5C6B00"/><stop offset=".23" stop-color="#606E00"/><stop offset=".44" stop-color="#6B7600"/><stop offset=".64" stop-color="#7E8401"/><stop offset=".84" stop-color="#989702"/><stop offset=".91" stop-color="#A29F02"/></linearGradient><linearGradient id="az" x1="78.059" y1="9.033" x2="81.828" y2="46.692" gradientUnits="userSpaceOnUse"><stop offset=".01" stop-color="#FCB33F"/><stop offset=".12" stop-color="#F4A640"/><stop offset=".35" stop-color="#E08343"/><stop offset=".65" stop-color="#BE4A48"/><stop offset=".99" stop-color="#93004E"/></linearGradient><linearGradient id="aH" x1="125.6" y1="115.129" x2="124.604" y2="126.822" gradientUnits="userSpaceOnUse"><stop stop-color="#27A0D7"/><stop offset="1" stop-color="#4F0069"/></linearGradient><linearGradient id="aI" x1="81.726" y1="155.086" x2="80.402" y2="159.319" gradientUnits="userSpaceOnUse"><stop stop-color="#F5CEB3"/><stop offset="1" stop-color="#F7B0B8"/></linearGradient><linearGradient id="aJ" x1="65.019" y1="161.606" x2="81.409" y2="161.606" gradientUnits="userSpaceOnUse"><stop stop-color="#F16D73"/><stop offset="1" stop-color="#E3786E"/></linearGradient><linearGradient id="aK" x1="73.339" y1="156.806" x2="72.06" y2="160.87" gradientUnits="userSpaceOnUse"><stop stop-color="#F5CEB3"/><stop offset="1" stop-color="#F7B0B8"/></linearGradient><linearGradient id="aL" x1="58.476" y1="162.545" x2="71.097" y2="162.545" gradientUnits="userSpaceOnUse"><stop stop-color="#F16D73"/><stop offset="1" stop-color="#E3786E"/></linearGradient><linearGradient id="aM" x1="66.253" y1="158.527" x2="65.019" y2="162.466" gradientUnits="userSpaceOnUse"><stop stop-color="#F5CEB3"/><stop offset="1" stop-color="#F7B0B8"/></linearGradient><linearGradient id="aN" x1="53.971" y1="171.804" x2="72.614" y2="171.804" gradientUnits="userSpaceOnUse"><stop stop-color="#F5CEB3"/><stop offset="1" stop-color="#F7B0B8"/></linearGradient><linearGradient id="aO" x1="53.971" y1="171.838" x2="71.879" y2="171.838" gradientUnits="userSpaceOnUse"><stop stop-color="#F16D73"/><stop offset="1" stop-color="#E3786E"/></linearGradient><linearGradient id="aP" x1="185.626" y1="40.772" x2="160.101" y2="25.016" gradientUnits="userSpaceOnUse"><stop stop-color="#5C6B00"/><stop offset=".23" stop-color="#606E00"/><stop offset=".44" stop-color="#6B7600"/><stop offset=".64" stop-color="#7E8401"/><stop offset=".84" stop-color="#989702"/><stop offset=".91" stop-color="#A29F02"/></linearGradient><linearGradient id="aQ" x1="148.714" y1="34.082" x2="182.049" y2="34.082" gradientUnits="userSpaceOnUse"><stop offset=".01" stop-color="#FCB33F"/><stop offset=".12" stop-color="#F4A640"/><stop offset=".35" stop-color="#E08343"/><stop offset=".65" stop-color="#BE4A48"/><stop offset=".99" stop-color="#93004E"/></linearGradient><radialGradient id="a" cx="0" cy="0" r="1" gradientUnits="userSpaceOnUse" gradientTransform="translate(125 142.306) scale(124.693)"><stop stop-color="#8E37E2"/><stop offset=".18" stop-color="#6F2BB0"/><stop offset=".48" stop-color="#401966"/><stop offset=".72" stop-color="#1D0B2F"/><stop offset=".9" stop-color="#08030D"/><stop offset="1"/></radialGradient><radialGradient id="d" cx="0" cy="0" r="1" gradientUnits="userSpaceOnUse" gradientTransform="translate(132.403 176.513) scale(65.4256)"><stop stop-color="#F0C63D"/><stop offset=".16" stop-color="#EDB63A"/><stop offset=".41" stop-color="#E8A336"/><stop offset=".58" stop-color="#E79C35"/><stop offset="1" stop-color="#E1732B"/></radialGradient><radialGradient id="h" cx="0" cy="0" r="1" gradientUnits="userSpaceOnUse" gradientTransform="translate(195.915 198.518) scale(11.9985)"><stop stop-color="#F0C63D"/><stop offset=".16" stop-color="#EDB63A"/><stop offset=".41" stop-color="#E8A336"/><stop offset=".58" stop-color="#E79C35"/><stop offset="1" stop-color="#E1732B"/></radialGradient><radialGradient id="B" cx="0" cy="0" r="1" gradientUnits="userSpaceOnUse" gradientTransform="matrix(67.5084 0 0 67.5083 129.335 142.329)"><stop stop-color="#FF249C"/><stop offset=".12" stop-color="#D11D80"/><stop offset=".3" stop-color="#921559"/><stop offset=".48" stop-color="#5E0D39"/><stop offset=".64" stop-color="#350821"/><stop offset=".78" stop-color="#18030F"/><stop offset=".91" stop-color="#060104"/><stop offset="1"/></radialGradient><radialGradient id="aA" cx="0" cy="0" r="1" gradientUnits="userSpaceOnUse" gradientTransform="matrix(30.11457 5.88445 -4.54626 23.26619 170.077 163.645)"><stop offset=".02" stop-color="#351761"/><stop offset="1" stop-color="#000E1B"/></radialGradient><radialGradient id="aB" cx="0" cy="0" r="1" gradientUnits="userSpaceOnUse" gradientTransform="rotate(17.057 -315.774 505.708) scale(73.3414 70.5283)"><stop offset=".02" stop-color="#351761"/><stop offset="1" stop-color="#000E1B"/></radialGradient><radialGradient id="aC" cx="0" cy="0" r="1" gradientUnits="userSpaceOnUse" gradientTransform="rotate(-1.14 5935.974 -6718.528) scale(33.1203)"><stop offset=".01" stop-color="#8E37E2"/><stop offset=".04" stop-color="#8333D0"/><stop offset=".13" stop-color="#6427A0"/><stop offset=".23" stop-color="#491C75"/><stop offset=".33" stop-color="#331451"/><stop offset=".44" stop-color="#200C33"/><stop offset=".55" stop-color="#12071D"/><stop offset=".68" stop-color="#08030C"/><stop offset=".81" stop-color="#020103"/><stop offset="1"/></radialGradient><radialGradient id="aD" cx="0" cy="0" r="1" gradientUnits="userSpaceOnUse" gradientTransform="rotate(-1.14 7952.307 -7232.962) scale(23.431)"><stop offset=".01" stop-color="#8E37E2"/><stop offset=".04" stop-color="#8333D0"/><stop offset=".13" stop-color="#6427A0"/><stop offset=".23" stop-color="#491C75"/><stop offset=".33" stop-color="#331451"/><stop offset=".44" stop-color="#200C33"/><stop offset=".55" stop-color="#12071D"/><stop offset=".68" stop-color="#08030C"/><stop offset=".81" stop-color="#020103"/><stop offset="1"/></radialGradient><radialGradient id="aE" cx="0" cy="0" r="1" gradientUnits="userSpaceOnUse" gradientTransform="translate(143.032 151.679) scale(18.6316)"><stop offset=".01" stop-color="#8E37E2"/><stop offset=".04" stop-color="#8333D0"/><stop offset=".13" stop-color="#6427A0"/><stop offset=".23" stop-color="#491C75"/><stop offset=".33" stop-color="#331451"/><stop offset=".44" stop-color="#200C33"/><stop offset=".55" stop-color="#12071D"/><stop offset=".68" stop-color="#08030C"/><stop offset=".81" stop-color="#020103"/><stop offset="1"/></radialGradient><radialGradient id="aF" cx="0" cy="0" r="1" gradientUnits="userSpaceOnUse" gradientTransform="translate(166.463 146.698) scale(20.9294)"><stop offset=".01" stop-color="#8E37E2"/><stop offset=".04" stop-color="#8333D0"/><stop offset=".13" stop-color="#6427A0"/><stop offset=".23" stop-color="#491C75"/><stop offset=".33" stop-color="#331451"/><stop offset=".44" stop-color="#200C33"/><stop offset=".55" stop-color="#12071D"/><stop offset=".68" stop-color="#08030C"/><stop offset=".81" stop-color="#020103"/><stop offset="1"/></radialGradient><radialGradient id="aG" cx="0" cy="0" r="1" gradientUnits="userSpaceOnUse" gradientTransform="translate(171.307 152.924) scale(19.2428)"><stop offset=".01" stop-color="#8E37E2"/><stop offset=".04" stop-color="#8333D0"/><stop offset=".13" stop-color="#6427A0"/><stop offset=".23" stop-color="#491C75"/><stop offset=".33" stop-color="#331451"/><stop offset=".44" stop-color="#200C33"/><stop offset=".55" stop-color="#12071D"/><stop offset=".68" stop-color="#08030C"/><stop offset=".81" stop-color="#020103"/><stop offset="1"/></radialGradient></defs></svg>