<svg width="216" height="268" viewBox="0 0 216 268" fill="none" xmlns="http://www.w3.org/2000/svg"><path style="mix-blend-mode:screen" opacity=".3" d="M107.445 267.49c58.951 0 106.74-43.76 106.74-97.74s-47.789-97.74-106.74-97.74c-58.95 0-106.74 43.76-106.74 97.74s47.79 97.74 106.74 97.74Z" fill="url(#a)"/><path style="mix-blend-mode:screen" opacity=".3" d="M108.555 213.48c58.951 0 106.74-47.789 106.74-106.74C215.295 47.79 167.506 0 108.555 0 49.605 0 1.815 47.79 1.815 106.74c0 58.951 47.79 106.74 106.74 106.74Z" fill="url(#b)"/><path fill-rule="evenodd" clip-rule="evenodd" d="m142.405 64.54-4.48-.01-2.06 1.78.17 10.61-3.64.14-2.98.9 1.16 15.9-4.69 2.08-.07 14.67-5.38 2.93 1.74 9.47-1.74 3.85 8.89 31.83 46.04 2.97 4.26-1.9-8.98-32.92-5.23-20.05-5.96-10.98-6.29-19.14-3.68-1.34-7.08-10.79Z" fill="url(#c)"/><path style="mix-blend-mode:multiply" opacity=".5" fill-rule="evenodd" clip-rule="evenodd" d="m137.925 64.53 8.07 13.19 4.93 2.31 7.03 19.09 1.88 6.74-.67-5.46 4.33 8.44 4.49 23.46 7.38 29.36 4.26-1.9-14.21-52.97-6.27-11.92-5.98-18.2-3.68-1.34-7.08-10.79-4.48-.01Z" fill="url(#d)"/><path style="mix-blend-mode:multiply" opacity=".5" fill-rule="evenodd" clip-rule="evenodd" d="m166.805 160.78-2.87.14-7.39-35.17-3.63-5.53-2.15-23.28-10.03-9.41-2.31-9.11-9.01-.46 2.98-.9 7.75-.31 3.65 10.76 9.65 8.44 1.11 22.39 4.34 6.88 7.91 35.56Z" fill="url(#e)"/><path style="mix-blend-mode:multiply" opacity=".5" fill-rule="evenodd" clip-rule="evenodd" d="m120.435 113.54 21.97-.25 2.26 1.95 10.35 45.11 7.22.46-15.41-46.63-2.74-1.79-18.27-1.78-5.38 2.93Z" fill="url(#f)"/><path fill-rule="evenodd" clip-rule="evenodd" d="M131.305 96.64c.41 6.41.27 12.19 1.81 12.93 1.54.74 8.22 2.28 8.22-.81a92.909 92.909 0 0 0-4.85-27.76c-.56-1-5.85-1.33-6-.69-.33 1.08.43 10.17.82 16.33ZM121.765 116.27c.7 2.63 1 5.26 2.19 5.91 1.19.65 10.1 7.52 11.09 7.72.99.2 2.95-9.51 1.44-11.61-1.51-2.1-8-4.06-11.48-4.11-3.48-.05-3.64.58-3.24 2.09ZM122.705 125.54c.54 2.6 2.62 12.25 3.41 12.88.79.63 10.25 2.23 9.84.54-.41-1.69-5.19-9.11-7.55-10.36-2.36-1.25-5.96-4.37-5.7-3.06ZM144.155 111.53c2.05 1.6 5.88 4 6.61 2.65.73-1.35.17-17-1.47-16.78-1.64.22-6.11.78-6.88 2.16-.77 1.38.59 11.07 1.74 11.97ZM140.775 92c.24 2.17.2 4.87 1.11 5.29.91.42 6.71-1.25 6.21-2.16-.5-.91-7.76-7.21-7.32-3.13ZM140.145 116.81c-1.33 3.2-2.63 37.63-1.8 39.21.83 1.58 13.67 1.49 13.88 0 .21-1.49-8.59-47.55-12.08-39.21Z" fill="#E05D6C" style="mix-blend-mode:soft-light" opacity=".5"/><path style="mix-blend-mode:multiply" opacity=".5" fill-rule="evenodd" clip-rule="evenodd" d="M129.815 83.4c11.91 5.66 12.37 28.83 12.37 28.83l-5.15-.53-6.59 1.72s4.4 17.42-7.63 21.49l-2.38-8 1.74-3.85-1.74-9.47 5.39-2.93.06-14.67 4.69-2.08-.76-10.51Z" fill="url(#g)"/><path style="mix-blend-mode:screen" d="M106.385 145.11c32.066 0 58.06-24.951 58.06-55.73 0-30.779-25.994-55.73-58.06-55.73s-58.06 24.951-58.06 55.73c0 30.779 25.994 55.73 58.06 55.73Z" fill="url(#h)"/><path d="M92.085 55.91c-.93-2.57-3.44-6.16-4.06-5.93-.91.34-3.06 10 .45 10.4 1.43.15 4.23-2.79 3.61-4.47Z" fill="url(#i)"/><path d="M120.805 66.12c1.17 4.45 1 12.22-.37 24.16-.35 3.07-.42 7.8-4.91 10.36-16 9.11-11.38 13.53-17.19 10.79-7.81-3.7-10.39-11.74-10.78-17.94-.85-13.62-1.85-28.89 4.52-32.9 4.81-2.99 25.17-7.9 28.73 5.53Z" fill="url(#j)"/><path style="mix-blend-mode:multiply" opacity=".5" d="M119.405 82.6a393.187 393.187 0 0 1-1.62 7.09c-1.08 4.49-.44 6.76-5.94 10-3.9 2.29-15.65 9-17.61 8-5.53-2.64-6.72-15.33-6.73-15.89-.54-19.46 9.4-30 9.4-30-3.56 16.03 31.16-18.73 22.5 20.8Z" fill="url(#k)"/><path d="M102.485 80.73s1.31.34 2.55 2.83c1.24 2.49.41 3.65-.69 4.41-1.73 1.21-8.23 1.41-8.92-.66-.69-2.07-1.45-18.31 1.16-19.25 2.61-.94 17.34-1.51 18.37 2.68 1.03 4.19-.21 21.1-2.32 21.9-2.11.8-10.18 0-15.24-2 0 0 4.91.69 7.64 0 3-.77 3.87-4.33 3.87-8.72 0-8.16-5.92-9.43-8.32-9.58-2.4-.15-2.72 3.19-2.65 5.9.07 2.71 2.26 5.8 3.74 5.62 1.48-.18.81-3.13.81-3.13Z" fill="#FDBA45"/><path d="M102.855 127.86c-1.09 3 .79 7.19 1.67 7.19.88 0 1.69-5.38.93-6-.76-.62-1.59-3.91-2.6-1.19Z" fill="url(#l)"/><path d="M103.925 114.8c-1.17.82-5.09 4.35-1.34 8.12 2.22 2.22 3.82 5.62 5.55 6.07 4 1 3.36-7.89 3.67-10.08.31-2.19-1.32-12.25-3.44-9.15a19.6 19.6 0 0 1-4.44 5.04Z" fill="url(#m)"/><path d="M94.975 40.61c-2.42 2.76-3.4-6.41.42-7 1.11-.13 1.31 5.07-.42 7Z" fill="url(#n)"/><path d="M93.515 52c-3.62 1.39-4.26-8.89-1.46-8.34.88.17 2.61-1.76 4.18-1.14 3.47 1.38 6.15 6.11-2.72 9.48Z" fill="url(#o)"/><path d="M91.855 30.44c0 2 1.43 2.05 2.12.33.56-1.42-2.12-1.77-2.12-.33Z" fill="url(#p)"/><path d="M112.015 108.11c0 .44 2.34 2.3 2.9 0s-3.13-2.75-2.9 0Z" fill="url(#q)"/><path style="mix-blend-mode:multiply" opacity=".5" d="M102.195 110.23c-5.58 4.47-16.84-10.92-13.88-18.41 2.96-7.49 10.44 6.85 18.07 6 7.63-.85 8.46 2.41 5.46 4.35-3 1.94-7.22 6.12-9.65 8.06Z" fill="url(#r)"/><path style="mix-blend-mode:multiply" opacity=".5" d="M106.385 101.54c-10.33 2.79-17.43-6.7-17.24-2.44.19 4.26 8.82 14.4 12.76 11 3.94-3.4 10.5-10.18 4.48-8.56Z" fill="url(#s)"/><path d="M96.405 68.67c-1.28 2.78-1.21 5.27-.65 5.77.56.5 5.54-4.8 4.57-5.91-.97-1.11-3.57-.65-3.92.14ZM105.705 69.13c-.45 1.51 6.47 9.52 7.76 8.46 1.29-1.06 2.18-6 .33-7.35-1.85-1.35-7.64-2.68-8.09-1.11ZM107.015 91.27c-.59 2 6.1.23 6.47-1.39.37-1.62-1.78-7.12-2.88-6.42-1.1.7-3.17 6.38-3.59 7.81ZM95.985 87.2c1.9 3.11 7.63 1 7.67 0 .04-1-5.95-6.2-7.21-5.2-1.26 1-1.2 4-.46 5.2Z" fill="#FCD719" style="mix-blend-mode:soft-light"/><path style="mix-blend-mode:multiply" opacity=".5" d="M99.065 59c-2.12 3.54-2.49 7.63.49 7.12 2.98-.51 16.38-6.19 13.38-7.49-3-1.3-12.62-1.74-13.87.37Z" fill="url(#t)"/><path style="mix-blend-mode:multiply" opacity=".5" d="M95.465 60.85c-.22-1.5-4.21-.47-5.66 2.11-1.74 3.11-2.5 8.65-1.9 9 .6.35 7.9-8.77 7.56-11.11Z" fill="url(#u)"/><path style="mix-blend-mode:multiply" opacity=".5" d="M120.435 66.86c-2.57-7.3-11.74-9.69-17.73-8.49-7.16 1.43-12.39 11.25 3 7.77 9.28-2.11 10.35 3.57 10.9 9.47.55 5.9 5.88-2.89 3.83-8.75Z" fill="url(#v)"/><path style="mix-blend-mode:multiply" opacity=".5" d="M87.475 82c-1.36 6.23.35 19.53 17.14 19.51 2.23 0-3.21-1.2-5.06-2.87-3.91-3.55-6.1-11.25-6.34-17.14-.24-5.89-4.43-5.5-5.74.5Z" fill="url(#w)"/><path style="mix-blend-mode:multiply" opacity=".5" d="M99.255 92.93c-4.46 1.45 4.89 12 15.28 6.72 6.29-3.2 5.42-9.64 3-8.64s-1.73 4.51-7.89 3.4c-6.16-1.11-7.94-2.28-10.39-1.48Z" fill="url(#x)"/><path style="mix-blend-mode:multiply" opacity=".5" d="M88.465 83.07c-.4 5.45-2.16 23.67 12 27.92 1.79.54 6.53-3.57.19-9.72-3.34-3.27-5.9-2.79-8.25-12.43-1.97-8.1-3.63-10.09-3.94-5.77Z" fill="url(#y)"/><path style="mix-blend-mode:multiply" opacity=".5" d="M108.145 83.4c.64-4.83-4.49-12.79-8.88-8.92-1.7 1.5-1.16 5.69 2.08 5.23 5.21-.71 6.36 7.29 6.8 3.69Z" fill="url(#z)"/><path d="M103.835 70.7c.45 1.91 4.68 2.27 6.16 8.18 1.48 5.91 2.59 9.57 3.74 7.26 1.15-2.31 2.14-11.28-.2-14.18-2.34-2.9-10.32-3.96-9.7-1.26Z" fill="#FCD719" style="mix-blend-mode:soft-light"/><path opacity=".54" d="M103.225 115.8c-3.29 2.49-2 4.87.43 7.06 2.43 2.19 4.85-1.47 6-2.58 1.15-1.11 3.33-2.63 1.17-4.79s-4.58-1.97-7.6.31Z" fill="url(#A)"/><path style="mix-blend-mode:multiply" opacity=".5" d="M103.225 117c-2.92 3.44-1.69 2.61.61 6.71s9.28-1.7 6.08-11c-1.31-3.71-1.76-1.47-6.69 4.29Z" fill="url(#B)"/><path style="mix-blend-mode:multiply" opacity=".5" d="M103.475 127.26a4.523 4.523 0 0 0-.53 4.22c.47 1 3-1.39 2.59-1.86-.41-.47-1.33-3.3-2.06-2.36Z" fill="url(#C)"/><path d="M91.055 45.07c-.95 2.08-.56 6.39 1.79 6.57 2.35.18 6.86-6.64 4.25-7.49-2.61-.85-5.59-.07-6.04.92ZM87.235 58.26c1 1.3 4.83.74 4.35-1.57-.48-2.31-1.58-5.08-2.78-4.25-1.2.83-2.41 4.71-1.57 5.82Z" fill="#FCD719" style="mix-blend-mode:soft-light"/><path d="M95.045 33.72c-2.83 1.11-1.58 4.62-.51 4.34 1.07-.28 1.72-4.81.51-4.34Z" fill="#FCD719"/><path opacity=".54" d="M108.185 110.76c-2.17 3.41-7.32 5.89-6.54 7.69.78 1.8 11.35 4.44 9.29-4.28-1.02-4.3-1.85-4.82-2.75-3.41Z" fill="url(#D)"/><path style="mix-blend-mode:color-dodge" opacity=".5" d="M105.315 109.75c10.924 0 19.78-12.41 19.78-27.72 0-15.31-8.856-27.72-19.78-27.72-10.924 0-19.78 12.41-19.78 27.72 0 15.31 8.856 27.72 19.78 27.72Z" fill="url(#E)"/><path d="m88.155 152.81-13.85-11.51 11.84-.68c2.38 3.24 16.62 4.28 16.62 4.28a86.734 86.734 0 0 0-14.61 7.91Z" fill="url(#F)"/><path d="m109.425 143.33-.06 4.6-21.21 4.88-3.4-6.55 24.67-2.93Z" fill="url(#G)"/><path d="m90.355 146.19 10.32-.9 8.81-1.65-2.73-.8-19.12-3.02-13.33 1.48 10.45 4.96 5.6-.07Z" fill="url(#H)"/><path style="mix-blend-mode:multiply" opacity=".5" d="m84.755 146.26 3.4 6.55 20.55-4.74s-7.87-2.8-8.07-2.78l-9.92 1-5.96-.03Z" fill="url(#I)"/><path d="M76.615 141.57c2.28 1.5 7.18 4 8.52 4 1.34 0 15.54-.44 15.22-1.2-.32-.76-10.44-4.24-12.81-4.16-2.37.08-11.92.7-10.93 1.36ZM97.465 142c-.67 0 3.6 2.48 4.18 2.48.58 0 4.81-.62 4.53-.94-.28-.32-6.74-1.54-8.71-1.54Z" fill="#EBA249" style="mix-blend-mode:soft-light" opacity=".6"/><path d="m90.755 161.3-14.14-10.91 17-.52 34.61 2.95c-14.65 8.37-37.47 8.48-37.47 8.48Z" fill="url(#J)"/><path style="mix-blend-mode:multiply" opacity=".5" d="m91.425 155.16-.67 6.14s11.83-.69 17.68-1.83c12.32-2.41 19.78-6.65 19.78-6.65l-36.79 2.34Z" fill="url(#K)"/><path d="m99.475 155.16 14.87-.75 13.87-1.59-5.06-.65-27.4-3.04-19.14 1.26 14.81 4.77h8.05Z" fill="url(#L)"/><path d="M89.105 152.82c-1.5.35 1.49 1.81 2.71 1.81s13.94.4 13.45-.72c-.49-1.12-12.23-2-16.16-1.09ZM101.385 150.3c-1.08 0 4.77 2.93 5.71 3.27.94.34 14.31 0 13.07-.55-1.24-.55-13.87-2.86-18.78-2.72Z" fill="#EBA249" style="mix-blend-mode:soft-light" opacity=".6"/><path d="M99.505 151c-2.31.6 1 1.56 1.75 1.47.75-.09 1.82-2.47-1.75-1.47Z" fill="#EBA249" style="mix-blend-mode:soft-light" opacity=".6"/><path d="m80.905 151.77 6.19 3.39 3.66-.22-5.49-2.12-4.36-1.05Z" fill="#D65429"/><path style="mix-blend-mode:screen" d="M30.445 150.28c8.26-52.88 28.26-147.83 79.47-147.83 53.29 0 69.71 148.55 69.71 148.55s-32.56 28.37-80.65 21c-48.09-7.37-68.53-21.72-68.53-21.72Z" fill="url(#M)"/><path fill-rule="evenodd" clip-rule="evenodd" d="m36.945 160.16 3.06-17.25 2.25-.33 3.54-11.37 1.82-.29 4.13 1.3 7.89-25.33 1.7-.68 6.99.83-.53 19.95 2.83 4.07-1.62 39.25-32.06-10.15Z" fill="url(#N)"/><path style="mix-blend-mode:multiply" opacity=".5" fill-rule="evenodd" clip-rule="evenodd" d="m61.335 106.21-1.7.68 4.58 1.35.02 20.74-5.51-1.48 1.39 1.11 7.63 2.54-4.26 35.69 5.59 1.76 1.55-37.54-2.83-4.07.53-19.95-6.99-.83Z" fill="url(#O)"/><path style="mix-blend-mode:multiply" opacity=".5" fill-rule="evenodd" clip-rule="evenodd" d="M42.255 142.58c.41.27 10.35 4.52 10.35 4.52l-.35 14.39-2.89-1.49.7-11.89-5.17-2.66-4.89-2.54 2.25-.33Z" fill="url(#P)"/><path style="mix-blend-mode:multiply" opacity=".5" fill-rule="evenodd" clip-rule="evenodd" d="m45.795 131.21 11.77 4.54-3.24 26.03 1.59.58 4.47-13.65 4.26-6.65-3.7 3.49 2.39-11.97-2.69.83-8.9-2.19-4.13-1.3-1.82.29Z" fill="url(#Q)"/><path d="M180.785 151.38c.95-2.62-1.5-14.62-6.09-14.62-4.2 0-8.39 6.9-8.39 6.9s-2.74-4.33-9.5-4.41c-6.76-.08-12.6 10.75-12.6 10.75s-10.88-5-12 6c0 0-6.3-3-11.22 1.5-6.17 5.69-5.67 18.82-5.67 18.82h7.48l5.4-.42 22.94.36 29.65-24.88Z" fill="url(#R)"/><path d="M33.705 156.92c-7.46-4.43-1.15-14.31 4.74-10.47 0 0 2.7-5.62 9.28-3.26 6.58 2.36 4.67 12.59 4.67 12.59s2.17.92 6 2.38l9.72.59a7.666 7.666 0 0 1 6.2-4.88c4.91-.76 7.88 4.3 8.25 9 0 0 5.55-3.18 12.61 1.6 0 0 3.81-6 7.49-6.32 8.63-.7 10 6.2 10 6.2s4.16-6.25 10.12-5.13c8.52 1.59 11 13.36 11 13.36l-42.58 4.07-57.5-19.73Z" fill="url(#S)"/><path d="M44.235 142.93c-6.36 1-7.94 7.7-3.49 9 4.45 1.3 8.67 2.29 9.66-.31 2.08-5.52-3.5-9.13-6.17-8.69Z" fill="#FCD719" style="mix-blend-mode:soft-light"/><path d="M50.295 152.32c-3.15 5.28-5.32.33-4.5 2.79.82 2.46 5.35 2.76 6.35-2.44.46-2.39-.33-2.9-1.85-.35ZM73.705 154.73c-2 .66-3.06 2.14 4.59 4.09 3.5.89 3.87 5.79 4 4.38.09-2.71-2.59-10.42-8.59-8.47Z" fill="#FCD719" style="mix-blend-mode:soft-light"/><path d="M79.705 156.54c-1.17-3-6.31-3.71-10.22.74-3.91 4.45 1.17-1.32 5.43.89 5.44 2.83 5.88 1.09 4.79-1.63ZM35.145 146.45c-5.89 1.38-5 6.38-2.38 7.31 2.62.93 6.71-8.32 2.38-7.31ZM48.705 144.15c-7.27-2.84-10.57 1.4-7 4.91 3.42 3.32 3.42 10.39 7.4 7.63 3.98-2.76 3.65-10.95-.4-12.54ZM102.535 158.82c-6.83 1.56-9.6 9.18-8.83 10.62.77 1.44 4.86-4.12 9-4.12s9.82 3 8.68-1.65c-.44-1.67-3.91-5.98-8.85-4.85Z" fill="#FCD719" style="mix-blend-mode:soft-light"/><path d="M109.225 164.16c-2.42-3.14-8.08-4.95-10.89-2.67-2.81 2.28-5.66 7.35-2.89 6.81s3.69-3 8.47-1.84c4.78 1.16 6.96-.16 5.31-2.3ZM124.155 160.58c-10.45-1.21-14.17 7.44-11.81 10 2.36 2.56 18.36-9.25 11.81-10ZM157.425 140.4c-11.21.21-14.94 15.51-10.79 17 1 .37 5.83-6.51 11.11-6.36 19.21.55 6.9-10.77-.32-10.64Z" fill="#FCD719" style="mix-blend-mode:soft-light"/><path d="M173.755 137.42c-7 2.85-4.07 10-2.06 10.86 2.01.86 7.37 2.28 8.19 0 .82-2.28-1.8-12.62-6.13-10.86ZM135.705 150.28c-5.42 2.28-3.48 14.16.86 14.12 1.31 0 3.58-5.25 7.11-7.86 3.53-2.61-3.46-8.17-7.97-6.26ZM151.275 141.83c-4.23 3.11-.85 3.75 3.78 2.92 4.23-.76 8.15 2.3 8.66.41.51-1.89-4.01-9.55-12.44-3.33Z" fill="#FCD719" style="mix-blend-mode:soft-light"/><path d="M164.505 142.72c4.33 2.56 5.22 10.53 1.76 11.43-3.46.9-7.95-6.53-11.31-7.49-4.12-1.18-5.55 0-6.22-.81-1.69-2.01 8.65-7.34 15.77-3.13ZM141.335 151.32c-4.54-2.5-8.17 5.5-6.11 7.87 2.06 2.37 3.26-3.8 4.5-4.73 1.24-.93 3.36-2.18 1.61-3.14ZM173.425 138.34c3.11-1.34 5.78 4.19 6.27 7.32.49 3.13-4.76 6.24-8-.33-1.16-2.33-.53-6.01 1.73-6.99Z" fill="#FCD719" style="mix-blend-mode:soft-light"/><path d="M161.705 147.69c-11.29-5.34-15.73 4.22-13.55 6.18 3 2.67 1.82-4.16 8.45 1.42 6.63 5.58 10.69-4.94 5.1-7.6Z" fill="#FCD719" style="mix-blend-mode:soft-light"/><path fill-rule="evenodd" clip-rule="evenodd" d="m46.975 183.02 141.95-.39-29.35 28.1-16.3 4.08-2.98 7.29-12.94 4.43-7.82-4.71-3.58-7.28-9.85.01-3.49 10.16-19.26 9.28-9.2-2.58-9.61-14.8-14.77-5.68-2.8-27.91Z" fill="url(#T)"/><path style="mix-blend-mode:multiply" opacity=".5" fill-rule="evenodd" clip-rule="evenodd" d="m49.165 204.82 10.97 1.98 4.41 9.81 4.41-10.1 12.96.38 1.44 27.1 19.26-9.28 3.49-10.16 9.85-.01 3.58 7.28 7.82 4.71 12.94-4.43 2.98-7.29 16.3-4.08 29.35-28.1-142.64-3.24 2.88 25.43Z" fill="url(#U)"/><path style="mix-blend-mode:multiply" opacity=".5" fill-rule="evenodd" clip-rule="evenodd" d="m48.915 202.3 15.82.45.97 11.25 3.27-7.48 13 .38 8.68-3.12 7.05-4.22 8.44 15h9.85l-1.9-10.1 13.1 5.33.2 16.76 12.94-4.43 3-7.29 3.37-14.15s14.28-.48 14.2.39c-.08.87-1.33 9.66-1.33 9.66l29.35-28.11-142.64-3.23 2.63 22.91Z" fill="url(#V)"/><path style="mix-blend-mode:multiply" opacity=".5" fill-rule="evenodd" clip-rule="evenodd" d="m68.955 206.51 7.28-12.91 10.69-5.71 1.89-5.89-20.34.34.48 24.17Z" fill="url(#W)"/><path style="mix-blend-mode:multiply" opacity=".5" fill-rule="evenodd" clip-rule="evenodd" d="m115.955 214.54-1.9-10.1 6.38-10.48-21.04-3.79-1.73 9.39 8.44 14.99 9.85-.01Z" fill="url(#X)"/><path style="mix-blend-mode:multiply" opacity=".5" fill-rule="evenodd" clip-rule="evenodd" d="m178.965 192.16-31.32-5.62-.68 10.21-19.81 13.02.2 16.76 12.94-4.43 2.98-7.29 16.3-4.08 19.39-18.57Z" fill="url(#Y)"/><path fill-rule="evenodd" clip-rule="evenodd" d="m194.325 195.64-17.83 6.26-25.12-10.73-.41 5.64-23.81-2.1-1.31-.11-40.77-3.59 1.35-4.73-9.37 1.04-11.07 8.98-19.18 5.94-11.95-7.83-5.29-25.82 4.27-1.85-6.63-14.95 11.73-1.9 47.6 12.35 5.5 9.02 34.07-.3.13.11 1.06.91v-1.02l-.02-.01h.02l13.87-.13 1.16-11.56 41.77-8.56-1.6-4.69 9.52 14.45-7.41 17.19 8.13 2.19 1.59 15.8Z" fill="url(#Z)"/><path fill-rule="evenodd" clip-rule="evenodd" d="m38.935 149.89 47.6 12.35-2.05 3.53-13.37 1.97-43.91-15.95 11.73-1.9Z" fill="url(#aa)"/><path fill-rule="evenodd" clip-rule="evenodd" d="m142.325 159.26 13.01 2.49 28.76-11.05-1.6-4.69-1.51-.02-1.65 3.6-37.01 9.67Z" fill="url(#ab)"/><path fill-rule="evenodd" clip-rule="evenodd" d="m152.425 176.96-15.63-.34-1.8 3.37-2.37-3.46-43.06-.92 2.47-4.35 34.07-.3.13.11 1.06.91v-1.02l-.02-.01h.02l13.87-.13 11.26 6.14Z" fill="url(#ac)"/><path style="mix-blend-mode:multiply" opacity=".5" fill-rule="evenodd" clip-rule="evenodd" d="m34.855 194.41 27.53-4.29-.02-13.14-32.8-8.39 4.27-1.85 37.04 8.47.24-7.47 13.37-1.97 5.08 9.84 43.06.92 2.37 3.46 1.8-3.37 9.47.21 6.16.13.1 10.91 3.44-19.61-.63-6.51 28.76-11.05-1.6-4.69 9.52 14.45-7.41 17.19-25.12 9.03 14.86 1.44 18.39-8.28 1.59 15.8-17.83 6.26-25.12-10.73-.41 5.64-65.89-5.8 1.35-4.73-9.37 1.04-11.07 8.98-19.18 5.94-11.95-7.83Z" fill="url(#ad)"/><path style="mix-blend-mode:multiply" opacity=".5" fill-rule="evenodd" clip-rule="evenodd" d="m65.985 196.3-3.6-6.18-.02-13.14-27.22-9.94 35.73 8.17 15.55 11.07 3.14-10.67-3.14 10.67-9.37 1.04-11.07 8.98Z" fill="url(#ae)"/><path style="mix-blend-mode:multiply" opacity=".5" fill-rule="evenodd" clip-rule="evenodd" d="m155.965 168.26 36.05-7.8-7.41 17.19 5.91 1.59-24.38 8.05 8.21.83 2.15 13.78-25.12-10.73 1.15-3.3 3.44-19.61Z" fill="url(#af)"/><path style="mix-blend-mode:multiply" opacity=".5" fill-rule="evenodd" clip-rule="evenodd" d="m77.055 187.32-9.26-10.5-8.33-4.22 11.41 2.61 12.67 9.02 6.02-8.62-4.49 15.4 24.84 2.18 41.05 3.62.41-5.64 19.8 8.46-3.8 3.63-10.79-7.04-9.88 4.46-1.83 5.94-4.81-5.72-21.91-3.2-3.2 5.26-16.54-7.49-26.78 6.27-2.87-4.6-.06-3.05 8.35-6.77Z" fill="url(#ag)"/><path style="mix-blend-mode:multiply" opacity=".5" fill-rule="evenodd" clip-rule="evenodd" d="m126.235 171.07-.13-.11.13.11Z" fill="url(#ah)"/><path style="mix-blend-mode:multiply" opacity=".5" fill-rule="evenodd" clip-rule="evenodd" d="m136.795 176.62-9.64 18.09h-1.36l.05-.11 6.94-17.93-.16-.14-5.33-4.55v-1.02l9.5 5.66Z" fill="url(#ai)"/><path fill-rule="evenodd" clip-rule="evenodd" d="M127.295 170.95v.01l-.02-.01h.02Z" fill="url(#aj)"/><path fill-rule="evenodd" clip-rule="evenodd" d="m126.235 171.07 1.06.91-1.06-.91Z" fill="url(#ak)"/><path style="mix-blend-mode:screen" opacity=".6" fill-rule="evenodd" clip-rule="evenodd" d="m176.495 201.9 17.83-6.26-1.59-15.8-2.22-.6-5.91-1.59 7.41-17.19-9.52-14.45-1.51-.02-1.65 3.6-37.01 9.67-1.16 11.56-49.13.44-5.5-9.02-47.6-12.35-11.73 1.9 6.63 14.95-4.27 1.85 5.29 25.82 11.95 7.83 2-.62.36 3.2.61 6.11 14.77 5.68 9.61 14.8 9.2 2.58 19.26-9.28 3.49-10.16 9.85-.01 3.58 7.28 7.82 4.71 12.94-4.43 2.98-7.29 16.3-4.08 7.8-7.47 3.8-3.63 5.32 2.27Z" fill="url(#al)"/><path d="m110.455 167-13.36-5.25.37-3.89 12.13-1 22.62 1.42-2.5 5.2a623.72 623.72 0 0 1-19.26 3.52Z" fill="url(#am)"/><path d="m123.875 160.7 8.34-2.37-21.43-2.21-13.32 1.76 13.32 4.16 13.09-1.34Z" fill="url(#an)"/><path style="mix-blend-mode:multiply" opacity=".5" d="m110.785 162-.33 5 15.79-2.82 3.47-.67 2.5-5.2s-8 2.36-8.34 2.37c-.34.01-13.09 1.32-13.09 1.32Z" fill="url(#ao)"/><path d="m98.685 158.27 14.84 3.48-2.88 2.48-11.96-5.96Z" fill="#D65429"/><path d="M103.885 158.33c8.34 2.51 7.72 2.9 11 3 3.28.1 13.81-2.12 12.42-2.61-1.39-.49-13.25-2.32-16.15-2.14-2.9.18-11.29.54-7.27 1.75Z" fill="#EBA249" style="mix-blend-mode:soft-light" opacity=".6"/><path style="mix-blend-mode:screen" opacity=".3" fill-rule="evenodd" clip-rule="evenodd" d="M200.705 82c0 1.74-43.43 3.16-97 3.16s-97-1.42-97-3.16c0-1.74 43.44-3.16 97-3.16s97 1.44 97 3.16Z" fill="url(#ap)"/><defs><linearGradient id="c" x1="128.125" y1="131.9" x2="190.895" y2="91.44" gradientUnits="userSpaceOnUse"><stop stop-color="#9B1F27"/><stop offset="1" stop-color="#3D003E"/></linearGradient><linearGradient id="d" x1="159.375" y1="108.745" x2="156.399" y2="177.624" gradientUnits="userSpaceOnUse"><stop stop-color="#3445A1"/><stop offset="1" stop-color="#191E84"/></linearGradient><linearGradient id="e" x1="147.805" y1="106.424" x2="144.721" y2="177.673" gradientUnits="userSpaceOnUse"><stop stop-color="#3445A1"/><stop offset="1" stop-color="#191E84"/></linearGradient><linearGradient id="f" x1="138.773" y1="100.465" x2="135.361" y2="179.298" gradientUnits="userSpaceOnUse"><stop stop-color="#3445A1"/><stop offset="1" stop-color="#191E84"/></linearGradient><linearGradient id="g" x1="131.305" y1="159.96" x2="131.305" y2="87.38" gradientUnits="userSpaceOnUse"><stop stop-color="#fff"/><stop offset="1" stop-color="#191E84"/></linearGradient><linearGradient id="i" x1="89.685" y1="52.57" x2="88.025" y2="70.51" gradientUnits="userSpaceOnUse"><stop stop-color="#FDA902"/><stop offset=".13" stop-color="#FDA402"/><stop offset=".3" stop-color="#FD9402"/><stop offset=".48" stop-color="#FD7A01"/><stop offset=".68" stop-color="#FD5601"/><stop offset=".88" stop-color="#FD2900"/><stop offset="1" stop-color="#FD0C00"/></linearGradient><linearGradient id="j" x1="104.235" y1="62.66" x2="104.235" y2="109.79" gradientUnits="userSpaceOnUse"><stop stop-color="#FDA902"/><stop offset=".13" stop-color="#FDA402"/><stop offset=".3" stop-color="#FD9402"/><stop offset=".48" stop-color="#FD7A01"/><stop offset=".68" stop-color="#FD5601"/><stop offset=".88" stop-color="#FD2900"/><stop offset="1" stop-color="#FD0C00"/></linearGradient><linearGradient id="k" x1="102.935" y1="100.54" x2="105.295" y2="61.93" gradientUnits="userSpaceOnUse"><stop stop-color="#fff"/><stop offset="1" stop-color="#E75A29"/></linearGradient><linearGradient id="l" x1="105.325" y1="136.17" x2="103.435" y2="126.83" gradientUnits="userSpaceOnUse"><stop stop-color="#FDA902"/><stop offset=".99" stop-color="#FD0C00"/></linearGradient><linearGradient id="m" x1="106.415" y1="134.36" x2="106.415" y2="119.13" gradientUnits="userSpaceOnUse"><stop stop-color="#FDA902"/><stop offset=".99" stop-color="#FD0C00"/></linearGradient><linearGradient id="n" x1="95.615" y1="44.62" x2="98.205" y2="62.74" gradientUnits="userSpaceOnUse"><stop stop-color="#FDA902"/><stop offset=".99" stop-color="#FD0C00"/></linearGradient><linearGradient id="o" x1="94.505" y1="44.19" x2="97.305" y2="63.81" gradientUnits="userSpaceOnUse"><stop stop-color="#FDA902"/><stop offset=".99" stop-color="#FD0C00"/></linearGradient><linearGradient id="p" x1="94.985" y1="44.71" x2="97.575" y2="62.83" gradientUnits="userSpaceOnUse"><stop stop-color="#FDA902"/><stop offset=".99" stop-color="#FD0C00"/></linearGradient><linearGradient id="q" x1="113.485" y1="110.04" x2="113.485" y2="107.73" gradientUnits="userSpaceOnUse"><stop stop-color="#FDA902"/><stop offset=".99" stop-color="#FD0C00"/></linearGradient><linearGradient id="r" x1="100.005" y1="107.54" x2="101.075" y2="90.13" gradientUnits="userSpaceOnUse"><stop stop-color="#fff"/><stop offset="1" stop-color="#E75A29"/></linearGradient><linearGradient id="s" x1="99.065" y1="95.43" x2="98.905" y2="104.3" gradientUnits="userSpaceOnUse"><stop stop-color="#F70715"/><stop offset="1" stop-color="#D01C5C"/></linearGradient><linearGradient id="t" x1="108.155" y1="55.65" x2="102.605" y2="65.57" gradientUnits="userSpaceOnUse"><stop stop-color="#fff"/><stop offset="1" stop-color="#E75A29"/></linearGradient><linearGradient id="u" x1="89.815" y1="71.96" x2="92.685" y2="61.14" gradientUnits="userSpaceOnUse"><stop stop-color="#fff"/><stop offset="1" stop-color="#E75A29"/></linearGradient><linearGradient id="v" x1="113.385" y1="59.29" x2="107.715" y2="69.44" gradientUnits="userSpaceOnUse"><stop stop-color="#fff"/><stop offset="1" stop-color="#E75A29"/></linearGradient><linearGradient id="w" x1="101.195" y1="82.51" x2="94.005" y2="95.37" gradientUnits="userSpaceOnUse"><stop stop-color="#fff"/><stop offset="1" stop-color="#E75A29"/></linearGradient><linearGradient id="x" x1="112.555" y1="87.41" x2="106.325" y2="98.54" gradientUnits="userSpaceOnUse"><stop stop-color="#fff"/><stop offset="1" stop-color="#E75A29"/></linearGradient><linearGradient id="y" x1="92.215" y1="84.41" x2="97.025" y2="104.57" gradientUnits="userSpaceOnUse"><stop stop-color="#fff"/><stop offset="1" stop-color="#E75A29"/></linearGradient><linearGradient id="z" x1="102.175" y1="74.87" x2="103.985" y2="82.44" gradientUnits="userSpaceOnUse"><stop stop-color="#fff"/><stop offset="1" stop-color="#E75A29"/></linearGradient><linearGradient id="A" x1="101.255" y1="118.76" x2="111.685" y2="118.76" gradientUnits="userSpaceOnUse"><stop stop-color="#FDA902"/><stop offset=".99" stop-color="#FD0C00"/></linearGradient><linearGradient id="B" x1="101.515" y1="118" x2="110.735" y2="118" gradientUnits="userSpaceOnUse"><stop stop-color="#fff"/><stop offset="1" stop-color="#E75A29"/></linearGradient><linearGradient id="C" x1="102.645" y1="129.4" x2="105.585" y2="129.4" gradientUnits="userSpaceOnUse"><stop stop-color="#fff"/><stop offset="1" stop-color="#E75A29"/></linearGradient><linearGradient id="D" x1="101.565" y1="115.17" x2="111.195" y2="115.17" gradientUnits="userSpaceOnUse"><stop stop-color="#FDA902"/><stop offset=".99" stop-color="#FD0C00"/></linearGradient><linearGradient id="F" x1="86.325" y1="153.37" x2="88.325" y2="144.04" gradientUnits="userSpaceOnUse"><stop stop-color="#9B1F27"/><stop offset="1" stop-color="#3D003E"/></linearGradient><linearGradient id="G" x1="97.245" y1="149.07" x2="97.025" y2="143.09" gradientUnits="userSpaceOnUse"><stop stop-color="#B61922"/><stop offset="1" stop-color="#45003D"/></linearGradient><linearGradient id="H" x1="91.895" y1="178.06" x2="91.895" y2="138.59" gradientUnits="userSpaceOnUse"><stop stop-color="#8D092D"/><stop offset="1" stop-color="#FD5925"/></linearGradient><linearGradient id="I" x1="102.645" y1="145.43" x2="88.095" y2="149.71" gradientUnits="userSpaceOnUse"><stop stop-color="#F70715"/><stop offset="1" stop-color="#882785"/></linearGradient><linearGradient id="J" x1="76.615" y1="155.58" x2="128.215" y2="155.58" gradientUnits="userSpaceOnUse"><stop stop-color="#B61922"/><stop offset="1" stop-color="#45003D"/></linearGradient><linearGradient id="K" x1="125.815" y1="154.12" x2="87.785" y2="158.9" gradientUnits="userSpaceOnUse"><stop stop-color="#F70715"/><stop offset="1" stop-color="#882785"/></linearGradient><linearGradient id="L" x1="102.415" y1="178.06" x2="102.415" y2="138.59" gradientUnits="userSpaceOnUse"><stop stop-color="#8D092D"/><stop offset="1" stop-color="#FD5925"/></linearGradient><linearGradient id="M" x1="106.675" y1="209.69" x2="102.665" y2="65.28" gradientUnits="userSpaceOnUse"><stop stop-color="#900"/><stop offset=".08" stop-color="#8D0000"/><stop offset=".71" stop-color="#280000"/><stop offset="1"/></linearGradient><linearGradient id="N" x1="72.423" y1="159.015" x2="34.617" y2="118.768" gradientUnits="userSpaceOnUse"><stop stop-color="#9B1F27"/><stop offset="1" stop-color="#3D003E"/></linearGradient><linearGradient id="O" x1="62.699" y1="124.033" x2="62.479" y2="181.538" gradientUnits="userSpaceOnUse"><stop stop-color="#3445A1"/><stop offset="1" stop-color="#191E84"/></linearGradient><linearGradient id="P" x1="44.261" y1="123.964" x2="44.05" y2="181.468" gradientUnits="userSpaceOnUse"><stop stop-color="#3445A1"/><stop offset="1" stop-color="#191E84"/></linearGradient><linearGradient id="Q" x1="53.205" y1="124.001" x2="52.994" y2="181.505" gradientUnits="userSpaceOnUse"><stop stop-color="#3445A1"/><stop offset="1" stop-color="#191E84"/></linearGradient><linearGradient id="R" x1="140.405" y1="137.64" x2="153.755" y2="178.75" gradientUnits="userSpaceOnUse"><stop stop-color="#FDA902"/><stop offset=".99" stop-color="#FD0C00"/></linearGradient><linearGradient id="S" x1="89.965" y1="178.03" x2="71.555" y2="140.73" gradientUnits="userSpaceOnUse"><stop stop-color="#FDA902"/><stop offset=".99" stop-color="#FD0C00"/></linearGradient><linearGradient id="T" x1="46.975" y1="208.31" x2="188.925" y2="208.31" gradientUnits="userSpaceOnUse"><stop stop-color="#9B1F27"/><stop offset="1" stop-color="#3D003E"/></linearGradient><linearGradient id="U" x1="111.205" y1="250.84" x2="116.485" y2="193.23" gradientUnits="userSpaceOnUse"><stop stop-color="#3445A1"/><stop offset="1" stop-color="#191E84"/></linearGradient><linearGradient id="V" x1="112.495" y1="236.76" x2="116.785" y2="190.01" gradientUnits="userSpaceOnUse"><stop stop-color="#3445A1"/><stop offset="1" stop-color="#191E84"/></linearGradient><linearGradient id="W" x1="68.475" y1="194.25" x2="88.815" y2="194.25" gradientUnits="userSpaceOnUse"><stop stop-color="#3445A1"/><stop offset="1" stop-color="#191E84"/></linearGradient><linearGradient id="X" x1="97.665" y1="202.36" x2="120.435" y2="202.36" gradientUnits="userSpaceOnUse"><stop stop-color="#3445A1"/><stop offset="1" stop-color="#191E84"/></linearGradient><linearGradient id="Y" x1="127.155" y1="206.53" x2="178.965" y2="206.53" gradientUnits="userSpaceOnUse"><stop stop-color="#3445A1"/><stop offset="1" stop-color="#191E84"/></linearGradient><linearGradient id="Z" x1="27.205" y1="174.12" x2="194.325" y2="174.12" gradientUnits="userSpaceOnUse"><stop stop-color="#9B1F27"/><stop offset="1" stop-color="#3D003E"/></linearGradient><linearGradient id="aa" x1="56.875" y1="214.68" x2="56.875" y2="121.98" gradientUnits="userSpaceOnUse"><stop stop-color="#791130"/><stop offset="1" stop-color="#DD592D"/></linearGradient><linearGradient id="ab" x1="163.205" y1="214.68" x2="163.205" y2="121.98" gradientUnits="userSpaceOnUse"><stop stop-color="#791130"/><stop offset="1" stop-color="#DD592D"/></linearGradient><linearGradient id="ac" x1="120.995" y1="236.37" x2="120.995" y2="97.84" gradientUnits="userSpaceOnUse"><stop stop-color="#791130"/><stop offset="1" stop-color="#DD592D"/></linearGradient><linearGradient id="ad" x1="29.565" y1="174.12" x2="194.325" y2="174.12" gradientUnits="userSpaceOnUse"><stop stop-color="#3445A1"/><stop offset="1" stop-color="#191E84"/></linearGradient><linearGradient id="ae" x1="35.145" y1="181.67" x2="89.565" y2="181.67" gradientUnits="userSpaceOnUse"><stop stop-color="#3445A1"/><stop offset="1" stop-color="#191E84"/></linearGradient><linearGradient id="af" x1="151.375" y1="181.18" x2="192.015" y2="181.18" gradientUnits="userSpaceOnUse"><stop stop-color="#3445A1"/><stop offset="1" stop-color="#191E84"/></linearGradient><linearGradient id="ag" x1="113.155" y1="207.02" x2="115.395" y2="185.38" gradientUnits="userSpaceOnUse"><stop stop-color="#3445A1"/><stop offset="1" stop-color="#191E84"/></linearGradient><linearGradient id="ah" x1="126.165" y1="171.07" x2="126.165" y2="170.99" gradientUnits="userSpaceOnUse"><stop stop-color="#3445A1"/><stop offset="1" stop-color="#191E84"/></linearGradient><linearGradient id="ai" x1="129.755" y1="195.96" x2="131.665" y2="177.47" gradientUnits="userSpaceOnUse"><stop stop-color="#3445A1"/><stop offset="1" stop-color="#191E84"/></linearGradient><linearGradient id="aj" x1="127.285" y1="170.96" x2="127.285" y2="170.95" gradientUnits="userSpaceOnUse"><stop stop-color="#3445A1"/><stop offset="1" stop-color="#191E84"/></linearGradient><linearGradient id="ak" x1="126.725" y1="171.95" x2="126.785" y2="171.33" gradientUnits="userSpaceOnUse"><stop stop-color="#3445A1"/><stop offset="1" stop-color="#191E84"/></linearGradient><linearGradient id="al" x1="110.765" y1="243.63" x2="110.765" y2="194.82" gradientUnits="userSpaceOnUse"><stop stop-color="#3D56FD"/><stop offset="1"/></linearGradient><linearGradient id="am" x1="97.095" y1="161.96" x2="132.215" y2="161.96" gradientUnits="userSpaceOnUse"><stop stop-color="#B61922"/><stop offset="1" stop-color="#45003D"/></linearGradient><linearGradient id="an" x1="114.845" y1="178.06" x2="114.845" y2="138.59" gradientUnits="userSpaceOnUse"><stop stop-color="#8D092D"/><stop offset="1" stop-color="#FD5925"/></linearGradient><linearGradient id="ao" x1="131.545" y1="162.14" x2="124.715" y2="162.5" gradientUnits="userSpaceOnUse"><stop stop-color="#F70715"/><stop offset="1" stop-color="#882785"/></linearGradient><radialGradient id="a" cx="0" cy="0" r="1" gradientUnits="userSpaceOnUse" gradientTransform="matrix(106.74 0 0 98.2008 107.445 171.537)"><stop stop-color="#173CFF"/><stop offset=".25" stop-color="#122EC4"/><stop offset=".82" stop-color="#040B30"/><stop offset="1"/></radialGradient><radialGradient id="b" cx="0" cy="0" r="1" gradientUnits="userSpaceOnUse" gradientTransform="translate(108.555 106.74) scale(106.74)"><stop stop-color="#E54136"/><stop offset=".28" stop-color="#AA3028"/><stop offset=".91" stop-color="#160605"/><stop offset="1"/></radialGradient><radialGradient id="h" cx="0" cy="0" r="1" gradientUnits="userSpaceOnUse" gradientTransform="matrix(58.206 0 0 55.536 106.746 89.753)"><stop stop-color="#FD3800"/><stop offset=".12" stop-color="#D12E00"/><stop offset=".3" stop-color="#922000"/><stop offset=".47" stop-color="#5E1500"/><stop offset=".64" stop-color="#350C00"/><stop offset=".78" stop-color="#180500"/><stop offset=".91" stop-color="#060100"/><stop offset="1"/></radialGradient><radialGradient id="E" cx="0" cy="0" r="1" gradientUnits="userSpaceOnUse" gradientTransform="matrix(19.722 0 0 27.6108 105.088 87.506)"><stop stop-color="#EFE332"/><stop offset=".08" stop-color="#D1C62C"/><stop offset=".27" stop-color="#928B1F"/><stop offset=".45" stop-color="#5E5914"/><stop offset=".62" stop-color="#35330B"/><stop offset=".77" stop-color="#181705"/><stop offset=".9" stop-color="#060601"/><stop offset="1"/></radialGradient><radialGradient id="ap" cx="0" cy="0" r="1" gradientUnits="userSpaceOnUse" gradientTransform="matrix(97.0278 0 0 3.2752 103.753 245.06)"><stop stop-color="#E54136"/><stop offset=".15" stop-color="#BB352C"/><stop offset=".46" stop-color="#6B1E19"/><stop offset=".71" stop-color="#310E0C"/><stop offset=".9" stop-color="#0E0403"/><stop offset="1"/></radialGradient></defs></svg>