<svg width="238" height="267" viewBox="0 0 238 267" fill="none" xmlns="http://www.w3.org/2000/svg"><path style="mix-blend-mode:screen" opacity=".3" d="M178.38 207.62c32.795-32.795 32.795-85.965 0-118.76-32.795-32.794-85.965-32.794-118.76 0-32.794 32.795-32.794 85.965 0 118.76 32.795 32.795 85.965 32.795 118.76 0Z" fill="url(#a)"/><path style="mix-blend-mode:color-dodge" opacity=".3" d="M77.693 198.93c23.792 0 43.079-33.793 43.079-75.478 0-41.686-19.287-75.478-43.079-75.478s-43.079 33.792-43.079 75.478c0 41.685 19.287 75.478 43.08 75.478Z" fill="url(#b)"/><path style="mix-blend-mode:color-dodge" opacity=".3" d="M123.682 69.292c12.756-12.757 12.756-33.439 0-46.195-12.757-12.756-33.439-12.756-46.195 0s-12.756 33.438 0 46.195c12.757 12.756 33.438 12.756 46.195 0Z" fill="url(#c)"/><defs><radialGradient id="a" cx="0" cy="0" r="1" gradientUnits="userSpaceOnUse" gradientTransform="translate(118.995 148.244) scale(83.9759)"><stop stop-color="#173CFF"/><stop offset=".25" stop-color="#122EC4"/><stop offset=".82" stop-color="#040B30"/><stop offset="1"/></radialGradient><radialGradient id="b" cx="0" cy="0" r="1" gradientUnits="userSpaceOnUse" gradientTransform="matrix(43.0492 0 0 75.6496 77.694 117.911)"><stop stop-color="#AFAF33"/><stop offset=".12" stop-color="#A6A630"/><stop offset=".3" stop-color="#8E8E29"/><stop offset=".53" stop-color="#66661E"/><stop offset=".79" stop-color="#2F2F0E"/><stop offset="1"/></radialGradient><radialGradient id="c" cx="0" cy="0" r="1" gradientUnits="userSpaceOnUse" gradientTransform="translate(100.584 46.195) scale(32.6644)"><stop stop-color="#AFAF33"/><stop offset=".12" stop-color="#A6A630"/><stop offset=".3" stop-color="#8E8E29"/><stop offset=".53" stop-color="#66661E"/><stop offset=".79" stop-color="#2F2F0E"/><stop offset="1"/></radialGradient></defs></svg>