<svg width="238" height="267" viewBox="0 0 238 267" fill="none" xmlns="http://www.w3.org/2000/svg"><path style="mix-blend-mode:screen" opacity=".3" d="M178.38 207.62c32.795-32.795 32.795-85.965 0-118.76-32.795-32.794-85.965-32.794-118.76 0-32.794 32.795-32.794 85.965 0 118.76 32.795 32.795 85.965 32.795 118.76 0Z" fill="url(#a)"/><path fill-rule="evenodd" clip-rule="evenodd" d="M186.067 118.497a17.117 17.117 0 0 1-6.803 4.784c-1.28.515-2.607.902-3.963 1.155a17.186 17.186 0 0 1-3.166.351 21.972 21.972 0 0 1 2.756-7.129c5.254-8.557 14.916-9.542 14.916-9.542s1.463 4.271-3.74 10.381Z" fill="url(#b)"/><path fill-rule="evenodd" clip-rule="evenodd" d="M175.678 109.315a92.363 92.363 0 0 1-2.627 5.322 28.345 28.345 0 0 1-2.431 3.971 30.319 30.319 0 0 1 .505-7.402c1.532-7.762 5.768-11.527 5.768-11.527s1.84 2.969-1.215 9.636Z" fill="url(#c)"/><path fill-rule="evenodd" clip-rule="evenodd" d="M174.343 92.114c0 .051-1.027 1.917-2.499 9.687a133.18 133.18 0 0 0-1.412 9.353c-.445 3.817-.582 6.367-.582 6.367a33.462 33.462 0 0 1-2.225-7.239 26.355 26.355 0 0 1-.299-1.943c-.668-5.58.257-12.323 7.017-16.225Z" fill="url(#d)"/><path style="mix-blend-mode:multiply" opacity=".5" fill-rule="evenodd" clip-rule="evenodd" d="M186.067 118.497a18.59 18.59 0 0 1-10.766 5.939l-2.19-1.087s5.75-7.265 16.696-15.233c.008 0 1.463 4.271-3.74 10.381Z" fill="url(#e)"/><path style="mix-blend-mode:multiply" opacity=".5" fill-rule="evenodd" clip-rule="evenodd" d="M170.432 111.154c-.445 3.817-.582 6.367-.582 6.367a33.462 33.462 0 0 1-2.225-7.239c.052 0 .052 0 0 0a26.355 26.355 0 0 1-.299-1.943 41.51 41.51 0 0 1 1.805-5.237s.386 6.598 1.104 7.847a.604.604 0 0 0 .197.205Z" fill="url(#f)"/><path style="mix-blend-mode:multiply" opacity=".5" fill-rule="evenodd" clip-rule="evenodd" d="M173.051 114.637a28.345 28.345 0 0 1-2.431 3.971 30.319 30.319 0 0 1 .505-7.402c1.233-.274 3.132-1.951 3.192-2.003-.06.077-2.25 3.072-1.266 5.434Z" fill="url(#g)"/><path style="mix-blend-mode:multiply" opacity=".5" fill-rule="evenodd" clip-rule="evenodd" d="M179.272 123.281a20.84 20.84 0 0 1-3.962 1.155 17.186 17.186 0 0 1-3.166.351 21.992 21.992 0 0 1 2.755-7.129c.659.642 1.489.856 2.953.582 0 0-2.91 3.851 1.42 5.041Z" fill="url(#h)"/><path fill-rule="evenodd" clip-rule="evenodd" d="M157.322 74.75c.453-11.244 12.768-14.394 12.768-14.394L157.322 74.75Z" fill="url(#i)"/><path fill-rule="evenodd" clip-rule="evenodd" d="M170.723 78.456c-5.357 1.266-12.896-1.335-12.896-1.335 3.859-7.24 15.044-7 17.629-6.846-.043-.026.342 6.983-4.733 8.18Z" fill="url(#j)"/><path style="mix-blend-mode:multiply" opacity=".5" fill-rule="evenodd" clip-rule="evenodd" d="M170.723 78.456c-5.357 1.266-12.896-1.335-12.896-1.335 9.105.171 17.629-6.846 17.629-6.846s.342 6.983-4.733 8.18Z" fill="url(#k)"/><path fill-rule="evenodd" clip-rule="evenodd" d="M110.666 32.459a65.705 65.705 0 0 1-2.379 8.12 71.668 71.668 0 0 1-3.423 8.053l-.274.163a37.173 37.173 0 0 1-1.232-11.784c.633-11.279 7.898-18.998 8.557-18.92.659.076 1.001 4.09-1.249 14.368Z" fill="url(#l)"/><path fill-rule="evenodd" clip-rule="evenodd" d="M110.88 21.043c-6.453 12.083-6.307 27.752-6.307 27.752l.274-.163a81.645 81.645 0 0 1 1.206-11.578 79 79 0 0 1 4.827-16.011Z" fill="#1616A6" style="mix-blend-mode:multiply" opacity=".33"/><path style="mix-blend-mode:multiply" opacity=".5" fill-rule="evenodd" clip-rule="evenodd" d="M108.287 40.58a71.66 71.66 0 0 1-3.423 8.052l-.274.163a37.172 37.172 0 0 1-1.232-11.784c.219-.49.526-.937.907-1.318 3.235-3.038 3.928 1.635 4.022 4.887Z" fill="url(#m)"/><path fill-rule="evenodd" clip-rule="evenodd" d="m99.858 50.823-1.43.043s-.855-.787-2.08-2.02c-3.568-3.534-9.832-12.109-9.78-12.836.05-.727 6.418-.35 9.601 2.91.237.241.46.495.668.761 2.798 3.629 3.02 11.142 3.02 11.142Z" fill="url(#n)"/><path fill-rule="evenodd" clip-rule="evenodd" d="M89.366 36.635c8.07 1.412 10.526 14.171 10.526 14.171h-.65a22.892 22.892 0 0 0-4.416-9.413c-3.603-4.16-5.46-4.758-5.46-4.758Z" fill="#1616A6" style="mix-blend-mode:multiply" opacity=".33"/><path style="mix-blend-mode:multiply" opacity=".5" fill-rule="evenodd" clip-rule="evenodd" d="m99.858 50.823-1.43.043s-.855-.787-2.08-2.02c-.855-3.534-1.762-8.968-.179-9.943.237.241.46.495.668.761 2.798 3.646 3.02 11.16 3.02 11.16Z" fill="url(#o)"/><path fill-rule="evenodd" clip-rule="evenodd" d="M103.204 43.746c-1.37 6.307-2.662 7.06-2.662 7.06h-1.215a19.945 19.945 0 0 1-1.42-5.134v-.069c-.591-4.168-.103-8.558 1.163-11.056 1.909-3.783 4.279-4.587 4.793-4.382.248.103.462.907.547 2.31a44.722 44.722 0 0 1-1.206 11.271Z" fill="#C3AF00"/><path fill-rule="evenodd" clip-rule="evenodd" d="M101.509 32.596c-3.585 5.844-1.934 18.236-1.934 18.236h.42a60.995 60.995 0 0 1-.189-8.558c.07-3.294.644-6.558 1.703-9.678Z" fill="#1616A6" style="mix-blend-mode:multiply" opacity=".33"/><path style="mix-blend-mode:screen" opacity=".8" fill-rule="evenodd" clip-rule="evenodd" d="M103.186 31.132c-1.771 1.951-3.346 4.279-2.712 9.525.599 4.895 2.062 1.609 2.747-2.32.693-4.124.975-8.317-.035-7.205Z" fill="url(#p)"/><path fill-rule="evenodd" clip-rule="evenodd" d="M101.458 34.538c1.206 1.54-.736 2.567-.736 2.567l.736-2.567Z" fill="#fff"/><path style="mix-blend-mode:multiply" opacity=".5" fill-rule="evenodd" clip-rule="evenodd" d="M103.204 43.746c-1.37 6.307-2.662 7.06-2.662 7.06h-1.215a19.945 19.945 0 0 1-1.42-5.134c.162 1 1.086 1.232 1.377-4.082l.582-.411s-.856 7.993 1.275 5.502c2.131-2.49 3.252-14.205 3.252-14.205a44.762 44.762 0 0 1-1.189 11.27Z" fill="url(#q)"/><path fill-rule="evenodd" clip-rule="evenodd" d="M51.242 148.637a80.829 80.829 0 0 0 10.337 20.538c7.249 10.372 9.585 8.07 12.05 5.237 2.464-2.832 3.808-11.878 3.808-11.878H76.22s-1.07 14.103-6.187 13.889c-5.117-.214-15.318-19.811-16.738-27.17-1.421-7.36-.291-.659-.291-.659l-1.763.043Z" fill="url(#r)"/><path fill-rule="evenodd" clip-rule="evenodd" d="M137.425 171.468c1.652 11.981 6.384 22.601 12.375 23.791 5.99 1.189 12.057-9.106 14.146-17.261 2.088-8.155 3.294-13.495 3.294-13.495h-1.121s-2.173 23.867-13.495 28.282c-6.153 2.405-11.219-1.711-13.906-20.906l-1.293-.411Z" fill="url(#s)"/><path fill-rule="evenodd" clip-rule="evenodd" d="M176.654 148.38c-.779 15.404-4.604 32.168-8.301 33.768-3.697 1.601-7.463-3.252-9.003-10.859l.71.565s1.909 7.65 5.691 9.156c3.021 1.198 5.931-4.022 7.959-12.716 2.028-8.695 1.463-19.897 1.463-19.897l1.481-.017Z" fill="url(#t)"/><path fill-rule="evenodd" clip-rule="evenodd" d="M66.423 169.124c2.037.907 14.976 5.246 14.976 5.246l14.993.376 18.424 9.576s20.838-2.233 21.112-2.447c.274-.214 6.238-8.096 6.238-8.096s22.969-5.477 25.844-6.752l-48.915-4.861-34.864.625-17.808 6.333Z" fill="url(#u)"/><path fill-rule="evenodd" clip-rule="evenodd" d="M66.423 169.124s-11.98-15.515-15.104-24.27c0 0 62.941 1.866 80.51 2.131 17.295.265 48.239-2.661 48.239-2.661s-6.504 11.125-12.058 22.703c0 0-16.439 3.996-21.394 3.954l-3.252-2.705s-13.247 4.759-21.214 8.182c0 0-11.904 1.369-13.692 1.103 0 0-7.206-3.91-11.459-6.204l-.607-4.587-9.85-2.31.47 3.149s-11.946 2.285-20.589 1.515Z" fill="url(#v)"/><path fill-rule="evenodd" clip-rule="evenodd" d="M66.423 169.124c1.54 1.797 19.255-2.277 19.34-2.91.086-.633-8.498-17.971-11.715-18.733-3.218-.761-22.181-2.567-22.301-1.523-.12 1.044 10.115 17.869 14.676 23.166Z" fill="url(#w)"/><path fill-rule="evenodd" clip-rule="evenodd" d="M78.677 149.938c.36.855 5.58 8.848 6.367 9.148.788.299 10.32-.582 10.629-1.952.308-1.369.95-6.221-.069-6.683-1.018-.462-17.269-1.301-16.927-.513Z" fill="url(#x)"/><path fill-rule="evenodd" clip-rule="evenodd" d="M86.38 162.962c.41.942 8.292 2.841 8.822 2.208.53-.633.924-5.734.206-6.187-.72-.454-8.943.787-9.2 1.181a3.91 3.91 0 0 0 .171 2.798Z" fill="url(#y)"/><path fill-rule="evenodd" clip-rule="evenodd" d="M97.564 162.064c-.24 1.052-.488 7.701.086 8.84.573 1.138 10.209 5.605 11.048 5.845.838.239 18.612-9.671 18.826-10.834.214-1.164.702-4.579-.599-5.255-1.3-.676-29.173.556-29.36 1.404Z" fill="url(#z)"/><path fill-rule="evenodd" clip-rule="evenodd" d="M97.675 158.949c-.265-2.961.069-9.576.59-10.269.523-.694 29.764-1.344 29.952.393.189 1.737.283 9.285-.701 10.055-.984.771-29.712 1.198-29.84-.179Z" fill="url(#A)"/><path fill-rule="evenodd" clip-rule="evenodd" d="M129.133 151.238c-.128 1.138-.351 14.24.274 14.694.625.453 8.763 3.5 9.328 3.423a22.625 22.625 0 0 0 4.398-2.645c.48-.522 3.629-18.116 2.85-18.261-.779-.146-16.627.735-16.85 2.789Z" fill="url(#B)"/><path fill-rule="evenodd" clip-rule="evenodd" d="M112.009 176.757c.411.325 10.595-1.429 16.166-3.372.547-.188 8.326-3.303 7.907-3.705-.419-.402-6.256-2.781-7.342-2.713-1.087.069-17.124 9.482-16.731 9.79Z" fill="url(#C)"/><path fill-rule="evenodd" clip-rule="evenodd" d="M150.057 159.864c-.531.959-3.424 10.791-3.03 10.783.394-.009 14.18-2.687 14.086-3.184-.094-.496-3.577-7.83-4.279-8.069-.702-.24-6.273-.488-6.777.47Z" fill="url(#D)"/><path fill-rule="evenodd" clip-rule="evenodd" d="M149.988 158.435c.103.608 5.657-.428 6.324-.95.668-.522 2.85-8.669 2.191-9.216-.659-.548-6.795-.779-6.949.128-.154.907-1.677 9.328-1.566 10.038Z" fill="url(#E)"/><path fill-rule="evenodd" clip-rule="evenodd" d="M158.332 158.623c.12.856 3.2 8.798 3.543 8.892a20.466 20.466 0 0 0 5.203-1.318c.761-.496 11.125-18.416 11.364-19.229.24-.813-17.115-.154-17.509.813-.393.967-2.747 9.721-2.601 10.842Z" fill="url(#F)"/><path style="mix-blend-mode:multiply" opacity=".7" d="M56.034 153.874c31.45-.633 41.522-1.883 41.522-1.883l-.488 6.247s35.942-3.32 49.779-7.41l-3.2 18.133-21.531 7.539-13.692 1.104-11.459-6.204-.608-4.587-5.707.753-3.689.086-5.562 6.76 14.993.377 18.424 9.576 21.112-2.448 6.238-8.095 25.844-6.752 12.067-22.746-128.365 2.31 4.322 7.24Z" fill="url(#G)"/><path style="mix-blend-mode:multiply" opacity=".7" fill-rule="evenodd" clip-rule="evenodd" d="m86.961 167.609-.47-3.149-10.244-17.586 21.72-.24-1.592 20.419.573 4.304 11.459 6.204-5.683.48-6.34-3.295-14.985-.376-13.838-4.793 19.4-1.968Z" fill="url(#H)"/><path style="mix-blend-mode:multiply" opacity=".7" d="m147.558 146.643-3.928 22.25-8.412 2.952c.282-.094.71 10.012.71 10.012l6.238-8.095 21.198-24.894 9.25-3.492-25.056 1.267Z" fill="url(#I)"/><path style="mix-blend-mode:screen" opacity=".6" fill-rule="evenodd" clip-rule="evenodd" d="m168.01 167.027.283-.522c.727-.762 5.494-10.004 8.215-15.481l3.56-6.7-102.1 1.3c-14.831-.419-26.65-.77-26.65-.77.13.351.275.728.429 1.104.233.798.58 1.559 1.027 2.259a116.026 116.026 0 0 0 8.608 14.009 78.798 78.798 0 0 0 5.041 6.898c.26.222.584.354.924.376 3.586 1.361 14.052 4.87 14.052 4.87l7.496.188 7.497.188 18.424 9.576s20.838-2.234 21.112-2.447c.265-.206 6.187-8.036 6.238-8.096 0 0 22.969-5.477 25.844-6.752Z" fill="url(#J)"/><path fill-rule="evenodd" clip-rule="evenodd" d="M189.73 134.945c-1.447 3.679-9.414 6.332-9.414 6.332a14.547 14.547 0 0 1 6.453 6.726c-1.823 0-5.332-1.454-5.443-1.497.95 1.626 4.741 9.08 3.628 8.746-3.14-.942-14.12-9.029-14.12-9.029-1.335.617-5.228.386-5.228.386-1.096 4.492-2.696 4.013-2.696 4.013a23.372 23.372 0 0 1-3.603-3.312c-.855-.915-1.429-1.66-1.54-1.788l.051.077a.704.704 0 0 1 .069.137.262.262 0 0 1 .043.085c1.086 2.311.701 7.343.333 7.505-1.104.48-3.517-5.639-3.517-5.639-11.655.975-31.663 2.507-31.663 2.507-5.99 5.991-13.256 8.241-15.352 6.761-.967-.685-.976-4.519-.976-4.519-.077.086-2.944 3.269-4.536 2.516-.59-.274 3.424-4.03 3.552-4.133-8.138.898-20.59-2.208-21.702-1.96a.09.09 0 0 0-.052 0c-5.622 2.935-13.11 4.219-13.23 3.423l6.41-4.398s-6.923-1.464-12.528-.856c-5.606.607-18.356 6.067-18.322 4.578a18.453 18.453 0 0 1 2.328-7.625c-1.712.505-5.666 0-5.666 0 2.285-2.507 7.026-5.134 9.62-6.435 1.103-.556 1.822-.856 1.822-.856a36.418 36.418 0 0 1 5.023-1.027c3.252-.47 6.94-4.895 6.94-4.895s29.712-5.134 35.206-5.476c5.494-.343 45.57-.488 45.57-.488s14.291 5.211 17.218 6.401l.547.248c3.269 1.626 10.509 7.24 10.509 7.24s1.215-2.405 6.136-3.586 8.506-1.129 8.13-.162Z" fill="url(#K)"/><path fill-rule="evenodd" clip-rule="evenodd" d="m73.611 64.413 7.702 16.61-6.64 2.002a122.784 122.784 0 0 0 3.114 11.981s-18.74 4.947-20.298 7.531c-1.558 2.584-7.873 21.043-7.873 21.043l4.86 13.102 5.024-1.019.128 3.5s13.085 2.568 16.534 2.739l18.972-7.779-2.97-5.605s21.985-3.312 31.663-3.38l24.441 2.302 7.103 1.857-1.96 4.039 16.833 3.834 5.229 1.514 7.462-11.655-9.816-3.646.052-8.943-13.864-4.843 5.452-19.11s-4.091-11.321-8.798-17.748l5.032-19.63s-24.047-13.145-27.384-14.18c-3.338-1.036-16.585-.857-16.585-.857l2.918 11.716s-5.425-2.576-9.182-2.028c-3.757.547-33.957 12.109-37.149 16.653Z" fill="url(#L)"/><path style="mix-blend-mode:multiply" opacity=".5" fill-rule="evenodd" clip-rule="evenodd" d="M120.507 120.02c-1.309 4.578-16.585.402-16.585.402l8.276 5.46 11.621-.787-3.312-5.075Z" fill="url(#M)"/><path style="mix-blend-mode:multiply" opacity=".5" fill-rule="evenodd" clip-rule="evenodd" d="M79.31 67.998c13.145 9.782 25.186 9.414 25.186 9.414s20.102-5.375 23.619-9.337c0 0 1.788 7.702 5.691 9.277 3.902 1.574 7.59-10.338 7.59-10.338s1.712-6.931 1.31-10.269l-1.027.496s-.617 17.116-6.479 17.415c-5.861.3-5.836-7.436-5.836-7.436s7.916-3.945 9.465-6.376l-59.518 7.154Z" fill="url(#N)"/><path style="mix-blend-mode:multiply" opacity=".5" fill-rule="evenodd" clip-rule="evenodd" d="M75.083 85.002c5.434 10.492 25.194 16.046 25.673 16.046.479 0 8.104 5.802 14.694 3.543 0 0-2.919-8.986-19.075-14.617-15.336-5.331-21.677-6.949-21.677-6.949l.385 1.977Z" fill="url(#O)"/><path style="mix-blend-mode:multiply" opacity=".5" fill-rule="evenodd" clip-rule="evenodd" d="M56.488 105.096a11.648 11.648 0 0 0 2.37-.445s-1.977 5.819-.65 6.906c1.326 1.086 41.795-4.596 36.951-6.333-.855-.317-23.422-2.379-23.422-2.379l-10.08-2.174-5.512 3.423.343 1.002Z" fill="url(#P)"/><path style="mix-blend-mode:multiply" opacity=".5" fill-rule="evenodd" clip-rule="evenodd" d="M58.918 132.326c7.702 2.054 19.4 3.226 19.4 3.226l8.215-4.732-1.814-1.712-25.579 1.857-.222 1.361Z" fill="url(#Q)"/><path style="mix-blend-mode:multiply" opacity=".5" fill-rule="evenodd" clip-rule="evenodd" d="m145.906 115.014 2.353 12.383 2.799.736.856-8.421s1.66 1.198 12.177-.145c7.223-.925 9.003-2.799 9.003-2.799l.051-2.362-23.782-.137-3.457.745Z" fill="url(#R)"/><path style="mix-blend-mode:multiply" opacity=".5" fill-rule="evenodd" clip-rule="evenodd" d="M158.888 127.867c1.712 2.525 12.836 3.903 16.02 3.423 3.183-.479 6.093-1.249 6.093-1.249l1.934-3.029-15.404.085-8.643.77Z" fill="url(#S)"/><path style="mix-blend-mode:multiply" opacity=".5" fill-rule="evenodd" clip-rule="evenodd" d="M143.724 71.199c1.652 4.09 2.952 7.214 2.952 7.214l15.943 10.509 2.14 1.532-4.502-9.32-16.533-9.935Z" fill="url(#T)"/><path style="mix-blend-mode:multiply" opacity=".5" fill-rule="evenodd" clip-rule="evenodd" d="m156.312 51.131-17.201-6.178-21.89-7.112.385 2.662a16.417 16.417 0 0 0 3.423 2.122s2.73 5.468 5.331 6.47c3.175 1.215 5.469-3.201 5.469-3.201l14.103 5.528 14.59 3.492.24-1.13-4.45-2.653Zm-29.84-2.516a8.335 8.335 0 0 1-4.527-5.793l8.942 2.832s-1.925 4.296-4.415 2.961Z" fill="url(#U)"/><path style="mix-blend-mode:multiply" opacity=".5" fill-rule="evenodd" clip-rule="evenodd" d="M97.59 79.757c.41 2.413 8.891 5.879 8.891 5.879s4.596.633 7.582-.394c4.476-1.54 4.442-3.526 4.442-3.526l-20.915-1.96Z" fill="url(#V)"/><path style="mix-blend-mode:multiply" opacity=".8" fill-rule="evenodd" clip-rule="evenodd" d="m144.135 55.658 1.052 14.42-2.499-.343-1.848 7.702 1.189 4.63-.102 2.49-5.135.231s-7.933-5.134-14.017-7.214l-3.791 3.731L97.59 79.8l-1.335 5.34-14.197-15.583 62.077-13.898Z" fill="url(#W)"/><path style="mix-blend-mode:multiply" opacity=".7" fill-rule="evenodd" clip-rule="evenodd" d="m160.754 54.024-4.793 18.681-7.821-2.507 2.165-12.683-5.032-4.492 1.018 7.736-1.403-5.785-21.583-14.848 37.449 13.898Z" fill="url(#X)"/><path style="mix-blend-mode:multiply" opacity=".7" fill-rule="evenodd" clip-rule="evenodd" d="m164.759 90.454-.069.24-.291 1.026-4.912 17.227-7.573 1.694-2.054-28.309-.223-3.046-.162-2.31 4.689 2.806 7.745 4.647.359.753 2.491 5.272Z" fill="url(#Y)"/><path style="mix-blend-mode:multiply" opacity=".7" fill-rule="evenodd" clip-rule="evenodd" d="m160.06 128.629-2.67 5.58 18.083 4.441 7.462-11.656-9.61-2.079-.154-10.509-16.551-1.069-1.258 15.917 2.328-2.876 5.725-.967-3.355 3.218Z" fill="url(#Z)"/><path style="mix-blend-mode:multiply" opacity=".7" fill-rule="evenodd" clip-rule="evenodd" d="m76.144 141.859 18.973-7.779-2.97-5.614 20.051-2.584-14.411-9.345 13.735-1.951 3.876-9.995 1.027-.266-.419-3.363 2.978-19.7-4.134 2.816-7.436-.35-2.465 4.672-17.15 4.758 2.363 12.066-20.975 2.892 2.336 20.35 7.497 5.049-2.876 8.344Z" fill="url(#aa)"/><path style="mix-blend-mode:multiply" opacity=".5" fill-rule="evenodd" clip-rule="evenodd" d="m95.81 105.498-3.663 22.968 4.048-.607 1.592-11.322 13.735-1.951 3.876-9.995 1.027-.266-16.679-7.41-7.334 7.359 3.398 1.224Z" fill="url(#ab)"/><path fill-rule="evenodd" clip-rule="evenodd" d="m123.819 125.095 24.44 2.302-2.353-12.383 3.474-3.423s-5.091-17.39-5.596-20.076l-1.857-6.958-5.135.231a88.314 88.314 0 0 0-14.051-7.256l-3.791 3.73-1.198 6.633-1.78 13.067.419 3.363-1.018.266-3.843 9.995 4.108 2.242 4.869 3.192 3.312 5.075Z" fill="url(#ac)"/><path fill-rule="evenodd" clip-rule="evenodd" d="M129.039 64.302c1.934 7.556 4.022 11.518 6.752 11.013 3.56-.65 7.941-12.836 7.702-18.578h-.762s-.65 10.474-4.963 15.403c-4.099 4.656-7.12-3.209-7.771-7.496l-.958-.343Z" fill="url(#ad)"/><path fill-rule="evenodd" clip-rule="evenodd" d="M144.135 55.658s-2.474 4.647-6.29 7.189c-.856.556-1.404-1.096-1.404-1.096a129.82 129.82 0 0 1-18.912 8.387c-9.465 3.123-15.233 4.783-15.233 4.783s2.183 1.712 1.293 1.712a57.336 57.336 0 0 1-18.622-5.468l-3.371-1.712c-5.546-2.79-6.47-3.337-6.47-3.337s.676 3.423-.47 2.687c-1.147-.736-2.046-4.433-2.046-4.433a87.563 87.563 0 0 1 22.43-12.323c13.281-5.058 17.774-6.17 17.774-6.17s4.279 1.198 9.781 2.807h.12c7.419 2.26 17.141 5.229 21.42 6.974Z" fill="url(#ae)"/><path fill-rule="evenodd" clip-rule="evenodd" d="M119.968 38.346c1.711 6.555 3.885 9.5 6.298 10.227 2.208.658 4.125-2.705 4.673-5.272l-.762-.163s-1.369 4.913-3.902 4.776c-3.885-.214-5.503-9.32-5.503-9.32l-.804-.248Z" fill="#C3AF00"/><path fill-rule="evenodd" clip-rule="evenodd" d="M162.106 54.375c-2.782-.557-15.31-5.058-15.31-5.058s.377.659-.625.779c-4.458.53-27.521-10.851-27.521-10.851-1.788 2.422-5.083 1.592-5.083 1.592s.796-2.474 2.567-3.278c0 0 5.032-2.816 18.647.993a97.335 97.335 0 0 1 10.269 3.277 42.832 42.832 0 0 1 10.757 6.05c6.804 5.306 6.299 6.496 6.299 6.496Z" fill="url(#af)"/><path fill-rule="evenodd" clip-rule="evenodd" d="M117.281 104.24a20.87 20.87 0 0 1-7.993-.787c-4.758-1.301-9.867-5.537-9.867-5.537s.257 1.523-.274 1.643c-.53.12-20.196-10.903-24.68-16.345a5.397 5.397 0 0 1-.719-1.061s4.604-1.48 7.548-1.13c2.764.325 19.871 4.142 26.486 8.626l.214.146c.337.237.66.495.967.77a21.799 21.799 0 0 1 2.216 2.31 38.66 38.66 0 0 1 6.102 11.365Z" fill="url(#ag)"/><path fill-rule="evenodd" clip-rule="evenodd" d="M97.59 79.757c2.738 1.762 6.315 3.542 7.351 3.542 0 0-.36-1.07 1.301 0 1.66 1.07 8.608.77 8.608.77s5.135-2.67 4.913-4.278c0 0-4.947-2.32-7.232-2.328-2.285-.008-13.315 1.104-13.649 1.25-.334.145-2.14.504-1.292 1.044Z" fill="url(#ah)"/><path fill-rule="evenodd" clip-rule="evenodd" d="M165.109 91.215c-.137-.18-.273-.35-.419-.522-1.155-1.395-2.482-2.704-2.482-2.704a44.146 44.146 0 0 0-4.997-2.995c-1.438-.693-5.049-3.543-7.574-5.708a23.645 23.645 0 0 1-2.644-2.49c-.71-1.027 1.035-.916 1.035-.916-2.464-1.943-5.374-6.144-5.374-6.144 4.6-.024 9.146.99 13.299 2.97 1.557.778 5.023 7.119 7.205 11.338a153.052 153.052 0 0 1 1.832 3.628c.915 2.764.119 3.543.119 3.543Z" fill="url(#ai)"/><path fill-rule="evenodd" clip-rule="evenodd" d="M173.171 114.406s-1.036 2.208-5.135 2.936c-4.099.727-12.631.111-12.631.111a11.564 11.564 0 0 1 3.8 2.208s-7.702-1.104-10.638-2.165c-4.954-1.712-4.723-3.184-4.723-3.184 5.134-3.158 13.23-5.528 15.643-5.365 1.309.085 5.22 1.711 8.558 3.123a273.655 273.655 0 0 1 5.126 2.336Z" fill="url(#aj)"/><path fill-rule="evenodd" clip-rule="evenodd" d="M182.943 126.995s-4.672 3.311-7.102 3.337c0 0-.257-.265.222-.95 0 0-14.317.043-16.003-.753a5.213 5.213 0 0 1-2.207-1.968 2.412 2.412 0 0 1-.163-.283l.856-.35a36.701 36.701 0 0 1 4.903-1.447 54.856 54.856 0 0 1 9.662-1.232s3.834-.531 9.832 3.646Z" fill="url(#ak)"/><path fill-rule="evenodd" clip-rule="evenodd" d="M58.293 109.546c-.624 0 .206-2.148 1.061-4.04.685-1.506 1.378-2.858 1.378-2.858l-1.283.856a21.26 21.26 0 0 1-4.741 2.413c-.728-1.335 1.583-4.219 1.583-4.219 6.23-3.602 21.48-6.7 21.48-6.7 1.672.353 3.305.869 4.877 1.54 5.374 2.268 10.894 6.153 13.153 8.96.411.453-26.554 3.979-37.508 4.048Z" fill="url(#al)"/><path style="mix-blend-mode:multiply" opacity=".5" fill-rule="evenodd" clip-rule="evenodd" d="M58.293 109.546c-.624 0 .206-2.148 1.061-4.04-1.206 3.175.06 3.013 1.772 3.013 1.711 0 28.48-3.055 29.678-3.988 1.198-.933-7.993-7.873-8.156-7.993 5.374 2.268 10.894 6.153 13.153 8.96.411.453-26.554 3.979-37.508 4.048Z" fill="url(#am)"/><path fill-rule="evenodd" clip-rule="evenodd" d="M58.404 138.47c-3.74-1.061-11.535-1.549-17.534-1.959-4.399-.343-7.839-.608-7.984-1.002-.326-1.001 3.654-4.509 10.072-4.278 1.834.115 3.637.537 5.331 1.249a50.246 50.246 0 0 1 10.038 5.751.094.094 0 0 0 0 .111l.078.128Z" fill="url(#an)"/><path fill-rule="evenodd" clip-rule="evenodd" d="m60.219 138.924-.702-.111a8.566 8.566 0 0 0-.813-.3 1.742 1.742 0 0 0-.274-.334h-.085a146.592 146.592 0 0 1-12.905-13.563c-5.366-6.496-7.642-10.834-7.154-11.408.753-.907 11.013 2.311 15.703 7.873a27.323 27.323 0 0 1 3.714 5.751 25.56 25.56 0 0 1 2.516 12.092Z" fill="url(#ao)"/><path fill-rule="evenodd" clip-rule="evenodd" d="M41.315 114.903c7.35 1.857 15.9 16.773 18.904 24.021l-.702-.111a65.055 65.055 0 0 0-8.763-14.548c-5.348-6.555-9.44-9.362-9.44-9.362Z" fill="#1616A6" style="mix-blend-mode:multiply" opacity=".33"/><path style="mix-blend-mode:multiply" opacity=".5" fill-rule="evenodd" clip-rule="evenodd" d="M58.404 138.47c-3.74-1.061-11.535-1.549-17.534-1.959l-.206-.12a17.339 17.339 0 0 1 7.625-3.911 50.246 50.246 0 0 1 10.038 5.751.094.094 0 0 0 0 .111l.078.128Z" fill="url(#ap)"/><path style="mix-blend-mode:screen" opacity=".5" fill-rule="evenodd" clip-rule="evenodd" d="M40.356 114.954c-2.96-.753 6.136 11.895 8.84 12.888 2.705.992 4.656.436 1.558-3.594-3.098-4.031-8.455-8.806-10.398-9.294Z" fill="url(#aq)"/><path fill-rule="evenodd" clip-rule="evenodd" d="M46.518 119.592c-1.712.762.436 3.132 2.293 2.362l-2.293-2.362Z" fill="#fff"/><path style="mix-blend-mode:multiply" opacity=".5" fill-rule="evenodd" clip-rule="evenodd" d="m60.219 138.924-.702-.111a8.566 8.566 0 0 0-.813-.3 1.746 1.746 0 0 0-.274-.334h-.085a146.592 146.592 0 0 1-12.905-13.563c8.634 9.413 10.663 7.881 9.31 3.816 0 0 4.1 2.268 2.944-1.617a25.563 25.563 0 0 1 2.525 12.109Z" fill="url(#ar)"/><path fill-rule="evenodd" clip-rule="evenodd" d="M60.193 131.787c3.32-.325 17.338 2.028 18.827 1.711 1.489-.316 10.603-5.725 10.603-5.725s-14.215.06-19.931 0c-5.716-.06-11.664 2.568-11.664 2.568s-.197 2.986.898 3.517l1.267-2.071Z" fill="url(#as)"/><path fill-rule="evenodd" clip-rule="evenodd" d="M117.409 140.267c26.623.574 39.057.386 38.8-.915l-16.045-1.737s9.311-2.944 10.8-5.554c.342-.599-3.886-2.816-9.696-3.843l5.622-.761s-15.198-2.123-22.036-2.225c0 0 6.735 2.404 10.218 5.656.856.856-4.698.942-3.765 1.395.933.454 6.769 1.549-1.233 3.962-10.611 3.158-12.665 4.022-12.665 4.022Z" fill="#FDBA45"/><path fill-rule="evenodd" clip-rule="evenodd" d="m122.775 77.531 5.22-1.566 13.932 8.55-5.135.23-14.017-7.214Z" fill="url(#at)"/><path style="mix-blend-mode:multiply" opacity=".5" fill-rule="evenodd" clip-rule="evenodd" d="M122.681 48.752c6.392 1.951 15.814 8.053 15.814 8.053a6.982 6.982 0 0 1-1.035.856c-51.748.154-53.562-.488-53.562-.488l-1.823 1.001s1.891-.856 21.129.137c16.618.856 27.803 1.292 30.807 1.42a45.127 45.127 0 0 1-5.571 2.191c-7.967 2.568-24.244 5.195-24.244 5.195a44.426 44.426 0 0 0 8.652 2.302s-1.763.163-4.544.342l.462-.043c-20.803-1.395-34.085-6.846-34.085-6.846l-1.035.753c2.84.069 22.446 5.323 27.016 6.555-6.256.214-13.692.197-19.126-.624l3.371 1.711a57.336 57.336 0 0 0 18.622 5.469c.856 0-1.292-1.712-1.292-1.712s5.767-1.66 15.232-4.784a129.83 129.83 0 0 0 18.912-8.386s.557 1.652 1.404 1.095c3.817-2.567 6.29-7.188 6.29-7.188-4.219-1.849-13.941-4.818-21.394-7.009Z" fill="url(#au)"/><path style="mix-blend-mode:screen" opacity=".5" fill-rule="evenodd" clip-rule="evenodd" d="M80.98 63.052c-11.297 1.07 8.908-9.61 23.251-13.949 4.612-1.386 17.791-1.54 24.517 2.995A186.243 186.243 0 0 1 80.98 63.052Z" fill="url(#av)"/><path style="mix-blend-mode:multiply" opacity=".5" fill-rule="evenodd" clip-rule="evenodd" d="m151.135 82.512 1.831 4.1 8.498 15.403-1.977 6.932a41.568 41.568 0 0 1 6.452 2.233c-5.134 3.004-11.689-1.112-11.689-1.112l-3.654-24.081.659-.112-.12-3.363Z" fill="url(#aw)"/><path style="mix-blend-mode:multiply" opacity=".5" fill-rule="evenodd" clip-rule="evenodd" d="M111.179 92.875a50.777 50.777 0 0 1 3.423 8.558c.266.941-24.817-18.51-24.817-18.51l-1.9-.48a180.816 180.816 0 0 1 15.113 11.528c4.553 3.423 4.964 5.725 4.964 5.725-12.914-11.16-20.05-13.427-31.527-18.245l-1.078.394c9.961 2.943 20.581 14.402 20.581 14.402-4.193-1.24-12.785-5.511-21.942-13.692l.471.625c4.484 5.442 24.175 16.447 24.68 16.336.505-.111.274-1.643.274-1.643s5.135 4.279 9.867 5.537a20.85 20.85 0 0 0 7.993.787 38.645 38.645 0 0 0-6.102-11.322Z" fill="url(#ax)"/><path style="mix-blend-mode:multiply" opacity=".5" fill-rule="evenodd" clip-rule="evenodd" d="M165.109 91.215c-.137-.18-.273-.35-.419-.522l-.291 1.027c-5.348-2.807-13.264-9.208-13.264-9.208l-1.19-.18h-.085l-7.865-.273-.068 2.498-3.603.052-17.637-5.024 2.088-2.053s-11.125-4.34-9.131-6.136c6.119-5.537 30.491-15.738 30.491-15.738l4.227 9.85 8.027 5.503-.393 1.711c-.172-.06-8.832-2.85-7.24.385.924 1.892-.856 3.423 1.497 5.708 4.904 4.673 12.931 8.233 12.931 8.233.607 0 .068-2.191 0-2.987a150.123 150.123 0 0 1 1.831 3.628c.89 2.747.094 3.526.094 3.526Z" fill="url(#ay)"/><path style="mix-blend-mode:multiply" opacity=".5" fill-rule="evenodd" clip-rule="evenodd" d="M162.106 54.375c-2.782-.557-15.31-5.058-15.31-5.058s.377.66-.625.779c-4.458.53-27.521-10.851-27.521-10.851-1.788 2.422-5.083 1.592-5.083 1.592 2.713-1.806 2.995-2.825 2.995-2.825s2.011.942 7.599 3.424c13.864 6.255 20.367 6.683 20.889 6.846a12.619 12.619 0 0 1-3.234-3.603s4.578 2.422 11.407 5.323c0 0-1.352-5.135-8.147-8.224a42.832 42.832 0 0 1 10.757 6.05c6.778 5.357 6.273 6.547 6.273 6.547Z" fill="url(#az)"/><path style="mix-blend-mode:multiply" opacity=".5" fill-rule="evenodd" clip-rule="evenodd" d="M86.516 145.71c-3.203.198-6.35.933-9.31 2.174 0 0-6.924-1.464-12.529-.856-5.605.608-18.356 6.067-18.322 4.578a18.451 18.451 0 0 1 2.328-7.625c-1.712.505-5.665 0-5.665 0 2.285-2.507 7.026-5.134 9.619-6.435 0 0-5.084 6.846 1.805 7.582 20.932 2.157 30.44.591 32.074.582Z" fill="url(#aA)"/><path style="mix-blend-mode:multiply" opacity=".5" fill-rule="evenodd" clip-rule="evenodd" d="M158.229 153.343c-1.104.48-3.517-5.639-3.517-5.639-11.656.976-31.663 2.507-31.663 2.507-5.991 5.991-13.256 8.241-15.353 6.761-.967-.685-.975-4.519-.975-4.519-.077.086-2.944 3.269-4.536 2.516-.59-.273 3.423-4.03 3.552-4.133-8.139.899-20.59-2.208-21.703-1.96l2.919-1.711a53.174 53.174 0 0 1 15.155 2.011c13.273 2.49 13.247 1.711 31.886-.556a112.892 112.892 0 0 0 22.121-4.93l1.575 1.806.051.077.069.137a.278.278 0 0 1 .043.086c1.129 2.353.744 7.385.376 7.547Z" fill="url(#aB)"/><path fill-rule="evenodd" clip-rule="evenodd" d="m157.733 145.522 1.54 1.788a32.171 32.171 0 0 1-1.54-1.788Z" fill="url(#aC)"/><path style="mix-blend-mode:multiply" opacity=".5" fill-rule="evenodd" clip-rule="evenodd" d="M189.73 134.945c-1.447 3.679-9.414 6.332-9.414 6.332a14.544 14.544 0 0 1 6.453 6.727c-1.823 0-5.332-1.455-5.443-1.498.95 1.626 4.741 9.08 3.628 8.746-3.14-.942-14.12-9.028-14.12-9.028-1.335.616-5.228.385-5.228.385-1.096 4.492-2.696 4.013-2.696 4.013s2.259-12.768-5.135-16.328c0 0 24.39-6.05 18.639 2.935l-.916 1.421s1.215-2.405 6.136-3.586 8.472-1.086 8.096-.119Z" fill="url(#aD)"/><path style="mix-blend-mode:multiply" opacity=".5" fill-rule="evenodd" clip-rule="evenodd" d="m69.726 108.87 21.925 18.963-.291 2.499-2.045-1.848-3.723 1.934H70.745l-1.019-21.548Z" fill="url(#aE)"/><path fill-rule="evenodd" clip-rule="evenodd" d="M141.268 128.201a31.36 31.36 0 0 1 5.99 1.618c3.184 1.215 3.988 2.019 3.988 2.019l-.291.206a12.869 12.869 0 0 0-4.116-1.934c-2.987-.985-5.537-1.618-5.537-1.618l-.034-.291Z" fill="url(#aF)"/><path fill-rule="evenodd" clip-rule="evenodd" d="M135.149 131.085v.334s-3.603.513-3.697.898c0 0-.445-.119-.282-.214.162-.094 3.979-1.018 3.979-1.018Z" fill="url(#aG)"/><path fill-rule="evenodd" clip-rule="evenodd" d="m134.233 133.883.06.514s-.231.941-4.133 2.131a4063.867 4063.867 0 0 1-12.443 3.748h-.308s7.497-2.567 11.853-4.039c4.355-1.472 4.971-2.354 4.971-2.354Z" fill="url(#aH)"/><path fill-rule="evenodd" clip-rule="evenodd" d="m140.164 137.615.274.265s15.403 1.309 15.48 1.857c0 0 .189.214.291-.343-2.651-.636-5.361-1-8.087-1.086a69.77 69.77 0 0 1-7.958-.693Z" fill="url(#aI)"/><path fill-rule="evenodd" clip-rule="evenodd" d="M145.162 130.383c-1.421.522-5.203 5.135-4.082 5.768 1.121.633 9.413-3.14 8.241-4.107-1.173-.967-2.97-2.131-4.159-1.661ZM134.045 128.201c-1.403.094 4.407 4.656 5.58 4.219 1.172-.436 2.285-1.326 1.583-1.883-.702-.556-4.861-2.473-7.163-2.336ZM136.621 132.874c-1.044.419 2.371 3.654 3.047.402.094-.488-2.285-.719-3.047-.402ZM127.088 139.326c1.977.907 7.231.428 7.308-.513.077-.942-.154-1.832-1.284-1.849-1.129-.017-7.804 1.549-6.024 2.362Z" fill="#CC4C47" style="mix-blend-mode:soft-light" opacity=".79"/><path style="mix-blend-mode:screen" opacity=".5" fill-rule="evenodd" clip-rule="evenodd" d="M121.577 132.942c-15.943 4.279-31.372 13.692-11.827 14.454 20.051.779 39.177-3.32 46.562-5.759 12.546-4.134-29.139-10.21-34.735-8.695Z" fill="url(#aJ)"/><path style="mix-blend-mode:multiply" opacity=".5" fill-rule="evenodd" clip-rule="evenodd" d="M110.161 126.122c9.824 8.771 40.897 2.011 40.897 2.011l-2.799-.736-17.5-1.857-7.163-.762.214.334c-4.564.099-9.12.436-13.649 1.01Z" fill="url(#aK)"/><path fill-rule="evenodd" clip-rule="evenodd" d="m145.273 53.023 2.73.556 7.137 4.124-4.835-.188-5.032-4.492Z" fill="url(#aL)"/><path style="mix-blend-mode:multiply" opacity=".5" fill-rule="evenodd" clip-rule="evenodd" d="m152.316 70.206 2.824-12.503.821 15.002-6.033-2.14 2.388-.359Z" fill="url(#aM)"/><path style="mix-blend-mode:screen" opacity=".5" fill-rule="evenodd" clip-rule="evenodd" d="M96.974 63.925c11.681 2.405 33.811-2.91 30.807-4.065-3.004-1.155-38.689-1.258-40.34.685-1.652 1.942 9.533 3.38 9.533 3.38Z" fill="url(#aN)"/><path d="M123.459 115.099c-.496-.35-7.556-6.281-7.556-6.281s.411 4.193 1.284 4.638c1.822.942 6.272 1.643 6.272 1.643Z" fill="#FD2323"/><path style="mix-blend-mode:screen" fill-rule="evenodd" clip-rule="evenodd" d="M126.052 116.477c-.855 2.799-4.895 3.218-8.882.924-3.988-2.293-6.136-6.152-5.135-8.728 1.001-2.576 4.75-2.893 8.498-.856 3.748 2.037 6.367 5.939 5.519 8.66Z" fill="url(#aO)"/><path style="mix-blend-mode:screen" fill-rule="evenodd" clip-rule="evenodd" d="M122.527 114.509c-.462 1.395-2.491 1.6-4.502.462-2.011-1.138-3.149-3.115-2.652-4.441.496-1.327 2.438-1.515 4.381-.454s3.218 3.064 2.773 4.433Z" fill="url(#aP)"/><path d="M135.842 115.741c.497-.359 7.557-6.281 7.557-6.281s-.411 4.193-1.275 4.638c-1.832.933-6.282 1.643-6.282 1.643Z" fill="#FD2323"/><path style="mix-blend-mode:screen" fill-rule="evenodd" clip-rule="evenodd" d="M133.249 117.119c.856 2.798 4.895 3.218 8.883.916 3.988-2.302 6.136-6.145 5.135-8.72-1.001-2.576-4.741-2.893-8.498-.856-3.757 2.036-6.367 5.93-5.52 8.66Z" fill="url(#aQ)"/><path style="mix-blend-mode:screen" fill-rule="evenodd" clip-rule="evenodd" d="M136.784 115.159c.453 1.395 2.481 1.601 4.492.462 2.011-1.138 3.15-3.114 2.653-4.449-.496-1.335-2.439-1.507-4.381-.445-1.943 1.061-3.218 3.055-2.764 4.432Z" fill="url(#aR)"/><path style="mix-blend-mode:screen" opacity=".2" d="M130.605 137.238c10.714 0 19.4-8 19.4-17.868 0-9.869-8.686-17.869-19.4-17.869-10.714 0-19.4 8-19.4 17.869 0 9.868 8.686 17.868 19.4 17.868Z" fill="url(#aS)"/><path style="mix-blend-mode:multiply" opacity=".76" fill-rule="evenodd" clip-rule="evenodd" d="M110.503 95.785c-.094 3.14 20.102 5.716 20.102 5.716a94.133 94.133 0 0 1 21.754 5.195c16.071 6.076-20.95-28.642-20.95-28.642l-19.066 1.95-1.84 15.78Z" fill="url(#aT)"/><path style="mix-blend-mode:multiply" opacity=".5" fill-rule="evenodd" clip-rule="evenodd" d="M173.171 114.406s-1.036 2.208-5.135 2.936c-4.099.727-12.631.111-12.631.111a11.564 11.564 0 0 1 3.8 2.208s-7.702-1.104-10.638-2.165c-4.954-1.712-4.723-3.184-4.723-3.184 5.99 2.961 14.548 2.431 14.548 2.431s-3.706-.993-4.998-2.054c0 0 7.009 2.473 13.752 1.532 6.743-.942.856-4.151.856-4.151a220.878 220.878 0 0 1 5.169 2.336Z" fill="url(#aU)"/><path style="mix-blend-mode:multiply" opacity=".5" fill-rule="evenodd" clip-rule="evenodd" d="M182.943 126.995s-4.672 3.311-7.102 3.337c0 0-.257-.265.222-.95 0 0-14.317.043-16.003-.753a5.221 5.221 0 0 1-2.208-1.968c.103-.154.069-.248-.162-.283-2.003-.273-1.258-.368.856-.35 5.511 0 20.298.795 20.298.795s-8.309-2.67-15.403-2.242a54.833 54.833 0 0 1 9.661-1.232s3.843-.531 9.841 3.646Z" fill="url(#aV)"/><path style="mix-blend-mode:multiply" opacity=".5" fill-rule="evenodd" clip-rule="evenodd" d="M186.734 148.004a54.985 54.985 0 0 0-11.039-7.146s3.055 4.715 5.597 5.648a42.878 42.878 0 0 0 5.442 1.498Z" fill="url(#aW)"/><path style="mix-blend-mode:multiply" opacity=".5" fill-rule="evenodd" clip-rule="evenodd" d="M180.282 141.277c-4.005-.753-4.63-1.224-4.63-1.224s7.6-4.467 14.078-5.134a8.787 8.787 0 0 1-4.279 4.022c-3.329 1.634-5.169 2.336-5.169 2.336Z" fill="url(#aX)"/><path fill-rule="evenodd" clip-rule="evenodd" d="m154.25 110.068-5.991 2.045-4.124-12.837a.97.97 0 0 0 .265-.368c.077-.172.115-.359.111-.547a1.206 1.206 0 0 0-.693-1.079.91.91 0 0 0-.342-.068l-4.005-12.486 10.911-.17 3.868 25.51Z" fill="url(#aY)"/><path style="mix-blend-mode:multiply" opacity=".5" fill-rule="evenodd" clip-rule="evenodd" d="m154.25 110.068-3.868-25.494-8.455-.06.043.163-2.508.034.659 2.054 4.262.137 8.207 23.73 1.66-.564Z" fill="url(#aZ)"/><path fill-rule="evenodd" clip-rule="evenodd" d="m136.792 84.746.154 1.095 14.309.026-.12-3.355-6.333-.42-2.807-.034-.068 2.456-5.135.232Z" fill="url(#ba)"/><path style="mix-blend-mode:multiply" opacity=".5" fill-rule="evenodd" clip-rule="evenodd" d="m151.135 82.512-6.949-.214-.128 3.56 7.197.009-.12-3.355Z" fill="url(#bb)"/><path fill-rule="evenodd" clip-rule="evenodd" d="m145.949 91.43.984 4.98 1.737 2.91 1.404-1.73-4.125-6.16Z" fill="#9476C4"/><path style="mix-blend-mode:multiply" opacity=".5" fill-rule="evenodd" clip-rule="evenodd" d="m136.852 85.156 5.794-.068.282-2.927-.933-.103-.068 2.456-5.135.232.06.41Z" fill="url(#bc)"/><path fill-rule="evenodd" clip-rule="evenodd" d="M146.094 103.059a39.66 39.66 0 0 1-1.711-4.168c.077-.172.115-.359.111-.547a1.212 1.212 0 0 0-.693-1.078 36.287 36.287 0 0 1-1.378-4.93c-.462-2.84 2.294 0 3.423 2.49 1.13 2.49.633 8.798.248 8.233Z" fill="#C386D4" style="mix-blend-mode:multiply" opacity=".19"/><path fill-rule="evenodd" clip-rule="evenodd" d="m143.57 88.211.539 2.046-2.43.479-24.056-1.66.488-2.995 25.459 2.13Z" fill="url(#bd)"/><path style="mix-blend-mode:multiply" opacity=".5" fill-rule="evenodd" clip-rule="evenodd" d="m125.993 86.74-5.649 1.711s23.962 1.712 23.765 1.754c-.197.043-1.232 5.135-1.232 5.135l-1.481-4.613-23.79-1.651.488-2.995 7.899.659Z" fill="url(#be)"/><path fill-rule="evenodd" clip-rule="evenodd" d="M128.098 86.92c-3.252 1.54 8.455 2.498 10.953 2.258 2.499-.24.445-1.309.445-1.309l-11.398-.95Z" fill="#803D51" style="mix-blend-mode:soft-light" opacity=".4"/><path fill-rule="evenodd" clip-rule="evenodd" d="m141.721 88.075-23.61-1.994.873-4.818 3.791-3.732 1.626-.487 13.932 7.522.111 1.258 1.908.043 1.369 2.207Z" fill="#7263A8"/><path fill-rule="evenodd" clip-rule="evenodd" d="M119.009 86.158c0-2.876 1.284-6.384 2.2-6.444.915-.06 7.299 3.73 7.65 4.279.503 1.001.905 2.05 1.198 3.132l-11.048-.967ZM131.658 87.219s-2.217-2.91-.856-3.098a8.49 8.49 0 0 1 8.729 3.748l-7.873-.65ZM125.907 77.95c-1.874 1.49 2.482 5.067 3.32 5.615.839.547 5.34-1.036 5.34-1.036l-8.66-4.578Z" fill="#C386D4" style="mix-blend-mode:screen" opacity=".3"/><path style="mix-blend-mode:multiply" opacity=".5" fill-rule="evenodd" clip-rule="evenodd" d="m141.721 88.075-3.491-.3-.582-1.42-12.7-3.115s-1.403 3.132-1.454 3.294l-5.383-.453.856-4.818 3.774-3.732 1.626-.487 13.957 7.513.12 1.258 1.908.052 1.369 2.207Z" fill="url(#bf)"/><path fill-rule="evenodd" clip-rule="evenodd" d="M148.345 102.674c-.325.342-1.712 2.088-1.712 3.123 0 1.036 3.56.505 3.509-.393-.051-.899-.958-3.595-1.797-2.73Z" fill="#9667A3" style="mix-blend-mode:multiply" opacity=".2"/><path fill-rule="evenodd" clip-rule="evenodd" d="M148.645 112.104c-.762-3.149.735-6.23 1.711-5.75.976.479 2.011 4.355 2.011 4.355l-3.722 1.395Z" fill="#C386D4" style="mix-blend-mode:multiply" opacity=".19"/><path fill-rule="evenodd" clip-rule="evenodd" d="M145.144 90.864c-.778-1.377-.539 1.447-.265 1.54.274.095.83-.556.265-1.54Z" fill="#9667A3" style="mix-blend-mode:multiply" opacity=".2"/><path fill-rule="evenodd" clip-rule="evenodd" d="m75.622 129.99-4.877.428-7.257-.625-.052-.479a341.023 341.023 0 0 0-.479-4.656c-1.626-15.112-3.714-27.598-4.75-33.374a.672.672 0 0 0 0-.129l-.102-.573c0-.12-.043-.24-.069-.351l-.12-.54c-.213-1.154-.333-1.77-.333-1.77l11.758-1.652c.137.856.283 1.711.42 2.567 0 .282.094.573.136.856 1.198 7.556 2.5 16.636 3.552 24.252a.441.441 0 0 0-.103 0 1.541 1.541 0 0 0-1.061 1.335 1.467 1.467 0 0 0 .88 1.417c.182.079.377.121.575.123h.111c.727 5.289 1.292 9.585 1.575 11.699v.12c.136.881.196 1.352.196 1.352Z" fill="url(#bg)"/><path fill-rule="evenodd" clip-rule="evenodd" d="M54.374 73.946s6.264-5.135 12.417-1.84l-.325 2.696a25.3 25.3 0 0 1-5.34 1.54 29.205 29.205 0 0 1-5.255.36l-1.497-2.756Z" fill="url(#bh)"/><path fill-rule="evenodd" clip-rule="evenodd" d="M58.627 75.41s1.78 2.73 2.19 10.405l4.947-.402a19.888 19.888 0 0 1-2.028-11.125 6.743 6.743 0 0 0-2.413.137 11.57 11.57 0 0 0-2.696.984Z" fill="url(#bi)"/><path fill-rule="evenodd" clip-rule="evenodd" d="M51.088 87.81s12.605-4.108 24.09-3.381l.188 1.532s-2.927 1.514-5.606 2.875l-.205-1.258-2.32-.325-7.915 1.712-1.403.684.3 1.643s-3.005-.796-6.847-1.788l-.282-1.695Z" fill="url(#bj)"/><path style="mix-blend-mode:screen" opacity=".42" fill-rule="evenodd" clip-rule="evenodd" d="m70.745 130.418-7.257-.625-.052-.471-.855-8.044-.06-.625-.899-8.771-2.302-22.909 3.817-.856s5.143 15.045 7.608 42.301Z" fill="url(#bk)"/><path fill-rule="evenodd" clip-rule="evenodd" d="m63.436 129.322-.855-8.044c.254-.156.527-.28.813-.368a1.095 1.095 0 0 1-.24-.59.977.977 0 0 1-.633.333l-.899-8.771a.853.853 0 0 1 .342-.06c2.653.162 4.416.907 4.194 2.353a8.526 8.526 0 0 1-.351 1.198c.227.239.387.535.462.856.222.762-.522 2.867-1.472 3.723-.04.286-.169.552-.368.761a3.119 3.119 0 0 1 2.285.659c1.378 1.198-1.806 6.966-3.278 7.95Z" fill="#803D51" style="mix-blend-mode:multiply" opacity=".4"/><path fill-rule="evenodd" clip-rule="evenodd" d="M66.577 119.549a.496.496 0 1 0 .993 0c.085-.761-.916-1.617-.993 0Z" fill="#803D51" style="mix-blend-mode:multiply" opacity=".4"/><path fill-rule="evenodd" clip-rule="evenodd" d="M65.67 97.248a241.594 241.594 0 0 0 4.766 30.012s-.308-4.69-1.711-15.575c-1.344-10.517-3.055-14.437-3.055-14.437Z" fill="#fff"/><path style="mix-blend-mode:multiply" opacity=".5" fill-rule="evenodd" clip-rule="evenodd" d="M51.379 89.512s6.769-3.543 23.961-3.551l-5.58 2.875c-3.93.3-7.836.846-11.698 1.635l.154.855-6.837-1.814Z" fill="url(#bl)"/><path style="mix-blend-mode:multiply" opacity=".7" fill-rule="evenodd" clip-rule="evenodd" d="M66.526 74.288c-2.14-.743-4.459-.8-6.632-.162-3.372 1.13-4.065 2.567-4.065 2.567l3.371-.06-.402-.762s3.74-.855 4.886 2.08l-.05-2.19a17.79 17.79 0 0 0 2.832-.968l.06-.505Z" fill="url(#bm)"/><path fill-rule="evenodd" clip-rule="evenodd" d="M53.424 87.125c-.077 1.3 5.733.855 5.229-1.25l-5.23 1.25ZM55.734 73.022a1.951 1.951 0 0 0 3.543.23c.368-.958-.718-1.531-.718-1.531l-2.825 1.3Z" fill="#fff"/><path style="mix-blend-mode:multiply" opacity=".3" fill-rule="evenodd" clip-rule="evenodd" d="M75.451 128.68c-.051 0-1.626-1.395-3.32-5.494-1.695-4.099-6.316-34.059-2.234-33.494l3.423 24.278a1.541 1.541 0 0 0-1.06 1.335 1.47 1.47 0 0 0 1.454 1.54l1.669 11.698.068.137Z" fill="url(#bn)"/><path style="mix-blend-mode:multiply" opacity=".5" fill-rule="evenodd" clip-rule="evenodd" d="m63.488 129.793-3.303-.18 3.251-.291.052.471Z" fill="url(#bo)"/><path style="mix-blend-mode:multiply" opacity=".75" fill-rule="evenodd" clip-rule="evenodd" d="M81.596 131.693a11.765 11.765 0 0 0 1.497 7.145 43.12 43.12 0 0 0 10.458 2.063c7.111.419 19.271-2.285 15.669-4.733-11.742-7.967-27.624-4.475-27.624-4.475Z" fill="url(#bp)"/><path fill-rule="evenodd" clip-rule="evenodd" d="M108.971 135.8c-.445 0-7.813-.505-11.835-.778v.162l-.3 1.481-1.206 5.99-4.963-.539 1.472-7.702v-.223l-6.367-1.643v-.042a1.152 1.152 0 0 0-1.01-.574 1.016 1.016 0 0 0-.462.137l-.103.069c-1.874-.488-3.303-.856-3.483-.925 0 0 .094-.222.283-.616a51.599 51.599 0 0 1 1.968-3.688c2.627-4.501 7.342-11.193 14.017-14.967a17.74 17.74 0 0 1 1.797-.925l.103.103c.274.257.53.514.787.779 5.443 5.716 7.702 13.966 8.686 19.229a.877.877 0 0 0 0 .162c.343 1.909.497 3.355.565 4.04.043.316.051.47.051.47Z" fill="#8876C9"/><path fill-rule="evenodd" clip-rule="evenodd" d="M109.964 136.143c-4.297 0-8.587-.32-12.836-.959-.856-.103-1.66-.222-2.568-.351a59.505 59.505 0 0 1-2.456-.393l-1.172-.249h-.069a77.302 77.302 0 0 1-4.852-1.069v-.129a1.914 1.914 0 0 0-.197-.445v-.042a1.152 1.152 0 0 0-1.01-.574 1.016 1.016 0 0 0-.461.137l-.103.069c-.1.072-.19.158-.265.256a.488.488 0 0 0-.086.129 29.39 29.39 0 0 1-4.04-1.455l.54-1.113 1.592-3.303 1.044.266a65.097 65.097 0 0 0 9.61 1.711l4.33-16.687.54-2.046 2.293.36-.12 1.352v.291l-1.515 17.594 10.201 1.635 1.035.171.565 4.844Z" fill="url(#bq)"/><path fill-rule="evenodd" clip-rule="evenodd" d="m98.138 129.519-.591-.12 1.318-18.253.085-.993.856.128-.12 1.353v.291c5.443 5.716 7.702 13.966 8.686 19.229l-10.234-1.635Z" fill="#752771" style="mix-blend-mode:multiply" opacity=".5"/><path fill-rule="evenodd" clip-rule="evenodd" d="m91.206 138.83-.779 3.466 5.588.753 1.712-7.762-.625-.103-1.506 7.454-4.733-.907.343-2.901Z" fill="#5E4C9E"/><path style="mix-blend-mode:multiply" opacity=".3" fill-rule="evenodd" clip-rule="evenodd" d="M80.98 130.623a12.623 12.623 0 0 0 3.303 1.472l-.103.068c-.1.072-.19.159-.265.257a113.45 113.45 0 0 1-4.125-1.326l.54-1.113s.067.24.65.642Z" fill="url(#br)"/><path style="mix-blend-mode:multiply" opacity=".3" fill-rule="evenodd" clip-rule="evenodd" d="M109.964 136.143c-4.013.222-12.237-.856-12.237-.856l-.24 1.224-.684.154-5.366 1.249.667-3.474c-.376-.06-.77-.129-1.172-.214h-.069a72.657 72.657 0 0 1-4.886-1.198 1.9 1.9 0 0 0-.197-.445v-.043c1.31.359 2.944.736 4.964 1.104a119.035 119.035 0 0 0 18.219 1.711h.941l.06.788Z" fill="url(#bs)"/><path style="mix-blend-mode:multiply" opacity=".3" fill-rule="evenodd" clip-rule="evenodd" d="M85.49 122.964c5.827.103 7.248-3.817 6.666-7.548l-4.057 4.168-2.61 3.38Z" fill="url(#bt)"/><path style="mix-blend-mode:multiply" opacity=".3" fill-rule="evenodd" clip-rule="evenodd" d="M103.375 116.939a29.361 29.361 0 0 1 2.43 5.135s1.327 3.671 1.994 6.504a9.417 9.417 0 0 1-4.613-3.8c-2.31-4.279-.564-9.02-.564-9.02l.753 1.181Z" fill="url(#bu)"/><path style="mix-blend-mode:screen" opacity=".55" fill-rule="evenodd" clip-rule="evenodd" d="M85.49 127.517s2.164 2.396 10.628 3.251c2.841.291 10.646.146 10.646.146l-9.217-1.515-4.99-.779a47.955 47.955 0 0 1-7.068-1.103Z" fill="url(#bv)"/><path style="mix-blend-mode:screen" fill-rule="evenodd" clip-rule="evenodd" d="M84.788 125.488c-1.54 1.952 5.853 3.423 6.752 1.977.898-1.446 3.311-6.581 1.711-6.427-1.6.154-7.565 3.295-8.463 4.45Z" fill="url(#bw)"/><path style="mix-blend-mode:screen" opacity=".2" fill-rule="evenodd" clip-rule="evenodd" d="M93.157 127.859c-.06.633 3.175 1.095 3.483.471.308-.625 1.155-9.919.548-10.039-.608-.119-3.543 4.313-4.031 9.568Z" fill="url(#bx)"/><path fill-rule="evenodd" clip-rule="evenodd" d="M88.39 128.141c.53 1.472 3.09.368 3.09.368l-3.09-.368Z" fill="#fff"/><path style="mix-blend-mode:multiply" opacity=".3" fill-rule="evenodd" clip-rule="evenodd" d="M104.53 130.7c-4.176.59-9.413 2.833-7.6 3.423 1.815.591 10.724 2.379 11.28.856.556-1.523-1.994-4.51-3.68-4.279Z" fill="url(#by)"/><path style="mix-blend-mode:color-dodge" opacity=".3" d="M77.693 198.93c23.792 0 43.079-33.793 43.079-75.478 0-41.686-19.287-75.478-43.079-75.478s-43.079 33.792-43.079 75.478c0 41.685 19.287 75.478 43.08 75.478Z" fill="url(#bz)"/><path style="mix-blend-mode:color-dodge" opacity=".3" d="M123.682 69.292c12.756-12.757 12.756-33.439 0-46.195-12.757-12.756-33.439-12.756-46.195 0s-12.756 33.438 0 46.195c12.757 12.756 33.438 12.756 46.195 0Z" fill="url(#bA)"/><path fill-rule="evenodd" clip-rule="evenodd" d="M52.046 193.855c3.808.06 17.115-3.68 17.115-3.68l8.412 1.25-14.496 6.264s6.05 6.256 12.75 9.507c6.701 3.252 44.141-14.265 44.141-14.265l-22.9-3.894s10.209-1.865 14.548-3.115c0 0-29.952-1.506-35.745-1.506l6.358-2.79a239.034 239.034 0 0 0-25.793-1.523 80.652 80.652 0 0 0-23.55 3.817s12.237 9.824 19.16 9.935Z" fill="url(#bB)"/><path fill-rule="evenodd" clip-rule="evenodd" d="M32.886 183.92c16.832 4.501 49.3-2.294 49.3-2.294s-10.44-3.62-27.384-2.199c-16.944 1.421-21.916 4.493-21.916 4.493Z" fill="url(#bC)"/><path fill-rule="evenodd" clip-rule="evenodd" d="M75.828 184.416c-15.344 1.669-20.59 3.004-20.59 3.004s16.26 2.815 32.125 1.617c15.866-1.198 24.253-3.115 24.253-3.115s-28.882-2.25-35.788-1.506Z" fill="url(#bD)"/><path fill-rule="evenodd" clip-rule="evenodd" d="M77.582 191.425c-6.675 1.754-14.505 6.264-14.505 6.264s3.423 2.619 27.787 0c24.363-2.619 29.095-4.758 29.095-4.758a90.044 90.044 0 0 0-21.548-3.594 88.611 88.611 0 0 0-20.829 2.088Z" fill="url(#bE)"/><path fill-rule="evenodd" clip-rule="evenodd" d="M121.748 162.252c8.558-1.446 19.195 0 19.195 0l-4.373 3.098 8.746 1.446a54.463 54.463 0 0 1-22.772 4.467c-12.546-.411-16.765-4.467-16.765-4.467l15.404-1.857-1.326-2.062 1.891-.625Z" fill="url(#bF)"/><path fill-rule="evenodd" clip-rule="evenodd" d="M119.848 162.877c8.361 1.857 21.095-.625 21.095-.625a53.894 53.894 0 0 0-10.501-1.446 30.615 30.615 0 0 0-10.594 2.071Z" fill="url(#bG)"/><path fill-rule="evenodd" clip-rule="evenodd" d="M105.779 166.796c15.592 2.482 39.537 0 39.537 0s-5.794-1.712-19.768-1.712c-13.975 0-19.769 1.712-19.769 1.712Z" fill="url(#bH)"/><defs><linearGradient id="b" x1="169.585" y1="120.157" x2="194.839" y2="112.498" gradientUnits="userSpaceOnUse"><stop stop-color="#616B19"/><stop offset=".24" stop-color="#656E1A"/><stop offset=".46" stop-color="#70771C"/><stop offset=".67" stop-color="#838620"/><stop offset=".88" stop-color="#9D9B25"/><stop offset=".91" stop-color="#A19F26"/></linearGradient><linearGradient id="c" x1="167.694" y1="110.983" x2="181.121" y2="106.91" gradientUnits="userSpaceOnUse"><stop stop-color="#616B19"/><stop offset=".24" stop-color="#656E1A"/><stop offset=".46" stop-color="#70771C"/><stop offset=".67" stop-color="#838620"/><stop offset=".88" stop-color="#9D9B25"/><stop offset=".91" stop-color="#A19F26"/></linearGradient><linearGradient id="d" x1="165.717" y1="106.747" x2="179.529" y2="102.563" gradientUnits="userSpaceOnUse"><stop stop-color="#616B19"/><stop offset=".24" stop-color="#656E1A"/><stop offset=".46" stop-color="#70771C"/><stop offset=".67" stop-color="#838620"/><stop offset=".88" stop-color="#9D9B25"/><stop offset=".91" stop-color="#A19F26"/></linearGradient><linearGradient id="e" x1="178.87" y1="108.604" x2="185.057" y2="125.583" gradientUnits="userSpaceOnUse"><stop stop-color="#BD4EAF"/><stop offset="1" stop-color="#6E2653"/></linearGradient><linearGradient id="f" x1="174.292" y1="105.643" x2="163.235" y2="116.383" gradientUnits="userSpaceOnUse"><stop stop-color="#fff"/><stop offset="1" stop-color="#6E2653"/></linearGradient><linearGradient id="g" x1="177.638" y1="108.339" x2="166.136" y2="119.515" gradientUnits="userSpaceOnUse"><stop stop-color="#fff"/><stop offset="1" stop-color="#6E2653"/></linearGradient><linearGradient id="h" x1="183.868" y1="113.884" x2="172.041" y2="125.377" gradientUnits="userSpaceOnUse"><stop stop-color="#fff"/><stop offset="1" stop-color="#6E2653"/></linearGradient><linearGradient id="i" x1="148.685" y1="74.219" x2="189.265" y2="55.633" gradientUnits="userSpaceOnUse"><stop stop-color="#616B19"/><stop offset=".24" stop-color="#656E1A"/><stop offset=".46" stop-color="#70771C"/><stop offset=".67" stop-color="#838620"/><stop offset=".88" stop-color="#9D9B25"/><stop offset=".91" stop-color="#A19F26"/></linearGradient><linearGradient id="j" x1="151.652" y1="82.315" x2="197.913" y2="61.128" gradientUnits="userSpaceOnUse"><stop stop-color="#616B19"/><stop offset=".24" stop-color="#656E1A"/><stop offset=".46" stop-color="#70771C"/><stop offset=".67" stop-color="#838620"/><stop offset=".88" stop-color="#9D9B25"/><stop offset=".91" stop-color="#A19F26"/></linearGradient><linearGradient id="k" x1="156.832" y1="74.592" x2="178.309" y2="74.374" gradientUnits="userSpaceOnUse"><stop stop-color="#fff"/><stop offset="1" stop-color="#5C2295"/></linearGradient><linearGradient id="l" x1="107.842" y1="66.835" x2="107.842" y2=".051" gradientUnits="userSpaceOnUse"><stop stop-color="#616B19"/><stop offset=".24" stop-color="#656E1A"/><stop offset=".46" stop-color="#70771C"/><stop offset=".67" stop-color="#838620"/><stop offset=".88" stop-color="#9D9B25"/><stop offset=".91" stop-color="#A19F26"/></linearGradient><linearGradient id="m" x1="105.779" y1="57.07" x2="105.779" y2="26.434" gradientUnits="userSpaceOnUse"><stop stop-color="#fff"/><stop offset="1" stop-color="#5C2295"/></linearGradient><linearGradient id="n" x1="86.568" y1="43.275" x2="99.858" y2="43.275" gradientUnits="userSpaceOnUse"><stop stop-color="#616B19"/><stop offset=".24" stop-color="#656E1A"/><stop offset=".46" stop-color="#70771C"/><stop offset=".67" stop-color="#838620"/><stop offset=".88" stop-color="#9D9B25"/><stop offset=".91" stop-color="#A19F26"/></linearGradient><linearGradient id="o" x1="97.581" y1="57.892" x2="97.581" y2="31.877" gradientUnits="userSpaceOnUse"><stop stop-color="#fff"/><stop offset="1" stop-color="#5C2295"/></linearGradient><linearGradient id="p" x1="100.328" y1="37.028" x2="103.854" y2="37.028" gradientUnits="userSpaceOnUse"><stop stop-color="#EFC44D"/><stop offset="1"/></linearGradient><linearGradient id="q" x1="97.906" y1="41.675" x2="104.427" y2="41.675" gradientUnits="userSpaceOnUse"><stop stop-color="#fff"/><stop offset="1" stop-color="#5C2295"/></linearGradient><linearGradient id="r" x1="64.669" y1="147.567" x2="63.719" y2="170.647" gradientUnits="userSpaceOnUse"><stop stop-color="#616B19"/><stop offset=".24" stop-color="#656E1A"/><stop offset=".46" stop-color="#70771C"/><stop offset=".67" stop-color="#838620"/><stop offset=".88" stop-color="#9D9B25"/><stop offset=".91" stop-color="#A19F26"/></linearGradient><linearGradient id="s" x1="152.983" y1="151.743" x2="151.554" y2="186.479" gradientUnits="userSpaceOnUse"><stop stop-color="#616B19"/><stop offset=".24" stop-color="#656E1A"/><stop offset=".46" stop-color="#70771C"/><stop offset=".67" stop-color="#838620"/><stop offset=".88" stop-color="#9D9B25"/><stop offset=".91" stop-color="#A19F26"/></linearGradient><linearGradient id="t" x1="168.31" y1="153.087" x2="166.915" y2="186.787" gradientUnits="userSpaceOnUse"><stop stop-color="#616B19"/><stop offset=".24" stop-color="#656E1A"/><stop offset=".46" stop-color="#70771C"/><stop offset=".67" stop-color="#838620"/><stop offset=".88" stop-color="#9D9B25"/><stop offset=".91" stop-color="#A19F26"/></linearGradient><linearGradient id="u" x1="117.212" y1="184.262" x2="117.212" y2="122.288" gradientUnits="userSpaceOnUse"><stop stop-color="#4A1A1A"/><stop offset="1" stop-color="#570D0D"/></linearGradient><linearGradient id="v" x1="162.32" y1="160.96" x2="72.756" y2="160.96" gradientUnits="userSpaceOnUse"><stop stop-color="#4A1A1A"/><stop offset="1" stop-color="#731F1F"/></linearGradient><linearGradient id="w" x1="68.751" y1="170.185" x2="68.751" y2="149.176" gradientUnits="userSpaceOnUse"><stop stop-color="#8E2725"/><stop offset=".98" stop-color="#C30"/></linearGradient><linearGradient id="x" x1="87.98" y1="153.54" x2="92.293" y2="174.061" gradientUnits="userSpaceOnUse"><stop stop-color="#8E2725"/><stop offset="1" stop-color="#A9401C"/></linearGradient><linearGradient id="y" x1="89.28" y1="153.129" x2="93.679" y2="174.053" gradientUnits="userSpaceOnUse"><stop stop-color="#8E2725"/><stop offset="1" stop-color="#A9401C"/></linearGradient><linearGradient id="z" x1="114.756" y1="154.191" x2="108.749" y2="181.027" gradientUnits="userSpaceOnUse"><stop stop-color="#8E2725"/><stop offset=".98" stop-color="#C30"/></linearGradient><linearGradient id="A" x1="112.942" y1="169.92" x2="112.942" y2="149.099" gradientUnits="userSpaceOnUse"><stop stop-color="#8E2725"/><stop offset=".98" stop-color="#C30"/></linearGradient><linearGradient id="B" x1="136.133" y1="159.163" x2="130.297" y2="185.195" gradientUnits="userSpaceOnUse"><stop stop-color="#8E2725"/><stop offset=".98" stop-color="#C30"/></linearGradient><linearGradient id="C" x1="124.05" y1="182.14" x2="124.05" y2="135.997" gradientUnits="userSpaceOnUse"><stop stop-color="#8E2725"/><stop offset="1" stop-color="#A9401C"/></linearGradient><linearGradient id="D" x1="154.053" y1="170.245" x2="154.053" y2="141.217" gradientUnits="userSpaceOnUse"><stop stop-color="#8F332A"/><stop offset="1" stop-color="#3B1218"/></linearGradient><linearGradient id="E" x1="154.301" y1="170.81" x2="154.301" y2="141.517" gradientUnits="userSpaceOnUse"><stop stop-color="#8F332A"/><stop offset="1" stop-color="#3B1218"/></linearGradient><linearGradient id="F" x1="168.387" y1="169.877" x2="168.387" y2="142.467" gradientUnits="userSpaceOnUse"><stop stop-color="#8F332A"/><stop offset="1" stop-color="#3B1218"/></linearGradient><linearGradient id="G" x1="117.965" y1="182.114" x2="116.391" y2="154.396" gradientUnits="userSpaceOnUse"><stop stop-color="#963E8B"/><stop offset="1" stop-color="#6E2653"/></linearGradient><linearGradient id="H" x1="87.988" y1="238.321" x2="87.988" y2="89.358" gradientUnits="userSpaceOnUse"><stop stop-color="#C57CBB"/><stop offset="1" stop-color="#954577"/></linearGradient><linearGradient id="I" x1="142.338" y1="162.226" x2="168.182" y2="165.281" gradientUnits="userSpaceOnUse"><stop stop-color="#C57CBB"/><stop offset="1" stop-color="#954577"/></linearGradient><linearGradient id="J" x1="93.927" y1="191.382" x2="106.019" y2="165.384" gradientUnits="userSpaceOnUse"><stop stop-color="#3D56FD"/><stop offset="1"/></linearGradient><linearGradient id="L" x1="49.599" y1="89.931" x2="182.935" y2="89.931" gradientUnits="userSpaceOnUse"><stop stop-color="#562030"/><stop offset=".98" stop-color="#53275A"/></linearGradient><linearGradient id="M" x1="113.866" y1="108.716" x2="113.866" y2="125.471" gradientUnits="userSpaceOnUse"><stop stop-color="#BD4EAF"/><stop offset="1" stop-color="#6E2653"/></linearGradient><linearGradient id="N" x1="79.311" y1="67.125" x2="142.765" y2="67.125" gradientUnits="userSpaceOnUse"><stop stop-color="#653AB5"/><stop offset="1" stop-color="#5C2295"/></linearGradient><linearGradient id="O" x1="88.861" y1="82.64" x2="102.741" y2="108.895" gradientUnits="userSpaceOnUse"><stop stop-color="#653AB5"/><stop offset="1" stop-color="#5C2295"/></linearGradient><linearGradient id="P" x1="71.857" y1="99.122" x2="79.259" y2="113.131" gradientUnits="userSpaceOnUse"><stop stop-color="#653AB5"/><stop offset="1" stop-color="#5C2295"/></linearGradient><linearGradient id="Q" x1="70.505" y1="127.371" x2="75.254" y2="136.357" gradientUnits="userSpaceOnUse"><stop stop-color="#653AB5"/><stop offset="1" stop-color="#5C2295"/></linearGradient><linearGradient id="R" x1="156.158" y1="112.284" x2="161.404" y2="122.202" gradientUnits="userSpaceOnUse"><stop stop-color="#653AB5"/><stop offset="1" stop-color="#5C2295"/></linearGradient><linearGradient id="S" x1="169.414" y1="124.59" x2="173.872" y2="133.028" gradientUnits="userSpaceOnUse"><stop stop-color="#653AB5"/><stop offset="1" stop-color="#5C2295"/></linearGradient><linearGradient id="T" x1="149.868" y1="72.979" x2="159.641" y2="91.48" gradientUnits="userSpaceOnUse"><stop stop-color="#653AB5"/><stop offset="1" stop-color="#5C2295"/></linearGradient><linearGradient id="U" x1="133.284" y1="35.959" x2="146.137" y2="60.279" gradientUnits="userSpaceOnUse"><stop stop-color="#653AB5"/><stop offset="1" stop-color="#5C2295"/></linearGradient><linearGradient id="V" x1="106.301" y1="77.531" x2="110.931" y2="86.294" gradientUnits="userSpaceOnUse"><stop stop-color="#653AB5"/><stop offset="1" stop-color="#5C2295"/></linearGradient><linearGradient id="W" x1="112.36" y1="61.246" x2="127.362" y2="89.641" gradientUnits="userSpaceOnUse"><stop stop-color="#9E1D27"/><stop offset="1" stop-color="#450067"/></linearGradient><linearGradient id="X" x1="138.478" y1="40.349" x2="154.524" y2="70.711" gradientUnits="userSpaceOnUse"><stop stop-color="#963E8B"/><stop offset="1" stop-color="#6E2653"/></linearGradient><linearGradient id="Y" x1="149.346" y1="83.205" x2="161.335" y2="105.909" gradientUnits="userSpaceOnUse"><stop stop-color="#963E8B"/><stop offset="1" stop-color="#6E2653"/></linearGradient><linearGradient id="Z" x1="162.482" y1="116.066" x2="173.847" y2="137.563" gradientUnits="userSpaceOnUse"><stop stop-color="#963E8B"/><stop offset="1" stop-color="#6E2653"/></linearGradient><linearGradient id="aa" x1="90.949" y1="99.037" x2="105.634" y2="126.832" gradientUnits="userSpaceOnUse"><stop stop-color="#963E8B"/><stop offset="1" stop-color="#6E2653"/></linearGradient><linearGradient id="ab" x1="106.695" y1="126.584" x2="100.072" y2="98.566" gradientUnits="userSpaceOnUse"><stop stop-color="#BD4EAF"/><stop offset="1" stop-color="#6E2653"/></linearGradient><linearGradient id="ac" x1="130.451" y1="86.637" x2="130.451" y2="124.333" gradientUnits="userSpaceOnUse"><stop stop-color="#1A0F32"/><stop offset="1" stop-color="#200426"/></linearGradient><linearGradient id="ad" x1="136.253" y1="72.645" x2="136.253" y2="47.203" gradientUnits="userSpaceOnUse"><stop stop-color="#616B19"/><stop offset=".24" stop-color="#656E1A"/><stop offset=".46" stop-color="#70771C"/><stop offset=".67" stop-color="#838620"/><stop offset=".88" stop-color="#9D9B25"/><stop offset=".91" stop-color="#A19F26"/></linearGradient><linearGradient id="af" x1="143.185" y1="64.721" x2="134.465" y2="36.532" gradientUnits="userSpaceOnUse"><stop stop-color="#616B19"/><stop offset=".24" stop-color="#656E1A"/><stop offset=".46" stop-color="#70771C"/><stop offset=".67" stop-color="#838620"/><stop offset=".88" stop-color="#9D9B25"/><stop offset=".91" stop-color="#A19F26"/></linearGradient><linearGradient id="ag" x1="96.648" y1="115.827" x2="94.192" y2="66.989" gradientUnits="userSpaceOnUse"><stop stop-color="#616B19"/><stop offset=".24" stop-color="#656E1A"/><stop offset=".46" stop-color="#70771C"/><stop offset=".67" stop-color="#838620"/><stop offset=".88" stop-color="#9D9B25"/><stop offset=".91" stop-color="#A19F26"/></linearGradient><linearGradient id="ah" x1="110.632" y1="84.052" x2="116.476" y2="96.478" gradientUnits="userSpaceOnUse"><stop stop-color="#616B19"/><stop offset=".24" stop-color="#656E1A"/><stop offset=".46" stop-color="#70771C"/><stop offset=".67" stop-color="#838620"/><stop offset=".88" stop-color="#9D9B25"/><stop offset=".91" stop-color="#A19F26"/></linearGradient><linearGradient id="ai" x1="153.557" y1="83.128" x2="149.552" y2="109.024" gradientUnits="userSpaceOnUse"><stop stop-color="#616B19"/><stop offset=".24" stop-color="#656E1A"/><stop offset=".46" stop-color="#70771C"/><stop offset=".67" stop-color="#838620"/><stop offset=".88" stop-color="#9D9B25"/><stop offset=".91" stop-color="#A19F26"/></linearGradient><linearGradient id="aj" x1="158.494" y1="114.073" x2="155.422" y2="52.997" gradientUnits="userSpaceOnUse"><stop stop-color="#616B19"/><stop offset=".24" stop-color="#656E1A"/><stop offset=".46" stop-color="#70771C"/><stop offset=".67" stop-color="#838620"/><stop offset=".88" stop-color="#9D9B25"/><stop offset=".91" stop-color="#A19F26"/></linearGradient><linearGradient id="ak" x1="169.611" y1="112.618" x2="166.256" y2="45.954" gradientUnits="userSpaceOnUse"><stop stop-color="#616B19"/><stop offset=".24" stop-color="#656E1A"/><stop offset=".46" stop-color="#70771C"/><stop offset=".67" stop-color="#838620"/><stop offset=".88" stop-color="#9D9B25"/><stop offset=".91" stop-color="#A19F26"/></linearGradient><linearGradient id="al" x1="75.879" y1="119.079" x2="73.141" y2="64.601" gradientUnits="userSpaceOnUse"><stop stop-color="#616B19"/><stop offset=".24" stop-color="#656E1A"/><stop offset=".46" stop-color="#70771C"/><stop offset=".67" stop-color="#838620"/><stop offset=".88" stop-color="#9D9B25"/><stop offset=".91" stop-color="#A19F26"/></linearGradient><linearGradient id="am" x1="77.642" y1="110.35" x2="74.972" y2="99.045" gradientUnits="userSpaceOnUse"><stop stop-color="#fff"/><stop offset="1" stop-color="#5C2295"/></linearGradient><linearGradient id="an" x1="48.426" y1="129.844" x2="40.117" y2="150.742" gradientUnits="userSpaceOnUse"><stop stop-color="#616B19"/><stop offset=".24" stop-color="#656E1A"/><stop offset=".46" stop-color="#70771C"/><stop offset=".67" stop-color="#838620"/><stop offset=".88" stop-color="#9D9B25"/><stop offset=".91" stop-color="#A19F26"/></linearGradient><linearGradient id="ao" x1="56.145" y1="145.915" x2="48.503" y2="121.543" gradientUnits="userSpaceOnUse"><stop stop-color="#616B19"/><stop offset=".24" stop-color="#656E1A"/><stop offset=".46" stop-color="#70771C"/><stop offset=".67" stop-color="#838620"/><stop offset=".88" stop-color="#9D9B25"/><stop offset=".91" stop-color="#A19F26"/></linearGradient><linearGradient id="ap" x1="41.401" y1="152.017" x2="44.593" y2="146.275" gradientUnits="userSpaceOnUse"><stop stop-color="#fff"/><stop offset="1" stop-color="#5C2295"/></linearGradient><linearGradient id="aq" x1="48.615" y1="126.789" x2="57.044" y2="144.7" gradientUnits="userSpaceOnUse"><stop stop-color="#EFC44D"/><stop offset="1"/></linearGradient><linearGradient id="ar" x1="52.329" y1="127.072" x2="54.785" y2="131.419" gradientUnits="userSpaceOnUse"><stop stop-color="#fff"/><stop offset="1" stop-color="#5C2295"/></linearGradient><linearGradient id="as" x1="57.309" y1="135.218" x2="93.859" y2="124.128" gradientUnits="userSpaceOnUse"><stop stop-color="#616B19"/><stop offset=".24" stop-color="#656E1A"/><stop offset=".46" stop-color="#70771C"/><stop offset=".67" stop-color="#838620"/><stop offset=".88" stop-color="#9D9B25"/><stop offset=".91" stop-color="#A19F26"/></linearGradient><linearGradient id="at" x1="122.775" y1="80.356" x2="141.927" y2="80.356" gradientUnits="userSpaceOnUse"><stop stop-color="#361222"/><stop offset="1" stop-color="#541419"/></linearGradient><linearGradient id="au" x1="102.51" y1="42.12" x2="117.067" y2="82.067" gradientUnits="userSpaceOnUse"><stop stop-color="#fff"/><stop offset="1" stop-color="#5C2295"/></linearGradient><linearGradient id="av" x1="97.401" y1="38.851" x2="103.674" y2="58.722" gradientUnits="userSpaceOnUse"><stop stop-color="#F1A640"/><stop offset="1"/></linearGradient><linearGradient id="aw" x1="149.167" y1="89.589" x2="160.916" y2="111.83" gradientUnits="userSpaceOnUse"><stop stop-color="#BD4EAF"/><stop offset="1" stop-color="#6E2653"/></linearGradient><linearGradient id="ax" x1="94.013" y1="80.989" x2="97.376" y2="106.696" gradientUnits="userSpaceOnUse"><stop stop-color="#fff"/><stop offset="1" stop-color="#5C2295"/></linearGradient><linearGradient id="ay" x1="152.102" y1="131.359" x2="134.182" y2="59.663" gradientUnits="userSpaceOnUse"><stop stop-color="#fff"/><stop offset="1" stop-color="#6E2653"/></linearGradient><linearGradient id="az" x1="137.631" y1="36.669" x2="137.939" y2="50.934" gradientUnits="userSpaceOnUse"><stop stop-color="#fff"/><stop offset="1" stop-color="#5C2295"/></linearGradient><linearGradient id="aA" x1="64.771" y1="116.332" x2="64.771" y2="149.398" gradientUnits="userSpaceOnUse"><stop stop-color="#fff"/><stop offset="1" stop-color="#5C2295"/></linearGradient><linearGradient id="aB" x1="121.311" y1="113.867" x2="121.311" y2="154.413" gradientUnits="userSpaceOnUse"><stop stop-color="#fff"/><stop offset="1" stop-color="#5C2295"/></linearGradient><linearGradient id="aC" x1="158.768" y1="147.516" x2="158.289" y2="145.513" gradientUnits="userSpaceOnUse"><stop stop-color="#fff"/><stop offset="1" stop-color="#5C2295"/></linearGradient><linearGradient id="aD" x1="173.753" y1="87.98" x2="173.753" y2="153.669" gradientUnits="userSpaceOnUse"><stop stop-color="#fff"/><stop offset="1" stop-color="#5C2295"/></linearGradient><linearGradient id="aE" x1="88.801" y1="107.303" x2="76.906" y2="125.018" gradientUnits="userSpaceOnUse"><stop stop-color="#fff"/><stop offset=".42" stop-color="#BBA3D3"/><stop offset="1" stop-color="#5C2295"/></linearGradient><linearGradient id="aF" x1="146.591" y1="129.151" x2="145.05" y2="133.13" gradientUnits="userSpaceOnUse"><stop stop-color="#616B19"/><stop offset=".24" stop-color="#656E1A"/><stop offset=".46" stop-color="#70771C"/><stop offset=".67" stop-color="#838620"/><stop offset=".88" stop-color="#9D9B25"/><stop offset=".91" stop-color="#A19F26"/></linearGradient><linearGradient id="aG" x1="134.02" y1="129.639" x2="129.852" y2="140.37" gradientUnits="userSpaceOnUse"><stop stop-color="#616B19"/><stop offset=".24" stop-color="#656E1A"/><stop offset=".46" stop-color="#70771C"/><stop offset=".67" stop-color="#838620"/><stop offset=".88" stop-color="#9D9B25"/><stop offset=".91" stop-color="#A19F26"/></linearGradient><linearGradient id="aH" x1="129.766" y1="127.243" x2="109.528" y2="179.401" gradientUnits="userSpaceOnUse"><stop stop-color="#616B19"/><stop offset=".24" stop-color="#656E1A"/><stop offset=".46" stop-color="#70771C"/><stop offset=".67" stop-color="#838620"/><stop offset=".88" stop-color="#9D9B25"/><stop offset=".91" stop-color="#A19F26"/></linearGradient><linearGradient id="aI" x1="149.543" y1="135.004" x2="142.312" y2="153.634" gradientUnits="userSpaceOnUse"><stop stop-color="#616B19"/><stop offset=".24" stop-color="#656E1A"/><stop offset=".46" stop-color="#70771C"/><stop offset=".67" stop-color="#838620"/><stop offset=".88" stop-color="#9D9B25"/><stop offset=".91" stop-color="#A19F26"/></linearGradient><linearGradient id="aJ" x1="129.621" y1="182.619" x2="129.621" y2="115.108" gradientUnits="userSpaceOnUse"><stop stop-color="#F1A640"/><stop offset="1"/></linearGradient><linearGradient id="aK" x1="131.153" y1="120.465" x2="130.528" y2="128.064" gradientUnits="userSpaceOnUse"><stop stop-color="#fff"/><stop offset=".42" stop-color="#BBA3D3"/><stop offset="1" stop-color="#5C2295"/></linearGradient><linearGradient id="aL" x1="152.538" y1="64.704" x2="149.432" y2="52.252" gradientUnits="userSpaceOnUse"><stop stop-color="#732B40"/><stop offset=".98" stop-color="#6A3273"/></linearGradient><linearGradient id="aM" x1="157.938" y1="85.73" x2="151.306" y2="59.227" gradientUnits="userSpaceOnUse"><stop stop-color="#fff"/><stop offset="1" stop-color="#6E2653"/></linearGradient><linearGradient id="aN" x1="107.114" y1="46.69" x2="107.902" y2="66.107" gradientUnits="userSpaceOnUse"><stop stop-color="#F1A640"/><stop offset="1"/></linearGradient><linearGradient id="aT" x1="133.172" y1="104.36" x2="134.328" y2="91.181" gradientUnits="userSpaceOnUse"><stop stop-color="#fff"/><stop offset="1" stop-color="#36193B"/></linearGradient><linearGradient id="aU" x1="143.844" y1="115.87" x2="173.171" y2="115.87" gradientUnits="userSpaceOnUse"><stop stop-color="#fff"/><stop offset="1" stop-color="#6E2653"/></linearGradient><linearGradient id="aV" x1="156.518" y1="126.832" x2="182.943" y2="126.832" gradientUnits="userSpaceOnUse"><stop stop-color="#fff"/><stop offset="1" stop-color="#6E2653"/></linearGradient><linearGradient id="aW" x1="178.091" y1="144.11" x2="186.589" y2="145" gradientUnits="userSpaceOnUse"><stop stop-color="#fff"/><stop offset="1" stop-color="#6E2653"/></linearGradient><linearGradient id="aX" x1="178.588" y1="137.443" x2="186.589" y2="138.282" gradientUnits="userSpaceOnUse"><stop stop-color="#fff"/><stop offset="1" stop-color="#6E2653"/></linearGradient><linearGradient id="aY" x1="139.462" y1="98.344" x2="154.25" y2="98.344" gradientUnits="userSpaceOnUse"><stop stop-color="#9A91CF"/><stop offset="1" stop-color="#CDA6E0"/></linearGradient><linearGradient id="aZ" x1="139.462" y1="97.573" x2="154.25" y2="97.573" gradientUnits="userSpaceOnUse"><stop stop-color="#493D6F"/><stop offset="1" stop-color="#3B2A50"/></linearGradient><linearGradient id="ba" x1="136.792" y1="83.967" x2="151.255" y2="83.967" gradientUnits="userSpaceOnUse"><stop stop-color="#9A91CF"/><stop offset="1" stop-color="#CDA6E0"/></linearGradient><linearGradient id="bb" x1="144.058" y1="84.087" x2="151.255" y2="84.087" gradientUnits="userSpaceOnUse"><stop stop-color="#493D6F"/><stop offset="1" stop-color="#3B2A50"/></linearGradient><linearGradient id="bc" x1="136.792" y1="83.607" x2="142.928" y2="83.607" gradientUnits="userSpaceOnUse"><stop stop-color="#493D6F"/><stop offset="1" stop-color="#3B2A50"/></linearGradient><linearGradient id="bd" x1="130.87" y1="86.928" x2="130.87" y2="90.454" gradientUnits="userSpaceOnUse"><stop stop-color="#9A91CF"/><stop offset="1" stop-color="#CDA6E0"/></linearGradient><linearGradient id="be" x1="117.623" y1="90.719" x2="144.118" y2="90.719" gradientUnits="userSpaceOnUse"><stop stop-color="#493D6F"/><stop offset="1" stop-color="#3B2A50"/></linearGradient><linearGradient id="bf" x1="130.092" y1="88.811" x2="129.407" y2="82.007" gradientUnits="userSpaceOnUse"><stop stop-color="#fff"/><stop offset="1" stop-color="#3B2A50"/></linearGradient><linearGradient id="bg" x1="69.35" y1="108.228" x2="57.81" y2="109.785" gradientUnits="userSpaceOnUse"><stop stop-color="#B9B0E8"/><stop offset="1" stop-color="#F2BDE1"/></linearGradient><linearGradient id="bh" x1="69.406" y1="74.79" x2="58.238" y2="74.846" gradientUnits="userSpaceOnUse"><stop stop-color="#9A91CF"/><stop offset="1" stop-color="#CDA6E0"/></linearGradient><linearGradient id="bj" x1="55.511" y1="89.394" x2="74.076" y2="98.862" gradientUnits="userSpaceOnUse"><stop stop-color="#9A91CF"/><stop offset="1" stop-color="#CDA6E0"/></linearGradient><linearGradient id="bk" x1="57.121" y1="109.28" x2="71.968" y2="110.617" gradientUnits="userSpaceOnUse"><stop stop-color="#F5CEB3"/><stop offset="1" stop-color="#F7B0B8"/></linearGradient><linearGradient id="bl" x1="55.813" y1="88.948" x2="78.219" y2="93.606" gradientUnits="userSpaceOnUse"><stop stop-color="#493D6F"/><stop offset="1" stop-color="#3B2A50"/></linearGradient><linearGradient id="bm" x1="60.164" y1="76.778" x2="70.027" y2="78.829" gradientUnits="userSpaceOnUse"><stop stop-color="#963E8B"/><stop offset="1" stop-color="#6E2653"/></linearGradient><linearGradient id="bn" x1="66.519" y1="109.169" x2="76.569" y2="110.074" gradientUnits="userSpaceOnUse"><stop offset=".01" stop-color="#F069DF"/><stop offset="1" stop-color="#8D3BAB"/></linearGradient><linearGradient id="bo" x1="59.626" y1="129.553" x2="62.92" y2="129.85" gradientUnits="userSpaceOnUse"><stop stop-color="#fff"/><stop offset="1" stop-color="#5C2295"/></linearGradient><linearGradient id="bp" x1="95.69" y1="144.64" x2="95.69" y2="134.791" gradientUnits="userSpaceOnUse"><stop stop-color="#BBA3D3"/><stop offset=".64" stop-color="#7C4DAA"/><stop offset="1" stop-color="#5C2295"/></linearGradient><linearGradient id="br" x1="84.214" y1="131.051" x2="79.79" y2="131.359" gradientUnits="userSpaceOnUse"><stop offset=".01" stop-color="#F069DF"/><stop offset="1" stop-color="#8D3BAB"/></linearGradient><linearGradient id="bs" x1="109.801" y1="133.764" x2="85.951" y2="135.407" gradientUnits="userSpaceOnUse"><stop offset=".01" stop-color="#F069DF"/><stop offset="1" stop-color="#8D3BAB"/></linearGradient><linearGradient id="bt" x1="93.087" y1="118.039" x2="84.79" y2="120.972" gradientUnits="userSpaceOnUse"><stop offset=".01" stop-color="#F069DF"/><stop offset="1" stop-color="#8D3BAB"/></linearGradient><linearGradient id="bu" x1="105.778" y1="121.947" x2="102.495" y2="123.11" gradientUnits="userSpaceOnUse"><stop offset=".01" stop-color="#F069DF"/><stop offset="1" stop-color="#8D3BAB"/></linearGradient><linearGradient id="bv" x1="105.069" y1="131.753" x2="95.399" y2="129.656" gradientUnits="userSpaceOnUse"><stop offset=".01"/><stop offset="1" stop-color="#8D3BAB"/></linearGradient><linearGradient id="bw" x1="84.574" y1="124.547" x2="93.782" y2="124.547" gradientUnits="userSpaceOnUse"><stop offset=".01"/><stop offset="1" stop-color="#8D3BAB"/></linearGradient><linearGradient id="bx" x1="97.367" y1="118.368" x2="93.568" y2="132.6" gradientUnits="userSpaceOnUse"><stop offset=".01"/><stop offset="1" stop-color="#8D3BAB"/></linearGradient><linearGradient id="by" x1="96.563" y1="133.147" x2="108.295" y2="133.147" gradientUnits="userSpaceOnUse"><stop offset=".01" stop-color="#F069DF"/><stop offset="1" stop-color="#8D3BAB"/></linearGradient><linearGradient id="bB" x1="92.19" y1="195.823" x2="43.283" y2="190.937" gradientUnits="userSpaceOnUse"><stop offset=".04" stop-color="#300E38"/><stop offset=".49" stop-color="#4A1A1A"/><stop offset="1" stop-color="#731F1F"/></linearGradient><linearGradient id="bE" x1="101.484" y1="202.592" x2="114.688" y2="212.237" gradientUnits="userSpaceOnUse"><stop stop-color="#616B19"/><stop offset=".24" stop-color="#656E1A"/><stop offset=".46" stop-color="#70771C"/><stop offset=".67" stop-color="#838620"/><stop offset=".88" stop-color="#9D9B25"/><stop offset=".91" stop-color="#A19F26"/></linearGradient><linearGradient id="bF" x1="146.36" y1="166.017" x2="106.849" y2="166.907" gradientUnits="userSpaceOnUse"><stop offset=".04" stop-color="#300E38"/><stop offset=".49" stop-color="#4A1A1A"/><stop offset="1" stop-color="#731F1F"/></linearGradient><radialGradient id="a" cx="0" cy="0" r="1" gradientUnits="userSpaceOnUse" gradientTransform="translate(118.995 148.244) scale(83.9759)"><stop stop-color="#173CFF"/><stop offset=".25" stop-color="#122EC4"/><stop offset=".82" stop-color="#040B30"/><stop offset="1"/></radialGradient><radialGradient id="K" cx="0" cy="0" r="1" gradientUnits="userSpaceOnUse" gradientTransform="matrix(67.7078 0 0 62.9683 134.473 135.311)"><stop offset=".09" stop-color="#C3AF00"/><stop offset=".11" stop-color="#BEAC01"/><stop offset=".28" stop-color="#9D950A"/><stop offset=".45" stop-color="#838210"/><stop offset=".62" stop-color="#707515"/><stop offset=".8" stop-color="#656E18"/><stop offset="1" stop-color="#616B19"/></radialGradient><radialGradient id="ae" cx="0" cy="0" r="1" gradientUnits="userSpaceOnUse" gradientTransform="matrix(43.4898 0 0 40.4455 98.249 45.506)"><stop offset=".09" stop-color="#C3AF00"/><stop offset=".11" stop-color="#BEAC01"/><stop offset=".28" stop-color="#9D950A"/><stop offset=".45" stop-color="#838210"/><stop offset=".62" stop-color="#707515"/><stop offset=".8" stop-color="#656E18"/><stop offset="1" stop-color="#616B19"/></radialGradient><radialGradient id="aO" cx="0" cy="0" r="1" gradientUnits="userSpaceOnUse" gradientTransform="rotate(25.017 -196.947 346.706) scale(8.42273 4.88764)"><stop stop-color="#FD3800"/><stop offset=".12" stop-color="#D12E00"/><stop offset=".3" stop-color="#922000"/><stop offset=".47" stop-color="#5E1500"/><stop offset=".64" stop-color="#350C00"/><stop offset=".78" stop-color="#180500"/><stop offset=".91" stop-color="#060100"/><stop offset="1"/></radialGradient><radialGradient id="aP" cx="0" cy="0" r="1" gradientUnits="userSpaceOnUse" gradientTransform="rotate(25.017 -196.697 346.47) scale(4.29211 2.49068)"><stop stop-color="#E31C24"/><stop offset="1"/></radialGradient><radialGradient id="aQ" cx="0" cy="0" r="1" gradientUnits="userSpaceOnUse" gradientTransform="rotate(154.983 54.112 65.21) scale(8.42273 4.88764)"><stop stop-color="#FD3800"/><stop offset=".12" stop-color="#D12E00"/><stop offset=".3" stop-color="#922000"/><stop offset=".47" stop-color="#5E1500"/><stop offset=".64" stop-color="#350C00"/><stop offset=".78" stop-color="#180500"/><stop offset=".91" stop-color="#060100"/><stop offset="1"/></radialGradient><radialGradient id="aR" cx="0" cy="0" r="1" gradientUnits="userSpaceOnUse" gradientTransform="matrix(-3.88943 1.81507 -1.05328 -2.25701 130.801 101.291)"><stop stop-color="#E31C24"/><stop offset="1"/></radialGradient><radialGradient id="aS" cx="0" cy="0" r="1" gradientUnits="userSpaceOnUse" gradientTransform="matrix(19.3652 0 0 17.9259 131.319 115.725)"><stop stop-color="#FF249C"/><stop offset=".1" stop-color="#F02293"/><stop offset=".28" stop-color="#C71C7A"/><stop offset=".54" stop-color="#851352"/><stop offset=".85" stop-color="#2C061B"/><stop offset="1"/></radialGradient><radialGradient id="bi" cx="0" cy="0" r="1" gradientUnits="userSpaceOnUse" gradientTransform="translate(61.907 80.056) scale(4.95486)"><stop stop-color="#493B7A"/><stop offset="1" stop-color="#451D4F"/></radialGradient><radialGradient id="bq" cx="0" cy="0" r="1" gradientUnits="userSpaceOnUse" gradientTransform="translate(94.868 123.041) scale(14.1372)"><stop stop-color="#493B7A"/><stop offset="1" stop-color="#451D4F"/></radialGradient><radialGradient id="bz" cx="0" cy="0" r="1" gradientUnits="userSpaceOnUse" gradientTransform="matrix(43.0492 0 0 75.6496 77.694 117.911)"><stop stop-color="#AFAF33"/><stop offset=".12" stop-color="#A6A630"/><stop offset=".3" stop-color="#8E8E29"/><stop offset=".53" stop-color="#66661E"/><stop offset=".79" stop-color="#2F2F0E"/><stop offset="1"/></radialGradient><radialGradient id="bA" cx="0" cy="0" r="1" gradientUnits="userSpaceOnUse" gradientTransform="translate(100.584 46.195) scale(32.6644)"><stop stop-color="#AFAF33"/><stop offset=".12" stop-color="#A6A630"/><stop offset=".3" stop-color="#8E8E29"/><stop offset=".53" stop-color="#66661E"/><stop offset=".79" stop-color="#2F2F0E"/><stop offset="1"/></radialGradient><radialGradient id="bC" cx="0" cy="0" r="1" gradientUnits="userSpaceOnUse" gradientTransform="matrix(57.2158 0 0 49.3239 58.425 188.89)"><stop offset=".09" stop-color="#C3AF00"/><stop offset=".11" stop-color="#BEAC01"/><stop offset=".28" stop-color="#9D950A"/><stop offset=".45" stop-color="#838210"/><stop offset=".62" stop-color="#707515"/><stop offset=".8" stop-color="#656E18"/><stop offset="1" stop-color="#616B19"/></radialGradient><radialGradient id="bD" cx="0" cy="0" r="1" gradientUnits="userSpaceOnUse" gradientTransform="matrix(57.2009 0 0 49.3111 58.425 188.793)"><stop offset=".09" stop-color="#C3AF00"/><stop offset=".11" stop-color="#BEAC01"/><stop offset=".28" stop-color="#9D950A"/><stop offset=".45" stop-color="#838210"/><stop offset=".62" stop-color="#707515"/><stop offset=".8" stop-color="#656E18"/><stop offset="1" stop-color="#616B19"/></radialGradient><radialGradient id="bG" cx="0" cy="0" r="1" gradientUnits="userSpaceOnUse" gradientTransform="matrix(13.9673 0 0 15.1688 118.998 163.276)"><stop offset=".09" stop-color="#C3AF00"/><stop offset=".11" stop-color="#BEAC01"/><stop offset=".28" stop-color="#9D950A"/><stop offset=".45" stop-color="#838210"/><stop offset=".62" stop-color="#707515"/><stop offset=".8" stop-color="#656E18"/><stop offset="1" stop-color="#616B19"/></radialGradient><radialGradient id="bH" cx="0" cy="0" r="1" gradientUnits="userSpaceOnUse" gradientTransform="matrix(13.9673 0 0 15.1688 118.998 163.276)"><stop offset=".09" stop-color="#C3AF00"/><stop offset=".11" stop-color="#BEAC01"/><stop offset=".28" stop-color="#9D950A"/><stop offset=".45" stop-color="#838210"/><stop offset=".62" stop-color="#707515"/><stop offset=".8" stop-color="#656E18"/><stop offset="1" stop-color="#616B19"/></radialGradient></defs></svg>