<svg width="404" height="429" viewBox="0 0 404 429" fill="none" xmlns="http://www.w3.org/2000/svg"><path style="mix-blend-mode:screen" opacity=".3" d="M187.73 428.929c88.772 0 160.737-71.964 160.737-160.737 0-88.772-71.965-160.737-160.737-160.737-88.773 0-160.737 71.965-160.737 160.737 0 88.773 71.964 160.737 160.737 160.737Z" fill="url(#a)"/><path style="mix-blend-mode:color-dodge" opacity=".76" d="M303 303c55.781-55.781 55.781-146.219 0-202-55.781-55.78-146.219-55.78-202 0-55.78 55.781-55.78 146.219 0 202 55.781 55.781 146.219 55.781 202 0Z" fill="url(#b)"/><path fill-rule="evenodd" clip-rule="evenodd" d="m60.558 313.746 134.848 51.075 30.185-8.101 43.528 11.368 6.517-3.398 19.421-41.144 10.208-.457 14.684-19.747-8.722-1.911 17.035-23.553 2.336-3.234-6.909-1.796-16.644-1.65 3.202-54.684-19.829 2.858 20.629-32.977 3.577-9.539-27.522-3.038-3.152-56.546-21.609-8.216-2.646-48.249-7.252-14.765-.245-23.39-11.417-2.547-3.855 13.817-4.557-2.988-9.277 21.02-2.483-1.371-8.183 12.037-1.731 63.57-15.566 17.215-3.692 60.532-3.07 22.099-20.678-3.74 7.627-7.171-2.711-8.215-14.929-8.543 17.64-48.575-10.339-16.121-3.756-6.779 3.315-32.078-2.335.62-17.755 29.074-29.073 76.032-8.984 14.798-22.213 26.378.653 1.993-5.422 8.313 10.6 7.644 9.865 1.536-3.266 18.8-31.213 2.646-18.833 2.515 8.967 7.464 5.031 21.119Z" fill="url(#c)"/><path style="mix-blend-mode:screen" opacity=".13" fill-rule="evenodd" clip-rule="evenodd" d="m133.454 222.328 3.495-1.372 7.301 15.648-4.001 14.798-3.937 4.083 6.632-18.522-9.49-14.635Z" fill="url(#d)"/><path style="mix-blend-mode:screen" opacity=".13" fill-rule="evenodd" clip-rule="evenodd" d="M154.687 236.13c.196-.196 20.711 2.091 20.711 2.091l-3.936 17.264-3.708 1.977 2.483-17.151-19.257-.277 3.707-3.904Z" fill="url(#e)"/><path style="mix-blend-mode:multiply" opacity=".5" fill-rule="evenodd" clip-rule="evenodd" d="m84.176 241.716.653 1.993 39.348-9.702-6.779 9.849-27.39 15.81 9.865 1.536 31.556-15.746-29.858 44.248 48.625 6.174-8.396-32.194-12.936-.31 38.825-41.078 7.627-7.171-2.711-8.215-88.429 34.806Z" fill="url(#f)"/><path style="mix-blend-mode:multiply" opacity=".5" fill-rule="evenodd" clip-rule="evenodd" d="m330.598 274.644-58.686 20.417-43.267.817 47.04 21.69-53.557 18.343-20.678-4.394-58.833-12.511 58.131 16.268-17.494 2.744-122.696-24.272 134.849 51.075 30.184-8.102 43.528 11.369 6.517-3.398 19.421-41.144 10.208-.457 14.684-19.747-8.722-1.911 19.371-26.787Z" fill="url(#g)"/><path style="mix-blend-mode:multiply" opacity=".5" fill-rule="evenodd" clip-rule="evenodd" d="m160.273 296.286 37.535 3.691 90.748-13.981 18.293-11.352 3.398-58.13-19.829 2.858 20.629-32.977 3.577-9.539-27.522-3.038-3.152-56.546-47.824 49.98 4.067 23.765-56.35 40.017 7.513 15.892-31.295 14.521.212 34.839Z" fill="url(#h)"/><path fill-rule="evenodd" clip-rule="evenodd" d="m117.121 277.176 5.357 12.43 77.665 8.771-13.72-9.278-.67-18.212 1.552-3.299 7.71-3.528-.441-2.858-77.453 15.974Z" fill="url(#i)"/><path fill-rule="evenodd" clip-rule="evenodd" d="m261.067 259.585 36.799-19.159s-22.867-.507-22.246-1.029c.62-.523 34.627-22.867 34.627-22.867l-19.829 2.842-74.644 17.591-24.859 8.167-30.854 16.252 46.436-5.537-7.611 5.292-11.532 6.451-1.633 3.267 63.079-5.929 6.828 13.246-19.976 3.904 2.777 2.956 1.633 4.247s-49.441-3.593-50.977-3.626c-1.535-.033-92.56-5.651-92.56-5.651l-33.778 3.07-16.187 2.156 55.762 7.187 143.734 18.293 29.662 6.926s-48.429-21.871-47.04-21.691c33.63 4.214 91.303 7.481 91.303 7.481l-34.022-7.481 44.672-21.233v-2.859s-20.254-.245-38.923-2.156l-20.727-5.471-9.914-4.639Z" fill="url(#j)"/><path style="mix-blend-mode:multiply" opacity=".5" fill-rule="evenodd" clip-rule="evenodd" d="m239.474 124.41 1.013 19.093s-40.556 24.19-39.445 21.038c1.11-3.153 10.453-33.369 11.809-33.059 1.355.31 26.623-7.072 26.623-7.072Z" fill="url(#k)"/><path fill-rule="evenodd" clip-rule="evenodd" d="m191.389 173.344 1.29-29.759 20.172-20.351 26.623 1.176-18.489 8.052-16.154 26.623s40.164-21.592 50.029-26.28l-.539-17.134-4.247-49.947-5.945-12.806-3.365-32.813 11.434 2.547.245 23.39 7.252 14.7 1.323 24.337 1.323 23.912 21.609 8.167 2.172 4.426-49.996 45.668 1.862-5.864-22.214 19.502 41.944 2.418-9.228-.539v-8.281l37.665-16.644 28.469 19.061s-108.96 46.681-130.782 54.178c.922-2.82 2.8-5.229 5.309-6.811l17.346-14.096v-27.113l-14.7 13.883-.441 6.991s-3.397-3.757-2.973-6.076c.425-2.319 20.417-28.469 20.417-28.469l-15.941 9.8-1.47-5.848Z" fill="url(#l)"/><path fill-rule="evenodd" clip-rule="evenodd" d="m84.176 241.716 88.478-34.806-14.929-8.543-42.907 16.105 45.243-55.305-18.604 5.357a190.35 190.35 0 0 1 33.859-14.7l-10.339-16.153-12.903-5.031 6.533-27.391-32.764 49.719 2.711 13.54-28.763 52.577L87 234.905l-2.825 6.811Z" fill="url(#m)"/><path fill-rule="evenodd" clip-rule="evenodd" d="M117.121 277.176a260.2 260.2 0 0 0 45.913-1.846s22.099-10.437 31.54-14.128c0 0-10.405 2.09-27.343 5.88-17.64 3.952-50.11 10.094-50.11 10.094Z" fill="url(#n)"/><path style="mix-blend-mode:multiply" opacity=".5" fill-rule="evenodd" clip-rule="evenodd" d="m125.843 150.951 21.021-6.288 18.113-10.992 10.339 16.121-17.64 48.575 10.895 6.239-35.525 10.519-30.723 8.069 26.264-58.686-2.744-13.557Z" fill="url(#o)"/><path style="mix-blend-mode:multiply" opacity=".5" fill-rule="evenodd" clip-rule="evenodd" d="m191.389 173.344 20.22-8.134 17.199-9.604-19.926 13.786-16.709 22.556.767-12.707-1.551-5.897Z" fill="url(#p)"/><path style="mix-blend-mode:multiply" opacity=".5" fill-rule="evenodd" clip-rule="evenodd" d="m188.465 197.861 13.067-10.388 4.998-4.41-6.256 2.352 23.259-17.804 30.461-21.968-16.006 15.745-1.813 5.864s2.956-3.773 17.493-17.722c14.112-13.54 30.331-32.258 30.331-32.258l2.172 4.426-1.845 1.634 1.878 34.463 16.807 11.221-27.342-6.533-15.615-10.078-23.928 14.798-15.141 13.949-10.878 4.655 27.472 8.166-18.375 10.046-12.707 6.141-2.809-8.853-13.639 12.822 1.405-10.192s-2.564-2.711-2.76-4.394l-.229-1.682Z" fill="url(#q)"/><path fill-rule="evenodd" clip-rule="evenodd" d="m212.426 62.62 8.183-12.037-.245 32.666-9.424 38.449 1.486-59.078Z" fill="url(#r)"/><path fill-rule="evenodd" clip-rule="evenodd" d="m248.18 98.897-5.521-1.307 2.238-55.925-6.174 43.92-.425 12.79-1.372-64.452-4.557-2.99-.212 68.683 16.072 10.11-.049-10.83Z" fill="url(#s)"/><path style="mix-blend-mode:screen" opacity=".49" fill-rule="evenodd" clip-rule="evenodd" d="M200.143 215.321c15.86 3.054 54.684-13.197 54.684-13.197l-28.534 12.005-32.667 6.533 6.517-5.341Z" fill="url(#t)"/><path style="mix-blend-mode:multiply" opacity=".5" fill-rule="evenodd" clip-rule="evenodd" d="M232.173 211.663c2.711-.98 28.061-15.468 51.45-24.909a99.824 99.824 0 0 1-12.805 3.741s25.382-11.303 43.806-13.59l-3.577 9.539-20.629 32.928 19.829-2.858-20.221 13.36-74.252 7.089 16.399-25.3Z" fill="url(#u)"/><path style="mix-blend-mode:multiply" opacity=".5" fill-rule="evenodd" clip-rule="evenodd" d="m163.034 275.33.849 8.82 70.25 4.688 1.519-6.746 13.671-2.678-.49-14.456-63.08 5.929 1.552-3.299 7.628-4.083-.359-2.303-31.54 14.128Z" fill="url(#v)"/><path style="mix-blend-mode:multiply" opacity=".5" fill-rule="evenodd" clip-rule="evenodd" d="m46.56 285.163 8.967 7.464 44.966 3.251 143.603 17.868 20.499 7.628 4.524 46.714 6.517-3.398 19.421-41.144 10.208-.457 14.684-19.747-91.304-7.464 47.04 21.69-29.661-6.925-199.464-25.48Z" fill="url(#w)"/><path style="mix-blend-mode:screen" opacity=".13" fill-rule="evenodd" clip-rule="evenodd" d="m229.07 333.542 5.847 25.807-7.415-2.123-2.32-22.344 3.888-1.34Z" fill="url(#x)"/><path style="mix-blend-mode:screen" opacity=".13" fill-rule="evenodd" clip-rule="evenodd" d="m99.366 321.423 2.434 7.938-7.236-2.728-.065-6.174 4.867.964Z" fill="url(#y)"/><path style="mix-blend-mode:screen" opacity=".13" fill-rule="evenodd" clip-rule="evenodd" d="m111.404 323.808 16.578 15.484-19.306-7.317-5.014-9.703 7.742 1.536Z" fill="url(#z)"/><path style="mix-blend-mode:screen" opacity=".13" fill-rule="evenodd" clip-rule="evenodd" d="m176.28 336.629 19.127 28.192 6.598-2.663-14.863-24.761-3.887.621-6.975-1.389Z" fill="url(#A)"/><path style="mix-blend-mode:multiply" opacity=".5" fill-rule="evenodd" clip-rule="evenodd" d="m200.748 335.274-58.131-16.268 61.316 13.05 18.195 3.855 3.463 20.809-30.184 8.101-134.849-51.075 122.696 24.272 17.494-2.744Z" fill="url(#B)"/><path style="mix-blend-mode:multiply" opacity=".5" fill-rule="evenodd" clip-rule="evenodd" d="m222.128 335.911 42.467-14.537 4.524 46.714-25.023-6.534-18.505-4.834-30.184 8.101 21.641-8.738-16.3-20.809-58.131-16.268 79.511 16.905Z" fill="url(#C)"/><path style="mix-blend-mode:multiply" opacity=".5" fill-rule="evenodd" clip-rule="evenodd" d="m297.866 240.426-2.646 29.563 11.825 1.209 3.202-54.684-34.627 22.883 22.246 1.029Z" fill="url(#D)"/><path style="mix-blend-mode:multiply" opacity=".5" fill-rule="evenodd" clip-rule="evenodd" d="m192.679 143.585 20.939-5.129 7.367-5.994-16.154 26.623h-12.822l.67-15.5Z" fill="url(#E)"/><path style="mix-blend-mode:multiply" opacity=".5" fill-rule="evenodd" clip-rule="evenodd" d="m246.024 310.643-102.95-25.088-46.468-5.554 143.538 9.278-1.715-4.247 76.195-5.766 15.974-7.48v2.858l-44.672 21.234 34.023 7.464-91.304-7.464 47.04 21.69-29.661-6.925Z" fill="url(#F)"/><path style="mix-blend-mode:multiply" opacity=".5" fill-rule="evenodd" clip-rule="evenodd" d="m128.864 263.374 1.389 11.27 64.321-13.442.359 2.303 3.953-2.303 7.611-5.292-46.436 5.537 30.854-16.252-6.501-12.952-.572-1.209.49-1.617 2.842-3.643-19.485-3.479 7.627-7.17-43.887 30.331-1.144 16.579 17.346-18.506 19.372-1.813-25.203 21.968-12.936-.31Z" fill="url(#G)"/><path style="mix-blend-mode:multiply" opacity=".5" fill-rule="evenodd" clip-rule="evenodd" d="m131.429 245.456 43.887-30.331-7.627 7.17-38.825 41.079 9.964 9.326-21.707 4.476 1.257 4.165-11.123-.066 24.174-35.819Z" fill="url(#H)"/><path style="mix-blend-mode:multiply" opacity=".5" fill-rule="evenodd" clip-rule="evenodd" d="m188.269 246.681-28.208 14.766.049 6.958-16.186 3.381-2.124-8.102 25.203-21.968 8.313-3.495 9.098-5.978 6.501 12.952-2.646 1.486Z" fill="url(#I)"/><path style="mix-blend-mode:multiply" opacity=".5" fill-rule="evenodd" clip-rule="evenodd" d="M248.49 174.488s-.702 8.166 0 8.281l9.228.539 22.1-9.8-31.328.98Z" fill="url(#J)"/><path style="mix-blend-mode:multiply" opacity=".5" fill-rule="evenodd" clip-rule="evenodd" d="m240.144 289.279-56.988-4.116 136.793 18.179-62.002-11.286 34.055-6.893-48.232 1.568-3.626 2.548Z" fill="url(#K)"/><path fill-rule="evenodd" clip-rule="evenodd" d="m79.407 252.022 34.137-13.867 10.633-4.148-39.348 9.702-5.422 8.313Z" fill="url(#L)"/><path style="mix-blend-mode:multiply" opacity=".5" fill-rule="evenodd" clip-rule="evenodd" d="m259.695 60.807-7.252-14.765-.245-23.39-8.918-1.992.653 26.313 7.971 16.333 7.758 46.42 13.377 12.822-18.179 10.208h15.141l-2.303 5.962-20.123 19.24-11.449 9.294 2.564 14.961 19.028 1.095 7.481-3.3 24.174 3.3 3.25 2.548-17.003 37.011 21.544 2.303-21.544 14.227 22.246 1.029-36.799 19.159 9.881 4.573 20.319 10.862-34.431 8.608 3.3 2.58 13.671 2.63 12.119 7.04 25.301 5.553 19.371-26.787v-2.858l-23.553-.588 3.202-54.684-19.829 2.858 20.629-32.977 3.577-9.539-13.328-8.608-15.141-10.404-1.878-34.463 1.845-1.683-2.172-4.426-21.609-8.216-2.646-48.249Z" fill="url(#M)"/><path style="mix-blend-mode:multiply" opacity=".5" fill-rule="evenodd" clip-rule="evenodd" d="m223.092 51.955.816 45.847 1.258 25.987-12.315-.556-2.124 2.156.213-3.691 5.912-33.712 3.757-37.404 2.483 1.373Z" fill="url(#N)"/><path style="mix-blend-mode:multiply" opacity=".5" fill-rule="evenodd" clip-rule="evenodd" d="m232.157 99.615 1.845 24.5 5.472.245-18.489 8.053s-17.608 27.407-16.154 26.623l35.476-18.881 13.769-7.138-4.9-3.708-.866-19.6-4.099-2.711-12.054-7.383Z" fill="url(#O)"/><path style="mix-blend-mode:screen" opacity=".13" fill-rule="evenodd" clip-rule="evenodd" d="m155.847 303.358-44.443 20.45-7.742-1.536a5933.325 5933.325 0 0 1 17.183-23.863l35.002 4.949Z" fill="url(#P)"/><path style="mix-blend-mode:screen" opacity=".13" fill-rule="evenodd" clip-rule="evenodd" d="m231.013 325.539 2.303-.604-4.246 8.689-3.888 1.339a6874.505 6874.505 0 0 1 11.156-22.099l1.111.131a906.922 906.922 0 0 0-6.436 12.544Z" fill="url(#Q)"/><path style="mix-blend-mode:screen" opacity=".13" fill-rule="evenodd" clip-rule="evenodd" d="m111.061 297.201-11.695 24.222-4.867-.964 12.772-23.732 3.79.474Z" fill="url(#R)"/><path style="mix-blend-mode:screen" opacity=".13" fill-rule="evenodd" clip-rule="evenodd" d="m181.278 329.818 9.98 2.793-4.116 4.786-3.888.621-6.99-1.389a508.272 508.272 0 0 0 5.014-6.811Z" fill="url(#S)"/><path style="mix-blend-mode:screen" opacity=".13" fill-rule="evenodd" clip-rule="evenodd" d="m211.054 309.63-17.411 20.221-10.715-2.27a2388.49 2388.49 0 0 0 14.226-19.682l13.9 1.731Z" fill="url(#T)"/><path style="mix-blend-mode:multiply" opacity=".5" fill-rule="evenodd" clip-rule="evenodd" d="m295.057 323.546 10.208-.457 14.684-19.747-91.304-7.464 47.04 21.69-6.566 50.52 6.517-3.398 19.421-41.144Z" fill="url(#U)"/><path style="mix-blend-mode:screen" opacity=".49" fill-rule="evenodd" clip-rule="evenodd" d="M212.834 248.576c-4.998-1.111 28.453-8.265 62.786-9.179l7.742-5.113c-18.13 4.459-87.629 13.524-87.776 13.541a57.767 57.767 0 0 1-7.317-1.144l-10.307 5.358c20.809-3.741 101.872-2.205 101.872-2.205l11.433-5.962s-46.076 4.9-78.433 4.704Z" fill="url(#V)"/><path style="mix-blend-mode:screen" opacity=".49" fill-rule="evenodd" clip-rule="evenodd" d="M265.199 257.429c-27.211 3.773-60.188-.474-60.188-.474L203.508 258s33.614 1.764 58.049 1.323l3.642-1.894Z" fill="url(#W)"/><path style="mix-blend-mode:screen" opacity=".03" fill-rule="evenodd" clip-rule="evenodd" d="m206.17 222.377 11.434-4.638-3.937 19.943L208 239.56c.424-.163-1.83-17.183-1.83-17.183Z" fill="url(#X)"/><path style="mix-blend-mode:screen" opacity=".03" fill-rule="evenodd" clip-rule="evenodd" d="m244.848 206.91 19.159-8.543s-8.167 15.582-11.025 30.037l-2.891.245s-4.508-14.177-5.243-21.739Z" fill="url(#Y)"/><path style="mix-blend-mode:screen" opacity=".03" fill-rule="evenodd" clip-rule="evenodd" d="m239.376 208.625-3.25 1.421-4.639 23.226 2.858-.686 5.031-23.961Z" fill="url(#Z)"/><path style="mix-blend-mode:multiply" opacity=".5" fill-rule="evenodd" clip-rule="evenodd" d="m160.061 159.085-13.279 43.039 10.894-3.757 17.64-48.575-19.469 7.497-14.39 7.235 18.604-5.439Z" fill="url(#aa)"/><path style="mix-blend-mode:screen" opacity=".6" d="M202.463 322.485c74.952 0 135.714-22.933 135.714-51.222s-60.762-51.221-135.714-51.221c-74.953 0-135.715 22.932-135.715 51.221 0 28.289 60.762 51.222 135.715 51.222Z" fill="url(#ab)"/><path style="mix-blend-mode:soft-light" opacity=".49" fill-rule="evenodd" clip-rule="evenodd" d="M316.992 323.007s19.404-48.673-25.937-68.6c-59.143-26.133-128.593 16.987-138.965 18.587-10.878 1.634 35.82-43.528 32.259-62.066-3.528-18.261-38.743-43.529-121.129-25.856-14.618 3.266-44.623-57.69 40.442-78.401 59.29-14.487 112.014 30.56 111.067 39.005-.947 8.444-33.157 32.062-43.97 29.563-11.433-2.63-66.035-33.206-66.966-37.893-.932-4.688 18.587-18.245 55.533-3.267 4.492 1.829-26.329 3.789-25.415 8.559.915 4.769 27.277 18.211 34.48 19.796 6.958 1.535 34.3-17.967 35.003-21.724.702-3.756-55.24-37.305-85.865-31.311-36.13 7.154-51.908 55.272-42.875 60.973 0 0 58.473-6.681 85.848 8.428 24.876 13.72 53.606 20.253 29.27 63.994-3.61 6.533 98.441-52.626 131.238-22.409 28.6 26.329 8.592 68.91 8.592 68.91l-12.61 33.712Z" fill="url(#ac)"/><path style="mix-blend-mode:screen" opacity=".6" fill-rule="evenodd" clip-rule="evenodd" d="m55.527 292.627 5.031 21.119 134.849 51.075 30.184-8.102 43.528 11.368 6.517-3.397 19.421-41.144 10.208-.457 14.684-19.747-91.304-7.464 47.04 21.69-220.158-24.941Z" fill="url(#ad)"/><path fill-rule="evenodd" clip-rule="evenodd" d="M107.157 146.705c-3.544-.735-6.125-2.744-6.043-3.267.081-.523 1.029-3.479 2.352-2.907 1.323.571 5.341 3.707 5.161 4.148-.179.441-.31 2.254-1.47 2.026ZM68.545 76.765c-.98-.114-9.261-10.862-9.571-12.822-.31-1.96 3.021-.36 4.083-.277 1.062.081 8.346 4.23 8.575 6.19.229 1.96-2.09 7.023-3.087 6.909ZM202.283 89.521a5.778 5.778 0 0 1-3.152-2.94c-.36-1.11.506-1.633 1.911-1.029a5.619 5.619 0 0 1 3.168 2.99c.327 1.077-.522 1.518-1.927.98ZM65.409 214.014a8.851 8.851 0 0 1-4.655-4.067c-.49-1.404 2.76-2.695 4.9-1.796 2.14.898 2.336 3.626 2.76 5.014.425 1.388-.898 1.731-3.005.849ZM48.275 161.094a3.38 3.38 0 0 1-1.796-1.633c-.147-.523.408-.67 1.257-.31a3.264 3.264 0 0 1 1.813 1.633c.13.523-.424.67-1.274.31ZM27.646 142.932c.768.882 1.16 1.845.866 2.139-.294.294-1.127-.179-1.878-1.061-.752-.882-1.177-1.83-.899-2.14.278-.31 1.143.179 1.911 1.062ZM42.232 132.674c1.454 1.797 2.107 3.757 1.47 4.378-.637.62-4.753-1.552-6.207-3.267-1.453-1.715.343-2.532.948-3.185.604-.653 2.319.245 3.789 2.074ZM141.621 250.716c1.453 1.813 2.107 3.756 1.47 4.377-.637.621-4.753-1.535-6.207-3.267-1.454-1.731.343-2.515.947-3.168.605-.654 2.32.228 3.79 2.058ZM147.501 212.12c.604.751.882 1.633.637 1.829-.245.196-.915-.098-1.519-.833-.605-.735-.882-1.633-.637-1.846.245-.212.914.098 1.519.85ZM134.516 243.202c.604.752.882 1.634.637 1.846-.245.212-.915-.114-1.503-.849-.588-.735-.898-1.634-.653-1.846.245-.212.931.098 1.519.849ZM31.452 145.414a3.63 3.63 0 0 1 3.773.833c1.176 1.013 1.372 2.254.457 2.777a3.64 3.64 0 0 1-3.708-.833c-1.16-.98-1.42-2.221-.522-2.777ZM40.827 143.275c1.11-1.846 4.214-1.47 6.893.865 2.679 2.336 5.978 5.521 4.753 7.089-1.225 1.568-6.37 1.356-8.902-.8-2.531-2.156-3.805-5.374-2.744-7.154ZM64.756 201.16c.375-.653 1.502-.506 2.515.343 1.013.85 1.486 2.058 1.094 2.695-.392.637-1.502.458-2.499-.375-.996-.833-1.486-2.026-1.11-2.663ZM103.057 94.666c.393-.653 1.52-.506 2.532.36 1.013.865 1.487 2.041 1.095 2.678-.392.638-1.503.458-2.499-.359-.997-.817-1.503-2.107-1.128-2.678Z" fill="#8BD6FC"/><defs><linearGradient id="c" x1="210.025" y1="353.469" x2="150" y2="103.715" gradientUnits="userSpaceOnUse"><stop stop-color="#243252"/><stop offset=".49" stop-color="#533A63"/><stop offset="1" stop-color="#4A4275"/></linearGradient><linearGradient id="d" x1="138.534" y1="228.274" x2="144.103" y2="284.885" gradientUnits="userSpaceOnUse"><stop stop-color="#9DF6F0"/><stop offset=".15" stop-color="#98EEEF"/><stop offset=".38" stop-color="#88D9ED"/><stop offset=".65" stop-color="#70B6EA"/><stop offset=".97" stop-color="#4E87E6"/><stop offset="1" stop-color="#4A81E5"/></linearGradient><linearGradient id="e" x1="163.23" y1="240.181" x2="166.872" y2="277.323" gradientUnits="userSpaceOnUse"><stop stop-color="#9DF6F0"/><stop offset=".15" stop-color="#98EEEF"/><stop offset=".38" stop-color="#88D9ED"/><stop offset=".65" stop-color="#70B6EA"/><stop offset=".97" stop-color="#4E87E6"/><stop offset="1" stop-color="#4A81E5"/></linearGradient><linearGradient id="f" x1="126.904" y1="199.364" x2="151.943" y2="454.491" gradientUnits="userSpaceOnUse"><stop stop-color="#653AB5"/><stop offset="1" stop-color="#5C2295"/></linearGradient><linearGradient id="g" x1="186.864" y1="205.358" x2="204.325" y2="383.31" gradientUnits="userSpaceOnUse"><stop stop-color="#653AB5"/><stop offset="1" stop-color="#5C2295"/></linearGradient><linearGradient id="h" x1="160.061" y1="208.625" x2="314.624" y2="208.625" gradientUnits="userSpaceOnUse"><stop stop-color="#653AB5"/><stop offset="1" stop-color="#5C2295"/></linearGradient><linearGradient id="i" x1="192.369" y1="282.256" x2="125.679" y2="268.764" gradientUnits="userSpaceOnUse"><stop stop-color="#324E66"/><stop offset="1" stop-color="#594275"/></linearGradient><linearGradient id="j" x1="70.521" y1="279.218" x2="367.61" y2="262.95" gradientUnits="userSpaceOnUse"><stop stop-color="#9DF6F0"/><stop offset=".15" stop-color="#98EEEF"/><stop offset=".38" stop-color="#88D9ED"/><stop offset=".65" stop-color="#70B6EA"/><stop offset=".97" stop-color="#4E87E6"/><stop offset="1" stop-color="#4A81E5"/></linearGradient><linearGradient id="k" x1="219.253" y1="134.357" x2="225.166" y2="194.561" gradientUnits="userSpaceOnUse"><stop stop-color="#653AB5"/><stop offset="1" stop-color="#5C2295"/></linearGradient><linearGradient id="l" x1="235.603" y1="65.152" x2="268.711" y2="402.339" gradientUnits="userSpaceOnUse"><stop stop-color="#9DF6F0"/><stop offset=".15" stop-color="#98EEEF"/><stop offset=".38" stop-color="#88D9ED"/><stop offset=".65" stop-color="#70B6EA"/><stop offset=".97" stop-color="#4E87E6"/><stop offset="1" stop-color="#4A81E5"/></linearGradient><linearGradient id="m" x1="119.048" y1="86.663" x2="157.48" y2="478.24" gradientUnits="userSpaceOnUse"><stop stop-color="#9DF6F0"/><stop offset=".15" stop-color="#98EEEF"/><stop offset=".38" stop-color="#88D9ED"/><stop offset=".65" stop-color="#70B6EA"/><stop offset=".97" stop-color="#4E87E6"/><stop offset="1" stop-color="#4A81E5"/></linearGradient><linearGradient id="n" x1="155.814" y1="269.042" x2="157.709" y2="279.724" gradientUnits="userSpaceOnUse"><stop stop-color="#9DF6F0"/><stop offset="1" stop-color="#4A81E5"/></linearGradient><linearGradient id="o" x1="132.817" y1="125.259" x2="156.876" y2="370.423" gradientUnits="userSpaceOnUse"><stop stop-color="#653AB5"/><stop offset="1" stop-color="#5C2295"/></linearGradient><linearGradient id="p" x1="209.6" y1="164.606" x2="214.876" y2="218.376" gradientUnits="userSpaceOnUse"><stop stop-color="#653AB5"/><stop offset="1" stop-color="#5C2295"/></linearGradient><linearGradient id="q" x1="241.467" y1="140.449" x2="255.595" y2="284.379" gradientUnits="userSpaceOnUse"><stop stop-color="#653AB5"/><stop offset="1" stop-color="#5C2295"/></linearGradient><linearGradient id="r" x1="213.847" y1="66.475" x2="225.15" y2="181.674" gradientUnits="userSpaceOnUse"><stop stop-color="#9DF6F0"/><stop offset=".15" stop-color="#98EEEF"/><stop offset=".38" stop-color="#88D9ED"/><stop offset=".65" stop-color="#70B6EA"/><stop offset=".97" stop-color="#4E87E6"/><stop offset="1" stop-color="#4A81E5"/></linearGradient><linearGradient id="s" x1="236.305" y1="47.969" x2="249.258" y2="179.943" gradientUnits="userSpaceOnUse"><stop stop-color="#9DF6F0"/><stop offset=".15" stop-color="#98EEEF"/><stop offset=".38" stop-color="#88D9ED"/><stop offset=".65" stop-color="#70B6EA"/><stop offset=".97" stop-color="#4E87E6"/><stop offset="1" stop-color="#4A81E5"/></linearGradient><linearGradient id="t" x1="223.859" y1="207.873" x2="225.885" y2="228.453" gradientUnits="userSpaceOnUse"><stop stop-color="#9DF6F0"/><stop offset=".15" stop-color="#98EEEF"/><stop offset=".38" stop-color="#88D9ED"/><stop offset=".65" stop-color="#70B6EA"/><stop offset=".97" stop-color="#4E87E6"/><stop offset="1" stop-color="#4A81E5"/></linearGradient><linearGradient id="u" x1="263.811" y1="192.83" x2="271.978" y2="275.918" gradientUnits="userSpaceOnUse"><stop stop-color="#653AB5"/><stop offset="1" stop-color="#5C2295"/></linearGradient><linearGradient id="v" x1="205.615" y1="266.951" x2="210.695" y2="318.728" gradientUnits="userSpaceOnUse"><stop stop-color="#653AB5"/><stop offset="1" stop-color="#5C2295"/></linearGradient><linearGradient id="w" x1="179.645" y1="257.56" x2="209.894" y2="565.64" gradientUnits="userSpaceOnUse"><stop stop-color="#653AB5"/><stop offset="1" stop-color="#5C2295"/></linearGradient><linearGradient id="x" x1="231.324" y1="357.993" x2="226.162" y2="336.564" gradientUnits="userSpaceOnUse"><stop stop-color="#9DF6F0"/><stop offset=".15" stop-color="#98EEEF"/><stop offset=".38" stop-color="#88D9ED"/><stop offset=".65" stop-color="#70B6EA"/><stop offset=".97" stop-color="#4E87E6"/><stop offset="1" stop-color="#4A81E5"/></linearGradient><linearGradient id="y" x1="98.484" y1="329.296" x2="96.475" y2="320.9" gradientUnits="userSpaceOnUse"><stop stop-color="#9DF6F0"/><stop offset=".15" stop-color="#98EEEF"/><stop offset=".38" stop-color="#88D9ED"/><stop offset=".65" stop-color="#70B6EA"/><stop offset=".97" stop-color="#4E87E6"/><stop offset="1" stop-color="#4A81E5"/></linearGradient><linearGradient id="z" x1="118.003" y1="339.831" x2="113.674" y2="321.815" gradientUnits="userSpaceOnUse"><stop stop-color="#9DF6F0"/><stop offset=".15" stop-color="#98EEEF"/><stop offset=".38" stop-color="#88D9ED"/><stop offset=".65" stop-color="#70B6EA"/><stop offset=".97" stop-color="#4E87E6"/><stop offset="1" stop-color="#4A81E5"/></linearGradient><linearGradient id="A" x1="192.385" y1="362.893" x2="186.162" y2="337.038" gradientUnits="userSpaceOnUse"><stop stop-color="#9DF6F0"/><stop offset=".15" stop-color="#98EEEF"/><stop offset=".38" stop-color="#88D9ED"/><stop offset=".65" stop-color="#70B6EA"/><stop offset=".97" stop-color="#4E87E6"/><stop offset="1" stop-color="#4A81E5"/></linearGradient><linearGradient id="B" x1="139.334" y1="297.086" x2="157.905" y2="486.194" gradientUnits="userSpaceOnUse"><stop stop-color="#653AB5"/><stop offset="1" stop-color="#5C2295"/></linearGradient><linearGradient id="C" x1="202.071" y1="304.632" x2="219.825" y2="485.476" gradientUnits="userSpaceOnUse"><stop stop-color="#653AB5"/><stop offset="1" stop-color="#5C2295"/></linearGradient><linearGradient id="D" x1="291.251" y1="210.846" x2="306.947" y2="370.685" gradientUnits="userSpaceOnUse"><stop stop-color="#653AB5"/><stop offset="1" stop-color="#5C2295"/></linearGradient><linearGradient id="E" x1="205.011" y1="130.567" x2="212.23" y2="204.165" gradientUnits="userSpaceOnUse"><stop stop-color="#653AB5"/><stop offset="1" stop-color="#5C2295"/></linearGradient><linearGradient id="F" x1="212.148" y1="261.022" x2="228.057" y2="423.147" gradientUnits="userSpaceOnUse"><stop stop-color="#653AB5"/><stop offset="1" stop-color="#5C2295"/></linearGradient><linearGradient id="G" x1="162.691" y1="208.722" x2="178.583" y2="370.75" gradientUnits="userSpaceOnUse"><stop stop-color="#653AB5"/><stop offset="1" stop-color="#5C2295"/></linearGradient><linearGradient id="H" x1="137.586" y1="210.421" x2="155.079" y2="388.716" gradientUnits="userSpaceOnUse"><stop stop-color="#653AB5"/><stop offset="1" stop-color="#5C2295"/></linearGradient><linearGradient id="I" x1="163.899" y1="229.319" x2="174.157" y2="333.934" gradientUnits="userSpaceOnUse"><stop stop-color="#653AB5"/><stop offset="1" stop-color="#5C2295"/></linearGradient><linearGradient id="J" x1="248.18" y1="178.44" x2="279.818" y2="178.44" gradientUnits="userSpaceOnUse"><stop stop-color="#653AB5"/><stop offset="1" stop-color="#5C2295"/></linearGradient><linearGradient id="K" x1="249.584" y1="274.252" x2="258.715" y2="367.222" gradientUnits="userSpaceOnUse"><stop stop-color="#653AB5"/><stop offset="1" stop-color="#5C2295"/></linearGradient><linearGradient id="L" x1="96.524" y1="259.323" x2="107.892" y2="224.19" gradientUnits="userSpaceOnUse"><stop stop-color="#9DF6F0"/><stop offset=".15" stop-color="#98EEEF"/><stop offset=".38" stop-color="#88D9ED"/><stop offset=".65" stop-color="#70B6EA"/><stop offset=".97" stop-color="#4E87E6"/><stop offset="1" stop-color="#4A81E5"/></linearGradient><linearGradient id="M" x1="236.126" y1="161.045" x2="330.598" y2="161.045" gradientUnits="userSpaceOnUse"><stop stop-color="#653AB5"/><stop offset="1" stop-color="#5C2295"/></linearGradient><linearGradient id="N" x1="210.711" y1="87.986" x2="225.166" y2="87.986" gradientUnits="userSpaceOnUse"><stop stop-color="#653AB5"/><stop offset="1" stop-color="#5C2295"/></linearGradient><linearGradient id="O" x1="226.13" y1="112.519" x2="235.276" y2="205.799" gradientUnits="userSpaceOnUse"><stop stop-color="#653AB5"/><stop offset="1" stop-color="#5C2295"/></linearGradient><linearGradient id="P" x1="130.824" y1="317.258" x2="126.447" y2="299.03" gradientUnits="userSpaceOnUse"><stop stop-color="#9DF6F0"/><stop offset=".15" stop-color="#98EEEF"/><stop offset=".38" stop-color="#88D9ED"/><stop offset=".65" stop-color="#70B6EA"/><stop offset=".97" stop-color="#4E87E6"/><stop offset="1" stop-color="#4A81E5"/></linearGradient><linearGradient id="Q" x1="233.104" y1="331.386" x2="229.429" y2="316.098" gradientUnits="userSpaceOnUse"><stop stop-color="#9DF6F0"/><stop offset=".15" stop-color="#98EEEF"/><stop offset=".38" stop-color="#88D9ED"/><stop offset=".65" stop-color="#70B6EA"/><stop offset=".97" stop-color="#4E87E6"/><stop offset="1" stop-color="#4A81E5"/></linearGradient><linearGradient id="R" x1="105.034" y1="318.205" x2="100.722" y2="300.239" gradientUnits="userSpaceOnUse"><stop stop-color="#9DF6F0"/><stop offset=".15" stop-color="#98EEEF"/><stop offset=".38" stop-color="#88D9ED"/><stop offset=".65" stop-color="#70B6EA"/><stop offset=".97" stop-color="#4E87E6"/><stop offset="1" stop-color="#4A81E5"/></linearGradient><linearGradient id="S" x1="184.414" y1="337.332" x2="182.715" y2="330.243" gradientUnits="userSpaceOnUse"><stop stop-color="#9DF6F0"/><stop offset=".15" stop-color="#98EEEF"/><stop offset=".38" stop-color="#88D9ED"/><stop offset=".65" stop-color="#70B6EA"/><stop offset=".97" stop-color="#4E87E6"/><stop offset="1" stop-color="#4A81E5"/></linearGradient><linearGradient id="T" x1="198.984" y1="326.862" x2="194.982" y2="310.218" gradientUnits="userSpaceOnUse"><stop stop-color="#9DF6F0"/><stop offset=".15" stop-color="#98EEEF"/><stop offset=".38" stop-color="#88D9ED"/><stop offset=".65" stop-color="#70B6EA"/><stop offset=".97" stop-color="#4E87E6"/><stop offset="1" stop-color="#4A81E5"/></linearGradient><linearGradient id="U" x1="272.468" y1="281.014" x2="294.452" y2="505.027" gradientUnits="userSpaceOnUse"><stop stop-color="#653AB5"/><stop offset="1" stop-color="#5C2295"/></linearGradient><linearGradient id="V" x1="234.084" y1="242.418" x2="236.518" y2="267.343" gradientUnits="userSpaceOnUse"><stop stop-color="#9DF6F0"/><stop offset=".15" stop-color="#98EEEF"/><stop offset=".38" stop-color="#88D9ED"/><stop offset=".65" stop-color="#70B6EA"/><stop offset=".97" stop-color="#4E87E6"/><stop offset="1" stop-color="#4A81E5"/></linearGradient><linearGradient id="W" x1="234.166" y1="255.812" x2="235.44" y2="268.813" gradientUnits="userSpaceOnUse"><stop stop-color="#9DF6F0"/><stop offset=".15" stop-color="#98EEEF"/><stop offset=".38" stop-color="#88D9ED"/><stop offset=".65" stop-color="#70B6EA"/><stop offset=".97" stop-color="#4E87E6"/><stop offset="1" stop-color="#4A81E5"/></linearGradient><linearGradient id="X" x1="212.132" y1="222.802" x2="215.497" y2="257.102" gradientUnits="userSpaceOnUse"><stop stop-color="#9DF6F0"/><stop offset=".15" stop-color="#98EEEF"/><stop offset=".38" stop-color="#88D9ED"/><stop offset=".65" stop-color="#70B6EA"/><stop offset=".97" stop-color="#4E87E6"/><stop offset="1" stop-color="#4A81E5"/></linearGradient><linearGradient id="Y" x1="254.713" y1="205.554" x2="259.385" y2="253.1" gradientUnits="userSpaceOnUse"><stop stop-color="#9DF6F0"/><stop offset=".15" stop-color="#98EEEF"/><stop offset=".38" stop-color="#88D9ED"/><stop offset=".65" stop-color="#70B6EA"/><stop offset=".97" stop-color="#4E87E6"/><stop offset="1" stop-color="#4A81E5"/></linearGradient><linearGradient id="Z" x1="234.77" y1="214.26" x2="238.625" y2="253.46" gradientUnits="userSpaceOnUse"><stop stop-color="#9DF6F0"/><stop offset=".15" stop-color="#98EEEF"/><stop offset=".38" stop-color="#88D9ED"/><stop offset=".65" stop-color="#70B6EA"/><stop offset=".97" stop-color="#4E87E6"/><stop offset="1" stop-color="#4A81E5"/></linearGradient><linearGradient id="aa" x1="157.17" y1="144.712" x2="171.462" y2="290.308" gradientUnits="userSpaceOnUse"><stop stop-color="#653AB5"/><stop offset="1" stop-color="#5C2295"/></linearGradient><linearGradient id="ac" x1="170.471" y1="-135.14" x2="228.298" y2="357.386" gradientUnits="userSpaceOnUse"><stop stop-color="#fff"/><stop offset=".99" stop-color="#89FFFC"/></linearGradient><linearGradient id="ad" x1="193.724" y1="375.225" x2="190.065" y2="328.087" gradientUnits="userSpaceOnUse"><stop stop-color="#3D56FD"/><stop offset="1"/></linearGradient><radialGradient id="a" cx="0" cy="0" r="1" gradientUnits="userSpaceOnUse" gradientTransform="translate(187.73 268.192) scale(160.737)"><stop stop-color="#173CFF"/><stop offset="1"/></radialGradient><radialGradient id="b" cx="0" cy="0" r="1" gradientUnits="userSpaceOnUse" gradientTransform="translate(202.003 202.013) scale(142.836)"><stop stop-color="#009D93"/><stop offset=".14" stop-color="#007971"/><stop offset=".33" stop-color="#004E49"/><stop offset=".52" stop-color="#002C29"/><stop offset=".7" stop-color="#001412"/><stop offset=".86" stop-color="#000505"/><stop offset="1"/></radialGradient><radialGradient id="ab" cx="0" cy="0" r="1" gradientUnits="userSpaceOnUse" gradientTransform="matrix(135.302 0 0 50.8581 198.809 249.076)"><stop stop-color="#3D56FD"/><stop offset="1"/></radialGradient></defs></svg>