<svg width="204" height="266" viewBox="0 0 204 266" fill="none" xmlns="http://www.w3.org/2000/svg"><path style="mix-blend-mode:screen" opacity=".3" d="M199.573 185.298c-7.85 43.599-47.63 77-92.89 80.36-49.01 3.59-97.26-28.541-104.94-79.381-9.25-61.28 42.66-115.62 110.35-109.62 60.65 5.34 96.68 57.591 87.48 108.641Z" fill="url(#a)"/><path style="mix-blend-mode:screen" opacity=".2" fill-rule="evenodd" clip-rule="evenodd" d="M12.543 116.758c9.51 13.8 27.65 15.74 36.42 5.41 8.4-9.89 5.56-36.31 5.56-36.31s-23.14 22.34-32.16 8.55c-8.56-13.09 23.65-24 39.51-21.12 16.48 3-8.6 46.94 21 56.1 34.27 10.62 136.73-41 118.24-71.6-7.47-12.38-50.27 15.51-49-19.2.49-12.78 17.13-4.09 19.27-.44.8 1.36.57-11.53-5.34-11.81-16.37-.8-31.58 32.4-17.95 39.33 11 5.61 48.27-17.86 46.19 1.13-1 9.07-63.6 63.69-90.68 52.77-16.24-6.57-26.75-39.76-34.22-49.67-6.85-9.09-17.71-18.56-27.78-10.48-11.84 9.51-37.61 44.96-29.06 57.34Zm12.31-18.29c8 8.26 25.56-7.16 25-5.57-11 29.42-27.55 28.09-30.69 11.56-1.43-7.3-.02-11.87 5.69-5.99Z" fill="url(#b)"/><path style="mix-blend-mode:screen" opacity=".8" fill-rule="evenodd" clip-rule="evenodd" d="M181.413 177.447c-6.26 37.81-32.29 66.14-60.26 67.94-29.6 1.9-56.56-26.08-58.95-68.23-2.84-50 29-94.78 68.64-91.1 36.83 3.41 57.83 47.37 50.57 91.39Z" fill="url(#c)"/><path style="mix-blend-mode:screen" d="M123.103 24.587c-1.43 11.58-12.43 20.26-25.11 19.41-13.21-.86-23.26-11.7-21.89-24.24 1.37-12.54 13.71-21.37 26.99-19.51 12.71 1.75 21.45 12.69 20.01 24.34Z" fill="url(#d)"/><defs><radialGradient id="a" cx="0" cy="0" r="1" gradientUnits="userSpaceOnUse" gradientTransform="translate(100.833 171.068) scale(97.55)"><stop stop-color="#173CFF"/><stop offset="1"/></radialGradient><radialGradient id="b" cx="0" cy="0" r="1" gradientUnits="userSpaceOnUse" gradientTransform="matrix(110.21 0 0 107 95.864 72.428)"><stop offset=".01" stop-color="#0FF"/><stop offset=".18" stop-color="#00C3C3"/><stop offset=".41" stop-color="#007E7E"/><stop offset=".61" stop-color="#004848"/><stop offset=".78" stop-color="#002121"/><stop offset=".92" stop-color="#000909"/><stop offset="1"/></radialGradient><radialGradient id="c" cx="0" cy="0" r="1" gradientUnits="userSpaceOnUse" gradientTransform="matrix(59.8364 0 0 80.86 120.576 163.667)"><stop stop-color="#0FF"/><stop offset=".12" stop-color="#00D1D1"/><stop offset=".3" stop-color="#009292"/><stop offset=".48" stop-color="#005E5E"/><stop offset=".64" stop-color="#003535"/><stop offset=".78" stop-color="#001818"/><stop offset=".91" stop-color="#000606"/><stop offset="1"/></radialGradient><radialGradient id="d" cx="0" cy="0" r="1" gradientUnits="userSpaceOnUse" gradientTransform="translate(99.623 22.027) scale(22.85)"><stop stop-color="#0FF"/><stop offset=".12" stop-color="#00D1D1"/><stop offset=".3" stop-color="#009292"/><stop offset=".48" stop-color="#005E5E"/><stop offset=".64" stop-color="#003535"/><stop offset=".78" stop-color="#001818"/><stop offset=".91" stop-color="#000606"/><stop offset="1"/></radialGradient></defs></svg>