<svg width="204" height="266" viewBox="0 0 204 266" fill="none" xmlns="http://www.w3.org/2000/svg"><path style="mix-blend-mode:screen" opacity=".3" d="M199.573 185.298c-7.85 43.599-47.63 77-92.89 80.36-49.01 3.589-97.26-28.541-104.94-79.381-9.25-61.28 42.66-115.62 110.35-109.62 60.65 5.34 96.68 57.591 87.48 108.641Z" fill="url(#a)"/><path style="mix-blend-mode:screen" opacity=".2" fill-rule="evenodd" clip-rule="evenodd" d="M12.543 116.758c9.51 13.8 27.65 15.74 36.42 5.41 8.4-9.89 5.56-36.31 5.56-36.31s-23.14 22.34-32.16 8.55c-8.56-13.09 23.65-24 39.51-21.12 16.48 3-8.6 46.94 21 56.1 34.27 10.62 136.73-41 118.24-71.6-7.47-12.38-50.27 15.51-49-19.2.49-12.78 17.13-4.09 19.27-.44.8 1.36.57-11.53-5.34-11.81-16.37-.8-31.58 32.4-17.95 39.33 11 5.61 48.27-17.86 46.19 1.13-1 9.07-63.6 63.69-90.68 52.77-16.24-6.57-26.75-39.76-34.22-49.67-6.85-9.09-17.71-18.56-27.78-10.48-11.84 9.51-37.61 44.96-29.06 57.34Zm12.31-18.29c8 8.26 25.56-7.16 25-5.57-11 29.42-27.55 28.09-30.69 11.56-1.43-7.3-.02-11.87 5.69-5.99Z" fill="url(#b)"/><path fill-rule="evenodd" clip-rule="evenodd" d="m163.043 187.148 3.04-5.33-130.59-1.22 3.21 9.43 14.9 24.53 18.11 6.15 13.25-4.75 10.12.33 1.38 4.28 16.03 2.4 9.99-6.84 2.61-6.25 6.55 1.42 15.06-7.41 5.1 4.45 17.08-8.98 8.73-14.23-14.57 2.02Z" fill="url(#c)"/><path fill-rule="evenodd" clip-rule="evenodd" d="m71.713 220.708-3.56-35.55-31.65-1.601 2.2 6.47 14.9 24.53 18.11 6.151Z" fill="url(#d)"/><path fill-rule="evenodd" clip-rule="evenodd" d="m29.583 185.358 5.89 16.94 7.97-.17 7.12-1.2 5.44-13.86-26.42-1.71Z" fill="url(#e)"/><path fill-rule="evenodd" clip-rule="evenodd" d="m93.953 211.777 1.27-22.729 25.87-.23-3.67 19.23-3.31 7.319-20.16-3.59Z" fill="url(#f)"/><path style="mix-blend-mode:screen" opacity=".6" fill-rule="evenodd" clip-rule="evenodd" d="m126.983 197.368 19.38-5.34 7.72 1.75-15.17 8-11.93-4.41Z" fill="url(#g)"/><path fill-rule="evenodd" clip-rule="evenodd" d="m53.603 214.557 17.24-2.55-2.69-26.849 4.91.259 1.97 13.94 6.86 3.17 12.29 5.12-.23 4.13 15.77 2.81 7.7-6.539 3.67-19.23 30.24-7.141 14.75.141-1.55 2.709-11.49 4.01-2.94 4.341 3.98.899-2.28 14.56-5.1-4.45-15.06 7.411 7.27-9.521-11.93-4.41-1.89 12.511-2.61 6.25-9.99 6.839-16.03-2.399-1.38-4.281-10.12-.329-13.25 4.75-18.11-6.151Z" fill="#311565" style="mix-blend-mode:multiply" opacity=".5"/><path fill-rule="evenodd" clip-rule="evenodd" d="m84.963 215.958-3.07-13.43 12.29 5.12-.23 4.13 1.13 4.51-10.12-.33Z" fill="#311565" style="mix-blend-mode:multiply" opacity=".5"/><path fill-rule="evenodd" clip-rule="evenodd" d="M153.043 188.537c.3-.1 6.67.8 6.67.8l17.9-4.209-11.38-1.19-13.19 4.599Z" fill="url(#h)"/><path fill-rule="evenodd" clip-rule="evenodd" d="m35.473 202.298 8.4-3.39.82-12.57 11.31.73-5.44 13.86-7.12 1.2-7.97.17Z" fill="#311565" style="mix-blend-mode:multiply" opacity=".5"/><path fill-rule="evenodd" clip-rule="evenodd" d="m50.563 200.927-6.69-2.02-8.4 3.39 7.97-.17 7.12-1.2Z" fill="#311565" style="mix-blend-mode:multiply" opacity=".5"/><path fill-rule="evenodd" clip-rule="evenodd" d="M123.283 218.738c.37-.08 7.06-2.82 7.06-2.82l9.69-1.19-4.46 8.41-7.39 4.69-3.73.17-1.17-9.26Z" fill="url(#i)"/><path fill-rule="evenodd" clip-rule="evenodd" d="m123.283 218.738 7.41.63 9.34-4.64-4.46 8.41-7.39 4.69-3.73.17-1.17-9.26Z" fill="#311565" style="mix-blend-mode:multiply" opacity=".5"/><path fill-rule="evenodd" clip-rule="evenodd" d="m130.693 219.368-2.51 8.46 7.39-4.69 4.46-8.41-9.34 4.64ZM133.563 215.518l-5.96 3.59-4.32-.37 7.06-2.82 3.22-.4ZM146.703 203.888l7.38-10.11-15.17 8-7.27 9.52 15.06-7.41ZM32.363 193.348l11.92-.83 8.23 2.7 16.49-1.61 5.85 4.48 19.65 3.74.46-8.16 25.51-.33 5.76 9s4.62-3.55 4.83-3.47c.21.08 17.37-6.38 17.37-6.38l1.67.38 2.94-4.34 11.49-4 3.46-5.93-139.83.83 4.2 13.92ZM159.713 189.338l-7.91 19 17.08-8.98 8.73-14.23-17.9 4.21Z" fill="#311565" style="mix-blend-mode:multiply" opacity=".5"/><g style="mix-blend-mode:screen" opacity=".6" fill-rule="evenodd" clip-rule="evenodd"><path style="mix-blend-mode:screen" opacity=".6" d="m166.233 183.938-1.7.59 3.46-5.93-139.83.83 1.79 5.95-.37-.02 5.89 16.94 7.97-.17 2.37-.4 7.79 12.83 18.11 6.15 13.25-4.75 10.12.33 1.38 4.28 16.03 2.4 9.99-6.84 2.61-6.25 6.55 1.42 15.06-7.41 5.1 4.45 17.08-8.98 8.73-14.23-11.38-1.19Z" fill="url(#j)"/><path style="mix-blend-mode:multiply" opacity=".5" d="m133.563 215.518-3.22.4-7.06 2.82 1.17 9.26 3.73-.17 7.39-4.69 4.46-8.41-6.47.79Z" fill="url(#k)"/></g><path fill-rule="evenodd" clip-rule="evenodd" d="M40.733 122.578s5.71 21.59 13.56 48l2.81-1.43s-11.63-32.89-13.92-46.91c0 0 5 .08 4.71-.55-.34-.8-6.25-7-7.64-7.58-1.39-.58-4.79 7.71-4 8.19 1 .7 4.48.28 4.48.28ZM92.993 121.628s-.62 21-.66 48.28l2.79-.61s-1.59-34.33 0-47.73c0 0 3.39.85 3.31.21-.1-.81-3.42-6.5-4.39-7.16-.97-.66-4.51 5.84-4.06 6.33.58.69 3.01.68 3.01.68Z" fill="#19264D"/><path fill-rule="evenodd" clip-rule="evenodd" d="m33.613 141.748 52.06-3.75 25.35 2 .1-1.06-25-2.17s-26.4 2.06-54.7 3.49l2.19 1.49Z" fill="#19264D"/><path d="M158.543 41.458s-14.35-11.19-23.87-11.53c-9.52-.34-14.87 4.62-14.87 4.62l-1.63 29.67a49.78 49.78 0 0 0-15.23 7.47s-7.37-3.3-8.2-3.18c-.83.12-9.67 6.9-9.93 8.7-.26 1.8-1.56 23.079 0 25.199 1.56 2.12 5.83 1.52 12.38 2.64 6.55 1.12 7.22 1.27 7.22 1.27a34.382 34.382 0 0 0 2.48 7.46 36.875 36.875 0 0 0 4.21 5.71 144.101 144.101 0 0 0-2.67 15.07c-.75 7-1.16 10.42-1.16 10.42l-9.83 1.18 12 5.61 22.23 2.29 3.39-35.49s-19.29-.92-20.31-15.56c-1.02-14.64-.74-24.25 10.92-29.71 11.66-5.46 26.11-18.3 26.11-18.3l6.76-13.54Z" fill="#1BACE0"/><path fill-rule="evenodd" clip-rule="evenodd" d="m171.153 115.037-6.85.98-14.57-.35 7.98-4.13 13.44 3.5Z" fill="url(#l)"/><path d="m108.293 150.238 3.85-31.73a21.265 21.265 0 0 1-7.3-11.56l-19.17-3.35a87.765 87.765 0 0 1 .29-26.6l9.47-7.85 8.14 3.72s4.34-4.65 15.24-8l2.12-29.91s7.31-5.05 13.16-4.19l-4 34.42-18.42 23.13 11.85 28.23-2.22 35.22-13.01-1.53Z" fill="url(#m)"/><path d="m163.023 80.628-5.84 3.13-.92 3.44-1.56 2.58 6.88.62 1.44-9.77Z" fill="url(#n)"/><path fill-rule="evenodd" clip-rule="evenodd" d="m175.133 92.508-8.68-3s-2.19-7-3.43-8.86l-2.29 7.09-6.1.5-.37.61c2.41 4.83 3.19 10.15 1.41 14.15a14.39 14.39 0 0 1-3.772 4.914 14.388 14.388 0 0 1-5.488 2.876 20.398 20.398 0 0 1-7.18.78c-.51 0-1-.08-1.53-.14-.75-.1-1.51-.24-2.27-.41a20.61 20.61 0 0 1-2.49-.75c-.7-.26-1.37-.55-2-.87-6.5-3.26-10.5-9.86-8.45-17.54a29.423 29.423 0 0 1 1.9-5.21s0-5 1.84-6.16c1.84-1.16 2.62-.23 2.62-.23a14.093 14.093 0 0 1 4.64-3 12.01 12.01 0 0 1 2.12-.61c.42-.07.85-.13 1.29-.16a12.249 12.249 0 0 1 2.41.07c.646.088 1.284.221 1.91.4.74.202 1.462.463 2.16.78a20.859 20.859 0 0 1 6.9 5.19l.57-.07c3-6 6.2-11.68 6.2-11.68l.27.11c-.89-1-1.71-1.84-2.42-2.6l5-26.13a58.457 58.457 0 0 0-16.67-9.36 49.702 49.702 0 0 0-4.79-1.5c-.78-.21-1.58-.39-2.39-.56-.63-.13-1.26-.25-1.9-.36l-5.48 32.8s-14 3.57-20.24 11.51l-13-5.94s-1.91 17.1-1.37 31.09l17.15 2.34s3.52 8.61 8.71 14.16l-5.25 33.44 24.78.84 6.67-28.49s8.17-3 12.91-9.35l12.12 1.82s5.02-11.69 3.98-22.49Z" fill="url(#o)"/><path style="mix-blend-mode:screen" opacity=".6" d="M141.163 76.908a13.801 13.801 0 0 0-1.91-.4c.92-15.51 2.2-31.05 3.94-43.36l2.93 1.74s-2.79 15.11-4.96 42.02Z" fill="url(#p)"/><path style="mix-blend-mode:screen" opacity=".6" d="m139.483 150.998-2.6-1.33s.08-16.4.79-38.27c.51.06 1 .11 1.53.14-1.1 30.99.28 39.46.28 39.46Z" fill="url(#q)"/><path style="mix-blend-mode:screen" opacity=".6" d="M133.243 60.998s.82-19.27 2.75-29.95l2.39.56a123.923 123.923 0 0 0-3.71 31.45c.047 4.527.358 9.048.93 13.54a12.01 12.01 0 0 0-2.12.61c.34-12.27-.24-16.21-.24-16.21Z" fill="url(#r)"/><path style="mix-blend-mode:screen" opacity=".6" d="m132.513 150.148-9-1.2a312.34 312.34 0 0 0 7.38-39.56c.66.32 1.33.61 2 .87-1.3 14.49-2.15 31.31-.38 39.89Z" fill="url(#s)"/><path d="m150.223 82.878-4 .56c-3.77-4.38-8.36-7-9.4-7h.06c2.28-.37 5 .45 7.5 1.58a20 20 0 0 1 6.45 4.79l-.61.07Z" fill="url(#t)"/><path d="M156.423 102.878a14.182 14.182 0 0 1-10 7.9c-.52.12-1 .22-1.57.3 0 0 7.93-5 6.49-16.9l-.06-.42 3-4.93.37-.61c2.66 4.97 3.63 10.57 1.77 14.66Z" fill="url(#u)"/><path style="mix-blend-mode:soft-light" opacity=".3" fill-rule="evenodd" clip-rule="evenodd" d="M96.493 72.098c-2 5.07-2.53 25.09-.35 26.42 3.57 2.16 22.25-3 24.41-9.46 2.16-6.46-22.88-19.88-24.06-16.96Zm1.87 5.77c.39-3.61 3.23-3.61 5.82 2 2.59 5.61-6.39 3.37-5.82-2Zm6.83.68c-.33-2 2.26-1.36 3.24 0 .98 1.36-2.88 2.12-3.24 0Z" fill="url(#v)"/><path fill-rule="evenodd" clip-rule="evenodd" d="M92.513 100.718c-4.81 1.62-8 1.61-5.48 2.63 2.52 1.02 12.12 2.31 16.19 2.9 4.07.59 8.26-2.85 7.21-3.34-2.54-1.18-17.92-2.19-17.92-2.19Z" fill="#7A369E" style="mix-blend-mode:soft-light" opacity=".5"/><path style="mix-blend-mode:soft-light" opacity=".3" fill-rule="evenodd" clip-rule="evenodd" d="M156.323 42.318c-2.61-2-15.54-10.21-19.26-8-3.72 2.21-7.86 31.14-6.57 33.78 1.29 2.64 19 2.54 22.27-4 3.27-6.54 6.14-19.74 3.56-21.78Zm-6.46 6.9c.12.9-2 2.51-2 .75-.03-1.05 1.89-1.66 2-.75Zm-2.48 13.08c-1.8-1.24-2.48-1.46-2.57-4.51-.09-3.05 5.51-3.27 6.28.68.77 3.95-2.05 4.98-3.71 3.83Zm3.41-14.89c-.32-3.16 4-2.59 4.49.9.49 3.49-3.85 5.5-4.49-.9Z" fill="url(#w)"/><path d="M108.433 75.088c4.56-2.34 18.13-10.87 18.13-10.87s-10.36 3.59-13.89 6.84c-3.53 3.25-4.24 4.03-4.24 4.03ZM132.913 110.257s2.14 2.81 8.66 2.53c6.52-.28 11.36-5.25 11.36-5.25s-8.12 6.37-20.02 2.72Z" fill="#09AC61"/><path d="M95.023 73.297s-2.47 9.3-2.57 13.26a31.943 31.943 0 0 0 1.51 8.84 47.263 47.263 0 0 0 1.37-10c.02-4.82-.31-12.1-.31-12.1ZM119.673 118.568s-3.48 8.43-3.65 10.43c.083 2.533.357 5.057.82 7.55 0 0 2.76-6.36 3.21-10.42a23.054 23.054 0 0 0-.38-7.56Z" fill="#15524F"/><path style="mix-blend-mode:screen" opacity=".6" fill-rule="evenodd" clip-rule="evenodd" d="M112.353 100.098c.61 5 9.42 16.49 11.42 17.48 2 .99 6.55-4.51 2.77-9.28s-14.61-11.63-14.19-8.2Z" fill="url(#x)"/><path style="mix-blend-mode:multiply" opacity=".7" d="M142.473 138.258c1.06-1.47-12.3-5.67-14.05-5.07-4.33 1.5-12.42 7.46-12.42 7.46l-1.3 9.53 24.78.84 2.99-12.76Z" fill="url(#y)"/><path style="mix-blend-mode:screen" opacity=".6" fill-rule="evenodd" clip-rule="evenodd" d="m175.133 92.507-8.68-3s-2.19-7-3.43-8.86l-5.84 3.13-.92 3.44-.56.93-1.07.09-.37.61-3 4.93.06.42c1.28 10.641-4.86 15.731-6.23 16.721a24.008 24.008 0 0 1-12.16-.64c-.7-.26-1.37-.55-2-.87-6.5-3.26-10.5-9.86-8.45-17.54a29.429 29.429 0 0 1 1.9-5.21s0-5 1.84-6.16c1.84-1.16 2.62-.23 2.62-.23a14.095 14.095 0 0 1 4.64-3 12.018 12.018 0 0 1 2.12-.61c.42-.07.85-.13 1.29-.16h-.06c1 0 5.63 2.61 9.4 7l4-.56.57-.07c3-6 6.2-11.68 6.2-11.68l.27.11c-.89-1-1.71-1.84-2.42-2.6l5-26.13a49.093 49.093 0 0 0-6.26-4.37c-4.7-2.91-11.49-6.38-18.13-7.16l-1.38-.25c-5.85-.86-13.16 4.19-13.16 4.19l-2.12 29.91c-10.9 3.39-15.24 8-15.24 8l-4.44-2-3.7-1.69-9.46 7.8a87.765 87.765 0 0 0-.29 26.6l19.17 3.4a21.265 21.265 0 0 0 7.3 11.56l-3.85 31.73 13 1.53.08-1.37 18.12.62 6.67-28.49a33.836 33.836 0 0 0 10.57-6.69l7.58.18 6.85-1s5.01-11.76 3.97-22.56Z" fill="url(#z)"/><path d="M58.333 123.888a69.163 69.163 0 0 0 15.77 6l2.88 16.42-19.88.69a67.58 67.58 0 0 0 1.23-23.11Z" fill="url(#A)"/><path d="M58.333 123.888c-1.64.18 11.44 7.23 15.77 6 0 .03-10.54-6.59-15.77-6Z" fill="#F6D8B6"/><path d="m65.903 127.228.55.31a22.674 22.674 0 0 1-.25-5.52c.27-2.84 3.24-4.35 3.24-4.35a1.893 1.893 0 0 0-1.52-1.9 14.997 14.997 0 0 0-2.27 6.8 15.522 15.522 0 0 0 .25 4.66Z" fill="url(#B)"/><path d="M58.673 136.618c-.69 6.07 10 9.4 14.32 7.35 1.15-.55 1.91-9.62 1.91-9.62l2.11 12-19.91.65c.459-1.544.767-3.128.92-4.73.51-3.79.65-5.65.65-5.65Z" fill="#E5A3E5" style="mix-blend-mode:multiply" opacity=".5"/><path d="M65.673 128.128s-.42 4.05 1.91 4.64c2.33.59 3.76-2.53 3.7-2.71-.06-.18-3.25-.86-5.61-1.93Z" fill="#fff"/><path d="M66.143 122.998c-5.88-4.48 2.65-6.85 1.51-11.77 0 0 2.86 8.08 1.79 8.64-3.7 1.91-3.3 3.13-3.3 3.13Z" fill="url(#C)"/><path style="mix-blend-mode:screen" d="M87.673 122.058c0 11.35-8.72 19.85-19.82 19.5-11.42-.36-21.85-9.93-23.06-22-1.31-12.69 8.17-22.65 20.88-21.56 12.23 1.06 21.94 12.09 22 24.06Z" fill="url(#D)"/><path style="mix-blend-mode:screen" d="M83.383 118.997c.09 8.71-6.53 15.23-14.95 14.85-8.6-.38-16.29-7.81-17-16.92-.79-9.5 6.24-16.84 15.53-16 9.03.75 16.32 9 16.42 18.07Z" fill="url(#E)"/><path d="M182.543 154.058a10.15 10.15 0 0 0 1.3-4.47 4.53 4.53 0 0 0-.74-2.64c-.492.297-.85.774-1 1.33 0 0 1.16.26 1.16 2.26a6.779 6.779 0 0 1-1 3.51l.28.01Z" fill="url(#F)"/><path d="M184.353 167.067a17.87 17.87 0 0 1-7-.09 34.365 34.365 0 0 0 .92-9.48c-.05-1.27-.15-2-.15-2 3.24-2.72 8.31-2.7 8.31-2.7v1.77a82.862 82.862 0 0 1-2.08 12.5Z" fill="url(#G)"/><path d="M184.353 167.068a17.89 17.89 0 0 1-7-.091 34.362 34.362 0 0 0 .92-9.48s.37 4.35.43 7.89c0 .67 4.2.85 4.95-.22s2.41-5.41 2.74-10.61a82.98 82.98 0 0 1-2.04 12.511Z" fill="#E5A3E5" style="mix-blend-mode:multiply" opacity=".5"/><path fill-rule="evenodd" clip-rule="evenodd" d="m125.643 145.677-87.86 1.511 4.13 27.75 80-2.801 48.79-5.75 1.75-12.27-46.81-8.44Z" fill="url(#H)"/><path fill-rule="evenodd" clip-rule="evenodd" d="m18.203 176.708 10.17 13.58 31.2-.3 7.73-2.05.23 3.69 60.33-.67 22.88-6.61 4.69.56 21.09-3.28 5.16-5.79-10.7-.52 13.06-1.67 5.37-6.22-3.43-1-90-.1-27.12 1-.32 5-5.44-.7s-43.76 4.91-44.9 5.08Z" fill="url(#I)"/><path fill-rule="evenodd" clip-rule="evenodd" d="m156.413 181.668 25.27-5.83-27.03-1.32-21.97 2.59 18.99 1.54-.34 3.03 5.08-.01Z" fill="url(#J)"/><path fill-rule="evenodd" clip-rule="evenodd" d="M18.203 176.708s29.06 2.73 42 2.73l32.58-5.25-29.6-2.49-44.98 5.01Z" fill="url(#K)"/><path fill-rule="evenodd" clip-rule="evenodd" d="M66.773 179.437s61.41 3.81 61.9 3.81c.49 0 23.59-4.52 23-4.6-.59-.08-53.74-4.35-53.74-4.35l-31.16 5.14Z" fill="url(#L)"/><path style="mix-blend-mode:multiply" opacity=".7" fill-rule="evenodd" clip-rule="evenodd" d="m150.743 184.347.93-5.7-23 4.6-20.75-1.26-12.71 9.33 32.65-.36 22.88-6.61Z" fill="url(#M)"/><path d="m71.563 170.888 43.07-7.81 28.35 1.84-37.83 8.23-33.59-2.26Z" fill="url(#N)"/><path d="m142.983 164.917-37.83 8.23-33.59-2.26.28 1.54 20.9 1.76v.97l5.19-.86 27.09 2.19 1.31-7.06 16.51-3 .14-1.51Z" fill="#076249"/><path d="m126.333 169.427 29.82 1.72 11.87.89 21.39-4.61-3.43-.95-43.14-.05-16.51 3Z" fill="url(#O)"/><path style="mix-blend-mode:multiply" opacity=".7" d="m126.333 169.427 41.69 2.61.45 3.16-14.15-.679-21.64 2.589-7.66-.619 1.31-7.061Z" fill="url(#P)"/><path d="m179.823 161.917-6.57-2.479-15.18-.881-3.61 8.73s16.59 1.43 16.93 1.44l8.19-1.73.24-5.08Z" fill="url(#Q)"/><path style="mix-blend-mode:multiply" opacity=".7" fill-rule="evenodd" clip-rule="evenodd" d="m125.673 145.677-2.2 18 19.54 1.27-.14 1.511 7.16 1.219 22.53 3.421 16.88-3.64-3.43-1h-6.34l.16-4.55-6.57-2.481-1.86 9.29-12.15-1s1-9 1.11-9l11.36.661.74-5.231-46.79-8.47Z" fill="url(#R)"/><path style="mix-blend-mode:multiply" opacity=".7" d="m59.573 189.997.59-10.55c.7-.32 32.58-5.25 32.58-5.25l-20.91-1.759-.27-1.541 33.59 2.261 37.83-8.231-.14 1.511-16.51 3 6.35 7.679-7.66-.62-27.09-2.199-31.16 5.14.53 8.5-7.73 2.059Z" fill="url(#S)"/><path style="mix-blend-mode:multiply" opacity=".7" d="m153.103 184.627-2.36-.28-22.88 6.61.81-7.71 23-4.6-.34 3.03 1.77 2.95Z" fill="url(#T)"/><path style="mix-blend-mode:multiply" opacity=".7" d="m156.413 181.668-.98 3.24 21.09-3.28 5.16-5.79-25.27 5.83Z" fill="url(#U)"/><path style="mix-blend-mode:multiply" opacity=".7" fill-rule="evenodd" clip-rule="evenodd" d="m103.843 146.028 8.59 17.45-8.24 1.49 9.69 6.28-8.73 1.9-.22 1.72-7-.57-5.19.86v-.97l-30.12-2.53-9.84 1.19 8.51-26.07 42.55-.75Z" fill="url(#V)"/><path style="mix-blend-mode:multiply" opacity=".7" d="m145.573 185.838-5.63-4.79-30.22 1.05-13.04 9.21-1.47.01 12.71-9.33 32.91-1.4 6.65 4.71-1.91.54Z" fill="url(#W)"/><path d="M100.833 188.368s5.58-2.75 5.7-3c.12-.25 1.86-2.38 1.86-2.38l-4.48 2.67-3.08 2.71Z" fill="url(#X)"/><path style="mix-blend-mode:multiply" opacity=".15" d="m60.163 179.437-.59 10.56-13.15.13s-9-11.81-8.47-11.78c.53.03 22.21 1.09 22.21 1.09Z" fill="url(#Y)"/><path style="mix-blend-mode:multiply" opacity=".15" d="m66.773 179.438.76 12.19 9.89-.11 25.22-9.75-35.87-2.33Z" fill="url(#Z)"/><path d="m97.933 174.297-31.16 5.14 19.1 1.19s-14.8-1.18-13.41-1.51c1.39-.33 25.47-4.82 25.47-4.82Z" fill="#83FFEA"/><path fill-rule="evenodd" clip-rule="evenodd" d="M51.843 151.518c0 4.92 4.43 3.58 4.16 1.49-.27-2.09-4.16-3.68-4.16-1.49ZM55.463 148.458c-.44.69.22 2 1 1.46s-.1-2.92-1-1.46Z" fill="#0E3E47" style="mix-blend-mode:soft-light" opacity=".52"/><path d="M48.163 158.498c-.51-1.66-1-4.14-.4-5.29 0 0 1-.33 1.49 1a2.154 2.154 0 0 0-1.24 2.14 4.263 4.263 0 0 0 .7 2.55l-.55-.4Z" fill="url(#aa)"/><path d="m54.673 174.697-10.38-.34s.28-5.37.26-10.66c0-1.73 0-3.46-.12-5 0 0 2.69-1.789 8.19 1.121 0 0 0 1.939.2 4.559a40.73 40.73 0 0 0 1.85 10.32Z" fill="url(#ab)"/><path d="m54.673 174.698-10.38-.34s.28-5.37.26-10.66c.74 4.92 1.56 7.83 2.1 8 .54.17 5.8.54 6-.15.2-.69.18-7.19.18-7.19a40.748 40.748 0 0 0 1.84 10.34Z" fill="#E5A3E5" style="mix-blend-mode:multiply" opacity=".5"/><path d="M46.993 176.388c-7.22.75-18.65-.06-18.65-.06.401-5.567.22-11.161-.54-16.69-1-6.93-2.68-10.26-2.68-10.26a53.534 53.534 0 0 0 16.49-4.38c.18 2 .52 4.53.94 7.29 1.62 10.55 4.44 24.1 4.44 24.1Z" fill="url(#ac)"/><path d="M25.123 149.368s2.32-4.89 16.49-4.34c0 0-2.56 2.91-8.72 3.91s-7.77.43-7.77.43Z" fill="#F6D8B6"/><path d="M33.403 147.248a26.781 26.781 0 0 1-2.21-6 9.58 9.58 0 0 1 .46-5.46s-.65-1.75-2.74-.79c.5 2.76 1.212 5.478 2.13 8.13 1.43 4 1.95 4.61 1.95 4.61l.41-.49Z" fill="url(#ad)"/><path d="M46.993 176.387c-7.22.75-18.65-.06-18.65-.06.401-5.566.22-11.16-.54-16.69 1.85 7 2.11 13.09 2.58 14 .47.91 9.19.76 11.28-1.57s.93-19.22.89-19.77c1.62 10.54 4.44 24.09 4.44 24.09Z" fill="#E5A3E5" style="mix-blend-mode:multiply" opacity=".5"/><path style="mix-blend-mode:screen" opacity=".8" fill-rule="evenodd" clip-rule="evenodd" d="M181.413 177.447c-6.26 37.81-32.29 66.14-60.26 67.94-29.6 1.9-56.56-26.08-58.95-68.23-2.84-50 29-94.78 68.64-91.1 36.83 3.41 57.83 47.37 50.57 91.39Z" fill="url(#ae)"/><path d="M112.233 171.527c-.24.88-2.65 3.35-4.22 4.08 0 0-5.33 2.83-15.09 4.31l19.31-8.39Z" fill="#680000"/><path fill-rule="evenodd" clip-rule="evenodd" d="M106.673 165.668a10.225 10.225 0 0 1 1.51 2.08l.19.36a12.066 12.066 0 0 1 3.89 3.51 4.415 4.415 0 0 1-3.38 1.27c-1.89 2.45-11 6-14.59 6.75-.86.19-1.38.28-1.38.28a5.273 5.273 0 0 1-1.63-4.09 3.752 3.752 0 0 0-3.92-1.6s-8.4 4.559-10.28 5.669c-1.88 1.11-7.38.371-10.75-.239s-10.46-11.14-10.66-12.51c-.2-1.37 6-16.66 20.12-22.57 17.87-7.47 23.16 3.66 23.16 3.66a49.279 49.279 0 0 0 3 10.75 6.36 6.36 0 0 1 2.79-1.1c1.69-.26 3.77 3.25 3.57 4.2-.19.73-2.75 2.43-1.64 3.58Z" fill="url(#af)"/><path d="M78.843 171.507c3.53 1.19 7.23-.62 10-1.55 2.77-.93 4.44-6.39 4.53-7.87.09-1.48-1.48-8-4.72-9.67-3.24-1.67-10.62-.53-13.82 4.85-3.2 5.38.41 11.41 1.28 12.55a6.377 6.377 0 0 0 2.73 1.69Z" fill="url(#ag)"/><path d="m101.923 158.998-1.15 1s-4.57-2.63-5.76-7c-1.19-4.37.62-5.61 1.16-5.93 2.85-1.71 5.95 7.15 5.75 11.93Z" fill="url(#ah)"/><path d="M96.673 169.628c-.58.11 2.5-6.23 4.62-7.06 2.12-.83 3.1 3.79 3.1 3.79s-5.14 2.77-7.72 3.27Z" fill="url(#ai)"/><path d="M73.673 162.928c1.24-11.21 14.94-10.51 16.27-2.44.72 4.36-1 11.76-9.32 11.38-6.84-.31-6.95-8.94-6.95-8.94Z" fill="url(#aj)"/><path d="M99.403 150.857c-2-2.85-5.65-1.579-4 3.161 1 2.92 5.4 5.949 5.4 5.949l1.15-1s-1.06-6.04-2.55-8.11Z" fill="url(#ak)"/><path d="M96.673 169.628c-.47.08 1-4 3.1-5.81 0 0 2.37-.51 3.64 3.05-.01 0-4.82 2.42-6.74 2.76Z" fill="#680000"/><path opacity=".5" d="M57.243 167.298c2 5.68 9.26 13.18 12.75 11.1s6.46-7 2.51-12.08-17.3-4.78-15.26.98ZM87.373 174.217c-4.2.9 5.17-7.37 5.43-1.94.08 1.66-1.51 3.54-1.51 3.54a3.56 3.56 0 0 0-3.92-1.6ZM108.383 168.098c-.95.64-.9 2.26-.9 2.26s-.7-.49-2.77 0c-2.07.49-2.42 1.53-2.42 1.53a3.578 3.578 0 0 0-1.671-.362 3.572 3.572 0 0 0-1.649.452c-2 .92-2 1.71-2 1.71s-3.11 0-4 1.56c-.68 1.17 1.23 4.15 1.23 4.15l.15.2c-.86.19-1.38.28-1.38.28a5.273 5.273 0 0 1-1.63-4.09c5.25-5.07 16.14-6.47 16.9-8.07l.1.18.04.2ZM108.283 162.087c-2.72.21-4-1.05-4.6-.19-.6.86 2.83 3.55 2.83 3.55s-.55-.58.23-1.32a10.937 10.937 0 0 0 1.54-2.04Z" fill="#E26680"/><path d="M93.403 175.048c-.77.52 1.76 3.73 2.91 3.48 1.15-.25 2.56 0 2.3-1.5-.26-1.5-.85-4.9-5.21-1.98ZM99.013 172.418c-1.15.72.65 4.49 2.13 4.56 1.48.07 2.4-.88 2.23-1.54-.17-.66-.08-5.72-4.36-3.02ZM108.383 171.998a2.802 2.802 0 0 0-.688-1.123 2.825 2.825 0 0 0-3.652-.287c-1.21.75.45 4.09 1.6 4 1.15-.09 3.27-1.06 2.74-2.59ZM63.433 154.687c-2 2.65 27.19-7.92 29.5-10.12 2.74-2.57-17.8-5.64-29.5 10.12ZM94.193 161.938c-1.77 4.29-3.08 7.91-2 8 1.08.09 8-7.28 7.74-7.73-1.09-2.01-5.49-.86-5.74-.27Z" fill="#F7DAD2"/><path opacity=".5" d="M63.933 175.178c-.41 2 3.65 3.29 5.24 3 1.59-.29 6.9-5.59 4.24-9.75-.68-1.07-2.06 2.77-5.14 3.59-3.08.82-4.03 1.6-4.34 3.16Z" fill="#E26680"/><path d="M80.143 154.148c4 .39 5.45.59 8.7 2.65 3.25 2.06 3.25.24 2-2.15-1.25-2.39-4.56-3.81-8.89-2.54-4.33 1.27-3.28 1.89-1.81 2.04Z" fill="#722E8C" style="mix-blend-mode:soft-light" opacity=".5"/><path d="M107.953 168.548c-.68 1.19 1.63 4 2.27 4 .64 0 2.07-.74 2-1-.07-.26-2.92-3.14-3.81-3.18-.29-.04-.32-.07-.46.18Z" fill="#F7DAD2"/><path d="M80.443 144.298c-2.91 2.62 7.78 3 6.85-1.27 0-.03-4.32-1.03-6.85 1.27Z" fill="#fff"/><path style="mix-blend-mode:color-dodge" d="M88.353 162.358a8.696 8.696 0 0 1-4.132 9.081 8.704 8.704 0 0 1-3.328 1.139 10.004 10.004 0 0 1-11.22-7.4 8.675 8.675 0 0 1 4.08-9.342 8.661 8.661 0 0 1 3.42-1.138 9.917 9.917 0 0 1 11.18 7.66Z" fill="url(#al)"/><path style="mix-blend-mode:color-dodge" d="M105.443 154.447a7.295 7.295 0 0 1-1.355 5.48 7.316 7.316 0 0 1-4.855 2.88 7.748 7.748 0 0 1-8.77-6.149 7.301 7.301 0 0 1 6.21-8.58 7.716 7.716 0 0 1 8.77 6.369Z" fill="url(#am)"/><path d="M111.443 23.387a11.459 11.459 0 0 1-12 9.93c-6.2-.52-12.09-6.32-11.44-12.15.65-5.83 6.45-10.9 12.67-10.17 6.22.73 11.44 6.77 10.77 12.39Z" fill="#98FFEE"/><path style="mix-blend-mode:screen" d="M123.103 24.587c-1.43 11.58-12.43 20.26-25.11 19.41-13.21-.86-23.26-11.7-21.89-24.24 1.37-12.54 13.71-21.37 26.99-19.51 12.71 1.75 21.45 12.69 20.01 24.34Z" fill="url(#an)"/><path d="M104.063 28.758a3.71 3.71 0 0 1-4.09 3.1 3.49 3.49 0 0 1-3.3-3.79 3.71 3.71 0 0 1 4.1-3.07 3.508 3.508 0 0 1 3.29 3.76ZM93.013 24.848a1.91 1.91 0 0 1-2 1.79 1.83 1.83 0 0 1-1.52-2.13 1.89 1.89 0 0 1 2-1.78 1.83 1.83 0 0 1 1.52 2.12Z" fill="#594275" style="mix-blend-mode:multiply" opacity=".2"/><path d="m28.513 172.647-.1 2.92-10.21 1.14 19.75 1.63s7.69-1 9-2c0 0-10.17.25-15.34-.87a3.994 3.994 0 0 1-3.1-2.82ZM54.673 174.698l-7.81.83-.56-2.76a9.555 9.555 0 0 0 3.17 1.28c1.72.313 3.456.53 5.2.65Z" fill="#311565" style="mix-blend-mode:multiply" opacity=".5"/><path style="mix-blend-mode:screen" opacity=".86" fill-rule="evenodd" clip-rule="evenodd" d="m144.893 178.178 30.39-42.17-24.51-7.88-13.36 49.32 7.48.73Z" fill="url(#ao)"/><defs><linearGradient id="c" x1="102.653" y1="220.448" x2="106.393" y2="184.368" gradientUnits="userSpaceOnUse"><stop stop-color="#74095C"/><stop offset="1" stop-color="#8B0012"/></linearGradient><linearGradient id="d" x1="36.503" y1="202.138" x2="71.713" y2="202.138" gradientUnits="userSpaceOnUse"><stop stop-color="#AE282F"/><stop offset="1" stop-color="#961037"/></linearGradient><linearGradient id="e" x1="29.583" y1="193.828" x2="56.003" y2="193.828" gradientUnits="userSpaceOnUse"><stop stop-color="#AE282F"/><stop offset="1" stop-color="#961037"/></linearGradient><linearGradient id="f" x1="107.523" y1="191.048" x2="107.523" y2="217.917" gradientUnits="userSpaceOnUse"><stop stop-color="#AE282F"/><stop offset="1" stop-color="#961037"/></linearGradient><linearGradient id="g" x1="144.313" y1="208.768" x2="140.603" y2="195.818" gradientUnits="userSpaceOnUse"><stop stop-color="#354EEB"/><stop offset=".03" stop-color="#334BE3"/><stop offset=".71" stop-color="#0F1641"/><stop offset="1"/></linearGradient><linearGradient id="h" x1="153.043" y1="186.637" x2="177.613" y2="186.637" gradientUnits="userSpaceOnUse"><stop stop-color="#AE282F"/><stop offset="1" stop-color="#961037"/></linearGradient><linearGradient id="i" x1="131.243" y1="220.778" x2="134.653" y2="187.858" gradientUnits="userSpaceOnUse"><stop stop-color="#74095C"/><stop offset="1" stop-color="#8B0012"/></linearGradient><linearGradient id="j" x1="63.713" y1="232.378" x2="93.593" y2="195.478" gradientUnits="userSpaceOnUse"><stop stop-color="#4757F7"/><stop offset="1"/></linearGradient><linearGradient id="k" x1="130.073" y1="222.488" x2="140.073" y2="186.208" gradientUnits="userSpaceOnUse"><stop stop-color="#4757F7"/><stop offset="1"/></linearGradient><linearGradient id="l" x1="149.733" y1="113.777" x2="171.153" y2="113.777" gradientUnits="userSpaceOnUse"><stop offset=".01" stop-color="#002E45"/><stop offset=".33" stop-color="#054641"/><stop offset=".53" stop-color="#074F3F"/><stop offset="1" stop-color="#0B8141"/></linearGradient><linearGradient id="m" x1="113.133" y1="48.987" x2="100.273" y2="137.308" gradientUnits="userSpaceOnUse"><stop stop-color="#002134"/><stop offset="1" stop-color="#04382D"/></linearGradient><linearGradient id="n" x1="160.883" y1="84.438" x2="152.623" y2="98.978" gradientUnits="userSpaceOnUse"><stop stop-color="#002134"/><stop offset="1" stop-color="#004F59"/></linearGradient><linearGradient id="p" x1="163.253" y1="72.278" x2="112.243" y2="31.158" gradientUnits="userSpaceOnUse"><stop stop-color="#3D56FD"/><stop offset=".1" stop-color="#374DE3"/><stop offset=".73" stop-color="#101641"/><stop offset="1"/></linearGradient><linearGradient id="q" x1="124.813" y1="119.968" x2="73.803" y2="78.848" gradientUnits="userSpaceOnUse"><stop stop-color="#3D56FD"/><stop offset=".1" stop-color="#374DE3"/><stop offset=".73" stop-color="#101641"/><stop offset="1"/></linearGradient><linearGradient id="r" x1="161.213" y1="74.808" x2="110.203" y2="33.697" gradientUnits="userSpaceOnUse"><stop stop-color="#3D56FD"/><stop offset=".1" stop-color="#374DE3"/><stop offset=".73" stop-color="#101641"/><stop offset="1"/></linearGradient><linearGradient id="s" x1="121.443" y1="124.148" x2="70.433" y2="83.037" gradientUnits="userSpaceOnUse"><stop stop-color="#3D56FD"/><stop offset=".1" stop-color="#374DE3"/><stop offset=".73" stop-color="#101641"/><stop offset="1"/></linearGradient><linearGradient id="t" x1="143.953" y1="79.328" x2="141.293" y2="84.008" gradientUnits="userSpaceOnUse"><stop stop-color="#002134"/><stop offset="1" stop-color="#004F59"/></linearGradient><linearGradient id="u" x1="153.963" y1="98.138" x2="137.033" y2="127.958" gradientUnits="userSpaceOnUse"><stop stop-color="#002134"/><stop offset="1" stop-color="#004F59"/></linearGradient><linearGradient id="v" x1="139.723" y1="140.818" x2="78.813" y2="47.418" gradientUnits="userSpaceOnUse"><stop stop-color="#4757F7"/><stop offset="1"/></linearGradient><linearGradient id="w" x1="181.513" y1="113.568" x2="120.593" y2="20.168" gradientUnits="userSpaceOnUse"><stop stop-color="#3D56FD"/><stop offset=".1" stop-color="#374DE3"/><stop offset=".73" stop-color="#101641"/><stop offset="1"/></linearGradient><linearGradient id="x" x1="141.733" y1="139.508" x2="80.823" y2="46.108" gradientUnits="userSpaceOnUse"><stop stop-color="#3D56FD"/><stop offset=".1" stop-color="#374DE3"/><stop offset=".73" stop-color="#101641"/><stop offset="1"/></linearGradient><linearGradient id="y" x1="130.003" y1="134.278" x2="127.483" y2="151.788" gradientUnits="userSpaceOnUse"><stop stop-color="#C079B1"/><stop offset="1" stop-color="#90426D"/></linearGradient><linearGradient id="z" x1="130.043" y1="162.348" x2="130.043" y2="48.718" gradientUnits="userSpaceOnUse"><stop stop-color="#3D56FD"/><stop offset=".1" stop-color="#374DE3"/><stop offset=".73" stop-color="#101641"/><stop offset="1"/></linearGradient><linearGradient id="B" x1="65.623" y1="121.658" x2="69.443" y2="121.658" gradientUnits="userSpaceOnUse"><stop stop-color="#8E6160"/><stop offset="1" stop-color="#1F0A0F"/></linearGradient><linearGradient id="C" x1="70.493" y1="121.248" x2="67.623" y2="118.018" gradientUnits="userSpaceOnUse"><stop stop-color="#FDBB01"/><stop offset=".23" stop-color="#FDC001"/><stop offset=".48" stop-color="#FECD01"/><stop offset=".75" stop-color="#FEE301"/><stop offset="1" stop-color="#FFFF01"/></linearGradient><linearGradient id="F" x1="183.203" y1="153.878" x2="182.673" y2="147.818" gradientUnits="userSpaceOnUse"><stop stop-color="#1F0A0F"/><stop offset="1" stop-color="#8E6160"/></linearGradient><linearGradient id="H" x1="172.453" y1="160.307" x2="37.783" y2="160.307" gradientUnits="userSpaceOnUse"><stop offset=".01" stop-color="#002E45"/><stop offset=".33" stop-color="#054641"/><stop offset=".53" stop-color="#074F3F"/><stop offset="1" stop-color="#0B8141"/></linearGradient><linearGradient id="I" x1="189.413" y1="178.998" x2="18.203" y2="178.998" gradientUnits="userSpaceOnUse"><stop offset=".01" stop-color="#002E45"/><stop offset=".33" stop-color="#054641"/><stop offset=".53" stop-color="#074F3F"/><stop offset="1" stop-color="#0B8141"/></linearGradient><linearGradient id="J" x1="184.863" y1="178.098" x2="139.063" y2="178.098" gradientUnits="userSpaceOnUse"><stop offset=".01" stop-color="#002E45"/><stop offset=".33" stop-color="#054641"/><stop offset=".53" stop-color="#074F3F"/><stop offset="1" stop-color="#0B8141"/></linearGradient><linearGradient id="K" x1="18.203" y1="175.568" x2="92.743" y2="175.568" gradientUnits="userSpaceOnUse"><stop stop-color="#0BBDAE"/><stop offset="1" stop-color="#00B48F"/></linearGradient><linearGradient id="L" x1="66.773" y1="178.777" x2="151.683" y2="178.777" gradientUnits="userSpaceOnUse"><stop stop-color="#0BBDAE"/><stop offset="1" stop-color="#00B48F"/></linearGradient><linearGradient id="M" x1="122.713" y1="180.837" x2="125.463" y2="196.417" gradientUnits="userSpaceOnUse"><stop stop-color="#C079B1"/><stop offset="1" stop-color="#90426D"/></linearGradient><linearGradient id="N" x1="71.563" y1="168.108" x2="142.983" y2="168.108" gradientUnits="userSpaceOnUse"><stop stop-color="#0BBDAE"/><stop offset="1" stop-color="#00B48F"/></linearGradient><linearGradient id="O" x1="126.333" y1="169.227" x2="189.413" y2="169.227" gradientUnits="userSpaceOnUse"><stop stop-color="#0BBDAE"/><stop offset="1" stop-color="#00B48F"/></linearGradient><linearGradient id="P" x1="146.743" y1="163.047" x2="146.743" y2="176.377" gradientUnits="userSpaceOnUse"><stop stop-color="#C079B1"/><stop offset="1" stop-color="#90426D"/></linearGradient><linearGradient id="Q" x1="177.733" y1="163.637" x2="154.653" y2="163.637" gradientUnits="userSpaceOnUse"><stop offset=".01" stop-color="#002E45"/><stop offset=".33" stop-color="#054641"/><stop offset=".53" stop-color="#074F3F"/><stop offset="1" stop-color="#0B8141"/></linearGradient><linearGradient id="R" x1="156.423" y1="150.877" x2="156.423" y2="167.848" gradientUnits="userSpaceOnUse"><stop stop-color="#C079B1"/><stop offset="1" stop-color="#90426D"/></linearGradient><linearGradient id="S" x1="59.573" y1="177.457" x2="142.983" y2="177.457" gradientUnits="userSpaceOnUse"><stop stop-color="#C079B1"/><stop offset="1" stop-color="#90426D"/></linearGradient><linearGradient id="T" x1="140.483" y1="168.437" x2="140.483" y2="189.797" gradientUnits="userSpaceOnUse"><stop stop-color="#C079B1"/><stop offset="1" stop-color="#90426D"/></linearGradient><linearGradient id="U" x1="168.553" y1="168.318" x2="168.553" y2="184.048" gradientUnits="userSpaceOnUse"><stop stop-color="#C079B1"/><stop offset="1" stop-color="#90426D"/></linearGradient><linearGradient id="V" x1="52.783" y1="160.598" x2="113.883" y2="160.598" gradientUnits="userSpaceOnUse"><stop stop-color="#C079B1"/><stop offset="1" stop-color="#90426D"/></linearGradient><linearGradient id="W" x1="115.253" y1="200.968" x2="128.023" y2="174.418" gradientUnits="userSpaceOnUse"><stop stop-color="#C57CBB"/><stop offset="1" stop-color="#954577"/></linearGradient><linearGradient id="X" x1="102.863" y1="189.348" x2="106.363" y2="182.058" gradientUnits="userSpaceOnUse"><stop stop-color="#0A3D48"/><stop offset="1" stop-color="#006B6D"/></linearGradient><linearGradient id="Y" x1="45.993" y1="189.907" x2="52.753" y2="175.867" gradientUnits="userSpaceOnUse"><stop stop-color="#C57CBB"/><stop offset="1" stop-color="#954577"/></linearGradient><linearGradient id="Z" x1="77.173" y1="196.268" x2="87.623" y2="174.538" gradientUnits="userSpaceOnUse"><stop stop-color="#C57CBB"/><stop offset="1" stop-color="#954577"/></linearGradient><linearGradient id="aa" x1="47.493" y1="156.008" x2="49.253" y2="156.008" gradientUnits="userSpaceOnUse"><stop stop-color="#8E6160"/><stop offset="1" stop-color="#1F0A0F"/></linearGradient><linearGradient id="ad" x1="31.963" y1="147.898" x2="30.913" y2="139.068" gradientUnits="userSpaceOnUse"><stop stop-color="#1F0A0F"/><stop offset="1" stop-color="#8E6160"/></linearGradient><linearGradient id="af" x1="79.412" y1="143.011" x2="86.043" y2="181.118" gradientUnits="userSpaceOnUse"><stop stop-color="#F5CEB3"/><stop offset="1" stop-color="#F7B0B8"/></linearGradient><linearGradient id="ag" x1="73.584" y1="163.473" x2="93.081" y2="160.08" gradientUnits="userSpaceOnUse"><stop stop-color="#F16D73"/><stop offset="1" stop-color="#E3786E"/></linearGradient><linearGradient id="ah" x1="95.145" y1="154.037" x2="101.194" y2="152.985" gradientUnits="userSpaceOnUse"><stop stop-color="#F16D73"/><stop offset="1" stop-color="#E3786E"/></linearGradient><linearGradient id="ai" x1="96.081" y1="166.593" x2="104.18" y2="165.184" gradientUnits="userSpaceOnUse"><stop stop-color="#F16D73"/><stop offset="1" stop-color="#E3786E"/></linearGradient><linearGradient id="aj" x1="73.663" y1="163.178" x2="90.083" y2="163.178" gradientUnits="userSpaceOnUse"><stop stop-color="#023536"/><stop offset="1" stop-color="#00635B"/></linearGradient><linearGradient id="ak" x1="94.963" y1="154.657" x2="101.923" y2="154.657" gradientUnits="userSpaceOnUse"><stop stop-color="#023536"/><stop offset="1" stop-color="#00635B"/></linearGradient><linearGradient id="ao" x1="152.323" y1="179.208" x2="160.843" y2="131.578" gradientUnits="userSpaceOnUse"><stop offset=".01" stop-color="#063"/><stop offset=".23" stop-color="#004724"/><stop offset=".57" stop-color="#002110"/><stop offset=".83" stop-color="#000904"/><stop offset="1"/></linearGradient><radialGradient id="a" cx="0" cy="0" r="1" gradientUnits="userSpaceOnUse" gradientTransform="translate(100.833 171.068) scale(97.55)"><stop stop-color="#173CFF"/><stop offset="1"/></radialGradient><radialGradient id="b" cx="0" cy="0" r="1" gradientUnits="userSpaceOnUse" gradientTransform="matrix(110.21 0 0 107 95.864 72.428)"><stop offset=".01" stop-color="#0FF"/><stop offset=".18" stop-color="#00C3C3"/><stop offset=".41" stop-color="#007E7E"/><stop offset=".61" stop-color="#004848"/><stop offset=".78" stop-color="#002121"/><stop offset=".92" stop-color="#000909"/><stop offset="1"/></radialGradient><radialGradient id="o" cx="0" cy="0" r="1" gradientUnits="userSpaceOnUse" gradientTransform="translate(121.333 130.248) scale(76.85)"><stop stop-color="#55C9BF"/><stop offset=".35" stop-color="#0B8141"/><stop offset=".98" stop-color="#074F3F"/></radialGradient><radialGradient id="A" cx="0" cy="0" r="1" gradientUnits="userSpaceOnUse" gradientTransform="translate(70.363 134.028) scale(13.82)"><stop stop-color="#F7E789"/><stop offset="1" stop-color="#F79A6F"/></radialGradient><radialGradient id="D" cx="0" cy="0" r="1" gradientUnits="userSpaceOnUse" gradientTransform="translate(66.143 119.748) scale(21.66)"><stop stop-color="#FD3800"/><stop offset=".12" stop-color="#D12E00"/><stop offset=".3" stop-color="#922000"/><stop offset=".47" stop-color="#5E1500"/><stop offset=".64" stop-color="#350C00"/><stop offset=".78" stop-color="#180500"/><stop offset=".91" stop-color="#060100"/><stop offset="1"/></radialGradient><radialGradient id="E" cx="0" cy="0" r="1" gradientUnits="userSpaceOnUse" gradientTransform="translate(67.353 117.357) scale(16.27)"><stop stop-color="#FF249C"/><stop offset=".12" stop-color="#D11D80"/><stop offset=".3" stop-color="#921559"/><stop offset=".48" stop-color="#5E0D39"/><stop offset=".64" stop-color="#350821"/><stop offset=".78" stop-color="#18030F"/><stop offset=".91" stop-color="#060104"/><stop offset="1"/></radialGradient><radialGradient id="G" cx="0" cy="0" r="1" gradientUnits="userSpaceOnUse" gradientTransform="matrix(7.92 0 0 7.92 183.033 156.827)"><stop stop-color="#F7E789"/><stop offset="1" stop-color="#F79A6F"/></radialGradient><radialGradient id="ab" cx="0" cy="0" r="1" gradientUnits="userSpaceOnUse" gradientTransform="matrix(8.62 0 0 8.62 50.113 163.247)"><stop stop-color="#F7E789"/><stop offset="1" stop-color="#F79A6F"/></radialGradient><radialGradient id="ac" cx="0" cy="0" r="1" gradientUnits="userSpaceOnUse" gradientTransform="translate(32.663 158.688) scale(17.34)"><stop stop-color="#F7E789"/><stop offset="1" stop-color="#F79A6F"/></radialGradient><radialGradient id="ae" cx="0" cy="0" r="1" gradientUnits="userSpaceOnUse" gradientTransform="matrix(59.8364 0 0 80.86 120.576 163.667)"><stop stop-color="#0FF"/><stop offset=".12" stop-color="#00D1D1"/><stop offset=".3" stop-color="#009292"/><stop offset=".48" stop-color="#005E5E"/><stop offset=".64" stop-color="#003535"/><stop offset=".78" stop-color="#001818"/><stop offset=".91" stop-color="#000606"/><stop offset="1"/></radialGradient><radialGradient id="al" cx="0" cy="0" r="1" gradientUnits="userSpaceOnUse" gradientTransform="rotate(-9.87 987.137 -375.546) scale(9.3)"><stop stop-color="#0FF"/><stop offset=".12" stop-color="#00D1D1"/><stop offset=".3" stop-color="#009292"/><stop offset=".48" stop-color="#005E5E"/><stop offset=".64" stop-color="#003535"/><stop offset=".78" stop-color="#001818"/><stop offset=".91" stop-color="#000606"/><stop offset="1"/></radialGradient><radialGradient id="am" cx="0" cy="0" r="1" gradientUnits="userSpaceOnUse" gradientTransform="rotate(-9.87 949.184 -489.413) scale(7.52)"><stop stop-color="#0FF"/><stop offset=".12" stop-color="#00D1D1"/><stop offset=".3" stop-color="#009292"/><stop offset=".48" stop-color="#005E5E"/><stop offset=".64" stop-color="#003535"/><stop offset=".78" stop-color="#001818"/><stop offset=".91" stop-color="#000606"/><stop offset="1"/></radialGradient><radialGradient id="an" cx="0" cy="0" r="1" gradientUnits="userSpaceOnUse" gradientTransform="translate(99.623 22.027) scale(22.85)"><stop stop-color="#0FF"/><stop offset=".12" stop-color="#00D1D1"/><stop offset=".3" stop-color="#009292"/><stop offset=".48" stop-color="#005E5E"/><stop offset=".64" stop-color="#003535"/><stop offset=".78" stop-color="#001818"/><stop offset=".91" stop-color="#000606"/><stop offset="1"/></radialGradient></defs></svg>