<svg width="172" height="218" viewBox="0 0 172 218" fill="none" xmlns="http://www.w3.org/2000/svg"><path fill-rule="evenodd" clip-rule="evenodd" d="m145.22 176.65 3.04-5.33-130.59-1.22 3.21 9.43 14.9 24.53 18.11 6.15 13.25-4.75 10.12.33 1.38 4.28 16.03 2.4 9.99-6.84 2.61-6.25 6.55 1.42 15.06-7.41 5.1 4.45 17.08-8.98 8.73-14.23-14.57 2.02Z" fill="url(#a)"/><path fill-rule="evenodd" clip-rule="evenodd" d="m53.89 210.21-3.56-35.55-31.65-1.6 2.2 6.47 14.9 24.53 18.11 6.15Z" fill="url(#b)"/><path fill-rule="evenodd" clip-rule="evenodd" d="m11.76 174.86 5.89 16.94 7.97-.17 7.12-1.2 5.44-13.86-26.42-1.71Z" fill="url(#c)"/><path fill-rule="evenodd" clip-rule="evenodd" d="m76.13 201.28 1.27-22.73 25.87-.23-3.67 19.23-3.31 7.32-20.16-3.59Z" fill="url(#d)"/><path style="mix-blend-mode:screen" opacity=".6" fill-rule="evenodd" clip-rule="evenodd" d="m109.16 186.87 19.38-5.34 7.72 1.75-15.17 8-11.93-4.41Z" fill="url(#e)"/><path fill-rule="evenodd" clip-rule="evenodd" d="m35.78 204.06 17.24-2.55-2.69-26.85 4.91.26 1.97 13.94 6.86 3.17 12.29 5.12-.23 4.13 15.77 2.81 7.7-6.54 3.67-19.23 30.24-7.14 14.75.14-1.55 2.71-11.49 4.01-2.94 4.34 3.98.9-2.28 14.56-5.1-4.45-15.06 7.41 7.27-9.52-11.93-4.41-1.89 12.51-2.61 6.25-9.99 6.84-16.03-2.4-1.38-4.28-10.12-.33-13.25 4.75-18.11-6.15Z" fill="#311565" style="mix-blend-mode:multiply" opacity=".5"/><path fill-rule="evenodd" clip-rule="evenodd" d="m67.14 205.46-3.07-13.43 12.29 5.12-.23 4.13 1.13 4.51-10.12-.33Z" fill="#311565" style="mix-blend-mode:multiply" opacity=".5"/><path fill-rule="evenodd" clip-rule="evenodd" d="M135.22 178.04c.3-.1 6.67.8 6.67.8l17.9-4.21-11.38-1.19-13.19 4.6Z" fill="url(#f)"/><path fill-rule="evenodd" clip-rule="evenodd" d="m17.65 191.8 8.4-3.39.82-12.57 11.31.73-5.44 13.86-7.12 1.2-7.97.17Z" fill="#311565" style="mix-blend-mode:multiply" opacity=".5"/><path fill-rule="evenodd" clip-rule="evenodd" d="m32.74 190.43-6.69-2.02-8.4 3.39 7.97-.17 7.12-1.2Z" fill="#311565" style="mix-blend-mode:multiply" opacity=".5"/><path fill-rule="evenodd" clip-rule="evenodd" d="M105.46 208.24c.37-.08 7.06-2.82 7.06-2.82l9.69-1.19-4.46 8.41-7.39 4.69-3.73.17-1.17-9.26Z" fill="url(#g)"/><path fill-rule="evenodd" clip-rule="evenodd" d="m105.46 208.24 7.41.63 9.34-4.64-4.46 8.41-7.39 4.69-3.73.17-1.17-9.26Z" fill="#311565" style="mix-blend-mode:multiply" opacity=".5"/><path fill-rule="evenodd" clip-rule="evenodd" d="m112.87 208.87-2.51 8.46 7.39-4.69 4.46-8.41-9.34 4.64ZM115.74 205.02l-5.96 3.59-4.32-.37 7.06-2.82 3.22-.4ZM128.88 193.39l7.38-10.11-15.17 8-7.27 9.52 15.06-7.41ZM14.54 182.85l11.92-.83 8.23 2.7 16.49-1.61 5.85 4.48 19.65 3.74.46-8.16 25.51-.33 5.76 9s4.62-3.55 4.83-3.47c.21.08 17.37-6.38 17.37-6.38l1.67.38 2.94-4.34 11.49-4 3.46-5.93-139.83.83 4.2 13.92ZM141.89 178.84l-7.91 19 17.08-8.98 8.73-14.23-17.9 4.21Z" fill="#311565" style="mix-blend-mode:multiply" opacity=".5"/><g style="mix-blend-mode:screen" opacity=".6" fill-rule="evenodd" clip-rule="evenodd"><path style="mix-blend-mode:screen" opacity=".6" d="m148.41 173.44-1.7.59 3.46-5.93-139.83.83 1.79 5.95-.37-.02 5.89 16.94 7.97-.17 2.37-.4 7.79 12.83 18.11 6.15 13.25-4.75 10.12.33 1.38 4.28 16.03 2.4 9.99-6.84 2.61-6.25 6.55 1.42 15.06-7.41 5.1 4.45 17.08-8.98 8.73-14.23-11.38-1.19Z" fill="url(#h)"/><path style="mix-blend-mode:multiply" opacity=".5" d="m115.74 205.02-3.22.4-7.06 2.82 1.17 9.26 3.73-.17 7.39-4.69 4.46-8.41-6.47.79Z" fill="url(#i)"/></g><path fill-rule="evenodd" clip-rule="evenodd" d="M22.91 112.08s5.71 21.59 13.56 48l2.81-1.43s-11.63-32.89-13.92-46.91c0 0 5 .08 4.71-.55-.34-.8-6.25-7-7.64-7.58-1.39-.58-4.79 7.71-4 8.19 1 .7 4.48.28 4.48.28ZM75.17 111.13s-.62 21-.66 48.28l2.79-.61s-1.59-34.33 0-47.73c0 0 3.39.85 3.31.21-.1-.81-3.42-6.5-4.39-7.16-.97-.66-4.51 5.84-4.06 6.33.58.69 3.01.68 3.01.68Z" fill="#19264D"/><path fill-rule="evenodd" clip-rule="evenodd" d="m15.79 131.25 52.06-3.75 25.35 2 .1-1.06-25-2.17s-26.4 2.06-54.7 3.49l2.19 1.49Z" fill="#19264D"/><path d="M140.72 30.96s-14.35-11.19-23.87-11.53c-9.52-.34-14.87 4.62-14.87 4.62l-1.63 29.67a49.77 49.77 0 0 0-15.23 7.47s-7.37-3.3-8.2-3.18c-.83.12-9.67 6.9-9.93 8.7-.26 1.8-1.56 23.08 0 25.2 1.56 2.12 5.83 1.52 12.38 2.64 6.55 1.12 7.22 1.27 7.22 1.27a34.341 34.341 0 0 0 2.48 7.46 36.884 36.884 0 0 0 4.21 5.71 143.944 143.944 0 0 0-2.67 15.07c-.75 7-1.16 10.42-1.16 10.42l-9.83 1.18 12 5.61 22.23 2.29 3.39-35.49s-19.29-.92-20.31-15.56c-1.02-14.64-.74-24.25 10.92-29.71 11.66-5.46 26.11-18.3 26.11-18.3l6.76-13.54Z" fill="#1BACE0"/><path fill-rule="evenodd" clip-rule="evenodd" d="m153.33 104.54-6.85.98-14.57-.35 7.98-4.13 13.44 3.5Z" fill="url(#j)"/><path d="m90.47 139.74 3.85-31.73a21.259 21.259 0 0 1-7.3-11.56L67.85 93.1a87.762 87.762 0 0 1 .29-26.6l9.47-7.85 8.14 3.72s4.34-4.65 15.24-8l2.12-29.91s7.31-5.05 13.16-4.19l-4 34.42-18.42 23.13 11.85 28.23-2.22 35.22-13.01-1.53Z" fill="url(#k)"/><path d="m145.2 70.13-5.84 3.13-.92 3.44-1.56 2.58 6.88.62 1.44-9.77Z" fill="url(#l)"/><path fill-rule="evenodd" clip-rule="evenodd" d="m157.31 82.01-8.68-3s-2.19-7-3.43-8.86l-2.29 7.09-6.1.5-.37.61c2.41 4.83 3.19 10.15 1.41 14.15a14.402 14.402 0 0 1-9.26 7.79c-2.328.686-4.759.95-7.18.78-.51 0-1-.08-1.53-.14-.75-.1-1.51-.24-2.27-.41a20.43 20.43 0 0 1-4.49-1.62c-6.5-3.26-10.5-9.86-8.45-17.54a29.423 29.423 0 0 1 1.9-5.21s0-5 1.84-6.16c1.84-1.16 2.62-.23 2.62-.23a14.071 14.071 0 0 1 4.64-3 11.986 11.986 0 0 1 2.12-.61c.42-.07.85-.13 1.29-.16a12.241 12.241 0 0 1 2.41.07c.645.088 1.284.222 1.91.4.74.203 1.462.464 2.16.78a20.857 20.857 0 0 1 6.9 5.19l.57-.07c3-6 6.2-11.68 6.2-11.68l.27.11c-.89-1-1.71-1.84-2.42-2.6l5-26.13a58.47 58.47 0 0 0-16.67-9.36 49.702 49.702 0 0 0-4.79-1.5c-.78-.21-1.58-.39-2.39-.56-.63-.13-1.26-.25-1.9-.36l-5.48 32.8s-14 3.57-20.24 11.51l-13-5.94s-1.91 17.1-1.37 31.09l17.15 2.34s3.52 8.61 8.71 14.16l-5.25 33.44 24.78.84 6.67-28.49s8.17-3 12.91-9.35l12.12 1.82s5.02-11.69 3.98-22.49Z" fill="url(#m)"/><path style="mix-blend-mode:screen" opacity=".6" d="M123.34 66.41a13.832 13.832 0 0 0-1.91-.4c.92-15.51 2.2-31.05 3.94-43.36l2.93 1.74s-2.79 15.11-4.96 42.02Z" fill="url(#n)"/><path style="mix-blend-mode:screen" opacity=".6" d="m121.66 140.5-2.6-1.33s.08-16.4.79-38.27c.51.06 1 .11 1.53.14-1.1 30.99.28 39.46.28 39.46Z" fill="url(#o)"/><path style="mix-blend-mode:screen" opacity=".6" d="M115.42 50.5s.82-19.27 2.75-29.95l2.39.56a123.878 123.878 0 0 0-3.71 31.45c.047 4.528.357 9.049.93 13.54-.724.138-1.434.342-2.12.61.34-12.27-.24-16.21-.24-16.21Z" fill="url(#p)"/><path style="mix-blend-mode:screen" opacity=".6" d="m114.69 139.65-9-1.2a312.634 312.634 0 0 0 7.38-39.56c.66.32 1.33.61 2 .87-1.3 14.49-2.15 31.31-.38 39.89Z" fill="url(#q)"/><path d="m132.4 72.38-4 .56c-3.77-4.38-8.36-7-9.4-7h.06c2.28-.37 5 .45 7.5 1.58a20 20 0 0 1 6.45 4.79l-.61.07Z" fill="url(#r)"/><path d="M138.6 92.38a14.188 14.188 0 0 1-10 7.9c-.52.12-1 .22-1.57.3 0 0 7.93-5 6.49-16.9l-.06-.42 3-4.93.37-.61c2.66 4.97 3.63 10.57 1.77 14.66Z" fill="url(#s)"/><path style="mix-blend-mode:soft-light" opacity=".3" fill-rule="evenodd" clip-rule="evenodd" d="M78.67 61.6c-2 5.07-2.53 25.09-.35 26.42 3.57 2.16 22.25-3 24.41-9.46 2.16-6.46-22.88-19.88-24.06-16.96Zm1.87 5.77c.39-3.61 3.23-3.61 5.82 2 2.59 5.61-6.39 3.37-5.82-2Zm6.83.68c-.33-2 2.26-1.36 3.24 0 .98 1.36-2.88 2.12-3.24 0Z" fill="url(#t)"/><path fill-rule="evenodd" clip-rule="evenodd" d="M74.69 90.22c-4.81 1.62-8 1.61-5.48 2.63 2.52 1.02 12.12 2.31 16.19 2.9 4.07.59 8.26-2.85 7.21-3.34-2.54-1.18-17.92-2.19-17.92-2.19Z" fill="#7A369E" style="mix-blend-mode:soft-light" opacity=".5"/><path style="mix-blend-mode:soft-light" opacity=".3" fill-rule="evenodd" clip-rule="evenodd" d="M138.5 31.82c-2.61-2-15.54-10.21-19.26-8-3.72 2.21-7.86 31.14-6.57 33.78 1.29 2.64 19 2.54 22.27-4 3.27-6.54 6.14-19.74 3.56-21.78Zm-6.46 6.9c.12.9-2 2.51-2 .75-.03-1.05 1.89-1.66 2-.75Zm-2.48 13.08c-1.8-1.24-2.48-1.46-2.57-4.51-.09-3.05 5.51-3.27 6.28.68.77 3.95-2.05 4.98-3.71 3.83Zm3.41-14.89c-.32-3.16 4-2.59 4.49.9.49 3.49-3.85 5.5-4.49-.9Z" fill="url(#u)"/><path d="M90.61 64.59c4.56-2.34 18.13-10.87 18.13-10.87s-10.36 3.59-13.89 6.84c-3.53 3.25-4.24 4.03-4.24 4.03ZM115.09 99.76s2.14 2.81 8.66 2.53c6.52-.28 11.36-5.25 11.36-5.25s-8.12 6.37-20.02 2.72Z" fill="#09AC61"/><path d="M77.2 62.8s-2.47 9.3-2.57 13.26a31.94 31.94 0 0 0 1.51 8.84 47.27 47.27 0 0 0 1.37-10c.02-4.82-.31-12.1-.31-12.1ZM101.85 108.07s-3.48 8.43-3.65 10.43a50.37 50.37 0 0 0 .82 7.55s2.76-6.36 3.21-10.42c.29-2.523.162-5.078-.38-7.56Z" fill="#15524F"/><path style="mix-blend-mode:screen" opacity=".6" fill-rule="evenodd" clip-rule="evenodd" d="M94.53 89.6c.61 5 9.42 16.49 11.42 17.48 2 .99 6.55-4.51 2.77-9.28s-14.61-11.63-14.19-8.2Z" fill="url(#v)"/><path style="mix-blend-mode:multiply" opacity=".7" d="M124.65 127.76c1.06-1.47-12.3-5.67-14.05-5.07-4.33 1.5-12.42 7.46-12.42 7.46l-1.3 9.53 24.78.84 2.99-12.76Z" fill="url(#w)"/><path style="mix-blend-mode:screen" opacity=".6" fill-rule="evenodd" clip-rule="evenodd" d="m157.31 82.01-8.68-3s-2.19-7-3.43-8.86l-5.84 3.13-.92 3.44-.56.93-1.07.09-.37.61-3 4.93.06.42c1.28 10.64-4.86 15.73-6.23 16.72a24 24 0 0 1-12.16-.64c-.7-.26-1.37-.55-2-.87-6.5-3.26-10.5-9.86-8.45-17.54a29.429 29.429 0 0 1 1.9-5.21s0-5 1.84-6.16c1.84-1.16 2.62-.23 2.62-.23a14.074 14.074 0 0 1 4.64-3 11.986 11.986 0 0 1 2.12-.61c.42-.07.85-.13 1.29-.16h-.06c1 0 5.63 2.61 9.4 7l4-.56.57-.07c3-6 6.2-11.68 6.2-11.68l.27.11c-.89-1-1.71-1.84-2.42-2.6l5-26.13a49.093 49.093 0 0 0-6.26-4.37c-4.7-2.91-11.49-6.38-18.13-7.16l-1.38-.25c-5.85-.86-13.16 4.19-13.16 4.19l-2.12 29.91c-10.9 3.39-15.24 8-15.24 8l-4.44-2-3.7-1.69-9.46 7.8a87.762 87.762 0 0 0-.29 26.6l19.17 3.4a21.259 21.259 0 0 0 7.3 11.56l-3.85 31.73 13 1.53.08-1.37 18.12.62 6.67-28.49a33.812 33.812 0 0 0 10.57-6.69l7.58.18 6.85-1s5.01-11.76 3.97-22.56Z" fill="url(#x)"/><path d="M40.51 113.39a69.068 69.068 0 0 0 15.77 6l2.88 16.42-19.88.69a67.577 67.577 0 0 0 1.23-23.11Z" fill="url(#y)"/><path d="M40.51 113.39c-1.64.18 11.44 7.23 15.77 6 0 .03-10.54-6.59-15.77-6Z" fill="#F6D8B6"/><path d="m48.08 116.73.55.31a22.667 22.667 0 0 1-.25-5.52c.27-2.84 3.24-4.35 3.24-4.35a1.89 1.89 0 0 0-1.52-1.9 14.999 14.999 0 0 0-2.27 6.8 15.522 15.522 0 0 0 .25 4.66Z" fill="url(#z)"/><path d="M40.85 126.12c-.69 6.07 10 9.4 14.32 7.35 1.15-.55 1.91-9.62 1.91-9.62l2.11 12-19.91.65c.458-1.543.766-3.127.92-4.73.51-3.79.65-5.65.65-5.65Z" fill="#E5A3E5" style="mix-blend-mode:multiply" opacity=".5"/><path d="M47.85 117.63s-.42 4.05 1.91 4.64c2.33.59 3.76-2.53 3.7-2.71-.06-.18-3.25-.86-5.61-1.93Z" fill="#fff"/><path d="M48.32 112.5c-5.88-4.48 2.65-6.85 1.51-11.77 0 0 2.86 8.08 1.79 8.64-3.7 1.91-3.3 3.13-3.3 3.13Z" fill="url(#A)"/><path d="M164.72 143.56a10.143 10.143 0 0 0 1.3-4.47 4.542 4.542 0 0 0-.74-2.64 2.234 2.234 0 0 0-1 1.33s1.16.26 1.16 2.26a6.774 6.774 0 0 1-1 3.51l.28.01Z" fill="url(#B)"/><path d="M166.53 156.57a17.87 17.87 0 0 1-7-.09 34.365 34.365 0 0 0 .92-9.48c-.05-1.27-.15-2-.15-2 3.24-2.72 8.31-2.7 8.31-2.7v1.77a82.988 82.988 0 0 1-2.08 12.5Z" fill="url(#C)"/><path d="M166.53 156.57a17.87 17.87 0 0 1-7-.09 34.365 34.365 0 0 0 .92-9.48s.37 4.35.43 7.89c0 .67 4.2.85 4.95-.22s2.41-5.41 2.74-10.61a82.968 82.968 0 0 1-2.04 12.51Z" fill="#E5A3E5" style="mix-blend-mode:multiply" opacity=".5"/><path fill-rule="evenodd" clip-rule="evenodd" d="m107.82 135.18-87.86 1.51 4.13 27.75 80-2.8 48.79-5.75 1.75-12.27-46.81-8.44Z" fill="url(#D)"/><path fill-rule="evenodd" clip-rule="evenodd" d="m.38 166.21 10.17 13.58 31.2-.3 7.73-2.05.23 3.69 60.33-.67 22.88-6.61 4.69.56 21.09-3.28 5.16-5.79-10.7-.52 13.06-1.67 5.37-6.22-3.43-1-90-.1-27.12 1-.32 5-5.44-.7s-43.76 4.91-44.9 5.08Z" fill="url(#E)"/><path fill-rule="evenodd" clip-rule="evenodd" d="m138.59 171.17 25.27-5.83-27.03-1.32-21.97 2.59 18.99 1.54-.34 3.03 5.08-.01Z" fill="url(#F)"/><path fill-rule="evenodd" clip-rule="evenodd" d="M.38 166.21s29.06 2.73 42 2.73l32.58-5.25-29.6-2.49-44.98 5.01Z" fill="url(#G)"/><path fill-rule="evenodd" clip-rule="evenodd" d="M48.95 168.94s61.41 3.81 61.9 3.81c.49 0 23.59-4.52 23-4.6-.59-.08-53.74-4.35-53.74-4.35l-31.16 5.14Z" fill="url(#H)"/><path style="mix-blend-mode:multiply" opacity=".7" fill-rule="evenodd" clip-rule="evenodd" d="m132.92 173.85.93-5.7-23 4.6-20.75-1.26-12.71 9.33 32.65-.36 22.88-6.61Z" fill="url(#I)"/><path d="m53.74 160.39 43.07-7.81 28.35 1.84-37.83 8.23-33.59-2.26Z" fill="url(#J)"/><path d="m125.16 154.42-37.83 8.23-33.59-2.26.28 1.54 20.9 1.76v.97l5.19-.86 27.09 2.19 1.31-7.06 16.51-3 .14-1.51Z" fill="#076249"/><path d="m108.51 158.93 29.82 1.72 11.87.89 21.39-4.61-3.43-.95-43.14-.05-16.51 3Z" fill="url(#K)"/><path style="mix-blend-mode:multiply" opacity=".7" d="m108.51 158.93 41.69 2.61.45 3.16-14.15-.68-21.64 2.59-7.66-.62 1.31-7.06Z" fill="url(#L)"/><path d="m162 151.42-6.57-2.48-15.18-.88-3.61 8.73s16.59 1.43 16.93 1.44l8.19-1.73.24-5.08Z" fill="url(#M)"/><path style="mix-blend-mode:multiply" opacity=".7" fill-rule="evenodd" clip-rule="evenodd" d="m107.85 135.18-2.2 18 19.54 1.27-.14 1.51 7.16 1.22 22.53 3.42 16.88-3.64-3.43-1h-6.34l.16-4.55-6.57-2.48-1.86 9.29-12.15-1s1-9 1.11-9l11.36.66.74-5.23-46.79-8.47Z" fill="url(#N)"/><path style="mix-blend-mode:multiply" opacity=".7" d="m41.75 179.5.59-10.55c.7-.32 32.58-5.25 32.58-5.25l-20.91-1.76-.27-1.54 33.59 2.26 37.83-8.23-.14 1.51-16.51 3 6.35 7.68-7.66-.62-27.09-2.2-31.16 5.14.53 8.5-7.73 2.06Z" fill="url(#O)"/><path style="mix-blend-mode:multiply" opacity=".7" d="m135.28 174.13-2.36-.28-22.88 6.61.81-7.71 23-4.6-.34 3.03 1.77 2.95Z" fill="url(#P)"/><path style="mix-blend-mode:multiply" opacity=".7" d="m138.59 171.17-.98 3.24 21.09-3.28 5.16-5.79-25.27 5.83Z" fill="url(#Q)"/><path style="mix-blend-mode:multiply" opacity=".7" fill-rule="evenodd" clip-rule="evenodd" d="m86.02 135.53 8.59 17.45-8.24 1.49 9.69 6.28-8.73 1.9-.22 1.72-7-.57-5.19.86v-.97l-30.12-2.53-9.84 1.19 8.51-26.07 42.55-.75Z" fill="url(#R)"/><path style="mix-blend-mode:multiply" opacity=".7" d="m127.75 175.34-5.63-4.79-30.22 1.05-13.04 9.21-1.47.01 12.71-9.33 32.91-1.4 6.65 4.71-1.91.54Z" fill="url(#S)"/><path d="M83.01 177.87s5.58-2.75 5.7-3c.12-.25 1.86-2.38 1.86-2.38l-4.48 2.67-3.08 2.71Z" fill="url(#T)"/><path style="mix-blend-mode:multiply" opacity=".15" d="m42.34 168.94-.59 10.56-13.15.13s-9-11.81-8.47-11.78c.53.03 22.21 1.09 22.21 1.09Z" fill="url(#U)"/><path style="mix-blend-mode:multiply" opacity=".15" d="m48.95 168.94.76 12.19 9.89-.11 25.22-9.75-35.87-2.33Z" fill="url(#V)"/><path d="m80.11 163.8-31.16 5.14 19.1 1.19s-14.8-1.18-13.41-1.51c1.39-.33 25.47-4.82 25.47-4.82Z" fill="#83FFEA"/><path fill-rule="evenodd" clip-rule="evenodd" d="M34.02 141.02c0 4.92 4.43 3.58 4.16 1.49-.27-2.09-4.16-3.68-4.16-1.49ZM37.64 137.96c-.44.69.22 2 1 1.46s-.1-2.92-1-1.46Z" fill="#0E3E47" style="mix-blend-mode:soft-light" opacity=".52"/><path d="M30.34 148c-.51-1.66-1-4.14-.4-5.29 0 0 1-.33 1.49 1a2.16 2.16 0 0 0-1.24 2.14 4.259 4.259 0 0 0 .7 2.55l-.55-.4Z" fill="url(#W)"/><path d="m36.85 164.2-10.38-.34s.28-5.37.26-10.66c0-1.73 0-3.46-.12-5 0 0 2.69-1.79 8.19 1.12 0 0 0 1.94.2 4.56.17 3.506.791 6.974 1.85 10.32Z" fill="url(#X)"/><path d="m36.85 164.2-10.38-.34s.28-5.37.26-10.66c.74 4.92 1.56 7.83 2.1 8 .54.17 5.8.54 6-.15.2-.69.18-7.19.18-7.19a40.736 40.736 0 0 0 1.84 10.34Z" fill="#E5A3E5" style="mix-blend-mode:multiply" opacity=".5"/><path d="M29.17 165.89c-7.22.75-18.65-.06-18.65-.06.4-5.567.22-11.16-.54-16.69-1-6.93-2.68-10.26-2.68-10.26a53.478 53.478 0 0 0 16.49-4.38c.18 2 .52 4.53.94 7.29 1.62 10.55 4.44 24.1 4.44 24.1Z" fill="url(#Y)"/><path d="M7.3 138.87s2.32-4.89 16.49-4.34c0 0-2.56 2.91-8.72 3.91s-7.77.43-7.77.43Z" fill="#F6D8B6"/><path d="M15.58 136.75a26.764 26.764 0 0 1-2.21-6 9.58 9.58 0 0 1 .46-5.46s-.65-1.75-2.74-.79a54.492 54.492 0 0 0 2.13 8.13c1.43 4 1.95 4.61 1.95 4.61l.41-.49Z" fill="url(#Z)"/><path d="M29.17 165.89c-7.22.75-18.65-.06-18.65-.06.4-5.567.22-11.16-.54-16.69 1.85 7 2.11 13.09 2.58 14 .47.91 9.19.76 11.28-1.57s.93-19.22.89-19.77c1.62 10.54 4.44 24.09 4.44 24.09Z" fill="#E5A3E5" style="mix-blend-mode:multiply" opacity=".5"/><path d="M94.41 161.03c-.24.88-2.65 3.35-4.22 4.08 0 0-5.33 2.83-15.09 4.31l19.31-8.39Z" fill="#680000"/><path fill-rule="evenodd" clip-rule="evenodd" d="M88.85 155.17a10.323 10.323 0 0 1 1.51 2.08l.19.36a12.078 12.078 0 0 1 3.89 3.51 4.417 4.417 0 0 1-3.38 1.27c-1.89 2.45-11 6-14.59 6.75-.86.19-1.38.28-1.38.28a5.27 5.27 0 0 1-1.63-4.09 3.756 3.756 0 0 0-3.92-1.6s-8.4 4.56-10.28 5.67c-1.88 1.11-7.38.37-10.75-.24s-10.46-11.14-10.66-12.51c-.2-1.37 6-16.66 20.12-22.57 17.87-7.47 23.16 3.66 23.16 3.66a49.243 49.243 0 0 0 3 10.75 6.358 6.358 0 0 1 2.79-1.1c1.69-.26 3.77 3.25 3.57 4.2-.19.73-2.75 2.43-1.64 3.58Z" fill="url(#aa)"/><path d="M61.02 161.01c3.53 1.19 7.23-.62 10-1.55 2.77-.93 4.44-6.39 4.53-7.87.09-1.48-1.48-8-4.72-9.67-3.24-1.67-10.62-.53-13.82 4.85-3.2 5.38.41 11.41 1.28 12.55a6.387 6.387 0 0 0 2.73 1.69Z" fill="url(#ab)"/><path d="m84.1 148.5-1.15 1s-4.57-2.63-5.76-7c-1.19-4.37.62-5.61 1.16-5.93 2.85-1.71 5.95 7.15 5.75 11.93Z" fill="url(#ac)"/><path d="M78.85 159.13c-.58.11 2.5-6.23 4.62-7.06 2.12-.83 3.1 3.79 3.1 3.79s-5.14 2.77-7.72 3.27Z" fill="url(#ad)"/><path d="M55.85 152.43c1.24-11.21 14.94-10.51 16.27-2.44.72 4.36-1 11.76-9.32 11.38-6.84-.31-6.95-8.94-6.95-8.94Z" fill="url(#ae)"/><path d="M81.58 140.36c-2-2.85-5.65-1.58-4 3.16 1 2.92 5.4 5.95 5.4 5.95l1.15-1s-1.06-6.04-2.55-8.11Z" fill="url(#af)"/><path d="M78.85 159.13c-.47.08 1-4 3.1-5.81 0 0 2.37-.51 3.64 3.05-.01 0-4.82 2.42-6.74 2.76Z" fill="#680000"/><path opacity=".5" d="M39.42 156.8c2 5.68 9.26 13.18 12.75 11.1s6.46-7 2.51-12.08-17.3-4.78-15.26.98ZM69.55 163.72c-4.2.9 5.17-7.37 5.43-1.94.08 1.66-1.51 3.54-1.51 3.54a3.56 3.56 0 0 0-3.92-1.6ZM90.56 157.6c-.95.64-.9 2.26-.9 2.26s-.7-.49-2.77 0c-2.07.49-2.42 1.53-2.42 1.53a3.597 3.597 0 0 0-3.32.09c-2 .92-2 1.71-2 1.71s-3.11 0-4 1.56c-.68 1.17 1.23 4.15 1.23 4.15l.15.2c-.86.19-1.38.28-1.38.28a5.27 5.27 0 0 1-1.63-4.09c5.25-5.07 16.14-6.47 16.9-8.07l.1.18.04.2ZM90.46 151.59c-2.72.21-4-1.05-4.6-.19-.6.86 2.83 3.55 2.83 3.55s-.55-.58.23-1.32a10.987 10.987 0 0 0 1.54-2.04Z" fill="#E26680"/><path d="M75.58 164.55c-.77.52 1.76 3.73 2.91 3.48 1.15-.25 2.56 0 2.3-1.5-.26-1.5-.85-4.9-5.21-1.98ZM81.19 161.92c-1.15.72.65 4.49 2.13 4.56 1.48.07 2.4-.88 2.23-1.54-.17-.66-.08-5.72-4.36-3.02ZM90.56 161.5a2.814 2.814 0 0 0-1.81-1.81 2.823 2.823 0 0 0-2.53.4c-1.21.75.45 4.09 1.6 4 1.15-.09 3.27-1.06 2.74-2.59ZM45.61 144.19c-2 2.65 27.19-7.92 29.5-10.12 2.74-2.57-17.8-5.64-29.5 10.12ZM76.37 151.44c-1.77 4.29-3.08 7.91-2 8 1.08.09 8-7.28 7.74-7.73-1.09-2.01-5.49-.86-5.74-.27Z" fill="#F7DAD2"/><path opacity=".5" d="M46.11 164.68c-.41 2 3.65 3.29 5.24 3 1.59-.29 6.9-5.59 4.24-9.75-.68-1.07-2.06 2.77-5.14 3.59-3.08.82-4.03 1.6-4.34 3.16Z" fill="#E26680"/><path d="M62.32 143.65c4 .39 5.45.59 8.7 2.65 3.25 2.06 3.25.24 2-2.15-1.25-2.39-4.56-3.81-8.89-2.54-4.33 1.27-3.28 1.89-1.81 2.04Z" fill="#722E8C" style="mix-blend-mode:soft-light" opacity=".5"/><path d="M90.13 158.05c-.68 1.19 1.63 4 2.27 4 .64 0 2.07-.74 2-1-.07-.26-2.92-3.14-3.81-3.18-.29-.04-.32-.07-.46.18Z" fill="#F7DAD2"/><path d="M62.62 133.8c-2.91 2.62 7.78 3 6.85-1.27 0-.03-4.32-1.03-6.85 1.27Z" fill="#fff"/><path style="mix-blend-mode:color-dodge" d="M70.53 151.86a8.7 8.7 0 0 1-7.46 10.22 10 10 0 0 1-11.22-7.4 8.67 8.67 0 0 1 7.5-10.48 9.922 9.922 0 0 1 11.18 7.66Z" fill="url(#ag)"/><path style="mix-blend-mode:color-dodge" d="M87.62 143.95a7.309 7.309 0 0 1-6.21 8.36 7.748 7.748 0 0 1-8.77-6.15 7.3 7.3 0 0 1 6.21-8.58 7.72 7.72 0 0 1 8.77 6.37Z" fill="url(#ah)"/><path d="M93.62 12.89a11.46 11.46 0 0 1-12 9.93c-6.2-.52-12.09-6.32-11.44-12.15C70.83 4.84 76.63-.23 82.85.5c6.22.73 11.44 6.77 10.77 12.39Z" fill="#98FFEE"/><path d="M86.24 18.26a3.71 3.71 0 0 1-4.09 3.1 3.49 3.49 0 0 1-3.3-3.79 3.71 3.71 0 0 1 4.1-3.07 3.51 3.51 0 0 1 3.29 3.76ZM75.19 14.35a1.91 1.91 0 0 1-2 1.79 1.83 1.83 0 0 1-1.52-2.13 1.889 1.889 0 0 1 2-1.78 1.831 1.831 0 0 1 1.52 2.12Z" fill="#594275" style="mix-blend-mode:multiply" opacity=".2"/><path d="m10.69 162.15-.1 2.92-10.21 1.14 19.75 1.63s7.69-1 9-2c0 0-10.17.25-15.34-.87a3.995 3.995 0 0 1-3.1-2.82ZM36.85 164.2l-7.81.83-.56-2.76a9.512 9.512 0 0 0 3.17 1.28c1.72.313 3.456.53 5.2.65Z" fill="#311565" style="mix-blend-mode:multiply" opacity=".5"/><defs><linearGradient id="a" x1="84.83" y1="209.95" x2="88.57" y2="173.87" gradientUnits="userSpaceOnUse"><stop stop-color="#74095C"/><stop offset="1" stop-color="#8B0012"/></linearGradient><linearGradient id="b" x1="18.68" y1="191.64" x2="53.89" y2="191.64" gradientUnits="userSpaceOnUse"><stop stop-color="#AE282F"/><stop offset="1" stop-color="#961037"/></linearGradient><linearGradient id="c" x1="11.76" y1="183.33" x2="38.18" y2="183.33" gradientUnits="userSpaceOnUse"><stop stop-color="#AE282F"/><stop offset="1" stop-color="#961037"/></linearGradient><linearGradient id="d" x1="89.7" y1="180.55" x2="89.7" y2="207.42" gradientUnits="userSpaceOnUse"><stop stop-color="#AE282F"/><stop offset="1" stop-color="#961037"/></linearGradient><linearGradient id="e" x1="126.49" y1="198.27" x2="122.78" y2="185.32" gradientUnits="userSpaceOnUse"><stop stop-color="#354EEB"/><stop offset=".03" stop-color="#334BE3"/><stop offset=".71" stop-color="#0F1641"/><stop offset="1"/></linearGradient><linearGradient id="f" x1="135.22" y1="176.14" x2="159.79" y2="176.14" gradientUnits="userSpaceOnUse"><stop stop-color="#AE282F"/><stop offset="1" stop-color="#961037"/></linearGradient><linearGradient id="g" x1="113.42" y1="210.28" x2="116.83" y2="177.36" gradientUnits="userSpaceOnUse"><stop stop-color="#74095C"/><stop offset="1" stop-color="#8B0012"/></linearGradient><linearGradient id="h" x1="45.89" y1="221.88" x2="75.77" y2="184.98" gradientUnits="userSpaceOnUse"><stop stop-color="#4757F7"/><stop offset="1"/></linearGradient><linearGradient id="i" x1="112.25" y1="211.99" x2="122.25" y2="175.71" gradientUnits="userSpaceOnUse"><stop stop-color="#4757F7"/><stop offset="1"/></linearGradient><linearGradient id="j" x1="131.91" y1="103.28" x2="153.33" y2="103.28" gradientUnits="userSpaceOnUse"><stop offset=".01" stop-color="#002E45"/><stop offset=".33" stop-color="#054641"/><stop offset=".53" stop-color="#074F3F"/><stop offset="1" stop-color="#0B8141"/></linearGradient><linearGradient id="k" x1="95.31" y1="38.49" x2="82.45" y2="126.81" gradientUnits="userSpaceOnUse"><stop stop-color="#002134"/><stop offset="1" stop-color="#04382D"/></linearGradient><linearGradient id="l" x1="143.06" y1="73.94" x2="134.8" y2="88.48" gradientUnits="userSpaceOnUse"><stop stop-color="#002134"/><stop offset="1" stop-color="#004F59"/></linearGradient><linearGradient id="n" x1="145.43" y1="61.78" x2="94.42" y2="20.66" gradientUnits="userSpaceOnUse"><stop stop-color="#3D56FD"/><stop offset=".1" stop-color="#374DE3"/><stop offset=".73" stop-color="#101641"/><stop offset="1"/></linearGradient><linearGradient id="o" x1="106.99" y1="109.47" x2="55.98" y2="68.35" gradientUnits="userSpaceOnUse"><stop stop-color="#3D56FD"/><stop offset=".1" stop-color="#374DE3"/><stop offset=".73" stop-color="#101641"/><stop offset="1"/></linearGradient><linearGradient id="p" x1="143.39" y1="64.31" x2="92.38" y2="23.2" gradientUnits="userSpaceOnUse"><stop stop-color="#3D56FD"/><stop offset=".1" stop-color="#374DE3"/><stop offset=".73" stop-color="#101641"/><stop offset="1"/></linearGradient><linearGradient id="q" x1="103.62" y1="113.65" x2="52.61" y2="72.54" gradientUnits="userSpaceOnUse"><stop stop-color="#3D56FD"/><stop offset=".1" stop-color="#374DE3"/><stop offset=".73" stop-color="#101641"/><stop offset="1"/></linearGradient><linearGradient id="r" x1="126.13" y1="68.83" x2="123.47" y2="73.51" gradientUnits="userSpaceOnUse"><stop stop-color="#002134"/><stop offset="1" stop-color="#004F59"/></linearGradient><linearGradient id="s" x1="136.14" y1="87.64" x2="119.21" y2="117.46" gradientUnits="userSpaceOnUse"><stop stop-color="#002134"/><stop offset="1" stop-color="#004F59"/></linearGradient><linearGradient id="t" x1="121.9" y1="130.32" x2="60.99" y2="36.92" gradientUnits="userSpaceOnUse"><stop stop-color="#4757F7"/><stop offset="1"/></linearGradient><linearGradient id="u" x1="163.69" y1="103.07" x2="102.77" y2="9.67" gradientUnits="userSpaceOnUse"><stop stop-color="#3D56FD"/><stop offset=".1" stop-color="#374DE3"/><stop offset=".73" stop-color="#101641"/><stop offset="1"/></linearGradient><linearGradient id="v" x1="123.91" y1="129.01" x2="63" y2="35.61" gradientUnits="userSpaceOnUse"><stop stop-color="#3D56FD"/><stop offset=".1" stop-color="#374DE3"/><stop offset=".73" stop-color="#101641"/><stop offset="1"/></linearGradient><linearGradient id="w" x1="112.18" y1="123.78" x2="109.66" y2="141.29" gradientUnits="userSpaceOnUse"><stop stop-color="#C079B1"/><stop offset="1" stop-color="#90426D"/></linearGradient><linearGradient id="x" x1="112.22" y1="151.85" x2="112.22" y2="38.22" gradientUnits="userSpaceOnUse"><stop stop-color="#3D56FD"/><stop offset=".1" stop-color="#374DE3"/><stop offset=".73" stop-color="#101641"/><stop offset="1"/></linearGradient><linearGradient id="z" x1="47.8" y1="111.16" x2="51.62" y2="111.16" gradientUnits="userSpaceOnUse"><stop stop-color="#8E6160"/><stop offset="1" stop-color="#1F0A0F"/></linearGradient><linearGradient id="A" x1="52.67" y1="110.75" x2="49.8" y2="107.52" gradientUnits="userSpaceOnUse"><stop stop-color="#FDBB01"/><stop offset=".23" stop-color="#FDC001"/><stop offset=".48" stop-color="#FECD01"/><stop offset=".75" stop-color="#FEE301"/><stop offset="1" stop-color="#FFFF01"/></linearGradient><linearGradient id="B" x1="165.38" y1="143.38" x2="164.85" y2="137.32" gradientUnits="userSpaceOnUse"><stop stop-color="#1F0A0F"/><stop offset="1" stop-color="#8E6160"/></linearGradient><linearGradient id="D" x1="154.63" y1="149.81" x2="19.96" y2="149.81" gradientUnits="userSpaceOnUse"><stop offset=".01" stop-color="#002E45"/><stop offset=".33" stop-color="#054641"/><stop offset=".53" stop-color="#074F3F"/><stop offset="1" stop-color="#0B8141"/></linearGradient><linearGradient id="E" x1="171.59" y1="168.5" x2=".38" y2="168.5" gradientUnits="userSpaceOnUse"><stop offset=".01" stop-color="#002E45"/><stop offset=".33" stop-color="#054641"/><stop offset=".53" stop-color="#074F3F"/><stop offset="1" stop-color="#0B8141"/></linearGradient><linearGradient id="F" x1="167.04" y1="167.6" x2="121.24" y2="167.6" gradientUnits="userSpaceOnUse"><stop offset=".01" stop-color="#002E45"/><stop offset=".33" stop-color="#054641"/><stop offset=".53" stop-color="#074F3F"/><stop offset="1" stop-color="#0B8141"/></linearGradient><linearGradient id="G" x1=".38" y1="165.07" x2="74.92" y2="165.07" gradientUnits="userSpaceOnUse"><stop stop-color="#0BBDAE"/><stop offset="1" stop-color="#00B48F"/></linearGradient><linearGradient id="H" x1="48.95" y1="168.28" x2="133.86" y2="168.28" gradientUnits="userSpaceOnUse"><stop stop-color="#0BBDAE"/><stop offset="1" stop-color="#00B48F"/></linearGradient><linearGradient id="I" x1="104.89" y1="170.34" x2="107.64" y2="185.92" gradientUnits="userSpaceOnUse"><stop stop-color="#C079B1"/><stop offset="1" stop-color="#90426D"/></linearGradient><linearGradient id="J" x1="53.74" y1="157.61" x2="125.16" y2="157.61" gradientUnits="userSpaceOnUse"><stop stop-color="#0BBDAE"/><stop offset="1" stop-color="#00B48F"/></linearGradient><linearGradient id="K" x1="108.51" y1="158.73" x2="171.59" y2="158.73" gradientUnits="userSpaceOnUse"><stop stop-color="#0BBDAE"/><stop offset="1" stop-color="#00B48F"/></linearGradient><linearGradient id="L" x1="128.92" y1="152.55" x2="128.92" y2="165.88" gradientUnits="userSpaceOnUse"><stop stop-color="#C079B1"/><stop offset="1" stop-color="#90426D"/></linearGradient><linearGradient id="M" x1="159.91" y1="153.14" x2="136.83" y2="153.14" gradientUnits="userSpaceOnUse"><stop offset=".01" stop-color="#002E45"/><stop offset=".33" stop-color="#054641"/><stop offset=".53" stop-color="#074F3F"/><stop offset="1" stop-color="#0B8141"/></linearGradient><linearGradient id="N" x1="138.6" y1="140.38" x2="138.6" y2="157.35" gradientUnits="userSpaceOnUse"><stop stop-color="#C079B1"/><stop offset="1" stop-color="#90426D"/></linearGradient><linearGradient id="O" x1="41.75" y1="166.96" x2="125.16" y2="166.96" gradientUnits="userSpaceOnUse"><stop stop-color="#C079B1"/><stop offset="1" stop-color="#90426D"/></linearGradient><linearGradient id="P" x1="122.66" y1="157.94" x2="122.66" y2="179.3" gradientUnits="userSpaceOnUse"><stop stop-color="#C079B1"/><stop offset="1" stop-color="#90426D"/></linearGradient><linearGradient id="Q" x1="150.73" y1="157.82" x2="150.73" y2="173.55" gradientUnits="userSpaceOnUse"><stop stop-color="#C079B1"/><stop offset="1" stop-color="#90426D"/></linearGradient><linearGradient id="R" x1="34.96" y1="150.1" x2="96.06" y2="150.1" gradientUnits="userSpaceOnUse"><stop stop-color="#C079B1"/><stop offset="1" stop-color="#90426D"/></linearGradient><linearGradient id="S" x1="97.43" y1="190.47" x2="110.2" y2="163.92" gradientUnits="userSpaceOnUse"><stop stop-color="#C57CBB"/><stop offset="1" stop-color="#954577"/></linearGradient><linearGradient id="T" x1="85.04" y1="178.85" x2="88.54" y2="171.56" gradientUnits="userSpaceOnUse"><stop stop-color="#0A3D48"/><stop offset="1" stop-color="#006B6D"/></linearGradient><linearGradient id="U" x1="28.17" y1="179.41" x2="34.93" y2="165.37" gradientUnits="userSpaceOnUse"><stop stop-color="#C57CBB"/><stop offset="1" stop-color="#954577"/></linearGradient><linearGradient id="V" x1="59.35" y1="185.77" x2="69.8" y2="164.04" gradientUnits="userSpaceOnUse"><stop stop-color="#C57CBB"/><stop offset="1" stop-color="#954577"/></linearGradient><linearGradient id="W" x1="29.67" y1="145.51" x2="31.43" y2="145.51" gradientUnits="userSpaceOnUse"><stop stop-color="#8E6160"/><stop offset="1" stop-color="#1F0A0F"/></linearGradient><linearGradient id="Z" x1="14.14" y1="137.4" x2="13.09" y2="128.57" gradientUnits="userSpaceOnUse"><stop stop-color="#1F0A0F"/><stop offset="1" stop-color="#8E6160"/></linearGradient><linearGradient id="aa" x1="61.589" y1="132.514" x2="68.219" y2="170.621" gradientUnits="userSpaceOnUse"><stop stop-color="#F5CEB3"/><stop offset="1" stop-color="#F7B0B8"/></linearGradient><linearGradient id="ab" x1="55.76" y1="152.975" x2="75.257" y2="149.583" gradientUnits="userSpaceOnUse"><stop stop-color="#F16D73"/><stop offset="1" stop-color="#E3786E"/></linearGradient><linearGradient id="ac" x1="77.322" y1="143.54" x2="83.371" y2="142.487" gradientUnits="userSpaceOnUse"><stop stop-color="#F16D73"/><stop offset="1" stop-color="#E3786E"/></linearGradient><linearGradient id="ad" x1="78.258" y1="156.095" x2="86.356" y2="154.686" gradientUnits="userSpaceOnUse"><stop stop-color="#F16D73"/><stop offset="1" stop-color="#E3786E"/></linearGradient><linearGradient id="ae" x1="55.84" y1="152.68" x2="72.26" y2="152.68" gradientUnits="userSpaceOnUse"><stop stop-color="#023536"/><stop offset="1" stop-color="#00635B"/></linearGradient><linearGradient id="af" x1="77.14" y1="144.16" x2="84.1" y2="144.16" gradientUnits="userSpaceOnUse"><stop stop-color="#023536"/><stop offset="1" stop-color="#00635B"/></linearGradient><radialGradient id="m" cx="0" cy="0" r="1" gradientUnits="userSpaceOnUse" gradientTransform="translate(103.51 119.75) scale(76.85)"><stop stop-color="#55C9BF"/><stop offset=".35" stop-color="#0B8141"/><stop offset=".98" stop-color="#074F3F"/></radialGradient><radialGradient id="y" cx="0" cy="0" r="1" gradientUnits="userSpaceOnUse" gradientTransform="translate(52.54 123.53) scale(13.82)"><stop stop-color="#F7E789"/><stop offset="1" stop-color="#F79A6F"/></radialGradient><radialGradient id="C" cx="0" cy="0" r="1" gradientUnits="userSpaceOnUse" gradientTransform="matrix(7.92 0 0 7.92 165.21 146.33)"><stop stop-color="#F7E789"/><stop offset="1" stop-color="#F79A6F"/></radialGradient><radialGradient id="X" cx="0" cy="0" r="1" gradientUnits="userSpaceOnUse" gradientTransform="matrix(8.62 0 0 8.62 32.29 152.75)"><stop stop-color="#F7E789"/><stop offset="1" stop-color="#F79A6F"/></radialGradient><radialGradient id="Y" cx="0" cy="0" r="1" gradientUnits="userSpaceOnUse" gradientTransform="translate(14.84 148.19) scale(17.34)"><stop stop-color="#F7E789"/><stop offset="1" stop-color="#F79A6F"/></radialGradient><radialGradient id="ag" cx="0" cy="0" r="1" gradientUnits="userSpaceOnUse" gradientTransform="rotate(-9.87 917.435 -277.586) scale(9.3)"><stop stop-color="#0FF"/><stop offset=".12" stop-color="#00D1D1"/><stop offset=".3" stop-color="#009292"/><stop offset=".48" stop-color="#005E5E"/><stop offset=".64" stop-color="#003535"/><stop offset=".78" stop-color="#001818"/><stop offset=".91" stop-color="#000606"/><stop offset="1"/></radialGradient><radialGradient id="ah" cx="0" cy="0" r="1" gradientUnits="userSpaceOnUse" gradientTransform="rotate(-9.87 879.487 -391.452) scale(7.52)"><stop stop-color="#0FF"/><stop offset=".12" stop-color="#00D1D1"/><stop offset=".3" stop-color="#009292"/><stop offset=".48" stop-color="#005E5E"/><stop offset=".64" stop-color="#003535"/><stop offset=".78" stop-color="#001818"/><stop offset=".91" stop-color="#000606"/><stop offset="1"/></radialGradient></defs></svg>