<svg width="23" height="24" viewBox="0 0 23 24" fill="none" xmlns="http://www.w3.org/2000/svg">
<path d="M11.4303 0L3.7876 8.11729L4.84317 16.791L11.4303 19.6877V19.7941L18.0174 16.8974L19.073 8.22366L11.4303 0Z" fill="#C8C8C8"/>
<path d="M12.0522 19.4749V19.4258L5.46506 16.5292L4.40949 7.85544L11.6349 0.18002L11.4303 0L3.7876 8.06819L4.84317 16.7501L11.4303 19.6468V19.7532L12.0522 19.4749Z" fill="white"/>
<path d="M11.4304 0L0.277344 5.90794L3.78774 8.11729L11.4304 0Z" fill="#C8C8C8"/>
<path opacity="0.4" d="M8.44373 1.57927L3.59136 6.7344L1.35747 5.33515L0.277344 5.90794L3.78774 8.11729L11.4304 0L8.44373 1.57927Z" fill="white"/>
<path d="M0.277344 5.90794L0.89105 18.9103L4.84332 16.791L4.65511 15.2526L3.78774 8.11729L0.277344 5.90794Z" fill="#606060"/>
<path d="M22.2314 5.77702L19.0729 8.22366L11.4302 0L22.2314 5.77702Z" fill="#606060"/>
<path d="M4.84192 16.791L11.429 19.6877V24L0.889648 18.9103L4.84192 16.791Z" fill="#BCBCBC"/>
<path d="M11.4302 19.6877L18.0173 16.8974L22.2314 18.9103L11.4302 24V19.6877Z" fill="#606060"/>
<path d="M19.0727 8.22367L18.0171 16.8974L22.2312 18.9103V5.77702L19.0727 8.22367Z" fill="#BCBCBC"/>
<path opacity="0.5" d="M20.8074 9.63109L22.2312 7.51994V5.69519L19.0727 8.14183L18.0171 16.8155L19.0972 17.3311L20.8074 9.63109Z" fill="#1D1D1D"/>
<path opacity="0.5" d="M18.0166 16.8974L19.0722 8.22367L13.8188 6.64439L18.0166 16.8974Z" fill="#1D1D1D"/>
<path opacity="0.4" d="M17.6004 6.64439L18.1978 7.27447L6.72554 17.6175L4.84351 16.791L4.58984 14.688L17.6004 6.64439Z" fill="white"/>
<path opacity="0.5" d="M4.84326 16.791L9.34377 14.3362L18.0175 16.8974L11.4304 19.6877L4.84326 16.791Z" fill="#1D1D1D"/>
<path opacity="0.4" d="M11.4302 19.6877L18.6719 11.5131L18.0173 16.8974L11.4302 19.6877Z" fill="white"/>
<path opacity="0.4" d="M3.99951 9.89295L14.2361 3.01944L14.5143 3.3222L4.30227 12.3396L3.99951 9.89295Z" fill="white"/>
<path opacity="0.5" d="M4.42578 17.0119C4.42578 17.0119 8.97539 19.1804 9.67911 20.1868C10.3828 21.1933 11.422 24 11.422 24V19.6877L4.83492 16.701L4.42578 17.0119Z" fill="#1D1D1D"/>
<path opacity="0.5" d="M0.277344 6.82441C0.277344 6.82441 1.8157 7.02079 2.56033 8.93556C3.30496 10.8503 4.43418 17.0119 4.43418 17.0119L4.88423 16.791L3.78774 8.11728L0.277344 5.91612V6.82441Z" fill="#1D1D1D"/>
<path d="M0.889648 18.9103L4.88283 16.791L4.84192 16.4555L0.889648 18.9103Z" fill="white"/>
<path d="M19.0729 8.14184L22.2314 5.77702L18.6064 7.72452L19.0729 8.14184Z" fill="white"/>
<path opacity="0.1" d="M7.97752 16.7992C7.70749 18.9922 5.70272 20.5551 3.50974 20.2769C1.31677 20.0068 -0.24614 18.002 0.0320737 15.8091C0.302104 13.6161 2.30688 12.0532 4.49985 12.3314C6.69283 12.6014 8.24755 14.6062 7.97752 16.7992Z" fill="white"/>
<path opacity="0.2" d="M7.29043 16.5537C7.08587 18.1739 5.61297 19.3277 3.99279 19.1231C2.3726 18.9185 1.21884 17.4456 1.4234 15.8254C1.62797 14.2053 3.10087 13.0515 4.72105 13.2561C6.34124 13.4606 7.48682 14.9335 7.29043 16.5537Z" fill="white"/>
<path opacity="0.7" d="M4.60602 14.1807C4.36872 15.0563 4.35235 16.1937 2.74854 16.1282C3.1904 16.4064 3.69773 16.6601 3.96777 17.1429C4.21325 17.5684 4.36872 18.2639 4.35235 18.7467C4.50783 18.2393 4.44236 17.7402 4.83514 17.2492C5.12153 16.881 5.5634 16.6601 6.02163 16.6601C5.54703 16.3164 5.09698 16.3082 4.86787 15.6618C4.77786 15.4163 4.70421 15.1545 4.65512 14.909C4.6142 14.6471 4.68785 14.2625 4.54874 14.0661L4.60602 14.1807Z" fill="white"/>
<path d="M4.9661 16.3164C4.84336 15.94 4.71243 15.9809 4.59787 16.1446C4.02508 15.8745 4.10691 17.7238 4.77789 17.2574C4.99883 17.0938 5.03974 16.5455 4.9661 16.3164Z" fill="white"/>
<path opacity="0.1" d="M21.5999 8.23185C21.3953 9.8684 19.9061 11.0304 18.2613 10.8258C16.6248 10.6212 15.4628 9.13195 15.6674 7.48722C15.872 5.85067 17.3612 4.68872 19.006 4.89329C20.6343 5.09786 21.8045 6.5953 21.5999 8.23185Z" fill="white"/>
<path opacity="0.2" d="M21.0839 8.05183C20.9366 9.26288 19.832 10.1221 18.6209 9.96659C17.4099 9.8193 16.5507 8.71463 16.7062 7.50359C16.8535 6.29254 17.9581 5.43335 19.1692 5.58882C20.372 5.7443 21.2312 6.84079 21.0839 8.05183Z" fill="white"/>
<path opacity="0.7" d="M19.0797 6.27618C18.8996 6.9308 18.8915 7.78181 17.6968 7.73271C18.0241 7.93728 18.4005 8.13366 18.6051 8.4937C18.7851 8.81283 18.8996 9.32834 18.8915 9.68839C19.006 9.31198 18.9651 8.93557 19.2515 8.57553C19.4643 8.3055 19.7916 8.13366 20.1352 8.13366C19.7834 7.88 19.4479 7.87181 19.276 7.38903C19.2106 7.20083 19.1533 7.01263 19.1206 6.82442C19.0878 6.62804 19.1451 6.34164 19.0387 6.19435L19.0797 6.27618Z" fill="white"/>
<path d="M19.3502 7.8718C19.2602 7.59359 19.162 7.62632 19.072 7.74088C18.6465 7.53631 18.7038 8.9192 19.2029 8.56734C19.3747 8.45278 19.4075 8.04364 19.3502 7.8718Z" fill="white"/>
<path opacity="0.5" d="M11.3887 20.7678L15.6437 19.4258C19.7187 18.3048 21.4207 19.2867 21.4207 19.2867L22.2308 18.9021L18.0167 16.8892L11.4296 19.6877L11.3887 20.7678Z" fill="#1D1D1D"/>
<path d="M11.4302 19.6877V24L12.0439 19.4258L11.4302 19.6877Z" fill="white"/>
</svg>
