<svg fill="#ffffff" height="569pt" viewBox="-26 -18 569 569.33369" width="569pt" xmlns="http://www.w3.org/2000/svg"><path d="m58.199219 533.75h399.078125c32.355468-.039062 58.578125-26.257812 58.613281-58.613281v-270.804688c0-3.179687-1.730469-6.113281-4.519531-7.644531l-215.820313-182.746094c-21.84375-18.597656-53.960937-18.589844-75.789062.03125l-215.132813 182.457032c-3.074218 1.433593-5.039062 4.511718-5.042968 7.902343v270.804688c.039062 32.355469 26.257812 58.574219 58.613281 58.613281zm0-17.460938c-9.007813.007813-17.765625-2.957031-24.917969-8.429687l119.347656-122.074219c2.214844-2.222656 3.066406-5.464844 2.226563-8.488281-.835938-3.019531-3.234375-5.363281-6.273438-6.132813-3.039062-.765624-6.261719.15625-8.433593 2.414063l-118.234376 120.9375c-3.203124-5.957031-4.875-12.617187-4.867187-19.378906v-251.558594l202.882813 171.792969c21.84375 18.597656 53.964843 18.582031 75.792968-.03125l202.710938-171.925782v251.722657c.007812 6.785156-1.671875 13.46875-4.894532 19.445312l-118.941406-121.019531c-3.386718-3.410156-8.890625-3.441406-12.316406-.074219-3.429688 3.363281-3.488281 8.871094-.136719 12.3125l120 122.101563c-7.140625 5.445312-15.878906 8.398437-24.867187 8.386718zm172.851562-489.003906c15.328125-13.070312 37.878907-13.078125 53.214844-.019531l209.390625 177.300781-209.226562 177.453125c-15.332032 13.070313-37.875 13.082031-53.210938.027344l-209.394531-177.304687zm0 0"/></svg>