<?xml version="1.0" encoding="UTF-8"?>
<svg xmlns="http://www.w3.org/2000/svg" width="56" height="56" viewBox="0 0 56 56" fill="none">
  <path fill-rule="evenodd" clip-rule="evenodd" d="M0 28C0 12.536 12.536 0 28 0C43.464 0 56 12.536 56 28C56 43.464 43.464 56 28 56C12.536 56 0 43.464 0 28ZM28 14C35.7 14 42 20.3 42 28C42 35 36.925 40.95 29.925 42V32.025H33.25L33.95 28H30.1V25.375C30.1 24.325 30.625 23.275 32.375 23.275H34.125V19.775C34.125 19.775 32.55 19.425 30.975 19.425C27.825 19.425 25.725 21.35 25.725 24.85V28H22.225V32.025H25.725V41.825C19.075 40.775 14 35 14 28C14 20.3 20.3 14 28 14Z" fill="#2C3843" fill-opacity="0.9"></path>
</svg>
