<?xml version="1.0" encoding="UTF-8"?>
<svg xmlns="http://www.w3.org/2000/svg" width="32" height="32" viewBox="0 0 32 32" fill="none">
  <path d="M16 6.5665C10.7981 6.5665 6.56669 10.7979 6.56669 15.9998C6.56669 21.2017 10.7981 25.4332 16 25.4332C21.2019 25.4332 25.4334 21.2017 25.4334 15.9998C25.4334 10.7979 21.2019 6.5665 16 6.5665ZM16 23.8998C11.6439 23.8998 8.10002 20.3559 8.10002 15.9998C8.10002 11.6437 11.6439 8.09984 16 8.09984C20.3561 8.09984 23.9 11.6437 23.9 15.9998C23.9 20.3559 20.3561 23.8998 16 23.8998Z" fill="#1B6CAE" stroke="#1B6CAE" stroke-width="0.2"></path>
  <path d="M14.1247 19.2087L14.1248 19.2089C14.2748 19.3581 14.4711 19.4333 14.6667 19.4333C14.8621 19.4333 15.0592 19.3582 15.2087 19.2087L20.5421 13.8754C20.8418 13.5757 20.8418 13.091 20.5421 12.7913C20.2423 12.4916 19.7577 12.4916 19.458 12.7913L14.6667 17.5826L12.5414 15.458C12.5414 15.458 12.5414 15.458 12.5414 15.4579C12.2417 15.1582 11.757 15.1582 11.4573 15.458C11.1576 15.7576 11.1575 16.243 11.4574 16.5421L14.1247 19.2087Z" fill="#1B6CAE" stroke="#1B6CAE" stroke-width="0.2"></path>
  <path d="M29.1533 12.9897L29.1533 12.9897C29.0006 13.2326 29.0714 13.577 29.3062 13.7508C29.3062 13.7508 29.3062 13.7508 29.3062 13.7508L29.1533 12.9897ZM29.1533 12.9897C29.4806 12.4692 29.8972 11.6406 29.8038 10.8308C29.7565 10.4214 29.5792 10.0199 29.2018 9.67064C28.8262 9.32308 28.2572 9.03142 27.4325 8.82938C27.1457 8.75913 26.9412 8.46279 26.9992 8.18924C27.1584 7.44433 27.1305 6.51605 26.6708 5.83537C26.2035 5.14348 25.312 4.73756 23.8147 5.00068C23.5299 5.05047 23.227 4.8514 23.1721 4.57253C23.0603 4.00448 22.7613 3.12709 22.113 2.61314C21.7857 2.35368 21.3712 2.18854 20.8547 2.20231C20.3404 2.21602 19.7318 2.40687 19.0126 2.84581C18.8925 2.91901 18.73 2.93861 18.5792 2.90807C18.4266 2.87718 18.3082 2.80008 18.2584 2.7058L18.2584 2.70573M29.1533 12.9897L18.2584 2.70573M18.2584 2.70573C18.0298 2.27378 17.4191 1.56243 16.6025 1.31239C16.1905 1.18622 15.7267 1.17794 15.2384 1.38185C14.7518 1.58509 14.2484 1.99588 13.7487 2.69432L13.7487 2.69436M18.2584 2.70573L13.7487 2.69436M13.7487 2.69436C13.6677 2.80764 13.5294 2.88405 13.3798 2.91166C13.229 2.93949 13.0849 2.91459 12.9936 2.84919C12.3339 2.37675 11.4597 2.07241 10.6595 2.25989C9.8488 2.44985 9.14862 3.13564 8.82776 4.56865C8.76611 4.84279 8.47089 5.05292 8.18526 4.99891C7.61213 4.88998 6.68144 4.84944 5.95749 5.25932C5.59218 5.46615 5.28121 5.78694 5.0983 6.2654C4.91611 6.74202 4.8636 7.36807 5.00073 8.1831L5.00073 8.1831M13.7487 2.69436L5.00073 8.1831M5.00073 8.1831C5.04981 8.47465 4.85032 8.78531 4.57789 8.82627C3.9083 8.92639 3.04106 9.24677 2.55718 9.91122C2.06402 10.5884 1.99227 11.5878 2.84599 12.9866L2.84601 12.9866M5.00073 8.1831L2.84601 12.9866M2.84601 12.9866C2.92161 13.1104 2.94964 13.2708 2.92477 13.4165C2.89999 13.5618 2.82537 13.6807 2.70824 13.7399C2.10186 14.0464 1.4529 14.7416 1.27868 15.5811C1.19102 16.0035 1.22393 16.4617 1.44251 16.9212C1.66068 17.3798 2.0609 17.8338 2.69825 18.2546C2.93366 18.4101 2.9987 18.7531 2.84601 19.003L2.84599 19.0031M2.84601 12.9866L2.84599 19.0031M2.84599 19.0031C1.99228 20.4019 2.06402 21.4011 2.55718 22.0782C3.04106 22.7426 3.90829 23.0629 4.57784 23.1634C4.85087 23.2043 5.04983 23.5149 5.00073 23.8066L5.09935 23.8232M2.84599 19.0031L5.09935 23.8232M5.09935 23.8232L5.00073 23.8066C4.8636 24.6216 4.91611 25.2477 5.09833 25.7243C5.28125 26.2027 5.59228 26.5235 5.95768 26.7303C6.68184 27.1401 7.61293 27.0994 8.18672 26.9901L8.18678 26.9901M5.09935 23.8232L8.18678 26.9901M8.18678 26.9901C8.47214 26.9355 8.76745 27.1461 8.82911 27.4204M8.18678 26.9901L8.82911 27.4204M8.82911 27.4204C9.14998 28.8537 9.85014 29.5395 10.6609 29.7294C11.461 29.9168 12.3352 29.6123 12.9949 29.1398C13.0862 29.0744 13.2303 29.0495 13.3811 29.0773C13.5308 29.105 13.669 29.1814 13.75 29.2946L13.75 29.2947C14.2497 29.9933 14.7531 30.4042 15.2398 30.6075C15.7281 30.8115 16.1919 30.8033 16.6039 30.6771C17.4205 30.4271 18.0311 29.7155 18.2597 29.2833M8.82911 27.4204L23.8333 26.8898L23.8161 26.9883C23.8161 26.9883 23.8161 26.9883 23.816 26.9883C23.5312 26.9385 23.2284 27.1376 23.1735 27.4165C23.0617 27.9845 22.7626 28.8619 22.1143 29.3759C21.787 29.6353 21.3726 29.8005 20.8561 29.7867C20.3417 29.773 19.7332 29.5821 19.0139 29.1432M18.2597 29.2833C18.2597 29.2833 18.2597 29.2833 18.2597 29.2833L18.1713 29.2365L18.2597 29.2833ZM18.2597 29.2833C18.3096 29.1893 18.428 29.1121 18.5806 29.0812C18.7314 29.0506 18.8939 29.07 19.0139 29.1432M19.0139 29.1432L19.066 29.0578L19.014 29.1432C19.0139 29.1432 19.0139 29.1432 19.0139 29.1432ZM27.834 21.4149L27.8341 21.4149C28.2898 21.2647 28.4015 20.8352 28.2098 20.5267C27.4563 19.3164 27.447 18.4331 27.7576 17.7726C28.0568 17.1364 28.6441 16.7304 29.0557 16.4459L29.0787 16.43C29.2252 16.3145 29.2706 16.1453 29.2468 15.9694C29.2225 15.7896 29.1266 15.6162 29.0103 15.5164C29.0102 15.5164 29.0102 15.5164 29.0102 15.5164L27.834 21.4149ZM27.834 21.4149C27.7571 21.4403 27.6733 21.4656 27.5845 21.4924C27.1456 21.6251 26.5874 21.7939 26.1582 22.1819C25.6299 22.6596 25.308 23.4523 25.5441 24.8544L25.5441 24.8545M27.834 21.4149L25.5441 24.8545M25.5441 24.8545C25.5852 25.0979 25.5375 25.2708 25.433 25.3785C25.3273 25.4874 25.1416 25.5526 24.857 25.5308C24.7973 25.5262 24.7326 25.5202 24.6636 25.5138C24.2176 25.4724 23.5937 25.4145 23.0077 25.623C22.3166 25.8688 21.6943 26.4757 21.4246 27.8343C21.3789 28.0638 21.2477 28.1946 21.0883 28.2505C20.9244 28.308 20.7198 28.2895 20.5317 28.1946C19.6391 27.7439 18.983 27.4712 18.3667 27.5594C17.7448 27.6485 17.1911 28.0992 16.4833 29.0028C16.2565 29.2923 15.7683 29.2873 15.5152 28.9986L15.5152 28.9986M25.5441 24.8545L15.5152 28.9986M15.5152 28.9986C15.462 28.938 15.4078 28.8743 15.3521 28.8088C15.0195 28.4182 14.6328 27.9641 14.0984 27.7285C13.4605 27.4473 12.6334 27.4816 11.4624 28.1992L11.5147 28.2845L11.4624 28.1992C11.2876 28.3064 11.1065 28.3162 10.951 28.2517C10.7942 28.1867 10.6533 28.0416 10.5726 27.8209C10.5286 27.7001 10.4864 27.5749 10.4441 27.4492C10.3792 27.2566 10.314 27.063 10.2412 26.8826C10.1188 26.5791 9.96738 26.2909 9.73804 26.0545C9.27288 25.575 8.51677 25.3372 7.13725 25.5335L7.15135 25.6325M15.5152 28.9986L7.15135 25.6325M7.15135 25.6325L7.13725 25.5335C6.95209 25.5599 6.76506 25.5096 6.63439 25.396C6.50674 25.2849 6.42422 25.106 6.45781 24.853L6.45782 24.8529M7.15135 25.6325L6.45782 24.8529M4.15405 21.4137C3.99483 21.3822 3.84456 21.257 3.76395 21.0862C3.68458 20.9179 3.67709 20.7143 3.79073 20.5279C4.30032 19.6944 4.53411 18.9953 4.4102 18.3373C4.28627 17.6793 3.80983 17.0903 2.96981 16.4637L2.96974 16.4636C2.93711 16.4393 2.89098 16.3876 2.84809 16.3132C2.80596 16.2401 2.77062 16.1515 2.75467 16.058C2.72355 15.8756 2.76485 15.6752 2.98286 15.5192C3.80328 14.9322 4.27564 14.3452 4.40128 13.679C4.52677 13.0137 4.30119 12.2963 3.79067 11.461L3.70535 11.5132L3.79067 11.461C3.67678 11.2747 3.68425 11.0709 3.7637 10.9026C3.84439 10.7316 3.99481 10.6065 4.15394 10.5753L4.15405 10.5753C5.44493 10.3204 6.06964 9.74235 6.34258 9.0703C6.61118 8.40894 6.52923 7.67683 6.45782 7.13608L6.45781 7.13601C6.42422 6.88307 6.50687 6.70412 6.63462 6.59306C6.76541 6.47936 6.95245 6.42915 7.13723 6.4555L7.13728 6.45551C8.51678 6.65152 9.27288 6.41369 9.73803 5.93431C9.96738 5.69794 10.1188 5.40973 10.2412 5.10635C10.314 4.92591 10.3792 4.73225 10.4441 4.53961C10.4864 4.41402 10.5286 4.28887 10.5726 4.16808L10.5727 4.168C10.653 3.94706 10.7938 3.80202 10.9507 3.73706C11.1063 3.67264 11.2875 3.68257 11.4624 3.78976L11.4624 3.78977C12.6338 4.50738 13.461 4.54175 14.0989 4.26051C14.6335 4.02483 15.0202 3.5704 15.3527 3.17965C15.4082 3.11436 15.4622 3.05085 15.5152 2.99043C15.7682 2.70184 16.2558 2.69663 16.4833 2.98617C17.1911 3.88979 17.7448 4.34054 18.3667 4.42958C18.983 4.51781 19.6391 4.2451 20.5317 3.79444C20.7198 3.69949 20.9244 3.68104 21.0883 3.73854C21.2477 3.79443 21.3789 3.92517 21.4246 4.15469C21.6943 5.5133 22.3166 6.12021 23.0077 6.36605C23.5937 6.57448 24.2176 6.51658 24.6636 6.47518C24.7326 6.46878 24.7973 6.46278 24.857 6.45821C25.1419 6.43644 25.3277 6.50161 25.4332 6.61046C25.5377 6.71814 25.5852 6.89105 25.5441 7.13451L25.5441 7.13457C25.308 8.537 25.6299 9.32975 26.1582 9.80735C26.5872 10.1952 27.1453 10.3639 27.5842 10.4965C27.673 10.5233 27.757 10.5487 27.834 10.5741L27.8341 10.5741C28.2899 10.7243 28.4014 11.1545 28.2098 11.4623L28.2947 11.5152L4.15405 21.4137ZM4.15405 21.4137C5.44493 21.6686 6.06964 22.2467 6.34258 22.9187M4.15405 21.4137L6.34258 22.9187M6.45782 24.8529C6.52923 24.3122 6.61118 23.5801 6.34258 22.9187M6.45782 24.8529L6.34258 22.9187M12.9367 29.0585C13.176 28.8872 13.6327 28.9585 13.8313 29.2365L12.9367 29.0585Z" fill="#1B6CAE" stroke="#1B6CAE" stroke-width="0.2"></path>
</svg>
