<?xml version="1.0" encoding="UTF-8"?>
<svg xmlns="http://www.w3.org/2000/svg" width="32" height="32" viewBox="0 0 32 32" fill="none">
  <path d="M10.24 2.55992C10.24 2.20646 9.95349 1.91992 9.60002 1.91992C9.24655 1.91992 8.96002 2.20646 8.96002 2.55992V4.47992C8.96002 4.83339 9.24655 5.11992 9.60002 5.11992C9.95349 5.11992 10.24 4.83339 10.24 4.47992V2.55992Z" fill="#1B6CAE"></path>
  <path d="M6.21262 4.02731C5.96266 3.77736 5.55745 3.77736 5.3075 4.02731C5.05758 4.27723 5.05758 4.68248 5.3075 4.9324L6.58743 6.21233C6.83735 6.46225 7.2426 6.46225 7.49252 6.21233C7.74247 5.96238 7.74247 5.55716 7.49252 5.30721L6.21262 4.02731Z" fill="#1B6CAE"></path>
  <path fill-rule="evenodd" clip-rule="evenodd" d="M16.073 7.34216L15.3766 6.64584C14.5643 5.83355 13.2474 5.83355 12.4351 6.64584C12.0399 7.04101 11.837 7.55566 11.8263 8.07355C11.3084 8.08421 10.7939 8.28715 10.3987 8.68232C10.0035 9.07752 9.80054 9.59214 9.78988 10.11C9.27203 10.1207 8.75737 10.3236 8.36217 10.7188C7.967 11.114 7.76406 11.6286 7.7534 12.1465C7.23555 12.1572 6.72089 12.3601 6.32569 12.7553C5.5134 13.5676 5.5134 14.8846 6.32569 15.6968L7.45708 16.8282C7.66505 17.0362 7.90611 17.1909 8.16332 17.2924L7.0088 18.4469C6.01667 17.5407 4.45619 17.549 3.475 18.5302L2.69793 19.3073C1.69818 20.307 1.69818 21.9279 2.69793 22.9277L9.08899 29.3187C10.0887 30.3185 11.7096 30.3185 12.7094 29.3187L12.8351 29.193C13.6361 28.392 13.8022 27.1804 13.3004 26.2091L15.2647 24.2449C15.6018 24.3488 15.9615 24.3811 16.3205 24.3339C16.6917 24.2851 17.0646 24.4117 17.3293 24.6765L18.85 26.1971C18.3189 27.1759 18.4777 28.4131 19.2912 29.2266L19.4182 29.3537C20.418 30.3535 22.0389 30.3535 23.0386 29.3537L29.3498 23.0425C30.3495 22.0428 30.3495 20.4219 29.3498 19.4221L28.5744 18.6467C27.633 17.7053 26.1585 17.6595 25.1642 18.4575L24.1285 17.4217L24.4718 17.0784C25.2852 16.2649 25.2852 14.9461 24.4718 14.1327C24.2482 13.9091 23.9864 13.747 23.7074 13.6463C24.1445 12.8546 24.0273 11.8388 23.3559 11.1673C23.1544 10.9658 22.922 10.8143 22.6739 10.7126C23.4454 9.89637 23.4315 8.60904 22.6322 7.80974C21.8848 7.06229 20.7106 7.00165 19.8939 7.62785C19.7922 7.37326 19.6384 7.1347 19.4323 6.92856C18.6188 6.11515 17.3 6.11515 16.4866 6.92859L16.073 7.34216ZM13.3402 7.55093C13.6526 7.23851 14.1591 7.23851 14.4715 7.55093L15.6029 8.68229C15.9153 8.9947 15.9153 9.50126 15.6029 9.81368C15.2919 10.1247 14.7886 10.1261 14.4758 9.81793L14.4716 9.81368L13.3402 8.68232L13.3359 8.678C13.0278 8.36526 13.0292 7.86193 13.3402 7.55093ZM16.508 10.7188C16.1128 11.1139 15.5982 11.3168 15.0804 11.3275C15.0697 11.8454 14.8668 12.36 14.4716 12.7552C14.0764 13.1504 13.5618 13.3534 13.0439 13.364C13.0332 13.8819 12.8303 14.3965 12.4351 14.7917C12.0399 15.1869 11.5253 15.3898 11.0074 15.4005C10.9968 15.9184 10.7938 16.433 10.3986 16.8282C10.2557 16.9711 10.0971 17.0889 9.92844 17.1816C9.79024 17.4224 9.6199 17.646 9.42022 17.8457L8.00703 19.2589L12.6804 25.019L14.637 23.0624C15.223 22.4764 16.0152 22.143 16.8439 22.1337C17.3382 22.1281 17.8106 21.9293 18.1602 21.5798L23.5667 16.1733C23.8802 15.8597 23.8802 15.3513 23.5667 15.0378C23.2531 14.7242 22.7448 14.7242 22.4312 15.0378L20.7725 16.6965C20.5226 16.9464 20.1173 16.9464 19.8674 16.6965C19.6175 16.4465 19.6175 16.0413 19.8674 15.7914L20.4606 15.1982L20.4681 15.1905L22.4508 13.2079C22.7643 12.8943 22.7643 12.3859 22.4508 12.0724C22.1382 11.7598 21.6319 11.7588 21.3182 12.0695L21.3153 12.0724L19.3327 14.055L19.3302 14.0575L18.6949 14.6927C18.445 14.9426 18.0398 14.9426 17.7899 14.6927C17.5399 14.4428 17.5399 14.0375 17.7899 13.7876L20.4102 11.1673L20.4147 11.1627L21.7272 9.85032C22.0407 9.53678 22.0407 9.0284 21.7272 8.71483C21.4136 8.40126 20.9052 8.40126 20.5916 8.71483L19.4374 9.8691L19.4323 9.87425L17.3297 11.9768L17.3269 11.9796L16.6938 12.6127C16.4438 12.8627 16.0386 12.8627 15.7887 12.6127C15.5387 12.3628 15.5387 11.9576 15.7887 11.7076L18.5271 8.96917L18.5303 8.966C18.8407 8.6522 18.8396 8.14619 18.5271 7.83368C18.2136 7.52011 17.7052 7.52011 17.3916 7.83368L16.9013 8.32398C17.287 9.10184 17.1559 10.0709 16.508 10.7188ZM23.2234 18.3268L19.0652 22.4849C18.6593 22.8908 18.1545 23.1755 17.6072 23.3153C17.8362 23.4322 18.0483 23.5852 18.2344 23.7714L19.6307 25.1677L24.3115 19.415L23.2234 18.3268ZM12.4351 9.5874L12.4308 9.58312C12.1181 9.27499 11.6147 9.27643 11.3038 9.5874C10.9914 9.89982 10.9914 10.4063 11.3038 10.7188L12.4351 11.8502C12.7475 12.1626 13.2541 12.1626 13.5665 11.8502C13.8775 11.5391 13.8789 11.0358 13.5707 10.723L13.5665 10.7188L12.4351 9.5874ZM9.26729 11.6239C9.57971 11.3115 10.0862 11.3115 10.3987 11.6239L11.53 12.7553C11.8424 13.0677 11.8424 13.5742 11.53 13.8866C11.2176 14.1991 10.7111 14.1991 10.3987 13.8866L9.26729 12.7553C8.95484 12.4428 8.95484 11.9363 9.26729 11.6239ZM8.36217 13.6604C8.04976 13.3479 7.54323 13.3479 7.23078 13.6604C6.91836 13.9728 6.91836 14.4793 7.23078 14.7918L8.36217 15.9231C8.67459 16.2355 9.18111 16.2355 9.49353 15.9231C9.80595 15.6107 9.80595 15.1042 9.49353 14.7918L8.36217 13.6604ZM28.4447 20.3272L27.6692 19.5518C27.1328 19.0153 26.2501 19.0606 25.7713 19.649L20.1085 26.6086C19.6943 27.1176 19.7322 27.8575 20.1963 28.3215L20.3233 28.4486C20.8232 28.9485 21.6337 28.9485 22.1335 28.4486L28.4447 22.1374C28.9446 21.6375 28.9446 20.8271 28.4447 20.3272ZM4.38012 19.4353L3.60304 20.2124C3.10315 20.7123 3.10315 21.5227 3.60304 22.0226L9.99407 28.4136C10.4939 28.9135 11.3044 28.9135 11.8043 28.4136L11.93 28.2879C12.3944 27.8235 12.432 27.0831 12.0171 26.5741L6.2774 19.5317C5.79836 18.944 4.91628 18.8991 4.38012 19.4353Z" fill="#1B6CAE"></path>
  <path d="M3.83997 8.31969C3.83997 7.96622 4.12649 7.67969 4.47997 7.67969H6.39997C6.75344 7.67969 7.03997 7.96622 7.03997 8.31969C7.03997 8.67316 6.75344 8.95969 6.39997 8.95969H4.47997C4.12649 8.95969 3.83997 8.67316 3.83997 8.31969Z" fill="#1B6CAE"></path>
  <path d="M26.6925 4.02731C26.4425 3.77736 26.0373 3.77736 25.7874 4.02731L24.5075 5.30721C24.2575 5.55716 24.2575 5.96238 24.5075 6.21233C24.7574 6.46225 25.1626 6.46225 25.4126 6.21233L26.6925 4.9324C26.9424 4.68248 26.9424 4.27723 26.6925 4.02731Z" fill="#1B6CAE"></path>
  <path d="M27.52 7.67969C27.8735 7.67969 28.16 7.96622 28.16 8.31969C28.16 8.67316 27.8735 8.95969 27.52 8.95969H25.6C25.2465 8.95969 24.96 8.67316 24.96 8.31969C24.96 7.96622 25.2465 7.67969 25.6 7.67969H27.52Z" fill="#1B6CAE"></path>
  <path d="M22.4 1.91992C22.0465 1.91992 21.76 2.20646 21.76 2.55992V4.47992C21.76 4.83339 22.0465 5.11992 22.4 5.11992C22.7535 5.11992 23.04 4.83339 23.04 4.47992V2.55992C23.04 2.20646 22.7535 1.91992 22.4 1.91992Z" fill="#1B6CAE"></path>
</svg>
