<?xml version="1.0" encoding="UTF-8"?>
<svg xmlns="http://www.w3.org/2000/svg" width="56" height="56" viewBox="0 0 56 56" fill="none">
  <path d="M28 32.9C25.375 32.9 23.1 30.8 23.1 28C23.1 25.375 25.2 23.1 28 23.1C30.625 23.1 32.9 25.2 32.9 28C32.9 30.625 30.625 32.9 28 32.9Z" fill="#2C3843" fill-opacity="0.9"></path>
  <path fill-rule="evenodd" clip-rule="evenodd" d="M33.95 16.1H22.05C20.65 16.275 19.95 16.45 19.425 16.625C18.725 16.8 18.2 17.15 17.675 17.675C17.2596 18.0904 17.0633 18.5058 16.8261 19.008C16.7635 19.1403 16.698 19.279 16.625 19.425C16.5979 19.5062 16.5667 19.5916 16.5332 19.6832C16.3501 20.1833 16.1 20.8666 16.1 22.05V33.95C16.275 35.35 16.45 36.05 16.625 36.575C16.8 37.275 17.15 37.8 17.675 38.325C18.0904 38.7404 18.5059 38.9367 19.008 39.1739C19.1404 39.2365 19.2789 39.3019 19.425 39.375C19.5062 39.4021 19.5916 39.4333 19.6832 39.4668C20.1833 39.6499 20.8666 39.9 22.05 39.9H33.95C35.35 39.725 36.05 39.55 36.575 39.375C37.275 39.2 37.8 38.85 38.325 38.325C38.7404 37.9096 38.9367 37.4941 39.1739 36.992C39.2365 36.8596 39.302 36.7211 39.375 36.575C39.4021 36.4938 39.4333 36.4084 39.4668 36.3168C39.6499 35.8167 39.9 35.1334 39.9 33.95V22.05C39.725 20.65 39.55 19.95 39.375 19.425C39.2 18.725 38.85 18.2 38.325 17.675C37.9096 17.2596 37.4941 17.0633 36.992 16.826C36.8598 16.7636 36.7208 16.6979 36.575 16.625C36.4938 16.5979 36.4084 16.5667 36.3168 16.5332C35.8167 16.3501 35.1334 16.1 33.95 16.1ZM28 20.475C23.8 20.475 20.475 23.8 20.475 28C20.475 32.2 23.8 35.525 28 35.525C32.2 35.525 35.525 32.2 35.525 28C35.525 23.8 32.2 20.475 28 20.475ZM37.45 20.3C37.45 21.2665 36.6665 22.05 35.7 22.05C34.7335 22.05 33.95 21.2665 33.95 20.3C33.95 19.3335 34.7335 18.55 35.7 18.55C36.6665 18.55 37.45 19.3335 37.45 20.3Z" fill="#2C3843" fill-opacity="0.9"></path>
  <path fill-rule="evenodd" clip-rule="evenodd" d="M0 28C0 12.536 12.536 0 28 0C43.464 0 56 12.536 56 28C56 43.464 43.464 56 28 56C12.536 56 0 43.464 0 28ZM22.05 13.475H33.95C35.525 13.65 36.575 13.825 37.45 14.175C38.5 14.7 39.2 15.05 40.075 15.925C40.95 16.8 41.475 17.675 41.825 18.55C42.175 19.425 42.525 20.475 42.525 22.05V33.95C42.35 35.525 42.175 36.575 41.825 37.45C41.3 38.5 40.95 39.2 40.075 40.075C39.2 40.95 38.325 41.475 37.45 41.825C36.575 42.175 35.525 42.525 33.95 42.525H22.05C20.475 42.35 19.425 42.175 18.55 41.825C17.5 41.3 16.8 40.95 15.925 40.075C15.05 39.2 14.525 38.325 14.175 37.45C13.825 36.575 13.475 35.525 13.475 33.95V22.05C13.65 20.475 13.825 19.425 14.175 18.55C14.7 17.5 15.05 16.8 15.925 15.925C16.8 15.05 17.675 14.525 18.55 14.175C19.425 13.825 20.475 13.475 22.05 13.475Z" fill="#2C3843" fill-opacity="0.9"></path>
</svg>
