<svg width="319" height="94" viewBox="0 0 319 94" fill="none" xmlns="http://www.w3.org/2000/svg">
<path d="M306.789 92.8134H11.9996C6.02556 92.8134 1.18451 87.9638 1.18451 81.9792V12.0209C1.18451 6.03626 6.02556 1.18665 11.9996 1.18665H306.789C312.763 1.18665 317.604 6.03626 317.604 12.0209V81.9792C317.604 87.9638 312.763 92.8134 306.789 92.8134Z" fill="black"/>
<path d="M11.9939 2.37322C6.68362 2.37322 2.3633 6.70118 2.3633 12.0209V81.9791C2.3633 87.2988 6.68362 91.6268 11.9939 91.6268H306.789C312.099 91.6268 316.419 87.2988 316.419 81.9791V12.0209C316.419 6.70118 312.099 2.37322 306.789 2.37322H11.9939ZM306.789 94H11.9939C5.37894 94 0 88.6058 0 81.9791V12.0209C0 5.39419 5.37894 0 11.9939 0H306.789C313.404 0 318.783 5.39419 318.783 12.0209V81.9791C318.783 88.6058 313.404 94 306.789 94Z" fill="#A7A9AB"/>
<path d="M110.543 24.6034L109.33 20.7971C109.032 19.857 108.781 18.808 108.552 17.9137H108.506C108.283 18.808 108.048 19.8799 107.779 20.7971L106.589 24.6034H110.543ZM106.131 26.7302L104.804 31.1097H101.897L106.841 15.6666H110.429L115.436 31.1097H112.42L111.024 26.7302" fill="white"/>
<path d="M119.641 19.9545L121.45 25.6066C121.77 26.5926 121.993 27.4869 122.199 28.404H122.268C122.474 27.4869 122.726 26.6155 123.023 25.6066L124.809 19.9545H127.756L123.504 31.1097H120.74L116.597 19.9545" fill="white"/>
<path d="M136.242 25.6525C134.25 25.6296 132.351 26.0423 132.351 27.7391C132.351 28.8397 133.06 29.3442 133.953 29.3442C135.092 29.3442 135.898 28.6104 136.167 27.8079C136.242 27.6015 136.242 27.3952 136.242 27.1888V25.6525ZM138.983 28.427C138.983 29.4359 139.029 30.4219 139.166 31.104H136.625L136.425 29.8716H136.351C135.692 30.7372 134.525 31.3563 133.06 31.3563C130.817 31.3563 129.564 29.734 129.564 28.0372C129.564 25.2398 132.053 23.8009 136.167 23.8239V23.6404C136.167 22.9067 135.876 21.6914 133.907 21.6914C132.808 21.6914 131.664 22.0354 130.909 22.5169L130.359 20.6825C131.183 20.1781 132.625 19.7023 134.388 19.7023C137.953 19.7023 138.983 21.9666 138.983 24.42" fill="white"/>
<path d="M142.96 19.9545H145.769V31.1098H142.96V19.9545ZM144.35 18.3494C143.418 18.3494 142.8 17.6616 142.8 16.8361C142.8 15.9648 143.435 15.2998 144.379 15.2998C145.335 15.2998 145.93 15.9648 145.953 16.8361C145.953 17.6616 145.335 18.3494 144.379 18.3494" fill="white"/>
<path d="M149.815 31.1097H152.63V14.8182H149.815V31.1097Z" fill="white"/>
<path d="M162.599 25.6525C160.607 25.6296 158.707 26.0423 158.707 27.7391C158.707 28.8397 159.417 29.3442 160.31 29.3442C161.454 29.3442 162.255 28.6104 162.53 27.8079C162.599 27.6015 162.599 27.3952 162.599 27.1888V25.6525ZM165.34 28.427C165.34 29.4359 165.385 30.4219 165.523 31.104H162.988L162.782 29.8716H162.713C162.049 30.7372 160.882 31.3563 159.417 31.3563C157.18 31.3563 155.921 29.734 155.921 28.0372C155.921 25.2398 158.416 23.8009 162.53 23.8239V23.6404C162.53 22.9067 162.232 21.6914 160.264 21.6914C159.165 21.6914 158.021 22.0354 157.271 22.5169L156.722 20.6825C157.546 20.1781 158.982 19.7023 160.745 19.7023C164.31 19.7023 165.34 21.9666 165.34 24.42" fill="white"/>
<path d="M172.132 26.5009C172.132 26.7302 172.155 26.9595 172.201 27.1658C172.498 28.3123 173.482 29.1378 174.69 29.1378C176.452 29.1378 177.528 27.7391 177.528 25.4748C177.528 23.5028 176.59 21.8978 174.713 21.8978C173.568 21.8978 172.521 22.7232 172.224 23.9614C172.178 24.1678 172.132 24.42 172.132 24.6952V26.5009ZM169.317 14.8182H172.132V21.485H172.178C172.864 20.4073 174.072 19.7022 175.743 19.7022C178.467 19.7022 180.406 21.9665 180.383 25.3601C180.383 29.3671 177.849 31.362 175.331 31.362C173.889 31.362 172.613 30.8117 171.812 29.4359H171.766L171.628 31.1097H169.225C169.271 30.3531 169.317 29.1149 169.317 27.9913" fill="white"/>
<path d="M183.697 31.1097H186.506V14.8182H183.697V31.1097Z" fill="white"/>
<path d="M197.459 24.3513C197.482 23.3194 197.024 21.6226 195.153 21.6226C193.413 21.6226 192.681 23.2048 192.566 24.3513H197.459ZM192.566 26.3175C192.635 28.3353 194.214 29.2066 196 29.2066C197.299 29.2066 198.214 29.0002 199.084 28.7022L199.496 30.6225C198.535 31.041 197.207 31.3333 195.61 31.3333C191.994 31.3333 189.865 29.1149 189.865 25.7041C189.865 22.6086 191.742 19.7023 195.313 19.7023C198.924 19.7023 200.114 22.6774 200.114 25.1309C200.114 25.6582 200.068 26.071 200.022 26.3175" fill="white"/>
<path d="M214.082 29.3213C215.679 29.3213 216.8 27.762 216.8 25.4977C216.8 23.7551 216.022 21.7373 214.105 21.7373C212.114 21.7373 211.312 23.6863 211.312 25.5436C211.312 27.6932 212.388 29.3213 214.053 29.3213H214.082ZM213.99 31.362C210.855 31.362 208.411 29.2066 208.411 25.6124C208.411 21.9436 210.809 19.7023 214.174 19.7023C217.487 19.7023 219.707 22.0354 219.707 25.4289C219.707 29.5276 216.823 31.362 214.013 31.362" fill="white"/>
<path d="M223.014 23.2736C223.014 21.9895 222.974 20.9118 222.929 19.9488H225.372L225.509 21.6226H225.578C226.082 20.7513 227.295 19.7023 229.149 19.7023C231.089 19.7023 233.103 20.9577 233.103 24.4888V31.104H230.287V24.8098C230.287 23.2048 229.692 21.9895 228.165 21.9895C227.043 21.9895 226.265 22.792 225.967 23.6404C225.876 23.8697 225.83 24.2137 225.83 24.5347V31.104H223.014" fill="white"/>
<path d="M246.064 17.0884V19.9488H248.736V22.0584H246.064V26.9596C246.064 28.3354 246.43 29.0232 247.5 29.0232C248.004 29.0232 248.278 29.0003 248.599 28.9086L248.645 31.0353C248.233 31.2016 247.477 31.3334 246.607 31.3334C245.56 31.3334 244.713 30.9895 244.187 30.422C243.569 29.7799 243.294 28.7481 243.294 27.2806V22.0584H241.715V19.9488H243.294V17.868" fill="white"/>
<path d="M251.866 14.8182H254.682V21.4621H254.727C255.071 20.9347 255.551 20.4991 256.124 20.201C256.696 19.8857 257.354 19.7022 258.063 19.7022C259.963 19.7022 261.949 20.9576 261.949 24.5347V31.1097H259.139V24.8328C259.139 23.2277 258.544 21.9895 256.988 21.9895C255.895 21.9895 255.116 22.7232 254.796 23.5716C254.704 23.8238 254.682 24.1219 254.682 24.42V31.1097H251.866" fill="white"/>
<path d="M272.833 24.3513C272.856 23.3194 272.398 21.6226 270.521 21.6226C268.781 21.6226 268.055 23.2048 267.94 24.3513H272.833ZM267.94 26.3175C268.009 28.3353 269.582 29.2066 271.368 29.2066C272.672 29.2066 273.588 29.0002 274.452 28.7022L274.87 30.6225C273.909 31.041 272.581 31.3333 270.979 31.3333C267.368 31.3333 265.239 29.1149 265.239 25.7041C265.239 22.6086 267.116 19.7023 270.681 19.7023C274.292 19.7023 275.482 22.6774 275.482 25.1309C275.482 25.6582 275.436 26.071 275.391 26.3175" fill="white"/>
<path d="M71.1451 46.0828C71.0708 38.4415 77.3882 34.7212 77.68 34.5492C74.1036 29.3213 68.5587 28.6105 66.6074 28.5532C61.9552 28.0659 57.4403 31.3506 55.0713 31.3506C52.6507 31.3506 48.9942 28.6047 45.063 28.685C39.993 28.7652 35.255 31.706 32.6571 36.2632C27.301 45.5669 31.2952 59.233 36.4338 66.7539C39.0088 70.4341 42.0073 74.55 45.9385 74.4009C49.7839 74.2404 51.2202 71.9474 55.8609 71.9474C60.4616 71.9474 61.8121 74.4009 65.8234 74.3092C69.9492 74.2404 72.5471 70.6118 75.0249 66.8915C78.0004 62.6724 79.1907 58.5164 79.2365 58.3043C79.1392 58.2699 71.2253 55.2432 71.1451 46.0828Z" fill="white"/>
<path d="M63.5688 23.6118C65.6345 21.0208 67.0594 17.4896 66.6588 13.9126C63.6661 14.0502 59.9237 15.9877 57.7664 18.5215C55.8609 20.7571 54.1499 24.4201 54.5963 27.8595C57.961 28.1118 61.4115 26.1627 63.5688 23.6118Z" fill="white"/>
<path d="M117.553 60.6718L114.898 52.4573C114.617 51.6204 114.091 49.6427 113.313 46.5357H113.221C112.912 47.8714 112.408 49.849 111.728 52.4573L109.118 60.6718H117.553ZM126.731 73.7933H121.37L118.434 64.5527H108.237L105.439 73.7933H100.22L110.337 42.3339H116.574" fill="white"/>
<path d="M147.606 62.3571C147.606 60.1444 147.108 58.3272 146.113 56.8941C145.026 55.4037 143.566 54.6528 141.735 54.6528C140.493 54.6528 139.36 55.0712 138.359 55.891C137.352 56.7222 136.688 57.7999 136.373 59.1412C136.219 59.7603 136.145 60.2705 136.145 60.6718V64.4552C136.145 66.1061 136.648 67.4991 137.655 68.6341C138.668 69.7748 139.978 70.3366 141.592 70.3366C143.492 70.3366 144.968 69.6086 146.015 68.1411C147.08 66.6793 147.606 64.7533 147.606 62.3571ZM152.733 62.1679C152.733 66.0259 151.692 69.0812 149.609 71.3169C147.744 73.3117 145.426 74.3034 142.668 74.3034C139.681 74.3034 137.541 73.2257 136.236 71.0818H136.145V83.0339H131.109V58.5737C131.109 56.1489 131.052 53.6611 130.926 51.1044H135.349L135.63 54.7044H135.727C137.403 51.9929 139.95 50.6401 143.366 50.6401C146.033 50.6401 148.27 51.7006 150.05 53.8158C151.835 55.9368 152.733 58.717 152.733 62.1679Z" fill="white"/>
<path d="M173.648 62.3571C173.648 60.1444 173.151 58.3272 172.155 56.8941C171.068 55.4037 169.608 54.6528 167.777 54.6528C166.536 54.6528 165.408 55.0712 164.401 55.891C163.388 56.7222 162.736 57.7999 162.427 59.1412C162.267 59.7603 162.192 60.2705 162.192 60.6718V64.4552C162.192 66.1061 162.69 67.4991 163.697 68.6341C164.71 69.7748 166.021 70.3366 167.64 70.3366C169.534 70.3366 171.01 69.6086 172.063 68.1411C173.116 66.6793 173.648 64.7533 173.648 62.3571ZM178.77 62.1679C178.77 66.0259 177.734 69.0812 175.651 71.3169C173.786 73.3117 171.474 74.3034 168.71 74.3034C165.729 74.3034 163.589 73.2257 162.278 71.0818H162.192V83.0339H157.157V58.5737C157.157 56.1489 157.094 53.6611 156.974 51.1044H161.397L161.677 54.7044H161.775C163.446 51.9929 165.992 50.6401 169.408 50.6401C172.08 50.6401 174.306 51.7006 176.098 53.8158C177.883 55.9368 178.77 58.717 178.77 62.1679Z" fill="white"/>
<path d="M207.896 64.9711C207.896 67.6424 206.969 69.8207 205.104 71.506C203.055 73.3404 200.211 74.2576 196.555 74.2576C193.173 74.2576 190.46 73.6041 188.406 72.2971L189.573 68.101C191.788 69.4366 194.209 70.1016 196.852 70.1016C198.746 70.1016 200.223 69.6774 201.281 68.8233C202.334 67.9634 202.861 66.8169 202.861 65.3838C202.861 64.1112 202.431 63.0278 201.562 62.1565C200.692 61.2852 199.244 60.4769 197.224 59.7259C191.725 57.668 188.978 54.6585 188.978 50.7031C188.978 48.1178 189.94 45.9968 191.868 44.3459C193.791 42.695 196.354 41.8638 199.553 41.8638C202.414 41.8638 204.789 42.3682 206.683 43.3599L205.424 47.4701C203.656 46.507 201.653 46.0198 199.416 46.0198C197.642 46.0198 196.263 46.4554 195.273 47.3268C194.437 48.1064 194.014 49.0579 194.014 50.1758C194.014 51.4197 194.489 52.4458 195.456 53.2541C196.291 53.9993 197.814 54.8075 200.022 55.6846C202.723 56.7738 204.709 58.0464 205.985 59.5081C207.255 60.9699 207.896 62.7928 207.896 64.9711Z" fill="white"/>
<path d="M224.525 54.8878H218.98V65.8998C218.98 68.7029 219.959 70.1016 221.921 70.1016C222.814 70.1016 223.564 70.0271 224.153 69.8723L224.291 73.6958C223.306 74.0742 221.996 74.2576 220.382 74.2576C218.397 74.2576 216.84 73.65 215.719 72.4404C214.603 71.2252 214.042 69.1844 214.042 66.324V54.8878H210.734V51.1044H214.042V46.9542L218.98 45.458V51.1044H224.525" fill="white"/>
<path d="M244.33 62.4259C244.33 60.3336 243.878 58.5451 242.974 57.0432C241.927 55.2317 240.416 54.326 238.459 54.326C236.439 54.326 234.9 55.2317 233.847 57.0432C232.943 58.5451 232.502 60.368 232.502 62.5234C232.502 64.6157 232.943 66.4042 233.847 67.9003C234.934 69.7118 236.456 70.6175 238.419 70.6175C240.336 70.6175 241.846 69.7003 242.934 67.8545C243.866 66.3297 244.33 64.5182 244.33 62.4259ZM249.549 62.2654C249.549 65.7507 248.559 68.6112 246.567 70.8525C244.484 73.157 241.721 74.3034 238.276 74.3034C234.945 74.3034 232.302 73.1971 230.328 70.9901C228.359 68.7831 227.375 65.9972 227.375 62.638C227.375 59.1183 228.388 56.2406 230.425 54.005C232.456 51.7579 235.197 50.6401 238.642 50.6401C241.967 50.6401 244.645 51.7464 246.659 53.9534C248.587 56.1088 249.549 58.8718 249.549 62.2654Z" fill="white"/>
<path d="M265.903 55.5413C265.405 55.4496 264.879 55.4037 264.318 55.4037C262.55 55.4037 261.176 56.0744 260.215 57.41C259.38 58.5967 258.962 60.0871 258.962 61.8871V73.7933H253.932L253.972 58.2527C253.972 55.633 253.909 53.2541 253.789 51.1044H258.172L258.355 55.4496H258.487C259.019 53.9591 259.86 52.7553 261.005 51.8553C262.126 51.0471 263.339 50.6401 264.644 50.6401C265.108 50.6401 265.531 50.6745 265.903 50.7318" fill="white"/>
<path d="M283.602 60.0699C283.636 58.5795 283.31 57.284 282.629 56.1948C281.759 54.7961 280.415 54.091 278.618 54.091C276.976 54.091 275.637 54.7789 274.612 56.1489C273.777 57.2381 273.273 58.5451 273.13 60.0699H283.602ZM288.397 61.3769C288.397 62.2826 288.34 63.0393 288.22 63.6641H273.13C273.182 65.9055 273.914 67.6195 275.316 68.8004C276.586 69.8608 278.235 70.3825 280.254 70.3825C282.486 70.3825 284.523 70.0271 286.36 69.3105L287.15 72.813C285.004 73.7417 282.475 74.2175 279.551 74.2175C276.043 74.2175 273.285 73.1799 271.282 71.1048C269.285 69.0411 268.278 66.2609 268.278 62.7756C268.278 59.3534 269.205 56.5043 271.076 54.2343C273.027 51.8038 275.671 50.5942 278.99 50.5942C282.252 50.5942 284.729 51.8038 286.406 54.2343C287.739 56.1604 288.397 58.5451 288.397 61.3769Z" fill="white"/>
</svg>
