<svg width="16" height="16" viewBox="0 0 16 16" fill="none" xmlns="http://www.w3.org/2000/svg">
<path d="M3.02246 10.3968C3.02246 10.181 3.09993 10.0039 3.24381 9.86005L7.38867 5.61558C7.57682 5.42743 7.77051 5.33335 8.00846 5.33335C8.24642 5.33335 8.44564 5.4219 8.62825 5.61558L12.7786 9.86005C12.9225 10.0095 13 10.1865 13 10.3968C13 10.8229 12.6569 11.1716 12.2308 11.1716C12.0205 11.1716 11.8213 11.083 11.6663 10.9281L8.00846 7.16506L4.35612 10.9281C4.20117 11.083 4.00195 11.1716 3.79167 11.1716C3.36556 11.1716 3.02246 10.8229 3.02246 10.3968Z" fill="#068880"/>
</svg>
