<svg width="90" height="90" viewBox="0 0 90 90" fill="none" xmlns="http://www.w3.org/2000/svg">
<path d="M71.4656 23.1047C71.3364 22.9184 71.164 22.7661 70.9632 22.6608C70.7625 22.5556 70.5392 22.5004 70.3125 22.5H23.9062C23.623 22.5008 23.3465 22.5872 23.1132 22.7478C22.8798 22.9084 22.7004 23.1357 22.5984 23.4L15.5672 41.6812C15.5007 41.8417 15.4672 42.0139 15.4687 42.1875V84.375C15.4687 84.748 15.6169 85.1056 15.8806 85.3694C16.1443 85.6331 16.502 85.7812 16.875 85.7812H63.2812C63.6542 85.7812 64.0119 85.6331 64.2756 85.3694C64.5393 85.1056 64.6875 84.748 64.6875 84.375V42.4547L71.6203 24.4125C71.7032 24.1984 71.7325 23.9673 71.7055 23.7394C71.6785 23.5114 71.5962 23.2935 71.4656 23.1047Z" fill="#C6E2FA"/>
<path d="M64.6875 2.8125H29.5312C27.6664 2.8125 25.878 3.55329 24.5594 4.87191C23.2408 6.19052 22.5 7.97895 22.5 9.84375V23.9062C22.5 24.2792 22.6482 24.6369 22.9119 24.9006C23.1756 25.1643 23.5333 25.3125 23.9062 25.3125H70.3125C70.6855 25.3125 71.0431 25.1643 71.3069 24.9006C71.5706 24.6369 71.7188 24.2792 71.7188 23.9062V9.84375C71.7188 7.97895 70.978 6.19052 69.6593 4.87191C68.3407 3.55329 66.5523 2.8125 64.6875 2.8125ZM63.2812 16.875C63.2812 17.248 63.1331 17.6056 62.8694 17.8694C62.6056 18.1331 62.248 18.2812 61.875 18.2812H32.3438C31.9708 18.2812 31.6131 18.1331 31.3494 17.8694C31.0857 17.6056 30.9375 17.248 30.9375 16.875V11.25C30.9375 10.877 31.0857 10.5194 31.3494 10.2556C31.6131 9.99191 31.9708 9.84375 32.3438 9.84375H61.875C62.248 9.84375 62.6056 9.99191 62.8694 10.2556C63.1331 10.5194 63.2812 10.877 63.2812 11.25V16.875Z" fill="#0461FF"/>
<path d="M71.6203 24.4125C71.7032 24.1984 71.7325 23.9673 71.7055 23.7394C71.6785 23.5114 71.5962 23.2935 71.4656 23.1047C71.3364 22.9184 71.164 22.7661 70.9632 22.6608C70.7625 22.5556 70.5392 22.5004 70.3125 22.5H23.9062C23.623 22.5008 23.3465 22.5872 23.1132 22.7478C22.8798 22.9084 22.7004 23.1357 22.5984 23.4L15.5672 41.6812C15.5007 41.8417 15.4672 42.0139 15.4687 42.1875H64.7859L71.6203 24.4125Z" fill="#84C5FA"/>
<path d="M78.6516 41.6814L71.6203 23.4001C71.5166 23.1378 71.3365 22.9128 71.1033 22.7541C70.8701 22.5955 70.5945 22.5107 70.3125 22.5107C70.0304 22.5107 69.7549 22.5955 69.5217 22.7541C69.2885 22.9128 69.1083 23.1378 69.0047 23.4001L61.9734 41.6814C61.907 41.8418 61.8735 42.014 61.875 42.1876V84.3751C61.8748 84.6049 61.9308 84.8312 62.0383 85.0342C62.1458 85.2373 62.3013 85.4109 62.4914 85.54C62.6815 85.669 62.9003 85.7495 63.1287 85.7744C63.3571 85.7994 63.5881 85.7679 63.8015 85.6829L70.3125 83.0814L76.8234 85.6829C77.0369 85.7679 77.2679 85.7994 77.4963 85.7744C77.7247 85.7495 77.9435 85.669 78.1336 85.54C78.3236 85.4109 78.4792 85.2373 78.5867 85.0342C78.6941 84.8312 78.7502 84.6049 78.75 84.3751V42.1876C78.7515 42.014 78.718 41.8418 78.6516 41.6814Z" fill="#0461FF"/>
<path d="M42.6516 50.2453C42.387 49.9234 42.0542 49.6644 41.6772 49.4868C41.3002 49.3093 40.8886 49.2177 40.4719 49.2188H38.2781C37.8615 49.2177 37.4498 49.3093 37.0728 49.4868C36.6958 49.6644 36.363 49.9234 36.0984 50.2453C35.8358 50.5676 35.6478 50.9441 35.5481 51.3478C35.4484 51.7514 35.4395 52.1722 35.5219 52.5797L36.3094 56.5313C36.3751 56.8537 36.5518 57.1428 36.8088 57.3484C37.0657 57.5539 37.3866 57.6629 37.7156 57.6563L41.1188 57.5297C41.4352 57.5164 41.7378 57.3967 41.9777 57.19C42.2176 56.9833 42.3807 56.7016 42.4406 56.3906L43.2 52.5797C43.2863 52.1742 43.2818 51.7547 43.187 51.3511C43.0922 50.9476 42.9094 50.57 42.6516 50.2453Z" fill="#0461FF"/>
<path d="M39.375 54.8438C35.2724 54.8438 31.3379 56.4735 28.4369 59.3744C25.536 62.2754 23.9062 66.2099 23.9062 70.3125V73.125C23.9062 73.498 24.0544 73.8556 24.3181 74.1194C24.5819 74.3831 24.9395 74.5312 25.3125 74.5312H53.4375C53.8105 74.5312 54.1681 74.3831 54.4319 74.1194C54.6956 73.8556 54.8438 73.498 54.8438 73.125V70.3125C54.8438 66.2099 53.214 62.2754 50.3131 59.3744C47.4121 56.4735 43.4776 54.8437 39.375 54.8438Z" fill="white"/>
<path d="M40.8656 54.9141C43.7716 56.2275 46.2376 58.3506 47.9684 61.0291C49.6992 63.7076 50.6215 66.8281 50.625 70.0172V73.0266C50.625 73.4256 50.4664 73.8083 50.1843 74.0905C49.9021 74.3727 49.5194 74.5312 49.1203 74.5312H53.4375C53.8104 74.5312 54.1681 74.3831 54.4318 74.1194C54.6956 73.8556 54.8437 73.498 54.8437 73.125V70.3125C54.8441 66.4677 53.4127 62.7605 50.8285 59.9137C48.2443 57.0669 44.6925 55.2846 40.8656 54.9141Z" fill="#84C5FA"/>
<path d="M57.6562 71.7188H21.0938V74.5312H57.6562V71.7188Z" fill="#0461FF"/>
</svg>
