<svg width="90" height="90" viewBox="0 0 90 90" fill="none" xmlns="http://www.w3.org/2000/svg">
<path d="M56.9118 23.8237H33.0883V87.3531H56.9118V23.8237Z" fill="#C6E2FA"/>
<path d="M41.0294 2.64697H19.853V7.94109H41.0294V2.64697Z" fill="#C6E2FA"/>
<path d="M41.0294 7.94092H19.853L33.0883 23.8233H56.9118L41.0294 7.94092Z" fill="#EAF4FE"/>
<path d="M33.0882 23.8237H6.61761V87.3531H33.0882V23.8237Z" fill="#84C5FA"/>
<path d="M24.5381 60.6442C21.944 63.2383 17.7352 63.2383 15.1411 60.6442C13.0499 58.553 12.5999 55.2971 14.0558 52.703L19.8528 42.353L25.6499 52.703C27.1058 55.2971 26.6558 58.5266 24.5381 60.6442Z" fill="#EAF4FE"/>
<path d="M19.8529 7.94092L6.61761 23.8233H33.0882L19.8529 7.94092Z" fill="#0461FF"/>
<path d="M48.9706 45L42.0882 59.7441C43.0676 60.6971 43.6765 62.0471 43.6765 63.5294C43.6765 66.4412 41.2941 68.8235 38.3823 68.8235C38.197 68.8235 38.0382 68.7971 37.8794 68.7706L30.4412 87.353H48.9706L64.8529 45H48.9706Z" fill="#FF7100"/>
<path d="M72.7677 61.9677C72.3706 62.1 71.9206 62.2059 71.4706 62.2059C69.2735 62.2059 67.5 60.4324 67.5 58.2353C67.5 56.7794 68.2941 55.5353 69.4324 54.8471L64.853 45L46.3235 87.353H83.3824L72.7677 61.9677Z" fill="#FFAE00"/>
<path d="M56.9118 68.8236C59.8357 68.8236 62.2059 66.4533 62.2059 63.5295C62.2059 60.6056 59.8357 58.2354 56.9118 58.2354C53.9879 58.2354 51.6177 60.6056 51.6177 63.5295C51.6177 66.4533 53.9879 68.8236 56.9118 68.8236Z" fill="#FF7100"/>
<path d="M56.9118 82.0588C58.3737 82.0588 59.5588 80.8736 59.5588 79.4117C59.5588 77.9498 58.3737 76.7646 56.9118 76.7646C55.4498 76.7646 54.2647 77.9498 54.2647 79.4117C54.2647 80.8736 55.4498 82.0588 56.9118 82.0588Z" fill="#FF7100"/>
<path d="M67.5 79.4115C70.4238 79.4115 72.7941 77.0412 72.7941 74.1174C72.7941 71.1935 70.4238 68.8232 67.5 68.8232C64.5761 68.8232 62.2059 71.1935 62.2059 74.1174C62.2059 77.0412 64.5761 79.4115 67.5 79.4115Z" fill="#FF7100"/>
</svg>
