<svg width="90" height="90" viewBox="0 0 90 90" fill="none" xmlns="http://www.w3.org/2000/svg">
<g clip-path="url(#clip0_592_419)">
<path d="M44.9987 14.6519C44.6943 14.6515 44.3994 14.5458 44.164 14.3528C43.9287 14.1597 43.7673 13.8912 43.7074 13.5927C43.4999 12.5583 42.6621 7.19421 46.5653 3.17493C48.1537 1.56733 50.1864 0.471315 52.4024 0.0276968C52.5719 -0.00760528 52.7467 -0.00917624 52.9168 0.0230737C53.0869 0.0553236 53.249 0.120763 53.3938 0.215655C53.5386 0.310547 53.6634 0.433034 53.7608 0.576122C53.8583 0.71921 53.9267 0.880097 53.962 1.0496C53.9973 1.2191 53.9988 1.39389 53.9666 1.564C53.9343 1.7341 53.8689 1.89619 53.774 2.04101C53.6791 2.18583 53.5566 2.31054 53.4135 2.40802C53.2704 2.5055 53.1096 2.57384 52.9401 2.60914C51.2398 2.94581 49.6787 3.78246 48.4569 5.01189C45.4105 8.14883 46.1933 12.5791 46.2926 13.074C46.3309 13.2654 46.3263 13.4629 46.279 13.6523C46.2317 13.8417 46.143 14.0183 46.0192 14.1692C45.8954 14.3202 45.7396 14.4418 45.5632 14.5252C45.3867 14.6087 45.1939 14.652 44.9987 14.6519L44.9987 14.6519Z" fill="#7A6D79"/>
<path d="M71.6454 55.7446L65.4994 85.833C65.3293 86.6414 64.8854 87.3663 64.2426 87.8853C63.5999 88.4043 62.7978 88.6856 61.9716 88.6817H28.0284C27.2023 88.6856 26.4001 88.4043 25.7574 87.8853C25.1147 87.3663 24.6708 86.6414 24.5007 85.833L18.3547 55.7446H71.6454Z" fill="#F1F6F9"/>
<path d="M65.6502 55.7446L61.9557 73.8314C61.4571 76.2727 60.1782 78.4856 58.312 80.1366C56.4458 81.7876 54.0934 82.7871 51.6095 82.9844C42.5266 83.7058 33.4437 84.4273 24.3608 85.1487L24.5006 85.8329C24.6707 86.6413 25.1146 87.3663 25.7573 87.8853C26.4001 88.4043 27.2022 88.6856 28.0283 88.6816H61.9716C62.7977 88.6856 63.5999 88.4043 64.2426 87.8853C64.8853 87.3663 65.3292 86.6413 65.4993 85.8329L71.6453 55.7446H65.6502Z" fill="#DDE8EF"/>
<path d="M77.349 46.3884C77.3442 48.3202 76.8099 50.2137 75.8042 51.863C74.7985 53.5124 73.36 54.8545 71.645 55.7436C70.092 56.5579 68.364 56.9815 66.6106 56.9775H23.3895C20.5479 56.9836 17.8186 55.8688 15.794 53.875C15.6762 53.7572 15.5602 53.6377 15.4477 53.5164C13.6491 51.5786 12.65 49.0323 12.651 46.3885C12.651 40.5437 17.4569 35.8012 23.3895 35.8012H23.9432C23.9291 35.5392 23.9168 35.2738 23.9168 35.0049C23.9168 27.492 30.0973 21.3994 37.7174 21.3994C38.0813 21.3994 38.4428 21.4135 38.802 21.4416H51.1981C51.5567 21.4135 51.9188 21.3994 52.2844 21.3994C59.9028 21.3994 66.0832 27.492 66.0832 35.0049C66.0832 35.2738 66.0709 35.5392 66.0569 35.8012H66.6106C69.4523 35.794 72.182 36.909 74.2061 38.9037C75.2011 39.8798 75.9916 41.0444 76.5312 42.3296C77.0709 43.6147 77.3489 44.9946 77.349 46.3884Z" fill="#FED402"/>
<path d="M77.3492 46.3884C77.3443 48.3202 76.81 50.2137 75.8043 51.863C74.7987 53.5124 73.3601 54.8545 71.6451 55.7436C70.0922 56.5579 68.3641 56.9815 66.6107 56.9775H23.3896C20.548 56.9836 17.8187 55.8688 15.7941 53.875C15.6763 53.7572 15.5603 53.6377 15.4478 53.5164C29.164 53.6201 42.8796 53.6096 56.5947 53.4848C58.9615 53.4638 61.3278 53.4389 63.6937 53.4103C68.5346 53.3516 72.0483 48.6255 70.5393 44.0255C70.5073 43.928 70.4734 43.8309 70.4374 43.7342C69.9328 42.401 69.0892 41.2224 67.99 40.3147C66.8908 39.407 65.574 38.8015 64.1694 38.5581C63.6595 38.4627 63.1912 38.2128 62.8282 37.8423C62.4651 37.4718 62.2248 36.9985 62.1398 36.4868C61.6543 33.6321 60.4501 30.948 58.6408 28.6873C53.6275 22.4892 46.0285 22.3152 44.9175 22.3082C45.1583 22.1201 45.5539 21.8178 46.0935 21.4416H51.1982C51.5568 21.4135 51.9189 21.3994 52.2845 21.3994C59.9029 21.3994 66.0833 27.492 66.0833 35.0049C66.0833 35.2738 66.071 35.5392 66.057 35.8012H66.6107C69.4524 35.794 72.1821 36.909 74.2062 38.9037C75.2012 39.8798 75.9917 41.0444 76.5313 42.3296C77.071 43.6147 77.349 44.9946 77.3492 46.3884Z" fill="#FAC600"/>
<path d="M44.9999 26.1603C48.5488 26.1603 51.4258 23.2889 51.4258 19.7469C51.4258 16.2049 48.5488 13.3335 44.9999 13.3335C41.451 13.3335 38.574 16.2049 38.574 19.7469C38.574 23.2889 41.451 26.1603 44.9999 26.1603Z" fill="#E53950"/>
<path d="M48.0339 14.0928C48.6783 15.3087 48.9151 16.6995 48.7095 18.0602C48.5039 19.421 47.8667 20.6797 46.8917 21.6509C45.9168 22.6222 44.6557 23.2546 43.2942 23.4551C41.9327 23.6556 40.5428 23.4134 39.3293 22.7644C39.7995 23.6511 40.471 24.4152 41.2899 24.9955C42.1087 25.5758 43.0522 25.9561 44.0446 26.1059C45.037 26.2558 46.0507 26.1709 47.0043 25.8583C47.958 25.5456 48.8251 25.0137 49.5362 24.3054C50.2472 23.5971 50.7823 22.732 51.0986 21.7795C51.4149 20.827 51.5036 19.8136 51.3575 18.8207C51.2114 17.8277 50.8347 16.8828 50.2575 16.0618C49.6803 15.2407 48.9188 14.5663 48.0339 14.0928Z" fill="#CA2E43"/>
<path d="M38.1151 35.7309C37.9839 35.7308 37.8535 35.7112 37.7281 35.6725L32.6238 34.1069C32.4582 34.0562 32.3044 33.9733 32.1709 33.8631C32.0374 33.7528 31.9269 33.6174 31.8458 33.4644C31.7647 33.3115 31.7144 33.1441 31.698 32.9718C31.6816 32.7994 31.6992 32.6255 31.75 32.46C31.8008 32.2945 31.8836 32.1406 31.9939 32.0071C32.1041 31.8737 32.2396 31.7632 32.3925 31.6821C32.5454 31.6009 32.7128 31.5507 32.8852 31.5343C33.0575 31.5178 33.2314 31.5355 33.3969 31.5863L38.5013 33.1518C38.8031 33.2445 39.0617 33.4423 39.23 33.7095C39.3984 33.9766 39.4652 34.2953 39.4185 34.6076C39.3717 34.9199 39.2144 35.205 38.9753 35.4111C38.7361 35.6172 38.4309 35.7307 38.1151 35.7309V35.7309Z" fill="#FE4FB7"/>
<path d="M23.9541 49.8715C23.7109 49.8712 23.4724 49.8036 23.2651 49.6762C23.0579 49.5488 22.8899 49.3665 22.7798 49.1496C22.6697 48.9326 22.6218 48.6895 22.6413 48.4469C22.6609 48.2044 22.7471 47.9721 22.8905 47.7755L26.0138 43.4984C26.1159 43.3586 26.2446 43.2403 26.3924 43.1502C26.5402 43.06 26.7044 42.9999 26.8754 42.9733C27.0465 42.9466 27.2211 42.9539 27.3894 42.9947C27.5576 43.0355 27.7162 43.1091 27.856 43.2112C27.9958 43.3133 28.1142 43.4419 28.2043 43.5897C28.2944 43.7376 28.3545 43.9017 28.3812 44.0728C28.4078 44.2438 28.4006 44.4185 28.3598 44.5867C28.3189 44.755 28.2454 44.9135 28.1433 45.0533L25.02 49.3304C24.8976 49.4983 24.7372 49.6348 24.552 49.7289C24.3667 49.8229 24.1619 49.8718 23.9541 49.8715Z" fill="#01C0FA"/>
<path d="M42.4948 50.3112C42.184 50.3116 41.8832 50.2016 41.6458 50.0009L37.5828 46.5759C37.3155 46.3505 37.1486 46.0282 37.119 45.6798C37.0893 45.3314 37.1992 44.9855 37.4246 44.7182C37.6499 44.4508 37.9723 44.284 38.3207 44.2543C38.669 44.2246 39.015 44.3345 39.2823 44.5599L43.3453 47.9849C43.552 48.1591 43.7001 48.3927 43.7696 48.654C43.8391 48.9153 43.8266 49.1916 43.7338 49.4455C43.6409 49.6994 43.4723 49.9187 43.2507 50.0735C43.0291 50.2284 42.7652 50.3114 42.4948 50.3112H42.4948Z" fill="#46CC8D"/>
<path d="M61.6421 51.2984C61.3725 51.2985 61.1093 51.216 60.888 51.0618C60.6667 50.9077 60.4981 50.6894 60.4047 50.4364C60.3114 50.1834 60.2979 49.9079 60.366 49.6469C60.4342 49.386 60.5807 49.1523 60.7858 48.9772L64.8278 45.5282C65.0938 45.3016 65.4389 45.1898 65.7873 45.2175C66.1357 45.2452 66.4588 45.4101 66.6856 45.676C66.9125 45.9418 67.0245 46.2868 66.9971 46.6352C66.9696 46.9836 66.805 47.3069 66.5393 47.5339L62.4973 50.9829C62.259 51.1868 61.9557 51.2987 61.6421 51.2984Z" fill="#FE4FB7"/>
<path d="M56.1692 46.4302C55.9157 46.4303 55.6675 46.3573 55.4544 46.22C55.2413 46.0826 55.0724 45.8867 54.9677 45.6558L52.7862 40.8443C52.7145 40.6866 52.6746 40.5163 52.6688 40.3432C52.6629 40.17 52.6913 39.9975 52.7522 39.8353C52.8131 39.6731 52.9054 39.5245 53.0237 39.398C53.1421 39.2715 53.2842 39.1696 53.442 39.0981C53.5998 39.0266 53.7701 38.9868 53.9432 38.9812C54.1164 38.9755 54.2889 39.004 54.4511 39.0651C54.6132 39.1262 54.7617 39.2186 54.888 39.3371C55.0144 39.4556 55.1162 39.5978 55.1876 39.7556L57.3691 44.5671C57.4601 44.7679 57.4992 44.9883 57.4831 45.2081C57.4669 45.4279 57.3959 45.6401 57.2766 45.8254C57.1572 46.0107 56.9933 46.1632 56.7999 46.2688C56.6065 46.3745 56.3896 46.4299 56.1692 46.4302H56.1692Z" fill="#46CC8D"/>
<path d="M48.8918 34.1345C48.5785 34.1344 48.2755 34.0228 48.037 33.8196C47.7985 33.6164 47.6402 33.3349 47.5904 33.0256C47.5406 32.7163 47.6025 32.3994 47.7651 32.1316C47.9278 31.8638 48.1804 31.6627 48.4778 31.5642L53.5457 29.8874C53.7101 29.8329 53.8837 29.8112 54.0564 29.8238C54.2292 29.8363 54.3978 29.8828 54.5526 29.9605C54.7074 30.0383 54.8453 30.1458 54.9586 30.2768C55.0718 30.4079 55.1581 30.56 55.2125 30.7245C55.2669 30.889 55.2884 31.0625 55.2757 31.2353C55.263 31.408 55.2164 31.5766 55.1385 31.7313C55.0606 31.8861 54.953 32.0239 54.8218 32.137C54.6907 32.2502 54.5385 32.3363 54.374 32.3906L49.3061 34.0674C49.1725 34.1118 49.0326 34.1344 48.8918 34.1345Z" fill="#01C0FA"/>
<path d="M67.2043 77.4868L69.3585 66.9399H20.6414L22.7956 77.4868H67.2043Z" fill="#E53950"/>
<path d="M63.5467 66.9399L62.9869 69.6806C62.6888 71.14 61.8957 72.4516 60.7419 73.3936C59.588 74.3356 58.1442 74.8501 56.6547 74.8501H22.2573L22.7959 77.4868H67.2044L69.3587 66.9399H63.5467Z" fill="#CA2E43"/>
<path d="M45.3201 81.9708C50.709 81.9708 55.0777 77.6022 55.0777 72.2132C55.0777 66.8242 50.709 62.4556 45.3201 62.4556C39.9311 62.4556 35.5624 66.8242 35.5624 72.2132C35.5624 77.6022 39.9311 81.9708 45.3201 81.9708Z" fill="#FED402"/>
<path d="M51.8863 64.9956C52.6088 67.045 52.6264 69.277 51.9366 71.3376C51.2467 73.3982 49.8887 75.1695 48.0779 76.3708C46.2672 77.5721 44.1072 78.1347 41.9405 77.9692C39.7738 77.8037 37.7243 76.9197 36.1169 75.4574C36.6104 76.8574 37.4168 78.1263 38.4748 79.1677C39.5327 80.209 40.8142 80.9952 42.2219 81.4665C43.6295 81.9377 45.1261 82.0817 46.5977 81.8873C48.0694 81.6929 49.4773 81.1653 50.7142 80.3446C51.9512 79.524 52.9846 78.432 53.7359 77.1517C54.4871 75.8714 54.9363 74.4365 55.0494 72.9564C55.1624 71.4763 54.9362 69.9899 54.3881 68.6104C53.84 67.2308 52.9844 65.9945 51.8863 64.9956Z" fill="#FAC600"/>
</g>
<defs>
<clipPath id="clip0_592_419">
<rect width="90" height="90" fill="white"/>
</clipPath>
</defs>
</svg>
