<svg width="60" height="60" viewBox="0 0 60 60" fill="none" xmlns="http://www.w3.org/2000/svg">
<path d="M30 60C46.5685 60 60 46.5685 60 30C60 13.4315 46.5685 0 30 0C13.4315 0 0 13.4315 0 30C0 46.5685 13.4315 60 30 60Z" fill="#F0F0F0"/>
<path d="M6.20156 11.7354C3.84504 14.8013 2.06813 18.3351 1.03348 22.1741H16.6403L6.20156 11.7354Z" fill="#0052B4"/>
<path d="M58.9665 22.1741C57.9319 18.3353 56.1548 14.8015 53.7984 11.7355L43.36 22.1741H58.9665Z" fill="#0052B4"/>
<path d="M1.03348 37.8263C2.06824 41.6651 3.84516 45.1989 6.20156 48.2648L16.6399 37.8263H1.03348Z" fill="#0052B4"/>
<path d="M48.2646 6.20165C45.1986 3.84513 41.665 2.06821 37.826 1.03345V16.6401L48.2646 6.20165Z" fill="#0052B4"/>
<path d="M11.7354 53.7982C14.8014 56.1547 18.3352 57.9317 22.174 58.9664V43.3599L11.7354 53.7982Z" fill="#0052B4"/>
<path d="M22.1739 1.03345C18.335 2.06821 14.8012 3.84513 11.7354 6.20153L22.1739 16.64V1.03345Z" fill="#0052B4"/>
<path d="M37.8261 58.9664C41.665 57.9317 45.1987 56.1547 48.2646 53.7983L37.8261 43.3599V58.9664Z" fill="#0052B4"/>
<path d="M43.36 37.8263L53.7984 48.2649C56.1548 45.199 57.9319 41.6651 58.9665 37.8263H43.36Z" fill="#0052B4"/>
<path d="M59.7461 26.087H33.9132H33.9131V0.253945C32.6321 0.0871875 31.3262 0 30 0C28.6736 0 27.3679 0.0871875 26.087 0.253945V26.0868V26.0869H0.253945C0.0871875 27.3679 0 28.6738 0 30C0 31.3264 0.0871875 32.6321 0.253945 33.913H26.0868H26.0869V59.7461C27.3679 59.9128 28.6736 60 30 60C31.3262 60 32.6321 59.9129 33.913 59.7461V33.9132V33.9131H59.7461C59.9128 32.6321 60 31.3264 60 30C60 28.6738 59.9128 27.3679 59.7461 26.087Z" fill="#D80027"/>
<path d="M37.8261 37.8263L51.2132 51.2133C51.8289 50.5979 52.4162 49.9544 52.9766 49.2874L41.5154 37.8262H37.8261V37.8263Z" fill="#D80027"/>
<path d="M22.1738 37.8263H22.1736L8.7867 51.2132C9.40217 51.8289 10.0456 52.4163 10.7127 52.9767L22.1738 41.5152V37.8263Z" fill="#D80027"/>
<path d="M22.1739 22.174V22.1738L8.78687 8.78662C8.17116 9.40209 7.58382 10.0456 7.02343 10.7126L18.4847 22.1739H22.1739V22.174Z" fill="#D80027"/>
<path d="M37.8261 22.1741L51.2133 8.78688C50.5978 8.17118 49.9543 7.58383 49.2873 7.02356L37.8261 18.4848V22.1741Z" fill="#D80027"/>
</svg>
