<svg width="60" height="60" viewBox="0 0 60 60" fill="none" xmlns="http://www.w3.org/2000/svg">
<path d="M5.85939e-05 5.21741H0V54.7825H5.85939e-05V30.0002V5.21741Z" fill="#FF9811"/>
<path d="M29.9999 59.9999C46.5685 59.9999 59.9999 46.5685 59.9999 29.9999C59.9999 13.4314 46.5685 0 29.9999 0C13.4314 0 0 13.4314 0 29.9999C0 46.5685 13.4314 59.9999 29.9999 59.9999Z" fill="#FFDA44"/>
<path d="M23.4784 5.21741H13.0915C12.6312 5.53206 12.1807 5.8596 11.7393 6.19862L9.13056 29.9999L11.7393 53.8012C12.1807 54.1404 12.6312 54.4679 13.0915 54.7824H23.4784V5.21741Z" fill="#FF9811"/>
<path d="M0.000106812 30.0001C0.000106812 39.6968 4.60184 48.3174 11.7393 53.8014V6.19873C4.60184 11.6829 0.000106812 20.3034 0.000106812 30.0001Z" fill="#6DA544"/>
<path d="M48.261 18.2888V19.0394L48.2888 19.0436L48.261 18.2888Z" fill="#FFDA44"/>
<path d="M57.6089 37.8261H51.9566L49.5654 40.4348V45.6522H44.3479V43.0435H46.9566V37.8261H35.2175V41.0869H32.6088V34.8723C31.8084 34.1559 31.3045 33.1151 31.3045 31.9565V15C31.3045 12.8389 33.0564 11.087 35.2175 11.087V35.2175H40.4349L42.2251 33.7255C41.9124 32.9808 41.7392 32.163 41.7392 31.3044V27.3914H37.8262V19.5654H45.6522C45.6522 18.2611 47.6088 16.9567 47.6088 16.9567C47.6088 16.9567 49.5654 18.261 49.5654 19.5654V21.522V27.3915C51.0165 27.4088 53.322 27.3712 55.8129 27.3915C55.1585 26.2478 54.7827 24.8906 54.7827 23.4785C54.7827 21.1769 55.7764 19.1075 57.3582 17.6755C55.0782 12.623 51.44 8.31491 46.9087 5.21741H27.3915V54.7827H46.9088C52.4189 51.0161 56.6082 45.4601 58.6407 38.9518L57.6089 37.8261Z" fill="#A2001D"/>
</svg>
