<svg width="750" height="706" viewBox="0 0 750 706" fill="none" xmlns="http://www.w3.org/2000/svg">
<g filter="url(#filter0_f_605_1549)">
<path d="M482.2 191.6C482.2 207.97 468.97 221.2 452.6 221.2C436.23 221.2 423 207.97 423 191.6C423 175.23 436.23 162 452.6 162C468.858 162 482.2 175.23 482.2 191.6Z" fill="#6ABDFB"/>
<path fill-rule="evenodd" clip-rule="evenodd" d="M467.624 188.573V182.518H464.597V181.061C464.597 178.146 463.364 175.455 461.458 173.549C459.552 175.455 456.973 176.576 454.17 176.576H444.976C442.509 176.576 440.491 178.594 440.491 181.061V182.518H437.464V188.573H434.436V200.682C434.436 205.727 438.473 209.764 443.518 209.764H461.682C466.727 209.764 470.764 205.727 470.764 200.682V188.573H467.624ZM443.518 181.061C443.518 180.276 444.191 179.603 444.976 179.603H454.17C456.524 179.603 458.879 178.93 460.785 177.809C461.233 178.818 461.57 179.939 461.57 181.061V182.518H443.406V181.061H443.518ZM440.491 185.546H464.709V188.573H440.491V185.546ZM467.624 200.682C467.624 204.046 464.933 206.736 461.57 206.736H443.406C440.042 206.736 437.352 204.046 437.352 200.682V191.6H467.624V200.682Z" fill="white"/>
</g>
<path d="M135 231.5C135 270.418 103.418 302 64.5 302C25.5824 302 -6 270.418 -6 231.5C-6 192.582 25.5824 161 64.5 161C103.418 161 135 192.582 135 231.5Z" fill="#FFC135"/>
<path fill-rule="evenodd" clip-rule="evenodd" d="M104.029 228.24V221.72C104.029 205.419 90.7848 192.175 74.4842 192.175H54.7198C38.4192 192.175 25.175 205.419 25.175 221.72V228.24C21.5073 228.24 18.6547 231.093 18.6547 234.76V244.541C18.6547 248.208 21.5073 251.061 25.175 251.061V260.841C25.175 266.343 29.6576 270.622 34.9553 270.622H94.0449C99.5463 270.622 103.825 266.139 103.825 260.841V251.061C107.493 251.061 110.345 248.208 110.345 244.541V234.76C110.549 231.296 107.493 228.24 104.029 228.24ZM74.4842 208.679C74.4842 206.846 75.9105 205.419 77.7443 205.419C79.5781 205.419 81.0044 206.846 81.0044 208.679C81.0044 210.513 79.5781 211.939 77.7443 211.939C75.9105 211.939 74.4842 210.513 74.4842 208.679ZM61.24 215.2C61.24 213.366 62.6663 211.939 64.5001 211.939C66.3339 211.939 67.7602 213.366 67.7602 215.2C67.7602 217.033 66.3339 218.46 64.5001 218.46C62.6663 218.46 61.24 217.033 61.24 215.2ZM48.1995 208.679C48.1995 206.846 49.6258 205.419 51.4596 205.419C53.2934 205.419 54.7198 206.846 54.7198 208.679C54.7198 210.513 53.2934 211.939 51.4596 211.939C49.6258 211.939 48.1995 210.513 48.1995 208.679ZM31.6952 221.72C31.6952 209.087 42.0868 198.695 54.7198 198.695H74.4842C87.1172 198.695 97.5088 209.087 97.5088 221.72V228.24H31.8989V221.72H31.6952ZM97.305 261.045C97.305 262.879 95.8787 264.305 94.0449 264.305H34.9553C33.1215 264.305 31.6952 262.879 31.6952 261.045V251.265H97.305V261.045ZM100.769 244.744H25.175V234.964H33.9365L42.9018 241.077C43.7169 241.688 44.9394 241.892 45.9582 241.484L61.8513 235.168H103.825V244.948H100.769V244.744Z" fill="white"/>
<g filter="url(#filter1_f_605_1549)">
<path d="M391 251.5C391 275.517 371.517 295 347.5 295C323.483 295 304 275.517 304 251.5C304 227.483 323.483 208 347.5 208C371.639 208.123 391 227.606 391 251.5Z" fill="#F7914D"/>
<path fill-rule="evenodd" clip-rule="evenodd" d="M347.623 225.4C337.452 225.277 327.649 231.772 323.606 241.084C319.44 250.397 321.4 262.038 328.385 269.39C335.124 276.742 346.152 279.683 355.587 276.497C365.635 273.311 373.11 263.753 373.6 253.215C374.335 243.167 368.699 232.997 359.631 228.341C356.078 226.38 351.789 225.4 347.623 225.4ZM350.073 229.934C355.22 230.546 360.121 232.997 363.675 236.918C361.224 236.918 359.876 237.286 357.058 236.673C355.097 235.938 354.73 236.306 353.014 234.1C351.666 232.507 350.686 231.159 349.461 229.934H350.073ZM343.456 230.179C346.397 231.894 348.971 234.467 349.706 237.776C348.358 239.491 347.745 240.349 344.927 240.594C338.187 240.962 331.325 243.045 326.179 247.579C327.649 238.879 334.756 231.649 343.456 230.179ZM354.117 240.594C356.935 240.472 358.528 244.27 356.445 246.231C354.607 248.191 350.931 246.966 350.931 244.27C350.686 242.31 352.279 240.594 354.117 240.594ZM366.616 240.962C369.066 245.373 369.924 250.765 368.944 255.789C366.983 252.358 364.287 249.172 361.224 246.598C361.347 244.27 360.979 243.167 361.959 242.065C362.204 241.697 362.817 241.452 363.675 241.207C364.655 241.084 365.635 240.962 366.616 240.962ZM346.642 244.883C346.275 247.334 347.99 249.539 348.848 250.765C345.662 257.749 344.559 265.591 345.172 273.189C335.737 272.331 327.527 264.489 326.056 255.176C326.179 252.48 329.365 250.765 331.325 249.172C335.859 246.231 341.251 245.006 346.642 244.883ZM358.528 250.152C362.082 253.338 365.268 257.137 366.861 261.793C363.552 268.287 356.69 272.821 349.461 273.311C348.725 265.837 349.828 258.239 353.259 251.5C355.097 251.745 357.058 251.132 358.528 250.152Z" fill="white"/>
</g>
<path d="M464.2 331.1C464.2 353.8 445.8 372.2 423.1 372.2C400.4 372.2 382 353.8 382 331.1C382 308.4 400.4 290 423.1 290C445.8 290 464.2 308.4 464.2 331.1Z" fill="#625FAA"/>
<path fill-rule="evenodd" clip-rule="evenodd" d="M422.3 326.6C422.3 326.5 422.2 326.5 422.3 326.6C421.7 323.4 419.8 320.6 417.1 318.9V306.3C417.1 305.3 416.3 304.5 415.3 304.5H407.1C406.1 304.5 405.3 305.3 405.3 306.3V318.9C402.6 320.6 400.7 323.4 400.1 326.5V326.6V326.7C400 327.3 399.9 327.9 399.9 328.5V342V352.6C399.9 355.4 402.2 357.7 405 357.7H417.2C420 357.7 422.3 355.4 422.3 352.6V342V328.5C422.3 327.9 422.2 327.3 422.1 326.7C422.3 326.6 422.3 326.6 422.3 326.6ZM403.5 328.6H418.9V340.2H403.5V328.6ZM407.9 321.5C408.5 321.2 408.9 320.6 408.9 319.9V308H413.5V319.9C413.5 320.6 413.9 321.2 414.5 321.5C416.1 322.3 417.4 323.5 418.1 325.1H404.3C405 323.6 406.3 322.3 407.9 321.5ZM417.3 354.2H405.1C404.2 354.2 403.5 353.5 403.5 352.6V343.7H418.9V352.6C418.9 353.5 418.2 354.2 417.3 354.2ZM446.1 333.7C446.1 333.6 446.1 333.6 446.1 333.5L445.8 330.7V330.6L444.3 316.9C444.2 316 443.4 315.3 442.5 315.3H428.3C427.4 315.3 426.6 316 426.5 316.9L424.7 333.6C424.7 333.7 424.7 333.7 424.7 333.8C424.7 339.1 428.6 343.4 433.6 344.3V354.3H428.9C427.9 354.3 427.1 355.1 427.1 356.1C427.1 357.1 427.9 357.9 428.9 357.9H441.8C442.8 357.9 443.6 357.1 443.6 356.1C443.6 355.1 442.8 354.3 441.8 354.3H437.1V344.3C442.3 343.3 446.1 338.9 446.1 333.7ZM441 318.8L442.2 329.8C441.1 330.5 438.8 331.7 436.5 330.2C433.7 328.4 431 328.4 429 328.7L430 318.8H441ZM428.4 333.8L428.5 332.4C429.7 332 432.1 331.7 434.5 333.2C435.9 334.1 437.4 334.5 438.8 334.5C440.2 334.5 441.5 334.1 442.6 333.7V333.9C442.5 337.8 439.4 340.9 435.5 340.9C431.6 340.8 428.4 337.6 428.4 333.8Z" fill="white"/>
<path d="M740 431.5C740 468.32 710.32 498 673.5 498C636.679 498 607 468.32 607 431.5C607 394.68 636.679 365 673.5 365C710.32 365 740 394.68 740 431.5Z" fill="#30BFC7"/>
<path d="M692.691 445.559C690.237 444.22 688.228 442.435 686.443 440.203C684.658 437.972 683.319 435.517 682.649 432.616C681.98 430.607 680.864 428.822 679.302 427.706C677.74 426.591 675.732 425.921 673.723 425.921C671.715 425.921 669.706 426.591 668.144 427.706C666.582 428.822 665.243 430.607 664.797 432.616V432.839C663.904 435.517 662.789 437.972 661.003 440.203C659.218 442.435 656.987 444.22 654.532 445.559C652.747 446.451 651.408 448.237 650.738 450.022C650.069 451.807 650.292 454.039 651.185 455.824C652.077 457.609 653.639 459.171 655.425 459.841C657.21 460.51 659.441 460.51 661.226 459.841C665.243 458.279 669.483 457.386 673.723 457.386C677.963 457.386 682.203 458.279 686.22 459.841H686.443C688.228 460.51 690.46 460.51 692.245 459.841C694.03 459.171 695.592 457.832 696.485 455.824C697.378 454.039 697.377 451.807 696.931 450.022C696.262 448.237 695.146 446.451 693.138 445.559H692.691ZM693.807 434.401C694.7 435.517 696.039 436.633 697.377 437.302C701.394 439.534 704.295 443.104 705.634 447.121C706.973 451.138 706.75 455.824 704.742 459.841C702.733 464.081 699.386 466.982 695.369 468.544C691.352 470.106 686.889 470.106 682.872 468.321H682.649C679.748 467.205 676.847 466.535 673.723 466.535C670.599 466.535 667.698 467.205 664.797 468.321C660.557 470.106 656.094 470.106 652.077 468.544C648.06 466.982 644.713 464.081 642.705 459.841C640.696 455.601 640.473 451.138 641.812 447.121C643.151 443.104 646.052 439.534 650.069 437.302C651.408 436.633 652.747 435.517 653.639 434.178C654.532 433.062 655.201 431.723 655.871 430.161C655.871 429.938 656.094 429.715 656.094 429.269C657.21 425.475 659.664 422.351 662.789 419.896C665.913 417.441 669.93 416.102 673.946 416.102C678.186 416.102 681.98 417.441 685.104 419.896C688.228 422.351 690.683 425.698 691.799 429.715C692.022 431.723 692.691 433.062 693.807 434.401Z" fill="white"/>
<path d="M714.114 421.235C714.114 426.367 709.874 430.607 704.742 430.607C699.609 430.607 695.369 426.367 695.369 421.235C695.369 416.102 699.609 411.862 704.742 411.862C710.097 411.862 714.114 416.102 714.114 421.235Z" fill="white"/>
<path d="M651.631 421.235C651.631 426.367 647.391 430.607 642.258 430.607C637.126 430.607 632.886 426.367 632.886 421.235C632.886 416.102 637.126 411.862 642.258 411.862C647.391 411.862 651.631 416.102 651.631 421.235Z" fill="white"/>
<path d="M670.376 402.49C670.376 407.622 666.136 411.862 661.003 411.862C655.871 411.862 651.631 407.622 651.631 402.49C651.631 397.357 655.871 393.117 661.003 393.117C666.136 393.117 670.376 397.357 670.376 402.49Z" fill="white"/>
<path d="M695.369 402.49C695.369 407.622 691.129 411.862 685.996 411.862C680.864 411.862 676.624 407.622 676.624 402.49C676.624 397.357 680.864 393.117 685.996 393.117C691.129 393.117 695.369 397.357 695.369 402.49Z" fill="white"/>
<path d="M683.2 677.1C683.2 692.6 670.6 705.2 655.1 705.2C639.6 705.2 627 692.6 627 677.1C627 661.6 639.6 649 655.1 649C670.6 649 683.2 661.6 683.2 677.1Z" fill="#F7914D"/>
<path fill-rule="evenodd" clip-rule="evenodd" d="M656.5 660.4C656.4 660.4 656.3 660.4 656.3 660.4C652.4 660.4 648.7 661.5 645.9 663.6C643.1 665.7 641.2 669 641.2 672.9C641.2 674.8 641.8 676.7 642.9 678C640.2 680.1 638.5 683.2 638.5 686.8C638.5 688.5 639 690.1 639.9 691.4C640.8 692.7 642.2 693.7 643.9 693.7H666.5C668.2 693.7 669.6 692.7 670.5 691.4C671.4 690.1 671.9 688.5 671.9 686.8C671.9 683.8 670.7 681.3 668.9 679.3C669.6 678.9 670.2 678.2 670.7 677.5C671.5 676.2 672 674.6 672 672.9C672 669 670.2 665.8 667.3 663.6C664.5 661.5 660.9 660.4 656.9 660.4C656.7 660.4 656.6 660.4 656.5 660.4ZM655.1 663.3V667.4C655.1 668.2 655.7 668.8 656.5 668.8C657.3 668.8 657.9 668.2 657.9 667.4V663.3C659.4 663.4 660.8 663.7 662.1 664.2V667.5C662.1 668.3 662.7 668.9 663.5 668.9C664.3 668.9 664.9 668.3 664.9 667.5V665.6C665.1 665.7 665.3 665.9 665.5 666C667.7 667.7 669.1 670 669.1 673.1C669.1 674.2 668.7 675.4 668.3 676.2C667.8 677 667.3 677.3 666.9 677.3H666.1C663.2 675.5 659.5 674.6 655.5 674.5C655.4 674.5 655.3 674.5 655.2 674.5C655.1 674.5 655 674.5 654.9 674.5C651.4 674.5 648.2 675.3 645.4 676.6C644.7 675.9 644 674.6 644 673.1C644 670 645.3 667.7 647.6 666C647.8 665.9 648 665.7 648.2 665.6V667.5C648.2 668.3 648.8 668.9 649.6 668.9C650.4 668.9 651 668.3 651 667.5V664.2C652.2 663.7 653.6 663.4 655.1 663.3ZM653.7 677.2V681.3C653.7 682.1 654.3 682.7 655.1 682.7C655.9 682.7 656.5 682.1 656.5 681.3V677.2C658 677.3 659.4 677.5 660.7 677.9V681.3C660.7 682.1 661.3 682.7 662.1 682.7C662.9 682.7 663.5 682.1 663.5 681.3V678.9C664 679.1 664.5 679.4 664.9 679.7L665 679.8C665 679.8 665.1 679.8 665.1 679.9C667.6 681.6 669 683.9 669 686.9C669 688 668.6 689.1 668.1 689.9C667.6 690.7 666.9 691 666.4 691H643.8C643.3 691 642.7 690.6 642.1 689.9C641.6 689.1 641.2 688 641.2 686.9C641.2 683.9 642.6 681.6 645.1 679.9C645.3 679.8 645.5 679.6 645.7 679.5H645.8C646.1 679.3 646.4 679.2 646.7 679V681.4C646.7 682.2 647.3 682.8 648.1 682.8C648.9 682.8 649.5 682.2 649.5 681.4V678C649.6 678 649.8 677.9 649.9 677.9C650 677.9 650 677.9 650.1 677.8C650.4 677.7 650.7 677.7 651.1 677.6C651.2 677.6 651.4 677.6 651.5 677.5C651.8 677.5 652.1 677.4 652.4 677.4C652.5 677.4 652.7 677.4 652.8 677.4C653.1 677.2 653.4 677.2 653.7 677.2Z" fill="white"/>
<path d="M122.2 565.6C122.2 584.7 106.7 600.2 87.6 600.2C68.5 600.2 53 584.7 53 565.6C53 546.5 68.5 531 87.6 531C106.7 531 122.2 546.5 122.2 565.6Z" fill="#A7CE41"/>
<path d="M102.7 574.2C99.1 574.2 96.2 577.1 96.2 580.7C96.2 584.3 99.1 587.2 102.7 587.2C106.3 587.2 109.2 584.3 109.2 580.7C109.2 577.1 106.3 574.2 102.7 574.2ZM102.7 582.8C101.5 582.8 100.5 581.8 100.5 580.6C100.5 579.4 101.5 578.4 102.7 578.4C103.9 578.4 104.9 579.4 104.9 580.6C104.9 581.9 103.9 582.8 102.7 582.8ZM81.2 574.2C77.6 574.2 74.7 577.1 74.7 580.7C74.7 584.3 77.6 587.2 81.2 587.2C84.8 587.2 87.7 584.3 87.7 580.7C87.6 577.1 84.7 574.2 81.2 574.2ZM81.2 582.8C80 582.8 79 581.8 79 580.6C79 579.4 80 578.4 81.2 578.4C82.4 578.4 83.4 579.4 83.4 580.6C83.3 581.9 82.3 582.8 81.2 582.8ZM109.2 558C109.2 550.3 102.9 544 95.2 544H94.1C92.9 544 91.9 545 91.9 546.2V557H77.9L75.2 549.8C74.9 549 74.1 548.4 73.2 548.4H68.2C67 548.4 66 549.4 66 550.6C66 551.8 67 552.8 68.2 552.8H71.7L74.4 560.1L75.5 563V563.2C77.6 568.7 82.8 572.3 88.7 572.2H95.2C98.9 572.2 102.5 570.7 105.1 568.1C107.7 565.3 109.2 561.8 109.2 558ZM102 564.9C100.2 566.7 97.7 567.8 95.1 567.7H88.6C84.7 567.7 81.1 565.3 79.6 561.7V561.6L79.4 561.3H104.1C103.8 562.6 103.1 563.9 102 564.9ZM96.2 557V548.4C100.7 548.9 104.4 552.5 104.8 557H96.2Z" fill="white"/>
<path d="M798.996 560.724C799.341 586.929 778.48 608.651 752.276 608.996C726.071 609.341 704.349 588.48 704.004 562.276C703.659 536.071 724.52 514.349 750.724 514.004C776.929 513.659 798.651 534.52 798.996 560.724Z" fill="#90B541"/>
<path d="M746.414 562.276C744.69 562.276 743.311 563.655 743.311 565.379C743.311 567.103 744.69 568.482 746.414 568.482C748.138 568.482 749.517 567.103 749.517 565.379C749.345 563.655 747.966 562.276 746.414 562.276ZM746.414 548.829C744.69 548.829 743.311 550.208 743.311 551.932C743.311 553.656 744.69 555.035 746.414 555.035C748.138 555.035 749.517 553.656 749.517 551.932C749.345 550.035 747.966 548.829 746.414 548.829ZM756.931 554.863C755.207 554.863 753.827 556.242 753.827 557.966V561.069C753.827 562.793 755.207 564.172 756.931 564.172C758.655 564.172 760.034 562.793 760.034 561.069V557.966C760.034 556.242 758.655 554.863 756.931 554.863ZM782.618 550.553C780.549 549.346 777.963 549.001 775.722 549.691C774.515 550.035 773.481 550.553 772.446 551.415L737.277 531.071C736.415 530.554 735.208 530.554 734.174 531.071C733.14 531.589 732.622 532.623 732.622 533.657V573.482C729.002 574.688 726.588 577.964 726.588 581.757V581.929C726.588 586.929 730.554 590.894 735.381 591.066H737.105C757.275 591.066 775.894 580.205 785.893 562.62C788.307 558.31 786.928 552.966 782.618 550.553ZM738.829 538.829L768.826 556.069C762.102 566.068 750.897 572.447 738.829 572.964V538.829ZM780.721 559.69C771.584 575.895 754.172 585.549 735.725 585.032C734.001 585.032 732.622 583.653 732.622 581.929C732.622 581.067 732.967 580.377 733.484 579.688C734.002 579.171 734.863 578.826 735.553 578.826H737.105C752.965 578.826 767.447 570.378 775.205 556.586C775.55 555.897 776.239 555.38 776.929 555.207C777.618 555.035 778.48 555.035 779.17 555.552C780.894 556.414 781.583 558.138 780.721 559.69Z" fill="white"/>
<g filter="url(#filter2_f_605_1549)">
<path d="M432.9 119.2C432.9 130.9 423.4 140.4 411.7 140.4C400 140.4 390.5 130.9 390.5 119.2C390.5 107.5 400 98 411.7 98C423.5 98 432.9 107.5 432.9 119.2Z" fill="#FFCC00"/>
<path fill-rule="evenodd" clip-rule="evenodd" d="M422.2 126.2L417.2 113.9V109.6C417.2 107.8 415.8 106.4 414 106.4H409.7C407.9 106.4 406.5 107.8 406.5 109.6V113.9L401.5 126.2C401.3 126.7 401.2 127.3 401.2 127.8C401.2 130.2 403.1 132.1 405.5 132.1H418.4C420.8 132.1 422.7 130.2 422.7 127.8C422.5 127.2 422.4 126.7 422.2 126.2ZM406.4 123.5H417.1V125.6H406.4V123.5ZM408.5 119.2H414.9V121.3H408.5V119.2ZM408.5 109.6C408.5 109 409 108.5 409.6 108.5H413.9C414.5 108.5 415 109 415 109.6V111.7H408.6V109.6H408.5ZM418.2 130H405.3C404.1 130 403.2 129 403.2 127.9C403.2 127.6 403.3 127.3 403.4 127.1L408.8 114H414.9L420.3 127.1C420.4 127.4 420.5 127.6 420.5 127.9C420.3 129 419.4 130 418.2 130Z" fill="white"/>
</g>
<g filter="url(#filter3_f_605_1549)">
<path d="M52.6 483.8C52.6 497.5 41.5 508.6 27.8 508.6C14.1 508.6 3 497.5 3 483.8C3 470.1 14.1 459 27.8 459C41.5 459 52.6 470.1 52.6 483.8Z" fill="#00CCFF"/>
<path d="M14.9 482.6H16.8L19.8 499C19.9 499.8 20.6 500.3 21.4 500.3H34.3C35.1 500.3 35.7 499.7 35.9 499L38.9 482.6H40.8C41.7 482.6 42.4 481.9 42.4 481C42.4 480.1 41.7 479.4 40.8 479.4H39.1C38.4 474.5 34.5 470.6 29.6 469.9V468.8L30.7 467.7C31.3 467.1 31.3 466.1 30.7 465.4C30.1 464.8 29.1 464.8 28.4 465.4C27.2 466.8 26.3 467.1 26.3 468.1V469.8C21.4 470.5 17.5 474.4 16.8 479.3H15.1C14.2 479.3 13.5 480 13.5 480.9C13.3 481.9 14 482.6 14.9 482.6ZM31 489C31 490.8 29.6 492.2 27.8 492.2C26 492.2 24.6 490.8 24.6 489C24.6 487.2 26 485.8 27.8 485.8C29.5 485.8 31 487.2 31 489ZM32.8 497H22.6L20 482.5H35.4L32.8 497ZM27.8 472.9C31.6 472.9 34.9 475.6 35.7 479.3H20C20.7 475.6 23.9 472.9 27.8 472.9Z" fill="white"/>
</g>
<g filter="url(#filter4_f_605_1549)">
<path d="M758.6 251.8C758.6 262.2 750.2 270.6 739.8 270.6C729.4 270.6 721 262.2 721 251.8C721 241.5 729.3 233.1 739.5 233H740.1C750.3 233.1 758.6 241.5 758.6 251.8Z" fill="#F7914D"/>
<path d="M739.7 250.3L751.8 248C752.5 247.9 753.2 248.3 753.3 249C753.4 249.7 753 250.4 752.3 250.5L741 252.6L740.1 257.5L740.8 257.9C740.9 258 741 258 741.1 258.1C741.9 258.9 742.3 260 742.3 261.1C742.3 262.2 741.9 263.3 741.1 264.1C740.3 264.9 739.2 265.3 738.1 265.3C737 265.3 735.9 264.9 735.1 264.1C734.3 263.3 733.9 262.2 733.9 261.1C733.9 260 734.3 258.9 735.1 258.1C735.6 257.6 736.2 257.2 736.8 257.1C737 257 737.3 257 737.6 256.9L738.3 253.1L734.5 253.8C734.4 254.7 734 255.6 733.3 256.3C732.5 257.1 731.4 257.5 730.3 257.5C729.2 257.5 728.1 257.1 727.3 256.3C726.5 255.5 726.1 254.4 726.1 253.3C726.1 252.2 726.5 251.1 727.3 250.3C728.1 249.5 729.2 249.1 730.3 249.1C731.4 249.1 732.5 249.5 733.3 250.3C733.6 250.6 733.9 250.9 734 251.3L739.7 250.3ZM741 239.2C741.1 238.5 741.8 238.1 742.5 238.2C743.2 238.3 743.6 239 743.5 239.7L742.1 247.3C742 248 741.3 248.4 740.6 248.3C739.9 248.2 739.5 247.5 739.6 246.8L741 239.2ZM732 253.4C732 253 731.8 252.5 731.5 252.2C731.2 251.9 730.7 251.7 730.3 251.7C729.9 251.7 729.4 251.9 729.1 252.2C728.8 252.5 728.6 253 728.6 253.4C728.6 253.8 728.8 254.3 729.1 254.6C729.4 254.9 729.9 255.1 730.3 255.1C730.7 255.1 731.2 254.9 731.5 254.6C731.9 254.2 732 253.8 732 253.4ZM739.8 261.2C739.8 260.8 739.7 260.4 739.4 260.1L738.2 259.5C738 259.5 737.8 259.5 737.5 259.6C737.2 259.7 737 259.8 736.8 260C736.5 260.3 736.3 260.8 736.3 261.2C736.3 261.6 736.5 262.1 736.8 262.4C737.1 262.7 737.6 262.9 738 262.9C738.4 262.9 738.9 262.7 739.2 262.4C739.7 262 739.8 261.6 739.8 261.2Z" fill="white"/>
</g>
<path d="M651 101.503C651 114.999 639.996 126.003 626.5 126.003C613.004 126.003 602 114.999 602 101.503C602 88.0071 613.004 77.0029 626.5 77.0029C640.203 76.7953 651 87.7995 651 101.503Z" fill="#65B32E"/>
<path d="M622.347 114.999H629.822C635.013 114.999 639.165 110.846 639.165 105.655V103.787H641.034C644.148 103.787 646.64 101.295 646.64 98.1809C646.64 95.0665 644.148 92.575 641.034 92.575H639.165V90.7063C639.165 89.6681 638.335 88.8376 637.297 88.8376H615.081C614.042 88.8376 613.212 89.6681 613.212 90.7063V105.655C613.004 110.846 617.157 114.999 622.347 114.999ZM638.958 96.5199H640.826C641.864 96.5199 642.695 97.3504 642.695 98.3885C642.695 99.4267 641.864 100.257 640.826 100.257H638.958V96.5199ZM616.741 92.7826H635.22V105.863C635.22 108.978 632.729 111.469 629.614 111.469H622.14C619.025 111.469 616.534 108.978 616.534 105.863V92.7826H616.741Z" fill="white"/>
<path d="M560.2 32.1C560.2 49.8 545.8 64.2 528.1 64.2C510.4 64.2 496 49.8 496 32.1C496 14.4 510.4 0 528.1 0C545.8 0 560.2 14.3 560.2 32.1Z" fill="#F05152"/>
<path fill-rule="evenodd" clip-rule="evenodd" d="M547.4 29.5999V26.3999C547.4 18.3999 540.9 11.8999 532.9 11.8999H523.2C515.2 11.8999 508.7 18.3999 508.7 26.3999V29.5999C506.9 29.5999 505.5 30.9999 505.5 32.7999V37.5999C505.5 39.3999 506.9 40.7999 508.7 40.7999V45.5999C508.7 48.2999 510.9 50.3999 513.5 50.3999H542.5C545.2 50.3999 547.3 48.1999 547.3 45.5999V40.8999C549.1 40.8999 550.5 39.4999 550.5 37.6999V32.8999C550.6 30.9999 549.2 29.5999 547.4 29.5999ZM532.9 19.8999C532.9 18.9999 533.6 18.2999 534.5 18.2999C535.4 18.2999 536.1 18.9999 536.1 19.8999C536.1 20.7999 535.4 21.4999 534.5 21.4999C533.6 21.4999 532.9 20.7999 532.9 19.8999ZM526.4 23.0999C526.4 22.1999 527.1 21.4999 528 21.4999C528.9 21.4999 529.6 22.1999 529.6 23.0999C529.6 23.9999 528.9 24.6999 528 24.6999C527.2 24.6999 526.4 23.9999 526.4 23.0999ZM520 19.8999C520 18.9999 520.7 18.2999 521.6 18.2999C522.5 18.2999 523.2 18.9999 523.2 19.8999C523.2 20.7999 522.5 21.4999 521.6 21.4999C520.7 21.4999 520 20.7999 520 19.8999ZM511.9 26.3999C511.9 20.1999 517 15.0999 523.2 15.0999H532.9C539.1 15.0999 544.2 20.1999 544.2 26.3999V29.5999H512V26.3999H511.9ZM544.2 45.6999C544.2 46.5999 543.5 47.2999 542.6 47.2999H513.6C512.7 47.2999 512 46.5999 512 45.6999V40.8999H544.2V45.6999V45.6999ZM545.8 37.5999H508.7V32.7999H513L517.4 35.7999C517.8 36.0999 518.4 36.1999 518.9 35.9999L526.7 32.8999H547.3V37.6999H545.8V37.5999Z" fill="white"/>
<path d="M181.2 436.6C181.2 466.177 157.177 490.2 127.6 490.2C98.0228 490.2 74 466.177 74 436.6C74 407.023 98.0228 383 127.6 383C157.177 383 181.2 407.023 181.2 436.6Z" fill="#FF9999"/>
<path fill-rule="evenodd" clip-rule="evenodd" d="M139.125 425.352V419.104C139.125 415.91 136.487 413.272 133.293 413.272H130.377V407.439H139.125C140.792 407.439 142.041 408.689 142.041 410.356H147.874C147.874 405.495 143.986 401.607 139.125 401.607H110.104V407.439H124.684V413.272H121.768C118.574 413.272 115.936 415.91 115.936 419.104V425.352C110.937 426.602 107.188 431.184 107.188 436.6V465.622C107.188 468.816 109.826 471.454 113.02 471.454H142.041C145.235 471.454 147.874 468.816 147.874 465.622V436.6C147.874 431.184 144.124 426.602 139.125 425.352ZM121.768 419.104H133.432V424.936H121.768V419.104ZM113.02 445.348H130.516V454.096H113.02V445.348ZM142.041 465.622H113.02V459.79H136.209V439.516H113.02V436.6C113.02 433.406 115.658 430.768 118.852 430.768H136.348C139.542 430.768 142.18 433.406 142.18 436.6V465.622H142.041Z" fill="white"/>
<path d="M353.2 76.6C353.2 101.22 333.22 121.2 308.6 121.2C283.98 121.2 264 101.22 264 76.6C264 51.9798 283.98 32 308.6 32C333.22 32 353.2 51.9798 353.2 76.6Z" fill="#00CCFF"/>
<path fill-rule="evenodd" clip-rule="evenodd" d="M338.247 89.7478C337.861 88.9744 337.216 88.5877 336.443 88.5877H323.939C324.326 83.045 324.584 68.608 315.818 59.8427C305.12 49.1438 285.655 51.8507 284.753 51.9796C283.851 52.1085 283.206 52.753 283.077 53.6554C282.949 54.4288 280.242 73.8929 290.94 84.5918C299.577 93.2282 314.143 93.0993 319.686 92.7126V105.216C319.686 105.732 319.943 106.247 320.201 106.505C320.33 106.634 320.588 106.763 320.846 106.892C321.619 107.278 322.392 107.021 323.037 106.505L337.603 91.9392C338.376 91.2947 338.505 90.5212 338.247 89.7478ZM297.901 63.0652C296.87 64.0964 295.323 64.0964 294.292 63.0652C293.261 62.034 293.261 60.4871 294.292 59.4559C295.323 58.4247 296.87 58.4247 297.901 59.4559C298.932 60.4871 298.932 62.034 297.901 63.0652ZM310.791 77.6311H303.573C302.542 77.6311 301.639 78.5334 301.639 79.5646C301.639 80.0802 301.897 80.5958 302.155 80.8536C302.542 81.2403 303.057 81.3692 303.444 81.3692H310.791C311.823 81.3692 312.725 80.4669 312.725 79.4357C312.725 78.5334 311.823 77.6311 310.791 77.6311ZM312.725 72.2172C312.725 71.186 311.823 70.2837 310.791 70.2837H303.444C302.413 70.2837 301.51 71.186 301.51 72.2172C301.51 72.7328 301.768 73.2484 302.026 73.5063C302.413 73.893 302.928 74.0219 303.315 74.0219H310.662C311.823 74.1508 312.725 73.2484 312.725 72.2172ZM286.944 55.7178C290.038 55.46 297.514 55.2022 304.346 57.5224C303.186 61.1317 301.253 64.4831 298.417 67.19C295.71 69.897 292.358 71.8305 288.749 72.9906C286.429 66.1588 286.687 58.8114 286.944 55.7178ZM293.776 81.8849C292.229 80.338 291.069 78.5334 290.167 76.7288C294.292 75.4398 298.03 73.1195 301.124 70.0259C304.217 66.9322 306.409 63.1941 307.827 59.0692C309.76 59.9716 311.565 61.1317 312.983 62.6785C320.717 70.4126 320.201 84.334 319.943 88.8455C315.432 89.2323 301.639 89.619 293.776 81.8849ZM323.681 100.576V92.5837H331.673L323.681 100.576Z" fill="white"/>
<defs>
<filter id="filter0_f_605_1549" x="421" y="160" width="63.2" height="63.2" filterUnits="userSpaceOnUse" color-interpolation-filters="sRGB">
<feFlood flood-opacity="0" result="BackgroundImageFix"/>
<feBlend mode="normal" in="SourceGraphic" in2="BackgroundImageFix" result="shape"/>
<feGaussianBlur stdDeviation="1" result="effect1_foregroundBlur_605_1549"/>
</filter>
<filter id="filter1_f_605_1549" x="299" y="203" width="97" height="97" filterUnits="userSpaceOnUse" color-interpolation-filters="sRGB">
<feFlood flood-opacity="0" result="BackgroundImageFix"/>
<feBlend mode="normal" in="SourceGraphic" in2="BackgroundImageFix" result="shape"/>
<feGaussianBlur stdDeviation="2.5" result="effect1_foregroundBlur_605_1549"/>
</filter>
<filter id="filter2_f_605_1549" x="387.5" y="95" width="48.4" height="48.3999" filterUnits="userSpaceOnUse" color-interpolation-filters="sRGB">
<feFlood flood-opacity="0" result="BackgroundImageFix"/>
<feBlend mode="normal" in="SourceGraphic" in2="BackgroundImageFix" result="shape"/>
<feGaussianBlur stdDeviation="1.5" result="effect1_foregroundBlur_605_1549"/>
</filter>
<filter id="filter3_f_605_1549" x="-2" y="454" width="59.6" height="59.6" filterUnits="userSpaceOnUse" color-interpolation-filters="sRGB">
<feFlood flood-opacity="0" result="BackgroundImageFix"/>
<feBlend mode="normal" in="SourceGraphic" in2="BackgroundImageFix" result="shape"/>
<feGaussianBlur stdDeviation="2.5" result="effect1_foregroundBlur_605_1549"/>
</filter>
<filter id="filter4_f_605_1549" x="717" y="229" width="45.6" height="45.6" filterUnits="userSpaceOnUse" color-interpolation-filters="sRGB">
<feFlood flood-opacity="0" result="BackgroundImageFix"/>
<feBlend mode="normal" in="SourceGraphic" in2="BackgroundImageFix" result="shape"/>
<feGaussianBlur stdDeviation="2" result="effect1_foregroundBlur_605_1549"/>
</filter>
</defs>
</svg>
