<svg width="24" height="24" viewBox="0 0 24 24" fill="none" xmlns="http://www.w3.org/2000/svg">
<path d="M21.0451 13.4516L6.47914 13.4516L11.5835 18.5195C12.153 19.085 12.1552 20.0041 11.5883 20.5724C11.0215 21.1407 10.1002 21.1428 9.53064 20.5773L1.92814 13.0289L1.92683 13.0275C1.35874 12.462 1.35692 11.5399 1.92669 10.9725L1.928 10.9711L9.5305 3.42271C10.1 2.8573 11.0213 2.85926 11.5882 3.42764C12.155 3.99588 12.1529 4.91496 11.5833 5.48051L6.47914 10.5484L21.0451 10.5484C21.8487 10.5484 22.5001 11.1983 22.5001 12C22.5001 12.8017 21.8487 13.4516 21.0451 13.4516Z" fill="#068880"/>
</svg>
