<svg width="24" height="24" viewBox="0 0 24 24" fill="none" xmlns="http://www.w3.org/2000/svg">
<path d="M2.95491 13.4516L17.5209 13.4516L12.4165 18.5195C11.847 19.085 11.8448 20.0041 12.4117 20.5724C12.9785 21.1407 13.8998 21.1428 14.4694 20.5773L22.0719 13.0289L22.0732 13.0275C22.6413 12.462 22.6431 11.5399 22.0733 10.9725L22.072 10.9711L14.4695 3.42271C13.9 2.8573 12.9787 2.85926 12.4118 3.42764C11.845 3.99588 11.8471 4.91496 12.4167 5.48051L17.5209 10.5484L2.95491 10.5484C2.15133 10.5484 1.49994 11.1983 1.49994 12C1.49994 12.8017 2.15133 13.4516 2.95491 13.4516Z" fill="#068880"/>
</svg>
