<svg width="140" height="140" viewBox="0 0 140 140" fill="none" xmlns="http://www.w3.org/2000/svg">
<path fill-rule="evenodd" clip-rule="evenodd" d="M71.8599 61.4633H112.898V129.548H71.8599V61.4633Z" fill="#53B4ED"/>
<path fill-rule="evenodd" clip-rule="evenodd" d="M71.8599 61.4633H57.0526V129.548H71.8599V61.4633Z" fill="#4288C7"/>
<path fill-rule="evenodd" clip-rule="evenodd" d="M71.8599 61.4634H112.898L103.536 49.6638H62.4874L71.8599 61.4634Z" fill="white"/>
<path fill-rule="evenodd" clip-rule="evenodd" d="M62.4874 49.6638L57.0526 61.4634H71.8599L62.4874 49.6638Z" fill="#C5C7CB"/>
<path fill-rule="evenodd" clip-rule="evenodd" d="M61.6978 45.0424H102.736L103.536 49.6635H62.4874L61.6978 45.0424Z" fill="#4288C7"/>
<path fill-rule="evenodd" clip-rule="evenodd" d="M93.6811 81.8019L96.983 83.5097L100.275 85.2175V88.6423V92.0671L96.983 93.7749L93.6811 95.4919L90.3792 93.7749L87.0876 92.0671V88.6423V85.2175L90.3792 83.5097L93.6811 81.8019Z" fill="white"/>
<path fill-rule="evenodd" clip-rule="evenodd" d="M89.0051 99.1633H97.4547V101.246H89.0051V99.1633Z" fill="white"/>
<path fill-rule="evenodd" clip-rule="evenodd" d="M31.7346 44.9512H47.2392C53.8532 44.9512 59.2675 49.7733 59.2675 55.6639V118.835C59.2675 124.726 53.8532 129.548 47.2392 129.548H31.7346C25.1206 129.548 19.7063 124.726 19.7063 118.835V55.6639C19.7063 49.7733 25.1206 44.9512 31.7346 44.9512Z" fill="#4A4F60"/>
<path fill-rule="evenodd" clip-rule="evenodd" d="M31.5295 17.1967H47.434V44.9512H31.5295V17.1967Z" fill="#3B3F4D"/>
<path fill-rule="evenodd" clip-rule="evenodd" d="M29.7248 20.7949H49.249V10H29.7248V20.7949Z" fill="#888888"/>
<path fill-rule="evenodd" clip-rule="evenodd" d="M19.7063 66.8424H59.2675V101.346H19.7063V66.8424Z" fill="#00DCAB"/>
<path fill-rule="evenodd" clip-rule="evenodd" d="M34.6776 80.5325H43.3631V82.6695H34.6776V80.5325Z" fill="white"/>
<path fill-rule="evenodd" clip-rule="evenodd" d="M29.5402 50.1932C31.6526 50.1932 33.3548 52.102 33.3548 54.4674C33.3548 56.8236 31.6526 58.7415 29.5402 58.7415C27.438 58.7415 25.7358 56.8236 25.7358 54.4674C25.7358 52.102 27.438 50.1932 29.5402 50.1932Z" fill="#888888"/>
<path fill-rule="evenodd" clip-rule="evenodd" d="M53.6687 66.8424H59.2675V101.346H53.6687V66.8424Z" fill="#00C69A"/>
<path fill-rule="evenodd" clip-rule="evenodd" d="M29.9196 84.8341H48.1313V86.9712H29.9196V84.8341Z" fill="white"/>
<path fill-rule="evenodd" clip-rule="evenodd" d="M3.89409 72.5049H20.4959C22.639 72.5049 24.5258 74.4867 24.3823 76.8977L22.1366 116.598C21.993 119.018 20.3831 121 18.2399 121H6.15005C4.00689 121 2.39696 119.018 2.2534 116.598L0.00769334 76.8977C-0.135868 74.4867 1.75093 72.5049 3.89409 72.5049Z" fill="#FFD36E"/>
<path fill-rule="evenodd" clip-rule="evenodd" d="M6.15004 121H18.2399V128.361H6.15004V121Z" fill="#FFAE00"/>
<path fill-rule="evenodd" clip-rule="evenodd" d="M4.86826 123.639H19.5217V129.548H4.86826V123.639Z" fill="#FF7100"/>
<path fill-rule="evenodd" clip-rule="evenodd" d="M9.27763 98.1314H15.1226V96.7067H9.27763V98.1314Z" fill="white"/>
<path fill-rule="evenodd" clip-rule="evenodd" d="M7.38058 107.602H17.0094V106.168H7.38058V107.602Z" fill="white"/>
<path d="M140 112.844H98.6852V129.548H140V112.844Z" fill="#FF576B"/>
<path d="M140 112.844H98.6852V115.548H140V112.844Z" fill="#FF8795"/>
<path d="M140 126.845H98.6852V129.548H140V126.845Z" fill="#E64E60"/>
</svg>
