<svg width="140" height="140" viewBox="0 0 140 140" fill="none" xmlns="http://www.w3.org/2000/svg">
<path d="M133.574 11.5637H6.42578V137.949H133.574V11.5637Z" fill="#F7F7F7"/>
<path d="M133.574 11.5637H125.371V137.949H133.574V11.5637Z" fill="#DEDEDE"/>
<path d="M135.215 1.99341H4.78516C3.275 1.99341 2.05078 3.21763 2.05078 4.72778V8.82935C2.05078 10.3395 3.275 11.5637 4.78516 11.5637H135.215C136.725 11.5637 137.949 10.3395 137.949 8.82935V4.72778C137.949 3.21763 136.725 1.99341 135.215 1.99341Z" fill="#4A4F60"/>
<path d="M135.215 1.99341H127.012C127.737 1.99341 128.432 2.28149 128.945 2.79429C129.458 3.30708 129.746 4.00258 129.746 4.72778V8.82935C129.746 9.55455 129.458 10.25 128.945 10.7628C128.432 11.2756 127.737 11.5637 127.012 11.5637H135.215C135.94 11.5637 136.636 11.2756 137.148 10.7628C137.661 10.25 137.949 9.55455 137.949 8.82935V4.72778C137.949 4.00258 137.661 3.30708 137.148 2.79429C136.636 2.28149 135.94 1.99341 135.215 1.99341Z" fill="#3B3F4D"/>
<path d="M135.215 38.9075H4.78516C3.275 38.9075 2.05078 40.1317 2.05078 41.6418V45.7434C2.05078 47.2536 3.275 48.4778 4.78516 48.4778H135.215C136.725 48.4778 137.949 47.2536 137.949 45.7434V41.6418C137.949 40.1317 136.725 38.9075 135.215 38.9075Z" fill="#4A4F60"/>
<path d="M135.215 38.9075H127.012C127.737 38.9075 128.432 39.1956 128.945 39.7084C129.458 40.2211 129.746 40.9166 129.746 41.6418V45.7434C129.746 46.4686 129.458 47.1641 128.945 47.6769C128.432 48.1897 127.737 48.4778 127.012 48.4778H135.215C135.94 48.4778 136.636 48.1897 137.148 47.6769C137.661 47.1641 137.949 46.4686 137.949 45.7434V41.6418C137.949 40.9166 137.661 40.2211 137.148 39.7084C136.636 39.1956 135.94 38.9075 135.215 38.9075Z" fill="#3B3F4D"/>
<path d="M135.215 75.8215H4.78516C3.275 75.8215 2.05078 77.0458 2.05078 78.5559V82.6575C2.05078 84.1676 3.275 85.3918 4.78516 85.3918H135.215C136.725 85.3918 137.949 84.1676 137.949 82.6575V78.5559C137.949 77.0458 136.725 75.8215 135.215 75.8215Z" fill="#4A4F60"/>
<path d="M135.215 75.8215H127.012C127.737 75.8215 128.432 76.1096 128.945 76.6224C129.458 77.1352 129.746 77.8307 129.746 78.5559V82.6575C129.746 83.3827 129.458 84.0782 128.945 84.591C128.432 85.1038 127.737 85.3918 127.012 85.3918H135.215C135.94 85.3918 136.636 85.1038 137.148 84.591C137.661 84.0782 137.949 83.3827 137.949 82.6575V78.5559C137.949 77.8307 137.661 77.1352 137.148 76.6224C136.636 76.1096 135.94 75.8215 135.215 75.8215Z" fill="#3B3F4D"/>
<path d="M93.7891 105.913H46.2083V137.949H93.7891V105.913Z" fill="#8CD0FF"/>
<path d="M70 140C69.4561 140 68.9345 139.784 68.5499 139.399C68.1653 139.015 67.9492 138.493 67.9492 137.949V105.913C67.9492 105.369 68.1653 104.848 68.5499 104.463C68.9345 104.079 69.4561 103.863 70 103.863C70.5439 103.863 71.0655 104.079 71.4501 104.463C71.8347 104.848 72.0508 105.369 72.0508 105.913V137.949C72.0508 138.493 71.8347 139.015 71.4501 139.399C71.0655 139.784 70.5439 140 70 140Z" fill="#66C1FF"/>
<path d="M133.574 48.4778H6.42578V75.8215H133.574V48.4778Z" fill="#B3E0FF"/>
<path d="M108.145 48.4778H82.7148V75.8215H108.145V48.4778Z" fill="#8CD0FF"/>
<path d="M57.2852 48.4778H31.8555V75.8215H57.2852V48.4778Z" fill="#8CD0FF"/>
<path d="M133.574 11.5637H6.42578V38.9075H133.574V11.5637Z" fill="#B3E0FF"/>
<path d="M108.145 11.5637H82.7148V38.9075H108.145V11.5637Z" fill="#8CD0FF"/>
<path d="M57.2852 11.5637H31.8555V38.9075H57.2852V11.5637Z" fill="#8CD0FF"/>
<path d="M123.03 114.45H104.467C103.561 114.45 102.826 115.184 102.826 116.091V126.273C102.826 127.179 103.561 127.914 104.467 127.914H123.03C123.937 127.914 124.671 127.179 124.671 126.273V116.091C124.671 115.184 123.937 114.45 123.03 114.45Z" fill="#8CD0FF"/>
<path d="M123.047 114.45H114.844C115.279 114.45 115.696 114.623 116.004 114.93C116.312 115.238 116.484 115.655 116.484 116.091V126.271C116.484 126.706 116.312 127.123 116.004 127.431C115.696 127.738 115.279 127.911 114.844 127.911H123.047C123.482 127.911 123.899 127.738 124.207 127.431C124.515 127.123 124.688 126.706 124.688 126.271V116.091C124.688 115.655 124.515 115.238 124.207 114.93C123.899 114.623 123.482 114.45 123.047 114.45Z" fill="#66C1FF"/>
<path d="M35.5305 114.45H16.9668C16.0607 114.45 15.3262 115.184 15.3262 116.091V126.273C15.3262 127.179 16.0607 127.914 16.9668 127.914H35.5305C36.4366 127.914 37.1711 127.179 37.1711 126.273V116.091C37.1711 115.184 36.4366 114.45 35.5305 114.45Z" fill="#8CD0FF"/>
<path d="M35.5469 114.45H27.3438C27.7789 114.45 28.1962 114.623 28.5038 114.93C28.8115 115.238 28.9844 115.655 28.9844 116.091V126.271C28.9844 126.706 28.8115 127.123 28.5038 127.431C28.1962 127.738 27.7789 127.911 27.3438 127.911H35.5469C35.982 127.911 36.3993 127.738 36.707 127.431C37.0147 127.123 37.1875 126.706 37.1875 126.271V116.091C37.1875 115.655 37.0147 115.238 36.707 114.93C36.3993 114.623 35.982 114.45 35.5469 114.45Z" fill="#66C1FF"/>
<path d="M95.7031 97.7102H44.2941C43.086 97.7102 42.1066 98.6896 42.1066 99.8977V103.726C42.1066 104.934 43.086 105.913 44.2941 105.913H95.7031C96.9112 105.913 97.8906 104.934 97.8906 103.726V99.8977C97.8906 98.6896 96.9112 97.7102 95.7031 97.7102Z" fill="#676E87"/>
<path d="M95.7031 97.7102H87.5C88.0802 97.7102 88.6366 97.9407 89.0468 98.3509C89.457 98.7611 89.6875 99.3175 89.6875 99.8977V103.726C89.6875 104.306 89.457 104.862 89.0468 105.273C88.6366 105.683 88.0802 105.913 87.5 105.913H95.7031C96.2833 105.913 96.8397 105.683 97.2499 105.273C97.6602 104.862 97.8906 104.306 97.8906 103.726V99.8977C97.8906 99.3175 97.6602 98.7611 97.2499 98.3509C96.8397 97.9407 96.2833 97.7102 95.7031 97.7102Z" fill="#595F74"/>
<path d="M110.794 75.8215H109.52L125.926 48.4778H127.2L110.794 75.8215Z" fill="#D9F0FF"/>
<path d="M115.705 75.8215H112.268L128.674 48.4778H132.111L115.705 75.8215Z" fill="#D9F0FF"/>
<path d="M85.7582 75.8215H84.484L100.89 48.4778H102.164L85.7582 75.8215Z" fill="#B3E0FF"/>
<path d="M90.6691 75.8215H87.232L103.638 48.4778H107.075L90.6691 75.8215Z" fill="#B3E0FF"/>
<path d="M70.7738 135.898H69.5023L87.4945 105.913H88.766L70.7738 135.898Z" fill="#B3E0FF"/>
<path d="M75.6875 135.898H72.2504L90.2426 105.913H93.6797L75.6875 135.898Z" fill="#B3E0FF"/>
<path d="M46.2083 135.83L64.1567 105.91H62.8852L46.2083 133.705V135.83Z" fill="#B3E0FF"/>
<path d="M51.0781 135.898H47.641L65.6332 105.913H69.0703L51.0781 135.898Z" fill="#B3E0FF"/>
<path d="M59.6887 75.8215H58.4172L74.8234 48.4778H76.0949L59.6887 75.8215Z" fill="#D9F0FF"/>
<path d="M64.6023 75.8215H61.1652L77.5715 48.4778H81.0086L64.6023 75.8215Z" fill="#D9F0FF"/>
<path d="M9.50745 75.8215H8.23596L24.6422 48.4778H25.9164L9.50745 75.8215Z" fill="#D9F0FF"/>
<path d="M14.4211 75.8215H10.984L27.3903 48.4778H30.8274L14.4211 75.8215Z" fill="#D9F0FF"/>
<path d="M35.1805 75.8215H33.9062L50.3125 48.4778H51.5867L35.1805 75.8215Z" fill="#B3E0FF"/>
<path d="M40.0914 75.8215H36.657L53.0633 48.4778H56.4977L40.0914 75.8215Z" fill="#B3E0FF"/>
<path d="M110.794 38.9075H109.52L125.926 11.5637H127.2L110.794 38.9075Z" fill="#D9F0FF"/>
<path d="M115.705 38.9075H112.268L128.674 11.5637H132.111L115.705 38.9075Z" fill="#D9F0FF"/>
<path d="M85.7582 38.9075H84.484L100.89 11.5637H102.164L85.7582 38.9075Z" fill="#B3E0FF"/>
<path d="M90.6691 38.9075H87.232L103.638 11.5637H107.075L90.6691 38.9075Z" fill="#B3E0FF"/>
<path d="M59.6887 38.9075H58.4172L74.8234 11.5637H76.0949L59.6887 38.9075Z" fill="#D9F0FF"/>
<path d="M64.6023 38.9075H61.1652L77.5715 11.5637H81.0086L64.6023 38.9075Z" fill="#D9F0FF"/>
<path d="M14.4211 38.9075H10.984L27.3903 11.5637H30.8274L14.4211 38.9075Z" fill="#D9F0FF"/>
<path d="M35.1805 38.9075H33.9062L50.3125 11.5637H51.5867L35.1805 38.9075Z" fill="#B3E0FF"/>
<path d="M9.50745 38.9075H8.23596L24.6422 11.5637H25.9164L9.50745 38.9075Z" fill="#D9F0FF"/>
<path d="M40.0914 38.9075H36.657L53.0633 11.5637H56.4977L40.0914 38.9075Z" fill="#B3E0FF"/>
<path d="M137.949 140H2.05078C1.50688 140 0.985256 139.737 0.60066 139.268C0.216064 138.799 0 138.163 0 137.5C0 136.837 0.216064 136.201 0.60066 135.732C0.985256 135.263 1.50688 135 2.05078 135H137.949C138.493 135 139.015 135.263 139.399 135.732C139.784 136.201 140 136.837 140 137.5C140 138.163 139.784 138.799 139.399 139.268C139.015 139.737 138.493 140 137.949 140Z" fill="#4A4F60"/>
</svg>
