<svg fill="#ffffff" id="Layer_1" enable-background="new 0 0 511.333 511.333" height="512" viewBox="0 0 511.333 511.333" width="512" xmlns="http://www.w3.org/2000/svg"><path d="m504.004 239.734-224-192c-13.6-11.655-34.665-1.963-34.667 15.942l-.009 96.342h-224.328c-11.598 0-21 9.402-21 21v149.32c0 11.598 9.402 21 21 21h224.328l.009 96.342c.002 18.016 21.188 27.495 34.667 15.942l224-192c9.77-8.374 9.773-23.511 0-31.888zm-216.671 162.289-.007-71.687c-.001-11.598-9.402-20.998-21-20.998h-224.326v-107.32h203.33l-.004 32.324c-.001 11.599 9.399 21.001 20.997 21.003 11.55 0 21.001-9.352 21.003-20.997.016-120.952.001-59.821.007-125.015l170.735 146.345z"/></svg>