<svg height="512" viewBox="0 0 64 64" width="512" xmlns="http://www.w3.org/2000/svg"><path d="m62 40v3a2.006 2.006 0 0 1 -2 2h-56a2.006 2.006 0 0 1 -2-2v-3z" fill="#57565c"/><path d="m62 13v27h-60v-27a2.006 2.006 0 0 1 2-2h56a2.006 2.006 0 0 1 2 2z" fill="#c2dff6"/><path d="m24 45h16v4h-16z" fill="#e0e0e2"/><path d="m47 53h-30l2-4h26z" fill="#57565c"/><circle cx="17" cy="25" fill="#e0e0e2" r="9"/><path d="m17 20.911-4 3.089 1 5h6l1-5z" fill="#57565c"/><g fill="#e0e0e2"><path d="m20 29 2 2"/><path d="m14 29-2 2"/><path d="m13 24-4-2"/><path d="m21 24 4-2"/></g><path d="m60 10h-56a3 3 0 0 0 -3 3v30a3 3 0 0 0 3 3h19v2h-4a1 1 0 0 0 -.895.553l-2 4a1 1 0 0 0 .895 1.447h30a1 1 0 0 0 .9-1.447l-2-4a1 1 0 0 0 -.9-.553h-4v-2h19a3 3 0 0 0 3-3v-30a3 3 0 0 0 -3-3zm-57 3a1 1 0 0 1 1-1h56a1 1 0 0 1 1 1v26h-58zm42.382 39h-26.764l1-2h24.764zm-6.382-4h-14v-2h14zm22-5a1 1 0 0 1 -1 1h-56a1 1 0 0 1 -1-1v-2h58z"/><path d="m35 33h-1a1 1 0 0 0 0 2h1a1 1 0 0 0 0-2z"/><path d="m38 30h-12.353a9.8 9.8 0 0 0 .512-1h5.841a1 1 0 0 0 0-2h-5.2a10 10 0 1 0 -9.8 8h14a1 1 0 0 0 0-2h-8.025a10.078 10.078 0 0 0 1.154-1h13.871a1 1 0 0 0 0-2zm-15.293.293-1.622-1.622.8-4 2.909-1.455a7.917 7.917 0 0 1 -1.971 7.247.949.949 0 0 0 -.116-.17zm-7.887-2.293-.72-3.588 2.9-2.238 2.9 2.238-.72 3.588zm9.28-6.669-2.987 1.494-3.113-2.406v-3.35a8.011 8.011 0 0 1 6.1 4.262zm-8.1-4.262v3.35l-3.114 2.406-2.986-1.494a8.011 8.011 0 0 1 6.1-4.262zm-7 7.931a7.966 7.966 0 0 1 .206-1.779l2.909 1.455.8 4-1.622 1.622a.949.949 0 0 0 -.116.175 7.961 7.961 0 0 1 -2.177-5.473zm3.682 6.724c.007-.007.018-.009.025-.017l1.707-1.707h5.172l1.707 1.707c.007.008.018.01.025.017a7.944 7.944 0 0 1 -8.636 0z"/><path d="m39 26h-2v-5a1 1 0 0 0 -2 0v6a1 1 0 0 0 1 1h3a1 1 0 0 0 0-2z"/><path d="m42 20a1 1 0 0 0 -1 1v6a1 1 0 0 0 2 0v-6a1 1 0 0 0 -1-1z"/><path d="m49.316 20.051a1 1 0 0 0 -1.265.633l-1.051 3.154-1.051-3.154a1 1 0 0 0 -1.9.632l2 6a1 1 0 0 0 1.9 0l2-6a1 1 0 0 0 -.633-1.265z"/><path d="m55 22a1 1 0 0 0 0-2h-3a1 1 0 0 0 -1 1v6a1 1 0 0 0 1 1h3a1 1 0 0 0 0-2h-2v-1h1a1 1 0 0 0 0-2h-1v-1z"/></svg>