<?xml version="1.0" encoding="iso-8859-1"?>
<!-- Generator: Adobe Illustrator 19.0.0, SVG Export Plug-In . SVG Version: 6.00 Build 0)  -->
<svg version="1.1" id="Capa_1" xmlns="http://www.w3.org/2000/svg" xmlns:xlink="http://www.w3.org/1999/xlink" x="0px" y="0px"
	 viewBox="0 0 512 512" style="enable-background:new 0 0 512 512;" xml:space="preserve">
<g transform="translate(1 1)">
	<polygon style="fill:#FFE100;" points="161.121,400.086 161.121,195.259 400.086,195.259 400.086,109.915 297.673,109.915 
		297.673,7.502 7.501,7.502 7.501,502.499 400.086,502.499 400.086,400.086 	"/>
	<polygon style="fill:#FFA800;" points="374.482,502.499 400.086,502.499 400.086,109.915 374.482,109.915 	"/>
	<polygon style="fill:#63D3FD;" points="50.174,400.086 502.499,400.086 502.499,195.259 50.174,195.259 	"/>
	<polygon style="fill:#3DB9F9;" points="476.896,400.086 502.499,400.086 502.499,195.259 476.896,195.259 	"/>
	<polygon style="fill:#FDCC00;" points="400.086,109.915 297.673,109.915 297.673,7.502 	"/>
	<polygon style="fill:#FFFFFF;" points="7.501,502.499 33.104,502.499 33.104,7.502 7.501,7.502 	"/>
	<path d="M400.105,118.415c-0.005,0-0.013,0-0.02,0H297.673c-4.695,0-8.501-3.806-8.501-8.501V7.502
		c0-3.438,2.071-6.538,5.248-7.854c3.177-1.316,6.832-0.589,9.265,1.843l102.075,102.075c1.747,1.557,2.847,3.824,2.847,6.349
		C408.606,114.61,404.8,118.415,400.105,118.415z M306.174,101.413h73.388l-73.388-73.388V101.413z"/>
	<path d="M502.499,408.587H50.174c-4.695,0-8.501-3.806-8.501-8.501V195.259c0-4.695,3.806-8.501,8.501-8.501h452.325
		c4.695,0,8.501,3.806,8.501,8.501v204.826C511,404.78,507.194,408.587,502.499,408.587z M58.675,391.584h435.323V203.76H58.675
		V391.584z"/>
	<path d="M118.448,374.449c-23.511,0-42.638-19.127-42.638-42.639c0-4.695,3.806-8.501,8.501-8.501s8.501,3.806,8.501,8.501
		c0,14.137,11.5,25.637,25.636,25.637s25.637-11.5,25.637-25.637c0-14.136-11.501-25.636-25.637-25.636
		c-23.511,0-42.638-19.127-42.638-42.64c0-23.511,19.127-42.638,42.638-42.638s42.64,19.127,42.64,42.638
		c0,4.695-3.806,8.501-8.501,8.501s-8.501-3.806-8.501-8.501c0-14.136-11.501-25.636-25.637-25.636s-25.636,11.5-25.636,25.637
		c0,14.137,11.5,25.637,25.636,25.637c23.511,0,42.64,19.127,42.64,42.638S141.96,374.449,118.448,374.449z"/>
	<path d="M400.085,511H7.501C2.806,511-1,507.193-1,502.499V7.502c0-4.695,3.806-8.501,8.501-8.501h290.171
		c4.695,0,8.501,3.806,8.501,8.501v93.912h93.911c4.695,0,8.501,3.806,8.501,8.501v85.344c0,4.695-3.806,8.501-8.501,8.501H58.675
		v187.824h341.411c4.695,0,8.501,3.806,8.501,8.501v102.413C408.586,507.193,404.78,511,400.085,511z M16.002,493.998h375.581
		v-85.411H50.174c-4.695,0-8.501-3.806-8.501-8.501V195.259c0-4.695,3.806-8.501,8.501-8.501h341.411v-68.343h-93.911
		c-4.695,0-8.501-3.806-8.501-8.501V16.002H16.002V493.998z"/>
	<path d="M331.81,374.449c-23.511,0-42.638-19.127-42.638-42.639c0-4.695,3.806-8.501,8.501-8.501s8.501,3.806,8.501,8.501
		c0,14.137,11.5,25.637,25.636,25.637c14.137,0,25.637-11.5,25.637-25.637c0-14.136-11.5-25.636-25.637-25.636
		c-23.511,0-42.638-19.127-42.638-42.64c0-23.511,19.127-42.638,42.638-42.638c23.512,0,42.64,19.127,42.64,42.638
		c0,4.695-3.806,8.501-8.501,8.501s-8.501-3.806-8.501-8.501c0-14.136-11.5-25.636-25.637-25.636
		c-14.136,0-25.636,11.5-25.636,25.636c0,14.137,11.5,25.637,25.636,25.637c23.512,0,42.64,19.127,42.64,42.638
		C374.449,355.322,355.322,374.449,331.81,374.449z"/>
	<path d="M434.223,374.449c-23.512,0-42.639-19.127-42.639-42.639c0-4.695,3.806-8.501,8.501-8.501s8.501,3.806,8.501,8.501
		c0,14.137,11.5,25.637,25.637,25.637c14.136,0,25.636-11.5,25.636-25.637c0-14.136-11.5-25.636-25.636-25.636
		c-23.512,0-42.639-19.127-42.639-42.64c0-23.511,19.127-42.638,42.639-42.638c23.511,0,42.638,19.127,42.638,42.638
		c0,4.695-3.806,8.501-8.501,8.501c-4.695,0-8.501-3.806-8.501-8.501c0-14.136-11.5-25.636-25.636-25.636
		c-14.137,0-25.637,11.5-25.637,25.636c0,14.137,11.5,25.637,25.637,25.637c23.511,0,42.638,19.127,42.638,42.638
		C476.862,355.322,457.734,374.449,434.223,374.449z"/>
	<path d="M272.069,374.451c-3.441,0.001-6.681-2.104-7.961-5.519l-42.515-113.375l-35.289,112.926
		c-1.401,4.481-6.17,6.978-10.649,5.579c-4.482-1.4-6.979-6.169-5.579-10.649l42.673-136.552c1.083-3.465,4.248-5.861,7.877-5.962
		c3.602-0.11,6.922,2.112,8.197,5.513l51.207,136.552c1.648,4.397-0.579,9.296-4.976,10.944
		C274.07,374.276,273.062,374.451,272.069,374.451z"/>
	<path d="M252.867,323.243h-58.675c-4.695,0-8.501-3.806-8.501-8.501s3.806-8.501,8.501-8.501h58.675c4.696,0,8.5,3.806,8.5,8.501
		S257.562,323.243,252.867,323.243z"/>
</g>
<g>
</g>
<g>
</g>
<g>
</g>
<g>
</g>
<g>
</g>
<g>
</g>
<g>
</g>
<g>
</g>
<g>
</g>
<g>
</g>
<g>
</g>
<g>
</g>
<g>
</g>
<g>
</g>
<g>
</g>
</svg>
