<?xml version="1.0" standalone="no"?>
<!DOCTYPE svg PUBLIC "-//W3C//DTD SVG 1.1//EN" "http://www.w3.org/Graphics/SVG/1.1/DTD/svg11.dtd" >
<svg>
<metadata>
Created by FontForge 20090914 at Thu May 14 22:50:30 2020
 By www-data
</metadata>
<defs>
<font id="AstoriascriptThree" horiz-adv-x="454" >
  <font-face 
    font-family="Astoria script Three"
    font-weight="400"
    font-stretch="normal"
    units-per-em="1000"
    panose-1="2 0 4 0 0 0 0 0 0 0"
    ascent="800"
    descent="-200"
    x-height="273"
    cap-height="669.003"
    bbox="-196.09 -230.803 1422 808"
    underline-thickness="54"
    underline-position="-71"
    unicode-range="U+0020-U+2116"
  />
<missing-glyph horiz-adv-x="192" 
 />
    <glyph glyph-name=".notdef" horiz-adv-x="192" 
 />
    <glyph glyph-name="space" unicode=" " horiz-adv-x="234" 
 />
    <glyph glyph-name="exclam" unicode="!" horiz-adv-x="385" 
d="M202 70c0 -21.333 -7.33398 -40.001 -22.001 -56.001s-32.667 -24 -54 -24c-36.667 0 -55 15.333 -55 46c0 20.667 8.33301 39.5 25 56.5s35.334 25.5 56.001 25.5c13.333 0 25 -4.66699 35 -14s15 -20.666 15 -33.999zM380.999 649.999c20.667 0 31 -16 31 -48
c0 -38.667 -17.667 -86 -53 -142l-90 -128c-34.667 -53.333 -63.334 -114.333 -86.001 -183l-15 5c32.667 66 55.334 129.667 68.001 191c19.333 93.333 33.333 153 42 179c28.667 84 63 126 103 126z" />
    <glyph glyph-name="quotedbl" unicode="&#x22;" horiz-adv-x="223" 
d="M167 466c-4 34 -7.66699 67.999 -11 101.999c-4.66699 40.667 -7 74.334 -7 101.001c0 28.667 9.33301 43 28 43c14.667 0 22 -18 22 -54c0 -25.333 -2 -57.333 -6 -96c-6 -58 -9.33301 -90 -10 -96h-16zM239 465.999c-3.33301 34 -7 67.667 -11 101
c-4 40.667 -6 74.667 -6 102c0 28.667 9 43 27 43c15.333 0 23 -17.667 23 -53c0 -26.667 -2 -59 -6 -97c-4 -32 -7.66699 -64 -11 -96h-16z" />
    <glyph glyph-name="numbersign" unicode="#" horiz-adv-x="554" 
d="M266 354h126l56 163h45l-57 -163h121l-12 -37h-122l-44 -129h122l-12 -35h-123l-54 -163h-46l57 163h-126l-55 -163h-45l57 163h-121l13 35h120l45 129h-121l14 37h118l56 163h45zM335 188l45 129h-126l-44 -129h125z" />
    <glyph glyph-name="dollar" unicode="$" horiz-adv-x="361" 
d="M253 365c9.33301 -5.33301 19.333 -8 30 -8c18 0 32.667 5.83301 44 17.5s17 26.5 17 44.5c0 25.333 -15 42 -45 50zM209 314l19.001 46l-15 12l7 13l15 -10l42 96c-28.667 0 -52.334 -7.33301 -71.001 -22c-21.333 -16.667 -32 -38.667 -32 -66
c0 -32.667 11.667 -55.667 35 -69zM147.001 173c-8 5.33301 -18.333 8 -31 8c-18 0 -32.5 -5.83301 -43.5 -17.5s-16.5 -26.5 -16.5 -44.5c0 -26.667 15.333 -43 46 -49zM195.001 231l-23 -52l16 -12l-8 -12l-14 10l-43 -97c30 0 56 7.33301 78 22c26 17.333 39 40 39 68
c0 30 -15 54.333 -45 73zM283.001 485l33.0029 75h21l-32 -78c15.333 -3.33301 28.333 -11 39 -23s16 -25.333 16 -40c0 -20.667 -7.33301 -38.167 -22 -52.5s-32.334 -21.5 -53.001 -21.5c-14.667 0 -27.334 2.66699 -38.001 8l-20 -52c40 -30.667 60 -62.334 60 -95.001
c0 -42.667 -17.5 -79.167 -52.5 -109.5s-73.833 -43.833 -116.5 -40.5l-35 -77h-20l32 78c-15.333 4 -28.333 11.833 -39 23.5s-16 25.167 -16 40.5c0 20.667 7.16699 38.167 21.5 52.5s31.833 21.5 52.5 21.5c15.333 0 28.333 -2.66699 39 -8l26 59
c-32.667 24.667 -49 57.334 -49 98.001s15.167 75.167 45.5 103.5s66.166 40.833 107.499 37.5z" />
    <glyph glyph-name="percent" unicode="%" horiz-adv-x="532" 
d="M476 211c0 -18.667 6.66797 -28.666 20.001 -29.999l1 -7c-7.33301 0 -13.833 2.66699 -19.5 8s-8.5 11.333 -8.5 18c0 17.333 8.33301 26 25 26c11.333 0 17.666 -6.33301 18.999 -19c4 -10.667 6 -24.334 6 -41.001c0 -38 -12.333 -75.667 -37 -113
c-28 -41.333 -60 -62 -96 -62c-33.333 0 -50 23 -50 69c0 30.667 12.333 64 37 100c26.667 38.667 54.334 58 83.001 58v-2c-26.667 -13.333 -48.667 -35.5 -66 -66.5s-26 -61.5 -26 -91.5c0 -35.333 11.667 -53 35 -53c31.333 0 58.666 19.667 81.999 59
c20.667 34 31 67.667 31 101c0 36 -8.33301 54.333 -25 55zM256.001 558.001c-6.66699 0 -10 -4.66895 -10 -14.002c0 -17.333 11.667 -26.666 35 -27.999c0 8.66699 -2.16699 17.834 -6.5 27.501s-10.5 14.5 -18.5 14.5zM288.001 509.999
c0 -40 -11.667 -78.998 -35 -116.998c-26 -42.667 -58 -64 -96 -64c-34 0 -51 20.667 -51 62c0 30 12.333 65 37 105c27.333 43.333 55 63.333 83 60v-2c-28 -14 -50.333 -36.833 -67 -68.5s-25 -63.834 -25 -96.501c0 -30.667 9.33301 -46 28 -46c36 0 65.667 19.333 89 58
c20 34 30 70.333 30 109c-10.667 -0.666992 -20.334 2.16602 -29.001 8.49902s-13 14.833 -13 25.5c0 13.333 8 20 24 20c8.66699 0 15.334 -6.33301 20.001 -19c4 -10 5.66699 -19.667 5 -29c62 0 119.333 19 172 57h19l-288 -582h-36l300 574
c-48 -36.667 -103.667 -55 -167 -55z" />
    <glyph glyph-name="ampersand" unicode="&#x26;" horiz-adv-x="601" 
d="M334 137c25.333 32 38.002 65.667 38.002 101l-1 4c-8.66699 2.66699 -18.667 4 -30 4c-12.667 0 -27.334 -2.33301 -44.001 -7c9.33301 -36.667 21.666 -70.667 36.999 -102zM363.002 78c39.333 28.667 59.001 62 59.001 100c0 26 -11.333 44.333 -34 55
c-4.66699 -40 -20.334 -77.333 -47.001 -112c4 -10 11.333 -24.333 22 -43zM148.003 120c0 -15.333 7 -27 21 -35c12 -6.66699 26 -10 42 -10c24 0 45 6 63 18c-19.333 34.667 -34.333 75.334 -45 122.001c-54 -30.667 -81 -62.334 -81 -95.001zM275.003 318
c86.667 41.333 130 79 130 113c0 30 -17 45 -51 45c-27.333 0 -48.5 -8.66699 -63.5 -26s-22.5 -39.666 -22.5 -66.999c0 -10.667 2.33301 -32.334 7 -65.001zM321.003 28c-53.333 -25.333 -99.333 -37.999 -138 -37.999c-36.667 0 -67.667 8 -93 24
c-30 18.667 -45 45.334 -45 80.001c0 44.667 19 84.667 57 120c24.667 23.333 63.334 48.333 116.001 75v16c0 46 10.667 86.667 32 122c25.333 41.333 60 62 104 62c18.667 0 34.5 -5.16699 47.5 -15.5s19.5 -24.833 19.5 -43.5c0 -42.667 -47.333 -84.334 -142 -125.001
c2 -19.333 6.33301 -36.333 13 -51c14 4.66699 29.667 7 47 7c11.333 0 22 -1.33301 32 -4c-0.666992 6 -3.16699 13.5 -7.5 22.5s-6.83301 15.5 -7.5 19.5l7 8c19.333 -12 27.666 -31 24.999 -57c33.333 -14.667 50 -39.334 50 -74.001c0 -39.333 -22.333 -77 -67 -113
c26 -47.333 50.667 -71 74 -71c20.667 0 37.834 7.83301 51.501 23.5s20.5 34.167 20.5 55.5c0 13.333 -5 28.5 -15 45.5s-15.333 26.833 -16 29.5l2 4l5 2l5 -2c22 -30 33 -56.333 33 -79c0 -26 -8.16699 -48.167 -24.5 -66.5s-37.5 -27.5 -63.5 -27.5
c-52.667 0 -93.334 17 -122.001 51zM310.003 39.001c-6.66699 7.33301 -16 20.334 -28 39.001c-22.667 -11.333 -47.667 -17 -75 -17c-20 0 -37.333 4.66699 -52 14c-16.667 11.333 -25 26.666 -25 45.999c0 35.333 31.667 72 95 110c-4 18.667 -6.33301 33 -7 43
c-104 -51.333 -156 -112 -156 -182c0 -29.333 13.333 -52 40 -68c22 -13.333 48.667 -20 80 -20c42 0 84.667 11.667 128 35z" />
    <glyph glyph-name="quotesingle" unicode="'" horiz-adv-x="178" 
d="M232 592l-0.000976562 2c-8 -1.33301 -14.667 -2 -20 -2c-29.333 0 -44 12 -44 36c0 19.333 8.33301 37.833 25 55.5s35 26.5 55 26.5c31.333 0 47 -13.667 47 -41s-15.5 -60.333 -46.5 -99s-57.833 -58.667 -80.5 -60l-5 6c2.66699 6 15.334 18.333 38.001 37
c20.667 16 31 29 31 39z" />
    <glyph glyph-name="parenleft" unicode="(" horiz-adv-x="374" 
d="M441 699l4 -3.99902l-3 -4c-82 -63.333 -153.667 -156.166 -215 -278.499s-92 -234.833 -92 -337.5c0 -10 1 -22.667 3 -38c2 -20.667 3.33301 -33.334 4 -38.001l-4 -6l-5 3c-16.667 54 -25 110.333 -25 169c0 105.333 27.333 203.666 82 294.999
c51.333 86 123.333 159.667 216 221c7.33301 5.33301 19 11.333 35 18z" />
    <glyph glyph-name="parenright" unicode=")" horiz-adv-x="351" 
d="M22 -7l-3.00098 4l2 5c82 63.333 153.667 156 215 278s92 234.333 92 337c0 9.33301 -1.16699 22.5 -3.5 39.5s-3.5 29.5 -3.5 37.5l4 6l5 -3c16.667 -54 25 -110.667 25 -170c0 -106.667 -27 -205 -81 -295c-51.333 -84.667 -123.666 -157.667 -216.999 -219
c-7.33301 -5.33301 -19 -12 -35 -20z" />
    <glyph glyph-name="asterisk" unicode="*" horiz-adv-x="186" 
d="M183 706c6.66699 0 13.332 -7 19.999 -21s11 -21.667 13 -23c2 2.66699 4.33301 12.667 7 30c2 13.333 7.33301 20 16 20c12.667 0 19 -4.66699 19 -14c0 -3.33301 -4.33301 -9.83301 -13 -19.5s-12.667 -16.834 -12 -21.501c-1.33301 -1.33301 -0.666016 -2 2.00098 -2
c4.66699 0 11.167 2.66699 19.5 8s14.5 8 18.5 8c10.667 0 16 -6.33301 16 -19c0 -8 -5.66699 -12 -17 -12c-3.33301 0 -8.16602 0.5 -14.499 1.5s-11.166 1.5 -14.499 1.5c-0.666992 0 -2 -0.333008 -4 -1s-3.66699 -1 -5 -1c0 -4.66699 5.83301 -10.5 17.5 -17.5
s17.5 -14.167 17.5 -21.5c0 -10.667 -6 -16 -18 -16c-4 0 -9.33301 6.33301 -16 19c-8 16.667 -12.333 25.334 -13 26.001c-2 -0.666992 -5 -15 -9 -43c-4.66699 -6 -8.66699 -9 -12 -9s-7.33301 1.5 -12 4.5s-7 6.16699 -7 9.5c0 4 4.33301 11 13 21s12.667 17.333 12 22
l-3 2c-4.66699 0 -11.334 -2.33301 -20.001 -7s-15 -7 -19 -7c-10 0 -15 6.33301 -15 19c0 8 4.33301 12 13 12c3.33301 0 8.66602 -0.833008 15.999 -2.5s13 -2.5 17 -2.5c2 0 5 0.666992 9 2c-0.666992 4 -7 9.66699 -19 17s-18 14.333 -18 21c0 10.667 5 16 15 16z" />
    <glyph glyph-name="plus" unicode="+" horiz-adv-x="521" 
d="M315 456v-202h201v-48h-200v-206h-51v205h-200v48h200v203h50z" />
    <glyph glyph-name="comma" unicode="," horiz-adv-x="184" 
d="M64 -9l-1 1c-8 -1.33301 -14.667 -2 -20 -2c-29.333 0 -44 12.333 -44 37c0 19.333 8.5 38 25.5 56s35.167 27 54.5 27c30.667 0 46 -13.667 46 -41s-15.5 -60.5 -46.5 -99.5s-57.833 -58.833 -80.5 -59.5l-5 5c2.66699 5.33301 16 17.333 40 36
c20.667 16.667 31 30 31 40z" />
    <glyph glyph-name="hyphen" unicode="-" horiz-adv-x="318" 
d="M296 256c-18 -70 -49.332 -105 -93.999 -105c-14 0 -33.333 3.33301 -58 10c-24 6.66699 -43.333 10 -58 10c-12.667 0 -23.667 -3.66699 -33 -11c-1.33301 -1.33301 -3.83301 -4.33301 -7.5 -9s-8.16699 -11.334 -13.5 -20.001l-8 3
c5.33301 28.667 15.333 53.334 30 74.001c18 26.667 39.667 40 65 40c13.333 0 32.666 -4 57.999 -12c26 -7.33301 45 -11 57 -11c17.333 0 34.333 10.333 51 31h11z" />
    <glyph glyph-name="period" unicode="." horiz-adv-x="181" 
d="M125 69c0 -20.667 -7.66699 -38.999 -23 -54.999s-33.666 -24 -54.999 -24c-13.333 0 -24.5 5.16699 -33.5 15.5s-13.5 22.166 -13.5 35.499c0 19.333 7.16699 36.5 21.5 51.5s31.166 22.5 50.499 22.5c35.333 0 53 -15.333 53 -46z" />
    <glyph glyph-name="slash" unicode="/" horiz-adv-x="469" 
d="M442 700l-288 -702h-36l289 702h35z" />
    <glyph glyph-name="zero" unicode="0" 
d="M388 526c0 -12.667 5.00098 -25.1689 15.001 -37.502s21 -19.5 33 -21.5l3 -17c-18 4 -33.833 12.667 -47.5 26s-20.5 29 -20.5 47c0 38.667 16.333 58 49 58c27.333 0 47.666 -19 60.999 -57c10 -27.333 15 -57.666 15 -90.999c0 -98 -30.333 -193.333 -91 -286
c-68 -104 -148.333 -156 -241 -156c-42.667 0 -75 18.333 -97 55c-19.333 30.667 -29 68.334 -29 113.001c0 82.667 28.333 164.334 85 245.001c58.667 83.333 127.667 135.333 207 156h5l6 -4l-2 -3c-70.667 -40.667 -127 -97.834 -169 -171.501s-63 -151.167 -63 -232.5
c0 -82.667 29 -124 87 -124c78.667 0 148 50.667 208 152c52 88.667 78 175 78 259c0 26.667 -4 52.667 -12 78c-11.333 34 -27.333 51 -48 51c-21.333 0 -32 -13 -32 -39z" />
    <glyph glyph-name="one" unicode="1" 
d="M435 585l-244.001 -578l-79 -17l205 476c-52 -40 -80.667 -60 -86 -60c-1.33301 0 -2.66602 0.666992 -3.99902 2c0 3.33301 1 6.33301 3 9l63 57c42 38 83 78 123 120z" />
    <glyph glyph-name="two" unicode="2" 
d="M76 94c25.333 10 45.667 15.001 61 15.001c12 0 36.833 -12.667 74.5 -38s65.5 -38 83.5 -38c21.333 0 39.333 8.66699 54 26c9.33301 10 18.666 26 27.999 48c7.33301 17.333 12.666 26.333 15.999 27l7 -5c-1.33301 -32.667 -17.5 -64 -48.5 -94s-62.833 -45 -95.5 -45
c-37.333 0 -72.333 11.833 -105 35.5s-55 35.5 -67 35.5c-29.333 0 -56 -20.333 -80 -61h-15c20 44 42.333 78.833 67 104.5s58.667 50.5 102 74.5c87.333 48.667 149.666 90.667 186.999 126c62.667 58.667 94 124 94 196c0 48.667 -25.333 73 -76 73
c-51.333 0 -97.333 -24.333 -138 -73c-38.667 -46 -58 -95 -58 -147c0 -15.333 4.5 -29.333 13.5 -42s21.167 -19 36.5 -19c34.667 0 67.667 21.333 99 64c30 40 45 77.667 45 113c0 20.667 -9 31 -27 31c-10.667 0 -20.667 -2.33301 -30 -7
c-11.333 -6 -19.333 -9.33301 -24 -10l-5 3v5c0 6.66699 8.66699 12.667 26 18c13.333 3.33301 25 5 35 5c26.667 0 40 -14.667 40 -44c0 -40.667 -16.333 -82 -49 -124c-35.333 -45.333 -72.666 -68 -111.999 -68c-42 0 -63 27.667 -63 83c0 58 23.833 111.5 71.5 160.5
s100.5 73.5 158.5 73.5c36 0 65.333 -8.66699 88 -26c24 -19.333 36 -47 36 -83c0 -66.667 -27.667 -124.334 -83 -173.001c-31.333 -28 -90.666 -65 -177.999 -111c-83.333 -42.667 -139.666 -79 -168.999 -109z" />
    <glyph glyph-name="three" unicode="3" 
d="M401 236c0 -61.333 -27.502 -117.671 -82.502 -169.004s-113.833 -77 -176.5 -77c-76 0 -114 37 -114 111c0 42.667 15.667 83.667 47 123c33.333 42 71 63 113 63c23.333 0 42.833 -6 58.5 -18s23.5 -29.333 23.5 -52c0 -36.667 -11.333 -72 -34 -106
c-25.333 -38.667 -55.333 -58 -90 -58c-14 0 -26 6.33301 -36 19s-15 26.334 -15 41.001c0 6.66699 3 10 9 10l7 -5c4.66699 -34 17.334 -51 38.001 -51c27.333 0 52.333 18.667 75 56c20.667 34 31 65.333 31 94c0 38 -23.333 57 -70 57c-38 0 -71.667 -21 -101 -63
c-26 -38.667 -39 -78 -39 -118c0 -27.333 8.33301 -48.5 25 -63.5s39 -22.5 67 -22.5c55.333 0 102.666 26.667 141.999 80c36 48 54 100.667 54 158c0 61.333 -30.333 94 -91 98l-4 5l4 6c44.667 0 85 15.833 121 47.5s54 69.5 54 113.5c0 20.667 -9.33301 37 -28 49
c-16 10 -35 15 -57 15c-31.333 0 -59.166 -11 -83.499 -33s-36.5 -48.333 -36.5 -79c0 -9.33301 4.83301 -17.166 14.5 -23.499s19.5 -9.5 29.5 -9.5c16 0 29.5 5 40.5 15s17.167 15 18.5 15l7 -7c-2.66699 -11.333 -12 -20.666 -28 -27.999
c-13.333 -6 -26.666 -9 -39.999 -9c-15.333 0 -28.833 5 -40.5 15s-17.5 22.333 -17.5 37c0 38 18.667 69 56 93c32 20.667 68 31 108 31c28.667 0 54.667 -7.33301 78 -22c27.333 -17.333 41 -39.333 41 -66c0 -38 -15.667 -72.333 -47 -103
c-28 -26.667 -61.667 -45.667 -101 -57c46.667 -25.333 70 -62.666 70 -111.999z" />
    <glyph glyph-name="four" unicode="4" 
d="M120 241c68.667 5.33301 123.669 6.33301 165.002 3l129 289l89 49l-154 -343c14 -0.666992 33.667 -3.66699 59 -9l-23 -51c-12.667 2 -32.334 4.33301 -59.001 7l-79 -177l-74 -21l89 201l-46 1c-38.667 0.666992 -89.334 -2 -152.001 -8l159 267
c90 150 138 227 144 231l7 -9c-2.66699 -10 -41.667 -77.667 -117 -203z" />
    <glyph glyph-name="five" unicode="5" 
d="M157 8c51.333 0 95.6699 33.001 133.003 99.001c32.667 56.667 49 112.667 49 168c0 64.667 -31.667 97 -95 97c-32.667 0 -64.334 -6.66699 -95.001 -20l95 234c29.333 -6 70 -9 122 -9c56 0 92 5.66699 108 17l10 17l7 -2l-33 -85
c-35.333 -8.66699 -73.333 -13 -114 -13c-36.667 0 -71.334 3.33301 -104.001 10l-55 -134c40.667 14.667 75 22 103 22c38 0 67.667 -10.5 89 -31.5s32 -50.833 32 -89.5c0 -67.333 -24 -132.666 -72 -195.999c-52 -67.333 -111 -101 -177 -101
c-34 0 -61.5 11.5 -82.5 34.5s-31.5 51.5 -31.5 85.5c0 49.333 14.333 94 43 134c31.333 44.667 71 67 119 67c21.333 0 38.833 -5.83301 52.5 -17.5s20.5 -27.834 20.5 -48.501c0 -16.667 -6.33301 -41.667 -19 -75c-14.667 -37.333 -28.334 -56 -41.001 -56l-6 7
c2 8.66699 11.333 25.667 28 51c14 21.333 21 44.666 21 69.999c0 38.667 -19.333 58 -58 58c-40.667 0 -75.667 -21.333 -105 -64c-26.667 -39.333 -40 -80 -40 -122c0 -71.333 32 -107 96 -107z" />
    <glyph glyph-name="six" unicode="6" 
d="M508 614c-6.66699 -3.33301 -12.332 -6 -16.999 -8c-103.333 -44.667 -183 -94.667 -239 -150c-60.667 -60 -107.667 -140.667 -141 -242c-14 -42 -21 -81 -21 -117c0 -24.667 5 -45.334 15 -62.001c12 -20 29.667 -30 53 -30c62.667 0 120.667 45.333 174 136
c48 80.667 72 155 72 223c0 35.333 -15.333 53 -46 53c-42.667 0 -81.334 -24.667 -116.001 -74c-22 -30.667 -36.167 -65 -42.5 -103s-12.166 -75.667 -17.499 -113l-7 -5l-7 5c2.66699 114 32 198.667 88 254c37.333 36.667 76.666 55 117.999 55c28 0 50 -13.667 66 -41
c13.333 -22.667 20 -48.667 20 -78c0 -74 -30.333 -146.333 -91 -217c-63.333 -73.333 -131.333 -110 -204 -110c-39.333 0 -71.666 16.333 -96.999 49c-22.667 30 -34 65 -34 105c0 50.667 13.667 105.334 41 164.001c25.333 54.667 56.666 101.667 93.999 141
c69.333 72.667 164 126.667 284 162c29.333 8.66699 46 13 50 13h4l3 -6z" />
    <glyph glyph-name="seven" unicode="7" 
d="M582 568c-6.66699 -6 -52.334 -45 -137.001 -117c-74.667 -64 -120.667 -105.667 -138 -125c-41.333 -48.667 -66.666 -104 -75.999 -166c-4 -35.333 -8.33301 -71 -13 -107c-10.667 -42 -33.667 -63 -69 -63c-24 0 -36 18.333 -36 55c0 68.667 45.333 151.667 136 249
c35.333 38 109 105.667 221 203c-26.667 -7.33301 -48.334 -11 -65.001 -11c-19.333 0 -37.666 10 -54.999 30c-6.66699 8 -19.334 26.667 -38.001 56c-12.667 20 -22.667 30 -30 30c-19.333 0 -34 -15 -44 -45c-7.33301 -21.333 -11 -44.333 -11 -69
c0 -3.33301 0.666992 -8.5 2 -15.5s2 -12.5 2 -16.5c0 -6.66699 -2.33301 -9.66699 -7 -9l-6 4c-4.66699 10 -7 22.333 -7 37c0 36.667 9.33301 71.667 28 105c22 39.333 50 59 84 59c12.667 0 26.334 -11.333 41.001 -34l44 -67c18 -23.333 37.333 -35 58 -35
c24 0 48.5 10.667 73.5 32s39.833 29.333 44.5 24z" />
    <glyph glyph-name="eight" unicode="8" 
d="M27 111c0 54.667 24.3311 101.001 72.998 139.001c30 23.333 79 48 147 74c-20 44 -30 81 -30 111c0 49.333 15.833 88.333 47.5 117s72.834 43 123.501 43c18 0 31 -2 39 -6h10c16 0 30.333 -7.33301 43 -22s19 -30.334 19 -47.001c0 -47.333 -17.667 -87.333 -53 -120
c-26 -23.333 -65.333 -45.333 -118 -66l31 -74c12.667 -32 19 -57.333 19 -76c0 -53.333 -20.833 -99 -62.5 -137s-89.167 -57 -142.5 -57c-39.333 0 -72.666 10.333 -99.999 31c-30.667 22 -46 52 -46 90zM283.998 471.001c0 -23.333 12.6689 -64.334 38.002 -123.001
c45.333 14 82.333 34.667 111 62c34 32.667 51 70 51 112c0 10.667 -4.83301 22.334 -14.5 35.001s-19.5 18.667 -29.5 18c21.333 -16 32.666 -36 33.999 -60l-6 -6c-4 1.33301 -9 9 -15 23s-13 24.667 -21 32c-12.667 11.333 -30.334 17 -53.001 17
c-29.333 0 -52.5 -10.833 -69.5 -32.5s-25.5 -47.5 -25.5 -77.5zM162 5c44 0 80.333 14.666 109 43.999s43 65.666 43 108.999c0 40.667 -20.333 91.334 -61 152.001c-53.333 -16.667 -96.333 -42.667 -129 -78c-36 -39.333 -54 -85 -54 -137
c0 -27.333 8.66699 -49.166 26 -65.499s39.333 -24.5 66 -24.5z" />
    <glyph glyph-name="nine" unicode="9" 
d="M24 -29c96 35.333 181.666 95.3291 256.999 179.996c72.667 80.667 125.334 171.334 158.001 272.001c5.33301 16.667 8 33.667 8 51c0 71.333 -25 107 -75 107c-62 0 -120 -46.333 -174 -139c-48.667 -83.333 -73 -158.666 -73 -225.999c0 -15.333 4 -28.666 12 -39.999
s19.667 -17 35 -17c46.667 0 88.334 31 125.001 93c32.667 55.333 49 108.333 49 159c0 2 -0.5 5 -1.5 9s-1.5 7 -1.5 9c0 6.66699 3 10 9 10s9 -8.66699 9 -26c0 -58.667 -17.667 -116.667 -53 -174c-40 -64 -87.667 -96 -143 -96c-28.667 0 -51 13.333 -67 40
c-13.333 22.667 -20 49.334 -20 80.001c0 82 26.333 156.667 79 224c56 72 124.333 108 205 108c45.333 0 80.333 -16.333 105 -49c22 -30 33 -68.333 33 -115c0 -114.667 -51.667 -219 -155 -313c-94.667 -86 -200.334 -138 -317.001 -156l-3 -1l-4 5z" />
    <glyph glyph-name="colon" unicode=":" horiz-adv-x="229" 
d="M199 230c0 -19.333 -7.33203 -36.5 -21.999 -51.5s-32 -22.5 -52 -22.5c-14.667 0 -26.834 4.33301 -36.501 13s-14.5 20 -14.5 34c0 19.333 7.5 36.5 22.5 51.5s32.167 22.5 51.5 22.5c34 0 51 -15.667 51 -47zM128.001 67c0 -20 -7.50098 -37.833 -22.501 -53.5
s-32.5 -23.5 -52.5 -23.5c-33.333 0 -50 15.333 -50 46c0 20 6.83301 37.667 20.5 53s30.5 23 50.5 23c14.667 0 27.334 -4 38.001 -12s16 -19 16 -33z" />
    <glyph glyph-name="semicolon" unicode=";" horiz-adv-x="233" 
d="M190 243c0 -20 -6.83301 -38 -20.5 -54s-30.167 -24 -49.5 -24c-36.667 0 -55 16.667 -55 50c0 19.333 7.5 36.5 22.5 51.5s32.167 22.5 51.5 22.5c34 0 51 -15.333 51 -46zM64 1l-1 1.00098c-8 -1.33301 -14.667 -2 -20 -2c-29.333 0 -44 12.333 -44 37
c0 20 8.33301 38.667 25 56s35 26 55 26c30.667 0 46 -13.333 46 -40c0 -28 -15.333 -61.333 -46 -100s-57.667 -58.334 -81 -59.001l-5 5c2.66699 5.33301 16 17.333 40 36c20.667 16.667 31 30 31 40z" />
    <glyph glyph-name="less" unicode="&#x3c;" horiz-adv-x="422" 
d="M131 287l285 -117v-57l-353 149v50l353 149v-57z" />
    <glyph glyph-name="equal" unicode="=" horiz-adv-x="662" 
d="M665 401v-47h-566v47h566zM665 214v-44h-564v44h564z" />
    <glyph glyph-name="greater" unicode="&#x3e;" horiz-adv-x="422" 
d="M444 312v-50l-354 -149v57l286 117l-286 117v57z" />
    <glyph glyph-name="question" unicode="?" horiz-adv-x="490" 
d="M227 70c0 -21.333 -7.33301 -39.999 -22 -55.999s-32.667 -24 -54 -24c-36 0 -54 16.333 -54 49c0 21.333 7.83301 40.166 23.5 56.499s34.167 24.5 55.5 24.5c34 0 51 -16.667 51 -50zM150 432.001c0 60.667 24.334 111.67 73.001 153.003c46.667 40 101 60 163 60
c39.333 0 74 -9 104 -27c34.667 -22 52 -51.333 52 -88c0 -61.333 -29.667 -112.333 -89 -153l-166 -86c-59.333 -31.333 -89 -66.333 -89 -105c0 -7.33301 2.66699 -15.5 8 -24.5s8 -14.5 8 -16.5c0 -4.66699 -3.33301 -7 -10 -7c-5.33301 0 -11 6.66699 -17 20
c-5.33301 11.333 -8 20 -8 26c0 39.333 24.333 75.666 73 108.999l136 90c48.667 42.667 73 94.667 73 156c0 27.333 -10.5 48.666 -31.5 63.999s-45.5 23 -73.5 23c-52.667 0 -97.667 -20 -135 -60s-56 -86.333 -56 -139c0 -18 4.66699 -33.667 14 -47
c10.667 -15.333 24.667 -23 42 -23c36 0 69.667 16.333 101 49s47 67 47 103c0 10.667 -3.5 20 -10.5 28s-15.833 12 -26.5 12c-22 0 -40.5 -11.667 -55.5 -35s-23.167 -35 -24.5 -35l-5 6c0 20 9.5 37.833 28.5 53.5s38.5 23.5 58.5 23.5c14 0 25.833 -5.33301 35.5 -16
s14.5 -23 14.5 -37c0 -36.667 -16.833 -73.334 -50.5 -110.001s-68.834 -55 -105.501 -55c-52 0 -78 29.333 -78 88z" />
    <glyph glyph-name="at" unicode="@" horiz-adv-x="668" 
d="M218 168c0 52.667 14.335 99.3301 43.002 139.997c32 46 73 69 123 69c18.667 0 34.667 -6.5 48 -19.5s22 -28.833 26 -47.5l16 56h56c-35.333 -126 -53 -197.667 -53 -215c0 -23.333 12 -35 36 -35c38.667 0 68.667 18.333 90 55c18 30 27 66.333 27 109
c0 66 -24 117.333 -72 154c-43.333 33.333 -99.333 50 -168 50c-78.667 0 -144 -26.833 -196 -80.5s-78 -120.167 -78 -199.5c0 -76.667 24.833 -138 74.5 -184s113.5 -69 191.5 -69c69.333 0 143.333 23.667 222 71l17 -25c-78.667 -52.667 -161.334 -79 -248.001 -79
c-86 0 -157.333 25.667 -214 77c-59.333 52.667 -89 121.334 -89 206.001c0 92.667 32.667 168.334 98 227.001c63.333 56.667 142.333 85 237 85c72.667 0 133 -19.667 181 -59c51.333 -42.667 77 -99.667 77 -171c0 -53.333 -13 -100.666 -39 -141.999
c-30.667 -47.333 -71.334 -71 -122.001 -71c-41.333 0 -67.333 20.333 -78 61c-28 -40.667 -63.333 -61 -106 -61c-29.333 0 -53.333 9 -72 27s-28 41.667 -28 71zM327.002 105.996c34 0 62 22 84 66c18.667 36 28 72.667 28 110c0 14 -5 26.833 -15 38.5
s-21.667 17.5 -35 17.5c-32 0 -59.333 -22 -82 -66c-18.667 -37.333 -28 -73.666 -28 -108.999c0 -14.667 4.5 -27.834 13.5 -39.501s20.5 -17.5 34.5 -17.5z" />
    <glyph glyph-name="A" unicode="A" horiz-adv-x="781" 
d="M739 280l-16.0059 -38.002l-16 -39c-21.333 -50 -44.666 -109.667 -69.999 -179c4 -8 7.66699 -12 11 -12c20 0 45.667 26 77 78c30.667 51.333 48 77.666 52 78.999l5 -6c0 -2 -2.5 -7.33301 -7.5 -16l-19 -31.5l-25 -40l-26.5 -41.5c-22 -29.333 -44 -44 -66 -44
c-12.667 0 -23.167 6.33301 -31.5 19s-12.5 27.667 -12.5 45c0 31.333 12.333 81 37 149l16 39c5.33301 12.667 10.333 25.334 15 38.001h-107l-47 -103.5l-40 -87.5c-20.667 -42 -42.834 -80 -66.501 -114s-51.5 -61 -83.5 -81c-14 -8.66699 -30 -16.167 -48 -22.5
s-36.5 -10.833 -55.5 -13.5s-38 -2.83398 -57 -0.500977s-36.833 7.5 -53.5 15.5c-15.333 8 -29 17.833 -41 29.5s-21.167 24.334 -27.5 38.001s-8.83301 27.834 -7.5 42.501s7.66602 29 18.999 43c16 20.667 36.5 30.834 61.5 30.501s50.167 -11.166 75.5 -32.499
c16.667 -12.667 30 -26.334 40 -41.001s14.333 -29 13 -43c-2 -4.66699 -5.33301 -4.66699 -10 0c-6 15.333 -13.167 28.666 -21.5 39.999s-17.166 21 -26.499 29c-23.333 19.333 -46.166 30 -68.499 32s-40.166 -5.33301 -53.499 -22c-8 -10.667 -12.333 -21.667 -13 -33
s1.5 -22.333 6.5 -33s11.833 -20.834 20.5 -30.501s18.667 -18.167 30 -25.5c20 -12.667 41.333 -20.167 64 -22.5s44.834 -1 66.501 4s42.334 13.167 62.001 24.5s37.167 24.333 52.5 39c18.667 18.667 35.834 40.334 51.501 65.001s30.834 51.667 45.501 81l42 90l48 102
h-113l8 24h117c22 44.667 45.667 88.834 71 132.501s52.833 82.667 82.5 117s61.167 62.333 94.5 84s69 32.5 107 32.5h17c-20 -34 -44.167 -82.667 -72.5 -146l-95.5 -220h49l-8 -24h-51zM194.994 531.998c12 15.333 25.002 29.1641 39.002 41.4971
s28.667 24.166 44 35.499c34.667 24 73.167 44.667 115.5 62s88.5 26.666 138.5 27.999c27.333 0 51.166 -4.33301 71.499 -13s40.666 -16.667 60.999 -24s42.5 -11.666 66.5 -12.999s53 5.66699 87 21l-24 -22c-27.333 -13.333 -52.166 -23.333 -74.499 -30
s-42.833 -10.667 -61.5 -12s-35.667 -0.666016 -51 2.00098s-30 6.66699 -44 12c-28.667 10.667 -55 17.834 -79 21.501s-46.833 4.5 -68.5 2.5s-42.5 -7 -62.5 -15s-40 -18.333 -60 -31c-34 -23.333 -63.333 -51 -88 -83c-51.333 -73.333 -77 -147.666 -77 -222.999
c0 -30.667 6.33301 -56.334 19 -77.001c16 -25.333 38.333 -38 67 -38c60 0 113 37.667 159 113c40.667 66.667 61 132.334 61 197.001c0 14.667 -4 28.334 -12 41.001s-19 19 -33 19c-72.667 0 -128.334 -72 -167.001 -216c-2.66699 -8.66699 -5.66699 -13 -9 -13l-7 5
c0.666992 48.667 19 99.334 55 152.001c40 57.333 83.333 86 130 86c18.667 0 33.667 -7.66699 45 -23c9.33301 -14.667 14 -31.334 14 -50.001c0 -67.333 -21.333 -136.333 -64 -207c-49.333 -80 -105 -120 -167 -120c-36 0 -63.333 13 -82 39
c-16.667 22.667 -25 52.667 -25 90c0 82.667 27.667 161.667 83 237v5zM734.996 455.996c7.33301 14 16.166 29.3311 26.499 45.998s21.333 33.334 33 50.001s24 32.834 37 48.501s25.833 29.834 38.5 42.501c-30.667 -2 -60 -13.333 -88 -34s-54.667 -46.834 -80 -78.501
s-49.166 -67.167 -71.499 -106.5s-43.5 -79.333 -63.5 -120h105l38 95c10.667 26.667 19 45.667 25 57z" />
    <glyph glyph-name="B" unicode="B" horiz-adv-x="813" 
d="M541 667c-15.333 0 -31.6621 -0.838867 -48.9951 -2.50586s-35 -4 -53 -7s-35.833 -6.66699 -53.5 -11s-34.5 -9.5 -50.5 -15.5c-30 -11.333 -59.667 -28.333 -89 -51s-54.333 -48 -75 -76c-38 -54 -60.667 -112 -68 -174c-3.33301 -31.333 0.333984 -58.333 11.001 -81
c7.33301 -13.333 16.333 -24 27 -32s23.667 -12.667 39 -14c62 -6 121 26.667 177 98c25.333 32.667 44.833 65 58.5 97s22.167 64.667 25.5 98c1.33301 15.333 -1.33398 29.833 -8.00098 43.5s-17.334 21.167 -32.001 22.5c-76 8 -141.333 -59.333 -196 -202
c-4.66699 -8.66699 -8.33398 -12.667 -11.001 -12l-7 5c7.33301 50.667 31.666 100.667 72.999 150c48.667 53.333 97 77.666 145 72.999c19.333 -2 33.666 -11.667 42.999 -29c8.66699 -14.667 12 -32 10 -52c-8 -68.667 -37.667 -136.667 -89 -204
c-59.333 -76 -121.333 -110.667 -186 -104c-36.667 4 -63.334 20.333 -80.001 49c-15.333 24 -21 55.333 -17 94c6.66699 60.667 28.334 118.334 65.001 173.001c24 36 51 65.833 81 89.5s62.667 42.5 98 56.5c12 4.66699 25.667 9.33398 41 14.001s32 8.66699 50 12
s37 6 57 8s40.333 2.66699 61 2c38 -0.666992 75.667 -5.33398 113 -14.001c19.333 15.333 41.333 27.666 66 36.999c6.66699 0.666992 10.667 -2.33301 12 -9c-20 -8 -37.667 -19.667 -53 -35c22 -6.66699 42.5 -15.167 61.5 -25.5s35.333 -22.833 49 -37.5
s23.834 -31.5 30.501 -50.5s9 -40.5 7 -64.5c-2 -22.667 -8 -43.167 -18 -61.5s-22.833 -34.333 -38.5 -48s-33.5 -25 -53.5 -34s-40.667 -15.833 -62 -20.5l-1 -2c24.667 -3.33301 44.667 -12.166 60 -26.499s26.5 -31.333 33.5 -51s9.83301 -41.167 8.5 -64.5
s-6 -45.666 -14 -66.999c-8.66699 -23.333 -20.834 -44.166 -36.501 -62.499s-33.667 -34.333 -54 -48s-42.333 -25 -66 -34s-48.167 -15.833 -73.5 -20.5c-40 -8.66699 -81.167 -11 -123.5 -7s-82.166 11 -119.499 21c-15.333 4.66699 -30.333 9.83398 -45 15.501l-43 16
c-14 5 -27.5 9 -40.5 12s-25.5 4.16699 -37.5 3.5s-22.167 -4.16699 -30.5 -10.5s-12.5 -15.166 -12.5 -26.499c0.666992 -16 6.16699 -28.333 16.5 -37s22.833 -14.834 37.5 -18.501s30.167 -5.5 46.5 -5.5h43.5c2 0 2.33301 -0.833008 1 -2.5s-3.33301 -3.5 -6 -5.5
s-5.83398 -3.83301 -9.50098 -5.5s-6.5 -2.5 -8.5 -2.5c-18.667 -1.33301 -36.334 -0.666016 -53.001 2.00098s-31.334 7.33398 -44.001 14.001s-23 15.167 -31 25.5s-12.333 22.166 -13 35.499c-1.33301 13.333 2.66699 24.833 12 34.5s20.833 17.5 34.5 23.5
s28 10.5 43 13.5s28.167 4.83301 39.5 5.5c15.333 0.666992 30.5 -0.5 45.5 -3.5s29.833 -7.16699 44.5 -12.5c34.667 16 63.334 36.833 86.001 62.5s41.834 53.5 57.501 83.5s29.167 61.333 40.5 94s23 64.334 35 95.001l28.5 74.5c10.333 26.333 22 52.5 35 78.5
s27.333 50.833 43 74.5s33.5 44.834 53.5 63.501c-26.667 6.66699 -58.334 10 -95.001 10zM551.004 367.994c-12 -32 -25.4922 -65.6729 -40.4922 -101.006s-33.167 -69 -54.5 -101s-46.5 -60.667 -75.5 -86s-63.167 -44.333 -102.5 -57
c29.333 -11.333 58.166 -23.666 86.499 -36.999s57.166 -20.666 86.499 -21.999c33.333 -4 64.833 1.83301 94.5 17.5s55.167 36.834 76.5 63.501s37.666 56.667 48.999 90s15 65.333 11 96c-2 12 -5.33301 23.333 -10 34s-11.5 19.834 -20.5 27.501s-20.667 13.5 -35 17.5
s-31.833 5.66699 -52.5 5l-2 13l6 6c2.66699 0.666992 6 0.833984 10 0.500977s8.66699 -0.5 14 -0.5c10 0 19.667 0.833008 29 2.5s18.666 3.5 27.999 5.5c14 2.66699 27.167 9 39.5 19s23.333 22.333 33 37s17.667 30.834 24 48.501s10.166 35.5 11.499 53.5
c3.33301 38 -3.33398 69.167 -20.001 93.5s-41.334 42.5 -74.001 54.5c-14.667 -18 -27.334 -38.333 -38.001 -61s-20.167 -46.5 -28.5 -71.5s-16 -50.167 -23 -75.5s-14.5 -49.333 -22.5 -72z" />
    <glyph glyph-name="C" unicode="C" horiz-adv-x="656" 
d="M547 679c-24 -4 -47.8184 -13.835 -71.4854 -29.502s-46.5 -35.5 -68.5 -59.5s-43 -51.333 -63 -82s-38 -62.667 -54 -96c-10.667 -22.667 -21 -49 -31 -79s-17.833 -60.833 -23.5 -92.5s-7.83398 -62.667 -6.50098 -93s7.5 -57.166 18.5 -80.499
s28.167 -41.666 51.5 -54.999s54.666 -18.666 93.999 -15.999c27.333 2 52.166 8 74.499 18s42 22.5 59 37.5s31.333 31.667 43 50s20.167 36.5 25.5 54.5c10 26 13.5 49.667 10.5 71s-10 39.666 -21 54.999s-25 27.666 -42 36.999s-35.167 14.666 -54.5 15.999
c-20.667 1.33301 -41.334 -2 -62.001 -10s-38.834 -20 -54.501 -36s-27.334 -35.167 -35.001 -57.5s-9.16699 -46.833 -4.5 -73.5c2.66699 -13.333 7.33398 -25 14.001 -35s14.667 -17.833 24 -23.5s19.5 -9 30.5 -10s21.5 0.833008 31.5 5.5
c17.333 8 33.166 19.667 47.499 35s22.166 35.333 23.499 60c1.33301 0.666992 3.66602 1 6.99902 1s5.33301 0.666992 6 2c1.33301 -25.333 -5.16699 -47 -19.5 -65s-32.166 -32.667 -53.499 -44c-10.667 -6 -22.667 -8.83301 -36 -8.5s-26 3.33301 -38 9
s-22.833 14.334 -32.5 26.001s-15.834 26.167 -18.501 43.5c-6 34.667 -3.83301 65 6.5 91s25.333 47.333 45 64s42 28.167 67 34.5s49.167 7.5 72.5 3.5c19.333 -3.33301 37.166 -10.166 53.499 -20.499s29.666 -23.833 39.999 -40.5s16.666 -36.167 18.999 -58.5
s-0.833984 -47.5 -9.50098 -75.5c-6 -20 -14.5 -39.333 -25.5 -58s-25.333 -35.834 -43 -51.501s-38.834 -28.834 -63.501 -39.501s-53.667 -18 -87 -22c-45.333 -3.33301 -84 0.5 -116 11.5s-57.667 27.167 -77 48.5s-33 46.833 -41 76.5s-11 61.334 -9 95.001
s8.5 68.334 19.5 104.001s25.833 70.167 44.5 103.5c22 40 47.833 77.667 77.5 113s61.5 65.833 95.5 91.5s69.333 44.834 106 57.501s73.334 16.334 110.001 11.001c35.333 -8.66699 56.666 -32.667 63.999 -72c2.66699 -17.333 2.66699 -34.833 0 -52.5
s-8 -34.167 -16 -49.5s-18.833 -29 -32.5 -41s-30.5 -20.667 -50.5 -26c-21.333 -6 -39.333 -7 -54 -3s-26.167 11 -34.5 21s-13.5 21.667 -15.5 35s-1 26.333 3 39s10.833 24 20.5 34s22.167 16.667 37.5 20c24.667 5.33301 38 3.33301 40 -6
c0 -2 0.666992 -4.16699 2 -6.5s1.33301 -3.83301 0 -4.5c-2.66699 0 -6.66699 1 -12 3s-12.666 2 -21.999 0c-13.333 -3.33301 -24 -9 -32 -17s-13.833 -17 -17.5 -27s-4.83398 -20.167 -3.50098 -30.5s5 -19.333 11 -27s14.5 -13.334 25.5 -17.001
s24.167 -3.83398 39.5 -0.500977c21.333 4.66699 38.833 12.667 52.5 24s24.167 24.333 31.5 39s11.833 30.5 13.5 47.5s1.5 33.5 -0.5 49.5c-0.666992 8.66699 -3.83398 17 -9.50098 25s-13.167 14.667 -22.5 20s-20.333 9 -33 11s-26.334 1.33301 -41.001 -2z" />
    <glyph glyph-name="D" unicode="D" horiz-adv-x="954" 
d="M783 654c-18 -14.667 -33.665 -33.6641 -46.998 -56.9971s-25.5 -49.166 -36.5 -77.499s-21.833 -58.666 -32.5 -90.999s-21.834 -64.5 -33.501 -96.5s-24.834 -63.333 -39.501 -94s-31.834 -58.834 -51.501 -84.501s-42.5 -47.834 -68.5 -66.501
s-56.333 -32.334 -91 -41.001c16 -6 30.5 -12.833 43.5 -20.5l38.5 -22c12.667 -7 25.5 -13.5 38.5 -19.5s27.167 -10.333 42.5 -13c29.333 -5.33301 55.333 -6 78 -2c30.667 5.33301 57.667 17.333 81 36s44 41.167 62 67.5s33.667 55.166 47 86.499
s25.333 62.666 36 93.999c16.667 48.667 27.334 94 32.001 136s4 80 -2 114s-17.333 63.833 -34 89.5s-37.667 46.167 -63 61.5zM772.002 676.003l31.9971 20.9951c10.667 6.66699 21.667 12 33 16c3.33301 1.33301 6 1 8 -1s3.33301 -4.66699 4 -8
c-8.66699 -1.33301 -17.667 -5.16602 -27 -11.499s-18.666 -14.166 -27.999 -23.499c34 -17.333 62.5 -39.833 85.5 -67.5s40 -59.167 51 -94.5s16.167 -73.666 15.5 -114.999s-7.66699 -84 -21 -128c-12.667 -42 -28 -80.667 -46 -116s-39 -66.5 -63 -93.5
s-51.333 -49.333 -82 -67s-65.334 -29.834 -104.001 -36.501c-40.667 -7.33301 -84.5 -9.33301 -131.5 -6s-94.833 13.333 -143.5 30c-15.333 5.33301 -30.333 11.333 -45 18l-42 18.5c-13.333 5.66699 -26.5 10.5 -39.5 14.5s-25.833 6 -38.5 6
c-12 0 -22.667 -3.33301 -32 -10s-14.333 -16 -15 -28c-0.666992 -16.667 4 -29.667 14 -39s22.333 -16.166 37 -20.499s30.334 -7 47.001 -8s31.334 -1.5 44.001 -1.5c2 0 2.33301 -0.833008 1 -2.5s-3.5 -3.66699 -6.5 -6s-6.33301 -4.33301 -10 -6s-6.5 -2.5 -8.5 -2.5
c-19.333 -0.666992 -37.333 0.833008 -54 4.5s-31.334 9.33398 -44.001 17.001s-22.5 16.834 -29.5 27.501s-10.5 23 -10.5 37s5 25.833 15 35.5s22.333 17.5 37 23.5s29.834 10.167 45.501 12.5s29.167 3.5 40.5 3.5c16.667 0 34 -1.83301 52 -5.5s34.667 -8.5 50 -14.5
c39.333 18 71.666 42.5 96.999 73.5s46.833 65.167 64.5 102.5s33.167 76.666 46.5 117.999s28 81.666 44 120.999s35 76.5 57 111.5s50.333 64.5 85 88.5c-31.333 13.333 -65.833 21.666 -103.5 24.999s-75.5 2 -113.5 -4s-75 -16.667 -111 -32s-68 -34.833 -96 -58.5
s-50.333 -51.5 -67 -83.5s-25 -67.667 -25 -107c0 -14 2.66699 -27.333 8 -40s12.833 -23.5 22.5 -32.5s20.834 -16.167 33.501 -21.5s26.334 -8 41.001 -8c66.667 0 120.667 40 162 120c34.667 66.667 52 136.667 52 210c0 45.333 -12.5 82.5 -37.5 111.5
s-62.167 43.5 -111.5 43.5c-51.333 0 -95 -19.333 -131 -58c-31.333 -34.667 -53 -78.334 -65 -131.001l-7 -6c-5.33301 0 -8 2 -8 6c0 48.667 22.333 94.334 67 137.001c22.667 21.333 45.667 37.833 69 49.5s47 16.834 71 15.501c60 -3.33301 103 -19.166 129 -47.499
s39 -72.166 39 -131.499c0 -76 -19.333 -147.333 -58 -214c-44.667 -78.667 -102.667 -118 -174 -118c-35.333 0 -63.666 12.667 -84.999 38c-10.667 11.333 -18.334 24.5 -23.001 39.5s-7.33398 31.5 -8.00098 49.5c-0.666992 42.667 8 80.667 26 114
s42.167 61.833 72.5 85.5s64.833 42.667 103.5 57s78.334 23.833 119.001 28.5s80.5 5 119.5 1s73.833 -12.667 104.5 -26z" />
    <glyph glyph-name="E" unicode="E" horiz-adv-x="583" 
d="M272 407c-16 18 -26.5029 36.334 -31.5029 55.001s-5.83301 37.167 -2.5 55.5s9.83301 36 19.5 53s21.167 32.5 34.5 46.5c14.667 15.333 31.334 29 50.001 41s38.334 21.667 59.001 29s41.5 11.833 62.5 13.5s41.167 -0.166016 60.5 -5.49902
c35.333 -8.66699 56.666 -32.667 63.999 -72c2.66699 -17.333 2.83398 -34.833 0.500977 -52.5s-7.5 -34.334 -15.5 -50.001s-18.667 -29.5 -32 -41.5s-30 -20.667 -50 -26c-21.333 -6 -39.5 -6.83301 -54.5 -2.5s-26.667 11.5 -35 21.5s-13.5 21.833 -15.5 35.5
s-1.16699 27 2.5 40s10.334 24.5 20.001 34.5s22.167 16.667 37.5 20c24.667 5.33301 38 3.33301 40 -6c0 -2 0.666992 -4.5 2 -7.5s1.33301 -4.83301 0 -5.5c-2.66699 0 -6.66699 1 -12 3s-12.666 2 -21.999 0c-13.333 -3.33301 -24 -9 -32 -17
s-13.833 -17.167 -17.5 -27.5s-4.83398 -20.833 -3.50098 -31.5s5 -19.834 11 -27.501s14.5 -13.5 25.5 -17.5s24.167 -4.33301 39.5 -1c21.333 4.66699 38.833 12.834 52.5 24.501s24.167 25 31.5 40s11.833 31.167 13.5 48.5s1.5 34 -0.5 50
c-3.33301 20 -14.666 34.833 -33.999 44.5s-44 11.167 -74 4.5c-24 -6.66699 -47.833 -20.334 -71.5 -41.001s-43.667 -44 -60 -70s-27.5 -52.667 -33.5 -80s-3.33301 -51.333 8 -72h10c4 0 8.66699 0.333008 14 1h25c60.667 0 91 -12.667 91 -38c0 -20 -13.333 -30 -40 -30
c-40 0 -79.333 15 -118 45c-46.667 -2 -88 -33 -124 -93c-32 -53.333 -48 -104.666 -48 -153.999c0 -34.667 6 -62.667 18 -84s34 -36.666 66 -45.999c5.33301 -1.33301 11 -2.83301 17 -4.5s12 -3.16699 18 -4.5c-6.66699 25.333 -8.33398 52.333 -5.00098 81
s10.333 57 21 85c7.33301 19.333 17.166 38.166 29.499 56.499s26.5 34.333 42.5 48s33.333 24.5 52 32.5s38.334 11.333 59.001 10c30 -1.33301 53.833 -12 71.5 -32s26.5 -44.333 26.5 -73s-7.33301 -56.5 -22 -83.5s-33.667 -51 -57 -72s-50 -37.833 -80 -50.5
s-60 -19 -90 -19h-25c8.66699 -20.667 22.167 -37.667 40.5 -51s43.5 -20 75.5 -20c21.333 0 41 4 59 12s34 18.833 48 32.5s25.667 29.5 35 47.5s16 37.333 20 58l7 5c4 0 6 -1.66699 6 -5c0 -20 -4.83301 -40 -14.5 -60s-22.5 -38 -38.5 -54s-34.333 -29 -55 -39
s-41.667 -15 -63 -15c-38.667 0 -69 8.5 -91 25.5s-37.667 38.5 -47 64.5c-16 1.33301 -31.333 3.33301 -46 6c-45.333 8.66699 -81 30 -107 64s-39 74 -39 120c0 68 20.667 120.667 62 158c32.667 29.333 85.667 52.666 159 69.999zM272.997 172.001
c-10 -25.333 -17.001 -53.5 -21.001 -84.5s-2.33301 -59.5 5 -85.5c5.33301 -0.666992 10.166 -1.16699 14.499 -1.5s9.16602 -0.166016 14.499 0.500977c22.667 -0.666992 47.667 4.66602 75 15.999s52.5 26.833 75.5 46.5s42.333 42.834 58 69.501s23.5 55.667 23.5 87
c0 23.333 -8.16699 42.666 -24.5 57.999s-37.166 23 -62.499 23c-35.333 0 -66.666 -12 -93.999 -36s-48.666 -55 -63.999 -93zM310.996 398.001c0.666992 -9.33301 14.667 -18.667 42 -28c25.333 -7.33301 44.333 -11 57 -11c15.333 0 23 5.33301 23 16
c0 18 -30.333 27 -91 27c-11.333 0 -21.333 -1 -30 -3z" />
    <glyph glyph-name="F" unicode="F" horiz-adv-x="797" 
d="M847 562l-1.00195 -1c-18.667 -11.333 -34.167 -24.833 -46.5 -40.5s-23.833 -33.167 -34.5 -52.5c-10.667 -18.667 -20.334 -39.5 -29.001 -62.5l-26 -72.5c12 -3.33301 24 -5.83301 36 -7.5s23 -1.66699 33 0s19 5.33398 27 11.001s14 14.5 18 26.5h13
c-10.667 -27.333 -25.334 -45 -44.001 -53s-41.667 -12 -69 -12h-10.5c-4.33301 0 -9.16602 0.333008 -14.499 1l-36.5 -112c-12.333 -38.667 -26.166 -76.5 -41.499 -113.5s-32.666 -72.333 -51.999 -106s-41.833 -63.167 -67.5 -88.5s-55 -45.833 -88 -61.5
s-70.5 -24.167 -112.5 -25.5c-26.667 -1.33301 -50.334 2.33398 -71.001 11.001s-38.167 21.167 -52.5 37.5s-25.166 35.666 -32.499 57.999s-11 47.166 -11 74.499c0 70.667 22.333 142.334 67 215.001c50 83.333 108 125 174 125c32.667 0 59.334 -9.5 80.001 -28.5
s31 -44.833 31 -77.5c0 -56 -18.333 -120.333 -55 -193c-42 -84.667 -87.667 -127 -137 -127c-22 0 -40 8.16699 -54 24.5s-21 35.5 -21 57.5c0 6.66699 0.666992 15 2 25s3.33301 22.333 6 37c7.33301 33.333 13.666 50 18.999 50c6.66699 0 10 -4 10 -12
c0 -9.33301 -3.66699 -26 -11 -50c-6.66699 -20.667 -10 -37.667 -10 -51c0 -18 5 -33.333 15 -46c10.667 -14.667 24.667 -22 42 -22c46 0 88.333 41.333 127 124c34 72 51 134 51 186c0 26.667 -8.5 48.5 -25.5 65.5s-38.833 25.5 -65.5 25.5
c-62.667 0 -118 -40 -166 -120c-42.667 -70.667 -64 -139.334 -64 -206.001c0 -48.667 12.333 -87.667 37 -117c27.333 -33.333 64 -50 110 -50c34.667 0 64.834 6.83301 90.501 20.5s48.334 32.5 68.001 56.5s36.667 52.333 51 85s28 67.5 41 104.5l38.5 115
c12.667 39.667 27 78.834 43 117.501c-13.333 1.33301 -25.666 2.66602 -36.999 3.99902s-19.666 2 -24.999 2h-18c-5.33301 0 -10.5 -1.16699 -15.5 -3.5s-9.83301 -6.83301 -14.5 -13.5s-10 -16.667 -16 -30l-10 2c7.33301 25.333 21.5 46.5 42.5 63.5
s44.833 25.5 71.5 25.5c5.33301 0 11.5 -0.666992 18.5 -2s14.167 -3 21.5 -5c9.33301 21.333 19.666 42 30.999 62s23.666 39.333 36.999 58c47.333 65.333 89.666 97 126.999 95zM792.998 584l-80.999 24.5c-26 7.66699 -52 12.667 -78 15s-52 0.833008 -78 -4.5
s-53 -16.333 -81 -33c-30 -18 -54.667 -40.167 -74 -66.5s-29.333 -56.166 -30 -89.499c0 -46 17.333 -69 52 -69c29.333 0 51.333 15.667 66 47c11.333 26 17 53.667 17 83c0 6.66699 -1.33301 16.667 -4 30s-4 23.333 -4 30c0 1.33301 0.333008 2.33301 1 3v3l8 2l8 -2
c3.33301 -10 5.5 -20.167 6.5 -30.5s1.5 -21.5 1.5 -33.5c0 -39.333 -7.33301 -71.666 -22 -96.999c-18 -33.333 -47 -50 -87 -50c-10 0 -19 2.33301 -27 7s-14.667 12 -20 22c-4.66699 8 -8.33398 16.333 -11.001 25s-3.66699 18 -3 28
c1.33301 40.667 13.5 76.167 36.5 106.5s51.833 55.5 86.5 75.5c32 18.667 66.5 32.667 103.5 42s72.167 13.666 105.5 12.999c19.333 0 41.333 -2.83301 66 -8.5s50 -12.5 76 -20.5c29.333 -8.66699 56.5 -17.167 81.5 -25.5s50.167 -14.166 75.5 -17.499
c21.333 -2.66699 39 -2.66699 53 0s25.5 7.5 34.5 14.5s16.167 15.667 21.5 26s10.333 21.833 15 34.5c2.66699 2.66699 5 4 7 4s3 -1 3 -3c0 -0.666992 -0.166992 -1.16699 -0.5 -1.5s-0.5 -0.833008 -0.5 -1.5c-3.33301 -14 -8 -28.167 -14 -42.5s-14.333 -27.333 -25 -39
s-23.5 -21.334 -38.5 -29.001s-32.833 -12.167 -53.5 -13.5c-32.667 -2 -64.5 1.66699 -95.5 11s-63.5 19.666 -97.5 30.999z" />
    <glyph glyph-name="G" unicode="G" horiz-adv-x="638" 
d="M550 626l-1.99805 -4.99805c-21.333 -20 -40.833 -41.5 -58.5 -64.5s-32.834 -46.333 -45.501 -70s-22.5 -46.834 -29.5 -69.501s-10.5 -43.667 -10.5 -63c0 -16 4.16699 -30.333 12.5 -43s20.5 -19 36.5 -19c51.333 0 105 40.667 161 122c52 76 78 141.333 78 196
c0 26.667 -9.5 47.834 -28.5 63.501s-43.833 23.5 -74.5 23.5c-72 0 -136.333 -42.333 -193 -127c-51.333 -77.333 -77 -153.333 -77 -228c0 -38 10.167 -69.167 30.5 -93.5s48.833 -36.5 85.5 -36.5c16.667 0 33 2.83301 49 8.5s32.333 13.5 49 23.5s34 22 52 36l60 47
l5 -7c-6.66699 -7.33301 -14.5 -17 -23.5 -29l-30.5 -41l-41 -82c-13.333 -27.333 -27 -53.333 -41 -78s-28.5 -47 -43.5 -67s-31.167 -36.333 -48.5 -49c-45.333 -32 -102.333 -48 -171 -48c-30.667 0 -59.834 3.16699 -87.501 9.5s-52 15.5 -73 27.5
s-37.667 26.5 -50 43.5s-18.5 36.167 -18.5 57.5c0 20.667 4 38 12 52c-4 14.667 -6 26.667 -6 36c0 36 14.5 64.333 43.5 85s67.167 31 114.5 31h13l7 -7c0 -0.666992 -5.33301 -2 -16 -4s-22.834 -4.5 -36.501 -7.5s-27.167 -6.33301 -40.5 -10
s-22.666 -7.16699 -27.999 -10.5c-27.333 -16 -41 -40 -41 -72c0 -3.33301 0.333008 -7.66602 1 -12.999s1.66699 -11.333 3 -18c39.333 31.333 90.333 47 153 47c46 0 84 -8.33301 114 -25s45 -39 45 -67c0 -56 -44.667 -84 -134 -84c-82.667 0 -143.334 34 -182.001 102
c-4.66699 -4.66699 -7 -16.334 -7 -35.001c0 -18 5.66699 -34.5 17 -49.5s26.333 -27.833 45 -38.5s40.167 -18.834 64.5 -24.501s49.5 -8.5 75.5 -8.5c32.667 0 61.5 3.83301 86.5 11.5s47.667 21.334 68 41.001s39.166 46.667 56.499 81s34.666 78.166 51.999 131.499
c-30 -10 -57.333 -15 -82 -15c-25.333 0 -48.333 5.16699 -69 15.5s-38.5 24.166 -53.5 41.499s-26.5 37.833 -34.5 61.5s-12 49.167 -12 76.5c0 42 9.16699 82.5 27.5 121.5s42.833 73.5 73.5 103.5s65.834 53.833 105.501 71.5s80.834 26.5 123.501 26.5
c37.333 0 67.166 -8.66699 89.499 -26s33.5 -42.333 33.5 -75c0 -58.667 -26.667 -127.667 -80 -207c-57.333 -83.333 -114.666 -125 -171.999 -125c-20 0 -35.333 8 -46 24s-16.667 34.333 -18 55c-1.33301 20 2.83398 43.833 12.501 71.5s22.167 55 37.5 82
s31.833 51.5 49.5 73.5s34.167 37.333 49.5 46l6 2zM345.002 79.002c0 24.667 -12.835 44 -38.502 58s-60.167 21 -103.5 21c-70 0 -120 -15.333 -150 -46c38.667 -68.667 96.334 -103 173.001 -103c16 0 31.333 1.5 46 4.5s27.334 7.5 38.001 13.5s19.167 13.333 25.5 22
s9.5 18.667 9.5 30z" />
    <glyph glyph-name="H" unicode="H" horiz-adv-x="1003" 
d="M1087 513c-41.333 -63.333 -90.3301 -113.677 -146.997 -151.01c-4.66699 -13.333 -8.83398 -25.833 -12.501 -37.5s-7.16699 -21.5 -10.5 -29.5c-28.667 -78 -49.834 -138.833 -63.501 -182.5s-20.167 -71.834 -19.5 -84.501c0 -12 4.33301 -18 13 -18
c6 0 14 4.33301 24 13s20.5 20.334 31.5 35.001s21.833 32 32.5 52s20 42 28 66l4 2l8 -5c2 -9.33301 -1.16699 -24 -9.5 -44s-19.5 -40 -33.5 -60s-29 -37.667 -45 -53s-30.333 -22.666 -43 -21.999c-22 0.666992 -36.833 9.66699 -44.5 27s-11.334 38 -11.001 62
s3.33301 48.5 9 73.5s11.5 45.833 17.5 62.5l10.5 32l12.5 37c1.33301 3.33301 2.66602 7 3.99902 11s2.66602 8.33301 3.99902 13c-10 -4.66699 -20.167 -8.66699 -30.5 -12l-32.5 -10c-6.66699 -15.333 -12.334 -31 -17.001 -47s-8.33398 -30.667 -11.001 -44h-7
c-1.33301 7.33301 -1.16602 18.666 0.500977 33.999s4.16699 32 7.5 50l-25.5 -6c-8.33301 -2 -17.166 -3.66699 -26.499 -5c-15.333 -42 -34.666 -82.667 -57.999 -122s-50.833 -73.833 -82.5 -103.5s-67.667 -53.167 -108 -70.5s-84.833 -25 -133.5 -23
c-23.333 1.33301 -45.666 6 -66.999 14s-42.666 19.667 -63.999 35c-9.33301 6.66699 -16.833 14.834 -22.5 24.501s-9.33398 19.834 -11.001 30.501s-1.33398 21.334 0.999023 32.001s7.16602 20.334 14.499 29.001c16 20.667 36.5 30.834 61.5 30.501
s50.167 -11.166 75.5 -32.499c16.667 -12.667 30 -26.334 40 -41.001s14.333 -29 13 -43c-2 -4.66699 -5.33301 -4.66699 -10 0c-6 15.333 -13.167 28.666 -21.5 39.999s-17.166 21 -26.499 29c-23.333 19.333 -46.166 30 -68.499 32s-40.166 -5.33301 -53.499 -22
c-11.333 -15.333 -14.666 -32.666 -9.99902 -51.999s15.334 -35.666 32.001 -48.999c20.667 -16 41.667 -27.333 63 -34s43 -9.33398 65 -8.00098c44 0.666992 81.5 9.5 112.5 26.5s57.5 39.167 79.5 66.5s40.667 58.666 56 93.999s29.666 71.333 42.999 108
c-15.333 -1.33301 -31.166 -2.16602 -47.499 -2.49902s-33.166 -0.166016 -50.499 0.500977v20c36 -3.33301 70.667 -3.33301 104 0c1.33301 3.33301 2.5 6.5 3.5 9.5s2.16699 6.16699 3.5 9.5l32 91.5c10.667 30.333 22.834 59.666 36.501 87.999s29 54.666 46 78.999
s37.167 45.833 60.5 64.5c-37.333 -12 -69.333 -17.5 -96 -16.5s-50.667 6.16699 -72 15.5c-28.667 10.667 -55 17.834 -79 21.501s-46.833 4.5 -68.5 2.5s-42.5 -7 -62.5 -15s-40 -18.333 -60 -31c-34 -23.333 -63.333 -51 -88 -83
c-51.333 -73.333 -77 -147.666 -77 -222.999c0 -30.667 6.33301 -56.334 19 -77.001c16 -25.333 38.333 -38 67 -38c60 0 113 37.667 159 113c40.667 66.667 61 132.334 61 197.001c0 14.667 -4 28.334 -12 41.001s-19 19 -33 19c-72.667 0 -128.334 -72 -167.001 -216
c-2.66699 -8.66699 -5.66699 -13 -9 -13l-7 5c0.666992 48.667 19 99.334 55 152.001c40 57.333 83.333 86 130 86c18.667 0 33.667 -7.66699 45 -23c9.33301 -14.667 14 -31.334 14 -50.001c0 -67.333 -21.333 -136.333 -64 -207c-49.333 -80 -105 -120 -167 -120
c-36 0 -63.333 13 -82 39c-16.667 22.667 -25 52.667 -25 90c0 82.667 27.667 161.667 83 237v5c12 15.333 25 29.166 39 41.499s28.667 24.166 44 35.499c34.667 24 73.167 44.667 115.5 62s88.5 26.666 138.5 27.999c27.333 0 51.166 -4.33301 71.499 -13
s40.666 -16.667 60.999 -24s42.5 -11.666 66.5 -12.999s53 5.66699 87 21l-3 -2h1l13 -4c-30.667 -12 -55.667 -30.5 -75 -55.5s-35.833 -53.833 -49.5 -86.5s-25.667 -67.667 -36 -105s-21.5 -75 -33.5 -113c-2.66699 -6.66699 -4.33398 -11.667 -5.00098 -15
c8.66699 1.33301 17 2.83301 25 4.5s16 3.83398 24 6.50098c6 27.333 13.333 50.333 22 69h62c-10 -5.33301 -19.167 -13.166 -27.5 -23.499s-15.833 -22.166 -22.5 -35.499c22 7.33301 42.667 15.333 62 24c12 31.333 26.667 65.333 44 102s36.666 71.667 57.999 105
s44.333 63 69 89s50.667 44 78 54c27.333 0 41 -12 41 -36c0 -15.333 -5.5 -35.166 -16.5 -59.499s-25.167 -50.166 -42.5 -77.499zM1104 669.989c-15.333 -7.33301 -30.167 -20.8301 -44.5 -40.4971s-28 -42.834 -41 -69.501s-25.333 -54.834 -37 -84.501
s-22.167 -57.834 -31.5 -84.501c48 34.667 88.667 77 122 127c17.333 26 31.333 50.5 42 73.5s16 41.167 16 54.5c0 16 -8.66699 24 -26 24z" />
    <glyph glyph-name="I" unicode="I" horiz-adv-x="746" 
d="M880 661c-30.667 -12 -55.668 -30.5059 -75.001 -55.5059s-35.833 -53.833 -49.5 -86.5s-25.667 -67.667 -36 -105s-21.5 -75 -33.5 -113c-14 -45.333 -32.667 -89.5 -56 -132.5s-51.333 -81.333 -84 -115s-70.167 -60.167 -112.5 -79.5s-89.5 -28 -141.5 -26
c-23.333 1.33301 -45.666 6 -66.999 14s-42.666 19.667 -63.999 35c-9.33301 6.66699 -16.833 14.834 -22.5 24.501s-9.33398 19.834 -11.001 30.501s-1.33398 21.334 0.999023 32.001s7.16602 20.334 14.499 29.001c16 20.667 36.5 30.834 61.5 30.501
s50.167 -11.166 75.5 -32.499c16.667 -12.667 30 -26.334 40 -41.001s14.333 -29 13 -43c-2 -4.66699 -5.33301 -4.66699 -10 0c-6 15.333 -13.167 28.666 -21.5 39.999s-17.166 21 -26.499 29c-23.333 19.333 -46.166 30 -68.499 32s-40.166 -5.33301 -53.499 -22
c-11.333 -15.333 -14.666 -32.666 -9.99902 -51.999s15.334 -35.666 32.001 -48.999c20.667 -16 41.667 -27.333 63 -34s43 -9.33398 65 -8.00098c48 0.666992 88.333 10.834 121 30.501s60.167 45.334 82.5 77.001s41.166 67.167 56.499 106.5l44 118l32 91.5
c10.667 30.333 22.834 59.666 36.501 87.999s29 54.666 46 78.999s37.167 45.833 60.5 64.5c-37.333 -12 -69.333 -17.5 -96 -16.5s-50.667 6.16699 -72 15.5c-28.667 10.667 -55 17.834 -79 21.501s-46.833 4.5 -68.5 2.5s-42.5 -7 -62.5 -15s-40 -18.333 -60 -31
c-34 -23.333 -63.333 -51 -88 -83c-51.333 -73.333 -77 -147.666 -77 -222.999c0 -30.667 6.33301 -56.334 19 -77.001c16 -25.333 38.333 -38 67 -38c60 0 113 37.667 159 113c40.667 66.667 61 132.334 61 197.001c0 14.667 -4 28.334 -12 41.001s-19 19 -33 19
c-72.667 0 -128.334 -72 -167.001 -216c-2.66699 -8.66699 -5.66699 -13 -9 -13l-7 5c0.666992 48.667 19 99.334 55 152.001c40 57.333 83.333 86 130 86c18.667 0 33.667 -7.66699 45 -23c9.33301 -14.667 14 -31.334 14 -50.001c0 -67.333 -21.333 -136.333 -64 -207
c-49.333 -80 -105 -120 -167 -120c-36 0 -63.333 13 -82 39c-16.667 22.667 -25 52.667 -25 90c0 82.667 27.667 161.667 83 237v5c12 15.333 25 29.166 39 41.499s28.667 24.166 44 35.499c34.667 24 73.167 44.667 115.5 62s88.5 26.666 138.5 27.999
c27.333 0 51.166 -4.33301 71.499 -13s40.666 -16.667 60.999 -24s42.5 -11.666 66.5 -12.999s53 5.66699 87 21l-3 -2h1z" />
    <glyph glyph-name="J" unicode="J" horiz-adv-x="645" 
d="M162 -206c65.333 0 132.003 48.667 200.003 146c51.333 72.667 103.666 173.667 156.999 303l99 259c18 46.667 27 81 27 103c0 16 -5.16699 31.333 -15.5 46s-23.5 22 -39.5 22c-52.667 0 -90.667 -49.667 -114 -149c-14 -62 -21 -133.333 -21 -214
c0 -2 -3.33301 -4 -10 -6l-4 3c-2.66699 15.333 -4 33 -4 53c0 68.667 11 135 33 199c30 86.667 72.333 130 127 130c27.333 0 48.666 -18.333 63.999 -55c12 -28 18 -57.667 18 -89c0 -54.667 -15.667 -126.667 -47 -216c-24.667 -70 -54.334 -139.333 -89.001 -208
c-48.667 -97.333 -93.667 -169 -135 -215c-62 -70 -134.333 -111 -217 -123c-8.66699 -1.33301 -19 -2 -31 -2c-99.333 0 -149 51.667 -149 155c0 62 23.333 124 70 186c50 66 105.333 99 166 99c32 0 58.333 -10 79 -30s31 -46 31 -78c0 -54.667 -19.333 -110.667 -58 -168
c-43.333 -62.667 -91 -94 -143 -94c-22.667 0 -41 8.5 -55 25.5s-21 36.833 -21 59.5c0 50 29 107.333 87 172l4 2l8 -8l-22 -28c-40.667 -52.667 -61 -98.667 -61 -138c0 -19.333 5.5 -36.166 16.5 -50.499s25.833 -21.5 44.5 -21.5c46.667 0 90 30.667 130 92
c36.667 56 55 108.333 55 157c0 29.333 -8.66699 52.666 -26 69.999s-40.333 26 -69 26c-56.667 0 -108.667 -31.333 -156 -94c-44 -59.333 -66 -118 -66 -176c0 -96.667 45.667 -145 137 -145z" />
    <glyph glyph-name="K" unicode="K" horiz-adv-x="997" 
d="M238 463c0 35.333 9.32715 66.3242 27.9941 92.9912s41.667 48.834 69 66.501s56.833 31.334 88.5 41.001s61.167 15.167 88.5 16.5c22 0.666992 42.5 -1.33301 61.5 -6s37.333 -10.5 55 -17.5l52 -20.5c17 -6.66699 34.333 -11.334 52 -14.001
s35.834 -2.16699 54.501 1.5s38.667 12.167 60 25.5l-2 -3c2 2 4.16699 3.83301 6.5 5.5l7.5 5.5c3.33301 1.33301 6 1.5 8 0.5s2.66699 -2.16699 2 -3.5c-34 -36.667 -62.167 -75.167 -84.5 -115.5s-39.833 -77.5 -52.5 -111.5c-8 -18 -15.5 -36.667 -22.5 -56
s-13.833 -39.333 -20.5 -60h42c34.667 1.33301 62 9.5 82 24.5s36.333 33.833 49 56.5s23.167 47.834 31.5 75.501s18 54.834 29 81.501s25 51.667 42 75s40.5 42.333 70.5 57c15.333 7.33301 30.833 11.5 46.5 12.5s30.167 -0.833008 43.5 -5.5
c19.333 -6.66699 33.666 -18 42.999 -34c9.33301 2.66699 18.833 4.33398 28.5 5.00098s19.167 0.666992 28.5 0h11l5 -7c0 -1.33301 -3.33301 -2.66602 -10 -3.99902s-14 -2.66602 -22 -3.99902s-15.333 -2.33301 -22 -3s-10.334 -1 -11.001 -1c12 -22 17 -45 15 -69
c-1.33301 -17.333 -4.83301 -34.166 -10.5 -50.499s-13 -31 -22 -44s-19.5 -23.333 -31.5 -31s-24.667 -11.167 -38 -10.5c-6.66699 0.666992 -13 2.83398 -19 6.50098s-11.167 8.33398 -15.5 14.001s-7.66602 12 -9.99902 19s-3.16602 14.167 -2.49902 21.5
c2.66699 30 12.667 57.333 30 82s45 47.667 83 69c-12 17.333 -27.667 28 -47 32c-11.333 2.66699 -23 2.83398 -35 0.500977s-23.167 -7.33301 -33.5 -15s-19.666 -18.167 -27.999 -31.5s-14.5 -29.333 -18.5 -48c-7.33301 -34 -15.5 -67.333 -24.5 -100
s-21.5 -62 -37.5 -88s-36.667 -47.5 -62 -64.5s-57.666 -26.5 -96.999 -28.5c37.333 -2 63.666 -11.5 78.999 -28.5s20 -43.5 14 -79.5c-5.33301 -26.667 -14.166 -52.334 -26.499 -77.001s-22.833 -49.334 -31.5 -74.001c-3.33301 -15.333 -2.66602 -26 2.00098 -32
s11.5 -8 20.5 -6s19.333 7.66699 31 17s22.834 21.666 33.501 36.999c7.33301 11.333 14.5 23 21.5 35s13.167 24.333 18.5 37l8 4l5 -9c-1.33301 -13.333 -5.66602 -25.833 -12.999 -37.5s-17.333 -25.834 -30 -42.501c-24 -32 -48 -51 -72 -57s-43.667 -3.33301 -59 8
c-12 8.66699 -18.833 20 -20.5 34s-0.333984 29.333 3.99902 46s10.5 34 18.5 52l24 53c18.667 41.333 22.5 70 11.5 86s-37.5 23.333 -79.5 22h-48l-21.5 -65.5l-21.5 -65.5c-16 -46.667 -34.167 -91.667 -54.5 -135s-44.5 -82 -72.5 -116s-61 -61.333 -99 -82
s-82.667 -31.667 -134 -33c-26.667 -0.666992 -50.334 3.33301 -71.001 12s-38 21.167 -52 37.5s-24.5 35.833 -31.5 58.5s-10.167 47.667 -9.5 75c0 70.667 23 142 69 214c51.333 82.667 110 123.667 176 123c32.667 -0.666992 59.167 -10.667 79.5 -30
s30.5 -45.333 30.5 -78c-1.33301 -55.333 -20.666 -119.333 -57.999 -192c-43.333 -84.667 -89.666 -126.334 -138.999 -125.001c-22 0 -39.833 8.33301 -53.5 25s-20.5 36 -20.5 58c0.666992 12 3.66699 32.667 9 62c8 33.333 14.667 49.666 20 48.999
c6.66699 0 10 -4 10 -12c0 -5.33301 -1.16699 -12.166 -3.5 -20.499l-8.5 -29.5c-3.33301 -10.667 -5.83301 -20.167 -7.5 -28.5s-2.83398 -15.5 -3.50098 -21.5c0 -17.333 5 -33 15 -47c10.667 -14.667 24.667 -22 42 -22c45.333 -1.33301 88 39.334 128 122.001
c35.333 72 53.333 133.667 54 185c0 26.667 -8.33301 48.667 -25 66s-38.334 26.333 -65.001 27c-62.667 0.666992 -118.667 -38.666 -168 -117.999c-44 -71.333 -66 -139.666 -66 -204.999c-1.33301 -48.667 10.334 -88 35.001 -118c13.333 -16.667 29 -29.334 47 -38.001
s38.667 -13 62 -13c41.333 -1.33301 76.333 7.33398 105 26.001s53.667 44 75 76s40 69 56 111l48 132c15.333 46.667 31.333 91.5 48 134.5s36.667 85.833 60 128.5c19.333 34 40.333 67.333 63 100s48 63 76 91c-27.333 -13.333 -52 -22 -74 -26
s-42.333 -5.16699 -61 -3.5s-36.334 5.33398 -53.001 11.001l-50.5 18c-17 6.33301 -34.833 12.166 -53.5 17.499s-39 8.33301 -61 9c-19.333 0 -40.5 -3.5 -63.5 -10.5s-44.667 -17.667 -65 -32s-37.333 -32.5 -51 -54.5s-20.167 -47.667 -19.5 -77
c0.666992 -27.333 8.33398 -47.833 23.001 -61.5s31.334 -20.5 50.001 -20.5c27.333 0 50 13.5 68 40.5s26.333 63.5 25 109.5c0 6.66699 -1.16699 16.167 -3.5 28.5s-3.5 21.5 -3.5 27.5s2.66699 9 8 9c9.33301 0 14.333 -20.333 15 -61
c0.666992 -23.333 -1.33301 -45.166 -6 -65.499s-11.5 -38 -20.5 -53s-20 -27 -33 -36s-27.5 -13.5 -43.5 -13.5c-30 0 -53.167 8 -69.5 24s-24.833 40.333 -25.5 73zM1175.99 568.991c2 27.333 -3.00098 50 -15.001 68c-12 -6 -24.333 -14.167 -37 -24.5
s-24 -21.666 -34 -33.999s-18.333 -25.5 -25 -39.5s-10 -28 -10 -42c0 -11.333 3.16699 -21.833 9.5 -31.5s14.833 -15.167 25.5 -16.5c10.667 -0.666992 20.834 2.66602 30.501 9.99902s18.5 16.833 26.5 28.5s14.5 24.667 19.5 39s8.16699 28.5 9.5 42.5z" />
    <glyph glyph-name="L" unicode="L" horiz-adv-x="968" 
d="M875 680c-56.667 0 -108 -48.335 -154 -145.002c-20.667 -41.333 -47 -114.666 -79 -219.999c69.333 2.66699 132.333 35.334 189 98.001s85 128.667 85 198c0 46 -13.667 69 -41 69zM30 104.998c0 -33.333 22.001 -58 66.001 -74c31.333 -12 67.333 -18 108 -18
c91.333 0 170 20.667 236 62l-167 58c-74.667 24 -130.334 36 -167.001 36c-50.667 0 -76 -21.333 -76 -64zM782.001 210.998c-11.333 0 -27.666 -1.83203 -48.999 -5.49902s-37.333 -5.5 -48 -5.5c-4.66699 0 -7 2 -7 6c0 12.667 34.667 19 104 19c32 0 61 -7.66699 87 -23
c30.667 -17.333 46 -41 46 -71c0 -46 -18.333 -81.667 -55 -107c-32.667 -22 -73 -33 -121 -33c-38.667 0 -85.667 9.33301 -141 28l-137 49c-68.667 -48 -153.334 -72 -254.001 -72c-48 0 -89 7 -123 21c-47.333 18.667 -71 48.334 -71 89.001
c0 34.667 16.667 61.334 50 80.001c26.667 14.667 59 22 97 22c39.333 0 94 -10.333 164 -31c16.667 -4.66699 71 -22.334 163 -53.001c42 55.333 72 112.333 90 171c-68 0 -129.667 11 -185 33c-74 29.333 -111 72.333 -111 129c0 98 81 147 243 147h20
c8.66699 -0.666992 15 -1 19 -1l5 -7c-2 -6 -27.667 -9 -77 -9c-52.667 0 -95.334 -9 -128.001 -27c-41.333 -23.333 -62 -59 -62 -107c0 -46.667 31.667 -84 95 -112c52 -22.667 104 -33 156 -31l30 1c32 106.667 63 186.667 93 240c54 96.667 117.667 145 191 145
c44.667 0 67 -29 67 -87c0 -76.667 -29.667 -146.334 -89 -209.001s-127.666 -95.667 -204.999 -99c-12.667 -38.667 -29.667 -72.334 -51 -101.001c-15.333 -20.667 -41.333 -48.334 -78 -83.001l133 -54c59.333 -22.667 104.333 -34 135 -34c32.667 0 60 8.66699 82 26
c24.667 18.667 37 44 37 76c0 26.667 -13 47.334 -39 62.001c-22 12 -47.333 18 -76 18z" />
    <glyph glyph-name="M" unicode="M" horiz-adv-x="1020" 
d="M749 482l-30.0088 -53c-11.333 -20.667 -23 -43.167 -35 -67.5l-37 -76l-37 -77l-34.5 -71l-28.5 -58.5c-21.333 -42 -44 -79.667 -68 -113s-52 -59.666 -84 -78.999c-14 -8.66699 -30 -16.167 -48 -22.5s-36.5 -10.666 -55.5 -12.999s-38 -2.33301 -57 0
s-36.833 7.83301 -53.5 16.5c-15.333 8 -28.833 17.833 -40.5 29.5s-20.5 24.334 -26.5 38.001s-8.5 27.834 -7.5 42.501s7.16699 29 18.5 43c16 20 36.5 29.667 61.5 29s50.167 -11.667 75.5 -33c16.667 -12 29.834 -25.333 39.501 -40s13.834 -29 12.501 -43
c-2 -4.66699 -5.33301 -4.66699 -10 0c-5.33301 15.333 -12.166 28.666 -20.499 39.999s-17.166 20.666 -26.499 27.999c-22.667 19.333 -45.167 30.166 -67.5 32.499s-40.5 -4.5 -54.5 -20.5c-8 -10.667 -12.167 -21.5 -12.5 -32.5s1.66699 -22 6 -33
s10.833 -21.333 19.5 -31s18.667 -18.167 30 -25.5c20 -13.333 41.333 -21.333 64 -24s44.834 -1.5 66.501 3.5s42.334 13 62.001 24s37.167 23.833 52.5 38.5c19.333 18.667 36.833 40 52.5 64s31.167 50.667 46.5 80c15.333 28.667 31.333 61 48 97l52.5 110.5l57.5 114
c20 38.333 41 74.333 63 108s45.333 64 70 91s51 48.833 79 65.5c1.33301 0.666992 2.5 1 3.5 1s2.16699 0.333008 3.5 1l5 -2l-17 -34l-24 -47c-52 -106 -88 -227 -108 -363c101.333 160.667 220.333 307.334 357 440.001l5 -1c-20.667 -40 -43.167 -86.333 -67.5 -139
l-80.5 -180c-72.667 -166 -109 -266.333 -109 -301c0 -12.667 4 -19 12 -19c20.667 0 42.334 23.333 65.001 70c22.667 46 37.334 69.667 44.001 71l7 -4c-45.333 -106 -88.666 -159 -129.999 -159c-31.333 0 -47 24.667 -47 74c0 48 16 111 48 189
c3.33301 9.33301 11.833 29.166 25.5 59.499l57.5 123.5l-1 1c-92.667 -114.667 -187.334 -252.334 -284.001 -413.001c-2.66699 -4 -5.66699 -9 -9 -15s-7.66602 -13.333 -12.999 -22l-10 -4l-6 4c24.667 56 48 136.667 70 242c24.667 117.333 44.667 199 60 245z
M375.991 645c34 14 65.6621 21.1699 94.9951 21.5029s57.5 -2.33398 84.5 -8.00098s52.833 -12.667 77.5 -21s49 -14 73 -17s48 -1.33301 72 5s48.667 21.166 74 44.499l-3 -22c-38.667 -32 -74.167 -53.5 -106.5 -64.5s-62.666 -16 -90.999 -15s-55.5 5.5 -81.5 13.5
s-51.833 15.5 -77.5 22.5s-52.167 10.667 -79.5 11s-56.666 -6.5 -87.999 -20.5c-30 -14 -57.167 -34.667 -81.5 -62s-45.166 -57.5 -62.499 -90.5s-30.5 -66.667 -39.5 -101s-12.833 -65.166 -11.5 -92.499c0 -28 7.66699 -51.667 23 -71c16 -20 38.333 -30 67 -30
c59.333 2 116 47.667 170 137c49.333 80.667 73 153 71 217c-0.666992 28.667 -13 42.667 -37 42c-54 -2 -102.333 -37.667 -145 -107c-15.333 -24 -28.666 -50.667 -39.999 -80s-21.666 -61.666 -30.999 -96.999l-8 -5l-7 4c17.333 69.333 42.666 130.666 75.999 183.999
c44.667 73.333 94.334 111 149.001 113c38 0.666992 57.333 -17.333 58 -54c2 -70 -21.667 -146 -71 -228c-53.333 -90 -113.666 -136 -180.999 -138c-32.667 -0.666992 -59 9.33301 -79 30c-10 10 -17.333 21.5 -22 34.5s-7.33398 27.833 -8.00098 44.5
c-1.33301 40 4.16699 80.5 16.5 121.5s30 79.667 53 116s50.833 68.666 83.5 96.999s68.667 50.166 108 65.499z" />
    <glyph glyph-name="N" unicode="N" horiz-adv-x="920" 
d="M277 -42c-56.667 0 -107.334 12.3379 -152.001 37.0049c-54.667 30 -82 71 -82 123c0 57.333 28.667 102 86 134c46.667 26 101.667 39 165 39c42 0 77.667 -8.66699 107 -26c35.333 -21.333 53 -51.333 53 -90c0 -41.333 -22 -73.333 -66 -96
c-35.333 -18.667 -76.333 -28 -123 -28c-16.667 0 -43 4.66699 -79 14c-40.667 10.667 -61 21.334 -61 32.001c0 0.666992 0.5 2.66699 1.5 6s1.5 5.33301 1.5 6c40.667 -28.667 88.667 -43 144 -43c42.667 0 78.667 8.33301 108 25c37.333 21.333 56 50.666 56 87.999
c0 34.667 -17.333 60.334 -52 77.001c-26.667 13.333 -59 20 -97 20c-56.667 0 -106.334 -12 -149.001 -36c-52 -29.333 -78 -70 -78 -122c0 -44.667 24 -80.334 72 -107.001c40.667 -24 84.667 -36 132 -36c42.667 -1.33301 80.334 5 113.001 19s61.667 32.833 87 56.5
s47.5 51.167 66.5 82.5s35.667 63.666 50 96.999s26.833 66.666 37.5 99.999l30 91c8 24.667 15.5 45.667 22.5 63s14.5 34.5 22.5 51.5l25.5 56c9 20.333 19.5 45.5 31.5 75.5l8 3l9 -6c0.666992 -8 -2 -27 -8 -57c-7.33301 -34.667 -11.333 -56 -12 -64
c-1.33301 -23.333 -2.5 -49.833 -3.5 -79.5s-1.5 -62.5 -1.5 -98.5v-178l63.5 143l91.5 199l44 90c22.667 38.667 46.334 58 71.001 58c10.667 0 19.834 -3.66699 27.501 -11s11.5 -16.333 11.5 -27c0 -18 -5.83301 -33.833 -17.5 -47.5s-26.167 -20.5 -43.5 -20.5
c-16.667 0 -27 9.33301 -31 28c-8.66699 -15.333 -21.167 -40.833 -37.5 -76.5l-62.5 -137.5l-64.5 -141l-89.5 -199c-1.33301 -5.33301 -3 -10.333 -5 -15s-4 -9.66699 -6 -15c-6.66699 -14 -12.667 -21.333 -18 -22l-7 5c8 42.667 12 92 12 148
c0 8.66699 -0.166992 19.667 -0.5 33s-0.833008 28.666 -1.5 45.999c-0.666992 18 -1.16699 33.667 -1.5 47s-0.5 24.666 -0.5 33.999c0 41.333 3 92.666 9 153.999c-11.333 -21.333 -22.166 -48.5 -32.499 -81.5s-22.333 -68 -36 -105s-29.834 -74.167 -48.501 -111.5
s-41.334 -71 -68.001 -101s-58.167 -54.5 -94.5 -73.5s-79.5 -28.833 -129.5 -29.5z" />
    <glyph glyph-name="O" unicode="O" horiz-adv-x="710" 
d="M351 534c62.667 98.667 134.666 147.998 215.999 147.998c24.667 0 47.167 -4.83301 67.5 -14.5s37.833 -23.167 52.5 -40.5s25.834 -38.166 33.501 -62.499s11.5 -50.833 11.5 -79.5c0 -116.667 -38.333 -226.334 -115 -329.001
c-83.333 -111.333 -181.666 -167 -294.999 -167c-36 0 -68.667 5.66699 -98 17s-54.333 27.333 -75 48s-36.667 45.667 -48 75s-17 62 -17 98c0 40.667 9.16699 80.667 27.5 120s43.5 75 75.5 107c4.66699 4.66699 12.334 10.834 23.001 18.501s23.167 15.334 37.5 23.001
s30.166 15 47.499 22s35.666 12.167 54.999 15.5zM453.999 199.998c-29.333 -29.333 -58.0029 -43.9971 -86.0029 -43.9971c-33.333 0 -59 11.667 -77 35c-16.667 20.667 -25 48 -25 82c0 74 21 149 63 225c-33.333 -15.333 -63.666 -40 -90.999 -74
c-24 -29.333 -43.5 -62 -58.5 -98s-22.5 -72 -22.5 -108c0 -30.667 4 -59 12 -85s19.5 -48.5 34.5 -67.5s32.833 -33.833 53.5 -44.5s44 -16 70 -16c58 0 109.333 25.667 154 77s87.667 127.666 129 228.999c8 19.333 16.5 41.666 25.5 66.999s16.833 51 23.5 77
s11 51.667 13 77s-0.333008 47.666 -7 66.999s-18.167 34.833 -34.5 46.5s-39.833 17.167 -70.5 16.5l-2 1c-33.333 0 -65.833 -10.333 -97.5 -31s-61.5 -52.667 -89.5 -96c16 2 32.333 2.16699 49 0.5s33.334 -5.5 50.001 -11.5
c3.33301 -1.33301 2.33301 -3.16602 -3 -5.49902s-10.666 -3.5 -15.999 -3.5h-11c-3.33301 0 -6.33301 0.333008 -9 1l-8 2c-24 0 -47 -3.66699 -69 -11c-48 -85.333 -72 -165 -72 -239c0 -26 6.66699 -48.667 20 -68c15.333 -21.333 35.666 -32 60.999 -32
s52.333 14.333 81 43c31.333 32 54.166 65.5 68.499 100.5s21.5 66.5 21.5 94.5c0 14.667 -4.66699 27.667 -14 39s-21.333 17 -36 17c-18.667 0 -39.334 -10.667 -62.001 -32l-34 -32c-3.33301 -3.33301 -6.16602 -3.5 -8.49902 -0.5s-1.5 6.5 2.5 10.5
c36.667 44 72.334 66 107.001 66c18 0 32.5 -7.5 43.5 -22.5s16.5 -31.5 16.5 -49.5c0 -14.667 -1.33301 -29.834 -4 -45.501s-7.5 -32 -14.5 -49s-16.667 -34.667 -29 -53s-28.166 -36.833 -47.499 -55.5z" />
    <glyph glyph-name="P" unicode="P" horiz-adv-x="728" 
d="M59 1c0.666992 15.333 6.99609 28.8232 18.9961 40.4902s26.667 21.334 44 29.001s35.833 13.334 55.5 17.001s37.167 5.16699 52.5 4.5c4.66699 0 9.5 -0.333008 14.5 -1l15.5 -2c30 16.667 55.333 37.834 76 63.501s38.667 53.334 54 83.001s29 60.334 41 92.001
l36 91.5c8 19.333 17.167 39.5 27.5 60.5s21.833 41.833 34.5 62.5s26.334 40.667 41.001 60s30.667 37 48 53c-32 16.667 -64.833 26 -98.5 28s-66.667 -0.833008 -99 -8.5s-63.333 -19.334 -93 -35.001s-56.5 -32.834 -80.5 -51.501c-25.333 -19.333 -47.333 -40 -66 -62
c-17.333 -20 -32.166 -40.833 -44.499 -62.5s-22.5 -43.334 -30.5 -65.001s-14 -42.5 -18 -62.5s-6 -38.333 -6 -55c0 -30.667 6.33301 -56.334 19 -77.001c16 -25.333 38.333 -38 67 -38c60 0 113 37.667 159 113c40.667 66.667 61 132.334 61 197.001
c0 14.667 -4 28.334 -12 41.001s-19 19 -33 19c-72.667 0 -128.334 -72 -167.001 -216c-2.66699 -8.66699 -5.66699 -13 -9 -13l-7 5c0.666992 48.667 19 99.334 55 152.001c40 57.333 83.333 86 130 86c18.667 0 33.667 -7.66699 45 -23
c9.33301 -14.667 14 -31.334 14 -50.001c0 -67.333 -21.333 -136.333 -64 -207c-49.333 -80 -105 -120 -167 -120c-36 0 -63.333 13 -82 39c-16.667 22.667 -25 52.667 -25 90c0 64.667 15.333 124.334 46 179.001s70.334 101.334 119.001 140.001
c29.333 23.333 61 43 95 59s68.833 27.833 104.5 35.5s71.667 10.334 108 8.00098s71.166 -10.166 104.499 -23.499c24.667 19.333 50.667 34 78 44h3c4.66699 0 7.66699 -3 9 -9c-12.667 -5.33301 -24.5 -11.833 -35.5 -19.5s-21.167 -16.167 -30.5 -25.5
c18 -9.33301 33.833 -21.5 47.5 -36.5s25 -31.333 34 -49s15.833 -36.167 20.5 -55.5s7 -38 7 -56c0 -33.333 -6.16699 -65.833 -18.5 -97.5s-29 -60.167 -50 -85.5s-45.333 -45.666 -73 -60.999s-56.834 -23 -87.501 -23c-7.33301 0 -16 0.833008 -26 2.5
s-19.5 3.83398 -28.5 6.50098s-16.5 5.83398 -22.5 9.50098s-9 7.16699 -9 10.5c0 4 2.33301 6 7 6c2 0 5.83301 -1 11.5 -3s11.834 -4 18.501 -6l19.5 -6c6.33301 -2 10.833 -3 13.5 -3c22.667 0 44.5 7.83301 65.5 23.5s39.5 36 55.5 61s28.833 53 38.5 84
s14.834 62 15.501 93s-4 60.5 -14 88.5s-26.667 51 -50 69c-24.667 -31.333 -45.334 -67.166 -62.001 -107.499l-48 -120.5c-12.667 -32.667 -26.334 -65.834 -41.001 -99.501s-31.667 -65.5 -51 -95.5s-41.833 -56.5 -67.5 -79.5s-55.5 -40.5 -89.5 -52.5
c15.333 -3.33301 30.333 -7.66602 45 -12.999l43 -15c20.667 -7.33301 41.167 -14 61.5 -20s40.5 -9.33301 60.5 -10s39.667 2.5 59 9.5s38 20.167 56 39.5c1.33301 0.666992 2 1.5 2 2.5s0.333008 1.16699 1 0.5c2 -0.666992 3 -1.66699 3 -3v-6
c0 -6 -4.83301 -14.333 -14.5 -25s-22.667 -21 -39 -31s-34.833 -18.333 -55.5 -25s-42 -9.33398 -64 -8.00098c-20.667 1.33301 -41.334 4.33301 -62.001 9s-41.334 10.334 -62.001 17.001c-7.33301 2 -18.166 5.5 -32.499 10.5s-30.333 9.66699 -48 14
s-35.667 8.16602 -54 11.499s-35.166 4.5 -50.499 3.5s-28.166 -5 -38.499 -12s-15.833 -17.833 -16.5 -32.5c0 -11.333 3.83301 -20.166 11.5 -26.499s17.334 -11.166 29.001 -14.499s23.667 -5.66602 36 -6.99902s22.833 -2 31.5 -2c14.667 0 27.334 0.666992 38.001 2
s19.667 2.66602 27 3.99902s13.666 2.66602 18.999 3.99902s10 2 14 2c1.33301 0.666992 2.33301 -0.166016 3 -2.49902s1 -3.83301 1 -4.5c0 -4 -5.16699 -7.16699 -15.5 -9.5s-22.166 -4.33301 -35.499 -6s-26.333 -2.83398 -39 -3.50098s-21.667 -1 -27 -1
c-11.333 0.666992 -23.333 2.16699 -36 4.5s-24.667 6.16602 -36 11.499s-20.666 12 -27.999 20s-11 17.667 -11 29z" />
    <glyph glyph-name="Q" unicode="Q" horiz-adv-x="660" 
d="M544 -33c48 0 72.001 15.6689 72.001 47.002c0 16.667 -12 29.667 -36 39c-17.333 6.66699 -36.666 10 -57.999 10c-5.33301 0 -11.666 -0.5 -18.999 -1.5l-26 -3.5c-10 -1.33301 -18.833 -2.33301 -26.5 -3s-14.167 -1 -19.5 -1c-4 0 -6 2.66699 -6 8
c0 8.66699 31 13 93 13c25.333 0 48.666 -4 69.999 -12c28 -11.333 42 -28 42 -50c0 -26 -16.333 -45.333 -49 -58c-25.333 -10 -53 -15 -83 -15c-39.333 0 -90.333 13.667 -153 41l-94 41c-1.33301 0 -19 -4.66699 -53 -14c-32 -8.66699 -58 -13 -78 -13
c-22.667 0 -44.334 5 -65.001 15c-26 12 -39 28 -39 48c0 39.333 30 59 90 59c25.333 0 55.666 -5 90.999 -15l44 -14l44 -14c164.667 169.333 247 326.666 247 471.999c0 38 -8.66699 69.333 -26 94c-20 27.333 -48.667 41 -86 41c-71.333 0 -136 -49.667 -194 -149
c-51.333 -89.333 -77 -172 -77 -248c0 -26 6.66699 -48.667 20 -68c15.333 -21.333 35.666 -32 60.999 -32c49.333 0 101 49.333 155 148c49.333 90.667 74 163.334 74 218.001c0 14.667 -4.66699 27.667 -14 39s-21.333 17 -36 17c-18.667 0 -39.334 -10.667 -62.001 -32
l-34 -32l-7 6l1 4c36.667 44 72.334 66 107.001 66c18 0 32.5 -7.5 43.5 -22.5s16.5 -31.5 16.5 -49.5c0 -58 -25.667 -132.667 -77 -224c-56 -100.667 -110 -151 -162 -151c-33.333 0 -59 11.667 -77 35c-16.667 20.667 -25 48 -25 82c0 86.667 28.333 173.667 85 261
c62.667 98.667 134.667 148 216 148c54 0 97 -18 129 -54c32.667 -34.667 49 -79.334 49 -134.001c0 -80 -33.333 -164.333 -100 -253c-51.333 -70 -117.333 -135.667 -198 -197l74.5 -40.5c18.333 -9.66699 30.5 -15.834 36.5 -18.501c46.667 -22 86.334 -33 119.001 -33z
M32.001 63.002c0 -19.333 12.334 -33.333 37.001 -42c17.333 -6.66699 37.666 -10 60.999 -10c37.333 0 70.666 7.33301 99.999 22c-71.333 39.333 -123.666 59 -156.999 59c-27.333 0 -41 -9.66699 -41 -29z" />
    <glyph glyph-name="R" unicode="R" horiz-adv-x="879" 
d="M785 60c14 0 28.6699 24.001 44.0029 72.001l5 2l4 -7c-2.66699 -12.667 -6.5 -25.667 -11.5 -39s-11.833 -26.666 -20.5 -39.999c-21.333 -33.333 -42 -50 -62 -50c-15.333 0 -38.333 41.333 -69 124c-28.667 78 -43 129 -43 153c0 5.33301 1.83301 8.66602 5.5 9.99902
s8.83398 1.66602 15.501 0.999023c4.66699 -0.666992 8 -1.16699 10 -1.5s3.33301 -0.5 4 -0.5c52.667 0 93.334 23.333 122.001 70c24.667 38.667 37 86 37 142c0 58.667 -22.333 102.334 -67 131.001c-37.333 23.333 -87.333 35 -150 35c-67.333 0 -131.333 -21 -192 -63
c-66.667 -46.667 -100 -102 -100 -166c0 -16 4.66699 -30.667 14 -44s21.666 -20 36.999 -20c26.667 0 47.667 11.667 63 35c11.333 20.667 17 45.334 17 74.001c0 7.33301 -1 16.666 -3 27.999c-1.33301 7.33301 -2.33301 13.166 -3 17.499s-1.33398 7.83301 -2.00098 10.5
l3 7l5 1l7 -3c6.66699 -20.667 10 -44.334 10 -71.001s-7.66699 -51.667 -23 -75c-17.333 -26 -39 -39 -65 -39c-22.667 0 -40.834 6.83301 -54.501 20.5s-20.5 32.167 -20.5 55.5c0 72 37.333 133.333 112 184c67.333 45.333 138.666 68 213.999 68
c72 0 131.333 -13.333 178 -40c57.333 -33.333 86 -83 86 -149c0 -60 -16 -110.333 -48 -151c-32.667 -42 -78.667 -68.667 -138 -80c1.33301 -12 4.66602 -27.167 9.99902 -45.5s12.333 -40.166 21 -65.499c20 -60.667 36 -91 48 -91zM512.003 322.001
c20.667 46 38.332 81.6621 52.999 106.995c53.333 89.333 109.666 138 168.999 146v-9c-58.667 -29.333 -107.334 -98.666 -146.001 -207.999c-2 -6 -4.16699 -12 -6.5 -18l-6.5 -17l-28 -73.5c-9.33301 -24.333 -20 -48.333 -32 -72s-25.667 -46.5 -41 -68.5
s-33.333 -43 -54 -63c-30.667 -30 -64.667 -53.667 -102 -71s-78.666 -25 -123.999 -23c-23.333 1.33301 -46.5 6.16602 -69.5 14.499s-45.167 20.166 -66.5 35.499c-9.33301 6.66699 -16.833 14.834 -22.5 24.501s-9.33398 19.834 -11.001 30.501
s-1.33398 21.334 0.999023 32.001s7.16602 20.334 14.499 29.001c16 20.667 36.5 30.834 61.5 30.501s50.167 -11.166 75.5 -32.499c16.667 -12.667 30 -26.334 40 -41.001s14.333 -29 13 -43c-2 -4.66699 -5.33301 -4.66699 -10 0c-6 15.333 -13.167 28.666 -21.5 39.999
s-17.166 21 -26.499 29c-23.333 19.333 -46.166 30 -68.499 32s-40.166 -5.33301 -53.499 -22c-11.333 -15.333 -14.666 -32.666 -9.99902 -51.999s15.334 -35.666 32.001 -48.999c20.667 -16 41.667 -27.333 63 -34s43 -9.33398 65 -8.00098c33.333 2 62.5 8.5 87.5 19.5
s47.167 25.333 66.5 43s36.333 38 51 61s28 47.333 40 73s23.333 51.834 34 78.501z" />
    <glyph glyph-name="S" unicode="S" horiz-adv-x="651" 
d="M543 480l4.00098 -4.99902c1.33301 -7.33301 -1.33398 -11 -8.00098 -11l-2 1c-90.667 34 -164.667 51 -222 51c-51.333 0 -94.333 -7.66699 -129 -23c-47.333 -20.667 -71 -53 -71 -97c0 -42 17.333 -72.667 52 -92c62 90 127.667 135 197 135
c35.333 0 62.666 -13.333 81.999 -40c16.667 -23.333 25 -52.666 25 -87.999c0 -10 -0.666992 -20 -2 -30c58 17.333 90.333 29.666 97 36.999c4.66699 5.33301 17 33.666 37 84.999c24.667 63.333 37.334 95.666 38.001 96.999c67.333 152.667 138 229 212 229
c24.667 0 37 -14.333 37 -43c0 -41.333 -20.333 -92.666 -61 -153.999c-31.333 -46.667 -68 -90.334 -110 -131.001c-16.667 -13.333 -41 -34 -73 -62c-44.667 -112.667 -68 -171 -70 -175c-31.333 -68 -65.666 -119.333 -102.999 -154c-48 -44 -105.333 -66 -172 -66
c-58.667 0 -104.334 16.333 -137.001 49s-49 78.334 -49 137.001c0 48.667 15 102 45 160c-41.333 24 -62 58.333 -62 103c0 50 25 87 75 111c37.333 17.333 84.333 26 141 26c84 0 160.333 -16.667 229 -50zM876.001 685.001c0 19.333 -6.66699 29 -20 29
c-28 0 -65.333 -48.667 -112 -146l-83 -192c38.667 22 83.667 68 135 138c53.333 74 80 131 80 171zM454.001 277.001c2 10 3.00293 19.667 3.00293 29c0 33.333 -7.33301 61 -22 83c-17.333 25.333 -42 38 -74 38c-32.667 0 -67.334 -14.667 -104.001 -44
c-30.667 -25.333 -56.334 -54.333 -77.001 -87c49.333 -25.333 98.333 -38 147 -38c49.333 0 91.666 6.33301 126.999 19zM196.004 142.001c0 16 3.33203 24.001 9.99902 24.001c5.33301 0 8 -11.667 8 -35s5 -43.333 15 -60c12 -20 28.667 -30 50 -30
c38 0 76.333 28 115 84c34.667 50 54.334 95.667 59.001 137c-50.667 -12.667 -91.667 -19 -123 -19c-24 0 -56.167 6.33301 -96.5 19s-60.166 19 -59.499 19c-8.66699 0 -18.334 -23 -29.001 -69c-9.33301 -40.667 -14 -69 -14 -85c0 -50 14.833 -90.667 44.5 -122
s69.5 -47 119.5 -47c56.667 0 103.334 24.333 140.001 73c17.333 22.667 42.666 71.667 75.999 147c15.333 34 30.666 73.333 45.999 118c-27.333 -12.667 -56.666 -22.667 -87.999 -30c-9.33301 -52 -31 -102.667 -65 -152c-40 -58.667 -83 -88 -129 -88
c-27.333 0 -48 13.333 -62 40c-11.333 21.333 -17 46.666 -17 75.999z" />
    <glyph glyph-name="T" unicode="T" horiz-adv-x="769" 
d="M847 562l-0.99707 -0.999023c-18.667 -11.333 -34.167 -24.833 -46.5 -40.5s-23.833 -33.167 -34.5 -52.5c-18 -32 -34.167 -70.667 -48.5 -116l-46 -142c-16.333 -49.333 -34.333 -98.5 -54 -147.5s-43.667 -93.167 -72 -132.5s-62.333 -71.666 -102 -96.999
s-86.834 -39 -141.501 -41c-26.667 -1.33301 -50.334 2.33398 -71.001 11.001s-38.167 21.167 -52.5 37.5s-25.166 35.666 -32.499 57.999s-11 47.166 -11 74.499c0 70.667 22.333 142.334 67 215.001c50 83.333 108 125 174 125c32.667 0 59.334 -9.5 80.001 -28.5
s31 -44.833 31 -77.5c0 -56 -18.333 -120.333 -55 -193c-42 -84.667 -87.667 -127 -137 -127c-22 0 -40 8.16699 -54 24.5s-21 35.5 -21 57.5c0 6.66699 0.666992 15 2 25s3.33301 22.333 6 37c7.33301 33.333 13.666 50 18.999 50c6.66699 0 10 -4 10 -12
c0 -9.33301 -3.66699 -26 -11 -50c-6.66699 -20.667 -10 -37.667 -10 -51c0 -18 5 -33.333 15 -46c10.667 -14.667 24.667 -22 42 -22c46 0 88.333 41.333 127 124c34 72 51 134 51 186c0 26.667 -8.5 48.5 -25.5 65.5s-38.833 25.5 -65.5 25.5
c-62.667 0 -118 -40 -166 -120c-42.667 -70.667 -64 -139.334 -64 -206.001c0 -48.667 12.333 -87.667 37 -117c27.333 -33.333 64 -50 110 -50c44 -0.666992 80.667 9.83301 110 31.5s54.666 50.167 75.999 85.5s39.833 76.166 55.5 122.499l48 143
c16.333 49 34.5 97.833 54.5 146.5s44.667 93 74 133c47.333 65.333 89.666 97 126.999 95zM793.003 584.001l-80.999 24.5c-26 7.66699 -52 12.667 -78 15s-52 0.833008 -78 -4.5s-53 -16.333 -81 -33c-30 -18 -54.667 -40.167 -74 -66.5s-29.333 -56.166 -30 -89.499
c0 -46 17.333 -69 52 -69c29.333 0 51.333 15.667 66 47c11.333 26 17 53.667 17 83c0 6.66699 -1.33301 16.667 -4 30s-4 23.333 -4 30c0 1.33301 0.333008 2.33301 1 3v3l8 2l8 -2c3.33301 -10 5.5 -20.167 6.5 -30.5s1.5 -21.5 1.5 -33.5
c0 -39.333 -7.33301 -71.666 -22 -96.999c-18 -33.333 -47 -50 -87 -50c-10 0 -19 2.33301 -27 7s-14.667 12 -20 22c-4.66699 8 -8.33398 16.333 -11.001 25s-3.66699 18 -3 28c1.33301 40.667 13.5 76.167 36.5 106.5s51.833 55.5 86.5 75.5
c32 18.667 66.5 32.667 103.5 42s72.167 13.666 105.5 12.999c19.333 0 41.333 -2.83301 66 -8.5s50 -12.5 76 -20.5c29.333 -8.66699 56.5 -17.167 81.5 -25.5s50.167 -14.166 75.5 -17.499c21.333 -2.66699 39 -2.66699 53 0s25.5 7.5 34.5 14.5s16.167 15.667 21.5 26
s10.333 21.833 15 34.5c2.66699 2.66699 5 4 7 4s3 -1 3 -3c0 -0.666992 -0.166992 -1.16699 -0.5 -1.5s-0.5 -0.833008 -0.5 -1.5c-3.33301 -14 -8 -28.167 -14 -42.5s-14.333 -27.333 -25 -39s-23.5 -21.334 -38.5 -29.001s-32.833 -12.167 -53.5 -13.5
c-32.667 -2 -64.5 1.66699 -95.5 11s-63.5 19.666 -97.5 30.999z" />
    <glyph glyph-name="U" unicode="U" horiz-adv-x="914" 
d="M145 525c12 15.333 25 29.1699 39 41.5029s28.667 24.166 44 35.499c34.667 24 72.167 44.667 112.5 62s85.5 26.666 135.5 27.999c27.333 0 51 -4.33301 71 -13s40 -16.667 60 -24s41.833 -11.666 65.5 -12.999s52.5 5.66699 86.5 21
c7.33301 1.33301 11.833 0.333008 13.5 -3s-0.166016 -7.33301 -5.49902 -12c-38.667 -21.333 -73.167 -53.5 -103.5 -96.5s-56.5 -90.167 -78.5 -141.5l-39.5 -90.5c-13 -30.333 -25 -60.833 -36 -91.5s-20.333 -60.834 -28 -90.501s-12.5 -58.834 -14.5 -87.501
c-1.33301 -10 -0.833008 -18 1.5 -24s6.83301 -8.33301 13.5 -7c10.667 2 24.834 8.5 42.501 19.5s37.167 26.667 58.5 47s44 45.333 68 75s47.667 64.167 71 103.5c33.333 56 64.833 113.833 94.5 173.5s55.834 114.5 78.501 164.5l74 8l-34 -75.5l-37 -79.5l-37 -79.5
l-34 -75.5c-34 -76.667 -59.5 -138.667 -76.5 -186s-25.5 -77.333 -25.5 -90c0 -12 4 -18 12 -18c24 0 48.333 22.333 73 67l48 99l4 2l8 -6c-1.33301 -23.333 -18.333 -58.333 -51 -105c-34.667 -48.667 -63 -73 -85 -73c-16.667 0 -29.667 10.667 -39 32
c-7.33301 16.667 -11 34.334 -11 53.001c0 17.333 3 39.5 9 66.5s14.333 55.5 25 85.5c-6 -12.667 -17.333 -30.334 -34 -53.001s-36 -45.834 -58 -69.501s-45.167 -45.667 -69.5 -66s-46.833 -34.166 -67.5 -41.499c-5.33301 -2 -11 -3.83301 -17 -5.5
s-11.333 -2.83398 -16 -3.50098c-12 -1.33301 -22.333 0.166992 -31 4.5s-15.834 10.166 -21.501 17.499s-10 15.333 -13 24s-4.5 17 -4.5 25c0 20 3.5 43.667 10.5 71s16.833 56.5 29.5 87.5s27.667 63.333 45 97s36 66.5 56 98.5c28 44 57.5 85.167 88.5 123.5
s61.833 69.166 92.5 92.499c-23.333 -10 -44.5 -17.333 -63.5 -22s-36.667 -7.5 -53 -8.5s-31.333 -0.166992 -45 2.5s-26.834 6.66699 -39.501 12c-28.667 10.667 -54.667 17.834 -78 21.501s-45.5 4.5 -66.5 2.5s-41.167 -7 -60.5 -15s-39 -18.333 -59 -31
c-34 -23.333 -63.333 -51 -88 -83c-51.333 -73.333 -77 -147.666 -77 -222.999c0 -30.667 6.33301 -56.334 19 -77.001c16 -25.333 38.333 -38 67 -38c60 0 113 37.667 159 113c40.667 66.667 61 132.334 61 197.001c0 14.667 -4 28.334 -12 41.001s-19 19 -33 19
c-72.667 0 -128.334 -72 -167.001 -216c-2.66699 -8.66699 -5.66699 -13 -9 -13l-7 5c0.666992 48.667 19 99.334 55 152.001c40 57.333 83.333 86 130 86c18.667 0 33.667 -7.66699 45 -23c9.33301 -14.667 14 -31.334 14 -50.001c0 -67.333 -21.333 -136.333 -64 -207
c-49.333 -80 -105 -120 -167 -120c-36 0 -63.333 13 -82 39c-16.667 22.667 -25 52.667 -25 90c0 82.667 27.667 161.667 83 237v5z" />
    <glyph glyph-name="V" unicode="V" horiz-adv-x="685" 
d="M95 270c0 95.333 34.6699 183.667 104.003 265c36 42.667 73.333 74.167 112 94.5s83.667 30.5 135 30.5c44 0 79.5 -12.167 106.5 -36.5s40.5 -57.833 40.5 -100.5c0 -46 -14.667 -105 -44 -177l-41 -89l-41 -89c-29.333 -64.667 -44 -111 -44 -139
c0 -14.667 7.33301 -22 22 -22h6c38 0 90.333 61.333 157 184c62 114 93.667 192.333 95 235l-3 6c-6.66699 -1.33301 -10.334 -2 -11.001 -2c-10.667 0 -20 6.66699 -28 20c-6.66699 10.667 -10 22 -10 34c0 17.333 3.66699 34 11 50c9.33301 19.333 22.333 29 39 29
c12.667 0 22.334 -7.33301 29.001 -22c6 -12 9 -24.667 9 -38c0 -38 -17 -98.333 -51 -181c-34.667 -86 -73.667 -160.333 -117 -223c-50.667 -72.667 -95.667 -109 -135 -109c-18.667 0 -33.334 6.33301 -44.001 19s-16 28 -16 46c0 54.667 25.333 132.667 76 234
c51.333 104 77 183 77 237c0 16.667 -3.16699 32.167 -9.5 46.5s-14.833 26.666 -25.5 36.999s-23.334 18.333 -38.001 24s-30.334 8.5 -47.001 8.5c-76 0 -146 -43.333 -210 -130c-59.333 -81.333 -89 -161 -89 -239c0 -28.667 7 -52.334 21 -71.001
c16 -21.333 38 -32 66 -32c60 0 118 43.667 174 131c52 78.667 78 150.334 78 215.001c0 28.667 -12 43 -36 43c-54 0 -103.333 -34 -148 -102c-30.667 -47.333 -56 -105.666 -76 -174.999l-8 -5l-7 4c18.667 68 45.667 128.667 81 182c46.667 72 97.334 108 152.001 108
c38 0 57 -18.333 57 -55c0 -70 -26 -145.333 -78 -226c-56.667 -88.667 -118.334 -133 -185.001 -133c-33.333 0 -59.333 11 -78 33c-18.667 19.333 -28 46 -28 80z" />
    <glyph glyph-name="W" unicode="W" horiz-adv-x="889" 
d="M549 4c0 35.333 11.666 81.9971 34.999 139.997l61 135c-60.667 -84.667 -100 -138 -118 -160c-63.333 -79.333 -108.666 -119 -135.999 -119c-12.667 0 -23 5 -31 15s-12 21.333 -12 34c0 42 29.167 119.833 87.5 233.5s87.5 194.167 87.5 241.5
c0 32.667 -12.5 60.5 -37.5 83.5s-54.167 34.5 -87.5 34.5c-75.333 0 -145 -43.333 -209 -130c-60 -80.667 -90 -160 -90 -238c0 -28 7 -52 21 -72c16 -22 37.667 -33 65 -33c60.667 0 119.667 44.333 177 133c52 80.667 78 152.667 78 216c0 27.333 -12 41 -36 41
c-97.333 0 -172.666 -92.333 -225.999 -277l-8 -5l-5 4c9.33301 62.667 34.333 124.334 75 185.001c47.333 71.333 99 107 155 107c40 0 60 -18.667 60 -56c0 -67.333 -27 -142.333 -81 -225c-58.667 -90 -120 -135 -184 -135c-30.667 0 -55.834 9.83301 -75.501 29.5
s-29.5 44.834 -29.5 75.501c0 96 33.333 185 100 267c70 87.333 152 131 246 131c42.667 0 78.667 -12 108 -36c31.333 -26 47 -60 47 -102c0 -45.333 -16 -103.666 -48 -174.999l-91 -176c-32 -62.667 -48 -106.334 -48 -131.001c0 -10 4.33301 -15 13 -15
c15.333 0 57.333 45.667 126 137c56.667 74 96.667 130.667 120 170c30 49.333 61.667 110.333 95 183l62 -20l-175 -399c-27.333 -62 -41 -104 -41 -126c0 -12 5.33301 -18 16 -18c40 0 96.667 66 170 198c56 102 96.333 189.333 121 262c-6 -3.33301 -13 -5 -21 -5
c-12 0 -22 6.66699 -30 20c-6.66699 11.333 -10 23.333 -10 36c0 18 4 35 12 51c9.33301 19.333 22 29 38 29c12.667 0 22.667 -8 30 -24c5.33301 -12.667 8 -26.334 8 -41.001c0 -37.333 -19.667 -100.666 -59 -189.999c-40.667 -91.333 -85 -170.666 -133 -237.999
c-55.333 -78 -101 -117 -137 -117c-16 0 -29.667 8 -41 24c-9.33301 14 -14 29.667 -14 47z" />
    <glyph glyph-name="X" unicode="X" horiz-adv-x="851" 
d="M207 -159c29.333 -2.66699 56.9971 2.49805 82.9971 15.498s50.333 31.167 73 54.5s44 50.333 64 81s38.667 62.834 56 96.501s33.333 67.167 48 100.5l41 92c2 4 3 6.83301 3 8.5s-0.166992 3.33398 -0.5 5.00098l-1 5c-0.333008 1.66699 0.166992 4.5 1.5 8.5h-62v17
h64v107c0 63.333 -3 108 -9 134c-12.667 54.667 -41 82 -85 82c-48 0 -88.333 -23 -121 -69c-30 -41.333 -45 -86.666 -45 -135.999c0 -23.333 5.5 -41.833 16.5 -55.5s24.167 -22 39.5 -25s31.166 -0.666992 47.499 7s29.5 21.5 39.5 41.5c14.667 26.667 22 60 22 100
c0 6.66699 -1 16.167 -3 28.5s-3 21.5 -3 27.5s2.66699 9 8 9c9.33301 0 14 -20.333 14 -61c0 -38.667 -7.66699 -74.334 -23 -107.001c-20 -40.667 -48 -61 -84 -61c-60 0 -90 32.333 -90 97c0 55.333 17.667 105.333 53 150c38 46.667 84.333 70 139 70
c47.333 0 82.666 -14 105.999 -42c17.333 -22.667 29 -55.667 35 -99l4 -57.5l4 -57.5c19.333 38 37 70 53 96s30.333 46.667 43 62c49.333 61.333 99.333 92 150 92c10.667 0 19.834 -1.16699 27.501 -3.5s18.167 -6.16602 31.5 -11.499c18 6 36.667 9 56 9h11l6 -6
c0 -1.33301 -3.5 -2.83301 -10.5 -4.5s-14.5 -3.33398 -22.5 -5.00098l-22 -4.5c-6.66699 -1.33301 -9.66699 -1.66602 -9 -0.999023c13.333 -21.333 20 -44.333 20 -69c0 -17.333 -2.33301 -34.333 -7 -51s-11 -31.667 -19 -45s-17.667 -24.166 -29 -32.499
s-23.666 -12.5 -36.999 -12.5s-25.166 6 -35.499 18s-15.5 25 -15.5 39c0 30 7.83301 58 23.5 84s41.5 50.667 77.5 74c-4.66699 2 -10.667 4 -18 6s-14.666 3 -21.999 3c-50 0 -100.667 -33.667 -152 -101c-26 -35.333 -58.667 -91.333 -98 -168
c0 -11.333 -1 -28.333 -3 -51h51l5 -17h-56c-1.33301 -13.333 -2.33301 -27.333 -3 -42s-1 -30.334 -1 -47.001c0 -56.667 1 -94.334 3 -113.001c5.33301 -57.333 18.666 -86 39.999 -86c16.667 0 35 16.667 55 50c4.66699 7.33301 10.834 18.833 18.501 34.5l28.5 58.5
c14.667 34 25 51 31 51l5 -8v-2c-47.333 -135.333 -97 -203 -149 -203c-42.667 0 -70.334 33.333 -83.001 100c-6.66699 30.667 -10 80 -10 148c-13.333 -24.667 -26.666 -51.834 -39.999 -81.501s-27.666 -60 -42.999 -91s-32 -61.167 -50 -90.5
s-38.333 -55.666 -61 -78.999s-48 -42.5 -76 -57.5s-59.333 -23.167 -94 -24.5c-54 0 -95.333 16.667 -124 50s-43 77 -43 131c0 70.667 22.333 142.334 67 215.001c50 83.333 108 125 174 125c32.667 0 59.334 -9.5 80.001 -28.5s31 -44.833 31 -77.5
c0 -56 -18.333 -120.333 -55 -193c-42 -84.667 -87.667 -127 -137 -127c-22 0 -40 8.16699 -54 24.5s-21 35.5 -21 57.5c0 6.66699 0.666992 15 2 25s3.33301 22.333 6 37c7.33301 33.333 13.666 50 18.999 50c6.66699 0 10 -4 10 -12c0 -9.33301 -3.66699 -26 -11 -50
c-6.66699 -20.667 -10 -37.667 -10 -51c0 -18 5 -33.333 15 -46c10.667 -14.667 24.667 -22 42 -22c46 0 88.333 41.333 127 124c34 72 51 134 51 186c0 26.667 -8.5 48.5 -25.5 65.5s-38.833 25.5 -65.5 25.5c-62.667 0 -118 -40 -166 -120
c-42.667 -70.667 -64 -139.334 -64 -206.001c0 -48.667 12.333 -87.667 37 -117c27.333 -33.333 64 -50 110 -50zM962.997 558.998c0 27.333 -6.66797 49.666 -20.001 66.999c-12 -6.66699 -23.833 -15.5 -35.5 -26.5s-22 -23 -31 -36s-16.167 -26.667 -21.5 -41
s-7.66602 -28.5 -6.99902 -42.5c0.666992 -11.333 4.5 -21.666 11.5 -30.999s15.833 -14 26.5 -14s20.667 3.83301 30 11.5s17.5 17.5 24.5 29.5s12.5 25.333 16.5 40s6 29 6 43z" />
    <glyph glyph-name="Y" unicode="Y" horiz-adv-x="875" 
d="M201 567c-22.667 -16 -43.6631 -33.999 -62.9961 -53.999s-36 -42 -50 -66s-24.833 -49.5 -32.5 -76.5s-10.834 -55.167 -9.50098 -84.5c1.33301 -36.667 10.666 -64.167 27.999 -82.5s39 -26.833 65 -25.5c27.333 1.33301 55.333 14.166 84 38.499
s51.667 61.166 69 110.499c4 11.333 7.83301 26.166 11.5 44.499s5 36.333 4 54s-5.33301 32.5 -13 44.5s-20.834 17.667 -39.501 17c-18 -1.33301 -34 -8.33301 -48 -21c-23.333 -22.667 -41.166 -47.834 -53.499 -75.501s-17.833 -59.167 -16.5 -94.5
c1.33301 -6.66699 2 -11.667 2 -15c-0.666992 -0.666992 -1.33398 -1.83398 -2.00098 -3.50098s-2 -2.5 -4 -2.5c-5.33301 -0.666992 -8.66602 2.83301 -9.99902 10.5s-2 14.5 -2 20.5c-0.666992 18.667 2.66602 39.167 9.99902 61.5s17.166 43.333 29.499 63
s26.333 36.5 42 50.5s31.5 22 47.5 24c18 2.66699 32.833 -0.666016 44.5 -9.99902s20 -22.333 25 -39s6.83301 -36 5.5 -58s-5.66602 -44.333 -12.999 -67c-8 -28 -18.5 -52.5 -31.5 -73.5s-27.333 -38.5 -43 -52.5s-32 -24.667 -49 -32s-33.833 -11.333 -50.5 -12
c-31.333 -2 -57 7.5 -77 28.5s-30.667 52.5 -32 94.5c-1.33301 32.667 2 63.5 10 92.5s19.167 55.833 33.5 80.5s31.333 47 51 67s40.5 38 62.5 54c34.667 24 71.167 44 109.5 60s82.5 24.667 132.5 26c27.333 -3.33301 49.833 -7.83301 67.5 -13.5s33.167 -11 46.5 -16
s26.166 -9.16699 38.499 -12.5s27.166 -4.66602 44.499 -3.99902c25.333 1.33301 50.5 6.16602 75.5 14.499s49.833 19.166 74.5 32.499c6.66699 1.33301 11.5 0.833008 14.5 -1.5s2.83301 -6.5 -0.5 -12.5c-12 -2 -24.167 -7.5 -36.5 -16.5s-24.166 -20.5 -35.499 -34.5
s-22 -29.833 -32 -47.5s-19 -36.167 -27 -55.5c-0.666992 -2 -4.5 -11 -11.5 -27l-26.5 -60.5l-34.5 -80l-34.5 -84.5c-10.667 -27.333 -19.5 -52.166 -26.5 -74.499s-10.5 -39.166 -10.5 -50.499c0 -10.667 3 -16 9 -16c12.667 0 28.667 9.33301 48 28s40 42.667 62 72
s44.833 61.833 68.5 97.5l67.5 104l58 92c17.333 27.667 31 48.167 41 61.5h65l-76.5 -178l-107.5 -249c-43.333 -97.333 -91.333 -170 -144 -218c-20 -18.667 -44.5 -35.834 -73.5 -51.501s-59.167 -27 -90.5 -34s-62.333 -7.66699 -93 -2s-58 20.834 -82 45.501
c-16 16.667 -23 34.334 -21 53.001s9.66699 35 23 49s30.5 24.167 51.5 30.5s42.833 5.5 65.5 -2.5c7.33301 -1.33301 16.5 -5.16602 27.5 -11.499s21.333 -13.666 31 -21.999s17.667 -17.166 24 -26.499s8.5 -17.666 6.5 -24.999c-4 -3.33301 -7.66699 -3.33301 -11 0
l-20 23.5c-6 7 -12.167 13.5 -18.5 19.5s-13.333 11.167 -21 15.5s-17.167 8.5 -28.5 12.5c-16.667 5.33301 -33.334 5.33301 -50.001 0s-30.334 -13.666 -41.001 -24.999s-17.167 -24.5 -19.5 -39.5s2.83398 -28.833 15.501 -41.5c18 -18 39.167 -30 63.5 -36
s49.166 -7.33301 74.499 -4s50 10.666 74 21.999s44.333 25 61 41c34 32 69.333 91.333 106 178l140 333l-73.5 -111c-23.667 -36.667 -47 -70.334 -70 -101.001s-45.833 -57.334 -68.5 -80.001s-45.667 -38.334 -69 -47.001c-10 -4 -20.5 -5.33301 -31.5 -4
s-20.5 5.5 -28.5 12.5s-13.5 17 -16.5 30s-1.83301 29.167 3.5 48.5c2 8 6 21 12 39s13.333 38.333 22 61l28 70.5c10 24.333 20 46.833 30 67.5c18 37.333 39 73.666 63 108.999s50.333 66 79 92l-26 -9.5c-8 -3 -15 -5.5 -21 -7.5c-24 -9.33301 -45.667 -14.5 -65 -15.5
s-37.666 0.166992 -54.999 3.5s-33.666 7.83301 -48.999 13.5s-31.333 10.834 -48 15.501s-34 7.83398 -52 9.50098s-38 0.166992 -60 -4.5c-36 -6.66699 -70 -20.334 -102 -41.001z" />
    <glyph glyph-name="Z" unicode="Z" horiz-adv-x="662" 
d="M710 633c-11.333 -4.66699 -24.8369 -14.499 -40.5039 -29.499s-32.667 -32.167 -51 -51.5l-58.5 -61.5c-20.667 -21.667 -41.334 -41.5 -62.001 -59.5c18 -6.66699 35 -16 51 -28s29.833 -25.667 41.5 -41s20.834 -32.333 27.501 -51s10 -38 10 -58
c-0.666992 -26 -5.16699 -51.667 -13.5 -77s-20.5 -49 -36.5 -71s-35.5 -41.833 -58.5 -59.5s-49.167 -32.167 -78.5 -43.5c-21.333 -8 -46.5 -14.5 -75.5 -19.5s-58.667 -7.33301 -89 -7s-59.666 3.66602 -87.999 9.99902s-52.5 17.166 -72.5 32.499
c-21.333 16 -38.166 36.333 -50.499 61s-18.166 52 -17.499 82c-0.666992 28 5 53 17 75s27.833 40.667 47.5 56s42 27 67 35s50.167 12 75.5 12c20 -0.666992 40.833 -2.66699 62.5 -6s41.667 -9.33301 60 -18s33.5 -20.834 45.5 -36.501s18 -35.834 18 -60.501
c0 -21.333 -3.66699 -40.333 -11 -57s-20.666 -30.667 -39.999 -42c-15.333 -10.667 -35.666 -18.5 -60.999 -23.5s-50.666 -6.16699 -75.999 -3.5s-47.833 9.83398 -67.5 21.501s-31.167 28.834 -34.5 51.501l7 7c2.66699 -0.666992 5.33398 -3 8.00098 -7
c5.33301 -18.667 16.5 -32.667 33.5 -42s35.833 -15 56.5 -17s41.667 -1 63 3s39 10.333 53 19c35.333 22.667 52.666 53 51.999 91c0.666992 68.667 -56 103.667 -170 105c-23.333 0 -46.333 -3.5 -69 -10.5s-43.167 -17.5 -61.5 -31.5s-33 -31.167 -44 -51.5
s-16.167 -43.5 -15.5 -69.5c0 -30 6.16699 -56.333 18.5 -79s29.166 -41.334 50.499 -56.001c19.333 -13.333 41.666 -22.666 66.999 -27.999s51.166 -7.66602 77.499 -6.99902s51.833 4.5 76.5 11.5s46.334 16.5 65.001 28.5s35.5 26 50.5 42s28.333 33.167 40 51.5
s21.167 37.833 28.5 58.5s12.666 41.334 15.999 62.001c2.66699 17.333 3.5 34.833 2.5 52.5s-4.5 34.167 -10.5 49.5s-14.333 29 -25 41s-24 21.333 -40 28c-18 -15.333 -35.667 -27.666 -53 -36.999s-33.666 -14.666 -48.999 -15.999
c-14.667 -1.33301 -24.5 1.5 -29.5 8.5s-6.83301 15 -5.5 24s5.33301 17.5 12 25.5s14.334 12.667 23.001 14c33.333 10 66.666 10.667 99.999 2c18.667 16 37.334 33.167 56.001 51.5l52 53l42.5 45.5c12.333 13.333 21.5 22.666 27.5 27.999
c-30 -15.333 -57.5 -24.5 -82.5 -27.5s-49 -2.33301 -72 2s-45.333 10.833 -67 19.5s-43.834 16.667 -66.501 24c-19.333 6.66699 -39.5 11.5 -60.5 14.5s-41.667 3.5 -62 1.5s-39.5 -7.33301 -57.5 -16s-34 -21.334 -48 -38.001
c-27.333 -28.667 -41.666 -61.667 -42.999 -99c0 -18 5 -31.333 15 -40s21.833 -13.334 35.5 -14.001s27.5 2.16602 41.5 8.49902s25 15.5 33 27.5c14 20.667 21 44.334 21 71.001c0 5.33301 -0.833008 12.333 -2.5 21s-2.5 15 -2.5 19c0 4.66699 2.66699 7.66699 8 9
c3.33301 0 6.5 -3.66699 9.5 -11s4.16699 -18.333 3.5 -33c0 -14 -2 -28 -6 -42s-9 -26.667 -15 -38c-10.667 -18 -24.834 -30.833 -42.501 -38.5s-35 -10.667 -52 -9s-31.5 8.16699 -43.5 19.5s-18 27.333 -18 48c0.666992 20.667 4.66699 41 12 61
s18.666 37.667 33.999 53c14.667 17.333 32.5 31.833 53.5 43.5s43.5 20.667 67.5 27s48.167 10.333 72.5 12s46.833 1.5 67.5 -0.5c28 -3.33301 52.833 -9.5 74.5 -18.5s43.167 -17.333 64.5 -25s44.166 -13 68.499 -16s53.5 0.166992 87.5 9.5c4 3.33301 9 5.83301 15 7.5
s12.667 4.16699 20 7.5c6 -0.666992 8.33301 -2.66699 7 -6c0.666992 -1.33301 -1.16602 -3.5 -5.49902 -6.5s-8.16602 -6.16699 -11.499 -9.5zM381.996 380.001c11.333 2 23.8311 6.66797 37.498 14.001s27.5 16.666 41.5 27.999c-11.333 2.66699 -23.333 4.16699 -36 4.5
s-26.667 -1.16699 -42 -4.5c-14 -5.33301 -21.667 -11.833 -23 -19.5s-0.666016 -13.5 2.00098 -17.5c2.66699 -5.33301 9.33398 -7 20.001 -5z" />
    <glyph glyph-name="bracketleft" unicode="[" horiz-adv-x="335" 
d="M284 669h-72v-722h72v-32h-134v786h134v-32z" />
    <glyph glyph-name="backslash" unicode="\" horiz-adv-x="469" 
d="M411 -1l-288 701h36l289 -701h-37z" />
    <glyph glyph-name="bracketright" unicode="]" horiz-adv-x="335" 
d="M252 701v-786h-134v32h72v722h-72v32h134z" />
    <glyph glyph-name="asciicircum" unicode="^" horiz-adv-x="290" 
d="M233 453c16 -58.667 33.999 -99.001 53.999 -121.001l-6 -5c-22 16 -42 41.333 -60 76c-37.333 -34.667 -75.666 -59 -114.999 -73v4c62 50.667 101.333 90.334 118 119.001h9z" />
    <glyph glyph-name="underscore" unicode="_" horiz-adv-x="419" 
d="M-54 -120v30h434v-30h-434z" />
    <glyph glyph-name="grave" unicode="`" horiz-adv-x="277" 
d="M266 327c-22 10.667 -43.667 25.334 -65 44.001c-26.667 23.333 -40 44 -40 62c0 15.333 6.66699 23 20 23c9.33301 0 17.666 -10.333 24.999 -31c9.33301 -28.667 14.333 -43.334 15 -44.001c4.66699 -6.66699 21.334 -22.667 50.001 -48z" />
    <glyph glyph-name="a" unicode="a" horiz-adv-x="310" 
d="M171 279c12.667 0 21.666 -4.66797 26.999 -14.001s8.33301 -21 9 -35c0.666992 -3.33301 0.833984 -6.66602 0.500977 -9.99902s-0.833008 -6.66602 -1.5 -9.99902l27 63h69l-31.5 -70.5l-36 -82c-11.667 -27 -21.5 -50.833 -29.5 -71.5s-12 -33 -12 -37
c0 -3.33301 1.33301 -5 4 -5c6.66699 0 14.667 4.5 24 13.5s18 19 26 30s15 21.167 21 30.5s9.66699 14 11 14s2 -1 2 -3c0 -2.66699 -0.833008 -6.16699 -2.5 -10.5s-3.66699 -9 -6 -14s-4.83301 -9.83301 -7.5 -14.5s-5 -8.33398 -7 -11.001
c-1.33301 -1.33301 -3.83301 -4.5 -7.5 -9.5s-8.5 -10.333 -14.5 -16s-13.333 -10.834 -22 -15.501s-18 -7 -28 -7c-11.333 0 -19.666 4.66699 -24.999 14s-8.33301 21.333 -9 36v14c0 4.66699 0.666992 9.33398 2 14.001c-15.333 -22 -33.166 -40.5 -53.499 -55.5
s-39.166 -22.5 -56.499 -22.5c-13.333 0 -23.833 6.33301 -31.5 19s-11.834 29 -12.501 49c-0.666992 12 0.166016 25.167 2.49902 39.5s6.5 28.833 12.5 43.5c17.333 41.333 39.666 74 66.999 98s57 36 89 36zM92.999 152.999l-17.5029 -40.502l-15.5 -38.5
c-4.66699 -12 -8.16699 -23 -10.5 -33s-3.5 -18 -3.5 -24c0 -8.66699 3 -13 9 -13c8 0 17.333 3.33301 28 10s21.334 15.334 32.001 26.001s20.667 22.334 30 35.001s16.333 24.667 21 36l12 28c6 17.333 10.333 33.333 13 48s3.33398 30.667 2.00098 48
c-0.666992 22.667 -7.66699 34 -21 34c-12.667 0 -25.167 -10.833 -37.5 -32.5s-26.166 -49.5 -41.499 -83.5z" />
    <glyph glyph-name="b" unicode="b" horiz-adv-x="258" 
d="M185 282c10.667 0 20.001 -3.16797 28.001 -9.50098s14.5 -14 19.5 -23s8.83301 -18.5 11.5 -28.5s4 -19 4 -27c0 -16.667 -2.83301 -34 -8.5 -52s-13.5 -35 -23.5 -51c-7.33301 -11.333 -16.5 -22.666 -27.5 -33.999s-23.5 -21.666 -37.5 -30.999s-29.167 -17 -45.5 -23
s-33.833 -9 -52.5 -9c-10 0 -18.167 2.5 -24.5 7.5s-11.5 11 -15.5 18s-6.83301 14.5 -8.5 22.5s-2.83398 15 -3.50098 21c-0.666992 4.66699 -1 8.66699 -1 12v10c-0 8 1.33301 19.667 4 35c1.33301 8.66699 2.83301 16.667 4.5 24s3.83398 13.666 6.50098 18.999l125 303
h72l-93 -217c9.33301 8 20.166 15.5 32.499 22.5s23.5 10.5 33.5 10.5zM161.001 120.999l9.99805 20.4971c4.66699 9.66699 9.16699 20.334 13.5 32.001s8.33301 23.667 12 36s5.5 23.5 5.5 33.5c0 7.33301 -1.66699 14 -5 20s-8.66602 9 -15.999 9c-6 0 -13 -2.5 -21 -7.5
s-15.833 -11 -23.5 -18s-14.5 -14.167 -20.5 -21.5s-10.333 -13.666 -13 -18.999l-18 -36l-6.5 -12.5l-7.5 -14.5c-2 -3.33301 -5.16699 -9.33301 -9.5 -18s-8.66602 -18.5 -12.999 -29.5s-8.16602 -22.333 -11.499 -34s-5 -22.167 -5 -31.5
c0.666992 -8 2.83398 -14.5 6.50098 -19.5s10.167 -7.5 19.5 -7.5c12 0 23.667 5.16699 35 15.5s21.666 22.333 30.999 36s17.166 26.834 23.499 39.501z" />
    <glyph glyph-name="c" unicode="c" horiz-adv-x="244" 
d="M185 280c12.667 0 22.8301 -2.49902 30.4971 -7.49902s13.5 -10.5 17.5 -16.5s6.66699 -11.833 8 -17.5s2 -9.16699 2 -10.5c0 -13.333 -3.83301 -25.333 -11.5 -36s-17.5 -16 -29.5 -16c-8.66699 0 -15 2.66699 -19 8s-6 10.666 -6 15.999
c0 4.66699 1.5 9.33398 4.5 14.001s6.33301 9.16699 10 13.5s7 8.66602 10 12.999s4.5 9.16602 4.5 14.499c-0.666992 5.33301 -3.83398 8.83301 -9.50098 10.5s-11.167 2.5 -16.5 2.5c-8.66699 0 -18.167 -4.66699 -28.5 -14s-20.5 -21.5 -30.5 -36.5
s-19.667 -31.833 -29 -50.5s-17.666 -37 -24.999 -55s-13.166 -34.667 -17.499 -50s-6.16602 -27.333 -5.49902 -36c0 -5.33301 1.83301 -10.666 5.5 -15.999s8.5 -8 14.5 -8c18 0 35.167 6.5 51.5 19.5s30.833 27.167 43.5 42.5c14.667 18 28.667 38.667 42 62l2 2
c0.666992 0 1 -0.166992 1 -0.5s0.333008 -0.5 1 -0.5c0 -0.666992 0.333008 -1 1 -1c0.666992 -7.33301 -1.33301 -17 -6 -29s-13 -27 -25 -45c-4 -6 -10 -12.5 -18 -19.5s-16.833 -13.333 -26.5 -19s-20.167 -10.5 -31.5 -14.5s-22.333 -6 -33 -6
c-12.667 0 -23.167 2.83301 -31.5 8.5s-15 12.5 -20 20.5s-8.66699 16 -11 24s-3.5 14.333 -3.5 19c-1.33301 32 3.83398 61.167 15.501 87.5s26.667 49 45 68s38.5 33.667 60.5 44s43.333 15.5 64 15.5z" />
    <glyph glyph-name="d" unicode="d" horiz-adv-x="313" 
d="M171 279c12.667 0 21.6689 -4.66797 27.002 -14.001s8.33301 -21 9 -35c0.666992 -3.33301 0.833984 -6.66602 0.500977 -9.99902s-0.833008 -6.66602 -1.5 -9.99902l108 256h69l-80 -188l-30 -70.5l-27 -62.5l-20 -46.5c-5.33301 -12.333 -8.33301 -19.5 -9 -21.5
c-2 -3.33301 -4.16699 -7.83301 -6.5 -13.5s-4.66602 -11.834 -6.99902 -18.501s-4.33301 -13 -6 -19s-2.5 -11 -2.5 -15c0 -2.66699 1 -4 3 -4c7.33301 0 15.666 4.66699 24.999 14s18.166 19.666 26.499 30.999s15.333 21.666 21 30.999s8.83398 14 9.50098 14
c1.33301 0 2 -1 2 -3c-0.666992 -5.33301 -3.5 -13.333 -8.5 -24s-10.167 -20.334 -15.5 -29.001c-1.33301 -1.33301 -3.83301 -4.66602 -7.5 -9.99902s-8.5 -10.666 -14.5 -15.999s-13.333 -10.166 -22 -14.499s-18 -6.5 -28 -6.5c-10.667 0 -18.667 4.66699 -24 14
s-8.33301 21 -9 35v14.5c0 5 0.333008 10.167 1 15.5c-16.667 -22.667 -34.667 -41.5 -54 -56.5s-38 -22.5 -56 -22.5c-13.333 0 -23.833 6.33301 -31.5 19s-11.834 29 -12.501 49c-0.666992 12 0.166016 25.167 2.49902 39.5s6.5 28.833 12.5 43.5
c17.333 41.333 39.666 74 66.999 98s57 36 89 36zM93.002 152.999l-17.5 -40.5l-15.5 -38.5c-4.66699 -12 -8.16699 -23 -10.5 -33s-3.5 -18 -3.5 -24c0 -8.66699 3 -13 9 -13c4.66699 0 12.334 3.5 23.001 10.5s21.667 16 33 27s22.166 22.833 32.499 35.5
s18.166 25 23.499 37l11 30c7.33301 15.333 12 30 14 44s2.33301 29.667 1 47c-0.666992 22.667 -7.66699 34 -21 34c-12.667 0 -25.167 -10.833 -37.5 -32.5s-26.166 -49.5 -41.499 -83.5z" />
    <glyph glyph-name="e" unicode="e" horiz-adv-x="237" 
d="M175 280c3.33301 0 8.16309 -0.667969 14.4961 -2.00098s12.833 -4 19.5 -8s12.334 -9.5 17.001 -16.5s7.33398 -16.167 8.00098 -27.5c0.666992 -18 -4.83301 -34 -16.5 -48s-26 -26.167 -43 -36.5s-34.833 -19 -53.5 -26s-35 -12.5 -49 -16.5
c-7.33301 -17.333 -13.166 -33 -17.499 -47s-6.16602 -25.333 -5.49902 -34c0 -10 3.33301 -15 10 -15c13.333 0 27.166 5.33301 41.499 16s27.333 22.5 39 35.5s21.334 25 29.001 36s12.167 16.5 13.5 16.5s2 -0.666992 2 -2c0 -2.66699 -1 -6.16699 -3 -10.5
s-4.5 -9 -7.5 -14s-6.16699 -10 -9.5 -15l-9 -13.5c-4.66699 -6 -10.667 -12.333 -18 -19s-15.833 -12.834 -25.5 -18.501s-20 -10.5 -31 -14.5s-22.167 -6 -33.5 -6c-13.333 0 -23.833 6.5 -31.5 19.5s-12.167 29.833 -13.5 50.5c-0.666992 12.667 0.333008 26.167 3 40.5
s6.66699 28.5 12 42.5c16.667 40.667 38.667 72.834 66 96.501s57.333 35.834 90 36.501h2v0zM189.997 258.999c0 4.66699 -1.5 7.5 -4.5 8.5s-6.16699 1.5 -9.5 1.5c-13.333 0 -26 -10.5 -38 -31.5s-26 -48.167 -42 -81.5l-19 -46c5.33301 0 12.333 2.33301 21 7
c14.667 7.33301 27 15.166 37 23.499s18 16.5 24 24.5s10.667 15.333 14 22s6 12.334 8 17.001c3.33301 7.33301 5.83301 16.333 7.5 27s2.16699 20 1.5 28z" />
    <glyph glyph-name="f" unicode="f" horiz-adv-x="216" 
d="M183 135l-76 -0.000976562l-41 -100.5l-36 -87.5l-35 -86h-76l116 274h-47l4 11h47l87 201c6 13.333 14 27.333 24 42s21.333 28.167 34 40.5s25.667 22.5 39 30.5s26.333 12 39 12c8 0 14.667 -1.83301 20 -5.5s9.66602 -8.16699 12.999 -13.5
s5.83301 -11.166 7.5 -17.499s2.5 -11.833 2.5 -16.5c0.666992 -22.667 -4.66602 -46.5 -15.999 -71.5s-26.333 -49.833 -45 -74.5s-39.5 -48 -62.5 -70s-45.833 -41 -68.5 -57h74zM119 165.999c20 18 39.832 39.334 59.499 64.001s37.167 49.667 52.5 75
s27.833 49.5 37.5 72.5s14.167 41.833 13.5 56.5c0 16.667 -7 25 -21 25c-4.66699 0 -9.66699 -3 -15 -9s-10.333 -13 -15 -21s-8.66699 -15.833 -12 -23.5s-5.66602 -12.834 -6.99902 -15.501z" />
    <glyph glyph-name="g" unicode="g" horiz-adv-x="281" 
d="M93 153l-17.498 -40.501l-15.5 -38.5c-4.66699 -12 -8.16699 -23 -10.5 -33s-3.5 -18 -3.5 -24c0 -8.66699 3 -13 9 -13c5.33301 0 12.166 2.5 20.499 7.5s17.166 11.833 26.499 20.5c18.667 16.667 34 33.667 46 51s21.5 34.833 28.5 52.5s11.667 34.834 14 51.501
s3.16602 32.667 2.49902 48c-0.666992 22.667 -7.66699 34 -21 34c-12.667 0 -25.167 -10.833 -37.5 -32.5s-26.166 -49.5 -41.499 -83.5zM301.002 272.999l-106.994 -253.001c-12.667 -30 -25.334 -55 -38.001 -75s-25.834 -36.167 -39.501 -48.5
s-28.334 -21.166 -44.001 -26.499s-32.5 -8 -50.5 -8c-21.333 0 -37.333 4.5 -48 13.5s-16.334 20.833 -17.001 35.5s2.33301 26.834 9 36.501s15.667 14.5 27 14.5c3.33301 0 7.5 -1.5 12.5 -4.5s7.83301 -8.16699 8.5 -15.5c0 -6.66699 -1.5 -11.834 -4.5 -15.501
s-6.33301 -6.83398 -10 -9.50098s-7 -5.5 -10 -8.5s-4.5 -6.83301 -4.5 -11.5c0.666992 -8.66699 3.33398 -15 8.00098 -19s12.667 -6 24 -6c9.33301 0 19.166 4.83301 29.499 14.5s20.833 22.5 31.5 38.5s21 34.333 31 55s19.333 42 28 64l7 16
c-14.667 -19.333 -31 -35.166 -49 -47.499s-35 -18.5 -51 -18.5c-13.333 0 -23.833 6.33301 -31.5 19s-11.834 29 -12.501 49c-0.666992 12 0.166016 25.167 2.49902 39.5s6.5 28.833 12.5 43.5c17.333 41.333 39.666 74 66.999 98s57 36 89 36
c12.667 0 21.667 -4.66699 27 -14s8.33301 -21 9 -35c0.666992 -3.33301 0.833984 -7 0.500977 -11s-0.833008 -7.66699 -1.5 -11l28 65h67z" />
    <glyph glyph-name="h" unicode="h" horiz-adv-x="312" 
d="M112 161c4.66699 6.66699 11.1689 16.501 19.502 29.501s18 26 29 39s22.833 24.5 35.5 34.5s25.334 15 38.001 15c12 0 21 -5 27 -15s9.33301 -22 10 -36c0 -10.667 -1.5 -21.834 -4.5 -33.501s-6.83301 -22.834 -11.5 -33.501l-44 -99l-10.5 -28
c-3.66699 -10 -5.5 -17.667 -5.5 -23c0 -2.66699 1.33301 -4 4 -4c6.66699 0 14.5 4.5 23.5 13.5s17.667 19 26 30s15.5 21.167 21.5 30.5s9.66699 14 11 14s2 -0.666992 2 -2c0 -2 -1 -5.5 -3 -10.5s-4.33301 -10.167 -7 -15.5l-8 -15.5
c-2.66699 -5 -4.66699 -8.5 -6 -10.5s-3.83301 -5.5 -7.5 -10.5s-8.66699 -10.167 -15 -15.5s-13.666 -10.166 -21.999 -14.499s-17.833 -6.5 -28.5 -6.5c-10 0 -17.833 4.66699 -23.5 14s-8.83398 21.333 -9.50098 36c0 10 0.833008 19.833 2.5 29.5s4.5 20.167 8.5 31.5
s9.16699 24.333 15.5 39l23.5 52c0.666992 2.66699 2.16699 7 4.5 13s4.66602 12.333 6.99902 19l6.5 19c2 6 3 10.667 3 14c0 4.66699 -1 7 -3 7c-5.33301 0 -15 -7.5 -29 -22.5s-28.833 -32.833 -44.5 -53.5s-30.334 -41.5 -44.001 -62.5s-22.834 -37.5 -27.501 -49.5
l-36 -80h-63l198 466h69z" />
    <glyph glyph-name="i" unicode="i" horiz-adv-x="162" 
d="M148 273l-30.499 -70.9971l-35.5 -82l-29.5 -70.5c-8.33301 -20.333 -12.5 -32.833 -12.5 -37.5c0 -3.33301 1 -5 3 -5c6.66699 0 14.5 4.5 23.5 13.5s17.667 19 26 30s15.5 21.167 21.5 30.5s9.66699 14 11 14s2 -1 2 -3c0 -2.66699 -0.833008 -6.16699 -2.5 -10.5
s-3.66699 -9 -6 -14s-4.83301 -9.83301 -7.5 -14.5s-5 -8.33398 -7 -11.001c-0.666992 -1.33301 -2.83398 -4.5 -6.50098 -9.5s-8.66699 -10.333 -15 -16s-13.833 -10.834 -22.5 -15.501s-18 -7 -28 -7c-11.333 0 -19.5 4.66699 -24.5 14s-7.83301 21.333 -8.5 36
c-0.666992 10.667 0 21.667 2 33s5.66699 22.666 11 33.999l67 162h69zM141.001 324.003c-9.33301 0 -16.502 2.6709 -21.502 8.00391s-7.83301 11.666 -8.5 18.999c-0.666992 11.333 3.33301 22.666 12 33.999s20.667 17 36 17c8.66699 0 15.834 -2.83301 21.501 -8.5
s8.83398 -12.834 9.50098 -21.501c0 -12.667 -5.33301 -23.834 -16 -33.501s-21.667 -14.5 -33 -14.5z" />
    <glyph glyph-name="j" unicode="j" horiz-adv-x="147" 
d="M148 273l-106.997 -253c-12.667 -30 -25.167 -55 -37.5 -75s-25.333 -36.167 -39 -48.5s-28.334 -21.166 -44.001 -26.499s-32.5 -8 -50.5 -8c-22 0 -38.333 4.5 -49 13.5s-16.334 20.833 -17.001 35.5s2.33301 26.834 9 36.501s15.667 14.5 27 14.5
c4 0 8.5 -1.5 13.5 -4.5s7.83301 -8.16699 8.5 -15.5c0 -6.66699 -1.66699 -11.834 -5 -15.501s-6.83301 -6.83398 -10.5 -9.50098s-7 -5.5 -10 -8.5s-4.5 -6.83301 -4.5 -11.5c0.666992 -8.66699 3.33398 -15 8.00098 -19s13 -6 25 -6
c9.33301 0 19.166 4.83301 29.499 14.5s20.666 22.5 30.999 38.5s20.5 34.333 30.5 55s19.667 42 29 64l96 229h67zM143.003 324c-9.33301 0 -16.502 2.6709 -21.502 8.00391s-7.83301 11.666 -8.5 18.999c-0.666992 11.333 3.33301 22.666 12 33.999s20.667 17 36 17
c8.66699 0 15.834 -2.83301 21.501 -8.5s8.83398 -12.834 9.50098 -21.501c0 -12.667 -5.33301 -23.834 -16 -33.501s-21.667 -14.5 -33 -14.5z" />
    <glyph glyph-name="k" unicode="k" horiz-adv-x="261" 
d="M128 225c10.667 14 24.333 26.5059 41 37.5059s33.334 16.5 50.001 16.5c24 0 36.333 -8.66699 37 -26c0.666992 -20.667 -3.66602 -38.334 -12.999 -53.001s-20.666 -26.834 -33.999 -36.501s-27 -17.334 -41 -23.001s-25 -9.83398 -33 -12.501
c0 -6.66699 1.16699 -15.834 3.5 -27.501s5.16602 -23.334 8.49902 -35.001s6.83301 -21.667 10.5 -30s7.16699 -12.5 10.5 -12.5c4.66699 0 8.66699 3.83301 12 11.5s6.33301 16 9 25s4.83398 17.333 6.50098 25s3.16699 11.5 4.5 11.5s2.33301 -2 3 -6s1 -7.66699 1 -11
c0 -7.33301 -1 -15 -3 -23l-6 -15c-2.66699 -6.66699 -6.5 -13.5 -11.5 -20.5s-11.5 -13.167 -19.5 -18.5s-17.667 -8 -29 -8c-10 0 -18.333 6.66699 -25 20s-12 28 -16 44c-4.66699 18.667 -8 40.334 -10 65.001l33 9c14.667 4 27.667 10.5 39 19.5
s20.833 19.167 28.5 30.5s13.5 23.333 17.5 36s6 25 6 37c-0.666992 4 -4.33398 6 -11.001 6s-14.5 -2.83301 -23.5 -8.5s-17.833 -12.834 -26.5 -21.501s-16.834 -18.667 -24.501 -30s-13.834 -22.333 -18.501 -33l-73 -168h-64l195 466h68z" />
    <glyph glyph-name="l" unicode="l" horiz-adv-x="187" 
d="M57 66l-8.49805 -19.499c-3 -7 -5.5 -13.5 -7.5 -19.5s-3.16699 -10.833 -3.5 -14.5s0.833984 -5.5 3.50098 -5.5c6.66699 0 14.167 4 22.5 12s16.5 17 24.5 27s15.333 19.833 22 29.5s11.334 16.167 14.001 19.5c1.33301 0 2 -1.33301 2 -4
c-2 -7.33301 -5.66699 -16.5 -11 -27.5s-12 -21.667 -20 -32s-17.333 -19.166 -28 -26.499s-22.667 -11 -36 -11c-10.667 0 -18.667 4.5 -24 13.5s-8.33301 21.167 -9 36.5c-0.666992 10 0 21.167 2 33.5s6.33301 25.833 13 40.5l99 230c6 13.333 13.667 27.333 23 42
s19.666 28.167 30.999 40.5s23.5 22.5 36.5 30.5s25.5 12 37.5 12c8.66699 0 15.667 -1.83301 21 -5.5s9.66602 -8.33398 12.999 -14.001s5.66602 -11.667 6.99902 -18s2.33301 -11.833 3 -16.5c0.666992 -22.667 -5 -47 -17 -73s-27.5 -51.833 -46.5 -77.5
s-40.333 -49.834 -64 -72.501s-46.834 -42 -69.501 -58zM96.002 160.001c20 18 39.8311 39.833 59.498 65.5s37.334 51.5 53.001 77.5s28.334 50.833 38.001 74.5s14.167 42.834 13.5 57.501c0 16 -7 24 -21 24c-4.66699 0 -9.5 -3 -14.5 -9s-9.83301 -12.833 -14.5 -20.5
s-8.66699 -15.334 -12 -23.001s-5.33301 -13.167 -6 -16.5z" />
    <glyph glyph-name="m" unicode="m" horiz-adv-x="452" 
d="M424 91l2.99414 3.00684c1.33301 0 2 -1 2 -3s-0.833008 -5.33301 -2.5 -10s-3.66699 -9.5 -6 -14.5s-4.83301 -9.83301 -7.5 -14.5s-4.66699 -8.33398 -6 -11.001c-1.33301 -1.33301 -3.83301 -4.5 -7.5 -9.5s-8.66699 -10.333 -15 -16s-13.5 -10.834 -21.5 -15.501
s-16.667 -7 -26 -7c-11.333 0 -20.166 4.83301 -26.499 14.5s-9.83301 22.167 -10.5 37.5c0 10 0.833008 19.833 2.5 29.5s4.66699 20.167 9 31.5s9.66602 24.166 15.999 38.499l23.5 51.5c0.666992 2.66699 2.33398 6.66699 5.00098 12s5.33398 11.333 8.00098 18
s4.83398 13.167 6.50098 19.5s2.5 11.5 2.5 15.5s-1 6 -3 6c-5.33301 0 -13.666 -5.66699 -24.999 -17s-23.166 -25.166 -35.499 -41.499s-24.333 -33.5 -36 -51.5s-20.167 -33.667 -25.5 -47l-47 -110h-67l70 160l27.5 66.5c7.66699 19 11.167 30.5 10.5 34.5
c0 4 -1 6 -3 6c-8 0 -18.333 -5.66699 -31 -17s-25.667 -25.333 -39 -42s-25.833 -34 -37.5 -52s-20.167 -33.333 -25.5 -46l-48 -110h-66l70 161l14 31.5c4.66699 10.333 8.83398 20 12.501 29s6.5 17 8.5 24s3 12.5 3 16.5c0 3.33301 -1.33301 5 -4 5
c-6.66699 0 -14.167 -3.83301 -22.5 -11.5s-16.333 -16.334 -24 -26.001s-14.667 -19.334 -21 -29.001l-13.5 -20.5c0 -1.33301 -0.333008 -2 -1 -2c-2 0 -3 1 -3 3c2 7.33301 5.66699 16.666 11 27.999s12.166 22.166 20.499 32.499s18 19.166 29 26.499s23.5 11 37.5 11
c10.667 0 18.334 -4 23.001 -12s7.33398 -18.667 8.00098 -32c0.666992 -9.33301 0.666992 -18.5 0 -27.5s-3.33398 -19.833 -8.00098 -32.5c4.66699 8.66699 11.334 19 20.001 31s18.167 23.333 28.5 34s21.333 19.834 33 27.501s23.5 11.5 35.5 11.5
c13.333 0 22.166 -4 26.499 -12s6.5 -18.667 6.5 -32c0 -4.66699 -0.333008 -9.83398 -1 -15.501s-1.5 -11.334 -2.5 -17.001s-2.16699 -11 -3.5 -16l-3 -11.5l20 31c8 12 16.833 23.5 26.5 34.5s19.667 20.167 30 27.5s20.5 11 30.5 11c13.333 0 22.333 -4.5 27 -13.5
s7.66699 -21.167 9 -36.5c0 -23.333 -4.66699 -46 -14 -68l-42 -99c-3.33301 -8 -6.83301 -17.167 -10.5 -27.5s-5.5 -18.166 -5.5 -23.499c0 -2.66699 1.33301 -4 4 -4c6 0 12.833 3.5 20.5 10.5s15.167 15.333 22.5 25s14 19.167 20 28.5s10.667 16 14 20z" />
    <glyph glyph-name="n" unicode="n" horiz-adv-x="328" 
d="M-8 0l69.998 161.008l26 60.5c8 19 12 32.5 12 40.5c0 3.33301 -1.33301 5 -4 5c-6.66699 0 -14.167 -3.83301 -22.5 -11.5s-16.333 -16.334 -24 -26.001s-14.667 -19.334 -21 -29.001l-13.5 -20.5c0 -1.33301 -0.333008 -2 -1 -2c-2 0 -3 1 -3 3
c2 7.33301 5.66699 16.666 11 27.999s12.166 22.166 20.499 32.499s18 19.166 29 26.499s23.5 11 37.5 11c11.333 0 19 -3.83301 23 -11.5s6.33301 -17.167 7 -28.5c0.666992 -9.33301 -0.5 -20.5 -3.5 -33.5l-7.5 -31.5c3.33301 4.66699 9.66602 12.834 18.999 24.501
s20 23.5 32 35.5s24.333 22.5 37 31.5s24.334 13.5 35.001 13.5c13.333 0 22.333 -4.5 27 -13.5s7.66699 -21.167 9 -36.5c0 -22.667 -4.66699 -45.334 -14 -68.001l-42 -99c-3.33301 -8 -6.83301 -17.167 -10.5 -27.5s-5.5 -18.166 -5.5 -23.499
c0 -2.66699 1.33301 -4 4 -4c6.66699 0 14.334 4.5 23.001 13.5s17 19 25 30l21 30c6 9 9.66699 13.5 11 13.5s2 -1 2 -3s-0.833008 -5.33301 -2.5 -10s-3.66699 -9.5 -6 -14.5s-4.83301 -9.83301 -7.5 -14.5s-4.66699 -8.33398 -6 -11.001
c-1.33301 -1.33301 -3.83301 -4.5 -7.5 -9.5s-8.5 -10.333 -14.5 -16s-13 -10.834 -21 -15.501s-17 -7 -27 -7c-11.333 0 -20 4.83301 -26 14.5s-9.33301 22.167 -10 37.5c0 10 1 19.833 3 29.5s5 20.167 9 31.5s9.16699 24.166 15.5 38.499l22.5 51.5
c0.666992 2.66699 2.33398 6.66699 5.00098 12s5.33398 11.333 8.00098 18s5 13.167 7 19.5s3 11.5 3 15.5s-1.33301 6 -4 6c-8 0 -18.5 -5.83301 -31.5 -17.5s-26.333 -25.334 -40 -41.001s-26.167 -31.667 -37.5 -48s-19.333 -28.833 -24 -37.5l-51 -123h-66z" />
    <glyph glyph-name="o" unicode="o" horiz-adv-x="267" 
d="M178 281c11.333 0 21.5 -2.66895 30.5 -8.00195s16.5 -12.5 22.5 -21.5s10.667 -19.333 14 -31s5.33301 -23.834 6 -36.501c0.666992 -18.667 -2.83301 -39 -10.5 -61s-19.167 -42.5 -34.5 -61.5s-34.166 -35.167 -56.499 -48.5s-47.833 -20.666 -76.5 -21.999
c-13.333 0 -24.333 2.83301 -33 8.5s-15.5 13.167 -20.5 22.5s-8.66699 19.5 -11 30.5s-3.83301 22.167 -4.5 33.5c-0.666992 18.667 2.66602 39.334 9.99902 62.001s18.5 43.834 33.5 63.501s33.5 36.167 55.5 49.5s47 20 75 20zM85 150.998l-7.49609 -18.5
c-3.66699 -9 -7.33398 -19.333 -11.001 -31s-7 -23.5 -10 -35.5s-4.5 -23 -4.5 -33c1.33301 -20.667 10 -31 26 -31c12 0 23.167 5.16699 33.5 15.5s19.5 22.166 27.5 35.499s14.667 26.333 20 39s9 21.667 11 27l7.5 18.5c3.66699 9 7.16699 19 10.5 30
s6.16602 22.667 8.49902 35s3.16602 23.5 2.49902 33.5c0 9.33301 -2.33301 17 -7 23s-12.334 9 -23.001 9c-12 0 -22.833 -5.16699 -32.5 -15.5s-18 -22.166 -25 -35.499s-12.667 -26.5 -17 -39.5s-7.5 -21.833 -9.5 -26.5z" />
    <glyph glyph-name="p" unicode="p" horiz-adv-x="310" 
d="M194 119l34.001 78.999c10.667 24.667 15.667 43.667 15 57c-1.33301 8.66699 -5 13 -11 13s-14.333 -3.5 -25 -10.5s-21.5 -15.833 -32.5 -26.5s-21.167 -21.834 -30.5 -33.501s-16 -22.5 -20 -32.5c-10.667 -21.333 -19 -43.666 -25 -66.999
s-8.66699 -43.666 -8 -60.999c0.666992 -24 8.33398 -36 23.001 -36c13.333 0 26.166 10.667 38.499 32s26.166 50 41.499 86zM-74.999 -139.001l132.002 300.006l13.5 31.5l12 29c3.66699 9 6.5 17 8.5 24s3 12.5 3 16.5c0 3.33301 -1 5 -3 5
c-6.66699 0 -14.167 -3.83301 -22.5 -11.5s-16.333 -16.334 -24 -26.001s-14.667 -19.334 -21 -29.001l-13.5 -20.5l-2 -2c-1.33301 0 -2 1 -2 3c2 7.33301 5.66699 16.666 11 27.999s12 22.166 20 32.499s17.5 19.166 28.5 26.499s23.5 11 37.5 11c8.66699 0 16 -4 22 -12
s9.33301 -18.667 10 -32c0.666992 -8.66699 0 -19.667 -2 -33c16.667 23.333 35 42.166 55 56.499s38.667 21.5 56 21.5c16 0 27.167 -6.33301 33.5 -19s9.66602 -27.5 9.99902 -44.5s-1.33398 -34 -5.00098 -51s-7.16699 -29.833 -10.5 -38.5
c-17.333 -42 -39.5 -75.167 -66.5 -99.5s-56.5 -36.5 -88.5 -36.5c-13.333 0 -23 4.5 -29 13.5s-9.33301 21.167 -10 36.5c0 3.33301 0.166992 7 0.5 11s0.5 8 0.5 12l-88 -203h-66z" />
    <glyph glyph-name="q" unicode="q" horiz-adv-x="293" 
d="M93 153l-17.498 -40.501l-15.5 -38.5c-4.66699 -12 -8.16699 -23 -10.5 -33s-3.5 -18 -3.5 -24c0 -8.66699 3 -13 9 -13c5.33301 0 12.166 2.5 20.499 7.5s17.166 11.833 26.499 20.5c18.667 16.667 34 33.667 46 51s21.5 34.833 28.5 52.5s11.667 34.834 14 51.501
s3.16602 32.667 2.49902 48c-0.666992 22.667 -7.66699 34 -21 34c-12.667 0 -25.167 -10.833 -37.5 -32.5s-26.166 -49.5 -41.499 -83.5zM171.002 278.999c12.667 0 21.667 -4.66797 27 -14.001s8.33301 -21 9 -35c0.666992 -4.66699 0.833984 -9 0.500977 -13
s-0.833008 -8 -1.5 -12l29 68h67l-176 -411h-64l83 199c-15.333 -20 -32 -36.167 -50 -48.5s-35 -18.5 -51 -18.5s-27.167 6.33301 -33.5 19s-9.66602 27.334 -9.99902 44.001s1.16699 33.5 4.5 50.5s6.66602 29.5 9.99902 37.5c17.333 41.333 39.666 74 66.999 98
s57 36 89 36z" />
    <glyph glyph-name="r" unicode="r" horiz-adv-x="255" 
d="M228 278c16.667 0 25.667 -8.99414 27 -26.9941c0 -7.33301 -1.66699 -16.166 -5 -26.499s-8.66602 -20.833 -15.999 -31.5c-8 -12.667 -16.5 -22.334 -25.5 -29.001s-17.833 -12.334 -26.5 -17.001l-23 -12.5c-6.66699 -3.66699 -11.667 -8.83398 -15 -15.501l-10 -24
l-17 -40c-3.33301 -8.66699 -7 -17.5 -11 -26.5s-8 -18.5 -12 -28.5h-102l70 161l26 60.5c8 19 12 32.5 12 40.5c0 3.33301 -1.33301 5 -4 5c-6.66699 0 -14.167 -3.83301 -22.5 -11.5s-16.333 -16.334 -24 -26.001s-14.667 -19.334 -21 -29.001l-13.5 -20.5
c0 -1.33301 -0.333008 -2 -1 -2c-2 0 -3 1 -3 3c2 7.33301 5.66699 16.666 11 27.999s12.166 22.166 20.499 32.499s18 19.166 29 26.499s23.5 11 37.5 11c8.66699 0 15.167 -4 19.5 -12s6.83301 -18.667 7.5 -32c0.666992 -10.667 0.166992 -22.5 -1.5 -35.5
s-5.5 -26.167 -11.5 -39.5l-67 -154h26l88 203l11.5 22.5c4.33301 8.33301 9 15.833 14 22.5s10.167 12.334 15.5 17.001s11 7 17 7z" />
    <glyph glyph-name="s" unicode="s" horiz-adv-x="211" 
d="M55 168l28.0068 28.4971c9.33301 9.66699 16.333 17.167 21 22.5l18.5 22l26 31l24 29c7 8.66699 11.167 14 12.5 16c3.33301 4 7.16602 5.5 11.499 4.5s5.5 -2.83301 3.5 -5.5c0 -0.666992 -1 -2.16699 -3 -4.5s-4.33301 -5.33301 -7 -9l-8 -11.5
c-2.66699 -4 -4.33398 -8 -5.00098 -12c-1.33301 -9.33301 -2.5 -23.5 -3.5 -42.5s-1.83301 -38.5 -2.5 -58.5v-60c0 -20 -1.33301 -34 -4 -42c-2.66699 -6 -6.83398 -13.667 -12.501 -23s-13.167 -18.333 -22.5 -27s-20.5 -16.167 -33.5 -22.5s-28.167 -9.5 -45.5 -9.5
c-24 0 -40 5.5 -48 16.5s-12 22.167 -12 33.5c-0.666992 12.667 3 25.334 11 38.001s21 19 39 19c10 0 17.333 -3 22 -9s7.33398 -12.667 8.00098 -20c0 -7.33301 -2.5 -14.333 -7.5 -21s-10.5 -12.667 -16.5 -18s-11.5 -10 -16.5 -14s-7.5 -7.33301 -7.5 -10
c0 -1.33301 2.16699 -2.66602 6.5 -3.99902s8.16602 -2 11.499 -2s8.66602 1.66699 15.999 5s14.666 8.5 21.999 15.5s13.5 15.667 18.5 26s7.16699 22.833 6.5 37.5c-0.666992 19.333 -0.333984 39.833 0.999023 61.5s2.66602 39.834 3.99902 54.501l-18 -18l-27.5 -26.5
l-26 -24.5c-7.66699 -7.33301 -12.167 -11.333 -13.5 -12c-3.33301 -2.66699 -7 -3 -11 -1s-2.66699 5.66699 4 11z" />
    <glyph glyph-name="t" unicode="t" horiz-adv-x="166" 
d="M197 388l-50.999 -114.997h58l-7 -16l-58 2l-35.5 -83l-32 -77c-9.66699 -23.333 -17.5 -43 -23.5 -59s-9 -25.333 -9 -28c0 -3.33301 1 -5 3 -5c6.66699 0 14.667 4.5 24 13.5s18 19 26 30s15 21.167 21 30.5s9.66699 14 11 14s2 -1 2 -3
c0 -2.66699 -0.833008 -6.16699 -2.5 -10.5s-3.66699 -9 -6 -14s-4.83301 -9.83301 -7.5 -14.5s-5 -8.33398 -7 -11.001c-0.666992 -1.33301 -2.83398 -4.5 -6.50098 -9.5s-8.66699 -10.333 -15 -16s-13.833 -10.834 -22.5 -15.501s-18 -7 -28 -7
c-11.333 0 -19.5 4.66699 -24.5 14s-7.83301 21.333 -8.5 36c-0.666992 10.667 0 21.667 2 33s5.66699 22.666 11 33.999l63 150h-34l7 12h32l49 115h69z" />
    <glyph glyph-name="u" unicode="u" horiz-adv-x="306" 
d="M298 273l-31.4961 -70.5l-36 -82c-11.667 -27 -21.5 -50.833 -29.5 -71.5s-12 -33 -12 -37c0 -3.33301 1 -5 3 -5c6.66699 0 14.667 4.5 24 13.5s18 19 26 30s15 21.167 21 30.5s9.66699 14 11 14c2 0 3 -1 3 -3c-0.666992 -2.66699 -1.83398 -6.16699 -3.50098 -10.5
s-3.66699 -9 -6 -14l-7 -14.5c-2.33301 -4.66699 -4.5 -8.33398 -6.5 -11.001c-1.33301 -1.33301 -3.83301 -4.5 -7.5 -9.5s-8.66699 -10.333 -15 -16s-13.666 -10.834 -21.999 -15.501s-17.5 -7 -27.5 -7c-11.333 0 -19.833 4.66699 -25.5 14s-8.83398 21.333 -9.50098 36
c-0.666992 10.667 0 20.667 2 30s6.33301 23 13 41c-8 -12.667 -17 -26.167 -27 -40.5s-20.667 -27.5 -32 -39.5s-22.833 -21.833 -34.5 -29.5s-22.834 -11.5 -33.501 -11.5c-13.333 0 -22.5 4.66699 -27.5 14s-7.83301 21 -8.5 35c-0.666992 10.667 0 21.834 2 33.501
s5.66699 23.5 11 35.5l66 161h69l-85 -196c-1.33301 -3.33301 -3.33301 -7.83301 -6 -13.5s-5.33398 -11.834 -8.00098 -18.501s-4.83398 -13.167 -6.50098 -19.5s-2.5 -11.166 -2.5 -14.499c0 -2 0.666992 -3 2 -3c5.33301 0 12.5 3.5 21.5 10.5s18.5 15.833 28.5 26.5
s20.333 22.5 31 35.5s20.5 25.833 29.5 38.5s16.833 24.334 23.5 35.001s11 18.667 13 24l40 95h70z" />
    <glyph glyph-name="v" unicode="v" horiz-adv-x="263" 
d="M253 270c1.33301 -1.33301 1.99609 -3.32812 1.99609 -5.99512s0.333008 -5.66699 1 -9c0 -8 -0.833008 -17 -2.5 -27s-3.83398 -20 -6.50098 -30s-5.66699 -19.333 -9 -28s-6.66602 -16 -9.99902 -22c-6 -11.333 -14.5 -25.666 -25.5 -42.999s-24 -34.166 -39 -50.499
s-31.833 -30.5 -50.5 -42.5s-38.667 -18 -60 -18c-11.333 0 -20 4.66699 -26 14s-9.33301 21.333 -10 36c-1.33301 22 3.66699 45 15 69l20 48l14 31.5c4.66699 10.333 8.83398 20 12.501 29s6.5 17 8.5 24s3 12.5 3 16.5c0 3.33301 -1.33301 5 -4 5
c-6.66699 0 -14.167 -3.83301 -22.5 -11.5s-16.166 -16.334 -23.499 -26.001s-14.166 -19.334 -20.499 -29.001l-13.5 -20.5l-2 -2c-2 0 -3 1 -3 3c2 7.33301 5.66699 16.666 11 27.999s12.166 22.166 20.499 32.499s18 19.166 29 26.499s23.5 11 37.5 11
c8.66699 0 15.834 -4 21.501 -12s8.83398 -18.667 9.50098 -32c0.666992 -10.667 0.166992 -22.5 -1.5 -35.5s-5.5 -26.167 -11.5 -39.5l-33 -82l-5.5 -14l-7.5 -19c-2.66699 -6.66699 -4.83398 -13.167 -6.50098 -19.5s-2.5 -11.166 -2.5 -14.499
c0 -2.66699 1.33301 -4 4 -4c10 0 22.5 5.16699 37.5 15.5s29.833 22.666 44.5 36.999s27 29.166 37 44.499s15 28.333 15 39c-0.666992 5.33301 -3.5 11.166 -8.5 17.499s-7.83301 16.5 -8.5 30.5c0 4 1.16699 11 3.5 21s5.83301 20.167 10.5 30.5s10.334 19.333 17.001 27
s14.667 11.5 24 11.5c5.33301 0 10.333 -3.66699 15 -11z" />
    <glyph glyph-name="w" unicode="w" horiz-adv-x="403" 
d="M394 270c1.33301 -1.33301 2.1709 -3.33594 2.50391 -6.00293s0.833008 -5.66699 1.5 -9c0.666992 -20.667 -2.83301 -41.5 -10.5 -62.5s-16.5 -41.167 -26.5 -60.5c-5.33301 -9.33301 -13.333 -21.833 -24 -37.5s-23.334 -31 -38.001 -46s-31 -27.833 -49 -38.5
s-36.667 -16 -56 -16c-11.333 0 -20 4.66699 -26 14s-9.33301 21.333 -10 36c-0.666992 8.66699 0 17.667 2 27s4.66699 19 8 29c-6 -7.33301 -13 -17 -21 -29s-17 -23.667 -27 -35s-20.333 -21.166 -31 -29.499s-21.334 -12.5 -32.001 -12.5
c-9.33301 0 -18 3.83301 -26 11.5s-12.333 19.834 -13 36.501c-0.666992 10 -0.166992 20.333 1.5 31s5.83398 23.334 12.501 38.001l31 72l10 25.5c3.33301 8.33301 6.16602 16.166 8.49902 23.499s4.16602 13.5 5.49902 18.5s2 8.5 2 10.5c0 3.33301 -0.666992 5 -2 5
c-7.33301 0 -15.666 -4.66699 -24.999 -14s-18.166 -19.5 -26.499 -30.5s-15.5 -21.167 -21.5 -30.5s-9.33301 -14 -10 -14c-1.33301 0 -2 1 -2 3s1 5.33301 3 10s4.33301 9.83398 7 15.501s5.33398 11 8.00098 16s4.66699 8.5 6 10.5c1.33301 1.33301 4 4.5 8 9.5
s9.16699 10.333 15.5 16s13.833 10.667 22.5 15s18.667 6.5 30 6.5c6 0 11 -1.66699 15 -5s7.33301 -7.5 10 -12.5s4.5 -10.167 5.5 -15.5s1.5 -10.333 1.5 -15c0.666992 -13.333 0 -25.333 -2 -36s-5 -21.5 -9 -32.5s-9 -23.333 -15 -37l-22 -48.5l-5.5 -14
c-2.33301 -6 -4.66602 -12.5 -6.99902 -19.5s-4.33301 -13.667 -6 -20s-2.5 -11.166 -2.5 -14.499c0 -2.66699 0.666992 -4 2 -4c4.66699 0 13.167 6.33301 25.5 19s25.5 27.834 39.5 45.501s27.167 35.834 39.5 54.501s20.833 33.667 25.5 45l42 104h66l-79 -195
c-1.33301 -3.33301 -3.33301 -8 -6 -14s-5.33398 -12.333 -8.00098 -19s-4.83398 -13.167 -6.50098 -19.5s-2.5 -11.166 -2.5 -14.499c0 -2.66699 1.33301 -4 4 -4c10.667 0 23.667 5.16699 39 15.5s30.166 22.666 44.499 36.999s26.333 29.166 36 44.499s14.5 28 14.5 38
c-0.666992 5.33301 -3.33398 11.166 -8.00098 17.499s-7.33398 16.166 -8.00098 29.499c0 4.66699 1 12 3 22s5.33301 20.167 10 30.5s10.5 19.5 17.5 27.5s15.167 12 24.5 12c5.33301 0 10 -3.66699 14 -11z" />
    <glyph glyph-name="x" unicode="x" horiz-adv-x="286" 
d="M229 43c-1.33301 -3.33301 -3.5 -7.82715 -6.5 -13.4941s-6.83301 -11.334 -11.5 -17.001s-9.83398 -10.667 -15.501 -15s-11.834 -6.5 -18.501 -6.5c-4 0 -9.5 0.333008 -16.5 1s-14 4.16699 -21 10.5s-13.667 17 -20 32s-11.166 36.5 -14.499 64.5
c-5.33301 -7.33301 -12.833 -17 -22.5 -29s-20.167 -23.667 -31.5 -35s-23.333 -21.333 -36 -30s-25 -13 -37 -13c-11.333 0 -17.666 4 -18.999 12c0 3.33301 1.66699 7.66602 5 12.999s7 9.66602 11 12.999c8.66699 7.33301 17 12.666 25 15.999s15.333 5.66602 22 6.99902
s12.834 2.33301 18.501 3s10.5 2 14.5 4c5.33301 4 12 11.167 20 21.5l29 36.5l-3 96c-0.666992 11.333 -2.5 22.5 -5.5 33.5s-6.16699 16.5 -9.5 16.5c-6 0 -12.167 -5.16699 -18.5 -15.5s-12.166 -21.833 -17.499 -34.5s-9.83301 -24.167 -13.5 -34.5
s-6.16699 -15.5 -7.5 -15.5s-2 1 -2 3c-0.666992 10 0.5 21.333 3.5 34s7.33301 24.834 13 36.501s12.667 21.5 21 29.5s18.166 12 29.499 12c4 0 9.33301 -0.166992 16 -0.5s13.5 -3.5 20.5 -9.5s13.333 -16.167 19 -30.5s10.167 -35.5 13.5 -63.5l34.5 38
c11 12.667 21.667 24 32 34s20.666 18 30.999 24s20.5 9 30.5 9c12.667 0 19 -4 19 -12s-4 -15.333 -12 -22c-10 -8.66699 -19.167 -14.834 -27.5 -18.501s-15.833 -6.16699 -22.5 -7.5s-12.5 -2.33301 -17.5 -3s-9.5 -2.33398 -13.5 -5.00098
c-12.667 -7.33301 -30 -25.666 -52 -54.999l6 -103c0 -10 0.833008 -20.5 2.5 -31.5s4.16699 -16.5 7.5 -16.5c6.66699 0 13.167 5.16699 19.5 15.5s12 21.833 17 34.5s9.33301 24.167 13 34.5s5.83398 15.5 6.50098 15.5c2.66699 0 4 -2.33301 4 -7
c0 -4 -0.333008 -8.83301 -1 -14.5s-1.83398 -11.334 -3.50098 -17.001l-4.5 -15.5c-1.33301 -4.66699 -2.33301 -7.66699 -3 -9z" />
    <glyph glyph-name="y" unicode="y" horiz-adv-x="323" 
d="M221 20c-13.333 -30 -26.332 -55.002 -38.999 -75.002s-25.834 -36.167 -39.501 -48.5s-28.334 -21.166 -44.001 -26.499s-32.5 -8 -50.5 -8c-22 0 -38.167 4.5 -48.5 13.5s-15.833 20.833 -16.5 35.5s2.33301 26.834 9 36.501s15.334 14.5 26.001 14.5
c4 0 8.5 -1.5 13.5 -4.5s7.83301 -8.16699 8.5 -15.5c0 -6.66699 -1.66699 -11.834 -5 -15.501s-6.83301 -6.83398 -10.5 -9.50098s-7 -5.5 -10 -8.5s-4.5 -6.83301 -4.5 -11.5c0.666992 -8.66699 3.33398 -15 8.00098 -19s13 -6 25 -6c13.333 0 26.5 7.83301 39.5 23.5
s25.833 35.5 38.5 59.5s25.167 50.5 37.5 79.5s25.166 57.167 38.499 84.5c-8 -14 -17.167 -28.333 -27.5 -43s-21.333 -28.167 -33 -40.5s-23.5 -22.333 -35.5 -30s-24 -11.5 -36 -11.5c-7.33301 0 -14.833 4.5 -22.5 13.5s-11.834 20.5 -12.501 34.5
c-0.666992 10 0 20.333 2 31s6.33301 23.334 13 38.001l30 72l10 25.5c3.33301 8.33301 6.33301 16.166 9 23.499s4.66699 13.5 6 18.5s2 8.5 2 10.5c0 3.33301 -0.666992 5 -2 5c-8 0 -16.667 -4.66699 -26 -14s-18.166 -19.5 -26.499 -30.5s-15.5 -21.167 -21.5 -30.5
s-9.33301 -14 -10 -14s-1 1 -1 3s1 5.33301 3 10s4.33301 9.83398 7 15.501s5.33398 11 8.00098 16s4.66699 8.5 6 10.5c0.666992 1.33301 3 4.5 7 9.5s9.33301 10.333 16 16s14.334 10.667 23.001 15s18.334 6.5 29.001 6.5c6 0 11.167 -1.66699 15.5 -5
s7.66602 -7.5 9.99902 -12.5s4.16602 -10.167 5.49902 -15.5s2 -10.333 2 -15c0.666992 -21.333 -4 -43.5 -14 -66.5l-37 -87.5c-1.33301 -3.33301 -3.33301 -7.83301 -6 -13.5s-5.33398 -11.834 -8.00098 -18.501s-5 -13.167 -7 -19.5s-3 -11.166 -3 -14.499
c0 -2 1 -3 3 -3c6 0 13.5 3.66699 22.5 11s18.833 16.833 29.5 28.5s21.667 24.834 33 39.501s22 29.334 32 44.001s18.833 28.667 26.5 42s13.5 24.666 17.5 33.999l26 66h69z" />
    <glyph glyph-name="z" unicode="z" horiz-adv-x="264" 
d="M55 16c10.667 -3.33301 21.001 -6.16699 31.001 -8.5s23 -3.5 39 -3.5c14.667 0 24.167 4.16699 28.5 12.5s7.16602 20.166 8.49902 35.499c0.666992 4.66699 2.5 9.66699 5.5 15s6.66699 10 11 14s8.66602 7.33301 12.999 10s8.16602 4 11.499 4
c2 0 4.66699 -0.166992 8 -0.5s6.66602 -1.5 9.99902 -3.5s6 -5 8 -9s2 -9.33301 0 -16c-2.66699 -9.33301 -7.5 -18.333 -14.5 -27s-15.5 -16.5 -25.5 -23.5s-21 -12.667 -33 -17s-24.333 -6.5 -37 -6.5c-14 0 -28 1.66699 -42 5s-27.333 5.33301 -40 6
c-9.33301 0 -18.166 -0.833008 -26.499 -2.5s-17.166 -4.16699 -26.499 -7.5l-9 10l235 252c-9.33301 3.33301 -19 6.16602 -29 8.49902s-23 3.5 -39 3.5c-14.667 0 -24 -4.16699 -28 -12.5s-6.66699 -20.166 -8 -35.499c-0.666992 -5.33301 -2.66699 -10.5 -6 -15.5
s-7.16602 -9.5 -11.499 -13.5s-8.83301 -7.16699 -13.5 -9.5s-8.33398 -3.5 -11.001 -3.5c-2 0 -4.66699 0.166992 -8 0.5s-6.66602 1.5 -9.99902 3.5s-6 4.83301 -8 8.5s-2 8.83398 0 15.501c2.66699 9.33301 7.5 18.333 14.5 27s15.667 16.5 26 23.5s21.5 12.667 33.5 17
s24.333 6.5 37 6.5c15.333 0 30.5 -1.83301 45.5 -5.5s29.167 -5.5 42.5 -5.5c19.333 0 34.333 1.33301 45 4l7 -6z" />
    <glyph glyph-name="braceleft" unicode="{" horiz-adv-x="493" 
d="M429 680c-46.667 -8 -78.334 -22.334 -95.001 -43.001c-12.667 -16.667 -19 -43.334 -19 -80.001c0 -8 0.333008 -21 1 -39s1 -32.333 1 -43c0 -43.333 -15 -75 -45 -95c-20 -13.333 -55.667 -24.666 -107 -33.999c72.667 -10 117.334 -29.667 134.001 -59
c11.333 -20 17 -70.333 17 -151c0 -38.667 9 -67.667 27 -87s46.667 -31 86 -35v-21c-106 2.66699 -160.667 42.334 -164 119.001c-0.666992 12 -0.666992 28 0 48c0.666992 25.333 1 41.333 1 48c0 44.667 -9.66699 75 -29 91c-14.667 12 -46 22.333 -94 31v32
c46 6.66699 77 17.667 93 33c19.333 17.333 29 48.333 29 93c0 80 6.66699 131.667 20 155c20.667 36 68.667 55 144 57v-20z" />
    <glyph glyph-name="bar" unicode="|" horiz-adv-x="313" 
d="M178 -19v720h30v-720h-30z" />
    <glyph glyph-name="braceright" unicode="}" horiz-adv-x="493" 
d="M327 489c0 -44 9.66699 -74.9961 29 -92.9961c17.333 -15.333 48.666 -26.333 93.999 -33v-31c-45.333 -8.66699 -76.166 -19.5 -92.499 -32.5s-25.833 -32.5 -28.5 -58.5v-101c0 -96 -54.333 -145 -163 -147v21c46 5.33301 77.667 20.666 95 45.999
c12.667 19.333 19 49.333 19 90c0 8 -0.333008 20.5 -1 37.5s-1 30.167 -1 39.5c0 41.333 15.667 71.666 47 90.999c20 11.333 54.667 21.333 104 30c-52 8 -88.167 19.167 -108.5 33.5s-32.833 36.166 -37.5 65.499c-2.66699 15.333 -4 54 -4 116
c0 70 -37.667 109.667 -113 119v18c104.667 -2.66699 158.667 -42.334 162 -119.001c0.666992 -12 0.666992 -27.333 0 -46c-0.666992 -24 -1 -39.333 -1 -46z" />
    <glyph glyph-name="asciitilde" unicode="~" horiz-adv-x="321" 
d="M328 405c-5.33301 -46 -25.3311 -69 -59.998 -69c-8.66699 0 -22.334 4.66699 -41.001 14s-32.667 14 -42 14c-16 0 -27.333 -5 -34 -15c-8.66699 -14 -13.334 -21.333 -14.001 -22l-5 5c8 44 25.333 66 52 66c12.667 0 28.667 -4.66699 48 -14s33.333 -14 42 -14
c18 0 34 11.667 48 35h6z" />
    <glyph glyph-name="guillemotleft" unicode="&#xab;" horiz-adv-x="357" 
d="M243 504l-11 -4.99805l-5 2c-12 17.333 -18 40.666 -18 69.999c0 32.667 7.66699 62 23 88c18 30.667 42.333 46 73 46c11.333 0 21 -3.83301 29 -11.5s12 -17.167 12 -28.5c0 -20 -7.5 -38.667 -22.5 -56s-32.5 -26 -52.5 -26c-9.33301 0 -20 3 -32 9
c-6.66699 -4.66699 -10 -14.334 -10 -29.001c0 -17.333 4.66699 -37 14 -59zM380 504.002l-9.99902 -4.99707l-5 2c-12 17.333 -18 40.666 -18 69.999c0 33.333 7.66699 62.666 23 87.999c17.333 30.667 41.666 46 72.999 46c11.333 0 21 -3.83301 29 -11.5
s12 -17.167 12 -28.5c0 -20 -7.5 -38.667 -22.5 -56s-32.5 -26 -52.5 -26c-9.33301 0 -20 3 -32 9c-7.33301 -4.66699 -11 -14.334 -11 -29.001c0 -17.333 4.66699 -37 14 -59z" />
    <glyph glyph-name="guillemotright" unicode="&#xbb;" horiz-adv-x="194" 
d="M235 502l-10 -5.99902c-7.33301 0.666992 -13.333 11 -18 31c-4 16 -6 30 -6 42c0 32.667 7.66699 62 23 88c18 30 42.333 45 73 45c11.333 0 21 -3.66699 29 -11s12 -17 12 -29c0 -20 -7.5 -38.667 -22.5 -56s-32.5 -26 -52.5 -26c-9.33301 0 -20 3 -32 9
c-6.66699 -4.66699 -10 -14.334 -10 -29.001c0 -22 4.66699 -41.333 14 -58z" />
    <glyph glyph-name="afii10023" unicode="&#x401;" horiz-adv-x="588" 
d="M459 772c0 -10 -3.49902 -18.166 -10.499 -24.499s-15.5 -9.5 -25.5 -9.5c-9.33301 0 -17.5 3.66699 -24.5 11s-10.5 15.666 -10.5 24.999s3.66699 17.333 11 24s15.666 10 24.999 10c10 0 18.333 -3.5 25 -10.5s10 -15.5 10 -25.5zM572.001 772.001
c0 -22.667 -11.666 -34.001 -34.999 -34.001s-35 12 -35 36c0 9.33301 3.66699 17.333 11 24s15.666 10 24.999 10s17.333 -3.66699 24 -11s10 -15.666 10 -24.999zM312.002 399c8.66699 2 18.667 3.00098 30 3.00098c60.667 0 91 -9 91 -27c0 -10.667 -7.66699 -16 -23 -16
c-12.667 0 -31.667 3.66699 -57 11c-27.333 9.33301 -41.333 18.666 -42 27.999zM272.002 407.001c-73.333 -17.333 -126.326 -40.6699 -158.993 -70.0029c-41.333 -37.333 -62 -90 -62 -158c0 -46 13 -86 39 -120s61.667 -55.333 107 -64c29.333 -6 59 -8.33301 89 -7
c30 0 60 6.33301 90 19s56.667 29.5 80 50.5s42.333 45 57 72s22 54.833 22 83.5s-8.83301 53 -26.5 73s-41.5 30.667 -71.5 32c-20.667 1.33301 -40.334 -2 -59.001 -10s-36 -18.833 -52 -32.5s-30.167 -29.667 -42.5 -48s-22.166 -37.166 -29.499 -56.499
c-11.333 -30 -18.333 -61 -21 -93s0.5 -61.333 9.5 -88s24.667 -48.5 47 -65.5s52.833 -25.5 91.5 -25.5c21.333 0 42.333 5 63 15s39 23 55 39s28.833 34 38.5 54s14.5 40 14.5 60c0 3.33301 -2 5 -6 5l-7 -5c-4 -20.667 -10.667 -40 -20 -58s-21 -33.833 -35 -47.5
s-30 -24.5 -48 -32.5s-37.667 -12 -59 -12c-36.667 0 -64.5 8.66699 -83.5 26s-31.667 38.833 -38 64.5s-7.5 53.334 -3.5 83.001s11 56.834 21 81.501c15.333 38 36.666 69 63.999 93s58.666 36 93.999 36c25.333 0 46.166 -7.66699 62.499 -23s24.5 -34.666 24.5 -57.999
c0 -31.333 -7.83301 -60.333 -23.5 -87s-35 -49.834 -58 -69.501s-48.167 -35.167 -75.5 -46.5s-52.333 -16.666 -75 -15.999c-13.333 -0.666992 -27 0.5 -41 3.5s-28 6.16699 -42 9.5c-32 9.33301 -54 24.666 -66 45.999s-18 49.333 -18 84c0 49.333 16 100.666 48 153.999
c36 60 77.333 91 124 93c38.667 -30 78 -45 118 -45c26.667 0 40 10 40 30c0 25.333 -30.333 38 -91 38h-25c-5.33301 -0.666992 -10 -1 -14 -1h-10c-11.333 20.667 -14 44.667 -8 72s17.167 54 33.5 80s36.333 49.333 60 70s47.5 34.334 71.5 41.001
c30 6.66699 54.667 5.16699 74 -4.5s30.666 -24.5 33.999 -44.5c2 -16 2.16699 -32.667 0.5 -50s-6.16699 -33.5 -13.5 -48.5s-17.833 -28.333 -31.5 -40s-31.167 -19.834 -52.5 -24.501c-15.333 -3.33301 -28.5 -3 -39.5 1s-19.5 9.83301 -25.5 17.5
s-9.66699 16.834 -11 27.501s-0.166016 21.167 3.50098 31.5s9.5 19.5 17.5 27.5s18.667 13.667 32 17c9.33301 2 16.666 2 21.999 0s9.33301 -3 12 -3c1.33301 0.666992 1.33301 2.5 0 5.5s-2 5.5 -2 7.5c-2 9.33301 -15.333 11.333 -40 6
c-15.333 -3.33301 -27.833 -10 -37.5 -20s-16.334 -21.5 -20.001 -34.5s-4.5 -26.333 -2.5 -40s7.16699 -25.5 15.5 -35.5s20 -17.167 35 -21.5s33.167 -3.5 54.5 2.5c20 5.33301 36.667 14 50 26s24 25.833 32 41.5s13.167 32.334 15.5 50.001
s2.16602 35.167 -0.500977 52.5c-7.33301 39.333 -28.666 63.333 -63.999 72c-19.333 5.33301 -39.5 7.16602 -60.5 5.49902s-41.833 -6.16699 -62.5 -13.5s-40.334 -17 -59.001 -29s-35.334 -25.667 -50.001 -41c-13.333 -14 -24.833 -29.5 -34.5 -46.5
s-16.167 -34.667 -19.5 -53s-2.5 -36.833 2.5 -55.5s15.5 -37 31.5 -55z" />
    <glyph glyph-name="afii10104" unicode="&#x404;" horiz-adv-x="667" 
d="M267 -26c-46.667 8.66699 -82.8389 28.3447 -108.506 59.0117s-42.167 67 -49.5 109s-5.83301 87.167 4.5 135.5s28.166 95.166 53.499 140.499c18.667 34 40.167 66.5 64.5 97.5s50.5 58.667 78.5 83s57.5 44.666 88.5 60.999s62.167 26.833 93.5 31.5
c7.33301 1.33301 14.5 2.33301 21.5 3s14.167 0.666992 21.5 0c22.667 0 39.5 -4.5 50.5 -13.5s17.5 -20.5 19.5 -34.5s0.333008 -29.667 -5 -47s-13.166 -34.166 -23.499 -50.499s-22.666 -31.333 -36.999 -45s-28.833 -23.834 -43.5 -30.501l-10 10
c13.333 8.66699 26.333 19.5 39 32.5s23.834 26.667 33.501 41s17.334 28.666 23.001 42.999s8 27.333 7 39s-5.83301 21.167 -14.5 28.5s-22.334 11.333 -41.001 12c-31.333 0 -60.833 -7 -88.5 -21s-53.5 -33.167 -77.5 -57.5s-46.333 -53 -67 -86
s-39.667 -67.833 -57 -104.5l-14.5 -28c-4.33301 -8.66699 -8.83301 -19.667 -13.5 -33c8 17.333 17.833 33 29.5 47s23.667 25.667 36 35s24.333 16.666 36 21.999s21.167 8.33301 28.5 9c10 0.666992 19.333 -2 28 -8s17.167 -13.167 25.5 -21.5s16.833 -16.333 25.5 -24
s17.834 -12.834 27.501 -15.501s20.5 -1.33398 32.5 3.99902s25.333 16.666 40 33.999c4 4 7.83301 4.5 11.5 1.5s2.83398 -7.16699 -2.49902 -12.5c-22 -22.667 -41.167 -39.167 -57.5 -49.5s-30.833 -16.5 -43.5 -18.5s-24 -0.833008 -34 3.5s-19.333 9.83301 -28 16.5
l-25.5 20.5c-8.33301 7 -17.166 12.167 -26.499 15.5c-10.667 3.33301 -21.834 2 -33.501 -4s-23.167 -15.667 -34.5 -29c-21.333 -30 -37.5 -62.167 -48.5 -96.5s-17.5 -68.5 -19.5 -102.5c-1.33301 -20.667 -0.333008 -40.667 3 -60s8.66602 -37.333 15.999 -54
s17.333 -31 30 -43s28 -20.667 46 -26c19.333 -8.66699 40.5 -13.334 63.5 -14.001s46.167 2.33301 69.5 9s46 16.5 68 29.5s41.333 28.5 58 46.5s30.167 38.5 40.5 61.5s15.5 47.5 15.5 73.5c0 23.333 -8.16699 42.666 -24.5 57.999s-37.166 23 -62.499 23
c-35.333 0 -66.666 -12 -93.999 -36s-48.666 -55 -63.999 -93c-10 -24.667 -17 -51.834 -21 -81.501s-2.83301 -57.334 3.5 -83.001s19 -47.167 38 -64.5s46.833 -26 83.5 -26c21.333 0 41 4 59 12s34 18.833 48 32.5s25.667 29.5 35 47.5s16 37.333 20 58l7 5
c4 0 6 -1.66699 6 -5c0 -20 -4.83301 -40 -14.5 -60s-22.5 -38 -38.5 -54s-34.333 -29 -55 -39s-41.667 -15 -63 -15c-38.667 0 -69.167 8.5 -91.5 25.5s-38 38.833 -47 65.5s-12.167 56 -9.5 88s9.66699 63 21 93c7.33301 19.333 17.166 38.166 29.499 56.499
s26.5 34.333 42.5 48s33.333 24.5 52 32.5s38.334 11.333 59.001 10c30 -1.33301 53.833 -12 71.5 -32s26.5 -44.333 26.5 -73c0 -37.333 -10.833 -71.833 -32.5 -103.5s-49.167 -58 -82.5 -79s-69.833 -35 -109.5 -42s-77.5 -4.83301 -113.5 6.5h-4z" />
    <glyph glyph-name="uni0406" unicode="&#x406;" horiz-adv-x="746" 
d="M880 661c-30.667 -12 -55.668 -30.5059 -75.001 -55.5059s-35.833 -53.833 -49.5 -86.5s-25.667 -67.667 -36 -105s-21.5 -75 -33.5 -113c-14 -45.333 -32.667 -89.5 -56 -132.5s-51.333 -81.333 -84 -115s-70.167 -60.167 -112.5 -79.5s-89.5 -28 -141.5 -26
c-23.333 1.33301 -45.666 6 -66.999 14s-42.666 19.667 -63.999 35c-9.33301 6.66699 -16.833 14.834 -22.5 24.501s-9.33398 19.834 -11.001 30.501s-1.33398 21.334 0.999023 32.001s7.16602 20.334 14.499 29.001c16 20.667 36.5 30.834 61.5 30.501
s50.167 -11.166 75.5 -32.499c16.667 -12.667 30 -26.334 40 -41.001s14.333 -29 13 -43c-2 -4.66699 -5.33301 -4.66699 -10 0c-6 15.333 -13.167 28.666 -21.5 39.999s-17.166 21 -26.499 29c-23.333 19.333 -46.166 30 -68.499 32s-40.166 -5.33301 -53.499 -22
c-11.333 -15.333 -14.666 -32.666 -9.99902 -51.999s15.334 -35.666 32.001 -48.999c20.667 -16 41.667 -27.333 63 -34s43 -9.33398 65 -8.00098c48 0.666992 88.333 10.834 121 30.501s60.167 45.334 82.5 77.001s41.166 67.167 56.499 106.5l44 118l32 91.5
c10.667 30.333 22.834 59.666 36.501 87.999s29 54.666 46 78.999s37.167 45.833 60.5 64.5c-37.333 -12 -69.333 -17.5 -96 -16.5s-50.667 6.16699 -72 15.5c-28.667 10.667 -55 17.834 -79 21.501s-46.833 4.5 -68.5 2.5s-42.5 -7 -62.5 -15s-40 -18.333 -60 -31
c-34 -23.333 -63.333 -51 -88 -83c-51.333 -73.333 -77 -147.666 -77 -222.999c0 -30.667 6.33301 -56.334 19 -77.001c16 -25.333 38.333 -38 67 -38c60 0 113 37.667 159 113c40.667 66.667 61 132.334 61 197.001c0 14.667 -4 28.334 -12 41.001s-19 19 -33 19
c-72.667 0 -128.334 -72 -167.001 -216c-2.66699 -8.66699 -5.66699 -13 -9 -13l-7 5c0.666992 48.667 19 99.334 55 152.001c40 57.333 83.333 86 130 86c18.667 0 33.667 -7.66699 45 -23c9.33301 -14.667 14 -31.334 14 -50.001c0 -67.333 -21.333 -136.333 -64 -207
c-49.333 -80 -105 -120 -167 -120c-36 0 -63.333 13 -82 39c-16.667 22.667 -25 52.667 -25 90c0 82.667 27.667 161.667 83 237v5c12 15.333 25 29.166 39 41.499s28.667 24.166 44 35.499c34.667 24 73.167 44.667 115.5 62s88.5 26.666 138.5 27.999
c27.333 0 51.166 -4.33301 71.499 -13s40.666 -16.667 60.999 -24s42.5 -11.666 66.5 -12.999s53 5.66699 87 21l-3 -2h1z" />
    <glyph glyph-name="afii10056" unicode="&#x407;" horiz-adv-x="746" 
d="M867 665l-0.999023 0.00585938l3 2c-34 -15.333 -63 -22.333 -87 -21s-46.167 5.66602 -66.5 12.999s-40.666 15.333 -60.999 24s-44.166 13 -71.499 13c-50 -1.33301 -96.167 -10.666 -138.5 -27.999s-80.833 -38 -115.5 -62c-15.333 -11.333 -30 -23.166 -44 -35.499
s-27 -26.166 -39 -41.499v-5c-55.333 -75.333 -83 -154.333 -83 -237c0 -37.333 8.33301 -67.333 25 -90c18.667 -26 46 -39 82 -39c62 0 117.667 40 167 120c42.667 70.667 64 139.667 64 207c0 18.667 -4.66699 35.334 -14 50.001c-11.333 15.333 -26.333 23 -45 23
c-46.667 0 -90 -28.667 -130 -86c-36 -52.667 -54.333 -103.334 -55 -152.001l7 -5c3.33301 0 6.33301 4.33301 9 13c38.667 144 94.334 216 167.001 216c14 0 25 -6.33301 33 -19s12 -26.334 12 -41.001c0 -64.667 -20.333 -130.334 -61 -197.001
c-46 -75.333 -99 -113 -159 -113c-28.667 0 -51 12.667 -67 38c-12.667 20.667 -19 46.334 -19 77.001c0 75.333 25.667 149.666 77 222.999c24.667 32 54 59.667 88 83c20 12.667 40 23 60 31s40.833 13 62.5 15s44.5 1.16699 68.5 -2.5s50.333 -10.834 79 -21.501
c21.333 -9.33301 45.333 -14.5 72 -15.5s58.667 4.5 96 16.5c-23.333 -18.667 -43.5 -40.167 -60.5 -64.5s-32.333 -50.666 -46 -78.999s-25.834 -57.666 -36.501 -87.999l-32 -91.5l-44 -118c-15.333 -39.333 -34.166 -74.833 -56.499 -106.5
s-49.833 -57.334 -82.5 -77.001s-73 -29.834 -121 -30.501c-22 -1.33301 -43.667 1.33398 -65 8.00098s-42.333 18 -63 34c-16.667 13.333 -27.334 29.666 -32.001 48.999s-1.33398 36.666 9.99902 51.999c13.333 16.667 31.166 24 53.499 22s45.166 -12.667 68.499 -32
c9.33301 -8 18.166 -17.667 26.499 -29s15.5 -24.666 21.5 -39.999c4.66699 -4.66699 8 -4.66699 10 0c1.33301 14 -3 28.333 -13 43s-23.333 28.334 -40 41.001c-25.333 21.333 -50.5 32.166 -75.5 32.499s-45.5 -9.83398 -61.5 -30.501
c-7.33301 -8.66699 -12.166 -18.334 -14.499 -29.001s-2.66602 -21.334 -0.999023 -32.001s5.33398 -20.834 11.001 -30.501s13.167 -17.834 22.5 -24.501c21.333 -15.333 42.666 -27 63.999 -35s43.666 -12.667 66.999 -14c52 -2 99.167 6.66699 141.5 26
s79.833 45.833 112.5 79.5s60.667 72 84 115s42 87.167 56 132.5c12 38 23.167 75.667 33.5 113s22.333 72.333 36 105s30.167 61.5 49.5 86.5s44.333 43.5 75 55.5zM902.001 746.006c0 -22 -12 -33 -36 -33c-9.33301 0 -17.5 3.5 -24.5 10.5s-10.5 15.167 -10.5 24.5
c0 10 3.5 18.333 10.5 25s15.5 10 25.5 10s18.333 -3.66699 25 -11s10 -16 10 -26zM789.001 746.006c0 -9.33301 -3.66699 -17.167 -11 -23.5s-15.666 -9.5 -24.999 -9.5s-17.5 3.5 -24.5 10.5s-10.5 15.167 -10.5 24.5s3.66699 17.5 11 24.5s15.666 10.5 24.999 10.5
c10 0 18.333 -3.66699 25 -11s10 -16 10 -26z" />
    <glyph glyph-name="afii10062" unicode="&#x40e;" horiz-adv-x="847" 
d="M173 510c-22.667 -16 -43.6631 -33.9961 -62.9961 -53.9961s-36 -42 -50 -66s-24.833 -49.5 -32.5 -76.5s-10.834 -55.167 -9.50098 -84.5c1.33301 -36.667 10.666 -64.167 27.999 -82.5s39 -26.833 65 -25.5c27.333 1.33301 55.333 14.166 84 38.499
s51.667 61.166 69 110.499c4 11.333 7.83301 26.166 11.5 44.499s5 36.333 4 54s-5.33301 32.5 -13 44.5s-20.834 17.667 -39.501 17c-18 -1.33301 -34 -8.33301 -48 -21c-23.333 -22.667 -41.166 -47.834 -53.499 -75.501s-17.833 -59.167 -16.5 -94.5
c1.33301 -6.66699 2 -11.667 2 -15c-0.666992 -0.666992 -1.33398 -1.83398 -2.00098 -3.50098s-2 -2.5 -4 -2.5c-5.33301 -0.666992 -8.66602 2.83301 -9.99902 10.5s-2 14.5 -2 20.5c-0.666992 18.667 2.66602 39.167 9.99902 61.5s17.166 43.333 29.499 63
s26.333 36.5 42 50.5s31.5 22 47.5 24c18 2.66699 32.833 -0.666016 44.5 -9.99902s20 -22.333 25 -39s6.83301 -36 5.5 -58s-5.66602 -44.333 -12.999 -67c-8 -28 -18.5 -52.5 -31.5 -73.5s-27.333 -38.5 -43 -52.5s-32 -24.667 -49 -32s-33.833 -11.333 -50.5 -12
c-31.333 -2 -57 7.5 -77 28.5s-30.667 52.5 -32 94.5c-1.33301 32.667 2 63.5 10 92.5s19.167 55.833 33.5 80.5s31.333 47 51 67s40.5 38 62.5 54c34.667 24 71.167 44 109.5 60s82.5 24.667 132.5 26c27.333 -3.33301 49.833 -7.83301 67.5 -13.5s33.167 -11 46.5 -16
s26.166 -9.16699 38.499 -12.5s27.166 -4.66602 44.499 -3.99902c25.333 1.33301 50.333 5.66602 75 12.999s48.667 19.666 72 36.999c4 3.33301 7.83301 5 11.5 5s6.5 -1 8.5 -3s3 -4.83301 3 -8.5s-1.33301 -6.83398 -4 -9.50098c-12 -2 -24.333 -7.5 -37 -16.5
s-24.667 -20.5 -36 -34.5s-22.166 -30 -32.499 -48s-19.5 -36.667 -27.5 -56c-0.666992 -2 -3.83398 -9.66699 -9.50098 -23l-21.5 -49.5l-28 -66c-10 -24.333 -19.167 -48 -27.5 -71s-15.333 -44.333 -21 -64s-8.5 -35.167 -8.5 -46.5c0 -10.667 3 -16 9 -16
c12.667 0 28.667 9.33301 48 28s40 42.667 62 72s44.833 61.833 68.5 97.5l67.5 104l58 92c17.333 27.667 31 48.167 41 61.5h65l-76.5 -178l-107.5 -249c-43.333 -97.333 -91.333 -170 -144 -218c-20 -18.667 -44.5 -35.834 -73.5 -51.501s-59.167 -27 -90.5 -34
s-62.333 -7.66699 -93 -2s-58 20.834 -82 45.501c-16 16.667 -23 34.334 -21 53.001s9.66699 35 23 49s30.5 24.167 51.5 30.5s42.833 5.5 65.5 -2.5c7.33301 -1.33301 16.5 -5.16602 27.5 -11.499s21.333 -13.666 31 -21.999s17.667 -17.166 24 -26.499
s8.5 -17.666 6.5 -24.999c-4 -3.33301 -7.66699 -3.33301 -11 0l-20 23.5c-6 7 -12.167 13.5 -18.5 19.5s-13.333 11.167 -21 15.5s-17.167 8.5 -28.5 12.5c-16.667 5.33301 -33.334 5.33301 -50.001 0s-30.334 -13.666 -41.001 -24.999s-17.167 -24.5 -19.5 -39.5
s2.83398 -28.833 15.501 -41.5c18 -18 39.167 -30 63.5 -36s49.166 -7.33301 74.499 -4s50 10.666 74 21.999s44.333 25 61 41c34 32 69.333 91.333 106 178l140 333l-73.5 -111c-23.667 -36.667 -47 -70.334 -70 -101.001s-45.833 -57.334 -68.5 -80.001
s-45.667 -38.334 -69 -47.001c-10 -4 -20.5 -5.33301 -31.5 -4s-20.5 5.5 -28.5 12.5s-13.5 17 -16.5 30s-1.83301 29.167 3.5 48.5l20 71c8.66699 31.333 23.334 68 44.001 110c18 37.333 39 73.666 63 108.999s50.333 66 79 92l-26 -9.5c-8 -3 -15 -5.5 -21 -7.5
c-24 -9.33301 -45.667 -14.5 -65 -15.5s-37.666 0.166992 -54.999 3.5s-33.666 7.83301 -48.999 13.5s-31.333 10.834 -48 15.501s-34 7.83398 -52 9.50098s-38 0.166992 -60 -4.5c-36 -6.66699 -70 -20.334 -102 -41.001zM961.004 716.004
c-1.33301 -13.333 -7.99902 -27.3281 -19.999 -41.9951s-26.667 -24.334 -44 -29.001c-8 -2.66699 -17.333 -4.66699 -28 -6s-21.167 -2 -31.5 -2s-20 1.33301 -29 4s-16.833 6.66699 -23.5 12c-12.667 7.33301 -20.834 18.166 -24.501 32.499s-2.16699 28.166 4.5 41.499
c3.33301 6.66699 7.16602 11.667 11.499 15s9.16602 5.66602 14.499 6.99902s9.83301 1.83301 13.5 1.5s6.5 -0.833008 8.5 -1.5c5.33301 -0.666992 9.66602 -5.66699 12.999 -15s1.33301 -19 -6 -29c-6 -9.33301 -10.667 -18.333 -14 -27c-2.66699 -6 -2.5 -11 0.5 -15
s6.83301 -6.83301 11.5 -8.5s9.83398 -2.33398 15.501 -2.00098s10.5 0.166016 14.5 -0.500977c10 0.666992 19.667 2.33398 29 5.00098s15.333 9.66699 18 21c1.33301 4 1.83301 8 1.5 12s-0.5 8.33301 -0.5 13s1.16699 9.33398 3.5 14.001s5.33301 9.16699 9 13.5
s7.33398 7.5 11.001 9.5s7.16699 3 10.5 3c2 0 5 -0.333008 9 -1s7.66699 -1.83398 11 -3.50098s6.33301 -4.16699 9 -7.5s3.33398 -8.33301 2.00098 -15z" />
    <glyph glyph-name="afii10106" unicode="&#x410;" horiz-adv-x="781" 
d="M739 280l-16.0059 -38.002l-16 -39c-21.333 -50 -44.666 -109.667 -69.999 -179c4 -8 7.66699 -12 11 -12c20 0 45.667 26 77 78c30.667 51.333 48 77.666 52 78.999l5 -6c0 -2 -2.5 -7.33301 -7.5 -16l-19 -31.5l-25 -40l-26.5 -41.5c-22 -29.333 -44 -44 -66 -44
c-12.667 0 -23.167 6.33301 -31.5 19s-12.5 27.667 -12.5 45c0 31.333 12.333 81 37 149l16 39c5.33301 12.667 10.333 25.334 15 38.001h-107l-47 -103.5l-40 -87.5c-20.667 -42 -42.834 -80 -66.501 -114s-51.5 -61 -83.5 -81c-14 -8.66699 -30 -16.167 -48 -22.5
s-36.5 -10.833 -55.5 -13.5s-38 -2.83398 -57 -0.500977s-36.833 7.5 -53.5 15.5c-15.333 8 -29 17.833 -41 29.5s-21.167 24.334 -27.5 38.001s-8.83301 27.834 -7.5 42.501s7.66602 29 18.999 43c16 20.667 36.5 30.834 61.5 30.501s50.167 -11.166 75.5 -32.499
c16.667 -12.667 30 -26.334 40 -41.001s14.333 -29 13 -43c-2 -4.66699 -5.33301 -4.66699 -10 0c-6 15.333 -13.167 28.666 -21.5 39.999s-17.166 21 -26.499 29c-23.333 19.333 -46.166 30 -68.499 32s-40.166 -5.33301 -53.499 -22c-8 -10.667 -12.333 -21.667 -13 -33
s1.5 -22.333 6.5 -33s11.833 -20.834 20.5 -30.501s18.667 -18.167 30 -25.5c20 -12.667 41.333 -20.167 64 -22.5s44.834 -1 66.501 4s42.334 13.167 62.001 24.5s37.167 24.333 52.5 39c18.667 18.667 35.834 40.334 51.501 65.001s30.834 51.667 45.501 81l42 90l48 102
h-113l8 24h117c22 44.667 45.667 88.834 71 132.501s52.833 82.667 82.5 117s61.167 62.333 94.5 84s69 32.5 107 32.5h17c-20 -34 -44.167 -82.667 -72.5 -146l-95.5 -220h49l-8 -24h-51zM194.994 531.998c12 15.333 25.002 29.1641 39.002 41.4971
s28.667 24.166 44 35.499c34.667 24 73.167 44.667 115.5 62s88.5 26.666 138.5 27.999c27.333 0 51.166 -4.33301 71.499 -13s40.666 -16.667 60.999 -24s42.5 -11.666 66.5 -12.999s53 5.66699 87 21l-24 -22c-27.333 -13.333 -52.166 -23.333 -74.499 -30
s-42.833 -10.667 -61.5 -12s-35.667 -0.666016 -51 2.00098s-30 6.66699 -44 12c-28.667 10.667 -55 17.834 -79 21.501s-46.833 4.5 -68.5 2.5s-42.5 -7 -62.5 -15s-40 -18.333 -60 -31c-34 -23.333 -63.333 -51 -88 -83c-51.333 -73.333 -77 -147.666 -77 -222.999
c0 -30.667 6.33301 -56.334 19 -77.001c16 -25.333 38.333 -38 67 -38c60 0 113 37.667 159 113c40.667 66.667 61 132.334 61 197.001c0 14.667 -4 28.334 -12 41.001s-19 19 -33 19c-72.667 0 -128.334 -72 -167.001 -216c-2.66699 -8.66699 -5.66699 -13 -9 -13l-7 5
c0.666992 48.667 19 99.334 55 152.001c40 57.333 83.333 86 130 86c18.667 0 33.667 -7.66699 45 -23c9.33301 -14.667 14 -31.334 14 -50.001c0 -67.333 -21.333 -136.333 -64 -207c-49.333 -80 -105 -120 -167 -120c-36 0 -63.333 13 -82 39
c-16.667 22.667 -25 52.667 -25 90c0 82.667 27.667 161.667 83 237v5zM734.996 455.996c7.33301 14 16.166 29.3311 26.499 45.998s21.333 33.334 33 50.001s24 32.834 37 48.501s25.833 29.834 38.5 42.501c-30.667 -2 -60 -13.333 -88 -34s-54.667 -46.834 -80 -78.501
s-49.166 -67.167 -71.499 -106.5s-43.5 -79.333 -63.5 -120h105l38 95c10.667 26.667 19 45.667 25 57z" />
    <glyph glyph-name="afii10018" unicode="&#x411;" horiz-adv-x="976" 
d="M729 -11c-23.333 0 -41.8311 4.33789 -55.498 13.0049s-23 20.334 -28 35.001s-5.83301 31.167 -2.5 49.5s10.333 37.5 21 57.5c2.66699 4.66699 5.66699 7.66699 9 9s6.16602 1.5 8.49902 0.5s3.83301 -2.83301 4.5 -5.5s-0.333008 -5.66699 -3 -9
c-6 -9.33301 -11.5 -21.5 -16.5 -36.5s-7.16699 -29.5 -6.5 -43.5s4.83398 -26.167 12.501 -36.5s21.5 -15.5 41.5 -15.5c21.333 0.666992 41.833 9 61.5 25s37 36.333 52 61s27 52 36 82s13.5 59.333 13.5 88c0.666992 32 -4.66602 54.333 -15.999 67
s-26.666 18.667 -45.999 18c-14.667 -0.666992 -29.834 -5.5 -45.501 -14.5s-30.834 -20.5 -45.501 -34.5s-28 -29.333 -40 -46s-21.667 -33 -29 -49l-36.5 -101.5c-12.333 -33.667 -26 -65.834 -41 -96.501s-31.667 -59 -50 -85s-39.333 -48.667 -63 -68
s-50.334 -34.333 -80.001 -45s-63.5 -16 -101.5 -16c-54 0.666992 -95.333 17.5 -124 50.5s-43 76.5 -43 130.5c0 70.667 22.333 142.334 67 215.001c50 83.333 108 125 174 125c32.667 0 59.334 -9.5 80.001 -28.5s31 -44.833 31 -77.5c0 -56 -18.333 -120.333 -55 -193
c-42 -84.667 -87.667 -127 -137 -127c-18 0 -32.667 4.33301 -44 13s-19.5 19.834 -24.5 33.501s-7.33301 28.5 -7 44.5s3.16602 31.667 8.49902 47c7.33301 33.333 13.666 50 18.999 50h7.5c1.66699 0 2.5 -2 2.5 -6c0 -9.33301 -3.66699 -26 -11 -50
c-3.33301 -11.333 -5.83301 -23.833 -7.5 -37.5s-1 -26.5 2 -38.5s8.5 -22.167 16.5 -30.5s20 -12.5 36 -12.5c46 0 88.333 41.333 127 124c34 72 51 134 51 186c0 26.667 -8.5 48.5 -25.5 65.5s-38.833 25.5 -65.5 25.5c-62.667 0 -118 -40 -166 -120
c-42.667 -70.667 -64 -139.334 -64 -206.001c0 -48.667 12.333 -87.667 37 -117c13.333 -16.667 29.166 -28.834 47.499 -36.501s39.166 -12.167 62.499 -13.5c32 -2.66699 60.167 1.16602 84.5 11.499s46 25.166 65 44.499s35.833 42.666 50.5 69.999
s28.334 56.833 41.001 88.5s24.667 65.167 36 100.5s23.333 70.666 36 105.999c12.667 36 27.334 72 44.001 108s35.667 69 57 99s45.166 55.5 71.499 76.5s56.166 35.167 89.499 42.5c-2 -2.66699 -2.16699 -3.83398 -0.5 -3.50098s4 0.833008 7 1.5s5.33301 1.16699 7 1.5
s1.5 -0.833984 -0.5 -3.50098c-23.333 -8 -44.166 -20.833 -62.499 -38.5s-34.666 -38.667 -48.999 -63s-27.5 -51 -39.5 -80s-23.333 -59.167 -34 -90.5c18.667 23.333 40.334 43.5 65.001 60.5s48.667 26.167 72 27.5c14.667 0 29.834 -2.33301 45.501 -7
s29.667 -12.167 42 -22.5s22.333 -23.5 30 -39.5s11.5 -35.333 11.5 -58c-0.666992 -31.333 -6.83398 -62 -18.501 -92s-27.334 -56.667 -47.001 -80s-42.5 -42.166 -68.5 -56.499s-54 -21.833 -84 -22.5zM840.002 575.005l-18.0029 6.00195l-25.5 8.5l-26 8.5
c-8.33301 2.66699 -14.166 4.66699 -17.499 6c-23.333 7.33301 -46.333 13.5 -69 18.5s-45.167 7.66699 -67.5 8s-45 -2.33398 -68 -8.00098s-46.5 -15.834 -70.5 -30.501c-30 -18 -54.667 -40.5 -74 -67.5s-29.333 -57.167 -30 -90.5c0 -46 17.333 -69 52 -69
c29.333 0 51.333 15.667 66 47c11.333 26 17 53.667 17 83c0 6.66699 -1.33301 16.667 -4 30s-4 23.333 -4 30c0 1.33301 0.333008 2.33301 1 3v3l8 2l8 -2c3.33301 -10 5.5 -20.167 6.5 -30.5s1.5 -21.5 1.5 -33.5c0 -39.333 -7.33301 -71.666 -22 -96.999
c-18 -33.333 -47 -50 -87 -50c-10 0 -19 2.33301 -27 7s-14.667 12 -20 22c-4.66699 8 -8.33398 16.333 -11.001 25s-3.66699 18 -3 28c1.33301 40.667 13.5 76.167 36.5 106.5s51.833 55.5 86.5 75.5c32 18.667 66.5 32.667 103.5 42s72.167 13.666 105.5 12.999
c12.667 0 26.5 -1.33301 41.5 -4s30.833 -6 47.5 -10c26.667 -6 55.334 -14.167 86.001 -24.5s58.334 -18.5 83.001 -24.5c24 -6.66699 47.167 -12.167 69.5 -16.5s42.833 -6.5 61.5 -6.5c31.333 0 54.666 7.16699 69.999 21.5s27.333 32.833 36 55.5
c2.66699 2.66699 5 4 7 4s3 -1 3 -3c0 -0.666992 -0.166992 -1.16699 -0.5 -1.5s-0.5 -0.833008 -0.5 -1.5c-3.33301 -15.333 -9.16602 -30.5 -17.499 -45.5s-19 -28.5 -32 -40.5s-28.667 -21.667 -47 -29s-38.833 -11 -61.5 -11c-20 0 -40.667 2.16699 -62 6.5
s-42.666 9.5 -63.999 15.5l-34 10.5z" />
    <glyph glyph-name="afii10053" unicode="&#x412;" horiz-adv-x="813" 
d="M541 667c-15.333 0 -31.6621 -0.838867 -48.9951 -2.50586s-35 -4 -53 -7s-35.833 -6.66699 -53.5 -11s-34.5 -9.5 -50.5 -15.5c-30 -11.333 -59.667 -28.333 -89 -51s-54.333 -48 -75 -76c-38 -54 -60.667 -112 -68 -174c-3.33301 -31.333 0.333984 -58.333 11.001 -81
c7.33301 -13.333 16.333 -24 27 -32s23.667 -12.667 39 -14c62 -6 121 26.667 177 98c25.333 32.667 44.833 65 58.5 97s22.167 64.667 25.5 98c1.33301 15.333 -1.33398 29.833 -8.00098 43.5s-17.334 21.167 -32.001 22.5c-76 8 -141.333 -59.333 -196 -202
c-4.66699 -8.66699 -8.33398 -12.667 -11.001 -12l-7 5c7.33301 50.667 31.666 100.667 72.999 150c48.667 53.333 97 77.666 145 72.999c19.333 -2 33.666 -11.667 42.999 -29c8.66699 -14.667 12 -32 10 -52c-8 -68.667 -37.667 -136.667 -89 -204
c-59.333 -76 -121.333 -110.667 -186 -104c-36.667 4 -63.334 20.333 -80.001 49c-15.333 24 -21 55.333 -17 94c6.66699 60.667 28.334 118.334 65.001 173.001c24 36 51 65.833 81 89.5s62.667 42.5 98 56.5c12 4.66699 25.667 9.33398 41 14.001s32 8.66699 50 12
s37 6 57 8s40.333 2.66699 61 2c38 -0.666992 75.667 -5.33398 113 -14.001c19.333 15.333 41.333 27.666 66 36.999c6.66699 0.666992 10.667 -2.33301 12 -9c-20 -8 -37.667 -19.667 -53 -35c22 -6.66699 42.5 -15.167 61.5 -25.5s35.333 -22.833 49 -37.5
s23.834 -31.5 30.501 -50.5s9 -40.5 7 -64.5c-2 -22.667 -8 -43.167 -18 -61.5s-22.833 -34.333 -38.5 -48s-33.5 -25 -53.5 -34s-40.667 -15.833 -62 -20.5l-1 -2c24.667 -3.33301 44.667 -12.166 60 -26.499s26.5 -31.333 33.5 -51s9.83301 -41.167 8.5 -64.5
s-6 -45.666 -14 -66.999c-8.66699 -23.333 -20.834 -44.166 -36.501 -62.499s-33.667 -34.333 -54 -48s-42.333 -25 -66 -34s-48.167 -15.833 -73.5 -20.5c-40 -8.66699 -81.167 -11 -123.5 -7s-82.166 11 -119.499 21c-15.333 4.66699 -30.333 9.83398 -45 15.501l-43 16
c-14 5 -27.5 9 -40.5 12s-25.5 4.16699 -37.5 3.5s-22.167 -4.16699 -30.5 -10.5s-12.5 -15.166 -12.5 -26.499c0.666992 -16 6.16699 -28.333 16.5 -37s22.833 -14.834 37.5 -18.501s30.167 -5.5 46.5 -5.5h43.5c2 0 2.33301 -0.833008 1 -2.5s-3.33301 -3.5 -6 -5.5
s-5.83398 -3.83301 -9.50098 -5.5s-6.5 -2.5 -8.5 -2.5c-18.667 -1.33301 -36.334 -0.666016 -53.001 2.00098s-31.334 7.33398 -44.001 14.001s-23 15.167 -31 25.5s-12.333 22.166 -13 35.499c-1.33301 13.333 2.66699 24.833 12 34.5s20.833 17.5 34.5 23.5
s28 10.5 43 13.5s28.167 4.83301 39.5 5.5c15.333 0.666992 30.5 -0.5 45.5 -3.5s29.833 -7.16699 44.5 -12.5c34.667 16 63.334 36.833 86.001 62.5s41.834 53.5 57.501 83.5s29.167 61.333 40.5 94s23 64.334 35 95.001l28.5 74.5c10.333 26.333 22 52.5 35 78.5
s27.333 50.833 43 74.5s33.5 44.834 53.5 63.501c-26.667 6.66699 -58.334 10 -95.001 10zM551.004 367.994c-12 -32 -25.4922 -65.6729 -40.4922 -101.006s-33.167 -69 -54.5 -101s-46.5 -60.667 -75.5 -86s-63.167 -44.333 -102.5 -57
c29.333 -11.333 58.166 -23.666 86.499 -36.999s57.166 -20.666 86.499 -21.999c33.333 -4 64.833 1.83301 94.5 17.5s55.167 36.834 76.5 63.501s37.666 56.667 48.999 90s15 65.333 11 96c-2 12 -5.33301 23.333 -10 34s-11.5 19.834 -20.5 27.501s-20.667 13.5 -35 17.5
s-31.833 5.66699 -52.5 5l-2 13l6 6c2.66699 0.666992 6 0.833984 10 0.500977s8.66699 -0.5 14 -0.5c10 0 19.667 0.833008 29 2.5s18.666 3.5 27.999 5.5c14 2.66699 27.167 9 39.5 19s23.333 22.333 33 37s17.667 30.834 24 48.501s10.166 35.5 11.499 53.5
c3.33301 38 -3.33398 69.167 -20.001 93.5s-41.334 42.5 -74.001 54.5c-14.667 -18 -27.334 -38.333 -38.001 -61s-20.167 -46.5 -28.5 -71.5s-16 -50.167 -23 -75.5s-14.5 -49.333 -22.5 -72z" />
    <glyph glyph-name="afii10020" unicode="&#x413;" horiz-adv-x="769" 
d="M847 562l-0.99707 -0.999023c-18.667 -11.333 -34.167 -24.833 -46.5 -40.5s-23.833 -33.167 -34.5 -52.5c-18 -32 -34.167 -70.667 -48.5 -116l-46 -142c-16.333 -49.333 -34.333 -98.5 -54 -147.5s-43.667 -93.167 -72 -132.5s-62.333 -71.666 -102 -96.999
s-86.834 -39 -141.501 -41c-26.667 -1.33301 -50.334 2.33398 -71.001 11.001s-38.167 21.167 -52.5 37.5s-25.166 35.666 -32.499 57.999s-11 47.166 -11 74.499c0 70.667 22.333 142.334 67 215.001c50 83.333 108 125 174 125c32.667 0 59.334 -9.5 80.001 -28.5
s31 -44.833 31 -77.5c0 -56 -18.333 -120.333 -55 -193c-42 -84.667 -87.667 -127 -137 -127c-22 0 -40 8.16699 -54 24.5s-21 35.5 -21 57.5c0 6.66699 0.666992 15 2 25s3.33301 22.333 6 37c7.33301 33.333 13.666 50 18.999 50c6.66699 0 10 -4 10 -12
c0 -9.33301 -3.66699 -26 -11 -50c-6.66699 -20.667 -10 -37.667 -10 -51c0 -18 5 -33.333 15 -46c10.667 -14.667 24.667 -22 42 -22c46 0 88.333 41.333 127 124c34 72 51 134 51 186c0 26.667 -8.5 48.5 -25.5 65.5s-38.833 25.5 -65.5 25.5
c-62.667 0 -118 -40 -166 -120c-42.667 -70.667 -64 -139.334 -64 -206.001c0 -48.667 12.333 -87.667 37 -117c27.333 -33.333 64 -50 110 -50c44 -0.666992 80.667 9.83301 110 31.5s54.666 50.167 75.999 85.5s39.833 76.166 55.5 122.499l48 143
c16.333 49 34.5 97.833 54.5 146.5s44.667 93 74 133c47.333 65.333 89.666 97 126.999 95zM793.003 584.001l-80.999 24.5c-26 7.66699 -52 12.667 -78 15s-52 0.833008 -78 -4.5s-53 -16.333 -81 -33c-30 -18 -54.667 -40.167 -74 -66.5s-29.333 -56.166 -30 -89.499
c0 -46 17.333 -69 52 -69c29.333 0 51.333 15.667 66 47c11.333 26 17 53.667 17 83c0 6.66699 -1.33301 16.667 -4 30s-4 23.333 -4 30c0 1.33301 0.333008 2.33301 1 3v3l8 2l8 -2c3.33301 -10 5.5 -20.167 6.5 -30.5s1.5 -21.5 1.5 -33.5
c0 -39.333 -7.33301 -71.666 -22 -96.999c-18 -33.333 -47 -50 -87 -50c-10 0 -19 2.33301 -27 7s-14.667 12 -20 22c-4.66699 8 -8.33398 16.333 -11.001 25s-3.66699 18 -3 28c1.33301 40.667 13.5 76.167 36.5 106.5s51.833 55.5 86.5 75.5
c32 18.667 66.5 32.667 103.5 42s72.167 13.666 105.5 12.999c19.333 0 41.333 -2.83301 66 -8.5s50 -12.5 76 -20.5c29.333 -8.66699 56.5 -17.167 81.5 -25.5s50.167 -14.166 75.5 -17.499c21.333 -2.66699 39 -2.66699 53 0s25.5 7.5 34.5 14.5s16.167 15.667 21.5 26
s10.333 21.833 15 34.5c2.66699 2.66699 5 4 7 4s3 -1 3 -3c0 -0.666992 -0.166992 -1.16699 -0.5 -1.5s-0.5 -0.833008 -0.5 -1.5c-3.33301 -14 -8 -28.167 -14 -42.5s-14.333 -27.333 -25 -39s-23.5 -21.334 -38.5 -29.001s-32.833 -12.167 -53.5 -13.5
c-32.667 -2 -64.5 1.66699 -95.5 11s-63.5 19.666 -97.5 30.999z" />
    <glyph glyph-name="afii10051" unicode="&#x414;" horiz-adv-x="954" 
d="M783 654c-18 -14.667 -33.665 -33.6641 -46.998 -56.9971s-25.5 -49.166 -36.5 -77.499s-21.833 -58.666 -32.5 -90.999s-21.834 -64.5 -33.501 -96.5s-24.834 -63.333 -39.501 -94s-31.834 -58.834 -51.501 -84.501s-42.5 -47.834 -68.5 -66.501
s-56.333 -32.334 -91 -41.001c16 -6 30.5 -12.833 43.5 -20.5l38.5 -22c12.667 -7 25.5 -13.5 38.5 -19.5s27.167 -10.333 42.5 -13c29.333 -5.33301 55.333 -6 78 -2c30.667 5.33301 57.667 17.333 81 36s44 41.167 62 67.5s33.667 55.166 47 86.499
s25.333 62.666 36 93.999c16.667 48.667 27.334 94 32.001 136s4 80 -2 114s-17.333 63.833 -34 89.5s-37.667 46.167 -63 61.5zM772.002 676.003l31.9971 20.9951c10.667 6.66699 21.667 12 33 16c3.33301 1.33301 6 1 8 -1s3.33301 -4.66699 4 -8
c-8.66699 -1.33301 -17.667 -5.16602 -27 -11.499s-18.666 -14.166 -27.999 -23.499c34 -17.333 62.5 -39.833 85.5 -67.5s40 -59.167 51 -94.5s16.167 -73.666 15.5 -114.999s-7.66699 -84 -21 -128c-12.667 -42 -28 -80.667 -46 -116s-39 -66.5 -63 -93.5
s-51.333 -49.333 -82 -67s-65.334 -29.834 -104.001 -36.501c-40.667 -7.33301 -84.5 -9.33301 -131.5 -6s-94.833 13.333 -143.5 30c-15.333 5.33301 -30.333 11.333 -45 18l-42 18.5c-13.333 5.66699 -26.5 10.5 -39.5 14.5s-25.833 6 -38.5 6
c-12 0 -22.667 -3.33301 -32 -10s-14.333 -16 -15 -28c-0.666992 -16.667 4 -29.667 14 -39s22.333 -16.166 37 -20.499s30.334 -7 47.001 -8s31.334 -1.5 44.001 -1.5c2 0 2.33301 -0.833008 1 -2.5s-3.5 -3.66699 -6.5 -6s-6.33301 -4.33301 -10 -6s-6.5 -2.5 -8.5 -2.5
c-19.333 -0.666992 -37.333 0.833008 -54 4.5s-31.334 9.33398 -44.001 17.001s-22.5 16.834 -29.5 27.501s-10.5 23 -10.5 37s5 25.833 15 35.5s22.333 17.5 37 23.5s29.834 10.167 45.501 12.5s29.167 3.5 40.5 3.5c16.667 0 34 -1.83301 52 -5.5s34.667 -8.5 50 -14.5
c39.333 18 71.666 42.5 96.999 73.5s46.833 65.167 64.5 102.5s33.167 76.666 46.5 117.999s28 81.666 44 120.999s35 76.5 57 111.5s50.333 64.5 85 88.5c-31.333 13.333 -65.833 21.666 -103.5 24.999s-75.5 2 -113.5 -4s-75 -16.667 -111 -32s-68 -34.833 -96 -58.5
s-50.333 -51.5 -67 -83.5s-25 -67.667 -25 -107c0 -14 2.66699 -27.333 8 -40s12.833 -23.5 22.5 -32.5s20.834 -16.167 33.501 -21.5s26.334 -8 41.001 -8c66.667 0 120.667 40 162 120c34.667 66.667 52 136.667 52 210c0 45.333 -12.5 82.5 -37.5 111.5
s-62.167 43.5 -111.5 43.5c-51.333 0 -95 -19.333 -131 -58c-31.333 -34.667 -53 -78.334 -65 -131.001l-7 -6c-5.33301 0 -8 2 -8 6c0 48.667 22.333 94.334 67 137.001c22.667 21.333 45.667 37.833 69 49.5s47 16.834 71 15.501c60 -3.33301 103 -19.166 129 -47.499
s39 -72.166 39 -131.499c0 -76 -19.333 -147.333 -58 -214c-44.667 -78.667 -102.667 -118 -174 -118c-35.333 0 -63.666 12.667 -84.999 38c-10.667 11.333 -18.334 24.5 -23.001 39.5s-7.33398 31.5 -8.00098 49.5c-0.666992 42.667 8 80.667 26 114
s42.167 61.833 72.5 85.5s64.833 42.667 103.5 57s78.334 23.833 119.001 28.5s80.5 5 119.5 1s73.833 -12.667 104.5 -26z" />
    <glyph glyph-name="afii10022" unicode="&#x415;" horiz-adv-x="583" 
d="M272 407c-16 18 -26.5029 36.334 -31.5029 55.001s-5.83301 37.167 -2.5 55.5s9.83301 36 19.5 53s21.167 32.5 34.5 46.5c14.667 15.333 31.334 29 50.001 41s38.334 21.667 59.001 29s41.5 11.833 62.5 13.5s41.167 -0.166016 60.5 -5.49902
c35.333 -8.66699 56.666 -32.667 63.999 -72c2.66699 -17.333 2.83398 -34.833 0.500977 -52.5s-7.5 -34.334 -15.5 -50.001s-18.667 -29.5 -32 -41.5s-30 -20.667 -50 -26c-21.333 -6 -39.5 -6.83301 -54.5 -2.5s-26.667 11.5 -35 21.5s-13.5 21.833 -15.5 35.5
s-1.16699 27 2.5 40s10.334 24.5 20.001 34.5s22.167 16.667 37.5 20c24.667 5.33301 38 3.33301 40 -6c0 -2 0.666992 -4.5 2 -7.5s1.33301 -4.83301 0 -5.5c-2.66699 0 -6.66699 1 -12 3s-12.666 2 -21.999 0c-13.333 -3.33301 -24 -9 -32 -17
s-13.833 -17.167 -17.5 -27.5s-4.83398 -20.833 -3.50098 -31.5s5 -19.834 11 -27.501s14.5 -13.5 25.5 -17.5s24.167 -4.33301 39.5 -1c21.333 4.66699 38.833 12.834 52.5 24.501s24.167 25 31.5 40s11.833 31.167 13.5 48.5s1.5 34 -0.5 50
c-3.33301 20 -14.666 34.833 -33.999 44.5s-44 11.167 -74 4.5c-24 -6.66699 -47.833 -20.334 -71.5 -41.001s-43.667 -44 -60 -70s-27.5 -52.667 -33.5 -80s-3.33301 -51.333 8 -72h10c4 0 8.66699 0.333008 14 1h25c60.667 0 91 -12.667 91 -38c0 -20 -13.333 -30 -40 -30
c-40 0 -79.333 15 -118 45c-46.667 -2 -88 -33 -124 -93c-32 -53.333 -48 -104.666 -48 -153.999c0 -34.667 6 -62.667 18 -84s34 -36.666 66 -45.999c5.33301 -1.33301 11 -2.83301 17 -4.5s12 -3.16699 18 -4.5c-6.66699 25.333 -8.33398 52.333 -5.00098 81
s10.333 57 21 85c7.33301 19.333 17.166 38.166 29.499 56.499s26.5 34.333 42.5 48s33.333 24.5 52 32.5s38.334 11.333 59.001 10c30 -1.33301 53.833 -12 71.5 -32s26.5 -44.333 26.5 -73s-7.33301 -56.5 -22 -83.5s-33.667 -51 -57 -72s-50 -37.833 -80 -50.5
s-60 -19 -90 -19h-25c8.66699 -20.667 22.167 -37.667 40.5 -51s43.5 -20 75.5 -20c21.333 0 41 4 59 12s34 18.833 48 32.5s25.667 29.5 35 47.5s16 37.333 20 58l7 5c4 0 6 -1.66699 6 -5c0 -20 -4.83301 -40 -14.5 -60s-22.5 -38 -38.5 -54s-34.333 -29 -55 -39
s-41.667 -15 -63 -15c-38.667 0 -69 8.5 -91 25.5s-37.667 38.5 -47 64.5c-16 1.33301 -31.333 3.33301 -46 6c-45.333 8.66699 -81 30 -107 64s-39 74 -39 120c0 68 20.667 120.667 62 158c32.667 29.333 85.667 52.666 159 69.999zM272.997 172.001
c-10 -25.333 -17.001 -53.5 -21.001 -84.5s-2.33301 -59.5 5 -85.5c5.33301 -0.666992 10.166 -1.16699 14.499 -1.5s9.16602 -0.166016 14.499 0.500977c22.667 -0.666992 47.667 4.66602 75 15.999s52.5 26.833 75.5 46.5s42.333 42.834 58 69.501s23.5 55.667 23.5 87
c0 23.333 -8.16699 42.666 -24.5 57.999s-37.166 23 -62.499 23c-35.333 0 -66.666 -12 -93.999 -36s-48.666 -55 -63.999 -93zM310.996 398.001c0.666992 -9.33301 14.667 -18.667 42 -28c25.333 -7.33301 44.333 -11 57 -11c15.333 0 23 5.33301 23 16
c0 18 -30.333 27 -91 27c-11.333 0 -21.333 -1 -30 -3z" />
    <glyph glyph-name="afii10100" unicode="&#x416;" horiz-adv-x="1138" 
d="M675 0l104.992 321.995c-48 4 -86.833 -2.66699 -116.5 -20s-52.5 -43 -68.5 -77c-8.66699 -17.333 -16.667 -35.833 -24 -55.5l-22 -60.5l-46 -118c-16 -39.333 -36.333 -74.166 -61 -104.499s-55.334 -54.166 -92.001 -71.499s-82.334 -23.333 -137.001 -18
c-26.667 0.666992 -51 6.33398 -73 17.001s-40.667 25.5 -56 44.5s-26.666 42 -33.999 69s-10 57.167 -8 90.5c2.66699 42.667 11.167 84.5 25.5 125.5s33 77.333 56 109s49.167 57 78.5 76s60.666 27.833 93.999 26.5c25.333 -1.33301 47.333 -9 66 -23
s31.667 -31.667 39 -53c6 -22 8 -46.333 6 -73s-7.16699 -53.667 -15.5 -81s-19.333 -53.666 -33 -78.999s-28.834 -47.666 -45.501 -66.999s-34.667 -34.666 -54 -45.999s-38.666 -16.333 -57.999 -15c-11.333 0.666992 -21.5 3.66699 -30.5 9s-16.667 12.166 -23 20.499
s-11.166 18 -14.499 29s-4.33301 22.5 -3 34.5c0.666992 8 2 16.833 4 26.5s4.5 18.834 7.5 27.501s6 15.834 9 21.501s5.83301 8.5 8.5 8.5c5.33301 0 8 -3 8 -9c0 -4 -1 -9.5 -3 -16.5s-4.16699 -14.167 -6.5 -21.5s-4.5 -14.5 -6.5 -21.5s-3 -12.167 -3 -15.5
c-1.33301 -18 3.33398 -34.333 14.001 -49s25 -23.667 43 -27c12.667 -2 26.667 1.5 42 10.5s30.666 22 45.999 39s29.666 37 42.999 60s24.5 47.333 33.5 73s15 51.834 18 78.501s1.5 51.667 -4.5 75c-5.33301 19.333 -15.666 35.166 -30.999 47.499
s-33.666 19.166 -54.999 20.499c-30 1.33301 -59 -7 -87 -25s-52.833 -42 -74.5 -72s-39.167 -64.167 -52.5 -102.5s-21 -77.166 -23 -116.499c-1.33301 -26.667 1.33398 -52.5 8.00098 -77.5s16.5 -47.167 29.5 -66.5s29 -35 48 -47s40.167 -18.333 63.5 -19
c42 -4.66699 76.833 1 104.5 17s50.834 38.333 69.501 67s34.5 61.167 47.5 97.5l39.5 108.5l24.5 65.5c7.66699 21 17.167 40.167 28.5 57.5c19.333 31.333 44.833 56.166 76.5 74.499s67.834 30.166 108.501 35.499c-5.33301 1.33301 -10.166 2.66602 -14.499 3.99902
s-8.16602 2.66602 -11.499 3.99902c-26 8 -44.167 19.333 -54.5 34s-15.5 32.167 -15.5 52.5s3.5 42.833 10.5 67.5s15.167 50.667 24.5 78c7.33301 20 10.333 37 9 51s-7.66602 23.333 -18.999 28c-17.333 6 -35 8.66699 -53 8s-35.833 -4 -53.5 -10
s-34.167 -14.167 -49.5 -24.5s-28.333 -22.5 -39 -36.5c-32.667 -40.667 -51 -86 -55 -136c-2 -19.333 1.66699 -37.666 11 -54.999c12 -19.333 27 -29.333 45 -30c18 0 34 4 48 12s26.333 20.667 37 38c8.66699 13.333 15.334 28.333 20.001 45s7.66699 34.667 9 54
c0.666992 6.66699 0.333984 16.167 -0.999023 28.5s-1.66602 21.5 -0.999023 27.5s3.66699 9 9 9c8.66699 0 11.667 -20.333 9 -61c-2 -19.333 -5.33301 -38 -10 -56s-11.334 -35 -20.001 -51c-22.667 -40 -52.334 -59.333 -89.001 -58c-60 0.666992 -88 33.667 -84 99
c2 28 8.5 54.333 19.5 79s26.167 48 45.5 70s42.166 38.833 68.499 50.5s53.166 18.5 80.499 20.5c24.667 2 48.667 -0.666992 72 -8c22.667 -9.33301 37.834 -21.666 45.501 -36.999s11 -32.5 10 -51.5s-4.5 -39 -10.5 -60s-11.167 -41.167 -15.5 -60.5
s-6.16602 -37.333 -5.49902 -54s7.33398 -30.334 20.001 -41.001c8 -7.33301 18.167 -12.833 30.5 -16.5s30.833 -6.5 55.5 -8.5l102 308l69 15l-107 -326c18 0 38.333 1.16699 61 3.5s41.667 7.83301 57 16.5c17.333 10 30.666 23.333 39.999 40s17 35.167 23 55.5
s11.333 41.5 16 63.5s11.334 42.833 20.001 62.5s20.334 37.334 35.001 53.001s35 27.5 61 35.5c14 4 27.833 5.83301 41.5 5.5s25.834 -3 36.501 -8s18.834 -12.5 24.501 -22.5s7.83398 -23 6.50098 -39c-1.33301 -9.33301 -3.83301 -23.166 -7.5 -41.499
s-13.5 -39.166 -29.5 -62.499c-5.33301 -6.66699 -10.833 -10.5 -16.5 -11.5s-5.83398 3.16699 -0.500977 12.5c10 19.333 18.833 37.833 26.5 55.5s12.5 34.167 14.5 49.5c1.33301 12.667 -0.833984 22.667 -6.50098 30s-12.834 12.833 -21.501 16.5
s-18.167 5.33398 -28.5 5.00098s-19.5 -2.16602 -27.5 -5.49902c-14.667 -4 -26 -12.833 -34 -26.5s-13.333 -30.167 -16 -49.5l-11.5 -77c-3.66699 -24 -10.167 -46.333 -19.5 -67s-23 -39.167 -41 -55.5s-43.333 -30.5 -76 -42.5
c-3.33301 -1.33301 -7.33301 -2.33301 -12 -3s-10 -1.66699 -16 -3c24 -7.33301 43.167 -20.333 57.5 -39s20.5 -41.667 18.5 -69c-2 -13.333 -5 -27.333 -9 -42s-8.33301 -29.5 -13 -44.5s-9.5 -29.667 -14.5 -44s-9.5 -27.833 -13.5 -40.5c-4 -22.667 0.666992 -35 14 -37
c9.33301 -1.33301 20.666 3.16699 33.999 13.5s26 26.166 38 47.499l19 37.5c6 12.333 11.667 25.166 17 38.499l8 4l5 -9c0 -13.333 -3.33301 -26 -10 -38s-16 -26.667 -28 -44c-15.333 -24 -31.166 -41 -47.499 -51s-31.833 -15.667 -46.5 -17c-12 0 -23 2 -33 6
c-12 7.33301 -20 18.833 -24 34.5s-5 33 -3 52s5.83301 38.667 11.5 59s11.834 39.166 18.501 56.499c7.33301 19.333 11.166 36 11.499 50s-1.83398 25.5 -6.50098 34.5s-11.5 16.167 -20.5 21.5s-19.5 9 -31.5 11c-9.33301 1.33301 -19 2.16602 -29 2.49902
s-19.333 -0.166992 -28 -1.5l-104 -320h-65z" />
    <glyph glyph-name="afii10025" unicode="&#x417;" horiz-adv-x="662" 
d="M710 633c-11.333 -4.66699 -24.8379 -14.499 -40.5049 -29.499s-32.667 -32.167 -51 -51.5l-58.5 -61.5c-20.667 -21.667 -41.334 -41.5 -62.001 -59.5c18 -6.66699 35 -16 51 -28s29.833 -25.667 41.5 -41s20.834 -32.333 27.501 -51s10 -38 10 -58
c-0.666992 -26 -5.16699 -51.667 -13.5 -77s-20.5 -49 -36.5 -71s-35.5 -41.833 -58.5 -59.5s-49.167 -32.167 -78.5 -43.5c-21.333 -8 -46.5 -14.5 -75.5 -19.5s-58.667 -7.33301 -89 -7s-59.666 3.66602 -87.999 9.99902s-52.5 17.166 -72.5 32.499
c-21.333 16 -38.166 36.333 -50.499 61s-18.166 52 -17.499 82c-0.666992 28 5 53 17 75s27.833 40.667 47.5 56s42 27 67 35s50.167 12 75.5 12c20 -0.666992 40.833 -2.66699 62.5 -6s41.667 -9.33301 60 -18s33.5 -20.834 45.5 -36.501s18 -35.834 18 -60.501
c0 -21.333 -3.66699 -40.333 -11 -57s-20.666 -30.667 -39.999 -42c-15.333 -10.667 -35.666 -18.5 -60.999 -23.5s-50.666 -6.16699 -75.999 -3.5s-47.833 9.83398 -67.5 21.501s-31.167 28.834 -34.5 51.501l7 7c2.66699 -0.666992 5.33398 -3 8.00098 -7
c5.33301 -18.667 16.5 -32.667 33.5 -42s35.833 -15 56.5 -17s41.667 -1 63 3s39 10.333 53 19c35.333 22.667 52.666 53 51.999 91c0.666992 68.667 -56 103.667 -170 105c-23.333 0 -46.333 -3.5 -69 -10.5s-43.167 -17.5 -61.5 -31.5s-33 -31.167 -44 -51.5
s-16.167 -43.5 -15.5 -69.5c0 -30 6.16699 -56.333 18.5 -79s29.166 -41.334 50.499 -56.001c19.333 -13.333 41.666 -22.666 66.999 -27.999s51.166 -7.66602 77.499 -6.99902s51.833 4.5 76.5 11.5s46.334 16.5 65.001 28.5s35.5 26 50.5 42s28.333 33.167 40 51.5
s21.167 37.833 28.5 58.5s12.666 41.334 15.999 62.001c2.66699 17.333 3.5 34.833 2.5 52.5s-4.5 34.167 -10.5 49.5s-14.333 29 -25 41s-24 21.333 -40 28c-18 -15.333 -35.667 -27.666 -53 -36.999s-33.666 -14.666 -48.999 -15.999
c-14.667 -1.33301 -24.5 1.5 -29.5 8.5s-6.83301 15 -5.5 24s5.33301 17.5 12 25.5s14.334 12.667 23.001 14c33.333 10 66.666 10.667 99.999 2c18.667 16 37.334 33.167 56.001 51.5l52 53l42.5 45.5c12.333 13.333 21.5 22.666 27.5 27.999
c-28 -15.333 -52.667 -24.5 -74 -27.5s-41.5 -2.33301 -60.5 2s-38.167 10.833 -57.5 19.5s-40.333 16.667 -63 24c-19.333 6.66699 -39.5 11.5 -60.5 14.5s-41.667 3.5 -62 1.5s-39.5 -7.33301 -57.5 -16s-34 -21.334 -48 -38.001
c-27.333 -28.667 -41.666 -61.667 -42.999 -99c0 -18 5 -31.333 15 -40s21.833 -13.334 35.5 -14.001s27.5 2.16602 41.5 8.49902s25 15.5 33 27.5c14 20.667 21 44.334 21 71.001c0 5.33301 -0.833008 12.333 -2.5 21s-2.5 15 -2.5 19c0 4.66699 2.66699 7.66699 8 9
c3.33301 0 6.5 -3.66699 9.5 -11s4.16699 -18.333 3.5 -33c0 -14 -2 -28 -6 -42s-9 -26.667 -15 -38c-10.667 -18 -24.834 -30.833 -42.501 -38.5s-35 -10.667 -52 -9s-31.5 8.16699 -43.5 19.5s-18 27.333 -18 48c0.666992 20.667 4.66699 41 12 61
s18.666 37.667 33.999 53c14.667 17.333 32.5 31.833 53.5 43.5s43.5 20.667 67.5 27s48.167 10.333 72.5 12s46.833 1.5 67.5 -0.5c18.667 -2.66699 35 -6.5 49 -11.5s27 -10.333 39 -16l34.5 -16.5c11 -5.33301 23.167 -9.5 36.5 -12.5s28.166 -4.16699 44.499 -3.5
s35.833 4 58.5 10c4 3.33301 9 5.83301 15 7.5s12.667 4.16699 20 7.5c6 -0.666992 8.33301 -2.66699 7 -6c0.666992 -1.33301 -1.16602 -3.5 -5.49902 -6.5s-8.16602 -6.16699 -11.499 -9.5zM381.995 380.001c11.333 2 23.8311 6.66797 37.498 14.001
s27.5 16.666 41.5 27.999c-11.333 2.66699 -23.333 4.16699 -36 4.5s-26.667 -1.16699 -42 -4.5c-14 -5.33301 -21.667 -11.833 -23 -19.5s-0.666016 -13.5 2.00098 -17.5c2.66699 -5.33301 9.33398 -7 20.001 -5z" />
    <glyph glyph-name="afii10105" unicode="&#x418;" horiz-adv-x="914" 
d="M145 525c12 15.333 25 29.1699 39 41.5029s28.667 24.166 44 35.499c34.667 24 72.167 44.667 112.5 62s85.5 26.666 135.5 27.999c27.333 0 51 -4.33301 71 -13s40 -16.667 60 -24s41.833 -11.666 65.5 -12.999s52.5 5.66699 86.5 21
c7.33301 1.33301 11.833 0.333008 13.5 -3s-0.166016 -7.33301 -5.49902 -12c-38.667 -21.333 -73.167 -53.5 -103.5 -96.5s-56.5 -90.167 -78.5 -141.5l-39.5 -90.5c-13 -30.333 -25 -60.833 -36 -91.5s-20.333 -60.834 -28 -90.501s-12.5 -58.834 -14.5 -87.501
c-1.33301 -10 -0.833008 -18 1.5 -24s6.83301 -8.33301 13.5 -7c10.667 2 24.834 8.5 42.501 19.5s37.167 26.667 58.5 47s44 45.333 68 75s47.667 64.167 71 103.5c33.333 56 64.833 113.833 94.5 173.5s55.834 114.5 78.501 164.5l74 8l-34 -75.5l-37 -79.5l-37 -79.5
l-34 -75.5c-34 -76.667 -59.5 -138.667 -76.5 -186s-25.5 -77.333 -25.5 -90c0 -12 4 -18 12 -18c24 0 48.333 22.333 73 67l48 99l4 2l8 -6c-1.33301 -23.333 -18.333 -58.333 -51 -105c-34.667 -48.667 -63 -73 -85 -73c-16.667 0 -29.667 10.667 -39 32
c-7.33301 16.667 -11 34.334 -11 53.001c0 17.333 3 39.5 9 66.5s14.333 55.5 25 85.5c-6 -12.667 -17.333 -30.334 -34 -53.001s-36 -45.834 -58 -69.501s-45.167 -45.667 -69.5 -66s-46.833 -34.166 -67.5 -41.499c-5.33301 -2 -11 -3.83301 -17 -5.5
s-11.333 -2.83398 -16 -3.50098c-12 -1.33301 -22.333 0.166992 -31 4.5s-15.834 10.166 -21.501 17.499s-10 15.333 -13 24s-4.5 17 -4.5 25c0 20 3.5 43.667 10.5 71s16.833 56.5 29.5 87.5s27.667 63.333 45 97s36 66.5 56 98.5c28 44 57.5 85.167 88.5 123.5
s61.833 69.166 92.5 92.499c-23.333 -10 -44.5 -17.333 -63.5 -22s-36.667 -7.5 -53 -8.5s-31.333 -0.166992 -45 2.5s-26.834 6.66699 -39.501 12c-28.667 10.667 -54.667 17.834 -78 21.501s-45.5 4.5 -66.5 2.5s-41.167 -7 -60.5 -15s-39 -18.333 -59 -31
c-34 -23.333 -63.333 -51 -88 -83c-51.333 -73.333 -77 -147.666 -77 -222.999c0 -30.667 6.33301 -56.334 19 -77.001c16 -25.333 38.333 -38 67 -38c60 0 113 37.667 159 113c40.667 66.667 61 132.334 61 197.001c0 14.667 -4 28.334 -12 41.001s-19 19 -33 19
c-72.667 0 -128.334 -72 -167.001 -216c-2.66699 -8.66699 -5.66699 -13 -9 -13l-7 5c0.666992 48.667 19 99.334 55 152.001c40 57.333 83.333 86 130 86c18.667 0 33.667 -7.66699 45 -23c9.33301 -14.667 14 -31.334 14 -50.001c0 -67.333 -21.333 -136.333 -64 -207
c-49.333 -80 -105 -120 -167 -120c-36 0 -63.333 13 -82 39c-16.667 22.667 -25 52.667 -25 90c0 82.667 27.667 161.667 83 237v5z" />
    <glyph glyph-name="afii10027" unicode="&#x419;" horiz-adv-x="918" 
d="M994 760c-2 -13.333 -9.17188 -27.1641 -21.5049 -41.4971s-27.166 -24.833 -44.499 -31.5c-8 -3.33301 -17.333 -5.5 -28 -6.5s-21.167 -1.16699 -31.5 -0.5s-20.166 2.16699 -29.499 4.5s-17 5.5 -23 9.5c-11.333 8 -18.833 19.167 -22.5 33.5
s-2.16699 28.166 4.5 41.499c3.33301 6.66699 7.16602 11.5 11.499 14.5s8.83301 5.16699 13.5 6.5s8.83398 2 12.501 2h8.5c6.66699 -0.666992 11.5 -5.66699 14.5 -15s1.16699 -18.666 -5.5 -27.999c-5.33301 -8.66699 -9.66602 -17.667 -12.999 -27
c-1.33301 -10 2 -17.333 10 -22s17.5 -6.83398 28.5 -6.50098s21.5 2.83301 31.5 7.5s16 11 18 19c0.666992 3.33301 0.833984 7 0.500977 11s-0.5 8.33301 -0.5 13c-0.666992 4.66699 0.333008 9.66699 3 15s5.83398 10.166 9.50098 14.499s7.5 7.66602 11.5 9.99902
s7.33301 3.16602 10 2.49902c2 0.666992 5 0.833984 9 0.500977s7.66699 -1.5 11 -3.5s6.33301 -4.83301 9 -8.5s3.66699 -8.5 3 -14.5zM148.995 525.002c12 15.333 25 29.1699 39 41.5029s28.667 24.166 44 35.499c34.667 24 72.167 44.667 112.5 62
s85.5 26.666 135.5 27.999c27.333 0 51 -4.33301 71 -13s40 -16.667 60 -24s41.833 -11.666 65.5 -12.999s52.5 5.66699 86.5 21c7.33301 1.33301 11.833 0.333008 13.5 -3s-0.166016 -7.33301 -5.49902 -12c-38.667 -21.333 -73.167 -53.5 -103.5 -96.5
s-56.5 -90.167 -78.5 -141.5l-39.5 -90.5c-13 -30.333 -25 -60.833 -36 -91.5s-20.333 -60.834 -28 -90.501s-12.5 -58.834 -14.5 -87.501c-1.33301 -10 -0.833008 -18 1.5 -24s6.83301 -8.33301 13.5 -7c10.667 2 24.834 8.5 42.501 19.5s37.167 26.667 58.5 47
s44 45.333 68 75s47.667 64.167 71 103.5c33.333 56 64.833 113.833 94.5 173.5s55.834 114.5 78.501 164.5l74 8l-34 -75.5l-37 -79.5l-37 -79.5l-34 -75.5c-34 -76.667 -59.5 -138.667 -76.5 -186s-25.5 -77.333 -25.5 -90c0 -12 4 -18 12 -18c24 0 48.333 22.333 73 67
l48 99l4 2l8 -6c-1.33301 -23.333 -18.333 -58.333 -51 -105c-34.667 -48.667 -63 -73 -85 -73c-16.667 0 -29.667 10.667 -39 32c-7.33301 16.667 -11 34.334 -11 53.001c0 17.333 3 39.5 9 66.5s14.333 55.5 25 85.5c-6 -12.667 -17.333 -30.334 -34 -53.001
s-36 -45.834 -58 -69.501s-45.167 -45.667 -69.5 -66s-46.833 -34.166 -67.5 -41.499c-5.33301 -2 -11 -3.83301 -17 -5.5s-11.333 -2.83398 -16 -3.50098c-12 -1.33301 -22.333 0.166992 -31 4.5s-15.834 10.166 -21.501 17.499s-10 15.333 -13 24s-4.5 17 -4.5 25
c0 20 3.5 43.667 10.5 71s16.833 56.5 29.5 87.5s27.667 63.333 45 97s36 66.5 56 98.5c28 44 57.5 85.167 88.5 123.5s61.833 69.166 92.5 92.499c-23.333 -10 -44.5 -17.333 -63.5 -22s-36.667 -7.5 -53 -8.5s-31.333 -0.166992 -45 2.5s-26.834 6.66699 -39.501 12
c-28.667 10.667 -54.667 17.834 -78 21.501s-45.5 4.5 -66.5 2.5s-41.167 -7 -60.5 -15s-39 -18.333 -59 -31c-34 -23.333 -63.333 -51 -88 -83c-51.333 -73.333 -77 -147.666 -77 -222.999c0 -30.667 6.33301 -56.334 19 -77.001c16 -25.333 38.333 -38 67 -38
c60 0 113 37.667 159 113c40.667 66.667 61 132.334 61 197.001c0 14.667 -4 28.334 -12 41.001s-19 19 -33 19c-72.667 0 -128.334 -72 -167.001 -216c-2.66699 -8.66699 -5.66699 -13 -9 -13l-7 5c0.666992 48.667 19 99.334 55 152.001c40 57.333 83.333 86 130 86
c18.667 0 33.667 -7.66699 45 -23c9.33301 -14.667 14 -31.334 14 -50.001c0 -67.333 -21.333 -136.333 -64 -207c-49.333 -80 -105 -120 -167 -120c-36 0 -63.333 13 -82 39c-16.667 22.667 -25 52.667 -25 90c0 82.667 27.667 161.667 83 237v5z" />
    <glyph glyph-name="section" unicode="&#x41a;" horiz-adv-x="997" 
d="M238 463c0 35.333 9.32715 66.3271 27.9941 92.9941s41.667 48.834 69 66.501s56.833 31.334 88.5 41.001s61.167 15.167 88.5 16.5c22 0.666992 42.5 -1.33301 61.5 -6s37.333 -10.5 55 -17.5l52 -20.5c17 -6.66699 34.333 -11.334 52 -14.001
s35.834 -2.16699 54.501 1.5s38.667 12.167 60 25.5l-2 -3c2 2 4.16699 3.83301 6.5 5.5l7.5 5.5c3.33301 1.33301 6 1.5 8 0.5s2.66699 -2.16699 2 -3.5c-34 -36.667 -62.167 -75.167 -84.5 -115.5s-39.833 -77.5 -52.5 -111.5c-8 -18 -15.5 -36.833 -22.5 -56.5
s-13.833 -39.834 -20.5 -60.501h42c34.667 1.33301 62 9.5 82 24.5s36.333 34 49 57s23.167 48.167 31.5 75.5s18 54.5 29 81.5s25 52.333 42 76s40.5 42.5 70.5 56.5c15.333 7.33301 30.833 11.5 46.5 12.5s30.167 -0.833008 43.5 -5.5
c19.333 -6.66699 33.666 -18 42.999 -34c9.33301 2.66699 18.833 4.33398 28.5 5.00098s19.167 0.666992 28.5 0h11l5 -7c0 -1.33301 -3.33301 -2.66602 -10 -3.99902s-14 -2.66602 -22 -3.99902s-15.333 -2.33301 -22 -3s-10.334 -1 -11.001 -1c12 -22 17 -45 15 -69
c-1.33301 -17.333 -4.83301 -34.166 -10.5 -50.499s-13 -31 -22 -44s-19.5 -23.333 -31.5 -31s-24.667 -11.167 -38 -10.5c-6.66699 0.666992 -13 2.83398 -19 6.50098s-11.167 8.33398 -15.5 14.001s-7.66602 12 -9.99902 19s-3.16602 14.167 -2.49902 21.5
c2.66699 30 12.667 57.333 30 82s45 47.667 83 69c-12 17.333 -27.667 28 -47 32c-11.333 2.66699 -23 2.83398 -35 0.500977s-23.167 -7.33301 -33.5 -15s-19.666 -18.167 -27.999 -31.5s-14.5 -29.333 -18.5 -48c-7.33301 -34 -15.5 -67.333 -24.5 -100
s-21.5 -62 -37.5 -88s-36.667 -47.5 -62 -64.5s-57.666 -26.5 -96.999 -28.5c37.333 -2 63.666 -11.5 78.999 -28.5s20 -43.5 14 -79.5c-5.33301 -26.667 -14.166 -52.334 -26.499 -77.001s-22.833 -49.334 -31.5 -74.001c-3.33301 -15.333 -2.66602 -26 2.00098 -32
s11.5 -8 20.5 -6s19.333 7.66699 31 17s22.834 21.666 33.501 36.999c7.33301 11.333 14.5 23 21.5 35s13.167 24.333 18.5 37l8 4l5 -9c-1.33301 -13.333 -5.66602 -25.833 -12.999 -37.5s-17.333 -25.834 -30 -42.501c-24 -32 -48 -51 -72 -57s-43.667 -3.33301 -59 8
c-12 8.66699 -18.833 20 -20.5 34s-0.333984 29.333 3.99902 46s10.5 34 18.5 52l24 53c18.667 41.333 22.5 70 11.5 86s-37.5 23.333 -79.5 22h-48l-21.5 -65.5l-21.5 -65.5c-16 -46.667 -34.167 -91.667 -54.5 -135s-44.5 -82 -72.5 -116s-61 -61.333 -99 -82
s-82.667 -31.667 -134 -33c-26.667 -0.666992 -50.334 3.33301 -71.001 12s-38 21.167 -52 37.5s-24.5 35.833 -31.5 58.5s-10.167 47.667 -9.5 75c0 70.667 23 142 69 214c51.333 82.667 110 123.667 176 123c32.667 -0.666992 59.167 -10.667 79.5 -30
s30.5 -45.333 30.5 -78c-1.33301 -55.333 -20.666 -119.333 -57.999 -192c-43.333 -84.667 -89.666 -126.334 -138.999 -125.001c-22 0 -39.833 8.33301 -53.5 25s-20.5 36 -20.5 58c0.666992 12 3.66699 32.667 9 62c8 33.333 14.667 49.666 20 48.999
c6.66699 0 10 -4 10 -12c0 -5.33301 -1.16699 -12.166 -3.5 -20.499l-8.5 -29.5c-3.33301 -10.667 -5.83301 -20.167 -7.5 -28.5s-2.83398 -15.5 -3.50098 -21.5c0 -17.333 5 -33 15 -47c10.667 -14.667 24.667 -22 42 -22c45.333 -1.33301 88 39.334 128 122.001
c35.333 72 53.333 133.667 54 185c0 26.667 -8.33301 48.667 -25 66s-38.334 26.333 -65.001 27c-62.667 0.666992 -118.667 -38.666 -168 -117.999c-44 -71.333 -66 -139.666 -66 -204.999c-1.33301 -48.667 10.334 -88 35.001 -118c13.333 -16.667 29 -29.334 47 -38.001
s38.667 -13 62 -13c41.333 -1.33301 76.333 7.33398 105 26.001s53.667 44 75 76s40 69 56 111l48 132c15.333 46.667 31.333 91.5 48 134.5s36.667 85.833 60 128.5c19.333 34 40.333 67.333 63 100s48 63 76 91c-27.333 -13.333 -52 -22 -74 -26
s-42.333 -5.16699 -61 -3.5s-36.334 5.33398 -53.001 11.001l-50.5 18c-17 6.33301 -34.833 12.166 -53.5 17.499s-39 8.33301 -61 9c-19.333 0 -40.5 -3.5 -63.5 -10.5s-44.667 -17.667 -65 -32s-37.333 -32.5 -51 -54.5s-20.167 -47.667 -19.5 -77
c0.666992 -27.333 8.33398 -47.833 23.001 -61.5s31.334 -20.5 50.001 -20.5c27.333 0 50 13.5 68 40.5s26.333 63.5 25 109.5c0 6.66699 -1.16699 16.167 -3.5 28.5s-3.5 21.5 -3.5 27.5s2.66699 9 8 9c9.33301 0 14.333 -20.333 15 -61
c0.666992 -23.333 -1.33301 -45.166 -6 -65.499s-11.5 -38 -20.5 -53s-20 -27 -33 -36s-27.5 -13.5 -43.5 -13.5c-30 0 -53.167 8 -69.5 24s-24.833 40.333 -25.5 73zM1175.99 568.994c2 27.333 -3.00098 50 -15.001 68c-12 -6 -24.333 -14.167 -37 -24.5
s-24 -21.666 -34 -33.999s-18.333 -25.5 -25 -39.5s-10 -28 -10 -42c0 -11.333 3.16699 -21.833 9.5 -31.5s14.833 -15.167 25.5 -16.5c10.667 -0.666992 20.834 2.66602 30.501 9.99902s18.5 16.833 26.5 28.5s14.5 24.667 19.5 39s8.16699 28.5 9.5 42.5z" />
    <glyph glyph-name="afii10029" unicode="&#x41b;" horiz-adv-x="891" 
d="M990 670c-12 -20 -25.502 -45.6621 -40.502 -76.9951l-49 -107l-57 -131.5l-63.5 -151.5c-21.333 -50 -44.666 -109.667 -69.999 -179c4 -8 7.66699 -12 11 -12c20 0 45.667 26 77 78c30.667 51.333 48 77.666 52 78.999l5 -6c0 -2 -2.5 -7.33301 -7.5 -16l-19 -31.5
l-25 -40l-26.5 -41.5c-22 -29.333 -44 -44 -66 -44c-12.667 0 -23.334 6.33301 -32.001 19s-13 27.667 -13 45c0 29.333 12.667 79 38 149l34.5 85.5l29.5 74c8.66699 22.333 16.5 41.5 23.5 57.5s12.5 28 16.5 36c8.66699 17.333 19.5 36.166 32.5 56.499
s26.833 40.166 41.5 59.499s29.834 37.666 45.501 54.999s30.834 31.666 45.501 42.999h17zM505.998 88.0049l51.4971 112.5c18.333 41.667 38.166 84.167 59.499 127.5s44.5 85.666 69.5 126.999s52.167 78 81.5 110s60.833 57.667 94.5 77s70.167 28.666 109.5 27.999
l-23 -26c-33.333 0 -64.833 -9.66699 -94.5 -29s-57.834 -44.666 -84.501 -75.999s-51.5 -66.833 -74.5 -106.5s-44.333 -80.167 -64 -121.5l-55 -120l-45.5 -102c-20 -42 -41.5 -80 -64.5 -114s-50.5 -61 -82.5 -81c-14 -8.66699 -29.833 -16.167 -47.5 -22.5
s-36 -10.833 -55 -13.5s-38.167 -2.83398 -57.5 -0.500977s-37.333 7.5 -54 15.5c-15.333 8 -29 17.833 -41 29.5s-21.167 24.334 -27.5 38.001s-9.16602 27.834 -8.49902 42.501s6.66699 29 18 43c15.333 20.667 35.5 30.834 60.5 30.501s50.5 -11.166 76.5 -32.499
c16.667 -12.667 30.167 -26.334 40.5 -41.001s14.833 -29 13.5 -43c-2 -4.66699 -5.33301 -4.66699 -10 0c-6 15.333 -13.333 28.666 -22 39.999s-17.667 21 -27 29c-23.333 19.333 -46.166 30 -68.499 32s-40.166 -5.33301 -53.499 -22
c-8 -10.667 -12.167 -21.667 -12.5 -33s2 -22.333 7 -33s12 -20.834 21 -30.501s19.167 -18.167 30.5 -25.5c20.667 -12.667 42.167 -20.167 64.5 -22.5s44.333 -1 66 4s42.334 13.167 62.001 24.5s36.834 24.333 51.501 39c18.667 18.667 35.667 40.334 51 65.001
s30 51.667 44 81zM333.995 605.005c34 24.667 71.8291 46.165 113.496 64.498s87.5 28.833 137.5 31.5c18 0 34.667 -1.83301 50 -5.5s29.833 -8 43.5 -13l40.5 -15c13.333 -5 27.666 -8.33301 42.999 -10s31.833 -1 49.5 2s37.834 9.83301 60.501 20.5l-24 -22
c-26.667 -14 -51 -24.667 -73 -32s-42.333 -12 -61 -14s-35.834 -2 -51.501 0s-30.5 5.66699 -44.5 11c-57.333 19.333 -106.833 26 -148.5 20s-81.834 -22.333 -120.501 -49c-17.333 -13.333 -33.666 -27.666 -48.999 -42.999s-29.666 -31.666 -42.999 -48.999
c-52.667 -81.333 -77.667 -162.333 -75 -243c1.33301 -34 9.33301 -61.333 24 -82c18.667 -27.333 43 -40.666 73 -39.999c32.667 0.666992 63 11.667 91 33s53.667 52.666 77 93.999c41.333 72.667 61 144 59 214c-0.666992 16 -5.5 30.833 -14.5 44.5
s-21.167 20.167 -36.5 19.5c-78.667 -2 -136 -81.333 -172 -238c-2.66699 -9.33301 -6 -14 -10 -14l-8 4c0 54 18 109.333 54 166c40.667 62.667 86.334 95 137.001 97c22 0 38.667 -8 50 -24c10 -14 15.667 -31.667 17 -53c1.33301 -36 -3.16699 -72.833 -13.5 -110.5
s-26.5 -75.834 -48.5 -114.501c-49.333 -88 -107.666 -133 -174.999 -135c-39.333 -1.33301 -69.666 11.667 -90.999 39c-18.667 24.667 -28.667 57.334 -30 98.001c-2.66699 87.333 24.333 175 81 263c12.667 16.667 26.334 32 41.001 46s30 27.333 46 40z" />
    <glyph glyph-name="afii10107" unicode="&#x41c;" horiz-adv-x="1020" 
d="M749 482l-30.0088 -53c-11.333 -20.667 -23 -43.167 -35 -67.5l-37 -76l-37 -77l-34.5 -71l-28.5 -58.5c-21.333 -42 -44 -79.667 -68 -113s-52 -59.666 -84 -78.999c-14 -8.66699 -30 -16.167 -48 -22.5s-36.5 -10.666 -55.5 -12.999s-38 -2.33301 -57 0
s-36.833 7.83301 -53.5 16.5c-15.333 8 -28.833 17.833 -40.5 29.5s-20.5 24.334 -26.5 38.001s-8.5 27.834 -7.5 42.501s7.16699 29 18.5 43c16 20 36.5 29.667 61.5 29s50.167 -11.667 75.5 -33c16.667 -12 29.834 -25.333 39.501 -40s13.834 -29 12.501 -43
c-2 -4.66699 -5.33301 -4.66699 -10 0c-5.33301 15.333 -12.166 28.666 -20.499 39.999s-17.166 20.666 -26.499 27.999c-22.667 19.333 -45.167 30.166 -67.5 32.499s-40.5 -4.5 -54.5 -20.5c-8 -10.667 -12.167 -21.5 -12.5 -32.5s1.66699 -22 6 -33
s10.833 -21.333 19.5 -31s18.667 -18.167 30 -25.5c20 -13.333 41.333 -21.333 64 -24s44.834 -1.5 66.501 3.5s42.334 13 62.001 24s37.167 23.833 52.5 38.5c19.333 18.667 36.833 40 52.5 64s31.167 50.667 46.5 80c15.333 28.667 31.333 61 48 97l52.5 110.5l57.5 114
c20 38.333 41 74.333 63 108s45.333 64 70 91s51 48.833 79 65.5c1.33301 0.666992 2.5 1 3.5 1s2.16699 0.333008 3.5 1l5 -2l-17 -34l-24 -47c-52 -106 -88 -227 -108 -363c101.333 160.667 220.333 307.334 357 440.001l5 -1c-20.667 -40 -43.167 -86.333 -67.5 -139
l-80.5 -180c-72.667 -166 -109 -266.333 -109 -301c0 -12.667 4 -19 12 -19c20.667 0 42.334 23.333 65.001 70c22.667 46 37.334 69.667 44.001 71l7 -4c-45.333 -106 -88.666 -159 -129.999 -159c-31.333 0 -47 24.667 -47 74c0 48 16 111 48 189
c3.33301 9.33301 11.833 29.166 25.5 59.499l57.5 123.5l-1 1c-92.667 -114.667 -187.334 -252.334 -284.001 -413.001c-2.66699 -4 -5.66699 -9 -9 -15s-7.66602 -13.333 -12.999 -22l-10 -4l-6 4c24.667 56 48 136.667 70 242c24.667 117.333 44.667 199 60 245z
M375.991 645c34 14 65.6621 21.1699 94.9951 21.5029s57.5 -2.33398 84.5 -8.00098s52.833 -12.667 77.5 -21s49 -14 73 -17s48 -1.33301 72 5s48.667 21.166 74 44.499l-3 -22c-38.667 -32 -74.167 -53.5 -106.5 -64.5s-62.666 -16 -90.999 -15s-55.5 5.5 -81.5 13.5
s-51.833 15.5 -77.5 22.5s-52.167 10.667 -79.5 11s-56.666 -6.5 -87.999 -20.5c-30 -14 -57.167 -34.667 -81.5 -62s-45.166 -57.5 -62.499 -90.5s-30.5 -66.667 -39.5 -101s-12.833 -65.166 -11.5 -92.499c0 -28 7.66699 -51.667 23 -71c16 -20 38.333 -30 67 -30
c59.333 2 116 47.667 170 137c49.333 80.667 73 153 71 217c-0.666992 28.667 -13 42.667 -37 42c-54 -2 -102.333 -37.667 -145 -107c-15.333 -24 -28.666 -50.667 -39.999 -80s-21.666 -61.666 -30.999 -96.999l-8 -5l-7 4c17.333 69.333 42.666 130.666 75.999 183.999
c44.667 73.333 94.334 111 149.001 113c38 0.666992 57.333 -17.333 58 -54c2 -70 -21.667 -146 -71 -228c-53.333 -90 -113.666 -136 -180.999 -138c-32.667 -0.666992 -59 9.33301 -79 30c-10 10 -17.333 21.5 -22 34.5s-7.33398 27.833 -8.00098 44.5
c-1.33301 40 4.16699 80.5 16.5 121.5s30 79.667 53 116s50.833 68.666 83.5 96.999s68.667 50.166 108 65.499z" />
    <glyph glyph-name="afii10031" unicode="&#x41d;" horiz-adv-x="1003" 
d="M1087 513c-41.333 -63.333 -90.3301 -113.677 -146.997 -151.01c-4.66699 -13.333 -8.83398 -25.833 -12.501 -37.5s-7.16699 -21.5 -10.5 -29.5c-28.667 -78 -49.834 -138.833 -63.501 -182.5s-20.167 -71.834 -19.5 -84.501c0 -12 4.33301 -18 13 -18
c6 0 14 4.33301 24 13s20.5 20.334 31.5 35.001s21.833 32 32.5 52s20 42 28 66l4 2l8 -5c2 -9.33301 -1.16699 -24 -9.5 -44s-19.5 -40 -33.5 -60s-29 -37.667 -45 -53s-30.333 -22.666 -43 -21.999c-22 0.666992 -36.833 9.66699 -44.5 27s-11.334 38 -11.001 62
s3.33301 48.5 9 73.5s11.5 45.833 17.5 62.5l10.5 32l12.5 37c1.33301 3.33301 2.66602 7 3.99902 11s2.66602 8.33301 3.99902 13c-10 -4.66699 -20.167 -8.66699 -30.5 -12l-32.5 -10c-6.66699 -15.333 -12.334 -31 -17.001 -47s-8.33398 -30.667 -11.001 -44h-7
c-1.33301 7.33301 -1.16602 18.666 0.500977 33.999s4.16699 32 7.5 50l-25.5 -6c-8.33301 -2 -17.166 -3.66699 -26.499 -5c-15.333 -42 -34.666 -82.667 -57.999 -122s-50.833 -73.833 -82.5 -103.5s-67.667 -53.167 -108 -70.5s-84.833 -25 -133.5 -23
c-23.333 1.33301 -45.666 6 -66.999 14s-42.666 19.667 -63.999 35c-9.33301 6.66699 -16.833 14.834 -22.5 24.501s-9.33398 19.834 -11.001 30.501s-1.33398 21.334 0.999023 32.001s7.16602 20.334 14.499 29.001c16 20.667 36.5 30.834 61.5 30.501
s50.167 -11.166 75.5 -32.499c16.667 -12.667 30 -26.334 40 -41.001s14.333 -29 13 -43c-2 -4.66699 -5.33301 -4.66699 -10 0c-6 15.333 -13.167 28.666 -21.5 39.999s-17.166 21 -26.499 29c-23.333 19.333 -46.166 30 -68.499 32s-40.166 -5.33301 -53.499 -22
c-11.333 -15.333 -14.666 -32.666 -9.99902 -51.999s15.334 -35.666 32.001 -48.999c20.667 -16 41.667 -27.333 63 -34s43 -9.33398 65 -8.00098c44 0.666992 81.5 9.5 112.5 26.5s57.5 39.167 79.5 66.5s40.667 58.666 56 93.999s29.666 71.333 42.999 108
c-15.333 -1.33301 -31.166 -2.16602 -47.499 -2.49902s-33.166 -0.166016 -50.499 0.500977v20c36 -3.33301 70.667 -3.33301 104 0c1.33301 3.33301 2.5 6.5 3.5 9.5s2.16699 6.16699 3.5 9.5l32 91.5c10.667 30.333 22.834 59.666 36.501 87.999s29 54.666 46 78.999
s37.167 45.833 60.5 64.5c-37.333 -12 -69.333 -17.5 -96 -16.5s-50.667 6.16699 -72 15.5c-28.667 10.667 -55 17.834 -79 21.501s-46.833 4.5 -68.5 2.5s-42.5 -7 -62.5 -15s-40 -18.333 -60 -31c-34 -23.333 -63.333 -51 -88 -83
c-51.333 -73.333 -77 -147.666 -77 -222.999c0 -30.667 6.33301 -56.334 19 -77.001c16 -25.333 38.333 -38 67 -38c60 0 113 37.667 159 113c40.667 66.667 61 132.334 61 197.001c0 14.667 -4 28.334 -12 41.001s-19 19 -33 19c-72.667 0 -128.334 -72 -167.001 -216
c-2.66699 -8.66699 -5.66699 -13 -9 -13l-7 5c0.666992 48.667 19 99.334 55 152.001c40 57.333 83.333 86 130 86c18.667 0 33.667 -7.66699 45 -23c9.33301 -14.667 14 -31.334 14 -50.001c0 -67.333 -21.333 -136.333 -64 -207c-49.333 -80 -105 -120 -167 -120
c-36 0 -63.333 13 -82 39c-16.667 22.667 -25 52.667 -25 90c0 82.667 27.667 161.667 83 237v5c12 15.333 25 29.166 39 41.499s28.667 24.166 44 35.499c34.667 24 73.167 44.667 115.5 62s88.5 26.666 138.5 27.999c27.333 0 51.166 -4.33301 71.499 -13
s40.666 -16.667 60.999 -24s42.5 -11.666 66.5 -12.999s53 5.66699 87 21l-3 -2h1l13 -4c-30.667 -12 -55.667 -30.5 -75 -55.5s-35.833 -53.833 -49.5 -86.5s-25.667 -67.667 -36 -105s-21.5 -75 -33.5 -113c-2.66699 -6.66699 -4.33398 -11.667 -5.00098 -15
c8.66699 1.33301 17 2.83301 25 4.5s16 3.83398 24 6.50098c6 27.333 13.333 50.333 22 69h62c-10 -5.33301 -19.167 -13.166 -27.5 -23.499s-15.833 -22.166 -22.5 -35.499c22 7.33301 42.667 15.333 62 24c12 31.333 26.667 65.333 44 102s36.666 71.667 57.999 105
s44.333 63 69 89s50.667 44 78 54c27.333 0 41 -12 41 -36c0 -15.333 -5.5 -35.166 -16.5 -59.499s-25.167 -50.166 -42.5 -77.499zM1104 669.989c-15.333 -7.33301 -30.167 -20.8301 -44.5 -40.4971s-28 -42.834 -41 -69.501s-25.333 -54.834 -37 -84.501
s-22.167 -57.834 -31.5 -84.501c48 34.667 88.667 77 122 127c17.333 26 31.333 50.5 42 73.5s16 41.167 16 54.5c0 16 -8.66699 24 -26 24z" />
    <glyph glyph-name="plusminus" unicode="&#x41e;" horiz-adv-x="710" 
d="M351 534c62.667 98.667 134.666 147.998 215.999 147.998c24.667 0 47.167 -4.83301 67.5 -14.5s37.833 -23.167 52.5 -40.5s25.834 -38.166 33.501 -62.499s11.5 -50.833 11.5 -79.5c0 -116.667 -38.333 -226.334 -115 -329.001
c-83.333 -111.333 -181.666 -167 -294.999 -167c-36 0 -68.667 5.66699 -98 17s-54.333 27.333 -75 48s-36.667 45.667 -48 75s-17 62 -17 98c0 40.667 9.16699 80.667 27.5 120s43.5 75 75.5 107c4.66699 4.66699 12.334 10.834 23.001 18.501s23.167 15.334 37.5 23.001
s30.166 15 47.499 22s35.666 12.167 54.999 15.5zM453.999 199.998c-29.333 -29.333 -58.0029 -43.9971 -86.0029 -43.9971c-33.333 0 -59 11.667 -77 35c-16.667 20.667 -25 48 -25 82c0 74 21 149 63 225c-33.333 -15.333 -63.666 -40 -90.999 -74
c-24 -29.333 -43.5 -62 -58.5 -98s-22.5 -72 -22.5 -108c0 -30.667 4 -59 12 -85s19.5 -48.5 34.5 -67.5s32.833 -33.833 53.5 -44.5s44 -16 70 -16c58 0 109.333 25.667 154 77s87.667 127.666 129 228.999c8 19.333 16.5 41.666 25.5 66.999s16.833 51 23.5 77
s11 51.667 13 77s-0.333008 47.666 -7 66.999s-18.167 34.833 -34.5 46.5s-39.833 17.167 -70.5 16.5l-2 1c-33.333 0 -65.833 -10.333 -97.5 -31s-61.5 -52.667 -89.5 -96c16 2 32.333 2.16699 49 0.5s33.334 -5.5 50.001 -11.5
c3.33301 -1.33301 2.33301 -3.16602 -3 -5.49902s-10.666 -3.5 -15.999 -3.5h-11c-3.33301 0 -6.33301 0.333008 -9 1l-8 2c-24 0 -47 -3.66699 -69 -11c-48 -85.333 -72 -165 -72 -239c0 -26 6.66699 -48.667 20 -68c15.333 -21.333 35.666 -32 60.999 -32
s52.333 14.333 81 43c31.333 32 54.166 65.5 68.499 100.5s21.5 66.5 21.5 94.5c0 14.667 -4.66699 27.667 -14 39s-21.333 17 -36 17c-18.667 0 -39.334 -10.667 -62.001 -32l-34 -32c-3.33301 -3.33301 -6.16602 -3.5 -8.49902 -0.5s-1.5 6.5 2.5 10.5
c36.667 44 72.334 66 107.001 66c18 0 32.5 -7.5 43.5 -22.5s16.5 -31.5 16.5 -49.5c0 -14.667 -1.33301 -29.834 -4 -45.501s-7.5 -32 -14.5 -49s-16.667 -34.667 -29 -53s-28.166 -36.833 -47.499 -55.5z" />
    <glyph glyph-name="dagger" unicode="&#x41f;" horiz-adv-x="932" 
d="M764 215l20.9961 60.0029c6.66699 20 17.334 45.667 32.001 77c8 18 17.167 35.5 27.5 52.5s21.833 32.667 34.5 47s26.667 26.666 42 36.999s32.333 18.166 51 23.499l1 -14c-24.667 -6 -45 -23.167 -61 -51.5s-30.667 -62.5 -44 -102.5l-5 -18
c-1.33301 -4.66699 -2.66602 -9 -3.99902 -13s-2.66602 -8.5 -3.99902 -13.5s-3.33301 -11.5 -6 -19.5l-54 -175.5c-12.667 -41.667 -18.667 -68.834 -18 -81.501c0.666992 -11.333 5 -17 13 -17c22.667 0.666992 45.667 24.667 69 72l46 100l2 2l8 -6
c0 -11.333 -3 -25 -9 -41s-16.667 -38 -32 -66c-14.667 -26.667 -30 -46.334 -46 -59.001s-29.333 -18.667 -40 -18c-14 0.666992 -24.667 5.33398 -32 14.001s-12.333 19.667 -15 33s-3.66699 28.166 -3 44.499s2.33398 32.833 5.00098 49.5s6 32.334 10 47.001
s7.66699 27 11 37zM839.996 575.003l-18.0029 6.00195l-25.5 8.5l-26 8.5c-8.33301 2.66699 -14.166 4.66699 -17.499 6c-23.333 7.33301 -46.333 13.5 -69 18.5s-45.167 7.66699 -67.5 8s-45 -2.33398 -68 -8.00098s-46.5 -15.834 -70.5 -30.501
c-30 -18 -54.667 -40.5 -74 -67.5s-29.333 -57.167 -30 -90.5c0 -46 17.333 -69 52 -69c29.333 0 51.333 15.667 66 47c11.333 26 17 53.667 17 83c0 6.66699 -1.33301 16.667 -4 30s-4 23.333 -4 30c0 1.33301 0.333008 2.33301 1 3v3l8 2l8 -2
c3.33301 -10 5.5 -20.167 6.5 -30.5s1.5 -21.5 1.5 -33.5c0 -39.333 -7.33301 -71.666 -22 -96.999c-18 -33.333 -47 -50 -87 -50c-10 0 -19 2.33301 -27 7s-14.667 12 -20 22c-4.66699 8 -8.33398 16.333 -11.001 25s-3.66699 18 -3 28
c1.33301 40.667 13.5 76.167 36.5 106.5s51.833 55.5 86.5 75.5c32 18.667 66.5 32.667 103.5 42s72.167 13.666 105.5 12.999c12.667 0 26.5 -1.33301 41.5 -4s30.833 -6 47.5 -10c26.667 -6 55.334 -14.167 86.001 -24.5s58.334 -18.5 83.001 -24.5
c24 -6.66699 47.167 -12.167 69.5 -16.5s42.833 -6.5 61.5 -6.5c31.333 0 54.666 7.16699 69.999 21.5s27.333 32.833 36 55.5c2.66699 2.66699 5 4 7 4s3 -1 3 -3c0 -0.666992 -0.166992 -1.16699 -0.5 -1.5s-0.5 -0.833008 -0.5 -1.5
c-3.33301 -15.333 -9.16602 -30.5 -17.499 -45.5s-19 -28.5 -32 -40.5s-28.667 -21.667 -47 -29s-38.833 -11 -61.5 -11c-20 0 -40.667 2.16699 -62 6.5s-42.666 9.5 -63.999 15.5l-34 10.5zM865.993 551.005c-26 -9.33301 -48.665 -24.1611 -67.998 -44.4941
s-36.833 -44.5 -52.5 -72.5s-29.667 -58.833 -42 -92.5l-36.5 -102.5l-37.5 -107.5c-12.333 -35.667 -26.166 -70.167 -41.499 -103.5s-32.333 -64.333 -51 -93s-40.167 -53.667 -64.5 -75s-52 -38 -83 -50s-66.5 -18 -106.5 -18c-54 0.666992 -95.333 17.5 -124 50.5
s-43 76.5 -43 130.5c0 70.667 22.333 142.334 67 215.001c50 83.333 108 125 174 125c32.667 0 59.334 -9.5 80.001 -28.5s31 -44.833 31 -77.5c0 -56 -18.333 -120.333 -55 -193c-42 -84.667 -87.667 -127 -137 -127c-18 0 -32.667 4.33301 -44 13
s-19.5 19.834 -24.5 33.501s-7.33301 28.5 -7 44.5s3.16602 31.667 8.49902 47c7.33301 33.333 13.666 50 18.999 50h7.5c1.66699 0 2.5 -2 2.5 -6c0 -9.33301 -3.66699 -26 -11 -50c-3.33301 -11.333 -5.83301 -23.833 -7.5 -37.5s-1 -26.5 2 -38.5s8.5 -22.167 16.5 -30.5
s20 -12.5 36 -12.5c46 0 88.333 41.333 127 124c34 72 51 134 51 186c0 26.667 -8.5 48.5 -25.5 65.5s-38.833 25.5 -65.5 25.5c-62.667 0 -118 -40 -166 -120c-42.667 -70.667 -64 -139.334 -64 -206.001c0 -48.667 12.333 -87.667 37 -117
c13.333 -16.667 29.166 -28.834 47.499 -36.501s39.166 -12.167 62.499 -13.5c32 -2.66699 60.167 1.16602 84.5 11.499s46 25.166 65 44.499s35.833 42.666 50.5 69.999s28.334 56.833 41.001 88.5s24.667 65.167 36 100.5s23.333 70.666 36 105.999
c12.667 36 27.334 72 44.001 108s35.667 69 57 99s45.166 55.5 71.499 76.5s56.166 35.167 89.499 42.5c-2 -2.66699 -2.16699 -3.83398 -0.5 -3.50098s4 0.833008 7 1.5s5.33301 1.16699 7 1.5s1.5 -0.833984 -0.5 -3.50098z" />
    <glyph glyph-name="afii10034" unicode="&#x420;" horiz-adv-x="819" 
d="M790 660c64 -52 96 -117.665 96 -196.998c0 -66 -21 -127.333 -63 -184c-46 -61.333 -101 -92 -165 -92c-11.333 0 -27.666 2.66699 -48.999 8c-24.667 6.66699 -37 14 -37 22c0 4 2.33301 6 7 6s14.667 -3 30 -9c14.667 -6 25.667 -9 33 -9c56.667 0 102 37 136 111
c27.333 60 41 122 41 186c0 54.667 -18.333 100 -55 136c-44.667 -44.667 -94 -135.334 -148 -272.001c-62.667 -160.667 -110 -265.334 -142 -314.001c-64 -100.667 -141.333 -151 -232 -151c-52 0 -92.667 15.333 -122 46s-44 71.334 -44 122.001
c0 64 21.667 128.667 65 194c48 72 103 108 165 108c71.333 0 107 -36.667 107 -110c0 -52.667 -16.333 -105.667 -49 -159c-36.667 -60.667 -79.334 -91 -128.001 -91c-20 0 -36 8.33301 -48 25c-10 14.667 -15 32.334 -15 53.001c0 29.333 11 65.666 33 108.999
c22.667 46 46 71 70 75c5.33301 0 8 -2 8 -6l-2 -5c-60 -47.333 -90 -105.333 -90 -174c0 -16 4 -30 12 -42c8.66699 -14 20.667 -21 36 -21c42 0 79.667 31 113 93c29.333 54.667 44 105 44 151c0 28 -8.16699 49.667 -24.5 65s-38.5 23 -66.5 23c-58 0 -109 -35 -153 -105
c-39.333 -62.667 -59 -124.334 -59 -185.001c0 -46 13.333 -82.667 40 -110s62.334 -41 107.001 -41c52.667 0 98 25.333 136 76c19.333 24.667 44.666 72.667 75.999 144l156 354c25.333 56.667 71 110.667 137 162c-29.333 19.333 -64.666 29 -105.999 29
c-60 0 -112.667 -20.667 -158 -62c-44 -41.333 -66 -91.333 -66 -150c0 -44.667 14.667 -67 44 -67c25.333 0 44.333 15.333 57 46c10 24 15 50.333 15 79c0 6.66699 -1.16699 16.5 -3.5 29.5s-3.5 22.5 -3.5 28.5c0 1.33301 0.333008 2.33301 1 3v3l7 2l7 -2
c4.66699 -18 7 -38.667 7 -62c0 -37.333 -6.33301 -68.333 -19 -93c-16 -32 -41 -48 -75 -48c-18.667 0 -32.334 9.33301 -41.001 28c-8 14.667 -12 31.667 -12 51c0 66 25.333 121.333 76 166c48.667 42 106.667 63 174 63c38.667 0 78.667 -8.33301 120 -25
c12 6.66699 29 14.667 51 24l4 -7z" />
    <glyph glyph-name="afii10035" unicode="&#x421;" horiz-adv-x="656" 
d="M547 679c-24 -4 -47.8184 -13.835 -71.4854 -29.502s-46.5 -35.5 -68.5 -59.5s-43 -51.333 -63 -82s-38 -62.667 -54 -96c-10.667 -22.667 -21 -49 -31 -79s-17.833 -60.833 -23.5 -92.5s-7.83398 -62.667 -6.50098 -93s7.5 -57.166 18.5 -80.499
s28.167 -41.666 51.5 -54.999s54.666 -18.666 93.999 -15.999c27.333 2 52.166 8 74.499 18s42 22.5 59 37.5s31.333 31.667 43 50s20.167 36.5 25.5 54.5c10 26 13.5 49.667 10.5 71s-10 39.666 -21 54.999s-25 27.666 -42 36.999s-35.167 14.666 -54.5 15.999
c-20.667 1.33301 -41.334 -2 -62.001 -10s-38.834 -20 -54.501 -36s-27.334 -35.167 -35.001 -57.5s-9.16699 -46.833 -4.5 -73.5c2.66699 -13.333 7.33398 -25 14.001 -35s14.667 -17.833 24 -23.5s19.5 -9 30.5 -10s21.5 0.833008 31.5 5.5
c17.333 8 33.166 19.667 47.499 35s22.166 35.333 23.499 60c1.33301 0.666992 3.66602 1 6.99902 1s5.33301 0.666992 6 2c1.33301 -25.333 -5.16699 -47 -19.5 -65s-32.166 -32.667 -53.499 -44c-10.667 -6 -22.667 -8.83301 -36 -8.5s-26 3.33301 -38 9
s-22.833 14.334 -32.5 26.001s-15.834 26.167 -18.501 43.5c-6 34.667 -3.83301 65 6.5 91s25.333 47.333 45 64s42 28.167 67 34.5s49.167 7.5 72.5 3.5c19.333 -3.33301 37.166 -10.166 53.499 -20.499s29.666 -23.833 39.999 -40.5s16.666 -36.167 18.999 -58.5
s-0.833984 -47.5 -9.50098 -75.5c-6 -20 -14.5 -39.333 -25.5 -58s-25.333 -35.834 -43 -51.501s-38.834 -28.834 -63.501 -39.501s-53.667 -18 -87 -22c-45.333 -3.33301 -84 0.5 -116 11.5s-57.667 27.167 -77 48.5s-33 46.833 -41 76.5s-11 61.334 -9 95.001
s8.5 68.334 19.5 104.001s25.833 70.167 44.5 103.5c22 40 47.833 77.667 77.5 113s61.5 65.833 95.5 91.5s69.333 44.834 106 57.501s73.334 16.334 110.001 11.001c35.333 -8.66699 56.666 -32.667 63.999 -72c2.66699 -17.333 2.66699 -34.833 0 -52.5
s-8 -34.167 -16 -49.5s-18.833 -29 -32.5 -41s-30.5 -20.667 -50.5 -26c-21.333 -6 -39.333 -7 -54 -3s-26.167 11 -34.5 21s-13.5 21.667 -15.5 35s-1 26.333 3 39s10.833 24 20.5 34s22.167 16.667 37.5 20c24.667 5.33301 38 3.33301 40 -6
c0 -2 0.666992 -4.16699 2 -6.5s1.33301 -3.83301 0 -4.5c-2.66699 0 -6.66699 1 -12 3s-12.666 2 -21.999 0c-13.333 -3.33301 -24 -9 -32 -17s-13.833 -17 -17.5 -27s-4.83398 -20.167 -3.50098 -30.5s5 -19.333 11 -27s14.5 -13.334 25.5 -17.001
s24.167 -3.83398 39.5 -0.500977c21.333 4.66699 38.833 12.667 52.5 24s24.167 24.333 31.5 39s11.833 30.5 13.5 47.5s1.5 33.5 -0.5 49.5c-0.666992 8.66699 -3.83398 17 -9.50098 25s-13.167 14.667 -22.5 20s-20.333 9 -33 11s-26.334 1.33301 -41.001 -2z" />
    <glyph glyph-name="Euro" unicode="&#x422;" horiz-adv-x="1077" 
d="M1035 173l7.99902 -6.00098c0 -11.333 -4.66699 -26.333 -14 -45s-20.5 -37.167 -33.5 -55.5s-26.833 -34.166 -41.5 -47.499s-27 -20 -37 -20c-8 0 -15.333 2.66699 -22 8s-12.167 12.166 -16.5 20.499s-7.83301 17.666 -10.5 27.999s-4.33398 20.5 -5.00098 30.5
c-1.33301 25.333 1.83398 50 9.50098 74s15.167 45.667 22.5 65l-6 -14c8.66699 24 18.834 50 30.501 78s25.5 54.5 41.5 79.5s34.667 47 56 66s46 31.5 74 37.5l1 -14c-17.333 -3.33301 -32.5 -12.166 -45.5 -26.499s-24.667 -32.666 -35 -54.999s-20 -47.333 -29 -75
l-26.5 -85.5l-28 -88c-6.66699 -21.333 -11.667 -38 -15 -50s-5.33301 -21 -6 -27s-1 -12 -1 -18c0.666992 -12 5 -18 13 -18c12 0 27.833 13.5 47.5 40.5s41.167 65.5 64.5 115.5zM1345 594.999c2 0 2.99512 -0.996094 2.99512 -2.99609
c0 -0.666992 -0.166992 -1.16699 -0.5 -1.5s-0.5 -0.833008 -0.5 -1.5c-14 -32 -30.5 -56.667 -49.5 -74s-39.833 -29.333 -62.5 -36s-47.167 -8.66699 -73.5 -6s-53.666 7.83398 -81.999 15.501s-57.333 17.167 -87 28.5l-89.5 34l-73 28
c-23.333 9.33301 -46.333 17.666 -69 24.999s-45.667 13.333 -69 18s-47.666 7 -72.999 7c-26 0 -53.333 -5 -82 -15s-55 -24 -79 -42s-43.833 -39.667 -59.5 -65s-23.5 -53.333 -23.5 -84c0 -25.333 4.83301 -43.666 14.5 -54.999s22.834 -17 39.501 -17
c24.667 0 43.834 11.833 57.501 35.5s20.5 53.5 20.5 89.5c0 1.33301 -0.5 4.66602 -1.5 9.99902l-3.5 18.5l-4 21.5c-1.33301 7.33301 -2 13.666 -2 18.999c0 1.33301 0.333008 2.33301 1 3v3l7 2l9 -1c4 -12 6.83301 -24.333 8.5 -37s2.5 -26.667 2.5 -42
c0 -40 -8.5 -72.5 -25.5 -97.5s-42.5 -38.167 -76.5 -39.5c-18.667 0 -34.167 7.83301 -46.5 23.5s-18.5 34.167 -18.5 55.5c0 39.333 10.5 74.5 31.5 105.5s47.5 57.5 79.5 79.5s67.333 39 106 51s75.667 18.667 111 20c30.667 1.33301 61.5 -1.5 92.5 -8.5
s61.667 -16.167 92 -27.5s60.666 -23.833 90.999 -37.5s60.333 -26.334 90 -38.001s59.334 -21.334 89.001 -29.001s59.167 -11.5 88.5 -11.5c28.667 0 51.834 6.66699 69.501 20s31.167 30.666 40.5 51.999c2.66699 2.66699 5 4 7 4zM954.994 507.003
c-20 -16 -36.832 -32.501 -50.499 -49.501s-25.167 -35.5 -34.5 -55.5s-17.5 -42 -24.5 -66s-13.833 -50.667 -20.5 -80c-6 -24 -13.167 -48.5 -21.5 -73.5s-18.666 -49 -30.999 -72s-26.833 -44.5 -43.5 -64.5s-35.667 -37 -57 -51l-10 -3l-6 3c17.333 20 31.333 41 42 63
s19.667 44.5 27 67.5s13.666 46.167 18.999 69.5s11.333 46 18 68c7.33301 24.667 15.666 48.834 24.999 72.501s20.833 46 34.5 67s30.167 40.333 49.5 58s43 33.167 71 46.5h13zM854.995 551.002c-26 -9.33301 -48.666 -24.1602 -67.999 -44.4932
s-36.833 -44.5 -52.5 -72.5s-29.667 -58.833 -42 -92.5l-36.5 -102.5l-37.5 -107.5c-12.333 -35.667 -26.166 -70.167 -41.499 -103.5s-32.333 -64.333 -51 -93s-40.167 -53.667 -64.5 -75s-52 -38 -83 -50s-66.5 -18 -106.5 -18c-54 0.666992 -95.333 17.5 -124 50.5
s-43 76.5 -43 130.5c0 70.667 22.333 142.334 67 215.001c50 83.333 108 125 174 125c32.667 0 59.334 -9.5 80.001 -28.5s31 -44.833 31 -77.5c0 -56 -18.333 -120.333 -55 -193c-42 -84.667 -87.667 -127 -137 -127c-22 0 -40 8.16699 -54 24.5s-21 35.5 -21 57.5
c0 6.66699 0.666992 15 2 25s3.33301 22.333 6 37c7.33301 33.333 13.666 50 18.999 50c6.66699 0 10 -4 10 -12c0 -9.33301 -3.66699 -26 -11 -50c-6.66699 -20.667 -10 -37.667 -10 -51c0 -18 5 -33.333 15 -46c10.667 -14.667 24.667 -22 42 -22
c46 0 88.333 41.333 127 124c34 72 51 134 51 186c0 26.667 -8.5 48.5 -25.5 65.5s-38.833 25.5 -65.5 25.5c-62.667 0 -118 -40 -166 -120c-42.667 -70.667 -64 -139.334 -64 -206.001c0 -48.667 12.333 -87.667 37 -117c13.333 -16.667 29.166 -28.834 47.499 -36.501
s39.166 -12.167 62.499 -13.5c32 -2.66699 60.167 1.16602 84.5 11.499s46 25.166 65 44.499s35.833 42.666 50.5 69.999s28.334 56.833 41.001 88.5s24.667 65.167 36 100.5s23.333 70.666 36 105.999c12.667 36 27.334 72 44.001 108s35.667 69 57 99
s45.166 55.5 71.499 76.5s56.166 35.167 89.499 42.5c-2 -2.66699 -2.16699 -3.83398 -0.5 -3.50098s4 0.833008 7 1.5s5.33301 1.16699 7 1.5s1.5 -0.833984 -0.5 -3.50098z" />
    <glyph glyph-name="afii10037" unicode="&#x423;" horiz-adv-x="875" 
d="M201 567c-22.667 -16 -43.6631 -33.999 -62.9961 -53.999s-36 -42 -50 -66s-24.833 -49.5 -32.5 -76.5s-10.834 -55.167 -9.50098 -84.5c1.33301 -36.667 10.666 -64.167 27.999 -82.5s39 -26.833 65 -25.5c27.333 1.33301 55.333 14.166 84 38.499
s51.667 61.166 69 110.499c4 11.333 7.83301 26.166 11.5 44.499s5 36.333 4 54s-5.33301 32.5 -13 44.5s-20.834 17.667 -39.501 17c-18 -1.33301 -34 -8.33301 -48 -21c-23.333 -22.667 -41.166 -47.834 -53.499 -75.501s-17.833 -59.167 -16.5 -94.5
c1.33301 -6.66699 2 -11.667 2 -15c-0.666992 -0.666992 -1.33398 -1.83398 -2.00098 -3.50098s-2 -2.5 -4 -2.5c-5.33301 -0.666992 -8.66602 2.83301 -9.99902 10.5s-2 14.5 -2 20.5c-0.666992 18.667 2.66602 39.167 9.99902 61.5s17.166 43.333 29.499 63
s26.333 36.5 42 50.5s31.5 22 47.5 24c18 2.66699 32.833 -0.666016 44.5 -9.99902s20 -22.333 25 -39s6.83301 -36 5.5 -58s-5.66602 -44.333 -12.999 -67c-8 -28 -18.5 -52.5 -31.5 -73.5s-27.333 -38.5 -43 -52.5s-32 -24.667 -49 -32s-33.833 -11.333 -50.5 -12
c-31.333 -2 -57 7.5 -77 28.5s-30.667 52.5 -32 94.5c-1.33301 32.667 2 63.5 10 92.5s19.167 55.833 33.5 80.5s31.333 47 51 67s40.5 38 62.5 54c34.667 24 71.167 44 109.5 60s82.5 24.667 132.5 26c27.333 -3.33301 49.833 -7.83301 67.5 -13.5s33.167 -11 46.5 -16
s26.166 -9.16699 38.499 -12.5s27.166 -4.66602 44.499 -3.99902c25.333 1.33301 50.5 6.16602 75.5 14.499s49.833 19.166 74.5 32.499c6.66699 1.33301 11.5 0.833008 14.5 -1.5s2.83301 -6.5 -0.5 -12.5c-12 -2 -24.167 -7.5 -36.5 -16.5s-24.166 -20.5 -35.499 -34.5
s-22 -29.833 -32 -47.5s-19 -36.167 -27 -55.5c-0.666992 -2 -4.5 -11 -11.5 -27l-26.5 -60.5l-34.5 -80l-34.5 -84.5c-10.667 -27.333 -19.5 -52.166 -26.5 -74.499s-10.5 -39.166 -10.5 -50.499c0 -10.667 3 -16 9 -16c12.667 0 28.667 9.33301 48 28s40 42.667 62 72
s44.833 61.833 68.5 97.5l67.5 104l58 92c17.333 27.667 31 48.167 41 61.5h65l-76.5 -178l-107.5 -249c-43.333 -97.333 -91.333 -170 -144 -218c-20 -18.667 -44.5 -35.834 -73.5 -51.501s-59.167 -27 -90.5 -34s-62.333 -7.66699 -93 -2s-58 20.834 -82 45.501
c-16 16.667 -23 34.334 -21 53.001s9.66699 35 23 49s30.5 24.167 51.5 30.5s42.833 5.5 65.5 -2.5c7.33301 -1.33301 16.5 -5.16602 27.5 -11.499s21.333 -13.666 31 -21.999s17.667 -17.166 24 -26.499s8.5 -17.666 6.5 -24.999c-4 -3.33301 -7.66699 -3.33301 -11 0
l-20 23.5c-6 7 -12.167 13.5 -18.5 19.5s-13.333 11.167 -21 15.5s-17.167 8.5 -28.5 12.5c-16.667 5.33301 -33.334 5.33301 -50.001 0s-30.334 -13.666 -41.001 -24.999s-17.167 -24.5 -19.5 -39.5s2.83398 -28.833 15.501 -41.5c18 -18 39.167 -30 63.5 -36
s49.166 -7.33301 74.499 -4s50 10.666 74 21.999s44.333 25 61 41c34 32 69.333 91.333 106 178l140 333l-73.5 -111c-23.667 -36.667 -47 -70.334 -70 -101.001s-45.833 -57.334 -68.5 -80.001s-45.667 -38.334 -69 -47.001c-10 -4 -20.5 -5.33301 -31.5 -4
s-20.5 5.5 -28.5 12.5s-13.5 17 -16.5 30s-1.83301 29.167 3.5 48.5c2 8 6 21 12 39s13.333 38.333 22 61l28 70.5c10 24.333 20 46.833 30 67.5c18 37.333 39 73.666 63 108.999s50.333 66 79 92l-26 -9.5c-8 -3 -15 -5.5 -21 -7.5c-24 -9.33301 -45.667 -14.5 -65 -15.5
s-37.666 0.166992 -54.999 3.5s-33.666 7.83301 -48.999 13.5s-31.333 10.834 -48 15.501s-34 7.83398 -52 9.50098s-38 0.166992 -60 -4.5c-36 -6.66699 -70 -20.334 -102 -41.001z" />
    </font>
</defs>
</svg>
