<svg width="31" height="31" viewBox="0 0 31 31" fill="none" xmlns="http://www.w3.org/2000/svg">
<g opacity="0.4" clip-path="url(#clip0_1334_2913)">
<path d="M17.908 4.13848L20.7407 9.87047C20.8234 10.0341 20.944 10.1757 21.0925 10.2833C21.241 10.3909 21.413 10.4615 21.5943 10.4892L27.9238 11.3986C28.1339 11.4278 28.3316 11.5157 28.4941 11.6521C28.6566 11.7886 28.7775 11.968 28.8428 12.1699C28.9081 12.3718 28.9152 12.588 28.8633 12.7937C28.8114 12.9995 28.7027 13.1864 28.5495 13.3333L23.9821 17.7697C23.8538 17.9006 23.7588 18.0604 23.7052 18.2356C23.6515 18.4109 23.6408 18.5964 23.6738 18.7767L24.7579 25.0746C24.7953 25.2833 24.7731 25.4982 24.6941 25.6949C24.6151 25.8916 24.4823 26.0621 24.311 26.1869C24.1396 26.3117 23.9366 26.3857 23.7252 26.4006C23.5138 26.4155 23.3024 26.3706 23.1153 26.2711L17.4587 23.3067C17.2961 23.2202 17.1148 23.1747 16.9306 23.1743C16.7464 23.1738 16.5649 23.2184 16.4019 23.3041L10.7271 26.3075C10.54 26.4053 10.3294 26.4491 10.1189 26.434C9.90832 26.4188 9.70615 26.3453 9.53501 26.2218C9.36387 26.0982 9.23051 25.9294 9.14988 25.7343C9.06925 25.5393 9.04454 25.3256 9.0785 25.1172L10.1479 18.8368C10.1792 18.6562 10.1656 18.4707 10.1082 18.2967C10.0508 18.1227 9.95145 17.9654 9.81889 17.8389L5.24768 13.3543C5.09332 13.2098 4.9826 13.0249 4.92811 12.8207C4.87361 12.6164 4.87754 12.4009 4.93943 12.1987C5.00132 11.9966 5.1187 11.8158 5.27821 11.6771C5.43773 11.5383 5.63298 11.4471 5.84177 11.4138L12.1989 10.4937C12.3805 10.4658 12.5527 10.3949 12.7013 10.2869C12.8498 10.1788 12.9704 10.0368 13.0528 9.87259L15.8638 4.16905C15.9541 3.97594 16.097 3.81214 16.2761 3.69637C16.4551 3.5806 16.6631 3.51751 16.8763 3.51433C17.0895 3.51114 17.2993 3.56797 17.4817 3.67834C17.6642 3.78871 17.8119 3.94816 17.908 4.13848V4.13848Z" fill="#A4151C"/>
<path d="M17.657 3.27415L20.4897 9.00614C20.5715 9.17053 20.6918 9.31267 20.8405 9.42042C20.9891 9.52816 21.1616 9.5983 21.3433 9.62484L27.6728 10.5342C27.8815 10.566 28.0772 10.6552 28.238 10.7919C28.3988 10.9286 28.5184 11.1074 28.5834 11.3083C28.6484 11.5091 28.6561 11.7241 28.6058 11.9291C28.5555 12.1341 28.449 12.321 28.2985 12.4689L23.7378 16.9074C23.608 17.0373 23.512 17.197 23.4583 17.3725C23.4045 17.5481 23.3947 17.7341 23.4295 17.9144L24.5203 24.2144C24.5576 24.423 24.5355 24.638 24.4565 24.8347C24.3774 25.0313 24.2447 25.2018 24.0733 25.3266C23.902 25.4514 23.699 25.5255 23.4876 25.5404C23.2761 25.5553 23.0647 25.5104 22.8776 25.4109L17.221 22.4465C17.0591 22.3614 16.879 22.3169 16.696 22.3168C16.5131 22.3167 16.3329 22.361 16.1709 22.4459L10.5109 25.4247C10.326 25.5315 10.1147 25.5838 9.90128 25.5754C9.68791 25.567 9.48129 25.4983 9.30537 25.3772C9.12945 25.2562 8.99143 25.0878 8.90731 24.8915C8.82319 24.6952 8.79642 24.4791 8.83009 24.2683L9.90307 17.9524C9.93374 17.7684 9.91808 17.5796 9.85749 17.4032C9.7969 17.2267 9.69331 17.0682 9.55606 16.9418L4.99668 12.49C4.84474 12.3429 4.73714 12.1561 4.68612 11.9508C4.6351 11.7456 4.64271 11.5302 4.70809 11.329C4.77346 11.1279 4.89398 10.9492 5.05592 10.8132C5.21786 10.6771 5.41472 10.5893 5.62412 10.5597L11.9479 9.62936C12.1298 9.60593 12.303 9.53746 12.4517 9.43016C12.6005 9.32287 12.7201 9.18014 12.7997 9.01493L15.6174 3.31343C15.7055 3.11895 15.8468 2.95341 16.0251 2.83599C16.2034 2.71856 16.4113 2.65406 16.6248 2.64995C16.8382 2.64584 17.0485 2.70229 17.2312 2.81276C17.4139 2.92324 17.5615 3.08321 17.657 3.27415V3.27415Z" fill="#C91922"/>
<path d="M15.7321 7.55673C15.4993 8.31693 14.9827 8.83706 14.6446 8.72628C14.3066 8.61549 14.1718 7.88862 14.4045 7.12842C14.6372 6.36821 15.1472 5.84604 15.4939 5.9522C15.8407 6.05836 15.9817 6.76523 15.7321 7.55673Z" fill="white"/>
<path d="M16.101 5.42327C16.0758 5.50067 16.0283 5.56886 15.9644 5.61924C15.9005 5.66962 15.8231 5.69992 15.7419 5.70631C15.6608 5.7127 15.5796 5.69489 15.5086 5.65513C15.4376 5.61538 15.38 5.55546 15.343 5.48296C15.3061 5.41046 15.2915 5.32863 15.301 5.24782C15.3106 5.16701 15.3439 5.09084 15.3967 5.02895C15.4495 4.96706 15.5195 4.92223 15.5979 4.90013C15.6762 4.87802 15.7593 4.87963 15.8367 4.90476C15.8881 4.92144 15.9357 4.94809 15.9768 4.98319C16.0179 5.01828 16.0517 5.06112 16.0762 5.10927C16.1008 5.15742 16.1156 5.20994 16.1198 5.26381C16.1241 5.31769 16.1177 5.37188 16.101 5.42327V5.42327Z" fill="white"/>
<path d="M23.9258 23.3176C24.0562 23.7732 23.9194 24.22 23.6237 24.3045C23.3279 24.389 22.9568 24.1004 22.8393 23.6268C22.7217 23.1532 22.8457 22.7243 23.1434 22.6332C23.4412 22.542 23.7908 22.8532 23.9258 23.3176Z" fill="white"/>
<g style="mix-blend-mode:overlay" opacity="0.4">
<path d="M11.2614 17.8941C16.7985 17.8899 21.3537 14.303 21.9287 9.70912L21.342 9.62432C21.1603 9.59778 20.9878 9.52764 20.8391 9.4199C20.6905 9.31216 20.5701 9.17001 20.4884 9.00563L17.6557 3.27363C17.5621 3.08402 17.4173 2.92445 17.2376 2.81307C17.0579 2.70169 16.8505 2.64297 16.6391 2.64359C16.4277 2.64421 16.2207 2.70414 16.0416 2.81657C15.8626 2.929 15.7187 3.08941 15.6263 3.27957L12.7984 9.01441C12.7188 9.17963 12.5992 9.32235 12.4504 9.42965C12.3017 9.53694 12.1285 9.60541 11.9466 9.62884L5.62278 10.5591C5.41339 10.5888 5.21652 10.6766 5.05458 10.8126C4.89264 10.9487 4.77212 11.1274 4.70675 11.3285C4.64138 11.5296 4.63377 11.7451 4.68479 11.9503C4.73581 12.1556 4.84341 12.3424 4.99535 12.4895L9.55472 16.9413C9.66775 17.0546 9.75575 17.1903 9.81301 17.3398C9.87028 17.4892 9.89554 17.649 9.88717 17.8089C10.3435 17.8611 10.8022 17.8895 11.2614 17.8941V17.8941Z" fill="#FFF0F5"/>
</g>
</g>
<defs>
<clipPath id="clip0_1334_2913">
<rect width="23.5232" height="24.7366" fill="white" transform="translate(8.17886) rotate(17.022)"/>
</clipPath>
</defs>
</svg>
