<svg width="30" height="31" viewBox="0 0 30 31" fill="none" xmlns="http://www.w3.org/2000/svg">
<g clip-path="url(#clip0_1334_2873)">
<path d="M16.9705 4.13848L19.8033 9.87047C19.886 10.0341 20.0066 10.1757 20.155 10.2833C20.3035 10.3909 20.4755 10.4615 20.6568 10.4892L26.9863 11.3986C27.1965 11.4278 27.3941 11.5157 27.5566 11.6521C27.7192 11.7886 27.84 11.968 27.9053 12.1699C27.9706 12.3718 27.9777 12.588 27.9258 12.7937C27.874 12.9995 27.7652 13.1864 27.612 13.3333L23.0446 17.7697C22.9163 17.9006 22.8214 18.0604 22.7677 18.2356C22.7141 18.4109 22.7033 18.5964 22.7364 18.7767L23.8204 25.0746C23.8578 25.2833 23.8357 25.4982 23.7566 25.6949C23.6776 25.8916 23.5448 26.0621 23.3735 26.1869C23.2022 26.3117 22.9992 26.3857 22.7877 26.4006C22.5763 26.4155 22.3649 26.3706 22.1778 26.2711L16.5212 23.3067C16.3586 23.2202 16.1773 23.1747 15.9932 23.1743C15.809 23.1738 15.6275 23.2184 15.4645 23.3041L9.78962 26.3075C9.60255 26.4053 9.39194 26.4491 9.1814 26.434C8.97085 26.4188 8.76868 26.3453 8.59754 26.2218C8.4264 26.0982 8.29304 25.9294 8.21241 25.7343C8.13178 25.5393 8.10707 25.3256 8.14103 25.1172L9.21046 18.8368C9.24177 18.6562 9.22812 18.4707 9.17074 18.2967C9.11335 18.1227 9.01398 17.9654 8.88142 17.8389L4.31021 13.3543C4.15585 13.2098 4.04513 13.0249 3.99064 12.8207C3.93614 12.6164 3.94007 12.4009 4.00196 12.1987C4.06385 11.9966 4.18123 11.8158 4.34074 11.6771C4.50026 11.5383 4.69551 11.4471 4.9043 11.4138L11.2614 10.4937C11.443 10.4658 11.6153 10.3949 11.7638 10.2869C11.9124 10.1788 12.0329 10.0368 12.1153 9.87259L14.9263 4.16905C15.0167 3.97594 15.1596 3.81214 15.3386 3.69637C15.5177 3.5806 15.7257 3.51751 15.9388 3.51433C16.152 3.51114 16.3618 3.56797 16.5443 3.67834C16.7267 3.78871 16.8744 3.94816 16.9705 4.13848V4.13848Z" fill="#A4151C"/>
<path d="M16.7195 3.27415L19.5523 9.00614C19.634 9.17053 19.7544 9.31267 19.903 9.42042C20.0516 9.52816 20.2242 9.5983 20.4058 9.62484L26.7353 10.5342C26.944 10.566 27.1397 10.6552 27.3005 10.7919C27.4614 10.9286 27.581 11.1074 27.6459 11.3083C27.7109 11.5091 27.7186 11.7241 27.6683 11.9291C27.618 12.1341 27.5116 12.321 27.361 12.4689L22.8003 16.9074C22.6705 17.0373 22.5746 17.197 22.5208 17.3725C22.4671 17.5481 22.4572 17.7341 22.492 17.9144L23.5828 24.2144C23.6201 24.423 23.598 24.638 23.519 24.8347C23.44 25.0313 23.3072 25.2018 23.1358 25.3266C22.9645 25.4514 22.7615 25.5255 22.5501 25.5404C22.3386 25.5553 22.1273 25.5104 21.9401 25.4109L16.2836 22.4465C16.1216 22.3614 15.9415 22.3169 15.7586 22.3168C15.5757 22.3167 15.3955 22.361 15.2335 22.4459L9.57346 25.4247C9.38857 25.5315 9.17719 25.5838 8.96381 25.5754C8.75044 25.567 8.54382 25.4983 8.3679 25.3772C8.19198 25.2562 8.05396 25.0878 7.96984 24.8915C7.88572 24.6952 7.85895 24.4791 7.89262 24.2683L8.9656 17.9524C8.99627 17.7684 8.98061 17.5796 8.92002 17.4032C8.85943 17.2267 8.75584 17.0682 8.61859 16.9418L4.05921 12.49C3.90727 12.3429 3.79967 12.1561 3.74865 11.9508C3.69763 11.7456 3.70524 11.5302 3.77062 11.329C3.83599 11.1279 3.95651 10.9492 4.11845 10.8132C4.28039 10.6771 4.47725 10.5893 4.68665 10.5597L11.0105 9.62936C11.1924 9.60593 11.3655 9.53746 11.5143 9.43016C11.663 9.32287 11.7826 9.18014 11.8623 9.01493L14.6799 3.31343C14.768 3.11895 14.9094 2.95341 15.0877 2.83599C15.266 2.71856 15.4739 2.65406 15.6873 2.64995C15.9008 2.64584 16.111 2.70229 16.2937 2.81276C16.4764 2.92324 16.624 3.08321 16.7195 3.27415V3.27415Z" fill="#C91922"/>
<path d="M14.7946 7.55673C14.5619 8.31693 14.0453 8.83706 13.7072 8.72628C13.3692 8.61549 13.2343 7.88862 13.467 7.12842C13.6998 6.36821 14.2097 5.84604 14.5565 5.9522C14.9033 6.05836 15.0442 6.76523 14.7946 7.55673Z" fill="white"/>
<path d="M15.1635 5.42327C15.1383 5.50067 15.0908 5.56886 15.0269 5.61924C14.963 5.66962 14.8856 5.69992 14.8044 5.70631C14.7233 5.7127 14.6421 5.69489 14.5711 5.65513C14.5001 5.61538 14.4425 5.55546 14.4055 5.48296C14.3686 5.41046 14.354 5.32863 14.3635 5.24782C14.3731 5.16701 14.4064 5.09084 14.4592 5.02895C14.512 4.96706 14.582 4.92223 14.6604 4.90013C14.7387 4.87802 14.8218 4.87963 14.8992 4.90476C14.9506 4.92144 14.9982 4.94809 15.0393 4.98319C15.0804 5.01828 15.1142 5.06112 15.1387 5.10927C15.1633 5.15742 15.1781 5.20994 15.1823 5.26381C15.1866 5.31769 15.1802 5.37188 15.1635 5.42327V5.42327Z" fill="white"/>
<path d="M22.9884 23.3176C23.1187 23.7732 22.982 24.22 22.6862 24.3045C22.3905 24.389 22.0194 24.1004 21.9018 23.6268C21.7842 23.1532 21.9082 22.7243 22.206 22.6332C22.5038 22.542 22.8534 22.8532 22.9884 23.3176Z" fill="white"/>
<g style="mix-blend-mode:overlay" opacity="0.4">
<path d="M10.324 17.8941C15.861 17.8899 20.4162 14.303 20.9912 9.70912L20.4045 9.62432C20.2228 9.59778 20.0503 9.52764 19.9017 9.4199C19.753 9.31216 19.6327 9.17001 19.5509 9.00563L16.7182 3.27363C16.6247 3.08402 16.4798 2.92445 16.3001 2.81307C16.1204 2.70169 15.9131 2.64297 15.7016 2.64359C15.4902 2.64421 15.2832 2.70414 15.1042 2.81657C14.9251 2.929 14.7812 3.08941 14.6888 3.27957L11.8609 9.01441C11.7813 9.17963 11.6617 9.32235 11.5129 9.42965C11.3642 9.53694 11.191 9.60541 11.0091 9.62884L4.68531 10.5591C4.47592 10.5888 4.27905 10.6766 4.11711 10.8126C3.95517 10.9487 3.83466 11.1274 3.76928 11.3285C3.70391 11.5296 3.6963 11.7451 3.74732 11.9503C3.79834 12.1556 3.90594 12.3424 4.05788 12.4895L8.61725 16.9413C8.73028 17.0546 8.81828 17.1903 8.87554 17.3398C8.93281 17.4892 8.95807 17.649 8.9497 17.8089C9.406 17.8611 9.8647 17.8895 10.324 17.8941V17.8941Z" fill="#FFF0F5"/>
</g>
</g>
<defs>
<clipPath id="clip0_1334_2873">
<rect width="23.5232" height="24.7366" fill="white" transform="translate(7.24139) rotate(17.022)"/>
</clipPath>
</defs>
</svg>
