<svg width="149" height="260" viewBox="0 0 149 260" fill="none" xmlns="http://www.w3.org/2000/svg">
<path d="M84.9275 52.5699C85.0832 52.6867 85.2779 52.8035 85.4531 52.9008C85.5115 52.9397 85.5698 52.9592 85.6282 52.9981C87.7305 54.1855 90.6503 54.3802 93.317 54.0298C95.4387 53.7378 97.4047 53.076 98.67 52.2779C98.7867 52.2 98.9035 52.1416 99.0008 52.0638C99.1176 51.9665 99.2344 51.8886 99.3512 51.7913C102.018 49.6501 104.373 45.796 104.704 42.8178C104.977 40.3846 104.607 37.5816 104.023 34.9928C103.984 34.8176 103.926 34.6424 103.887 34.4477C103.283 31.9756 102.466 29.7371 101.804 28.2188C101.337 27.1872 100.558 26.3891 99.5459 25.7662C97.4826 24.4815 94.4654 24.0338 91.5651 23.9754C87.3022 23.917 83.8569 25.8441 83.8569 25.8441C83.8569 25.8441 83.4481 26.4086 82.9225 27.4013C82.8641 27.4986 82.8253 27.6154 82.7669 27.7322C82.0856 29.0753 81.268 31.0802 80.8592 33.6302C80.0611 38.4186 81.1512 49.7474 84.9275 52.5699Z" fill="#F2B5AA"/>
<path d="M93.3125 54.0301C95.4342 53.7382 97.4002 53.0763 98.6654 52.2783C98.7822 52.2004 98.899 52.142 98.9963 52.0642C99.1131 51.9668 99.2299 51.889 99.3467 51.7916C102.013 49.6505 104.369 45.7963 104.7 42.8182C104.972 40.385 104.602 37.582 104.018 34.9931C103.979 34.8179 103.921 34.6428 103.882 34.4481C103.279 31.976 102.461 29.7375 101.799 28.2192C101.332 27.1876 100.554 26.3895 99.5414 25.7666C101.819 31.4505 102.948 37.7767 101.488 42.8766C100.417 46.7891 95.8041 51.6165 93.3125 54.0301Z" fill="#F3938D"/>
<path d="M64.1602 64.2881C66.749 70.3613 68.3256 77.6413 69.0653 85.1743C70.2138 85.7778 71.3233 86.3033 72.4134 86.7705C80.5693 90.2937 87.1097 90.4689 93.6889 89.262C97.0953 88.6392 100.151 87.3739 102.993 85.8946C104.103 83.9286 104.395 81.2618 104.395 81.2618L106.867 83.6366L106.886 83.695C109.067 82.3908 111.091 81.0672 113.037 79.9966C118.468 76.9989 121.154 74.8967 121.154 74.8967C121.154 74.8967 119.441 70.4392 116.113 66.7408C112.804 63.0618 110.215 62.2248 104.473 59.7333C104.453 59.7333 104.414 59.7138 104.395 59.6943C98.6136 57.1638 97.6598 56.4436 97.1926 55.6845C96.7644 54.9643 98.8083 52.2586 99.3339 51.772C99.2171 51.8693 99.1002 51.9666 98.9834 52.0445C98.8861 52.1223 98.7693 52.2002 98.6525 52.2586C95.8106 54.0883 89.387 55.12 85.6108 52.9983C85.5524 54.575 85.0853 56.6383 85.0853 56.6383C84.7155 56.7161 83.5865 56.8719 81.8152 57.2612C79.9076 57.6699 77.2408 58.3512 73.9123 59.4413C69.7662 60.8039 66.9047 62.4 65.1723 63.5485C64.783 63.8404 64.4327 64.074 64.1602 64.2881Z" fill="#FFC525"/>
<path d="M81.8281 57.2806C89.3806 62.945 99.3663 61.1931 104.486 59.7137C104.466 59.7137 104.427 59.6943 104.408 59.6748C98.6267 57.1443 97.6729 56.4241 97.2057 55.6649C96.7775 54.9447 98.8213 52.2391 99.3469 51.7524C99.2301 51.8498 99.1133 51.9471 98.9965 52.025C98.8992 52.1028 98.7824 52.1807 98.6656 52.2391C95.8237 54.0688 89.4001 55.1005 85.6239 52.9787C85.5655 54.5554 85.0984 56.6188 85.0984 56.6188C84.7091 56.7161 83.5995 56.8913 81.8281 57.2806Z" fill="#F8B213"/>
<path d="M64.1602 64.2881C66.749 70.3612 68.3256 77.6412 69.0653 85.1743C70.2138 85.7777 71.3233 86.3033 72.4134 86.7704C72.1214 81.0477 69.7466 72.6192 65.1723 63.5679C64.783 63.8404 64.4327 64.074 64.1602 64.2881Z" fill="#F8B213"/>
<path d="M55.5117 163.814C56.4461 164.32 57.3414 164.787 58.2368 165.215C61.3707 166.753 64.3878 167.862 68.0862 168.622C71.6678 169.361 75.9113 169.79 81.5367 169.965C83.9894 170.043 86.7145 170.062 89.7705 170.043C90.9384 170.043 92.0285 170.004 93.0796 169.984C109.255 169.556 110.832 166.928 110.832 166.928C111.104 164.709 110.482 161.517 109.742 158.753C109.722 158.655 109.684 158.558 109.664 158.461C108.866 155.541 107.951 153.147 107.893 153.011C108.71 153.925 109.878 155.833 111.085 157.955C111.143 158.033 111.182 158.13 111.241 158.208C112.253 159.979 113.265 161.887 114.083 163.463C115.134 165.468 115.854 166.928 115.854 166.928C117.314 166.928 118.443 166.305 119.105 165.838C119.513 165.546 119.747 165.313 119.747 165.313C119.942 162.451 119.825 158.636 119.358 154.451C119.338 154.354 119.338 154.237 119.319 154.139C118.715 148.903 117.586 143.103 115.854 137.886C112.72 128.406 102.345 116.883 102.345 116.883C102.345 116.883 102.306 116.786 102.248 116.591C101.975 115.696 101.255 113.009 101.742 111.063C101.878 110.498 102.209 109.856 102.637 109.253C103.98 107.287 106.199 105.34 106.199 105.34C109.158 110.09 115.387 113.652 119.63 111.764C121.304 111.024 122.569 109.389 123.484 107.248C124.886 103.978 125.47 99.5005 125.47 95.2571C125.47 88.2496 122.141 78.809 120.058 75.7529C120.058 75.7529 118.54 76.9987 113.109 80.0158C112.817 80.1715 112.525 80.3467 112.233 80.5219C110.559 81.4757 108.846 82.5852 107.017 83.6948C106.997 83.7142 106.997 83.7142 106.978 83.7337L106.958 83.6753L105.849 82.6242C105.829 82.6047 105.81 82.5852 105.79 82.5658L104.428 81.2616C104.428 81.2616 104.116 83.9283 103.026 85.8943C101.547 86.6729 99.9898 87.3931 98.3548 87.9771C97.3815 88.3469 96.3887 88.6389 95.3765 88.892C94.8315 89.0282 94.2865 89.145 93.722 89.2423C87.1233 90.4492 80.5829 90.2935 72.4075 86.7313C71.3175 86.2642 70.2274 85.7386 69.0789 85.1546C69.8965 93.3301 69.7408 101.778 68.8843 109.311C68.5729 112.114 68.1446 114.722 67.619 117.175C66.4511 122.703 64.8161 127.355 62.889 131.365C62.636 132.494 62.4024 133.604 62.1883 134.752C61.0788 140.572 59.0348 149.351 57.4971 155.736C57.4776 155.833 57.4582 155.93 57.4193 156.028C56.3098 160.563 55.5117 163.814 55.5117 163.814Z" fill="#E43417"/>
<path d="M106.941 83.6368C111.126 87.7439 118.056 96.4254 118.348 96.7953C118.231 96.406 115.039 85.4665 112.178 80.4834C110.504 81.4372 108.771 82.5467 106.941 83.6368Z" fill="#CD1B09"/>
<path d="M102.604 102.849C97.3683 108.474 99.0813 117.545 99.0813 117.545C99.0813 117.545 102.799 124.28 108.541 136.446C112.357 144.544 113.622 156.417 114.05 163.464C115.101 165.469 115.821 166.929 115.821 166.929C117.281 166.929 118.41 166.306 119.072 165.839C119.481 165.547 119.714 165.313 119.714 165.313C120.162 158.792 118.975 147.386 115.821 137.886C112.687 128.407 102.312 116.883 102.312 116.883C102.312 116.883 102.274 116.786 102.215 116.591C101.943 115.696 101.222 113.01 101.709 111.063C101.845 110.499 102.176 109.856 102.604 109.253C103.948 107.287 106.167 105.341 106.167 105.341C109.125 110.09 115.354 113.652 119.598 111.764C121.272 111.024 122.537 109.389 123.452 107.248C119.967 107.326 114.4 106.762 109.923 102.907C102.799 96.8342 99.0813 89.2623 99.0813 89.2623C98.945 89.0092 98.6725 88.5226 98.3611 87.9775C97.3878 88.3474 96.395 88.6394 95.3828 88.8924C97.6602 93.311 102.604 102.849 102.604 102.849Z" fill="#CD1B09"/>
<path d="M55.5117 163.814C56.4461 164.32 57.3414 164.787 58.2368 165.215C61.3707 166.753 64.3878 167.863 68.0862 168.622C67.1129 164.125 64.1738 150.11 64.1738 144.349C64.1738 137.439 67.5217 121.127 70.1885 111.744C72.5632 103.335 72.9136 93.9531 72.4075 86.751C71.3175 86.2838 70.2274 85.7583 69.0789 85.1743C69.8965 93.3497 69.7408 101.798 68.8843 109.331C68.5729 112.134 68.1446 114.742 67.619 117.195C66.4511 122.723 64.8161 127.375 62.889 131.385C62.636 132.514 62.4024 133.623 62.1883 134.772C60.2418 144.835 55.5117 163.814 55.5117 163.814Z" fill="#CD1B09"/>
<path d="M119.261 154.12C117.879 154.879 114.804 156.475 111.047 157.935C111.105 158.013 111.144 158.11 111.203 158.188C114.862 156.748 117.879 155.21 119.3 154.412C119.281 154.315 119.281 154.217 119.261 154.12Z" fill="#350502"/>
<path d="M57.4022 156.028C62.288 158.578 66.9208 160.758 79.3396 161.498C81.4613 161.634 83.583 161.692 85.6658 161.692C95.6515 161.692 104.8 160.349 109.686 158.733C109.666 158.636 109.628 158.539 109.608 158.442C103.73 160.369 91.6417 161.945 79.3591 161.206C66.9403 160.466 62.3659 158.286 57.4802 155.736C57.4607 155.833 57.4217 155.93 57.4022 156.028Z" fill="#350502"/>
<path d="M58.2227 165.215C58.2032 175.337 63.8287 196.399 66.1256 204.516C66.7096 206.598 67.0794 207.825 67.0794 207.825C67.0794 207.825 68.0136 208.526 69.4541 209.187C71.0113 209.888 73.1524 210.55 75.391 210.238C75.4883 210.238 75.5662 210.219 75.6635 210.2C76.9482 209.985 77.9994 209.596 78.8558 209.129C79.031 209.051 79.1867 208.954 79.3425 208.856C81.1138 207.766 81.8729 206.501 81.8729 206.501C82.4763 203.679 81.7172 174.481 81.8729 170.062L81.4836 169.984C79.4981 169.926 77.6684 169.829 75.9944 169.712C74.3009 169.576 72.7632 169.42 71.3228 169.225C69.6293 168.992 68.0915 168.7 66.6511 168.33C64.8992 167.902 63.2836 167.395 61.7264 166.792C60.5585 166.305 59.4101 165.78 58.2227 165.215Z" fill="#3C1E87"/>
<path d="M66.668 168.311C67.2325 170.627 68.1279 174.481 69.0038 178.724C70.1133 184.233 73.8895 203.075 75.3884 210.239C75.4857 210.239 75.5636 210.219 75.6609 210.2C77.1987 209.947 78.4055 209.421 79.3399 208.857C78.5029 200.662 76.2254 177.926 76.0113 169.693C72.3323 169.42 69.3347 168.972 66.668 168.311Z" fill="#FFC525"/>
<path d="M58.2227 165.215C58.2032 175.337 63.8287 196.399 66.1256 204.516C66.7096 206.598 67.0794 207.825 67.0794 207.825C67.0794 207.825 68.0136 208.526 69.4541 209.187C69.0453 205.567 68.0916 199.533 66.729 193.557C64.7436 184.914 62.1936 174.403 61.7459 166.773C60.5585 166.305 59.4101 165.78 58.2227 165.215Z" fill="#FFC525"/>
<path d="M76.6899 40.1315C78.3249 35.0121 80.6218 27.9852 81.7313 26.7783H81.7508C82.0622 27.0898 82.3932 27.4012 82.763 27.7127C82.0817 29.0558 81.2641 31.0607 80.8553 33.6106C80.0573 38.4185 81.1474 49.7668 84.9236 52.5892C85.0794 52.706 85.274 52.8228 85.4492 52.9202C85.4882 52.9396 85.5076 52.9591 85.5076 52.9785C85.6049 53.0369 82.2569 53.0369 79.2203 51.2656C76.1837 49.4553 75.0743 45.2314 76.6899 40.1315Z" fill="#4C2D1F"/>
<path d="M104.718 42.7791C104.99 40.346 104.62 37.543 104.036 34.9541L109.389 36.7838C109.662 36.6476 110.032 36.2972 110.421 35.8106C112.932 38.5746 116.397 44.3753 115.676 48.6382C114.937 52.9984 112.64 56.6384 112.64 56.6384C112.64 56.6384 109.681 55.6067 106.255 54.1858C103.511 53.0568 99.9486 52.4534 98.6639 52.2587C98.7807 52.1808 98.8974 52.1224 98.9948 52.0446C101.817 49.9813 104.367 45.8936 104.718 42.7791Z" fill="#4C2D1F"/>
<path d="M82.7779 27.7127C82.4275 27.4207 82.0771 27.1092 81.7656 26.7783L82.953 27.3817C82.8751 27.4791 82.8363 27.5959 82.7779 27.7127Z" fill="#411E59"/>
<path d="M80.8574 25.7858C81.1494 26.1167 81.4415 26.467 81.7724 26.7785L82.9402 27.3819C83.4853 26.3697 83.8746 25.8247 83.8746 25.8247C83.8746 25.8247 87.3199 23.9171 91.5828 23.956C95.9041 24.0144 100.401 25.0071 101.822 28.18C102.483 29.6983 103.281 31.9368 103.904 34.4089C103.943 34.6035 103.982 34.7592 104.041 34.9539L109.394 36.7836C109.666 36.6474 110.036 36.297 110.425 35.8104C111.574 34.4283 113.014 31.8978 113.579 29.9902C113.676 29.6983 113.734 29.4258 113.773 29.1532L111.632 25.0266L111.593 24.9293C111.593 24.9293 111.652 24.7346 111.71 24.4037C111.749 24.2675 111.768 24.0923 111.788 23.8976C112.002 22.3793 112.099 19.4011 110.367 16.8512C109.374 15.3913 108.031 14.0482 106.435 12.8219C104.041 10.9922 101.101 9.45441 97.987 8.34489C95.0866 7.31323 91.6412 7.79986 88.8966 8.69526C86.7165 9.39601 84.9646 10.3693 84.2639 11.0116C82.8624 12.3547 82.5315 14.8268 82.4926 15.3134C82.4926 15.3524 82.4926 15.3913 82.4926 15.3913C82.4926 15.3913 82.3174 15.4692 82.0254 15.6249C81.7529 15.7611 81.383 15.9558 80.9742 16.1699C79.7285 16.8512 78.0934 17.7855 77.743 18.35C77.2564 19.1286 78.2686 22.7102 80.8574 25.7858Z" fill="#3C1E87"/>
<path d="M110.637 210.355C110.637 210.355 122.647 234.375 126.053 241.772C129.46 249.188 131.231 255.398 131.231 255.398C131.231 255.398 132.574 256.838 136.233 258.162C137.129 258.493 138.18 258.804 139.367 259.096C145.44 260.575 148.555 259.992 148.555 259.096C148.555 258.201 145.888 254.502 143.805 251.991C141.723 249.48 134.014 247.242 134.014 247.242L132.535 220.555C132.983 214.034 129.421 204.107 128.837 203.056C128.837 203.056 126.579 208.389 123.931 210.316C122.802 211.134 120.817 211.64 118.637 211.776C115.756 211.99 112.505 211.543 110.637 210.355Z" fill="#E43417"/>
<path d="M60.6917 254.814C60.6917 254.814 65.5775 255.709 71.9621 254.814C74.3953 254.483 76.2639 254.055 77.6459 253.665C79.9039 253.023 80.8771 252.459 80.8771 252.459L79.3784 245.49C79.3784 245.49 84.5561 226.375 84.7118 219.251C84.8675 212.146 81.8893 206.501 81.8893 206.501C81.8893 206.501 80.7799 208.331 78.152 209.479C77.4318 209.791 76.6142 210.044 75.6604 210.219C71.2029 210.959 67.0568 207.844 67.0568 207.844C67.0568 207.844 66.687 206.618 66.103 204.535L69.4315 222.969C70.6189 227.563 72.6823 244.303 72.6823 244.303C68.8477 248.741 60.6917 254.814 60.6917 254.814Z" fill="#E43417"/>
<path opacity="0.3" d="M71.3398 169.206C75.6417 182.618 77.9385 200.526 78.8534 209.149C79.0286 209.071 79.1843 208.974 79.34 208.876C81.1114 207.786 81.8705 206.521 81.8705 206.521C82.4739 203.698 81.7148 174.501 81.8705 170.082L81.4812 170.004C79.4957 169.946 77.666 169.848 75.9919 169.732C74.3179 169.556 72.7803 169.401 71.3398 169.206Z" fill="#411E59"/>
<path d="M93.043 169.965C94.1525 172.846 96.936 180.009 99.3692 184.992C102.484 191.377 110.64 210.336 110.64 210.336C111.71 211.017 113.209 211.445 114.864 211.679C116.07 211.835 117.316 211.874 118.523 211.815C118.834 211.796 119.146 211.776 119.457 211.737C121.073 211.562 122.533 211.173 123.545 210.608C123.701 210.531 123.837 210.453 123.954 210.355C126.601 208.428 128.859 203.095 128.859 203.095C126.776 197.761 120.995 190.948 120.995 190.948C121.151 182.948 118.951 165.916 119.029 165.838C118.367 166.305 117.238 166.928 115.778 166.928C115.778 166.928 110.211 155.658 107.817 152.991C107.817 152.991 111.36 162.179 110.756 166.928C110.756 166.928 110.737 166.948 110.717 166.987C110.523 167.22 109.433 168.213 104.722 169.011C104.216 169.089 103.652 169.186 103.048 169.264C101.218 169.517 98.9604 169.731 96.1963 169.868C95.2425 169.907 94.172 169.945 93.043 169.965Z" fill="#3C1E87"/>
<path d="M101.998 34.3309C102.641 33.9611 101.998 32.4428 99.8764 31.8394C95.6719 30.6325 94.5819 33.5134 94.5819 33.5134C94.5819 33.5134 96.47 33.4744 98.728 33.747C101.239 34.0584 101.998 34.3309 101.998 34.3309Z" fill="#4C2D1F"/>
<path d="M88.4726 32.7935C88.862 32.7546 88.278 30.7107 86.059 30.0684C83.8399 29.426 82.6914 30.9054 82.6914 30.9054C82.6914 30.9054 87.4799 32.8908 88.4726 32.7935Z" fill="#4C2D1F"/>
<path d="M67.6055 117.175C70.2917 118.051 75.8393 119.433 84.2094 119.433C92.4237 119.433 98.9446 117.701 102.195 116.572C101.923 115.676 101.203 112.99 101.689 111.044C101.825 110.479 102.156 109.837 102.585 109.233C99.9178 110.051 94.2924 111.375 85.4747 111.452C76.91 111.511 71.4985 110.207 68.8513 109.35C68.5593 112.134 68.131 114.742 67.6055 117.175Z" fill="#B60E06"/>
<path d="M53.3693 168.797C47.8412 165.78 49.6904 156.32 52.9995 148.573C53.1357 148.262 60.2601 149.429 64.0947 153.576C67.9488 157.722 67.0534 170.335 54.4594 169.284C54.2453 169.206 54.0313 169.109 53.8366 169.031C53.7003 168.973 53.5445 168.895 53.3693 168.797Z" fill="#769CB7"/>
<path d="M54.4665 169.284C54.4665 169.284 54.2331 169.206 53.8438 169.031C54.0384 169.128 54.2524 169.225 54.4665 169.284Z" fill="#769CB7"/>
<path d="M23.7854 171.658C30.1895 172.34 36.1263 172.164 41.0705 171.678C49.1486 170.899 54.4821 169.284 54.4821 169.284C54.4821 169.284 54.2485 169.206 53.8592 169.031C53.7034 168.953 53.5477 168.875 53.392 168.797C47.8639 165.78 49.7131 156.32 53.0222 148.573C54.4431 145.263 56.1172 142.285 57.5966 140.241C59.5042 137.633 61.2949 134.733 62.8911 131.385C65.6551 125.604 67.8353 118.499 68.8864 109.331C69.7429 101.798 69.8985 93.3497 69.081 85.1743C68.3413 77.6412 66.7647 70.3807 64.1758 64.288V64.2686C58.7256 51.5772 50.8226 43.6743 44.2628 45.0758C40.8564 45.7961 18.1794 56.0542 11.6585 61.5434C6.14985 66.1762 4.55377 74.4878 4.18393 76.9794C4.10607 77.4466 4.08651 77.6996 4.08651 77.6996C4.28116 77.6412 4.53432 77.5828 4.80683 77.5439C8.19378 76.9794 17.537 76.9599 17.8679 76.9599C20.8267 79.6267 24.2331 85.5636 24.6808 97.2622C24.7976 100.493 24.6029 103.199 24.0968 105.613C22.7537 111.958 19.25 116.241 13.5662 122.47C5.70223 131.073 1.32248 136.348 0.115638 149.682C-1.07174 163.016 6.88961 169.887 23.7854 171.658Z" fill="#8BAEC9"/>
<path d="M4.16797 76.9602L4.79087 77.5247C8.43087 77.2327 13.0635 77.0575 17.852 76.9407C29.8815 76.6487 42.8064 76.7461 42.8064 76.7461C30.7575 55.8015 44.2469 45.0566 44.2469 45.0566C40.8404 45.7769 18.1634 56.035 11.6426 61.5242C6.13389 66.157 4.53781 74.4881 4.16797 76.9602Z" fill="#769CB7"/>
<path d="M20.9256 93.6221C20.984 94.1672 21.0814 94.7122 21.1982 95.2572C21.9379 98.5274 24.6241 101.661 24.6241 101.661C25.4806 99.9094 27.0378 93.8557 27.0378 93.8557C28.2251 94.3034 32.2933 93.8557 32.449 92.4542C32.4685 92.318 32.4491 92.2012 32.3907 92.0844C32.1766 91.6172 31.4563 91.4226 30.7556 91.3447C31.7678 91.3058 32.9358 91.1111 33.1499 90.5077C33.5587 89.3982 28.8286 89.1062 28.7702 88.8726C28.7118 88.6585 32.9747 88.9505 33.1499 87.8994C33.3056 86.965 29.8602 86.2059 29.2179 86.0696C29.8213 86.1475 32.9162 86.5173 33.0525 86.0502C33.1887 85.5246 33.6365 84.8628 30.0938 83.4613C26.5317 82.0598 25.5 81.8067 24.3905 82.1182C23.7287 82.3128 22.7554 83.3056 21.8794 86.0502C21.1203 88.3471 20.6337 90.9359 20.9256 93.6221Z" fill="#F2B5AA"/>
<path d="M96.2305 169.848C97.6904 172.787 100.046 177.595 102.187 182.423C105.146 189.041 112.718 206.696 114.859 211.699C116.358 211.893 117.973 211.913 119.452 211.757C115.559 198.521 107.734 176.856 104.756 169.011C102.693 169.342 99.9289 169.673 96.2305 169.848Z" fill="#FFC525"/>
<path d="M110.795 166.928C110.795 166.928 110.775 166.948 110.756 166.987C113.403 174.072 116.946 185.829 119.496 194.958C121.384 201.732 122.785 207.397 123.564 210.628C123.719 210.55 123.856 210.472 123.973 210.375C126.62 208.448 128.878 203.114 128.878 203.114C126.795 197.781 121.014 190.968 121.014 190.968C121.17 182.968 118.97 165.936 119.048 165.858C118.386 166.325 117.257 166.948 115.797 166.948C115.797 166.948 110.23 155.678 107.836 153.011C107.836 152.991 111.379 162.179 110.795 166.928Z" fill="#FFC525"/>
<path d="M110.637 210.355C110.637 210.355 122.647 234.376 126.053 241.772C129.46 249.189 131.231 255.398 131.231 255.398C131.231 255.398 132.574 256.838 136.233 258.162C134.735 255.787 132.185 251.447 130.783 247.242C128.72 241.013 122.043 224.565 122.043 224.565L118.656 211.796C115.756 211.991 112.505 211.543 110.637 210.355Z" fill="#CD1B09"/>
<path d="M80.8799 252.439L79.3811 245.471C79.3811 245.471 84.5589 226.356 84.7146 219.232C84.8703 212.127 81.8921 206.482 81.8921 206.482C81.8921 206.482 80.7826 208.312 78.1548 209.46C79.1475 214.56 80.8215 220.361 79.3616 229.86C77.746 240.293 78.4857 244.867 77.9017 245.763C77.4346 246.444 78.2132 250.473 77.6487 253.646C79.9067 253.004 80.8799 252.439 80.8799 252.439Z" fill="#CD1B09"/>
<path d="M106.434 17.7664C106.434 17.7664 108.458 21.095 111.611 25.027L111.572 24.9297C111.572 24.9297 112.799 20.4916 110.346 16.8516C109.353 15.3917 108.01 14.0486 106.414 12.8223C106.979 15.3333 107.076 16.8126 106.434 17.7664Z" fill="#1F0D6B"/>
<path d="M87.8669 14.3012C87.8669 14.3012 87.3024 11.7318 88.8985 8.67578C86.7184 9.37653 84.9665 10.3498 84.2658 10.9922C82.7086 12.4715 82.4945 15.3524 82.4945 15.3524C82.4945 15.3524 82.3193 15.4302 82.0273 15.586C85.4727 14.8073 87.8669 14.3012 87.8669 14.3012Z" fill="#1F0D6B"/>
<path d="M80.8555 25.786C81.1474 26.1169 81.4395 26.4673 81.7704 26.7788L82.9383 27.3822C83.4833 26.37 83.8727 25.825 83.8727 25.825C83.8727 25.825 87.318 23.9174 91.5808 23.9563C95.9021 24.0147 100.399 25.0074 101.82 28.1802C102.481 29.6985 103.279 31.937 103.902 34.4091C103.941 34.6038 103.98 34.7595 104.039 34.9542L109.392 36.7839C109.664 36.6476 110.034 36.2973 110.423 35.8106C111.572 34.4286 113.012 31.8981 113.577 29.9905C109.294 24.949 96.817 14.9828 80.8555 25.786Z" fill="#1F0D6B"/>
<path d="M80.957 16.1312C80.9959 16.209 81.0737 16.2285 81.1516 16.209C86.9522 13.4644 91.3125 12.9583 93.9597 13.0167C96.4513 13.0751 97.9111 13.6201 98.2615 13.7759L98.7676 21.9318C98.7676 21.9902 98.8065 22.0486 98.8844 22.0681C98.9428 22.0875 99.0012 22.0681 99.0401 22.0097L103.459 15.8002C108.734 18.467 111.245 23.5279 111.654 24.4233C111.693 24.2871 111.712 24.1119 111.732 23.9173C110.972 22.399 108.384 17.9025 103.459 15.4693C103.4 15.4304 103.322 15.4499 103.284 15.5083L99.0207 21.5036L98.534 13.6591C98.534 13.6007 98.4951 13.5617 98.4562 13.5423C98.3978 13.5033 96.899 12.7831 93.9792 12.7247C91.5461 12.6663 87.614 13.0946 82.4752 15.2941C82.4752 15.3331 82.4752 15.372 82.4752 15.372C82.4752 15.372 82.3 15.4499 82.0081 15.6056C81.755 15.7224 81.3852 15.917 80.957 16.1312Z" fill="#FFC525"/>
<path d="M129.156 23.6448C130.597 23.6448 132.096 23.489 133.555 23.0413C133.633 23.0219 133.672 22.944 133.653 22.8467C133.633 22.7688 133.556 22.7299 133.478 22.7494C130.402 23.6837 127.074 23.3528 124.816 22.8856C120.689 22.0486 118.859 20.0242 117.652 18.6811C117.458 18.467 117.263 18.2529 117.107 18.0777C116.913 17.883 116.679 17.5911 116.387 17.2602C114.83 15.3915 111.91 11.9461 107.453 11.6152C107.375 11.6152 107.297 11.6736 107.297 11.7515C107.297 11.8294 107.355 11.9072 107.433 11.9072C111.754 12.2381 114.635 15.6251 116.173 17.4353C116.465 17.7857 116.718 18.0777 116.913 18.2723C117.088 18.4475 117.263 18.6422 117.458 18.8563C118.704 20.2383 120.572 22.3017 124.777 23.1581C125.983 23.4306 127.521 23.6448 129.156 23.6448Z" fill="#350502"/>
<path d="M133.842 33.7472C133.55 33.9029 123.389 31.7422 118.347 27.3042C113.306 22.8661 111.535 18.1166 111.087 14.7101C110.639 11.3037 106.299 9.10415 104.761 11.6541C104.761 11.6541 103.126 10.6419 102.269 10.2137C102.269 10.2137 100.342 5.01644 102.717 2.03826C105.092 -0.920459 117.394 -1.738 119.905 7.15762C122.416 16.0532 125.394 25.163 127.827 28.7251C130.28 32.2678 133.842 33.7472 133.842 33.7472Z" fill="#F8B213"/>
<path d="M104.762 11.6345C104.762 11.6345 106.494 7.97505 110.854 7.74146C115.234 7.50788 118.64 8.48114 121.599 10.6223C124.558 12.783 126.115 15.2161 132.5 13.9509C138.865 12.6856 140.286 7.74146 140.286 7.74146C140.286 7.74146 141.259 12.9971 138.145 18.9924C135.03 24.9877 126.057 24.1117 121.833 21.9511C117.609 19.8099 114.494 14.9047 111.536 13.1333C108.577 11.362 104.762 11.6345 104.762 11.6345Z" fill="#E43417"/>
<path d="M130.654 18.0389C133.068 18.0389 135.228 17.3965 136.727 16.2675C136.786 16.2091 136.805 16.1313 136.766 16.0534C136.708 15.995 136.63 15.9756 136.552 16.034C133.224 18.545 126.547 18.5839 121.175 14.3015C116.289 10.4085 110.8 8.90967 107.179 10.4669C107.101 10.5058 107.062 10.5837 107.101 10.6615C107.14 10.7394 107.218 10.7589 107.296 10.7394C109.963 9.59096 115.16 9.9024 120.98 14.5351C124.055 16.9683 127.559 18.0389 130.654 18.0389Z" fill="#350502"/>
<path d="M129.988 31.3139C130.027 31.3139 130.066 31.2944 130.105 31.2555C130.163 31.1971 130.144 31.0998 130.085 31.0414C126.64 28.2579 125.375 23.158 125.355 23.0996C125.336 23.0217 125.258 22.9633 125.18 22.9828C125.102 23.0022 125.044 23.0801 125.083 23.158C125.102 23.2164 126.387 28.4136 129.91 31.2555C129.93 31.2944 129.969 31.3139 129.988 31.3139Z" fill="#350502"/>
<path d="M123.836 30.8076C123.894 30.8076 123.953 30.7687 123.972 30.7298C124.011 30.6519 123.972 30.5741 123.894 30.5351C123.836 30.4962 117.782 27.5569 115.018 23.5082C112.332 19.5762 111.748 17.435 111.378 15.5664C111.028 13.8145 110.269 12.3935 110.23 12.3157C110.191 12.2378 110.094 12.2183 110.035 12.2573C109.957 12.2962 109.938 12.3935 109.977 12.4519C109.977 12.4714 110.755 13.9118 111.106 15.6053C111.476 17.4934 112.06 19.6735 114.785 23.6639C117.588 27.7905 123.719 30.7687 123.778 30.7882C123.778 30.8076 123.816 30.8076 123.836 30.8076Z" fill="#350502"/>
<path d="M107.969 85.0184C107.988 85.0184 107.988 85.0184 108.008 85.0184C108.085 84.999 108.144 84.9211 108.124 84.8432C108.105 84.8043 107.132 80.5609 106.742 79.2956C106.723 79.2178 106.645 79.1789 106.567 79.1983C106.489 79.2178 106.45 79.2956 106.47 79.393C106.859 80.6582 107.832 84.8822 107.852 84.9211C107.832 84.96 107.891 85.0184 107.969 85.0184Z" fill="#350502"/>
<path d="M117.219 112.29C118.115 112.29 118.932 112.134 119.633 111.861C119.711 111.822 119.75 111.744 119.711 111.667C119.672 111.589 119.594 111.55 119.516 111.589C115.545 113.146 110.231 110.148 107.058 106.353C103.847 102.537 99.681 90.5857 99.2139 89.2426C99.1944 89.1842 99.1749 89.0869 99.0581 89.0869C98.9802 89.0869 98.9023 89.1648 98.9023 89.2426C98.9023 89.2621 98.9024 89.2816 98.9218 89.301L98.9413 89.34C99.7005 91.559 103.652 102.771 106.844 106.547C110.29 110.654 114.222 112.29 117.219 112.29Z" fill="#350502"/>
<path d="M113.173 132.144C113.193 132.144 113.232 132.125 113.251 132.125C113.329 132.086 113.349 131.988 113.31 131.911C109.884 126.149 104.589 119.317 103.051 117.487C101.65 115.813 101.28 112.367 102.253 110.09C103.227 107.871 106.205 105.477 106.224 105.457C106.283 105.399 106.302 105.302 106.244 105.243C106.185 105.185 106.108 105.165 106.03 105.224C105.913 105.321 102.974 107.676 101.981 109.973C100.949 112.329 101.338 115.93 102.818 117.681C104.356 119.511 109.631 126.324 113.057 132.066C113.057 132.105 113.115 132.144 113.173 132.144Z" fill="#350502"/>
<path d="M86.5769 90.0991C86.9467 90.0991 87.3166 90.0991 87.6669 90.0796C93.9542 89.8655 97.9252 88.2888 97.9641 88.2693C98.042 88.2304 98.0809 88.1525 98.042 88.0747C98.0225 87.9968 97.9252 87.9579 97.8473 87.9968C97.8084 88.0163 93.8764 89.5735 87.6669 89.7876C81.2823 90.0017 74.7032 88.3082 69.1556 85.0575C69.0777 85.0186 68.9998 85.0381 68.9609 85.116C68.9219 85.1938 68.9414 85.2717 69.0193 85.3106C74.2749 88.4056 80.4648 90.0991 86.5769 90.0991Z" fill="#350502"/>
<path d="M115.238 78.8873C115.257 78.8873 115.296 78.8873 115.316 78.8678C118.06 77.2911 121.233 75.0332 121.252 75.0137C121.291 74.9748 121.33 74.9164 121.311 74.8774C121.155 73.9042 119.248 70.7703 119.17 70.634C119.131 70.5562 119.033 70.5367 118.975 70.5756C118.897 70.6145 118.878 70.7119 118.917 70.7897C118.936 70.8287 120.766 73.8068 120.999 74.819C120.493 75.1694 117.651 77.1743 115.16 78.6148C115.082 78.6537 115.062 78.751 115.101 78.8289C115.14 78.8483 115.179 78.8873 115.238 78.8873Z" fill="#350502"/>
<path d="M107.271 61.0566C107.33 61.0566 107.388 61.0177 107.408 60.9593C107.427 60.8814 107.408 60.8036 107.33 60.7646C99.3102 57.6113 97.5194 55.7621 97.3247 55.5674C96.9159 55.1197 98.1228 53.4846 98.7068 52.706C98.882 52.4724 99.0376 52.2778 99.135 52.1221C99.1739 52.0442 99.1545 51.9663 99.0961 51.9079C99.0183 51.869 98.9403 51.8885 98.9014 51.9469C98.8041 52.0831 98.6678 52.2778 98.4926 52.5114C97.4804 53.8934 96.6045 55.1586 97.1301 55.7426C97.9671 56.6575 101.101 58.604 107.233 61.0177C107.233 61.0566 107.252 61.0566 107.271 61.0566Z" fill="#350502"/>
<path d="M63.6996 259.369C64.2641 259.369 64.7507 258.98 64.8675 258.415C64.8675 258.415 75.5345 203.698 86.182 148.962C91.496 121.594 96.8294 94.2063 100.82 73.651C102.805 63.3734 104.46 54.8087 105.628 48.7939C107.516 39.0029 107.516 39.0029 107.36 38.633C107.107 38.0296 106.426 37.7376 105.822 37.9907C105.394 38.1659 105.141 38.5552 105.083 38.964C104.479 42.8375 62.9794 255.787 62.5511 257.948C62.4343 258.59 62.8431 259.213 63.4854 259.33C63.5438 259.35 63.6218 259.369 63.6996 259.369Z" fill="#8BAEC9"/>
<path d="M96.4883 57.3198C96.5856 57.3198 96.644 57.2419 96.644 57.164C96.5662 56.1908 97.3448 54.945 97.3448 54.945C97.3837 54.8671 97.3642 54.7893 97.3058 54.7309C97.2279 54.692 97.1501 54.7114 97.1112 54.7893C97.0723 54.8477 96.2742 56.1129 96.3715 57.1835C96.352 57.2614 96.4104 57.3198 96.4883 57.3198Z" fill="#350502"/>
<path d="M78.5514 58.2152C78.5708 58.2152 78.5709 58.2152 78.5903 58.2152C81.296 57.4366 85.0722 56.7943 85.1112 56.7943C85.1696 56.7748 85.2279 56.7359 85.2279 56.6775C85.3253 55.9183 85.7341 53.1348 85.7535 53.0375C85.7535 52.9985 85.7535 52.9401 85.7146 52.9012C85.6562 52.8428 85.5589 52.8428 85.5005 52.9012C85.481 52.9207 85.4422 52.9596 84.9555 56.5218C84.3132 56.6385 80.9652 57.2225 78.5125 57.9427C78.4347 57.9622 78.3956 58.04 78.4151 58.1179C78.4346 58.1763 78.493 58.2152 78.5514 58.2152Z" fill="#350502"/>
<path d="M91.3224 54.3607C92.5292 54.3607 93.7556 54.205 94.904 53.8935C98.9139 52.7645 100.802 50.7596 100.88 50.6817C100.938 50.6233 100.938 50.526 100.88 50.4676C100.821 50.4092 100.724 50.4092 100.666 50.4676C100.646 50.4871 98.7387 52.492 94.8262 53.6015C90.758 54.7305 85.5607 53.6405 83.9061 51.2657C83.8672 51.2073 83.7699 51.1878 83.692 51.2268C83.6336 51.2657 83.6141 51.363 83.6531 51.4409C84.9378 53.2512 88.0717 54.3607 91.3224 54.3607Z" fill="#350502"/>
<path d="M112.651 53.1154C112.69 53.1154 112.729 53.0959 112.748 53.0764C115.259 50.5654 114.772 45.8743 111.288 39.1199C111.249 39.042 111.152 39.0225 111.094 39.0615C111.016 39.1004 110.996 39.1977 111.035 39.2561C114.441 45.8743 114.948 50.4486 112.553 52.8623C112.495 52.9207 112.495 53.018 112.553 53.0764C112.573 53.0959 112.612 53.1154 112.651 53.1154Z" fill="#350502"/>
<path d="M105.523 49.8256C105.581 49.8256 105.639 49.7866 105.659 49.7477C105.678 49.7088 107.099 46.497 107.099 43.6162C107.099 43.5383 107.041 43.4604 106.944 43.4604C106.846 43.4604 106.788 43.5188 106.788 43.6162C106.788 46.4386 105.406 49.592 105.386 49.6309C105.347 49.7088 105.386 49.7866 105.464 49.8256C105.484 49.8256 105.503 49.8256 105.523 49.8256Z" fill="#350502"/>
<path d="M78.0394 46.789C78.0589 46.789 78.0783 46.789 78.0978 46.7695C78.1756 46.7306 78.1952 46.6527 78.1757 46.5749C77.1246 44.4726 78.0589 40.8715 78.5261 39.1391C78.7402 38.3411 78.7596 38.2048 78.7012 38.1075C78.6622 38.0296 78.565 38.0296 78.4871 38.0685C78.4287 38.1075 78.4092 38.1659 78.4286 38.2437C78.4286 38.3411 78.3314 38.6914 78.234 39.0613C77.7669 40.8326 76.8131 44.4921 77.9226 46.7111C77.9226 46.7695 77.981 46.789 78.0394 46.789Z" fill="#350502"/>
<path d="M74.7652 87.9967C74.8431 87.9967 74.9208 87.9189 74.9208 87.841C74.9208 87.549 75.719 84.4151 76.6922 82.6438C76.7312 82.5659 76.7117 82.4881 76.6338 82.4492C76.5559 82.4102 76.4781 82.4297 76.4392 82.5075C75.4659 84.3178 74.6483 87.5296 74.6483 87.841C74.6288 87.9383 74.6873 87.9967 74.7652 87.9967Z" fill="#350502"/>
<path d="M65.7325 124.163C65.7909 124.163 65.8493 124.124 65.8688 124.066C68.4187 116.688 69.9565 103.569 69.7423 96.4252V96.211C69.5282 89.3787 69.2557 80.0354 66.589 70.8089C64.1558 62.4194 60.0875 55.9764 57.8685 52.8814C57.8295 52.8035 57.7322 52.8035 57.6544 52.8425C57.5765 52.9009 57.5765 52.9787 57.6154 53.0566C59.815 56.1321 63.8833 62.5556 66.2969 70.8867C68.9442 80.0549 69.2362 89.3982 69.4308 96.211V96.4252C69.6449 103.549 68.1072 116.611 65.5767 123.968C65.5573 124.046 65.5962 124.124 65.674 124.163C65.6935 124.163 65.713 124.163 65.7325 124.163Z" fill="#350502"/>
<path d="M83.9294 119.823C79.6276 119.823 75.3063 119.122 75.2674 119.102C75.1506 119.083 75.0533 118.966 75.0727 118.849L75.4231 110.81C75.4231 110.732 75.462 110.674 75.5204 110.635C75.5788 110.596 75.6567 110.577 75.7151 110.596C78.4597 111.141 81.652 111.258 83.8321 111.258C85.6813 111.258 86.9855 111.18 87.005 111.18C87.0633 111.161 87.1411 111.199 87.1801 111.238C87.219 111.277 87.258 111.355 87.258 111.414V119.433C87.258 119.55 87.1607 119.667 87.0439 119.667C86.0901 119.784 85.0584 119.823 83.9294 119.823ZM75.5594 118.674C76.4742 118.81 80.2115 119.355 83.9294 119.355C84.9611 119.355 85.8954 119.316 86.7519 119.239V111.686C86.2847 111.706 85.1947 111.764 83.8126 111.764C81.6909 111.764 78.6154 111.647 75.8903 111.161L75.5594 118.674Z" fill="#3C1E87"/>
<path d="M55.5124 169.498C55.5902 169.498 55.668 169.42 55.668 169.342C55.668 169.264 55.6097 169.187 55.5319 169.187C54.1109 169.148 52.865 168.564 51.9307 167.474C50.2956 165.566 49.7117 162.276 50.2567 158.169C50.8991 153.4 53.0597 147.892 56.6997 141.78C56.7387 141.702 56.7191 141.624 56.6413 141.585C56.5634 141.546 56.4856 141.565 56.4272 141.643C52.7677 147.775 50.5877 153.322 49.9453 158.13C49.3809 162.296 50.0036 165.683 51.6777 167.649C52.6704 168.836 53.9941 169.459 55.5124 169.498Z" fill="#350502"/>
<path d="M55.7269 164.106C55.7658 164.106 55.8047 164.086 55.8437 164.047C55.8826 163.989 55.8826 163.911 55.8437 163.853C54.1891 162.023 53.6246 159.726 54.228 157.371C54.812 155.132 56.4666 153.205 58.3158 152.582C61.4302 151.531 63.221 152.933 63.5324 153.205C63.5519 153.225 63.5713 153.244 63.5908 153.264C63.6492 153.322 63.7466 153.322 63.805 153.264C63.8634 153.205 63.8634 153.108 63.805 153.05C63.805 153.05 63.766 153.011 63.7076 152.952C59.3084 148.923 52.9239 148.378 52.8655 148.358C52.7682 148.339 52.7098 148.417 52.7098 148.495C52.7098 148.573 52.7682 148.65 52.846 148.65C52.9044 148.65 58.0821 149.098 62.2866 152.154C61.3523 151.843 60.0092 151.707 58.2378 152.29C56.2913 152.952 54.5784 154.957 53.9749 157.274C53.4105 159.434 53.7998 161.556 55.104 163.347L50.0236 160.232C49.9457 160.193 49.8678 160.213 49.8288 160.291C49.7899 160.369 49.8094 160.446 49.8678 160.485L55.6879 164.047C55.6684 164.086 55.7074 164.106 55.7269 164.106Z" fill="#350502"/>
<path d="M110.759 167.123C110.837 167.123 110.915 167.064 110.915 166.987C111.051 162.003 109.397 156.748 108.521 154.315C109.591 156.008 111.499 159.064 112.609 161.069C114.205 163.969 115.665 166.967 115.665 166.987C115.684 167.045 115.742 167.064 115.801 167.064C115.918 167.064 116.034 167.064 116.151 167.045C117.689 166.85 119.675 165.468 119.772 165.41C119.85 165.371 119.85 165.274 119.811 165.196C119.772 165.118 119.674 165.118 119.616 165.157C119.597 165.176 117.592 166.539 116.132 166.734C116.054 166.753 115.976 166.753 115.918 166.753C115.665 166.247 114.341 163.522 112.881 160.894C111.285 157.994 108.015 152.933 107.995 152.874C107.956 152.816 107.859 152.796 107.801 152.816C107.742 152.855 107.703 152.933 107.742 153.011C107.762 153.088 110.818 160.271 110.643 166.928C110.604 167.045 110.662 167.123 110.759 167.123Z" fill="#350502"/>
<path d="M129.651 205.177C129.671 205.177 129.69 205.177 129.71 205.158C129.788 205.119 129.827 205.041 129.788 204.963C126.401 196.399 121.671 191.396 121.165 190.851C121.301 184.7 119.335 165.955 119.315 165.78C119.315 165.702 119.238 165.644 119.16 165.644C119.082 165.644 119.023 165.721 119.023 165.799C119.043 165.994 121.028 184.836 120.873 190.909C120.873 190.948 120.892 190.987 120.912 191.007C120.97 191.065 125.972 196.087 129.515 205.061C129.535 205.139 129.593 205.177 129.651 205.177Z" fill="#350502"/>
<path d="M126.214 225.363C126.72 225.363 127.168 225.305 127.518 225.169C129.679 224.351 131.879 221.178 132.754 219.621C132.793 219.543 132.774 219.465 132.696 219.426C132.618 219.388 132.54 219.407 132.501 219.485C131.82 220.711 129.582 224.079 127.421 224.896C125.358 225.675 118.155 223.514 116.151 221.1L110.953 210.648C115.528 212.497 120.121 212.536 123.625 210.745C126.623 209.227 128.92 203.465 129.017 203.212C129.056 203.134 129.017 203.056 128.939 203.017C128.861 202.978 128.784 203.017 128.745 203.095C128.725 203.153 126.389 208.993 123.489 210.472C119.985 212.263 115.314 212.166 110.7 210.2C110.642 210.18 110.583 210.18 110.545 210.239C110.506 210.278 110.486 210.356 110.525 210.414L115.917 221.237C117.435 223.086 123.061 225.363 126.214 225.363Z" fill="#350502"/>
<path d="M139.915 259.388C139.993 259.388 140.051 259.33 140.051 259.271C140.071 259.193 140.013 259.116 139.935 259.096C134.212 257.967 131.623 255.592 131.35 255.339C131.175 254.814 128.859 248.118 127.652 245.101C126.815 243.018 122.163 233.402 119.087 227.037C117.588 223.961 116.421 221.528 116.362 221.373C116.362 221.295 116.284 221.236 116.206 221.256C116.129 221.275 116.07 221.353 116.09 221.431C116.109 221.509 116.459 222.268 118.834 227.154C121.91 233.519 126.562 243.115 127.399 245.198C128.645 248.293 131.078 255.378 131.097 255.456C131.097 255.476 131.117 255.495 131.136 255.515C131.234 255.612 133.764 258.181 139.896 259.388H139.915Z" fill="#350502"/>
<path d="M72.316 254.911C72.3354 254.911 72.3354 254.911 72.316 254.911C77.4743 254.483 80.9001 252.595 80.9391 252.576C80.9974 252.537 81.0169 252.498 81.0169 252.42C80.8806 251.349 79.6543 246.016 79.518 245.471C79.6153 245.081 80.4914 241.714 81.1921 238.969L81.3867 238.191C82.321 234.531 84.7932 224.818 84.8516 218.492C84.9294 211.718 82.0485 206.462 82.0096 206.404C81.9707 206.326 81.8734 206.307 81.815 206.346C81.7371 206.385 81.7176 206.482 81.7566 206.54C81.776 206.599 84.6374 211.776 84.5596 218.472C84.4817 224.76 82.0291 234.453 81.0948 238.113L80.9001 238.892C80.1799 241.792 79.2261 245.373 79.2261 245.412C79.2261 245.432 79.2261 245.471 79.2261 245.49C79.2456 245.549 80.5303 251.038 80.7055 252.342C80.141 252.634 76.9292 254.211 72.316 254.6C72.2381 254.6 72.1797 254.678 72.1797 254.756C72.1797 254.853 72.2381 254.911 72.316 254.911Z" fill="#350502"/>
<path d="M74.3408 221.918C76.1121 221.918 84.3459 220.205 84.6963 220.127C84.7741 220.108 84.8325 220.03 84.8131 219.952C84.7936 219.874 84.7157 219.816 84.6378 219.835C84.56 219.855 76.2095 221.587 74.3797 221.607L68.8126 218.531L68.0145 214.151C67.9951 214.073 67.9172 214.015 67.8393 214.035C67.7614 214.054 67.7031 214.132 67.7225 214.21L68.5207 218.667C68.5207 218.706 68.5596 218.745 68.5985 218.765L74.2629 221.899C74.2824 221.899 74.3018 221.918 74.3408 221.918Z" fill="#350502"/>
<path d="M9.90576 70.8479C16.8548 69.9331 33.0109 69.7968 33.1861 69.7968C33.264 69.7968 33.3419 69.7189 33.3419 69.6411C33.3419 69.5632 33.2834 69.4854 33.1861 69.4854C33.0304 69.4854 16.8354 69.6411 9.88627 70.5365C9.80841 70.5365 9.75 70.6143 9.75 70.6922C9.76947 70.7895 9.82789 70.8479 9.90576 70.8479Z" fill="#350502"/>
<path d="M4.06596 77.8359C4.08542 77.8359 4.08542 77.8359 4.06596 77.8359C4.14382 77.8164 10.1001 77.0962 17.8473 77.0962C17.8473 77.0962 17.8473 77.0962 17.8668 77.0962C25.6334 77.0962 42.4514 76.5706 42.6266 76.5512C42.685 76.5512 42.724 76.5317 42.7629 76.4733C42.7824 76.4344 42.7824 76.376 42.7629 76.3371C34.568 61.816 38.6168 53.8742 40.3297 50.4872C40.466 50.2147 40.6023 49.9616 40.6996 49.7475C40.7385 49.6697 40.6995 49.5918 40.6216 49.5529C40.5438 49.5139 40.466 49.5529 40.427 49.6307C40.3297 49.8449 40.1934 50.0979 40.0572 50.3704C38.3248 53.7963 34.276 61.777 42.3736 76.2981C40.2713 76.3565 25.1078 76.8237 17.8668 76.8237C17.8668 76.8237 17.8667 76.8237 17.8473 76.8237C10.0806 76.8237 4.12435 77.5634 4.06596 77.5634C3.9881 77.5634 3.92969 77.6412 3.92969 77.7191C3.92969 77.7775 3.9881 77.8359 4.06596 77.8359Z" fill="#350502"/>
<path d="M11.4798 65.631H11.4993C20.1808 64.2684 33.0472 64.249 33.164 64.249C33.2419 64.249 33.3198 64.1711 33.3198 64.0932C33.3198 64.0154 33.2614 63.9375 33.164 63.9375C33.0278 63.9375 20.1613 63.957 11.4409 65.3195C11.363 65.339 11.3046 65.4169 11.3241 65.4947C11.3436 65.5921 11.402 65.631 11.4798 65.631Z" fill="#350502"/>
<path d="M14.05 61.057C14.0695 61.057 14.0889 61.057 14.1083 61.0375C18.488 59.3441 33.3983 57.3197 33.5346 57.3002C33.6125 57.2808 33.6709 57.2224 33.6709 57.125C33.6514 57.0472 33.5931 56.9888 33.4958 56.9888C33.34 57.0082 18.4101 59.0521 13.9915 60.7456C13.9137 60.7845 13.8748 60.8624 13.9137 60.9402C13.9332 61.0375 13.9916 61.057 14.05 61.057Z" fill="#350502"/>
<path d="M29.1184 91.4812C29.8192 91.4812 33.2644 91.3838 33.3034 90.2938C33.3228 89.632 31.8046 89.2037 30.442 88.9312C31.4932 88.8728 32.661 88.7171 33.0893 88.3278C33.2255 88.211 33.2839 88.0747 33.2839 87.919C33.3033 87.2767 32.2522 86.7706 31.2401 86.4397C32.6416 86.4981 33.0309 86.245 33.1866 86.0114C33.3423 85.7973 33.3229 85.5053 33.1477 85.1355C32.7974 84.4153 30.734 83.5588 28.5733 82.7218L28.515 82.7023C28.4371 82.6829 28.3592 82.7023 28.3203 82.7802C28.2813 82.8581 28.3203 82.9359 28.3982 82.9748L28.4565 82.9943C29.6828 83.4615 32.5248 84.5515 32.8752 85.2717C33.0504 85.6027 32.9919 85.7584 32.9335 85.8362C32.7389 86.0893 31.9603 86.3229 29.352 85.9336C29.2741 85.9336 29.1962 85.9725 29.1767 86.0504C29.1573 86.1282 29.2157 86.2061 29.2935 86.2256C30.734 86.4981 32.992 87.1988 32.9725 87.8996C32.9725 87.9774 32.9336 88.0358 32.8752 88.0942C32.2523 88.6782 29.4687 88.6782 28.4565 88.6392C28.3592 88.6392 28.3008 88.6976 28.3008 88.7755C28.3008 88.8534 28.3592 88.9312 28.4371 88.9312C30.3446 89.1259 33.0114 89.6709 32.992 90.2549C32.9725 90.8388 30.6951 91.1308 29.0989 91.1503C29.0211 91.1503 28.9432 91.2281 28.9432 91.306C28.9821 91.4033 29.0405 91.4812 29.1184 91.4812Z" fill="#350502"/>
<path d="M94.1953 38.1852C94.1953 39.5867 94.5651 40.7351 95.0128 40.7351C95.4605 40.7351 95.8303 39.5867 95.8303 38.1852C95.8303 36.7837 95.4605 35.6353 95.0128 35.6353C94.5651 35.6547 94.1953 36.7837 94.1953 38.1852Z" fill="#350502"/>
<path d="M83.4023 36.5309C83.4023 37.9324 83.7723 39.0809 84.22 39.0809C84.6677 39.0809 85.0375 37.9324 85.0375 36.5309C85.0375 35.1294 84.6677 33.981 84.22 33.981C83.7917 33.981 83.4023 35.1294 83.4023 36.5309Z" fill="#350502"/>
<path d="M90.4084 48.0542C90.7393 48.7355 90.8366 50.8182 89.0653 50.8572C87.2745 50.9156 86.4959 48.3462 86.418 47.2366L88.5786 46.3218L90.4084 48.0542Z" fill="white"/>
<path d="M92.3586 42.954C94.1884 44.4334 95.5704 47.0028 97.9452 47.2948C97.9452 47.2948 100.943 47.5089 94.5777 48.4821C89.7309 49.2218 88.5629 46.302 88.5629 46.302C88.5629 46.302 86.7332 47.8787 83.5215 47.139C80.3097 46.3993 79.4727 43.4796 79.4727 43.4796C79.4727 43.4796 80.952 43.9662 81.9836 42.8956C83.0153 41.8055 84.2027 40.6182 86.1882 42.4479C86.1882 42.4479 85.9351 43.791 86.2855 44.0246C86.2855 44.044 90.5289 41.4746 92.3586 42.954Z" fill="#603423"/>
<path d="M86.283 44.2C86.3025 44.2 86.3219 44.2 86.3609 44.1806C86.3803 44.1806 87.8208 43.363 88.6189 43.11C88.6967 43.0905 88.7357 43.0127 88.7162 42.9348C88.6967 42.8569 88.6188 42.818 88.5215 42.8375C87.8402 43.0516 86.7502 43.6161 86.3609 43.8497C85.6406 41.6306 88.3658 35.1098 88.6967 34.4285C88.7356 34.3506 88.6966 34.2728 88.6383 34.2338C88.5604 34.1949 88.4826 34.2144 88.4436 34.2922C88.4047 34.3701 85.0957 41.7669 86.1662 44.1222C86.1857 44.1611 86.2051 44.2 86.2441 44.2C86.2441 44.2 86.2636 44.2 86.283 44.2Z" fill="#350502"/>
<path d="M95.421 47.5286C95.674 47.5286 95.9075 47.5286 96.0633 47.5091H96.1217C96.1996 47.5091 96.2775 47.4313 96.2775 47.3534C96.2775 47.2756 96.219 47.1977 96.1217 47.1977H96.0633C94.8175 47.2366 90.6325 47.2366 89.6398 45.3874C89.6008 45.3096 89.5035 45.2901 89.4452 45.329C89.3673 45.368 89.3478 45.4458 89.3867 45.5237C90.321 47.295 93.7081 47.5286 95.421 47.5286Z" fill="#350502"/>
<path d="M84.8028 45.9518C86.8271 45.9518 88.5401 45.2121 88.5595 45.2121C88.6374 45.1732 88.6568 45.0953 88.6374 45.0175C88.5984 44.9396 88.5206 44.9007 88.4428 44.9396C88.4038 44.9591 83.9658 46.8667 80.9487 44.3751C80.8903 44.3167 80.7929 44.3362 80.7345 44.3946C80.6761 44.453 80.6956 44.5503 80.754 44.6087C81.9997 45.6403 83.4791 45.9518 84.8028 45.9518Z" fill="#350502"/>
<path d="M20.9258 93.6417C20.9842 94.1673 21.0815 94.7123 21.1983 95.2573C21.938 98.5275 24.6242 101.661 24.6242 101.661C25.4807 99.9095 27.0379 93.8558 27.0379 93.8558C28.2253 94.3035 32.2935 93.8558 32.4492 92.4543C32.4686 92.3181 32.4492 92.2013 32.3908 92.0845C30.5416 93.4081 27.1547 93.5638 25.617 92.2207C25.6364 92.2207 23.067 94.2257 20.9258 93.6417Z" fill="#F3938D"/>
<path d="M103.574 11.401C103.593 11.401 103.593 11.401 103.574 11.401C103.671 11.401 103.729 11.3232 103.729 11.2453C103.729 11.1869 103.087 4.84122 107.467 3.59545C111.691 2.40807 114.124 3.71225 116.168 8.24765C116.207 8.32551 116.285 8.36443 116.362 8.3255C116.44 8.28657 116.479 8.20872 116.44 8.13085C114.338 3.49813 111.71 2.09663 107.389 3.30347C102.756 4.60765 103.437 11.2064 103.437 11.2648C103.437 11.3426 103.496 11.401 103.574 11.401Z" fill="#350502"/>
<path d="M122.943 26.9148C122.982 26.9148 123.021 26.8954 123.06 26.8759C123.118 26.8175 123.118 26.7202 123.06 26.6618C120.451 24.1508 118.018 19.0119 117.999 18.9535C117.96 18.8757 117.882 18.8562 117.804 18.8757C117.726 18.9146 117.687 18.9925 117.726 19.0703C117.746 19.1287 120.198 24.3259 122.846 26.8564C122.865 26.9148 122.904 26.9148 122.943 26.9148Z" fill="#350502"/>
<path d="M103.802 7.89733C103.822 7.89733 103.841 7.89733 103.861 7.89733C103.938 7.87787 103.977 7.78054 103.938 7.70268C103.919 7.66375 102.77 4.49091 103.646 3.10888C103.685 3.03102 103.666 2.95316 103.607 2.89477C103.549 2.85583 103.452 2.8753 103.413 2.9337C102.459 4.45199 103.627 7.64428 103.666 7.78054C103.685 7.8584 103.744 7.89733 103.802 7.89733Z" fill="#350502"/>
<path d="M111.166 6.06764C111.186 6.06764 111.205 6.06764 111.205 6.06764C111.283 6.02871 111.322 5.95085 111.303 5.87299C110.66 4.00433 107.585 3.34251 107.449 3.30358C107.371 3.28411 107.293 3.34251 107.273 3.42037C107.254 3.49823 107.312 3.57609 107.39 3.59555C107.429 3.59555 110.446 4.25737 111.03 5.97031C111.05 6.00925 111.108 6.06764 111.166 6.06764Z" fill="#350502"/>
<path d="M119.575 17.7854C119.595 17.7854 119.634 17.7854 119.653 17.766C119.731 17.727 119.751 17.6297 119.712 17.5713C118.641 15.8 117.999 12.1405 117.999 12.121C117.979 12.0432 117.902 11.9848 117.824 12.0043C117.746 12.0237 117.687 12.1016 117.707 12.1794C117.726 12.3352 118.369 15.9362 119.459 17.7465C119.478 17.766 119.537 17.7854 119.575 17.7854Z" fill="#350502"/>
<path d="M123.835 16.3258H123.855C123.894 16.3258 127.534 15.7419 129.422 15.0217C129.5 15.0022 129.539 14.9049 129.519 14.827C129.5 14.7492 129.402 14.7102 129.325 14.7492C127.475 15.4499 123.855 16.0339 123.816 16.0339C123.738 16.0533 123.68 16.1117 123.699 16.2091C123.699 16.2869 123.757 16.3258 123.835 16.3258Z" fill="#350502"/>
<path d="M129.985 20.686C130.043 20.686 130.102 20.6471 130.121 20.5887C130.14 20.5109 130.102 20.433 130.024 20.3941C128.642 19.9269 126.715 17.2212 126.695 17.2018C126.656 17.1434 126.559 17.1239 126.481 17.1628C126.423 17.2018 126.403 17.2991 126.442 17.377C126.52 17.4937 128.428 20.1799 129.907 20.686C129.965 20.6666 129.965 20.686 129.985 20.686Z" fill="#350502"/>
<path d="M93.8214 80.5025C93.9966 80.8139 94.308 80.7945 94.6584 80.5804C95.7679 79.9185 97.3641 77.5243 97.3641 77.68C97.3641 77.8552 95.6901 79.9185 95.4176 81.4758C95.3203 81.9624 95.3787 82.4101 95.6512 82.7215C96.5855 83.7727 97.6561 82.0792 98.0648 81.3006C97.4809 82.5658 95.8069 86.9066 99.0381 89.2424C99.0381 89.2424 100.42 88.8141 101.841 87.3543C102.075 87.1207 102.308 86.8676 102.542 86.5757C104.177 84.4929 104.391 81.2422 104.391 81.2422C103.943 80.4246 101.063 74.6435 100.537 73.1641C100.011 71.6847 98.9019 70.0496 97.5004 70.945C96.1184 71.8404 93.0817 79.2567 93.8214 80.5025Z" fill="#F2B5AA"/>
<path d="M95.6642 82.7409C96.5985 83.792 97.6691 82.0985 98.0778 81.3199C97.4939 82.5852 95.8199 86.9259 99.0511 89.2617C99.0511 89.2617 100.433 88.8335 101.854 87.3736C100.453 86.4587 97.7858 83.8893 99.0511 80.4829C99.0511 80.4829 96.7347 82.0012 95.4306 81.4951C95.3333 81.9817 95.3722 82.41 95.6642 82.7409Z" fill="#F3938D"/>
<path d="M117.838 96.3281C117.857 96.3281 117.896 96.3281 117.916 96.3086C117.994 96.2697 118.013 96.1724 117.955 96.0945C117.935 96.0751 116.281 93.564 111.979 88.9118C107.696 84.2791 104.543 81.1647 104.504 81.1452C104.465 81.1063 104.407 81.0868 104.348 81.1063C104.29 81.1257 104.251 81.1841 104.251 81.2425C104.251 81.262 104.018 84.0261 103.083 85.4276C102.188 86.7707 101.584 87.6271 100.669 88.2111C99.7741 88.7756 98.9759 89.126 98.9759 89.1454C98.898 89.1844 98.8592 89.2622 98.8981 89.3401C98.937 89.4179 99.015 89.4374 99.0928 89.4179C99.0928 89.4179 99.9103 89.0481 100.825 88.4641C101.779 87.8607 102.402 86.9848 103.336 85.6027C104.115 84.4154 104.426 82.3715 104.524 81.5929C105.302 82.3715 108.125 85.194 111.765 89.126C116.047 93.7587 117.701 96.2502 117.721 96.2697C117.76 96.3086 117.799 96.3281 117.838 96.3281Z" fill="#350502"/>
<path d="M99.1693 89.3591C99.2277 89.3591 99.2667 89.3202 99.3056 89.2812C99.3445 89.2034 99.3056 89.106 99.2472 89.0866C99.2277 89.0671 97.4758 88.1523 97.3979 86.4393C97.3201 84.629 97.6316 82.8382 98.3518 81.1253C98.3908 81.0474 98.3518 80.9696 98.2739 80.9306C98.196 80.8917 98.1182 80.9307 98.0793 81.0085C97.8068 81.5341 96.9697 82.9356 96.3079 82.9745C96.1132 82.994 95.9576 82.8772 95.8019 82.6436C95.5488 82.2543 95.2373 81.3978 96.1133 80.0547C96.3663 79.6654 96.5999 79.2761 96.8335 78.8673C97.3591 77.9525 97.9041 77.0181 98.78 76.0643C98.8384 76.0059 98.8384 75.9086 98.78 75.8502C98.7216 75.7918 98.6243 75.7918 98.5659 75.8697C97.6705 76.8235 97.1255 77.7967 96.5804 78.7116C96.3468 79.1204 96.1133 79.5097 95.8602 79.899C94.887 81.3784 95.2374 82.3711 95.5488 82.8188C95.763 83.1302 96.0159 83.2859 96.3274 83.2665C96.7945 83.247 97.2618 82.7798 97.6121 82.3127C97.2034 83.6752 97.0476 85.0573 97.106 86.4393C97.1839 88.308 99.033 89.2812 99.1109 89.3396C99.1304 89.3396 99.1499 89.3591 99.1693 89.3591Z" fill="#350502"/>
<path d="M105.813 33.3776L104.801 39.879L107.234 40.5213L108.538 34.3314L111.088 35.0905L109.492 22.0488L108.908 23.1194L104.529 31.1975L103.75 32.6379L105.813 33.3776Z" fill="#769CB7"/>
<path d="M104.527 31.1972L107.272 32.2873C107.272 32.2873 108.167 26.6618 108.888 23.1191L104.527 31.1972Z" fill="#8BAEC9"/>
<path d="M23.7852 171.658C30.1892 172.34 36.126 172.164 41.0702 171.678C43.0167 165.955 45.0996 158.85 46.9682 150.266C51.7956 128.173 34.2769 112.523 24.116 105.613C22.7729 111.958 19.2691 116.241 13.5853 122.47C5.72131 131.073 1.34168 136.348 0.134838 149.682C-1.07201 163.016 6.88933 169.887 23.7852 171.658Z" fill="#9CBFD8"/>
<path d="M69.0657 236.887C69.1241 236.887 69.2019 236.848 69.2019 236.77L98.1467 87.9968C98.1662 87.919 98.1078 87.8411 98.03 87.8216C97.9521 87.8022 97.8743 87.8606 97.8548 87.9384L68.91 236.711C68.8906 236.789 68.9489 236.867 69.0268 236.887C69.0463 236.887 69.0657 236.887 69.0657 236.887Z" fill="#350502"/>
<path opacity="0.3" d="M93.043 169.965C94.1525 172.846 96.936 180.009 99.3692 184.992C102.484 191.377 110.64 210.336 110.64 210.336C111.71 211.017 113.209 211.445 114.864 211.679C116.07 211.835 117.316 211.874 118.523 211.815C115.311 202.569 106.766 182.89 103.087 169.245C101.257 169.498 98.9994 169.712 96.2353 169.848C95.2426 169.906 94.172 169.945 93.043 169.965Z" fill="#411E59"/>
</svg>
