<svg width="364" height="253" viewBox="0 0 364 253" fill="none" xmlns="http://www.w3.org/2000/svg">
<path d="M13.5134 178.073C10.0216 179.198 1.42805 177.724 0.244733 166.705C0.128341 165.638 0.0701443 164.513 0.031347 163.349C0.031347 163.117 0.0119479 162.884 0.0119479 162.632C-0.0656467 158.771 0.244731 154.542 0.652103 150.74C0.671502 150.507 0.710301 150.294 0.729699 150.061C1.42805 143.951 2.39798 139.024 2.47558 138.558C2.47558 138.539 2.47558 138.539 2.47558 138.539C2.47558 138.539 2.66956 138.733 2.99934 139.062C4.47363 140.517 8.72194 144.882 12.4465 149.867C12.5435 150.003 12.6405 150.12 12.7375 150.255C14.7355 152.971 16.5396 155.842 17.6453 158.519C17.8587 159.043 18.0721 159.586 18.2467 160.11C18.3049 160.284 18.3631 160.44 18.4213 160.595C21.2341 168.665 20.3999 175.881 13.5134 178.073Z" fill="#3C1E87"/>
<path d="M12.4622 174.717C12.4622 174.737 12.4816 174.756 12.4816 174.756V174.795C12.4816 174.833 12.4816 174.872 12.4622 174.892C12.4428 174.911 12.4428 174.95 12.404 174.95C12.3846 174.95 12.3652 174.969 12.3458 174.969C12.3264 174.969 12.3264 174.969 12.2876 174.969C12.21 174.969 12.1518 174.911 12.113 174.833C12.113 174.833 12.113 174.814 12.0936 174.795C10.6581 171.284 6.9142 163.64 3.92681 157.472C2.6271 154.814 1.44378 152.389 0.648438 150.721C0.667836 150.488 0.706635 150.275 0.726034 150.042C1.50198 151.71 2.80169 154.368 4.25659 157.336C6.70082 162.38 9.64941 168.413 11.4341 172.37V172.389C11.6475 172.874 11.8609 173.32 12.0354 173.728C12.016 173.514 12.016 173.282 11.9966 173.029V173.01C11.6863 168.51 11.0849 156.715 12.4816 149.829C12.5786 149.964 12.6756 150.081 12.7726 150.217C11.1625 158.461 12.3652 173.437 12.4622 174.717Z" fill="#FFC525"/>
<path d="M12.4514 174.891C12.432 174.911 12.432 174.95 12.3932 174.95C12.3738 174.95 12.3544 174.969 12.335 174.969C12.3156 174.969 12.3156 174.969 12.2768 174.969C12.1992 174.969 12.141 174.911 12.1022 174.833C12.1022 174.833 12.1022 174.814 12.0828 174.794C12.0246 174.581 11.7724 173.708 11.4038 172.37V172.35C10.2593 168.16 7.93149 159.586 6.49599 153.339C4.75011 145.813 3.68318 142.049 2.48047 138.519C2.48047 138.5 2.48047 138.5 2.48047 138.5C2.48047 138.5 2.67445 138.694 3.00423 139.023C4.14875 142.399 5.19628 146.143 6.84516 153.262C8.37766 159.896 10.9189 169.169 11.9858 172.99C11.9858 173.01 11.9858 173.01 11.9858 173.01C12.238 173.921 12.4126 174.523 12.4514 174.697C12.4514 174.717 12.4708 174.736 12.4708 174.736C12.4902 174.814 12.4902 174.853 12.4514 174.891Z" fill="#FFC525"/>
<path d="M18.2698 160.051C16.0389 165.134 13.2261 174.717 12.7993 176.191C10.3163 175.434 4.6907 170.391 0.015625 162.631C0.015625 162.864 0.0156254 163.116 0.0350241 163.349C4.51611 170.585 10.0835 175.919 12.8963 176.598C12.9157 176.598 12.9157 176.598 12.9351 176.598C13.0127 176.598 13.0903 176.54 13.1097 176.463C13.1485 176.346 15.3212 168.819 17.4162 163.213C17.7654 162.263 18.134 161.351 18.4637 160.556C18.4055 160.381 18.3279 160.226 18.2698 160.051Z" fill="#FFC525"/>
<path d="M309.366 120.245C308.648 110.643 307.464 103.31 306.514 94.4255C305.738 87.1316 303.837 81.5836 301.548 76.2878C299.569 76.8503 297.009 76.1132 294.875 73.7466C294.875 73.766 294.875 73.766 294.875 73.766C294.875 73.766 293.129 73.2228 290.762 72.3887C291.15 74.9687 291.79 78.1501 292.78 82.0686C295.34 92.1947 299.181 108.878 298.017 118.286C297.94 118.848 297.862 119.392 297.765 119.896C296.388 126.394 292.663 133.766 286.805 138.965H286.824C286.669 139.12 286.456 139.314 286.204 139.508C285.835 139.818 285.369 140.187 284.826 140.594C284.807 140.614 284.787 140.614 284.768 140.653C284.574 140.788 284.38 140.924 284.186 141.06C284.167 141.06 284.167 141.079 284.147 141.079C284.089 141.118 284.05 141.157 283.992 141.196C283.759 141.351 283.527 141.506 283.294 141.661C283.177 141.739 283.08 141.816 282.964 141.875C282.673 142.049 282.363 142.224 282.072 142.398C281.975 142.457 281.858 142.534 281.761 142.592C281.47 142.748 281.16 142.903 280.85 143.058C280.733 143.116 280.617 143.194 280.481 143.252C280.054 143.465 279.627 143.659 279.181 143.834C278.696 144.028 278.211 144.222 277.707 144.396C277.571 144.455 277.435 144.493 277.3 144.552C276.931 144.687 276.543 144.804 276.155 144.94C276 144.998 275.845 145.037 275.689 145.095C275.301 145.211 274.894 145.328 274.506 145.444C274.351 145.483 274.215 145.522 274.079 145.56C273.575 145.696 273.071 145.832 272.547 145.948C272.508 145.948 272.469 145.968 272.431 145.987C271.868 146.123 271.286 146.239 270.704 146.375C270.568 146.394 270.413 146.433 270.258 146.453C269.831 146.53 269.404 146.627 268.978 146.705C268.764 146.744 268.531 146.782 268.318 146.821C267.949 146.879 267.6 146.938 267.232 146.996C266.979 147.035 266.727 147.073 266.475 147.112C266.145 147.17 265.796 147.209 265.466 147.248C265.195 147.287 264.923 147.326 264.632 147.345C264.341 147.384 264.07 147.403 263.779 147.442C263.1 147.52 262.421 147.578 261.742 147.636C261.567 147.655 261.393 147.675 261.218 147.675C260.791 147.714 260.345 147.733 259.918 147.772C259.763 147.791 259.608 147.791 259.472 147.811C259.007 147.83 258.522 147.869 258.056 147.888C257.979 147.888 257.92 147.888 257.843 147.908C255.825 148.005 253.788 148.024 251.752 148.005C251.577 148.005 251.402 148.005 251.228 148.005C250.413 147.985 249.598 147.966 248.764 147.946C248.628 147.946 248.493 147.946 248.357 147.927C248.299 147.927 248.24 147.927 248.202 147.927C246.262 147.849 244.302 147.714 242.401 147.539C242.13 147.52 241.839 147.481 241.567 147.461C241.625 147.946 241.703 148.451 241.781 148.994C241.8 149.188 241.839 149.362 241.858 149.518V149.576C242.149 151.399 242.537 153.514 242.964 155.764C243.585 159.023 244.302 162.495 244.962 165.657C245.078 166.181 245.195 166.724 245.292 167.229C245.331 167.461 245.389 167.675 245.428 167.908C245.428 167.927 245.428 167.946 245.447 167.946C245.719 169.227 245.99 170.429 246.223 171.496C246.242 171.574 246.262 171.632 246.262 171.71C246.281 171.826 246.301 171.923 246.32 172.02C246.844 174.426 247.193 175.997 247.212 176.094C246.941 175.919 241.606 172.583 230.51 174.154C219.142 175.764 213.633 187.132 213.633 187.132C213.633 187.132 208.473 175.589 193.556 177.723C178.619 179.857 164.768 199.741 164.768 199.741C164.768 199.741 159.492 189.847 147.406 189.731C145.428 191.458 143.759 192.893 142.498 193.882C140.403 195.512 136.271 198.034 130.84 200.769C119.317 206.627 102.072 213.533 86.6885 215.318C64.0503 217.917 44.5158 210.798 35.1463 202.515C25.7767 194.212 16.3102 179.76 14.2927 173.611C12.2753 167.442 9.55947 159.042 8.95811 159.042C8.53134 159.042 8.47314 166.356 10.6458 177.374C11.4993 181.642 12.6632 186.453 14.2927 191.613C20.0929 210.1 30.5294 219.818 44.2636 228.218C57.9979 236.637 75.1851 241.603 99.123 240.905C123.042 240.187 159.783 225.502 169.618 217.568C169.618 217.568 171.868 223.853 174.235 229.188C176.601 234.523 181.936 245.774 181.936 245.774C181.936 245.774 179.104 249.576 178.968 252.292H199.938C199.938 252.292 192.469 244.707 190.704 242.224C188.919 239.741 186.669 231.69 186.669 227.054C186.669 227.054 195.554 228.839 203.856 226.588C210.568 224.765 219.181 219.857 225.137 214.717C226.553 213.494 227.814 212.272 228.861 211.07C234.312 204.784 240.947 196.85 246.165 194.135C250.685 191.768 261.761 187.461 270.801 186.433H270.82C270.782 186.918 270.782 187.423 270.782 187.908V187.927C270.743 190.914 271.014 193.844 271.771 196.734C272.469 199.43 273.09 201.739 273.517 203.698C274.196 206.821 274.332 209.072 273.323 210.604C271.965 212.621 269.21 214.969 268.415 222.01C268.24 223.601 268.163 225.425 268.221 227.539C268.57 239.042 269.404 240.808 269.404 240.808C269.404 240.808 265.854 245.774 264.535 249.925H290.258C290.258 249.925 282.557 241.875 280.888 239.974C280.888 239.974 284.322 230.701 287.115 220.362C287.988 217.122 288.803 213.785 289.424 210.604C291.616 199.411 292.217 193.688 294.157 188.296C297.746 182.515 305.699 168.606 307.794 156.23C310.432 140.032 310.064 129.847 309.366 120.245Z" fill="#B60E06"/>
<path d="M342.729 172.408C342.709 172.564 342.69 172.719 342.67 172.855C341.08 183.679 336.094 193.146 331.671 198.015C331.419 198.286 331.167 198.558 330.915 198.81C330.488 199.217 330.003 199.683 329.44 200.149C327.908 201.448 325.852 202.942 323.485 204.494C323.485 204.494 323.485 204.494 323.466 204.494C323.252 204.63 323.039 204.785 322.806 204.921C322.806 204.921 322.806 204.921 322.787 204.921C317.568 208.315 311.031 211.982 305.173 214.756C301.274 216.599 297.685 218.034 295.008 218.694C292.816 219.256 290.1 219.799 287.016 220.284C287.889 217.045 288.703 213.708 289.324 210.527C291.245 200.711 291.943 195.085 293.398 190.236C293.456 190.081 293.495 189.925 293.534 189.77C293.689 189.246 293.863 188.723 294.057 188.218C296.599 184.106 301.351 175.92 304.63 167.093C304.668 166.977 304.707 166.86 304.765 166.744C306.065 163.233 307.113 159.625 307.695 156.133C308.257 152.777 308.703 149.673 309.014 146.763C309.033 146.647 309.033 146.531 309.052 146.414C310.081 136.948 309.964 129.751 309.537 123.058C309.518 122.942 309.518 122.806 309.518 122.69C309.46 121.875 309.402 121.041 309.343 120.245C308.897 114.329 308.277 109.266 307.656 104.164C307.636 104.048 307.617 103.912 307.598 103.795C307.229 100.75 306.841 97.6849 306.492 94.4065C306.298 92.6219 306.046 90.9536 305.735 89.3629C305.716 89.2271 305.677 89.1107 305.658 88.9749C304.688 84.2028 303.214 80.1679 301.526 76.2688C301.642 76.23 301.759 76.1912 301.875 76.1524C305.309 74.8527 309.518 76.4822 310.934 79.198C311.283 79.8769 311.962 80.6335 312.816 81.4288C313.592 83.3299 314.717 85.8517 316.036 88.7227C316.075 88.8197 316.133 88.9361 316.191 89.0525C317.956 92.9516 320.071 97.4521 322.127 101.914C322.185 102.03 322.224 102.127 322.282 102.224C322.476 102.632 322.651 103.019 322.826 103.407C325.58 109.343 328.16 115.027 329.712 118.888C329.751 119.004 329.809 119.12 329.848 119.237C329.906 119.334 329.945 119.45 329.984 119.567C332.137 124.882 335.512 132.816 338.306 141.312C338.344 141.429 338.383 141.565 338.422 141.681C340.789 148.975 342.748 156.657 343.117 163.427C343.291 166.511 343.136 169.499 342.729 172.408Z" fill="#E43417"/>
<path d="M342.728 172.409C342.709 172.564 342.689 172.719 342.67 172.855C341.079 183.679 336.094 193.146 331.671 198.015C331.419 198.286 331.166 198.558 330.914 198.81C330.487 199.218 330.002 199.683 329.44 200.149C312.195 207.443 307.267 186.996 316.132 167.889C324.765 149.305 324.202 122.903 322.864 103.466C325.618 109.402 328.198 115.086 329.75 118.946C329.789 119.062 329.847 119.179 329.886 119.295C329.944 119.392 329.983 119.509 330.022 119.625C332.175 124.94 335.55 132.874 338.344 141.371C338.383 141.487 338.421 141.623 338.46 141.739C340.827 149.033 342.786 156.715 343.155 163.485C343.291 166.511 343.135 169.499 342.728 172.409Z" fill="#EF3820"/>
<path d="M297.746 119.896C297.863 119.392 297.94 118.849 297.999 118.286C297.048 114.93 294.158 105.231 289.871 95.4348C289.405 94.3485 288.901 93.2428 288.377 92.1565C282.15 79.0042 272.645 64.3 273.809 67.9275C274.972 71.5551 279.318 87.8887 279.667 100.866C279.822 106.337 279.318 113.029 278.697 118.946C277.843 127.093 276.738 133.747 276.738 133.747C282.131 137.181 286.553 138.849 286.767 138.927C292.645 133.767 296.369 126.395 297.746 119.896Z" fill="#CD1B09"/>
<path d="M276.75 133.766C272.153 130.818 266.818 126.608 262.783 120.944C253.899 108.509 248.564 95.5318 247.497 84.1642C246.566 74.1545 245.868 62.2243 245.13 58.17C245.033 57.6074 244.936 57.2 244.82 56.9673C244.141 55.4154 233.802 77.588 232.735 83.0972C232.735 83.0972 212.638 90.2166 193.491 103.175C188.816 106.337 184.199 109.829 179.951 113.67C158.263 133.223 142.279 148.509 131.435 167.869C120.591 187.249 115.082 203.951 115.082 203.951C115.082 203.951 131.784 190.799 145.286 189.732C145.964 189.673 146.643 189.673 147.303 189.673C159.388 189.77 164.665 199.683 164.665 199.683C164.665 199.683 178.535 179.799 193.452 177.666C208.37 175.532 213.53 187.074 213.53 187.074C213.53 187.074 219.039 175.706 230.407 174.096C241.483 172.544 246.837 175.881 247.109 176.036C247.09 175.959 246.74 174.368 246.217 171.962C246.197 171.865 246.178 171.749 246.159 171.652C246.139 171.574 246.12 171.516 246.12 171.439C245.887 170.372 245.635 169.169 245.344 167.889C245.344 167.869 245.344 167.869 245.324 167.85C245.286 167.617 245.227 167.404 245.189 167.171C245.092 166.725 244.995 166.279 244.898 165.832C244.878 165.755 244.859 165.677 244.859 165.619C244.199 162.457 243.482 158.985 242.861 155.726C242.434 153.476 242.046 151.361 241.755 149.538V149.479C241.736 149.324 241.697 149.15 241.677 148.956C241.6 148.412 241.522 147.908 241.464 147.423C241.464 147.365 241.445 147.307 241.445 147.268C241.445 147.268 241.736 147.365 242.298 147.52C244.257 147.695 246.256 147.831 248.254 147.908C248.389 147.908 248.525 147.908 248.661 147.928C249.476 147.966 250.29 147.986 251.125 147.986C251.299 147.986 251.474 147.986 251.648 147.986C252.599 147.986 253.549 147.986 254.481 147.986C255.567 147.966 256.653 147.927 257.74 147.889C257.817 147.889 257.875 147.889 257.953 147.869C258.418 147.85 258.903 147.831 259.369 147.792C259.524 147.792 259.679 147.772 259.815 147.753C260.261 147.714 260.688 147.695 261.115 147.656C261.289 147.637 261.464 147.617 261.639 147.617C262.318 147.559 262.997 147.501 263.675 147.423C263.966 147.384 264.238 147.365 264.529 147.326C264.801 147.287 265.092 147.249 265.363 147.229C265.693 147.19 266.042 147.132 266.372 147.093C266.624 147.055 266.876 147.016 267.128 146.977C267.497 146.919 267.866 146.861 268.215 146.802C268.428 146.764 268.661 146.725 268.874 146.686C269.301 146.608 269.728 146.531 270.155 146.434C270.31 146.395 270.446 146.376 270.601 146.356C271.183 146.24 271.765 146.104 272.327 145.968C272.366 145.968 272.405 145.949 272.444 145.929C272.967 145.813 273.472 145.677 273.976 145.541C274.112 145.503 274.248 145.464 274.403 145.425C274.81 145.309 275.198 145.192 275.586 145.076C275.741 145.018 275.897 144.979 276.052 144.921C276.44 144.804 276.828 144.669 277.196 144.533C277.332 144.475 277.468 144.436 277.604 144.378C278.108 144.203 278.593 144.009 279.078 143.815C279.524 143.64 279.951 143.446 280.378 143.233C280.494 143.175 280.611 143.097 280.746 143.039C281.057 142.884 281.348 142.729 281.658 142.573C281.774 142.515 281.871 142.457 281.968 142.379C282.279 142.205 282.57 142.03 282.861 141.856C282.977 141.778 283.074 141.701 283.191 141.642C283.482 141.448 283.772 141.274 284.044 141.08C284.277 140.925 284.51 140.75 284.723 140.595C285.189 140.246 285.635 139.877 286.081 139.509C286.294 139.334 286.508 139.14 286.721 138.965C286.566 138.888 282.162 137.219 276.75 133.766Z" fill="#CD1B09"/>
<path d="M319.081 228.296C316.947 233.398 314.929 242.146 314.929 242.146C317.665 243.931 322.747 249.848 322.747 249.848H300.594C300.71 247.248 303.31 242.631 304.027 241.448C304.745 240.265 305.327 237.898 305.172 232.564C305.017 227.229 305.172 214.756 305.172 214.756C308.993 212.951 313.125 210.759 316.966 208.509C322.999 204.998 328.373 201.312 330.914 198.79C331.166 198.538 331.418 198.267 331.67 197.995C330.894 201.08 329.556 205.774 327.849 209.925C324.997 216.812 321.215 223.194 319.081 228.296Z" fill="#B60E06"/>
<path d="M307.849 240.595C307.48 244.048 307.403 247.248 307.441 249.848H300.594C300.71 247.248 303.31 242.632 304.027 241.448C304.745 240.265 305.327 237.898 305.172 232.564C305.017 227.229 305.172 214.756 305.172 214.756C308.993 212.952 313.125 210.76 316.966 208.509C311.806 220.711 308.683 232.68 307.849 240.595Z" fill="#A80000"/>
<path d="M274.622 222.787C271.499 234.057 273.089 245.095 274.059 249.848H264.438C265.737 245.697 269.307 240.731 269.307 240.731C269.307 240.731 268.472 238.965 268.123 227.462C268.065 225.347 268.143 223.524 268.317 221.933C269.093 214.911 271.867 212.564 273.225 210.527C274.234 208.994 274.098 206.764 273.419 203.621C274.176 201.177 272.857 200.634 271.77 196.308C270.955 193.029 270.703 190.488 270.703 187.85V187.83C270.703 187.345 270.703 186.841 270.723 186.356C270.781 184.28 270.955 182.05 271.091 179.256C271.44 172.156 276.309 163.718 276.309 163.718C279.51 160.963 277.92 182.826 276.853 190.76C275.766 198.674 278.618 208.393 274.622 222.787Z" fill="#A80000"/>
<path d="M238.03 235.881L237.196 243.349C240.397 244.649 249.165 250.469 249.165 250.469H227.846L230.581 243.718C230.581 243.718 222.511 226.298 222.278 224.048C222.046 221.797 230.096 218.151 232.424 217.316C235.392 218.189 239.291 219.159 244.16 220.032C245.964 220.362 247.904 220.672 249.999 220.963C253.53 221.448 257.138 221.739 260.707 221.875C254.422 232.932 238.03 235.881 238.03 235.881Z" fill="#B60E06"/>
<path d="M234.053 250.469H227.846L230.581 243.718C230.581 243.718 222.511 226.298 222.278 224.048C222.046 221.797 230.096 218.151 232.424 217.316C235.392 218.189 239.291 219.159 244.16 220.032C237.545 224.998 232.948 226.861 232.501 229.499C231.958 232.564 233.646 239.993 233.568 243.97C233.51 246.414 233.782 248.859 234.053 250.469Z" fill="#A80000"/>
<path d="M251.542 180.905C251.542 180.905 238.04 174.988 230.358 176.404C222.677 177.821 212.453 195.745 212.453 195.745C212.453 195.745 202.968 188.024 187.972 189.789C172.958 191.555 164.578 203 164.578 203C155.887 197.724 140.892 199.004 130.785 200.73C136.197 197.976 140.349 195.473 142.444 193.844C143.724 192.854 145.373 191.419 147.352 189.693C159.437 189.79 164.713 199.702 164.713 199.702C164.713 199.702 178.583 179.819 193.501 177.685C208.419 175.551 213.579 187.093 213.579 187.093C213.579 187.093 219.088 175.725 230.455 174.115C241.532 172.564 246.886 175.9 247.158 176.055C247.119 175.822 244.636 164.823 242.909 155.725C242.483 153.475 242.095 151.361 241.804 149.537V149.479C241.784 149.324 241.745 149.149 241.726 148.955C241.648 148.412 241.571 147.908 241.513 147.423C241.784 147.442 242.075 147.481 242.347 147.5C246.343 147.869 250.455 148.024 254.529 147.966C249.117 159.14 251.542 180.905 251.542 180.905Z" fill="#A80000"/>
<path d="M178.908 252.234C179.024 249.499 181.876 245.716 181.876 245.716C181.876 245.716 176.541 234.465 174.175 229.13C171.808 223.796 169.558 217.51 169.558 217.51C159.723 225.444 123.001 240.149 99.0632 240.847C75.1252 241.565 57.938 236.579 44.2038 228.16C30.4696 219.741 20.0331 210.042 14.2329 191.555C12.6034 186.395 11.4395 181.565 10.5859 177.316C16.8905 192.661 22.4579 207.132 39.2377 217.297C58.908 229.227 80.9448 232.797 104.398 230.41C127.851 228.044 155.804 218.364 167.191 208.994L185.445 195.726C185.445 195.726 182.012 204.882 181.178 207.52C181.178 207.52 172.642 211.167 170.955 211.885C169.286 212.603 171.575 217.258 175.358 224.863C178.19 230.527 185.717 245.173 189.344 252.234H178.908Z" fill="#A80000"/>
<path d="M278.712 118.965C279.333 113.048 279.838 106.356 279.682 100.886C279.333 87.9078 274.988 71.5741 273.824 67.9466C272.66 64.319 282.185 79.0232 288.392 92.1755C288.897 93.2618 289.401 94.3481 289.886 95.4538C287.248 104.765 281.933 113.902 278.712 118.965Z" fill="#D8170E"/>
<path d="M286.785 138.965C286.571 139.14 286.358 139.334 286.145 139.508C286.164 139.508 286.164 139.508 286.183 139.508C286.435 139.295 286.649 139.121 286.804 138.965C286.823 138.965 286.804 138.965 286.785 138.965Z" fill="#CD1B09"/>
<path d="M274.466 145.425C274.311 145.464 274.175 145.502 274.039 145.541C274.175 145.522 274.311 145.464 274.466 145.425Z" fill="#CD1B09"/>
<path d="M283.952 141.196C284.01 141.157 284.049 141.118 284.107 141.08C283.836 141.274 283.545 141.468 283.254 141.642C283.487 141.506 283.719 141.351 283.952 141.196Z" fill="#CD1B09"/>
<path d="M272.507 145.949C272.468 145.949 272.429 145.968 272.391 145.988C272.429 145.968 272.468 145.949 272.507 145.949Z" fill="#CD1B09"/>
<path d="M281.697 142.593C281.406 142.748 281.096 142.903 280.785 143.058C281.096 142.903 281.406 142.748 281.697 142.593Z" fill="#CD1B09"/>
<path d="M277.661 144.396C277.526 144.455 277.39 144.493 277.254 144.552C277.39 144.493 277.526 144.455 277.661 144.396Z" fill="#CD1B09"/>
<path d="M282.924 141.875C282.633 142.05 282.322 142.224 282.031 142.399C282.322 142.224 282.613 142.05 282.924 141.875Z" fill="#CD1B09"/>
<path d="M280.436 143.252C280.01 143.465 279.583 143.659 279.137 143.834C279.583 143.64 280.01 143.446 280.436 143.252Z" fill="#CD1B09"/>
<path d="M276.11 144.94C275.955 144.998 275.8 145.037 275.645 145.095C275.8 145.037 275.955 144.979 276.11 144.94Z" fill="#CD1B09"/>
<path d="M242.883 155.726C243.504 158.965 244.202 162.457 244.881 165.619C244.221 162.457 243.504 158.985 242.883 155.726Z" fill="#CD1B09"/>
<path d="M245.207 167.171C245.246 167.404 245.304 167.617 245.343 167.85C245.304 167.636 245.265 167.404 245.207 167.171Z" fill="#CD1B09"/>
<path d="M251.147 147.985C250.332 147.966 249.518 147.947 248.684 147.927C249.518 147.947 250.332 147.966 251.147 147.985Z" fill="#CD1B09"/>
<path d="M245.363 167.889C245.635 169.169 245.906 170.372 246.139 171.439C245.906 170.391 245.635 169.188 245.363 167.889Z" fill="#CD1B09"/>
<path d="M248.124 147.908C248.183 147.908 248.221 147.908 248.28 147.908C246.282 147.83 244.283 147.695 242.324 147.52C244.245 147.695 246.185 147.83 248.124 147.908Z" fill="#CD1B09"/>
<path d="M251.668 147.986C253.705 148.005 255.742 147.986 257.759 147.889C256.673 147.927 255.587 147.966 254.5 147.986C253.55 148.005 252.599 148.005 251.668 147.986Z" fill="#CD1B09"/>
<path d="M246.18 171.652C246.199 171.768 246.218 171.865 246.238 171.962C246.218 171.885 246.199 171.768 246.18 171.652Z" fill="#CD1B09"/>
<path d="M263.713 147.442C263.034 147.52 262.355 147.578 261.676 147.636C262.355 147.578 263.034 147.52 263.713 147.442Z" fill="#CD1B09"/>
<path d="M265.408 147.229C265.137 147.268 264.865 147.307 264.574 147.326C264.846 147.307 265.137 147.268 265.408 147.229Z" fill="#CD1B09"/>
<path d="M259.389 147.811C258.923 147.83 258.438 147.869 257.973 147.889C258.438 147.85 258.923 147.83 259.389 147.811Z" fill="#CD1B09"/>
<path d="M268.933 146.686C268.72 146.725 268.487 146.764 268.273 146.802C268.487 146.764 268.7 146.725 268.933 146.686Z" fill="#CD1B09"/>
<path d="M267.171 146.977C266.918 147.015 266.666 147.054 266.414 147.093C266.666 147.054 266.918 147.015 267.171 146.977Z" fill="#CD1B09"/>
<path d="M270.641 146.356C270.506 146.375 270.351 146.414 270.195 146.434C270.351 146.414 270.506 146.395 270.641 146.356Z" fill="#CD1B09"/>
<path d="M261.159 147.675C260.732 147.714 260.286 147.733 259.859 147.772C260.286 147.753 260.713 147.714 261.159 147.675Z" fill="#CD1B09"/>
<path d="M242.881 155.726C243.521 159.043 244.239 162.612 244.918 165.833C225.694 160.071 202.862 133.282 193.492 103.175C212.639 90.2167 232.736 83.0974 232.736 83.0974C233.803 77.5882 244.142 55.4349 244.821 56.9674C244.918 57.2002 245.034 57.6076 245.131 58.1701C240.902 73.6115 245.19 121.061 248.099 147.889C246.16 147.811 244.2 147.675 242.299 147.501C241.737 147.346 241.446 147.249 241.446 147.249C241.446 147.307 241.465 147.365 241.465 147.404C241.523 147.889 241.601 148.393 241.678 148.936C241.698 149.13 241.737 149.305 241.756 149.46V149.518C242.086 151.361 242.454 153.476 242.881 155.726Z" fill="#D8170E"/>
<path d="M329.073 87.9857C327.385 88.4125 325.077 87.9081 322.516 87.2098C319.936 86.492 315.494 83.8732 312.856 81.4678C311.983 80.6724 311.304 79.9159 310.974 79.2369C309.558 76.5211 305.349 74.8916 301.915 76.1913C301.799 76.2301 301.682 76.2689 301.566 76.3077C299.587 76.8703 297.027 76.1331 294.893 73.7665C293.302 71.9818 291.944 69.3048 291.246 65.5414C290.994 64.1835 290.819 62.9226 290.683 61.7005C290.218 57.4522 290.431 53.8247 291.265 50.1389C291.401 49.5764 291.537 48.9944 291.692 48.4319C292.177 46.6666 292.778 44.8819 293.515 42.9614C292.953 48.4124 292.992 55.493 295.611 60.4202C300.227 69.1108 306.707 64.6297 310.935 72.428C314.369 78.7325 321.954 88.0245 329.073 87.9857Z" fill="#A80000"/>
<path d="M110.581 209.363C110.581 209.363 106.43 204.106 105.072 203.155C103.481 202.03 101.599 206.763 101.832 212.156C101.832 212.156 107.4 210.663 110.581 209.363Z" fill="#FFC525"/>
<path d="M273.222 210.527C272.543 211.555 271.476 212.68 270.506 214.445C270.448 214.562 270.37 214.659 270.331 214.775C269.458 216.463 268.683 218.694 268.333 221.914C265.831 221.953 263.29 221.933 260.729 221.856C257.16 221.72 253.552 221.429 250.021 220.944C248.857 220.789 247.732 220.614 246.665 220.44C246.51 220.401 246.335 220.381 246.18 220.362C240.38 219.411 235.821 218.286 232.446 217.297C227.48 215.842 225.094 214.659 225.094 214.659C226.51 213.437 227.771 212.215 228.818 211.012C232.368 206.899 236.442 202.108 240.283 198.5C240.399 198.383 240.516 198.286 240.632 198.189C242.553 196.424 244.415 194.969 246.102 194.077C249.517 192.292 256.694 189.382 263.891 187.636C264.007 187.617 264.143 187.578 264.26 187.559C266.471 187.035 268.683 186.628 270.758 186.375C270.584 189.887 270.836 193.32 271.689 196.696C273.455 203.66 274.871 208.044 273.222 210.527Z" fill="#E43417"/>
<path d="M284.8 140.595C285.731 139.916 286.41 139.353 286.818 138.965H286.798C286.139 139.547 285.46 140.11 284.742 140.653C284.761 140.634 284.781 140.614 284.8 140.595Z" fill="#CD1B09"/>
<path d="M284.809 140.595C284.537 140.789 284.266 141.002 283.975 141.196C282.481 142.224 280.89 143.116 279.164 143.834C269.484 147.83 255.323 148.703 242.345 147.52C241.783 147.365 241.511 147.442 241.511 147.442C241.356 146.841 235.789 118.403 235.633 101.429C235.459 83.6595 240.425 80.9825 240.968 82.418C241.511 83.8341 251.269 108.606 257.321 118.422C263.335 128.257 276.254 141.545 284.809 140.595Z" fill="#3C1E87"/>
<path d="M292.877 82.515C292.586 81.3899 288.124 87.1319 288.027 88.1407L294.759 90.3327C294.759 90.3327 293.226 83.8535 292.877 82.515Z" fill="#FFC525"/>
<path d="M297.88 119.237C297.88 119.237 291.148 118.461 291.148 119.276C291.148 120.071 293.864 125.483 295.397 127.055C295.397 127.055 297.298 122.671 297.88 119.237Z" fill="#FFC525"/>
<path d="M266.979 147.093C266.979 147.093 263.506 141.196 262.808 140.866C262.09 140.537 260.441 147.753 260.441 147.753C260.441 147.753 264.069 147.656 266.979 147.093Z" fill="#FFC525"/>
<path d="M70.5088 215.551C70.5088 215.551 69.0927 207.074 68.2004 206.705C67.3081 206.356 62.0704 214.407 62.0704 214.407C62.0704 214.407 64.2043 215.202 70.5088 215.551Z" fill="#FFC525"/>
<path d="M37.5091 204.436C37.6255 204.533 38.285 196.676 37.5091 195.862C36.7331 195.066 30.8359 198.306 30.8359 198.306C30.8359 198.306 34.1531 201.972 37.5091 204.436Z" fill="#FFC525"/>
<path d="M298.344 35.1629C296.578 37.1028 293.106 39.8186 291.457 41.0795C291.457 40.9437 291.457 40.7885 291.457 40.6333C293.261 39.256 296.792 36.4626 298.344 34.6392C298.344 34.8137 298.344 34.9883 298.344 35.1629Z" fill="#350502"/>
<path d="M298.099 31.3802C296.178 33.2425 293.113 34.29 291.387 34.775V34.4065C293.152 33.9021 296.256 32.8158 298.04 30.9341C298.079 31.0699 298.079 31.2057 298.099 31.3802Z" fill="#350502"/>
<path d="M297.564 27.5396C295.915 29.1109 293.102 29.7898 291.434 30.0808C291.434 29.9644 291.434 29.8286 291.453 29.7122C293.141 29.4019 295.992 28.6841 297.505 27.1128C297.525 27.2486 297.544 27.3844 297.564 27.5396Z" fill="#350502"/>
<path d="M296.87 23.7954C295.396 25.4443 293.01 26.0651 291.574 26.2978C291.574 26.162 291.574 26.0457 291.594 25.9293C293.029 25.6965 295.435 25.0369 296.773 23.3687C296.831 23.5044 296.851 23.6402 296.87 23.7954Z" fill="#350502"/>
<path d="M323.159 28.509C320.25 28.4896 317.107 26.8796 315.594 26.0066C315.613 25.8708 315.633 25.7544 315.652 25.6187C317.088 26.4722 320.269 28.1211 323.14 28.1599C323.14 28.2763 323.14 28.3926 323.159 28.509Z" fill="#350502"/>
<path d="M323.461 33.766C319.95 33.1258 316.497 30.9338 314.945 29.8474C314.965 29.7116 314.984 29.5953 315.004 29.4595C316.439 30.4682 319.911 32.7184 323.442 33.3974C323.442 33.5332 323.461 33.6496 323.461 33.766Z" fill="#350502"/>
<path d="M316.209 89.0915C314.289 89.6928 312.368 89.8868 310.642 89.8868C308.644 89.8868 306.898 89.6152 305.753 89.3824C305.734 89.2466 305.695 89.1303 305.676 88.9945C307.693 89.4407 311.922 90.042 316.054 88.7617C316.093 88.8587 316.151 88.9751 316.209 89.0915Z" fill="#350502"/>
<path d="M322.302 102.263C318.985 104.086 315.377 104.591 312.389 104.591C310.488 104.591 308.859 104.397 307.675 104.183C307.656 104.067 307.637 103.931 307.617 103.815C310.566 104.339 316.735 104.901 322.147 101.953C322.205 102.05 322.244 102.166 322.302 102.263Z" fill="#350502"/>
<path d="M330.001 119.625C324.957 122.923 319.836 123.796 315.82 123.796C313.105 123.796 310.893 123.388 309.555 123.078C309.535 122.961 309.535 122.826 309.535 122.709C312.755 123.505 321.446 124.843 329.884 119.314C329.923 119.411 329.962 119.508 330.001 119.625Z" fill="#350502"/>
<path d="M338.447 141.74C335.732 143.893 330.552 147.288 324.209 148.18C322.812 148.374 321.435 148.471 320.077 148.471C315.673 148.471 311.677 147.579 309.039 146.783C309.058 146.667 309.058 146.551 309.078 146.434C312.492 147.443 318.234 148.665 324.151 147.831C330.513 146.938 335.673 143.486 338.331 141.371C338.37 141.507 338.409 141.623 338.447 141.74Z" fill="#350502"/>
<path d="M342.732 172.409C342.712 172.564 342.693 172.719 342.673 172.855C339.802 174.639 335.962 176.075 330.472 176.075C328.474 176.075 326.262 175.881 323.779 175.454C314.798 173.883 307.581 169.247 304.633 167.093C304.671 166.977 304.71 166.861 304.768 166.744C307.639 168.82 314.856 173.514 323.857 175.086C333.188 176.734 338.852 174.872 342.732 172.409Z" fill="#350502"/>
<path d="M323.47 204.494C323.257 204.63 323.043 204.785 322.811 204.921C322.811 204.921 322.811 204.921 322.791 204.921C321.394 205.095 320.037 205.173 318.698 205.173C312.781 205.173 307.408 203.544 302.675 200.265C298.31 197.258 295.323 193.437 293.383 190.236C293.441 190.081 293.48 189.926 293.519 189.771C297.476 196.405 306.516 206.861 323.47 204.494Z" fill="#350502"/>
<path d="M270.504 214.445C270.446 214.561 270.368 214.678 270.329 214.794C264.161 206.53 263.268 195.997 263.87 187.617C263.986 187.597 264.122 187.558 264.238 187.539C263.617 195.822 264.452 206.239 270.504 214.445Z" fill="#350502"/>
<path d="M246.652 220.459C246.497 220.42 246.322 220.4 246.167 220.381C241.317 213.591 240.347 204.299 240.289 198.499C240.405 198.383 240.522 198.286 240.638 198.189C240.658 203.97 241.569 213.591 246.652 220.459Z" fill="#350502"/>
<path d="M171.222 222.205C171.125 222.205 171.048 222.146 170.989 222.069C170.873 221.817 168.138 215.978 169.03 212.563C169.05 212.486 169.108 212.428 169.166 212.408L180.941 207.365C181.484 205.696 188.099 185.502 194.714 177.336C194.811 177.219 194.966 177.219 195.063 177.297C195.18 177.394 195.18 177.53 195.102 177.646C188.293 186.065 181.445 207.403 181.387 207.617C181.368 207.694 181.31 207.733 181.251 207.772L169.476 212.816C168.72 216.094 171.397 221.817 171.436 221.875C171.494 221.991 171.436 222.146 171.319 222.205C171.28 222.205 171.261 222.205 171.222 222.205Z" fill="#350502"/>
<path d="M270.757 190.992C270.621 190.992 270.524 190.895 270.505 190.779C268.817 173.999 278.361 159.47 278.458 159.334C278.536 159.217 278.691 159.198 278.807 159.276C278.924 159.353 278.943 159.508 278.866 159.625C276.382 163.272 269.593 176.812 271.009 190.74C271.028 190.876 270.931 190.992 270.796 191.012C270.776 190.992 270.776 190.992 270.757 190.992Z" fill="#350502"/>
<path d="M268.187 229.15C268.051 229.15 267.954 229.053 267.935 228.917C267.256 216.987 270.224 213.631 272.183 211.4C272.494 211.051 272.785 210.721 273.018 210.391C274.375 208.548 273.832 206.337 272.998 203C272.804 202.244 272.61 201.409 272.397 200.517C271.33 195.745 270.321 190.372 270.302 190.313C270.282 190.178 270.36 190.042 270.496 190.022C270.632 190.003 270.767 190.081 270.787 190.216C270.787 190.275 271.795 195.629 272.862 200.401C273.056 201.293 273.27 202.108 273.444 202.864C274.317 206.337 274.88 208.626 273.367 210.663C273.115 211.012 272.804 211.342 272.494 211.71C270.593 213.883 267.702 217.161 268.362 228.878C268.439 229.014 268.342 229.13 268.187 229.15Z" fill="#350502"/>
<path d="M293.598 219.295C293.501 219.295 293.385 219.217 293.365 219.12C293.327 218.985 293.404 218.849 293.54 218.81C293.695 218.771 308.205 214.426 316.004 208.8C316.12 208.723 316.275 208.742 316.353 208.859C316.43 208.975 316.411 209.13 316.295 209.208C308.438 214.872 293.831 219.237 293.695 219.276C293.656 219.295 293.618 219.295 293.598 219.295Z" fill="#350502"/>
<path d="M315.102 250.119H300.592C300.514 250.119 300.437 250.081 300.398 250.022C300.359 249.964 300.34 249.887 300.359 249.809C300.379 249.77 301.329 246.259 302.532 243.679C302.803 243.097 303.075 242.593 303.347 242.088C304.258 240.401 305.054 238.926 304.937 235.745C304.782 231.594 304.937 215.008 304.937 214.833C304.937 214.697 305.054 214.581 305.189 214.581C305.325 214.581 305.442 214.697 305.442 214.833C305.442 215.008 305.286 231.594 305.442 235.726C305.558 239.043 304.743 240.575 303.793 242.321C303.521 242.806 303.25 243.31 302.997 243.873C302.027 245.968 301.213 248.684 300.941 249.615H315.122C315.257 249.615 315.374 249.731 315.374 249.867C315.354 250.003 315.238 250.119 315.102 250.119Z" fill="#350502"/>
<path d="M198.547 227.714C198.489 227.714 198.469 227.714 198.45 227.714C198.314 227.714 198.198 227.597 198.217 227.462C198.217 227.326 198.333 227.229 198.469 227.229C198.547 227.229 205.472 227.345 217.208 220.09C226.248 214.503 228.983 210.953 231.408 207.811C232.203 206.783 232.941 205.832 233.872 204.823C233.969 204.726 234.124 204.726 234.221 204.804C234.318 204.901 234.337 205.056 234.24 205.153C233.329 206.143 232.591 207.093 231.796 208.102C229.352 211.264 226.578 214.853 217.46 220.498C206.229 227.462 199.478 227.714 198.547 227.714Z" fill="#350502"/>
<path d="M265.595 222.205C255.43 222.205 247.438 220.789 240.92 219.663C233.374 218.344 225.343 214.853 225.265 214.814C225.149 214.756 225.09 214.6 225.129 214.484C225.187 214.348 225.323 214.309 225.459 214.348C225.537 214.387 233.509 217.84 240.997 219.159C248.058 220.401 256.827 221.952 268.214 221.662C268.33 221.681 268.466 221.778 268.466 221.894C268.466 222.03 268.369 222.146 268.214 222.146C267.341 222.205 266.468 222.205 265.595 222.205Z" fill="#350502"/>
<path d="M115.105 204.203C115.028 204.203 114.97 204.183 114.911 204.106C114.814 204.009 114.834 203.854 114.931 203.757C115.067 203.64 128.587 192.311 143.117 189.751C155.804 187.52 162.807 196.424 164.494 198.907C164.902 194.775 167.656 173.572 182.05 144.3C198.054 111.749 235.067 82.1659 235.435 81.8556C235.532 81.778 235.668 81.778 235.746 81.8556C235.843 81.9332 235.862 82.069 235.784 82.1659C235.649 82.3987 222.07 104.785 216.987 129.324C211.905 153.883 213.767 186.686 213.786 187.016C213.786 187.132 213.728 187.229 213.612 187.268C213.495 187.307 213.379 187.268 213.321 187.171C213.243 187.054 205.716 175.842 192.681 177.995C179.567 180.168 165.018 199.586 164.863 199.78C164.785 199.896 164.63 199.916 164.514 199.838C164.475 199.819 164.456 199.78 164.436 199.761C164.281 199.489 157.394 187.714 143.195 190.216C128.781 192.758 115.377 204.009 115.241 204.106C115.222 204.183 115.164 204.203 115.105 204.203ZM234.679 83.1359C228.471 88.2571 196.929 115.202 182.516 144.533C168.296 173.456 165.484 194.445 165.018 198.849C166.221 197.316 169.363 193.417 173.495 189.382C178.384 184.61 185.658 178.694 192.622 177.549C204.087 175.667 211.361 183.795 213.263 186.259C213.01 180.983 211.866 151.71 216.502 129.266C220.964 107.869 231.808 88.1213 234.679 83.1359Z" fill="#350502"/>
<path d="M213.561 187.326C213.522 187.326 213.483 187.326 213.464 187.307C213.347 187.248 213.289 187.093 213.347 186.977C213.386 186.88 218.371 176.579 229.894 173.96C239.574 171.749 245.122 174.484 246.79 175.512C245.956 171.458 241.165 148.063 239.691 139.023C239.671 138.888 239.768 138.752 239.904 138.732C240.059 138.713 240.176 138.81 240.195 138.926C241.786 148.781 247.353 175.726 247.411 175.997C247.431 176.094 247.392 176.211 247.295 176.269C247.198 176.327 247.101 176.308 247.004 176.249C246.946 176.211 241.262 171.865 230.011 174.426C218.74 177.006 213.852 187.074 213.813 187.171C213.735 187.268 213.658 187.326 213.561 187.326Z" fill="#350502"/>
<path d="M320.172 86.5305C320.133 86.5305 320.114 86.5305 320.075 86.5111C315.381 84.4161 311.559 80.5363 310.26 78.5965C309.134 76.9088 305.701 75.0659 303.082 76.094C300.172 77.2385 298.426 77.0252 296.176 75.2405C294.062 73.5722 291.482 70.5072 290.453 61.6808C289.561 53.999 291.074 49.4015 291.792 47.19C291.889 46.9185 291.947 46.6857 292.025 46.4917C292.064 46.3559 292.199 46.2783 292.335 46.3171C292.471 46.3559 292.549 46.4917 292.51 46.6275C292.452 46.8215 292.374 47.0737 292.277 47.3452C291.559 49.5179 290.066 54.0572 290.958 61.6226C291.967 70.2744 294.45 73.2424 296.506 74.8525C298.62 76.5208 300.192 76.7148 302.927 75.6285C305.817 74.484 309.464 76.4626 310.706 78.3055C311.559 79.5858 315.167 83.7371 320.327 86.0455C320.444 86.1037 320.502 86.2395 320.463 86.3753C320.366 86.4917 320.269 86.5305 320.172 86.5305Z" fill="#350502"/>
<path d="M331.279 73.5916C331.182 73.5916 331.085 73.5334 331.046 73.4364C330.852 72.9515 330.367 71.7294 329.765 70.2357C328.737 67.7138 327.476 64.5906 326.778 62.7284C326.002 60.6915 326.099 59.2172 326.235 57.3356C326.293 56.4238 326.371 55.3957 326.351 54.1348C326.293 49.8283 325.653 46.1231 325.284 44.2803C325.265 44.1445 325.343 44.0087 325.478 43.9893C325.614 43.9699 325.75 44.0475 325.769 44.1833C326.138 46.0261 326.778 49.7701 326.836 54.1154C326.856 55.3957 326.778 56.4432 326.72 57.355C326.584 59.2366 326.487 60.5945 327.224 62.515C327.923 64.3579 329.203 67.481 330.212 70.0029C330.813 71.4966 331.317 72.7187 331.492 73.2037C331.531 73.3395 331.473 73.4752 331.356 73.5334C331.337 73.5916 331.317 73.5916 331.279 73.5916Z" fill="#350502"/>
<path d="M346.34 70.7562C346.165 71.3056 345.871 71.7665 345.435 72.1751C344.187 73.3885 341.935 74.106 339.368 74.7815C336.775 75.4499 331.619 75.4031 328.131 74.639C326.977 74.3867 326.011 74.071 325.386 73.6479C322.802 72.004 318.342 72.6976 316.018 75.5399C315.936 75.6317 315.855 75.7235 315.774 75.8153C314.341 77.2918 311.755 77.9338 308.724 76.9511C306.454 76.2009 303.94 74.5615 301.453 71.6515C300.556 70.6016 299.774 69.5969 299.045 68.6064C296.518 65.1601 294.889 61.9118 293.769 58.3028C293.605 57.7477 293.432 57.1759 293.285 56.6111C292.822 54.8398 292.451 52.9935 292.129 50.9618C292.092 50.7815 292.072 50.5915 292.044 50.428C291.603 47.4127 292.041 44.8747 292.929 42.7269C293.627 41.025 294.643 39.5648 295.725 38.3353C295.806 38.2435 295.888 38.1517 295.986 38.0502C297.356 36.5426 298.886 35.3905 300.104 34.5526C301.356 33.6952 302.609 32.9943 303.846 32.4594C303.99 32.3986 304.108 32.3307 304.261 32.2867C304.627 32.1431 304.992 31.9996 305.35 31.8825C309.278 30.5777 313.062 30.9242 316.574 32.973C318.116 33.8973 319.623 35.1105 321.03 36.6947C321.122 36.7761 321.17 36.8601 321.255 36.968C327.127 43.5683 327.726 48.0603 329.813 50.2382C331 51.4793 334.568 54.1679 337.977 56.8139C340.611 58.8546 343.159 60.9005 344.385 62.2088C347.223 65.1846 347.002 68.6046 346.34 70.7562Z" fill="#B60E06"/>
<path d="M305.046 31.9459C305.046 31.9459 299.17 27.0058 298.15 27.1018C297.123 27.2243 301.128 33.8498 301.128 33.8498L305.046 31.9459Z" fill="#FFC525"/>
<path d="M297.681 36.3773C297.681 36.3773 292.943 30.4216 291.773 30.7612C290.602 31.1009 293.996 40.5876 293.996 40.5876L297.681 36.3773Z" fill="#FFC525"/>
<path d="M337.929 48.1284C336.196 47.4937 335.04 51.6999 335.04 51.6999C335.04 51.6999 335.773 30.8933 332.784 29.7516C329.796 28.61 328.263 45.3538 328.263 45.3538C328.263 45.3538 325.426 26.4735 323.406 26.2732C321.789 26.1096 321.383 33.8254 321.291 36.9249C327.162 43.5253 327.762 48.0173 329.832 50.2049C331.018 51.4459 334.587 54.1345 337.996 56.7805C337.969 56.7734 339.661 48.7631 337.929 48.1284Z" fill="#E43417"/>
<path d="M292.924 42.6851L292.917 42.7117C292.029 44.8595 291.6 47.4143 292.032 50.4128C292.358 52.6442 292.759 54.6973 293.256 56.6055L293.249 56.6321C293.249 56.6321 291.57 53.9952 289.398 50.3884C289.33 50.2708 289.252 50.1365 289.175 50.0021C288.246 48.4326 287.204 46.7048 286.185 44.9408L286.001 44.6216C285.274 43.3617 284.563 42.092 283.881 40.8727C283.823 40.7719 283.755 40.6543 283.714 40.5438C283.156 39.4997 282.607 38.4722 282.124 37.5192C282.056 37.4016 281.998 37.3008 281.957 37.1903C281.818 36.9118 281.68 36.6333 281.551 36.3716C281.034 35.2815 280.575 34.2922 280.147 33.3967C280.096 33.2694 280.038 33.1685 279.987 33.0412C277.707 27.9287 277.381 25.9668 278.066 25.7953C278.383 25.7241 280.067 27.1266 282.259 29.3329C282.351 29.4143 282.426 29.5054 282.527 29.6036C283.351 30.4493 284.251 31.3861 285.145 32.3927C285.256 32.5077 285.341 32.6156 285.452 32.7306C286.187 33.5382 286.925 34.3891 287.656 35.2665C287.74 35.3744 287.835 35.4991 287.919 35.607C288.633 36.494 289.347 37.3811 290.01 38.2973C290.105 38.422 290.199 38.5467 290.293 38.6714C290.957 39.5876 291.567 40.4896 292.125 41.3774C292.212 41.5286 292.299 41.6798 292.386 41.831C292.602 42.0875 292.776 42.3898 292.924 42.6851Z" fill="#CD1B09"/>
<path d="M316.604 32.9561L316.577 32.9489C313.065 30.9001 309.271 30.5369 305.353 31.8584L305.326 31.8513C305.326 31.8513 304.84 30.6985 304.151 28.9235C304.1 28.7962 304.058 28.6857 304.007 28.5584C303.637 27.6072 303.187 26.4783 302.758 25.27C302.707 25.1427 302.666 25.0322 302.615 24.9049C302.213 23.86 301.816 22.7453 301.435 21.6209C301.411 21.5007 301.36 21.3735 301.318 21.263C300.611 19.1848 299.948 17.104 299.482 15.2895C299.448 15.1525 299.423 15.0323 299.382 14.9218C298.774 12.4727 298.566 10.5992 299.108 10.0626C299.74 9.45105 301.696 11.4804 304.096 14.5519C304.171 14.643 304.246 14.7341 304.314 14.8517C305.275 16.089 306.287 17.4536 307.304 18.9048C307.362 19.0056 307.437 19.0966 307.495 19.1974C308.464 20.5646 309.435 21.9751 310.36 23.3449C310.418 23.4457 310.493 23.5368 310.552 23.6376C311.525 25.0914 312.434 26.4709 313.248 27.7256C313.306 27.8264 313.391 27.9343 313.449 28.0351C315.334 30.9117 316.604 32.9561 316.604 32.9561Z" fill="#CD1B09"/>
<path d="M308.705 76.9623C306.435 76.2121 303.92 74.5727 301.434 71.6627C300.536 70.6128 299.755 69.6082 299.026 68.6177C296.515 65.1616 294.87 61.9231 293.749 58.314C292.222 57.919 281.608 55.1319 279.686 55.0995C277.607 55.0679 286.384 62.5889 291.432 64.7367C291.432 64.7367 280.995 64.468 281.313 67.1518C281.63 69.8356 297.274 72.2948 297.274 72.2948C297.274 72.2948 288.08 76.5056 289.019 78.8305C289.664 80.4518 298.872 78.943 304.474 77.8594C306.957 77.3888 308.724 76.9959 308.724 76.9959C308.724 76.9959 308.714 76.9791 308.705 76.9623Z" fill="#E43417"/>
<path d="M336.702 69.0861C337.43 68.3297 334.494 68.2105 332.92 67.0361C331.346 65.8617 329.146 66.8628 330.081 68.6752C330.989 70.4806 334.982 70.8406 336.702 69.0861Z" fill="#350502"/>
<path d="M340.998 65.7769C340.235 66.2399 340.263 63.8047 339.442 62.1506C338.621 60.4964 338.996 58.7792 340.653 59.7487C342.311 60.7182 342.666 64.7469 340.998 65.7769Z" fill="#350502"/>
<path d="M282.547 29.569C281.895 30.9988 280.792 32.6206 280.168 33.3621C280.117 33.2348 280.059 33.134 280.007 33.0067C280.63 32.2219 281.698 30.6195 282.279 29.2983C282.354 29.3894 282.456 29.4876 282.547 29.569Z" fill="#350502"/>
<path d="M304.333 14.8408C302.484 15.5949 300.626 15.4805 299.494 15.305C299.46 15.168 299.435 15.0478 299.394 14.9373C300.422 15.1277 302.283 15.2854 304.108 14.5675C304.174 14.6418 304.258 14.7497 304.333 14.8408Z" fill="#350502"/>
<path d="M307.516 19.1855C307.242 19.4105 306.933 19.6116 306.614 19.7959C305.018 20.7173 302.922 21.2776 301.429 21.6019C301.405 21.4817 301.354 21.3544 301.312 21.2439C303.089 20.8679 305.756 20.1341 307.298 18.8857C307.383 18.9936 307.458 19.0847 307.516 19.1855Z" fill="#350502"/>
<path d="M304.27 32.2589C304.126 32.3197 303.999 32.3708 303.855 32.4316C304.701 32.9283 305.847 33.633 307.117 34.5128C305.864 38.3947 300.339 39.8822 300.288 39.9113C300.228 39.9236 300.204 39.9598 300.181 39.996C298.62 39.1945 297.164 38.5345 295.988 38.0488C295.906 38.1406 295.825 38.2324 295.727 38.3339C300.066 40.1072 308.012 44.2104 312.154 49.2111C312.209 49.2686 312.315 49.297 312.382 49.2582L312.399 49.2485C312.473 49.1832 312.485 49.0869 312.427 48.9861C311.846 48.2909 311.189 47.6177 310.488 46.9471C310.827 46.7964 311.497 46.5215 312.253 46.0851C313.597 45.3091 315.218 44.082 315.827 42.4985C316.647 43.5704 317.357 44.6837 317.896 45.8506C317.945 45.9346 318.044 45.9895 318.128 45.941C318.128 45.941 318.128 45.941 318.145 45.9313C318.229 45.8828 318.257 45.7768 318.218 45.7096C315.247 39.3611 307.723 34.32 304.27 32.2589ZM300.583 40.1891C301.045 40.0571 302.306 39.6425 303.65 38.8665C305.162 37.9936 306.758 36.6462 307.426 34.7376C308.768 35.6652 310.226 36.7944 311.676 38.0632C310.854 41.6063 305.985 42.8719 305.394 43.0117C303.765 41.9362 302.127 41.0003 300.583 40.1891ZM310.21 46.6596C308.876 45.4361 307.365 44.2926 305.799 43.2481C306.397 43.0819 307.591 42.706 308.801 42.0076C310.162 41.222 311.489 40.0299 311.968 38.2977C313.263 39.4541 314.522 40.743 315.597 42.1386C314.761 44.7265 310.847 46.4042 310.21 46.6596Z" fill="#350502"/>
<path d="M325.928 54.385C327.306 54.172 325.428 47.9316 324.448 48.2512C323.458 48.5539 324.551 54.5981 325.928 54.385Z" fill="#350502"/>
<path d="M312.933 58.5954C313.323 60.3188 313.178 61.8137 312.603 61.9438C312.029 62.0739 311.248 60.7997 310.858 59.0762C310.468 57.3527 310.613 55.8579 311.187 55.7278C311.735 55.5906 312.525 56.8816 312.933 58.5954Z" fill="#350502"/>
<path d="M305.036 55.5161C306.584 56.8398 310.422 53.5937 315.713 53.5629C319.979 53.5415 322.147 53.7677 322.147 53.7677C322.147 53.7677 322.025 51.5762 322.892 48.0739C323.528 45.4893 326.605 43.3317 325.838 41.6917C325.07 40.0518 323.667 38.3978 321.724 40.1918C319.78 41.9858 318.692 47.7437 320.24 51.666C320.24 51.666 315.999 48.7831 310.962 48.3989C305.95 48.0218 301.178 52.2104 305.036 55.5161Z" fill="#CD1B09"/>
<path d="M290.426 55.5507C290.367 55.5507 290.309 55.5314 290.251 55.4926C290.115 55.3762 287.089 52.6603 285.789 49.2656C285.731 49.1298 285.809 48.994 285.925 48.9358C286.061 48.8776 286.197 48.9552 286.255 49.0716C287.516 52.35 290.561 55.0852 290.581 55.1046C290.678 55.2016 290.697 55.3568 290.6 55.4538C290.561 55.5119 290.503 55.5507 290.426 55.5507Z" fill="#350502"/>
<path d="M286.779 59.8767C286.701 59.8767 286.623 59.838 286.585 59.7798C285.654 58.4801 283.112 56.6566 283.074 56.6566C282.957 56.579 282.938 56.4238 283.015 56.3074C283.093 56.191 283.248 56.1716 283.364 56.2492C283.481 56.3268 286.003 58.1309 286.992 59.4888C287.07 59.6052 287.05 59.7604 286.934 59.838C286.895 59.8768 286.837 59.8767 286.779 59.8767Z" fill="#350502"/>
<path d="M287.036 67.6363C287.016 67.6363 286.977 67.6363 286.958 67.6169C285.988 67.2677 283.563 66.6663 283.544 66.6663C283.408 66.6275 283.331 66.4918 283.369 66.356C283.408 66.2202 283.544 66.1426 283.68 66.1814C283.777 66.2008 286.143 66.7827 287.152 67.1513C287.288 67.1901 287.346 67.3453 287.307 67.4617C287.23 67.5587 287.133 67.6363 287.036 67.6363Z" fill="#350502"/>
<path d="M331.92 56.6956C331.881 56.6956 331.842 56.6957 331.803 56.6763C331.687 56.6181 331.629 56.4629 331.687 56.3465C331.881 55.9585 333.588 52.5637 334.131 52.0594C334.228 51.9624 334.383 51.9818 334.48 52.0788C334.577 52.1758 334.558 52.331 334.461 52.4279C334.092 52.7577 332.851 55.0856 332.114 56.5793C332.094 56.6374 332.017 56.6956 331.92 56.6956Z" fill="#350502"/>
<path d="M329.767 45.7741C329.748 45.7741 329.709 45.774 329.67 45.7546C329.534 45.7158 329.476 45.5606 329.534 45.4443C329.67 45.0757 330.873 41.8555 331.067 41.5063C331.125 41.3899 331.28 41.3318 331.396 41.4094C331.513 41.4676 331.571 41.6227 331.493 41.7391C331.358 41.9913 330.523 44.2028 329.98 45.6189C329.961 45.7159 329.864 45.7741 329.767 45.7741Z" fill="#350502"/>
<path d="M92.8758 240.866C75.5722 240.866 60.3054 237.025 45.2909 229.11C25.3103 218.596 17.2016 199.993 17.124 199.819C17.0658 199.702 17.124 199.547 17.2598 199.489C17.3956 199.431 17.5314 199.489 17.5896 199.625C17.6672 199.799 25.7176 218.247 45.5431 228.684C67.1919 240.09 89.3646 242.981 117.454 238.092C117.784 238.014 151.712 230.507 169.442 217.316C169.559 217.239 169.714 217.258 169.791 217.374C169.869 217.491 169.85 217.646 169.733 217.723C151.906 230.953 117.881 238.499 117.551 238.577C108.783 240.09 100.616 240.866 92.8758 240.866Z" fill="#350502"/>
<path d="M286.784 139.217C286.765 139.217 286.746 139.217 286.707 139.198C283.04 138.111 276.29 134.523 270.102 129.207C264.418 124.319 260.247 117.704 260.189 117.646C260.111 117.529 260.15 117.374 260.266 117.297C260.383 117.219 260.538 117.258 260.616 117.374C260.654 117.433 264.806 123.989 270.431 128.82C276.561 134.096 283.234 137.646 286.843 138.713C286.978 138.752 287.056 138.887 287.017 139.023C286.998 139.14 286.901 139.217 286.784 139.217Z" fill="#350502"/>
<path d="M283.948 141.448C283.87 141.448 283.773 141.409 283.735 141.312C283.657 141.196 283.715 141.04 283.832 140.982C283.87 140.963 288.177 138.499 291.979 132.641C295.878 126.627 297.779 121.04 297.954 115.046C297.954 114.91 298.07 114.813 298.206 114.813C298.342 114.813 298.458 114.93 298.439 115.066C298.264 121.137 296.344 126.821 292.386 132.912C288.507 138.887 284.103 141.409 284.064 141.428C284.045 141.428 283.987 141.448 283.948 141.448Z" fill="#350502"/>
<path d="M315.456 84.5328L310.781 93.7084C310.781 93.7084 308.085 92.7578 305.291 94.1157C302.498 95.4736 300.713 98.2089 301.664 100.459C302.614 102.709 304.981 102.942 304.981 102.942C304.981 102.942 303.798 106.201 305.815 107.792C307.833 109.382 313.225 108.801 314.234 106.143C314.234 106.143 314.642 108.277 316.717 107.986C318.793 107.695 320.151 104.727 319.2 100.944C318.25 97.142 316.543 94.7753 316.543 94.7753L319.511 81.5648C319.511 81.5648 318.677 80.4785 318.133 79.7607C318.133 79.7607 316.446 82.6124 315.456 84.5328Z" fill="#BAE5F4"/>
<path d="M333.879 80.2069C334.053 80.3815 343.714 86.3562 343.714 86.3562C343.714 86.3562 343.656 90.042 346.139 93.1264C348.622 96.2108 354.189 97.685 355.741 94.6006C355.741 94.6006 357.758 95.2602 358.34 93.301C358.942 91.3417 356.866 87.7917 355.431 87.6171C355.431 87.6171 357.681 86.5502 357.215 84.0672C356.73 81.5842 352.172 80.6336 352.172 80.6336C352.172 80.6336 354.189 76.4823 352.172 75.4736C350.154 74.4649 344.994 82.3795 344.994 82.3795L333.859 78.0148V80.2069H333.879Z" fill="#BAE5F4"/>
<path d="M356.096 73.7662C357.59 74.4064 359.588 69.4791 357.396 68.8972C355.204 68.2958 354.195 72.9515 356.096 73.7662Z" fill="#BAE5F4"/>
<path d="M363.073 90.6821C360.997 88.781 358.34 93.8247 359.93 95.2408H360.163C361.948 96.5017 365.148 92.5832 363.073 90.6821Z" fill="#BAE5F4"/>
<path d="M299.239 94.8334C301.081 95.1244 302.148 90.8566 299.588 90.2553C297.027 89.6733 297.396 94.5424 299.239 94.8334Z" fill="#BAE5F4"/>
<path d="M199.87 252.486H178.9C178.842 252.486 178.764 252.466 178.725 252.408C178.687 252.35 178.648 252.292 178.648 252.234C178.725 249.731 181.034 246.433 181.558 245.716C180.704 244.28 177.096 236.172 176.941 235.822C176.883 235.687 176.941 235.551 177.057 235.493C177.174 235.434 177.329 235.493 177.387 235.609C178.531 238.17 181.577 244.94 182.062 245.58C182.12 245.677 182.12 245.793 182.062 245.871C182.043 245.91 179.404 249.401 179.172 251.981H199.87C200.006 251.981 200.122 252.098 200.122 252.234C200.122 252.369 200.006 252.486 199.87 252.486Z" fill="#350502"/>
</svg>
