<svg width="165" height="260" viewBox="0 0 165 260" fill="none" xmlns="http://www.w3.org/2000/svg">
<path d="M138.422 254.718C136.386 254.008 126.072 250.589 120.291 251.319C113.857 252.145 104.714 252.279 97.9729 252.106C91.2314 251.953 78.0557 251.953 67.9338 250.819C65.7058 250.57 62.7096 250.493 59.406 250.531C47.7668 250.647 32.2671 252.106 32.2671 252.106C32.2671 252.106 30.1736 221.741 28.5794 205.357C26.9661 188.974 27.6191 148.141 28.9059 131.45C29.194 127.782 29.7318 123.614 30.4425 119.235C31.4412 113.127 32.7472 106.597 34.1877 100.355C34.2261 100.201 34.2646 100.067 34.2838 99.913C43.4454 79.4771 62.7288 72.8509 82.4348 71.7753C104.657 70.5653 116.45 84.0675 123.21 92.4224C128.703 99.2408 133.467 108.614 135.906 119.254C136.098 121.463 136.271 123.844 136.463 126.399C137.346 138.288 138.192 153.307 138.307 166.983C138.46 185.306 138.633 221.318 138.307 233.745C138.057 243.271 138.307 251.415 138.422 254.718Z" fill="#CD1B09"/>
<path d="M136.463 126.38C99.2597 165.945 69.8544 227.214 59.406 250.531C47.7668 250.647 32.2671 252.106 32.2671 252.106C32.2671 252.106 30.1736 221.741 28.5794 205.357C26.9661 188.974 27.6191 148.141 28.9059 131.45C29.194 127.782 29.7318 123.614 30.4425 119.235C31.4412 113.127 32.7472 106.597 34.1877 100.355C34.2261 100.201 34.2646 100.067 34.2838 99.913C43.4454 79.4771 62.7288 72.8509 82.4348 71.7753C104.657 70.5653 116.45 84.0675 123.21 92.4224C128.703 99.2408 133.467 108.614 135.906 119.254C136.079 121.463 136.271 123.844 136.463 126.38Z" fill="#B60E06"/>
<path d="M66.2156 30.2122C64.1029 30.0777 62.7585 26.755 63.0466 24.9496C63.3539 22.9713 64.8327 22.8752 65.7162 24.3157C65.8123 25.8715 65.9467 27.6577 66.158 29.6936C66.1772 29.8664 66.1964 30.0393 66.2156 30.2122Z" fill="#F2B5AA"/>
<path d="M91.452 21.9338C91.452 21.9338 91.2407 31.9597 87.7067 36.0123C87.7067 36.0123 84.5376 33.0737 80.2545 32.8432C75.9715 32.6319 72.7064 36.6461 72.7064 36.6461C72.7064 36.6461 72.5143 36.4732 72.207 36.1659C71.2082 35.1672 69.0187 32.6895 68.308 29.7317C67.4053 25.8712 67.0788 23.0286 67.7702 20.7814C68.4617 18.5919 71.5731 15.4228 72.1301 13.7902C72.8984 13.5213 73.6859 13.2716 74.5309 13.0604C75.7794 12.7338 77.1239 12.5034 78.526 12.4265C82.1752 12.2153 85.5748 13.0411 87.9756 13.867C88.0524 15.077 88.3405 18.3806 89.3008 19.6866C90.4917 21.3 91.452 21.9338 91.452 21.9338Z" fill="#F2B5AA"/>
<path d="M95.6589 24.2959C95.3708 25.5443 94.3914 26.6007 93.4886 27.3497C93.4694 27.2153 93.4502 27.0808 93.431 26.9848C93.3349 26.4662 93.2774 25.794 93.239 25.0258C93.2197 24.7761 93.2005 24.5264 93.2005 24.2575C93.1621 23.5276 93.1237 22.7402 93.0469 21.9335C93.4502 21.3765 93.9496 20.8195 94.449 20.7427C95.5822 20.6082 96.2159 21.799 95.6589 24.2959Z" fill="#F2B5AA"/>
<path d="M70.0249 26.2364C70.5051 30.4235 71.5614 34.1688 72.1952 36.2047C71.1965 35.2059 69.0069 32.7283 68.2963 29.7704C67.3936 25.9099 67.0671 23.0674 67.7585 20.8202C68.45 18.6306 71.5614 15.4615 72.1184 13.829C72.8867 13.5601 73.6741 13.3104 74.5192 13.0991C71.9455 16.9597 69.3527 20.4552 70.0249 26.2364Z" fill="#F3938D"/>
<path d="M66.2039 30.2122C64.0912 30.0777 62.7467 26.755 63.0348 24.9496C63.3421 22.9713 64.821 22.8752 65.7045 24.3157C65.7429 25.1032 65.8006 25.9483 65.8774 26.8702C65.8966 27.1583 65.935 27.4656 65.9542 27.7921C66.0118 28.4067 66.0695 29.0406 66.1271 29.6936C66.1655 29.8664 66.1847 30.0393 66.2039 30.2122Z" fill="#F3938D"/>
<path d="M93.4228 37.472C93.4036 37.8561 93.3652 38.2594 93.2884 38.6819C93.2115 39.1813 93.0963 39.6999 92.9234 40.2185C92.5585 41.4669 91.9631 42.7538 91.1564 43.9061C90.5418 44.7897 89.812 45.6347 88.9093 46.307C88.2562 46.8063 87.5456 47.2481 86.7197 47.5746C82.7631 49.1496 76.6362 48.9383 72.891 46.4991C72.43 46.1917 71.9882 45.8652 71.6041 45.4811C71.412 45.289 71.22 45.0778 71.0279 44.8857C70.4709 44.2711 69.9907 43.5797 69.549 42.8498C67.6667 39.7191 66.764 35.5513 66.1878 30.1926C66.1686 30.0198 66.1494 29.8469 66.1302 29.6741C65.9189 27.6382 65.7845 25.8712 65.6885 24.2962C65.4772 20.5125 65.5924 18.0925 66.0342 16.8825C66.4183 16.6136 67.9933 15.5572 70.298 14.5392C70.6438 14.3856 71.0087 14.232 71.3736 14.0975C71.6233 14.0015 71.8538 13.9054 72.1035 13.8286C71.7193 14.9234 70.2212 16.6904 69.0496 18.3806C68.4734 19.2449 67.9548 20.09 67.7244 20.8198C67.2058 22.51 67.2442 24.5075 67.6859 27.0235C67.8204 27.8686 68.0317 28.7905 68.2621 29.7701C69.1649 33.6306 72.6604 36.6845 72.6604 36.6845C72.6604 36.6845 75.9256 32.6703 80.2087 32.8816C84.4917 33.0928 87.6608 36.0507 87.6608 36.0507C91.1948 31.9788 91.4061 21.9722 91.4061 21.9722C91.4061 21.9722 90.4458 21.3384 89.255 19.725C88.2946 18.419 88.0257 15.1154 87.9297 13.9054C88.1986 14.0015 88.4483 14.0783 88.6788 14.1743C90.0233 14.6737 90.9451 15.1346 91.2716 15.3075C91.4829 15.7108 92.1168 17.0361 92.6161 19.3025C92.8082 20.1668 92.9042 21.0695 92.9811 21.9914C93.1539 23.9505 93.1539 25.8519 93.3652 27.0235C93.3844 27.1388 93.4036 27.254 93.4228 27.3885C93.7301 29.386 93.5764 34.3605 93.4228 37.472Z" fill="#4C2D1F"/>
<path d="M93.2884 38.6822C93.2115 39.1816 93.0963 39.7002 92.9234 40.2188C92.5585 41.4672 91.9631 42.7541 91.1564 43.9065C90.5418 44.79 89.812 45.635 88.9093 46.3073C88.2562 46.8067 87.5456 47.2484 86.7197 47.5749C82.7631 49.1499 76.6362 48.9386 72.891 46.4994C72.43 46.1921 71.9882 45.8655 71.6041 45.4814C71.412 45.2893 71.22 45.0781 71.0279 44.886C70.4709 44.2714 69.9907 43.58 69.549 42.8501C67.6667 39.7194 66.764 35.5516 66.1878 30.1929C66.1686 30.0201 66.1494 29.8472 66.1302 29.6744C65.9189 27.6385 65.7845 25.8715 65.6885 24.2965C65.4772 20.5128 65.5924 18.0928 66.0342 16.8828C66.4183 16.6139 67.9933 15.5575 70.298 14.5396C69.8755 15.788 69.4337 17.094 69.0688 18.3617C68.4926 19.226 67.974 20.071 67.7435 20.8009C67.225 22.4911 67.2634 24.4886 67.7051 27.0047C67.5131 30.8652 67.8588 34.9946 70.7014 39.4313C74.0625 44.6747 86.8157 46.8259 93.2884 38.6822Z" fill="#44261A"/>
<path d="M108.684 57.2167C108.434 57.5816 108.185 57.9273 107.916 58.2922C107.359 59.0221 106.744 59.6943 106.091 60.2897C103.364 62.7866 93.05 67.8187 82.4288 67.7803C74.4004 67.7611 65.162 66.2822 60.706 63.6509C58.6317 62.4216 56.9991 61.2308 55.7891 60.2129C54.8864 59.4638 54.195 58.8108 53.7148 58.3114C53.8877 58.2922 54.0798 58.2538 54.2719 58.2154C57.9019 57.6008 63.1645 56.2563 67.4668 52.5494C70.3286 50.0718 71.9803 48.0167 72.9215 46.4802C76.6668 48.9194 82.7937 49.1307 86.7503 47.5557C87.5569 47.2292 88.2868 46.8067 88.9398 46.2881C90.8988 50.1486 95.2395 53.2985 99.926 55.2384C102.039 56.1219 104.42 56.6597 106.802 56.967C107.417 57.1014 108.05 57.1782 108.684 57.2167Z" fill="#3C1E87"/>
<path d="M108.684 57.2165C108.434 57.5814 108.185 57.9271 107.916 58.2921C104.459 58.1576 98.8888 57.6582 95.0859 56.0065C89.1895 53.4328 86.6158 49.361 86.6158 49.361C81.1611 52.4725 74.8229 49.6875 74.8229 49.6875C74.8229 49.6875 74.1891 53.6441 68.6768 57.0628C64.0096 59.9438 57.8827 60.0783 55.7891 60.2319C54.8864 59.4829 54.195 58.8299 53.7148 58.3305C53.8877 58.3113 54.0798 58.2729 54.2719 58.2345C57.9019 57.6198 63.1645 56.2754 67.4668 52.5685C70.3286 50.0909 71.9803 48.0357 72.9215 46.4992C76.6668 48.9384 82.7937 49.1497 86.7503 47.5748C87.5569 47.2483 88.2868 46.8257 88.9398 46.3071C90.8988 50.1677 95.2395 53.3176 99.926 55.2574C102.039 56.1409 104.42 56.6787 106.802 56.986C107.417 57.1013 108.05 57.1781 108.684 57.2165Z" fill="#1F0D6B"/>
<path d="M135.58 216.881C135.58 216.881 134.043 217.015 131.508 217.188C129.472 217.323 126.802 217.496 123.729 217.668C121.29 217.803 118.601 217.937 115.816 218.033C115.701 218.053 115.605 218.053 115.49 218.053C114.318 218.091 113.108 218.129 111.917 218.168C111.379 218.187 110.841 218.187 110.323 218.206C110.246 218.206 110.15 218.206 110.073 218.206H110.016C103.927 218.341 98.434 218.321 94.6311 218.264C91.3276 218.225 89.3109 218.168 89.3109 218.168C89.3109 218.168 86.8524 205.837 86.1994 195.888C86.065 193.641 85.8153 190.51 85.5272 186.995C84.8741 178.852 83.9715 168.692 83.4529 162.91V162.891C83.2992 161.22 83.1839 159.933 83.1071 159.146C83.0495 158.608 83.0303 158.301 83.0303 158.301C83.0303 158.301 81.7819 175.817 81.3017 185.978C81.2825 186.323 81.2633 186.669 81.2633 186.995C80.8408 196.964 78.6896 217.304 78.6896 217.304C78.6896 217.304 76.8842 217.38 73.984 217.419C70.3155 217.476 64.8609 217.476 59.0797 217.188C58.5035 217.169 57.9081 217.131 57.3319 217.111C57.2166 217.111 57.1206 217.092 57.0053 217.092C55.5264 217.015 54.0283 216.9 52.5494 216.785C52.2805 216.766 52.0308 216.727 51.7811 216.708C51.6851 216.708 51.5699 216.689 51.4547 216.67C49.7837 216.516 48.2279 216.324 46.7682 216.113C42.658 215.517 39.4313 214.768 37.1265 214.134C34.4376 213.405 33.0547 212.809 33.0547 212.809C33.0547 212.809 34.1302 204.358 36.1661 192.892C37.7027 184.211 40.2956 171.611 42.4275 160.318C43.0998 156.707 43.7528 153.23 44.2906 150.042C46.3649 137.999 50.5135 117.909 52.3381 111.36C52.3381 111.36 54.2588 111.437 57.4471 111.533C60.597 111.609 64.9761 111.667 70.0083 111.648H70.3347C72.0249 111.629 73.8111 111.61 75.6166 111.571C75.7318 111.571 75.847 111.571 75.9815 111.571C77.979 111.533 80.0533 111.475 82.1276 111.379C82.2237 111.379 82.3389 111.379 82.4541 111.36H82.5309C84.9126 111.264 87.1789 111.129 89.3109 110.956C89.4261 110.956 89.5222 110.937 89.6374 110.937C91.0779 110.822 92.4415 110.707 93.7284 110.572C93.8436 110.553 93.9397 110.553 94.0549 110.534C98.3572 110.092 101.891 109.593 104.426 109.17C107.365 108.69 108.998 108.325 108.998 108.325C109.804 110.323 114.472 122.077 115.624 129.011C116.892 136.617 122.577 157.609 126.341 174.53C127.052 177.719 127.82 181.234 128.608 184.806C131.988 200.171 135.58 216.881 135.58 216.881Z" fill="#FFC525"/>
<path d="M57.4706 111.552C53.418 123.652 50.8826 139.459 48.8467 162.929C48.7123 164.466 48.597 166.022 48.4818 167.577C47.1566 185.612 46.8492 205.799 46.7916 216.132C42.6814 215.536 39.4547 214.787 37.1499 214.154C34.461 213.424 33.0781 212.828 33.0781 212.828C33.0781 212.828 34.1537 204.377 36.1896 192.911C37.7261 184.23 40.319 171.63 42.451 160.337C43.1232 156.726 43.7762 153.249 44.314 150.061C46.3883 138.019 50.537 117.928 52.3616 111.379C52.3808 111.379 54.2823 111.456 57.4706 111.552Z" fill="#F8B213"/>
<path d="M49.0373 131.508C49.0373 131.508 44.6198 133.082 42.5647 135.291C42.2382 135.637 41.9501 136.002 41.6812 136.386C40.2407 138.441 39.6261 140.823 39.6261 140.823C33.1534 131.008 31.0791 122.634 30.4453 119.215C31.4441 113.108 32.7501 106.577 34.1906 100.335C34.2866 99.8934 34.4018 99.4709 34.4979 99.0292C35.0357 98.8755 35.7463 98.7026 36.6682 98.5105C37.1484 98.4145 37.6862 98.2993 38.3008 98.2033C42.4686 97.4734 46.7901 98.2033 46.7901 98.2033C46.7901 98.2033 46.2524 105.924 46.6557 113.703C47.059 121.501 49.0373 131.508 49.0373 131.508Z" fill="#3C1E87"/>
<path d="M41.6812 136.386C40.2407 138.441 39.6261 140.823 39.6261 140.823C33.1534 131.008 31.0791 122.634 30.4453 119.215C31.4441 113.108 32.7501 106.578 34.1906 100.335C34.2866 99.8936 34.4018 99.4711 34.4979 99.0294C35.0357 98.8757 35.7463 98.7028 36.6682 98.5107C35.3046 106.385 35.2086 113.127 36.9372 122.404C37.9935 128.223 40.1063 133.256 41.6812 136.386Z" fill="#1F0D6B"/>
<path d="M164.484 257.753C164.484 257.753 158.472 257.657 153.191 258.195C153.037 258.214 152.902 258.214 152.749 258.233C151.808 258.329 150.905 258.464 150.079 258.617C149.925 258.636 149.791 258.675 149.657 258.694C149.618 258.694 149.58 258.713 149.561 258.713C143.933 259.846 138.498 256.293 138.498 256.293C138.498 256.293 138.478 255.736 138.44 254.718C138.401 253.566 138.344 251.856 138.286 249.705C138.286 249.552 138.286 249.398 138.286 249.225C138.209 245.173 138.171 239.737 138.325 233.745C138.401 230.921 138.44 226.888 138.478 222.144C138.478 222.009 138.478 221.856 138.478 221.702C138.478 220.953 138.478 220.185 138.478 219.397C138.478 219.167 138.478 218.956 138.478 218.725C138.517 208.93 138.498 196.83 138.44 185.863C138.44 185.709 138.44 185.555 138.44 185.402C138.401 178.487 138.363 172.072 138.325 167.002C138.286 162.987 138.19 158.839 138.056 154.709C138.056 154.556 138.056 154.421 138.037 154.268C137.979 152.405 137.902 150.561 137.806 148.717C137.806 148.563 137.787 148.39 137.787 148.218C137.364 139.018 136.769 130.106 136.193 122.769C136.174 122.634 136.174 122.481 136.154 122.346C136.135 122.154 136.116 121.962 136.097 121.789C136.077 121.578 136.058 121.367 136.039 121.175C136.001 120.541 135.943 119.945 135.885 119.35C135.828 118.582 135.559 118.255 135.348 117.449C136.923 115.97 138.594 114.337 140.169 112.724C140.418 112.474 140.649 112.224 140.898 111.975C142.531 110.265 144.029 108.614 145.124 107.211C145.354 108.652 145.7 110.707 146.103 113.204C146.123 113.377 146.161 113.53 146.18 113.703C146.545 115.989 146.987 118.601 147.429 121.444C147.467 121.636 147.505 121.847 147.525 122.039C148.043 125.227 148.6 128.684 149.157 132.238C149.176 132.391 149.196 132.526 149.234 132.679C149.253 132.852 149.292 133.025 149.311 133.198C149.33 133.352 149.349 133.467 149.388 133.621C150.098 138.076 150.79 142.628 151.443 146.95C151.481 147.238 151.52 147.507 151.577 147.795C151.865 149.716 152.134 151.56 152.384 153.346C152.422 153.519 152.442 153.711 152.461 153.884C153.152 158.685 153.728 162.872 154.036 165.792C154.708 171.861 155.841 181.291 157.032 191.26C157.051 191.413 157.07 191.548 157.09 191.721C157.973 199.173 158.876 206.894 159.644 213.751C159.663 214 159.702 214.25 159.721 214.5C160.105 217.957 160.432 221.184 160.7 224.007C160.72 224.161 160.739 224.314 160.739 224.449C160.892 226.024 161.008 227.483 161.123 228.77C161.603 234.955 162.314 241.235 162.948 246.383C162.967 246.555 162.986 246.728 163.005 246.882C163.812 253.239 164.484 257.753 164.484 257.753Z" fill="#E43417"/>
<path d="M147.144 104.1C146.74 104.906 146.03 105.944 145.127 107.096C142.822 110.015 139.192 113.761 135.716 117.007C133.161 119.388 130.684 121.501 128.84 122.865C123.462 126.802 118.872 127.916 118.872 127.916C118.872 127.916 118.814 127.916 118.718 127.916C118.219 126.975 116.74 127.109 116.74 127.109C116.74 127.109 116.625 123.46 114.704 122.826C114.704 122.826 114.569 121.463 113.993 120.521C113.82 120.233 113.609 119.984 113.359 119.811C114.32 117.89 116.394 113.914 118.872 109.9C122.329 104.35 125.306 99.4518 125.306 99.4518C125.306 99.4518 124.576 98.0113 124.096 97.5311C124.096 97.5311 124.115 97.5311 124.134 97.5119C124.384 97.3967 126.266 96.5516 128.84 95.8217C130.53 95.3416 132.528 94.919 134.544 94.8038C139.845 94.4773 146.107 98.3378 146.107 98.3378C147.394 101.104 147.144 104.1 147.144 104.1Z" fill="#3C1E87"/>
<path d="M129.685 101.526C128.168 103.389 118.103 115.739 113.993 120.541C113.82 120.253 113.609 120.003 113.359 119.83C114.32 117.91 116.394 113.934 118.872 109.92C122.329 104.369 125.306 99.4713 125.306 99.4713C125.306 99.4713 124.576 98.0308 124.096 97.5507C124.096 97.5507 124.115 97.5507 124.134 97.5315C124.384 97.4163 126.266 96.5712 128.84 95.8413C130.165 97.5699 131.337 99.5098 129.685 101.526Z" fill="#1F0D6B"/>
<path d="M146.1 98.3573C146.1 98.3573 139.82 94.4968 134.538 94.8233C132.483 94.9386 130.466 95.3803 128.757 95.8797C126.241 96.6095 124.397 97.4354 124.147 97.5506C121.938 95.0538 112.104 83.8755 111.605 82.9536C111.048 81.8972 110.453 83.9908 109.416 86.9678C108.378 89.9448 106.611 99.8938 106.611 99.8938C106.611 99.8938 105.152 99.4713 103.193 99.0296C101.022 98.5302 98.2373 97.9732 96.163 97.8964C95.3371 97.858 94.0695 97.8003 92.4945 97.7619C92.3985 97.7619 92.2832 97.7427 92.168 97.7427C91.2653 97.7235 90.2473 97.6851 89.1718 97.6659C89.0757 97.6659 88.9605 97.6659 88.8453 97.6659C85.2729 97.6083 80.9322 97.6467 76.6683 97.954C76.5723 97.954 76.457 97.9732 76.3418 97.9732C75.0165 98.0692 73.7105 98.1844 72.4428 98.3381C72.3468 98.3381 72.2315 98.3573 72.1163 98.3766C70.9447 98.511 69.7923 98.6838 68.6784 98.8951H68.6591C68.2174 98.9719 67.7756 99.068 67.3531 99.1448C63.9727 99.8362 61.207 100.643 59.075 101.373C58.4028 101.603 57.7882 101.834 57.2312 102.045C54.9648 102.929 53.8316 103.582 53.8316 103.582C53.774 100.662 53.3707 93.3828 52.9865 89.964C52.564 86.3148 51.4884 84.3941 51.4884 84.3941C51.4884 84.3941 50.9507 84.5094 49.7791 88.3699C48.6074 92.2304 46.7828 98.2229 46.7828 98.2229C46.2834 98.2421 45.7072 98.2997 45.0734 98.3766C42.5189 98.6839 39.1001 99.3369 36.5457 99.8747C35.8926 100.009 35.278 100.144 34.7595 100.24C34.5482 100.278 34.3561 100.336 34.1641 100.374C34.2025 100.24 34.2217 100.105 34.2601 99.9899C36.488 90.3866 38.9849 81.4747 40.944 75.9048C45.1118 64.0159 48.3385 59.3487 50.4128 58.8685C51.0275 58.7341 52.1991 58.5996 53.7164 58.3691C54.1581 58.8109 54.7727 59.4063 55.5602 60.0786C56.8086 61.1349 58.4988 62.4025 60.7076 63.6894C63.0124 65.0531 66.5848 66.0902 70.6182 66.8009C70.7334 66.8201 70.8295 66.8393 70.9447 66.8585C72.366 67.1082 73.8641 67.3002 75.3622 67.4539C75.4583 67.4731 75.5735 67.4731 75.6695 67.4923C77.9359 67.7228 80.2215 67.838 82.4303 67.838C84.7735 67.838 87.0975 67.6075 89.3446 67.2042C89.4407 67.185 89.5559 67.1658 89.6519 67.1466C90.9388 66.9161 92.1872 66.6088 93.378 66.2631C93.4933 66.2439 93.5893 66.2055 93.7046 66.1862C99.6394 64.4961 104.364 61.9224 106.093 60.3474C107.053 59.4639 107.937 58.3884 108.686 57.2744C108.052 57.236 107.418 57.1591 106.784 57.0823C109.838 53.894 111.221 50.8594 111.221 50.8594C119.902 56.7942 128.661 64.9186 136.286 76.0776C142.585 85.2584 145.332 95.1882 146.1 98.3573Z" fill="#FFC525"/>
<path d="M55.5618 60.0401C49.3005 63.6318 45.7089 70.1812 42.5398 78.1136C39.121 86.7565 37.0659 94.42 36.5473 99.8362C35.8943 99.9707 35.2797 100.105 34.7611 100.201L34.2617 99.9323C36.4897 90.329 38.9866 81.4171 40.9456 75.8472C45.1135 63.9583 48.3402 59.2911 50.4145 58.8109C51.0291 58.6765 52.2007 58.542 53.718 58.3115C54.1598 58.7917 54.7744 59.3679 55.5618 60.0401Z" fill="#F8B213"/>
<path d="M59.0992 101.372C58.427 101.603 57.8124 101.833 57.2554 102.044C54.989 102.928 53.8559 103.581 53.8559 103.581C53.7982 100.662 53.3949 93.3823 53.0108 89.9635C52.5882 86.3143 51.5127 84.3936 51.5127 84.3936C51.5127 84.3936 50.9748 84.5088 49.8032 88.3694C48.6316 92.2299 46.807 98.2223 46.807 98.2223C46.3076 98.2415 45.7315 98.2992 45.0977 98.376C45.5778 93.5744 47.5369 79.0926 47.9978 76.3652C47.9978 76.3652 53.3181 79.5727 55.354 85.6804C56.6984 89.8291 58.2349 97.1468 59.0992 101.372Z" fill="#F8B213"/>
<path d="M128.74 95.8796C126.224 96.6095 124.38 97.4353 124.13 97.5505C121.921 95.0537 112.088 83.8754 111.588 82.9535C111.031 81.8972 110.436 83.9907 109.399 86.9677C108.362 89.9448 106.595 99.8937 106.595 99.8937C106.595 99.8937 105.135 99.4712 103.176 99.0295C103.982 95.2842 105.481 89.1189 107.401 84.4709C110.378 77.3068 112.261 73.792 112.261 73.792C116.563 77.7486 124.495 89.407 128.74 95.8796Z" fill="#F8B213"/>
<path d="M135.579 216.881C135.579 216.881 134.043 217.015 131.507 217.188C129.472 217.323 126.802 217.496 123.729 217.668C123.21 211.196 122.192 199.557 120.809 186.957C119.542 175.222 117.948 162.661 116.123 152.616C111.744 128.319 108.594 120.349 104.445 109.17C107.384 108.69 109.016 108.325 109.016 108.325C109.823 110.323 114.49 122.077 115.643 129.011C116.91 136.617 122.596 157.609 126.36 174.53C127.071 177.719 127.839 181.234 128.626 184.806C131.988 200.171 135.579 216.881 135.579 216.881Z" fill="#F8B213"/>
<path d="M81.3251 185.977C81.3059 186.323 81.2867 186.669 81.2867 186.995C80.8642 196.964 78.7131 217.303 78.7131 217.303C78.7131 217.303 69.4554 217.668 59.1031 217.188C58.5269 217.169 57.9315 217.131 57.3553 217.111C57.24 217.111 57.144 217.092 57.0288 217.092C55.5499 217.015 54.0517 216.9 52.5728 216.785C52.3039 216.766 52.0543 216.727 51.8046 216.708C51.7085 216.708 51.5933 216.689 51.478 216.67C49.8071 216.516 48.2513 216.324 46.7916 216.113C42.6814 215.517 39.4547 214.768 37.1499 214.134C34.461 213.404 33.0781 212.809 33.0781 212.809C33.0781 212.809 34.1537 204.358 36.1896 192.892C37.7261 184.21 40.319 171.611 42.451 160.317C44.1219 162.699 46.1002 165.138 48.4818 167.577C50.4217 169.575 52.6305 171.534 55.1081 173.435C55.2041 173.512 55.3002 173.589 55.3962 173.666C56.6638 174.626 58.0083 175.567 59.4104 176.47C59.5064 176.528 59.6217 176.605 59.7177 176.662C63.3862 179.005 67.5732 181.176 72.3365 183.039C75.4095 184.21 78.3865 185.19 81.3251 185.977Z" fill="#F8B213"/>
<path d="M135.584 216.881C135.584 216.881 134.047 217.015 131.512 217.188C129.476 217.323 126.806 217.495 123.733 217.668C121.294 217.803 118.605 217.937 115.82 218.033C115.705 218.052 115.609 218.052 115.494 218.052C114.322 218.091 113.112 218.129 111.921 218.168C111.383 218.187 110.846 218.187 110.327 218.206C110.25 218.206 110.154 218.206 110.077 218.206H110.02C98.6494 218.456 89.315 218.168 89.315 218.168C89.315 218.168 86.8565 205.837 86.2035 195.888C86.069 193.641 85.8193 190.51 85.5312 186.995C92.7914 188.57 99.5521 189.012 105.583 188.839C105.698 188.839 105.794 188.839 105.909 188.839C107.523 188.782 109.098 188.686 110.615 188.551C110.73 188.532 110.826 188.532 110.942 188.513C114.61 188.167 117.933 187.61 120.814 186.976C123.964 186.285 126.595 185.516 128.631 184.844C131.992 200.171 135.584 216.881 135.584 216.881Z" fill="#F8B213"/>
<path d="M64.5308 6.41488C64.7997 7.0487 64.7036 7.72091 64.2811 7.89377C63.8777 8.06663 63.3207 7.70173 63.0518 7.0487C62.7829 6.41488 62.8982 5.74264 63.3015 5.56978C63.7049 5.39692 64.2619 5.78106 64.5308 6.41488Z" fill="#F8B213"/>
<path d="M92.9404 5.55061L92.6332 7.62493L92.5756 7.97066L91.7881 13.3485L91.7305 13.675L91.4808 15.346C91.4808 15.346 91.4231 15.3076 91.3271 15.2692C91.0006 15.0963 90.0595 14.6353 88.7342 14.136C88.5037 14.0399 88.254 13.9631 87.9851 13.8671C85.5843 13.0412 82.1847 12.2153 78.5355 12.4266C77.2486 12.5034 76.0002 12.7147 74.8286 13.0028C73.8875 13.2333 72.9848 13.5022 72.1397 13.8095C71.89 13.9055 71.6403 13.9823 71.4098 14.0784C68.5288 15.2115 66.5121 16.556 66.0704 16.8825C66.0128 16.9209 65.9744 16.9593 65.9744 16.9593L65.475 14.9235L65.3981 14.5969L64.3034 10.0834L64.2073 9.71847L63.7656 7.91305C63.7656 7.91305 64.6299 6.99112 66.2817 5.89635C68.7593 4.24458 72.9848 2.18945 78.766 2.18945C88.2925 2.18945 92.9404 5.55061 92.9404 5.55061Z" fill="#FFC525"/>
<path d="M74.8286 13.0029C73.8875 13.2334 72.9848 13.5023 72.1397 13.8096C71.89 13.9056 71.6403 13.9825 71.4098 14.0785C68.5288 15.2117 66.5121 16.5562 66.0704 16.8827C66.0128 16.9211 65.9744 16.9595 65.9744 16.9595L63.7656 7.91318C63.7656 7.91318 64.6299 6.99126 66.2817 5.89648C68.356 9.23844 72.1781 11.6393 74.8286 13.0029Z" fill="#F8B213"/>
<path d="M72.9083 46.5182C71.9672 48.0356 70.3154 50.1099 67.4536 52.5875C66.8006 53.1445 66.1284 53.6631 65.4561 54.1241C65.3601 54.1817 65.2641 54.2585 65.1489 54.3161C61.3844 56.7362 57.2742 57.7349 54.2779 58.2535C54.0859 58.2919 53.8938 58.3111 53.7209 58.3495C53.548 58.3879 53.3752 58.4072 53.2024 58.4264C53.0871 58.4456 52.9526 58.4648 52.8182 58.484C51.7426 58.6376 50.8975 58.7528 50.4174 58.8489C50.3597 58.8681 50.3021 58.8873 50.2445 58.9065C50.1101 58.9449 49.9564 59.0217 49.8027 59.0986C48.343 59.9245 46.4416 62.5558 44.1176 67.7608C44.06 67.8952 44.0023 68.0296 43.9255 68.1833C43.7335 68.6058 43.5414 69.0668 43.3493 69.5278C43.2533 69.7775 43.1381 70.0271 43.042 70.296C42.3698 71.9478 41.6784 73.7916 40.9485 75.8659C39.1047 81.1286 36.7807 89.349 34.6488 98.3377C34.5911 98.5682 34.5335 98.7986 34.4759 99.0483C34.4759 99.0867 34.4567 99.1252 34.4567 99.1636C34.3991 99.4133 34.3414 99.6629 34.2838 99.9126C34.2454 100.066 34.2262 100.201 34.1878 100.354C33.6692 102.621 33.1506 104.945 32.6705 107.269C32.6321 107.442 32.5937 107.614 32.5552 107.787C31.7486 111.667 31.0379 115.528 30.4233 119.254C29.8279 122.884 29.3669 126.379 29.0596 129.548C29.0404 129.779 29.0212 129.99 29.002 130.201V130.221C28.9636 130.643 28.9251 131.066 28.9059 131.488C28.8099 132.737 28.7139 134.139 28.6371 135.637C28.6371 135.791 28.6178 135.963 28.5986 136.117C28.1569 143.857 27.8304 154.498 27.696 165.369C27.696 165.561 27.696 165.753 27.696 165.945C27.5423 179.063 27.6959 192.45 28.2721 201.458C28.2913 201.631 28.2913 201.823 28.3105 201.996C28.4066 203.225 28.4834 204.339 28.5986 205.376C29.4053 213.539 30.3273 225.159 31.0379 234.762C31.0571 234.916 31.0763 235.089 31.0763 235.242C31.7869 244.711 32.3055 252.106 32.3055 252.106C32.3055 252.106 26.678 252.913 18.3231 254.123C15.4998 254.526 12.4843 254.91 9.71854 255.237C9.6033 255.256 9.48806 255.275 9.35361 255.275C4.14862 255.89 0 256.293 0 256.293C0 256.293 0.86431 249.763 2.11274 240.563C2.13195 240.351 2.17032 240.159 2.18952 239.948C2.4008 238.392 2.61212 236.779 2.8426 235.108C2.88101 234.858 2.9194 234.609 2.93861 234.378C4.01418 226.465 5.26262 217.438 6.43423 209.16C6.45343 209.006 6.47264 208.853 6.49185 208.718C8.22044 196.656 9.77615 186.227 10.4868 183.154C10.506 183.02 10.5444 182.904 10.5636 182.789C10.5636 182.77 10.5637 182.751 10.5829 182.732C10.6021 182.636 10.6404 182.539 10.6596 182.424C10.6981 182.251 10.7365 182.059 10.7941 181.867C11.4471 179.044 12.5804 172.821 13.944 165.196C13.9632 165.023 14.0016 164.85 14.04 164.677C14.3089 163.141 14.597 161.547 14.8851 159.933C14.8851 159.933 14.8851 159.933 14.9044 159.933C14.9236 159.78 14.9619 159.607 14.9811 159.453C16.3448 151.732 17.8622 143.185 19.2642 135.483C19.2834 135.31 19.3218 135.138 19.3602 134.965C19.706 133.082 20.0517 131.258 20.3782 129.529C20.3974 129.376 20.4358 129.241 20.455 129.107C21.3962 124.113 22.2605 119.753 22.9519 116.642C22.9903 116.469 23.0288 116.296 23.0672 116.142C23.0672 116.104 23.0863 116.085 23.0863 116.046C23.1055 115.969 23.1247 115.893 23.1439 115.816C23.1632 115.72 23.1824 115.624 23.2208 115.528C24.0467 111.994 25.103 107.672 26.2746 103.024C26.3131 102.832 26.3707 102.659 26.4091 102.467C26.8316 100.777 27.2734 99.0484 27.7344 97.3198C27.7728 97.1469 27.8112 96.974 27.8688 96.8012C29.098 92.0379 30.4233 87.1979 31.7101 82.7035C31.7678 82.473 31.8445 82.2617 31.9022 82.0505V82.0313C31.979 81.8008 32.0366 81.5703 32.0942 81.3398C34.1301 74.291 36.0316 68.3177 37.3761 65.3023C38.5669 62.6326 39.5464 60.443 40.5836 58.58C40.6412 58.4455 40.718 58.3303 40.7948 58.1959C41.179 57.5236 41.5631 56.8898 41.9665 56.2944C42.0241 56.1984 42.0817 56.1216 42.1585 56.0255C43.1381 54.6427 44.2328 53.4326 45.5965 52.3378C45.6925 52.261 45.7885 52.1842 45.8846 52.1074C46.8065 51.3967 47.8437 50.7245 49.0537 50.0715C49.7452 49.6873 50.5134 49.3224 51.3393 48.9383C51.4545 48.8807 51.5698 48.8422 51.6658 48.7846C54.9309 47.3057 58.9259 45.9228 62.8057 44.7705C62.9401 44.732 63.0745 44.6936 63.209 44.6552C64.8608 44.175 66.4741 43.7333 68.0106 43.33C68.1259 43.3107 68.2411 43.2723 68.3563 43.2531C68.7789 43.1379 69.1823 43.0418 69.5856 42.9458C70.0273 43.6757 70.5075 44.3479 71.0645 44.9817C71.2565 45.193 71.4486 45.3851 71.6407 45.5771C72.0056 45.8844 72.4473 46.2109 72.9083 46.5182Z" fill="#E43417"/>
<path d="M82.5829 71.2949L78.2422 76.5959L82.775 81.9162L86.962 76.3462L82.5829 71.2949Z" fill="#411E59"/>
<path d="M55.6842 229.75C53.8596 233.821 49.3653 240.774 49.3653 240.774C50.1143 244.097 49.3653 251.165 49.3653 251.165C47.9824 252.125 44.5444 252.452 44.5444 252.452L43.0655 249.744L42.7198 249.129L41.0104 252.874C41.0104 252.874 39.301 253.297 33.0973 253.95C26.8743 254.584 20.3633 253.412 20.3633 253.412C20.3633 253.412 23.8973 249.456 28.2764 245.922C32.6747 242.387 37.1691 240.352 37.1691 240.352C36.9962 239.046 37.1499 222.701 37.1691 216.094C37.1691 215.287 37.1691 214.634 37.1691 214.154C40.4342 215.057 45.6392 216.19 52.5728 216.785C54.7431 216.977 56.9519 217.112 59.103 217.208C58.9301 220.55 57.3552 226.004 55.6842 229.75Z" fill="#3C1E87"/>
<path d="M144.354 260C144.354 260 140.282 259.193 134.079 257.484C127.875 255.775 125.186 254.372 125.09 254.142C124.975 253.912 122.939 250.531 122.939 250.205C122.939 249.878 120.807 252.337 120.807 252.337C120.807 252.337 117.695 246.459 115.122 236.587C112.74 227.426 110.992 223.45 110.07 218.206C110.666 218.187 111.3 218.187 111.914 218.168C119.674 217.957 127.107 217.496 131.505 217.188L131.563 219.224L132.158 241.715C139.245 248.515 143.413 257.753 144.22 259.635C144.316 259.866 144.354 260 144.354 260Z" fill="#3C1E87"/>
<path d="M118.869 56.6402C116.257 57.1972 112.531 57.5045 108.69 57.2164C108.574 57.2164 108.459 57.1972 108.344 57.178C108.19 57.178 108.056 57.1588 107.902 57.1396C107.326 57.082 106.769 57.0244 106.193 56.9283C106.078 56.9091 105.943 56.8899 105.828 56.8707C103.773 56.5442 101.756 56.0448 99.9315 55.2766C97.2234 54.1434 94.6305 52.6261 92.5562 50.8014C92.4601 50.7246 92.3833 50.6478 92.2872 50.5709C90.8852 49.2841 89.7136 47.8628 88.9453 46.3263C89.8288 45.6541 90.5779 44.809 91.1925 43.9255C91.9992 42.7539 92.5946 41.467 92.9595 40.2378C94.9378 41.1021 100.93 43.0996 106.078 46.019C106.212 46.0958 106.347 46.1726 106.481 46.2494C107.384 46.7872 108.267 47.3442 109.093 47.9204C109.573 48.2662 110.034 48.6119 110.495 48.9384C110.591 49.0152 110.687 49.092 110.764 49.1497C112.07 50.1484 113.203 51.0895 114.202 51.9538C114.279 52.0306 114.356 52.0883 114.452 52.1651C117.352 54.7772 118.869 56.6402 118.869 56.6402Z" fill="#E43417"/>
<path d="M69.1016 20.0135C70.5997 19.8599 71.8865 19.687 73.4998 19.8023C75.1132 19.9175 75.5934 20.1288 75.747 19.2645C75.9007 18.4002 74.6714 17.7664 72.4243 17.92C70.1003 18.0929 69.1016 20.0135 69.1016 20.0135Z" fill="#350502"/>
<path d="M82.0756 19.341C81.5954 18.5727 82.9975 17.5356 84.8413 17.4011C87.5495 17.2091 88.6442 19.3026 88.6442 19.3026C88.6442 19.3026 87.2229 19.1297 85.2254 19.2065C83.1895 19.2833 82.4981 20.0132 82.0756 19.341Z" fill="#350502"/>
<path d="M90.8614 31.7101C90.8614 31.7101 90.4581 32.2479 89.7282 32.9009C89.4593 33.1506 89.1328 33.4003 88.7487 33.65C87.846 34.2646 86.6744 34.8408 85.3107 35.052C82.8715 35.417 79.9328 34.6295 79.0301 33.3427C79.0301 33.3427 78.9149 33.8805 77.8586 34.7448C76.783 35.6091 72.7111 36.6654 70.8481 35.0905C70.5792 34.86 70.3296 34.6295 70.1183 34.4182C69.9454 34.2454 69.7726 34.0725 69.6381 33.8997C68.697 32.8433 68.332 32.0174 68.332 32.0174C68.3512 31.9982 68.3704 31.979 68.3896 31.9598C68.4665 31.8637 68.5433 31.7869 68.6393 31.7101C70.2335 30.1928 72.3078 30.1159 74.2285 30.7306C76.2644 31.3836 79.4527 31.6141 79.4527 31.6141C80.0865 31.9022 83.294 29.5013 87.1546 30.0007C87.4426 30.0391 87.7307 30.1159 88.038 30.1928C88.1917 30.2504 88.3646 30.2888 88.5182 30.3657C89.7858 30.8842 90.8614 31.7101 90.8614 31.7101Z" fill="#633C2D"/>
<path d="M113.121 130.144C113.217 130.01 113.294 129.914 113.294 129.914C113.294 129.914 113.217 130.01 113.121 130.144Z" fill="#F2B5AA"/>
<path d="M118.867 128.627C118.867 129.203 118.598 129.818 118.099 130.413C117.157 131.527 115.41 132.545 113.316 133.102C111.933 133.467 111.741 132.948 111.972 132.199C112.068 131.834 112.298 131.431 112.509 131.047C112.701 130.72 112.913 130.432 113.066 130.221C113.009 130.298 112.951 130.375 112.874 130.471C112.836 130.509 112.817 130.567 112.778 130.605C112.663 130.74 112.548 130.913 112.413 131.066C111.261 132.449 109.379 134.485 108.726 133.755C108.342 133.333 108.687 132.103 109.225 130.778C109.475 130.163 109.782 129.53 110.07 128.934C110.32 128.435 110.57 127.955 110.781 127.571C110.781 127.571 110.781 127.571 110.781 127.551C111.107 126.956 111.338 126.553 111.376 126.476C111.184 126.725 107.497 131.45 106.671 129.895C106.229 129.049 106.843 127.244 107.535 125.727C107.823 125.093 108.13 124.517 108.361 124.056C108.534 123.729 108.668 123.48 108.745 123.345C108.265 124.056 105.422 128.204 104.539 127.417C103.578 126.553 106.037 121.847 108.073 119.062C110.109 116.277 111.05 116.488 111.933 117.564C112.529 118.294 112.682 119.6 112.682 119.6C112.951 119.6 113.182 119.696 113.374 119.811C114.488 120.522 114.718 122.807 114.718 122.807C116.639 123.46 116.754 127.09 116.754 127.09C116.754 127.09 118.233 126.937 118.732 127.897C118.809 128.108 118.867 128.339 118.867 128.627Z" fill="#F2B5AA"/>
<path d="M57.0607 141.054C57.0415 141.111 57.0223 141.13 57.0031 141.169C56.0811 142.705 51.3756 139.248 50.857 139.863C50.3192 140.516 51.606 148.755 52.5663 150.58C52.6047 150.638 52.624 150.695 52.6432 150.753C52.7392 150.945 52.7968 151.099 52.8353 151.252C53.0273 151.963 52.7008 152.27 52.0669 152.443C51.7981 152.52 51.4716 152.558 51.1258 152.577C50.9914 152.597 50.8569 152.597 50.7033 152.616C50.6073 152.616 50.5305 152.616 50.4344 152.616C48.6098 152.712 47.2269 152.501 45.0758 149.831C44.7685 149.447 44.4611 149.063 44.1538 148.64C42.2716 146.124 40.3125 143.07 39.6211 140.823C39.6211 140.823 40.3317 138.153 41.9643 136.021C42.1564 135.772 42.3484 135.522 42.5789 135.292C44.634 133.083 49.0515 131.508 49.0515 131.508C50.5305 132.699 57.8097 139.229 57.0607 141.054Z" fill="#F2B5AA"/>
<path d="M88.0778 2.30508C87.9626 2.99651 87.5209 3.49589 87.0791 3.41906C86.6374 3.34224 86.3685 2.72761 86.4837 2.05538C86.599 1.36394 87.0407 0.864568 87.4824 0.941394C87.9242 1.01822 88.1931 1.63285 88.0778 2.30508Z" fill="#FFC525"/>
<path d="M93.5005 4.59047C93.27 5.2435 92.7322 5.64686 92.3289 5.51241C91.9063 5.35876 91.7719 4.70572 92.0023 4.05269C92.2328 3.39967 92.7706 2.99634 93.174 3.13078C93.5965 3.28444 93.7309 3.93745 93.5005 4.59047Z" fill="#FFC525"/>
<path d="M80.6517 1.22922C80.6709 1.92066 80.3445 2.49688 79.9027 2.51609C79.4609 2.5353 79.0768 1.97831 79.0576 1.28687C79.0192 0.595431 79.3649 0.0192066 79.8066 0C80.2484 0 80.6325 0.537784 80.6517 1.22922Z" fill="#FFC525"/>
<path d="M73.9389 1.72886C74.0541 2.4203 73.8045 3.03492 73.3627 3.11174C72.921 3.18857 72.4792 2.68919 72.364 1.99776C72.2487 1.30632 72.4984 0.691703 72.9402 0.614877C73.3627 0.557257 73.8237 1.05663 73.9389 1.72886Z" fill="#FFC525"/>
<path d="M68.8338 3.72629C69.0451 4.39852 68.8531 5.03234 68.4305 5.16679C68.008 5.30123 67.5086 4.85949 67.2973 4.18726C67.0861 3.51503 67.2781 2.88121 67.7007 2.74676C68.1232 2.61232 68.6226 3.05406 68.8338 3.72629Z" fill="#FFC525"/>
<path d="M75.9648 7.27921C75.9648 6.28047 76.7908 5.45459 77.7895 5.45459C78.7882 5.45459 79.6141 6.26126 79.6141 7.27921C79.6141 8.27796 78.7882 9.10384 77.7895 9.10384C76.7908 9.08463 75.9648 8.27796 75.9648 7.27921Z" fill="#E43417"/>
<path d="M65.6094 10.7942C65.6094 10.1219 66.1663 9.56494 66.8386 9.56494C67.5108 9.56494 68.0678 10.1219 68.0678 10.7942C68.0678 11.4664 67.5108 12.0234 66.8386 12.0234C66.1663 12.0234 65.6094 11.4856 65.6094 10.7942Z" fill="#411E59"/>
<path d="M88.1016 9.08469C88.1016 8.41246 88.6586 7.85547 89.3308 7.85547C90.003 7.85547 90.56 8.41246 90.56 9.08469C90.56 9.75692 90.003 10.3139 89.3308 10.3139C88.6586 10.3139 88.1016 9.77613 88.1016 9.08469Z" fill="#411E59"/>
<path d="M65.9736 27.773C65.3206 26.2173 64.1874 25.0649 64.1682 25.0457C64.1106 24.988 64.1106 24.8728 64.1682 24.8152C64.2258 24.7576 64.3219 24.7576 64.3987 24.8152C64.4563 24.8728 65.2438 25.6603 65.8968 26.8511C65.916 27.1584 65.9352 27.4657 65.9736 27.773Z" fill="#350502"/>
<path d="M94.5359 22.5874C94.4207 22.7026 93.6908 23.7206 93.2299 25.0266C93.2107 24.7769 93.1914 24.5272 93.1914 24.2583C93.6716 23.1636 94.267 22.3569 94.3822 22.2992C94.459 22.2608 94.5551 22.2993 94.5935 22.3761C94.6319 22.4529 94.6127 22.549 94.5359 22.5874Z" fill="#350502"/>
<path d="M91.7877 13.3676L91.7301 13.6941C89.0796 12.3689 83.3176 9.89123 78.3431 10.2369C72.6579 10.6403 67.184 13.8094 65.4362 14.9234L65.3594 14.5969C67.2608 13.406 72.7155 10.333 78.3046 9.92967C83.3175 9.58395 89.0604 12.0232 91.7877 13.3676Z" fill="#350502"/>
<path d="M92.6403 7.6442L92.5827 7.9899C90.1434 6.60702 84.8424 4.12938 78.024 4.39827C70.303 4.68637 65.6166 8.64294 64.2913 10.1026L64.1953 9.73771C65.7703 8.08594 70.4182 4.37906 78.0048 4.09096C84.804 3.80286 90.1242 6.22291 92.6403 7.6442Z" fill="#350502"/>
<path d="M53.854 103.754C53.8348 103.754 53.8348 103.754 53.854 103.754C53.758 103.754 53.6811 103.677 53.7003 103.581C53.758 101.411 53.1625 93.4399 52.9129 90.5205C52.6632 87.6203 51.4916 84.7201 51.4916 84.7009C49.8974 81.455 45.5183 70.9106 45.4799 70.7953C45.4415 70.7185 45.4799 70.6225 45.5568 70.5841C45.6336 70.5456 45.7296 70.5841 45.768 70.6801C45.8064 70.7761 50.1855 81.3398 51.7797 84.5857C51.7989 84.6241 52.9705 87.5627 53.2394 90.5205C53.4891 93.4399 54.0845 101.43 54.0269 103.619C54.0077 103.677 53.9309 103.754 53.854 103.754Z" fill="#350502"/>
<path d="M46.7873 98.3571C46.7681 98.3571 46.7489 98.3571 46.7489 98.3571C46.6529 98.3379 46.6145 98.2419 46.6337 98.1651C46.6337 98.1651 47.7669 94.4198 49.1114 90.0215C50.4558 85.6424 51.3777 84.4131 51.4161 84.3747C51.4738 84.2979 51.5698 84.2979 51.6466 84.3555C51.7234 84.4131 51.7235 84.5092 51.6851 84.586C51.6851 84.6052 50.7439 85.8344 49.4379 90.1367C48.0934 94.535 46.9602 98.2803 46.9602 98.2803C46.9218 98.3187 46.845 98.3571 46.7873 98.3571Z" fill="#350502"/>
<path d="M106.582 100.047C106.582 100.047 106.563 100.047 106.582 100.047C106.486 100.047 106.41 99.9702 106.429 99.8741C106.832 94.7268 109.521 86.1222 110.808 82.857C112.191 79.323 112.114 72.1206 112.056 70.0078C112.056 69.9118 112.133 69.8542 112.21 69.835C112.306 69.8542 112.364 69.8926 112.364 69.9886C112.44 72.7352 112.479 79.4959 111.096 82.9723C109.828 86.2182 107.139 94.7651 106.736 99.8933C106.736 99.9893 106.659 100.047 106.582 100.047Z" fill="#350502"/>
<path d="M125.288 99.6438C125.23 99.6438 125.172 99.6246 125.153 99.5669L124.212 97.9536C124.212 97.9536 119.718 92.7486 117.432 90.1173C115.166 87.5244 111.017 82.6459 110.979 82.6075C110.921 82.5499 110.921 82.4346 110.998 82.377C111.055 82.3194 111.171 82.3194 111.228 82.3962C111.267 82.4538 115.415 87.3131 117.682 89.906C119.986 92.5373 124.5 97.7615 124.5 97.7615L125.46 99.3941C125.499 99.4709 125.48 99.5669 125.403 99.6053C125.345 99.6438 125.326 99.6438 125.288 99.6438Z" fill="#350502"/>
<path d="M72.4454 98.3379C72.3493 98.3379 72.2341 98.3571 72.1188 98.3763C71.5234 90.9818 70.7552 72.2937 70.6016 66.7622C70.7168 66.7814 70.8128 66.8006 70.928 66.8198C71.1009 72.3897 71.85 90.9433 72.4454 98.3379Z" fill="#350502"/>
<path d="M93.7039 66.1284C93.627 67.857 93.5502 70.7764 93.4542 74.2528C93.2429 81.9931 92.974 92.3646 92.4554 97.7425C92.3594 97.7425 92.2441 97.7233 92.1289 97.7233C92.6475 92.3647 92.9164 81.9739 93.1276 74.2336C93.2237 70.8148 93.3005 67.9338 93.3773 66.2052C93.4926 66.186 93.6078 66.1476 93.7039 66.1284Z" fill="#350502"/>
<path d="M76.668 97.9344C76.572 97.9344 76.4567 97.9536 76.3414 97.9536C76.1494 95.7064 75.8037 91.3849 75.4003 84.4705C74.8818 75.4242 75.2083 69.2973 75.3427 67.415C75.4388 67.4342 75.5539 67.4343 75.65 67.4535C75.5155 69.3549 75.1699 75.4434 75.7077 84.4705C76.1302 91.3849 76.4567 95.6872 76.668 97.9344Z" fill="#350502"/>
<path d="M89.6156 84.951C89.558 90.5402 89.2891 95.4571 89.1547 97.6658C89.0586 97.6658 88.9434 97.6658 88.8281 97.6658C88.9626 95.4763 89.2314 90.5402 89.2891 84.951C89.3467 78.536 89.3659 70.354 89.3275 67.1465C89.4235 67.1273 89.5388 67.1081 89.6348 67.0889C89.7309 71.5448 89.6156 84.7974 89.6156 84.951Z" fill="#350502"/>
<path d="M76.2792 95.5529C76.2408 95.5529 76.2216 95.5337 76.1832 95.5145C76.1063 95.4569 76.0871 95.3608 76.1447 95.284L82.4829 86.1608L75.146 76.4423C75.1076 76.3847 75.1076 76.3079 75.146 76.2502L82.2909 67.6841C82.3293 67.6457 82.3677 67.6265 82.4253 67.6265C82.4637 67.6265 82.5214 67.6457 82.5406 67.6841L89.6278 76.2502C89.6662 76.3079 89.6854 76.3847 89.6278 76.4423L82.867 86.1608L89.3205 94.7078C89.3781 94.7846 89.3589 94.8807 89.282 94.9383C89.2052 94.9959 89.1092 94.9767 89.0516 94.8999L82.6558 86.4297L76.3752 95.4761C76.3944 95.5337 76.3368 95.5529 76.2792 95.5529ZM75.4917 76.3655L82.6942 85.9112L89.3205 76.3655L82.4445 68.049L75.4917 76.3655Z" fill="#350502"/>
<path d="M110.896 120.598C110.569 121.616 108.879 123.96 107.516 125.746C107.804 125.112 108.111 124.536 108.341 124.075C109.379 122.654 110.358 121.194 110.589 120.483C110.608 120.406 110.704 120.349 110.781 120.387C110.877 120.426 110.934 120.502 110.896 120.598Z" fill="#350502"/>
<path d="M70.3798 111.648C69.6307 114.625 68.44 118.735 67.0763 123.498C63.1581 136.981 57.3001 157.129 55.4179 173.647C55.3602 174.165 55.3026 174.665 55.2642 175.183C53.1707 196.176 52.1143 211.81 51.807 216.708C51.711 216.708 51.5957 216.689 51.4805 216.67C51.7878 211.753 52.8442 196.119 54.9377 175.145C54.9953 174.569 55.0529 173.993 55.1298 173.416C57.0504 156.918 62.87 136.847 66.769 123.402C68.1326 118.697 69.3234 114.606 70.0533 111.648H70.3798Z" fill="#350502"/>
<path d="M115.818 218.034C115.703 218.053 115.607 218.053 115.492 218.053C114.589 212.656 112.572 200.594 110.613 188.532C108.942 178.276 107.31 168.02 106.407 161.835C105.293 154.076 102.373 143.858 99.5693 133.985C97.0148 125.035 94.5948 116.488 93.7305 110.573C93.8457 110.553 93.9418 110.553 94.057 110.534C94.9213 116.431 97.3413 124.958 99.8766 133.909C102.681 143.781 105.581 153.999 106.714 161.777C107.617 167.962 109.249 178.218 110.92 188.494C112.899 200.594 114.915 212.675 115.818 218.034Z" fill="#350502"/>
<path d="M94.6165 218.264C91.313 218.226 89.2963 218.168 89.2963 218.168C89.2963 218.168 86.8378 205.838 86.1848 195.888C86.0504 193.641 85.8007 190.511 85.5126 186.996C85.5126 186.977 85.5126 186.957 85.5126 186.919C84.533 174.819 83.0349 158.282 83.0349 158.282C83.0349 158.282 81.8057 175.645 81.3255 185.824C81.3255 185.863 81.3255 185.92 81.3255 185.959C81.3063 186.304 81.2871 186.65 81.2871 186.977C80.8646 196.945 78.7135 217.285 78.7135 217.285C78.7135 217.285 76.908 217.362 74.0078 217.4C74.488 213.501 76.4663 197.636 78.0796 184.864C78.7134 179.889 79.2896 175.395 79.693 172.245C81.3063 159.876 83.1502 146.163 83.1502 146.163C83.1502 146.163 87.5677 173.532 89.2579 185.421C89.3539 186.17 89.4691 186.957 89.6036 187.764C91.0249 197.483 93.5794 212.272 94.6165 218.264Z" fill="#3C1E87"/>
<path d="M146.115 98.5297C146.096 98.5297 146.057 98.5297 146.038 98.5105C145.981 98.4721 139.931 94.9765 135.167 94.9765C135.129 94.9765 135.09 94.9765 135.052 94.9765C130.462 95.0342 124.738 97.4542 124.296 97.7423C124.277 97.7615 124.258 97.7807 124.22 97.7999C124.143 97.8191 124.047 97.7807 124.027 97.7039C124.008 97.6462 124.027 97.5886 124.047 97.5502C124.2 97.3389 130.154 94.7268 135.052 94.6692C139.316 94.6308 144.559 97.3389 145.885 98.0688C145.462 96.2826 143.407 88.0237 139.719 82.0313C139.681 81.9544 139.7 81.8584 139.777 81.82C139.854 81.7816 139.95 81.8008 139.988 81.8776C144.156 88.6575 146.25 98.2801 146.269 98.3761C146.288 98.4337 146.25 98.5105 146.211 98.5297C146.192 98.5105 146.154 98.5297 146.115 98.5297Z" fill="#350502"/>
<path d="M89.7132 32.9008C89.4443 33.1505 89.1178 33.4002 88.7337 33.6499C86.4673 34.4374 83.7592 34.3797 82.2419 34.034C80.2252 33.5538 79.2648 32.5935 78.9383 32.171C78.4774 32.8048 76.864 34.7063 73.7717 34.8599C73.5797 34.8599 73.3876 34.8791 73.1955 34.8791C71.9087 34.8791 70.8715 34.687 70.0841 34.4374C69.9112 34.2645 69.7383 34.0916 69.6039 33.9188C70.4874 34.2645 71.8895 34.6294 73.7525 34.5526C75.6732 34.4758 76.9792 33.6691 77.7859 32.9584C76.5375 32.1518 74.6745 32.3246 73.3108 32.6127C71.2365 33.0545 69.431 32.4783 68.3555 31.9597C68.4323 31.8637 68.5091 31.7869 68.6052 31.71C69.6615 32.1902 71.3517 32.6896 73.2531 32.2862C74.7128 31.9789 76.7103 31.8061 78.0548 32.7088C78.5542 32.2286 78.8039 31.8253 78.8039 31.8061L78.8231 31.7868C78.8423 31.7676 78.8615 31.7484 78.8999 31.7484C78.8999 31.7484 78.8999 31.7484 78.9191 31.7484H78.9383C79.0536 31.7484 79.188 31.8061 79.4761 31.9405C80.3212 32.3246 82.069 33.1697 83.9128 32.1518C84.0473 32.0749 86.2176 30.9034 87.9846 30.2119C88.1383 30.2695 88.3111 30.3079 88.4648 30.3848C87.3124 30.7881 85.699 31.5371 84.0665 32.4399C83.3558 32.824 82.6644 32.9584 82.0306 32.9584C80.955 32.9584 80.0523 32.5551 79.4569 32.2862C79.9178 32.728 80.8014 33.4002 82.2995 33.7459C84.0473 34.1301 87.3892 34.1301 89.7132 32.9008Z" fill="#7C4C3D"/>
<path d="M78.0719 48.5352C78.0527 48.5352 78.0527 48.5352 78.0335 48.5352C77.9567 48.516 77.8991 48.42 77.9183 48.3432C77.9567 48.1895 77.9183 46.9603 77.899 45.539C77.8414 42.8885 77.7838 39.2776 77.9183 37.1073C77.9183 37.0112 77.9951 36.9536 78.0911 36.9536C78.1872 36.9536 78.2448 37.0304 78.2448 37.1265C78.1295 39.2776 78.1872 43.0421 78.2256 45.539C78.264 47.5749 78.264 48.2855 78.2256 48.42C78.2064 48.4776 78.1487 48.5352 78.0719 48.5352Z" fill="#633C2D"/>
<path d="M84.1831 48.4391C84.1062 48.4391 84.0486 48.4007 84.0294 48.3238C84.0102 48.247 84.0103 48.0549 83.991 47.5172C83.9718 46.2879 83.9526 43.7335 83.4724 41.1982C83.4532 41.1214 83.5109 41.0253 83.6069 41.0061C83.6837 40.9869 83.7798 41.0445 83.799 41.1406C84.2791 43.6951 84.3175 46.2879 84.3368 47.5172C84.3368 47.8629 84.3368 48.1894 84.356 48.247C84.3752 48.3239 84.3175 48.4199 84.2407 48.4391C84.2023 48.4391 84.2023 48.4391 84.1831 48.4391Z" fill="#633C2D"/>
<path d="M72.5401 42.4276C72.5209 42.4276 72.5209 42.4276 72.5401 42.4276C72.4248 42.4084 72.3672 42.3315 72.3865 42.2547C72.6361 39.8923 73.0203 38.3366 73.1739 38.1061C73.2316 38.0293 73.3276 38.0101 73.4044 38.0677C73.4812 38.1253 73.5004 38.2213 73.462 38.2981C73.3852 38.4134 73.0011 39.7963 72.7322 42.2931C72.6745 42.37 72.6169 42.4276 72.5401 42.4276Z" fill="#633C2D"/>
<path d="M88.2342 42.8884C88.1574 42.8884 88.0806 42.8116 88.0806 42.7348C87.8309 39.0279 86.6593 36.2622 86.6401 36.2429C86.6017 36.1661 86.6401 36.0701 86.7169 36.0317C86.7937 35.9933 86.8898 36.0317 86.9282 36.1085C86.9474 36.1277 88.1382 38.9511 88.3879 42.7156C88.4071 42.8116 88.3303 42.8884 88.2342 42.8884Z" fill="#633C2D"/>
<path d="M50.2429 58.8875C50.1084 58.9259 49.9548 59.0027 49.8011 59.0796C47.3811 58.2921 43.8471 57.1013 41.9648 56.1986C42.0225 56.1025 42.0801 56.0257 42.1569 55.9297C44.0968 56.8708 47.8613 58.1384 50.2429 58.8875Z" fill="#350502"/>
<path d="M65.4504 54.1051C65.3544 54.1627 65.2584 54.2395 65.1432 54.2971C63.0304 53.0487 58.0943 50.1869 56.3849 49.5531C56.0584 50.5326 54.4259 55.584 53.1967 58.3881C53.0814 58.4073 52.9469 58.4265 52.8125 58.4457C54.1762 55.4495 56.0969 49.361 56.1353 49.2842C56.1545 49.2458 56.1736 49.2073 56.2121 49.1881C56.2505 49.1689 56.2889 49.1689 56.3273 49.1689C57.9791 49.7451 63.3569 52.8566 65.4504 54.1051Z" fill="#350502"/>
<path d="M43.3531 69.5278C43.257 69.7775 43.1418 70.0272 43.0458 70.2961C40.6257 72.7353 35.5168 77.9211 31.8867 81.9545C31.9635 81.724 32.0212 81.4936 32.0788 81.2631C35.9777 76.98 41.3172 71.6021 43.3531 69.5278Z" fill="#350502"/>
<path d="M44.1196 67.7611C44.062 67.8955 44.0044 68.0299 43.9276 68.1836C43.2553 66.2821 41.3539 60.9235 40.5664 58.4843C40.624 58.3498 40.7009 58.2345 40.7777 58.1001C41.4691 60.232 43.3322 65.5331 44.1196 67.7611Z" fill="#350502"/>
<path d="M34.6528 98.3378C34.5952 98.5683 34.5376 98.7988 34.48 99.0484C34.48 99.0869 34.4608 99.1253 34.4608 99.1637C33.4428 93.056 32.0983 85.0468 31.6758 82.6652C31.7334 82.4347 31.8102 82.2235 31.8679 82.0122C32.0791 82.9533 33.0203 88.4464 34.6528 98.3378Z" fill="#350502"/>
<path d="M32.6694 107.25C32.631 107.423 32.5926 107.596 32.5542 107.769L23.0469 115.989C23.0661 115.912 23.0853 115.835 23.1045 115.759C23.1237 115.662 23.1429 115.566 23.1813 115.47L32.6694 107.25Z" fill="#350502"/>
<path d="M9.69955 255.237C9.58431 255.256 9.46907 255.275 9.33462 255.275C6.85697 251.396 3.76473 244.481 2.09375 240.544C2.11296 240.333 2.15139 240.14 2.17059 239.929C3.80316 243.79 7.08745 251.261 9.69955 255.237Z" fill="#350502"/>
<path d="M28.4038 201.823C28.4038 201.823 28.3654 201.881 28.2886 201.977C27.2707 203.321 19.9337 213.117 15.0168 219.205C14.9592 219.282 14.8824 219.378 14.8248 219.436C13.5379 221.011 12.4239 222.336 11.6748 223.142C9.00512 225.966 5.06781 231.728 2.83984 235.089C2.87826 234.839 2.91665 234.59 2.93585 234.359C5.20223 230.96 8.88993 225.62 11.4252 222.931C12.1935 222.125 13.3074 220.799 14.5943 219.205C14.6519 219.128 14.7287 219.051 14.7864 218.955C19.7801 212.79 27.2514 202.803 28.0773 201.727C27.6356 201.132 25.1387 197.867 21.5471 193.814C18.1283 189.973 12.0974 184.556 10.484 183.116C10.5032 182.981 10.5417 182.866 10.5609 182.751C11.963 183.999 18.2435 189.627 21.7775 193.603C25.2155 197.463 27.6548 200.613 28.2502 201.42C28.3462 201.535 28.3846 201.612 28.4038 201.612C28.4423 201.689 28.4423 201.766 28.4038 201.823Z" fill="#350502"/>
<path d="M28.6148 135.618C28.6148 135.771 28.5956 135.944 28.5764 136.098L17.8399 146.815L27.6736 165.35L27.8273 165.618C27.8657 165.676 27.8465 165.753 27.8081 165.81C27.8081 165.81 27.7505 165.868 27.6929 165.945C26.9822 166.713 23.3137 170.612 18.5889 175.068C14.4019 179.005 11.6361 181.56 10.6758 182.443C10.7142 182.271 10.7526 182.078 10.8102 181.886C11.9818 180.811 14.5939 178.372 18.3584 174.838C23.1985 170.305 26.9246 166.31 27.5008 165.695L17.5326 146.892C17.4941 146.834 17.5133 146.758 17.5517 146.7L28.6148 135.618Z" fill="#350502"/>
<path d="M29.0563 129.529C29.0371 129.76 29.0179 129.971 28.9987 130.182L22.9102 116.603C22.9486 116.431 22.987 116.258 23.0254 116.104L29.0563 129.529Z" fill="#350502"/>
<path d="M31.0412 235.243C29.1205 233.437 20.4967 225.294 16.3289 221.049C15.8487 220.55 15.3301 220.012 14.8116 219.436C14.7347 219.359 14.6771 219.282 14.6003 219.205C11.6809 215.959 8.37737 211.734 6.4375 209.141C6.45671 208.987 6.47591 208.834 6.49512 208.699C8.37737 211.215 11.7385 215.575 14.7924 218.975C14.8692 219.052 14.946 219.128 15.0036 219.205C15.5414 219.781 16.06 220.338 16.5401 220.838C20.5351 224.91 28.6403 232.554 31.0027 234.763C31.0219 234.916 31.0412 235.089 31.0412 235.243Z" fill="#350502"/>
<path d="M102.134 46.2882L106.167 56.9479C106.052 56.9286 105.918 56.9094 105.802 56.8902L101.903 46.5571L92.5306 50.8209C92.4345 50.7441 92.3578 50.6673 92.2617 50.5905L101.923 46.1921C101.961 46.1729 101.999 46.1729 102.057 46.1921C102.095 46.2113 102.134 46.2498 102.134 46.2882Z" fill="#350502"/>
<path d="M114.41 52.1654L108.34 57.1783C108.187 57.1783 108.052 57.1591 107.898 57.1399L114.16 51.9541C114.256 52.0309 114.333 52.1078 114.41 52.1654Z" fill="#350502"/>
<path d="M140.891 111.859L136.089 121.693C136.07 121.482 136.05 121.271 136.031 121.078L140.161 112.628L140.795 111.302C140.833 111.225 140.929 111.187 141.006 111.226C141.083 111.264 141.121 111.36 141.083 111.437L140.891 111.859Z" fill="#350502"/>
<path d="M149.228 132.583L136.167 122.711C136.148 122.577 136.148 122.423 136.129 122.289L149.151 132.142C149.17 132.276 149.209 132.43 149.228 132.583Z" fill="#350502"/>
<path d="M149.386 133.524C147.619 135.695 141.799 143.377 137.785 148.659C137.785 148.505 137.766 148.333 137.766 148.16C141.569 143.108 147.695 135.042 149.309 133.083C149.347 133.236 149.366 133.371 149.386 133.524Z" fill="#350502"/>
<path d="M159.719 214.384C157.356 210.505 153.188 203.725 150.864 200.479C150.807 200.402 150.749 200.325 150.692 200.248C150.634 200.152 150.557 200.075 150.5 199.979C147.138 195.447 139.475 186.996 138.419 185.843C138.342 185.766 138.303 185.728 138.303 185.709C138.246 185.632 138.246 185.536 138.303 185.478C138.342 185.44 138.361 185.402 138.419 185.363C140.243 183.442 151.325 169.153 152.459 167.693L138.015 154.652C138.015 154.498 138.015 154.364 137.996 154.21L152.766 167.559C152.824 167.616 152.843 167.712 152.785 167.789C152.286 168.442 140.512 183.615 138.63 185.613C139.609 186.688 147.254 195.12 150.672 199.71C150.749 199.806 150.807 199.883 150.864 199.979C150.941 200.075 151.018 200.191 151.095 200.306C153.304 203.398 157.203 209.698 159.604 213.635C159.661 213.885 159.7 214.135 159.719 214.384Z" fill="#350502"/>
<path d="M146.175 206.74C143.025 211.388 139.952 216.747 138.492 219.378C138.492 219.148 138.492 218.937 138.492 218.706C140.067 215.921 142.948 210.927 145.906 206.567C147.212 204.647 148.864 202.304 150.535 199.98C150.592 199.884 150.669 199.787 150.727 199.711C153.166 196.311 155.624 192.988 157.065 191.145C157.084 191.298 157.103 191.433 157.123 191.605C155.682 193.469 153.32 196.657 150.919 199.98C150.861 200.076 150.784 200.152 150.727 200.248C149.113 202.476 147.5 204.762 146.175 206.74Z" fill="#350502"/>
<path d="M163.015 246.786C160.038 243.847 154.449 238.239 150.742 234.244C146.67 229.865 140.889 224.41 138.469 222.144C138.469 222.009 138.469 221.856 138.469 221.702C140.754 223.834 146.766 229.519 150.953 234.033C154.564 237.913 159.903 243.271 162.938 246.287C162.976 246.44 162.996 246.613 163.015 246.786Z" fill="#350502"/>
<path d="M160.741 224.352C158.725 226.811 153.885 232.592 149.179 237.547C145.069 241.869 140.709 246.882 138.27 249.724C138.27 249.571 138.27 249.417 138.27 249.244C140.747 246.363 144.973 241.523 148.948 237.336C153.808 232.227 158.801 226.215 160.684 223.93C160.722 224.045 160.722 224.199 160.741 224.352Z" fill="#350502"/>
<path d="M150.827 227.79C150.77 227.79 150.731 227.771 150.712 227.733L145.161 221.068C145.123 221.01 145.104 220.934 145.161 220.876L149.963 214.134C149.982 214.096 150.04 214.077 150.078 214.058C150.117 214.058 150.174 214.077 150.213 214.115L155.61 220.223C155.648 220.281 155.667 220.357 155.629 220.415L150.962 227.733C150.943 227.752 150.904 227.771 150.827 227.79C150.847 227.79 150.847 227.79 150.827 227.79ZM145.488 220.953L150.808 227.349L155.283 220.319L150.097 214.461L145.488 220.953Z" fill="#350502"/>
<path d="M157.149 252.663L150.888 244.788C150.849 244.75 150.811 244.711 150.753 244.731C150.696 244.731 150.657 244.75 150.619 244.788C150.35 245.153 144.031 253.873 143.877 254.123C143.82 254.2 143.839 254.296 143.916 254.334L149.658 258.694C149.793 258.675 149.927 258.636 150.081 258.617L144.223 254.18C144.953 253.162 149.908 246.325 150.753 245.153L156.823 252.759L152.751 258.233C152.885 258.214 153.039 258.195 153.192 258.195L157.149 252.874C157.187 252.798 157.187 252.721 157.149 252.663Z" fill="#350502"/>
<path d="M150.532 190.837C150.474 190.818 150.436 190.818 150.416 190.78L145.922 185.632C145.865 185.575 145.865 185.498 145.922 185.421C147.42 183.539 150.282 179.909 150.416 179.736C150.436 179.697 150.493 179.659 150.532 179.659C150.589 179.64 150.628 179.678 150.666 179.717L155.641 185.133C155.698 185.19 155.698 185.286 155.641 185.344L150.666 190.76C150.609 190.799 150.57 190.837 150.532 190.837ZM146.229 185.517L150.512 190.415L155.276 185.229L150.532 180.062C149.879 180.946 146.806 184.806 146.229 185.517Z" fill="#350502"/>
<path d="M152.386 153.23L150.465 156.956L145.068 151.982L150.062 145.164L151.579 147.68C151.541 147.411 151.502 147.123 151.445 146.835L150.215 144.779C150.177 144.722 150.139 144.703 150.081 144.703C150.042 144.703 149.985 144.722 149.947 144.76L144.722 151.886C144.665 151.944 144.684 152.04 144.741 152.097L150.407 157.321C150.446 157.36 150.484 157.36 150.523 157.36H150.542C150.6 157.341 150.638 157.321 150.657 157.264L152.463 153.749C152.443 153.595 152.424 153.422 152.386 153.23Z" fill="#350502"/>
<path d="M147.432 121.328L147.086 122.173L141.478 119.004C142.419 116.488 143.898 112.666 144.282 111.898L146.183 113.588C146.164 113.415 146.126 113.242 146.106 113.088L144.359 111.552C144.301 111.494 144.243 111.494 144.186 111.533C143.994 111.629 142.957 114.164 141.132 119.042C141.113 119.119 141.132 119.196 141.209 119.234L147.105 122.557C147.124 122.557 147.163 122.576 147.182 122.576C147.201 122.576 147.22 122.576 147.24 122.576C147.278 122.557 147.316 122.519 147.336 122.5L147.566 121.943C147.508 121.731 147.47 121.539 147.432 121.328Z" fill="#350502"/>
<path d="M17.5408 157.475C17.5216 157.437 17.4832 157.417 17.4256 157.417C17.3872 157.417 17.3296 157.417 17.3104 157.456C17.2912 157.475 16.158 158.435 14.9672 159.453C14.9288 159.607 14.9095 159.78 14.8903 159.934C15.9659 159.05 17.0415 158.128 17.4064 157.802C19.2502 160.164 21.2093 162.776 21.3629 163.275C20.9404 163.66 17.9058 166.233 15.793 168.02L14.0452 164.697C14.0068 164.87 13.9876 165.043 13.9492 165.215L15.601 168.346C15.6202 168.384 15.6586 168.423 15.7162 168.423H15.7546C15.7931 168.423 15.8314 168.404 15.8507 168.384C16.0811 168.192 21.4014 163.717 21.6319 163.448C21.7279 163.314 21.9584 163.083 17.5408 157.475Z" fill="#350502"/>
<path d="M14.9647 196.138L10.1055 201.592L14.4461 209.294L19.824 201.746L14.9647 196.138Z" stroke="#350502" stroke-width="0.5" stroke-miterlimit="10" stroke-linecap="round" stroke-linejoin="round"/>
<path d="M15.7275 231.075C15.6507 231.228 9.54297 239.833 9.54297 239.833L16.9375 248.034L23.5254 239.564L15.7275 231.075Z" stroke="#350502" stroke-width="0.5" stroke-miterlimit="10" stroke-linecap="round" stroke-linejoin="round"/>
<path d="M73.0801 23.2401C73.0801 24.1813 72.7537 24.9495 72.3311 24.9495C71.9278 24.9495 71.582 24.1813 71.582 23.2401C71.582 22.299 71.9086 21.5308 72.3311 21.5308C72.7345 21.5308 73.0801 22.299 73.0801 23.2401Z" fill="#350502"/>
<path d="M84.5453 22.9901C84.5453 23.9313 84.2188 24.6995 83.7963 24.6995C83.3929 24.6995 83.0664 23.9313 83.0664 22.9901C83.0664 22.049 83.3929 21.2808 83.7963 21.2808C84.1996 21.2808 84.5453 22.049 84.5453 22.9901Z" fill="#350502"/>
<path d="M80.7879 48.7657C75.8325 48.7657 72.1833 47.0755 69.9361 43.7336C67.689 40.3724 66.7862 35.3787 66.6326 34.4184C66.6134 34.3416 66.671 34.2455 66.767 34.2263C66.8631 34.2071 66.9399 34.2647 66.9591 34.3415V34.3607C67.0551 34.9369 67.9578 40.1804 70.2242 43.5415C72.4714 46.8835 76.1591 48.5352 81.2296 48.4392C86.5883 48.3432 90.1415 46.1728 92.0814 41.7937C92.1006 41.7553 93.2145 39.9499 93.3298 36.9344C93.4258 34.1111 93.5411 30.9228 93.4835 29.5591C93.4835 29.463 93.5411 29.4054 93.6371 29.3862C93.7139 29.3862 93.7907 29.4631 93.7907 29.5399C93.8483 30.9228 93.7331 34.1303 93.6371 36.9536C93.5218 40.0651 92.4078 41.8897 92.3502 41.9666C90.3911 46.3649 86.6459 48.6697 81.2104 48.7657C81.0567 48.7657 80.9223 48.7657 80.7879 48.7657Z" fill="#7C4C3D"/>
<path d="M109.035 108.364C109.035 108.364 107.152 108.786 103.772 109.324C100.68 109.804 96.3197 110.4 91.0379 110.861C88.4258 111.091 85.6024 111.264 82.5678 111.398C80.359 111.494 78.1695 111.552 76.0376 111.591C73.1182 111.648 70.314 111.687 67.7211 111.687C65.0514 111.687 62.5929 111.667 60.4802 111.629C55.5249 111.552 52.3942 111.398 52.375 111.398C52.375 111.398 52.5479 110.073 52.836 108.441C53.1049 106.808 53.489 104.849 53.8539 103.62C53.8539 103.62 55.7746 102.506 59.5775 101.238C61.6326 100.547 64.2255 99.8168 67.3754 99.183C67.7979 99.1062 68.2397 99.0101 68.6815 98.9333C68.6815 98.9333 68.6814 98.9333 68.7006 98.9333C70.7557 98.5492 72.9837 98.2803 75.2501 98.1074C76.5561 97.9922 77.8622 97.9153 79.1683 97.8577C81.8188 97.7425 84.4117 97.7041 86.7933 97.7041C88.7524 97.7041 90.5578 97.7425 92.0943 97.8001C93.8421 97.8577 95.2442 97.9154 96.1469 97.9538C98.106 98.0306 100.718 98.53 102.831 99.0101C104.963 99.4903 106.595 99.9705 106.595 99.9705C106.595 99.9705 108.381 106.731 109.035 108.364Z" fill="#3C1E87"/>
<path d="M60.4685 111.59C55.5132 111.514 52.3825 111.36 52.3633 111.36C52.3633 111.36 52.5361 110.035 52.8242 108.402C53.0931 106.77 53.4772 104.811 53.8422 103.581C53.8422 103.581 55.7629 102.467 59.5658 101.2C59.4697 104.657 60.0075 108.729 60.4685 111.59Z" fill="#1F0D6B"/>
<path d="M109.036 108.364C109.036 108.364 107.154 108.786 103.773 109.324C104.426 104.849 103.716 101.334 102.832 98.9526C104.964 99.4328 106.597 99.913 106.597 99.913C106.597 99.913 108.383 106.731 109.036 108.364Z" fill="#1F0D6B"/>
<path d="M55.6828 229.75C53.8582 233.821 49.3639 240.774 49.3639 240.774C50.1129 244.097 49.3639 251.165 49.3639 251.165C47.981 252.125 44.543 252.452 44.543 252.452L43.0641 249.744C44.7159 246.555 46.5789 242.868 48.0194 239.564C51.5534 231.497 51.5342 220.165 51.5342 220.165C46.3484 220.127 40.1639 217.534 37.1484 216.094C37.1484 215.287 37.1484 214.634 37.1484 214.154C40.4136 215.057 45.6185 216.19 52.5521 216.785C54.7225 216.977 56.9313 217.112 59.0824 217.208C58.9288 220.55 57.3538 226.004 55.6828 229.75Z" fill="#1F0D6B"/>
<path d="M144.354 260C144.354 260 140.282 259.193 134.079 257.484C127.875 255.775 125.186 254.372 125.09 254.142C124.975 253.912 122.939 250.531 122.939 250.205C122.939 249.878 120.807 252.337 120.807 252.337C120.807 252.337 117.695 246.459 115.122 236.587C112.74 227.426 110.992 223.45 110.07 218.206C110.666 218.187 111.3 218.187 111.914 218.168C119.674 217.957 127.107 217.496 131.505 217.188L131.563 219.224C128.278 220.127 122.708 221.318 118.54 220.895C118.54 220.895 117.753 235.204 121.748 244.865C124.744 252.087 137.805 257.407 144.2 259.616C144.316 259.866 144.354 260 144.354 260Z" fill="#1F0D6B"/>
<path d="M92.0707 97.7425C91.8403 100.547 91.3216 106.942 91.0143 110.841C88.4022 111.072 85.5789 111.245 82.5443 111.379C80.3355 111.475 78.1459 111.533 76.014 111.571C75.1497 106.789 75.1497 100.892 75.2266 98.0498C76.5326 97.9346 77.8386 97.8577 79.1447 97.8001C79.3751 101.2 80.0474 107.807 80.0474 108.191C80.0474 109.228 85.8286 107.768 85.8286 107.768C86.0207 106.712 86.5008 100.7 86.7697 97.6465C88.7288 97.6465 90.5342 97.6849 92.0707 97.7425Z" fill="#1F0D6B"/>
<path d="M79.168 97.8002L82.798 91.7886L86.793 97.6466C86.793 97.6466 82.3563 97.0704 79.168 97.8002Z" fill="#411E59"/>
<path d="M57.0112 141.168C56.0893 142.705 51.3837 139.248 50.8651 139.862C50.3274 140.515 51.6142 148.755 52.5745 150.58C53.4772 152.308 52.3824 152.5 50.7115 152.596C49.5014 147.276 49.6743 138.172 51.5373 138.633C53.1699 139.036 54.9561 140.074 57.0112 141.168Z" fill="#F3938D"/>
<path d="M44.1422 148.64C42.2599 146.124 40.3008 143.07 39.6094 140.823C39.6094 140.823 40.32 138.153 41.9526 136.021C42.5672 140.055 43.4891 145.164 44.1422 148.64Z" fill="#F3938D"/>
<path d="M112.378 131.085C111.226 132.468 109.344 134.504 108.691 133.774C108.306 133.351 108.652 132.122 109.19 130.797C110.208 130.97 111.283 131.066 112.378 131.085Z" fill="#F3938D"/>
<path d="M118.082 130.413C117.14 131.527 115.393 132.545 113.299 133.102C111.244 133.659 111.82 132.18 112.492 131.066C114.413 131.105 116.372 130.893 118.082 130.413Z" fill="#F3938D"/>
<path d="M52.8401 151.252C49.6134 149.523 47.6735 143.627 47.5391 142.109C47.5391 142.013 47.5967 141.937 47.6927 141.937C47.7695 141.917 47.8656 141.994 47.8656 142.071C47.9808 143.454 49.7863 148.889 52.6673 150.772C52.7441 150.944 52.8017 151.098 52.8401 151.252Z" fill="#350502"/>
<path d="M52.0681 152.423C51.7992 152.5 51.4727 152.539 51.127 152.558C47.9195 151.674 46.383 148.332 45.2114 145.778C45.077 145.49 44.9425 145.202 44.808 144.933C44.7696 144.856 44.8081 144.76 44.8849 144.722C44.9617 144.683 45.0578 144.722 45.0962 144.798C45.2306 145.067 45.3459 145.355 45.4995 145.663C46.8056 148.505 48.4189 152.02 52.0681 152.423Z" fill="#350502"/>
<path d="M113.377 123.883C112.859 125.496 111.38 127.397 110.055 128.953C110.304 128.454 110.554 127.974 110.765 127.589C110.765 127.589 110.765 127.589 110.765 127.57C111.764 126.322 112.705 124.958 113.07 123.786C113.109 123.71 113.185 123.652 113.281 123.69C113.339 123.71 113.397 123.786 113.377 123.883Z" fill="#350502"/>
<path d="M114.992 128.012C114.358 129.03 112.994 130.836 111.957 132.219C112.053 131.854 112.284 131.45 112.495 131.066C112.687 130.74 112.898 130.452 113.052 130.24C112.994 130.317 112.937 130.394 112.86 130.49C113.59 129.491 114.319 128.493 114.723 127.84C114.761 127.763 114.876 127.743 114.953 127.782C115.011 127.84 115.03 127.936 114.992 128.012Z" fill="#350502"/>
<path d="M75.9678 26.7163C75.7757 27.9263 75.9678 30.4424 78.7527 30.5C78.7527 30.5 81.3648 30.7881 81.7874 29.5589C81.7874 29.5589 81.7106 31.9597 78.3494 31.9021C78.3494 31.9021 75.9486 31.8829 75.7565 29.5589C75.6029 27.2157 75.9678 26.7163 75.9678 26.7163Z" fill="#F3938D"/>
<path d="M78.6504 32.0556C78.2663 32.0556 77.9013 32.0172 77.5748 31.9212C75.827 31.4986 75.4429 30.7112 75.6158 27.907C75.7886 25.026 76.192 22.6252 76.7106 21.4728C76.749 21.3959 76.845 21.3575 76.9218 21.3959C76.9986 21.4343 77.0371 21.5304 76.9986 21.6072C76.4993 22.7212 76.0959 25.1412 75.9231 27.9454C75.7694 30.7496 76.1728 31.2681 77.6517 31.6331C78.6696 31.8827 80.1869 31.7291 81.0128 30.98C81.493 30.5383 81.6851 29.9429 81.5891 29.1938C81.5698 29.0978 81.6466 29.021 81.7235 29.0018C81.8195 29.0018 81.8963 29.0594 81.9155 29.1362C82.0308 29.9813 81.8003 30.6919 81.2433 31.2105C80.5903 31.7867 79.5916 32.0556 78.6504 32.0556Z" fill="#350502"/>
<path d="M78.0604 184.883C79.0591 185.19 80.1731 185.517 81.3255 185.843C81.3255 185.882 81.3255 185.939 81.3255 185.978C81.3063 186.323 81.2871 186.669 81.2871 186.996C80.8646 196.964 78.7135 217.304 78.7135 217.304C78.7135 217.304 76.908 217.38 74.0078 217.419C74.4688 213.52 76.447 197.655 78.0604 184.883Z" fill="#1F0D6B"/>
<path d="M94.6079 218.264C91.3043 218.226 89.2876 218.168 89.2876 218.168C89.2876 218.168 86.8292 205.837 86.1761 195.888C86.0417 193.641 85.792 190.511 85.5039 186.996C85.5039 186.977 85.5039 186.957 85.5039 186.919C86.8484 187.245 88.2121 187.534 89.5373 187.783C91.0162 197.483 93.5707 212.272 94.6079 218.264Z" fill="#1F0D6B"/>
<path d="M22.6532 132.468C21.616 133.371 20.0987 134.677 19.2344 135.464C19.2536 135.291 19.292 135.118 19.3304 134.946C20.3291 134.043 21.7888 132.794 22.3266 132.314L20.3291 129.491C20.3483 129.337 20.3867 129.203 20.406 129.068L22.6532 132.257C22.73 132.314 22.73 132.43 22.6532 132.468Z" fill="#350502"/>
<path d="M29.2384 100.355C28.1244 101.296 26.9528 102.314 26.2422 102.967C26.2806 102.775 26.3382 102.602 26.3766 102.41C27.2794 101.584 28.4701 100.566 28.9311 100.182L27.7019 97.2622C27.7403 97.0894 27.7787 96.9165 27.8363 96.7437L29.2768 100.162C29.3152 100.22 29.296 100.297 29.2384 100.355Z" fill="#350502"/>
<path d="M68.328 43.1763L67.5214 47.4593C67.5022 47.517 67.4829 47.5554 67.4253 47.5746C67.4061 47.5746 67.3869 47.5938 67.3677 47.5938C67.3485 47.5938 67.3101 47.5938 67.2909 47.5746C65.8888 46.6719 63.8145 45.3274 62.7773 44.7128C62.9118 44.6744 63.0462 44.636 63.1807 44.5975C64.3907 45.3274 66.4458 46.6527 67.2525 47.1904L67.9823 43.2915C68.0976 43.2339 68.2128 43.2147 68.328 43.1763Z" fill="#350502"/>
<path d="M110.749 49.1497L107.638 50.9552C107.619 50.9744 107.58 50.9744 107.561 50.9744C107.542 50.9744 107.523 50.9744 107.503 50.9552C107.465 50.936 107.426 50.8975 107.407 50.8591L106.082 46.019C106.216 46.0959 106.351 46.1727 106.485 46.2495L107.676 50.571L110.5 48.9385C110.557 49.0153 110.653 49.0921 110.749 49.1497Z" fill="#350502"/>
<path d="M62.9194 61.8645C62.9194 62.3446 62.516 62.748 62.0358 62.748C61.5557 62.748 61.1523 62.3446 61.1523 61.8645C61.1523 61.3843 61.5557 60.981 62.0358 60.981C62.5352 60.981 62.9194 61.3843 62.9194 61.8645Z" fill="#FFC525"/>
<path d="M70.0873 64.0544C70.0873 64.5346 69.684 64.9379 69.2038 64.9379C68.7236 64.9379 68.3203 64.5346 68.3203 64.0544C68.3203 63.5743 68.7236 63.1709 69.2038 63.1709C69.684 63.1709 70.0873 63.5743 70.0873 64.0544Z" fill="#FFC525"/>
<path d="M79.1342 64.9569C79.1342 65.4371 78.7308 65.8404 78.2507 65.8404C77.7705 65.8404 77.3672 65.4371 77.3672 64.9569C77.3672 64.4768 77.7705 64.0734 78.2507 64.0734C78.75 64.0542 79.1342 64.4576 79.1342 64.9569Z" fill="#FFC525"/>
<path d="M89.267 64.0544C89.267 64.5346 88.8637 64.9379 88.3835 64.9379C87.9033 64.9379 87.5 64.5346 87.5 64.0544C87.5 63.5743 87.9033 63.1709 88.3835 63.1709C88.8829 63.1709 89.267 63.5743 89.267 64.0544Z" fill="#FFC525"/>
<path d="M98.5483 61.4035C98.5483 61.8837 98.145 62.287 97.6648 62.287C97.1846 62.287 96.7812 61.8837 96.7812 61.4035C96.7812 60.9233 97.1654 60.52 97.6648 60.52C98.145 60.52 98.5483 60.9233 98.5483 61.4035Z" fill="#FFC525"/>
<path d="M51.6399 48.7271C51.5631 49.745 51.371 51.512 50.9869 54.5658C50.9869 54.6235 50.9485 54.6619 50.9101 54.6811C50.8909 54.7003 50.8525 54.7003 50.8333 54.7003C50.8141 54.7003 50.7949 54.7003 50.7757 54.6811L45.5898 52.2611C45.6859 52.1842 45.7819 52.1074 45.8779 52.0306L50.718 54.297C50.9293 52.6068 51.1982 50.3212 51.3327 48.8615C51.4095 48.8231 51.5247 48.7655 51.6399 48.7271Z" fill="#350502"/>
<path d="M76.0151 111.571C71.3095 121.559 62.9163 149.773 60.6307 168.269C60.3042 170.92 59.9968 173.724 59.7471 176.643C58.249 192.546 57.5576 210.965 57.3655 217.112C57.2503 217.112 57.1543 217.092 57.0391 217.092C57.2311 210.908 57.9226 192.374 59.4399 176.451C59.7088 173.589 59.9969 170.843 60.3234 168.231C62.609 149.812 70.9638 121.732 75.6694 111.571C75.7655 111.571 75.8807 111.571 76.0151 111.571Z" fill="#350502"/>
<path d="M110.329 218.207C110.252 218.207 110.156 218.207 110.079 218.207H110.021C109.311 213.559 107.467 201.401 105.604 188.84C104.01 178.161 102.416 167.194 101.474 160.337C99.3617 144.876 92.2553 120.061 89.3359 110.976C89.4512 110.976 89.5472 110.957 89.6624 110.957C92.5818 120.099 99.6691 144.857 101.801 160.299C102.742 167.175 104.355 178.142 105.93 188.84C107.774 201.42 109.637 213.597 110.329 218.207Z" fill="#350502"/>
<path d="M83.4509 162.872C83.2973 161.201 83.182 159.914 83.1052 159.127C83.0475 153.077 82.9899 147.027 82.8747 142.878C82.6442 134.485 82.3177 118.908 82.1641 111.379C82.2601 111.379 82.3754 111.379 82.4906 111.36C82.6443 118.87 82.9708 134.465 83.2012 142.859C83.3357 147.891 83.4125 155.67 83.4509 162.872Z" fill="#350502"/>
<path d="M76.1417 97.6464C75.8152 97.6848 75.9689 100.297 76.2378 103.293C76.6027 107.327 77.2173 112.071 77.275 112.205C77.275 112.205 86.8399 112.551 89.1639 111.686C89.1639 111.686 89.4519 108.517 89.7208 105.079C89.9321 102.294 90.1242 99.3366 90.1626 97.704C90.1434 97.6848 85.8603 96.3596 76.1417 97.6464ZM86.8014 108.978C85.3609 109.497 79.4837 109.305 79.4837 109.305C79.4453 109.228 79.0996 106.481 78.8883 104.061C78.6962 102.122 78.6002 100.393 78.7922 100.374C84.7847 99.5863 87.416 100.393 87.416 100.393C87.3968 101.43 87.2816 103.332 87.1279 105.079C86.9742 107.115 86.8014 108.978 86.8014 108.978Z" fill="#E43417"/>
<path d="M89.7057 105.06C89.4368 108.498 89.1487 111.667 89.1487 111.667C86.8247 112.532 77.2598 112.186 77.2598 112.186C77.2022 112.051 76.6068 107.307 76.2227 103.274C77.0677 103.562 77.9513 103.831 78.8732 104.042C79.1037 106.462 79.4494 109.209 79.4686 109.286C79.4686 109.286 85.3458 109.497 86.7863 108.959C86.7863 108.959 86.9592 107.115 87.1128 105.06C88.0732 105.099 88.9375 105.079 89.7057 105.06Z" fill="#CD1B09"/>
</svg>
