<svg width="319" height="94" viewBox="0 0 319 94" fill="none" xmlns="http://www.w3.org/2000/svg">
<g clip-path="url(#clip0_592_1483)">
<path fill-rule="evenodd" clip-rule="evenodd" d="M306.971 94H11.8111C5.30151 94 0 88.7022 0 82.25V11.75C0 5.27431 5.30151 0 11.8111 0H306.971C313.475 0 318.783 5.27431 318.783 11.75V82.25C318.783 88.7022 313.475 94 306.971 94Z" fill="black"/>
<path fill-rule="evenodd" clip-rule="evenodd" d="M306.971 1.88117C312.431 1.88117 316.9 6.31746 316.9 11.75V82.25C316.9 87.6825 312.461 92.1188 306.971 92.1188H11.8111C6.35126 92.1188 1.88251 87.6825 1.88251 82.25V11.75C1.88251 6.31746 6.32193 1.88117 11.8111 1.88117H306.971ZM306.971 0H11.8111C5.30151 0 0 5.29776 0 11.75V82.25C0 88.7257 5.30151 94 11.8111 94H306.971C313.475 94 318.783 88.7257 318.783 82.25V11.75C318.783 5.29776 313.475 0 306.971 0Z" fill="#A6A6A6"/>
<path d="M167.936 31.0951C165.807 31.0951 164.012 30.3508 162.593 28.8857C161.186 27.4616 160.4 25.4984 160.435 23.4942C160.435 21.3552 161.162 19.5443 162.593 18.1085C164.006 16.6434 165.801 15.8992 167.93 15.8992C170.035 15.8992 171.83 16.6434 173.272 18.1085C174.703 19.5912 175.43 21.402 175.43 23.4942C175.407 25.6391 174.68 27.4499 173.272 28.8798C171.859 30.3567 170.064 31.0951 167.936 31.0951ZM104.593 31.0951C102.511 31.0951 100.705 30.3625 99.2274 28.915C97.7612 27.4734 97.0164 25.6508 97.0164 23.5C97.0164 21.3493 97.7612 19.5267 99.2274 18.0851C100.676 16.6376 102.482 15.905 104.593 15.905C105.625 15.905 106.628 16.1101 107.59 16.5262C108.534 16.9306 109.303 17.4815 109.871 18.1554L110.012 18.3254L108.423 19.8842L108.259 19.6908C107.361 18.6242 106.159 18.1027 104.57 18.1027C103.151 18.1027 101.913 18.6067 100.893 19.6029C99.8666 20.605 99.3446 21.9178 99.3446 23.5059C99.3446 25.0941 99.8666 26.4068 100.893 27.4089C101.913 28.4052 103.151 28.9091 104.57 28.9091C106.083 28.9091 107.356 28.4052 108.347 27.4089C108.933 26.8229 109.297 26.0024 109.426 24.9651H104.329V22.7734H111.613L111.642 22.9726C111.695 23.3418 111.748 23.7227 111.748 24.0744C111.748 26.0962 111.138 27.7312 109.93 28.9384C108.558 30.3684 106.763 31.0951 104.593 31.0951ZM188.813 30.7845H186.567L179.688 19.7846L179.747 21.7654V30.7786H177.501V16.2156H180.063L180.134 16.327L186.602 26.6881L186.544 24.7131V16.2156H188.813V30.7845ZM151.058 30.7845H148.782V18.4074H144.835V16.2156H154.999V18.4074H151.052V30.7845H151.058ZM142.982 30.7845H140.713V16.2156H142.982V30.7845ZM130.227 30.7845H127.957V18.4074H124.011V16.2156H134.174V18.4074H130.227V30.7845ZM122.574 30.761H113.871V16.2156H122.574V18.4074H116.146V22.4042H121.946V24.5725H116.146V28.5692H122.574V30.761ZM164.259 27.3796C165.273 28.3934 166.505 28.9033 167.936 28.9033C169.408 28.9033 170.61 28.4052 171.613 27.3796C172.61 26.3833 173.114 25.0765 173.114 23.5C173.114 21.9236 172.61 20.6109 171.618 19.6205C170.604 18.6067 169.367 18.0968 167.941 18.0968C166.469 18.0968 165.267 18.5949 164.27 19.6205C163.273 20.6168 162.769 21.9236 162.769 23.5C162.769 25.0765 163.267 26.3892 164.259 27.3796Z" fill="white"/>
<path fill-rule="evenodd" clip-rule="evenodd" d="M160.224 51.1257C154.682 51.1257 150.19 55.3276 150.19 61.1234C150.19 66.8666 154.711 71.1212 160.224 71.1212C165.766 71.1212 170.258 66.89 170.258 61.1234C170.258 55.3276 165.766 51.1257 160.224 51.1257ZM160.224 67.1596C157.192 67.1596 154.582 64.6514 154.582 61.1C154.582 57.4959 157.198 55.0404 160.224 55.0404C163.256 55.0404 165.866 57.4959 165.866 61.1C165.871 64.6748 163.256 67.1596 160.224 67.1596ZM138.332 51.1257C132.79 51.1257 128.298 55.3276 128.298 61.1234C128.298 66.8666 132.819 71.1212 138.332 71.1212C143.874 71.1212 148.366 66.89 148.366 61.1234C148.366 55.3276 143.868 51.1257 138.332 51.1257ZM138.332 67.1596C135.3 67.1596 132.69 64.6514 132.69 61.1C132.69 57.4959 135.306 55.0404 138.332 55.0404C141.364 55.0404 143.973 57.4959 143.973 61.1C143.973 64.6748 141.364 67.1596 138.332 67.1596ZM112.282 54.1789V58.4101H122.445C122.134 60.7835 121.348 62.5358 120.146 63.7372C118.656 65.2257 116.357 66.8431 112.305 66.8431C106.059 66.8431 101.174 61.8032 101.174 55.562C101.174 49.3207 106.059 44.2808 112.305 44.2808C115.677 44.2808 118.134 45.6111 119.958 47.3106L122.961 44.3101C120.427 41.8839 117.055 40.0262 112.328 40.0262C103.76 40.0262 96.5706 47 96.5706 55.5385C96.5706 64.1005 103.755 71.0509 112.328 71.0509C116.956 71.0509 120.427 69.5389 123.172 66.6908C125.969 63.8954 126.855 59.9514 126.855 56.7692C126.855 55.7788 126.779 54.888 126.62 54.132H112.276C112.282 54.1262 112.282 54.1789 112.282 54.1789ZM218.834 57.4724C217.995 55.2279 215.462 51.1022 210.266 51.1022C205.117 51.1022 200.836 55.1517 200.836 61.1C200.836 66.7142 205.07 71.0978 210.764 71.0978C215.339 71.0978 218.001 68.3024 219.098 66.6615L215.702 64.3877C214.576 66.0579 213.01 67.1537 210.788 67.1537C208.542 67.1537 206.97 66.134 205.926 64.1239L219.303 58.5859C219.303 58.5918 218.834 57.4724 218.834 57.4724ZM205.193 60.8128C205.087 56.9509 208.196 54.9877 210.418 54.9877C212.172 54.9877 213.632 55.8491 214.13 57.1032L205.193 60.8128ZM194.326 70.5H198.719V41.1279H194.326V70.5ZM187.113 53.3468H186.954C185.963 52.1688 184.081 51.1022 181.676 51.1022C176.686 51.1022 172.088 55.4916 172.088 61.1293C172.088 66.7435 176.662 71.0802 181.676 71.0802C184.051 71.0802 185.963 70.0077 186.954 68.8064H187.113V70.2421C187.113 74.0572 185.072 76.1142 181.782 76.1142C179.09 76.1142 177.419 74.1803 176.738 72.5628L172.921 74.1569C174.017 76.794 176.944 80.0582 181.776 80.0582C186.925 80.0582 191.288 77.0284 191.288 69.6385V51.7H187.136V53.3468C187.142 53.3468 187.113 53.3468 187.113 53.3468ZM182.069 67.1596C179.037 67.1596 176.504 64.6279 176.504 61.1293C176.504 57.6014 179.037 55.0463 182.069 55.0463C185.072 55.0463 187.4 57.6307 187.4 61.1293C187.429 64.6279 185.078 67.1596 182.069 67.1596ZM239.401 41.1279H228.897V70.5H233.29V59.3771H239.406C244.268 59.3771 249.048 55.855 249.048 50.2642C249.048 44.6734 244.286 41.1279 239.401 41.1279ZM239.53 55.2748H233.284V45.195H239.53C242.82 45.195 244.679 47.9084 244.679 50.2349C244.679 52.538 242.796 55.2748 239.53 55.2748ZM266.653 51.0729C263.463 51.0729 260.173 52.4853 258.812 55.562L262.706 57.1794C263.545 55.562 265.081 55.0111 266.706 55.0111C268.981 55.0111 271.28 56.3707 271.333 58.7969V59.1075C270.547 58.6621 268.823 57.9823 266.759 57.9823C262.554 57.9823 258.29 60.2796 258.29 64.5869C258.29 68.5309 261.739 71.0626 265.58 71.0626C268.53 71.0626 270.154 69.7323 271.169 68.191H271.327V70.4648H275.561V59.213C275.561 53.9738 271.667 51.0729 266.653 51.0729ZM266.102 67.1596C264.665 67.1596 262.653 66.4564 262.653 64.6514C262.653 62.3776 265.163 61.5161 267.304 61.5161C269.239 61.5161 270.154 61.9322 271.304 62.5065C270.987 65.1436 268.758 67.1362 266.102 67.1596ZM291.008 51.7L285.965 64.4404H285.806L280.581 51.7H275.854L283.695 69.5096L279.226 79.4077H283.801L295.864 51.7H291.008ZM251.47 70.5H255.862V41.1279H251.47V70.5Z" fill="white"/>
<path fill-rule="evenodd" clip-rule="evenodd" d="M24.5369 17.704C23.8567 18.4366 23.4637 19.5559 23.4637 21.021V72.9847C23.4637 74.4498 23.8567 75.5691 24.5604 76.2723L24.7422 76.4306L53.8771 47.3164V46.6659L24.7187 17.5458L24.5369 17.704Z" fill="url(#paint0_linear_592_1483)"/>
<path fill-rule="evenodd" clip-rule="evenodd" d="M63.5711 57.0505L53.8535 47.3399V46.6601L63.5711 36.9495L63.7822 37.0785L75.2767 43.6069C78.5667 45.4588 78.5667 48.5179 75.2767 50.3932L63.7822 56.9216L63.5711 57.0505Z" fill="url(#paint1_linear_592_1483)"/>
<path fill-rule="evenodd" clip-rule="evenodd" d="M63.7824 56.9216L53.8538 47L24.5372 76.2959C25.6104 77.4445 27.4108 77.5734 29.4223 76.4541L63.7824 56.9216Z" fill="url(#paint2_linear_592_1483)"/>
<path fill-rule="evenodd" clip-rule="evenodd" d="M63.7824 37.0784L29.4223 17.5751C27.4108 16.4265 25.6045 16.5847 24.5372 17.7334L53.8538 46.9999L63.7824 37.0784Z" fill="url(#paint3_linear_592_1483)"/>
<path opacity="0.2" fill-rule="evenodd" clip-rule="evenodd" d="M63.5712 56.7107L29.4455 76.085C27.5396 77.1808 25.8389 77.1046 24.7422 76.1084L24.5604 76.2901L24.7422 76.4483C25.8389 77.4387 27.5396 77.5207 29.4455 76.4248L63.8058 56.9217L63.5712 56.7107Z" fill="black"/>
<path opacity="0.12" fill-rule="evenodd" clip-rule="evenodd" d="M75.2767 50.0532L63.5419 56.7106L63.753 56.9216L75.2474 50.3931C76.8953 49.4555 77.7046 48.2248 77.7046 47C77.6049 48.1252 76.7663 49.1918 75.2767 50.0532Z" fill="black"/>
<path opacity="0.25" fill-rule="evenodd" clip-rule="evenodd" d="M29.4221 17.9151L75.2766 43.9468C76.7662 44.7848 77.6048 45.8807 77.7338 47C77.7338 45.7752 76.9245 44.5446 75.2766 43.6069L29.4221 17.5752C26.1321 15.6941 23.4637 17.2646 23.4637 21.0211V21.361C23.4637 17.5987 26.1321 16.0574 29.4221 17.9151Z" fill="white"/>
</g>
<defs>
<linearGradient id="paint0_linear_592_1483" x1="51.2637" y1="20.4603" x2="4.5991" y2="32.903" gradientUnits="userSpaceOnUse">
<stop stop-color="#00A0FF"/>
<stop offset="0.00657" stop-color="#00A1FF"/>
<stop offset="0.2601" stop-color="#00BEFF"/>
<stop offset="0.5122" stop-color="#00D2FF"/>
<stop offset="0.7604" stop-color="#00DFFF"/>
<stop offset="1" stop-color="#00E3FF"/>
</linearGradient>
<linearGradient id="paint1_linear_592_1483" x1="79.5671" y1="47.0001" x2="22.664" y2="47.0001" gradientUnits="userSpaceOnUse">
<stop stop-color="#FFE000"/>
<stop offset="0.4087" stop-color="#FFBD00"/>
<stop offset="0.7754" stop-color="#FFA500"/>
<stop offset="1" stop-color="#FF9C00"/>
</linearGradient>
<linearGradient id="paint2_linear_592_1483" x1="58.3837" y1="52.3988" x2="20.9572" y2="115.435" gradientUnits="userSpaceOnUse">
<stop stop-color="#FF3A44"/>
<stop offset="1" stop-color="#C31162"/>
</linearGradient>
<linearGradient id="paint3_linear_592_1483" x1="17.155" y1="0.420097" x2="33.8524" y2="28.5731" gradientUnits="userSpaceOnUse">
<stop stop-color="#32A071"/>
<stop offset="0.0685" stop-color="#2DA771"/>
<stop offset="0.4762" stop-color="#15CF74"/>
<stop offset="0.8009" stop-color="#06E775"/>
<stop offset="1" stop-color="#00F076"/>
</linearGradient>
<clipPath id="clip0_592_1483">
<rect width="318.783" height="94" fill="white"/>
</clipPath>
</defs>
</svg>
