<svg width="90" height="90" viewBox="0 0 90 90" fill="none" xmlns="http://www.w3.org/2000/svg">
<path d="M69.6642 30.9375C68.3938 25.3459 65.261 20.3518 60.7796 16.7744C56.2982 13.197 50.7342 11.2485 45 11.2485C39.2658 11.2485 33.7018 13.197 29.2204 16.7744C24.739 20.3518 21.6062 25.3459 20.3358 30.9375H69.6642Z" fill="#D69C7A"/>
<path d="M64.6875 85.7812H25.3125L19.6875 37.9688H70.3125L64.6875 85.7812Z" fill="#7E543B"/>
<path d="M73.125 30.9375H16.875V37.9688H73.125V30.9375Z" fill="#E0E0E2"/>
<path d="M68.6531 52.0311L66.8391 67.5139L66.7266 67.4999H56.2359C54.929 69.2461 53.233 70.6637 51.2826 71.6401C49.3323 72.6165 47.1811 73.1249 45 73.1249C42.8188 73.1249 40.6677 72.6165 38.7173 71.6401C36.7669 70.6637 35.071 69.2461 33.7641 67.4999H23.2734L23.1609 67.5139L21.3469 52.0311H32.8359C34.0669 49.8937 35.8394 48.1183 37.9749 46.8839C40.1104 45.6495 42.5334 44.9995 45 44.9995C47.4666 44.9995 49.8896 45.6495 52.0251 46.8839C54.1606 48.1183 55.9331 49.8937 57.1641 52.0311H68.6531Z" fill="#F5E0AD"/>
<path d="M51.1875 55.7295C52.5656 58.4014 51.1031 62.0295 47.8125 63.9279C44.4516 65.8686 40.4578 65.2639 38.9109 62.5779C38.8828 62.5217 38.8406 62.4654 38.8125 62.3951C40.1232 62.3994 41.4107 62.0496 42.5391 61.3826C45.3938 59.7373 44.6063 58.3873 47.4469 56.742C48.5808 56.0762 49.8725 55.7265 51.1875 55.7295Z" fill="#7E543B"/>
<path d="M51.0891 55.5469C51.1172 55.6032 51.1594 55.6594 51.1875 55.7297C49.8726 55.7267 48.5808 56.0764 47.4469 56.7422C44.6063 58.3875 45.3938 59.7375 42.5391 61.3828C41.4107 62.0498 40.1232 62.3996 38.8125 62.3953C37.4344 59.7235 38.8969 56.0953 42.1875 54.1969C45.5485 52.2563 49.5422 52.861 51.0891 55.5469Z" fill="#CC8355"/>
<path d="M68.9062 4.21875V9.84375H60.4688V30.9375H54.8438V7.03125C54.846 6.28601 55.143 5.57194 55.67 5.04497C56.1969 4.51801 56.911 4.22098 57.6562 4.21875H68.9062Z" fill="#E9E9EA"/>
</svg>
