<svg width="90" height="90" viewBox="0 0 90 90" fill="none" xmlns="http://www.w3.org/2000/svg">
<path d="M82.8111 40.9297H6.47172C6.11937 40.9297 5.78144 41.0697 5.53229 41.3188C5.28313 41.568 5.14316 41.9059 5.14316 42.2583V54.3349C5.14316 54.6873 5.28313 55.0252 5.53229 55.2744C5.78144 55.5235 6.11937 55.6635 6.47172 55.6635C7.88115 55.6635 9.23286 56.2234 10.2295 57.22C11.2261 58.2166 11.786 59.5683 11.786 60.9777C11.786 62.3872 11.2261 63.7389 10.2295 64.7355C9.23286 65.7321 7.88115 66.292 6.47172 66.292C6.11937 66.292 5.78144 66.432 5.53229 66.6811C5.28313 66.9303 5.14316 67.2682 5.14316 67.6206V79.6972C5.14316 80.0496 5.28313 80.3875 5.53229 80.6367C5.78144 80.8858 6.11937 81.0258 6.47172 81.0258H37.9986C38.3509 81.0258 38.6889 80.8858 38.938 80.6367C39.1872 80.3875 39.3271 80.0496 39.3271 79.6972C39.3271 78.2878 39.887 76.9361 40.8836 75.9395C41.8803 74.9429 43.232 74.383 44.6414 74.383C46.0508 74.383 47.4025 74.9429 48.3991 75.9395C49.3958 76.9361 49.9557 78.2878 49.9557 79.6972C49.9555 79.8717 49.9898 80.0446 50.0565 80.2058C50.1233 80.367 50.2211 80.5136 50.3445 80.6369C50.4679 80.7603 50.6144 80.8582 50.7757 80.9249C50.9369 80.9916 51.1097 81.0259 51.2842 81.0258H82.8111C82.9856 81.0259 83.1584 80.9916 83.3196 80.9249C83.4809 80.8582 83.6274 80.7603 83.7507 80.6369C83.8741 80.5135 83.972 80.367 84.0387 80.2058C84.1055 80.0445 84.1397 79.8717 84.1396 79.6972V42.2583C84.1397 42.0838 84.1055 41.9109 84.0387 41.7497C83.972 41.5885 83.8741 41.442 83.7507 41.3186C83.6274 41.1952 83.4809 41.0973 83.3196 41.0306C83.1584 40.9639 82.9856 40.9296 82.8111 40.9297Z" fill="#FF7100"/>
<path d="M57.6799 9C57.4313 9.00018 57.1877 9.0698 56.9767 9.20101L5.76856 41.1282C5.52362 41.2809 5.33507 41.5092 5.23144 41.7786C5.1278 42.048 5.11472 42.3438 5.19418 42.6213C5.27363 42.8988 5.44129 43.1428 5.6718 43.3166C5.90231 43.4903 6.18313 43.5842 6.47177 43.5842H82.8098C83.1081 43.5841 83.3977 43.4838 83.632 43.2994C83.8664 43.1149 84.0319 42.8569 84.102 42.567C85.064 38.5696 85.1074 34.4061 84.2289 30.3896C83.3504 26.373 81.5728 22.6078 79.0297 19.3771C76.4867 16.1464 73.2443 13.5341 69.5465 11.7368C65.8486 9.93945 61.7914 9.00373 57.6799 9Z" fill="#FFAE00"/>
<path d="M25.0716 71.7246C28.7404 71.7246 31.7145 68.7505 31.7145 65.0818C31.7145 61.4131 28.7404 58.439 25.0716 58.439C21.4029 58.439 18.4288 61.4131 18.4288 65.0818C18.4288 68.7505 21.4029 71.7246 25.0716 71.7246Z" fill="#FFAE00"/>
<path d="M68.9143 74.3818C72.583 74.3818 75.5571 71.4077 75.5571 67.739C75.5571 64.0703 72.583 61.0962 68.9143 61.0962C65.2455 61.0962 62.2715 64.0703 62.2715 67.739C62.2715 71.4077 65.2455 74.3818 68.9143 74.3818Z" fill="#FFAE00"/>
<path d="M47.6572 62.4248C51.326 62.4248 54.3001 59.4507 54.3001 55.782C54.3001 52.1133 51.326 49.1392 47.6572 49.1392C43.9885 49.1392 41.0144 52.1133 41.0144 55.782C41.0144 59.4507 43.9885 62.4248 47.6572 62.4248Z" fill="#FFAE00"/>
<path d="M54.3001 27.882C57.9688 27.882 60.9429 26.0976 60.9429 23.8963C60.9429 21.6951 57.9688 19.9106 54.3001 19.9106C50.6313 19.9106 47.6572 21.6951 47.6572 23.8963C47.6572 26.0976 50.6313 27.882 54.3001 27.882Z" fill="#FF7100"/>
<path d="M68.9143 37.1823C72.583 37.1823 75.5571 35.3979 75.5571 33.1966C75.5571 30.9954 72.583 29.2109 68.9143 29.2109C65.2455 29.2109 62.2715 30.9954 62.2715 33.1966C62.2715 35.3979 65.2455 37.1823 68.9143 37.1823Z" fill="#FF7100"/>
<path d="M37.0287 38.5105C40.6974 38.5105 43.6715 36.726 43.6715 34.5248C43.6715 32.3235 40.6974 30.5391 37.0287 30.5391C33.36 30.5391 30.3859 32.3235 30.3859 34.5248C30.3859 36.726 33.36 38.5105 37.0287 38.5105Z" fill="#FF7100"/>
</svg>
