<svg width="90" height="97" viewBox="0 0 90 97" fill="none" xmlns="http://www.w3.org/2000/svg">
<g filter="url(#filter0_d_592_377)">
<path d="M66.0938 18.2812L60.8822 83.4173C60.6487 86.3409 58.2089 88.5938 55.2755 88.5938H34.7245C31.7925 88.5938 29.3512 86.3409 29.1178 83.4173L23.9062 18.2812H66.0938Z" fill="#F8F4E8"/>
<path d="M62.7047 25.3125L58.0781 83.1937C57.9656 84.6422 56.7281 85.7812 55.2797 85.7812H34.7203C33.2719 85.7812 32.0344 84.6422 31.9219 83.1937L27.2953 25.3125H62.7047Z" fill="#FFC135"/>
<path d="M62.7047 25.3125L58.0782 83.1937C57.9657 84.6422 56.7282 85.7812 55.2797 85.7812H34.7203C33.2719 85.7812 32.0344 84.6422 31.9219 83.1937L31.7953 81.5625H51.061C52.5094 81.5625 53.7469 80.4234 53.8594 78.975L58.1485 25.3125H62.7047Z" fill="#FF9F14"/>
<path d="M67.5 32.3438C75.2665 32.3438 81.5625 26.0478 81.5625 18.2812C81.5625 10.5147 75.2665 4.21875 67.5 4.21875C59.7335 4.21875 53.4375 10.5147 53.4375 18.2812C53.4375 26.0478 59.7335 32.3438 67.5 32.3438Z" fill="#FF9F14"/>
<path d="M67.5 28.125C72.9366 28.125 77.3438 23.7178 77.3438 18.2812C77.3438 12.8447 72.9366 8.4375 67.5 8.4375C62.0634 8.4375 57.6562 12.8447 57.6562 18.2812C57.6562 23.7178 62.0634 28.125 67.5 28.125Z" fill="#FFC135"/>
<path d="M67.5 18.2812L65.9672 19.8141L66.0937 18.2812H67.5Z" fill="#FFC135"/>
<path d="M67.5 18.2812V28.125C66.7547 28.125 66.0234 28.0406 65.3203 27.8859L65.5312 25.3125L65.9672 19.8141L67.5 18.2812Z" fill="#FFE75A"/>
<path d="M77.3437 18.2812H81.5625C81.5625 26.0437 75.2625 32.3438 67.5 32.3438C66.6422 32.3438 65.7984 32.2594 64.9828 32.1188L65.3203 27.8859C66.0234 28.0406 66.7547 28.125 67.5 28.125C70.214 28.125 72.675 27.0281 74.4609 25.2422C76.2469 23.4563 77.3437 20.9953 77.3437 18.2812Z" fill="#FF960B"/>
<path d="M74.4609 11.3203C76.2469 13.1062 77.3438 15.5672 77.3438 18.2812H67.5L74.4609 11.3203Z" fill="#FFC135"/>
<path d="M67.5 18.2813H77.3438C77.3438 20.9953 76.2469 23.4563 74.4609 25.2422L67.5 18.2813ZM74.4609 11.3203L67.5 18.2813V8.4375C70.2141 8.4375 72.675 9.53438 74.4609 11.3203Z" fill="#FFE75A"/>
<path d="M67.5 18.2812L74.4609 25.2422C72.675 27.0281 70.2141 28.125 67.5 28.125V18.2812ZM67.5 8.4375V18.2812L60.5391 11.3203C62.325 9.53438 64.7859 8.4375 67.5 8.4375Z" fill="#FFC135"/>
<path d="M67.5 18.2812H66.0938H57.6562C57.6562 15.5672 58.7531 13.1062 60.5391 11.3203L67.5 18.2812Z" fill="#FFE75A"/>
<path d="M66.0938 18.2812L65.9672 19.8141L60.5391 25.2422C58.7531 23.4563 57.6562 20.9953 57.6562 18.2812H66.0938Z" fill="#FFDA86"/>
<path d="M65.9672 19.814L65.5312 25.3124H60.6234C60.5953 25.2983 60.5672 25.2702 60.5391 25.2421L65.9672 19.814ZM65.5312 25.3124L65.3203 27.8858C63.5203 27.478 61.9031 26.578 60.6234 25.3124H65.5312Z" fill="#FFEC7B"/>
<path d="M65.3203 27.8859L64.9828 32.1188C60.8485 31.3734 57.3469 28.8141 55.3219 25.3125H60.6235C61.9031 26.5781 63.5203 27.4781 65.3203 27.8859Z" fill="#FFB243"/>
<path d="M60.6234 25.3125H55.3219C54.1266 23.2453 53.4375 20.8406 53.4375 18.2812H57.6563C57.6563 20.9953 58.7531 23.4563 60.5391 25.2422C60.5672 25.2703 60.5953 25.2984 60.6234 25.3125Z" fill="#FFCD5D"/>
<path d="M58.3594 56.9531L55.5469 62.5781L51.3281 58.3594L54.1406 52.7344L58.3594 56.9531Z" fill="#BDD3FF"/>
<path d="M54.8438 75.9375C56.3971 75.9375 57.6562 74.6783 57.6562 73.125C57.6562 71.5717 56.3971 70.3125 54.8438 70.3125C53.2904 70.3125 52.0312 71.5717 52.0312 73.125C52.0312 74.6783 53.2904 75.9375 54.8438 75.9375Z" fill="#5991FF"/>
<path d="M55.5469 62.5781L51.3281 65.3906L44.2969 58.3594H51.3281L55.5469 62.5781Z" fill="#5991FF"/>
<path d="M55.3219 25.3125H33.9328L32.7094 18.2812H53.4375C53.4375 20.8406 54.1266 23.2453 55.3219 25.3125Z" fill="#F8F4E8"/>
<path d="M52.0312 46.4062C53.5846 46.4062 54.8438 45.1471 54.8438 43.5938C54.8438 42.0404 53.5846 40.7812 52.0312 40.7812C50.4779 40.7812 49.2188 42.0404 49.2188 43.5938C49.2188 45.1471 50.4779 46.4062 52.0312 46.4062Z" fill="#5991FF"/>
<path d="M54.1406 52.7344L51.3281 58.3594H44.2969L48.5156 49.9219L54.1406 52.7344Z" fill="#F8F4E8"/>
<path d="M45.2531 71.1704L47.25 77.1329H41.2734L39.2906 71.1704H45.2531Z" fill="#BDD3FF"/>
<path d="M47.25 77.1328L46.2516 82.1109H36.3094L41.2735 77.1328H47.25Z" fill="#5991FF"/>
<path d="M39.2906 71.1704L41.2734 77.1329L36.3094 82.111L33.3281 73.1673L39.2906 71.1704Z" fill="#F8F4E8"/>
<path d="M32.7094 18.2812L33.9328 25.3125H24.4687L23.9062 18.2812H32.7094Z" fill="#F8F4E8"/>
<path d="M30.1837 44.7118C30.254 45.3924 30.4734 47.2866 31.2848 47.544C31.7165 47.6804 32.3662 47.2444 32.5026 46.838C32.5715 46.6313 32.5448 46.4063 32.5082 46.1926C32.3072 45.0268 31.9106 43.8132 31.4479 42.7247C31.3214 42.4294 30.8475 41.6096 30.4636 42.0933C30.389 42.1876 30.3525 42.3071 30.3215 42.4238C30.1415 43.1129 30.1022 43.9158 30.1837 44.7118ZM48.4467 32.303C48.5226 33.0441 48.7631 35.1043 49.6448 35.3827C50.1145 35.5318 50.8218 35.0579 50.9681 34.6149C51.0426 34.3899 51.0145 34.1452 50.9737 33.9132C50.7543 32.6447 50.324 31.3257 49.8192 30.1416C49.6828 29.8196 49.1653 28.928 48.749 29.454C48.6675 29.5566 48.6281 29.686 48.5943 29.8126C48.4003 30.5635 48.3581 31.4382 48.4467 32.303Z" fill="#FFE75A"/>
<path d="M53.4375 30.9375C54.2142 30.9375 54.8438 30.3079 54.8438 29.5312C54.8438 28.7546 54.2142 28.125 53.4375 28.125C52.6608 28.125 52.0312 28.7546 52.0312 29.5312C52.0312 30.3079 52.6608 30.9375 53.4375 30.9375Z" fill="#FFE75A"/>
<path d="M30.9375 32.3438C31.7142 32.3438 32.3438 31.7142 32.3438 30.9375C32.3438 30.1608 31.7142 29.5312 30.9375 29.5312C30.1608 29.5312 29.5312 30.1608 29.5312 30.9375C29.5312 31.7142 30.1608 32.3438 30.9375 32.3438Z" fill="#FFE75A"/>
<path d="M35.1562 67.5C35.9329 67.5 36.5625 66.8704 36.5625 66.0938C36.5625 65.3171 35.9329 64.6875 35.1562 64.6875C34.3796 64.6875 33.75 65.3171 33.75 66.0938C33.75 66.8704 34.3796 67.5 35.1562 67.5Z" fill="#FFE75A"/>
<path d="M30.9375 52.0312C31.7142 52.0312 32.3438 51.4017 32.3438 50.625C32.3438 49.8483 31.7142 49.2188 30.9375 49.2188C30.1608 49.2188 29.5312 49.8483 29.5312 50.625C29.5312 51.4017 30.1608 52.0312 30.9375 52.0312Z" fill="#FFE75A"/>
<path d="M57.6562 52.0312C58.4329 52.0312 59.0625 51.4017 59.0625 50.625C59.0625 49.8483 58.4329 49.2188 57.6562 49.2188C56.8796 49.2188 56.25 49.8483 56.25 50.625C56.25 51.4017 56.8796 52.0312 57.6562 52.0312Z" fill="#FFE75A"/>
<path d="M57.6562 39.375C58.4329 39.375 59.0625 38.7454 59.0625 37.9688C59.0625 37.1921 58.4329 36.5625 57.6562 36.5625C56.8796 36.5625 56.25 37.1921 56.25 37.9688C56.25 38.7454 56.8796 39.375 57.6562 39.375Z" fill="#FFE75A"/>
<path d="M32.3438 59.0625C33.1204 59.0625 33.75 58.4329 33.75 57.6562C33.75 56.8796 33.1204 56.25 32.3438 56.25C31.5671 56.25 30.9375 56.8796 30.9375 57.6562C30.9375 58.4329 31.5671 59.0625 32.3438 59.0625Z" fill="#FFE75A"/>
<path d="M40.7798 66.0938C40.1077 66.0938 39.5142 65.6114 39.3961 64.928L28.7564 3.75891C28.5609 3.19781 28.0237 2.8125 27.4261 2.8125H16.875C16.0987 2.8125 15.4688 2.18391 15.4688 1.40625C15.4688 0.628594 16.0987 0 16.875 0H27.4261C29.2837 0 30.9487 1.24594 31.4733 3.02766C31.4887 3.07828 31.5 3.13031 31.5098 3.18375L42.1664 64.4456C42.3 65.2106 41.7867 65.9391 41.0217 66.0713C40.9401 66.0867 40.86 66.0938 40.7798 66.0938Z" fill="#F91525"/>
<path d="M45 32.3438L47.8125 36.5625L40.7812 43.5938V36.5625L45 32.3438Z" fill="#5991FF"/>
<path d="M45 32.3438L40.7812 36.5625L35.1562 33.75L35.3672 33.5391L39.375 29.5312L45 32.3438Z" fill="#F8F4E8"/>
<path d="M40.7812 36.5625V43.5938L36.7594 41.5828L32.3438 39.375L35.1562 33.75L40.7812 36.5625Z" fill="#BDD3FF"/>
</g>
<defs>
<filter id="filter0_d_592_377" x="-4" y="0" width="98" height="98" filterUnits="userSpaceOnUse" color-interpolation-filters="sRGB">
<feFlood flood-opacity="0" result="BackgroundImageFix"/>
<feColorMatrix in="SourceAlpha" type="matrix" values="0 0 0 0 0 0 0 0 0 0 0 0 0 0 0 0 0 0 127 0" result="hardAlpha"/>
<feOffset dy="4"/>
<feGaussianBlur stdDeviation="2"/>
<feComposite in2="hardAlpha" operator="out"/>
<feColorMatrix type="matrix" values="0 0 0 0 0 0 0 0 0 0 0 0 0 0 0 0 0 0 0.25 0"/>
<feBlend mode="normal" in2="BackgroundImageFix" result="effect1_dropShadow_592_377"/>
<feBlend mode="normal" in="SourceGraphic" in2="effect1_dropShadow_592_377" result="shape"/>
</filter>
</defs>
</svg>
