<svg width="90" height="90" viewBox="0 0 90 90" fill="none" xmlns="http://www.w3.org/2000/svg">
<path d="M76.7601 37.0331V37.1483C76.6849 40.0534 75.5877 42.8096 73.7047 44.8235C71.8217 46.8375 69.3035 47.9483 66.6919 47.9169H24.6932C22.0816 47.9483 19.5634 46.8375 17.6804 44.8235C15.7974 42.8096 14.7002 40.0534 14.625 37.1483V37.0331C14.625 29.9009 19.2276 23.5883 26.4652 19.4524C30.2007 17.3586 34.2137 15.945 38.3514 15.2653C40.7792 14.8341 43.2341 14.62 45.6926 14.6251H46.4635C49.7517 14.6603 53.0269 15.0896 56.2325 15.9055C57.8628 16.3377 59.4689 16.8764 61.0422 17.5189C63.2723 18.4351 65.409 19.6111 67.4168 21.0274C73.1816 25.0864 76.7601 30.7588 76.7601 37.0331Z" fill="#67482F"/>
<path d="M76.7601 37.0331V37.1483C76.6849 40.0534 75.5877 42.8096 73.7047 44.8235C71.8217 46.8375 69.3035 47.9483 66.6919 47.9169H24.6932C22.0816 47.9483 19.5634 46.8375 17.6804 44.8235C15.7974 42.8096 14.7002 40.0534 14.625 37.1483V37.0331C14.6265 36.1053 14.7035 35.1796 14.8551 34.2673C15.8792 28.2747 20.1941 22.9993 26.4652 19.4524C30.2007 17.3586 34.2137 15.945 38.3514 15.2653C40.7792 14.8341 43.2341 14.62 45.6926 14.6251H46.4635C49.7517 14.6603 53.0269 15.0896 56.2325 15.9055C57.8629 16.3377 59.4689 16.8764 61.0422 17.5189C63.2723 18.4351 65.409 19.6111 67.4168 21.0274C72.3301 24.4846 75.6555 29.107 76.5185 34.2929C76.6803 35.1951 76.7612 36.113 76.7601 37.0331Z" fill="#67482F"/>
<path d="M76.5184 34.2929C75.9741 36.7308 74.7094 38.8944 72.9273 40.4363C71.1452 41.9782 68.9492 42.8089 66.6919 42.7951H24.6932C22.4313 42.8081 20.2312 41.9742 18.4468 40.4274C16.6624 38.8807 15.3973 36.7109 14.8551 34.2673C15.8792 28.2747 20.1941 22.9993 26.4652 19.4524C30.2006 17.3586 34.2136 15.945 38.3514 15.2653C40.7791 14.8341 43.234 14.62 45.6925 14.6251H46.4635C49.7517 14.6603 53.0269 15.0896 56.2325 15.9055C57.8628 16.3377 59.4688 16.8764 61.0422 17.5189C63.2722 18.4351 65.409 19.6111 67.4168 21.0274C72.3301 24.4846 75.6094 29.107 76.5184 34.2929Z" fill="#9E7059"/>
<path d="M56.2325 15.9055C53.1049 16.1577 50.1476 17.5872 47.8472 19.9586C45.5467 22.3301 44.0402 25.5023 43.5754 28.9533C43.5369 29.2896 43.4392 29.6142 43.2879 29.9085C43.1367 30.2028 42.9348 30.461 42.6939 30.6685C42.4529 30.876 42.1776 31.0286 41.8837 31.1177C41.5897 31.2068 41.2829 31.2306 40.9807 31.1877C40.6785 31.1448 40.3868 31.0361 40.1223 30.8678C39.8579 30.6995 39.6258 30.4749 39.4394 30.2067C39.2529 29.9386 39.1157 29.6322 39.0357 29.3051C38.9556 28.978 38.9343 28.6366 38.9728 28.3003C39.3366 25.5794 40.1869 22.9672 41.4735 20.6184C42.7601 18.2695 44.4569 16.2315 46.4635 14.625C49.7517 14.6602 53.027 15.0895 56.2325 15.9055ZM38.3514 15.2652C36.8546 15.7378 35.4446 16.5007 34.1861 17.5188C32.6741 18.727 31.3973 20.263 30.4323 22.0344C29.4673 23.8057 28.8342 25.7759 28.5709 27.8265C28.5069 28.4175 28.2523 28.9626 27.8545 29.3606C27.4567 29.7585 26.9426 29.9823 26.4077 29.9905H26.1315C25.8198 29.9903 25.5116 29.9156 25.2281 29.7714C24.9445 29.6271 24.6921 29.4167 24.4881 29.1544C24.284 28.8921 24.133 28.584 24.0453 28.2511C23.9576 27.9181 23.9353 27.5681 23.9798 27.2247C24.3159 24.4742 25.1539 21.8292 26.4422 19.4523C30.1849 17.3559 34.2058 15.9422 38.3514 15.2652ZM67.4169 21.0273C65.0111 21.0626 62.6915 22.0289 60.8563 23.7603C59.0212 25.4917 57.785 27.8802 57.3602 30.5154C57.2502 31.1002 56.96 31.6239 56.5398 31.9957C56.1195 32.3675 55.5956 32.564 55.0589 32.5514C54.4485 32.5514 53.8632 32.2816 53.4316 31.8013C53 31.321 52.7576 30.6697 52.7576 29.9905C52.7467 29.8413 52.7467 29.6914 52.7576 29.5423C53.1814 26.9639 54.1464 24.5333 55.5741 22.4484C57.0017 20.3635 58.8516 18.6832 60.9732 17.5444C63.2261 18.4475 65.3862 19.6151 67.4169 21.0273Z" fill="#7C4B35"/>
<path d="M87.75 70.7879V70.9437C87.6464 74.8704 86.1367 78.5957 83.5456 81.3179C80.9546 84.0401 77.4894 85.5416 73.8958 85.4991H16.1042C12.5106 85.5416 9.04537 84.0401 6.45433 81.3179C3.86329 78.5957 2.35354 74.8704 2.25 70.9437V70.7879C2.25 61.1477 8.58333 52.6152 18.5425 47.025C23.6826 44.1949 29.2047 42.2842 34.8983 41.3655C38.239 40.7826 41.617 40.4932 45 40.5001H46.0608C50.5855 40.5477 55.0923 41.1279 59.5033 42.2309C61.7467 42.815 63.9567 43.5431 66.1217 44.4116C69.1903 45.65 72.1305 47.2395 74.8933 49.1538C82.8258 54.6402 87.75 62.3073 87.75 70.7879Z" fill="#FFA433"/>
<path d="M87.75 70.7879V70.9437C87.6464 74.8704 86.1367 78.5957 83.5456 81.3179C80.9546 84.0401 77.4894 85.5416 73.8958 85.4991H16.1042C12.5106 85.5416 9.04537 84.0401 6.45433 81.3179C3.86329 78.5957 2.35354 74.8704 2.25 70.9437V70.7879C2.25209 69.5339 2.35808 68.2827 2.56667 67.0495C3.97583 58.9497 9.91333 51.8191 18.5425 47.025C23.6826 44.1949 29.2047 42.2842 34.8983 41.3655C38.239 40.7826 41.617 40.4932 45 40.5001H46.0608C50.5855 40.5477 55.0924 41.1279 59.5033 42.2309C61.7467 42.815 63.9567 43.5431 66.1217 44.4116C69.1903 45.65 72.1305 47.2395 74.8933 49.1538C81.6542 53.8267 86.23 60.0747 87.4175 67.0841C87.6401 68.3037 87.7515 69.5443 87.75 70.7879Z" fill="#FFA433"/>
<path d="M87.4175 67.0842C86.6685 70.3793 84.9282 73.3038 82.476 75.3879C80.0238 77.472 77.002 78.5949 73.8958 78.5762H16.1041C12.9917 78.5938 9.96435 77.4667 7.50893 75.376C5.0535 73.2852 3.31274 70.3525 2.56665 67.0495C3.97582 58.9497 9.91332 51.8191 18.5425 47.025C23.6826 44.1949 29.2047 42.2842 34.8983 41.3655C38.239 40.7826 41.617 40.4932 45 40.5001H46.0608C50.5855 40.5477 55.0923 41.1279 59.5033 42.2309C61.7467 42.815 63.9566 43.5431 66.1216 44.4116C69.1902 45.65 72.1305 47.2395 74.8933 49.1538C81.6541 53.8267 86.1666 60.0747 87.4175 67.0842Z" fill="#FFC43B"/>
<path d="M59.5033 42.2307C55.1996 42.5717 51.1302 44.5038 47.9647 47.7092C44.7993 50.9146 42.7262 55.2023 42.0866 59.8669C42.0336 60.3214 41.8992 60.7601 41.6911 61.1579C41.483 61.5557 41.2052 61.9048 40.8737 62.1852C40.5421 62.4657 40.1633 62.672 39.7588 62.7924C39.3543 62.9128 38.9321 62.945 38.5162 62.887C38.1004 62.8291 37.699 62.6821 37.3351 62.4546C36.9712 62.2271 36.6519 61.9235 36.3953 61.5611C36.1388 61.1987 35.95 60.7846 35.8399 60.3425C35.7297 59.9003 35.7003 59.4388 35.7533 58.9842C36.2539 55.3065 37.4239 51.7758 39.1944 48.6009C40.9648 45.4261 43.2996 42.6715 46.0608 40.5C50.5855 40.5476 55.0923 41.1278 59.5033 42.2307ZM34.8983 41.3654C32.8387 42.0042 30.8984 43.0353 29.1667 44.4115C27.0861 46.0445 25.3291 48.1206 24.0013 50.5149C22.6735 52.9091 21.8023 55.5721 21.44 58.3438C21.3519 59.1427 21.0016 59.8794 20.4542 60.4174C19.9067 60.9553 19.1994 61.2578 18.4633 61.2688H18.0833C17.6543 61.2686 17.2303 61.1676 16.8401 60.9727C16.4499 60.7777 16.1027 60.4933 15.8219 60.1387C15.541 59.7842 15.3333 59.3678 15.2126 58.9177C15.0919 58.4677 15.0612 57.9946 15.1225 57.5304C15.5849 53.8127 16.738 50.2376 18.5108 47.0249C23.6608 44.1913 29.1938 42.2804 34.8983 41.3654ZM74.8933 49.1537C71.5829 49.2013 68.391 50.5075 65.8658 52.8477C63.3405 55.188 61.6396 58.4164 61.055 61.9784C60.9037 62.7688 60.5043 63.4766 59.926 63.9791C59.3478 64.4816 58.6269 64.7474 57.8883 64.7302C57.0485 64.7302 56.243 64.3656 55.6491 63.7164C55.0553 63.0673 54.7216 62.1868 54.7216 61.2688C54.7066 61.0672 54.7066 60.8646 54.7216 60.663C55.3048 57.1779 56.6327 53.8925 58.5972 51.0745C60.5617 48.2564 63.1073 45.9853 66.0266 44.4461C69.1267 45.6667 72.099 47.2448 74.8933 49.1537Z" fill="#BC5F19"/>
</svg>
