<svg width="90" height="90" viewBox="0 0 90 90" fill="none" xmlns="http://www.w3.org/2000/svg">
<path d="M19.3801 20.6993C18.7106 18.6664 18.6426 16.2949 19.2717 14.2659C19.5745 13.2412 20.0887 12.2794 20.7547 11.4856C21.3881 10.6594 22.2131 10.0552 23.0215 9.5166L23.7721 10.4884C23.1957 11.1265 22.6568 11.7716 22.3425 12.5152C21.3268 14.5944 21.7989 17.4467 22.8955 19.0435L19.3801 20.6993Z" fill="#CC9F71"/>
<path d="M5.24432 42.8296L10.5464 83.2043C10.9219 86.0627 13.358 88.2 16.2409 88.2H73.7754C76.6582 88.2 79.0943 86.0627 79.4697 83.2043L84.7719 42.8296H5.24432Z" fill="#068880"/>
<path d="M24.4418 51.1587C22.2951 51.1587 20.5551 52.8989 20.5551 55.0456V75.9843C20.5551 78.131 22.2951 79.871 24.4418 79.871C26.5885 79.871 28.3287 78.131 28.3287 75.9843V55.0456C28.3285 52.8989 26.5885 51.1587 24.4418 51.1587ZM45.0081 51.1587C42.8614 51.1587 41.1211 52.8989 41.1211 55.0456V75.9843C41.1211 78.131 42.8614 79.871 45.0081 79.871C47.1547 79.871 48.895 78.131 48.895 75.9843V55.0456C48.8948 52.8989 47.1547 51.1587 45.0081 51.1587ZM65.5743 51.1587C63.4276 51.1587 61.6874 52.8989 61.6874 55.0456V75.9843C61.6874 78.131 63.4276 79.871 65.5743 79.871C67.721 79.871 69.4612 78.131 69.4612 75.9843V55.0456C69.4612 52.8989 67.721 51.1587 65.5743 51.1587Z" fill="white"/>
<path d="M86.6649 30.7749H3.335C2.69168 30.7749 2.17004 31.2964 2.17004 31.9397V41.6644C2.17004 42.3077 2.6915 42.8293 3.335 42.8293H86.6651C87.3084 42.8293 87.8301 42.3077 87.8301 41.6644V31.9397C87.8299 31.2964 87.3084 30.7749 86.6649 30.7749Z" fill="#46CC8D"/>
<path d="M21.0219 18.8232C27.6228 18.8232 32.9739 24.1745 32.9739 30.7751H9.06985C9.06985 24.1745 14.4211 18.8232 21.0219 18.8232Z" fill="#FFAE00"/>
<path d="M83.007 17.2368H63.8894C62.6733 17.2368 61.6874 18.2225 61.6874 19.4384V30.7752H85.2087V19.4384C85.2089 18.2225 84.2231 17.2368 83.007 17.2368Z" fill="#FF7100"/>
<path d="M56.7421 10.2007V30.7785H32.8689V10.2007C32.8689 9.29389 33.604 8.55859 34.511 8.55859H55.1C56.0068 8.55859 56.7421 9.29371 56.7421 10.2007Z" fill="#84C5FA"/>
<path d="M51.1099 2.72716V8.55844H38.501V2.72716C38.501 2.21506 38.9161 1.7998 39.4284 1.7998H50.1823C50.6946 1.7998 51.1099 2.21506 51.1099 2.72716Z" fill="#0461FF"/>
<path d="M71.5328 10.2349C69.9149 8.61702 67.292 8.61702 65.6743 10.2349L42.5877 33.3218L48.4462 39.1801L71.533 16.0931C73.1506 14.4755 73.1506 11.8527 71.5328 10.2349Z" fill="#FED402"/>
<path d="M44.9999 41.1642C47.4087 41.1642 49.3613 39.2115 49.3613 36.8028C49.3613 34.3941 47.4087 32.4414 44.9999 32.4414C42.5912 32.4414 40.6385 34.3941 40.6385 36.8028C40.6385 39.2115 42.5912 41.1642 44.9999 41.1642Z" fill="#068880"/>
<path d="M20.8474 14.7585C17.0494 16.6667 12.4414 15.1365 10.5514 11.3387C12.4414 10.4027 14.5474 10.3125 16.4014 10.9247C18.2734 11.5545 19.8935 12.8865 20.8474 14.7585Z" fill="#439F47"/>
</svg>
