<svg width="60" height="60" viewBox="0 0 60 60" fill="none" xmlns="http://www.w3.org/2000/svg">
<path d="M30 60C46.5685 60 60 46.5685 60 30C60 13.4315 46.5685 0 30 0C13.4315 0 0 13.4315 0 30C0 46.5685 13.4315 60 30 60Z" fill="#F0F0F0"/>
<path d="M58.134 40.4349C59.34 37.1849 60 33.6698 60 30.0002C60 26.3305 59.34 22.8154 58.134 19.5654H1.86598C0.660117 22.8154 0 26.3305 0 30.0002C0 33.6698 0.660117 37.1849 1.86598 40.4349L30 43.0436L58.134 40.4349Z" fill="#0052B4"/>
<path d="M30.0001 59.9998C42.899 59.9998 53.8953 51.8586 58.1341 40.4346H1.86606C6.10485 51.8586 17.1011 59.9998 30.0001 59.9998Z" fill="#D80027"/>
</svg>
