<svg width="805" height="706" viewBox="0 0 805 706" fill="none" xmlns="http://www.w3.org/2000/svg">
<g id="Group 1">
<g id="icon_category" filter="url(#filter0_f_605_1549)">
<path id="Vector" d="M488.2 191.6C488.2 207.97 474.97 221.2 458.6 221.2C442.23 221.2 429 207.97 429 191.6C429 175.23 442.23 162 458.6 162C474.858 162 488.2 175.23 488.2 191.6Z" fill="#6ABDFB"/>
<path id="Vector_2" fill-rule="evenodd" clip-rule="evenodd" d="M473.624 188.573V182.518H470.597V181.06C470.597 178.145 469.364 175.454 467.458 173.548C465.552 175.454 462.973 176.576 460.17 176.576H450.976C448.509 176.576 446.491 178.594 446.491 181.06V182.518H443.464V188.573H440.436V200.682C440.436 205.727 444.473 209.763 449.518 209.763H467.682C472.727 209.763 476.764 205.727 476.764 200.682V188.573H473.624ZM449.518 181.06C449.518 180.276 450.191 179.603 450.976 179.603H460.17C462.524 179.603 464.879 178.93 466.785 177.809C467.233 178.818 467.57 179.939 467.57 181.06V182.518H449.406V181.06H449.518ZM446.491 185.545H470.709V188.573H446.491V185.545ZM473.624 200.682C473.624 204.045 470.933 206.736 467.57 206.736H449.406C446.042 206.736 443.352 204.045 443.352 200.682V191.6H473.624V200.682Z" fill="white"/>
</g>
<g id="icon_category_2">
<path id="Vector_3" d="M141 231.5C141 270.418 109.418 302 70.5 302C31.5824 302 0 270.418 0 231.5C0 192.582 31.5824 161 70.5 161C109.418 161 141 192.582 141 231.5Z" fill="#FFC135"/>
<path id="Vector_4" fill-rule="evenodd" clip-rule="evenodd" d="M110.029 228.24V221.72C110.029 205.419 96.7848 192.175 80.4842 192.175H60.7197C44.4192 192.175 31.175 205.419 31.175 221.72V228.24C27.5073 228.24 24.6547 231.092 24.6547 234.76V244.54C24.6547 248.208 27.5073 251.061 31.175 251.061V260.841C31.175 266.342 35.6576 270.621 40.9553 270.621H100.045C105.546 270.621 109.825 266.139 109.825 260.841V251.061C113.493 251.061 116.345 248.208 116.345 244.54V234.76C116.549 231.296 113.493 228.24 110.029 228.24ZM80.4842 208.679C80.4842 206.845 81.9105 205.419 83.7443 205.419C85.5781 205.419 87.0044 206.845 87.0044 208.679C87.0044 210.513 85.5781 211.939 83.7443 211.939C81.9105 211.939 80.4842 210.513 80.4842 208.679ZM67.24 215.199C67.24 213.366 68.6663 211.939 70.5001 211.939C72.3339 211.939 73.7602 213.366 73.7602 215.199C73.7602 217.033 72.3339 218.46 70.5001 218.46C68.6663 218.46 67.24 217.033 67.24 215.199ZM54.1995 208.679C54.1995 206.845 55.6258 205.419 57.4596 205.419C59.2934 205.419 60.7197 206.845 60.7197 208.679C60.7197 210.513 59.2934 211.939 57.4596 211.939C55.6258 211.939 54.1995 210.513 54.1995 208.679ZM37.6952 221.72C37.6952 209.087 48.0868 198.695 60.7197 198.695H80.4842C93.1171 198.695 103.509 209.087 103.509 221.72V228.24H37.8989V221.72H37.6952ZM103.305 261.045C103.305 262.879 101.879 264.305 100.045 264.305H40.9553C39.1215 264.305 37.6952 262.879 37.6952 261.045V251.264H103.305V261.045ZM106.769 244.744H31.175V234.964H39.9365L48.9018 241.077C49.7169 241.688 50.9394 241.892 51.9582 241.484L67.8513 235.168H109.825V244.948H106.769V244.744Z" fill="white"/>
</g>
<g id="icon_category_3" filter="url(#filter1_f_605_1549)">
<path id="Vector_5" d="M397 251.5C397 275.517 377.517 295 353.5 295C329.483 295 310 275.517 310 251.5C310 227.483 329.483 208 353.5 208C377.639 208.123 397 227.606 397 251.5Z" fill="#F7914D"/>
<path id="Vector_6" fill-rule="evenodd" clip-rule="evenodd" d="M353.623 225.4C343.452 225.278 333.649 231.772 329.606 241.085C325.44 250.397 327.4 262.038 334.385 269.39C341.124 276.742 352.152 279.683 361.587 276.497C371.635 273.311 379.11 263.754 379.6 253.216C380.335 243.168 374.699 232.997 365.631 228.341C362.078 226.38 357.789 225.4 353.623 225.4ZM356.073 229.934C361.22 230.547 366.121 232.997 369.675 236.918C367.224 236.918 365.876 237.286 363.058 236.673C361.097 235.938 360.73 236.306 359.014 234.1C357.666 232.507 356.686 231.159 355.461 229.934H356.073ZM349.456 230.179C352.397 231.895 354.971 234.468 355.706 237.776C354.358 239.492 353.745 240.349 350.927 240.595C344.187 240.962 337.325 243.045 332.179 247.579C333.649 238.879 340.756 231.649 349.456 230.179ZM360.117 240.595C362.935 240.472 364.528 244.271 362.445 246.231C360.607 248.192 356.931 246.966 356.931 244.271C356.686 242.31 358.279 240.595 360.117 240.595ZM372.616 240.962C375.066 245.373 375.924 250.765 374.944 255.789C372.983 252.358 370.287 249.172 367.224 246.599C367.347 244.271 366.979 243.168 367.959 242.065C368.204 241.697 368.817 241.452 369.675 241.207C370.655 241.085 371.635 240.962 372.616 240.962ZM352.642 244.883C352.275 247.334 353.99 249.54 354.848 250.765C351.662 257.749 350.559 265.592 351.172 273.189C341.737 272.331 333.527 264.489 332.056 255.176C332.179 252.48 335.365 250.765 337.325 249.172C341.859 246.231 347.251 245.006 352.642 244.883ZM364.528 250.152C368.082 253.338 371.268 257.137 372.861 261.793C369.552 268.287 362.69 272.821 355.461 273.311C354.725 265.837 355.828 258.24 359.259 251.5C361.097 251.745 363.058 251.133 364.528 250.152Z" fill="white"/>
</g>
<g id="icon_category_4">
<path id="Vector_7" d="M470.2 331.1C470.2 353.8 451.8 372.2 429.1 372.2C406.4 372.2 388 353.8 388 331.1C388 308.4 406.4 290 429.1 290C451.8 290 470.2 308.4 470.2 331.1Z" fill="#625FAA"/>
<path id="Vector_8" fill-rule="evenodd" clip-rule="evenodd" d="M428.3 326.6C428.3 326.5 428.2 326.5 428.3 326.6C427.7 323.4 425.8 320.6 423.1 318.9V306.3C423.1 305.3 422.3 304.5 421.3 304.5H413.1C412.1 304.5 411.3 305.3 411.3 306.3V318.9C408.6 320.6 406.7 323.4 406.1 326.5V326.6V326.7C406 327.3 405.9 327.9 405.9 328.5V342V352.6C405.9 355.4 408.2 357.7 411 357.7H423.2C426 357.7 428.3 355.4 428.3 352.6V342V328.5C428.3 327.9 428.2 327.3 428.1 326.7C428.3 326.6 428.3 326.6 428.3 326.6ZM409.5 328.6H424.9V340.2H409.5V328.6ZM413.9 321.5C414.5 321.2 414.9 320.6 414.9 319.9V308H419.5V319.9C419.5 320.6 419.9 321.2 420.5 321.5C422.1 322.3 423.4 323.5 424.1 325.1H410.3C411 323.6 412.3 322.3 413.9 321.5ZM423.3 354.2H411.1C410.2 354.2 409.5 353.5 409.5 352.6V343.7H424.9V352.6C424.9 353.5 424.2 354.2 423.3 354.2ZM452.1 333.7C452.1 333.6 452.1 333.6 452.1 333.5L451.8 330.7V330.6L450.3 316.9C450.2 316 449.4 315.3 448.5 315.3H434.3C433.4 315.3 432.6 316 432.5 316.9L430.7 333.6C430.7 333.7 430.7 333.7 430.7 333.8C430.7 339.1 434.6 343.4 439.6 344.3V354.3H434.9C433.9 354.3 433.1 355.1 433.1 356.1C433.1 357.1 433.9 357.9 434.9 357.9H447.8C448.8 357.9 449.6 357.1 449.6 356.1C449.6 355.1 448.8 354.3 447.8 354.3H443.1V344.3C448.3 343.3 452.1 338.9 452.1 333.7ZM447 318.8L448.2 329.8C447.1 330.5 444.8 331.7 442.5 330.2C439.7 328.4 437 328.4 435 328.7L436 318.8H447ZM434.4 333.8L434.5 332.4C435.7 332 438.1 331.7 440.5 333.2C441.9 334.1 443.4 334.5 444.8 334.5C446.2 334.5 447.5 334.1 448.6 333.7V333.9C448.5 337.8 445.4 340.9 441.5 340.9C437.6 340.8 434.4 337.6 434.4 333.8Z" fill="white"/>
</g>
<g id="icon_category_5">
<path id="Vector_9" d="M746 431.5C746 468.32 716.32 498 679.5 498C642.679 498 613 468.32 613 431.5C613 394.68 642.679 365 679.5 365C716.32 365 746 394.68 746 431.5Z" fill="#30BFC7"/>
<path id="Vector_10" d="M698.691 445.559C696.237 444.22 694.228 442.435 692.443 440.203C690.658 437.972 689.319 435.517 688.649 432.616C687.98 430.608 686.864 428.822 685.302 427.707C683.74 426.591 681.732 425.921 679.723 425.921C677.715 425.921 675.706 426.591 674.144 427.707C672.582 428.822 671.243 430.608 670.797 432.616V432.839C669.904 435.517 668.789 437.972 667.003 440.203C665.218 442.435 662.987 444.22 660.532 445.559C658.747 446.451 657.408 448.237 656.738 450.022C656.069 451.807 656.292 454.039 657.185 455.824C658.077 457.609 659.639 459.171 661.425 459.841C663.21 460.51 665.441 460.51 667.226 459.841C671.243 458.279 675.483 457.386 679.723 457.386C683.963 457.386 688.203 458.279 692.22 459.841H692.443C694.228 460.51 696.46 460.51 698.245 459.841C700.03 459.171 701.592 457.832 702.485 455.824C703.378 454.039 703.377 451.807 702.931 450.022C702.262 448.237 701.146 446.451 699.138 445.559H698.691ZM699.807 434.401C700.7 435.517 702.039 436.633 703.377 437.302C707.394 439.534 710.295 443.104 711.634 447.121C712.973 451.138 712.75 455.824 710.742 459.841C708.733 464.081 705.386 466.982 701.369 468.544C697.352 470.106 692.889 470.106 688.872 468.321H688.649C685.748 467.205 682.847 466.535 679.723 466.535C676.599 466.535 673.698 467.205 670.797 468.321C666.557 470.106 662.094 470.106 658.077 468.544C654.06 466.982 650.713 464.081 648.705 459.841C646.696 455.601 646.473 451.138 647.812 447.121C649.151 443.104 652.052 439.534 656.069 437.302C657.408 436.633 658.747 435.517 659.639 434.178C660.532 433.062 661.201 431.723 661.871 430.161C661.871 429.938 662.094 429.715 662.094 429.269C663.21 425.475 665.664 422.351 668.789 419.896C671.913 417.441 675.93 416.103 679.946 416.103C684.186 416.103 687.98 417.441 691.104 419.896C694.228 422.351 696.683 425.698 697.799 429.715C698.022 431.723 698.691 433.062 699.807 434.401Z" fill="white"/>
<path id="Vector_11" d="M720.114 421.235C720.114 426.367 715.874 430.607 710.741 430.607C705.609 430.607 701.369 426.367 701.369 421.235C701.369 416.102 705.609 411.862 710.741 411.862C716.097 411.862 720.114 416.102 720.114 421.235Z" fill="white"/>
<path id="Vector_12" d="M657.631 421.235C657.631 426.367 653.391 430.607 648.258 430.607C643.126 430.607 638.886 426.367 638.886 421.235C638.886 416.102 643.126 411.862 648.258 411.862C653.391 411.862 657.631 416.102 657.631 421.235Z" fill="white"/>
<path id="Vector_13" d="M676.376 402.49C676.376 407.622 672.136 411.862 667.003 411.862C661.871 411.862 657.631 407.622 657.631 402.49C657.631 397.357 661.871 393.117 667.003 393.117C672.136 393.117 676.376 397.357 676.376 402.49Z" fill="white"/>
<path id="Vector_14" d="M701.369 402.49C701.369 407.622 697.129 411.862 691.996 411.862C686.864 411.862 682.624 407.622 682.624 402.49C682.624 397.357 686.864 393.117 691.996 393.117C697.129 393.117 701.369 397.357 701.369 402.49Z" fill="white"/>
</g>
<g id="icon_category_6">
<path id="Vector_15" d="M689.2 677.1C689.2 692.6 676.6 705.2 661.1 705.2C645.6 705.2 633 692.6 633 677.1C633 661.6 645.6 649 661.1 649C676.6 649 689.2 661.6 689.2 677.1Z" fill="#F7914D"/>
<path id="Vector_16" fill-rule="evenodd" clip-rule="evenodd" d="M662.5 660.4C662.4 660.4 662.3 660.4 662.3 660.4C658.4 660.4 654.7 661.5 651.9 663.6C649.1 665.7 647.2 669 647.2 672.9C647.2 674.8 647.8 676.7 648.9 678C646.2 680.1 644.5 683.2 644.5 686.8C644.5 688.5 645 690.1 645.9 691.4C646.8 692.7 648.2 693.7 649.9 693.7H672.5C674.2 693.7 675.6 692.7 676.5 691.4C677.4 690.1 677.9 688.5 677.9 686.8C677.9 683.8 676.7 681.3 674.9 679.3C675.6 678.9 676.2 678.2 676.7 677.5C677.5 676.2 678 674.6 678 672.9C678 669 676.2 665.8 673.3 663.6C670.5 661.5 666.9 660.4 662.9 660.4C662.7 660.4 662.6 660.4 662.5 660.4ZM661.1 663.3V667.4C661.1 668.2 661.7 668.8 662.5 668.8C663.3 668.8 663.9 668.2 663.9 667.4V663.3C665.4 663.4 666.8 663.7 668.1 664.2V667.5C668.1 668.3 668.7 668.9 669.5 668.9C670.3 668.9 670.9 668.3 670.9 667.5V665.6C671.1 665.7 671.3 665.9 671.5 666C673.7 667.7 675.1 670 675.1 673.1C675.1 674.2 674.7 675.4 674.3 676.2C673.8 677 673.3 677.3 672.9 677.3H672.1C669.2 675.5 665.5 674.6 661.5 674.5C661.4 674.5 661.3 674.5 661.2 674.5C661.1 674.5 661 674.5 660.9 674.5C657.4 674.5 654.2 675.3 651.4 676.6C650.7 675.9 650 674.6 650 673.1C650 670 651.3 667.7 653.6 666C653.8 665.9 654 665.7 654.2 665.6V667.5C654.2 668.3 654.8 668.9 655.6 668.9C656.4 668.9 657 668.3 657 667.5V664.2C658.2 663.7 659.6 663.4 661.1 663.3ZM659.7 677.2V681.3C659.7 682.1 660.3 682.7 661.1 682.7C661.9 682.7 662.5 682.1 662.5 681.3V677.2C664 677.3 665.4 677.5 666.7 677.9V681.3C666.7 682.1 667.3 682.7 668.1 682.7C668.9 682.7 669.5 682.1 669.5 681.3V678.9C670 679.1 670.5 679.4 670.9 679.7L671 679.8C671 679.8 671.1 679.8 671.1 679.9C673.6 681.6 675 683.9 675 686.9C675 688 674.6 689.1 674.1 689.9C673.6 690.7 672.9 691 672.4 691H649.8C649.3 691 648.7 690.6 648.1 689.9C647.6 689.1 647.2 688 647.2 686.9C647.2 683.9 648.6 681.6 651.1 679.9C651.3 679.8 651.5 679.6 651.7 679.5H651.8C652.1 679.3 652.4 679.2 652.7 679V681.4C652.7 682.2 653.3 682.8 654.1 682.8C654.9 682.8 655.5 682.2 655.5 681.4V678C655.6 678 655.8 677.9 655.9 677.9C656 677.9 656 677.9 656.1 677.8C656.4 677.7 656.7 677.7 657.1 677.6C657.2 677.6 657.4 677.6 657.5 677.5C657.8 677.5 658.1 677.4 658.4 677.4C658.5 677.4 658.7 677.4 658.8 677.4C659.1 677.2 659.4 677.2 659.7 677.2Z" fill="white"/>
</g>
<g id="icon_category_7">
<path id="Vector_17" d="M128.2 565.6C128.2 584.7 112.7 600.2 93.6 600.2C74.5 600.2 59 584.7 59 565.6C59 546.5 74.5 531 93.6 531C112.7 531 128.2 546.5 128.2 565.6Z" fill="#A7CE41"/>
<path id="Vector_18" d="M108.7 574.2C105.1 574.2 102.2 577.1 102.2 580.7C102.2 584.3 105.1 587.2 108.7 587.2C112.3 587.2 115.2 584.3 115.2 580.7C115.2 577.1 112.3 574.2 108.7 574.2ZM108.7 582.8C107.5 582.8 106.5 581.8 106.5 580.6C106.5 579.4 107.5 578.4 108.7 578.4C109.9 578.4 110.9 579.4 110.9 580.6C110.9 581.9 109.9 582.8 108.7 582.8ZM87.2 574.2C83.6 574.2 80.7 577.1 80.7 580.7C80.7 584.3 83.6 587.2 87.2 587.2C90.8 587.2 93.7 584.3 93.7 580.7C93.6 577.1 90.7 574.2 87.2 574.2ZM87.2 582.8C86 582.8 85 581.8 85 580.6C85 579.4 86 578.4 87.2 578.4C88.4 578.4 89.4 579.4 89.4 580.6C89.3 581.9 88.3 582.8 87.2 582.8ZM115.2 558C115.2 550.3 108.9 544 101.2 544H100.1C98.9 544 97.9 545 97.9 546.2V557H83.9L81.2 549.8C80.9 549 80.1 548.4 79.2 548.4H74.2C73 548.4 72 549.4 72 550.6C72 551.8 73 552.8 74.2 552.8H77.7L80.4 560.1L81.5 563V563.2C83.6 568.7 88.8 572.3 94.7 572.2H101.2C104.9 572.2 108.5 570.7 111.1 568.1C113.7 565.3 115.2 561.8 115.2 558ZM108 564.9C106.2 566.7 103.7 567.8 101.1 567.7H94.6C90.7 567.7 87.1 565.3 85.6 561.7V561.6L85.4 561.3H110.1C109.8 562.6 109.1 563.9 108 564.9ZM102.2 557V548.4C106.7 548.9 110.4 552.5 110.8 557H102.2Z" fill="white"/>
</g>
<g id="icon_category_8">
<path id="Vector_19" d="M804.996 560.724C805.341 586.929 784.48 608.651 758.276 608.996C732.071 609.341 710.349 588.48 710.004 562.276C709.659 536.071 730.52 514.349 756.724 514.004C782.929 513.659 804.651 534.52 804.996 560.724Z" fill="#90B541"/>
<path id="Vector_20" d="M752.414 562.276C750.69 562.276 749.311 563.655 749.311 565.379C749.311 567.103 750.69 568.482 752.414 568.482C754.138 568.482 755.517 567.103 755.517 565.379C755.345 563.655 753.966 562.276 752.414 562.276ZM752.414 548.829C750.69 548.829 749.311 550.208 749.311 551.932C749.311 553.656 750.69 555.035 752.414 555.035C754.138 555.035 755.517 553.656 755.517 551.932C755.345 550.035 753.966 548.829 752.414 548.829ZM762.931 554.863C761.207 554.863 759.827 556.242 759.827 557.966V561.069C759.827 562.793 761.207 564.172 762.931 564.172C764.655 564.172 766.034 562.793 766.034 561.069V557.966C766.034 556.242 764.655 554.863 762.931 554.863ZM788.618 550.553C786.549 549.346 783.963 549.001 781.722 549.691C780.515 550.035 779.481 550.553 778.446 551.415L743.277 531.071C742.415 530.554 741.208 530.554 740.174 531.071C739.14 531.589 738.622 532.623 738.622 533.657V573.482C735.002 574.688 732.588 577.964 732.588 581.757V581.929C732.588 586.929 736.554 590.894 741.381 591.066H743.105C763.275 591.066 781.894 580.205 791.893 562.62C794.307 558.31 792.928 552.966 788.618 550.553ZM744.829 538.829L774.826 556.069C768.102 566.068 756.897 572.447 744.829 572.964V538.829ZM786.721 559.69C777.584 575.895 760.172 585.549 741.725 585.032C740.001 585.032 738.622 583.653 738.622 581.929C738.622 581.067 738.967 580.377 739.484 579.688C740.002 579.171 740.863 578.826 741.553 578.826H743.105C758.965 578.826 773.447 570.378 781.205 556.586C781.55 555.897 782.239 555.38 782.929 555.207C783.618 555.035 784.48 555.035 785.17 555.552C786.894 556.414 787.583 558.138 786.721 559.69Z" fill="white"/>
</g>
<g id="icon_category_9" filter="url(#filter2_f_605_1549)">
<path id="Vector_21" d="M438.9 119.2C438.9 130.9 429.4 140.4 417.7 140.4C406 140.4 396.5 130.9 396.5 119.2C396.5 107.5 406 98 417.7 98C429.5 98 438.9 107.5 438.9 119.2Z" fill="#FFCC00"/>
<path id="Vector_22" fill-rule="evenodd" clip-rule="evenodd" d="M428.2 126.2L423.2 113.9V109.6C423.2 107.8 421.8 106.4 420 106.4H415.7C413.9 106.4 412.5 107.8 412.5 109.6V113.9L407.5 126.2C407.3 126.7 407.2 127.3 407.2 127.8C407.2 130.2 409.1 132.1 411.5 132.1H424.4C426.8 132.1 428.7 130.2 428.7 127.8C428.5 127.2 428.4 126.7 428.2 126.2ZM412.4 123.5H423.1V125.6H412.4V123.5ZM414.5 119.2H420.9V121.3H414.5V119.2ZM414.5 109.6C414.5 109 415 108.5 415.6 108.5H419.9C420.5 108.5 421 109 421 109.6V111.7H414.6V109.6H414.5ZM424.2 130H411.3C410.1 130 409.2 129 409.2 127.9C409.2 127.6 409.3 127.3 409.4 127.1L414.8 114H420.9L426.3 127.1C426.4 127.4 426.5 127.6 426.5 127.9C426.3 129 425.4 130 424.2 130Z" fill="white"/>
</g>
<g id="icon_category_10" filter="url(#filter3_f_605_1549)">
<path id="Vector_23" d="M58.6 483.8C58.6 497.5 47.5 508.6 33.8 508.6C20.1 508.6 9 497.5 9 483.8C9 470.1 20.1 459 33.8 459C47.5 459 58.6 470.1 58.6 483.8Z" fill="#00CCFF"/>
<path id="Vector_24" d="M20.9 482.6H22.8L25.8 499C25.9 499.8 26.6 500.3 27.4 500.3H40.3C41.1 500.3 41.7 499.7 41.9 499L44.9 482.6H46.8C47.7 482.6 48.4 481.9 48.4 481C48.4 480.1 47.7 479.4 46.8 479.4H45.1C44.4 474.5 40.5 470.6 35.6 469.9V468.8L36.7 467.7C37.3 467.1 37.3 466.1 36.7 465.4C36.1 464.8 35.1 464.8 34.4 465.4C33.2 466.8 32.3 467.1 32.3 468.1V469.8C27.4 470.5 23.5 474.4 22.8 479.3H21.1C20.2 479.3 19.5 480 19.5 480.9C19.3 481.9 20 482.6 20.9 482.6ZM37 489C37 490.8 35.6 492.2 33.8 492.2C32 492.2 30.6 490.8 30.6 489C30.6 487.2 32 485.8 33.8 485.8C35.5 485.8 37 487.2 37 489ZM38.8 497H28.6L26 482.5H41.4L38.8 497ZM33.8 472.9C37.6 472.9 40.9 475.6 41.7 479.3H26C26.7 475.6 29.9 472.9 33.8 472.9Z" fill="white"/>
</g>
<g id="icon_category_11" filter="url(#filter4_f_605_1549)">
<path id="Vector_25" d="M764.6 251.8C764.6 262.2 756.2 270.6 745.8 270.6C735.4 270.6 727 262.2 727 251.8C727 241.5 735.3 233.1 745.5 233H746.1C756.3 233.1 764.6 241.5 764.6 251.8Z" fill="#F7914D"/>
<path id="Vector_26" d="M745.7 250.3L757.8 248C758.5 247.9 759.2 248.3 759.3 249C759.4 249.7 759 250.4 758.3 250.5L747 252.6L746.1 257.5L746.8 257.9C746.9 258 747 258 747.1 258.1C747.9 258.9 748.3 260 748.3 261.1C748.3 262.2 747.9 263.3 747.1 264.1C746.3 264.9 745.2 265.3 744.1 265.3C743 265.3 741.9 264.9 741.1 264.1C740.3 263.3 739.9 262.2 739.9 261.1C739.9 260 740.3 258.9 741.1 258.1C741.6 257.6 742.2 257.2 742.8 257.1C743 257 743.3 257 743.6 256.9L744.3 253.1L740.5 253.8C740.4 254.7 740 255.6 739.3 256.3C738.5 257.1 737.4 257.5 736.3 257.5C735.2 257.5 734.1 257.1 733.3 256.3C732.5 255.5 732.1 254.4 732.1 253.3C732.1 252.2 732.5 251.1 733.3 250.3C734.1 249.5 735.2 249.1 736.3 249.1C737.4 249.1 738.5 249.5 739.3 250.3C739.6 250.6 739.9 250.9 740 251.3L745.7 250.3ZM747 239.2C747.1 238.5 747.8 238.1 748.5 238.2C749.2 238.3 749.6 239 749.5 239.7L748.1 247.3C748 248 747.3 248.4 746.6 248.3C745.9 248.2 745.5 247.5 745.6 246.8L747 239.2ZM738 253.4C738 253 737.8 252.5 737.5 252.2C737.2 251.9 736.7 251.7 736.3 251.7C735.9 251.7 735.4 251.9 735.1 252.2C734.8 252.5 734.6 253 734.6 253.4C734.6 253.8 734.8 254.3 735.1 254.6C735.4 254.9 735.9 255.1 736.3 255.1C736.7 255.1 737.2 254.9 737.5 254.6C737.9 254.2 738 253.8 738 253.4ZM745.8 261.2C745.8 260.8 745.7 260.4 745.4 260.1L744.2 259.5C744 259.5 743.8 259.5 743.5 259.6C743.2 259.7 743 259.8 742.8 260C742.5 260.3 742.3 260.8 742.3 261.2C742.3 261.6 742.5 262.1 742.8 262.4C743.1 262.7 743.6 262.9 744 262.9C744.4 262.9 744.9 262.7 745.2 262.4C745.7 262 745.8 261.6 745.8 261.2Z" fill="white"/>
</g>
<g id="icon_category_12">
<path id="Vector_27" d="M657 101.503C657 114.999 645.996 126.003 632.5 126.003C619.004 126.003 608 114.999 608 101.503C608 88.0071 619.004 77.0029 632.5 77.0029C646.203 76.7953 657 87.7995 657 101.503Z" fill="#65B32E"/>
<path id="Vector_28" d="M628.347 114.999H635.822C641.013 114.999 645.165 110.846 645.165 105.656V103.787H647.034C650.148 103.787 652.64 101.296 652.64 98.1811C652.64 95.0667 650.148 92.5752 647.034 92.5752H645.165V90.7065C645.165 89.6684 644.335 88.8379 643.297 88.8379H621.081C620.042 88.8379 619.212 89.6684 619.212 90.7065V105.656C619.004 110.846 623.157 114.999 628.347 114.999ZM644.958 96.5201H646.826C647.864 96.5201 648.695 97.3506 648.695 98.3888C648.695 99.4269 647.864 100.257 646.826 100.257H644.958V96.5201ZM622.741 92.7828H641.22V105.863C641.22 108.978 638.729 111.469 635.614 111.469H628.14C625.025 111.469 622.534 108.978 622.534 105.863V92.7828H622.741Z" fill="white"/>
</g>
<g id="icon_category_13">
<path id="Vector_29" d="M566.2 32.1C566.2 49.8 551.8 64.2 534.1 64.2C516.4 64.2 502 49.8 502 32.1C502 14.4 516.4 0 534.1 0C551.8 0 566.2 14.3 566.2 32.1Z" fill="#F05152"/>
<path id="Vector_30" fill-rule="evenodd" clip-rule="evenodd" d="M553.4 29.5999V26.3999C553.4 18.3999 546.9 11.8999 538.9 11.8999H529.2C521.2 11.8999 514.7 18.3999 514.7 26.3999V29.5999C512.9 29.5999 511.5 30.9999 511.5 32.7999V37.5999C511.5 39.3999 512.9 40.7999 514.7 40.7999V45.5999C514.7 48.2999 516.9 50.3999 519.5 50.3999H548.5C551.2 50.3999 553.3 48.1999 553.3 45.5999V40.8999C555.1 40.8999 556.5 39.4999 556.5 37.6999V32.8999C556.6 30.9999 555.2 29.5999 553.4 29.5999ZM538.9 19.8999C538.9 18.9999 539.6 18.2999 540.5 18.2999C541.4 18.2999 542.1 18.9999 542.1 19.8999C542.1 20.7999 541.4 21.4999 540.5 21.4999C539.6 21.4999 538.9 20.7999 538.9 19.8999ZM532.4 23.0999C532.4 22.1999 533.1 21.4999 534 21.4999C534.9 21.4999 535.6 22.1999 535.6 23.0999C535.6 23.9999 534.9 24.6999 534 24.6999C533.2 24.6999 532.4 23.9999 532.4 23.0999ZM526 19.8999C526 18.9999 526.7 18.2999 527.6 18.2999C528.5 18.2999 529.2 18.9999 529.2 19.8999C529.2 20.7999 528.5 21.4999 527.6 21.4999C526.7 21.4999 526 20.7999 526 19.8999ZM517.9 26.3999C517.9 20.1999 523 15.0999 529.2 15.0999H538.9C545.1 15.0999 550.2 20.1999 550.2 26.3999V29.5999H518V26.3999H517.9ZM550.2 45.6999C550.2 46.5999 549.5 47.2999 548.6 47.2999H519.6C518.7 47.2999 518 46.5999 518 45.6999V40.8999H550.2V45.6999V45.6999ZM551.8 37.5999H514.7V32.7999H519L523.4 35.7999C523.8 36.0999 524.4 36.1999 524.9 35.9999L532.7 32.8999H553.3V37.6999H551.8V37.5999Z" fill="white"/>
</g>
<g id="icon_category_14">
<path id="Vector_31" d="M187.2 436.6C187.2 466.177 163.177 490.2 133.6 490.2C104.023 490.2 80 466.177 80 436.6C80 407.023 104.023 383 133.6 383C163.177 383 187.2 407.023 187.2 436.6Z" fill="#FF9999"/>
<path id="Vector_32" fill-rule="evenodd" clip-rule="evenodd" d="M145.125 425.353V419.104C145.125 415.91 142.487 413.272 139.293 413.272H136.377V407.44H145.125C146.792 407.44 148.041 408.689 148.041 410.356H153.874C153.874 405.496 149.986 401.607 145.125 401.607H116.104V407.44H130.684V413.272H127.768C124.574 413.272 121.936 415.91 121.936 419.104V425.353C116.937 426.602 113.188 431.185 113.188 436.6V465.622C113.188 468.816 115.826 471.454 119.02 471.454H148.041C151.235 471.454 153.874 468.816 153.874 465.622V436.6C153.874 431.185 150.124 426.602 145.125 425.353ZM127.768 419.104H139.432V424.936H127.768V419.104ZM119.02 445.348H136.516V454.097H119.02V445.348ZM148.041 465.622H119.02V459.79H142.209V439.516H119.02V436.6C119.02 433.406 121.658 430.768 124.852 430.768H142.348C145.542 430.768 148.18 433.406 148.18 436.6V465.622H148.041Z" fill="white"/>
</g>
<g id="icon_category_15">
<path id="Vector_33" d="M359.2 76.6C359.2 101.22 339.22 121.2 314.6 121.2C289.98 121.2 270 101.22 270 76.6C270 51.9798 289.98 32 314.6 32C339.22 32 359.2 51.9798 359.2 76.6Z" fill="#00CCFF"/>
<path id="Vector_34" fill-rule="evenodd" clip-rule="evenodd" d="M344.247 89.7478C343.861 88.9744 343.216 88.5877 342.443 88.5877H329.939C330.326 83.045 330.584 68.608 321.818 59.8427C311.12 49.1438 291.655 51.8507 290.753 51.9796C289.851 52.1085 289.206 52.753 289.077 53.6554C288.949 54.4288 286.242 73.8929 296.94 84.5918C305.577 93.2282 320.143 93.0993 325.686 92.7126V105.216C325.686 105.732 325.943 106.247 326.201 106.505C326.33 106.634 326.588 106.763 326.846 106.892C327.619 107.278 328.392 107.021 329.037 106.505L343.603 91.9392C344.376 91.2947 344.505 90.5212 344.247 89.7478ZM303.901 63.0652C302.87 64.0964 301.323 64.0964 300.292 63.0652C299.261 62.034 299.261 60.4871 300.292 59.4559C301.323 58.4247 302.87 58.4247 303.901 59.4559C304.932 60.4871 304.932 62.034 303.901 63.0652ZM316.791 77.6311H309.573C308.542 77.6311 307.639 78.5334 307.639 79.5646C307.639 80.0802 307.897 80.5958 308.155 80.8536C308.542 81.2403 309.057 81.3692 309.444 81.3692H316.791C317.823 81.3692 318.725 80.4669 318.725 79.4357C318.725 78.5334 317.823 77.6311 316.791 77.6311ZM318.725 72.2172C318.725 71.186 317.823 70.2837 316.791 70.2837H309.444C308.413 70.2837 307.51 71.186 307.51 72.2172C307.51 72.7328 307.768 73.2484 308.026 73.5063C308.413 73.893 308.928 74.0219 309.315 74.0219H316.662C317.823 74.1508 318.725 73.2484 318.725 72.2172ZM292.944 55.7178C296.038 55.46 303.514 55.2022 310.346 57.5224C309.186 61.1317 307.253 64.4831 304.417 67.19C301.71 69.897 298.358 71.8305 294.749 72.9906C292.429 66.1588 292.687 58.8114 292.944 55.7178ZM299.776 81.8849C298.229 80.338 297.069 78.5334 296.167 76.7288C300.292 75.4398 304.03 73.1195 307.124 70.0259C310.217 66.9322 312.409 63.1941 313.827 59.0692C315.76 59.9716 317.565 61.1317 318.983 62.6785C326.717 70.4126 326.201 84.334 325.943 88.8455C321.432 89.2323 307.639 89.619 299.776 81.8849ZM329.681 100.576V92.5837H337.673L329.681 100.576Z" fill="white"/>
</g>
</g>
<defs>
<filter id="filter0_f_605_1549" x="427" y="160" width="63.2" height="63.2002" filterUnits="userSpaceOnUse" color-interpolation-filters="sRGB">
<feFlood flood-opacity="0" result="BackgroundImageFix"/>
<feBlend mode="normal" in="SourceGraphic" in2="BackgroundImageFix" result="shape"/>
<feGaussianBlur stdDeviation="1" result="effect1_foregroundBlur_605_1549"/>
</filter>
<filter id="filter1_f_605_1549" x="305" y="203" width="97" height="97" filterUnits="userSpaceOnUse" color-interpolation-filters="sRGB">
<feFlood flood-opacity="0" result="BackgroundImageFix"/>
<feBlend mode="normal" in="SourceGraphic" in2="BackgroundImageFix" result="shape"/>
<feGaussianBlur stdDeviation="2.5" result="effect1_foregroundBlur_605_1549"/>
</filter>
<filter id="filter2_f_605_1549" x="393.5" y="95" width="48.4" height="48.3999" filterUnits="userSpaceOnUse" color-interpolation-filters="sRGB">
<feFlood flood-opacity="0" result="BackgroundImageFix"/>
<feBlend mode="normal" in="SourceGraphic" in2="BackgroundImageFix" result="shape"/>
<feGaussianBlur stdDeviation="1.5" result="effect1_foregroundBlur_605_1549"/>
</filter>
<filter id="filter3_f_605_1549" x="4" y="454" width="59.6" height="59.6001" filterUnits="userSpaceOnUse" color-interpolation-filters="sRGB">
<feFlood flood-opacity="0" result="BackgroundImageFix"/>
<feBlend mode="normal" in="SourceGraphic" in2="BackgroundImageFix" result="shape"/>
<feGaussianBlur stdDeviation="2.5" result="effect1_foregroundBlur_605_1549"/>
</filter>
<filter id="filter4_f_605_1549" x="723" y="229" width="45.6" height="45.6001" filterUnits="userSpaceOnUse" color-interpolation-filters="sRGB">
<feFlood flood-opacity="0" result="BackgroundImageFix"/>
<feBlend mode="normal" in="SourceGraphic" in2="BackgroundImageFix" result="shape"/>
<feGaussianBlur stdDeviation="2" result="effect1_foregroundBlur_605_1549"/>
</filter>
</defs>
</svg>
