<svg width="24" height="24" viewBox="0 0 24 24" fill="none" xmlns="http://www.w3.org/2000/svg">
<path d="M13.4516 2.95491L13.4516 17.5209L18.5195 12.4165C19.085 11.847 20.0041 11.8448 20.5724 12.4117C21.1407 12.9785 21.1428 13.8998 20.5773 14.4694L13.0289 22.0719L13.0275 22.0732C12.462 22.6413 11.5399 22.6431 10.9725 22.0733L10.9711 22.072L3.42271 14.4695C2.8573 13.9 2.85926 12.9787 3.42764 12.4118C3.99588 11.845 4.91496 11.8471 5.48051 12.4167L10.5484 17.5209L10.5484 2.95491C10.5484 2.15133 11.1983 1.49994 12 1.49994C12.8017 1.49994 13.4516 2.15133 13.4516 2.95491Z" fill="#068880"/>
</svg>
