<svg width="20" height="20" viewBox="0 0 20 20" fill="none" xmlns="http://www.w3.org/2000/svg">
<path d="M11.2097 17.5375L11.2097 5.39923L15.4329 9.65283C15.9042 10.1275 16.6701 10.1293 17.1436 9.65689C17.6172 9.18451 17.619 8.41677 17.1477 7.94215L10.8574 1.60673L10.8563 1.60564C10.385 1.13223 9.61659 1.13072 9.14373 1.60552L9.14258 1.60661L2.85225 7.94203C2.38108 8.41659 2.38272 9.18433 2.85637 9.65677C3.3299 10.1291 4.0958 10.1273 4.56709 9.65271L8.79032 5.39923L8.79032 17.5375C8.79032 18.2072 9.3319 18.75 10 18.75C10.6681 18.75 11.2097 18.2072 11.2097 17.5375Z" fill="#068880"/>
</svg>
