<svg width="140" height="140" viewBox="0 0 140 140" fill="none" xmlns="http://www.w3.org/2000/svg">
<path d="M133.052 39.6348H6.94806L9.28868 35.9571L26.1379 9.4801H113.862L130.711 35.9571L133.052 39.6348Z" fill="#FFD36E"/>
<path d="M117.288 42.2625V52.7707C117.288 57.1238 113.761 60.6539 109.408 60.6539C105.055 60.6539 101.525 57.1238 101.525 52.7707V39.6348H117.288V42.2625Z" fill="#FF7100"/>
<path d="M101.525 39.6348V52.7707C101.525 57.1238 97.9973 60.6539 93.6441 60.6539C89.291 60.6539 85.7637 57.1238 85.7637 52.7707V39.6348H101.525Z" fill="#FFAE00"/>
<path d="M85.7637 39.6348V52.7707C85.7637 57.1238 82.2336 60.6539 77.8805 60.6539C73.5274 60.6539 70 57.1238 70 52.7707V39.6348H85.7637ZM54.2363 39.6348V52.7707C54.2363 57.1238 50.709 60.6539 46.3559 60.6539C42.0027 60.6539 38.4754 57.1238 38.4754 52.7707V39.6348H54.2363Z" fill="#FF7100"/>
<path d="M38.4754 39.6348V52.7707C38.4754 57.1238 34.9453 60.6539 30.5922 60.6539C26.2418 60.6539 22.7117 57.1238 22.7117 52.7707V39.6348H38.4754Z" fill="#FFAE00"/>
<path d="M22.7117 39.6348V52.7707C22.7117 55.7484 21.0629 58.3406 18.6266 59.6805C17.4643 60.3209 16.1584 60.6559 14.8313 60.6539C10.4781 60.6539 6.94806 57.1238 6.94806 52.7707V39.6348H22.7117Z" fill="#FF7100"/>
<path d="M132.322 125.265V130.52H11.4734V125.265H123.711H132.322Z" fill="#526471"/>
<path d="M60.6594 119.282H123.711V125.264H60.6594V119.282Z" fill="#303C44"/>
<path d="M61 117.355V125H29V67H61V117.355Z" fill="#CECECE"/>
<path d="M71 67H113V111H71V67Z" fill="#8CD0FF"/>
<path d="M75.09 111H73L99.91 67H102L75.09 111Z" fill="#B3E0FF"/>
<path d="M83.5391 111H78L104.461 67H110L83.5391 111Z" fill="#B3E0FF"/>
<path d="M117.288 52.7708C117.288 56.6235 120.055 59.8336 123.709 60.5145H123.711V119.282H60.6594V66.7379H29.1348V125.265H18.6266V59.6805C21.0629 58.3407 22.7117 55.7485 22.7117 52.7708C22.7117 57.1239 26.2418 60.654 30.5922 60.654C34.9453 60.654 38.4754 57.1239 38.4754 52.7708C38.4754 57.1239 42.0027 60.654 46.3559 60.654C50.709 60.654 54.2363 57.1239 54.2363 52.7708C54.2363 57.1239 57.7664 60.654 62.1195 60.654C66.4727 60.654 70 57.1239 70 52.7708C70 57.1239 73.5273 60.654 77.8805 60.654C82.2336 60.654 85.7637 57.1239 85.7637 52.7708C85.7637 57.1239 89.291 60.654 93.6441 60.654C97.9973 60.654 101.525 57.1239 101.525 52.7708C101.525 57.1239 105.055 60.654 109.408 60.654C113.761 60.654 117.288 57.1239 117.288 52.7708ZM113.2 111.398V66.7379H71.1676V111.398H113.2Z" fill="#F7F7F7"/>
<path d="M124 53H117V119H124V53Z" fill="#DEDEDE"/>
<path d="M70 39.6348V52.7707C70 57.1238 66.4727 60.6539 62.1195 60.6539C57.7664 60.6539 54.2363 57.1238 54.2363 52.7707V39.6348H70ZM133.052 39.6348V52.7707C133.052 57.1238 129.522 60.6512 125.169 60.6512C124.671 60.6512 124.184 60.6074 123.711 60.5145H123.709C120.055 59.8336 117.288 56.6234 117.288 52.7707V39.6348H133.052Z" fill="#FFAE00"/>
<path d="M32.7824 102.271H57.0117V122.166H32.7824V102.271Z" fill="#A5A6A7"/>
<path opacity="0.2" d="M60.6594 122.273H123.711V125.264H60.6594V122.273ZM11.4734 127.529H132.322V130.52H11.4734V127.529Z" fill="black"/>
</svg>
