<svg width="140" height="140" viewBox="0 0 140 140" fill="none" xmlns="http://www.w3.org/2000/svg">
<path d="M28.4375 80.9375C27.2278 80.9375 26.25 79.8569 26.25 78.5203V37.4172C26.25 36.0806 27.2278 35 28.4375 35C29.6472 35 30.625 36.0806 30.625 37.4172V78.5181C30.625 79.8569 29.6472 80.9375 28.4375 80.9375ZM111.562 80.9375C110.353 80.9375 109.375 79.8569 109.375 78.5203V37.4172C109.375 36.0806 110.353 35 111.562 35C112.772 35 113.75 36.0806 113.75 37.4172V78.5181C113.75 79.8569 112.772 80.9375 111.562 80.9375Z" fill="#CCCCCC"/>
<path d="M113.75 85.3125H26.25C25.6698 85.3125 25.1134 85.543 24.7032 85.9532C24.293 86.3634 24.0625 86.9198 24.0625 87.5V122.5C24.0625 123.08 24.293 123.637 24.7032 124.047C25.1134 124.457 25.6698 124.688 26.25 124.688H37.1875C37.7677 124.688 38.3241 124.457 38.7343 124.047C39.1445 123.637 39.375 123.08 39.375 122.5C39.375 117.674 43.2994 113.75 48.125 113.75C52.9506 113.75 56.875 117.674 56.875 122.5C56.875 123.08 57.1055 123.637 57.5157 124.047C57.9259 124.457 58.4823 124.688 59.0625 124.688H80.9375C81.5177 124.688 82.0741 124.457 82.4843 124.047C82.8945 123.637 83.125 123.08 83.125 122.5C83.125 117.674 87.0494 113.75 91.875 113.75C96.7006 113.75 100.625 117.674 100.625 122.5C100.625 123.08 100.855 123.637 101.266 124.047C101.676 124.457 102.232 124.688 102.812 124.688H113.75C114.33 124.688 114.887 124.457 115.297 124.047C115.707 123.637 115.938 123.08 115.938 122.5V87.5C115.938 86.9198 115.707 86.3634 115.297 85.9532C114.887 85.543 114.33 85.3125 113.75 85.3125Z" fill="#00A9B1"/>
<path d="M70.0656 41.5625H69.9344C68.2113 41.5625 66.5588 40.878 65.3404 39.6596C64.122 38.4412 63.4375 36.7887 63.4375 35.0656V6.5625H76.5625V35.0656C76.5625 36.7887 75.878 38.4412 74.6596 39.6596C73.4412 40.878 71.7887 41.5625 70.0656 41.5625Z" fill="#FE4938"/>
<path d="M83.1906 41.5625H83.0594C81.3363 41.5625 79.6838 40.878 78.4654 39.6596C77.247 38.4412 76.5625 36.7887 76.5625 35.0656V6.5625H89.6875V35.0656C89.6875 36.7887 89.003 38.4412 87.7846 39.6596C86.5662 40.878 84.9137 41.5625 83.1906 41.5625Z" fill="#E6E6E6"/>
<path d="M96.3156 41.5625H96.1844C94.4613 41.5625 92.8088 40.878 91.5904 39.6596C90.372 38.4412 89.6875 36.7887 89.6875 35.0656V6.5625H102.812V35.0656C102.812 36.7887 102.128 38.4412 100.91 39.6596C99.6912 40.878 98.0387 41.5625 96.3156 41.5625Z" fill="#FE4938"/>
<path d="M109.441 41.5625H109.309C107.586 41.5625 105.934 40.878 104.715 39.6596C103.497 38.4412 102.812 36.7887 102.812 35.0656V6.5625H113.75C114.33 6.5625 114.887 6.79297 115.297 7.2032C115.707 7.61344 115.938 8.16984 115.938 8.75V35.0656C115.938 36.7887 115.253 38.4412 114.035 39.6596C112.816 40.878 111.164 41.5625 109.441 41.5625ZM30.6906 41.5625H30.5594C28.8363 41.5625 27.1838 40.878 25.9654 39.6596C24.747 38.4412 24.0625 36.7887 24.0625 35.0656V8.75C24.0625 8.16984 24.293 7.61344 24.7032 7.2032C25.1134 6.79297 25.6698 6.5625 26.25 6.5625H37.1875V35.0656C37.1875 36.7887 36.503 38.4412 35.2846 39.6596C34.0662 40.878 32.4137 41.5625 30.6906 41.5625Z" fill="#E6E6E6"/>
<path d="M43.8156 41.5625H43.6844C42.8312 41.5625 41.9864 41.3945 41.1981 41.068C40.4099 40.7415 39.6937 40.2629 39.0904 39.6596C38.4871 39.0563 38.0085 38.3401 37.682 37.5519C37.3555 36.7636 37.1875 35.9188 37.1875 35.0656V6.5625H50.3125V35.0656C50.3125 36.7887 49.628 38.4412 48.4096 39.6596C47.1912 40.878 45.5387 41.5625 43.8156 41.5625Z" fill="#FE4938"/>
<path d="M56.9406 41.5625H56.8094C55.0863 41.5625 53.4338 40.878 52.2154 39.6596C50.997 38.4412 50.3125 36.7887 50.3125 35.0656V6.5625H63.4375V35.0656C63.4375 36.7887 62.753 38.4412 61.5346 39.6596C60.3162 40.878 58.6637 41.5625 56.9406 41.5625Z" fill="#E6E6E6"/>
<path d="M115.938 76.5625H24.0625C23.4823 76.5625 22.9259 76.793 22.5157 77.2032C22.1055 77.6134 21.875 78.1698 21.875 78.75V87.5C21.875 88.0802 22.1055 88.6366 22.5157 89.0468C22.9259 89.457 23.4823 89.6875 24.0625 89.6875H115.938C116.518 89.6875 117.074 89.457 117.484 89.0468C117.895 88.6366 118.125 88.0802 118.125 87.5V78.75C118.125 78.1698 117.895 77.6134 117.484 77.2032C117.074 76.793 116.518 76.5625 115.938 76.5625ZM48.125 109.375C40.8866 109.375 35 115.262 35 122.5C35 129.738 40.8866 135.625 48.125 135.625C55.3634 135.625 61.25 129.738 61.25 122.5C61.25 115.262 55.3634 109.375 48.125 109.375Z" fill="#4A4F60"/>
<path d="M48.125 129.062C51.7494 129.062 54.6875 126.124 54.6875 122.5C54.6875 118.876 51.7494 115.938 48.125 115.938C44.5006 115.938 41.5625 118.876 41.5625 122.5C41.5625 126.124 44.5006 129.062 48.125 129.062Z" fill="white"/>
<path d="M91.875 109.375C84.6366 109.375 78.75 115.262 78.75 122.5C78.75 129.738 84.6366 135.625 91.875 135.625C99.1134 135.625 105 129.738 105 122.5C105 115.262 99.1134 109.375 91.875 109.375Z" fill="#454C54"/>
<path d="M94.0844 102.812H94.0406C93.4663 102.812 92.9154 102.584 92.5093 102.178C92.1032 101.772 91.875 101.221 91.875 100.647V100.603C91.875 100.029 92.1032 99.4779 92.5093 99.0718C92.9154 98.6657 93.4663 98.4375 94.0406 98.4375H94.0844C94.6587 98.4375 95.2096 98.6657 95.6157 99.0718C96.0218 99.4779 96.25 100.029 96.25 100.603V100.647C96.25 101.221 96.0218 101.772 95.6157 102.178C95.2096 102.584 94.6587 102.812 94.0844 102.812ZM45.9594 102.812H45.9156C45.3413 102.812 44.7904 102.584 44.3843 102.178C43.9782 101.772 43.75 101.221 43.75 100.647V100.603C43.75 100.029 43.9782 99.4779 44.3843 99.0718C44.7904 98.6657 45.3413 98.4375 45.9156 98.4375H45.9594C46.5337 98.4375 47.0846 98.6657 47.4907 99.0718C47.8968 99.4779 48.125 100.029 48.125 100.603V100.647C48.125 101.221 47.8968 101.772 47.4907 102.178C47.0846 102.584 46.5337 102.812 45.9594 102.812ZM78.7938 94.0625H61.2062C57.6122 94.0625 54.6875 96.9872 54.6875 100.669C54.6892 102.397 55.3766 104.054 56.5987 105.276C57.8208 106.498 59.4779 107.186 61.2062 107.188H78.7916C82.3878 107.188 85.3103 104.263 85.3103 100.581C85.3092 98.8531 84.6223 97.196 83.4005 95.9739C82.1787 94.7517 80.5219 94.0642 78.7938 94.0625Z" fill="white"/>
<path d="M91.875 129.062C95.4994 129.062 98.4375 126.124 98.4375 122.5C98.4375 118.876 95.4994 115.938 91.875 115.938C88.2506 115.938 85.3125 118.876 85.3125 122.5C85.3125 126.124 88.2506 129.062 91.875 129.062Z" fill="white"/>
</svg>
