<svg width="140" height="140" viewBox="0 0 140 140" fill="none" xmlns="http://www.w3.org/2000/svg">
<path d="M108.367 48.1251C106.39 39.427 101.517 31.6585 94.546 26.0936C87.5749 20.5288 78.9198 17.4978 70 17.4978C61.0801 17.4978 52.425 20.5288 45.454 26.0936C38.4829 31.6585 33.6097 39.427 31.6334 48.1251H108.367Z" fill="#D69C7A"/>
<path d="M100.625 133.438H39.375L30.625 59.0625H109.375L100.625 133.438Z" fill="#7E543B"/>
<path d="M113.75 48.125H26.25V59.0625H113.75V48.125Z" fill="#E0E0E2"/>
<path d="M106.794 80.9376L103.972 105.022L103.797 105H87.4781C85.4451 107.716 82.8069 109.922 79.773 111.44C76.7391 112.959 73.3929 113.75 70 113.75C66.6071 113.75 63.2609 112.959 60.227 111.44C57.193 109.922 54.5549 107.716 52.5219 105H36.2031L36.0281 105.022L33.2062 80.9376H51.0781C52.993 77.6126 55.7502 74.851 59.0721 72.9308C62.3939 71.0105 66.1631 69.9995 70 69.9995C73.8369 69.9995 77.6061 71.0105 80.9279 72.9308C84.2497 74.851 87.007 77.6126 88.9219 80.9376H106.794Z" fill="#F5E0AD"/>
<path d="M79.625 86.6905C81.7688 90.8467 79.4937 96.4905 74.375 99.4436C69.1469 102.462 62.9344 101.522 60.5281 97.3436C60.4844 97.2561 60.4187 97.1686 60.375 97.0592C62.4139 97.0658 64.4167 96.5217 66.1719 95.4842C70.6125 92.9248 69.3875 90.8248 73.8063 88.2655C75.5702 87.2297 77.5795 86.6858 79.625 86.6905Z" fill="#7E543B"/>
<path d="M79.4719 86.4065C79.5156 86.494 79.5812 86.5815 79.625 86.6909C77.5795 86.6863 75.5702 87.2301 73.8063 88.2659C69.3875 90.8253 70.6125 92.9253 66.1719 95.4846C64.4167 96.5221 62.4139 97.0662 60.375 97.0596C58.2312 92.9034 60.5062 87.2596 65.625 84.3065C70.8531 81.2878 77.0656 82.2284 79.4719 86.4065Z" fill="#CC8355"/>
<path d="M107.188 6.5625V15.3125H94.0625V48.125H85.3125V10.9375C85.316 9.77824 85.778 8.66745 86.5977 7.84773C87.4175 7.02801 88.5282 6.56596 89.6875 6.5625H107.188Z" fill="#E9E9EA"/>
</svg>
