<svg width="140" height="140" viewBox="0 0 140 140" fill="none" xmlns="http://www.w3.org/2000/svg">
<path d="M129.746 57.0117H10.2539V129.746H129.746V57.0117Z" fill="#F7F7F7"/>
<path d="M130 57H121V130H130V57Z" fill="#DEDEDE"/>
<path d="M136.582 129.746H3.41797C2.66289 129.746 2.05078 130.358 2.05078 131.113V136.582C2.05078 137.337 2.66289 137.949 3.41797 137.949H136.582C137.337 137.949 137.949 137.337 137.949 136.582V131.113C137.949 130.358 137.337 129.746 136.582 129.746Z" fill="#4A4F60"/>
<path d="M136.582 129.746H124.277C124.64 129.746 124.988 129.89 125.244 130.147C125.5 130.403 125.645 130.751 125.645 131.113V136.582C125.645 136.945 125.5 137.292 125.244 137.549C124.988 137.805 124.64 137.949 124.277 137.949H136.582C136.945 137.949 137.292 137.805 137.549 137.549C137.805 137.292 137.949 136.945 137.949 136.582V131.113C137.949 130.751 137.805 130.403 137.549 130.147C137.292 129.89 136.945 129.746 136.582 129.746Z" fill="#3B3F4D"/>
<path d="M37.1875 50.8594C36.9182 50.8594 36.6515 50.8063 36.4027 50.7033C36.1539 50.6002 35.9278 50.4492 35.7374 50.2587C35.5469 50.0683 35.3959 49.8422 35.2928 49.5934C35.1897 49.3446 35.1367 49.0779 35.1367 48.8086V36.5039C35.1367 35.96 35.3528 35.4384 35.7374 35.0538C36.122 34.6692 36.6436 34.4531 37.1875 34.4531C37.7314 34.4531 38.253 34.6692 38.6376 35.0538C39.0222 35.4384 39.2383 35.96 39.2383 36.5039V48.8086C39.2383 49.0779 39.1853 49.3446 39.0822 49.5934C38.9791 49.8422 38.8281 50.0683 38.6376 50.2587C38.4472 50.4492 38.2211 50.6002 37.9723 50.7033C37.7235 50.8063 37.4568 50.8594 37.1875 50.8594ZM102.812 50.8594C102.543 50.8594 102.277 50.8063 102.028 50.7033C101.779 50.6002 101.553 50.4492 101.362 50.2587C101.172 50.0683 101.021 49.8422 100.918 49.5934C100.815 49.3446 100.762 49.0779 100.762 48.8086V36.5039C100.762 35.96 100.978 35.4384 101.362 35.0538C101.747 34.6692 102.269 34.4531 102.812 34.4531C103.356 34.4531 103.878 34.6692 104.263 35.0538C104.647 35.4384 104.863 35.96 104.863 36.5039V48.8086C104.863 49.0779 104.81 49.3446 104.707 49.5934C104.604 49.8422 104.453 50.0683 104.263 50.2587C104.072 50.4492 103.846 50.6002 103.597 50.7033C103.348 50.8063 103.082 50.8594 102.812 50.8594Z" fill="#CECECE"/>
<path d="M136.582 48.8086H3.41797C2.66289 48.8086 2.05078 49.4207 2.05078 50.1758V55.6445C2.05078 56.3996 2.66289 57.0117 3.41797 57.0117H136.582C137.337 57.0117 137.949 56.3996 137.949 55.6445V50.1758C137.949 49.4207 137.337 48.8086 136.582 48.8086Z" fill="#4A4F60"/>
<path d="M136.582 48.8086H124.277C124.64 48.8086 124.988 48.9526 125.244 49.209C125.5 49.4654 125.645 49.8132 125.645 50.1758V55.6445C125.645 56.0071 125.5 56.3549 125.244 56.6113C124.988 56.8677 124.64 57.0117 124.277 57.0117H136.582C136.945 57.0117 137.292 56.8677 137.549 56.6113C137.805 56.3549 137.949 56.0071 137.949 55.6445V50.1758C137.949 49.8132 137.805 49.4654 137.549 49.209C137.292 48.9526 136.945 48.8086 136.582 48.8086Z" fill="#3B3F4D"/>
<path d="M108.145 2.05078H31.8555C30.3453 2.05078 29.1211 3.275 29.1211 4.78516V33.7695C29.1211 35.2797 30.3453 36.5039 31.8555 36.5039H108.145C109.655 36.5039 110.879 35.2797 110.879 33.7695V4.78516C110.879 3.275 109.655 2.05078 108.145 2.05078Z" fill="#65B32E"/>
<path d="M108.145 2.05078H95.8398C96.565 2.05078 97.2605 2.33887 97.7733 2.85166C98.2861 3.36446 98.5742 4.05995 98.5742 4.78516V33.7695C98.5742 34.4947 98.2861 35.1902 97.7733 35.703C97.2605 36.2158 96.565 36.5039 95.8398 36.5039H108.145C108.87 36.5039 109.565 36.2158 110.078 35.703C110.591 35.1902 110.879 34.4947 110.879 33.7695V4.78516C110.879 4.05995 110.591 3.36446 110.078 2.85166C109.565 2.33887 108.87 2.05078 108.145 2.05078Z" fill="#659401"/>
<path d="M29.1211 71.7773H61.6602C62.3854 71.7773 63.0809 72.0654 63.5937 72.5782C64.1064 73.091 64.3945 73.7865 64.3945 74.5117V129.746H26.3867V74.5117C26.3867 73.7865 26.6748 73.091 27.1876 72.5782C27.7004 72.0654 28.3959 71.7773 29.1211 71.7773Z" fill="#DEDEDE"/>
<path d="M61.6602 71.7773H53.457C54.1822 71.7773 54.8777 72.0654 55.3905 72.5782C55.9033 73.091 56.1914 73.7865 56.1914 74.5117V129.746H64.3945V74.5117C64.3945 73.7865 64.1064 73.091 63.5937 72.5782C63.0809 72.0654 62.3854 71.7773 61.6602 71.7773Z" fill="#CECECE"/>
<path d="M51.955 87.8606C51.5883 87.8609 51.2282 87.7629 50.9123 87.5768C50.5964 87.3907 50.3361 87.1232 50.1587 86.8023L45.3928 78.1895L40.9948 86.2766C40.7345 86.7536 40.2956 87.1079 39.7743 87.2615C39.2531 87.4152 38.6921 87.3556 38.2147 87.096C37.7373 86.8364 37.3825 86.398 37.2281 85.8769C37.0738 85.3559 37.1325 84.7949 37.3915 84.3171L43.5754 72.9458C43.751 72.6229 44.0102 72.3531 44.3258 72.1647C44.6415 71.9763 45.0019 71.8761 45.3695 71.8748H45.377C45.7433 71.8748 46.1029 71.9729 46.4185 72.1589C46.7341 72.3449 46.9941 72.6121 47.1714 72.9326L53.7476 84.8164C53.9201 85.1286 54.0083 85.4803 54.0035 85.8369C53.9987 86.1935 53.9009 86.5427 53.72 86.85C53.539 87.1574 53.281 87.4122 52.9715 87.5894C52.662 87.7666 52.3116 87.8601 51.955 87.8606V87.8606Z" fill="white"/>
<path d="M115.254 71.7773H78.8867C77.6786 71.7773 76.6992 72.7567 76.6992 73.9648V96.0723C76.6992 97.2804 77.6786 98.2598 78.8867 98.2598H115.254C116.462 98.2598 117.441 97.2804 117.441 96.0723V73.9648C117.441 72.7567 116.462 71.7773 115.254 71.7773Z" fill="#8CD0FF"/>
<path d="M94.2252 98H93L108.775 72H110L94.2252 98Z" fill="#B3E0FF"/>
<path d="M99.1158 98H96L110.884 72H114L99.1158 98Z" fill="#B3E0FF"/>
<path d="M87.1158 98H84L98.8842 72H102L87.1158 98Z" fill="#B3E0FF"/>
<path d="M70 15.3316C69.7307 15.3316 69.464 15.2786 69.2152 15.1755C68.9664 15.0724 68.7403 14.9214 68.5499 14.731C68.3594 14.5405 68.2084 14.3144 68.1053 14.0656C68.0022 13.8168 67.9492 13.5501 67.9492 13.2808V10.2539C67.9492 9.71001 68.1653 9.18838 68.5499 8.80378C68.9345 8.41919 69.4561 8.20313 70 8.20312C70.5439 8.20312 71.0655 8.41919 71.4501 8.80378C71.8347 9.18838 72.0508 9.71001 72.0508 10.2539V13.2808C72.0508 13.5501 71.9978 13.8168 71.8947 14.0656C71.7916 14.3144 71.6406 14.5405 71.4501 14.731C71.2597 14.9214 71.0336 15.0724 70.7848 15.1755C70.536 15.2786 70.2693 15.3316 70 15.3316Z" fill="#DADADA"/>
<path d="M67.8299 13.2808H72.1701C75.2159 13.2808 78.137 14.4907 80.2908 16.6445C82.4445 18.7982 83.6545 21.7193 83.6545 24.7651V28.3007H56.3455V24.7651C56.3455 21.7193 57.5555 18.7982 59.7092 16.6445C61.863 14.4907 64.7841 13.2808 67.8299 13.2808Z" fill="white"/>
<path d="M87.7561 30.3516H52.2439C51.7 30.3516 51.1784 30.1355 50.7938 29.7509C50.4092 29.3663 50.1931 28.8447 50.1931 28.3008C50.1931 27.7569 50.4092 27.2353 50.7938 26.8507C51.1784 26.4661 51.7 26.25 52.2439 26.25H87.7561C88.3 26.25 88.8216 26.4661 89.2062 26.8507C89.5908 27.2353 89.8069 27.7569 89.8069 28.3008C89.8069 28.8447 89.5908 29.3663 89.2062 29.7509C88.8216 30.1355 88.3 30.3516 87.7561 30.3516Z" fill="#DADADA"/>
<path d="M52.7734 84.082H38.0078C37.2527 84.082 36.6406 84.6941 36.6406 85.4492V91.4648C36.6406 92.2199 37.2527 92.832 38.0078 92.832H52.7734C53.5285 92.832 54.1406 92.2199 54.1406 91.4648V85.4492C54.1406 84.6941 53.5285 84.082 52.7734 84.082Z" fill="#FF6666"/>
<path d="M52.7734 84.082H48.6719C49.0345 84.082 49.3822 84.2261 49.6386 84.4825C49.895 84.7389 50.0391 85.0866 50.0391 85.4492V91.4648C50.0391 91.8274 49.895 92.1752 49.6386 92.4316C49.3822 92.688 49.0345 92.832 48.6719 92.832H52.7734C53.136 92.832 53.4838 92.688 53.7402 92.4316C53.9966 92.1752 54.1406 91.8274 54.1406 91.4648V85.4492C54.1406 85.0866 53.9966 84.7389 53.7402 84.4825C53.4838 84.2261 53.136 84.082 52.7734 84.082Z" fill="#FF4E4E"/>
</svg>
