<svg xmlns="http://www.w3.org/2000/svg" width="24" height="24" viewBox="0 0 24 24"><g><g><path fill="#4393ed" d="M23.452 1.78v20.242c0 .696-.564 1.255-1.255 1.255h-5.801v-8.809h2.956l.442-3.433H16.39V8.841c0-.997.274-1.672 1.702-1.672h1.818V4.095a24.718 24.718 0 0 0-2.651-.136c-2.621 0-4.42 1.6-4.42 4.541v2.535H9.873v3.433h2.967v8.814H1.949a1.258 1.258 0 0 1-1.255-1.255V1.78c0-.69.564-1.255 1.255-1.255h20.243c.696 0 1.26.565 1.26 1.255z"/></g><g><path fill="#fff" d="M16.395 23.277V14.48h2.957l.442-3.437H16.39V8.846c0-.998.275-1.673 1.702-1.673h1.82V4.095a24.743 24.743 0 0 0-2.652-.136c-2.622 0-4.42 1.601-4.42 4.546v2.538H9.872v3.438h2.967v8.796z"/></g></g></svg>