<svg xmlns="http://www.w3.org/2000/svg" width="24" height="24" viewBox="0 0 24 24"><g><g><path fill="#3377b0" d="M21.68.524H2.17c-.894 0-1.62.737-1.62 1.642v19.476c0 .904.726 1.64 1.62 1.64H21.68c.894 0 1.625-.737 1.625-1.64V2.166c0-.905-.731-1.642-1.625-1.642z"/></g><g><path fill="#fff" d="M7.427 20.031H4.054V9.171h3.378v10.86z"/></g><g><path fill="#fff" d="M5.74 7.688a1.956 1.956 0 1 1 0-3.91 1.956 1.956 0 0 1 0 3.91z"/></g><g><path fill="#fff" d="M20.07 20.031h-3.373v-5.283c0-1.26-.025-2.88-1.753-2.88-1.757 0-2.026 1.371-2.026 2.79v5.373H9.545V9.171h3.235v1.483h.046c.452-.853 1.555-1.753 3.195-1.753 3.414 0 4.05 2.251 4.05 5.177z"/></g></g></svg>