<svg xmlns="http://www.w3.org/2000/svg" width="99" height="18" viewBox="0 0 99 18"><g><g><path fill="#ff412d" d="M9.088.19l2.162 6.652h6.994l-5.658 4.112 2.161 6.652-5.659-4.111-5.659 4.11 2.162-6.651-5.659-4.112h6.995z"/></g><g><path fill="#ff412d" d="M29.198.19l2.162 6.652h6.994l-5.659 4.112 2.162 6.652-5.659-4.111-5.659 4.11 2.162-6.651-5.659-4.112h6.995z"/></g><g><path fill="#ff412d" d="M49.308.19l2.162 6.652h6.994l-5.659 4.112 2.162 6.652-5.659-4.111-5.659 4.11 2.162-6.651-5.659-4.112h6.994z"/></g><g><path fill="#ff412d" d="M69.418.19l2.161 6.652h6.995l-5.659 4.112 2.162 6.652-5.659-4.111-5.659 4.11 2.161-6.651-5.658-4.112h6.994z"/></g><g><path fill="#ff412d" d="M89.528.19l2.16 6.652h6.996l-5.66 4.112 2.163 6.652-5.66-4.111-5.658 4.11 2.16-6.651-5.657-4.112h6.994z"/></g></g></svg>