<svg xmlns="http://www.w3.org/2000/svg" width="24" height="24" viewBox="0 0 24 24"><g><g><path fill="#44c3eb" d="M20.94.524H3.06A2.44 2.44 0 0 0 .62 2.963v17.88a2.439 2.439 0 0 0 2.438 2.44H20.94a2.438 2.438 0 0 0 2.438-2.44V2.963A2.439 2.439 0 0 0 20.94.523z"/></g><g><path fill="#fff" d="M18.456 8.592c.011.142.011.289.011.432 0 4.404-3.353 9.478-9.479 9.478a9.435 9.435 0 0 1-5.116-1.493c.27.03.528.04.803.04a6.676 6.676 0 0 0 4.135-1.422 3.335 3.335 0 0 1-3.114-2.311c.513.076.975.076 1.504-.061a3.331 3.331 0 0 1-2.667-3.271v-.041c.442.249.96.4 1.503.42a3.329 3.329 0 0 1-1.483-2.772c0-.62.162-1.188.452-1.682a9.459 9.459 0 0 0 6.868 3.486C11.4 7.134 13.093 5.3 15.124 5.3c.96 0 1.824.4 2.434 1.052a6.552 6.552 0 0 0 2.113-.803 3.33 3.33 0 0 1-1.463 1.834 6.607 6.607 0 0 0 1.92-.52 7.022 7.022 0 0 1-1.672 1.729z"/></g></g></svg>