<svg width="734" height="567" viewBox="0 0 734 567" fill="none" xmlns="http://www.w3.org/2000/svg"><path fill-rule="evenodd" clip-rule="evenodd" d="M346.4 565.581c50.989 8.63 94.771-31.748 144.482-46.441 79.493-23.496 192.932 8.649 233.582-65.304 38.736-70.471-52.102-146.2-74.822-223.525-21.765-74.077 10.184-180.854-55.269-219.233-68.198-39.99-145.88 44.516-223.797 55.6-56.94 8.099-112.955-16.295-168.178.156C129.371 88.589 31.965 101.685 6.404 175.167c-25.663 73.778 38.255 149.737 84.653 211.757 34.129 45.621 93.429 55.793 139.743 88.197 41.045 28.718 66.544 82.157 115.6 90.46Z" fill="#97F9E3"/></svg>