<svg width="623" height="440" viewBox="0 0 623 440" fill="none" xmlns="http://www.w3.org/2000/svg"><path fill-rule="evenodd" clip-rule="evenodd" d="M661.479 438.977c-89.379 10.415-162.099-61.453-247.291-90.373-136.233-46.247-336.173-1.183-400.62-129.573C-47.842 96.687 116.474-23.93 162.49-152.829c44.084-123.485-2.469-306.668 114.565-366.205 121.942-62.035 249.886 87.233 384.424 112.36 98.317 18.362 197.764-18.299 292.391 14.046 125.14 42.773 293.39 72.901 331.64 199.257 38.4 126.864-79.13 250.077-165.02 351.154-63.18 74.351-167.145 86.693-250.399 137.695-73.782 45.2-122.62 133.478-208.612 143.499Z" fill="#97F9E3"/></svg>