<svg width="243" height="416" viewBox="0 0 243 416" fill="none" xmlns="http://www.w3.org/2000/svg">
<path fill-rule="evenodd" clip-rule="evenodd" d="M-27.0935 415.563C-65.3199 420.011 -96.4214 389.316 -132.857 376.964C-191.122 357.212 -276.634 376.459 -304.197 321.623C-330.462 269.37 -260.185 217.853 -240.505 162.8C-221.651 110.059 -241.561 31.8207 -191.507 6.392C-139.354 -20.1033 -84.634 43.6495 -27.0935 54.3814C14.9554 62.224 57.4875 46.5659 97.9581 60.3805C151.478 78.6494 223.438 91.517 239.797 145.484C256.222 199.668 205.955 252.293 169.219 295.464C142.196 327.219 97.7336 332.491 62.1269 354.274C30.5712 373.579 9.68423 411.283 -27.0935 415.563Z" fill="#97F9E3"/>
</svg>
