<svg width="30" height="31" viewBox="0 0 30 31" fill="none" xmlns="http://www.w3.org/2000/svg"><g clip-path="url(#a)"><path d="m16.97 4.138 2.833 5.732a1.152 1.152 0 0 0 .854.62l6.33.909a1.129 1.129 0 0 1 .625 1.934l-4.567 4.437a1.145 1.145 0 0 0-.309 1.007l1.084 6.298a1.129 1.129 0 0 1-1.642 1.196l-5.657-2.964a1.13 1.13 0 0 0-1.057-.003L9.79 26.308a1.137 1.137 0 0 1-1.649-1.19l1.07-6.281a1.116 1.116 0 0 0-.33-.998l-4.57-4.485a1.13 1.13 0 0 1 .593-1.94l6.357-.92a1.151 1.151 0 0 0 .854-.621l2.811-5.704a1.137 1.137 0 0 1 2.045-.03Z" fill="#ED5E1D"/><path d="m16.72 3.274 2.832 5.732a1.137 1.137 0 0 0 .854.619l6.33.91a1.137 1.137 0 0 1 .625 1.934l-4.56 4.438a1.124 1.124 0 0 0-.309 1.007l1.09 6.3a1.13 1.13 0 0 1-1.642 1.197l-5.656-2.965a1.13 1.13 0 0 0-1.05 0l-5.66 2.979a1.13 1.13 0 0 1-1.681-1.157l1.073-6.316a1.123 1.123 0 0 0-.347-1.01l-4.56-4.452a1.13 1.13 0 0 1 .628-1.93l6.324-.93a1.102 1.102 0 0 0 .851-.615l2.818-5.702a1.13 1.13 0 0 1 2.04-.039Z" fill="#ED811D"/><path d="M14.795 7.557c-.233.76-.75 1.28-1.088 1.17-.338-.112-.473-.838-.24-1.599.233-.76.743-1.282 1.09-1.176.346.106.487.813.238 1.605ZM15.164 5.423a.412.412 0 1 1-.784-.255.412.412 0 0 1 .784.255ZM22.988 23.318c.13.455-.006.902-.302.986-.296.085-.667-.204-.784-.677-.118-.474.006-.903.304-.994.298-.091.647.22.782.685Z" fill="#fff"/><path d="M10.324 17.894c5.537-.004 10.092-3.591 10.667-8.185l-.587-.085a1.136 1.136 0 0 1-.853-.618l-2.833-5.732a1.13 1.13 0 0 0-2.03.006l-2.827 5.734a1.101 1.101 0 0 1-.852.615l-6.324.93a1.13 1.13 0 0 0-.627 1.93l4.56 4.452a1.143 1.143 0 0 1 .332.868c.456.052.915.08 1.374.085Z" fill="#FFF0F5" style="mix-blend-mode:overlay" opacity=".4"/></g><defs><clipPath id="a"><path fill="#fff" d="m7.241 0 22.493 6.886-7.242 23.653L0 23.653z"/></clipPath></defs></svg>