<svg width="886" height="991" viewBox="0 0 886 991" fill="none" xmlns="http://www.w3.org/2000/svg"><path fill-rule="evenodd" clip-rule="evenodd" d="M938.758 989.548c-126.845 14.782-230.048-87.195-350.951-128.229-193.339-65.619-477.09-1.679-568.551-183.85-87.154-173.592 146.042-344.736 211.347-527.629 62.563-175.21-3.504-435.128 162.588-519.605 173.058-88.02 354.633 123.774 545.567 159.426 139.532 26.054 280.662-25.964 414.952 19.93 177.6 60.691 416.38 103.439 470.66 282.724 54.5 180.007-112.3 354.833-234.2 498.25-89.66 105.495-237.2 123.008-355.35 195.375-104.71 64.133-174.02 189.39-296.062 203.608Z" fill="#97F9E3"/></svg>