<svg width="453" height="341" viewBox="0 0 453 341" fill="none" xmlns="http://www.w3.org/2000/svg">
<path fill-rule="evenodd" clip-rule="evenodd" d="M231.748 340.642C200.434 344.288 174.957 319.127 145.11 309.002C97.3809 292.811 27.3322 308.588 4.75366 263.638C-16.7617 220.805 40.8065 178.577 56.9282 133.449C72.3728 90.2167 56.063 26.0838 97.0656 5.23959C139.788 -16.4789 184.613 35.78 231.748 44.5771C266.193 51.0057 301.034 38.1706 334.186 49.4946C378.028 64.4698 436.975 75.0175 450.376 119.255C463.831 163.671 422.654 206.808 392.561 242.195C370.425 268.225 334.002 272.547 304.835 290.403C278.985 306.227 261.875 337.134 231.748 340.642Z" fill="#97F9E3"/>
</svg>
