<svg width="67" height="67" viewBox="0 0 67 67" fill="none" xmlns="http://www.w3.org/2000/svg">
<g clip-path="url(#clip0_99_4642)">
<path d="M33.5 62.8125C25.7258 62.8125 18.2701 59.7242 12.7729 54.2271C7.27577 48.7299 4.1875 41.2742 4.1875 33.5C4.1875 25.7258 7.27577 18.2701 12.7729 12.7729C18.2701 7.27577 25.7258 4.1875 33.5 4.1875C41.2742 4.1875 48.7299 7.27577 54.2271 12.7729C59.7242 18.2701 62.8125 25.7258 62.8125 33.5C62.8125 41.2742 59.7242 48.7299 54.2271 54.2271C48.7299 59.7242 41.2742 62.8125 33.5 62.8125ZM33.5 67C42.3848 67 50.9056 63.4705 57.1881 57.1881C63.4705 50.9056 67 42.3848 67 33.5C67 24.6152 63.4705 16.0944 57.1881 9.81192C50.9056 3.52945 42.3848 0 33.5 0C24.6152 0 16.0944 3.52945 9.81192 9.81192C3.52945 16.0944 0 24.6152 0 33.5C0 42.3848 3.52945 50.9056 9.81192 57.1881C16.0944 63.4705 24.6152 67 33.5 67Z" fill="white"/>
<path d="M26.2598 21.1678C26.6023 20.9915 26.9868 20.913 27.3709 20.9411C27.7551 20.9692 28.1241 21.1027 28.4373 21.327L43.0936 31.7957C43.365 31.9894 43.5862 32.2451 43.7389 32.5415C43.8915 32.838 43.9711 33.1666 43.9711 33.5C43.9711 33.8335 43.8915 34.1621 43.7389 34.4585C43.5862 34.755 43.365 35.0107 43.0936 35.2043L28.4373 45.6731C28.1242 45.8972 27.7554 46.0306 27.3714 46.0587C26.9874 46.0867 26.6032 46.0084 26.2608 45.8322C25.9185 45.6561 25.6313 45.3889 25.4309 45.0602C25.2305 44.7314 25.1247 44.3538 25.125 43.9688V23.0313C25.1246 22.6464 25.2303 22.2688 25.4305 21.9401C25.6307 21.6113 25.9177 21.3441 26.2598 21.1678Z" fill="white"/>
</g>
<defs>
<clipPath id="clip0_99_4642">
<rect width="67" height="67" fill="white"/>
</clipPath>
</defs>
</svg>
