<svg width="21" height="31" viewBox="0 0 21 31" fill="none" xmlns="http://www.w3.org/2000/svg">
<path d="M7.91781 30.3352C5.63157 29.9802 3.24593 28.1768 2.30871 26.487C1.03069 24.1723 1.05909 21.7157 1.4567 19.1739C2.50752 12.5281 1.4567 11.6761 0.363281 10.3555C2.22351 11.1507 3.95594 11.8181 5.09196 13.2239C6.48359 8.92127 6.86699 5.64102 12.3341 0.486328C12.1495 1.69335 11.8087 2.90037 11.7945 4.13579C11.7235 7.96986 14.8191 11.4915 15.4723 12.3719C17.2332 14.7292 18.1846 17.2852 18.1278 20.1253V20.5371C19.0366 19.7419 19.633 18.3644 19.8034 16.6178C20.9678 18.0662 21.266 20.6933 20.769 22.5109C19.562 26.9556 16.935 29.2702 12.7743 30.3068C11.5531 30.6192 9.21004 30.534 7.91781 30.3352Z" fill="url(#paint0_linear_810_4333)"/>
<path opacity="0.42" d="M7.91781 30.3352C5.63157 29.9802 3.24593 28.1768 2.30871 26.487C1.03069 24.1723 1.05909 21.7157 1.4567 19.1739C2.50752 12.5281 1.4567 11.6761 0.363281 10.3555C2.22351 11.1507 3.95594 11.8181 5.09196 13.2239C6.48359 8.92127 6.86699 5.64102 12.3341 0.486328C12.1495 1.69335 11.8087 2.90037 11.7945 4.13579C11.7235 7.96986 14.8191 11.4915 15.4723 12.3719C17.2332 14.7292 18.1846 17.2852 18.1278 20.1253V20.5371C19.0366 19.7419 19.633 18.3644 19.8034 16.6178C20.9678 18.0662 21.266 20.6933 20.769 22.5109C19.562 26.9556 16.935 29.2702 12.7743 30.3068C11.5531 30.6192 9.21004 30.534 7.91781 30.3352Z" fill="url(#paint1_linear_810_4333)"/>
<path d="M7.90272 30.3637C6.24129 30.0655 4.50886 28.5176 3.82725 27.0692C2.90424 25.0812 2.91844 22.9795 3.20244 20.8069C3.96925 15.1126 3.20244 14.3884 2.40723 13.2524C3.75625 13.934 5.02007 14.502 5.84369 15.7232C6.8519 12.0453 7.13591 9.2195 11.112 4.80322C10.9842 5.83984 10.7286 6.87646 10.7144 7.92728C10.6718 11.2217 12.9722 13.5364 13.4408 14.2748C14.7188 16.2912 16.4655 18.1231 16.4797 20.1253C16.4797 21.9571 15.2442 24.1298 15.2442 23.7747C16.3377 23.4907 18.7091 22.0707 19.3055 20.5371C19.8451 23.1499 18.7233 25.1522 17.9991 26.2598C16.7779 28.12 15.2442 29.4548 12.7592 30.3211C11.893 30.6051 8.83994 30.5341 7.90272 30.3637Z" fill="url(#paint2_linear_810_4333)"/>
<path opacity="0.42" d="M7.90272 30.3637C6.24129 30.0655 4.50886 28.5176 3.82725 27.0692C2.90424 25.0812 2.91844 22.9795 3.20244 20.8069C3.96925 15.1126 3.20244 14.3884 2.40723 13.2524C3.75625 13.934 5.02007 14.502 5.84369 15.7232C6.8519 12.0453 7.13591 9.2195 11.112 4.80322C10.9842 5.83984 10.7286 6.87646 10.7144 7.92728C10.6718 11.2217 12.9722 13.5364 13.4408 14.2748C14.7188 16.2912 16.4655 18.1231 16.4797 20.1253C16.4797 21.9571 15.2442 24.1298 15.2442 23.7747C16.3377 23.4907 18.7091 22.0707 19.3055 20.5371C19.8451 23.1499 18.7233 25.1522 17.9991 26.2598C16.7779 28.12 15.2442 29.4548 12.7592 30.3211C11.893 30.6051 8.83994 30.5341 7.90272 30.3637Z" fill="url(#paint3_linear_810_4333)"/>
<path d="M8.67135 30.3353C7.57793 30.0939 6.47032 29.4123 5.7177 28.3757C5.05029 27.4669 4.78049 25.9474 5.05029 24.499C5.4621 22.1986 5.5757 19.0887 5.05029 18.1799C5.94491 18.7195 6.76852 19.1739 7.32233 20.1395C7.98974 17.2143 7.79094 15.2973 10.418 11.7898C10.3328 12.6134 10.1624 13.437 10.1624 14.2748C10.134 16.8877 11.6108 18.1231 12.3492 18.9893C13.7692 20.6791 14.6213 22.4542 14.6213 24.0304C14.6213 25.493 14.0248 25.919 13.3148 26.6291C14.3515 26.3592 15.0757 26.0752 15.7289 25.3084C15.9703 27.4101 13.3148 29.9093 11.3268 30.3921C10.347 30.6193 9.29616 30.4773 8.67135 30.3353Z" fill="url(#paint4_linear_810_4333)"/>
<path opacity="0.42" d="M8.67135 30.3353C7.57793 30.0939 6.47032 29.4123 5.7177 28.3757C5.05029 27.4669 4.78049 25.9474 5.05029 24.499C5.4621 22.1986 5.5757 19.0887 5.05029 18.1799C5.94491 18.7195 6.76852 19.1739 7.32233 20.1395C7.98974 17.2143 7.79094 15.2973 10.418 11.7898C10.3328 12.6134 10.1624 13.437 10.1624 14.2748C10.134 16.8877 11.6108 18.1231 12.3492 18.9893C13.7692 20.6791 14.6213 22.4542 14.6213 24.0304C14.6213 25.493 14.0248 25.919 13.3148 26.6291C14.3515 26.3592 15.0757 26.0752 15.7289 25.3084C15.9703 27.4101 13.3148 29.9093 11.3268 30.3921C10.347 30.6193 9.29616 30.4773 8.67135 30.3353Z" fill="url(#paint5_linear_810_4333)"/>
<path d="M9.1115 30.392C8.41568 30.2358 7.63467 29.7956 7.15186 29.1139C6.72585 28.5033 6.56965 27.3389 6.81106 26.3875C7.25126 24.5983 7.13766 22.7664 6.81106 22.17C7.37907 22.5392 7.90448 22.8374 8.25948 23.4765C8.68549 21.5168 8.55769 20.253 10.2333 17.8958C10.1765 18.4496 10.0771 19.0034 10.0629 19.5572C10.0487 21.3038 10.9859 22.1274 11.4545 22.7096C12.3634 23.8315 12.6332 25.0243 12.6474 26.0751C12.6474 27.0549 12.264 27.5803 11.8237 28.0631C12.5764 28.0205 13.4142 27.5803 13.826 27.0691C13.9822 28.4749 12.2214 30.1364 10.9575 30.463C10.3327 30.5908 9.5091 30.4772 9.1115 30.392Z" fill="url(#paint6_linear_810_4333)"/>
<defs>
<linearGradient id="paint0_linear_810_4333" x1="10.6722" y1="0.514729" x2="10.6722" y2="30.5145" gradientUnits="userSpaceOnUse">
<stop offset="3.2e-07" stop-color="white"/>
<stop offset="1" stop-color="white"/>
</linearGradient>
<linearGradient id="paint1_linear_810_4333" x1="10.6722" y1="0.514729" x2="10.6722" y2="30.5145" gradientUnits="userSpaceOnUse">
<stop offset="3.2e-07" stop-color="#5A5A5A"/>
<stop offset="1" stop-color="#D7D7D7"/>
</linearGradient>
<linearGradient id="paint2_linear_810_4333" x1="10.9255" y1="4.78989" x2="10.9255" y2="30.5145" gradientUnits="userSpaceOnUse">
<stop stop-color="#D0D0D0"/>
<stop offset="1" stop-color="#D2D2D2"/>
</linearGradient>
<linearGradient id="paint3_linear_810_4333" x1="10.9255" y1="4.78989" x2="10.9255" y2="30.5145" gradientUnits="userSpaceOnUse">
<stop stop-color="#898989"/>
<stop offset="1" stop-color="#9D9D9D"/>
</linearGradient>
<linearGradient id="paint4_linear_810_4333" x1="10.3399" y1="11.7991" x2="10.3399" y2="30.5146" gradientUnits="userSpaceOnUse">
<stop stop-color="#A6A6A6"/>
<stop offset="1" stop-color="#DDDDDD"/>
</linearGradient>
<linearGradient id="paint5_linear_810_4333" x1="10.3399" y1="11.7991" x2="10.3399" y2="30.5146" gradientUnits="userSpaceOnUse">
<stop stop-color="#DADADA"/>
<stop offset="1" stop-color="white"/>
</linearGradient>
<linearGradient id="paint6_linear_810_4333" x1="10.2664" y1="17.8823" x2="10.2664" y2="30.5144" gradientUnits="userSpaceOnUse">
<stop offset="1e-07" stop-color="#BCBCBC"/>
<stop offset="1" stop-color="#FCFCFC"/>
</linearGradient>
</defs>
</svg>
