<svg width="21" height="31" viewBox="0 0 21 31" fill="none" xmlns="http://www.w3.org/2000/svg">
<path d="M7.55453 30.3352C5.26829 29.9802 2.88265 28.1768 1.94543 26.487C0.667411 24.1723 0.695812 21.7157 1.09342 19.1739C2.14424 12.5281 1.09342 11.6761 0 10.3555C1.86023 11.1507 3.59266 11.8181 4.72868 13.2239C6.12031 8.92127 6.50371 5.64102 11.9708 0.486328C11.7862 1.69335 11.4454 2.90037 11.4312 4.13579C11.3602 7.96986 14.4559 11.4915 15.1091 12.3719C16.8699 14.7292 17.8213 17.2852 17.7645 20.1253V20.5371C18.6733 19.7419 19.2697 18.3644 19.4401 16.6178C20.6046 18.0662 20.9028 20.6933 20.4058 22.5109C19.1987 26.9556 16.5717 29.2702 12.411 30.3068C11.1898 30.6192 8.84675 30.534 7.55453 30.3352Z" fill="url(#paint0_linear_810_4293)"/>
<path opacity="0.42" d="M7.55453 30.3352C5.26829 29.9802 2.88265 28.1768 1.94543 26.487C0.667411 24.1723 0.695812 21.7157 1.09342 19.1739C2.14424 12.5281 1.09342 11.6761 0 10.3555C1.86023 11.1507 3.59266 11.8181 4.72868 13.2239C6.12031 8.92127 6.50371 5.64102 11.9708 0.486328C11.7862 1.69335 11.4454 2.90037 11.4312 4.13579C11.3602 7.96986 14.4559 11.4915 15.1091 12.3719C16.8699 14.7292 17.8213 17.2852 17.7645 20.1253V20.5371C18.6733 19.7419 19.2697 18.3644 19.4401 16.6178C20.6046 18.0662 20.9028 20.6933 20.4058 22.5109C19.1987 26.9556 16.5717 29.2702 12.411 30.3068C11.1898 30.6192 8.84675 30.534 7.55453 30.3352Z" fill="url(#paint1_linear_810_4293)"/>
<path d="M7.53944 30.3637C5.87801 30.0655 4.14558 28.5176 3.46397 27.0692C2.54095 25.0812 2.55515 22.9795 2.83916 20.8069C3.60597 15.1126 2.83916 14.3884 2.04395 13.2524C3.39297 13.934 4.65679 14.502 5.4804 15.7232C6.48862 12.0453 6.77263 9.2195 10.7487 4.80322C10.6209 5.83984 10.3653 6.87646 10.3511 7.92728C10.3085 11.2217 12.6089 13.5364 13.0775 14.2748C14.3556 16.2912 16.1022 18.1231 16.1164 20.1253C16.1164 21.9571 14.881 24.1298 14.881 23.7747C15.9744 23.4907 18.3458 22.0707 18.9422 20.5371C19.4818 23.1499 18.36 25.1522 17.6358 26.2598C16.4146 28.12 14.881 29.4548 12.3959 30.3211C11.5297 30.6051 8.47666 30.5341 7.53944 30.3637Z" fill="url(#paint2_linear_810_4293)"/>
<path opacity="0.42" d="M7.53944 30.3637C5.87801 30.0655 4.14558 28.5176 3.46397 27.0692C2.54095 25.0812 2.55515 22.9795 2.83916 20.8069C3.60597 15.1126 2.83916 14.3884 2.04395 13.2524C3.39297 13.934 4.65679 14.502 5.4804 15.7232C6.48862 12.0453 6.77263 9.2195 10.7487 4.80322C10.6209 5.83984 10.3653 6.87646 10.3511 7.92728C10.3085 11.2217 12.6089 13.5364 13.0775 14.2748C14.3556 16.2912 16.1022 18.1231 16.1164 20.1253C16.1164 21.9571 14.881 24.1298 14.881 23.7747C15.9744 23.4907 18.3458 22.0707 18.9422 20.5371C19.4818 23.1499 18.36 25.1522 17.6358 26.2598C16.4146 28.12 14.881 29.4548 12.3959 30.3211C11.5297 30.6051 8.47666 30.5341 7.53944 30.3637Z" fill="url(#paint3_linear_810_4293)"/>
<path d="M8.30807 30.3353C7.21465 30.0939 6.10703 29.4123 5.35442 28.3757C4.68701 27.4669 4.4172 25.9474 4.68701 24.499C5.09882 22.1986 5.21242 19.0887 4.68701 18.1799C5.58162 18.7195 6.40524 19.1739 6.95905 20.1395C7.62646 17.2143 7.42766 15.2973 10.0547 11.7898C9.9695 12.6134 9.7991 13.437 9.7991 14.2748C9.7707 16.8877 11.2475 18.1231 11.9859 18.9893C13.406 20.6791 14.258 22.4542 14.258 24.0304C14.258 25.493 13.6616 25.919 12.9516 26.6291C13.9882 26.3592 14.7124 26.0752 15.3656 25.3084C15.607 27.4101 12.9516 29.9093 10.9635 30.3921C9.9837 30.6193 8.93288 30.4773 8.30807 30.3353Z" fill="url(#paint4_linear_810_4293)"/>
<path opacity="0.42" d="M8.30807 30.3353C7.21465 30.0939 6.10703 29.4123 5.35442 28.3757C4.68701 27.4669 4.4172 25.9474 4.68701 24.499C5.09882 22.1986 5.21242 19.0887 4.68701 18.1799C5.58162 18.7195 6.40524 19.1739 6.95905 20.1395C7.62646 17.2143 7.42766 15.2973 10.0547 11.7898C9.9695 12.6134 9.7991 13.437 9.7991 14.2748C9.7707 16.8877 11.2475 18.1231 11.9859 18.9893C13.406 20.6791 14.258 22.4542 14.258 24.0304C14.258 25.493 13.6616 25.919 12.9516 26.6291C13.9882 26.3592 14.7124 26.0752 15.3656 25.3084C15.607 27.4101 12.9516 29.9093 10.9635 30.3921C9.9837 30.6193 8.93288 30.4773 8.30807 30.3353Z" fill="url(#paint5_linear_810_4293)"/>
<path d="M8.74821 30.392C8.0524 30.2358 7.27139 29.7956 6.78858 29.1139C6.36257 28.5033 6.20637 27.3389 6.44778 26.3875C6.88798 24.5983 6.77438 22.7664 6.44778 22.17C7.01579 22.5392 7.54119 22.8374 7.8962 23.4765C8.32221 21.5168 8.1944 20.253 9.87003 17.8958C9.81323 18.4496 9.71383 19.0034 9.69963 19.5572C9.68543 21.3038 10.6226 22.1274 11.0913 22.7096C12.0001 23.8315 12.2699 25.0243 12.2841 26.0751C12.2841 27.0549 11.9007 27.5803 11.4605 28.0631C12.2131 28.0205 13.0509 27.5803 13.4627 27.0691C13.6189 28.4749 11.8581 30.1364 10.5942 30.463C9.96944 30.5908 9.14582 30.4772 8.74821 30.392Z" fill="url(#paint6_linear_810_4293)"/>
<defs>
<linearGradient id="paint0_linear_810_4293" x1="10.3089" y1="0.514729" x2="10.3089" y2="30.5145" gradientUnits="userSpaceOnUse">
<stop offset="3.2e-07" stop-color="#E65100"/>
<stop offset="1" stop-color="#FF8F00"/>
</linearGradient>
<linearGradient id="paint1_linear_810_4293" x1="10.3089" y1="0.514729" x2="10.3089" y2="30.5145" gradientUnits="userSpaceOnUse">
<stop offset="3.2e-07" stop-color="#FF0000"/>
<stop offset="0.0379952" stop-color="#FF2100"/>
<stop offset="0.0990409" stop-color="#FF4F00"/>
<stop offset="0.1657" stop-color="#FF7900"/>
<stop offset="0.2366" stop-color="#FF9D00"/>
<stop offset="0.3129" stop-color="#FFBC00"/>
<stop offset="0.3961" stop-color="#FFD400"/>
<stop offset="0.4892" stop-color="#FFE700"/>
<stop offset="0.5974" stop-color="#FFF500"/>
<stop offset="0.735" stop-color="#FFFD00"/>
<stop offset="1" stop-color="#FFFF00"/>
</linearGradient>
<linearGradient id="paint2_linear_810_4293" x1="10.5622" y1="4.78989" x2="10.5622" y2="30.5145" gradientUnits="userSpaceOnUse">
<stop offset="3.2e-07" stop-color="#FF8F00"/>
<stop offset="1" stop-color="#FFB300"/>
</linearGradient>
<linearGradient id="paint3_linear_810_4293" x1="10.5622" y1="4.78989" x2="10.5622" y2="30.5145" gradientUnits="userSpaceOnUse">
<stop offset="3.2e-07" stop-color="#FF0000"/>
<stop offset="0.0379952" stop-color="#FF2100"/>
<stop offset="0.0990409" stop-color="#FF4F00"/>
<stop offset="0.1657" stop-color="#FF7900"/>
<stop offset="0.2366" stop-color="#FF9D00"/>
<stop offset="0.3129" stop-color="#FFBC00"/>
<stop offset="0.3961" stop-color="#FFD400"/>
<stop offset="0.4892" stop-color="#FFE700"/>
<stop offset="0.5974" stop-color="#FFF500"/>
<stop offset="0.735" stop-color="#FFFD00"/>
<stop offset="1" stop-color="#FFFF00"/>
</linearGradient>
<linearGradient id="paint4_linear_810_4293" x1="9.97662" y1="11.7991" x2="9.97662" y2="30.5146" gradientUnits="userSpaceOnUse">
<stop offset="2.2e-07" stop-color="#FFB300"/>
<stop offset="1" stop-color="#FFE287"/>
</linearGradient>
<linearGradient id="paint5_linear_810_4293" x1="9.97662" y1="11.7991" x2="9.97662" y2="30.5146" gradientUnits="userSpaceOnUse">
<stop offset="2.1e-07" stop-color="#FFD54F"/>
<stop offset="0.0457761" stop-color="#FFDB43"/>
<stop offset="0.1602" stop-color="#FFE82B"/>
<stop offset="0.2895" stop-color="#FFF317"/>
<stop offset="0.44" stop-color="#FFFA0A"/>
<stop offset="0.6313" stop-color="#FFFE02"/>
<stop offset="1" stop-color="#FFFF00"/>
</linearGradient>
<linearGradient id="paint6_linear_810_4293" x1="9.90311" y1="17.8823" x2="9.90311" y2="30.5144" gradientUnits="userSpaceOnUse">
<stop offset="1e-07" stop-color="#FFD54F"/>
<stop offset="0.7931" stop-color="#FFE7D1"/>
<stop offset="1" stop-color="#FFECF4"/>
</linearGradient>
</defs>
</svg>
