<svg width="110" height="100" viewBox="0 0 110 100" fill="none" xmlns="http://www.w3.org/2000/svg">
<path d="M89.3213 35C80.0813 29.69 67.8013 26.78 54.7313 26.78C42.4613 26.78 30.7313 29.39 21.6713 34.15C12.6113 38.91 7.13131 45.25 6.01131 52.19C5.99623 52.2894 5.99623 52.3906 6.01131 52.49C6.00664 52.4435 6.00664 52.3965 6.01131 52.35L6.01131 60.54C6.04295 60.8215 6.15366 61.0883 6.33063 61.3095C6.5076 61.5308 6.7436 61.6973 7.01131 61.79L7.25131 61.89L7.59131 62.01L7.88131 62.08L8.16131 62.13H8.43131H9.31131H9.59131C10.0113 62.06 10.4813 62 10.9313 62H11.4413C11.8313 62 12.2213 62 12.6013 62H13.5413H14.0813L14.7013 62.06L15.2413 62.12L15.8013 62.2L16.4013 62.31L16.9013 62.41L17.6113 62.59L18.0213 62.7C18.4513 62.83 18.8813 62.97 19.2813 63.13L19.4713 63.21C19.7613 63.33 20.0413 63.45 20.3113 63.58L20.6313 63.75C20.8513 63.87 21.0613 63.98 21.2613 64.11L21.5713 64.3C21.7694 64.4287 21.9597 64.5689 22.1413 64.72L22.3713 64.89C22.6129 65.0905 22.8432 65.3042 23.0613 65.53L23.1213 65.61C23.2984 65.7984 23.4621 65.9989 23.6113 66.21L23.7613 66.44C23.8643 66.6011 23.9578 66.768 24.0413 66.94L24.1613 67.2C24.2284 67.3731 24.2852 67.5501 24.3313 67.73C24.3539 67.7916 24.3706 67.8552 24.3813 67.92V69.7C24.3828 69.821 24.41 69.9404 24.4613 70.05C24.4596 70.0833 24.4596 70.1167 24.4613 70.15C24.5119 70.2483 24.5758 70.3392 24.6513 70.42L24.7013 70.49C24.7946 70.5811 24.8949 70.6647 25.0013 70.74L25.1813 70.85L25.4213 70.97C25.4813 70.97 25.5213 71.03 25.5913 71.05L25.9313 71.17L26.2213 71.24H26.5013H26.7913C27.2813 71.24 27.7913 71.34 28.2313 71.41L28.7313 71.5L29.6413 71.67L30.3913 71.86L31.0613 72.03C31.608 72.19 32.138 72.37 32.6513 72.57C32.9013 72.66 33.1413 72.77 33.3813 72.88L33.9113 73.11C34.1613 73.23 34.3913 73.37 34.6313 73.5L35.0913 73.75C35.3413 73.89 35.5713 74.05 35.8013 74.21L36.1713 74.45C36.5113 74.7033 36.8446 74.9633 37.1713 75.23C37.9594 75.9189 38.6107 76.7501 39.0913 77.68V82.53C39.0912 82.7262 39.1384 82.9196 39.2289 83.0937C39.3194 83.2677 39.4506 83.4174 39.6113 83.53C39.7336 83.6248 39.8641 83.7085 40.0013 83.78L40.1413 83.85L40.3413 83.94H40.4913H40.6013H40.6813L40.9813 84.02H41.1013H41.1613H41.2613H41.5413H41.7513L42.7513 84.08L43.8113 84.21H44.0713L44.8713 84.35L45.2013 84.42C45.4913 84.48 45.7713 84.55 46.0513 84.63L46.3113 84.7C46.7292 84.8159 47.1399 84.9561 47.5413 85.12L47.8313 85.23L48.3713 85.46L48.6713 85.6C48.8613 85.69 49.0413 85.79 49.2213 85.89L49.4413 86.01L50.1513 86.46C50.18 86.492 50.2138 86.519 50.2513 86.54L50.7813 86.95L50.9713 87.13C51.0984 87.2356 51.2187 87.3491 51.3313 87.47L51.5213 87.68C51.6313 87.79 51.7213 87.91 51.8213 88.03C51.9213 88.15 51.9313 88.17 51.9813 88.25C52.0685 88.3754 52.1486 88.5056 52.2213 88.64L52.3313 88.83C52.4379 89.0256 52.5282 89.2296 52.6013 89.44C52.6385 89.5478 52.6925 89.6491 52.7613 89.74L52.8413 89.83L53.0013 90.01L53.1213 90.1L53.3213 90.24L53.4813 90.33L53.7113 90.44H53.8013H53.9213H54.0613H54.1413L54.4313 90.51H54.7113H54.8613H55.0113H55.2813H55.4413C55.9913 90.51 56.5513 90.51 57.1013 90.51H57.4513L59.0113 90.93L60.0113 90.88C60.6013 90.88 61.1813 90.8 61.7613 90.75H62.4213H62.5113C63.4313 90.67 64.3413 90.57 65.2413 90.46L65.9713 90.36C66.6413 90.27 67.3013 90.18 67.9713 90.07L68.4013 90.01L68.7213 89.95C69.9213 89.74 71.1113 89.52 72.2813 89.26L72.8313 89.14C74.0213 88.86 75.2013 88.57 76.3513 88.25H76.4613L76.7313 88.16C77.7313 87.87 78.7313 87.55 79.7313 87.21L80.0113 87C81.0113 86.65 82.0113 86.27 83.0113 85.87L83.5713 85.64C84.5713 85.24 85.4513 84.82 86.3513 84.38L86.8113 84.15C87.7513 83.68 88.6713 83.15 89.5513 82.68C90.2013 82.31 90.8213 81.92 91.4313 81.53L91.6013 81.42L92.3013 80.94L92.8813 80.54L93.8213 79.84L94.2813 79.5C94.7313 79.15 95.1613 78.8 95.5713 78.44C95.9713 78.09 96.3613 77.74 96.7313 77.38C97.2013 76.93 97.6513 76.47 98.0713 76L98.4113 75.61C98.7113 75.27 99.0013 74.92 99.2813 74.61L99.4813 74.37C99.5513 74.28 99.6113 74.18 99.6813 74.08C99.7513 73.98 100.051 73.58 100.221 73.32C100.391 73.06 100.481 72.94 100.601 72.75C100.721 72.56 100.931 72.22 101.081 71.96C101.231 71.7 101.241 71.71 101.311 71.58C101.381 71.45 101.371 71.45 101.411 71.38C101.451 71.31 101.641 70.93 101.751 70.7C101.861 70.47 101.961 70.28 102.061 70.06C102.161 69.84 102.251 69.6 102.341 69.37C102.431 69.14 102.481 69.06 102.541 68.9C102.601 68.74 102.541 68.78 102.541 68.72C102.621 68.5 102.691 68.28 102.761 68.06C102.831 67.84 102.901 67.61 102.961 67.38C103.021 67.15 103.071 66.94 103.121 66.72C103.171 66.5 103.201 66.39 103.231 66.22C103.236 66.1568 103.236 66.0932 103.231 66.03C103.231 65.8 103.301 65.57 103.341 65.34C103.381 65.11 103.401 64.88 103.421 64.65C103.441 64.42 103.421 64.19 103.421 63.96C103.421 63.73 103.421 63.62 103.421 63.45C103.421 63.28 103.421 63.2 103.421 63.08V54.88C103.651 47.3 98.5613 40.25 89.3213 35ZM51.7913 80.11C51.6913 79.99 51.6013 79.87 51.4913 79.76C51.6013 79.87 51.6913 80 51.7913 80.11ZM51.3013 79.55C51.1887 79.4291 51.0684 79.3156 50.9413 79.21C51.0684 79.3156 51.1887 79.4291 51.3013 79.55ZM50.7513 79L50.2213 78.59L50.7513 79ZM49.1913 78C49.0113 77.9 48.8313 77.8 48.6413 77.71C48.8313 77.77 49.0113 77.87 49.1913 78ZM48.3413 77.57L47.8013 77.34L48.3413 77.57ZM39.6413 71.38C39.6459 71.4266 39.6459 71.4734 39.6413 71.52C39.6481 71.4635 39.6481 71.4065 39.6413 71.35V71.38ZM39.4213 70.38C39.4213 70.45 39.4713 70.51 39.4913 70.57C39.5113 70.63 39.4413 70.45 39.4213 70.38ZM36.2213 66.38L35.8713 66.15L36.2213 66.38ZM35.1413 65.67L34.6813 65.42L35.1413 65.67ZM30.4413 63.78C30.1913 63.72 29.9513 63.65 29.6913 63.6C29.9513 63.61 30.1913 63.68 30.4413 63.74V63.78ZM23.6113 58C23.4597 57.7875 23.2961 57.5839 23.1213 57.39C23.2961 57.5839 23.4597 57.7875 23.6113 58ZM23.0613 57.32C22.8432 57.0942 22.6129 56.8805 22.3713 56.68C22.6124 56.874 22.8427 57.081 23.0613 57.3V57.32ZM16.4013 54.1L15.8113 54L16.4013 54.1ZM6.25131 53L6.46131 53.21L6.25131 53ZM6.07131 52.64C6.09623 52.7169 6.12978 52.7907 6.17131 52.86C6.12978 52.7907 6.09623 52.7169 6.07131 52.64ZM7.07131 53.64C6.91204 53.5664 6.76117 53.4759 6.62131 53.37C6.7443 53.4551 6.87485 53.5288 7.01131 53.59L7.07131 53.64ZM10.9813 53.84C11.1513 53.84 11.3213 53.84 11.5013 53.84C11.2713 53.77 11.1013 53.77 10.9313 53.79L10.9813 53.84ZM13.5913 53.84H14.1313H13.5913ZM14.7513 53.93L15.2913 53.99L14.7513 53.93ZM16.9513 54.28L17.6613 54.46L16.9513 54.28ZM18.0713 54.57C18.5013 54.7 18.9313 54.84 19.3313 55C18.9313 54.84 18.5013 54.7 18.0713 54.57ZM19.5213 55.08C19.8213 55.2 20.1013 55.32 20.3713 55.46C20.0113 55.22 19.7613 55.1 19.4713 55L19.5213 55.08ZM20.6813 55.62C20.9513 55.76 21.2013 55.91 21.4413 56.06L21.3113 55.98C21.0613 55.75 20.8513 55.64 20.6313 55.52L20.6813 55.62ZM21.6213 56.17C21.8313 56.31 22.0313 56.46 22.2213 56.61C22.0113 56.34 21.7713 56.2 21.5713 56.07L21.6213 56.17ZM23.7513 58.17C23.8779 58.3587 23.9915 58.5558 24.0913 58.76C24.0078 58.588 23.9143 58.4211 23.8113 58.26L23.7513 58.17ZM24.3813 59.55C24.3352 59.3701 24.2784 59.1931 24.2113 59.02C24.4249 59.5161 24.5371 60.0499 24.5413 60.59C24.54 60.3247 24.5132 60.0602 24.4613 59.8C24.3813 59.66 24.3513 59.58 24.3313 59.5L24.3813 59.55ZM24.8713 62.42L24.9413 62.48L24.8713 62.42ZM25.2213 62.68H25.1613L25.2813 62.76L25.2213 62.68ZM25.5813 62.87H25.5313L25.6913 62.94L25.5813 62.87ZM25.9513 63H25.9013L26.1913 63.07L25.9513 63ZM26.4213 63.12H26.3113C26.4864 63.1538 26.6634 63.1772 26.8413 63.19C26.6813 63.12 26.5213 63.09 26.3713 63.07L26.4213 63.12ZM28.3413 63.35L28.8313 63.44L28.3413 63.35ZM31.1713 63.97C31.7113 64.13 32.2413 64.31 32.7513 64.51C32.1913 64.26 31.6613 64.08 31.1213 63.92L31.1713 63.97ZM33.4713 64.82L34.0113 65L33.4713 64.82ZM39.1513 69.62C39.1513 69.68 39.1513 69.74 39.2313 69.81C39.3113 69.88 39.1313 69.63 39.1013 69.57L39.1513 69.62ZM37.9513 67.9L38.1213 68.09L37.9513 67.9ZM38.6113 68.72L38.7113 68.86L38.6113 68.72ZM39.7313 75.46L39.9313 75.58L39.7313 75.46ZM42.7313 76.17C43.0913 76.17 43.4413 76.25 43.7913 76.29C43.4313 76.2 43.0813 76.15 42.7213 76.12L42.7313 76.17ZM44.0513 76.34L44.8513 76.48L44.0513 76.34ZM45.1813 76.55C45.4713 76.61 45.7513 76.68 46.0313 76.76C45.7513 76.68 45.4713 76.61 45.1813 76.55ZM46.2913 76.83C46.7213 76.95 47.1313 77.09 47.5213 77.24C47.1213 77 46.7113 76.9 46.2813 76.78L46.2913 76.83ZM49.4213 78.14L49.2613 78C49.5613 78.17 49.8513 78.35 50.1213 78.54L49.4213 78.14ZM51.8713 80.26C51.9906 80.4238 52.1007 80.5941 52.2013 80.77C52.1287 80.6324 52.0486 80.4988 51.9613 80.37L51.8713 80.26ZM52.3113 80.96C52.2917 80.9179 52.2683 80.8777 52.2413 80.84C52.3769 81.0723 52.4907 81.3167 52.5813 81.57C52.5076 81.3422 52.4139 81.1213 52.3013 80.91L52.3113 80.96ZM52.7413 81.87L52.8213 81.96L52.7413 81.87ZM52.9813 82.14H53.0413H52.9813ZM53.3913 82.42H53.4613H53.3913ZM53.8413 82.63H53.9013H53.8413ZM54.0413 82.7L54.2713 82.76L54.0413 82.7ZM76.2813 80L76.4713 79.95L76.2813 80ZM101.391 63.19C101.424 63.1504 101.451 63.1067 101.471 63.06C101.454 63.1207 101.427 63.1781 101.391 63.23V63.19ZM101.811 62.38C101.921 62.17 102.021 61.95 102.121 61.74C102.011 62 101.921 62.21 101.811 62.42V62.38ZM102.871 59.74C102.941 59.52 103.011 59.29 103.071 59.06C103.011 59.33 102.941 59.56 102.871 59.78V59.74ZM103.351 57.82C103.356 57.7835 103.356 57.7465 103.351 57.71C103.36 57.7596 103.36 57.8104 103.351 57.86V57.82ZM103.561 56.33C103.561 56.56 103.561 56.79 103.481 57.02C103.481 56.79 103.541 56.56 103.561 56.33Z" fill="#F6F6FC"/>
<path d="M89.5512 66.77C80.4612 72.05 68.3512 75.01 55.3912 75.11C54.0312 75.11 52.8412 74.56 52.5712 73.79C51.5712 70.79 47.0912 68.54 41.7612 68.32C40.9932 68.3202 40.2445 68.0788 39.6212 67.63C39.3983 67.4877 39.2335 67.2705 39.1565 67.0175C39.0795 66.7645 39.0954 66.4923 39.2012 66.25C40.2712 64 39.5312 61.51 37.2012 59.38C34.2613 56.992 30.6429 55.5922 26.8612 55.38C25.3212 55.26 24.2412 54.45 24.4212 53.57C24.477 53.3104 24.5039 53.0455 24.5012 52.78C24.4812 49 19.1512 46 12.6012 46C11.5975 45.9989 10.595 46.069 9.60123 46.21C9.35994 46.2498 9.11579 46.2699 8.87123 46.27C8.22863 46.2718 7.59355 46.1318 7.01123 45.86C6.30123 45.51 5.93123 45 6.01123 44.45C7.13123 37.52 12.6912 31.09 21.6712 26.37C30.6512 21.65 42.4612 19 54.7312 19C67.8012 19 80.0812 21.92 89.3212 27.22C98.5612 32.52 103.651 39.56 103.651 47.06C103.651 54.56 98.6412 61.48 89.5512 66.77Z" fill="url(#paint0_linear)"/>
<path d="M103.611 47.94C103.611 48.17 103.611 48.4 103.611 48.63C103.611 48.86 103.611 49.09 103.531 49.32C103.451 49.55 103.461 49.78 103.421 50.01C103.381 50.24 103.331 50.47 103.281 50.7C103.231 50.93 103.181 51.14 103.121 51.36C103.061 51.58 102.991 51.82 102.921 52.04C102.851 52.26 102.781 52.48 102.701 52.7C102.621 52.92 102.541 53.13 102.451 53.35L102.171 54.05C102.071 54.26 101.971 54.47 101.861 54.68C101.751 54.89 101.641 55.14 101.521 55.36C101.401 55.58 101.301 55.75 101.191 55.94C101.081 56.13 100.881 56.47 100.711 56.73C100.541 56.99 100.461 57.11 100.331 57.3C100.201 57.49 99.9812 57.81 99.7912 58.06L99.3912 58.59C99.1112 58.9367 98.8212 59.27 98.5212 59.59C98.4112 59.72 98.3012 59.85 98.1812 59.97C97.7612 60.44 97.3112 60.9 96.8412 61.35C96.3712 61.8 96.0612 62.09 95.6412 62.45C95.2312 62.81 94.8012 63.16 94.3512 63.51L93.8912 63.85L92.9512 64.55L92.3712 64.95C92.0812 65.15 91.8012 65.35 91.5012 65.54C90.8912 65.93 90.2712 66.32 89.6212 66.7C88.7412 67.21 87.8212 67.7 86.8812 68.16L86.4212 68.39C85.5212 68.83 84.5912 69.25 83.6412 69.65L83.0112 70C82.0112 70.4 81.0112 70.78 80.0112 71.13L79.6712 71.24C78.6779 71.58 77.6779 71.9133 76.6712 72.24L76.2912 72.35C75.1412 72.67 73.9612 72.97 72.7712 73.24L72.2212 73.36C71.0512 73.62 69.8612 73.85 68.6612 74.05L67.9112 74.17C67.2512 74.28 66.5912 74.37 65.9112 74.46L65.1812 74.56C64.2812 74.6667 63.3712 74.7667 62.4512 74.86H61.7012C61.1212 74.86 60.5412 74.96 59.9512 74.99H58.9512L57.3812 75.06C56.7112 75.06 56.0412 75.06 55.3812 75.06H54.9012H54.8412C54.6967 75.05 54.553 75.03 54.4112 75C54.282 74.9773 54.1549 74.9438 54.0312 74.9H53.8912L53.6812 74.81L53.4512 74.7L53.2912 74.62L53.0912 74.47L53.0112 74.35L52.8512 74.17L52.7712 74.08C52.7045 73.9913 52.6507 73.8937 52.6112 73.79C52.54 73.5789 52.4496 73.3747 52.3412 73.18C52.3084 73.1113 52.2717 73.0445 52.2312 72.98C52.1585 72.8456 52.0784 72.7154 51.9912 72.59C51.9912 72.51 51.8812 72.44 51.8312 72.37L51.5312 72.02L51.3412 71.81C51.2312 71.7 51.1112 71.58 50.9812 71.47L50.7912 71.29L50.2612 70.88C50.2237 70.859 50.1899 70.832 50.1612 70.8C49.9312 70.65 49.7012 70.5 49.4512 70.36L49.2312 70.23L48.6812 69.94L48.3812 69.8L47.8412 69.57L47.6712 69.5H47.5512C47.1579 69.3467 46.7479 69.2067 46.3212 69.08H46.2512L46.0112 69C45.7312 68.92 45.4512 68.86 45.1612 68.79H44.9712H44.8312L44.0312 68.65H43.8212C43.4712 68.65 43.1212 68.56 42.7612 68.53L41.8212 68.47C41.6233 68.4654 41.426 68.4453 41.2312 68.41H41.1112C40.942 68.3818 40.7749 68.3417 40.6112 68.29H40.5012L40.1512 68L40.0112 67.88C39.8941 67.8219 39.7835 67.7515 39.6812 67.67V64.17C39.6242 63.2408 39.3721 62.3341 38.9413 61.5088C38.5106 60.6835 37.9109 59.9582 37.1812 59.38C36.8812 59.1067 36.5479 58.8467 36.1812 58.6L35.8112 58.36C35.5812 58.2 35.3512 58.04 35.1012 57.9L34.6212 57.64C34.3944 57.5048 34.1607 57.3813 33.9212 57.27C33.7512 57.18 33.5612 57.11 33.3812 57.03L32.7112 56.73C32.1979 56.53 31.6679 56.35 31.1212 56.19H31.0012L30.4512 56L29.6912 55.81H29.5312L28.7812 55.68L28.2912 55.59H28.1812C27.7612 55.53 27.3312 55.48 26.9012 55.44H26.8412C26.6834 55.4305 26.5264 55.4104 26.3712 55.38H26.3012L25.9012 55.28H25.7812C25.6958 55.2561 25.6123 55.226 25.5312 55.19L25.3312 55.1L25.1712 55L25.0112 54.77C24.97 54.7421 24.9329 54.7084 24.9012 54.67C24.8398 54.6219 24.7829 54.5684 24.7312 54.51L24.6612 54.43L24.5412 54.24V54.18V52.79C24.5399 52.5247 24.5131 52.2602 24.4612 52C24.4612 51.92 24.4112 51.84 24.3912 51.76C24.3437 51.5805 24.2869 51.4036 24.2212 51.23L24.0112 51C23.9277 50.828 23.8342 50.6611 23.7312 50.5L23.5812 50.27C23.432 50.0589 23.2683 49.8584 23.0912 49.67L23.0312 49.59C22.8132 49.3642 22.5828 49.1505 22.3412 48.95L22.1112 48.78C21.9312 48.63 21.7412 48.5 21.5412 48.36L21.2312 48.17L20.6012 47.81L20.2812 47.65C20.0112 47.51 19.7312 47.39 19.4412 47.27L19.2812 47.2C18.8812 47.04 18.4612 46.9 18.0212 46.77H17.8812L17.6112 46.7L16.9012 46.53C16.8194 46.5042 16.7359 46.4841 16.6512 46.47L16.4012 46.42L15.8012 46.32L15.5012 46.26H15.2412L14.7012 46.2H14.3712H14.0812H13.5412H12.0112C11.8212 46.2 11.6312 46.2 11.4412 46.2H10.9212H10.7212C10.3312 46.2 9.96123 46.28 9.59123 46.33C9.34994 46.3698 9.10579 46.3899 8.86123 46.39C8.52544 46.3892 8.19053 46.3557 7.86123 46.29C7.56127 46.1822 7.27578 46.0378 7.01123 45.86C6.74352 45.7673 6.50752 45.6008 6.33055 45.3795C6.15357 45.1583 6.04286 44.8915 6.01123 44.61V52.8C6.04286 53.0815 6.15357 53.3483 6.33055 53.5695C6.50752 53.7908 6.74352 53.9573 7.01123 54.05L7.25123 54.15C7.36236 54.196 7.47585 54.236 7.59123 54.27L7.88123 54.34H8.16123H8.43123H8.71123H9.01123H9.32123H9.60123C10.0312 54.27 10.4812 54.23 10.9312 54.19H11.4412C11.8312 54.19 12.2212 54.19 12.6012 54.19C12.9812 54.19 13.2312 54.19 13.5412 54.19H14.0812L14.7012 54.24L15.2412 54.3L15.8012 54.39L16.4012 54.49L16.9012 54.6L17.6112 54.77L18.0212 54.89C18.4484 55.0074 18.869 55.1476 19.2812 55.31L19.4712 55.39C19.7612 55.51 20.0412 55.64 20.3112 55.77L20.6312 55.94C20.8512 56.05 21.0612 56.17 21.2612 56.29L21.5712 56.48L22.1412 56.9C22.2222 56.9543 22.2991 57.0145 22.3712 57.08C22.615 57.2744 22.8455 57.4849 23.0612 57.71L23.1212 57.79C23.2959 57.9805 23.4595 58.1808 23.6112 58.39L23.7612 58.62C23.8612 58.79 23.9612 58.95 24.0412 59.12L24.1612 59.38C24.2269 59.5536 24.2837 59.7305 24.3312 59.91C24.3526 59.972 24.3693 60.0355 24.3812 60.1V62C24.3839 62.1241 24.4111 62.2465 24.4612 62.36V62.45C24.5117 62.5515 24.5756 62.6456 24.6512 62.73L24.7012 62.8L25.0112 63L25.1912 63.11L25.4312 63.23L25.6012 63.32L25.9412 63.43L26.2312 63.5H26.5112C26.6078 63.5054 26.7046 63.5054 26.8012 63.5C27.2912 63.55 27.8012 63.6 28.2412 63.68L28.7412 63.76L29.6512 63.93L30.4012 64.12C30.6312 64.18 30.8612 64.23 31.0712 64.3C31.6103 64.448 32.1411 64.625 32.6612 64.83L33.3912 65.14C33.5712 65.22 33.7512 65.29 33.9212 65.38C34.0912 65.47 34.4012 65.63 34.6412 65.76L35.1012 66.01C35.3512 66.16 35.5812 66.32 35.8112 66.48C36.0412 66.64 36.0612 66.63 36.1812 66.72C36.5324 66.9564 36.8665 67.217 37.1812 67.5C37.9749 68.2032 38.6266 69.0518 39.1012 70V74.86C39.1104 75.046 39.1621 75.2274 39.2522 75.3903C39.3423 75.5532 39.4686 75.6934 39.6212 75.8C39.7411 75.8982 39.872 75.9821 40.0112 76.05L40.1512 76.12L40.3512 76.21L40.5012 76.26H40.6112H40.6912L40.9912 76.33H41.1112H41.1712H41.2712H41.5512H41.7612C42.0879 76.33 42.4212 76.35 42.7612 76.39C43.1212 76.39 43.4712 76.46 43.8212 76.51H44.0812L44.8812 76.65L45.2112 76.72L46.0612 76.93L46.3212 77C46.7546 77.1333 47.1646 77.2733 47.5512 77.42L47.8412 77.53C48.0212 77.61 48.2012 77.68 48.3812 77.77L48.6812 77.91L49.2312 78.19L49.4512 78.32C49.7012 78.46 49.9312 78.61 50.1612 78.77L50.2612 78.84L50.7912 79.25L50.9812 79.43C51.1084 79.539 51.2287 79.6559 51.3412 79.78C51.4096 79.8417 51.4731 79.9086 51.5312 79.98C51.6412 80.1 51.7312 80.22 51.8312 80.34L51.9912 80.55C52.0807 80.6774 52.1609 80.8111 52.2312 80.95C52.2737 81.0098 52.3106 81.0734 52.3412 81.14C52.4496 81.3347 52.54 81.5389 52.6112 81.75C52.6507 81.8537 52.7045 81.9513 52.7712 82.04C52.7923 82.0745 52.8194 82.105 52.8512 82.13C52.8965 82.1967 52.9503 82.2572 53.0112 82.31L53.1312 82.41L53.3312 82.55L53.4912 82.63L53.7212 82.75H53.8112H53.9312H54.0712H54.1512L54.4412 82.82L54.7212 82.87H55.4212H57.0812H57.4312L59.0112 83.19H60.0112L61.7012 83H62.3612H62.4512C63.3712 82.91 64.2812 82.82 65.1812 82.7L65.9112 82.6C66.5812 82.52 67.2412 82.42 67.9112 82.32L68.3412 82.25L68.6612 82.19C69.8612 81.99 71.0512 81.76 72.2212 81.5L72.7712 81.38C73.9612 81.11 75.1412 80.81 76.2912 80.49H76.4012L76.6712 80.41C77.7046 80.11 78.7046 79.7767 79.6712 79.41L80.0112 79.3C81.0112 78.95 82.0112 78.57 83.0112 78.17L83.5712 77.94C84.5712 77.54 85.4512 77.12 86.3512 76.68L86.8112 76.45C87.7512 75.98 88.6712 75.45 89.5512 74.99C90.2012 74.61 90.8212 74.22 91.4312 73.83L91.6012 73.72L92.3012 73.24L92.8812 72.84L93.8212 72.14L94.2812 71.8C94.7312 71.45 95.1612 71.1 95.5712 70.74C95.9712 70.4 96.3612 70.04 96.7312 69.74C97.2012 69.29 97.6512 68.83 98.0712 68.37L98.4112 67.98C98.7112 67.6267 99.0012 67.2933 99.2812 66.98C99.3412 66.9 99.4212 66.82 99.4812 66.75L99.6812 66.45C99.8712 66.2 100.051 65.95 100.221 65.69L100.601 65.12C100.771 64.86 100.931 64.6 101.081 64.33C101.231 64.06 101.241 64.08 101.311 63.95C101.381 63.82 101.371 63.82 101.411 63.76C101.531 63.53 101.641 63.3 101.751 63.07C101.861 62.84 101.961 62.65 102.061 62.44C102.161 62.23 102.251 61.97 102.341 61.74C102.431 61.51 102.481 61.43 102.541 61.27C102.601 61.11 102.541 61.15 102.541 61.09C102.541 61.03 102.691 60.66 102.761 60.44C102.831 60.22 102.901 59.98 102.961 59.76C103.021 59.54 103.071 59.31 103.121 59.09C103.171 58.87 103.201 58.76 103.231 58.59C103.237 58.5268 103.237 58.4632 103.231 58.4C103.231 58.17 103.301 57.94 103.341 57.71C103.381 57.48 103.401 57.26 103.421 57.03C103.441 56.8 103.421 56.56 103.421 56.33C103.421 56.1 103.421 56 103.421 55.83C103.421 55.66 103.421 55.57 103.421 55.45V47.06C103.651 47.35 103.621 47.64 103.611 47.94Z" fill="url(#paint1_linear)"/>
<path d="M50.9312 30C50.0018 30.0428 49.0907 29.7319 48.3812 29.13C48.2496 28.9934 48.1535 28.8266 48.1014 28.6442C48.0492 28.4618 48.0426 28.2693 48.082 28.0838C48.1215 27.8982 48.2059 27.7252 48.3278 27.5798C48.4497 27.4345 48.6054 27.3212 48.7812 27.25C49.4322 26.8787 50.1721 26.692 50.9212 26.71C51.2876 26.7047 51.6533 26.7416 52.0112 26.82C53.2612 27.12 54.0112 27.9 53.7212 28.66C53.4771 29.0749 53.1272 29.4175 52.7073 29.6529C52.2874 29.8883 51.8126 30.0081 51.3312 30H50.9312Z" fill="#5A5AAF"/>
<path d="M20.2714 40.91C19.3415 40.949 18.4333 40.6224 17.7414 40C17.1714 39.4 17.3414 38.63 18.1414 38.12C18.795 37.7564 19.5336 37.5734 20.2814 37.59C20.6447 37.5898 21.0069 37.6301 21.3614 37.71C22.6014 38 23.3614 38.79 23.0814 39.55C22.8306 39.9582 22.4768 40.2933 22.0555 40.5215C21.6342 40.7497 21.1603 40.863 20.6814 40.85L20.2714 40.91Z" fill="#5A5AAF"/>
<path d="M57.5714 45.7C57.0962 45.7268 56.6205 45.6563 56.1734 45.493C55.7264 45.3296 55.3174 45.0768 54.9714 44.75C54.4714 44.13 54.7014 43.38 55.5414 42.89C56.159 42.5694 56.8455 42.4047 57.5414 42.41C58.0798 42.406 58.6148 42.4974 59.1214 42.68C60.1214 43.06 60.6014 43.79 60.3114 44.45C60.0319 44.8496 59.6565 45.1726 59.2197 45.3892C58.7829 45.6059 58.2986 45.7093 57.8114 45.69L57.5714 45.7Z" fill="#5A5AAF"/>
<path d="M81.9513 54.9C76.6513 54.9 72.3313 52.43 72.3313 49.38C72.3313 46.33 76.6513 43.87 81.9513 43.87C87.2513 43.87 91.5713 46.34 91.5713 49.38C91.5713 52.42 87.2513 54.9 81.9513 54.9ZM81.9513 47.16C79.8113 47.16 78.0613 48.16 78.0613 49.38C78.0613 50.6 79.8113 51.61 81.9513 51.61C84.0913 51.61 85.8413 50.61 85.8413 49.38C85.8413 48.15 84.0913 47.16 81.9513 47.16Z" fill="#5A5AAF"/>
<path d="M63.4812 67.11C57.6912 67.11 52.9912 64.41 52.9912 61.11C52.9912 57.81 57.6912 55.11 63.4812 55.11C69.2712 55.11 74.0112 57.77 74.0112 61.09C74.0112 64.41 69.2712 67.11 63.4812 67.11ZM63.4812 58.36C60.8612 58.36 58.7212 59.59 58.7212 61.09C58.7212 62.59 60.8612 63.82 63.4812 63.82C66.1012 63.82 68.2412 62.59 68.2412 61.09C68.2412 59.59 66.1112 58.36 63.4812 58.36Z" fill="#5A5AAF"/>
<path d="M88.0113 40.91C87.0617 40.9607 86.1306 40.6335 85.4213 40C84.8613 39.4 85.0313 38.63 85.8313 38.12C86.5006 37.7633 87.2538 37.594 88.0113 37.63C88.3747 37.6298 88.7369 37.6701 89.0913 37.75C90.3313 38.04 91.0913 38.83 90.8013 39.59C90.5529 39.9981 90.201 40.3334 89.7813 40.5617C89.3616 40.79 88.8889 40.9032 88.4113 40.89L88.0113 40.91Z" fill="#5A5AAF"/>
<path d="M68.4913 40.91C63.1913 40.91 58.8813 38.44 58.8813 35.4C58.8813 32.36 63.1913 29.88 68.4913 29.88C73.7913 29.88 78.1113 32.35 78.1113 35.4C78.1113 38.45 73.8013 40.91 68.4913 40.91ZM68.4913 33.17C66.3513 33.17 64.6113 34.17 64.6113 35.4C64.6113 36.63 66.3513 37.63 68.4913 37.63C70.6313 37.63 72.3814 36.63 72.3814 35.4C72.3814 34.17 70.6313 33.17 68.4913 33.17Z" fill="#5A5AAF"/>
<path d="M39.5713 45.45C34.0913 45.45 29.6313 42.89 29.6313 39.75C29.6313 36.61 34.0913 34.05 39.5713 34.05C45.0513 34.05 49.5113 36.6 49.5113 39.75C49.5113 42.9 45.0113 45.45 39.5713 45.45ZM39.5713 37.34C37.2513 37.34 35.3613 38.41 35.3613 39.75C35.3613 41.09 37.2513 42.16 39.5713 42.16C41.8913 42.16 43.7813 41.08 43.7813 39.75C43.7813 38.42 41.8913 37.34 39.5713 37.34Z" fill="#5A5AAF"/>
<path d="M63.4812 51.91C62.9935 51.9443 62.5042 51.8726 62.0468 51.7C61.5894 51.5274 61.1747 51.2579 60.8312 50.91C60.3712 50.28 60.6712 49.52 61.5612 49.06C62.165 48.7772 62.8245 48.6337 63.4912 48.64C63.9448 48.6365 64.3965 48.7005 64.8312 48.83C66.0412 49.2 66.6112 50.02 66.2212 50.76C65.9178 51.1536 65.5214 51.4656 65.0676 51.6681C64.6138 51.8705 64.1168 51.9571 63.6212 51.92L63.4812 51.91Z" fill="#5A5AAF"/>
<path d="M45.1713 53.22C44.8046 53.2207 44.439 53.1805 44.0813 53.1C42.8313 52.8 42.0813 52.02 42.3713 51.26C42.62 50.8572 42.9717 50.5281 43.39 50.3066C43.8084 50.0851 44.2783 49.9792 44.7513 50H45.1713C46.0948 49.9563 47 50.2676 47.7013 50.87C48.2713 51.48 48.1013 52.24 47.3013 52.75C46.6466 53.0957 45.9107 53.258 45.1713 53.22Z" fill="#5A5AAF"/>
<defs>
<linearGradient id="paint0_linear" x1="81.3712" y1="74.44" x2="32.3912" y2="16.07" gradientUnits="userSpaceOnUse">
<stop stop-color="#444096"/>
<stop offset="0.02" stop-color="#444096"/>
<stop offset="0.4" stop-color="#444096"/>
<stop offset="0.65" stop-color="#3F3A8F"/>
<stop offset="1" stop-color="#332A7C"/>
</linearGradient>
<linearGradient id="paint1_linear" x1="27.6512" y1="22.97" x2="85.5412" y2="80.86" gradientUnits="userSpaceOnUse">
<stop offset="0.01" stop-color="#FF6E83"/>
<stop offset="0.52" stop-color="#F25767"/>
<stop offset="0.74" stop-color="#E35061"/>
<stop offset="1" stop-color="#CC4458"/>
</linearGradient>
</defs>
</svg>
