<svg width="110" height="100" viewBox="0 0 110 100" fill="none" xmlns="http://www.w3.org/2000/svg">
<path d="M95.6146 74.7138L93.7825 73.6541C93.5233 73.522 93.2365 73.4531 92.9456 73.4531C92.6547 73.4531 92.3679 73.522 92.1088 73.6541L89.9499 74.902L58.1701 68.5539L43.3151 59.9479L44.7708 59.1061C44.9503 59.0444 45.106 58.9282 45.2162 58.7738C45.3264 58.6193 45.3857 58.4343 45.3857 58.2445C45.3857 58.0548 45.3264 57.8698 45.2162 57.7153C45.106 57.5609 44.9503 57.4447 44.7708 57.383L35.0656 51.8074C30.5199 49.183 23.1816 49.183 18.5864 51.8074L12.4167 55.3726C7.86112 57.997 7.86112 62.3049 12.4167 64.8897L22.0724 70.4653C22.5331 70.6977 23.0419 70.8188 23.5579 70.8188C24.0739 70.8188 24.5827 70.6977 25.0434 70.4653L26.7171 69.4749L41.4037 77.9522L52.5747 96.5011L50.4157 97.749C49.9503 98.0163 49.9503 98.4422 50.4157 98.7393L52.238 99.7989C52.4971 99.9311 52.7839 100 53.0748 100C53.3657 100 53.6525 99.9311 53.9116 99.7989L95.6146 75.6744C95.716 75.6414 95.8044 75.5772 95.867 75.4909C95.9297 75.4046 95.9634 75.3007 95.9634 75.1941C95.9634 75.0875 95.9297 74.9836 95.867 74.8973C95.8044 74.811 95.716 74.7468 95.6146 74.7138Z" fill="#F6F6FC"/>
<path d="M24.568 35.556V58.9873C24.604 59.6676 24.8026 60.3293 25.1472 60.9169C25.4919 61.5045 25.9725 62.0009 26.5487 62.3643L30.5991 64.7015C30.7984 64.8465 31.0324 64.9365 31.2774 64.9626C31.5225 64.9886 31.7701 64.9498 31.9955 64.8501C32.2416 64.7337 32.4548 64.5578 32.6157 64.3381C32.7765 64.1185 32.8799 63.8621 32.9165 63.5923L34.4812 39.24L24.568 35.556Z" fill="url(#paint0_linear)"/>
<path d="M32.5402 40.161V63.5923C32.5663 63.8328 32.5267 64.0759 32.4255 64.2957C32.3244 64.5154 32.1655 64.7036 31.9658 64.8402L37.3631 61.7107C37.565 61.5674 37.7242 61.3719 37.8236 61.1451C37.923 60.9184 37.959 60.6689 37.9276 60.4233V37.0316L32.5402 40.161Z" fill="#5A5AAF"/>
<path d="M83.8791 18.0073L59.715 22.3648C63.5277 21.7111 66.3007 24.2662 66.3898 29.1485C66.2933 33.1087 65.0553 36.9568 62.8246 40.2304C61.3333 42.5903 59.367 44.6138 57.051 46.1724L56.6152 46.4497C52.1785 49.0939 48.3558 48.0441 46.9694 44.261L54.694 67.3556C57.764 75.7735 66.37 78.5761 76.2337 72.6836C76.5506 72.4954 77.333 72.238 77.6499 72.03C82.9284 68.5395 87.4376 64.0067 90.9006 58.71C95.8522 51.0646 99.2689 41.3396 99.1302 33.3773C98.9322 22.5331 92.3663 16.5713 83.8791 18.0073Z" fill="url(#paint1_linear)"/>
<path d="M45.6918 7.9356C43.3051 6.54913 39.9875 6.77691 36.3431 8.92593C30.1931 12.6694 25.1424 20.6713 24.0134 27.9899C23.8454 29.0742 23.7692 30.1707 23.7856 31.2679C23.855 35.1797 25.2711 37.9328 27.5192 39.24C29.0049 40.058 30.7046 40.4034 32.3916 40.2304C34.3804 39.9925 36.2915 39.316 37.987 38.2497C44.9788 34.0507 50.178 24.8208 50.079 16.8486C49.9899 14.9373 49.772 10.461 45.6918 7.9356Z" fill="#F25767"/>
<path d="M34.6298 1.56775C34.4357 1.45174 34.2338 1.34917 34.0257 1.26075C31.8052 0.133373 29.2817 -0.251929 26.8259 0.161479C24.0933 0.642278 21.5293 1.81515 19.3786 3.56823C16.6944 5.73652 14.5062 8.45498 12.9613 11.5404C11.3286 14.663 10.4597 18.1282 10.426 21.6517C10.6142 28.0295 13.813 31.2481 16.4572 32.8227L27.5192 39.24C25.2711 37.9328 23.8549 35.1797 23.7856 31.3174C23.6371 23.2462 29.2622 13.2834 36.3431 9.04477C39.9875 6.86604 43.2754 6.63826 45.6918 8.05444L34.6298 1.56775Z" fill="url(#paint2_linear)"/>
<path d="M46.1375 10.8373C44.0479 9.62907 41.1858 9.84695 37.9573 11.7385C31.7777 15.4423 26.826 24.1672 26.9646 31.2282C27.0241 34.6548 28.262 37.0613 30.2327 38.2101L44.652 46.6378L60.6162 19.2254L46.1375 10.8373Z" fill="url(#paint3_linear)"/>
<path d="M63.4573 39.2013C67.3649 32.4766 67.3775 25.1918 63.4855 22.9303C59.5935 20.6687 53.2707 24.2868 49.3631 31.0115C45.4556 37.7362 45.4429 45.021 49.3349 47.2825C53.2269 49.5441 59.5497 45.926 63.4573 39.2013Z" fill="#D26AE9"/>
<path d="M77.1881 47.1944C80.7487 41.0272 80.7476 34.3606 77.1856 32.3041C73.6236 30.2476 67.8496 33.5799 64.289 39.7471C60.7284 45.9142 60.7295 52.5809 64.2915 54.6374C67.8535 56.6939 73.6275 53.3616 77.1881 47.1944Z" fill="#5A5AAF"/>
<path d="M66.1521 46.1229C66.1521 49.0443 68.2021 50.2327 70.7373 48.7671C72.0693 47.8984 73.1782 46.7288 73.9747 45.3525C74.7713 43.9763 75.233 42.432 75.3226 40.8444C75.3226 37.8734 73.2726 36.7246 70.7373 38.1903C69.4041 39.0599 68.2943 40.2311 67.4978 41.6092C66.7012 42.9873 66.2402 44.5336 66.1521 46.1229Z" fill="#332A7C"/>
<path d="M77.2439 32.3374L64.4586 24.9396C62.8048 23.9493 60.4973 24.078 57.9521 25.5437C52.9114 28.4553 48.8312 35.5164 48.8312 41.3297C48.8312 44.2016 49.8215 46.2813 51.4457 47.2023L64.2606 54.6001C62.6463 53.6098 61.6461 51.6291 61.6461 48.7373C61.6461 42.9241 65.7362 35.863 70.7671 32.892C73.2825 31.4758 75.59 31.3471 77.2439 32.3374Z" fill="#332A7C"/>
<path d="M42.087 43.4391L51.3863 67.3556C50.4436 64.7931 49.9608 62.0842 49.9602 59.3537C49.6829 44.4195 60.1012 25.9498 73.2231 18.1063C75.8874 16.4404 78.851 15.3102 81.948 14.7788L56.536 18.552C55.0689 18.7986 53.6652 19.3338 52.4063 20.1266C46.2167 23.8305 41.2849 32.5751 41.4136 39.6263C41.4199 40.9198 41.6477 42.2026 42.087 43.4193V43.4391Z" fill="url(#paint4_linear)"/>
<path d="M76.7289 74.1196C63.4089 82.0423 52.3766 76.229 52.0993 61.0472C51.822 45.8654 62.4087 27.1085 75.7287 19.1462C89.0487 11.1839 100.111 17.0368 100.358 32.2186C100.606 47.4004 90.0588 66.1573 76.7289 74.1196ZM98.4172 33.3773C98.13 19.4235 88.0286 14.046 75.7683 21.3645C63.508 28.6831 53.7928 45.9248 54.0503 59.8885C54.3078 73.8522 64.4587 79.2396 76.6893 71.9012C88.9199 64.5629 98.6648 47.3311 98.4172 33.3773Z" fill="#F25767"/>
<path d="M76.6001 74.4167C85.0972 69.2174 90.6232 61.5424 93.7527 55.9272C96.8821 50.312 100.685 41.597 100.556 31.9314C100.552 31.9925 100.531 32.0513 100.496 32.1017C100.461 32.1522 100.414 32.1925 100.358 32.2186C100.635 47.3905 90.0587 66.1573 76.7288 74.1196C63.399 82.0819 52.3765 76.2686 52.0993 61.0472C51.822 45.8258 62.4086 27.1085 75.7286 19.1462C89.0486 11.1839 100.111 17.0368 100.358 32.2186C100.414 32.1925 100.461 32.1522 100.496 32.1017C100.531 32.0513 100.552 31.9925 100.556 31.9314C100.398 28.5147 100.002 20.5128 93.1981 16.3633C88.6128 13.7092 82.245 14.1549 75.2533 18.344C61.6659 26.4548 50.8712 45.5683 51.1584 61.0571C51.2971 68.5737 54.0106 73.8423 58.3284 76.3478C60.7751 77.723 63.5885 78.3044 66.3799 78.0116C70.0133 77.5959 73.5065 76.3672 76.6001 74.4167Z" fill="#FF6E83"/>
<path d="M91.6137 15.4522C90.8722 15.0327 90.0846 14.7004 89.2666 14.4619H89.1775L88.7715 14.3332C86.2164 13.5706 82.9087 13.4319 78.1947 15.0957C75.8235 15.9994 73.5719 17.1901 71.4901 18.6411C68.7033 20.5696 66.145 22.809 63.8646 25.316C56.3875 33.1792 49.0096 47.5985 49.3859 59.9776C49.3556 63.3987 50.0934 66.7829 51.5448 69.881C52.0566 70.9898 52.7235 72.0202 53.5255 72.9411C52.743 71.9949 52.0779 70.9574 51.5448 69.8512C52.2327 71.2997 53.1639 72.6195 54.2979 73.7532C54.0305 73.5056 53.7632 73.2382 53.4958 72.9411C54.3715 73.8846 55.3992 74.6746 56.5361 75.2783L56.3182 75.1297L56.754 75.407L58.3286 76.3181C54.0107 73.8126 51.2972 68.544 51.1586 61.0274C50.8714 45.5683 61.666 26.4548 75.2534 18.3341C82.2452 14.1549 88.613 13.7092 93.1982 16.3534L91.6137 15.4522Z" fill="#CC4458"/>
<path d="M20.7156 31.0599L13.704 27.0094C13.3109 26.7713 12.9785 26.4452 12.7327 26.0569C12.487 25.6685 12.3347 25.2284 12.2878 24.7713C12.2878 23.9889 12.9217 23.7215 13.704 24.1771L20.7156 28.2176C21.1118 28.4556 21.4469 28.7827 21.6945 29.173C21.9421 29.5632 22.0952 30.0059 22.1417 30.4657C22.1417 31.2381 21.5078 31.5055 20.7156 31.0599Z" fill="#5A5AAF"/>
<path d="M45.375 7.78704C45.0605 7.60599 44.7288 7.4567 44.3847 7.34139C43.1704 6.93263 41.8725 6.83725 40.6115 7.0641C38.8454 7.38767 37.1619 8.06109 35.6598 9.04477C35.2346 9.30501 34.8246 9.58937 34.4318 9.89645C34.0113 10.2043 33.608 10.5349 33.2236 10.8868C32.4254 11.5643 31.6712 12.292 30.9657 13.0655C29.6059 14.5903 28.4047 16.2494 27.3807 18.0172C26.908 18.831 26.4814 19.6709 26.1031 20.5326C25.7466 21.3645 25.4198 22.1469 25.1821 22.8896C24.9422 23.561 24.7405 24.2454 24.578 24.9396C24.4196 25.5536 24.3304 26.0983 24.2314 26.544C24.1026 27.4452 24.0333 27.9601 24.0333 27.9601C24.0333 27.9601 24.1621 27.4551 24.37 26.5737C24.7013 25.3732 25.1014 24.1927 25.5683 23.0382C25.8456 22.3152 26.2022 21.5626 26.5587 20.7703C26.9152 19.978 27.4104 19.1759 27.8956 18.344C28.9246 16.6193 30.1257 15.0034 31.4806 13.5211C32.1599 12.7679 32.8877 12.0599 33.6594 11.4018C34.0357 11.065 34.412 10.7382 34.7983 10.4114C35.1832 10.1108 35.5831 9.8298 35.9966 9.56964C37.4137 8.58004 39.007 7.87075 40.6907 7.48004C41.8914 7.18815 43.1444 7.18815 44.3451 7.48004C44.6827 7.56883 45.0136 7.68135 45.3354 7.81675L45.6721 7.97521L45.375 7.78704Z" fill="#CC4458"/>
<defs>
<linearGradient id="paint0_linear" x1="29.5197" y1="37.1306" x2="26.7962" y2="95.0651" gradientUnits="userSpaceOnUse">
<stop stop-color="#444096"/>
<stop offset="0.02" stop-color="#444096"/>
<stop offset="0.4" stop-color="#444096"/>
<stop offset="0.65" stop-color="#3F3A8F"/>
<stop offset="1" stop-color="#332A7C"/>
</linearGradient>
<linearGradient id="paint1_linear" x1="3592.1" y1="2391.18" x2="2007.83" y2="3721.97" gradientUnits="userSpaceOnUse">
<stop stop-color="#444096"/>
<stop offset="0.02" stop-color="#444096"/>
<stop offset="0.4" stop-color="#444096"/>
<stop offset="0.65" stop-color="#3F3A8F"/>
<stop offset="1" stop-color="#332A7C"/>
</linearGradient>
<linearGradient id="paint2_linear" x1="906.53" y1="50.6197" x2="153.645" y2="1222.41" gradientUnits="userSpaceOnUse">
<stop stop-color="#444096"/>
<stop offset="0.02" stop-color="#444096"/>
<stop offset="0.4" stop-color="#444096"/>
<stop offset="0.65" stop-color="#3F3A8F"/>
<stop offset="1" stop-color="#332A7C"/>
</linearGradient>
<linearGradient id="paint3_linear" x1="1399.72" y1="479.029" x2="791.108" y2="1449.75" gradientUnits="userSpaceOnUse">
<stop stop-color="#444096"/>
<stop offset="0.02" stop-color="#444096"/>
<stop offset="0.4" stop-color="#444096"/>
<stop offset="0.65" stop-color="#3F3A8F"/>
<stop offset="1" stop-color="#332A7C"/>
</linearGradient>
<linearGradient id="paint4_linear" x1="1565.6" y1="2697.77" x2="3140.81" y2="857.306" gradientUnits="userSpaceOnUse">
<stop stop-color="#444096"/>
<stop offset="0.02" stop-color="#444096"/>
<stop offset="0.4" stop-color="#444096"/>
<stop offset="0.65" stop-color="#3F3A8F"/>
<stop offset="1" stop-color="#332A7C"/>
</linearGradient>
</defs>
</svg>
