<svg width="110" height="100" viewBox="0 0 110 100" fill="none" xmlns="http://www.w3.org/2000/svg">
<path d="M102.605 94.5561L71.4635 76.5852C71.1108 76.4059 70.7207 76.3124 70.325 76.3124C69.9293 76.3124 69.5392 76.4059 69.1864 76.5852L69.0047 76.6921L62.4727 72.9183C72.4685 65.6059 71.5918 54.9046 59.8856 48.1375C47.2921 40.8679 26.8623 40.8679 14.3543 48.1375C1.84627 55.4071 1.91042 67.2416 14.504 74.5112C26.1781 81.2463 44.5553 81.7274 57.1488 75.9865L63.6915 79.7603L63.5097 79.8672C63.3726 79.9141 63.2536 80.0027 63.1693 80.1206C63.0851 80.2385 63.0398 80.3798 63.0398 80.5247C63.0398 80.6696 63.0851 80.8109 63.1693 80.9288C63.2536 81.0467 63.3726 81.1353 63.5097 81.1822L94.6408 99.1531C94.9935 99.3324 95.3836 99.4259 95.7793 99.4259C96.175 99.4259 96.5652 99.3324 96.9179 99.1531L102.605 95.8711C102.742 95.8242 102.861 95.7356 102.946 95.6177C103.03 95.4998 103.075 95.3585 103.075 95.2136C103.075 95.0687 103.03 94.9274 102.946 94.8095C102.861 94.6916 102.742 94.603 102.605 94.5561Z" fill="#F6F6FC"/>
<path d="M68.0747 25.73V32.3688C68.0747 27.7719 65.0493 23.1642 58.9877 19.6577C46.918 12.6981 27.3648 12.6981 15.37 19.6577C9.42599 23.1214 6.44331 27.6543 6.43262 32.1978V25.5482C6.43262 21.0047 9.42599 16.4719 15.37 13.0081C27.3541 6.04854 46.918 6.04854 58.9877 13.0081C64.9958 16.5146 68.0747 21.1223 68.0747 25.73Z" fill="url(#paint0_linear)"/>
<path d="M15.3165 16.9957C27.3006 10.0254 46.8645 10.0254 58.9342 16.9957C64.4933 20.2029 67.4867 24.3509 67.9463 28.563C68.4702 23.6132 65.4661 18.5566 58.9342 14.7828C46.8645 7.82317 27.3006 7.82317 15.3165 14.7828C8.90209 18.5352 5.91941 23.5491 6.44325 28.4667C6.88156 24.2867 9.83217 20.1815 15.3165 16.9957Z" fill="#332A7C"/>
<path opacity="0.25" d="M15.4661 42.279C27.5251 49.2386 47.0889 49.2386 59.0624 42.279C71.0359 35.3194 70.9931 23.9767 58.9341 17.0171C46.8751 10.0575 27.3006 10.0468 15.3164 17.0171C3.33222 23.9874 3.39636 35.2874 15.4661 42.279Z" fill="#F6F6FC"/>
<path d="M69.3682 25.73V32.3795C69.3682 37.1261 66.2358 41.8621 60.0246 45.4755C47.5166 52.7451 27.0868 52.7451 14.504 45.4755C8.20718 41.8086 5 36.9979 5 32.1978V25.5482C5 30.3483 8.20718 35.1698 14.4826 38.826C27.0761 46.0956 47.5059 46.0956 60.0139 38.826C66.2251 35.2125 69.3361 30.4766 69.3468 25.73H69.3682Z" fill="url(#paint1_linear)"/>
<path d="M59.8856 12.4522C72.4792 19.7218 72.5433 31.5563 60.0353 38.826C47.5273 46.0956 27.0975 46.0956 14.504 38.826C1.91042 31.5563 1.84627 19.7218 14.3543 12.4522C26.8623 5.1826 47.2921 5.1826 59.8856 12.4522ZM15.4661 38.27C27.5251 45.2296 47.089 45.2296 59.0624 38.27C71.0359 31.3105 70.9932 19.9677 58.9342 13.0081C46.8751 6.04854 27.3006 6.04854 15.3164 13.0081C3.33227 19.9677 3.39641 31.2998 15.4661 38.27Z" fill="#F25767"/>
<path d="M65.8191 48.5437C65.8191 50.1901 66.9737 50.8636 68.4062 50.0404C69.1579 49.5483 69.7835 48.8866 70.2329 48.1086C70.6822 47.3306 70.9427 46.458 70.9933 45.561C70.9933 43.9147 69.8281 43.2412 68.4062 44.0644C67.6528 44.5546 67.0258 45.2158 66.5762 45.9942C66.1266 46.7726 65.8672 47.6461 65.8191 48.5437Z" fill="#8712BA"/>
<path d="M70.2128 43.8933L61.8848 39.0718C61.5897 38.9314 61.2621 38.8732 60.9366 38.9033C60.6111 38.9334 60.2998 39.0507 60.0354 39.2429C59.2837 39.735 58.658 40.3967 58.2087 41.1747C57.7594 41.9527 57.4989 42.8253 57.4482 43.7223C57.4177 44.0402 57.4695 44.3606 57.5987 44.6527C57.7279 44.9448 57.9301 45.1987 58.1859 45.39L66.5566 50.2222C66.2993 50.0323 66.0959 49.7786 65.9665 49.4862C65.8371 49.1937 65.7863 48.8725 65.819 48.5544C65.8671 47.6568 66.1265 46.7833 66.5761 46.0049C67.0257 45.2265 67.6527 44.5653 68.4061 44.0751C68.6644 43.888 68.9676 43.7726 69.285 43.7407C69.6023 43.7088 69.9224 43.7614 70.2128 43.8933Z" fill="url(#paint2_linear)"/>
<path d="M96.1909 68.1824C96.1909 70.994 98.1687 72.1272 100.595 70.7268C101.878 69.8903 102.945 68.7631 103.71 67.4369C104.476 66.1106 104.918 64.6226 105 63.0937C105 61.2549 104.145 60.1324 102.862 59.972C102.06 59.9212 101.262 60.1271 100.585 60.56C99.305 61.396 98.2403 62.5218 97.4769 63.8461C96.7135 65.1704 96.273 66.656 96.1909 68.1824Z" fill="#332A7C"/>
<path d="M103.738 60.2606L72.276 42.0866C71.7755 41.8491 71.22 41.7515 70.6685 41.8042C70.117 41.8569 69.5901 42.0579 69.1436 42.3859C67.8601 43.2188 66.792 44.3437 66.0265 45.6685C65.2609 46.9933 64.8198 48.4804 64.7391 50.0083C64.6832 50.5496 64.7703 51.0961 64.9917 51.5932C65.213 52.0904 65.5609 52.5207 66.0006 52.8414L97.4524 71.0154C97.0127 70.6948 96.6648 70.2644 96.4435 69.7673C96.2221 69.2702 96.135 68.7237 96.1909 68.1824C96.2741 66.6551 96.7163 65.1689 97.4816 63.8445C98.2469 62.5201 99.3137 61.3948 100.595 60.56C101.044 60.2321 101.573 60.0312 102.126 59.9785C102.679 59.9258 103.236 60.0233 103.738 60.2606Z" fill="url(#paint3_linear)"/>
<path style="mix-blend-mode:screen" d="M96.1909 68.1824C97.2599 62.8371 100.916 59.9506 102.872 59.972C100.371 59.0954 95.6456 63.5961 96.1909 68.1824Z" fill="url(#paint4_radial)"/>
<defs>
<linearGradient id="paint0_linear" x1="6.35778" y1="20.0746" x2="68.0212" y2="20.0746" gradientUnits="userSpaceOnUse">
<stop stop-color="#444096"/>
<stop offset="0.02" stop-color="#444096"/>
<stop offset="0.4" stop-color="#444096"/>
<stop offset="0.65" stop-color="#3F3A8F"/>
<stop offset="1" stop-color="#332A7C"/>
</linearGradient>
<linearGradient id="paint1_linear" x1="5" y1="767.138" x2="3880.61" y2="767.138" gradientUnits="userSpaceOnUse">
<stop stop-color="#444096"/>
<stop offset="0.02" stop-color="#444096"/>
<stop offset="0.4" stop-color="#444096"/>
<stop offset="0.65" stop-color="#3F3A8F"/>
<stop offset="1" stop-color="#332A7C"/>
</linearGradient>
<linearGradient id="paint2_linear" x1="65.1455" y1="40.9427" x2="61.4893" y2="47.2822" gradientUnits="userSpaceOnUse">
<stop offset="0.01" stop-color="#FF6E83"/>
<stop offset="0.52" stop-color="#F25767"/>
<stop offset="0.74" stop-color="#E35061"/>
<stop offset="1" stop-color="#CC4458"/>
</linearGradient>
<linearGradient id="paint3_linear" x1="2244.93" y1="1392.29" x2="3668.22" y2="1392.29" gradientUnits="userSpaceOnUse">
<stop stop-color="#444096"/>
<stop offset="0.02" stop-color="#444096"/>
<stop offset="0.4" stop-color="#444096"/>
<stop offset="0.65" stop-color="#3F3A8F"/>
<stop offset="1" stop-color="#332A7C"/>
</linearGradient>
<radialGradient id="paint4_radial" cx="0" cy="0" r="1" gradientUnits="userSpaceOnUse" gradientTransform="translate(101.643 59.8758) scale(10.8296)">
<stop stop-color="#F25767"/>
<stop offset="0.04" stop-color="#C64754"/>
<stop offset="0.08" stop-color="#9D3843"/>
<stop offset="0.13" stop-color="#772B33"/>
<stop offset="0.19" stop-color="#571F25"/>
<stop offset="0.25" stop-color="#3B1519"/>
<stop offset="0.31" stop-color="#250D10"/>
<stop offset="0.39" stop-color="#140709"/>
<stop offset="0.49" stop-color="#090304"/>
<stop offset="0.62" stop-color="#020101"/>
<stop offset="1"/>
</radialGradient>
</defs>
</svg>
