<svg width="110" height="100" viewBox="0 0 110 100" fill="none" xmlns="http://www.w3.org/2000/svg">
<path d="M76.633 43.676L68.7775 48.2465C68.5753 48.3538 68.3414 48.385 68.1183 48.3344C67.4773 48.226 66.8601 48.0066 66.2944 47.6862C65.7604 47.3949 65.3102 46.9711 64.987 46.4557C64.6941 45.9922 64.285 45.6134 63.8004 45.357C61.6031 44.1045 57.9774 44.2583 56.1756 45.7964C55.9217 45.9736 55.7144 46.2095 55.5713 46.484C55.4281 46.7585 55.3534 47.0635 55.3534 47.3731C55.3534 47.6826 55.4281 47.9876 55.5713 48.2621C55.7144 48.5366 55.9217 48.7725 56.1756 48.9497C56.3721 49.1243 56.5856 49.2789 56.8128 49.4111C57.4025 49.7373 58.0404 49.9673 58.7026 50.0923C59.4717 50.2283 60.2138 50.488 60.8999 50.8614C61.3487 51.1056 61.7271 51.4613 61.9986 51.8941C62.0755 52.037 61.9986 52.1908 61.8338 52.2897L54.5495 56.5525L47.6718 52.5753C47.3701 52.4209 47.0402 52.3295 46.7021 52.3069C46.3639 52.2842 46.0247 52.3307 45.7052 52.4435C44.8555 52.7241 44.1269 53.286 43.6396 54.0366C43.1597 54.7096 42.473 55.2073 41.684 55.4539C39.9091 56.0958 37.9654 56.0958 36.1906 55.4539C35.9263 55.3506 35.6693 55.2295 35.4215 55.0913C33.4878 53.9926 33.4878 52.1578 35.4215 51.0372C36.0249 50.7046 36.6778 50.4709 37.3552 50.345C38.3526 50.1983 39.2931 49.7887 40.0799 49.1584C40.4754 48.7958 40.3656 48.3234 39.8382 48.0597L32.3232 43.7309L54.4067 30.8434L76.633 43.676ZM41.8817 69.484C41.2982 69.1531 40.663 68.9229 40.003 68.8028C39.2547 68.6597 38.5324 68.4041 37.8606 68.0447C37.6439 67.9152 37.4381 67.7682 37.2453 67.6053C36.8388 67.2427 36.9487 66.7703 37.476 66.5066L44.2988 62.5404L36.6081 58.1456C36.4056 58.0399 36.1735 58.0051 35.9489 58.0467C35.3426 58.124 34.7583 58.3235 34.2314 58.6333C33.7045 58.943 33.2459 59.3564 32.8835 59.8486C32.4137 60.5409 31.725 61.0555 30.9279 61.3098C29.153 61.9518 27.2093 61.9518 25.4345 61.3098C25.1702 61.2066 24.9132 61.0855 24.6654 60.9473C22.7317 59.8486 22.7207 58.0138 24.6654 56.8931C25.2529 56.5622 25.8916 56.332 26.5551 56.2119C27.1888 56.1451 27.8025 55.9511 28.3594 55.6415C28.9163 55.3319 29.405 54.9131 29.7962 54.4101C29.8732 54.2673 29.7962 54.1245 29.6205 54.0256L22.0505 49.6308L0 62.4964L22.2263 75.318L29.6644 70.9892C29.9663 70.8249 30.2996 70.7262 30.6423 70.6997C30.985 70.6732 31.3294 70.7195 31.653 70.8354C31.9203 70.9317 32.1778 71.0531 32.4221 71.198C32.9495 71.4847 33.3956 71.9005 33.7185 72.4065C34.0167 72.8656 34.4245 73.2432 34.9051 73.5052C37.1025 74.7577 40.7391 74.6039 42.5959 73.0547C42.8497 72.8775 43.057 72.6417 43.2002 72.3672C43.3433 72.0927 43.4181 71.7877 43.4181 71.4781C43.4181 71.1686 43.3433 70.8635 43.2002 70.5891C43.057 70.3146 42.8497 70.0787 42.5959 69.9015C42.373 69.738 42.1336 69.5981 41.8817 69.484ZM87.7737 50.1143L80.3136 54.509C80.0122 54.664 79.6822 54.7557 79.3439 54.7784C79.0057 54.8011 78.6664 54.7543 78.347 54.6408C78.0779 54.5489 77.82 54.4273 77.5779 54.2783C77.0421 53.9983 76.5936 53.5764 76.2815 53.0587C75.9829 52.592 75.5659 52.2129 75.0729 51.96C72.8755 50.7076 69.2609 50.8614 67.4591 52.3995C67.2074 52.5783 67.0021 52.8146 66.8605 53.0889C66.7188 53.3632 66.6449 53.6674 66.6449 53.9761C66.6449 54.2848 66.7188 54.589 66.8605 54.8633C67.0021 55.1376 67.2074 55.374 67.4591 55.5527C67.6641 55.7215 67.8807 55.8756 68.1073 56.0142C68.6969 56.3404 69.3348 56.5704 69.997 56.6954C70.7361 56.828 71.4487 57.0803 72.1065 57.4425C72.3327 57.572 72.5461 57.7228 72.7437 57.8929C73.1502 58.2555 73.0513 58.7279 72.524 58.9916L65.6902 62.9579L73.0184 67.1878C73.2206 67.2943 73.453 67.3292 73.6776 67.2867C74.3039 67.2007 74.9048 66.9829 75.4408 66.6477C75.9767 66.3125 76.4355 65.8675 76.7869 65.342C77.2656 64.6582 77.951 64.146 78.7425 63.8807C80.5174 63.2388 82.461 63.2388 84.2359 63.8807C84.4967 63.984 84.75 64.1051 84.994 64.2433C86.9387 65.342 86.9606 67.1768 84.994 68.2974C84.4048 68.6332 83.7616 68.8638 83.0933 68.9786C82.4493 69.0402 81.8248 69.2328 81.258 69.5446C80.6912 69.8563 80.1941 70.2806 79.7972 70.7915C79.7313 70.9233 79.7972 71.0771 79.973 71.176L87.8945 75.7795L109.978 62.9469L87.7737 50.1143ZM70.1398 77.4275C69.6125 77.1308 69.5026 76.6474 69.8981 76.3288C70.686 75.705 71.6201 75.2928 72.6119 75.1312C73.2864 75.0075 73.936 74.7737 74.5346 74.4391C76.4572 73.3404 76.4353 71.5166 74.5346 70.3959C74.282 70.2563 74.0216 70.1316 73.7545 70.0224C71.9967 69.3908 70.0738 69.3908 68.316 70.0224C67.5225 70.284 66.8384 70.8019 66.3714 71.4946C65.8645 72.2238 65.1304 72.7646 64.2839 73.0328C63.9633 73.1482 63.6226 73.1969 63.2826 73.1762C62.9426 73.1554 62.6103 73.0655 62.3062 72.9119L55.4285 68.9347L48.1552 73.1426C47.9904 73.2415 47.9025 73.3843 47.9794 73.5272C48.2532 73.961 48.6308 74.3197 49.0781 74.5709C49.7633 74.9441 50.5059 75.2004 51.2755 75.329C51.9341 75.454 52.5685 75.684 53.1542 76.0102C53.3874 76.1385 53.6049 76.2933 53.8024 76.4716C54.0582 76.6462 54.268 76.8798 54.414 77.1528C54.56 77.4258 54.638 77.7301 54.6412 78.0396C54.6444 78.3492 54.5729 78.655 54.4326 78.931C54.2923 79.207 54.0874 79.445 53.8354 79.6249C52.0336 81.174 48.342 81.3168 46.2105 80.0643C45.7228 79.8082 45.3101 79.4296 45.013 78.9656C44.6966 78.4514 44.2491 78.0305 43.7165 77.7461C43.1494 77.4267 42.533 77.2039 41.8927 77.0869C41.6647 77.0399 41.4273 77.0749 41.2225 77.1858L33.3779 81.7453L55.5713 94.5779L77.6438 81.7453L70.1398 77.4275Z" fill="#F6F6FC"/>
<path d="M68.7774 34.4031C68.5737 34.5051 68.3416 34.536 68.1182 34.491C67.4786 34.3776 66.8622 34.1585 66.2944 33.8428C65.7626 33.5483 65.3131 33.1253 64.987 32.6123C64.6974 32.1461 64.2875 31.7666 63.8004 31.5136C61.6031 30.2611 57.9774 30.4149 56.1756 31.9531C55.9403 32.1362 55.7463 32.3668 55.6062 32.63C55.4661 32.8931 55.3831 33.1828 55.3625 33.4802V34.7107C55.3818 34.4068 55.464 34.1102 55.604 33.8398C55.7439 33.5693 55.9386 33.3309 56.1756 33.1396C57.9884 31.6015 61.669 31.4477 63.8004 32.7002C64.2879 32.9567 64.7005 33.3353 64.998 33.7988C65.318 34.3169 65.7689 34.7413 66.3054 35.0294C66.8679 35.3505 67.4809 35.5734 68.1182 35.6886C68.3339 35.7525 68.564 35.7486 68.7774 35.6776L76.633 31.1181V29.8326L68.7774 34.4031Z" fill="#5A5AAF"/>
<path d="M39.8272 34.1724L32.3123 29.7777V31.0192L39.8163 35.348C39.9487 35.4072 40.0632 35.5004 40.148 35.6181C40.2329 35.7358 40.2852 35.8738 40.2997 36.0182V34.8426C40.2863 34.6994 40.2356 34.5621 40.1527 34.4446C40.0699 34.327 39.9576 34.2331 39.8272 34.1724Z" fill="#292972"/>
<path d="M47.6719 38.699C47.3713 38.5414 47.0411 38.4482 46.7025 38.4255C46.3638 38.4028 46.0242 38.4511 45.7052 38.5671C44.8539 38.8446 44.1243 39.4072 43.6397 40.1602C43.1656 40.8461 42.4781 41.356 41.6841 41.6105C39.9092 42.2524 37.9655 42.2524 36.1906 41.6105C35.9263 41.5072 35.6694 41.3861 35.4216 41.2479C35.0381 41.0529 34.7114 40.7625 34.4728 40.4046C34.2341 40.0466 34.0917 39.6333 34.0592 39.2044V40.4459C34.1009 40.8837 34.2582 41.3026 34.5149 41.6598C34.7717 42.0169 35.1187 42.2994 35.5205 42.4784C35.7672 42.6187 36.0243 42.7399 36.2895 42.841C38.0644 43.483 40.0081 43.483 41.7829 42.841C42.5752 42.583 43.2593 42.069 43.7276 41.3797C44.2206 40.6345 44.9471 40.0742 45.7931 39.7867C46.1126 39.6732 46.4519 39.6264 46.7901 39.6491C47.1283 39.6718 47.4583 39.7634 47.7598 39.9185L54.6375 43.8957V42.6652L47.6719 38.699Z" fill="#292972"/>
<path d="M61.8228 38.4463L54.5496 42.6652V43.9067L61.8338 39.6768C61.8866 39.6505 61.9323 39.6118 61.9667 39.5639C62.0012 39.5161 62.0234 39.4605 62.0316 39.4021V38.1606C62.0263 38.2228 62.004 38.2823 61.9672 38.3327C61.9304 38.383 61.8805 38.4223 61.8228 38.4463Z" fill="#5A5AAF"/>
<path d="M54.4067 17L32.3123 29.8326L39.8272 34.2273C40.3546 34.535 40.4645 35.0074 40.0689 35.326C39.2788 35.9419 38.3449 36.3465 37.3552 36.5016C36.6902 36.6222 36.051 36.8563 35.4655 37.1938C33.5428 38.2924 33.5428 40.1272 35.4655 41.2479C35.7133 41.3861 35.9702 41.5072 36.2345 41.6105C38.0094 42.2524 39.9531 42.2524 41.728 41.6105C42.522 41.356 43.2095 40.8461 43.6836 40.1602C44.1682 39.4072 44.8978 38.8445 45.7491 38.5671C46.0681 38.4511 46.4077 38.4028 46.7464 38.4255C47.085 38.4482 47.4152 38.5414 47.7158 38.699L54.5935 42.6652L61.8668 38.4463C62.0426 38.3364 62.1085 38.1936 62.0316 38.0507C61.7578 37.6169 61.3802 37.2582 60.9329 37.007C60.2461 36.6374 59.5041 36.3814 58.7355 36.2489C58.0728 36.1203 57.4349 35.8866 56.8458 35.5567C56.6188 35.4283 56.4053 35.2774 56.2086 35.1063C55.9547 34.9291 55.7474 34.6932 55.6043 34.4187C55.4611 34.1442 55.3864 33.8392 55.3864 33.5297C55.3864 33.2201 55.4611 32.9151 55.6043 32.6406C55.7474 32.3661 55.9547 32.1302 56.2086 31.9531C58.0104 30.4149 61.702 30.2611 63.8334 31.5136C64.3205 31.7666 64.7304 32.1461 65.02 32.6123C65.3461 33.1253 65.7956 33.5483 66.3274 33.8428C66.8952 34.1585 67.5116 34.3776 68.1512 34.491C68.3746 34.536 68.6067 34.5051 68.8105 34.4031L76.666 29.8326L54.4067 17Z" fill="#444096"/>
<path d="M29.8293 40.5667C29.4412 41.073 28.9533 41.4941 28.3957 41.804C27.8382 42.114 27.223 42.3061 26.5882 42.3686C25.9254 42.4972 25.2875 42.7308 24.6984 43.0607C24.3025 43.2391 23.9607 43.519 23.708 43.8721C23.4552 44.2253 23.3003 44.639 23.2592 45.0713V46.3128C23.3007 45.8792 23.4555 45.4642 23.7081 45.1093C23.9608 44.7545 24.3023 44.4724 24.6984 44.2912C25.2898 43.9603 25.9322 43.7301 26.5991 43.6101C27.2323 43.5414 27.8454 43.3466 28.402 43.0371C28.9587 42.7277 29.4477 42.3098 29.8403 41.8082C29.8506 41.7723 29.8506 41.7342 29.8403 41.6984V40.4678C29.8462 40.5012 29.8424 40.5355 29.8293 40.5667Z" fill="#5A5AAF"/>
<path d="M37.476 52.6083C37.3448 52.6693 37.2315 52.763 37.1469 52.8803C37.0622 52.9977 37.0091 53.1347 36.9926 53.2785V54.509C37.0066 54.3659 37.0589 54.2291 37.144 54.1132C37.229 53.9972 37.3437 53.9062 37.476 53.8498L44.2988 49.8835V48.642L37.476 52.6083Z" fill="#5A5AAF"/>
<path d="M0 48.642V49.8835L22.2263 62.7052V61.4746L0 48.642Z" fill="#292972"/>
<path d="M42.5411 59.2443C40.7392 60.7934 37.0477 60.9363 34.9052 59.6838C34.4246 59.4218 34.0168 59.0442 33.7186 58.5851C33.3957 58.0791 32.9496 57.6633 32.4222 57.3765C32.1759 57.2322 31.9188 57.1073 31.6531 57.003C31.3329 56.8912 30.9933 56.8463 30.655 56.8708C30.3168 56.8954 29.9872 56.989 29.6865 57.1458L22.2264 61.4746V62.7052L29.6645 58.3763C29.966 58.2213 30.296 58.1296 30.6342 58.1069C30.9724 58.0842 31.3117 58.1311 31.6312 58.2445C31.9009 58.3432 32.1619 58.4645 32.4112 58.6071C32.9466 58.9015 33.397 59.3291 33.7186 59.8486C34.0091 60.3141 34.4188 60.6934 34.9052 60.9473C37.1026 62.1998 40.7282 62.0459 42.5301 60.4968C42.7747 60.3143 42.9755 60.0796 43.1181 59.8097C43.2606 59.5398 43.3412 59.2416 43.3541 58.9367V57.6512C43.3428 57.96 43.2642 58.2625 43.1238 58.5377C42.9833 58.8129 42.7845 59.054 42.5411 59.2443Z" fill="#5A5AAF"/>
<path d="M41.8817 55.6406C41.2966 55.3108 40.6623 55.0771 40.003 54.9485C39.252 54.8153 38.5281 54.5592 37.8606 54.1904C37.6419 54.0682 37.4358 53.9246 37.2453 53.7619C36.8388 53.3993 36.9487 52.9159 37.476 52.6083L44.2988 48.642L36.6081 44.2473C36.4056 44.1416 36.1735 44.1068 35.9489 44.1484C35.3259 44.2291 34.7267 44.4388 34.1894 44.7642C33.6521 45.0896 33.1887 45.5235 32.8286 46.0382C32.3557 46.7276 31.6681 47.2413 30.873 47.4994C29.0981 48.1414 27.1544 48.1414 25.3795 47.4994C25.1152 47.3962 24.8583 47.275 24.6105 47.1368C22.6768 46.0382 22.6658 44.2034 24.6105 43.0827C25.1995 42.7528 25.8375 42.5192 26.5002 42.3905C27.135 42.3281 27.7503 42.136 28.3078 41.826C28.8653 41.5161 29.3532 41.0949 29.7413 40.5887C29.8182 40.4568 29.7413 40.314 29.5655 40.2151L21.9956 35.8204L0 48.642L22.2263 61.4746L29.6644 57.1458C29.9651 56.989 30.2947 56.8954 30.6329 56.8708C30.9712 56.8463 31.3109 56.8912 31.631 57.003C31.8967 57.1073 32.1539 57.2322 32.4001 57.3765C32.9275 57.6633 33.3736 58.0791 33.6966 58.5851C33.9947 59.0442 34.4025 59.4218 34.8831 59.6838C37.0805 60.9363 40.7171 60.7825 42.5739 59.2443C42.8278 59.0659 43.035 58.829 43.1781 58.5536C43.3211 58.2783 43.3958 57.9725 43.3958 57.6622C43.3958 57.3519 43.3211 57.0461 43.1781 56.7708C43.035 56.4954 42.8278 56.2585 42.5739 56.0801C42.3591 55.91 42.1271 55.7627 41.8817 55.6406Z" fill="#444096"/>
<path d="M72.7437 43.9836C72.5458 43.8171 72.3324 43.67 72.1064 43.5442C71.4486 43.182 70.7361 42.9296 69.997 42.797C69.338 42.6673 68.7039 42.4337 68.1182 42.1049C67.8895 41.9738 67.6726 41.8231 67.47 41.6544C67.2232 41.469 67.021 41.2307 66.8784 40.9569C66.7358 40.6831 66.6564 40.3808 66.646 40.0723V41.3028C66.6587 41.6109 66.7391 41.9124 66.8815 42.1858C67.0239 42.4593 67.2249 42.698 67.47 42.8849C67.6673 43.0699 67.8847 43.2321 68.1182 43.3684C68.7026 43.6976 69.3374 43.9277 69.997 44.0495C70.7395 44.1823 71.4556 44.4346 72.1174 44.7966C72.342 44.9234 72.552 45.0745 72.7437 45.2471C72.8212 45.3051 72.8851 45.3794 72.9307 45.4649C72.9762 45.5504 73.0024 45.6448 73.0074 45.7415V44.467C72.9982 44.3729 72.9701 44.2815 72.9248 44.1984C72.8795 44.1154 72.8179 44.0423 72.7437 43.9836Z" fill="#CC4458"/>
<path d="M84.9501 50.4329C84.706 50.2947 84.4527 50.1735 84.192 50.0703C82.4161 49.4339 80.4744 49.4339 78.6986 50.0703C77.9049 50.3313 77.2182 50.8444 76.7429 51.5316C76.3871 52.0489 75.9264 52.4855 75.3907 52.813C74.855 53.1405 74.2563 53.3515 73.6336 53.4323C73.4091 53.4748 73.1767 53.44 72.9744 53.3334L65.6462 49.1035V50.334L72.9635 54.5639C73.1709 54.6667 73.4054 54.7013 73.6336 54.6628C74.2533 54.5812 74.849 54.3709 75.3826 54.0455C75.9162 53.7201 76.3758 53.2866 76.7319 52.7731C77.2135 52.0849 77.9027 51.569 78.6986 51.3008C80.4729 50.6561 82.4176 50.6561 84.192 51.3008C84.4546 51.3997 84.7083 51.521 84.9501 51.6634C85.3576 51.8417 85.7095 52.1267 85.9686 52.4883C86.2277 52.8499 86.3845 53.2747 86.4223 53.7179V52.4874C86.3789 52.0459 86.22 51.6235 85.9615 51.2629C85.7031 50.9022 85.3542 50.6159 84.9501 50.4329Z" fill="#CC4458"/>
<path d="M80.0169 57.3766C79.9613 57.3511 79.9136 57.3111 79.8788 57.2608C79.844 57.2106 79.8234 57.1519 79.8191 57.0909V58.3214C79.8255 58.3832 79.8482 58.4422 79.8849 58.4924C79.9216 58.5426 79.9709 58.5822 80.0278 58.6071L87.8944 63.1446V61.9361L80.0169 57.3766Z" fill="#CC4458"/>
<path d="M87.9165 61.9361L87.9055 63.1666L109.989 50.334L110 49.0925L87.9165 61.9361Z" fill="#FF6E83"/>
<path d="M87.7737 36.2709L80.3136 40.5997C80.013 40.7565 79.6833 40.8501 79.3451 40.8747C79.0069 40.8993 78.6672 40.8543 78.347 40.7425C78.0818 40.6414 77.8247 40.5202 77.5779 40.38C77.0453 40.0955 76.5979 39.6747 76.2815 39.1604C75.9829 38.6937 75.5659 38.3146 75.0729 38.0617C72.8756 36.8092 69.2609 36.963 67.4591 38.5012C67.2074 38.6799 67.0021 38.9163 66.8605 39.1906C66.7189 39.4649 66.6449 39.7691 66.6449 40.0778C66.6449 40.3865 66.7189 40.6907 66.8605 40.965C67.0021 41.2393 67.2074 41.4757 67.4591 41.6544C67.6616 41.8231 67.8785 41.9738 68.1073 42.1049C68.6963 42.4348 69.3343 42.6684 69.997 42.797C70.7361 42.9296 71.4487 43.182 72.1065 43.5442C72.3324 43.67 72.5458 43.8171 72.7437 43.9836C73.1502 44.3462 73.0514 44.8296 72.524 45.1372L65.6902 49.1035L73.0184 53.3334C73.2206 53.44 73.453 53.4748 73.6776 53.4323C74.3003 53.3515 74.8989 53.1405 75.4346 52.813C75.9704 52.4856 76.4311 52.0489 76.7869 51.5316C77.2621 50.8444 77.9488 50.3313 78.7425 50.0703C80.5184 49.4339 82.4601 49.4339 84.2359 50.0703C84.4967 50.1735 84.75 50.2947 84.994 50.4329C86.9387 51.5316 86.9607 53.3774 84.994 54.498C84.4049 54.8338 83.7616 55.0643 83.0933 55.1792C82.4507 55.2413 81.8273 55.433 81.2608 55.7427C80.6943 56.0524 80.1965 56.4736 79.7973 56.981C79.7685 57.0568 79.7709 57.1409 79.8038 57.2149C79.8367 57.289 79.8976 57.3471 79.973 57.3766L87.8945 61.9361L109.978 49.1035L87.7737 36.2709Z" fill="#F25767"/>
<path d="M74.5345 60.5407C73.9359 60.8754 73.2863 61.1092 72.6118 61.2329C71.6224 61.3958 70.6895 61.8038 69.8981 62.4195C69.8279 62.4801 69.7704 62.5541 69.7289 62.637C69.6874 62.72 69.6628 62.8104 69.6564 62.9029V64.1334C69.6596 64.0418 69.6829 63.952 69.7247 63.8703C69.7665 63.7887 69.8257 63.7172 69.8981 63.661C70.6846 63.0351 71.6193 62.6226 72.6118 62.4634C73.281 62.3385 73.9262 62.1086 74.5235 61.7822C74.9195 61.6039 75.2612 61.324 75.514 60.9708C75.7668 60.6177 75.9216 60.204 75.9628 59.7717V58.5411C75.923 58.971 75.7698 59.3826 75.5189 59.734C75.2679 60.0853 74.9282 60.3637 74.5345 60.5407Z" fill="#5A5AAF"/>
<path d="M53.8354 62.6172C53.6347 62.446 53.4176 62.2951 53.1872 62.1668C52.6014 61.8406 51.9671 61.6106 51.3084 61.4856C50.5382 61.3535 49.7955 61.0936 49.111 60.7165C48.6591 60.4717 48.28 60.1116 48.0124 59.6728C48.0029 59.6405 48.0029 59.6062 48.0124 59.5739V60.8044C48.0026 60.8404 48.0026 60.8783 48.0124 60.9143C48.2745 61.3716 48.6537 61.7509 49.111 62.013C49.796 62.3868 50.5387 62.643 51.3084 62.7711C51.9666 62.8979 52.6006 63.1278 53.1872 63.4522C53.4161 63.5871 53.633 63.7415 53.8354 63.9137C54.0794 64.1017 54.2795 64.3407 54.4218 64.6139C54.5642 64.8871 54.6452 65.1881 54.6594 65.4958V64.2433C54.6516 63.928 54.5736 63.6185 54.431 63.3372C54.2885 63.0559 54.085 62.81 53.8354 62.6172Z" fill="#292972"/>
<path d="M33.345 67.9019V69.1324L55.5713 81.965V80.7235L33.345 67.9019Z" fill="#292972"/>
<path d="M55.5713 80.7235V81.965L77.6438 69.1324V67.9019L55.5713 80.7235Z" fill="#5A5AAF"/>
<path d="M70.1398 63.5621C69.6124 63.2655 69.5026 62.7821 69.8981 62.4634C70.6895 61.8477 71.6224 61.4398 72.6118 61.2769C73.2864 61.1532 73.9359 60.9193 74.5345 60.5847C76.4572 59.486 76.4353 57.6622 74.5345 56.5415C74.2866 56.3932 74.0255 56.2681 73.7545 56.168C71.9967 55.5365 70.0738 55.5365 68.316 56.168C67.5225 56.4296 66.8384 56.9475 66.3713 57.6402C65.877 58.3772 65.1556 58.9327 64.3168 59.2223C63.996 59.3386 63.6546 59.387 63.3141 59.3643C62.9737 59.3416 62.6417 59.2484 62.3392 59.0905L55.4614 55.1242L48.1552 59.2992C47.9904 59.3871 47.9025 59.5409 47.9794 59.6728C48.2471 60.1116 48.6261 60.4717 49.0781 60.7165C49.7626 61.0936 50.5052 61.3535 51.2754 61.4856C51.9341 61.6106 52.5684 61.8406 53.1542 62.1668C53.3846 62.2951 53.6018 62.446 53.8024 62.6173C54.0563 62.7944 54.2636 63.0303 54.4067 63.3048C54.5499 63.5793 54.6246 63.8843 54.6246 64.1939C54.6246 64.5034 54.5499 64.8084 54.4067 65.0829C54.2636 65.3574 54.0563 65.5933 53.8024 65.7705C52.0006 67.3196 48.309 67.4734 46.1776 66.2209C45.6898 65.9648 45.2771 65.5862 44.98 65.1222C44.6611 64.6072 44.2145 64.1834 43.6836 63.8917C43.1142 63.5771 42.4987 63.3546 41.8597 63.2325C41.6304 63.1974 41.3957 63.2359 41.1896 63.3424L33.345 67.9019L55.5713 80.7235L77.6438 67.9019L70.1398 63.5621Z" fill="#444096"/>
</svg>
