<svg width="114" height="35" viewBox="0 0 114 35" fill="none" xmlns="http://www.w3.org/2000/svg">
<path d="M23.8036 11.062C23.9304 11.062 24.0238 11.062 24.1195 11.062C25.1486 11.062 26.1777 11.0524 27.2069 11.0668C27.6113 11.0716 28.0182 11.1051 28.4179 11.1625C28.7505 11.2104 29.0593 11.3492 29.3273 11.5646C29.6791 11.8446 29.861 12.2036 29.8802 12.656C29.8922 12.9479 29.8275 13.2256 29.7653 13.5056C29.3441 15.3843 28.9205 17.2631 28.5016 19.1442C28.0158 21.3102 27.5347 23.4785 27.0513 25.6469C26.9699 26.0154 26.8431 26.3649 26.6133 26.6712C26.2711 27.1307 25.8092 27.3916 25.2515 27.4778C25.0242 27.5137 24.792 27.5256 24.5623 27.5256C18.287 27.528 12.0093 27.528 5.73407 27.5256C5.24105 27.5256 4.76717 27.4347 4.34595 27.1547C3.86968 26.8411 3.58248 26.3888 3.44846 25.8455C3.26657 25.0964 3.10143 24.3425 2.9315 23.5886C2.62277 22.234 2.32121 20.8818 2.01965 19.5296C1.56732 17.5024 1.11737 15.4753 0.665037 13.4481C0.602811 13.1753 0.552551 12.9025 0.564518 12.6225C0.581271 12.1797 0.772736 11.8279 1.11977 11.5598C1.4644 11.2942 1.86648 11.1625 2.29009 11.1147C2.61319 11.0788 2.94108 11.0692 3.26896 11.0668C4.28133 11.062 5.2937 11.0644 6.30847 11.0644C6.37308 11.0644 6.43531 11.062 6.49993 11.062C6.60045 11.062 6.64353 11.007 6.64592 10.9136C6.64831 10.8418 6.64831 10.77 6.64831 10.6982C6.64831 9.99699 6.65071 9.29575 6.64831 8.59451C6.62678 4.76999 9.1589 1.47679 12.6747 0.390226C13.6511 0.0886685 14.6539 -0.0549303 15.6711 0.0192624C18.7561 0.249021 21.1015 1.69937 22.6835 4.36073C23.2699 5.34678 23.593 6.42856 23.7366 7.56059C23.7772 7.87651 23.7868 8.19482 23.7892 8.51313C23.7964 9.26224 23.7892 10.0113 23.7892 10.7605C23.7892 10.849 23.7964 10.9352 23.8036 11.062ZM9.64953 11.062C9.77877 11.062 9.88168 11.062 9.98459 11.062C11.971 11.062 13.9551 11.062 15.9415 11.062C17.4733 11.062 19.0026 11.062 20.5343 11.062C20.7952 11.062 20.8071 11.05 20.8095 10.7964C20.8119 10.3512 20.8167 9.90365 20.8095 9.45849C20.8024 8.89367 20.8071 8.32645 20.7665 7.76403C20.7042 6.90722 20.4218 6.11503 19.9647 5.38747C18.5 3.06356 15.6663 2.13017 13.127 3.1545C11.0831 3.9778 9.69979 5.91399 9.63517 8.18046C9.60884 9.05641 9.62799 9.93476 9.62799 10.8107C9.62799 10.8801 9.63756 10.9495 9.64953 11.062ZM15.2116 14.5132C14.1585 14.5132 13.1055 14.5132 12.0524 14.5132C11.9495 14.5132 11.8442 14.5108 11.7437 14.5275C11.5211 14.5658 11.4158 14.6735 11.4134 14.8985C11.4038 15.3843 11.4038 15.8702 11.4134 16.356C11.4182 16.581 11.5139 16.6695 11.7365 16.6935C11.8083 16.7007 11.8801 16.6983 11.9519 16.6983C12.3755 16.6983 12.7967 16.6983 13.2203 16.6983C13.6152 16.6983 13.6152 16.6983 13.6152 17.0956C13.6152 18.9288 13.6152 20.7621 13.6176 22.5954C13.6176 22.7222 13.6344 22.8491 13.6464 22.9759C13.6631 23.1411 13.7636 23.232 13.924 23.2583C13.9934 23.2703 14.0652 23.2895 14.137 23.2918C14.7832 23.2942 15.4294 23.3038 16.0756 23.2894C16.5255 23.2799 16.6452 23.1363 16.65 22.6815C16.65 22.6098 16.65 22.538 16.65 22.4662C16.65 20.7119 16.65 18.9576 16.65 17.2056C16.65 17.141 16.65 17.0788 16.65 17.0142C16.6524 16.7102 16.6619 16.7007 16.9563 16.6983C17.1789 16.6959 17.4039 16.6983 17.6264 16.6983C17.9447 16.6983 18.2654 16.7031 18.5838 16.6959C18.8901 16.6887 18.9858 16.5954 18.9906 16.2914C18.9954 15.8534 18.993 15.4154 18.993 14.9751C18.993 14.9583 18.993 14.944 18.993 14.9272C18.9763 14.6544 18.8686 14.5419 18.5957 14.5132C18.5096 14.5036 18.421 14.506 18.3325 14.506C17.2842 14.5132 16.2479 14.5132 15.2116 14.5132Z" fill="#0085FF"/>
<path d="M40.2384 11.0405C42.2726 11.0405 44.3045 11.0405 46.3388 11.0429C46.5135 11.0429 46.6906 11.0548 46.8606 11.0859C47.1932 11.1458 47.3225 11.3061 47.3296 11.646C47.3368 12.0121 47.332 12.3783 47.332 12.7469C47.332 13.3045 47.332 13.8622 47.332 14.4198C47.332 14.4844 47.3344 14.5467 47.3272 14.6113C47.3057 14.8674 47.2052 14.9775 46.9443 15.0181C46.8199 15.0373 46.6906 15.0445 46.5638 15.0445C45.5347 15.0469 44.5056 15.0445 43.4789 15.0469C43.3759 15.0469 43.2706 15.0469 43.1677 15.0636C42.9978 15.0899 42.9164 15.1761 42.8997 15.3484C42.8901 15.4441 42.8925 15.5399 42.8925 15.6356C42.8925 19.2854 42.8925 22.9352 42.8925 26.5874C42.8925 26.7214 42.8829 26.8578 42.871 26.9918C42.847 27.2527 42.6986 27.425 42.4521 27.4849C42.2535 27.5327 42.0429 27.5638 41.8395 27.5638C40.6045 27.5686 39.3672 27.5638 38.1323 27.5567C37.9982 27.5567 37.8618 27.5327 37.7302 27.504C37.5124 27.4585 37.3808 27.3197 37.3521 27.0971C37.3353 26.9703 37.3257 26.8435 37.3257 26.7166C37.3233 23.0429 37.3257 19.3692 37.3233 15.6931C37.3233 15.5806 37.3257 15.4705 37.3138 15.358C37.2946 15.1713 37.2109 15.0852 37.029 15.0612C36.9261 15.0469 36.8231 15.0469 36.7178 15.0469C35.7701 15.0469 34.82 15.0469 33.8722 15.0445C33.7286 15.0445 33.585 15.0325 33.4438 15.0062C33.25 14.9679 33.1614 14.8602 33.1375 14.6615C33.1255 14.5586 33.1231 14.4557 33.1231 14.3504C33.1231 13.5056 33.1207 12.6607 33.1231 11.8159C33.1231 11.2511 33.2859 11.0788 33.8555 11.0476C33.9584 11.0429 34.0637 11.0429 34.1666 11.0429C36.1889 11.0405 38.2136 11.0405 40.2384 11.0405Z" fill="#0085FF"/>
<path d="M70.4275 20.4486C70.4275 21.7553 70.4347 23.0621 70.4227 24.3688C70.4179 24.9145 70.3054 25.4458 70.0828 25.9484C69.6114 27.0063 68.7881 27.5735 67.6321 27.5855C65.6553 27.607 63.6761 27.5926 61.6992 27.5902C61.2493 27.5902 60.8089 27.516 60.3877 27.3557C59.5022 27.0158 58.9685 26.3601 58.7028 25.4674C58.576 25.0366 58.5138 24.5938 58.5138 24.1463C58.5114 21.6357 58.5114 19.1251 58.5162 16.6145C58.5162 16.4182 58.5521 16.2148 58.6095 16.0281C58.7387 15.6093 59.0068 15.4226 59.4472 15.4202C60.0527 15.4154 60.6581 15.4178 61.266 15.4178C61.6729 15.4178 62.0797 15.4059 62.4866 15.4226C62.6829 15.4298 62.8887 15.4585 63.0682 15.5327C63.4655 15.6955 63.6737 16.0018 63.6713 16.4446C63.6665 18.3257 63.6689 20.2069 63.6713 22.088C63.6713 22.2938 63.6832 22.5044 63.7287 22.7031C63.8221 23.1195 64.0853 23.3349 64.4993 23.3636C64.9158 23.3924 65.2676 23.1841 65.3968 22.794C65.459 22.6098 65.4878 22.4039 65.4878 22.2101C65.4949 20.3361 65.4902 18.4645 65.4949 16.5906C65.4949 16.3776 65.5069 16.1598 65.5452 15.9492C65.605 15.6332 65.7989 15.4729 66.122 15.4346C66.2177 15.4226 66.3134 15.4178 66.4092 15.4178C67.3593 15.4178 68.307 15.4154 69.2572 15.4178C69.384 15.4178 69.5132 15.425 69.6377 15.4418C70.0972 15.504 70.3844 15.8008 70.4299 16.2627C70.4394 16.3656 70.4394 16.4685 70.4394 16.5738C70.4394 17.8662 70.4394 19.1562 70.4394 20.4486C70.4347 20.4486 70.4299 20.4486 70.4275 20.4486Z" fill="#0085FF"/>
<path d="M107.328 20.9009C107.387 20.7597 107.426 20.676 107.459 20.5898C108.022 19.1921 108.584 17.7968 109.142 16.3991C109.254 16.1215 109.407 15.8726 109.635 15.6763C109.829 15.5064 110.049 15.4179 110.312 15.4203C111.222 15.4227 112.131 15.4179 113.04 15.425C113.213 15.4274 113.392 15.449 113.557 15.4968C113.78 15.5591 113.861 15.717 113.811 15.9396C113.787 16.0473 113.746 16.1526 113.703 16.2555C111.597 21.2025 109.491 26.1519 107.387 31.0988C107.277 31.3597 107.134 31.5943 106.926 31.7881C106.713 31.9868 106.468 32.0921 106.169 32.0897C105.363 32.0825 104.559 32.0897 103.752 32.0849C103.594 32.0849 103.434 32.0681 103.278 32.037C102.984 31.9772 102.878 31.8025 102.955 31.5129C102.986 31.398 103.029 31.2855 103.077 31.1754C103.594 29.9501 104.109 28.7223 104.63 27.4993C104.697 27.3413 104.702 27.2097 104.638 27.047C103.194 23.4905 101.756 19.9293 100.318 16.3704C100.27 16.2531 100.22 16.1335 100.196 16.009C100.138 15.7194 100.246 15.5447 100.528 15.4705C100.658 15.437 100.796 15.4227 100.93 15.4203C102.151 15.4155 103.372 15.4179 104.592 15.4179C104.882 15.4179 105.114 15.5423 105.317 15.7338C105.518 15.9252 105.648 16.1574 105.738 16.4183C106.229 17.816 106.725 19.2113 107.218 20.609C107.246 20.6903 107.277 20.7669 107.328 20.9009Z" fill="#0085FF"/>
<path d="M78.8283 14.9512C79.9268 14.9991 80.7334 15.011 81.5207 15.1977C81.6284 15.224 81.7338 15.2671 81.8415 15.2887C82.0568 15.3341 82.1502 15.4753 82.1526 15.6812C82.155 15.9588 82.1765 16.2412 82.1334 16.514C82.0736 16.9065 81.9659 17.2895 81.8774 17.6772C81.8654 17.7298 81.8391 17.7825 81.8175 17.8327C81.6165 18.309 81.5088 18.3665 80.999 18.2994C80.4533 18.2276 79.9101 18.1511 79.362 18.0936C78.9815 18.0529 78.5985 18.0386 78.218 18.1176C78.1175 18.1391 78.0146 18.1726 77.9284 18.2229C77.6963 18.3641 77.6699 18.6273 77.8781 18.7973C78.0122 18.9073 78.1629 19.0031 78.3185 19.0821C78.7158 19.2831 79.1227 19.4674 79.5247 19.6636C80.3145 20.0537 81.0684 20.4965 81.6907 21.1331C82.5259 21.9851 82.8993 23.0047 82.8299 24.1942C82.8036 24.6441 82.7318 25.0821 82.5666 25.5009C82.2651 26.2692 81.729 26.8268 81.0038 27.2074C80.4031 27.5233 79.7569 27.6908 79.0892 27.7817C77.9691 27.9349 76.8466 27.899 75.7242 27.7961C74.8171 27.7147 73.9196 27.5807 73.0389 27.3533C72.9073 27.3198 72.7804 27.272 72.6488 27.2361C72.486 27.193 72.3999 27.0949 72.3688 26.9225C72.2754 26.4176 72.2395 25.9102 72.2515 25.4004C72.2587 25.1156 72.2994 24.8284 72.3305 24.5436C72.3377 24.4814 72.3568 24.4191 72.3736 24.3569C72.4789 24.0003 72.565 23.9477 72.9264 24.0434C74.0848 24.3545 75.2671 24.4287 76.4589 24.3785C76.648 24.3713 76.8395 24.3282 77.0237 24.2827C77.129 24.2564 77.2343 24.2014 77.3205 24.1343C77.5239 23.974 77.5383 23.7011 77.342 23.5336C77.2032 23.4163 77.0429 23.3206 76.8801 23.2392C76.5953 23.098 76.2962 22.9855 76.0066 22.8491C75.5447 22.6313 75.0828 22.4183 74.6328 22.179C74.2451 21.9732 73.8957 21.7075 73.5798 21.3964C72.8666 20.6928 72.5291 19.8383 72.5172 18.8427C72.5076 18.0338 72.7517 17.323 73.2902 16.7175C73.6683 16.2939 74.1302 15.9851 74.6376 15.741C75.4226 15.3652 76.2531 15.1475 77.1147 15.0589C77.7824 14.9967 78.4525 14.9751 78.8283 14.9512Z" fill="#0085FF"/>
<path d="M85.2255 18.7183C84.991 18.7183 84.7875 18.7183 84.5817 18.7183C84.0312 18.7159 83.8302 18.5268 83.8182 17.9715C83.8063 17.3732 83.8135 16.7749 83.8159 16.1789C83.8159 16.0928 83.8302 16.0042 83.8518 15.9205C83.9068 15.6811 84.0552 15.5256 84.2993 15.4801C84.4166 15.4586 84.5362 15.4466 84.6535 15.4442C84.9168 15.4394 85.1776 15.4418 85.4672 15.4418C85.472 15.3509 85.4792 15.2743 85.4792 15.1977C85.4792 14.7741 85.4864 14.3529 85.4768 13.9292C85.4696 13.5607 85.6419 13.3118 85.9459 13.1299C86.2283 12.9623 86.5442 12.9169 86.8577 12.8642C87.6116 12.7374 88.3655 12.6105 89.1218 12.4932C89.3013 12.4645 89.488 12.4573 89.6675 12.4693C89.902 12.4861 90.0073 12.5962 90.0384 12.8307C90.06 12.9887 90.0672 13.149 90.0696 13.307C90.0719 13.9197 90.072 14.5347 90.072 15.1474C90.072 15.2336 90.072 15.3197 90.072 15.4203C90.1533 15.4274 90.2132 15.4394 90.2754 15.4394C90.6655 15.4418 91.058 15.4394 91.4481 15.4418C91.8047 15.4442 92.0201 15.5926 92.123 15.9324C92.1709 16.0904 92.1996 16.2603 92.202 16.4255C92.2116 16.9999 92.2044 17.5742 92.2044 18.1462C92.2044 18.1941 92.1996 18.242 92.1948 18.2898C92.1637 18.6297 92.0177 18.7757 91.6731 18.7829C91.2901 18.7901 90.9072 18.7853 90.5243 18.7853C90.4381 18.7853 90.3496 18.7853 90.2467 18.7853C90.2395 18.8571 90.2251 18.9193 90.2251 18.9791C90.2251 20.5348 90.2227 22.088 90.2251 23.6437C90.2251 23.9883 90.3735 24.1798 90.7157 24.2444C90.9 24.2803 91.0963 24.2899 91.2854 24.2779C91.4385 24.2683 91.5127 24.3282 91.5534 24.455C91.6013 24.6058 91.6539 24.759 91.685 24.9145C91.8334 25.6182 91.9196 26.329 91.9172 27.0494C91.9172 27.0901 91.9148 27.1283 91.9124 27.169C91.898 27.4443 91.8909 27.4754 91.63 27.5328C91.125 27.6429 90.6176 27.7506 90.1055 27.82C89.488 27.9038 88.8657 27.9205 88.2459 27.8344C87.4609 27.7267 86.7453 27.4682 86.1661 26.9034C85.618 26.3697 85.3236 25.7067 85.2518 24.9528C85.2135 24.5412 85.2111 24.1247 85.2111 23.7107C85.2088 22.1 85.2135 20.4893 85.2159 18.881C85.2255 18.8379 85.2255 18.7996 85.2255 18.7183Z" fill="#0085FF"/>
<path d="M94.0162 19.2207C94.0162 16.7101 94.0162 14.1996 94.0162 11.6866C94.0162 11.6316 94.0162 11.5741 94.0162 11.5191C94.021 11.0165 94.2436 10.7939 94.7534 10.7939C95.8304 10.7915 96.9074 10.7891 97.9844 10.7963C98.1734 10.7963 98.3673 10.8202 98.5516 10.8609C98.7933 10.9136 98.9369 11.0739 98.9561 11.33C98.9633 11.4329 98.9704 11.5358 98.9704 11.6411C98.9704 16.6383 98.9704 21.638 98.9704 26.6352C98.9704 26.7692 98.9656 26.9056 98.9465 27.0396C98.9082 27.3221 98.7526 27.4848 98.4726 27.5351C98.341 27.559 98.2022 27.5638 98.0681 27.5638C97.0151 27.5662 95.962 27.5662 94.9089 27.5638C94.7653 27.5638 94.6217 27.5566 94.4781 27.5422C94.1837 27.5135 94.0665 27.4034 94.033 27.1091C94.0138 26.9511 94.0162 26.7907 94.0162 26.6304C94.0162 24.1629 94.0162 21.693 94.0162 19.2207Z" fill="#0085FF"/>
<path d="M48.1365 22.0928C48.1365 20.8028 48.1317 19.5104 48.1412 18.2204C48.1436 17.9117 48.1676 17.5982 48.2226 17.2942C48.3495 16.6145 48.7372 16.1239 49.3594 15.8175C49.8548 15.5758 50.3861 15.4705 50.9294 15.4442C51.4631 15.4178 51.9968 15.4131 52.5305 15.4083C53.8133 15.4011 55.0985 15.4011 56.3813 15.3963C56.4363 15.3963 56.4938 15.3963 56.5488 15.3963C56.9078 15.4035 57.0227 15.5184 57.0227 15.8702C57.0227 16.6911 57.0227 17.512 57.0227 18.3329C57.0227 18.3568 57.0227 18.3808 57.0227 18.4047C57.0107 18.7326 56.848 18.9073 56.5225 18.9217C56.3071 18.9312 56.0917 18.9193 55.8763 18.9336C55.5269 18.9576 55.1775 18.9887 54.8305 19.0341C54.5121 19.0772 54.2202 19.2065 53.9378 19.362C53.3993 19.6564 53.1336 20.1135 53.1025 20.719C53.0953 20.8459 53.0953 20.9751 53.0953 21.102C53.0953 22.9041 53.0953 24.7039 53.0929 26.5061C53.0929 26.6808 53.0786 26.8579 53.0451 27.0278C52.9852 27.3389 52.789 27.5089 52.4731 27.5496C52.3702 27.5615 52.2673 27.5663 52.1619 27.5663C51.2214 27.5687 50.2808 27.5711 49.3403 27.5639C49.1584 27.5639 48.9717 27.5448 48.797 27.5017C48.4332 27.4131 48.2298 27.1618 48.17 26.7981C48.1436 26.6425 48.1365 26.4797 48.1365 26.3218C48.1365 24.9145 48.1365 23.5049 48.1365 22.0928Z" fill="#0085FF"/>
<path d="M17.643 31.6254C17.5999 29.8424 19.1149 28.2724 20.9984 28.2652C22.8437 28.258 24.3826 29.7921 24.3754 31.6374C24.3682 33.5449 22.779 35.012 20.9864 35C19.1627 34.9881 17.6023 33.4707 17.643 31.6254Z" fill="#0085FF"/>
<path d="M9.42222 28.2724C11.2531 28.2317 12.8016 29.7777 12.7992 31.635C12.7968 33.5017 11.2364 34.9952 9.43898 34.9999C7.63442 35.0047 6.05962 33.5089 6.06201 31.6278C6.06441 29.7562 7.62485 28.2365 9.42222 28.2724Z" fill="#0085FF"/>
</svg>
