<svg width="54" height="24" viewBox="0 0 54 24" fill="none" xmlns="http://www.w3.org/2000/svg">
<path d="M0.132812 0.630055V6.64513H4.14287V23.6714H11.7685V0.630055H0.132812Z" fill="#0085FF"/>
<path d="M27.8149 0.268494C22.753 0.268494 19.4332 2.70082 19.4332 6.48079C19.4332 8.22286 20.4851 10.1293 22.0957 11.3126C19.7619 12.463 18.2171 14.7967 18.2171 17.2619C18.2171 21.3377 22.0299 24.0001 27.8478 24.0001C33.6985 24.0001 37.5114 21.3048 37.5114 17.1304C37.5114 14.731 36.1308 12.463 33.9943 11.3126C35.4077 10.2608 36.2952 8.45294 36.2952 6.71087C36.2952 2.79943 32.9754 0.268494 27.8149 0.268494ZM27.8478 5.19889C29.2612 5.19889 29.9843 5.85627 29.9843 7.1053C29.9843 8.2886 29.2612 8.88025 27.8478 8.88025C26.4673 8.88025 25.7442 8.2886 25.7442 7.1053C25.7442 5.85627 26.4673 5.19889 27.8478 5.19889ZM27.8807 14.3037C29.5241 14.3037 30.4116 15.0597 30.4116 16.4731C30.4116 17.8536 29.5241 18.5767 27.8478 18.5767C26.2043 18.5767 25.3497 17.8536 25.3497 16.4731C25.3497 15.0597 26.2043 14.3037 27.8807 14.3037Z" fill="#0085FF"/>
<path d="M53.3856 4.07155H49.3141V0H45.7515V4.07155H41.6799V7.63416H45.7515V11.7057H49.3141V7.63416H53.3856V4.07155Z" fill="#0085FF"/>
</svg>
