<?xml version="1.0" standalone="no"?>
<!DOCTYPE svg PUBLIC "-//W3C//DTD SVG 1.1//EN" "http://www.w3.org/Graphics/SVG/1.1/DTD/svg11.dtd" >
<svg xmlns="http://www.w3.org/2000/svg" xmlns:xlink="http://www.w3.org/1999/xlink" version="1.1">
<metadata>
Created by FontForge 20190801 at Thu Feb 13 23:01:45 2014
 By Jimmy Wärting
Morebi Rounded is a trademark of GT &#38; Canary Inc.
</metadata>
<defs>
<font id="MorebiRounded-Regular" horiz-adv-x="60" >
  <font-face 
    font-family="Morebi Rounded"
    font-weight="400"
    font-stretch="normal"
    units-per-em="1000"
    panose-1="0 0 0 0 0 0 0 0 0 0"
    ascent="773"
    descent="-227"
    x-height="526"
    cap-height="706"
    bbox="-100 -225 1030 1034"
    underline-thickness="50"
    underline-position="-100"
    stemh="24"
    stemv="105"
    unicode-range="U+0020-FB06"
  />
<missing-glyph horiz-adv-x="250" 
 />
    <glyph glyph-name="fi" unicode="fi" horiz-adv-x="546" 
d="M144 526h261c31 0 62 -23 62 -56v-444c0 -18 -16 -30 -32 -30s-32 12 -32 30v442h-259v-442c0 -18 -16 -30 -32 -30s-32 12 -32 30v483c0 63 6 127 54 174c41 40 100 54 155 54c32 0 84 -5 113 -17c12 -5 21 -14 21 -28c0 -18 -16 -30 -32 -30c-4 0 -7 1 -11 2
c-30 8 -59 15 -91 15c-106 0 -142 -52 -145 -153z" />
    <glyph glyph-name="fl" unicode="fl" horiz-adv-x="621" 
d="M288 737c44 0 91 -4 133 -16c26 -8 49 -27 49 -56v-434c0 -48 0 -105 36 -141c18 -17 40 -26 61 -38c12 -6 19 -13 19 -26c0 -17 -13 -30 -30 -30c-8 0 -16 3 -23 7c-108 46 -127 119 -127 228v432c-39 9 -78 16 -118 16c-106 0 -141 -53 -144 -153h177
c17 0 32 -12 32 -29s-15 -29 -32 -29h-177v-442c0 -18 -16 -30 -32 -30s-32 12 -32 30v483c0 63 7 128 54 174c41 40 98 54 154 54z" />
    <glyph glyph-name="f_f" unicode="ff" horiz-adv-x="733" 
d="M611 737c29 0 117 -5 117 -46c0 -17 -15 -30 -32 -30c-5 0 -9 2 -13 3c-24 8 -46 15 -72 15c-106 0 -141 -53 -144 -153h221c16 0 32 -12 32 -29s-16 -29 -32 -29h-221v-442c0 -18 -16 -30 -32 -30s-32 12 -32 30v442h-259v-442c0 -18 -16 -30 -32 -30s-32 12 -32 30v483
c0 62 6 127 54 174c41 40 98 54 154 54c28 0 112 -4 112 -45c0 -17 -12 -30 -29 -30c-18 0 -49 17 -83 17c-106 0 -141 -53 -144 -153h259c2 58 10 115 54 157c41 40 98 54 154 54z" />
    <glyph glyph-name="f_f_i" unicode="ffi" horiz-adv-x="869" 
d="M467 526h261c31 0 62 -23 62 -56v-444c0 -18 -16 -30 -32 -30s-32 12 -32 30v442h-259v-442c0 -18 -16 -30 -32 -30s-32 12 -32 30v442h-259v-442c0 -18 -16 -30 -32 -30s-32 12 -32 30v483c0 63 6 127 54 174c41 40 98 54 154 54c28 0 112 -4 112 -45
c0 -17 -12 -30 -29 -30c-18 0 -49 17 -83 17c-106 0 -141 -53 -144 -153h259c2 58 10 115 54 157c41 40 100 54 155 54c32 0 84 -5 113 -17c12 -5 21 -14 21 -28c0 -18 -16 -30 -32 -30c-4 0 -7 1 -11 2c-30 8 -59 15 -91 15c-106 0 -142 -52 -145 -153z" />
    <glyph glyph-name="f_f_l" unicode="ffl" horiz-adv-x="944" 
d="M611 737c44 0 91 -4 133 -16c26 -8 49 -27 49 -56v-434c0 -47 0 -105 36 -141c18 -17 40 -26 61 -38c12 -6 19 -13 19 -26c0 -17 -13 -30 -30 -30c-8 0 -16 3 -23 7c-108 46 -127 119 -127 228v432c-39 9 -78 16 -118 16c-106 0 -141 -53 -144 -153h177
c16 0 32 -12 32 -29s-16 -29 -32 -29h-177v-442c0 -18 -16 -30 -32 -30s-32 12 -32 30v442h-259v-442c0 -18 -16 -30 -32 -30s-32 12 -32 30v483c0 63 6 128 54 174c41 40 98 54 154 54c28 0 112 -5 112 -45c0 -17 -12 -30 -29 -30c-19 0 -48 17 -83 17
c-106 0 -141 -53 -144 -153h259c2 58 10 115 54 157c41 40 98 54 154 54z" />
    <glyph glyph-name=".notdef" horiz-adv-x="250" 
 />
    <glyph glyph-name="space" unicode=" " horiz-adv-x="250" 
 />
    <glyph glyph-name="exclam" unicode="!" horiz-adv-x="226" 
d="M113 177c-18 0 -33 13 -33 30v472c0 17 15 30 33 30s33 -13 33 -30v-472c0 -17 -15 -30 -33 -30zM113 -7c-18 0 -33 13 -33 30v24c0 16 15 30 33 30s33 -14 33 -30v-24c0 -17 -15 -30 -33 -30z" />
    <glyph glyph-name="quotedbl" unicode="&#x22;" horiz-adv-x="222" 
d="M164 506c-14 0 -28 11 -28 26v180c0 15 14 26 28 26s28 -11 28 -26v-180c0 -15 -14 -26 -28 -26zM58 506c-14 0 -28 11 -28 26v180c0 15 14 26 28 26s28 -11 28 -26v-180c0 -15 -14 -26 -28 -26z" />
    <glyph glyph-name="numbersign" unicode="#" horiz-adv-x="568" 
d="M443 524h63c16 0 32 -12 32 -29s-16 -29 -32 -29h-74l-44 -230h63c16 0 32 -12 32 -29s-16 -29 -32 -29h-74l-29 -157c-3 -15 -18 -24 -32 -24c-16 0 -32 11 -32 29v5l28 147h-122l-30 -157c-2 -15 -17 -24 -31 -24c-16 0 -32 11 -32 29v5l28 147h-63
c-16 0 -32 12 -32 29s16 29 32 29h74l43 230h-62c-16 0 -32 12 -32 29s16 29 32 29h73l30 157c3 15 17 25 32 25c16 0 32 -12 32 -30c0 -1 0 -3 -1 -4l-28 -148h123l29 157c3 15 17 25 32 25c16 0 32 -12 32 -30c0 -1 0 -3 -1 -4zM323 236l44 230h-123l-43 -230h122z" />
    <glyph glyph-name="dollar" unicode="$" horiz-adv-x="534" 
d="M290 90c73 10 119 57 119 122c0 39 -15 82 -119 113v-235zM127 508c0 -36 14 -79 116 -110v216c-58 -5 -116 -29 -116 -106zM290 386c83 -21 183 -63 183 -174c0 -51 -21 -97 -59 -131c-32 -28 -75 -45 -124 -50v-45c0 -11 -11 -21 -24 -21s-23 10 -23 21v43
c-79 2 -120 15 -162 29c-13 4 -22 17 -22 29c0 3 1 7 2 10c5 12 17 19 30 19c4 0 8 0 11 -1c39 -13 73 -26 141 -27v249c-121 32 -180 88 -180 171c0 49 18 90 53 119c31 26 74 41 127 45v44c0 11 10 21 23 21s24 -10 24 -21v-44c46 -1 87 -8 128 -22c13 -4 21 -17 21 -29
c0 -3 0 -7 -1 -10c-5 -12 -17 -19 -31 -19c-3 0 -7 0 -10 1c-35 12 -68 19 -107 21v-228z" />
    <glyph glyph-name="percent" unicode="%" horiz-adv-x="772" 
d="M187 -8c-13 0 -25 10 -25 23c0 4 1 8 3 11l402 671c5 7 13 12 22 12c13 0 25 -10 25 -23c0 -4 -1 -8 -3 -11l-402 -671c-5 -7 -14 -12 -22 -12zM572 292c-81 0 -83 -63 -83 -126s2 -126 83 -126s83 63 83 126s-2 126 -83 126zM572 -7c-66 0 -120 36 -131 103
c-4 23 -4 47 -4 70s0 46 4 69c11 68 65 104 131 104s120 -36 131 -104c4 -23 4 -46 4 -69s0 -47 -4 -70c-11 -67 -65 -103 -131 -103zM200 662c-80 0 -83 -63 -83 -126s3 -126 83 -126c81 0 84 63 84 126s-3 126 -84 126zM200 363c-66 0 -120 36 -131 104c-3 23 -4 46 -4 69
s1 47 4 70c11 67 65 103 131 103s120 -36 131 -103c4 -23 5 -47 5 -70s-1 -46 -5 -69c-11 -68 -65 -104 -131 -104z" />
    <glyph glyph-name="ampersand" unicode="&#x26;" horiz-adv-x="637" 
d="M503 134l73 -90c4 -5 6 -11 6 -17c0 -18 -16 -31 -33 -31c-10 0 -20 5 -27 13l-56 69c-49 -56 -117 -85 -191 -85c-115 0 -220 72 -220 195c0 98 51 181 133 233c-32 40 -60 87 -60 140c0 98 88 148 176 148c39 0 93 -6 129 -22c13 -6 21 -15 21 -30
c0 -18 -16 -30 -33 -30c-4 0 -8 0 -12 2c-34 10 -68 20 -105 20c-54 0 -110 -27 -110 -88c0 -43 28 -81 54 -113l209 -257c16 47 24 97 24 147c0 25 -8 64 29 64c33 0 37 -23 37 -50c0 -74 -10 -152 -44 -218zM275 53c61 0 114 26 150 76l-198 244
c-66 -42 -106 -106 -106 -185c0 -88 72 -135 154 -135z" />
    <glyph glyph-name="quoteright" unicode="&#x2019;" horiz-adv-x="165" 
d="M48 506c-14 0 -28 10 -28 25c0 4 1 8 3 11c28 63 45 97 45 168c0 15 12 27 27 27c27 0 30 -19 30 -42c0 -57 -22 -126 -52 -175c-5 -9 -14 -14 -25 -14z" />
    <glyph glyph-name="parenleft" unicode="(" horiz-adv-x="259" 
d="M140 306c0 -165 17 -233 83 -384c3 -6 6 -11 6 -18c0 -16 -15 -27 -30 -27c-19 0 -24 10 -32 25c-67 141 -87 249 -87 404c0 132 10 213 59 336c9 24 18 48 29 71c7 14 13 23 31 23c15 0 30 -11 30 -27c0 -6 -3 -11 -5 -16c-67 -153 -84 -219 -84 -387z" />
    <glyph glyph-name="parenright" unicode=")" horiz-adv-x="259" 
d="M60 736c18 0 24 -9 31 -23c11 -23 20 -47 29 -71c49 -123 59 -204 59 -336c0 -155 -20 -263 -88 -404c-7 -15 -12 -25 -31 -25c-15 0 -30 11 -30 27c0 7 3 12 6 18c66 151 83 219 83 384c0 168 -17 234 -84 387c-2 5 -5 10 -5 16c0 16 15 27 30 27z" />
    <glyph glyph-name="asterisk" unicode="*" horiz-adv-x="439" 
d="M266 589l113 1c15 0 30 -11 30 -27s-15 -28 -30 -28l-113 2c11 -18 66 -106 66 -121c0 -16 -15 -28 -30 -28c-11 0 -22 6 -27 15l-56 102l-56 -102c-5 -9 -16 -15 -26 -15c-15 0 -30 12 -30 28c0 15 55 103 66 121l-113 -2c-15 0 -30 12 -30 28s15 27 30 27l113 -1
c-11 18 -66 106 -66 121c0 16 15 27 30 27c10 0 21 -5 26 -15l56 -102l56 102c5 10 16 15 27 15c15 0 30 -11 30 -27c0 -15 -55 -103 -66 -121z" />
    <glyph glyph-name="plus" unicode="+" horiz-adv-x="580" 
d="M320 290h200c16 0 30 -11 30 -27s-14 -27 -30 -27h-200v-212c0 -16 -15 -28 -30 -28s-30 12 -30 28v212h-200c-16 0 -30 11 -30 27s14 27 30 27h200v212c0 16 15 28 30 28s30 -12 30 -28v-212z" />
    <glyph glyph-name="comma" unicode="," horiz-adv-x="150" 
d="M33 -117c-14 0 -28 10 -28 25c0 4 1 7 3 11c28 63 45 97 45 168c0 15 12 27 27 27c27 0 30 -19 30 -42c0 -57 -22 -126 -52 -175c-5 -9 -14 -14 -25 -14z" />
    <glyph glyph-name="hyphen" unicode="-" horiz-adv-x="362" 
d="M304 238h-256c-14 0 -28 10 -28 25s14 25 28 25h256c14 0 28 -10 28 -25s-14 -25 -28 -25z" />
    <glyph glyph-name="period" unicode="." horiz-adv-x="126" 
d="M106 36c0 -23 -19 -43 -43 -43s-43 20 -43 43c0 24 19 44 43 44s43 -20 43 -44z" />
    <glyph glyph-name="slash" unicode="/" horiz-adv-x="334" 
d="M30 -35c-12 0 -25 9 -25 23c0 4 31 86 33 93c55 146 110 292 166 438l50 133c8 20 17 51 27 70c5 9 12 15 23 15c13 0 25 -9 25 -23c0 -4 -30 -86 -33 -93c-54 -146 -110 -292 -165 -438l-51 -133c-8 -20 -16 -51 -26 -70c-6 -9 -12 -15 -24 -15z" />
    <glyph glyph-name="zero" unicode="0" horiz-adv-x="570" 
d="M285 651c-94 0 -148 -57 -158 -147c-6 -51 -8 -102 -8 -153s2 -102 8 -153c10 -90 64 -147 158 -147s148 57 158 147c6 51 8 102 8 153s-2 102 -8 153c-10 90 -64 147 -158 147zM285 -7c-125 0 -207 76 -222 199c-7 52 -8 106 -8 159s1 107 8 159c15 123 97 199 222 199
s207 -76 222 -199c7 -52 8 -106 8 -159s-1 -107 -8 -159c-15 -123 -97 -199 -222 -199z" />
    <glyph glyph-name="one" unicode="1" horiz-adv-x="570" 
d="M332 -3c-16 0 -32 11 -32 29v619c-25 -6 -146 -38 -163 -38s-32 11 -32 29c0 14 11 25 24 29l166 39c5 1 10 2 15 2c31 0 54 -19 54 -51v-629c0 -18 -16 -29 -32 -29z" />
    <glyph glyph-name="two" unicode="2" horiz-adv-x="570" 
d="M121 66c0 -5 3 -8 8 -8h345c17 0 32 -12 32 -29s-15 -29 -32 -29h-350c-37 0 -68 27 -68 65c0 18 7 35 19 47l211 215c47 47 139 130 139 202c0 88 -63 122 -142 122c-55 0 -101 -21 -148 -45c-6 -3 -11 -5 -17 -5c-17 0 -33 13 -33 30c0 12 6 20 15 26
c48 32 126 52 183 52c113 0 206 -58 206 -180c0 -99 -88 -176 -152 -241l-212 -216c-1 -1 -4 -4 -4 -6z" />
    <glyph glyph-name="three" unicode="3" horiz-adv-x="570" 
d="M385 380c77 -32 120 -97 120 -180c0 -140 -107 -207 -236 -207c-57 0 -151 23 -199 53c-10 6 -16 15 -16 27c0 17 15 29 32 29c6 0 11 -1 16 -4c53 -25 107 -47 167 -47c96 0 172 44 172 149c0 102 -78 149 -172 149h-43c-17 0 -32 12 -32 29s15 29 32 29h47
c78 0 146 35 146 122c0 90 -67 122 -146 122c-55 0 -101 -21 -148 -45c-5 -3 -11 -5 -17 -5c-17 0 -32 13 -32 30c0 12 6 19 15 26c44 31 128 52 182 52c113 0 210 -56 210 -180c0 -69 -35 -122 -98 -149z" />
    <glyph glyph-name="four" unicode="4" horiz-adv-x="570" 
d="M417 195h68c16 0 32 -12 32 -29s-16 -29 -32 -29h-68v-111c0 -18 -16 -29 -32 -29c-17 0 -32 11 -32 29v111h-231c-36 0 -69 26 -69 63c0 11 3 22 9 32l243 457c6 11 18 17 29 17c16 0 32 -12 32 -30c0 -4 -1 -8 -3 -12c-19 -35 -246 -459 -246 -464c0 -3 3 -5 6 -5h230
v237c0 17 15 29 32 29c16 0 32 -12 32 -29v-237z" />
    <glyph glyph-name="five" unicode="5" horiz-adv-x="570" 
d="M158 428h108c136 0 236 -75 236 -218c0 -142 -100 -217 -236 -217c-57 0 -151 23 -199 53c-10 6 -16 15 -16 27c0 17 15 29 32 29c6 0 11 -1 16 -4c53 -24 107 -47 167 -47c102 0 172 52 172 159c0 108 -70 160 -172 160h-115c-30 0 -58 20 -58 52c0 2 0 5 1 8l36 220
c5 31 36 52 66 52h228c16 0 32 -12 32 -29s-16 -29 -32 -29h-228c-1 0 -2 -2 -2 -3z" />
    <glyph glyph-name="six" unicode="6" horiz-adv-x="570" 
d="M289 428c132 0 231 -84 231 -219c0 -134 -100 -216 -229 -216c-132 0 -231 83 -231 219c0 187 110 369 252 486c7 5 14 8 22 8c17 0 32 -12 32 -30c0 -8 -4 -15 -10 -21c-17 -16 -35 -31 -52 -48c-63 -64 -118 -138 -151 -222c39 30 87 43 136 43zM291 51
c96 0 165 59 165 158c0 100 -69 160 -167 160c-96 0 -165 -59 -165 -158c0 -100 69 -160 167 -160z" />
    <glyph glyph-name="seven" unicode="7" horiz-adv-x="570" 
d="M423 702c35 0 69 -22 69 -60c0 -27 -60 -154 -70 -178c-43 -97 -83 -196 -120 -295c-19 -51 -36 -102 -56 -152c-5 -14 -16 -20 -30 -20c-17 0 -32 9 -32 27c0 4 0 7 1 11c53 152 113 303 177 451c4 10 66 149 66 156v1c-1 1 -3 1 -4 1h-347c-16 0 -32 12 -32 29
s16 29 32 29h346z" />
    <glyph glyph-name="eight" unicode="8" horiz-adv-x="570" 
d="M399 381c74 -34 116 -99 116 -181c0 -133 -105 -207 -230 -207s-230 74 -230 207c0 82 42 147 116 181c-58 30 -89 83 -89 148c0 116 95 180 203 180s203 -64 203 -180c0 -65 -31 -118 -89 -148zM285 651c-76 0 -139 -41 -139 -122c0 -82 63 -122 139 -122
s139 40 139 122c0 81 -63 122 -139 122zM285 51c92 0 166 51 166 149s-74 149 -166 149s-166 -51 -166 -149s74 -149 166 -149z" />
    <glyph glyph-name="nine" unicode="9" horiz-adv-x="570" 
d="M281 274c-132 0 -231 83 -231 219c0 133 100 216 229 216c132 0 231 -83 231 -219c0 -187 -106 -369 -248 -485c-7 -6 -14 -8 -23 -8c-16 0 -32 11 -32 29c0 8 4 15 10 21c17 16 36 31 52 48c63 64 115 139 148 222c-39 -30 -87 -43 -136 -43zM279 651
c-96 0 -165 -60 -165 -158c0 -100 69 -161 167 -161c96 0 165 60 165 159s-69 160 -167 160z" />
    <glyph glyph-name="colon" unicode=":" horiz-adv-x="186" 
d="M146 446c0 -23 -19 -43 -43 -43s-43 20 -43 43c0 24 19 44 43 44s43 -20 43 -44zM146 36c0 -23 -19 -43 -43 -43s-43 20 -43 43c0 24 19 44 43 44s43 -20 43 -44z" />
    <glyph glyph-name="semicolon" unicode=";" horiz-adv-x="191" 
d="M151 446c0 -23 -20 -43 -43 -43c-24 0 -43 20 -43 43c0 24 19 44 43 44c23 0 43 -20 43 -44zM53 -117c-14 0 -28 10 -28 25c0 4 1 7 3 11c28 63 45 97 45 168c0 15 12 27 27 27c27 0 30 -19 30 -42c0 -57 -22 -126 -52 -175c-5 -9 -14 -14 -25 -14z" />
    <glyph glyph-name="less" unicode="&#x3c;" horiz-adv-x="580" 
d="M90 263c0 -3 1 -6 4 -7l440 -212c9 -4 16 -13 16 -24c0 -16 -15 -27 -30 -27c-5 0 -9 1 -14 3l-441 212c-21 10 -35 32 -35 55s14 45 35 55l441 212c5 2 9 3 14 3c15 0 30 -11 30 -27c0 -11 -7 -20 -16 -24l-440 -212c-3 -1 -4 -4 -4 -7z" />
    <glyph glyph-name="equal" unicode="=" horiz-adv-x="580" 
d="M60 326c-16 0 -30 11 -30 27s14 28 30 28h460c16 0 30 -12 30 -28s-14 -27 -30 -27h-460zM520 198c16 0 30 -11 30 -27s-14 -28 -30 -28h-460c-16 0 -30 12 -30 28s14 27 30 27h460z" />
    <glyph glyph-name="greater" unicode="&#x3e;" horiz-adv-x="580" 
d="M60 533c5 0 9 -1 14 -3l441 -212c21 -10 35 -32 35 -55s-14 -45 -35 -55l-441 -212c-5 -2 -9 -3 -14 -3c-15 0 -30 11 -30 27c0 11 7 20 16 24l440 212c3 1 4 4 4 7s-1 6 -4 7l-440 212c-9 4 -16 13 -16 24c0 16 15 27 30 27z" />
    <glyph glyph-name="question" unicode="?" horiz-adv-x="437" 
d="M163 177c-18 0 -33 13 -33 30c0 85 22 143 75 192c82 77 106 107 106 156c0 57 -45 94 -114 94c-42 0 -82 -14 -115 -35c-5 -4 -12 -6 -19 -6c-10 0 -20 4 -27 12c-4 6 -6 12 -6 19c0 10 5 20 14 25c43 29 97 45 153 45c106 0 180 -63 180 -154c0 -77 -45 -123 -125 -198
c-40 -37 -56 -81 -56 -150c0 -17 -15 -30 -33 -30zM163 -7c-18 0 -33 13 -33 30v24c0 16 15 30 33 30s33 -14 33 -30v-24c0 -17 -15 -30 -33 -30z" />
    <glyph glyph-name="at" unicode="@" horiz-adv-x="834" 
d="M417 707c161 0 297 -66 331 -235c12 -58 16 -119 16 -178c0 -98 -13 -236 -142 -236c-45 0 -84 24 -102 66c-34 -40 -85 -66 -139 -66c-118 0 -163 79 -163 188c0 153 70 280 238 280c29 0 137 -10 133 -51l-24 -274v-12c0 -35 16 -76 57 -76c82 0 82 124 82 181
c0 56 -4 114 -15 169c-29 142 -138 190 -272 190c-135 0 -244 -48 -272 -190c-11 -55 -15 -113 -15 -169s4 -113 15 -168c28 -143 137 -190 272 -190c92 0 149 16 233 50c4 1 9 2 13 2c15 0 30 -11 30 -27c0 -26 -42 -36 -61 -43c-73 -27 -137 -37 -215 -37
c-162 0 -297 66 -331 236c-12 58 -16 118 -16 177s4 120 16 178c34 169 169 235 331 235zM381 113c75 0 122 61 128 131c6 72 12 144 19 216c-23 8 -47 12 -72 12c-135 0 -178 -108 -178 -227c0 -73 19 -132 103 -132z" />
    <glyph glyph-name="A" unicode="A" horiz-adv-x="564" 
d="M282 706c34 0 61 -19 71 -51l190 -620c1 -3 1 -6 1 -8c0 -18 -16 -30 -33 -30c-13 0 -27 8 -31 21l-60 196h-275l-60 -196c-4 -13 -18 -21 -32 -21c-17 0 -33 12 -33 30c0 2 0 5 1 8l191 620c10 32 37 51 70 51zM163 274h238l-112 365c-1 3 -3 7 -7 7s-6 -4 -7 -7z" />
    <glyph glyph-name="B" unicode="B" horiz-adv-x="636" 
d="M361 60c99 0 149 46 149 136c0 95 -50 138 -164 137h-190v-273h205zM183 642c-15 0 -27 -11 -27 -25v-224h186c112 0 136 68 136 125s-24 124 -136 124h-159zM514 340c39 -33 62 -82 62 -144c0 -65 -21 -115 -62 -149c-37 -31 -89 -47 -153 -47h-208c-35 0 -63 26 -63 57
v560c0 47 42 85 93 85h159c149 0 202 -95 202 -184c0 -41 -13 -77 -33 -106c-13 -18 -32 -32 -49 -43c15 -6 39 -17 52 -29z" />
    <glyph glyph-name="C" unicode="C" horiz-adv-x="612" 
d="M323 53c66 0 111 14 172 38c4 2 9 3 14 3c17 0 33 -13 33 -31c0 -13 -8 -22 -19 -28c-54 -29 -140 -42 -200 -42c-130 0 -229 64 -245 199c-6 53 -8 106 -8 159s2 106 8 158c16 135 115 200 245 200c60 0 146 -13 200 -42c11 -6 19 -15 19 -28c0 -18 -16 -31 -33 -31
c-5 0 -10 1 -15 3c-60 24 -105 38 -171 38c-99 0 -168 -44 -179 -146c-6 -50 -8 -101 -8 -152s2 -102 8 -153c11 -102 80 -145 179 -145z" />
    <glyph glyph-name="D" unicode="D" horiz-adv-x="646" 
d="M309 702c129 0 233 -60 256 -195c8 -51 11 -104 11 -156s-3 -105 -11 -156c-23 -134 -126 -195 -255 -195h-127c-47 0 -93 35 -93 85v560c0 34 31 57 63 57h156zM183 60h126c192 0 201 139 201 291s-9 291 -201 291h-153v-557c0 -15 13 -25 27 -25z" />
    <glyph glyph-name="E" unicode="E" horiz-adv-x="601" 
d="M156 60h347c17 0 33 -12 33 -30s-16 -30 -33 -30h-350c-32 0 -63 23 -63 57v560c0 50 46 85 93 85h307c17 0 33 -12 33 -30s-16 -30 -33 -30h-307c-14 0 -27 -10 -27 -25v-224h310c17 0 33 -12 33 -30c0 -17 -16 -30 -33 -30h-310v-273z" />
    <glyph glyph-name="F" unicode="F" horiz-adv-x="573" 
d="M523 672c0 -18 -16 -30 -33 -30h-307c-14 0 -27 -10 -27 -25v-224h310c17 0 33 -12 33 -30c0 -17 -16 -30 -33 -30h-310v-306c0 -18 -16 -30 -33 -30s-33 12 -33 30v590c0 50 46 85 93 85h307c17 0 33 -12 33 -30z" />
    <glyph glyph-name="G" unicode="G" horiz-adv-x="633" 
d="M323 649c-99 0 -168 -43 -179 -145c-6 -51 -8 -102 -8 -153s2 -102 8 -153c11 -102 80 -145 179 -145c36 0 134 19 167 35c5 3 7 4 7 10v202h-107c-16 0 -33 12 -33 30s17 30 33 30h110c35 0 63 -21 63 -57v-205c0 -32 -19 -53 -48 -65c-51 -22 -138 -40 -192 -40
c-130 0 -229 64 -245 199c-6 53 -8 106 -8 159s2 106 8 159c16 135 115 199 245 199c62 0 144 -12 200 -42c11 -5 19 -13 19 -27c0 -17 -17 -30 -33 -30c-5 0 -10 1 -15 3c-60 24 -105 36 -171 36z" />
    <glyph glyph-name="H" unicode="H" horiz-adv-x="656" 
d="M533 706c17 0 33 -13 33 -30v-649c0 -18 -16 -30 -33 -30s-33 12 -33 30v306h-344v-306c0 -18 -16 -30 -33 -30s-33 12 -33 30v649c0 17 16 30 33 30s33 -13 33 -30v-283h344v283c0 17 16 30 33 30z" />
    <glyph glyph-name="I" unicode="I" horiz-adv-x="246" 
d="M123 -3c-17 0 -33 12 -33 30v649c0 17 16 30 33 30s33 -13 33 -30v-649c0 -18 -16 -30 -33 -30z" />
    <glyph glyph-name="J" unicode="J" horiz-adv-x="520" 
d="M407 706c17 0 33 -13 33 -30v-463c0 -126 -91 -220 -218 -220c-57 0 -140 14 -190 44c-11 7 -17 15 -17 29c0 17 14 30 31 30c6 0 11 -2 16 -4c57 -22 97 -39 160 -39c93 0 152 70 152 160v463c0 17 16 30 33 30z" />
    <glyph glyph-name="K" unicode="K" horiz-adv-x="584" 
d="M292 363c19 -12 35 -27 49 -45l208 -274c3 -5 5 -11 5 -17c0 -19 -16 -30 -34 -30c-10 0 -21 4 -28 13l-212 279c-15 20 -34 44 -61 44h-63v-307c0 -17 -16 -30 -33 -30s-33 13 -33 30v650c0 17 16 30 33 30s33 -13 33 -30v-283h63c26 0 47 23 62 42l197 258
c7 8 18 12 29 12c17 0 33 -11 33 -29c0 -7 -2 -13 -6 -18l-191 -249c-14 -19 -31 -34 -51 -46z" />
    <glyph glyph-name="L" unicode="L" horiz-adv-x="539" 
d="M496 0h-313c-47 0 -93 35 -93 85v591c0 17 16 30 33 30s33 -13 33 -30v-591c0 -15 13 -25 27 -25h313c16 0 33 -12 33 -30s-17 -30 -33 -30z" />
    <glyph glyph-name="M" unicode="M" horiz-adv-x="781" 
d="M618 706c42 0 73 -30 73 -73v-606c0 -18 -17 -30 -33 -30c-17 0 -33 12 -33 30v608c0 4 -1 11 -7 11c-3 0 -5 -3 -6 -6l-153 -438c-11 -30 -37 -46 -69 -46c-31 0 -58 16 -68 46l-153 438c-1 3 -3 6 -7 6c-5 0 -6 -7 -6 -11v-608c0 -18 -16 -30 -33 -30s-33 12 -33 30
v606c0 43 31 73 73 73c30 0 59 -18 69 -47l152 -437c1 -3 3 -6 6 -6c4 0 5 3 6 6l153 437c10 29 39 47 69 47z" />
    <glyph glyph-name="N" unicode="N" horiz-adv-x="681" 
d="M163 646c-6 0 -7 -6 -7 -10v-609c0 -18 -16 -30 -33 -30s-33 12 -33 30v601c0 44 26 78 73 78c31 0 56 -16 69 -44l278 -600c2 -3 4 -5 8 -5c6 0 7 5 7 9v610c0 17 16 30 33 30s33 -13 33 -30v-602c0 -44 -26 -77 -73 -77c-30 0 -56 15 -69 43l-278 600c-2 3 -4 6 -8 6z
" />
    <glyph glyph-name="O" unicode="O" horiz-adv-x="646" 
d="M323 649c-100 0 -168 -43 -179 -145c-6 -51 -8 -102 -8 -153s2 -102 8 -153c11 -102 79 -145 179 -145s168 43 180 145c5 51 7 102 7 153s-2 102 -7 153c-12 102 -80 145 -180 145zM323 -7c-130 0 -229 64 -245 199c-6 53 -8 106 -8 159s2 106 8 159
c16 135 115 199 245 199s229 -64 245 -199c6 -53 8 -106 8 -159s-2 -106 -8 -159c-16 -135 -115 -199 -245 -199z" />
    <glyph glyph-name="P" unicode="P" horiz-adv-x="579" 
d="M183 702h159c116 0 202 -64 202 -185c0 -122 -85 -184 -202 -184h-186v-306c0 -18 -16 -30 -33 -30s-33 12 -33 30v590c0 50 46 85 93 85zM342 642h-159c-14 0 -27 -10 -27 -25v-224h186c84 0 136 39 136 124c0 86 -52 125 -136 125z" />
    <glyph glyph-name="Q" unicode="Q" horiz-adv-x="646" 
d="M504 55c13 -17 71 -90 71 -107c0 -18 -17 -30 -33 -30c-11 0 -22 5 -28 14l-63 87c-39 -19 -84 -26 -128 -26c-130 0 -229 64 -245 199c-6 53 -8 106 -8 159s2 106 8 159c16 135 115 199 245 199s229 -64 245 -199c6 -53 8 -106 8 -159s-2 -106 -8 -159
c-6 -52 -25 -100 -64 -137zM323 53c31 0 63 4 92 17c-11 16 -57 71 -57 88c0 18 17 30 33 30c11 0 22 -5 28 -13l48 -67c21 25 32 57 36 90c5 51 7 102 7 153s-2 102 -7 153c-12 102 -81 145 -180 145s-168 -43 -179 -145c-6 -51 -8 -102 -8 -153s2 -102 8 -153
c11 -102 80 -145 179 -145z" />
    <glyph glyph-name="R" unicode="R" horiz-adv-x="600" 
d="M183 702h159c116 0 202 -64 202 -185c0 -122 -85 -184 -202 -184h-22c13 -9 24 -19 34 -31l196 -258c3 -5 5 -11 5 -17c0 -17 -16 -30 -33 -30c-11 0 -22 4 -29 13l-212 279c-18 24 -38 44 -70 44h-55v-306c0 -18 -16 -30 -33 -30s-33 12 -33 30v590c0 50 46 85 93 85z
M342 642h-159c-14 0 -27 -10 -27 -25v-224h186c84 0 136 39 136 124c0 86 -52 125 -136 125z" />
    <glyph glyph-name="S" unicode="S" horiz-adv-x="543" 
d="M265 -7c-58 0 -135 8 -189 32c-12 6 -21 15 -21 30c0 18 16 30 33 30c4 0 8 0 12 -2c60 -19 100 -30 165 -30c86 0 162 49 162 142c0 90 -87 117 -160 136c-106 27 -208 71 -208 196c0 128 101 182 216 182c47 0 117 -6 161 -26c12 -5 21 -15 21 -29
c0 -18 -16 -31 -33 -31c-4 0 -8 1 -12 2c-45 15 -89 24 -137 24c-82 0 -150 -30 -150 -122c0 -89 89 -114 160 -132c108 -28 208 -73 208 -200c0 -129 -108 -202 -228 -202z" />
    <glyph glyph-name="T" unicode="T" horiz-adv-x="526" 
d="M483 702c17 0 33 -12 33 -30s-16 -30 -33 -30h-187v-615c0 -20 -15 -30 -33 -30s-33 10 -33 30v615h-187c-17 0 -33 12 -33 30s16 30 33 30h440z" />
    <glyph glyph-name="U" unicode="U" horiz-adv-x="656" 
d="M328 -7c-129 0 -229 64 -244 199c-3 25 -4 51 -4 76v408c0 19 15 30 33 30s33 -11 33 -30v-393c0 -29 1 -57 4 -85c11 -101 79 -145 178 -145s167 44 178 145c4 31 4 61 4 92v386c0 19 15 30 33 30s33 -11 33 -30v-393c0 -30 -1 -60 -4 -91c-15 -135 -115 -199 -244 -199
z" />
    <glyph glyph-name="V" unicode="V" horiz-adv-x="564" 
d="M282 -3c-33 0 -60 18 -70 50l-191 620c-1 3 -1 6 -1 9c0 17 16 30 33 30c14 0 28 -9 32 -22l190 -621c1 -3 3 -6 7 -6s6 3 7 6l191 621c4 13 18 22 31 22c17 0 33 -13 33 -30c0 -3 0 -6 -1 -9l-190 -620c-10 -32 -37 -50 -71 -50z" />
    <glyph glyph-name="W" unicode="W" horiz-adv-x="842" 
d="M789 706c17 0 33 -13 33 -30v-6l-132 -618c-7 -34 -36 -55 -71 -55s-64 20 -71 55l-120 582c-1 4 -3 8 -7 8s-6 -4 -7 -8l-119 -582c-7 -35 -37 -55 -72 -55c-34 0 -64 21 -71 55l-131 618c-1 2 -1 4 -1 6c0 17 16 30 33 30c15 0 29 -10 32 -25l132 -617c1 -4 2 -7 6 -7
s6 3 7 7l120 582c7 35 36 56 71 56s64 -21 72 -56l119 -582c1 -4 3 -7 7 -7s6 3 7 7l131 617c3 15 18 25 32 25z" />
    <glyph glyph-name="X" unicode="X" horiz-adv-x="652" 
d="M389 366c21 -14 37 -33 51 -54l172 -271c3 -4 5 -10 5 -16c0 -19 -16 -28 -33 -28c-13 0 -24 5 -31 16l-172 270c-10 15 -33 53 -55 53s-45 -38 -55 -53l-172 -270c-7 -11 -18 -16 -31 -16c-17 0 -33 9 -33 28c0 6 2 12 5 16l172 271c14 21 29 40 50 54
c-18 12 -31 25 -43 44l-160 251c-3 4 -5 9 -5 14c0 19 16 31 34 31c12 0 23 -6 30 -17l158 -248c11 -17 26 -45 50 -45c23 0 39 28 50 45l158 248c7 11 18 17 30 17c17 0 33 -12 33 -31c0 -5 -1 -10 -4 -14l-160 -251c-12 -19 -25 -32 -44 -44z" />
    <glyph glyph-name="Y" unicode="Y" horiz-adv-x="587" 
d="M539 706c17 0 33 -14 33 -31c0 -5 -1 -11 -4 -15l-164 -251c-19 -28 -44 -57 -78 -67v-315c0 -18 -16 -30 -33 -30c-16 0 -33 12 -33 30v315c-33 10 -58 39 -77 67l-164 251c-2 4 -4 10 -4 15c0 17 17 31 33 31c12 0 23 -6 29 -15l164 -251c12 -18 28 -43 52 -43
c25 0 41 25 53 43l164 251c6 9 18 15 29 15z" />
    <glyph glyph-name="Z" unicode="Z" horiz-adv-x="572" 
d="M499 0h-386c-28 0 -52 13 -65 34c-5 10 -8 20 -8 31c0 15 5 29 15 42l402 523c1 2 2 4 2 6c0 1 0 2 -1 3c-1 2 -2 3 -7 3h-356c-19 0 -33 14 -33 30c0 17 14 30 33 30h356c29 0 54 -13 67 -35c5 -10 8 -20 8 -30c0 -15 -5 -29 -15 -42l-402 -523c-2 -3 -3 -5 -3 -6
s1 -2 1 -3c1 -2 3 -3 7 -3h385c18 0 33 -14 33 -30c0 -17 -15 -30 -33 -30z" />
    <glyph glyph-name="bracketleft" unicode="[" horiz-adv-x="313" 
d="M253 -116h-103c-30 0 -60 22 -60 54v737c0 32 30 55 60 55h103c15 0 30 -12 30 -28s-15 -27 -30 -27h-103v-737h103c15 0 30 -11 30 -27s-15 -27 -30 -27z" />
    <glyph glyph-name="backslash" unicode="\" horiz-adv-x="334" 
d="M304 -35c-11 0 -18 6 -23 15c-10 19 -19 50 -27 70l-50 133c-56 146 -111 292 -166 438c-2 7 -33 89 -33 93c0 14 13 23 25 23s18 -6 24 -15c10 -19 18 -50 26 -70l51 -133c55 -146 111 -292 165 -438c3 -7 33 -89 33 -93c0 -14 -12 -23 -25 -23z" />
    <glyph glyph-name="bracketright" unicode="]" horiz-adv-x="313" 
d="M163 -116h-103c-15 0 -30 11 -30 27s15 27 30 27h103v737h-103c-15 0 -30 11 -30 27s15 28 30 28h103c30 0 60 -23 60 -55v-737c0 -32 -30 -54 -60 -54z" />
    <glyph glyph-name="asciicircum" unicode="^" horiz-adv-x="580" 
d="M290 737c31 0 54 -16 66 -44l160 -401c1 -4 2 -8 2 -11c0 -19 -15 -28 -32 -28c-13 0 -26 8 -31 20l-159 398c-1 3 -2 8 -6 8s-5 -5 -6 -8l-159 -398c-5 -12 -18 -20 -31 -20c-17 0 -32 9 -32 28c0 3 1 7 2 11l160 401c12 28 35 44 66 44z" />
    <glyph glyph-name="underscore" unicode="_" horiz-adv-x="567" 
d="M534 -134h-501c-14 0 -28 10 -28 25s14 26 28 26h501c14 0 28 -11 28 -26s-14 -25 -28 -25z" />
    <glyph glyph-name="quoteleft" unicode="&#x2018;" horiz-adv-x="165" 
d="M69 506c-27 0 -29 21 -29 42c0 57 22 125 51 174c6 10 15 15 26 15c14 0 28 -10 28 -25c0 -4 -1 -8 -3 -11c-29 -63 -46 -97 -46 -168c0 -16 -12 -27 -27 -27z" />
    <glyph glyph-name="a" unicode="a" horiz-adv-x="540" 
d="M268 533c56 0 112 -14 154 -54c49 -48 53 -116 53 -181v-70c0 -65 -4 -133 -53 -181c-42 -40 -98 -54 -154 -54c-116 0 -213 52 -213 177c0 129 97 177 213 177c48 0 96 -8 143 -17c-4 96 -42 145 -143 145c-49 0 -92 -9 -139 -21c-4 -1 -7 -2 -10 -2
c-16 0 -32 13 -32 30c0 14 10 25 23 29c49 18 106 22 158 22zM268 51c122 0 143 70 143 177v46c-47 9 -95 14 -143 14c-84 0 -149 -25 -149 -118c0 -91 68 -119 149 -119z" />
    <glyph glyph-name="b" unicode="b" horiz-adv-x="565" 
d="M288 533c107 0 191 -54 207 -165c5 -35 5 -70 5 -105s0 -70 -5 -105c-16 -111 -100 -165 -207 -165c-108 0 -192 54 -208 165c-5 31 -5 63 -5 94v456c0 17 16 29 32 29s32 -12 32 -29v-212c49 24 94 37 149 37zM288 51c143 0 148 99 148 212s-5 212 -148 212
c-51 0 -104 -15 -149 -38v-175c0 -112 5 -211 149 -211z" />
    <glyph glyph-name="c" unicode="c" horiz-adv-x="529" 
d="M278 51c52 0 97 20 144 41c5 2 10 3 15 3c17 0 32 -12 32 -30c0 -12 -7 -21 -17 -27c-48 -27 -120 -45 -174 -45c-109 0 -192 54 -208 165c-5 35 -5 70 -5 105s0 70 5 105c16 111 99 165 208 165c54 0 127 -18 174 -45c10 -6 17 -15 17 -27c0 -18 -15 -30 -32 -30
c-5 0 -10 1 -15 3c-47 21 -92 41 -144 41c-144 0 -149 -100 -149 -212s5 -212 149 -212z" />
    <glyph glyph-name="d" unicode="d" horiz-adv-x="565" 
d="M65 263c0 35 0 70 5 105c16 111 100 165 208 165c54 0 99 -13 148 -37v212c0 17 16 29 32 29s32 -12 32 -29v-456c0 -31 0 -63 -5 -94c-16 -111 -100 -165 -207 -165c-108 0 -192 54 -208 165c-5 35 -5 70 -5 105zM129 263c0 -113 5 -212 149 -212c143 0 148 99 148 211
v175c-45 23 -98 38 -148 38c-144 0 -149 -99 -149 -212z" />
    <glyph glyph-name="e" unicode="e" horiz-adv-x="552" 
d="M278 51c53 0 101 19 149 41c5 2 10 3 15 3c17 0 32 -12 32 -30c0 -12 -7 -21 -17 -27c-48 -27 -124 -45 -179 -45c-108 0 -192 54 -208 165c-5 35 -5 70 -5 105s0 70 5 105c16 111 100 165 208 165c107 0 192 -54 207 -165c1 -7 2 -14 2 -21c0 -62 -41 -104 -104 -104
h-254c1 -109 16 -192 149 -192zM278 475c-122 0 -146 -71 -149 -174h254c29 0 40 19 40 46c0 85 -66 128 -145 128z" />
    <glyph glyph-name="f" unicode="f" horiz-adv-x="410" 
d="M288 737c29 0 117 -5 117 -46c0 -18 -15 -30 -32 -30c-4 0 -9 1 -13 3c-24 9 -46 15 -72 15c-107 0 -141 -54 -144 -153h221c16 0 32 -12 32 -29s-16 -29 -32 -29h-221v-442c0 -18 -16 -29 -32 -29s-32 11 -32 29v476c0 66 4 133 54 181c41 40 98 54 154 54z" />
    <glyph glyph-name="g" unicode="g" horiz-adv-x="560" 
d="M278 81c49 0 100 15 143 37v184c0 106 -23 173 -143 173c-132 0 -149 -88 -149 -196c0 -109 15 -198 149 -198zM278 533c56 0 112 -14 154 -54c49 -49 53 -115 53 -180v-246c0 -65 -4 -133 -53 -181c-42 -40 -98 -54 -154 -54c-57 0 -131 17 -180 45c-10 6 -17 15 -17 27
c0 18 15 30 32 30c5 0 10 -1 15 -3c48 -22 96 -41 150 -41c122 0 143 70 143 177v6c-45 -21 -94 -36 -143 -36c-110 0 -192 56 -208 168c-4 30 -5 59 -5 88s1 57 5 86c16 112 98 168 208 168z" />
    <glyph glyph-name="h" unicode="h" horiz-adv-x="573" 
d="M498 298v-272c0 -18 -16 -29 -32 -29c-17 0 -32 11 -32 29v272c0 107 -22 177 -144 177c-51 0 -101 -13 -146 -37v-412c0 -18 -16 -29 -32 -29s-32 11 -32 29v682c0 17 16 29 32 29s32 -12 32 -29v-212c46 23 94 37 146 37c56 0 112 -14 154 -54c49 -48 54 -116 54 -181z
" />
    <glyph glyph-name="i" unicode="i" horiz-adv-x="222" 
d="M152 661c0 -22 -18 -41 -41 -41s-41 19 -41 41c0 23 18 41 41 41s41 -18 41 -41zM111 -3c-16 0 -32 11 -32 29v474c0 18 16 29 32 29s32 -11 32 -29v-474c0 -18 -16 -29 -32 -29z" />
    <glyph glyph-name="j" unicode="j" horiz-adv-x="244" 
d="M174 661c0 -22 -19 -41 -41 -41c-23 0 -41 19 -41 41c0 23 18 41 41 41c22 0 41 -18 41 -41zM-43 -182c-16 0 -32 13 -32 30s16 29 32 29c38 0 79 8 107 35c36 34 37 95 37 141v447c0 18 16 29 32 29s32 -11 32 -29v-447c0 -65 -4 -133 -54 -181
c-41 -40 -98 -54 -154 -54z" />
    <glyph glyph-name="k" unicode="k" horiz-adv-x="525" 
d="M269 280c18 -10 34 -23 47 -38l172 -198c5 -5 7 -11 7 -17c0 -18 -15 -30 -33 -30c-9 0 -18 3 -25 11l-171 197c-19 21 -40 45 -70 45h-52v-224c0 -18 -16 -29 -32 -29s-32 11 -32 29v682c0 17 16 29 32 29s32 -12 32 -29v-400h48c32 0 54 23 75 45l158 166
c6 7 15 10 24 10c17 0 33 -12 33 -30c0 -6 -3 -13 -8 -18l-159 -167c-13 -14 -28 -26 -46 -34z" />
    <glyph glyph-name="l" unicode="l" horiz-adv-x="251" 
d="M112 737c16 0 32 -12 32 -29v-517c0 -69 11 -97 60 -143c8 -7 12 -16 12 -26c0 -16 -15 -25 -30 -25c-9 0 -19 3 -26 8c-59 42 -80 118 -80 186v517c0 17 16 29 32 29z" />
    <glyph glyph-name="m" unicode="m" horiz-adv-x="770" 
d="M524 533c100 0 171 -64 171 -166v-341c0 -17 -15 -29 -32 -29c-16 0 -32 12 -32 29v341c0 66 -40 108 -107 108c-66 0 -107 -42 -107 -108v-341c0 -17 -15 -29 -32 -29c-16 0 -32 12 -32 29v341c0 66 -41 108 -107 108s-107 -42 -107 -108v-341c0 -17 -16 -29 -32 -29
s-32 12 -32 29v341c0 102 71 166 171 166c58 0 111 -24 141 -75c28 52 80 75 137 75z" />
    <glyph glyph-name="n" unicode="n" horiz-adv-x="566" 
d="M283 533c56 0 113 -14 154 -54c50 -48 54 -115 54 -181v-272c0 -18 -16 -29 -32 -29s-32 11 -32 29v272c0 107 -22 177 -144 177s-144 -70 -144 -177v-272c0 -18 -16 -29 -32 -29s-32 11 -32 29v272c0 66 4 133 54 181c41 40 98 54 154 54z" />
    <glyph glyph-name="o" unicode="o" horiz-adv-x="555" 
d="M278 533c108 0 191 -54 207 -165c5 -35 5 -70 5 -105s0 -70 -5 -105c-16 -111 -100 -165 -207 -165c-109 0 -192 54 -208 165c-5 35 -5 70 -5 105s0 70 5 105c16 111 99 165 208 165zM278 51c143 0 148 99 148 212s-5 212 -148 212c-144 0 -149 -99 -149 -212
s5 -212 149 -212z" />
    <glyph glyph-name="p" unicode="p" horiz-adv-x="565" 
d="M500 263c0 -35 0 -70 -5 -105c-16 -111 -100 -165 -207 -165c-55 0 -100 13 -149 37v-190c0 -17 -16 -29 -32 -29s-32 12 -32 29v434c0 31 0 63 5 94c16 111 100 165 208 165c107 0 191 -54 207 -165c5 -35 5 -70 5 -105zM436 263c0 113 -5 212 -148 212
c-144 0 -149 -99 -149 -211v-175c45 -23 98 -38 149 -38c143 0 148 99 148 212z" />
    <glyph glyph-name="q" unicode="q" horiz-adv-x="565" 
d="M278 -7c-108 0 -192 54 -208 165c-5 35 -5 70 -5 105s0 70 5 105c16 111 100 165 208 165c107 0 191 -54 207 -165c5 -31 5 -63 5 -94v-434c0 -17 -16 -29 -32 -29s-32 12 -32 29v190c-49 -24 -94 -37 -148 -37zM278 475c-144 0 -149 -99 -149 -212s5 -212 149 -212
c50 0 103 15 148 38v175c0 112 -5 211 -148 211z" />
    <glyph glyph-name="r" unicode="r" horiz-adv-x="415" 
d="M284 533c29 0 74 -5 101 -18c12 -5 20 -15 20 -28c0 -17 -16 -30 -32 -30c-5 0 -9 1 -13 3c-25 8 -50 15 -76 15c-143 0 -145 -103 -145 -213v-236c0 -18 -16 -29 -32 -29s-32 11 -32 29v243c0 32 0 66 5 99c16 111 94 165 204 165z" />
    <glyph glyph-name="s" unicode="s" horiz-adv-x="465" 
d="M233 -7c-48 0 -115 8 -160 25c-14 5 -23 15 -23 29c0 18 15 30 32 30c3 0 6 -1 9 -2c48 -12 93 -24 142 -24c62 0 118 21 118 92c0 67 -70 79 -123 90c-85 18 -173 54 -173 155c0 106 90 145 184 145c39 0 84 -4 121 -17c13 -4 23 -15 23 -29c0 -18 -16 -30 -32 -30
c-3 0 -6 1 -9 1c-35 9 -67 17 -103 17c-59 0 -120 -17 -120 -87c0 -67 70 -81 123 -93c85 -18 173 -50 173 -152c0 -107 -87 -150 -182 -150z" />
    <glyph glyph-name="t" unicode="t" horiz-adv-x="430" 
d="M368 68c17 0 32 -12 32 -30c0 -40 -89 -45 -117 -45c-56 0 -113 14 -154 54c-50 48 -54 115 -54 181v445c0 17 16 29 32 29s32 -12 32 -29v-147h226c16 0 32 -12 32 -29s-16 -29 -32 -29h-226v-240c0 -107 22 -177 144 -177c25 0 48 5 72 14c4 2 9 3 13 3z" />
    <glyph glyph-name="u" unicode="u" horiz-adv-x="566" 
d="M459 529c16 0 32 -11 32 -29v-272c0 -65 -4 -133 -54 -181c-41 -40 -98 -54 -154 -54s-113 14 -154 54c-50 48 -54 116 -54 181v272c0 18 16 29 32 29s32 -11 32 -29v-272c0 -107 22 -177 144 -177s144 70 144 177v272c0 18 16 29 32 29z" />
    <glyph glyph-name="v" unicode="v" horiz-adv-x="492" 
d="M430 529c17 0 32 -11 32 -29c0 -2 0 -5 -1 -8l-146 -450c-11 -33 -35 -49 -69 -49s-58 16 -68 49l-147 450c-1 3 -1 6 -1 8c0 18 16 29 33 29c13 0 26 -7 30 -20l146 -450c2 -4 3 -8 7 -8c5 0 6 4 7 8l146 450c4 13 17 20 31 20z" />
    <glyph glyph-name="w" unicode="w" horiz-adv-x="795" 
d="M732 529c18 0 33 -10 33 -28c0 -3 -1 -6 -2 -9l-117 -441c-8 -32 -35 -54 -68 -54c-34 0 -61 23 -69 54l-108 413c0 4 -2 7 -4 7s-3 -4 -4 -7l-107 -413c-9 -31 -36 -54 -69 -54s-60 22 -69 54l-117 441c-1 3 -1 6 -1 9c0 18 15 28 32 28c14 0 27 -8 31 -22l117 -441
c1 -3 3 -11 7 -11s6 8 7 11l107 412c8 31 34 51 66 51c33 0 59 -20 67 -51l107 -412c1 -3 2 -11 7 -11c4 0 5 8 6 11l117 441c4 14 17 22 31 22z" />
    <glyph glyph-name="x" unicode="x" horiz-adv-x="530" 
d="M321 274c17 -11 31 -26 42 -43l128 -190c3 -5 4 -10 4 -16c0 -19 -16 -28 -33 -28c-11 0 -21 4 -27 14l-132 197c-8 12 -22 37 -38 37s-30 -25 -38 -37l-132 -197c-6 -10 -16 -14 -27 -14c-17 0 -33 9 -33 28c0 6 2 11 5 16l127 190c11 17 25 32 42 43
c-15 9 -34 31 -44 46l-110 164c-3 4 -4 10 -4 16c0 18 14 29 31 29c12 0 23 -6 29 -15l121 -181c7 -10 19 -30 33 -30s27 20 33 30l121 181c6 9 17 15 29 15c17 0 32 -11 32 -29c0 -6 -2 -12 -5 -16l-110 -164c-9 -15 -29 -37 -44 -46z" />
    <glyph glyph-name="y" unicode="y" horiz-adv-x="497" 
d="M68 -154c0 18 14 29 31 30s33 3 48 10c54 22 79 93 96 144l7 20c-29 14 -51 42 -64 72l-154 368c-1 3 -2 7 -2 11c0 18 15 28 32 28c14 0 26 -7 32 -20l153 -366c2 -4 16 -34 21 -34c1 0 2 0 2 2l133 396c4 14 16 23 31 23c17 0 33 -11 33 -29c0 -12 -147 -443 -160 -485
c-34 -101 -83 -198 -206 -198c-15 0 -33 11 -33 28z" />
    <glyph glyph-name="z" unicode="z" horiz-adv-x="508" 
d="M436 0h-325c-37 0 -71 25 -71 64c0 18 7 34 19 47l327 343c2 2 4 4 4 7c0 5 -4 7 -8 7h-288c-17 0 -32 12 -32 29s15 29 32 29h290c37 0 71 -25 71 -64c0 -17 -7 -34 -19 -46l-327 -343c-2 -2 -4 -5 -4 -8c0 -5 3 -7 7 -7h324c16 0 32 -12 32 -29s-16 -29 -32 -29z" />
    <glyph glyph-name="braceleft" unicode="{" horiz-adv-x="314" 
d="M148 417c0 64 -18 126 -18 190c0 82 39 130 124 130c15 0 30 -11 30 -27s-15 -27 -30 -27c-54 0 -64 -29 -64 -77c0 -60 17 -120 17 -180c0 -45 -8 -98 -53 -119c45 -20 53 -76 53 -119c0 -61 -17 -120 -17 -181c0 -48 10 -76 64 -76c15 0 30 -11 30 -27
c0 -17 -15 -28 -30 -28c-85 0 -124 48 -124 130c0 64 18 127 18 191c0 127 -98 50 -98 110c0 59 98 -18 98 110z" />
    <glyph glyph-name="bar" unicode="|" horiz-adv-x="240" 
d="M120 -123c-15 0 -30 11 -30 27v805c0 16 15 28 30 28s30 -12 30 -28v-805c0 -16 -15 -27 -30 -27z" />
    <glyph glyph-name="braceright" unicode="}" horiz-adv-x="314" 
d="M165 417c0 -128 99 -51 99 -110c0 -60 -99 17 -99 -110c0 -64 18 -127 18 -191c0 -82 -38 -130 -123 -130c-15 0 -30 11 -30 28c0 16 15 27 30 27c54 0 63 28 63 76c0 61 -16 120 -16 181c0 43 8 99 52 119c-44 21 -52 74 -52 119c0 60 16 120 16 180c0 48 -9 77 -63 77
c-15 0 -30 11 -30 27s15 27 30 27c85 0 123 -48 123 -130c0 -64 -18 -126 -18 -190z" />
    <glyph glyph-name="asciitilde" unicode="~" horiz-adv-x="567" 
d="M376 197c-63 0 -135 64 -185 64c-53 0 -55 -61 -86 -61c-13 0 -25 10 -25 23c0 5 2 9 4 13c25 42 57 72 107 72c64 0 136 -65 186 -65c52 0 54 62 85 62c13 0 25 -10 25 -23c0 -5 -2 -10 -4 -14c-24 -41 -56 -71 -107 -71z" />
    <glyph glyph-name="exclamdown" unicode="&#xa1;" horiz-adv-x="226" 
d="M113 349c18 0 33 -13 33 -30v-472c0 -17 -15 -30 -33 -30s-33 13 -33 30v472c0 17 15 30 33 30zM113 533c18 0 33 -13 33 -30v-24c0 -16 -15 -30 -33 -30s-33 14 -33 30v24c0 17 15 30 33 30z" />
    <glyph glyph-name="cent" unicode="&#xa2;" horiz-adv-x="529" 
d="M310 138c40 6 75 23 112 39c5 2 10 3 15 3c17 0 32 -12 32 -30c0 -12 -7 -21 -17 -27c-39 -23 -97 -39 -142 -44v-67c0 -12 -11 -21 -23 -21s-24 9 -24 21v66c-105 4 -177 60 -193 166c-6 35 -5 71 -5 106s-1 71 5 106c16 105 88 161 193 166v65c0 13 12 22 24 22
s23 -9 23 -22v-66c45 -5 103 -21 142 -44c10 -7 17 -15 17 -28c0 -17 -15 -30 -32 -30c-5 0 -10 2 -15 4c-37 15 -72 32 -112 38v-423zM129 350c0 -105 2 -207 134 -214v427c-132 -7 -134 -109 -134 -213z" />
    <glyph glyph-name="sterling" unicode="&#xa3;" horiz-adv-x="523" 
d="M503 118c6 -5 10 -13 10 -21c0 -7 -3 -14 -9 -20c-53 -50 -124 -77 -204 -77h-228c-18 0 -32 13 -32 29s14 29 32 29h35v282v3h-35c-14 0 -25 10 -25 23c0 12 11 22 25 22h35v163c0 94 63 158 156 158c60 0 105 -13 141 -27c12 -4 20 -16 20 -28c0 -4 -1 -8 -2 -12
c-6 -11 -18 -18 -30 -18c-4 0 -8 1 -12 2c-32 12 -68 25 -117 25c-85 0 -92 -77 -92 -100v-163h120c14 0 25 -10 25 -22c0 -13 -11 -23 -25 -23h-120v-3v-282h129c63 0 116 20 157 60c7 6 15 9 24 9c7 0 15 -3 22 -9z" />
    <glyph glyph-name="fraction" unicode="&#x2044;" horiz-adv-x="252" 
d="M-75 -7c-13 0 -25 9 -25 23c0 3 1 7 3 11l403 670c4 8 13 12 21 12c13 0 25 -9 25 -23c0 -4 -1 -7 -3 -11l-402 -670c-5 -8 -13 -12 -22 -12z" />
    <glyph glyph-name="florin" unicode="&#x192;" horiz-adv-x="445" 
d="M245 437h148c16 0 32 -12 32 -29s-16 -29 -32 -29h-148v-240c0 -65 -4 -133 -54 -181c-41 -40 -98 -54 -154 -54c-16 0 -32 12 -32 29s16 29 32 29c38 0 79 9 107 36c35 34 37 90 37 135v246h-61c-16 0 -32 12 -32 29s16 29 32 29h61v37c0 65 4 133 54 181
c41 40 98 54 154 54c16 0 32 -12 32 -29s-16 -29 -32 -29c-38 0 -79 -8 -108 -36c-36 -35 -36 -94 -36 -141v-37z" />
    <glyph glyph-name="section" unicode="&#xa7;" horiz-adv-x="591" 
d="M531 258c0 -59 -30 -114 -74 -152c16 -22 24 -49 24 -76c0 -113 -103 -153 -200 -153c-34 0 -103 6 -133 21c-12 6 -20 13 -20 28c0 16 14 27 30 27c3 0 7 0 10 -1c37 -11 74 -20 113 -20c65 0 140 19 140 98c0 160 -361 51 -361 298c0 59 30 114 74 152
c-16 22 -24 49 -24 77c0 113 103 152 200 152c35 0 103 -6 133 -21c12 -6 20 -13 20 -27c0 -17 -14 -28 -30 -28c-3 0 -6 1 -10 2c-37 10 -74 20 -113 20c-64 0 -140 -20 -140 -98c0 -160 361 -52 361 -299zM120 328c0 -17 1 -35 8 -51c23 -55 107 -75 159 -86
c44 -10 89 -22 128 -46c33 28 56 69 56 113c0 18 -1 35 -8 51c-23 56 -106 75 -159 86c-44 10 -89 22 -127 46c-34 -28 -57 -69 -57 -113z" />
    <glyph glyph-name="currency" unicode="&#xa4;" horiz-adv-x="669" 
d="M517 215l75 -76c4 -4 7 -9 7 -15c0 -13 -13 -23 -25 -23c-7 0 -14 3 -19 8l-72 73c-42 -34 -95 -53 -149 -53c-53 0 -107 19 -148 53l-72 -73c-5 -5 -12 -8 -19 -8c-13 0 -25 10 -25 23c0 6 2 11 6 15l75 76c-34 42 -54 96 -54 151c0 54 20 108 54 150l-75 76
c-4 4 -6 9 -6 15c0 13 12 23 25 23c7 0 14 -3 19 -8l72 -72c41 33 95 52 148 52c54 0 107 -19 149 -52l72 72c5 5 12 8 19 8c12 0 25 -10 25 -23c0 -6 -3 -11 -7 -15l-75 -76c35 -42 55 -96 55 -150c0 -55 -20 -109 -55 -151zM161 366c0 -96 76 -179 173 -179
c98 0 174 83 174 179s-76 178 -174 178c-97 0 -173 -82 -173 -178z" />
    <glyph glyph-name="quotesingle" unicode="'" horiz-adv-x="116" 
d="M58 506c-14 0 -28 11 -28 26v180c0 15 14 26 28 26s28 -11 28 -26v-180c0 -15 -14 -26 -28 -26z" />
    <glyph glyph-name="quotedblleft" unicode="&#x201c;" horiz-adv-x="268" 
d="M69 506c-27 0 -29 21 -29 42c0 57 22 126 51 174c6 10 15 15 26 15c14 0 28 -10 28 -25c0 -4 -1 -8 -3 -11c-29 -63 -46 -97 -46 -168c0 -16 -12 -27 -27 -27zM172 506c-27 0 -29 21 -29 42c0 57 22 126 51 174c6 10 15 15 26 15c14 0 28 -10 28 -25c0 -4 -1 -8 -3 -11
c-29 -63 -45 -97 -45 -168c0 -16 -13 -27 -28 -27z" />
    <glyph glyph-name="guillemotleft" unicode="&#xab;" horiz-adv-x="387" 
d="M329 25c-9 0 -19 5 -24 13l-124 196c-5 9 -8 19 -8 29s3 20 8 29l124 196c5 8 15 13 24 13c15 0 28 -11 28 -26c0 -5 -1 -9 -4 -13l-123 -196l-1 -3l1 -3l123 -196c3 -4 4 -8 4 -13c0 -15 -13 -26 -28 -26zM186 25c-10 0 -19 5 -24 13l-124 196c-5 9 -8 19 -8 29
s3 20 8 29l124 196c5 8 14 13 24 13c14 0 28 -11 28 -26c0 -5 -1 -9 -4 -13l-124 -196v-3v-3l124 -196c3 -4 4 -8 4 -13c0 -15 -14 -26 -28 -26z" />
    <glyph glyph-name="guilsinglleft" unicode="&#x2039;" horiz-adv-x="244" 
d="M186 25c-10 0 -19 5 -24 13l-124 196c-5 9 -8 19 -8 29s3 20 8 29l124 196c5 8 14 13 24 13c14 0 28 -11 28 -26c0 -5 -1 -9 -4 -13l-124 -196v-3v-3l124 -196c3 -4 4 -8 4 -13c0 -15 -14 -26 -28 -26z" />
    <glyph glyph-name="guilsinglright" unicode="&#x203a;" horiz-adv-x="244" 
d="M58 25c-14 0 -28 11 -28 26c0 5 1 9 4 13l124 196v3l-1 3l-123 196c-3 4 -4 8 -4 13c0 15 14 26 28 26c10 0 19 -5 24 -13l124 -196c5 -9 8 -19 8 -29s-3 -20 -8 -29l-124 -196c-5 -8 -14 -13 -24 -13z" />
    <glyph glyph-name="endash" unicode="&#x2013;" horiz-adv-x="567" 
d="M509 238h-461c-14 0 -28 10 -28 25s14 25 28 25h461c14 0 28 -10 28 -25s-14 -25 -28 -25z" />
    <glyph glyph-name="dagger" unicode="&#x2020;" horiz-adv-x="517" 
d="M292 526h162c17 0 33 -12 33 -30s-16 -30 -33 -30h-162v-559c0 -18 -17 -30 -33 -30c-17 0 -33 12 -33 30v559h-163c-17 0 -33 12 -33 30s16 30 33 30h163v181c0 18 16 30 33 30c16 0 33 -12 33 -30v-181z" />
    <glyph glyph-name="daggerdbl" unicode="&#x2021;" horiz-adv-x="517" 
d="M292 148h162c17 0 33 -12 33 -30s-16 -30 -33 -30h-162v-181c0 -18 -17 -30 -33 -30c-17 0 -33 12 -33 30v181h-163c-17 0 -33 12 -33 30s16 30 33 30h163v318h-163c-17 0 -33 12 -33 30s16 30 33 30h163v181c0 18 16 30 33 30c16 0 33 -12 33 -30v-181h162
c17 0 33 -12 33 -30s-16 -30 -33 -30h-162v-318z" />
    <glyph glyph-name="periodcentered" unicode="&#xb7;" horiz-adv-x="166" 
d="M126 263c0 -24 -19 -43 -43 -43s-43 19 -43 43s19 43 43 43s43 -19 43 -43z" />
    <glyph glyph-name="paragraph" unicode="&#xb6;" horiz-adv-x="531" 
d="M411 702c16 0 30 -11 30 -27v-771c0 -16 -14 -27 -30 -27c-15 0 -30 11 -30 27v743h-56v-743c0 -16 -14 -27 -30 -27c-15 0 -30 11 -30 27v398h-12c-120 0 -213 77 -213 201c0 123 94 199 213 199h158z" />
    <glyph glyph-name="bullet" unicode="&#x2022;" horiz-adv-x="210" 
d="M170 263c0 -36 -29 -66 -65 -66s-65 30 -65 66s29 66 65 66s65 -30 65 -66z" />
    <glyph glyph-name="quotesinglbase" unicode="&#x201a;" horiz-adv-x="150" 
d="M33 -117c-14 0 -28 10 -28 25c0 4 1 7 3 11c28 63 45 97 45 168c0 15 12 27 27 27c27 0 30 -19 30 -42c0 -57 -22 -126 -52 -175c-5 -9 -14 -14 -25 -14z" />
    <glyph glyph-name="quotedblbase" unicode="&#x201e;" horiz-adv-x="253" 
d="M136 -117c-14 0 -28 10 -28 25c0 4 1 7 3 11c28 63 45 97 45 168c0 15 12 27 27 27c27 0 30 -19 30 -42c0 -57 -22 -126 -52 -175c-5 -9 -14 -14 -25 -14zM33 -117c-14 0 -28 10 -28 25c0 4 1 7 3 11c28 63 45 97 45 168c0 15 12 27 27 27c27 0 30 -19 30 -42
c0 -57 -22 -126 -52 -175c-5 -9 -14 -14 -25 -14z" />
    <glyph glyph-name="quotedblright" unicode="&#x201d;" horiz-adv-x="268" 
d="M151 506c-14 0 -28 10 -28 25c0 4 1 8 3 11c28 63 45 97 45 168c0 15 12 27 27 27c27 0 30 -19 30 -42c0 -57 -22 -126 -52 -175c-5 -9 -14 -14 -25 -14zM48 506c-14 0 -28 10 -28 25c0 4 1 8 3 11c28 63 45 97 45 168c0 15 12 27 27 27c27 0 30 -19 30 -42
c0 -57 -22 -126 -52 -175c-5 -9 -14 -14 -25 -14z" />
    <glyph glyph-name="guillemotright" unicode="&#xbb;" horiz-adv-x="387" 
d="M58 25c-14 0 -28 11 -28 26c0 5 1 9 4 13l124 196v3l-1 3l-123 196c-3 4 -4 8 -4 13c0 15 14 26 28 26c10 0 19 -5 24 -13l124 -196c5 -9 8 -19 8 -29s-3 -20 -8 -29l-124 -196c-5 -8 -14 -13 -24 -13zM201 25c-14 0 -28 11 -28 26c0 5 2 9 4 13l124 196v3v3l-124 196
c-2 4 -4 8 -4 13c0 15 14 26 28 26c10 0 19 -5 24 -13l124 -196c6 -9 8 -19 8 -29s-2 -20 -8 -29l-124 -196c-5 -8 -14 -13 -24 -13z" />
    <glyph glyph-name="ellipsis" unicode="&#x2026;" horiz-adv-x="628" 
d="M588 36c0 -23 -19 -43 -43 -43c-23 0 -43 20 -43 43c0 24 20 44 43 44c24 0 43 -20 43 -44zM347 36c0 -23 -19 -43 -43 -43c-23 0 -43 20 -43 43c0 24 19 44 43 44s43 -20 43 -44zM106 36c0 -23 -19 -43 -43 -43s-43 20 -43 43c0 24 19 44 43 44s43 -20 43 -44z" />
    <glyph glyph-name="perthousand" unicode="&#x2030;" horiz-adv-x="1095" 
d="M895 292c-81 0 -84 -63 -84 -126s3 -126 84 -126c80 0 83 63 83 126s-3 126 -83 126zM895 -7c-66 0 -121 36 -131 103c-4 23 -5 47 -5 70s1 46 5 69c10 67 65 104 131 104c65 0 120 -37 130 -104c4 -23 5 -46 5 -69s-1 -47 -5 -70c-10 -67 -65 -103 -130 -103zM572 292
c-81 0 -83 -63 -83 -126s2 -126 83 -126s83 63 83 126s-2 126 -83 126zM572 -7c-65 0 -121 36 -131 103c-3 23 -4 47 -4 70s1 46 4 69c10 67 66 104 131 104s121 -37 131 -104c3 -23 4 -46 4 -69s-1 -47 -4 -70c-10 -67 -66 -103 -131 -103zM200 662c-80 0 -83 -63 -83 -126
s3 -126 83 -126c81 0 84 63 84 126s-3 126 -84 126zM200 363c-65 0 -120 37 -131 104c-3 23 -4 46 -4 69s1 47 4 70c11 67 66 103 131 103c66 0 121 -36 131 -103c4 -23 5 -47 5 -70s-1 -46 -5 -69c-10 -67 -65 -104 -131 -104zM185 -8c-13 0 -25 10 -25 23c0 4 1 8 3 11
l402 671c5 7 14 12 22 12c13 0 25 -10 25 -23c0 -4 -1 -8 -3 -11l-402 -671c-5 -7 -13 -12 -22 -12z" />
    <glyph glyph-name="questiondown" unicode="&#xbf;" horiz-adv-x="437" 
d="M264 349c18 0 33 -13 33 -30c0 -85 -22 -143 -74 -192c-83 -77 -107 -107 -107 -156c0 -57 45 -94 114 -94c42 0 82 14 115 35c6 4 12 6 19 6c10 0 20 -4 27 -12c4 -6 6 -12 6 -19c0 -10 -5 -19 -13 -25c-44 -29 -98 -45 -154 -45c-106 0 -180 63 -180 154
c0 77 45 123 125 198c40 37 56 81 56 150c0 17 15 30 33 30zM264 533c18 0 33 -13 33 -30v-24c0 -16 -15 -30 -33 -30s-33 14 -33 30v24c0 17 15 30 33 30z" />
    <glyph glyph-name="grave" unicode="`" horiz-adv-x="330" 
d="M195 564c-6 0 -12 2 -17 7l-100 92c-5 5 -8 12 -8 18c0 14 11 25 25 25c6 0 12 -2 17 -6l100 -93c5 -4 8 -11 8 -18c0 -14 -11 -25 -25 -25z" />
    <glyph glyph-name="acute" unicode="&#xb4;" horiz-adv-x="330" 
d="M134 564c-14 0 -25 11 -25 25c0 7 3 14 8 18l100 93c5 4 11 6 17 6c14 0 25 -11 25 -25c0 -6 -3 -13 -8 -18l-100 -92c-5 -5 -11 -7 -17 -7z" />
    <glyph glyph-name="circumflex" unicode="&#x2c6;" horiz-adv-x="330" 
d="M72 566c-7 0 -13 2 -18 7s-7 11 -7 18c0 6 2 13 7 18l72 71c11 10 25 16 39 16s28 -6 39 -16l72 -71c5 -5 7 -12 7 -18c0 -7 -2 -13 -7 -18s-11 -7 -18 -7c-6 0 -12 2 -17 7l-72 71c-1 1 -3 2 -4 2s-3 -1 -4 -2l-72 -71c-5 -5 -11 -7 -17 -7z" />
    <glyph glyph-name="tilde" unicode="&#x2dc;" horiz-adv-x="330" 
d="M218 573c-51 0 -87 59 -115 59c-36 0 -32 -55 -64 -55c-13 0 -25 11 -25 25c0 4 2 8 3 11c16 36 43 69 86 69c51 0 87 -59 115 -59c35 0 31 56 63 56c14 0 25 -12 25 -25c0 -4 -1 -8 -2 -12c-16 -36 -43 -69 -86 -69z" />
    <glyph glyph-name="macron" unicode="&#xaf;" horiz-adv-x="330" 
d="M265 586h-200c-13 0 -25 11 -25 25s12 25 25 25h200c13 0 25 -11 25 -25s-12 -25 -25 -25z" />
    <glyph glyph-name="breve" unicode="&#x2d8;" horiz-adv-x="330" 
d="M165 563c-57 0 -104 29 -124 83c0 3 -1 6 -1 9c0 13 11 25 25 25c35 0 19 -67 100 -67s65 67 100 67c14 0 25 -12 25 -25c0 -3 -1 -6 -1 -9c-20 -54 -67 -83 -124 -83z" />
    <glyph glyph-name="dotaccent" unicode="&#x2d9;" horiz-adv-x="330" 
d="M206 617c0 -23 -18 -41 -41 -41s-41 18 -41 41c0 22 18 41 41 41s41 -19 41 -41z" />
    <glyph glyph-name="dieresis" unicode="&#xa8;" horiz-adv-x="330" 
d="M283 617c0 -23 -19 -41 -41 -41c-23 0 -41 18 -41 41c0 22 18 41 41 41c22 0 41 -19 41 -41zM129 617c0 -23 -18 -41 -41 -41c-22 0 -41 18 -41 41c0 22 19 41 41 41c23 0 41 -19 41 -41z" />
    <glyph glyph-name="ring" unicode="&#x2da;" horiz-adv-x="330" 
d="M165 695c-25 0 -47 -20 -47 -45c0 -26 22 -46 47 -46s47 20 47 46c0 25 -22 45 -47 45zM165 565c-47 0 -87 37 -87 85c0 47 40 84 87 84s87 -37 87 -84c0 -48 -40 -85 -87 -85z" />
    <glyph glyph-name="cedilla" unicode="&#xb8;" horiz-adv-x="330" 
d="M160 -183c-22 0 -78 1 -78 32c0 14 12 25 25 25c14 0 34 -7 53 -7c16 0 38 5 38 25c0 29 -47 25 -64 25c-14 0 -27 8 -27 23c0 14 24 68 30 84c3 9 13 16 23 16c11 0 19 -6 19 -18c0 -18 -13 -43 -19 -60c45 0 88 -17 88 -70c0 -48 -43 -75 -88 -75z" />
    <glyph glyph-name="hungarumlaut" unicode="&#x2dd;" horiz-adv-x="330" 
d="M96 564c-14 0 -25 11 -25 25c0 7 3 14 8 18l100 93c5 4 11 6 17 6c14 0 25 -11 25 -25c0 -6 -3 -13 -8 -18l-100 -92c-5 -5 -11 -7 -17 -7zM226 564c-14 0 -26 11 -26 25c0 7 3 14 9 18l100 93c4 4 11 6 17 6c14 0 25 -11 25 -25c0 -6 -3 -13 -8 -18l-101 -92
c-4 -5 -10 -7 -16 -7z" />
    <glyph glyph-name="ogonek" unicode="&#x2db;" horiz-adv-x="330" 
d="M164 -182c-42 0 -75 29 -75 73c0 52 60 106 97 135c7 6 16 10 25 10c11 0 20 -8 20 -19c0 -7 -4 -12 -9 -16c-27 -23 -83 -72 -83 -111c0 -16 11 -22 25 -22c27 0 47 15 59 15c14 0 25 -11 25 -25c0 -30 -61 -40 -84 -40z" />
    <glyph glyph-name="caron" unicode="&#x2c7;" horiz-adv-x="330" 
d="M72 703c6 0 12 -3 17 -8l72 -71c1 -1 3 -1 4 -1s3 0 4 1l72 71c5 5 11 8 17 8c7 0 13 -3 18 -8s7 -11 7 -17c0 -7 -2 -13 -7 -18l-72 -71c-11 -11 -25 -16 -39 -16s-28 5 -39 16l-72 71c-5 5 -7 11 -7 18c0 6 2 12 7 17s11 8 18 8z" />
    <glyph glyph-name="emdash" unicode="&#x2014;" horiz-adv-x="1043" 
d="M985 238h-937c-14 0 -28 10 -28 25s14 25 28 25h937c15 0 28 -10 28 -25s-13 -25 -28 -25z" />
    <glyph glyph-name="AE" unicode="&#xc6;" horiz-adv-x="984" 
d="M557 60h329c17 0 33 -12 33 -30s-16 -30 -33 -30h-327c-40 0 -64 17 -67 58l-15 159h-286l-108 -204c-6 -10 -18 -16 -30 -16c-17 0 -33 12 -33 30c0 4 1 9 3 13l329 616c15 29 43 46 77 46h434c17 0 33 -12 33 -30s-16 -30 -33 -30h-358c0 -3 1 -6 1 -9l22 -240h312
c16 0 33 -12 33 -30c0 -17 -17 -30 -33 -30h-307zM223 277h249l-32 351c0 7 -4 14 -12 14c-9 0 -13 -5 -17 -12z" />
    <glyph glyph-name="ordfeminine" unicode="&#xaa;" horiz-adv-x="377" 
d="M185 709c40 0 83 -11 112 -40c36 -34 40 -83 40 -131v-49c0 -47 -4 -96 -40 -131c-29 -29 -72 -39 -112 -39c-83 0 -155 37 -155 129c0 93 71 129 155 129c33 0 67 -7 99 -14c-3 67 -30 99 -99 99c-34 0 -66 -8 -98 -16c-3 0 -5 -1 -8 -1c-13 0 -26 10 -26 24
c0 13 7 20 18 24c31 13 80 16 114 16zM185 366c85 0 100 49 100 123v31c-33 6 -67 10 -100 10c-57 0 -103 -17 -103 -82c0 -64 47 -82 103 -82z" />
    <glyph glyph-name="Lslash" unicode="&#x141;" horiz-adv-x="547" 
d="M164 85c0 -15 14 -25 27 -25h313c17 0 33 -12 33 -30s-16 -30 -33 -30h-313c-47 0 -93 35 -93 85v240c-14 -10 -45 -39 -62 -39c-13 0 -25 10 -25 23c0 7 3 14 9 18l78 56v293c0 17 17 30 33 30c17 0 33 -13 33 -30v-245l98 70c5 4 10 5 16 5c13 0 25 -9 25 -22
c0 -8 -4 -14 -10 -18l-129 -93v-288z" />
    <glyph glyph-name="Oslash" unicode="&#xd8;" horiz-adv-x="646" 
d="M566 737c13 0 25 -9 25 -23c0 -13 -50 -81 -61 -97c46 -65 47 -169 47 -246c0 -59 0 -120 -8 -179c-17 -135 -114 -199 -245 -199c-62 0 -126 14 -174 56l-49 -73c-4 -7 -13 -11 -21 -11c-13 0 -25 9 -25 23c0 13 51 82 62 98c-45 66 -46 169 -46 246c0 59 1 119 8 178
c17 135 114 199 245 199c62 0 125 -14 173 -55l48 72c4 7 13 11 21 11zM137 351c0 -55 1 -155 20 -204l304 455c-35 36 -88 47 -137 47c-99 0 -166 -42 -179 -145c-7 -51 -8 -102 -8 -153zM511 351c0 56 0 156 -21 206l-304 -455c35 -38 88 -49 138 -49
c100 0 167 42 180 145c6 51 7 102 7 153z" />
    <glyph glyph-name="OE" unicode="&#x152;" horiz-adv-x="1030" 
d="M575 60h357c17 0 33 -12 33 -30s-16 -30 -33 -30h-360c-32 0 -63 24 -63 57v13c-47 -57 -114 -77 -186 -77c-131 0 -228 64 -245 199c-7 53 -8 106 -8 159s1 106 8 159c17 135 114 199 245 199c72 0 141 -20 187 -79c8 44 49 72 92 72h307c17 0 33 -12 33 -30
s-16 -30 -33 -30h-307c-14 0 -27 -10 -27 -25v-224h310c17 0 33 -12 33 -30c0 -17 -16 -30 -33 -30h-310v-273zM325 53c132 0 184 74 184 199v198c0 125 -52 199 -184 199c-100 0 -166 -42 -179 -145c-7 -51 -8 -102 -8 -153s1 -102 8 -153c13 -103 79 -145 179 -145z" />
    <glyph glyph-name="ordmasculine" unicode="&#xba;" horiz-adv-x="380" 
d="M345 517c0 -26 0 -52 -4 -78c-12 -81 -72 -120 -151 -120s-139 39 -152 120c-3 25 -3 50 -3 75s0 50 3 74c13 82 73 121 152 121s139 -39 151 -121c4 -23 4 -47 4 -71zM190 366c99 0 103 68 103 148c0 79 -4 148 -103 148s-103 -69 -103 -148c0 -80 4 -148 103 -148z" />
    <glyph glyph-name="ae" unicode="&#xe6;" horiz-adv-x="898" 
d="M624 51c54 0 101 20 149 41c5 2 10 3 15 3c17 0 32 -12 32 -29c0 -50 -158 -73 -196 -73c-73 0 -142 25 -178 92c-34 -68 -106 -92 -178 -92c-114 0 -213 51 -213 177c0 129 92 177 209 177c50 0 99 -12 147 -26c-3 100 -37 154 -143 154c-48 0 -93 -10 -139 -22
c-4 0 -7 -1 -10 -1c-16 0 -32 12 -32 29c0 16 9 25 23 30c43 18 111 22 158 22c68 0 140 -23 178 -84c39 60 108 84 178 84c108 0 191 -54 208 -166c1 -7 1 -14 1 -21c0 -62 -41 -104 -104 -104h-254c1 -110 19 -191 149 -191zM624 475c-119 0 -146 -69 -148 -175h253
c30 0 40 20 40 46c0 86 -65 129 -145 129zM411 228v35c-48 14 -97 26 -147 26c-83 0 -145 -26 -145 -119c0 -91 68 -119 149 -119c121 0 143 70 143 177z" />
    <glyph glyph-name="dotlessi" unicode="&#x131;" horiz-adv-x="222" 
d="M111 -7c-16 0 -32 12 -32 29v482c0 17 16 29 32 29s32 -12 32 -29v-482c0 -17 -16 -29 -32 -29z" />
    <glyph glyph-name="lslash" unicode="&#x142;" horiz-adv-x="294" 
d="M249 502c12 0 25 -10 25 -23c0 -7 -4 -13 -9 -17l-93 -76v-222c0 -111 68 -108 68 -142c0 -17 -15 -29 -32 -29c-7 0 -14 2 -20 6c-59 42 -80 94 -80 165v169c-14 -11 -45 -43 -63 -43c-13 0 -25 9 -25 23c0 6 3 12 8 16l80 66v313c0 17 16 29 32 29s32 -12 32 -29v-261
l60 49c5 4 11 6 17 6z" />
    <glyph glyph-name="oslash" unicode="&#xf8;" horiz-adv-x="555" 
d="M444 466c48 -57 46 -133 46 -203c0 -35 1 -70 -5 -105c-17 -112 -98 -165 -207 -165c-45 0 -91 9 -129 34l-34 -51c-5 -7 -13 -11 -22 -11c-12 0 -25 9 -25 23c0 12 35 58 44 71c-49 57 -47 133 -47 204c0 35 -1 70 5 105c17 112 98 165 208 165c45 0 91 -10 129 -35
l33 50c5 7 13 11 22 11c12 0 25 -9 25 -22s-35 -58 -43 -71zM278 475c-154 0 -149 -115 -149 -233c0 -41 1 -91 20 -128l224 335c-27 20 -62 26 -95 26zM278 51c153 0 148 114 148 232c0 41 -1 91 -20 128l-224 -334c28 -20 62 -26 96 -26z" />
    <glyph glyph-name="oe" unicode="&#x153;" horiz-adv-x="913" 
d="M639 51c54 0 100 20 149 40c5 2 10 4 15 4c16 0 32 -12 32 -30c0 -49 -158 -72 -196 -72c-74 0 -144 26 -181 93c-37 -67 -107 -93 -180 -93c-109 0 -192 54 -208 165c-5 35 -5 70 -5 105s0 70 5 105c16 111 99 165 208 165c73 0 143 -26 180 -93c37 67 107 93 181 93
c107 0 191 -54 207 -165c1 -7 2 -14 2 -21c0 -62 -42 -104 -104 -104h-254c1 -111 18 -192 149 -192zM639 475c-119 0 -147 -68 -149 -174h254c29 0 40 19 40 46c0 85 -66 128 -145 128zM278 51c142 0 148 97 148 212c0 114 -6 212 -148 212c-143 0 -149 -98 -149 -212
c0 -115 6 -212 149 -212z" />
    <glyph glyph-name="germandbls" unicode="&#xdf;" horiz-adv-x="574" 
d="M375 422c0 -46 149 -62 149 -219c0 -122 -95 -203 -213 -203h-85c-17 0 -32 12 -32 29s15 29 32 29h85c86 0 149 58 149 145c0 135 -149 121 -149 220c0 77 95 91 95 166c0 56 -67 90 -116 90c-117 0 -136 -77 -136 -177v-476c0 -18 -16 -30 -32 -30s-32 12 -32 30v476
c0 65 4 132 54 181c41 40 90 54 146 54c81 0 180 -58 180 -148c0 -99 -95 -126 -95 -167z" />
    <glyph glyph-name="onesuperior" unicode="&#xb9;" horiz-adv-x="262" 
d="M166 414c-13 0 -26 10 -26 24v336c-19 -4 -67 -18 -84 -18c-13 0 -26 10 -26 23c0 12 9 21 20 23l90 21c4 1 8 2 11 2c22 0 41 -16 41 -38v-349c0 -14 -13 -24 -26 -24z" />
    <glyph glyph-name="logicalnot" unicode="&#xac;" horiz-adv-x="585" 
d="M523 142c-17 0 -32 12 -32 29c0 51 0 102 -1 154h-428c-16 0 -32 12 -32 29s16 29 32 29h431c32 0 62 -26 62 -60v-152c0 -17 -16 -29 -32 -29z" />
    <glyph glyph-name="mu" unicode="&#xb5;" horiz-adv-x="581" 
d="M474 530c16 0 32 -12 32 -30v-280c0 -62 -7 -127 -54 -173c-41 -40 -99 -54 -154 -54c-53 0 -106 19 -144 56v-202c0 -17 -16 -29 -32 -29s-32 12 -32 29v653c0 18 16 30 32 30s32 -12 32 -30v-272c0 -107 22 -177 144 -177s144 70 144 177v272c0 18 16 30 32 30z" />
    <glyph glyph-name="trademark" unicode="&#x2122;" horiz-adv-x="764" 
d="M678 338c-14 0 -26 9 -26 23v286l-75 -202c-7 -18 -26 -28 -45 -28c-18 0 -38 11 -44 29l-75 201v-286c0 -14 -12 -23 -26 -23c-13 0 -26 9 -26 23v301c0 25 24 43 48 43c19 0 38 -10 45 -28l78 -212l79 213c7 17 27 27 45 27c24 0 48 -18 48 -43v-301
c0 -14 -13 -23 -26 -23zM295 702h-239c-13 0 -26 -10 -26 -24c0 -13 13 -23 26 -23h93v-294c0 -14 13 -23 26 -23c14 0 26 9 26 23v294h94c13 0 26 10 26 23c0 14 -13 24 -26 24z" />
    <glyph glyph-name="Eth" unicode="&#xd0;" horiz-adv-x="646" 
d="M309 702c130 0 232 -60 256 -195c9 -51 11 -104 11 -156s-2 -105 -11 -156c-24 -134 -125 -195 -255 -195h-127c-47 0 -93 35 -93 85v256c-19 -1 -69 -8 -69 22c0 22 25 24 41 24c10 0 19 -1 28 -1v259c0 33 31 57 63 57h156zM183 60h126c191 0 201 138 201 291
s-10 291 -201 291h-153v-256h104c13 0 25 -9 25 -23c0 -13 -12 -22 -25 -22h-104v-256c0 -15 13 -25 27 -25z" />
    <glyph glyph-name="onehalf" unicode="&#xbd;" horiz-adv-x="808" 
d="M727 -3h-196c-25 0 -48 18 -48 44c0 11 5 23 13 31l119 118c25 26 76 68 76 107c0 45 -33 59 -72 59c-42 0 -80 -26 -94 -26c-13 0 -26 10 -26 24c0 33 94 50 120 50c66 0 124 -35 124 -107c0 -58 -52 -101 -90 -139l-114 -114h188c13 0 26 -9 26 -23s-13 -24 -26 -24z
M182 300c-13 0 -26 9 -26 23v337c-19 -5 -67 -19 -84 -19c-13 0 -26 10 -26 24c0 11 9 20 20 23l90 21c4 0 8 1 11 1c22 0 41 -16 41 -38v-349c0 -14 -13 -23 -26 -23zM179 -7c-13 0 -25 9 -25 23c0 4 1 7 3 11l402 670c5 8 14 12 22 12c13 0 25 -9 25 -22
c0 -4 -1 -8 -3 -11l-402 -671c-5 -8 -13 -12 -22 -12z" />
    <glyph glyph-name="plusminus" unicode="&#xb1;" horiz-adv-x="580" 
d="M516 55c16 0 30 -12 30 -28s-14 -27 -30 -27h-460c-16 0 -30 11 -30 27s14 28 30 28h460zM264 327h-200c-16 0 -30 11 -30 27s14 27 30 27h200v193c0 16 15 27 30 27s30 -11 30 -27v-193h200c16 0 30 -11 30 -27s-14 -27 -30 -27h-200v-193c0 -16 -15 -27 -30 -27
s-30 11 -30 27v193z" />
    <glyph glyph-name="Thorn" unicode="&#xde;" horiz-adv-x="593" 
d="M156 536h186c115 0 201 -64 201 -185c0 -122 -85 -185 -201 -185h-186v-139c0 -18 -16 -31 -33 -31s-33 13 -33 31v649c0 17 16 30 33 30s33 -13 33 -30v-140zM342 226c82 0 135 38 135 125s-53 125 -135 125h-186v-250h186z" />
    <glyph glyph-name="onequarter" unicode="&#xbc;" horiz-adv-x="808" 
d="M207 300c-13 0 -26 9 -26 23v337c-19 -5 -67 -19 -84 -19c-13 0 -26 10 -26 24c0 11 9 20 19 23l91 21c4 0 8 1 11 1c22 0 41 -16 41 -38v-349c0 -14 -13 -23 -26 -23zM646 119v136c0 14 -12 24 -26 24c-13 0 -26 -10 -26 -24v-136h-114c15 28 139 247 139 260
c0 14 -13 24 -26 24c-10 0 -19 -5 -24 -13l-138 -254c-4 -7 -6 -14 -6 -21c0 -26 23 -43 47 -43h122v-56c0 -14 13 -24 26 -24c14 0 26 10 26 24v56c18 0 57 -6 57 24c0 29 -39 23 -57 23zM204 -7c-13 0 -25 9 -25 23c0 4 1 7 3 11l402 670c5 8 13 12 22 12
c13 0 25 -9 25 -22c0 -4 -1 -8 -3 -11l-402 -671c-5 -8 -14 -12 -22 -12z" />
    <glyph glyph-name="divide" unicode="&#xf7;" horiz-adv-x="580" 
d="M520 235h-460c-16 0 -30 11 -30 27s14 28 30 28h460c16 0 30 -12 30 -28s-14 -27 -30 -27zM333 85c0 23 -19 43 -43 43s-43 -20 -43 -43c0 -24 19 -44 43 -44s43 20 43 44zM333 440c0 -23 -19 -43 -43 -43s-43 20 -43 43c0 24 19 44 43 44s43 -20 43 -44z" />
    <glyph glyph-name="brokenbar" unicode="&#xa6;" horiz-adv-x="220" 
d="M110 -123c-15 0 -30 11 -30 27v288c0 16 15 27 30 27s30 -11 30 -27v-288c0 -16 -15 -27 -30 -27zM110 395c-15 0 -30 11 -30 27v288c0 16 15 27 30 27s30 -11 30 -27v-288c0 -16 -15 -27 -30 -27z" />
    <glyph glyph-name="degree" unicode="&#xb0;" horiz-adv-x="369" 
d="M185 709c84 0 154 -69 154 -154s-70 -154 -154 -154c-85 0 -155 69 -155 154s70 154 155 154zM185 663c-59 0 -108 -49 -108 -108s49 -108 108 -108s108 49 108 108s-49 108 -108 108z" />
    <glyph glyph-name="thorn" unicode="&#xfe;" horiz-adv-x="575" 
d="M298 533c108 0 190 -54 207 -165c5 -35 5 -70 5 -105s0 -70 -5 -105c-17 -111 -99 -165 -207 -165c-55 0 -101 13 -149 37v-190c0 -17 -16 -29 -32 -29s-32 12 -32 29v836c0 18 16 30 32 30s32 -12 32 -30v-180c48 24 94 37 149 37zM298 51c142 0 148 97 148 212
s-6 212 -148 212c-52 0 -103 -15 -149 -38v-348c46 -23 97 -38 149 -38z" />
    <glyph glyph-name="threequarters" unicode="&#xbe;" horiz-adv-x="808" 
d="M266 521c40 -19 68 -54 68 -99c0 -82 -64 -122 -139 -122c-26 0 -127 17 -127 51c0 13 13 23 26 23s58 -27 101 -27c49 0 87 21 87 75c0 68 -57 74 -111 74c-13 0 -26 10 -26 24s13 23 26 23c44 0 99 0 99 60c0 45 -33 60 -73 60c-41 0 -77 -26 -91 -26
c-13 0 -26 9 -26 23c0 33 91 50 117 50c67 0 125 -34 125 -107c0 -36 -25 -67 -56 -82zM236 -7c9 0 18 4 22 12l403 671c2 3 3 7 3 11c0 13 -13 22 -25 22c-9 0 -18 -4 -22 -12l-403 -670c-2 -4 -3 -7 -3 -11c0 -14 12 -23 25 -23zM679 119c18 0 56 6 56 -23
c0 -30 -38 -24 -56 -24v-56c0 -14 -13 -24 -26 -24s-26 10 -26 24v56h-123c-24 0 -46 17 -46 43c0 7 2 14 5 21l139 254c4 8 14 13 23 13c13 0 26 -10 26 -24c0 -13 -124 -232 -139 -260h115v136c0 14 13 24 26 24s26 -10 26 -24v-136z" />
    <glyph glyph-name="twosuperior" unicode="&#xb2;" horiz-adv-x="320" 
d="M269 418h-196c-25 0 -48 18 -48 44c0 11 5 23 13 31l119 119c26 25 76 67 76 106c0 45 -32 60 -72 60c-41 0 -79 -27 -93 -27s-27 9 -27 24c0 34 93 50 120 50c66 0 124 -35 124 -107c0 -58 -52 -101 -90 -138l-114 -114h188c14 0 26 -10 26 -24s-12 -24 -26 -24z" />
    <glyph glyph-name="registered" unicode="&#xae;" horiz-adv-x="915" 
d="M458 646c-187 0 -338 -153 -338 -339s151 -339 338 -339c186 0 337 153 337 339s-151 339 -337 339zM458 696c214 0 387 -175 387 -389s-173 -389 -387 -389s-388 175 -388 389s174 389 388 389zM487 289l143 -183c4 -5 6 -12 6 -18c0 -16 -14 -29 -30 -29
c-9 0 -18 4 -23 11l-149 190c-11 15 -22 28 -42 28h-33v-203c0 -16 -15 -26 -30 -26s-30 10 -30 26v386c0 48 45 80 90 80h91c82 0 147 -44 147 -131c0 -85 -60 -129 -140 -131zM359 471v-129h121c53 0 87 22 87 78c0 54 -35 77 -87 77h-91c-15 0 -30 -10 -30 -26z" />
    <glyph glyph-name="minus" unicode="&#x2212;" horiz-adv-x="580" 
d="M520 236h-460c-16 0 -30 11 -30 27s14 27 30 27h460c16 0 30 -11 30 -27s-14 -27 -30 -27z" />
    <glyph glyph-name="eth" unicode="&#xf0;" horiz-adv-x="555" 
d="M366 636c105 -109 124 -234 124 -380c0 -32 0 -66 -5 -98c-17 -112 -99 -165 -207 -165c-109 0 -191 53 -208 165c-6 35 -5 70 -5 105s-1 70 5 105c17 112 99 165 208 165c40 0 81 -11 116 -32c-22 44 -54 82 -91 114c-17 -6 -80 -30 -93 -30s-25 9 -25 22
c0 10 7 19 16 22l59 20c-19 12 -40 22 -59 34c-10 6 -17 13 -17 25c0 17 16 29 32 29c24 0 92 -49 112 -65c16 5 73 28 86 28c12 0 25 -10 25 -23c0 -10 -7 -18 -16 -21zM278 51c142 0 148 97 148 212c0 114 -6 212 -148 212c-143 0 -149 -98 -149 -212
c0 -115 6 -212 149 -212z" />
    <glyph glyph-name="multiply" unicode="&#xd7;" horiz-adv-x="580" 
d="M330 263l213 -225c5 -5 7 -11 7 -18c0 -16 -14 -27 -30 -27c-8 0 -17 3 -22 9l-208 219l-208 -219c-5 -6 -14 -9 -22 -9c-16 0 -30 11 -30 27c0 7 2 13 7 18l213 225l-213 225c-5 5 -7 11 -7 18c0 16 14 27 30 27c8 0 17 -3 22 -9l208 -219l208 219c5 6 14 9 22 9
c16 0 30 -11 30 -27c0 -7 -2 -13 -7 -18z" />
    <glyph glyph-name="threesuperior" unicode="&#xb3;" horiz-adv-x="331" 
d="M228 636c40 -19 68 -54 68 -100c0 -81 -64 -122 -139 -122c-26 0 -127 18 -127 51c0 14 13 24 26 24s58 -27 101 -27c49 0 87 21 87 74c0 68 -57 75 -111 75c-13 0 -26 9 -26 23s13 24 26 24c44 0 99 0 99 60c0 45 -33 59 -73 59c-41 0 -77 -26 -91 -26
c-13 0 -26 10 -26 24c0 33 91 50 117 50c67 0 125 -35 125 -107c0 -36 -25 -67 -56 -82z" />
    <glyph glyph-name="copyright" unicode="&#xa9;" horiz-adv-x="915" 
d="M577 139c15 0 30 -11 30 -27c0 -42 -127 -53 -158 -53c-93 0 -163 43 -177 140c-5 36 -5 72 -5 108s0 72 5 108c14 97 84 140 177 140c31 0 158 -11 158 -53c0 -16 -15 -27 -30 -27c-4 0 -8 1 -13 3c-40 14 -71 24 -115 24c-110 0 -122 -74 -122 -165v-61
c0 -91 12 -164 122 -164c44 0 75 10 115 24c5 2 9 3 13 3zM458 646c-187 0 -338 -153 -338 -339s151 -339 338 -339c186 0 337 153 337 339s-151 339 -337 339zM458 696c214 0 387 -175 387 -389s-173 -389 -387 -389s-388 175 -388 389s174 389 388 389z" />
    <glyph glyph-name="Aacute" unicode="&#xc1;" horiz-adv-x="564" 
d="M401 274h-238l112 365c1 3 3 7 7 7s6 -4 7 -7zM282 706c-33 0 -60 -19 -70 -51l-191 -620c-1 -3 -1 -6 -1 -8c0 -18 16 -30 33 -30c14 0 28 8 32 21l60 196h275l60 -196c4 -13 18 -21 31 -21c17 0 33 12 33 30c0 2 0 5 -1 8l-190 620c-10 32 -37 51 -71 51zM245 739
c-13 0 -25 11 -25 25c0 7 3 13 8 18l100 92c5 5 11 7 17 7c14 0 25 -11 25 -25c0 -7 -3 -14 -8 -18l-100 -93c-5 -4 -11 -6 -17 -6z" />
    <glyph glyph-name="Acircumflex" unicode="&#xc2;" horiz-adv-x="564" 
d="M188 741c-6 0 -13 2 -18 7c-4 5 -7 11 -7 18c0 6 3 12 8 17l72 71c10 11 24 16 38 16c15 0 29 -5 39 -16l72 -71c5 -5 8 -11 8 -17c0 -7 -3 -13 -8 -18c-4 -5 -11 -7 -17 -7c-7 0 -13 2 -18 7l-72 71c-1 1 -2 1 -4 1c-1 0 -2 0 -3 -1l-72 -71c-5 -5 -11 -7 -18 -7z
M401 274h-238l112 365c1 3 3 7 7 7s6 -4 7 -7zM282 706c-33 0 -60 -19 -70 -51l-191 -620c-1 -3 -1 -6 -1 -8c0 -18 16 -30 33 -30c14 0 28 8 32 21l60 196h275l60 -196c4 -13 18 -21 31 -21c17 0 33 12 33 30c0 2 0 5 -1 8l-190 620c-10 32 -37 51 -71 51z" />
    <glyph glyph-name="Adieresis" unicode="&#xc4;" horiz-adv-x="564" 
d="M401 274h-238l112 365c1 3 3 7 7 7s6 -4 7 -7zM282 706c-33 0 -60 -19 -70 -51l-191 -620c-1 -3 -1 -6 -1 -8c0 -18 16 -30 33 -30c14 0 28 8 32 21l60 196h275l60 -196c4 -13 18 -21 31 -21c17 0 33 12 33 30c0 2 0 5 -1 8l-190 620c-10 32 -37 51 -71 51zM399 791
c0 -22 -19 -41 -41 -41s-41 19 -41 41c0 23 19 41 41 41s41 -18 41 -41zM245 791c0 -22 -19 -41 -41 -41s-41 19 -41 41c0 23 19 41 41 41s41 -18 41 -41z" />
    <glyph glyph-name="Agrave" unicode="&#xc0;" horiz-adv-x="564" 
d="M401 274h-238l112 365c1 3 3 7 7 7s6 -4 7 -7zM282 706c-33 0 -60 -19 -70 -51l-191 -620c-1 -3 -1 -6 -1 -8c0 -18 16 -30 33 -30c14 0 28 8 32 21l60 196h275l60 -196c4 -13 18 -21 31 -21c17 0 33 12 33 30c0 2 0 5 -1 8l-190 620c-10 32 -37 51 -71 51zM319 739
c-6 0 -12 2 -17 6l-100 93c-5 4 -8 11 -8 18c0 14 11 25 25 25c6 0 12 -2 17 -7l100 -92c5 -5 8 -11 8 -18c0 -14 -11 -25 -25 -25z" />
    <glyph glyph-name="Aring" unicode="&#xc5;" horiz-adv-x="564" 
d="M401 274h-238l112 365c1 3 3 7 7 7s6 -4 7 -7zM282 706c-33 0 -60 -19 -70 -51l-191 -620c-1 -3 -1 -6 -1 -8c0 -18 16 -30 33 -30c14 0 28 8 32 21l60 196h275l60 -196c4 -13 18 -21 31 -21c17 0 33 12 33 30c0 2 0 5 -1 8l-190 620c-10 32 -37 51 -71 51zM282 861
c-25 0 -47 -21 -47 -47c0 -25 22 -46 47 -46c26 0 47 21 47 46c0 26 -21 47 -47 47zM282 728c-47 0 -87 39 -87 86c0 48 40 87 87 87c48 0 87 -39 87 -87c0 -47 -39 -86 -87 -86z" />
    <glyph glyph-name="Atilde" unicode="&#xc3;" horiz-adv-x="564" 
d="M401 274h-238l112 365c1 3 3 7 7 7s6 -4 7 -7zM282 706c-33 0 -60 -19 -70 -51l-191 -620c-1 -3 -1 -6 -1 -8c0 -18 16 -30 33 -30c14 0 28 8 32 21l60 196h275l60 -196c4 -13 18 -21 31 -21c17 0 33 12 33 30c0 2 0 5 -1 8l-190 620c-10 32 -37 51 -71 51zM340 748
c-51 0 -87 59 -115 59c-36 0 -32 -56 -64 -56c-13 0 -25 12 -25 26c0 3 1 7 3 11c15 36 43 69 86 69c51 0 86 -59 115 -59c35 0 31 55 63 55c13 0 25 -11 25 -25c0 -4 -1 -7 -3 -11c-15 -36 -43 -69 -85 -69z" />
    <glyph glyph-name="Ccedilla" unicode="&#xc7;" horiz-adv-x="612" 
d="M509 94c17 0 33 -13 33 -31c0 -13 -8 -23 -19 -28c-55 -28 -122 -40 -182 -42l-11 -30c46 0 88 -17 88 -70c0 -48 -43 -75 -88 -75c-22 0 -77 1 -77 32c0 13 11 25 25 25s33 -7 52 -7c17 0 38 5 38 25c0 25 -36 25 -52 25c-17 0 -39 1 -39 23c0 12 14 41 18 53
c-119 9 -203 76 -217 198c-6 53 -8 106 -8 159c0 52 1 106 8 158c17 135 114 200 245 200c66 0 140 -12 200 -42c11 -5 19 -15 19 -28c0 -18 -16 -31 -33 -31c-5 0 -10 1 -15 3c-60 24 -105 38 -171 38c-100 0 -168 -44 -179 -146c-6 -50 -8 -101 -8 -152s2 -102 8 -153
c12 -102 80 -145 179 -145c66 0 112 14 172 38c4 2 9 3 14 3z" />
    <glyph glyph-name="Eacute" unicode="&#xc9;" horiz-adv-x="601" 
d="M281 739c-14 0 -25 11 -25 25c0 7 3 13 8 18l100 92c5 5 11 7 17 7c14 0 25 -11 25 -25c0 -7 -3 -14 -8 -18l-100 -93c-5 -4 -11 -6 -17 -6zM503 60h-347v273h310c17 0 33 13 33 30c0 18 -16 30 -33 30h-310v224c0 15 13 25 27 25h307c17 0 33 12 33 30s-16 30 -33 30
h-307c-47 0 -93 -35 -93 -85v-560c0 -34 31 -57 63 -57h350c17 0 33 12 33 30s-16 30 -33 30z" />
    <glyph glyph-name="Ecircumflex" unicode="&#xca;" horiz-adv-x="601" 
d="M225 741c-7 0 -13 2 -18 7s-7 11 -7 18c0 6 2 12 7 17l72 71c11 11 25 16 39 16s28 -5 39 -16l72 -71c5 -5 7 -11 7 -17c0 -7 -2 -13 -7 -18s-12 -7 -18 -7s-13 2 -18 7l-71 71c-1 1 -3 1 -4 1c-2 0 -3 0 -4 -1l-72 -71c-5 -5 -11 -7 -17 -7zM503 60h-347v273h310
c17 0 33 13 33 30c0 18 -16 30 -33 30h-310v224c0 15 13 25 27 25h307c17 0 33 12 33 30s-16 30 -33 30h-307c-47 0 -93 -35 -93 -85v-560c0 -34 31 -57 63 -57h350c17 0 33 12 33 30s-16 30 -33 30z" />
    <glyph glyph-name="Edieresis" unicode="&#xcb;" horiz-adv-x="601" 
d="M436 791c0 -22 -19 -41 -41 -41c-23 0 -41 19 -41 41c0 23 18 41 41 41c22 0 41 -18 41 -41zM282 791c0 -22 -18 -41 -41 -41c-22 0 -41 19 -41 41c0 23 19 41 41 41c23 0 41 -18 41 -41zM503 60h-347v273h310c17 0 33 13 33 30c0 18 -16 30 -33 30h-310v224
c0 15 13 25 27 25h307c17 0 33 12 33 30s-16 30 -33 30h-307c-47 0 -93 -35 -93 -85v-560c0 -34 31 -57 63 -57h350c17 0 33 12 33 30s-16 30 -33 30z" />
    <glyph glyph-name="Egrave" unicode="&#xc8;" horiz-adv-x="601" 
d="M503 60h-347v273h310c17 0 33 13 33 30c0 18 -16 30 -33 30h-310v224c0 15 13 25 27 25h307c17 0 33 12 33 30s-16 30 -33 30h-307c-47 0 -93 -35 -93 -85v-560c0 -34 31 -57 63 -57h350c17 0 33 12 33 30s-16 30 -33 30zM339 739c-6 0 -12 2 -17 6l-100 93
c-5 4 -8 11 -8 18c0 14 11 25 25 25c6 0 12 -2 17 -7l100 -92c5 -5 8 -11 8 -18c0 -14 -11 -25 -25 -25z" />
    <glyph glyph-name="Iacute" unicode="&#xcd;" horiz-adv-x="246" 
d="M125 -3c-17 0 -33 12 -33 30v649c0 17 16 30 33 30s33 -13 33 -30v-649c0 -18 -16 -30 -33 -30zM116 739c-13 0 -25 11 -25 25c0 7 3 13 8 18l100 92c5 5 11 7 17 7c14 0 25 -11 25 -25c0 -7 -3 -14 -8 -18l-100 -93c-5 -4 -11 -6 -17 -6z" />
    <glyph glyph-name="Icircumflex" unicode="&#xce;" horiz-adv-x="246" 
d="M30 741c-7 0 -13 2 -18 7s-7 11 -7 18c0 6 2 13 7 17l72 72c11 10 25 15 39 15s28 -5 39 -15l72 -72c5 -4 7 -11 7 -17c0 -7 -2 -13 -7 -18s-12 -7 -18 -7s-13 2 -18 7l-71 71c-1 1 -3 1 -4 1c-2 0 -3 0 -4 -1l-72 -71c-5 -5 -11 -7 -17 -7zM125 -3c-17 0 -33 12 -33 30
v649c0 17 16 30 33 30s33 -13 33 -30v-649c0 -18 -16 -30 -33 -30z" />
    <glyph glyph-name="Idieresis" unicode="&#xcf;" horiz-adv-x="246" 
d="M125 -3c-17 0 -33 12 -33 30v649c0 17 16 30 33 30s33 -13 33 -30v-649c0 -18 -16 -30 -33 -30zM241 791c0 -22 -19 -41 -41 -41s-41 19 -41 41c0 23 19 41 41 41s41 -18 41 -41zM87 791c0 -22 -19 -41 -41 -41s-41 19 -41 41c0 23 19 41 41 41s41 -18 41 -41z" />
    <glyph glyph-name="Igrave" unicode="&#xcc;" horiz-adv-x="246" 
d="M125 -3c-17 0 -33 12 -33 30v649c0 17 16 30 33 30s33 -13 33 -30v-649c0 -18 -16 -30 -33 -30zM131 739c-6 0 -12 2 -17 6l-100 93c-5 4 -8 11 -8 18c0 14 11 25 25 25c6 0 12 -2 17 -7l100 -92c5 -5 8 -11 8 -18c0 -14 -11 -25 -25 -25z" />
    <glyph glyph-name="Ntilde" unicode="&#xd1;" horiz-adv-x="681" 
d="M398 748c-51 0 -86 59 -115 59c-35 0 -31 -56 -63 -56c-14 0 -25 12 -25 26c0 3 1 7 3 11c16 36 42 69 85 69c52 0 87 -59 115 -59c36 0 32 55 64 55c13 0 25 -11 25 -25c0 -4 -1 -7 -3 -11c-16 -36 -43 -69 -86 -69zM163 646c-6 0 -7 -6 -7 -10v-609
c0 -18 -16 -30 -33 -30s-33 12 -33 30v601c0 45 26 78 73 78c31 0 56 -15 69 -44l278 -600c2 -3 4 -5 8 -5c6 0 7 5 7 10v609c0 17 16 30 33 30s33 -13 33 -30v-602c0 -44 -26 -77 -73 -77c-30 0 -56 16 -69 44l-278 599c-2 3 -4 6 -8 6z" />
    <glyph glyph-name="Oacute" unicode="&#xd3;" horiz-adv-x="646" 
d="M323 -7c130 0 229 64 245 199c6 53 8 106 8 159s-2 106 -8 159c-16 135 -115 199 -245 199s-229 -64 -245 -199c-6 -53 -8 -106 -8 -159s2 -106 8 -159c16 -135 115 -199 245 -199zM323 649c100 0 168 -43 179 -145c6 -51 8 -102 8 -153s-2 -102 -8 -153
c-11 -102 -79 -145 -179 -145s-168 43 -179 145c-6 51 -8 102 -8 153s2 102 8 153c11 102 79 145 179 145zM290 739c-14 0 -25 11 -25 25c0 7 3 13 8 18l100 93c5 4 11 6 17 6c14 0 25 -11 25 -25c0 -7 -3 -13 -8 -18l-100 -93c-5 -4 -11 -6 -17 -6z" />
    <glyph glyph-name="Ocircumflex" unicode="&#xd4;" horiz-adv-x="646" 
d="M230 741c-7 0 -13 2 -18 7s-7 11 -7 18c0 6 2 13 7 17l72 72c11 10 25 16 39 16s28 -6 39 -16l72 -72c5 -4 7 -11 7 -17c0 -7 -2 -13 -7 -18s-11 -7 -18 -7c-6 0 -13 2 -17 7l-72 71c-1 1 -3 2 -4 2s-3 -1 -4 -2l-72 -71c-5 -5 -11 -7 -17 -7zM323 649
c-100 0 -168 -43 -179 -145c-6 -51 -8 -102 -8 -153s2 -102 8 -153c11 -102 79 -145 179 -145s168 43 180 145c5 51 7 102 7 153s-2 102 -7 153c-12 102 -80 145 -180 145zM323 -7c-130 0 -229 64 -245 199c-6 53 -8 106 -8 159s2 106 8 159c16 135 115 199 245 199
s229 -64 245 -199c6 -53 8 -106 8 -159s-2 -106 -8 -159c-16 -135 -115 -199 -245 -199z" />
    <glyph glyph-name="Odieresis" unicode="&#xd6;" horiz-adv-x="646" 
d="M441 791c0 -22 -19 -41 -41 -41c-23 0 -41 19 -41 41c0 23 18 41 41 41c22 0 41 -18 41 -41zM287 791c0 -22 -18 -41 -41 -41c-22 0 -41 19 -41 41c0 23 19 41 41 41c23 0 41 -18 41 -41zM323 649c-100 0 -168 -43 -179 -145c-6 -51 -8 -102 -8 -153s2 -102 8 -153
c11 -102 79 -145 179 -145s168 43 180 145c5 51 7 102 7 153s-2 102 -7 153c-12 102 -80 145 -180 145zM323 -7c-130 0 -229 64 -245 199c-6 53 -8 106 -8 159s2 106 8 159c16 135 115 199 245 199s229 -64 245 -199c6 -53 8 -106 8 -159s-2 -106 -8 -159
c-16 -135 -115 -199 -245 -199z" />
    <glyph glyph-name="Ograve" unicode="&#xd2;" horiz-adv-x="646" 
d="M356 739c-6 0 -12 2 -17 6l-100 93c-5 5 -8 11 -8 18c0 14 11 25 25 25c6 0 12 -2 17 -6l100 -93c5 -5 8 -11 8 -18c0 -14 -11 -25 -25 -25zM323 649c-100 0 -168 -43 -179 -145c-6 -51 -8 -102 -8 -153s2 -102 8 -153c11 -102 79 -145 179 -145s168 43 180 145
c5 51 7 102 7 153s-2 102 -7 153c-12 102 -80 145 -180 145zM323 -7c-130 0 -229 64 -245 199c-6 53 -8 106 -8 159s2 106 8 159c16 135 115 199 245 199s229 -64 245 -199c6 -53 8 -106 8 -159s-2 -106 -8 -159c-16 -135 -115 -199 -245 -199z" />
    <glyph glyph-name="Otilde" unicode="&#xd5;" horiz-adv-x="646" 
d="M381 748c-52 0 -87 59 -115 59c-36 0 -32 -55 -64 -55c-14 0 -25 11 -25 25c0 4 1 7 3 11c17 36 42 69 85 69c52 0 87 -59 116 -59c35 0 31 55 63 55c14 0 25 -11 25 -25c0 -4 -1 -7 -3 -11c-17 -36 -42 -69 -85 -69zM323 649c-100 0 -168 -43 -179 -145
c-6 -51 -8 -102 -8 -153s2 -102 8 -153c11 -102 79 -145 179 -145s168 43 180 145c5 51 7 102 7 153s-2 102 -7 153c-12 102 -80 145 -180 145zM323 -7c-130 0 -229 64 -245 199c-6 53 -8 106 -8 159s2 106 8 159c16 135 115 199 245 199s229 -64 245 -199
c6 -53 8 -106 8 -159s-2 -106 -8 -159c-16 -135 -115 -199 -245 -199z" />
    <glyph glyph-name="Scaron" unicode="&#x160;" horiz-adv-x="543" 
d="M265 -7c120 0 228 73 228 202c0 127 -100 172 -208 200c-71 18 -160 43 -160 132c0 92 68 122 150 122c48 0 92 -9 137 -24c4 -1 8 -2 12 -2c17 0 33 13 33 31c0 14 -9 24 -21 29c-44 20 -114 26 -161 26c-115 0 -216 -54 -216 -182c0 -125 102 -169 208 -196
c73 -19 160 -46 160 -136c0 -93 -76 -142 -162 -142c-65 0 -105 11 -165 30c-4 2 -8 2 -12 2c-17 0 -33 -12 -33 -30c0 -15 9 -24 21 -30c54 -24 131 -32 189 -32zM185 878c7 0 13 -3 18 -8l72 -71c1 -1 2 -1 4 -1c1 0 2 0 3 1l72 71c5 5 11 8 18 8c6 0 13 -3 18 -8
c4 -5 7 -11 7 -17c0 -7 -3 -13 -8 -18l-72 -71c-10 -11 -24 -16 -38 -16c-15 0 -29 5 -39 16l-72 71c-5 5 -8 11 -8 18c0 6 3 12 8 17c4 5 11 8 17 8z" />
    <glyph glyph-name="Uacute" unicode="&#xda;" horiz-adv-x="656" 
d="M328 -7c-129 0 -229 65 -244 199c-3 31 -4 61 -4 91v392c0 18 16 31 33 31s33 -13 33 -31v-385c0 -30 0 -61 4 -92c11 -101 79 -145 178 -145s167 44 178 145c3 29 4 57 4 85v392c0 18 16 31 33 31s33 -13 33 -31v-406c0 -26 -1 -51 -4 -77c-15 -134 -115 -199 -244 -199
zM294 739c-13 0 -25 11 -25 25c0 7 3 13 8 18l101 93c4 4 10 6 17 6c13 0 25 -11 25 -25c0 -7 -3 -13 -8 -18l-101 -93c-4 -4 -10 -6 -17 -6z" />
    <glyph glyph-name="Ucircumflex" unicode="&#xdb;" horiz-adv-x="656" 
d="M235 741c-7 0 -13 2 -18 7s-7 11 -7 18c0 6 2 13 7 17l72 72c11 10 25 16 39 16s28 -6 39 -16l72 -72c5 -4 7 -11 7 -17c0 -7 -2 -13 -7 -18s-11 -7 -18 -7c-6 0 -12 2 -17 7l-72 71c-1 1 -3 2 -4 2s-3 -1 -4 -2l-72 -71c-5 -5 -11 -7 -17 -7zM328 -7
c129 0 229 65 244 199c3 26 4 51 4 77v406c0 18 -16 31 -33 31s-33 -13 -33 -31v-392c0 -28 -1 -56 -4 -85c-11 -101 -79 -145 -178 -145s-167 44 -178 145c-4 31 -4 62 -4 92v385c0 18 -16 31 -33 31s-33 -13 -33 -31v-392c0 -30 1 -60 4 -91c15 -134 115 -199 244 -199z
" />
    <glyph glyph-name="Udieresis" unicode="&#xdc;" horiz-adv-x="656" 
d="M446 791c0 -22 -19 -41 -41 -41c-23 0 -41 19 -41 41c0 23 18 41 41 41c22 0 41 -18 41 -41zM292 791c0 -22 -18 -41 -41 -41s-41 19 -41 41c0 23 18 41 41 41s41 -18 41 -41zM328 -7c129 0 229 65 244 199c3 26 4 51 4 77v406c0 18 -16 31 -33 31s-33 -13 -33 -31v-392
c0 -28 -1 -56 -4 -85c-11 -101 -79 -145 -178 -145s-167 44 -178 145c-4 31 -4 62 -4 92v385c0 18 -16 31 -33 31s-33 -13 -33 -31v-392c0 -30 1 -60 4 -91c15 -134 115 -199 244 -199z" />
    <glyph glyph-name="Ugrave" unicode="&#xd9;" horiz-adv-x="656" 
d="M362 739c-7 0 -13 2 -17 6l-101 93c-5 5 -8 11 -8 18c0 14 11 25 25 25c6 0 13 -2 17 -6l100 -93c6 -5 9 -11 9 -18c0 -14 -12 -25 -25 -25zM328 -7c-129 0 -229 65 -244 199c-3 26 -4 51 -4 77v406c0 18 16 31 33 31s33 -13 33 -31v-392c0 -28 1 -56 4 -85
c11 -101 79 -145 178 -145s167 44 178 145c4 31 4 62 4 92v385c0 18 16 31 33 31s33 -13 33 -31v-392c0 -30 -1 -60 -4 -91c-15 -134 -115 -199 -244 -199z" />
    <glyph glyph-name="Yacute" unicode="&#xdd;" horiz-adv-x="587" 
d="M48 705c-17 0 -33 -13 -33 -30c0 -5 2 -11 4 -15l165 -251c18 -28 44 -57 77 -67v-315c0 -18 16 -30 33 -30c16 0 33 12 33 30v315c33 10 58 39 77 67l164 251c3 4 4 10 4 15c0 17 -16 30 -33 30c-11 0 -23 -5 -29 -14l-164 -251c-12 -18 -28 -43 -52 -43
c-25 0 -41 25 -53 43l-164 251c-6 9 -17 14 -29 14zM274 739c-14 0 -25 11 -25 25c0 7 3 13 8 18l100 93c5 4 11 6 17 6c14 0 25 -11 25 -25c0 -7 -3 -13 -8 -18l-100 -93c-5 -4 -11 -6 -17 -6z" />
    <glyph glyph-name="Ydieresis" unicode="&#x178;" horiz-adv-x="587" 
d="M412 791c0 -22 -19 -41 -41 -41c-23 0 -41 19 -41 41c0 23 18 41 41 41c22 0 41 -18 41 -41zM258 791c0 -22 -19 -41 -41 -41c-23 0 -41 19 -41 41c0 23 18 41 41 41c22 0 41 -18 41 -41zM48 705c12 0 23 -5 29 -14l164 -251c12 -18 28 -43 53 -43c24 0 40 25 52 43
l164 251c6 9 18 14 29 14c17 0 33 -13 33 -30c0 -5 -1 -11 -4 -15l-164 -251c-19 -28 -44 -57 -77 -67v-315c0 -18 -17 -30 -33 -30c-17 0 -33 12 -33 30v315c-33 10 -59 39 -77 67l-165 251c-2 4 -4 10 -4 15c0 17 16 30 33 30z" />
    <glyph glyph-name="Zcaron" unicode="&#x17d;" horiz-adv-x="572" 
d="M499 0c18 0 33 13 33 30c0 16 -15 30 -33 30h-385c-4 0 -6 1 -7 3c0 1 -1 2 -1 3s1 3 3 6l402 523c10 13 15 27 15 42c0 10 -3 20 -8 30c-13 22 -38 35 -67 35h-356c-19 0 -33 -13 -33 -30c0 -16 14 -30 33 -30h356c5 0 6 -1 7 -3c1 -1 1 -2 1 -3c0 -2 -1 -4 -2 -6
l-402 -523c-10 -13 -15 -27 -15 -42c0 -11 3 -21 8 -31c13 -21 37 -34 65 -34h386zM191 878c6 0 12 -3 17 -8l72 -71c1 -1 2 -1 4 -1c1 0 3 0 4 1l72 71c4 5 11 8 17 8c7 0 13 -3 18 -8s7 -11 7 -17c0 -7 -2 -13 -7 -18l-72 -71c-11 -11 -25 -16 -39 -16s-28 5 -39 16
l-72 71c-5 5 -7 11 -7 18c0 6 2 12 7 17s11 8 18 8z" />
    <glyph glyph-name="aacute" unicode="&#xe1;" horiz-adv-x="540" 
d="M268 533c56 0 112 -14 154 -54c49 -48 53 -116 53 -181v-70c0 -65 -4 -133 -53 -181c-42 -40 -98 -54 -154 -54c-116 0 -213 52 -213 177c0 129 97 177 213 177c48 0 96 -8 143 -17c-4 96 -42 145 -143 145c-49 0 -92 -9 -139 -21c-4 -1 -7 -2 -10 -2
c-16 0 -32 12 -32 30c0 14 10 25 23 29c49 18 106 22 158 22zM268 51c122 0 143 70 143 177v46c-47 8 -95 14 -143 14c-84 0 -149 -26 -149 -118c0 -91 68 -119 149 -119zM249 564c-13 0 -25 11 -25 25c0 7 3 14 8 18l101 93c4 4 10 6 17 6c13 0 25 -11 25 -25
c0 -7 -3 -13 -8 -18l-101 -93c-4 -4 -10 -6 -17 -6z" />
    <glyph glyph-name="acircumflex" unicode="&#xe2;" horiz-adv-x="540" 
d="M181 566c-6 0 -13 2 -18 7c-4 5 -7 11 -7 18c0 6 3 13 8 18l72 71c10 10 24 16 38 16c15 0 29 -6 39 -16l72 -71c5 -5 8 -12 8 -18c0 -7 -3 -13 -7 -18c-5 -5 -12 -7 -18 -7c-7 0 -13 2 -18 7l-72 71c-1 1 -2 2 -4 2c-1 0 -2 -1 -3 -2l-72 -71c-5 -5 -11 -7 -18 -7z
M268 51c-81 0 -149 28 -149 119c0 92 65 118 149 118c48 0 96 -6 143 -14v-46c0 -107 -21 -177 -143 -177zM268 533c-52 0 -109 -4 -158 -22c-13 -4 -23 -15 -23 -29c0 -18 16 -30 32 -30c3 0 6 1 10 2c47 12 90 21 139 21c101 0 139 -49 143 -145c-47 9 -95 17 -143 17
c-116 0 -213 -48 -213 -177c0 -125 97 -177 213 -177c56 0 112 14 154 54c49 48 53 116 53 181v70c0 65 -4 133 -53 181c-42 40 -98 54 -154 54z" />
    <glyph glyph-name="adieresis" unicode="&#xe4;" horiz-adv-x="540" 
d="M393 617c0 -23 -18 -41 -41 -41s-41 18 -41 41c0 22 18 41 41 41s41 -19 41 -41zM239 617c0 -23 -18 -41 -41 -41c-22 0 -41 18 -41 41c0 22 19 41 41 41c23 0 41 -19 41 -41zM268 51c-81 0 -149 28 -149 119c0 92 65 118 149 118c48 0 96 -6 143 -14v-46
c0 -107 -21 -177 -143 -177zM268 533c-52 0 -109 -4 -158 -22c-13 -4 -23 -15 -23 -29c0 -18 16 -30 32 -30c3 0 6 1 10 2c47 12 90 21 139 21c101 0 139 -49 143 -145c-47 9 -95 17 -143 17c-116 0 -213 -48 -213 -177c0 -125 97 -177 213 -177c56 0 112 14 154 54
c49 48 53 116 53 181v70c0 65 -4 133 -53 181c-42 40 -98 54 -154 54z" />
    <glyph glyph-name="agrave" unicode="&#xe0;" horiz-adv-x="540" 
d="M303 564c-6 0 -12 2 -17 6l-100 93c-5 5 -8 11 -8 18c0 14 11 25 25 25c6 0 12 -2 17 -6l100 -93c5 -4 8 -11 8 -18c0 -14 -11 -25 -25 -25zM268 51c-81 0 -149 28 -149 119c0 92 65 118 149 118c48 0 96 -6 143 -14v-46c0 -107 -21 -177 -143 -177zM268 533
c-52 0 -109 -4 -158 -22c-13 -4 -23 -15 -23 -29c0 -18 16 -30 32 -30c3 0 6 1 10 2c47 12 90 21 139 21c101 0 139 -49 143 -145c-47 9 -95 17 -143 17c-116 0 -213 -48 -213 -177c0 -125 97 -177 213 -177c56 0 112 14 154 54c49 48 53 116 53 181v70c0 65 -4 133 -53 181
c-42 40 -98 54 -154 54z" />
    <glyph glyph-name="aring" unicode="&#xe5;" horiz-adv-x="540" 
d="M275 695c-25 0 -47 -20 -47 -45c0 -26 22 -46 47 -46s46 20 46 46c0 25 -21 45 -46 45zM275 565c-47 0 -87 37 -87 85c0 47 40 84 87 84c46 0 86 -37 86 -84c0 -48 -40 -85 -86 -85zM268 51c-81 0 -149 28 -149 119c0 92 65 118 149 118c48 0 96 -6 143 -14v-46
c0 -107 -21 -177 -143 -177zM268 533c-52 0 -109 -4 -158 -22c-13 -4 -23 -15 -23 -29c0 -18 16 -30 32 -30c3 0 6 1 10 2c47 12 90 21 139 21c101 0 139 -49 143 -145c-47 9 -95 17 -143 17c-116 0 -213 -48 -213 -177c0 -125 97 -177 213 -177c56 0 112 14 154 54
c49 48 53 116 53 181v70c0 65 -4 133 -53 181c-42 40 -98 54 -154 54z" />
    <glyph glyph-name="atilde" unicode="&#xe3;" horiz-adv-x="540" 
d="M333 573c-52 0 -87 59 -115 59c-36 0 -32 -55 -64 -55c-13 0 -25 11 -25 25c0 4 1 7 3 11c17 36 42 69 86 69c51 0 87 -59 115 -59c35 0 31 55 63 55c14 0 25 -11 25 -25c0 -4 -1 -7 -3 -11c-17 -36 -41 -69 -85 -69zM268 51c-81 0 -149 28 -149 119c0 92 65 118 149 118
c48 0 96 -6 143 -14v-46c0 -107 -21 -177 -143 -177zM268 533c-52 0 -109 -4 -158 -22c-13 -4 -23 -15 -23 -29c0 -18 16 -30 32 -30c3 0 6 1 10 2c47 12 90 21 139 21c101 0 139 -49 143 -145c-47 9 -95 17 -143 17c-116 0 -213 -48 -213 -177c0 -125 97 -177 213 -177
c56 0 112 14 154 54c49 48 53 116 53 181v70c0 65 -4 133 -53 181c-42 40 -98 54 -154 54z" />
    <glyph glyph-name="ccedilla" unicode="&#xe7;" horiz-adv-x="529" 
d="M278 51c52 0 97 20 144 40c5 3 10 4 15 4c17 0 32 -12 32 -30c0 -12 -7 -21 -17 -27c-45 -24 -99 -40 -150 -44l-11 -32c45 0 88 -17 88 -70c0 -48 -43 -75 -88 -75c-22 0 -78 1 -78 32c0 13 12 25 25 25c15 0 34 -7 53 -7c16 0 38 5 38 25c0 25 -36 25 -53 25
c-16 0 -38 0 -38 23c0 12 14 42 18 54c-100 7 -171 62 -186 164c-5 35 -5 70 -5 105s0 70 5 105c16 111 99 165 208 165c58 0 122 -18 174 -45c10 -6 17 -16 17 -27c0 -18 -15 -30 -32 -30c-5 0 -10 1 -15 3c-47 21 -92 41 -144 41c-145 0 -149 -101 -149 -212
s4 -212 149 -212z" />
    <glyph glyph-name="eacute" unicode="&#xe9;" horiz-adv-x="552" 
d="M239 564c-14 0 -25 11 -25 25c0 7 3 14 8 18l100 93c5 4 11 6 17 6c14 0 25 -11 25 -25c0 -7 -3 -13 -8 -18l-100 -93c-5 -4 -11 -6 -17 -6zM278 475c79 0 145 -43 145 -128c0 -27 -11 -46 -40 -46h-254c3 103 27 174 149 174zM278 51c-133 0 -148 83 -149 192h254
c63 0 104 42 104 104c0 7 -1 14 -2 21c-15 111 -100 165 -207 165c-108 0 -192 -54 -208 -165c-5 -35 -5 -70 -5 -105s0 -70 5 -105c16 -111 100 -165 208 -165c55 0 131 18 179 45c10 6 17 15 17 27c0 18 -15 30 -32 30c-5 0 -10 -1 -15 -4c-48 -21 -96 -40 -149 -40z" />
    <glyph glyph-name="ecircumflex" unicode="&#xea;" horiz-adv-x="552" 
d="M188 566c-7 0 -13 2 -18 7s-7 11 -7 18c0 6 2 13 7 18l72 71c11 10 25 16 39 16s28 -6 39 -16l72 -71c5 -5 7 -12 7 -18c0 -7 -2 -13 -7 -18s-11 -7 -18 -7c-6 0 -12 2 -17 7l-72 71c-1 1 -3 2 -4 2s-3 -1 -4 -2l-72 -71c-4 -5 -11 -7 -17 -7zM278 475
c79 0 145 -43 145 -128c0 -27 -11 -46 -40 -46h-254c3 103 27 174 149 174zM278 51c-133 0 -148 83 -149 192h254c63 0 104 42 104 104c0 7 -1 14 -2 21c-15 111 -100 165 -207 165c-108 0 -192 -54 -208 -165c-5 -35 -5 -70 -5 -105s0 -70 5 -105
c16 -111 100 -165 208 -165c55 0 131 18 179 45c10 6 17 15 17 27c0 18 -15 30 -32 30c-5 0 -10 -1 -15 -4c-48 -21 -96 -40 -149 -40z" />
    <glyph glyph-name="edieresis" unicode="&#xeb;" horiz-adv-x="552" 
d="M399 617c0 -23 -18 -41 -41 -41c-22 0 -40 18 -40 41c0 22 18 41 40 41c23 0 41 -19 41 -41zM246 617c0 -23 -19 -41 -41 -41c-23 0 -41 18 -41 41c0 22 18 41 41 41c22 0 41 -19 41 -41zM278 475c79 0 145 -43 145 -128c0 -27 -11 -46 -40 -46h-254
c3 103 27 174 149 174zM278 51c-133 0 -148 83 -149 192h254c63 0 104 42 104 104c0 7 -1 14 -2 21c-15 111 -100 165 -207 165c-108 0 -192 -54 -208 -165c-5 -35 -5 -70 -5 -105s0 -70 5 -105c16 -111 100 -165 208 -165c55 0 131 18 179 45c10 6 17 15 17 27
c0 18 -15 30 -32 30c-5 0 -10 -1 -15 -4c-48 -21 -96 -40 -149 -40z" />
    <glyph glyph-name="egrave" unicode="&#xe8;" horiz-adv-x="552" 
d="M314 564c-7 0 -13 2 -17 6l-101 93c-5 5 -8 11 -8 18c0 14 12 25 25 25c7 0 13 -2 17 -6l101 -93c5 -4 8 -11 8 -18c0 -14 -12 -25 -25 -25zM278 475c79 0 145 -43 145 -128c0 -27 -11 -46 -40 -46h-254c3 103 27 174 149 174zM278 51c-133 0 -148 83 -149 192h254
c63 0 104 42 104 104c0 7 -1 14 -2 21c-15 111 -100 165 -207 165c-108 0 -192 -54 -208 -165c-5 -35 -5 -70 -5 -105s0 -70 5 -105c16 -111 100 -165 208 -165c55 0 131 18 179 45c10 6 17 15 17 27c0 18 -15 30 -32 30c-5 0 -10 -1 -15 -4c-48 -21 -96 -40 -149 -40z" />
    <glyph glyph-name="iacute" unicode="&#xed;" horiz-adv-x="222" 
d="M104 564c-14 0 -25 11 -25 25c0 7 3 14 8 18l100 93c5 4 11 6 17 6c14 0 25 -11 25 -25c0 -7 -3 -13 -8 -18l-100 -93c-5 -4 -11 -6 -17 -6zM111 -3c-16 0 -32 11 -32 29v474c0 18 16 30 32 30s32 -12 32 -30v-474c0 -18 -16 -29 -32 -29z" />
    <glyph glyph-name="icircumflex" unicode="&#xee;" horiz-adv-x="222" 
d="M18 566c-7 0 -13 2 -18 7s-7 11 -7 18c0 6 2 13 7 18l72 71c11 10 25 16 39 16s28 -6 39 -16l72 -71c5 -5 7 -12 7 -18c0 -7 -2 -13 -7 -18s-11 -7 -18 -7c-6 0 -12 2 -17 7l-72 71c-1 1 -3 2 -4 2s-3 -1 -4 -2l-72 -71c-5 -5 -11 -7 -17 -7zM111 -3c-16 0 -32 11 -32 29
v474c0 18 16 30 32 30s32 -12 32 -30v-474c0 -18 -16 -29 -32 -29z" />
    <glyph glyph-name="idieresis" unicode="&#xef;" horiz-adv-x="222" 
d="M229 617c0 -23 -19 -41 -41 -41c-23 0 -41 18 -41 41c0 22 18 41 41 41c22 0 41 -19 41 -41zM75 617c0 -23 -18 -41 -41 -41s-41 18 -41 41c0 22 19 41 41 41c23 0 41 -19 41 -41zM111 -3c-16 0 -32 11 -32 29v474c0 18 16 30 32 30s32 -12 32 -30v-474
c0 -18 -16 -29 -32 -29z" />
    <glyph glyph-name="igrave" unicode="&#xec;" horiz-adv-x="222" 
d="M111 -3c-16 0 -32 12 -32 29v474c0 17 16 30 32 30s32 -13 32 -30v-474c0 -17 -16 -29 -32 -29zM118 564c-6 0 -12 2 -17 6l-100 93c-5 5 -8 11 -8 18c0 14 11 25 25 25c6 0 12 -2 17 -6l100 -93c5 -4 8 -11 8 -18c0 -14 -11 -25 -25 -25z" />
    <glyph glyph-name="ntilde" unicode="&#xf1;" horiz-adv-x="566" 
d="M340 573c-51 0 -87 59 -115 59c-35 0 -31 -55 -63 -55c-14 0 -25 11 -25 25c0 4 1 7 3 11c17 36 41 69 85 69c52 0 87 -59 115 -59c36 0 32 55 64 55c14 0 25 -11 25 -25c0 -4 -1 -7 -3 -11c-17 -36 -42 -69 -86 -69zM283 533c-56 0 -113 -14 -154 -54
c-50 -48 -54 -116 -54 -181v-272c0 -18 16 -29 32 -29s32 11 32 29v272c0 107 22 177 144 177s144 -70 144 -177v-272c0 -18 16 -29 32 -29s32 11 32 29v272c0 65 -4 133 -54 181c-41 40 -98 54 -154 54z" />
    <glyph glyph-name="oacute" unicode="&#xf3;" horiz-adv-x="555" 
d="M65 263c0 35 0 70 5 105c17 111 99 165 208 165c108 0 190 -54 207 -165c5 -35 5 -70 5 -105s0 -70 -5 -105c-17 -111 -99 -165 -207 -165c-109 0 -192 54 -208 165c-5 35 -5 70 -5 105zM129 263c0 -114 6 -212 149 -212c142 0 148 98 148 212c0 115 -6 212 -148 212
c-143 0 -149 -97 -149 -212zM243 564c-14 0 -25 11 -25 25c0 7 3 14 8 18l100 93c5 4 11 6 17 6c14 0 25 -11 25 -25c0 -7 -3 -13 -8 -18l-100 -92c-5 -5 -11 -7 -17 -7z" />
    <glyph glyph-name="ocircumflex" unicode="&#xf4;" horiz-adv-x="555" 
d="M185 566c-7 0 -13 2 -18 7s-7 11 -7 18c0 6 2 13 7 18l72 71c11 10 25 16 39 16s28 -6 39 -16l72 -71c5 -5 7 -12 7 -18c0 -7 -2 -13 -7 -18s-11 -7 -18 -7c-6 0 -13 2 -17 7l-72 71c-1 1 -3 2 -4 2s-3 -1 -4 -2l-72 -71c-5 -5 -11 -7 -17 -7zM278 51
c-143 0 -149 98 -149 212c0 115 6 212 149 212c142 0 148 -97 148 -212c0 -114 -6 -212 -148 -212zM278 533c-109 0 -191 -54 -208 -165c-5 -35 -5 -70 -5 -105s0 -70 5 -105c17 -111 99 -165 208 -165c108 0 191 54 207 165c5 35 5 70 5 105s0 70 -5 105
c-17 111 -99 165 -207 165z" />
    <glyph glyph-name="odieresis" unicode="&#xf6;" horiz-adv-x="555" 
d="M395 617c0 -23 -18 -41 -41 -41c-22 0 -41 18 -41 41c0 22 19 41 41 41c23 0 41 -19 41 -41zM242 617c0 -23 -19 -41 -41 -41c-23 0 -41 18 -41 41c0 22 18 41 41 41c22 0 41 -19 41 -41zM278 51c-143 0 -149 98 -149 212c0 115 6 212 149 212c142 0 148 -97 148 -212
c0 -114 -6 -212 -148 -212zM278 533c-109 0 -191 -54 -208 -165c-5 -35 -5 -70 -5 -105s0 -70 5 -105c17 -111 99 -165 208 -165c108 0 191 54 207 165c5 35 5 70 5 105s0 70 -5 105c-17 111 -99 165 -207 165z" />
    <glyph glyph-name="ograve" unicode="&#xf2;" horiz-adv-x="555" 
d="M312 564c-6 0 -12 2 -17 7l-100 92c-5 5 -8 11 -8 18c0 14 11 25 25 25c6 0 12 -2 17 -6l100 -93c5 -4 8 -11 8 -18c0 -14 -11 -25 -25 -25zM278 51c-143 0 -149 98 -149 212c0 115 6 212 149 212c142 0 148 -97 148 -212c0 -114 -6 -212 -148 -212zM278 533
c-109 0 -191 -54 -208 -165c-5 -35 -5 -70 -5 -105s0 -70 5 -105c17 -111 99 -165 208 -165c108 0 191 54 207 165c5 35 5 70 5 105s0 70 -5 105c-17 111 -99 165 -207 165z" />
    <glyph glyph-name="otilde" unicode="&#xf5;" horiz-adv-x="555" 
d="M335 573c-51 0 -87 59 -115 59c-35 0 -31 -55 -63 -55c-14 0 -25 11 -25 25c0 4 1 7 2 11c16 36 43 69 86 69c51 0 87 -59 115 -59c35 0 31 56 63 56c14 0 25 -12 25 -26c0 -3 -1 -7 -2 -11c-16 -36 -43 -69 -86 -69zM278 51c-143 0 -149 98 -149 212
c0 115 6 212 149 212c142 0 148 -97 148 -212c0 -114 -6 -212 -148 -212zM278 533c-109 0 -191 -54 -208 -165c-5 -35 -5 -70 -5 -105s0 -70 5 -105c17 -111 99 -165 208 -165c108 0 191 54 207 165c5 35 5 70 5 105s0 70 -5 105c-17 111 -99 165 -207 165z" />
    <glyph glyph-name="scaron" unicode="&#x161;" horiz-adv-x="465" 
d="M233 -7c95 0 182 44 182 150c0 102 -89 134 -173 152c-52 12 -123 26 -123 93c0 70 61 87 120 87c35 0 69 -9 103 -17c3 0 6 -1 9 -1c16 0 32 12 32 29c0 16 -10 25 -23 30c-33 14 -86 17 -121 17c-93 0 -184 -39 -184 -145c0 -102 88 -137 173 -155
c52 -11 123 -22 123 -90c0 -71 -57 -92 -118 -92c-49 0 -95 13 -142 24c-3 1 -6 2 -9 2c-16 0 -32 -12 -32 -30c0 -15 9 -24 23 -29c38 -17 117 -25 160 -25zM140 703c7 0 13 -3 18 -8l72 -71c1 -1 2 -1 4 -1c1 0 2 0 3 1l72 71c5 5 11 8 18 8c6 0 13 -3 18 -8
c4 -5 7 -11 7 -17c0 -7 -3 -13 -8 -18l-72 -71c-10 -11 -24 -16 -38 -16c-15 0 -29 5 -39 16l-72 71c-5 5 -8 11 -8 18c0 6 3 12 8 17c4 5 11 8 17 8z" />
    <glyph glyph-name="uacute" unicode="&#xfa;" horiz-adv-x="564" 
d="M107 530c-16 0 -32 -12 -32 -30v-272c0 -65 5 -133 54 -181c41 -40 98 -54 154 -54c55 0 113 14 154 54c49 48 54 116 54 181v272c0 18 -16 30 -32 30s-32 -12 -32 -30v-272c0 -107 -23 -177 -144 -177c-122 0 -144 70 -144 177v272c0 18 -16 30 -32 30zM255 564
c-13 0 -25 11 -25 25c0 7 3 14 8 18l100 93c5 4 11 6 17 6c14 0 25 -11 25 -25c0 -7 -3 -13 -8 -18l-100 -92c-5 -5 -11 -7 -17 -7z" />
    <glyph glyph-name="ucircumflex" unicode="&#xfb;" horiz-adv-x="566" 
d="M190 566c-7 0 -13 2 -18 7s-7 11 -7 18c0 6 2 13 7 18l72 71c11 10 25 16 39 16s28 -6 39 -16l72 -71c5 -5 7 -12 7 -18c0 -7 -2 -13 -7 -18s-11 -7 -18 -7c-6 0 -13 2 -17 7l-72 71c-1 1 -3 2 -4 2s-3 -1 -4 -2l-72 -71c-5 -5 -11 -7 -17 -7zM459 530
c-16 0 -32 -12 -32 -30v-272c0 -107 -22 -177 -144 -177s-144 70 -144 177v272c0 18 -16 30 -32 30s-32 -12 -32 -30v-272c0 -65 5 -133 54 -181c41 -40 98 -54 154 -54c55 0 113 14 154 54c49 48 54 116 54 181v272c0 18 -16 30 -32 30z" />
    <glyph glyph-name="udieresis" unicode="&#xfc;" horiz-adv-x="566" 
d="M401 617c0 -23 -19 -41 -41 -41c-23 0 -41 18 -41 41c0 22 18 41 41 41c22 0 41 -19 41 -41zM247 617c0 -23 -19 -41 -41 -41s-41 18 -41 41c0 22 19 41 41 41s41 -19 41 -41zM459 530c-16 0 -32 -12 -32 -30v-272c0 -107 -22 -177 -144 -177s-144 70 -144 177v272
c0 18 -16 30 -32 30s-32 -12 -32 -30v-272c0 -65 5 -133 54 -181c41 -40 98 -54 154 -54c55 0 113 14 154 54c49 48 54 116 54 181v272c0 18 -16 30 -32 30z" />
    <glyph glyph-name="ugrave" unicode="&#xf9;" horiz-adv-x="566" 
d="M311 564c-6 0 -13 2 -17 7l-100 92c-5 5 -8 11 -8 18c0 14 11 25 25 25c6 0 12 -2 16 -6l101 -93c5 -4 8 -11 8 -18c0 -14 -12 -25 -25 -25zM459 530c-16 0 -32 -12 -32 -30v-272c0 -107 -22 -177 -144 -177s-144 70 -144 177v272c0 18 -16 30 -32 30s-32 -12 -32 -30
v-272c0 -65 5 -133 54 -181c41 -40 98 -54 154 -54c55 0 113 14 154 54c49 48 54 116 54 181v272c0 18 -16 30 -32 30z" />
    <glyph glyph-name="yacute" unicode="&#xfd;" horiz-adv-x="502" 
d="M225 564c-14 0 -25 11 -25 25c0 7 3 14 8 18l100 93c5 4 11 6 17 6c14 0 25 -11 25 -25c0 -7 -3 -13 -8 -18l-100 -92c-5 -5 -11 -7 -17 -7zM68 -154c0 18 14 29 31 30s33 3 48 10c54 22 79 93 96 144l7 20c-29 14 -51 42 -64 72l-154 368c-1 3 -2 7 -2 11
c0 18 15 28 32 28c14 0 26 -7 32 -20l153 -366c2 -4 16 -34 21 -34c1 0 2 0 2 2l133 396c4 14 16 23 31 23c17 0 33 -11 33 -29c0 -12 -147 -443 -160 -485c-34 -101 -83 -198 -206 -198c-15 0 -33 11 -33 28z" />
    <glyph glyph-name="ydieresis" unicode="&#xff;" horiz-adv-x="502" 
d="M68 -154c0 -17 18 -28 33 -28c123 0 172 97 206 198c13 42 160 473 160 485c0 18 -16 29 -33 29c-15 0 -27 -9 -31 -23l-133 -396c0 -2 -1 -2 -2 -2c-5 0 -19 30 -21 34l-153 366c-6 13 -18 20 -32 20c-17 0 -32 -10 -32 -28c0 -4 1 -8 2 -11l154 -368
c13 -30 35 -58 64 -72l-7 -20c-17 -51 -42 -122 -96 -144c-15 -7 -31 -9 -48 -10s-31 -12 -31 -30zM365 617c0 -23 -19 -41 -41 -41c-23 0 -41 18 -41 41c0 22 18 41 41 41c22 0 41 -19 41 -41zM211 617c0 -23 -19 -41 -41 -41c-23 0 -41 18 -41 41c0 22 18 41 41 41
c22 0 41 -19 41 -41z" />
    <glyph glyph-name="zcaron" unicode="&#x17e;" horiz-adv-x="508" 
d="M436 0c16 0 32 12 32 29s-16 29 -32 29h-324c-3 0 -7 2 -7 7c0 3 2 6 4 8l327 343c12 12 19 29 19 46c0 39 -34 64 -71 64h-290c-17 0 -32 -12 -32 -29s15 -29 32 -29h288c4 0 8 -2 8 -7c0 -3 -2 -5 -4 -7l-327 -343c-11 -13 -19 -29 -19 -47c0 -39 34 -64 71 -64h325z
M158 703c6 0 12 -3 17 -8l72 -71c1 -1 3 -1 4 -1s3 0 4 1l72 71c5 5 11 8 17 8c7 0 13 -3 18 -8s7 -11 7 -17c0 -7 -2 -13 -7 -18l-72 -71c-11 -11 -25 -16 -39 -16s-28 5 -39 16l-72 71c-5 5 -7 11 -7 18c0 6 2 12 7 17s11 8 18 8z" />
    <glyph glyph-name="_0" horiz-adv-x="120" 
 />
    <glyph glyph-name="_1" horiz-adv-x="120" 
 />
    <glyph glyph-name="_2" horiz-adv-x="120" 
 />
    <glyph glyph-name="_3" horiz-adv-x="120" 
 />
    <glyph glyph-name="_4" horiz-adv-x="120" 
 />
    <glyph glyph-name="_5" horiz-adv-x="120" 
 />
    <glyph glyph-name="_6" horiz-adv-x="120" 
 />
    <glyph glyph-name="_7" horiz-adv-x="120" 
 />
    <glyph glyph-name="_8" horiz-adv-x="120" 
 />
    <glyph glyph-name="_9" horiz-adv-x="120" 
 />
    <glyph glyph-name="_37" horiz-adv-x="120" 
 />
    <glyph glyph-name="_38" horiz-adv-x="120" 
 />
    <glyph glyph-name="_65" horiz-adv-x="120" 
 />
    <glyph glyph-name="_66" horiz-adv-x="120" 
 />
    <glyph glyph-name="_77" 
 />
    <glyph glyph-name="_78" 
 />
    <glyph glyph-name="zero.superior" unicode="&#x2070;" horiz-adv-x="336" 
d="M168 777c-91 0 -86 -92 -86 -158c0 -65 -5 -157 86 -157s86 92 86 157c0 66 5 158 -86 158zM168 414c-73 0 -125 45 -134 117c-3 29 -4 59 -4 88c0 30 1 60 4 89c9 72 61 117 134 117s124 -45 133 -117c4 -29 5 -59 5 -89c0 -29 -1 -59 -5 -88c-9 -72 -60 -117 -133 -117
z" />
    <glyph glyph-name="four.superior" unicode="&#x2074;" horiz-adv-x="328" 
d="M246 541c18 0 57 6 57 -23c0 -30 -39 -24 -57 -24v-56c0 -14 -13 -24 -26 -24s-26 10 -26 24v56h-122c-25 0 -47 17 -47 43c0 7 2 14 6 21l138 254c5 8 14 13 24 13c13 0 26 -10 26 -24c0 -13 -124 -232 -139 -260h114v136c0 14 13 24 26 24s26 -10 26 -24v-136z" />
    <glyph glyph-name="five.superior" unicode="&#x2075;" horiz-adv-x="331" 
d="M108 670h51c80 0 142 -43 142 -128s-62 -128 -142 -128c-26 0 -129 17 -129 52c0 14 13 24 26 24c14 0 60 -28 103 -28c53 0 90 24 90 80c0 92 -86 80 -152 80c-22 0 -43 16 -43 39c0 20 18 98 23 123c4 22 27 37 49 37h126c13 0 26 -10 26 -24c0 -13 -13 -23 -26 -23
h-124z" />
    <glyph glyph-name="six.superior" unicode="&#x2076;" horiz-adv-x="341" 
d="M173 670c77 0 138 -48 138 -129c0 -79 -62 -127 -138 -127c-77 0 -138 49 -138 129c0 107 62 210 145 276c5 4 11 6 18 6c13 0 26 -10 26 -24c0 -7 -3 -12 -8 -17c-47 -45 -81 -75 -110 -135c19 14 43 21 67 21zM173 462c50 0 86 27 86 80c0 51 -35 80 -86 80
c-50 0 -86 -27 -86 -80c0 -51 35 -80 86 -80z" />
    <glyph glyph-name="seven.superior" unicode="&#x2077;" horiz-adv-x="299" 
d="M230 821c25 0 49 -16 49 -43c0 -19 -23 -63 -30 -79c-26 -58 -51 -118 -75 -178c-11 -30 -22 -61 -34 -90c-4 -11 -14 -17 -24 -17c-14 0 -26 10 -26 24c0 3 0 5 1 8c40 111 88 219 135 328h-190c-13 0 -26 10 -26 24c0 13 13 23 26 23h194z" />
    <glyph glyph-name="eight.superior" unicode="&#x2078;" horiz-adv-x="336" 
d="M168 462c47 0 86 23 86 74s-39 75 -86 75s-86 -24 -86 -75s39 -74 86 -74zM168 777c-37 0 -71 -18 -71 -59s34 -60 71 -60s71 19 71 60s-34 59 -71 59zM244 636c40 -20 62 -56 62 -100c0 -78 -65 -122 -138 -122s-138 44 -138 122c0 44 22 80 62 100
c-31 17 -47 47 -47 82c0 69 59 107 123 107s123 -38 123 -107c0 -35 -16 -65 -47 -82z" />
    <glyph glyph-name="nine.superior" unicode="&#x2079;" horiz-adv-x="341" 
d="M168 825c77 0 138 -48 138 -128c0 -108 -62 -211 -145 -276c-6 -4 -11 -6 -18 -6c-13 0 -26 9 -26 23c0 7 3 13 8 18c47 44 81 75 110 134c-19 -13 -43 -20 -67 -20c-77 0 -138 48 -138 128c0 79 62 127 138 127zM168 617c49 0 86 28 86 80s-35 81 -86 81
c-50 0 -86 -28 -86 -80s35 -81 86 -81z" />
    <glyph glyph-name="zero.inferior" unicode="&#x2080;" horiz-adv-x="336" 
d="M168 210c-91 0 -86 -92 -86 -158c0 -65 -5 -158 86 -158s86 93 86 158c0 66 5 158 -86 158zM168 -153c-73 0 -125 44 -134 117c-3 29 -4 59 -4 88c0 30 1 60 4 89c9 72 61 117 134 117s124 -45 133 -117c4 -29 5 -59 5 -89c0 -29 -1 -59 -5 -88
c-9 -73 -60 -117 -133 -117z" />
    <glyph glyph-name="one.inferior" unicode="&#x2081;" horiz-adv-x="262" 
d="M166 -153c-13 0 -26 10 -26 24v336c-19 -4 -67 -18 -84 -18c-13 0 -26 9 -26 23c0 12 9 21 20 23l90 21c4 1 8 1 11 1c22 0 41 -15 41 -37v-349c0 -14 -13 -24 -26 -24z" />
    <glyph glyph-name="two.inferior" unicode="&#x2082;" horiz-adv-x="320" 
d="M269 -149h-196c-25 0 -48 18 -48 44c0 11 5 23 13 31l119 119c26 25 76 67 76 106c0 45 -32 60 -72 60c-42 0 -80 -27 -93 -27c-14 0 -27 10 -27 24c0 33 94 50 120 50c66 0 124 -35 124 -107c0 -58 -52 -101 -90 -138l-114 -115h188c14 0 26 -9 26 -23s-12 -24 -26 -24z
" />
    <glyph glyph-name="three.inferior" unicode="&#x2083;" horiz-adv-x="331" 
d="M228 69c40 -19 68 -55 68 -100c0 -81 -64 -122 -139 -122c-26 0 -127 17 -127 51c0 14 13 24 26 24s58 -28 101 -28c49 0 87 21 87 75c0 68 -57 75 -111 75c-13 0 -26 9 -26 23s13 24 26 24c44 0 99 0 99 60c0 44 -33 59 -73 59c-41 0 -77 -26 -91 -26
c-13 0 -26 10 -26 24c0 33 91 50 117 50c67 0 125 -35 125 -107c0 -36 -25 -67 -56 -82z" />
    <glyph glyph-name="four.inferior" unicode="&#x2084;" horiz-adv-x="328" 
d="M246 -26c18 0 57 6 57 -23c0 -30 -39 -24 -57 -24v-56c0 -14 -13 -24 -26 -24s-26 10 -26 24v56h-122c-25 0 -47 17 -47 43c0 7 2 14 6 21l138 254c5 8 14 13 24 13c13 0 26 -10 26 -24s-124 -232 -139 -260h114v136c0 14 13 23 26 23s26 -9 26 -23v-136z" />
    <glyph glyph-name="five.inferior" unicode="&#x2085;" horiz-adv-x="336" 
d="M113 102h51c80 0 142 -42 142 -127s-62 -128 -142 -128c-26 0 -129 17 -129 51c0 14 13 24 26 24c5 0 9 -1 13 -3c29 -13 58 -24 90 -24c53 0 90 24 90 80c0 91 -86 80 -152 80c-22 0 -43 15 -43 39c0 20 18 98 23 122c4 23 27 38 49 38h126c13 0 26 -10 26 -24
s-13 -23 -26 -23h-124z" />
    <glyph glyph-name="six.inferior" unicode="&#x2086;" horiz-adv-x="341" 
d="M173 102c77 0 138 -47 138 -128c0 -79 -62 -127 -138 -127c-77 0 -138 49 -138 129c0 107 62 210 145 275c5 4 11 7 18 7c13 0 26 -10 26 -24c0 -7 -3 -12 -8 -17c-47 -45 -81 -75 -110 -135c19 14 43 20 67 20zM173 -105c50 0 86 27 86 79s-35 81 -86 81
c-50 0 -86 -27 -86 -80c0 -51 35 -80 86 -80z" />
    <glyph glyph-name="seven.inferior" unicode="&#x2087;" horiz-adv-x="299" 
d="M230 254c25 0 49 -16 49 -44c0 -18 -23 -62 -30 -78c-26 -58 -51 -118 -75 -178c-11 -30 -22 -61 -34 -90c-4 -11 -14 -17 -24 -17c-14 0 -26 10 -26 24c0 3 0 5 1 7c40 112 89 220 135 329h-190c-13 0 -26 9 -26 23s13 24 26 24h194z" />
    <glyph glyph-name="eight.inferior" unicode="&#x2088;" horiz-adv-x="336" 
d="M168 -106c47 0 86 24 86 75s-39 75 -86 75s-86 -24 -86 -75s39 -75 86 -75zM168 210c-37 0 -71 -19 -71 -59c0 -41 34 -60 71 -60s71 19 71 60c0 40 -34 59 -71 59zM244 69c40 -20 62 -56 62 -100c0 -78 -65 -122 -138 -122s-138 44 -138 122c0 44 22 80 62 100
c-31 17 -47 47 -47 82c0 69 59 107 123 107s123 -38 123 -107c0 -35 -16 -65 -47 -82z" />
    <glyph glyph-name="nine.inferior" unicode="&#x2089;" horiz-adv-x="341" 
d="M168 50c49 0 86 28 86 80s-35 81 -86 81c-50 0 -86 -28 -86 -80s35 -81 86 -81zM168 258c77 0 138 -48 138 -128c0 -108 -62 -211 -145 -276c-6 -4 -11 -7 -18 -7c-13 0 -26 10 -26 24c0 7 3 13 8 17c47 45 81 75 110 135c-19 -13 -43 -20 -67 -20
c-77 0 -138 48 -138 128c0 79 62 127 138 127z" />
    <glyph glyph-name="_102" 
 />
    <glyph glyph-name="_103" 
 />
    <glyph glyph-name="Amacron" unicode="&#x100;" horiz-adv-x="564" 
d="M401 274h-238l112 365c1 3 3 7 7 7s6 -4 7 -7zM282 706c-33 0 -60 -19 -70 -51l-191 -620c-1 -3 -1 -6 -1 -8c0 -18 16 -30 33 -30c14 0 28 8 32 21l60 196h275l60 -196c4 -13 18 -21 31 -21c17 0 33 12 33 30c0 2 0 5 -1 8l-190 620c-10 32 -37 51 -71 51zM382 761h-199
c-14 0 -25 11 -25 25c0 13 11 25 25 25h199c13 0 25 -12 25 -25c0 -14 -12 -25 -25 -25z" />
    <glyph glyph-name="Abreve" unicode="&#x102;" horiz-adv-x="564" 
d="M401 274h-238l112 365c1 3 3 7 7 7s6 -4 7 -7zM282 706c-33 0 -60 -19 -70 -51l-191 -620c-1 -3 -1 -6 -1 -8c0 -18 16 -30 33 -30c14 0 28 8 32 21l60 196h275l60 -196c4 -13 18 -21 31 -21c17 0 33 12 33 30c0 2 0 5 -1 8l-190 620c-10 32 -37 51 -71 51zM282 738
c-56 0 -105 29 -124 83c0 3 -1 5 -1 8c0 14 12 25 25 25c34 0 20 -66 100 -66s66 66 100 66c13 0 25 -11 25 -25c0 -3 -1 -5 -2 -8c-18 -54 -67 -83 -123 -83z" />
    <glyph glyph-name="Aogonek" unicode="&#x104;" horiz-adv-x="564" 
d="M534 -117c14 0 25 -11 25 -25c0 -30 -61 -40 -84 -40c-42 0 -75 28 -75 71c0 51 43 99 78 131h1l-59 194h-275l-60 -195c-4 -14 -18 -22 -32 -22c-17 0 -33 12 -33 30c0 2 0 5 1 8l191 620c10 32 37 51 70 51c34 0 61 -19 71 -51l190 -620c1 -3 1 -6 1 -8
c0 -11 -7 -22 -15 -29c-26 -22 -79 -70 -79 -108c0 -16 11 -22 25 -22c27 0 47 15 59 15zM163 274h238l-112 365c-1 3 -3 7 -7 7s-6 -4 -7 -7z" />
    <glyph glyph-name="Cacute" unicode="&#x106;" horiz-adv-x="612" 
d="M294 739c-13 0 -25 11 -25 25c0 7 3 13 8 18l101 92c4 5 10 7 17 7c13 0 25 -11 25 -25c0 -7 -3 -14 -8 -18l-101 -93c-4 -4 -10 -6 -17 -6zM323 53c-99 0 -168 43 -179 145c-6 51 -8 102 -8 153s2 102 8 152c11 102 80 146 179 146c66 0 111 -14 171 -38
c5 -2 10 -3 15 -3c17 0 33 13 33 31c0 13 -8 22 -19 28c-54 29 -140 42 -200 42c-130 0 -229 -65 -245 -200c-6 -52 -8 -105 -8 -158s2 -106 8 -159c16 -135 115 -199 245 -199c60 0 146 13 200 42c11 6 19 15 19 28c0 18 -16 31 -33 31c-5 0 -10 -1 -14 -3
c-61 -24 -106 -38 -172 -38z" />
    <glyph glyph-name="Ccircumflex" unicode="&#x108;" horiz-adv-x="612" 
d="M238 741c-7 0 -13 2 -18 7s-7 11 -7 18c0 6 2 12 7 17l72 71c11 11 25 16 39 16s28 -5 39 -16l72 -71c5 -5 7 -11 7 -17c0 -7 -2 -13 -7 -18s-11 -7 -18 -7c-6 0 -12 2 -17 7l-72 71c-1 1 -3 1 -4 1s-3 0 -4 -1l-72 -71c-4 -5 -11 -7 -17 -7zM323 53
c-99 0 -168 43 -179 145c-6 51 -8 102 -8 153s2 102 8 152c11 102 80 146 179 146c66 0 111 -14 171 -38c5 -2 10 -3 15 -3c17 0 33 13 33 31c0 13 -8 22 -19 28c-54 29 -140 42 -200 42c-130 0 -229 -65 -245 -200c-6 -52 -8 -105 -8 -158s2 -106 8 -159
c16 -135 115 -199 245 -199c60 0 146 13 200 42c11 6 19 15 19 28c0 18 -16 31 -33 31c-5 0 -10 -1 -14 -3c-61 -24 -106 -38 -172 -38z" />
    <glyph glyph-name="Cdotaccent" unicode="&#x10a;" horiz-adv-x="612" 
d="M372 791c0 -22 -19 -41 -41 -41c-23 0 -41 19 -41 41c0 23 18 41 41 41c22 0 41 -18 41 -41zM323 53c-99 0 -168 43 -179 145c-6 51 -8 102 -8 153s2 102 8 152c11 102 80 146 179 146c66 0 111 -14 171 -38c5 -2 10 -3 15 -3c17 0 33 13 33 31c0 13 -8 22 -19 28
c-54 29 -140 42 -200 42c-130 0 -229 -65 -245 -200c-6 -52 -8 -105 -8 -158s2 -106 8 -159c16 -135 115 -199 245 -199c60 0 146 13 200 42c11 6 19 15 19 28c0 18 -16 31 -33 31c-5 0 -10 -1 -14 -3c-61 -24 -106 -38 -172 -38z" />
    <glyph glyph-name="Ccaron" unicode="&#x10c;" horiz-adv-x="612" 
d="M323 53c66 0 111 14 172 38c4 2 9 3 14 3c17 0 33 -13 33 -31c0 -13 -8 -22 -19 -28c-54 -29 -140 -42 -200 -42c-130 0 -229 64 -245 199c-6 53 -8 106 -8 159s2 106 8 158c16 135 115 200 245 200c60 0 146 -13 200 -42c11 -6 19 -15 19 -28c0 -18 -16 -31 -33 -31
c-5 0 -10 1 -15 3c-60 24 -105 38 -171 38c-99 0 -168 -44 -179 -146c-6 -50 -8 -101 -8 -152s2 -102 8 -153c11 -102 80 -145 179 -145zM238 877c6 0 13 -2 18 -7l72 -71c1 -1 2 -1 3 -1c2 0 3 0 4 1l72 71c5 5 11 7 18 7c6 0 12 -2 17 -7s8 -11 8 -18c0 -6 -3 -12 -8 -17
l-72 -71c-10 -11 -25 -16 -39 -16s-28 5 -39 16l-71 71c-5 5 -8 11 -8 17c0 7 2 13 7 18s12 7 18 7z" />
    <glyph glyph-name="Dcaron" unicode="&#x10e;" horiz-adv-x="646" 
d="M183 60h126c192 0 201 139 201 291s-9 291 -201 291h-153v-557c0 -15 13 -25 27 -25zM309 702c130 0 232 -60 256 -195c9 -51 11 -104 11 -156s-2 -105 -11 -156c-24 -134 -125 -195 -255 -195h-127c-47 0 -93 35 -93 85v560c0 33 31 57 63 57h156zM190 878
c7 0 13 -3 18 -8l72 -71c1 -1 2 -1 4 -1c1 0 2 0 3 1l72 71c5 5 12 8 18 8s13 -3 18 -8s7 -11 7 -17c0 -7 -2 -13 -7 -18l-72 -71c-11 -11 -25 -16 -39 -16s-28 5 -39 16l-72 71c-5 5 -8 11 -8 18c0 6 3 12 8 17s11 8 17 8z" />
    <glyph glyph-name="Emacron" unicode="&#x112;" horiz-adv-x="601" 
d="M418 761h-200c-13 0 -25 11 -25 25s12 25 25 25h200c13 0 25 -11 25 -25s-12 -25 -25 -25zM503 60h-347v273h310c17 0 33 13 33 30c0 18 -16 30 -33 30h-310v224c0 15 13 25 27 25h307c17 0 33 12 33 30s-16 30 -33 30h-307c-47 0 -93 -35 -93 -85v-560
c0 -34 31 -57 63 -57h350c17 0 33 12 33 30s-16 30 -33 30z" />
    <glyph glyph-name="Ebreve" unicode="&#x114;" horiz-adv-x="601" 
d="M318 738c-57 0 -104 28 -124 83c0 3 -1 5 -1 8c0 14 11 25 25 25c35 0 19 -66 100 -66s65 66 100 66c14 0 25 -11 25 -25c0 -3 -1 -5 -1 -8c-20 -55 -67 -83 -124 -83zM503 60h-347v273h310c17 0 33 13 33 30c0 18 -16 30 -33 30h-310v224c0 15 13 25 27 25h307
c17 0 33 12 33 30s-16 30 -33 30h-307c-47 0 -93 -35 -93 -85v-560c0 -34 31 -57 63 -57h350c17 0 33 12 33 30s-16 30 -33 30z" />
    <glyph glyph-name="Edotaccent" unicode="&#x116;" horiz-adv-x="601" 
d="M359 791c0 -22 -18 -41 -41 -41s-41 19 -41 41c0 23 18 41 41 41s41 -18 41 -41zM503 60h-347v273h310c17 0 33 13 33 30c0 18 -16 30 -33 30h-310v224c0 15 13 25 27 25h307c17 0 33 12 33 30s-16 30 -33 30h-307c-47 0 -93 -35 -93 -85v-560c0 -34 31 -57 63 -57h350
c17 0 33 12 33 30s-16 30 -33 30z" />
    <glyph glyph-name="Eogonek" unicode="&#x118;" horiz-adv-x="601" 
d="M518 -117c13 0 25 -11 25 -25c0 -30 -62 -40 -84 -40c-42 0 -76 29 -76 73c0 42 38 82 66 109h-296c-32 0 -63 23 -63 57v560c0 50 46 85 93 85h307c17 0 33 -12 33 -30s-16 -30 -33 -30h-307c-14 0 -27 -10 -27 -25v-224h310c17 0 33 -12 33 -30c0 -17 -16 -30 -33 -30
h-310v-273h347c17 0 33 -12 33 -30c0 -11 -5 -18 -13 -24c-28 -23 -89 -76 -89 -116c0 -16 11 -22 25 -22c27 0 47 15 59 15z" />
    <glyph glyph-name="Ecaron" unicode="&#x11a;" horiz-adv-x="601" 
d="M156 60h347c17 0 33 -12 33 -30s-16 -30 -33 -30h-350c-32 0 -63 23 -63 57v560c0 50 46 85 93 85h307c17 0 33 -12 33 -30s-16 -30 -33 -30h-307c-14 0 -27 -10 -27 -25v-224h310c17 0 33 -12 33 -30c0 -17 -16 -30 -33 -30h-310v-273zM224 877c6 0 12 -3 17 -7l72 -71
c1 -1 2 -2 4 -2c1 0 3 1 4 2l71 71c5 4 12 7 18 7s13 -3 18 -8c5 -4 7 -11 7 -17c0 -7 -2 -13 -7 -18l-72 -71c-11 -11 -25 -16 -39 -16s-28 5 -39 16l-72 71c-5 5 -7 11 -7 18c0 6 2 13 7 17c5 5 11 8 18 8z" />
    <glyph glyph-name="Gcircumflex" unicode="&#x11c;" horiz-adv-x="633" 
d="M240 741c-7 0 -13 2 -18 7s-7 11 -7 18c0 6 2 12 7 17l72 71c11 11 25 16 39 16s28 -5 39 -16l72 -71c5 -5 7 -11 7 -17c0 -7 -2 -13 -7 -18s-11 -7 -18 -7c-6 0 -12 2 -17 7l-72 71c-1 1 -2 1 -4 1c-1 0 -3 0 -4 -1l-71 -71c-5 -5 -12 -7 -18 -7zM323 649
c66 0 111 -12 171 -36c5 -2 10 -3 15 -3c16 0 33 13 33 30c0 13 -8 22 -19 27c-56 30 -138 42 -200 42c-130 0 -229 -64 -245 -199c-6 -53 -8 -106 -8 -159s2 -106 8 -159c16 -135 115 -199 245 -199c54 0 141 18 192 40c29 12 48 33 48 65v205c0 36 -28 57 -63 57h-110
c-16 0 -33 -12 -33 -30s17 -30 33 -30h107v-202c0 -6 -2 -7 -7 -10c-33 -16 -131 -35 -167 -35c-99 0 -168 43 -179 145c-6 51 -8 102 -8 153s2 102 8 153c11 102 80 145 179 145z" />
    <glyph glyph-name="Gbreve" unicode="&#x11e;" horiz-adv-x="633" 
d="M334 738c-57 0 -105 28 -124 83c-1 3 -1 5 -1 8c0 14 11 25 25 25c34 0 18 -66 100 -66c81 0 65 66 100 66c13 0 25 -11 25 -25c0 -3 -1 -5 -2 -8c-19 -55 -67 -83 -123 -83zM323 649c66 0 111 -12 171 -36c5 -2 10 -3 15 -3c16 0 33 13 33 30c0 13 -8 22 -19 27
c-56 30 -138 42 -200 42c-130 0 -229 -64 -245 -199c-6 -53 -8 -106 -8 -159s2 -106 8 -159c16 -135 115 -199 245 -199c54 0 141 18 192 40c29 12 48 33 48 65v205c0 36 -28 57 -63 57h-110c-16 0 -33 -12 -33 -30s17 -30 33 -30h107v-202c0 -6 -2 -7 -7 -10
c-33 -16 -131 -35 -167 -35c-99 0 -168 43 -179 145c-6 51 -8 102 -8 153s2 102 8 153c11 102 80 145 179 145z" />
    <glyph glyph-name="Gdotaccent" unicode="&#x120;" horiz-adv-x="633" 
d="M385 791c0 -22 -19 -41 -41 -41c-23 0 -41 19 -41 41c0 23 18 41 41 41c22 0 41 -18 41 -41zM323 649c66 0 111 -12 171 -36c5 -2 10 -3 15 -3c16 0 33 13 33 30c0 13 -8 22 -19 27c-56 30 -138 42 -200 42c-130 0 -229 -64 -245 -199c-6 -53 -8 -106 -8 -159
s2 -106 8 -159c16 -135 115 -199 245 -199c54 0 141 18 192 40c29 12 48 33 48 65v205c0 36 -28 57 -63 57h-110c-16 0 -33 -12 -33 -30s17 -30 33 -30h107v-202c0 -6 -2 -7 -7 -10c-33 -16 -131 -35 -167 -35c-99 0 -168 43 -179 145c-6 51 -8 102 -8 153s2 102 8 153
c11 102 80 145 179 145z" />
    <glyph glyph-name="Gcommaaccent" unicode="&#x122;" horiz-adv-x="633" 
d="M323 649c-99 0 -168 -43 -179 -145c-6 -51 -8 -102 -8 -153s2 -102 8 -153c11 -102 80 -145 179 -145c36 0 134 19 167 35c5 3 7 4 7 10v202h-107c-16 0 -33 12 -33 30s17 30 33 30h110c35 0 63 -21 63 -57v-205c0 -32 -19 -53 -48 -65c-51 -22 -138 -40 -192 -40
c-130 0 -229 64 -245 199c-6 53 -8 106 -8 159s2 106 8 159c16 135 115 199 245 199c62 0 144 -12 200 -42c11 -5 19 -14 19 -27c0 -17 -17 -30 -33 -30c-5 0 -10 1 -15 3c-60 24 -105 36 -171 36zM307 -182c46 0 94 33 94 81c0 28 -26 68 -57 68c-14 0 -25 -11 -25 -25
c0 -27 32 -19 32 -43c0 -40 -69 -16 -69 -56c0 -14 11 -25 25 -25z" />
    <glyph glyph-name="Hcircumflex" unicode="&#x124;" horiz-adv-x="656" 
d="M235 741c-7 0 -13 2 -18 7s-7 11 -7 18c0 6 2 13 7 17l72 72c11 10 25 15 39 15s28 -5 39 -15l72 -72c5 -4 7 -11 7 -17c0 -7 -2 -13 -7 -18s-12 -7 -18 -7s-13 2 -18 7l-71 71c-1 1 -3 1 -4 1c-2 0 -3 0 -4 -1l-72 -71c-5 -5 -11 -7 -17 -7zM533 706
c-17 0 -33 -13 -33 -30v-283h-344v283c0 17 -16 30 -33 30s-33 -13 -33 -30v-649c0 -18 16 -30 33 -30s33 12 33 30v306h344v-306c0 -18 16 -30 33 -30s33 12 33 30v649c0 17 -16 30 -33 30z" />
    <glyph glyph-name="Itilde" unicode="&#x128;" horiz-adv-x="246" 
d="M125 -3c-17 0 -33 12 -33 30v649c0 17 16 30 33 30s33 -13 33 -30v-649c0 -18 -16 -30 -33 -30zM181 748c-51 0 -87 59 -115 59c-36 0 -32 -56 -64 -56c-13 0 -25 12 -25 26c0 3 1 7 3 11c15 36 43 69 85 69c51 0 87 -59 115 -59c36 0 32 55 64 55c13 0 25 -11 25 -25
c0 -4 -1 -7 -3 -11c-15 -36 -43 -69 -85 -69z" />
    <glyph glyph-name="Imacron" unicode="&#x12a;" horiz-adv-x="246" 
d="M125 -3c-17 0 -33 12 -33 30v649c0 17 16 30 33 30s33 -13 33 -30v-649c0 -18 -16 -30 -33 -30zM223 761h-200c-13 0 -25 11 -25 25c0 13 12 25 25 25h200c13 0 25 -12 25 -25c0 -14 -12 -25 -25 -25z" />
    <glyph glyph-name="Ibreve" unicode="&#x12c;" horiz-adv-x="246" 
d="M125 -3c-17 0 -33 12 -33 30v649c0 17 16 30 33 30s33 -13 33 -30v-649c0 -18 -16 -30 -33 -30zM123 738c-56 0 -105 29 -124 83c0 3 -1 5 -1 8c0 14 12 25 25 25c34 0 20 -66 100 -66s66 66 100 66c13 0 25 -11 25 -25c0 -3 -1 -5 -1 -8c-19 -54 -68 -83 -124 -83z" />
    <glyph glyph-name="Iogonek" unicode="&#x12e;" horiz-adv-x="246" 
d="M148 -117c13 0 25 -11 25 -25c0 -30 -62 -40 -84 -40c-42 0 -75 28 -75 71c0 50 43 99 78 131v3v653c0 17 16 30 33 30c16 0 33 -13 33 -30v-653c0 -10 -6 -18 -13 -24c-27 -22 -81 -70 -81 -109c0 -16 11 -22 25 -22c27 0 46 15 59 15z" />
    <glyph glyph-name="Idotaccent" unicode="&#x130;" horiz-adv-x="246" 
d="M164 791c0 -22 -18 -41 -41 -41s-41 19 -41 41c0 23 18 41 41 41s41 -18 41 -41zM123 -3c-17 0 -33 12 -33 30v649c0 17 16 30 33 30s33 -13 33 -30v-649c0 -18 -16 -30 -33 -30z" />
    <glyph glyph-name="Jcircumflex" unicode="&#x134;" horiz-adv-x="520" 
d="M313 741c-7 0 -13 2 -18 7s-7 11 -7 18c0 6 2 12 7 17l72 71c11 11 25 16 39 16s28 -5 39 -16l72 -71c5 -5 7 -11 7 -17c0 -7 -2 -13 -7 -18s-11 -7 -18 -7c-6 0 -12 2 -17 7l-72 71c-1 1 -3 1 -4 1s-3 0 -4 -1l-72 -71c-5 -5 -11 -7 -17 -7zM407 706
c-17 0 -33 -13 -33 -30v-463c0 -90 -59 -160 -152 -160c-63 0 -103 17 -160 39c-5 2 -10 4 -16 4c-17 0 -31 -13 -31 -31c0 -13 6 -21 17 -28c50 -30 133 -44 190 -44c127 0 218 94 218 220v463c0 17 -16 30 -33 30z" />
    <glyph glyph-name="Kcommaaccent" unicode="&#x136;" horiz-adv-x="584" 
d="M292 363c19 -12 35 -27 49 -45l207 -274c4 -5 6 -11 6 -17c0 -19 -17 -30 -34 -30c-10 0 -21 4 -27 13l-212 279c-15 20 -34 44 -61 44h-64v-306c0 -18 -16 -30 -33 -30s-33 12 -33 30v649c0 17 16 30 33 30s33 -13 33 -30v-283h64c26 0 47 23 62 42l194 254
c7 9 18 13 28 13c17 0 33 -12 33 -30c0 -6 -2 -12 -5 -17l-189 -247c-14 -18 -31 -33 -51 -45zM263 -182c45 0 94 33 94 81c0 29 -26 68 -57 68c-14 0 -25 -11 -25 -25c0 -27 32 -19 32 -43c0 -40 -69 -16 -69 -56c0 -14 12 -25 25 -25z" />
    <glyph glyph-name="Lacute" unicode="&#x139;" horiz-adv-x="539" 
d="M115 739c-14 0 -25 11 -25 25c0 7 3 13 8 18l100 92c5 5 11 7 17 7c14 0 25 -11 25 -25c0 -7 -3 -14 -8 -18l-100 -93c-5 -4 -11 -6 -17 -6zM496 0h-313c-47 0 -93 35 -93 84v592c0 17 16 30 33 30s33 -13 33 -30v-592c0 -14 13 -24 27 -24h313c16 0 33 -12 33 -30
s-17 -30 -33 -30z" />
    <glyph glyph-name="Lcommaaccent" unicode="&#x13b;" horiz-adv-x="539" 
d="M285 -182c-13 0 -25 11 -25 25c0 40 69 16 69 56c0 24 -32 16 -32 43c0 14 11 25 25 25c31 0 57 -39 57 -68c0 -48 -49 -81 -94 -81zM496 0h-313c-47 0 -93 35 -93 84v592c0 17 16 30 33 30s33 -13 33 -30v-592c0 -14 13 -24 27 -24h313c16 0 33 -12 33 -30
s-17 -30 -33 -30z" />
    <glyph glyph-name="Lcaron" unicode="&#x13d;" horiz-adv-x="539" 
d="M248 552c-14 0 -25 11 -25 25c0 36 62 21 62 57c0 29 -37 15 -37 46c0 13 11 25 25 25c34 0 62 -38 62 -70c0 -47 -40 -73 -81 -82c-2 -1 -4 -1 -6 -1zM496 0h-313c-47 0 -93 35 -93 84v592c0 17 16 30 33 30s33 -13 33 -30v-592c0 -14 13 -24 27 -24h313
c16 0 33 -12 33 -30s-17 -30 -33 -30z" />
    <glyph glyph-name="Ldot" unicode="&#x13f;" horiz-adv-x="539" 
d="M362 412c0 -22 -19 -41 -41 -41s-41 19 -41 41c0 23 19 41 41 41s41 -18 41 -41zM496 0h-313c-47 0 -93 35 -93 84v592c0 17 16 30 33 30s33 -13 33 -30v-592c0 -14 13 -24 27 -24h313c16 0 33 -12 33 -30s-17 -30 -33 -30z" />
    <glyph glyph-name="Nacute" unicode="&#x143;" horiz-adv-x="681" 
d="M309 739c-14 0 -25 11 -25 25c0 7 3 13 8 18l100 92c5 5 11 7 17 7c14 0 25 -11 25 -25c0 -7 -3 -14 -8 -18l-100 -93c-5 -4 -11 -6 -17 -6zM163 646c-6 0 -7 -6 -7 -10v-609c0 -18 -16 -30 -33 -30s-33 12 -33 30v601c0 45 26 78 73 78c31 0 56 -15 69 -44l278 -600
c2 -3 4 -5 8 -5c6 0 7 5 7 10v609c0 17 16 30 33 30s33 -13 33 -30v-602c0 -44 -26 -77 -73 -77c-30 0 -56 16 -69 44l-278 599c-2 3 -4 6 -8 6z" />
    <glyph glyph-name="Ncommaaccent" unicode="&#x145;" horiz-adv-x="681" 
d="M305 -182c-14 0 -25 11 -25 25c0 40 69 16 69 56c0 24 -32 16 -32 43c0 14 11 25 25 25c30 0 57 -39 57 -68c0 -48 -49 -81 -94 -81zM163 646c-6 0 -7 -6 -7 -10v-609c0 -18 -16 -30 -33 -30s-33 12 -33 30v601c0 45 26 78 73 78c31 0 56 -15 69 -44l278 -600
c2 -3 4 -5 8 -5c6 0 7 5 7 10v609c0 17 16 30 33 30s33 -13 33 -30v-602c0 -44 -26 -77 -73 -77c-30 0 -56 16 -69 44l-278 599c-2 3 -4 6 -8 6z" />
    <glyph glyph-name="Ncaron" unicode="&#x147;" horiz-adv-x="681" 
d="M163 646c4 0 6 -3 8 -6l278 -599c13 -28 39 -44 69 -44c47 0 73 33 73 77v602c0 17 -16 30 -33 30s-33 -13 -33 -30v-609c0 -5 -1 -10 -7 -10c-4 0 -6 2 -8 5l-278 600c-13 29 -38 44 -69 44c-47 0 -73 -33 -73 -78v-601c0 -18 16 -30 33 -30s33 12 33 30v609
c0 4 1 10 7 10zM248 877c6 0 13 -2 17 -7l72 -71c1 -1 3 -1 4 -1s3 0 4 1l72 71c5 5 11 7 17 7c7 0 13 -2 18 -7s7 -11 7 -18c0 -6 -2 -12 -7 -17l-72 -71c-11 -11 -25 -16 -39 -16s-28 5 -39 16l-72 71c-5 5 -7 11 -7 17c0 7 2 13 7 18s11 7 18 7z" />
    <glyph glyph-name="Omacron" unicode="&#x14c;" horiz-adv-x="646" 
d="M423 761h-200c-13 0 -25 11 -25 25s12 25 25 25h200c13 0 25 -11 25 -25s-12 -25 -25 -25zM323 649c-100 0 -168 -43 -179 -145c-6 -51 -8 -102 -8 -153s2 -102 8 -153c11 -102 79 -145 179 -145s168 43 180 145c5 51 7 102 7 153s-2 102 -7 153
c-12 102 -80 145 -180 145zM323 -7c-130 0 -229 64 -245 199c-6 53 -8 106 -8 159s2 106 8 159c16 135 115 199 245 199s229 -64 245 -199c6 -53 8 -106 8 -159s-2 -106 -8 -159c-16 -135 -115 -199 -245 -199z" />
    <glyph glyph-name="Obreve" unicode="&#x14e;" horiz-adv-x="646" 
d="M323 738c-57 0 -104 28 -124 83c0 3 -1 5 -1 8c0 14 11 25 25 25c35 0 19 -66 100 -66s65 66 100 66c14 0 25 -11 25 -25c0 -3 -1 -5 -1 -8c-20 -55 -67 -83 -124 -83zM323 649c-100 0 -168 -43 -179 -145c-6 -51 -8 -102 -8 -153s2 -102 8 -153
c11 -102 79 -145 179 -145s168 43 180 145c5 51 7 102 7 153s-2 102 -7 153c-12 102 -80 145 -180 145zM323 -7c-130 0 -229 64 -245 199c-6 53 -8 106 -8 159s2 106 8 159c16 135 115 199 245 199s229 -64 245 -199c6 -53 8 -106 8 -159s-2 -106 -8 -159
c-16 -135 -115 -199 -245 -199z" />
    <glyph glyph-name="Ohungarumlaut" unicode="&#x150;" horiz-adv-x="646" 
d="M323 -7c130 0 229 64 245 199c6 53 8 106 8 159s-2 106 -8 159c-16 135 -115 199 -245 199s-229 -64 -245 -199c-6 -53 -8 -106 -8 -159s2 -106 8 -159c16 -135 115 -199 245 -199zM323 649c100 0 168 -43 180 -145c5 -51 7 -102 7 -153s-2 -102 -7 -153
c-12 -102 -80 -145 -180 -145s-168 43 -179 145c-6 51 -8 102 -8 153s2 102 8 153c11 102 79 145 179 145zM247 739c-14 0 -25 11 -25 25c0 7 3 13 8 18l100 93c5 4 11 6 17 6c14 0 25 -11 25 -25c0 -7 -3 -13 -8 -18l-100 -93c-5 -4 -11 -6 -17 -6zM377 739
c-14 0 -25 11 -25 25c0 7 3 13 8 18l100 93c5 4 11 6 17 6c14 0 25 -11 25 -25c0 -7 -3 -13 -8 -18l-100 -93c-5 -4 -11 -6 -17 -6z" />
    <glyph glyph-name="Racute" unicode="&#x154;" horiz-adv-x="602" 
d="M253 739c-13 0 -25 11 -25 25c0 7 3 13 8 18l101 93c4 4 10 6 17 6c13 0 25 -11 25 -25c0 -7 -3 -13 -8 -18l-101 -93c-4 -4 -10 -6 -17 -6zM183 642h159c84 0 136 -39 136 -124c0 -86 -52 -125 -136 -125h-186v225c0 14 13 24 27 24zM342 702h-159
c-47 0 -93 -35 -93 -84v-595c0 -18 16 -30 33 -30s33 12 33 30v310h55c32 0 52 -19 70 -43l215 -284c7 -9 17 -13 28 -13c17 0 33 13 33 30c0 6 -2 12 -6 17l-198 262c-10 13 -21 22 -34 31h23c117 0 202 62 202 185c0 120 -86 184 -202 184z" />
    <glyph glyph-name="uni0156" unicode="&#x156;" horiz-adv-x="602" 
d="M183 702h159c116 0 202 -64 202 -184c0 -123 -85 -185 -202 -185h-23c13 -9 24 -18 34 -31l198 -262c4 -5 6 -11 6 -17c0 -17 -16 -30 -33 -30c-11 0 -21 4 -28 13l-215 284c-18 24 -38 43 -70 43h-55v-310c0 -18 -16 -30 -33 -30s-33 12 -33 30v595c0 49 46 84 93 84z
M342 642h-159c-14 0 -27 -10 -27 -24v-225h186c84 0 136 39 136 125c0 85 -52 124 -136 124zM290 -182c46 0 94 33 94 81c0 28 -26 69 -57 69c-14 0 -25 -12 -25 -25c0 -28 32 -20 32 -44c0 -40 -69 -16 -69 -56c0 -14 12 -25 25 -25z" />
    <glyph glyph-name="Rcaron" unicode="&#x158;" horiz-adv-x="603" 
d="M183 702h159c116 0 202 -64 202 -184c0 -123 -85 -185 -202 -185h-22c13 -9 24 -18 34 -31l198 -262c4 -4 6 -10 6 -16c0 -18 -17 -31 -34 -31c-11 0 -21 4 -28 13l-215 284c-18 24 -38 43 -70 43h-55v-310c0 -18 -16 -30 -33 -30s-33 12 -33 30v595c0 49 46 84 93 84z
M342 642h-159c-14 0 -27 -10 -27 -24v-225h186c84 0 136 39 136 125c0 85 -52 124 -136 124zM194 878c6 0 12 -3 17 -8l72 -71c1 -1 3 -1 4 -1s3 0 4 1l72 71c5 5 11 8 17 8c7 0 13 -3 18 -8s7 -11 7 -17c0 -7 -2 -13 -7 -18l-72 -71c-11 -11 -25 -16 -39 -16s-28 5 -39 16
l-72 71c-5 5 -7 11 -7 18c0 6 2 12 7 17s11 8 18 8z" />
    <glyph glyph-name="Sacute" unicode="&#x15a;" horiz-adv-x="543" 
d="M260 739c-13 0 -25 11 -25 25c0 7 3 13 8 18l101 93c4 4 10 6 17 6c13 0 25 -11 25 -25c0 -7 -3 -13 -9 -18l-100 -93c-4 -4 -11 -6 -17 -6zM265 -7c-58 0 -135 8 -189 32c-12 6 -21 15 -21 30c0 18 16 30 33 30c4 0 8 0 12 -2c60 -19 100 -30 165 -30
c86 0 162 49 162 142c0 90 -87 117 -160 136c-106 27 -208 71 -208 196c0 128 101 182 216 182c47 0 117 -6 161 -26c12 -5 21 -15 21 -29c0 -18 -16 -31 -33 -31c-4 0 -8 1 -12 2c-45 15 -89 24 -137 24c-82 0 -150 -30 -150 -122c0 -89 89 -114 160 -132
c108 -28 208 -73 208 -200c0 -129 -108 -202 -228 -202z" />
    <glyph glyph-name="Scircumflex" unicode="&#x15c;" horiz-adv-x="543" 
d="M179 740c-7 0 -13 3 -18 8c-5 4 -7 11 -7 17c0 7 2 13 7 18l72 71c11 11 25 16 39 16s28 -5 39 -16l72 -71c5 -5 7 -11 7 -18c0 -6 -2 -13 -7 -17c-5 -5 -11 -8 -18 -8c-6 0 -13 3 -17 7l-72 71c-1 1 -3 2 -4 2s-3 -1 -4 -2l-72 -71c-5 -4 -11 -7 -17 -7zM265 -7
c-58 0 -135 8 -189 32c-12 6 -21 15 -21 30c0 18 16 30 33 30c4 0 8 0 12 -2c60 -19 100 -30 165 -30c86 0 162 49 162 142c0 90 -87 117 -160 136c-106 27 -208 71 -208 196c0 128 101 182 216 182c47 0 117 -6 161 -26c12 -5 21 -15 21 -29c0 -18 -16 -31 -33 -31
c-4 0 -8 1 -12 2c-45 15 -89 24 -137 24c-82 0 -150 -30 -150 -122c0 -89 89 -114 160 -132c108 -28 208 -73 208 -200c0 -129 -108 -202 -228 -202z" />
    <glyph glyph-name="Scedilla" unicode="&#x15e;" horiz-adv-x="543" 
d="M125 527c0 -88 89 -115 160 -132c108 -28 208 -73 208 -200c0 -121 -95 -194 -209 -201l-11 -31c45 0 88 -17 88 -70c0 -48 -43 -75 -88 -75c-22 0 -78 1 -78 32c0 13 12 25 25 25c15 0 34 -7 53 -7c16 0 38 5 38 25c0 25 -36 26 -53 26c-16 0 -38 0 -38 22
c0 12 13 41 18 52c-54 2 -112 11 -162 32c-12 5 -21 16 -21 30c0 18 16 30 33 30c4 0 8 0 12 -2c62 -19 97 -30 165 -30c86 0 162 49 162 142c0 90 -87 117 -160 136c-106 27 -208 71 -208 196c0 128 101 182 216 182c51 0 113 -6 161 -26c12 -5 21 -15 21 -29
c0 -18 -16 -31 -33 -31c-4 0 -8 1 -12 2c-45 15 -89 24 -137 24c-82 0 -150 -30 -150 -122z" />
    <glyph glyph-name="uni0218" unicode="&#x218;" horiz-adv-x="543" 
d="M241 -182c-13 0 -25 11 -25 25c0 40 69 16 69 56c0 24 -32 16 -32 44c0 13 11 25 25 25c31 0 57 -41 57 -69c0 -48 -48 -81 -94 -81zM265 -7c-58 0 -135 8 -189 32c-12 6 -21 15 -21 30c0 18 16 30 33 30c4 0 8 0 12 -2c60 -19 100 -30 165 -30c86 0 162 49 162 142
c0 90 -87 117 -160 136c-106 27 -208 71 -208 196c0 128 101 182 216 182c47 0 117 -6 161 -26c12 -5 21 -15 21 -29c0 -18 -16 -31 -33 -31c-4 0 -8 1 -12 2c-45 15 -89 24 -137 24c-82 0 -150 -30 -150 -122c0 -89 89 -114 160 -132c108 -28 208 -73 208 -200
c0 -129 -108 -202 -228 -202z" />
    <glyph glyph-name="Tcommaaccent" unicode="&#x162;" horiz-adv-x="526" 
d="M483 702c17 0 33 -12 33 -30s-16 -30 -33 -30h-187v-619c0 -18 -14 -43 -20 -60c46 0 88 -17 88 -70c0 -48 -43 -75 -87 -75c-22 0 -78 1 -78 32c0 13 11 25 25 25s33 -7 53 -7c16 0 37 5 37 25c0 25 -35 26 -52 26c-16 0 -38 0 -38 22c0 13 15 45 20 58
c-9 5 -14 14 -14 24v619h-187c-17 0 -33 12 -33 30s16 30 33 30h440z" />
    <glyph glyph-name="Tcaron" unicode="&#x164;" horiz-adv-x="526" 
d="M483 702c17 0 33 -12 33 -30s-16 -30 -33 -30h-187v-612c0 -18 -16 -30 -33 -30s-33 12 -33 30v612h-187c-17 0 -33 12 -33 30s16 30 33 30h440zM170 878c6 0 12 -3 17 -8l72 -71c1 -1 3 -1 4 -1s3 0 4 1l72 71c5 5 11 8 17 8c7 0 13 -3 18 -8s7 -11 7 -17
c0 -7 -2 -13 -7 -18l-72 -71c-11 -11 -25 -16 -39 -16s-28 5 -39 16l-72 71c-5 5 -7 11 -7 18c0 6 2 12 7 17s11 8 18 8z" />
    <glyph glyph-name="uni021A" unicode="&#x21a;" horiz-adv-x="526" 
d="M483 702c17 0 33 -12 33 -30s-16 -30 -33 -30h-187v-612c0 -18 -16 -30 -33 -30s-33 12 -33 30v612h-187c-17 0 -33 12 -33 30s16 30 33 30h440zM229 -182c45 0 93 33 93 81c0 28 -26 69 -57 69c-13 0 -25 -12 -25 -25c0 -28 32 -20 32 -44c0 -40 -68 -16 -68 -56
c0 -14 11 -25 25 -25z" />
    <glyph glyph-name="Utilde" unicode="&#x168;" horiz-adv-x="656" 
d="M386 748c-52 0 -88 59 -116 59c-35 0 -31 -55 -63 -55c-14 0 -25 11 -25 25c0 4 1 7 3 11c17 36 42 69 85 69c52 0 87 -59 115 -59c36 0 32 55 64 55c14 0 25 -11 25 -25c0 -4 -1 -7 -3 -11c-17 -36 -42 -69 -85 -69zM328 -7c129 0 229 65 244 199c3 26 4 51 4 77v406
c0 18 -16 31 -33 31s-33 -13 -33 -31v-392c0 -28 -1 -56 -4 -85c-11 -101 -79 -145 -178 -145s-167 44 -178 145c-4 31 -4 62 -4 92v385c0 18 -16 31 -33 31s-33 -13 -33 -31v-392c0 -30 1 -60 4 -91c15 -134 115 -199 244 -199z" />
    <glyph glyph-name="Umacron" unicode="&#x16a;" horiz-adv-x="656" 
d="M428 761h-200c-13 0 -25 11 -25 25s12 25 25 25h200c13 0 25 -11 25 -25s-12 -25 -25 -25zM328 -7c129 0 229 64 244 199c3 26 4 51 4 77v406c0 18 -16 31 -33 31s-33 -13 -33 -31v-392c0 -28 -1 -56 -4 -85c-11 -101 -79 -145 -178 -145s-167 44 -178 145
c-4 31 -4 62 -4 92v385c0 18 -16 31 -33 31s-33 -13 -33 -31v-392c0 -30 1 -60 4 -91c15 -134 115 -199 244 -199z" />
    <glyph glyph-name="Ubreve" unicode="&#x16c;" horiz-adv-x="656" 
d="M328 738c-57 0 -104 28 -124 83c-1 3 -1 5 -1 8c0 14 11 25 25 25c35 0 19 -66 100 -66s65 66 100 66c14 0 25 -11 25 -25c0 -3 -1 -5 -2 -8c-19 -55 -66 -83 -123 -83zM328 -7c129 0 229 65 244 199c3 26 4 51 4 77v406c0 18 -16 31 -33 31s-33 -13 -33 -31v-392
c0 -28 -1 -56 -4 -85c-11 -101 -79 -145 -178 -145s-167 44 -178 145c-4 31 -4 62 -4 92v385c0 18 -16 31 -33 31s-33 -13 -33 -31v-392c0 -30 1 -60 4 -91c15 -134 115 -199 244 -199z" />
    <glyph glyph-name="Uring" unicode="&#x16e;" horiz-adv-x="656" 
d="M328 871c-25 0 -47 -20 -47 -45c0 -26 22 -46 47 -46s47 20 47 46c0 25 -22 45 -47 45zM328 742c-47 0 -87 36 -87 84c0 47 40 84 87 84s87 -37 87 -84c0 -48 -40 -84 -87 -84zM328 -7c129 0 229 64 244 199c3 26 4 51 4 77v406c0 18 -16 31 -33 31s-33 -13 -33 -31v-392
c0 -28 -1 -56 -4 -85c-11 -101 -79 -145 -178 -145s-167 44 -178 145c-4 31 -4 62 -4 92v385c0 18 -16 31 -33 31s-33 -13 -33 -31v-392c0 -30 1 -60 4 -91c15 -134 115 -199 244 -199z" />
    <glyph glyph-name="Uhungarumlaut" unicode="&#x170;" horiz-adv-x="656" 
d="M328 -7c-129 0 -229 65 -244 199c-3 31 -4 61 -4 91v392c0 18 16 31 33 31s33 -13 33 -31v-385c0 -30 0 -61 4 -92c11 -101 79 -145 178 -145s167 44 178 145c3 29 4 57 4 85v392c0 18 16 31 33 31s33 -13 33 -31v-406c0 -26 -1 -51 -4 -77c-15 -134 -115 -199 -244 -199
zM261 739c-14 0 -25 11 -25 25c0 7 3 13 8 18l100 93c5 4 11 6 17 6c14 0 25 -11 25 -25c0 -7 -3 -13 -8 -18l-100 -93c-5 -4 -11 -6 -17 -6zM390 739c-14 0 -25 11 -25 25c0 7 3 13 8 18l100 93c5 4 11 6 17 6c14 0 25 -11 25 -25c0 -7 -3 -13 -8 -18l-100 -93
c-5 -4 -11 -6 -17 -6z" />
    <glyph glyph-name="Uogonek" unicode="&#x172;" horiz-adv-x="656" 
d="M576 675v-409c0 -25 -2 -49 -4 -74c-13 -113 -87 -182 -199 -196c-25 -21 -76 -70 -76 -106c0 -16 10 -22 25 -22c27 0 46 15 58 15c14 0 25 -11 25 -25c0 -30 -61 -40 -83 -40c-43 0 -76 29 -76 73c0 39 33 77 60 103c-121 7 -208 74 -222 198c-3 31 -4 61 -4 91v392
c0 18 16 31 33 31s33 -13 33 -31v-385c0 -30 0 -61 4 -92c12 -101 79 -145 178 -145s166 44 178 145c3 28 4 57 4 85v392c0 18 16 31 33 31s33 -13 33 -31z" />
    <glyph glyph-name="Wgrave" unicode="&#x1e80;" horiz-adv-x="842" 
d="M468 739c-6 0 -12 2 -17 6l-100 93c-5 5 -8 11 -8 18c0 14 11 25 25 25c6 0 12 -2 17 -6l100 -93c5 -5 8 -11 8 -18c0 -14 -11 -25 -25 -25zM789 706c-14 0 -29 -10 -32 -25l-131 -617c-1 -3 -3 -7 -7 -7s-6 3 -7 7l-119 582c-8 35 -37 56 -72 56s-64 -21 -71 -56
l-120 -582c-1 -4 -3 -7 -7 -7s-5 4 -6 7l-132 617c-3 15 -17 25 -32 25c-17 0 -33 -13 -33 -30c0 -2 0 -4 1 -6l131 -618c7 -34 37 -55 71 -55c35 0 65 20 72 55l119 583c1 3 3 7 7 7s6 -4 7 -7l120 -583c7 -35 36 -55 71 -55s64 21 71 55l132 618v6c0 17 -16 30 -33 30z
" />
    <glyph glyph-name="Wacute" unicode="&#x1e82;" horiz-adv-x="842" 
d="M53 706c-17 0 -33 -13 -33 -30c0 -2 0 -4 1 -6l131 -618c7 -34 37 -55 71 -55c35 0 65 20 72 55l119 583c1 3 3 7 7 7s6 -4 7 -7l120 -583c7 -35 36 -55 71 -55s64 21 71 55l132 618v6c0 17 -16 30 -33 30c-14 0 -29 -10 -32 -25l-131 -617c-1 -3 -3 -7 -7 -7s-6 3 -7 7
l-119 582c-8 35 -37 56 -72 56s-64 -21 -71 -56l-120 -582c-1 -4 -3 -7 -7 -7s-5 4 -6 7l-132 617c-3 15 -17 25 -32 25zM374 739c-13 0 -25 11 -25 25c0 7 3 13 8 18l101 93c4 4 10 6 17 6c13 0 25 -11 25 -25c0 -7 -3 -13 -8 -18l-101 -93c-4 -4 -10 -6 -17 -6z" />
    <glyph glyph-name="Wcircumflex" unicode="&#x174;" horiz-adv-x="842" 
d="M328 741c-7 0 -13 3 -18 8c-5 4 -7 11 -7 17c0 7 2 13 7 18l72 71c11 11 25 16 39 16s28 -5 39 -16l72 -71c5 -5 7 -11 7 -18c0 -6 -2 -13 -7 -17c-5 -5 -11 -8 -18 -8c-6 0 -13 3 -17 7l-72 71c-1 1 -3 2 -4 2s-3 -1 -4 -2l-72 -71c-5 -4 -11 -7 -17 -7zM53 706
c15 0 29 -10 32 -25l132 -617c1 -3 2 -7 6 -7s6 3 7 7l120 582c7 35 36 56 71 56s64 -21 72 -56l119 -582c1 -4 3 -7 7 -7s6 4 7 7l131 617c3 15 18 25 32 25c17 0 33 -13 33 -30v-6l-132 -618c-7 -34 -36 -55 -71 -55s-64 20 -71 55l-120 583c-1 3 -3 7 -7 7s-6 -4 -7 -7
l-119 -583c-7 -35 -37 -55 -72 -55c-34 0 -64 21 -71 55l-131 618c-1 2 -1 4 -1 6c0 17 16 30 33 30z" />
    <glyph glyph-name="Wdieresis" unicode="&#x1e84;" horiz-adv-x="842" 
d="M539 791c0 -22 -18 -41 -41 -41c-22 0 -41 19 -41 41c0 23 19 41 41 41c23 0 41 -18 41 -41zM385 791c0 -22 -18 -41 -41 -41c-22 0 -41 19 -41 41c0 23 19 41 41 41c23 0 41 -18 41 -41zM53 706c15 0 29 -10 32 -25l132 -617c1 -3 2 -7 6 -7s6 3 7 7l120 582
c7 35 36 56 71 56s64 -21 72 -56l119 -582c1 -4 3 -7 7 -7s6 4 7 7l131 617c3 15 18 25 32 25c17 0 33 -13 33 -30v-6l-132 -618c-7 -34 -36 -55 -71 -55s-64 20 -71 55l-120 583c-1 3 -3 7 -7 7s-6 -4 -7 -7l-119 -583c-7 -35 -37 -55 -72 -55c-34 0 -64 21 -71 55
l-131 618c-1 2 -1 4 -1 6c0 17 16 30 33 30z" />
    <glyph glyph-name="Ygrave" unicode="&#x1ef2;" horiz-adv-x="587" 
d="M313 739c-6 0 -12 2 -17 6l-100 93c-5 5 -8 11 -8 18c0 14 11 25 25 25c6 0 12 -2 17 -6l100 -93c5 -5 8 -11 8 -18c0 -14 -11 -25 -25 -25zM539 705c-11 0 -23 -5 -29 -14l-164 -251c-12 -18 -28 -43 -53 -43c-24 0 -40 25 -52 43l-164 251c-6 9 -17 14 -29 14
c-17 0 -33 -13 -33 -30c0 -5 2 -11 4 -15l164 -251c19 -28 44 -57 77 -67v-315c0 -18 17 -30 33 -30c17 0 33 12 33 30v315c34 10 59 39 78 67l164 251c3 4 4 10 4 15c0 17 -16 30 -33 30z" />
    <glyph glyph-name="Ycircumflex" unicode="&#x176;" horiz-adv-x="587" 
d="M201 741c-7 0 -13 3 -18 8c-5 4 -7 11 -7 17c0 7 2 13 7 18l72 71c11 11 25 16 39 16s28 -5 39 -16l72 -71c5 -5 7 -11 7 -18c0 -6 -2 -13 -7 -17c-5 -5 -11 -8 -18 -8c-6 0 -13 3 -17 7l-72 71c-1 1 -3 2 -4 2s-3 -1 -4 -2l-72 -71c-5 -4 -11 -7 -17 -7zM48 705
c12 0 23 -5 29 -14l164 -251c12 -18 28 -43 53 -43c24 0 40 25 52 43l164 251c6 9 18 14 29 14c17 0 33 -13 33 -30c0 -5 -1 -11 -4 -15l-164 -251c-19 -28 -44 -57 -77 -67v-315c0 -18 -17 -30 -33 -30c-17 0 -33 12 -33 30v315c-33 10 -59 39 -77 67l-165 251
c-2 4 -4 10 -4 15c0 17 16 30 33 30z" />
    <glyph glyph-name="Ymacron" unicode="&#x232;" horiz-adv-x="587" 
d="M393 761h-199c-14 0 -25 11 -25 25s11 25 25 25h199c14 0 25 -11 25 -25s-11 -25 -25 -25zM48 705c12 0 23 -5 29 -14l164 -251c12 -18 28 -43 53 -43c24 0 40 25 52 43l164 251c6 9 18 14 29 14c17 0 33 -13 33 -30c0 -5 -1 -11 -4 -15l-164 -251
c-19 -28 -44 -57 -77 -67v-315c0 -18 -17 -30 -33 -30c-17 0 -33 12 -33 30v315c-33 10 -59 39 -77 67l-165 251c-2 4 -4 10 -4 15c0 17 16 30 33 30z" />
    <glyph glyph-name="Zacute" unicode="&#x179;" horiz-adv-x="572" 
d="M264 739c-14 0 -25 11 -25 25c0 7 3 13 8 18l100 93c5 4 11 6 17 6c14 0 25 -11 25 -25c0 -7 -3 -13 -8 -18l-100 -93c-5 -4 -11 -6 -17 -6zM499 0c18 0 33 13 33 30c0 16 -15 30 -33 30h-385c-4 0 -6 1 -7 3c0 1 -1 2 -1 3s1 3 3 6l402 523c10 13 15 27 15 42
c0 10 -3 20 -8 30c-13 22 -38 35 -67 35h-356c-19 0 -33 -13 -33 -30c0 -16 14 -30 33 -30h356c5 0 6 -1 7 -3c1 -1 1 -2 1 -3c0 -2 -1 -4 -2 -6l-402 -523c-10 -13 -15 -27 -15 -42c0 -11 3 -21 8 -31c13 -21 37 -34 65 -34h386z" />
    <glyph glyph-name="Zdotaccent" unicode="&#x17b;" horiz-adv-x="572" 
d="M499 0h-386c-28 0 -52 13 -65 34c-5 10 -8 20 -8 31c0 15 5 29 15 42l402 523c1 2 2 4 2 6c0 1 0 2 -1 3c-1 2 -2 3 -7 3h-356c-19 0 -33 14 -33 30c0 17 14 30 33 30h356c29 0 54 -13 67 -35c5 -10 8 -20 8 -30c0 -15 -5 -29 -15 -42l-402 -523c-2 -3 -3 -5 -3 -6
s1 -2 1 -3c1 -2 3 -3 7 -3h385c18 0 33 -14 33 -30c0 -17 -15 -30 -33 -30zM328 791c0 -22 -19 -41 -41 -41c-23 0 -41 19 -41 41c0 23 18 41 41 41c22 0 41 -18 41 -41z" />
    <glyph glyph-name="_193" 
 />
    <glyph glyph-name="_194" 
 />
    <glyph glyph-name="amacron" unicode="&#x101;" horiz-adv-x="540" 
d="M366 586h-199c-14 0 -25 11 -25 25s11 25 25 25h199c14 0 25 -11 25 -25s-11 -25 -25 -25zM268 51c-81 0 -149 28 -149 119c0 92 65 118 149 118c48 0 96 -6 143 -14v-46c0 -107 -21 -177 -143 -177zM268 533c-52 0 -109 -4 -158 -22c-13 -4 -23 -15 -23 -29
c0 -18 16 -30 32 -30c3 0 6 1 10 2c47 12 90 21 139 21c101 0 139 -49 143 -145c-47 9 -95 17 -143 17c-116 0 -213 -48 -213 -177c0 -125 97 -177 213 -177c56 0 112 14 154 54c49 48 53 116 53 181v70c0 65 -4 133 -53 181c-42 40 -98 54 -154 54z" />
    <glyph glyph-name="abreve" unicode="&#x103;" horiz-adv-x="540" 
d="M275 563c-57 0 -104 28 -123 83c-1 3 -2 6 -2 9c0 13 11 25 25 25c35 0 19 -67 100 -67s65 67 100 67c14 0 25 -12 25 -25c0 -3 0 -6 -1 -9c-20 -54 -67 -83 -124 -83zM268 51c-81 0 -149 28 -149 119c0 92 65 118 149 118c48 0 96 -6 143 -14v-46
c0 -107 -21 -177 -143 -177zM268 533c-52 0 -109 -4 -158 -22c-13 -4 -23 -15 -23 -29c0 -18 16 -30 32 -30c3 0 6 1 10 2c47 12 90 21 139 21c101 0 139 -49 143 -145c-47 9 -95 17 -143 17c-116 0 -213 -48 -213 -177c0 -125 97 -177 213 -177c56 0 112 14 154 54
c49 48 53 116 53 181v70c0 65 -4 133 -53 181c-42 40 -98 54 -154 54z" />
    <glyph glyph-name="aogonek" unicode="&#x105;" horiz-adv-x="540" 
d="M475 221c0 -37 -3 -73 -13 -109c-13 -44 -37 -81 -72 -111c-27 -23 -68 -64 -68 -103c0 -20 11 -30 31 -30c28 0 40 15 55 15c14 0 25 -11 25 -25c0 -30 -61 -40 -84 -40c-48 0 -77 34 -77 81c0 38 22 72 47 98c-17 -3 -34 -4 -51 -4c-116 0 -213 52 -213 177
c0 128 96 177 213 177c48 0 96 -8 143 -17c-4 96 -42 145 -143 145c-50 0 -92 -9 -139 -21c-4 -1 -7 -2 -10 -2c-16 0 -32 12 -32 30c0 14 10 25 23 29c50 17 105 22 158 22c56 0 112 -14 154 -54c47 -46 53 -111 53 -173v-85zM119 170c0 -91 68 -119 149 -119
c122 0 143 70 143 177v46c-47 8 -95 14 -143 14c-84 0 -149 -26 -149 -118z" />
    <glyph glyph-name="cacute" unicode="&#x107;" horiz-adv-x="529" 
d="M242 564c-14 0 -25 11 -25 25c0 7 3 14 8 18l100 93c5 4 11 6 17 6c14 0 25 -11 25 -25c0 -7 -3 -13 -8 -18l-100 -93c-5 -4 -11 -6 -17 -6zM278 51c-144 0 -149 100 -149 212s5 212 149 212c52 0 97 -20 144 -41c5 -2 10 -3 15 -3c17 0 32 12 32 30c0 12 -7 21 -17 27
c-47 27 -120 45 -174 45c-109 0 -192 -54 -208 -165c-5 -35 -5 -70 -5 -105s0 -70 5 -105c16 -111 99 -165 208 -165c54 0 126 18 174 45c10 6 17 15 17 27c0 18 -15 30 -32 30c-5 0 -10 -1 -15 -4c-47 -20 -92 -40 -144 -40z" />
    <glyph glyph-name="ccircumflex" unicode="&#x109;" horiz-adv-x="529" 
d="M194 566c-7 0 -13 2 -18 7s-7 11 -7 18c0 6 2 13 7 18l72 71c11 10 25 16 39 16s28 -6 39 -16l72 -71c5 -5 7 -12 7 -18c0 -7 -2 -13 -7 -18s-11 -7 -18 -7c-6 0 -12 2 -17 7l-72 71c-1 1 -3 2 -4 2s-3 -1 -4 -2l-72 -71c-5 -5 -11 -7 -17 -7zM278 51
c-144 0 -149 100 -149 212s5 212 149 212c52 0 97 -20 144 -41c5 -2 10 -3 15 -3c17 0 32 12 32 30c0 12 -7 21 -17 27c-47 27 -120 45 -174 45c-109 0 -192 -54 -208 -165c-5 -35 -5 -70 -5 -105s0 -70 5 -105c16 -111 99 -165 208 -165c54 0 126 18 174 45
c10 6 17 15 17 27c0 18 -15 30 -32 30c-5 0 -10 -1 -15 -4c-47 -20 -92 -40 -144 -40z" />
    <glyph glyph-name="cdotaccent" unicode="&#x10b;" horiz-adv-x="529" 
d="M325 617c0 -23 -18 -41 -41 -41c-22 0 -41 18 -41 41c0 22 19 41 41 41c23 0 41 -19 41 -41zM278 51c-144 0 -149 100 -149 212s5 212 149 212c52 0 97 -20 144 -41c5 -2 10 -3 15 -3c17 0 32 12 32 30c0 12 -7 21 -17 27c-47 27 -120 45 -174 45
c-109 0 -192 -54 -208 -165c-5 -35 -5 -70 -5 -105s0 -70 5 -105c16 -111 99 -165 208 -165c54 0 126 18 174 45c10 6 17 15 17 27c0 18 -15 30 -32 30c-5 0 -10 -1 -15 -4c-47 -20 -92 -40 -144 -40z" />
    <glyph glyph-name="ccaron" unicode="&#x10d;" horiz-adv-x="529" 
d="M278 51c52 0 97 20 144 40c5 3 10 4 15 4c17 0 32 -12 32 -30c0 -12 -7 -21 -17 -27c-48 -27 -120 -45 -174 -45c-109 0 -192 54 -208 165c-5 35 -5 70 -5 105s0 70 5 105c16 111 99 165 208 165c54 0 127 -18 174 -45c10 -6 17 -15 17 -27c0 -18 -15 -30 -32 -30
c-5 0 -10 1 -15 3c-47 21 -92 41 -144 41c-144 0 -149 -100 -149 -212s5 -212 149 -212zM204 703c6 0 12 -3 17 -8l72 -71c1 -1 3 -1 4 -1s3 0 4 1l72 71c5 5 11 8 17 8c7 0 13 -3 18 -8s7 -11 7 -17c0 -7 -2 -13 -7 -18l-72 -71c-11 -11 -25 -16 -39 -16s-28 5 -39 16
l-72 71c-5 5 -7 11 -7 18c0 6 2 12 7 17s11 8 18 8z" />
    <glyph glyph-name="dcaron" unicode="&#x10f;" horiz-adv-x="631" 
d="M65 263c0 35 0 70 5 105c16 111 100 165 208 165c54 0 99 -13 148 -37v212c0 17 16 29 32 29s32 -12 32 -29v-456c0 -31 0 -63 -5 -94c-16 -111 -100 -165 -207 -165c-108 0 -192 54 -208 165c-5 35 -5 70 -5 105zM129 263c0 -113 5 -212 149 -212c143 0 148 99 148 211
v175c-45 22 -98 38 -148 38c-144 0 -149 -100 -149 -212zM549 581c4 0 7 1 10 2c35 15 67 43 67 83c0 37 -30 71 -68 71c-13 0 -27 -9 -27 -23c0 -40 45 -15 45 -48s-52 -29 -52 -60c0 -14 12 -25 25 -25z" />
    <glyph glyph-name="emacron" unicode="&#x113;" horiz-adv-x="552" 
d="M381 586h-199c-14 0 -25 11 -25 25s11 25 25 25h199c14 0 25 -11 25 -25s-11 -25 -25 -25zM278 475c79 0 145 -43 145 -128c0 -27 -11 -46 -40 -46h-254c3 103 27 174 149 174zM278 51c-133 0 -148 83 -149 192h254c63 0 104 42 104 104c0 7 -1 14 -2 21
c-15 111 -100 165 -207 165c-108 0 -192 -54 -208 -165c-5 -35 -5 -70 -5 -105s0 -70 5 -105c16 -111 100 -165 208 -165c55 0 131 18 179 45c10 6 17 15 17 27c0 18 -15 30 -32 30c-5 0 -10 -1 -15 -4c-48 -21 -96 -40 -149 -40z" />
    <glyph glyph-name="ebreve" unicode="&#x115;" horiz-adv-x="552" 
d="M282 563c-57 0 -105 28 -124 83c-1 3 -1 6 -1 9c0 13 11 25 25 25c34 0 18 -67 100 -67c81 0 65 67 100 67c13 0 25 -12 25 -25c0 -3 -1 -6 -2 -9c-19 -55 -67 -83 -123 -83zM278 475c79 0 145 -43 145 -128c0 -27 -11 -46 -40 -46h-254c3 103 27 174 149 174zM278 51
c-133 0 -148 83 -149 192h254c63 0 104 42 104 104c0 7 -1 14 -2 21c-15 111 -100 165 -207 165c-108 0 -192 -54 -208 -165c-5 -35 -5 -70 -5 -105s0 -70 5 -105c16 -111 100 -165 208 -165c55 0 131 18 179 45c10 6 17 15 17 27c0 18 -15 30 -32 30c-5 0 -10 -1 -15 -4
c-48 -21 -96 -40 -149 -40z" />
    <glyph glyph-name="edotaccent" unicode="&#x117;" horiz-adv-x="552" 
d="M323 617c0 -23 -19 -41 -41 -41c-23 0 -41 18 -41 41c0 22 18 41 41 41c22 0 41 -19 41 -41zM278 475c79 0 145 -43 145 -128c0 -27 -11 -46 -40 -46h-254c3 103 27 174 149 174zM278 51c-133 0 -148 83 -149 192h254c63 0 104 42 104 104c0 7 -1 14 -2 21
c-15 111 -100 165 -207 165c-108 0 -192 -54 -208 -165c-5 -35 -5 -70 -5 -105s0 -70 5 -105c16 -111 100 -165 208 -165c55 0 131 18 179 45c10 6 17 15 17 27c0 18 -15 30 -32 30c-5 0 -10 -1 -15 -4c-48 -21 -96 -40 -149 -40z" />
    <glyph glyph-name="eogonek" unicode="&#x119;" horiz-adv-x="552" 
d="M278 51c53 0 101 19 149 40c5 3 10 4 15 4c17 0 32 -12 32 -30c0 -12 -7 -21 -17 -27c-40 -21 -89 -36 -133 -42c-26 -21 -77 -69 -77 -106c0 -16 10 -22 25 -22c27 0 45 15 58 15c14 0 25 -11 25 -25c0 -30 -61 -40 -83 -40c-43 0 -76 29 -76 73c0 39 33 77 60 103
c-100 7 -171 63 -186 164c-5 35 -5 70 -5 105s0 70 5 105c16 111 99 165 208 165c107 0 192 -54 207 -165c1 -7 2 -14 2 -21c0 -62 -41 -104 -104 -104h-254c1 -108 16 -192 149 -192zM278 475c-122 0 -146 -71 -149 -174h254c29 0 40 19 40 46c0 85 -66 128 -145 128z" />
    <glyph glyph-name="ecaron" unicode="&#x11b;" horiz-adv-x="552" 
d="M278 51c53 0 101 19 149 40c5 3 10 4 15 4c17 0 32 -12 32 -30c0 -12 -7 -21 -17 -27c-48 -27 -124 -45 -179 -45c-108 0 -192 54 -208 165c-5 35 -5 70 -5 105s0 70 5 105c16 111 100 165 208 165c107 0 192 -54 207 -165c1 -7 2 -14 2 -21c0 -62 -41 -104 -104 -104
h-254c1 -109 16 -192 149 -192zM278 475c-122 0 -146 -71 -149 -174h254c29 0 40 19 40 46c0 85 -66 128 -145 128zM188 703c6 0 13 -3 18 -8l71 -71c1 -1 3 -1 4 -1c2 0 3 0 4 1l72 71c5 5 11 8 17 8c7 0 13 -3 18 -8s7 -11 7 -17c0 -7 -2 -13 -7 -18l-72 -71
c-11 -11 -25 -16 -39 -16s-28 5 -39 16l-72 71c-5 5 -7 11 -7 18c0 6 2 12 7 17s11 8 18 8z" />
    <glyph glyph-name="gcircumflex" unicode="&#x11d;" horiz-adv-x="560" 
d="M184 566c-7 0 -13 2 -18 7s-7 11 -7 18c0 6 2 13 7 18l72 71c11 10 25 16 39 16s28 -6 39 -16l72 -71c5 -5 7 -12 7 -18c0 -7 -2 -13 -7 -18s-11 -7 -18 -7c-6 0 -12 2 -17 7l-72 71c-1 1 -3 2 -4 2s-3 -1 -4 -2l-72 -71c-4 -5 -11 -7 -17 -7zM278 81
c-132 0 -149 87 -149 198c0 110 18 196 149 196c119 0 143 -67 143 -173v-184c-44 -22 -94 -37 -143 -37zM278 533c-110 0 -192 -56 -208 -168c-4 -29 -5 -57 -5 -86s1 -59 5 -88c16 -112 98 -168 208 -168c49 0 98 15 143 36v-6c0 -108 -21 -177 -143 -177
c-54 0 -101 20 -150 40c-5 3 -10 4 -15 4c-16 0 -32 -12 -32 -30c0 -49 158 -72 197 -72c55 0 113 14 154 54c49 48 53 116 53 181v246c0 65 -4 131 -53 180c-41 40 -99 54 -154 54z" />
    <glyph glyph-name="gbreve" unicode="&#x11f;" horiz-adv-x="560" 
d="M275 563c-56 0 -104 29 -123 83c-1 3 -2 6 -2 9c0 13 12 25 25 25c35 0 19 -67 100 -67s66 67 100 67c14 0 25 -12 25 -25c0 -3 0 -6 -1 -9c-19 -54 -67 -83 -124 -83zM278 81c-132 0 -149 87 -149 198c0 110 18 196 149 196c119 0 143 -67 143 -173v-184
c-44 -22 -94 -37 -143 -37zM278 533c-110 0 -192 -56 -208 -168c-4 -29 -5 -57 -5 -86s1 -59 5 -88c16 -112 98 -168 208 -168c49 0 98 15 143 36v-6c0 -108 -21 -177 -143 -177c-54 0 -101 20 -150 40c-5 3 -10 4 -15 4c-16 0 -32 -12 -32 -30c0 -49 158 -72 197 -72
c55 0 113 14 154 54c49 48 53 116 53 181v246c0 65 -4 131 -53 180c-41 40 -99 54 -154 54z" />
    <glyph glyph-name="gdotaccent" unicode="&#x121;" horiz-adv-x="560" 
d="M316 617c0 -23 -18 -41 -41 -41c-22 0 -41 18 -41 41c0 22 19 41 41 41c23 0 41 -19 41 -41zM278 81c-132 0 -149 87 -149 198c0 110 18 196 149 196c119 0 143 -67 143 -173v-184c-44 -22 -94 -37 -143 -37zM278 533c-110 0 -192 -56 -208 -168c-4 -29 -5 -57 -5 -86
s1 -59 5 -88c16 -112 98 -168 208 -168c49 0 98 15 143 36v-6c0 -108 -21 -177 -143 -177c-54 0 -101 20 -150 40c-5 3 -10 4 -15 4c-16 0 -32 -12 -32 -30c0 -49 158 -72 197 -72c55 0 113 14 154 54c49 48 53 116 53 181v246c0 65 -4 131 -53 180c-41 40 -99 54 -154 54z
" />
    <glyph glyph-name="gcommaaccent" unicode="&#x123;" horiz-adv-x="560" 
d="M332 708c13 0 25 -12 25 -25c0 -40 -69 -16 -69 -56c0 -24 32 -16 32 -44c0 -13 -11 -25 -25 -25c-31 0 -57 40 -57 69c0 48 48 81 94 81zM278 81c-132 0 -149 87 -149 198c0 110 18 196 149 196c119 0 143 -67 143 -173v-184c-44 -22 -94 -37 -143 -37zM278 533
c-110 0 -192 -56 -208 -168c-4 -29 -5 -57 -5 -86s1 -59 5 -88c16 -112 98 -168 208 -168c49 0 98 15 143 36v-6c0 -108 -21 -177 -143 -177c-54 0 -101 20 -150 40c-5 3 -10 4 -15 4c-16 0 -32 -12 -32 -30c0 -49 158 -72 197 -72c55 0 113 14 154 54c49 48 53 116 53 181
v246c0 65 -4 131 -53 180c-41 40 -99 54 -154 54z" />
    <glyph glyph-name="hcircumflex" unicode="&#x125;" horiz-adv-x="576" 
d="M23 763c-6 0 -13 3 -18 8s-7 11 -7 17c0 7 2 13 7 18l72 71c11 11 25 16 39 16s28 -5 39 -16l72 -71c5 -5 7 -11 7 -18c0 -6 -2 -12 -7 -17s-11 -8 -18 -8c-6 0 -12 3 -17 8l-72 71c-1 1 -2 1 -4 1c-1 0 -2 0 -3 -1l-72 -71c-5 -5 -12 -8 -18 -8zM501 298
c-3 65 -4 133 -54 181c-41 40 -98 54 -154 54c-51 0 -100 -14 -145 -37v212c0 17 -16 29 -32 29c-17 0 -32 -12 -32 -29v-682c0 -18 15 -30 32 -30c16 0 32 12 32 30v412c44 24 95 37 145 37c122 0 144 -70 144 -177v-272c0 -18 16 -29 32 -29c17 0 32 11 32 29v272z" />
    <glyph glyph-name="itilde" unicode="&#x129;" horiz-adv-x="222" 
d="M169 573c-52 0 -88 59 -115 59c-36 0 -32 -55 -64 -55c-14 0 -25 11 -25 25c0 4 1 7 3 11c17 36 42 69 85 69c52 0 87 -59 115 -59c36 0 32 55 64 55c14 0 25 -11 25 -25c0 -4 -1 -7 -3 -11c-17 -36 -42 -69 -85 -69zM111 -3c-16 0 -32 11 -32 29v474c0 18 16 30 32 30
s32 -12 32 -30v-474c0 -18 -16 -29 -32 -29z" />
    <glyph glyph-name="imacron" unicode="&#x12b;" horiz-adv-x="222" 
d="M211 586h-200c-13 0 -25 11 -25 25s12 25 25 25h200c13 0 25 -11 25 -25s-12 -25 -25 -25zM111 -3c-16 0 -32 11 -32 29v474c0 18 16 30 32 30s32 -12 32 -30v-474c0 -18 -16 -29 -32 -29z" />
    <glyph glyph-name="ibreve" unicode="&#x12d;" horiz-adv-x="222" 
d="M111 563c-57 0 -104 28 -124 83c0 3 -1 6 -1 9c0 13 11 25 25 25c35 0 19 -67 100 -67s65 67 100 67c14 0 25 -12 25 -25c0 -3 -1 -6 -1 -9c-20 -54 -67 -83 -124 -83zM111 -3c-16 0 -32 11 -32 29v474c0 18 16 30 32 30s32 -12 32 -30v-474c0 -18 -16 -29 -32 -29z" />
    <glyph glyph-name="iogonek" unicode="&#x12f;" horiz-adv-x="222" 
d="M153 661c0 -23 -19 -41 -41 -41c-23 0 -41 18 -41 41s18 41 41 41c22 0 41 -18 41 -41zM134 -117c-12 0 -31 -15 -58 -15c-15 0 -25 6 -25 22c0 39 54 87 81 109c7 6 12 14 12 23v478c0 18 -16 30 -32 30c-17 0 -32 -12 -32 -30v-478c0 -3 0 -6 1 -9
c-33 -28 -81 -75 -81 -122c0 -44 33 -73 76 -73c22 0 83 10 83 40c0 14 -11 25 -25 25z" />
    <glyph glyph-name="jcircumflex" unicode="&#x135;" horiz-adv-x="244" 
d="M40 566c-7 0 -13 2 -18 7s-7 11 -7 18c0 6 2 13 7 18l72 71c11 10 25 16 39 16s28 -6 39 -16l72 -71c5 -5 7 -12 7 -18c0 -7 -2 -13 -7 -18s-11 -7 -18 -7c-6 0 -12 2 -17 7l-72 71c-1 1 -3 2 -4 2s-3 -1 -4 -2l-72 -71c-4 -5 -11 -7 -17 -7zM-43 -182
c-16 0 -32 13 -32 30s16 29 32 29c38 0 79 8 107 35c36 34 37 94 37 141v447c0 18 16 30 32 30s32 -12 32 -30v-447c0 -65 -4 -133 -54 -181c-41 -40 -98 -54 -154 -54z" />
    <glyph glyph-name="kcommaaccent" unicode="&#x137;" horiz-adv-x="525" 
d="M269 280c18 -10 34 -23 47 -38l172 -198c5 -5 7 -11 7 -17c0 -19 -15 -30 -33 -30c-9 0 -18 3 -25 11l-171 197c-19 21 -40 45 -70 45h-52v-224c0 -18 -16 -29 -32 -29s-32 11 -32 29v682c0 17 16 29 32 29s32 -12 32 -29v-400h48c32 0 54 23 75 45l158 166
c6 7 15 10 24 10c17 0 33 -12 33 -30c0 -6 -3 -13 -8 -18l-159 -168c-13 -13 -28 -25 -46 -33zM228 -183c46 0 94 33 94 81c0 28 -26 68 -57 68c-14 0 -25 -11 -25 -25c0 -27 32 -19 32 -43c0 -40 -69 -16 -69 -56c0 -14 11 -25 25 -25z" />
    <glyph glyph-name="lacute" unicode="&#x13a;" horiz-adv-x="251" 
d="M112 737c17 0 32 -12 32 -29v-517c0 -69 11 -97 61 -143c7 -7 12 -16 12 -26c0 -16 -16 -25 -30 -25c-10 0 -19 3 -27 8c-59 42 -80 118 -80 186v517c0 17 16 29 32 29zM105 767c-14 0 -25 11 -25 25c0 7 3 14 8 18l100 93c5 4 11 7 17 7c14 0 25 -12 25 -25
c0 -7 -3 -14 -8 -19l-100 -92c-5 -5 -11 -7 -17 -7z" />
    <glyph glyph-name="uni013C" unicode="&#x13c;" horiz-adv-x="251" 
d="M112 737c16 0 32 -12 32 -29v-517c0 -69 11 -97 60 -143c7 -7 12 -16 12 -26c0 -16 -15 -25 -30 -25c-9 0 -19 3 -27 8c-58 42 -79 118 -79 186v517c0 17 15 29 32 29zM104 -183c46 0 94 33 94 81c0 28 -27 68 -57 68c-14 0 -25 -11 -25 -25c0 -27 32 -19 32 -43
c0 -40 -69 -16 -69 -56c0 -14 11 -25 25 -25z" />
    <glyph glyph-name="lcaron" unicode="&#x13e;" horiz-adv-x="278" 
d="M112 737c16 0 32 -12 32 -29v-517c0 -69 11 -97 60 -143c8 -7 12 -16 12 -26c0 -16 -15 -25 -30 -25c-9 0 -19 3 -26 8c-59 42 -80 118 -80 186v517c0 17 16 29 32 29zM206 581c3 0 7 1 10 2c34 15 67 42 67 83c0 36 -31 71 -69 71c-13 0 -26 -9 -26 -24
c0 -39 45 -14 45 -47s-52 -29 -52 -60c0 -14 11 -25 25 -25z" />
    <glyph glyph-name="ldot" unicode="&#x140;" horiz-adv-x="287" 
d="M112 737c16 0 32 -12 32 -29v-517c0 -69 11 -97 60 -143c8 -7 12 -16 12 -26c0 -16 -15 -25 -30 -25c-9 0 -19 3 -26 8c-59 42 -80 118 -80 186v517c0 17 16 29 32 29zM277 412c0 23 -19 41 -41 41c-23 0 -41 -18 -41 -41c0 -22 18 -40 41 -40c22 0 41 18 41 40z" />
    <glyph glyph-name="nacute" unicode="&#x144;" horiz-adv-x="566" 
d="M252 564c-13 0 -25 11 -25 25c0 7 3 14 8 18l101 93c4 4 10 6 17 6c13 0 25 -11 25 -25c0 -7 -3 -13 -8 -18l-101 -93c-4 -4 -10 -6 -17 -6zM283 533c56 0 113 -14 154 -54c50 -48 54 -116 54 -181v-272c0 -18 -16 -29 -32 -29s-32 11 -32 29v272c0 107 -22 177 -144 177
s-144 -70 -144 -177v-272c0 -18 -16 -29 -32 -29s-32 11 -32 29v272c0 65 4 133 54 181c41 40 98 54 154 54z" />
    <glyph glyph-name="ncommaaccent" unicode="&#x146;" horiz-adv-x="566" 
d="M248 -183c46 0 94 33 94 81c0 28 -26 68 -57 68c-14 0 -25 -11 -25 -25c0 -27 32 -19 32 -43c0 -40 -69 -16 -69 -56c0 -14 12 -25 25 -25zM283 533c56 0 113 -14 154 -54c50 -48 54 -116 54 -181v-272c0 -18 -16 -29 -32 -29s-32 11 -32 29v272c0 107 -22 177 -144 177
s-144 -70 -144 -177v-272c0 -18 -16 -29 -32 -29s-32 11 -32 29v272c0 65 4 133 54 181c41 40 98 54 154 54z" />
    <glyph glyph-name="ncaron" unicode="&#x148;" horiz-adv-x="566" 
d="M283 533c56 0 113 -14 154 -54c50 -48 54 -116 54 -181v-272c0 -18 -16 -29 -32 -29s-32 11 -32 29v272c0 107 -22 177 -144 177s-144 -70 -144 -177v-272c0 -18 -16 -29 -32 -29s-32 11 -32 29v272c0 65 4 133 54 181c41 40 98 54 154 54zM190 703c6 0 12 -3 17 -8
l72 -71c1 -1 3 -1 4 -1s3 0 4 1l72 71c4 5 11 8 17 8c7 0 13 -3 18 -8s7 -11 7 -17c0 -7 -2 -13 -7 -18l-72 -71c-11 -11 -25 -16 -39 -16s-28 5 -39 16l-72 71c-5 5 -7 11 -7 18c0 6 2 12 7 17s11 8 18 8z" />
    <glyph glyph-name="omacron" unicode="&#x14d;" horiz-adv-x="555" 
d="M377 586h-199c-14 0 -25 11 -25 25s11 25 25 25h199c14 0 25 -11 25 -25s-11 -25 -25 -25zM278 51c-143 0 -149 98 -149 212c0 115 6 212 149 212c142 0 148 -97 148 -212c0 -114 -6 -212 -148 -212zM278 533c-109 0 -191 -54 -208 -165c-5 -35 -5 -70 -5 -105
s0 -70 5 -105c17 -111 99 -165 208 -165c108 0 191 54 207 165c5 35 5 70 5 105s0 70 -5 105c-17 111 -99 165 -207 165z" />
    <glyph glyph-name="obreve" unicode="&#x14f;" horiz-adv-x="555" 
d="M278 563c-57 0 -105 29 -124 83c-1 3 -2 6 -2 9c0 13 12 25 25 25c35 0 20 -67 101 -67c80 0 65 67 100 67c13 0 25 -12 25 -25c0 -3 -1 -6 -2 -9c-19 -54 -67 -83 -123 -83zM278 51c-143 0 -149 98 -149 212c0 115 6 212 149 212c142 0 148 -97 148 -212
c0 -114 -6 -212 -148 -212zM278 533c-109 0 -191 -54 -208 -165c-5 -35 -5 -70 -5 -105s0 -70 5 -105c17 -111 99 -165 208 -165c108 0 191 54 207 165c5 35 5 70 5 105s0 70 -5 105c-17 111 -99 165 -207 165z" />
    <glyph glyph-name="ohungarumlaut" unicode="&#x151;" horiz-adv-x="555" 
d="M278 533c108 0 190 -54 207 -165c5 -35 5 -70 5 -105s0 -70 -5 -105c-16 -111 -99 -165 -207 -165c-109 0 -191 54 -208 165c-5 35 -5 70 -5 105s0 70 5 105c17 111 99 165 208 165zM278 51c142 0 148 98 148 212c0 115 -6 212 -148 212c-143 0 -149 -97 -149 -212
c0 -114 6 -212 149 -212zM212 564c-13 0 -25 11 -25 25c0 7 3 14 8 18l100 93c5 4 11 6 17 6c14 0 25 -11 25 -25c0 -7 -3 -13 -8 -18l-100 -92c-5 -5 -11 -7 -17 -7zM342 564c-14 0 -25 11 -25 25c0 7 3 14 8 18l100 93c5 4 11 6 17 6c13 0 25 -11 25 -25
c0 -7 -3 -13 -8 -18l-100 -92c-5 -5 -11 -7 -17 -7z" />
    <glyph glyph-name="racute" unicode="&#x155;" horiz-adv-x="415" 
d="M284 533c29 0 121 -5 121 -46c0 -18 -16 -30 -32 -30c-5 0 -9 1 -13 3c-25 8 -50 15 -76 15c-142 0 -145 -102 -145 -213v-236c0 -18 -16 -30 -32 -30s-32 12 -32 30v257c0 28 1 57 5 85c17 111 93 165 204 165zM175 564c-14 0 -25 11 -25 25c0 7 3 14 8 18l100 93
c5 4 11 6 17 6c13 0 25 -11 25 -25c0 -7 -3 -13 -8 -18l-100 -92c-5 -5 -11 -7 -17 -7z" />
    <glyph glyph-name="rcommaaccent" unicode="&#x157;" horiz-adv-x="415" 
d="M284 533c29 0 121 -5 121 -46c0 -18 -16 -30 -32 -30c-5 0 -9 1 -13 3c-25 8 -50 15 -76 15c-142 0 -145 -102 -145 -213v-236c0 -18 -16 -30 -32 -30s-32 12 -32 30v257c0 28 1 57 5 85c17 111 93 165 204 165zM86 -182c45 0 94 32 94 81c0 28 -27 68 -57 68
c-14 0 -25 -11 -25 -25c0 -27 32 -20 32 -43c0 -40 -69 -16 -69 -56c0 -14 11 -25 25 -25z" />
    <glyph glyph-name="rcaron" unicode="&#x159;" horiz-adv-x="415" 
d="M284 533c29 0 121 -5 121 -46c0 -18 -16 -30 -32 -30c-5 0 -9 1 -13 3c-25 8 -50 15 -76 15c-142 0 -145 -102 -145 -213v-236c0 -18 -16 -30 -32 -30s-32 12 -32 30v257c0 28 1 57 5 85c17 111 93 165 204 165zM144 703c7 0 13 -3 18 -8l72 -71c1 -1 2 -1 4 -1
c1 0 2 0 3 1l72 71c5 5 12 8 18 8s13 -3 18 -8s7 -11 7 -17c0 -7 -3 -13 -7 -18l-72 -71c-11 -11 -25 -16 -39 -16s-29 5 -39 16l-72 71c-5 5 -8 11 -8 18c0 6 3 12 8 17s11 8 17 8z" />
    <glyph glyph-name="sacute" unicode="&#x15b;" horiz-adv-x="465" 
d="M233 -7c95 0 182 44 182 150c0 102 -89 134 -173 152c-52 12 -123 26 -123 93c0 70 61 87 120 87c35 0 69 -9 103 -17c3 0 6 -1 9 -1c16 0 32 12 32 29c0 16 -10 25 -23 30c-33 14 -86 17 -121 17c-93 0 -184 -39 -184 -145c0 -102 88 -137 173 -155
c52 -11 123 -22 123 -90c0 -71 -57 -92 -118 -92c-49 0 -95 13 -142 24c-3 1 -6 2 -9 2c-16 0 -32 -12 -32 -30c0 -15 9 -24 23 -29c38 -17 117 -25 160 -25zM197 564c-14 0 -25 11 -25 25c0 7 3 14 8 18l100 93c5 4 11 6 17 6c14 0 25 -11 25 -25c0 -7 -3 -13 -8 -18
l-100 -92c-5 -5 -11 -7 -17 -7z" />
    <glyph glyph-name="scircumflex" unicode="&#x15d;" horiz-adv-x="465" 
d="M136 566c-6 0 -12 2 -17 7s-8 11 -8 18c0 6 3 13 8 18l72 71c10 10 25 16 39 16s28 -6 39 -16l72 -71c4 -5 7 -12 7 -18c0 -7 -2 -13 -7 -18s-12 -7 -18 -7s-13 2 -18 7l-72 71c-1 1 -2 2 -3 2c-2 0 -3 -1 -4 -2l-72 -71c-5 -5 -11 -7 -18 -7zM233 -7
c-43 0 -122 8 -160 25c-14 5 -23 14 -23 29c0 18 16 30 32 30c3 0 6 -1 9 -2c47 -11 93 -24 142 -24c61 0 118 21 118 92c0 68 -71 79 -123 90c-85 18 -173 53 -173 155c0 106 91 145 184 145c35 0 88 -3 121 -17c13 -5 23 -14 23 -30c0 -17 -16 -29 -32 -29c-3 0 -6 1 -9 1
c-34 8 -68 17 -103 17c-59 0 -120 -17 -120 -87c0 -67 71 -81 123 -93c84 -18 173 -49 173 -152c0 -106 -87 -150 -182 -150z" />
    <glyph glyph-name="scedilla" unicode="&#x15f;" horiz-adv-x="465" 
d="M119 388c0 -67 71 -81 123 -93c84 -18 173 -50 173 -152c0 -101 -80 -147 -172 -150l-11 -31c46 0 88 -17 88 -70c0 -48 -43 -75 -88 -75c-21 0 -78 1 -78 32c0 13 12 25 25 25c18 0 35 -7 53 -7c16 0 38 5 38 25c0 46 -91 4 -91 48c0 12 14 42 19 54
c-41 3 -88 9 -125 24c-14 5 -23 14 -23 29c0 18 16 30 32 30c3 0 6 -1 9 -2c47 -11 93 -24 142 -24c61 0 118 21 118 92c0 68 -71 79 -123 90c-85 18 -173 53 -173 155c0 106 91 145 184 145c37 0 86 -4 121 -17c13 -5 23 -14 23 -30c0 -17 -16 -29 -32 -29c-3 0 -6 1 -9 1
c-34 8 -68 17 -103 17c-59 0 -120 -17 -120 -87z" />
    <glyph glyph-name="scommaaccent" unicode="&#x219;" horiz-adv-x="465" 
d="M196 -182c-13 0 -24 11 -24 25c0 40 68 16 68 56c0 23 -32 16 -32 43c0 14 12 25 25 25c31 0 57 -40 57 -68c0 -49 -48 -81 -94 -81zM233 -7c-43 0 -122 8 -160 25c-14 5 -23 14 -23 29c0 18 16 30 32 30c3 0 6 -1 9 -2c47 -11 93 -24 142 -24c61 0 118 21 118 92
c0 68 -71 79 -123 90c-85 18 -173 53 -173 155c0 106 91 145 184 145c35 0 88 -3 121 -17c13 -5 23 -14 23 -30c0 -17 -16 -29 -32 -29c-3 0 -6 1 -9 1c-34 8 -68 17 -103 17c-59 0 -120 -17 -120 -87c0 -67 71 -81 123 -93c84 -18 173 -50 173 -152
c0 -106 -87 -150 -182 -150z" />
    <glyph glyph-name="tcommaaccent" unicode="&#x163;" horiz-adv-x="430" 
d="M368 68c17 0 32 -13 32 -30c0 -40 -89 -45 -117 -45c-16 0 -31 1 -46 3l-13 -34c46 0 88 -17 88 -70c0 -48 -43 -75 -88 -75c-21 0 -77 0 -77 32c0 13 11 25 25 25c18 0 35 -7 52 -7s38 5 38 25c0 46 -91 4 -91 48c0 13 18 53 24 67c-103 36 -120 123 -120 221v445
c0 17 16 29 32 29s32 -12 32 -29v-147h226c16 0 32 -12 32 -29s-16 -29 -32 -29h-226v-240c0 -107 22 -177 144 -177c25 0 48 6 72 14c4 1 9 3 13 3z" />
    <glyph glyph-name="tcaron" unicode="&#x165;" horiz-adv-x="430" 
d="M234 581c-13 0 -25 12 -25 25c0 31 52 27 52 60c0 32 -45 9 -45 48c0 14 14 23 27 23c37 0 68 -34 68 -71c0 -39 -32 -69 -66 -83c-4 -1 -7 -2 -11 -2zM368 68c-4 0 -9 -2 -13 -3c-24 -8 -47 -14 -72 -14c-122 0 -144 70 -144 177v240h226c16 0 32 12 32 29
s-16 29 -32 29h-226v147c0 17 -16 29 -32 29s-32 -12 -32 -29v-452c0 -62 6 -127 54 -174c41 -40 98 -54 154 -54c28 0 117 5 117 45c0 17 -15 30 -32 30z" />
    <glyph glyph-name="uni021B" unicode="&#x21b;" horiz-adv-x="430" 
d="M368 68c17 0 32 -13 32 -30c0 -40 -89 -45 -117 -45c-56 0 -113 14 -154 54c-48 47 -54 112 -54 174v452c0 17 16 29 32 29s32 -12 32 -29v-147h226c16 0 32 -12 32 -29s-16 -29 -32 -29h-226v-240c0 -107 22 -177 144 -177c25 0 48 6 72 14c4 1 9 3 13 3zM208 -182
c45 0 94 33 94 81c0 29 -27 68 -58 68c-13 0 -25 -11 -25 -25c0 -27 33 -20 33 -43c0 -40 -69 -16 -69 -56c0 -14 11 -25 25 -25z" />
    <glyph glyph-name="utilde" unicode="&#x169;" horiz-adv-x="566" 
d="M340 573c-50 0 -86 59 -115 59c-35 0 -31 -55 -63 -55c-13 0 -25 11 -25 25c0 4 1 7 3 11c15 36 44 69 85 69c51 0 87 -59 115 -59c36 0 32 56 64 56c13 0 25 -12 25 -26c0 -3 -1 -7 -3 -11c-15 -36 -44 -69 -86 -69zM459 530c-16 0 -32 -13 -32 -30v-272
c0 -107 -23 -177 -144 -177c-122 0 -144 70 -144 177v272c0 17 -16 30 -32 30s-32 -13 -32 -30v-272c0 -65 5 -133 54 -181c40 -40 99 -54 154 -54s113 14 154 54c49 48 54 116 54 181v272c0 17 -16 30 -32 30z" />
    <glyph glyph-name="umacron" unicode="&#x16b;" horiz-adv-x="566" 
d="M382 586h-199c-13 0 -25 12 -25 25c0 14 12 25 25 25h199c14 0 25 -11 25 -25c0 -13 -11 -25 -25 -25zM459 530c-16 0 -32 -12 -32 -30v-272c0 -107 -22 -177 -144 -177s-144 70 -144 177v272c0 18 -16 30 -32 30s-32 -12 -32 -30v-272c0 -65 5 -133 54 -181
c41 -40 98 -54 154 -54c55 0 113 14 154 54c49 48 54 116 54 181v272c0 18 -16 30 -32 30z" />
    <glyph glyph-name="ubreve" unicode="&#x16d;" horiz-adv-x="566" 
d="M283 563c-56 0 -105 29 -124 83c-1 3 -1 6 -1 9c0 13 11 25 25 25c34 0 20 -67 100 -67s66 67 100 67c13 0 25 -12 25 -25c0 -3 -1 -6 -2 -9c-19 -54 -67 -83 -123 -83zM459 530c-16 0 -32 -12 -32 -30v-272c0 -107 -22 -177 -144 -177s-144 70 -144 177v272
c0 18 -16 30 -32 30s-32 -12 -32 -30v-272c0 -65 5 -133 54 -181c41 -40 98 -54 154 -54c55 0 113 14 154 54c49 48 54 116 54 181v272c0 18 -16 30 -32 30z" />
    <glyph glyph-name="uring" unicode="&#x16f;" horiz-adv-x="566" 
d="M283 695c-25 0 -47 -20 -47 -45c0 -26 22 -46 47 -46s47 20 47 46c0 25 -22 45 -47 45zM283 565c-47 0 -87 37 -87 85c0 47 40 84 87 84c46 0 87 -37 87 -84c0 -48 -41 -85 -87 -85zM459 530c-16 0 -32 -12 -32 -30v-272c0 -107 -22 -177 -144 -177s-144 70 -144 177v272
c0 18 -16 30 -32 30s-32 -12 -32 -30v-272c0 -65 5 -133 54 -181c41 -40 98 -54 154 -54c55 0 113 14 154 54c49 48 54 116 54 181v272c0 18 -16 30 -32 30z" />
    <glyph glyph-name="uhungarumlaut" unicode="&#x171;" horiz-adv-x="566" 
d="M459 530c16 0 32 -12 32 -30v-272c0 -65 -5 -133 -54 -181c-41 -40 -99 -54 -154 -54c-56 0 -113 14 -154 54c-49 48 -54 116 -54 181v272c0 18 16 30 32 30s32 -12 32 -30v-272c0 -107 22 -177 144 -177s144 70 144 177v272c0 18 16 30 32 30zM195 564
c-14 0 -25 11 -25 25c0 7 3 14 8 18l100 93c4 4 11 6 17 6c13 0 25 -11 25 -25c0 -7 -3 -13 -8 -18l-101 -92c-4 -5 -10 -7 -16 -7zM324 564c-13 0 -25 11 -25 25c0 7 3 14 8 18l100 93c5 4 11 6 17 6c14 0 25 -11 25 -25c0 -7 -3 -13 -8 -18l-100 -92c-5 -5 -11 -7 -17 -7z
" />
    <glyph glyph-name="uogonek" unicode="&#x173;" horiz-adv-x="566" 
d="M491 222c0 -37 -4 -74 -14 -110c-13 -46 -36 -80 -72 -111c-27 -25 -68 -63 -68 -103c0 -20 12 -30 31 -30c24 0 41 15 55 15s25 -11 25 -25c0 -31 -60 -40 -83 -40c-49 0 -77 34 -77 81c0 38 22 72 47 98c-17 -3 -35 -4 -52 -4c-56 0 -113 14 -154 54
c-47 46 -54 111 -54 174v279c0 17 16 30 32 30s32 -13 32 -30v-272c0 -107 22 -177 144 -177s144 70 144 177v272c0 17 16 30 32 30s32 -13 32 -30v-278z" />
    <glyph glyph-name="wgrave" unicode="&#x1e81;" horiz-adv-x="795" 
d="M732 529c-14 0 -27 -8 -31 -22l-117 -441c-1 -3 -2 -11 -6 -11c-5 0 -6 8 -7 11l-107 412c-8 31 -34 51 -67 51c-32 0 -58 -20 -66 -51l-107 -412c-1 -3 -3 -11 -7 -11s-6 8 -7 11l-117 441c-4 14 -17 22 -31 22c-17 0 -32 -10 -32 -28c0 -3 0 -6 1 -9l117 -441
c9 -32 36 -54 69 -54s60 23 69 54l107 413c1 3 2 7 4 7s4 -3 4 -7l108 -413c8 -31 35 -54 69 -54c33 0 60 22 68 54l117 441c1 3 2 6 2 9c0 18 -15 28 -33 28zM422 564c-6 0 -12 2 -17 7l-100 92c-5 5 -8 11 -8 18c0 14 11 25 25 25c6 0 12 -2 17 -6l100 -93
c5 -4 8 -11 8 -18c0 -14 -11 -25 -25 -25z" />
    <glyph glyph-name="wacute" unicode="&#x1e83;" horiz-adv-x="795" 
d="M372 564c-13 0 -25 11 -25 25c0 7 3 14 9 18l100 93c4 4 11 6 17 6c13 0 25 -11 25 -25c0 -7 -3 -13 -8 -18l-101 -92c-4 -5 -10 -7 -17 -7zM732 529c18 0 33 -10 33 -28c0 -3 -1 -6 -2 -9l-117 -441c-8 -32 -35 -54 -68 -54c-34 0 -61 23 -69 54l-108 413c0 4 -2 7 -4 7
s-3 -4 -4 -7l-107 -413c-9 -31 -36 -54 -69 -54s-60 22 -69 54l-117 441c-1 3 -1 6 -1 9c0 18 15 28 32 28c14 0 27 -8 31 -22l117 -441c1 -3 3 -11 7 -11s6 8 7 11l107 412c8 31 34 51 66 51c33 0 59 -20 67 -51l107 -412c1 -3 2 -11 7 -11c4 0 5 8 6 11l117 441
c4 14 17 22 31 22z" />
    <glyph glyph-name="wcircumflex" unicode="&#x175;" horiz-adv-x="795" 
d="M304 566c-6 0 -13 2 -18 7s-7 11 -7 18c0 6 2 13 7 18l72 71c11 10 25 16 39 16s28 -6 39 -16l72 -71c5 -5 8 -12 8 -18c0 -7 -3 -13 -8 -18s-11 -7 -17 -7c-7 0 -13 2 -18 7l-72 71c-1 1 -2 2 -4 2c-1 0 -2 -1 -3 -2l-72 -71c-5 -5 -12 -7 -18 -7zM732 529
c-14 0 -27 -8 -31 -22l-117 -441c-1 -3 -2 -11 -6 -11c-5 0 -6 8 -7 11l-107 412c-8 31 -34 51 -67 51c-32 0 -58 -20 -66 -51l-107 -412c-1 -3 -3 -11 -7 -11s-6 8 -7 11l-117 441c-4 14 -17 22 -31 22c-17 0 -32 -10 -32 -28c0 -3 0 -6 1 -9l117 -441c9 -32 36 -54 69 -54
s60 23 69 54l107 413c1 3 2 7 4 7s4 -3 4 -7l108 -413c8 -31 35 -54 69 -54c33 0 60 22 68 54l117 441c1 3 2 6 2 9c0 18 -15 28 -33 28z" />
    <glyph glyph-name="wdieresis" unicode="&#x1e85;" horiz-adv-x="795" 
d="M732 529c-14 0 -27 -8 -31 -22l-117 -441c-1 -3 -2 -11 -6 -11c-5 0 -6 8 -7 11l-107 412c-8 31 -34 51 -67 51c-32 0 -58 -20 -66 -51l-107 -412c-1 -3 -3 -11 -7 -11s-6 8 -7 11l-117 441c-4 14 -17 22 -31 22c-17 0 -32 -10 -32 -28c0 -3 0 -6 1 -9l117 -441
c9 -32 36 -54 69 -54s60 23 69 54l107 413c1 3 2 7 4 7s4 -3 4 -7l108 -413c8 -31 35 -54 69 -54c33 0 60 22 68 54l117 441c1 3 2 6 2 9c0 18 -15 28 -33 28zM515 617c0 -23 -18 -41 -41 -41c-22 0 -41 18 -41 41c0 22 19 41 41 41c23 0 41 -19 41 -41zM361 617
c0 -23 -18 -41 -41 -41c-22 0 -41 18 -41 41c0 22 19 41 41 41c23 0 41 -19 41 -41z" />
    <glyph glyph-name="ygrave" unicode="&#x1ef3;" horiz-adv-x="502" 
d="M68 -154c0 -17 18 -28 33 -28c123 0 172 97 206 198c13 42 160 473 160 485c0 18 -16 29 -33 29c-15 0 -27 -9 -31 -23l-133 -396c0 -2 -1 -2 -2 -2c-5 0 -19 30 -21 34l-153 366c-6 13 -18 20 -32 20c-17 0 -32 -10 -32 -28c0 -4 1 -8 2 -11l154 -368
c13 -30 35 -58 64 -72l-7 -20c-17 -51 -42 -122 -96 -144c-15 -7 -31 -9 -48 -10s-31 -12 -31 -30zM267 564c-7 0 -13 2 -17 7l-101 92c-5 5 -8 11 -8 18c0 14 12 25 25 25c7 0 13 -2 17 -6l101 -93c5 -4 8 -11 8 -18c0 -14 -12 -25 -25 -25z" />
    <glyph glyph-name="ycircumflex" unicode="&#x177;" horiz-adv-x="502" 
d="M155 566c-7 0 -13 2 -18 7s-7 11 -7 18c0 6 2 13 7 18l72 71c11 10 25 16 39 16s28 -6 39 -16l72 -71c5 -5 7 -12 7 -18c0 -7 -2 -13 -7 -18s-11 -7 -18 -7c-6 0 -12 2 -17 7l-72 71c-1 1 -3 2 -4 2s-3 -1 -4 -2l-72 -71c-5 -5 -11 -7 -17 -7zM68 -154
c0 -17 18 -28 33 -28c123 0 171 97 206 198c19 58 160 467 160 485s-16 29 -33 29c-15 0 -27 -9 -31 -23l-133 -397l-2 -1c-7 3 -18 26 -21 34l-153 366c-6 13 -18 20 -32 20c-17 0 -32 -11 -32 -28c0 -14 141 -343 156 -379c13 -30 34 -58 64 -72
c-19 -56 -44 -140 -103 -164c-27 -12 -79 -2 -79 -40z" />
    <glyph glyph-name="uni0233" unicode="&#x233;" horiz-adv-x="502" 
d="M71 -154c0 -17 17 -28 33 -28c123 0 171 97 205 198c14 42 161 473 161 485c0 18 -16 29 -34 29c-14 0 -26 -9 -31 -23l-132 -396c-1 -2 -1 -2 -2 -2c-6 0 -19 30 -21 34l-154 366c-5 13 -18 20 -32 20c-17 0 -31 -10 -31 -28c0 -4 0 -8 2 -11l154 -368
c12 -30 34 -58 63 -72l-6 -20c-17 -51 -43 -122 -96 -144c-16 -7 -31 -9 -48 -10s-31 -12 -31 -30zM356 586h-199c-14 0 -25 11 -25 25s11 25 25 25h199c13 0 25 -11 25 -25s-12 -25 -25 -25z" />
    <glyph glyph-name="zacute" unicode="&#x17a;" horiz-adv-x="508" 
d="M436 0c16 0 32 12 32 29s-16 29 -32 29h-324c-3 0 -7 2 -7 7c0 3 2 6 4 8l327 343c12 12 19 29 19 46c0 39 -34 64 -71 64h-290c-17 0 -32 -12 -32 -29s15 -29 32 -29h288c4 0 8 -2 8 -7c0 -3 -2 -5 -4 -7l-327 -343c-11 -13 -19 -29 -19 -47c0 -39 34 -64 71 -64h325z
M206 564c-13 0 -25 11 -25 25c0 7 3 14 8 18l101 93c4 4 10 6 17 6c13 0 25 -11 25 -25c0 -7 -3 -13 -8 -18l-101 -92c-4 -5 -10 -7 -17 -7z" />
    <glyph glyph-name="zdotaccent" unicode="&#x17c;" horiz-adv-x="508" 
d="M293 617c0 -23 -19 -41 -41 -41c-23 0 -41 18 -41 41c0 22 18 41 41 41c22 0 41 -19 41 -41zM436 0h-325c-37 0 -71 25 -71 64c0 18 8 34 19 47l327 343c2 2 4 4 4 7c0 5 -4 7 -8 7h-288c-17 0 -32 12 -32 29s15 29 32 29h290c37 0 71 -25 71 -64c0 -17 -7 -34 -19 -46
l-327 -343c-2 -2 -4 -5 -4 -8c0 -5 4 -7 7 -7h324c16 0 32 -12 32 -29s-16 -29 -32 -29z" />
    <glyph glyph-name="_238" 
 />
    <glyph glyph-name="_284" 
 />
    <glyph glyph-name="AEacute" unicode="&#x1fc;" horiz-adv-x="984" 
d="M557 60h329c17 0 33 -12 33 -30s-16 -30 -33 -30h-327c-40 0 -64 17 -67 58l-15 159h-286l-108 -204c-6 -10 -18 -16 -30 -16c-17 0 -33 12 -33 30c0 4 1 9 3 13l329 616c15 29 43 46 77 46h434c17 0 33 -12 33 -30s-16 -30 -33 -30h-358c0 -3 1 -6 1 -9l22 -240h312
c16 0 33 -12 33 -30c0 -17 -17 -30 -33 -30h-307zM223 277h249l-32 351c0 7 -4 14 -12 14c-9 0 -13 -5 -17 -12zM519 739c-14 0 -25 11 -25 25c0 6 3 13 8 18l100 92c5 5 11 7 17 7c14 0 25 -11 25 -25c0 -7 -3 -14 -8 -18l-100 -93c-5 -4 -11 -6 -17 -6z" />
    <glyph glyph-name="Oslashacute" unicode="&#x1fe;" horiz-adv-x="646" 
d="M291 739c-13 0 -25 11 -25 25c0 6 3 13 8 18l101 92c4 5 10 7 16 7c14 0 25 -11 25 -25c0 -7 -3 -14 -8 -18l-100 -93c-4 -4 -11 -6 -17 -6zM566 737c13 0 25 -9 25 -23c0 -13 -50 -81 -61 -97c46 -65 47 -169 47 -246c0 -59 0 -120 -8 -179
c-17 -135 -114 -199 -245 -199c-62 0 -126 14 -174 56l-49 -73c-4 -7 -13 -11 -21 -11c-13 0 -25 9 -25 23c0 13 51 82 62 98c-45 66 -46 169 -46 246c0 59 1 119 8 178c17 135 114 199 245 199c62 0 125 -14 173 -55l48 72c4 7 13 11 21 11zM137 351c0 -55 1 -155 20 -204
l304 455c-35 36 -88 47 -137 47c-99 0 -166 -42 -179 -145c-7 -51 -8 -102 -8 -153zM511 351c0 56 0 156 -21 206l-304 -455c35 -38 88 -49 138 -49c100 0 167 42 180 145c6 51 7 102 7 153z" />
    <glyph glyph-name="aeacute" unicode="&#x1fd;" horiz-adv-x="898" 
d="M429 564c-13 0 -25 11 -25 25c0 7 3 14 8 18l101 93c4 4 11 6 17 6c13 0 25 -11 25 -25c0 -6 -3 -13 -8 -18l-101 -92c-4 -5 -10 -7 -17 -7zM624 51c54 0 101 20 149 41c5 2 10 3 15 3c17 0 32 -12 32 -29c0 -50 -158 -73 -196 -73c-73 0 -142 25 -178 92
c-34 -68 -106 -92 -178 -92c-114 0 -213 51 -213 177c0 129 92 177 209 177c50 0 99 -12 147 -26c-3 100 -37 154 -143 154c-48 0 -93 -10 -139 -22c-4 0 -7 -1 -10 -1c-16 0 -32 12 -32 29c0 16 9 25 23 30c43 18 111 22 158 22c68 0 140 -23 178 -84c39 60 108 84 178 84
c108 0 191 -54 208 -166c1 -7 1 -14 1 -21c0 -62 -41 -104 -104 -104h-254c1 -110 19 -191 149 -191zM624 475c-119 0 -146 -69 -148 -175h253c30 0 40 20 40 46c0 86 -65 129 -145 129zM411 228v35c-48 14 -97 26 -147 26c-83 0 -145 -26 -145 -119c0 -91 68 -119 149 -119
c121 0 143 70 143 177z" />
    <glyph glyph-name="oslashacute" unicode="&#x1ff;" horiz-adv-x="555" 
d="M444 466c48 -57 46 -133 46 -203c0 -35 1 -70 -5 -105c-17 -112 -98 -165 -207 -165c-45 0 -91 9 -129 34l-34 -51c-5 -7 -13 -11 -22 -11c-12 0 -25 9 -25 23c0 12 35 58 44 71c-49 57 -47 133 -47 204c0 35 -1 70 5 105c17 112 98 165 208 165c45 0 91 -10 129 -35
l33 50c5 7 13 11 22 11c12 0 25 -9 25 -22s-35 -58 -43 -71zM278 475c-154 0 -149 -115 -149 -233c0 -41 1 -91 20 -128l224 335c-27 20 -62 26 -95 26zM278 51c153 0 148 114 148 232c0 41 -1 91 -20 128l-224 -334c28 -20 62 -26 96 -26zM243 564c-13 0 -25 11 -25 25
c0 7 3 14 8 18l100 93c5 4 11 6 17 6c14 0 25 -11 25 -25c0 -6 -3 -13 -8 -18l-100 -92c-5 -5 -11 -7 -17 -7z" />
    <glyph glyph-name="Dcroat" unicode="&#x110;" horiz-adv-x="646" 
d="M309 702c130 0 232 -60 256 -195c9 -51 11 -104 11 -156s-2 -105 -11 -156c-24 -134 -125 -195 -255 -195h-127c-47 0 -93 35 -93 85v256c-19 -1 -69 -8 -69 22c0 22 25 24 41 24c10 0 19 -1 28 -1v259c0 33 31 57 63 57h156zM183 60h126c191 0 201 138 201 291
s-10 291 -201 291h-153v-256h104c13 0 25 -9 25 -23c0 -13 -12 -22 -25 -22h-104v-256c0 -15 13 -25 27 -25z" />
    <glyph glyph-name="dcroat" unicode="&#x111;" horiz-adv-x="565" 
d="M490 643c19 0 69 8 69 -23c0 -22 -25 -24 -41 -24c-9 0 -19 1 -28 1v-335c0 -34 0 -70 -5 -104c-17 -111 -99 -165 -207 -165c-109 0 -191 54 -208 165c-5 35 -5 70 -5 105s0 70 5 105c17 111 99 165 208 165c54 0 100 -13 148 -37v101h-105c-12 0 -25 10 -25 23
s13 23 25 23h105v65c0 17 16 29 32 29s32 -12 32 -29v-65zM426 262v175c-46 23 -97 38 -148 38c-143 0 -149 -98 -149 -212c0 -115 6 -212 149 -212c142 0 148 97 148 211z" />
    <glyph glyph-name="Hbar" unicode="&#x126;" horiz-adv-x="656" 
d="M500 393v135h-344v-135h344zM610 573c14 0 25 -10 25 -22c0 -13 -11 -23 -25 -23h-44v-501c0 -17 -15 -30 -33 -30s-33 13 -33 30v306h-344v-306c0 -17 -15 -30 -33 -30s-33 13 -33 30v501h-44c-14 0 -25 10 -25 23c0 12 11 22 25 22h44v103c0 16 15 30 33 30
s33 -14 33 -30v-103h344v103c0 16 15 30 33 30s33 -14 33 -30v-103h44z" />
    <glyph glyph-name="hbar" unicode="&#x127;" horiz-adv-x="572" 
d="M496 298v-272c0 -16 -15 -29 -32 -29c-18 0 -32 13 -32 29v272c0 78 -10 115 -37 141c-24 24 -61 36 -107 36c-51 0 -100 -13 -146 -37v-412c0 -16 -14 -30 -32 -30s-32 14 -32 30v571h-44c-14 0 -25 10 -25 23s11 23 25 23h44v65c0 16 14 29 32 29s32 -13 32 -29v-65
h104c14 0 25 -10 25 -23s-11 -23 -25 -23h-104v-101c46 23 93 37 146 37c65 0 117 -18 154 -54c45 -44 54 -101 54 -181z" />
    <glyph glyph-name="IJ" unicode="&#x132;" horiz-adv-x="616" 
d="M503 706c16 0 33 -9 33 -27v-466c0 -126 -91 -220 -218 -220c-27 0 -57 1 -83 8c-15 3 -26 14 -26 30c0 18 16 30 33 30c2 0 4 0 7 -1c23 -4 45 -7 69 -7c93 0 152 70 152 160v463c0 17 16 30 33 30zM123 -4c17 0 33 13 33 31v649c0 17 -16 30 -33 30s-33 -13 -33 -30
v-649c0 -18 16 -31 33 -31z" />
    <glyph glyph-name="ij" unicode="&#x133;" horiz-adv-x="445" 
d="M152 661c0 -22 -19 -41 -41 -41s-41 19 -41 41s19 41 41 41s41 -19 41 -41zM375 661c0 -22 -19 -41 -41 -41c-23 0 -41 19 -41 41s18 41 41 41c22 0 41 -19 41 -41zM111 -4c-16 0 -32 13 -32 30v474c0 17 16 29 32 29s32 -12 32 -29v-474c0 -18 -16 -30 -32 -30z
M158 -182c-17 0 -32 13 -32 30s16 29 32 29c38 0 79 8 107 35c37 35 37 94 37 141v447c0 18 16 29 32 29s32 -11 32 -29v-454c0 -62 -7 -128 -54 -174c-41 -40 -98 -54 -154 -54z" />
    <glyph glyph-name="c_t" horiz-adv-x="978" 
d="M916 68c17 0 32 -12 32 -30c0 -40 -89 -45 -117 -45c-56 0 -113 14 -154 54c-50 49 -54 116 -54 181v379c0 47 -39 72 -83 72s-84 -24 -84 -72v-100c0 -35 -24 -58 -58 -58c-42 0 -78 26 -120 26c-143 0 -149 -98 -149 -212s6 -212 149 -212c53 0 96 21 144 41
c5 2 10 3 15 3c16 0 32 -12 32 -29c0 -49 -153 -73 -191 -73c-109 0 -191 54 -208 166c-5 34 -5 69 -5 104s0 70 5 104c17 112 99 166 208 166c37 0 79 -9 114 -23v97c0 82 71 130 148 130s147 -48 147 -130v-81h226c16 0 32 -12 32 -29s-16 -29 -32 -29h-226v-240
c0 -107 22 -177 144 -177c26 0 48 6 72 14c4 2 9 3 13 3z" />
    <glyph glyph-name="s_t" unicode="&#xfb06;" horiz-adv-x="905" 
d="M239 475c-59 0 -120 -17 -120 -87c0 -137 296 -47 296 -245c0 -106 -87 -150 -182 -150c-40 0 -125 8 -160 25c-14 6 -23 13 -23 29c0 18 16 30 32 30c3 0 6 -1 9 -2c47 -11 94 -24 142 -24c61 0 118 21 118 92c0 68 -71 79 -123 90c-85 18 -173 53 -173 155
c0 106 91 145 184 145c27 0 53 -2 80 -7v81c0 85 69 130 148 130c82 0 142 -44 147 -129v-28v-54h225c16 0 32 -12 32 -29s-16 -29 -32 -29h-225v-240c0 -107 22 -177 144 -177c25 0 48 6 71 14c5 1 9 3 14 3c16 0 32 -13 32 -30c0 -40 -89 -45 -117 -45
c-56 0 -114 14 -154 54c-50 48 -54 116 -54 181v379c0 47 -40 72 -83 72c-44 0 -84 -24 -84 -72v-87c0 -35 -20 -56 -55 -56c-30 0 -59 11 -89 11z" />
    <glyph glyph-name="kgreenlandic" unicode="&#x138;" horiz-adv-x="524" 
d="M268 280c18 -10 34 -23 47 -38l172 -198c5 -5 7 -11 7 -17c0 -18 -15 -31 -33 -31c-9 0 -18 4 -25 12l-171 197c-19 21 -40 45 -70 45h-52v-224c0 -18 -16 -30 -32 -30s-32 12 -32 30v474c0 17 16 29 32 29s32 -12 32 -29v-192h48c32 0 54 23 75 45l158 166
c6 7 15 10 24 10c17 0 33 -12 33 -30c0 -6 -3 -13 -8 -18l-159 -168c-13 -13 -28 -25 -46 -33z" />
    <glyph glyph-name="napostrophe" unicode="&#x149;" horiz-adv-x="566" 
d="M65 581c-14 0 -25 12 -25 25c0 31 52 27 52 60c0 32 -45 9 -45 48c0 14 13 23 26 23c38 0 69 -34 69 -71c0 -40 -33 -69 -67 -83c-3 -1 -6 -2 -10 -2zM283 533c-56 0 -113 -14 -154 -54c-50 -48 -54 -116 -54 -181v-272c0 -18 16 -30 32 -30s32 12 32 30v272
c0 107 22 177 144 177s144 -70 144 -177v-272c0 -18 16 -30 32 -30s32 12 32 30v272c0 65 -5 133 -54 181c-41 40 -98 54 -154 54z" />
    <glyph glyph-name="Eng" unicode="&#x14a;" horiz-adv-x="681" 
d="M163 706c30 0 55 -15 69 -41c24 -47 46 -95 69 -143c47 -97 93 -193 141 -290c17 -35 35 -71 52 -106c9 -18 19 -42 31 -58v608c0 17 16 30 33 30s33 -13 33 -30v-622c0 -66 -4 -133 -54 -182c-41 -39 -99 -54 -155 -54c-17 0 -33 12 -33 30s16 30 33 30
c80 0 131 33 140 116c-29 12 -53 36 -67 64l-281 577c-2 5 -5 11 -11 11s-7 -7 -7 -11v-609c0 -17 -16 -30 -33 -30s-33 13 -33 30v603c0 45 26 77 73 77z" />
    <glyph glyph-name="eng" unicode="&#x14b;" horiz-adv-x="569" 
d="M283 533c56 0 113 -14 154 -54c49 -48 54 -116 54 -181v-245c0 -65 -5 -133 -54 -181c-41 -40 -98 -54 -154 -54c-16 0 -32 12 -32 29s16 29 32 29c38 0 79 9 107 36c34 33 37 88 37 132v254c0 107 -22 177 -144 177s-144 -70 -144 -177v-273c0 -17 -16 -29 -32 -29
s-32 12 -32 29v273c0 65 4 133 54 181c41 40 98 54 154 54z" />
    <glyph glyph-name="Tbar" unicode="&#x166;" horiz-adv-x="526" 
d="M483 702c17 0 33 -12 33 -30s-16 -30 -33 -30h-187v-256h104c13 0 25 -9 25 -23c0 -13 -12 -22 -25 -22h-104v-314c0 -18 -16 -31 -33 -31s-33 13 -33 31v314h-104c-13 0 -25 9 -25 22c0 14 12 23 25 23h104v256h-187c-17 0 -33 12 -33 30s16 30 33 30h440z" />
    <glyph glyph-name="tbar" unicode="&#x167;" horiz-adv-x="435" 
d="M368 68c17 0 32 -13 32 -30c0 -40 -89 -45 -117 -45c-55 0 -114 14 -154 54c-48 47 -54 111 -54 174v452c0 17 16 29 32 29s32 -12 32 -29v-147h226c16 0 32 -12 32 -29s-16 -29 -32 -29h-226v-130h174c13 0 25 -10 25 -23s-12 -23 -25 -23h-174v-57
c0 -109 17 -184 144 -184c25 0 48 6 72 14c4 1 9 3 13 3z" />
    <glyph glyph-name="_323" 
 />
    <glyph glyph-name="_328" 
 />
    <glyph glyph-name="_333" 
 />
    <glyph glyph-name="_341" 
 />
    <glyph glyph-name="_368" 
 />
    <glyph glyph-name="_371" 
 />
    <glyph glyph-name="_376" 
 />
    <glyph glyph-name="_380" unicode="&#xa5;" horiz-adv-x="597" 
d="M577 675c0 -6 -1 -11 -4 -15l-164 -251c-5 -7 -10 -13 -15 -20h109c13 0 25 -9 25 -23c0 -13 -12 -22 -25 -22c-17 0 -166 2 -171 -2v-80h171c13 0 25 -9 25 -22c0 -14 -12 -23 -25 -23h-171v-191c0 -17 -17 -30 -33 -30c-17 0 -33 13 -33 30v191h-172
c-13 0 -25 9 -25 23c0 13 12 22 25 22h172v80c-6 4 -155 2 -172 2c-13 0 -25 9 -25 22c0 14 12 23 25 23h110c-6 7 -11 13 -15 20l-165 251c-2 4 -4 9 -4 15c0 17 17 30 33 30c12 0 23 -5 29 -14l164 -251c12 -18 28 -43 53 -43s40 25 52 43l164 251c6 9 18 14 29 14
c17 0 33 -13 33 -30z" />
    <glyph glyph-name="Euro" unicode="&#x20ac;" horiz-adv-x="605" 
d="M368 51c45 0 87 11 130 21c3 1 6 1 10 1c16 0 32 -12 32 -29c0 -15 -10 -25 -23 -29c-41 -16 -104 -22 -149 -22c-131 0 -226 63 -243 198c-4 26 -5 52 -6 78h-64c-13 0 -25 10 -25 23s12 23 25 23h62v71h-62c-13 0 -25 10 -25 23c0 14 12 23 25 23h64c1 26 2 52 6 78
c17 135 113 199 244 199c44 0 107 -7 148 -22c13 -5 23 -15 23 -30c0 -17 -16 -29 -32 -29c-4 0 -7 1 -10 1c-43 11 -85 22 -129 22c-101 0 -168 -43 -181 -147c-3 -24 -4 -48 -5 -72h261c13 0 25 -9 25 -23c0 -13 -12 -23 -25 -23h-263v-35v-36h233c13 0 25 -10 25 -23
s-12 -23 -25 -23h-231c1 -24 2 -48 5 -72c13 -104 80 -146 180 -146z" />
    <glyph glyph-name="_385" 
 />
    <glyph glyph-name="_389" 
 />
    <glyph glyph-name="lessequal" unicode="&#x2264;" horiz-adv-x="580" 
d="M520 0c16 0 30 12 30 28s-14 27 -30 27h-460c-16 0 -30 -11 -30 -27s14 -28 30 -28h460zM90 356c0 -3 1 -6 4 -7l439 -186c10 -4 17 -14 17 -24c0 -17 -15 -28 -30 -28c-4 0 -8 1 -12 3l-440 186c-22 9 -38 31 -38 56c0 24 16 47 38 56l440 186c4 2 8 2 12 2
c15 0 30 -11 30 -27c0 -11 -7 -20 -17 -25l-439 -185c-3 -1 -4 -4 -4 -7z" />
    <glyph glyph-name="greaterequal" unicode="&#x2265;" horiz-adv-x="580" 
d="M60 600c4 0 8 0 12 -2l440 -186c22 -9 38 -32 38 -56c0 -25 -16 -47 -38 -56l-440 -186c-4 -2 -8 -3 -12 -3c-15 0 -30 12 -30 28c0 10 7 20 17 24l439 186c3 1 4 4 4 7s-1 6 -4 7l-439 185c-10 5 -17 14 -17 25c0 16 15 27 30 27zM520 0c15 0 30 12 30 28s-15 27 -30 27
h-460c-15 0 -30 -11 -30 -27s15 -28 30 -28h460z" />
    <glyph glyph-name="notequal" unicode="&#x2260;" horiz-adv-x="580" 
d="M288 198h232c16 0 30 -11 30 -27s-14 -28 -30 -28h-258l-62 -136c-4 -9 -14 -14 -23 -14c-13 0 -25 9 -25 23c0 11 47 108 56 127h-148c-16 0 -30 12 -30 28s14 27 30 27h173l59 128h-232c-16 0 -30 11 -30 27s14 28 30 28h258l63 138c4 9 14 14 23 14c13 0 25 -9 25 -23
c0 -11 -48 -110 -57 -129h148c16 0 30 -12 30 -28s-14 -27 -30 -27h-173z" />
    <glyph glyph-name="approxequal" unicode="&#x2248;" horiz-adv-x="580" 
d="M520 234c15 0 30 -11 30 -27c0 -7 -3 -12 -7 -18c-34 -45 -77 -70 -133 -70c-84 0 -163 63 -240 63c-70 0 -77 -60 -110 -60c-15 0 -30 11 -30 27c0 8 3 13 7 18c34 45 77 70 134 70c83 0 162 -63 239 -63c70 0 77 60 110 60zM60 290c-15 0 -30 11 -30 27c0 7 3 12 7 18
c34 45 77 70 134 70c83 0 162 -63 239 -63c70 0 77 60 110 60c15 0 30 -11 30 -27c0 -8 -3 -13 -7 -18c-34 -45 -77 -70 -133 -70c-84 0 -163 63 -240 63c-70 0 -77 -60 -110 -60z" />
    <glyph glyph-name="_403" 
 />
    <glyph glyph-name="_404" 
 />
    <glyph glyph-name="partialdiff" unicode="&#x2202;" horiz-adv-x="579" 
d="M267 709c201 0 242 -189 242 -352c0 -149 -33 -364 -225 -364c-130 0 -214 112 -214 235c0 127 81 220 212 220c56 0 111 -18 162 -42c-7 113 -38 242 -177 242c-38 0 -70 -12 -104 -27c-6 -3 -11 -5 -17 -5c-16 0 -32 13 -32 31c0 43 120 62 153 62zM284 54
c140 0 159 184 161 289c-52 23 -106 45 -163 45c-97 0 -148 -68 -148 -160c0 -87 55 -174 150 -174z" />
    <glyph glyph-name="summation" unicode="&#x2211;" horiz-adv-x="574" 
d="M124 -27c0 -2 3 -3 5 -3h353c16 0 32 -12 32 -29s-16 -29 -32 -29h-353c-35 0 -69 20 -69 59c0 13 4 25 10 36c18 36 166 294 166 302s-144 262 -162 298c-6 11 -10 23 -10 36c0 38 34 59 69 59h326c16 0 32 -12 32 -29s-16 -29 -32 -29h-326c-2 0 -5 -1 -5 -3
c0 -9 145 -264 164 -301c5 -10 7 -20 7 -31s-2 -21 -7 -31c-19 -38 -168 -296 -168 -305z" />
    <glyph glyph-name="product" unicode="&#x220f;" horiz-adv-x="571" 
d="M489 702c17 0 32 -12 32 -29s-15 -29 -32 -29h-61v-710c0 -17 -15 -29 -32 -29c-16 0 -32 12 -32 29v710h-157v-710c0 -17 -16 -29 -32 -29s-32 12 -32 29v710h-61c-16 0 -32 12 -32 29s16 29 32 29h407z" />
    <glyph glyph-name="pi" unicode="&#x3c0;" horiz-adv-x="571" 
d="M428 115c0 -91 93 -39 93 -95c0 -16 -17 -27 -32 -27c-70 0 -125 50 -125 122v353h-157v-442c0 -18 -16 -30 -32 -30s-32 12 -32 30v442h-61c-16 0 -32 12 -32 29s16 29 32 29h407c17 0 32 -12 32 -29s-15 -29 -32 -29h-61v-353z" />
    <glyph glyph-name="integral" unicode="&#x222b;" horiz-adv-x="427" 
d="M72 -95c-16 0 -32 12 -32 29s16 29 32 29c31 0 59 9 80 33c29 35 29 100 29 143v336c0 61 2 129 43 178c33 39 81 56 131 56c16 0 32 -12 32 -29s-16 -29 -32 -29c-31 0 -59 -9 -80 -33c-29 -35 -30 -100 -30 -143v-336c0 -60 -1 -128 -42 -178c-33 -39 -81 -56 -131 -56
z" />
    <glyph glyph-name="uni00AD" unicode="&#xad;" horiz-adv-x="392" 
d="M324 328h-256c-14 0 -28 11 -28 26s14 25 28 25h256c14 0 28 -10 28 -25s-14 -26 -28 -26z" />
    <glyph glyph-name="radical" unicode="&#x221a;" horiz-adv-x="578" 
d="M536 791c16 0 32 -12 32 -29c0 -3 0 -5 -1 -8c-25 -104 -54 -207 -81 -311c-42 -162 -81 -325 -126 -486v-1c-9 -32 -31 -50 -66 -50c-30 0 -58 21 -65 51l-98 368h-69c-16 0 -32 12 -32 29s16 29 32 29h74c25 0 50 -18 56 -42l99 -370c0 -2 1 -7 3 -7c3 0 4 5 4 7
l206 795c4 15 17 25 32 25z" />
    <glyph glyph-name="lozenge" unicode="&#x25ca;" horiz-adv-x="580" 
d="M290 709c26 0 50 -15 62 -38l154 -291c5 -9 7 -19 7 -29s-2 -20 -7 -29l-154 -291c-12 -23 -36 -38 -62 -38s-50 15 -62 38l-154 291c-5 9 -7 19 -7 29s2 20 7 29l154 291c12 23 36 38 62 38zM290 51c2 0 4 4 5 6c17 32 154 288 154 295c0 5 -138 262 -154 294
c-1 1 -3 5 -5 5s-4 -4 -5 -5c-16 -32 -155 -290 -155 -295c0 -6 138 -262 155 -294c1 -2 3 -6 5 -6z" />
    <glyph glyph-name="Delta" unicode="&#x2206;" horiz-adv-x="580" 
d="M92 58h396l-196 590c0 2 -1 3 -2 3s-2 -1 -2 -3zM226 666c9 26 35 43 64 43s55 -17 63 -43l200 -602c2 -6 3 -11 3 -16c0 -10 -4 -20 -10 -29c-10 -12 -27 -19 -45 -19h-422c-18 0 -35 7 -45 19c-6 9 -10 19 -10 29c0 5 1 10 3 16z" />
    <glyph glyph-name="Omega" unicode="&#x2126;" horiz-adv-x="652" 
d="M438 58h127c16 0 32 -12 32 -29s-16 -29 -32 -29h-139c-26 0 -52 19 -52 47c0 11 -1 21 -1 32c0 27 6 42 28 60c32 27 63 50 87 86c37 55 50 113 50 178c0 130 -70 248 -212 248c-141 0 -212 -118 -212 -248c0 -65 13 -123 50 -178c24 -35 55 -59 88 -86
c17 -14 26 -27 26 -50v-42c0 -28 -25 -47 -52 -47h-139c-16 0 -32 12 -32 29s16 29 32 29h127c0 7 1 13 1 19c0 5 0 13 -4 17c-18 17 -39 31 -57 48c-75 74 -104 157 -104 261c0 166 100 306 276 306s276 -140 276 -306c0 -76 -16 -145 -59 -209c-28 -40 -64 -71 -102 -100
c-2 -2 -3 -2 -3 -5v-31z" />
    <glyph glyph-name="infinity" unicode="&#x221e;" horiz-adv-x="880" 
d="M647 452c105 0 183 -87 183 -190s-78 -189 -183 -189c-94 0 -153 79 -207 143c-55 -64 -114 -143 -207 -143c-105 0 -183 86 -183 189s78 190 183 190c93 0 152 -79 207 -144c54 65 113 144 207 144zM233 131c68 0 125 85 165 131c-40 47 -97 132 -165 132
c-72 0 -119 -64 -119 -132c0 -67 47 -131 119 -131zM647 131c71 0 119 64 119 131c0 68 -48 132 -119 132c-68 0 -125 -85 -166 -132c41 -46 98 -131 166 -131z" />
    <glyph glyph-name="_421" 
 />
    <glyph glyph-name="Aringacute" unicode="&#x1fa;" horiz-adv-x="564" 
d="M233 950c0 9 5 17 12 22l94 58c4 3 8 4 13 4c13 0 25 -11 25 -25c0 -9 -5 -17 -12 -21l-94 -59c-4 -2 -8 -3 -13 -3c-14 0 -25 11 -25 24zM282 865c-25 0 -46 -20 -46 -45c0 -26 21 -46 46 -46s47 20 47 46c0 25 -22 45 -47 45zM282 735c-46 0 -86 37 -86 85
c0 47 40 84 86 84c47 0 87 -37 87 -84c0 -48 -40 -85 -87 -85zM401 274h-238l112 365c1 3 3 6 7 6s6 -3 7 -6zM282 705c-33 0 -60 -18 -70 -50l-191 -620c-1 -3 -1 -6 -1 -9c0 -17 16 -30 33 -30c14 0 28 9 32 22l60 196h275l60 -196c4 -13 18 -22 31 -22c17 0 33 13 33 30
c0 3 0 6 -1 9l-190 620c-10 32 -38 50 -71 50z" />
    <glyph glyph-name="aringacute" unicode="&#x1fb;" horiz-adv-x="540" 
d="M268 51c-81 0 -149 27 -149 119c0 94 66 118 149 118c48 0 96 -5 143 -14v-46c0 -107 -22 -177 -143 -177zM268 533c-44 0 -119 -4 -158 -22c-13 -6 -23 -13 -23 -29c0 -18 16 -30 32 -30c3 0 6 1 10 2c46 11 91 21 139 21c100 0 139 -48 143 -145c-47 9 -95 17 -143 17
c-116 0 -213 -48 -213 -177c0 -127 99 -177 213 -177c55 0 113 14 154 54c49 48 53 116 53 181v70c0 65 -4 133 -53 181c-41 40 -99 54 -154 54zM275 689c-25 0 -47 -20 -47 -45c0 -26 22 -46 47 -46s46 20 46 46c0 25 -21 45 -46 45zM275 559c-47 0 -87 37 -87 85
c0 47 40 84 87 84c46 0 86 -37 86 -84c0 -48 -40 -85 -86 -85zM221 766c0 9 4 17 11 21l94 59c4 2 9 3 13 3c14 0 25 -11 25 -25c0 -8 -4 -16 -12 -21l-93 -58c-4 -3 -9 -4 -13 -4c-14 0 -25 11 -25 25z" />
    <glyph glyph-name="estimated" unicode="&#x212e;" horiz-adv-x="770" 
d="M385 643c179 0 325 -146 325 -325c0 -14 -12 -25 -25 -25h-513c0 -50 1 -100 1 -150c52 -63 130 -100 212 -100c74 0 154 33 203 88c13 14 21 29 32 44c6 8 11 13 22 13c13 0 25 -11 25 -25c0 -4 -1 -8 -3 -12c-53 -99 -169 -158 -279 -158c-179 0 -325 146 -325 325
s146 325 325 325zM385 593c-82 0 -161 -38 -213 -101v-149h425v150c-52 63 -130 100 -212 100z" />
    <glyph glyph-name="uni2113" unicode="&#x2113;" horiz-adv-x="454" 
d="M404 569c0 -135 -133 -261 -223 -349v-58c0 -51 4 -109 69 -109c31 0 68 31 89 31c16 0 32 -13 32 -31c0 -13 -7 -19 -17 -26c-22 -16 -77 -34 -104 -34c-103 0 -133 75 -133 166c-13 -14 -34 -40 -55 -40c-17 0 -32 13 -32 30c0 9 4 15 9 22c24 26 53 49 78 74v302
c0 93 37 190 145 190c97 0 142 -80 142 -168zM181 547v-239c65 67 159 163 159 262c0 50 -18 107 -78 107c-69 0 -81 -76 -81 -130z" />
    <glyph glyph-name="afii61352" unicode="&#x2116;" horiz-adv-x="979" 
d="M904 269h-221c-13 0 -25 10 -25 23s12 23 25 23h221c13 0 25 -10 25 -23s-12 -23 -25 -23zM792 663c-81 0 -84 -63 -84 -126s3 -126 84 -126c80 0 83 63 83 126s-3 126 -83 126zM792 364c-66 0 -121 36 -131 104c-4 22 -5 46 -5 69s1 47 5 69c10 68 65 104 131 104
c65 0 120 -36 130 -104c4 -22 5 -46 5 -69s-1 -47 -5 -69c-10 -68 -65 -104 -130 -104zM163 645c-6 0 -7 -5 -7 -9v-609c0 -18 -16 -31 -33 -31s-33 13 -33 31v601c0 44 26 78 73 78c31 0 56 -16 69 -44l278 -600c2 -3 4 -5 8 -5c6 0 7 5 7 9v609c0 18 16 31 33 31
s33 -13 33 -31v-601c0 -44 -26 -78 -73 -78c-30 0 -56 16 -69 44l-278 600c-2 3 -4 5 -8 5z" />
    <glyph glyph-name="_427" 
 />
    <glyph glyph-name="parenleft.superior" unicode="&#x207d;" horiz-adv-x="201" 
d="M112 620c0 -89 12 -120 53 -196c3 -5 6 -9 6 -15c0 -14 -13 -23 -26 -23c-14 0 -20 6 -26 17c-45 82 -59 120 -59 217s14 135 59 218c6 10 13 16 26 16s26 -10 26 -24c0 -5 -3 -9 -5 -13c-42 -77 -54 -108 -54 -197z" />
    <glyph glyph-name="parenright.superior" unicode="&#x207e;" horiz-adv-x="201" 
d="M56 854c12 0 19 -6 25 -16c46 -83 60 -121 60 -218s-14 -135 -59 -217c-6 -11 -13 -17 -26 -17s-26 9 -26 23c0 6 2 10 5 15c42 76 54 107 54 196s-12 120 -54 197c-3 4 -5 8 -5 13c0 14 13 24 26 24z" />
    <glyph glyph-name="parenleft.inferior" unicode="&#x208d;" horiz-adv-x="201" 
d="M112 52c0 -89 12 -119 53 -195c3 -5 6 -9 6 -15c0 -14 -13 -24 -26 -24c-14 0 -20 7 -26 18c-45 82 -59 120 -59 216c0 97 14 136 59 218c6 11 13 17 26 17s26 -10 26 -24c0 -5 -3 -9 -5 -14c-42 -76 -54 -107 -54 -197z" />
    <glyph glyph-name="parenright.inferior" unicode="&#x208e;" horiz-adv-x="201" 
d="M56 287c12 0 19 -6 25 -17c46 -82 60 -120 60 -218c0 -96 -14 -134 -59 -216c-6 -11 -13 -18 -26 -18s-26 10 -26 24c0 6 2 10 5 15c42 76 54 106 54 195c0 90 -12 121 -54 197c-3 5 -5 9 -5 14c0 14 13 24 26 24z" />
    <glyph glyph-name="arrowleft" unicode="&#x2190;" horiz-adv-x="736" 
d="M149 343h499c18 0 32 -14 32 -32c0 -17 -14 -32 -32 -32h-499l235 -231c6 -6 10 -14 10 -23c0 -18 -15 -32 -32 -32c-9 0 -17 3 -23 9l-265 265c-11 12 -18 28 -18 44c0 17 7 33 18 44l265 265c6 6 14 9 23 9c17 0 32 -14 32 -32c0 -8 -4 -16 -10 -22z" />
    <glyph glyph-name="arrowup" unicode="&#x2191;" horiz-adv-x="736" 
d="M400 524v-499c0 -18 -14 -32 -32 -32s-32 14 -32 32v499l-232 -235c-6 -6 -14 -10 -22 -10c-18 0 -32 15 -32 32c0 9 3 17 9 23l265 265c12 11 28 18 44 18s32 -7 44 -18l265 -265c6 -6 9 -14 9 -23c0 -17 -14 -32 -32 -32c-8 0 -16 4 -22 10z" />
    <glyph glyph-name="arrowright" unicode="&#x2192;" horiz-adv-x="736" 
d="M88 343h499l-235 232c-6 6 -10 14 -10 22c0 18 15 32 32 32c9 0 17 -3 23 -9l265 -265c11 -11 18 -27 18 -44c0 -16 -7 -32 -18 -44l-265 -265c-6 -6 -14 -9 -23 -9c-17 0 -32 14 -32 32c0 9 4 17 10 23l235 231h-499c-18 0 -32 15 -32 32c0 18 14 32 32 32z" />
    <glyph glyph-name="arrowdown" unicode="&#x2193;" horiz-adv-x="736" 
d="M400 585v-499l232 235c6 6 14 10 22 10c18 0 32 -15 32 -32c0 -9 -3 -17 -9 -23l-265 -265c-12 -11 -28 -18 -44 -18s-32 7 -44 18l-265 265c-6 6 -9 14 -9 23c0 17 14 32 32 32c8 0 16 -4 22 -10l232 -235v499c0 18 14 32 32 32s32 -14 32 -32z" />
    <glyph glyph-name="uni2196" unicode="&#x2196;" horiz-adv-x="736" 
d="M548 67l-353 352l3 -330c0 -17 -15 -32 -32 -32c-18 0 -32 15 -32 32v375c0 34 28 62 62 62h374c18 0 32 -14 32 -32s-14 -32 -32 -32l-330 2l353 -352c6 -6 9 -14 9 -23c0 -17 -14 -32 -32 -32c-8 0 -16 4 -22 10z" />
    <glyph glyph-name="uni2197" unicode="&#x2197;" horiz-adv-x="736" 
d="M541 419l-353 -352c-6 -6 -14 -10 -22 -10c-18 0 -32 15 -32 32c0 9 3 17 9 23l353 352l-330 -2c-18 0 -32 14 -32 32s14 32 32 32h374c34 0 62 -28 62 -62v-375c0 -17 -14 -32 -32 -32c-17 0 -32 15 -32 32z" />
    <glyph glyph-name="uni2198" unicode="&#x2198;" horiz-adv-x="736" 
d="M188 522l353 -353l-3 330c0 18 15 32 32 32c18 0 32 -14 32 -32v-375c0 -34 -28 -62 -62 -62h-374c-18 0 -32 15 -32 32c0 18 14 32 32 32l330 -2l-353 352c-6 6 -9 15 -9 23c0 18 14 32 32 32c8 0 16 -3 22 -9z" />
    <glyph glyph-name="uni2199" unicode="&#x2199;" horiz-adv-x="736" 
d="M195 169l353 353c6 6 14 9 22 9c18 0 32 -14 32 -32c0 -8 -3 -17 -9 -23l-353 -352l330 2c18 0 32 -14 32 -32c0 -17 -14 -32 -32 -32h-374c-34 0 -62 28 -62 62v375c0 18 14 32 32 32c17 0 32 -14 32 -32z" />
    <glyph glyph-name="_453" 
 />
    <glyph glyph-name="_454" 
 />
    <glyph glyph-name="zero.oldstyle" unicode="&#xf730;" horiz-adv-x="558" 
d="M279 533c103 0 179 -46 204 -149c10 -39 10 -81 10 -121s0 -82 -10 -121c-25 -103 -101 -149 -204 -149s-179 46 -204 149c-10 39 -10 81 -10 121s0 82 10 121c25 103 101 149 204 149zM279 51c139 0 150 99 150 212s-11 212 -150 212s-150 -99 -150 -212
s11 -212 150 -212z" />
    <glyph glyph-name="one.oldstyle" unicode="&#xf731;" horiz-adv-x="382" 
d="M250 -3c-18 0 -32 14 -32 32v434c-24 -5 -134 -34 -151 -34c-18 0 -32 14 -32 32c0 15 10 28 25 31l153 36c5 1 9 2 14 2c31 0 55 -25 55 -56v-445c0 -18 -15 -32 -32 -32z" />
    <glyph glyph-name="two.oldstyle" unicode="&#xf732;" horiz-adv-x="518" 
d="M120 66c0 -5 5 -8 10 -8h301c17 0 32 -12 32 -29s-15 -29 -32 -29h-305c-38 0 -71 26 -71 65c0 22 11 44 29 56l104 72v0c46 31 155 101 182 150c6 12 9 25 9 39c0 75 -67 93 -130 93c-51 0 -91 -19 -135 -42c-5 -3 -11 -5 -17 -5c-17 0 -32 13 -32 30c0 11 5 20 14 26
c48 31 114 49 170 49c97 0 194 -42 194 -151c0 -78 -64 -126 -120 -169c-31 -24 -63 -46 -95 -68l-102 -71c-3 -2 -6 -4 -6 -8z" />
    <glyph glyph-name="three.oldstyle" unicode="&#xf733;" horiz-adv-x="537" 
d="M356 221c76 -28 116 -88 116 -168c0 -131 -102 -196 -224 -196c-53 0 -142 21 -187 50c-10 6 -16 14 -16 27c0 17 15 29 32 29c6 0 11 -1 16 -4c49 -23 100 -44 155 -44c90 0 160 40 160 138c0 94 -70 137 -158 137h-42c-16 0 -32 12 -32 29c0 18 16 29 32 29h42
c72 0 137 33 137 113c0 82 -61 114 -135 114c-51 0 -93 -19 -137 -42c-5 -2 -11 -4 -17 -4c-17 0 -32 12 -32 30c0 12 5 19 15 25c41 30 120 49 171 49c108 0 199 -55 199 -172c0 -66 -36 -114 -95 -140z" />
    <glyph glyph-name="four.oldstyle" unicode="&#xf734;" horiz-adv-x="521" 
d="M388 95h61c17 0 32 -12 32 -30c0 -17 -15 -29 -32 -29h-61v-150c0 -17 -16 -29 -32 -29c-17 0 -32 12 -32 29v150h-210c-37 0 -68 28 -68 66c0 11 3 23 8 33l221 379c5 10 17 16 28 16c16 0 32 -13 32 -30c0 -4 -2 -9 -4 -13c-18 -31 -222 -379 -222 -386c0 -5 5 -6 9 -6
h206v192c0 17 15 29 32 29c16 0 32 -12 32 -29v-192z" />
    <glyph glyph-name="five.oldstyle" unicode="&#xf735;" horiz-adv-x="517" 
d="M139 268h99c129 0 224 -71 224 -206s-95 -205 -224 -205c-53 0 -142 21 -187 50c-10 6 -16 14 -16 27c0 17 15 29 32 29c6 0 11 -1 16 -4c49 -23 100 -44 155 -44c97 0 160 46 160 147s-63 148 -160 148h-106c-30 0 -58 20 -58 52c0 3 1 5 1 8l33 204c5 31 36 52 66 52
h216c16 0 32 -12 32 -29s-16 -29 -32 -29h-217l-2 -2z" />
    <glyph glyph-name="six.oldstyle" unicode="&#xf736;" horiz-adv-x="540" 
d="M283 404c123 0 217 -78 217 -205c0 -128 -94 -206 -217 -206c-124 0 -218 78 -218 206c0 174 98 380 255 465c5 2 11 4 17 4c16 0 32 -12 32 -29c0 -12 -6 -18 -15 -25c-17 -11 -34 -21 -50 -34c-70 -58 -125 -142 -156 -227c37 33 85 51 135 51zM283 51
c90 0 153 55 153 148c0 92 -63 147 -153 147c-91 0 -154 -55 -154 -147c0 -93 63 -148 154 -148z" />
    <glyph glyph-name="seven.oldstyle" unicode="&#xf737;" horiz-adv-x="486" 
d="M394 526c26 0 52 -16 52 -45c0 -8 -2 -13 -5 -21c-8 -19 -18 -38 -27 -56c-20 -44 -40 -87 -59 -131c-44 -97 -79 -201 -112 -302c-10 -31 -18 -62 -28 -92c-5 -14 -16 -22 -31 -22c-16 0 -32 12 -32 29c0 2 0 5 1 7c18 65 40 130 62 194c25 70 50 141 81 209
c26 57 52 115 79 172h-323c-16 0 -32 12 -32 29s16 29 32 29h342z" />
    <glyph glyph-name="eight.oldstyle" unicode="&#xf738;" horiz-adv-x="571" 
d="M395 358c69 -32 108 -93 108 -169c0 -126 -99 -196 -217 -196c-119 0 -218 70 -218 196c0 77 40 138 110 170c-55 27 -85 77 -85 138c0 110 90 171 193 171c102 0 192 -61 192 -171c0 -60 -29 -111 -83 -139zM286 610c-70 0 -129 -38 -129 -113s59 -112 129 -112
c69 0 128 37 128 112s-59 113 -128 113zM286 51c85 0 153 47 153 138c0 90 -68 138 -153 138s-154 -48 -154 -138c0 -91 69 -138 154 -138z" />
    <glyph glyph-name="nine.oldstyle" unicode="&#xf739;" horiz-adv-x="540" 
d="M411 326c0 93 -63 148 -153 148c-91 0 -154 -56 -154 -148s63 -147 154 -147c90 0 153 55 153 147zM258 532c123 0 217 -79 217 -206c0 -183 -93 -373 -255 -465c-5 -3 -11 -4 -17 -4c-16 0 -32 12 -32 29s13 22 25 30c86 56 150 140 185 236c-37 -22 -80 -31 -123 -31
c-123 0 -218 78 -218 205s95 206 218 206z" />
    <glyph glyph-name="_465" 
 />
    <glyph glyph-name="zero.fitted" unicode="&#xf639;" horiz-adv-x="570" 
d="M285 651c-94 0 -148 -57 -158 -147c-6 -51 -8 -102 -8 -153s2 -102 8 -153c10 -90 64 -147 158 -147s148 57 158 147c6 51 8 102 8 153s-2 102 -8 153c-10 90 -64 147 -158 147zM285 -7c-125 0 -207 76 -222 199c-7 52 -8 106 -8 159s1 107 8 159c15 123 97 199 222 199
s207 -76 222 -199c7 -52 8 -106 8 -159s-1 -107 -8 -159c-15 -123 -97 -199 -222 -199z" />
    <glyph glyph-name="one.fitted" unicode="&#xf6dc;" horiz-adv-x="414" 
d="M257 -3c-17 0 -32 11 -32 29v619c-26 -6 -146 -38 -164 -38c-16 0 -31 11 -31 29c0 14 10 25 24 29l165 39c6 1 11 2 16 2c31 0 54 -19 54 -51v-629c0 -18 -16 -29 -32 -29z" />
    <glyph glyph-name="two.fitted" unicode="&#xf63a;" horiz-adv-x="544" 
d="M104 66c0 -5 2 -8 7 -8h346c16 0 32 -12 32 -29s-16 -29 -32 -29h-350c-37 0 -69 27 -69 65c0 18 8 35 20 47l211 215c46 47 138 130 138 202c0 88 -62 122 -142 122c-54 0 -100 -21 -148 -45c-5 -3 -11 -5 -17 -5c-17 0 -32 13 -32 30c0 12 5 20 15 26
c47 32 126 52 182 52c114 0 206 -58 206 -180c0 -99 -88 -176 -152 -241l-212 -216c-1 -1 -3 -4 -3 -6z" />
    <glyph glyph-name="three.fitted" unicode="&#xf63b;" horiz-adv-x="541" 
d="M366 380c77 -32 120 -97 120 -180c0 -140 -107 -207 -236 -207c-57 0 -151 23 -199 53c-10 6 -16 15 -16 27c0 17 15 29 32 29c6 0 11 -1 16 -4c53 -25 107 -47 167 -47c96 0 172 44 172 149c0 102 -78 149 -172 149h-43c-17 0 -32 12 -32 29s15 29 32 29h47
c78 0 146 35 146 122c0 90 -67 122 -146 122c-55 0 -101 -21 -148 -45c-5 -3 -11 -5 -17 -5c-17 0 -32 13 -32 30c0 12 6 19 15 26c44 31 128 52 182 52c113 0 210 -56 210 -180c0 -69 -35 -122 -98 -149z" />
    <glyph glyph-name="four.fitted" unicode="&#xf63c;" horiz-adv-x="549" 
d="M406 195h68c16 0 32 -12 32 -29s-16 -29 -32 -29h-68v-111c0 -18 -15 -29 -32 -29c-16 0 -32 11 -32 29v111h-230c-37 0 -69 25 -69 63c0 11 3 22 8 32l244 457c5 11 17 17 29 17c16 0 32 -12 32 -30c0 -4 -1 -8 -4 -12c-18 -35 -246 -459 -246 -464c0 -3 4 -5 7 -5h229
v237c0 17 16 29 32 29c17 0 32 -12 32 -29v-237z" />
    <glyph glyph-name="five.fitted" unicode="&#xf63d;" horiz-adv-x="554" 
d="M155 428h108c136 0 236 -75 236 -218c0 -142 -100 -217 -236 -217c-57 0 -151 23 -199 53c-10 6 -16 15 -16 27c0 17 15 29 32 29c6 0 11 -1 16 -4c53 -24 107 -47 167 -47c102 0 172 52 172 159c0 108 -70 160 -172 160h-115c-30 0 -58 20 -58 52c0 2 0 5 1 8l36 220
c5 31 36 52 66 52h228c16 0 32 -12 32 -29s-16 -29 -32 -29h-228c-1 0 -2 -2 -2 -3z" />
    <glyph glyph-name="six.fitted" unicode="&#xf63e;" horiz-adv-x="560" 
d="M284 428c132 0 231 -84 231 -219c0 -134 -100 -216 -229 -216c-132 0 -231 83 -231 219c0 187 110 369 252 486c7 5 14 8 22 8c17 0 32 -12 32 -30c0 -8 -4 -15 -10 -21c-17 -16 -35 -31 -52 -48c-63 -64 -118 -138 -151 -222c39 30 87 43 136 43zM286 51
c96 0 165 59 165 158c0 100 -69 160 -167 160c-96 0 -165 -59 -165 -158c0 -100 69 -160 167 -160z" />
    <glyph glyph-name="seven.fitted" unicode="&#xf63f;" horiz-adv-x="507" 
d="M403 702c35 0 69 -22 69 -60c0 -27 -60 -154 -70 -178c-43 -97 -83 -196 -120 -295c-19 -51 -36 -102 -56 -152c-5 -14 -16 -20 -30 -20c-17 0 -32 9 -32 27c0 4 0 7 1 11c53 152 113 303 177 451c4 10 66 149 66 156v1c-1 1 -3 1 -4 1h-347c-16 0 -32 12 -32 29
s16 29 32 29h346z" />
    <glyph glyph-name="eight.fitted" unicode="&#xf640;" horiz-adv-x="570" 
d="M399 381c74 -34 116 -99 116 -181c0 -133 -105 -207 -230 -207s-230 74 -230 207c0 82 42 147 116 181c-58 30 -89 83 -89 148c0 116 95 180 203 180s203 -64 203 -180c0 -65 -31 -118 -89 -148zM285 651c-76 0 -139 -41 -139 -122c0 -82 63 -122 139 -122
s139 40 139 122c0 81 -63 122 -139 122zM285 51c92 0 166 51 166 149s-74 149 -166 149s-166 -51 -166 -149s74 -149 166 -149z" />
    <glyph glyph-name="nine.fitted" unicode="&#xf641;" horiz-adv-x="565" 
d="M281 274c-132 0 -231 83 -231 219c0 133 100 216 229 216c132 0 231 -83 231 -219c0 -187 -106 -369 -248 -485c-7 -6 -14 -8 -23 -8c-16 0 -32 11 -32 29c0 8 4 15 10 21c17 16 36 31 52 48c63 64 115 139 148 222c-39 -30 -87 -43 -136 -43zM279 651
c-96 0 -165 -60 -165 -158c0 -100 69 -161 167 -161c96 0 165 60 165 159s-69 160 -167 160z" />
    <glyph glyph-name="zero.taboldstyle" unicode="&#xf643;" horiz-adv-x="558" 
d="M279 533c103 0 179 -46 204 -149c10 -39 10 -81 10 -121s0 -82 -10 -121c-25 -103 -101 -149 -204 -149s-179 46 -204 149c-10 39 -10 81 -10 121s0 82 10 121c25 103 101 149 204 149zM279 51c139 0 150 99 150 212s-11 212 -150 212s-150 -99 -150 -212
s11 -212 150 -212z" />
    <glyph glyph-name="one.taboldstyle" unicode="&#xf644;" horiz-adv-x="558" 
d="M310 -3c-18 0 -32 14 -32 32v434c-24 -5 -134 -34 -151 -34c-18 0 -32 14 -32 32c0 15 10 28 25 31l153 36c5 1 9 2 14 2c31 0 55 -25 55 -56v-445c0 -18 -15 -32 -32 -32z" />
    <glyph glyph-name="two.taboldstyle" unicode="&#xf645;" horiz-adv-x="558" 
d="M140 66c0 -5 5 -8 9 -8h302c16 0 32 -12 32 -29s-16 -29 -32 -29h-306c-37 0 -70 26 -70 65c0 22 11 44 29 56l103 72h1c45 31 155 101 181 150c7 12 10 25 10 39c0 75 -67 93 -130 93c-51 0 -91 -19 -135 -42c-6 -3 -11 -5 -17 -5c-17 0 -32 13 -32 30c0 11 5 20 14 26
c48 31 113 49 170 49c96 0 194 -42 194 -151c0 -78 -64 -126 -121 -169c-30 -24 -62 -46 -94 -68l-102 -71c-3 -2 -6 -4 -6 -8z" />
    <glyph glyph-name="three.taboldstyle" unicode="&#xf646;" horiz-adv-x="558" 
d="M372 221c76 -28 116 -88 116 -168c0 -131 -102 -196 -224 -196c-53 0 -142 21 -187 50c-10 6 -16 14 -16 27c0 17 15 29 32 29c6 0 11 -1 16 -4c49 -23 100 -44 155 -44c90 0 160 40 160 138c0 94 -70 137 -158 137h-42c-16 0 -32 12 -32 29c0 18 16 29 32 29h42
c72 0 137 33 137 113c0 82 -61 114 -135 114c-51 0 -93 -19 -137 -42c-5 -2 -11 -4 -17 -4c-17 0 -32 12 -32 30c0 12 5 19 15 25c41 30 120 49 171 49c108 0 199 -55 199 -172c0 -66 -36 -114 -95 -140z" />
    <glyph glyph-name="four.taboldstyle" unicode="&#xf647;" horiz-adv-x="558" 
d="M395 95h61c17 0 32 -12 32 -30c0 -17 -15 -29 -32 -29h-61v-150c0 -17 -16 -29 -32 -29c-17 0 -32 12 -32 29v150h-210c-37 0 -68 28 -68 66c0 11 3 23 8 33l221 379c5 10 17 16 28 16c16 0 32 -13 32 -30c0 -4 -2 -9 -4 -13c-18 -31 -222 -379 -222 -386c0 -5 5 -6 9 -6
h206v192c0 17 15 29 32 29c16 0 32 -12 32 -29v-192z" />
    <glyph glyph-name="five.taboldstyle" unicode="&#xf648;" horiz-adv-x="558" 
d="M164 268h99c129 0 224 -71 224 -206s-95 -205 -224 -205c-53 0 -142 21 -187 50c-10 6 -16 14 -16 27c0 17 15 29 32 29c6 0 11 -1 16 -4c49 -23 100 -44 155 -44c97 0 160 46 160 147s-63 148 -160 148h-106c-30 0 -58 20 -58 52c0 3 1 5 1 8l33 204c5 31 36 52 66 52
h216c16 0 32 -12 32 -29s-16 -29 -32 -29h-217l-2 -2z" />
    <glyph glyph-name="six.taboldstyle" unicode="&#xf649;" horiz-adv-x="558" 
d="M286 404c123 0 217 -78 217 -205c0 -128 -94 -206 -217 -206c-124 0 -218 78 -218 206c0 174 98 380 255 465c5 2 11 4 17 4c16 0 32 -12 32 -29c0 -12 -6 -18 -15 -25c-17 -11 -34 -21 -50 -34c-70 -58 -125 -142 -156 -227c37 33 85 51 135 51zM286 51
c90 0 153 55 153 148c0 92 -63 147 -153 147c-91 0 -154 -55 -154 -147c0 -93 63 -148 154 -148z" />
    <glyph glyph-name="seven.taboldstyle" unicode="&#xf64a;" horiz-adv-x="558" 
d="M433 526c26 0 52 -16 52 -45c0 -8 -2 -13 -5 -21c-8 -19 -18 -38 -27 -56c-20 -44 -40 -87 -59 -131c-44 -97 -79 -201 -112 -302c-10 -31 -18 -62 -28 -92c-5 -14 -16 -22 -31 -22c-16 0 -32 12 -32 29c0 2 0 5 1 7c18 65 40 130 62 194c25 70 50 141 81 209
c26 57 52 115 79 172h-323c-16 0 -32 12 -32 29s16 29 32 29h342z" />
    <glyph glyph-name="eight.taboldstyle" unicode="&#xf64b;" horiz-adv-x="558" 
d="M388 358c69 -32 109 -93 109 -169c0 -126 -100 -196 -218 -196s-218 70 -218 196c0 77 41 138 111 170c-55 27 -86 77 -86 138c0 110 91 171 193 171s193 -61 193 -171c0 -60 -30 -111 -84 -139zM279 610c-70 0 -129 -38 -129 -113s59 -112 129 -112s129 37 129 112
s-59 113 -129 113zM279 51c85 0 154 47 154 138c0 90 -69 138 -154 138s-154 -48 -154 -138c0 -91 69 -138 154 -138z" />
    <glyph glyph-name="nine.taboldstyle" unicode="&#xf64c;" horiz-adv-x="558" 
d="M286 532c123 0 217 -79 217 -206c0 -183 -93 -373 -255 -465c-5 -3 -11 -4 -17 -4c-16 0 -32 12 -32 29s13 22 25 30c86 56 150 140 185 236c-37 -22 -80 -31 -123 -31c-123 0 -218 78 -218 205s95 206 218 206zM439 326c0 92 -63 148 -153 148s-154 -56 -154 -148
s64 -147 154 -147s153 55 153 147z" />
    <glyph glyph-name="_487" horiz-adv-x="120" 
 />
    <glyph glyph-name="parenleft.cap" unicode="&#xf6ae;" horiz-adv-x="259" 
d="M140 350c0 -169 17 -232 83 -383c3 -6 6 -12 6 -19c0 -16 -15 -27 -30 -27c-18 0 -25 11 -32 25c-68 157 -87 229 -87 404c0 177 19 249 88 407c6 14 14 24 31 24c15 0 30 -11 30 -27c0 -6 -3 -12 -5 -17c-67 -152 -84 -216 -84 -387z" />
    <glyph glyph-name="parenright.cap" unicode="&#xf6af;" horiz-adv-x="259" 
d="M60 781c17 0 25 -10 31 -24c69 -158 88 -229 88 -407c0 -175 -19 -247 -88 -404c-6 -14 -13 -25 -31 -25c-15 0 -30 11 -30 27c0 7 3 13 6 19c66 151 83 215 83 383c0 171 -17 235 -84 387c-2 5 -5 11 -5 17c0 16 15 27 30 27z" />
    <glyph glyph-name="bracketleft.cap" unicode="&#xf6b0;" horiz-adv-x="313" 
d="M253 -72h-103c-31 0 -60 22 -60 54v737c0 33 29 55 60 55h103c15 0 30 -11 30 -27s-15 -28 -30 -28h-103v-737h103c15 0 30 -11 30 -27s-15 -27 -30 -27z" />
    <glyph glyph-name="bracketright.cap" unicode="&#xf6b1;" horiz-adv-x="313" 
d="M163 -72h-103c-15 0 -30 11 -30 27s15 27 30 27h103v737h-103c-15 0 -30 12 -30 28s15 27 30 27h103c30 0 60 -22 60 -55v-737c0 -32 -30 -54 -60 -54z" />
    <glyph glyph-name="braceleft.cap" unicode="&#xf6b2;" horiz-adv-x="314" 
d="M148 461c0 64 -18 126 -18 190c0 82 39 130 124 130c15 0 30 -11 30 -27s-15 -27 -30 -27c-54 0 -64 -29 -64 -76c0 -61 17 -120 17 -181c0 -44 -8 -98 -53 -119c45 -20 53 -76 53 -119c0 -61 -17 -120 -17 -181c0 -48 10 -76 64 -76c15 0 30 -11 30 -27s-15 -27 -30 -27
c-85 0 -124 48 -124 130c0 64 18 126 18 190c0 128 -98 51 -98 110s98 -18 98 110z" />
    <glyph glyph-name="braceright.cap" unicode="&#xf6b3;" horiz-adv-x="314" 
d="M165 461c0 -128 99 -51 99 -110s-99 18 -99 -110c0 -64 18 -126 18 -190c0 -82 -38 -130 -123 -130c-15 0 -30 11 -30 27s15 27 30 27c54 0 63 28 63 76c0 61 -16 120 -16 181c0 43 8 99 52 119c-44 21 -52 75 -52 119c0 61 16 120 16 181c0 47 -9 76 -63 76
c-15 0 -30 11 -30 27s15 27 30 27c85 0 123 -48 123 -130c0 -64 -18 -126 -18 -190z" />
    <glyph glyph-name="at.cap" unicode="&#xf633;" horiz-adv-x="830" 
d="M415 764c161 0 298 -67 331 -236c11 -58 16 -118 16 -177c0 -98 -13 -236 -142 -236c-45 0 -84 23 -102 66c-35 -41 -84 -66 -139 -66c-118 0 -163 79 -163 188c0 154 71 280 238 280c23 0 137 -9 133 -52l-24 -273v-12c0 -36 15 -76 57 -76c82 0 82 125 82 181
s-4 113 -15 168c-27 142 -139 190 -272 190c-134 0 -245 -48 -272 -190c-11 -55 -15 -112 -15 -168s4 -113 15 -169c27 -141 138 -190 272 -190c91 0 150 16 233 50c4 2 9 3 13 3c16 0 30 -11 30 -27c0 -12 -7 -19 -17 -25c-13 -7 -30 -13 -44 -18
c-73 -27 -137 -37 -215 -37c-161 0 -299 67 -331 235c-12 59 -16 119 -16 178s4 119 16 177c32 169 170 236 331 236zM379 170c75 0 122 61 128 131l19 216c-23 8 -48 12 -72 12c-136 0 -178 -108 -178 -227c0 -74 19 -132 103 -132z" />
    <glyph glyph-name="exclamdown.cap" unicode="&#xf6b4;" horiz-adv-x="226" 
d="M113 525c18 0 33 -13 33 -30v-472c0 -16 -15 -30 -33 -30s-33 14 -33 30v472c0 17 15 30 33 30zM113 709c18 0 33 -13 33 -30v-24c0 -16 -15 -30 -33 -30s-33 14 -33 30v24c0 17 15 30 33 30z" />
    <glyph glyph-name="questiondown.cap" unicode="&#xf6b5;" horiz-adv-x="437" 
d="M264 525c18 0 33 -13 33 -30c0 -85 -22 -143 -74 -192c-83 -77 -107 -107 -107 -156c0 -57 45 -94 114 -94c42 0 82 14 115 35c6 4 12 6 19 6c10 0 20 -4 27 -12c4 -6 6 -12 6 -19c0 -10 -5 -19 -13 -25c-44 -29 -98 -45 -154 -45c-106 0 -180 63 -180 154
c0 77 45 123 125 198c40 37 56 81 56 150c0 17 15 30 33 30zM264 709c18 0 33 -13 33 -30v-24c0 -16 -15 -30 -33 -30s-33 14 -33 30v24c0 17 15 30 33 30z" />
    <glyph glyph-name="hyphen.cap" unicode="&#xf6ba;" horiz-adv-x="362" 
d="M304 326h-256c-14 0 -28 10 -28 25s14 25 28 25h256c14 0 28 -10 28 -25s-14 -25 -28 -25z" />
    <glyph glyph-name="endash.cap" unicode="&#xf6bb;" horiz-adv-x="567" 
d="M509 326h-461c-14 0 -28 10 -28 25s14 25 28 25h461c14 0 28 -10 28 -25s-14 -25 -28 -25z" />
    <glyph glyph-name="emdash.cap" unicode="&#xf6bc;" horiz-adv-x="1043" 
d="M985 326h-937c-14 0 -28 10 -28 25s14 25 28 25h937c15 0 28 -10 28 -25s-13 -25 -28 -25z" />
    <glyph glyph-name="periodcentered.cap" unicode="&#xf6bd;" horiz-adv-x="166" 
d="M126 351c0 -24 -19 -43 -43 -43s-43 19 -43 43s19 43 43 43s43 -19 43 -43z" />
    <glyph glyph-name="guillemotleft.cap" unicode="&#xf6b6;" horiz-adv-x="387" 
d="M329 113c-9 0 -19 5 -24 13l-124 196c-5 9 -8 19 -8 29s3 20 8 29l124 196c5 8 15 13 24 13c15 0 28 -11 28 -26c0 -5 -1 -9 -4 -13l-123 -196l-1 -3l1 -3l123 -196c3 -4 4 -8 4 -13c0 -15 -13 -26 -28 -26zM186 113c-10 0 -19 5 -24 13l-124 196c-5 9 -8 19 -8 29
s3 20 8 29l124 196c5 8 14 13 24 13c14 0 28 -11 28 -26c0 -5 -1 -9 -4 -13l-124 -196v-3v-3l124 -196c3 -4 4 -8 4 -13c0 -15 -14 -26 -28 -26z" />
    <glyph glyph-name="guillemotright.cap" unicode="&#xf6b7;" horiz-adv-x="387" 
d="M58 113c-14 0 -28 11 -28 26c0 5 1 9 4 13l124 196v4l-1 2l-123 196c-3 4 -4 8 -4 13c0 15 14 26 28 26c10 0 19 -5 24 -13l124 -196c5 -9 8 -19 8 -29s-3 -20 -8 -29l-124 -196c-5 -8 -14 -13 -24 -13zM201 113c-14 0 -28 11 -28 26c0 5 2 9 4 13l124 196v4v2l-124 196
c-2 4 -4 8 -4 13c0 15 14 26 28 26c10 0 19 -5 24 -13l124 -196c6 -9 8 -19 8 -29s-2 -20 -8 -29l-124 -196c-5 -8 -14 -13 -24 -13z" />
    <glyph glyph-name="guilsinglleft.cap" unicode="&#xf6b8;" horiz-adv-x="244" 
d="M186 113c-10 0 -19 5 -24 13l-124 196c-5 9 -8 19 -8 29s3 20 8 29l124 196c5 8 14 13 24 13c14 0 28 -11 28 -26c0 -5 -1 -9 -4 -13l-124 -196v-3v-3l124 -196c3 -4 4 -8 4 -13c0 -15 -14 -26 -28 -26z" />
    </font>
</defs>
</svg>
