<svg width="26" height="35" viewBox="0 0 26 35" fill="none" xmlns="http://www.w3.org/2000/svg">
<path fill-rule="evenodd" clip-rule="evenodd" d="M8.06487 27.8028C10.7649 29.4028 12.3649 31.8028 11.5649 33.3028C10.7649 34.7028 7.86487 34.6028 5.06487 33.0028C2.36487 31.4028 0.764866 29.0028 1.56487 27.5028C2.46487 26.1028 5.36487 26.2028 8.06487 27.8028Z" fill="url(#paint0_radial_581_336)"/>
<path fill-rule="evenodd" clip-rule="evenodd" d="M11.6649 33.1028C10.8649 34.4028 8.06492 34.2028 5.26492 32.6028C2.46492 31.0028 0.864919 28.7028 1.66492 27.4028C2.96492 29.7028 7.56492 32.9028 11.6649 33.1028Z" fill="#677C88"/>
<path opacity="0.15" fill-rule="evenodd" clip-rule="evenodd" d="M16.2648 8.10278L15.5648 9.3028C14.5648 11.0028 14.9648 10.5028 13.3648 11.8028C12.3648 12.5028 11.5648 12.8028 10.3648 13.0028C6.86479 13.6028 3.66481 15.0028 1.76481 18.2028C0.96481 19.5028 0.664798 21.0028 0.564798 22.5028C0.464798 26.2028 2.66479 29.6028 5.86479 31.5028C9.06479 33.3028 13.0648 33.5028 16.2648 31.6028C17.5648 30.8028 18.6648 29.8028 19.3648 28.5028C21.2648 25.3028 20.7648 21.8028 19.5648 18.5028C19.1648 17.4028 18.9648 16.5028 19.1648 15.3028C19.4648 13.3028 19.2648 13.9028 20.1648 12.2028L20.8648 11.0028C19.9648 10.8028 19.0648 10.3028 18.2648 9.9028C17.6648 9.3028 16.8648 8.80278 16.2648 8.10278Z" fill="white"/>
<path fill-rule="evenodd" clip-rule="evenodd" d="M11 16C16.5208 16 21 18.0455 21 20.5C21 22.9546 16.5208 25 11 25C5.47917 25 1 22.9546 1 20.5C1 18.0455 5.47917 16 11 16Z" fill="#449134"/>
<path fill-rule="evenodd" clip-rule="evenodd" d="M10.665 24.9028C5.36499 24.9028 1.06498 22.9028 1.06498 20.5028C1.06498 20.3028 1.06499 20.1028 1.16499 19.9028C0.864987 20.7028 0.764993 21.6028 0.764993 22.5028C0.664993 26.2028 2.86498 29.6028 6.06498 31.5028C9.26498 33.3028 13.265 33.5028 16.465 31.6028C17.765 30.8028 18.865 29.8028 19.565 28.5028C21.165 25.8028 21.065 22.9028 20.265 20.1028C20.265 20.3028 20.365 20.4028 20.365 20.6028C20.265 22.9028 15.965 24.9028 10.665 24.9028Z" fill="#1E7B32"/>
<path fill-rule="evenodd" clip-rule="evenodd" d="M18.665 22.4028C18.665 20.1028 14.665 18.3028 9.66504 18.3028C5.66504 18.3028 2.36504 19.5028 1.16504 21.1028C1.76504 23.3028 5.76505 25.0028 10.765 25.0028C14.065 25.0028 16.965 24.2028 18.665 23.1028C18.665 22.8028 18.665 22.6028 18.665 22.4028Z" fill="#75AD5E"/>
<path fill-rule="evenodd" clip-rule="evenodd" d="M16.1651 22.8028C16.1651 20.8028 12.6651 19.3028 8.46512 19.3028C5.16512 19.3028 2.46514 20.2028 1.26514 21.5028C2.26514 23.4028 6.06513 24.9028 10.6651 24.9028C12.4651 24.9028 14.0651 24.7028 15.4651 24.3028C15.9651 23.8028 16.1651 23.3028 16.1651 22.8028Z" fill="#B7D069"/>
<path fill-rule="evenodd" clip-rule="evenodd" d="M10.665 24.9028C6.16503 24.9028 2.36503 23.5028 1.26503 21.5028C1.16503 21.3028 1.16502 21.2028 1.06502 21.0028C0.965021 21.4028 0.965015 21.9028 0.965015 22.3028C0.865015 25.6028 2.86503 28.6028 5.66503 30.2028C8.46503 31.8028 11.965 32.0028 14.765 30.3028C15.865 29.6028 16.865 28.7028 17.465 27.5028C18.365 26.0028 18.665 24.5028 18.565 22.9028C17.765 23.4028 16.665 23.9028 15.465 24.2028C14.065 24.7028 12.465 24.9028 10.665 24.9028Z" fill="#468E63"/>
<path fill-rule="evenodd" clip-rule="evenodd" d="M10.6651 24.9028C6.16513 24.9028 2.36514 23.5028 1.26514 21.5028C1.26514 21.5028 1.26511 21.4028 1.36511 21.4028V21.3028C1.36511 21.4028 1.36511 21.4028 1.36511 21.5028C1.36511 21.8028 1.26514 22.1028 1.26514 22.4028C1.26514 25.1028 2.76512 27.5028 5.06512 28.8028C7.36512 30.1028 10.2651 30.2028 12.5651 28.9028C13.4651 28.3028 14.2651 27.6028 14.7651 26.6028C15.1651 25.8028 15.4651 25.0028 15.5651 24.2028C14.0651 24.7028 12.4651 24.9028 10.6651 24.9028Z" fill="#ACC87D"/>
<path fill-rule="evenodd" clip-rule="evenodd" d="M21.165 12.5028L21.965 11.0028C21.765 11.0028 21.565 10.9028 21.465 10.9028C21.265 10.9028 21.065 10.8028 20.965 10.8028L20.265 12.0028C19.065 14.2028 18.765 15.9028 19.665 18.4028C20.865 21.7028 21.265 25.1028 19.465 28.3028C18.765 29.6028 17.665 30.6028 16.365 31.4028C13.165 33.3028 9.26501 33.1028 6.06501 31.3028C2.86501 29.5028 0.764998 26.1028 0.864998 22.4028C0.864998 20.9028 1.26501 19.5028 2.06501 18.2028C3.86501 15.0028 7.06501 13.7028 10.565 13.1028C11.065 13.0028 11.465 13.1028 11.765 13.3028C12.665 14.0028 13.365 15.1028 14.865 15.8028C13.965 15.1028 12.765 13.6028 12.765 12.8028C12.765 12.6028 12.865 12.4028 12.965 12.3028C14.165 11.7028 14.965 10.7028 15.865 9.3028L16.565 8.10278C16.465 8.00278 16.265 7.80279 16.165 7.70279C16.065 7.60279 15.965 7.5028 15.865 7.3028L14.965 8.8028C13.765 10.7028 12.765 11.6028 10.465 12.0028C6.665 12.7028 3.26502 14.2028 1.26502 17.6028C-1.53498 22.5028 0.465022 29.0028 5.76502 32.1028C11.065 35.2028 17.665 33.7028 20.465 28.7028C22.465 25.3028 22.065 21.6028 20.765 17.9028C19.765 15.8028 20.065 14.5028 21.165 12.5028Z" fill="url(#paint1_radial_581_336)"/>
<path fill-rule="evenodd" clip-rule="evenodd" d="M19.7651 13.1028C19.2651 14.8028 19.3651 15.9028 19.5651 16.9028C19.6651 18.0028 19.9651 19.1028 20.3651 21.1028C19.5651 19.1028 18.8651 17.8028 18.7651 16.8028C18.7651 16.1028 18.9651 14.7028 19.7651 13.1028Z" fill="url(#paint2_linear_581_336)"/>
<path opacity="0.5" fill-rule="evenodd" clip-rule="evenodd" d="M18.8651 9.20279L21.1651 10.5028C19.3651 13.6028 16.8651 15.6028 15.5651 14.9028C14.2651 14.2028 14.7651 11.0028 16.5651 7.9028L18.8651 9.20279Z" fill="url(#paint3_radial_581_336)"/>
<path opacity="0.5" fill-rule="evenodd" clip-rule="evenodd" d="M17.9652 8.60278L19.0652 9.3028C17.8652 11.3028 16.3652 12.6028 15.7652 12.3028C15.1652 11.9028 15.7652 10.0028 16.9652 8.00278L17.9652 8.60278Z" fill="url(#paint4_radial_581_336)"/>
<path opacity="0.5" fill-rule="evenodd" clip-rule="evenodd" d="M17.7649 8.60278L18.2649 9.00278C17.4649 10.4028 16.4649 11.4028 16.1649 11.2028C15.8649 11.0028 16.2649 9.70279 17.1649 8.20279L17.7649 8.60278Z" fill="url(#paint5_radial_581_336)"/>
<path opacity="0.5" fill-rule="evenodd" clip-rule="evenodd" d="M21.0649 12.6028C20.7649 13.1028 19.265 12.4028 17.765 11.0028C16.265 9.60278 15.2649 8.00278 15.5649 7.50278C16.1649 8.30278 17.1649 9.1028 18.4649 9.9028C19.7649 10.6028 21.0649 11.1028 21.9649 11.2028L21.0649 12.6028Z" fill="#7F8E99"/>
<path fill-rule="evenodd" clip-rule="evenodd" d="M23.465 11.2028C22.865 11.9028 20.5651 11.4028 18.2651 10.1028C15.9651 8.80278 14.365 7.00279 14.665 6.20279C14.965 5.40279 15.665 4.3028 16.165 3.8028L20.465 6.3028L24.7651 8.8028C24.5651 9.4028 24.065 10.6028 23.465 11.2028ZM23.465 8.50278L20.2651 6.70279L17.065 4.9028C16.665 5.4028 16.965 5.00278 16.665 5.60278C15.465 7.70278 21.965 11.4028 23.165 9.3028C23.465 8.7028 23.165 9.10278 23.465 8.50278Z" fill="url(#paint6_radial_581_336)"/>
<path opacity="0.15" fill-rule="evenodd" clip-rule="evenodd" d="M23.2649 9.3028C23.6649 8.7028 23.4649 8.90278 23.6649 8.50278L20.3649 6.60278L17.0649 4.70279C16.7649 5.10279 16.9649 4.80278 16.5649 5.50278C15.2649 7.70278 21.9649 11.5028 23.2649 9.3028Z" fill="white"/>
<path fill-rule="evenodd" clip-rule="evenodd" d="M22.2651 9.3028C21.9651 9.7028 20.5651 9.40278 19.1651 8.60278C17.7651 7.80278 16.8651 6.8028 16.9651 6.3028C16.9651 6.1028 17.2651 5.6028 17.5651 4.9028L23.1651 8.20279C22.8651 8.60279 22.5651 9.1028 22.2651 9.3028Z" fill="#93765E"/>
<path fill-rule="evenodd" clip-rule="evenodd" d="M10.7649 33.2028C7.66486 33.5028 3.16484 31.2028 1.96484 28.1028C3.86484 30.7028 7.76486 32.9028 10.7649 33.2028Z" fill="url(#paint7_linear_581_336)"/>
<path fill-rule="evenodd" clip-rule="evenodd" d="M14.0649 32.4028C17.5649 31.0028 19.6649 28.2028 20.5649 24.7028C20.4649 28.8028 17.9649 31.9028 14.0649 32.4028Z" fill="#1E7B32"/>
<path fill-rule="evenodd" clip-rule="evenodd" d="M15.465 7.10278C15.365 6.30278 16.465 4.80278 16.965 4.10278L16.265 3.70279C15.765 4.30279 14.965 5.30278 14.765 6.10278C14.465 6.90278 15.765 8.50279 17.865 9.70279C16.865 9.10279 15.665 8.00278 15.465 7.10278Z" fill="url(#paint8_radial_581_336)"/>
<path fill-rule="evenodd" clip-rule="evenodd" d="M21.365 4.80279C23.765 6.20279 25.265 7.90277 24.865 8.60277C24.465 9.30277 22.1651 8.90277 19.7651 7.50277C17.3651 6.10277 15.8651 4.40278 16.2651 3.70278C16.7651 3.00278 18.965 3.50279 21.365 4.80279Z" fill="url(#paint9_radial_581_336)"/>
<path fill-rule="evenodd" clip-rule="evenodd" d="M23.6652 9.00278C22.6652 9.10278 21.1652 8.60278 19.5652 7.60278C18.9652 7.30278 18.4652 6.90278 18.0652 6.60278C17.7652 6.90278 17.3652 7.00279 17.0652 6.70279C16.7652 6.40279 16.5652 5.8028 16.7652 5.4028C16.2652 4.7028 15.9652 4.1028 16.1652 3.8028C16.1652 3.8028 16.1652 3.80279 16.1652 3.70279C15.8652 4.50279 17.4652 6.10278 19.8652 7.50278C21.3652 8.30278 22.7652 8.80278 23.6652 9.00278Z" fill="white"/>
<path fill-rule="evenodd" clip-rule="evenodd" d="M23.4651 7.70279C23.0651 8.10279 21.6651 7.8028 20.0651 6.9028C18.5651 6.0028 17.5651 5.0028 17.6651 4.4028C17.7651 4.0028 19.0651 1.10278 19.7651 0.0027771L25.4651 4.9028C24.8651 5.9028 24.1651 6.90279 23.4651 7.70279Z" fill="#B1A499"/>
<path fill-rule="evenodd" clip-rule="evenodd" d="M23.4648 7.20279C23.1648 7.60279 21.7648 7.3028 20.3648 6.4028C18.9648 5.6028 18.0648 4.60279 18.1648 4.20279C18.2648 3.80279 19.4648 1.3028 19.9648 0.302795L25.1648 4.70279C24.6648 5.60279 24.1648 6.40279 23.4648 7.20279Z" fill="#B1A499"/>
<path fill-rule="evenodd" clip-rule="evenodd" d="M22.5648 2.70279C21.3648 4.70279 20.2648 5.70278 19.3648 5.00278C18.4648 4.30278 18.9648 2.4028 20.1648 0.402802L22.5648 2.70279Z" fill="#EADDD2"/>
<path fill-rule="evenodd" clip-rule="evenodd" d="M20.1652 4.3028C20.5652 4.4028 20.8652 4.60279 20.8652 5.00279C20.8652 5.40279 20.6652 5.80281 20.3652 5.90281C20.0652 6.00281 19.6652 5.50279 19.6652 5.00279C19.4652 4.60279 19.7652 4.2028 20.1652 4.3028Z" fill="url(#paint10_linear_581_336)"/>
<path fill-rule="evenodd" clip-rule="evenodd" d="M23.8652 5.60278C24.0652 5.90278 23.8652 6.50278 23.5652 6.70278C23.1652 6.90278 22.6652 6.80277 22.4652 6.50277C22.2652 6.30277 22.4652 5.80278 22.8652 5.60278C23.1652 5.30278 23.6652 5.30278 23.8652 5.60278Z" fill="url(#paint11_linear_581_336)"/>
<path opacity="0.25" fill-rule="evenodd" clip-rule="evenodd" d="M23.165 1.70278C21.565 0.402779 20.065 -0.397222 19.765 0.202779C19.565 0.502779 19.765 1.10278 20.165 1.70278C19.965 1.90278 19.865 2.50279 20.165 2.90279C20.465 3.30279 21.065 3.30277 21.365 3.10277C21.565 3.30277 21.765 3.50277 21.965 3.60277C23.665 5.00277 25.165 5.50279 25.465 4.90279C25.865 4.50279 24.765 3.00278 23.165 1.70278Z" fill="#EDCAA6"/>
<path fill-rule="evenodd" clip-rule="evenodd" d="M23.165 1.60278C24.765 2.90278 25.7649 4.40277 25.4649 5.00277C25.1649 5.50277 23.565 4.90278 22.065 3.60278C20.465 2.30278 19.465 0.802782 19.765 0.202782C20.065 -0.297218 21.565 0.302776 23.165 1.60278Z" fill="#9E8168"/>
<path fill-rule="evenodd" clip-rule="evenodd" d="M22.6651 1.40279C23.9651 2.50279 24.8651 3.70278 24.5651 4.20278C24.2651 4.60278 23.0651 4.10277 21.7651 3.00277C20.4651 1.90277 19.565 0.702782 19.865 0.202782C20.065 -0.297218 21.3651 0.302795 22.6651 1.40279Z" fill="#B1A499"/>
<path fill-rule="evenodd" clip-rule="evenodd" d="M21.8652 0.902811C22.3652 1.30281 22.6652 1.70281 22.5652 1.90281C22.4652 2.10281 21.9652 1.90279 21.4652 1.50279C20.9652 1.10279 20.6653 0.702787 20.7653 0.502787C20.8653 0.402787 21.3652 0.602811 21.8652 0.902811Z" fill="url(#paint12_linear_581_336)"/>
<path fill-rule="evenodd" clip-rule="evenodd" d="M22.865 2.90282C23.265 3.20282 23.465 3.5028 23.365 3.6028C23.265 3.7028 22.965 3.60282 22.565 3.40282C22.165 3.10282 21.965 2.8028 22.065 2.7028C22.165 2.5028 22.565 2.60282 22.865 2.90282Z" fill="url(#paint13_linear_581_336)"/>
<path fill-rule="evenodd" clip-rule="evenodd" d="M24.6652 3.50277C25.0652 3.80277 25.2652 4.2028 25.1652 4.4028C25.0652 4.6028 24.6652 4.40278 24.2652 4.10278C23.8652 3.80278 23.6652 3.40279 23.7652 3.20279C23.8652 3.10279 24.2652 3.20277 24.6652 3.50277Z" fill="url(#paint14_linear_581_336)"/>
<path fill-rule="evenodd" clip-rule="evenodd" d="M21.2649 3.00278C20.9649 3.20278 20.6649 3.1028 20.3649 2.8028C20.0649 2.4028 20.0649 2.0028 20.2649 1.8028C20.4649 1.6028 20.9649 1.80279 21.2649 2.20279C21.5649 2.50279 21.5649 2.80278 21.2649 3.00278Z" fill="url(#paint15_linear_581_336)"/>
<path fill-rule="evenodd" clip-rule="evenodd" d="M19.3648 26.5028C17.4648 31.3028 12.0648 33.6028 6.96484 31.3028C11.2648 31.2028 15.9648 29.7028 19.3648 26.5028Z" fill="#659E56"/>
<defs>
<radialGradient id="paint0_radial_581_336" cx="0" cy="0" r="1" gradientUnits="userSpaceOnUse" gradientTransform="translate(-1.62903 22.4555) scale(17.2771 17.2771)">
<stop stop-color="white"/>
<stop offset="1" stop-color="#5F699F"/>
</radialGradient>
<radialGradient id="paint1_radial_581_336" cx="0" cy="0" r="1" gradientUnits="userSpaceOnUse" gradientTransform="translate(9.45732 12.4419) scale(39.0734 39.0734)">
<stop stop-color="#CFE9EB"/>
<stop offset="1" stop-color="#5B6CB2"/>
</radialGradient>
<linearGradient id="paint2_linear_581_336" x1="19.0185" y1="13.0648" x2="21.124" y2="27.2219" gradientUnits="userSpaceOnUse">
<stop stop-color="white"/>
<stop offset="1" stop-color="#020203"/>
</linearGradient>
<radialGradient id="paint3_radial_581_336" cx="0" cy="0" r="1" gradientUnits="userSpaceOnUse" gradientTransform="translate(11.4037 6.8462) scale(11.5897 11.5897)">
<stop stop-color="white"/>
<stop offset="1" stop-color="#020203"/>
</radialGradient>
<radialGradient id="paint4_radial_581_336" cx="0" cy="0" r="1" gradientUnits="userSpaceOnUse" gradientTransform="translate(15.0919 8.37998) scale(6.22928 6.22933)">
<stop stop-color="white"/>
<stop offset="1" stop-color="#020203"/>
</radialGradient>
<radialGradient id="paint5_radial_581_336" cx="0" cy="0" r="1" gradientUnits="userSpaceOnUse" gradientTransform="translate(16.1435 8.90009) scale(4.48131 4.4813)">
<stop stop-color="white"/>
<stop offset="1" stop-color="#020203"/>
</radialGradient>
<radialGradient id="paint6_radial_581_336" cx="0" cy="0" r="1" gradientUnits="userSpaceOnUse" gradientTransform="translate(16.8 3.7071) scale(13.7713 13.7713)">
<stop stop-color="#CFE9EB"/>
<stop offset="1" stop-color="#374F83"/>
</radialGradient>
<linearGradient id="paint7_linear_581_336" x1="1.61564" y1="28.5875" x2="10.517" y2="33.9083" gradientUnits="userSpaceOnUse">
<stop stop-color="white"/>
<stop offset="1" stop-color="#020203"/>
</linearGradient>
<radialGradient id="paint8_radial_581_336" cx="0" cy="0" r="1" gradientUnits="userSpaceOnUse" gradientTransform="translate(18.9314 7.55459) scale(5.36836 5.3684)">
<stop stop-color="#020203"/>
<stop offset="1" stop-color="white"/>
</radialGradient>
<radialGradient id="paint9_radial_581_336" cx="0" cy="0" r="1" gradientUnits="userSpaceOnUse" gradientTransform="translate(16.3267 3.55098) scale(16.0505 16.0505)">
<stop stop-color="#F3FAFC"/>
<stop offset="1" stop-color="#6B79B9"/>
</radialGradient>
<linearGradient id="paint10_linear_581_336" x1="20.72" y1="5.65881" x2="19.6134" y2="4.55222" gradientUnits="userSpaceOnUse">
<stop stop-color="#B99263"/>
<stop offset="1" stop-color="#704925"/>
</linearGradient>
<linearGradient id="paint11_linear_581_336" x1="23.6768" y1="6.59778" x2="22.734" y2="5.65498" gradientUnits="userSpaceOnUse">
<stop stop-color="#B17A38"/>
<stop offset="1" stop-color="#704925"/>
</linearGradient>
<linearGradient id="paint12_linear_581_336" x1="20.7462" y1="1.2276" x2="22.5767" y2="1.2276" gradientUnits="userSpaceOnUse">
<stop stop-color="#9D856F"/>
<stop offset="1" stop-color="#88653B"/>
</linearGradient>
<linearGradient id="paint13_linear_581_336" x1="22.0951" y1="3.118" x2="23.4184" y2="3.118" gradientUnits="userSpaceOnUse">
<stop stop-color="#9E8C7C"/>
<stop offset="1" stop-color="#88653B"/>
</linearGradient>
<linearGradient id="paint14_linear_581_336" x1="23.7788" y1="3.81879" x2="25.2547" y2="3.81879" gradientUnits="userSpaceOnUse">
<stop stop-color="#927B68"/>
<stop offset="1" stop-color="#88653B"/>
</linearGradient>
<linearGradient id="paint15_linear_581_336" x1="21.3204" y1="2.98128" x2="20.1824" y2="1.84328" gradientUnits="userSpaceOnUse">
<stop stop-color="#897155"/>
<stop offset="1" stop-color="#71563D"/>
</linearGradient>
</defs>
</svg>
