<svg width="27" height="27" viewBox="0 0 27 27" fill="none" xmlns="http://www.w3.org/2000/svg">
<g clip-path="url(#clip0_103_979)">
<path d="M26.9999 13.3337C26.9999 5.96969 21.0665 0 13.7472 0C6.42793 0 0.494507 5.96969 0.494507 13.3337C0.494507 19.9888 5.3408 25.5051 11.6765 26.5054V17.1879H8.31152V13.3337H11.6765V10.3961C11.6765 7.05435 13.655 5.20847 16.6822 5.20847C18.1317 5.20847 19.6488 5.46889 19.6488 5.46889V8.75023H17.9777C16.3315 8.75023 15.8179 9.77812 15.8179 10.8336V13.3337H19.4935L18.9059 17.1879H15.8179V26.5054C22.1536 25.5051 26.9999 19.9888 26.9999 13.3337Z" fill="#969696"/>
</g>
<defs>
<clipPath id="clip0_103_979">
<rect width="26.5054" height="26.5054" fill="white" transform="translate(0.494507)"/>
</clipPath>
</defs>
</svg>
