<svg width="27" height="27" viewBox="0 0 27 27" fill="none" xmlns="http://www.w3.org/2000/svg">
<g clip-path="url(#clip0_103_981)">
<path fill-rule="evenodd" clip-rule="evenodd" d="M18.7053 7.23143C17.3093 5.92637 15.4462 5.21541 13.5185 5.24463C9.99111 5.24463 6.99529 7.57716 5.92711 10.718V10.7181C5.36074 12.364 5.36074 14.1463 5.92711 15.7923H5.93207C7.0052 18.9283 9.99606 21.2608 13.5235 21.2608C15.3443 21.2608 16.9075 20.8043 18.1191 19.998V19.9948C19.545 19.0695 20.5187 17.6135 20.8218 15.9676H13.5185V10.8642H26.2719C26.4309 11.7505 26.5054 12.6562 26.5054 13.5571C26.5054 17.588 25.0357 20.9959 22.4785 23.3041L22.4812 23.3061C20.2405 25.3319 17.1652 26.5054 13.5185 26.5054C8.40623 26.5054 3.73115 23.681 1.43584 19.2059V19.2058C-0.481873 15.4611 -0.481869 11.0492 1.43585 7.30451H1.43588L1.43584 7.30448C3.73115 2.82442 8.40623 3.8591e-05 13.5185 3.8591e-05C16.877 -0.0389184 20.1213 1.19797 22.5656 3.44773L18.7053 7.23143Z" fill="#969696"/>
</g>
<defs>
<clipPath id="clip0_103_981">
<rect width="26.5054" height="26.5054" fill="white"/>
</clipPath>
</defs>
</svg>
