<svg width="27" height="28" viewBox="0 0 27 28" fill="none" xmlns="http://www.w3.org/2000/svg">
<g clip-path="url(#clip0_103_986)">
<path d="M13.4995 3.1768C17.0405 3.1768 17.4598 3.19233 18.8524 3.25446C20.1466 3.3114 20.8455 3.52883 21.3114 3.71002C21.9274 3.94815 22.3726 4.23805 22.8334 4.69879C23.2993 5.16471 23.584 5.60474 23.8221 6.22078C24.0033 6.6867 24.2208 7.39074 24.2777 8.67978C24.3398 10.0775 24.3554 10.4968 24.3554 14.0326C24.3554 17.5736 24.3398 17.9929 24.2777 19.3855C24.2208 20.6797 24.0033 21.3785 23.8221 21.8445C23.584 22.4605 23.2941 22.9057 22.8334 23.3664C22.3674 23.8324 21.9274 24.1171 21.3114 24.3552C20.8455 24.5364 20.1414 24.7538 18.8524 24.8108C17.4546 24.8729 17.0353 24.8884 13.4995 24.8884C9.95858 24.8884 9.53926 24.8729 8.14669 24.8108C6.85248 24.7538 6.15361 24.5364 5.68769 24.3552C5.07165 24.1171 4.62644 23.8272 4.1657 23.3664C3.69979 22.9005 3.41506 22.4605 3.17693 21.8445C2.99574 21.3785 2.77831 20.6745 2.72137 19.3855C2.65925 17.9877 2.64371 17.5684 2.64371 14.0326C2.64371 10.4917 2.65925 10.0723 2.72137 8.67978C2.77831 7.38557 2.99574 6.6867 3.17693 6.22078C3.41506 5.60474 3.70497 5.15953 4.1657 4.69879C4.63162 4.23288 5.07165 3.94815 5.68769 3.71002C6.15361 3.52883 6.85766 3.3114 8.14669 3.25446C9.53926 3.19233 9.95858 3.1768 13.4995 3.1768ZM13.4995 0.790283C9.90163 0.790283 9.45125 0.805814 8.03797 0.867936C6.62988 0.930058 5.66181 1.15784 4.82316 1.48398C3.94828 1.82565 3.20799 2.27603 2.47288 3.01632C1.73259 3.75143 1.28221 4.49172 0.940537 5.36143C0.614397 6.20525 0.386616 7.16814 0.324494 8.57624C0.262372 9.99469 0.246841 10.4451 0.246841 14.043C0.246841 17.6409 0.262372 18.0913 0.324494 19.5045C0.386616 20.9126 0.614397 21.8807 0.940537 22.7193C1.28221 23.5942 1.73259 24.3345 2.47288 25.0696C3.20799 25.8047 3.94828 26.2603 4.81798 26.5968C5.66181 26.9229 6.6247 27.1507 8.0328 27.2128C9.44607 27.275 9.89646 27.2905 13.4944 27.2905C17.0923 27.2905 17.5426 27.275 18.9559 27.2128C20.364 27.1507 21.3321 26.9229 22.1707 26.5968C23.0404 26.2603 23.7807 25.8047 24.5158 25.0696C25.2509 24.3345 25.7065 23.5942 26.043 22.7245C26.3691 21.8807 26.5969 20.9178 26.659 19.5097C26.7212 18.0964 26.7367 17.646 26.7367 14.0482C26.7367 10.4503 26.7212 9.99987 26.659 8.58659C26.5969 7.17849 26.3691 6.21043 26.043 5.37178C25.7169 4.49172 25.2665 3.75143 24.5262 3.01632C23.7911 2.28121 23.0508 1.82565 22.1811 1.48916C21.3373 1.16302 20.3744 0.935235 18.9663 0.873113C17.5478 0.805814 17.0974 0.790283 13.4995 0.790283Z" fill="#969696"/>
<path d="M13.4995 7.23544C9.74116 7.23544 6.692 10.2846 6.692 14.043C6.692 17.8014 9.74116 20.8505 13.4995 20.8505C17.2579 20.8505 20.3071 17.8014 20.3071 14.043C20.3071 10.2846 17.2579 7.23544 13.4995 7.23544ZM13.4995 18.4588C11.0612 18.4588 9.0837 16.4813 9.0837 14.043C9.0837 11.6047 11.0612 9.62714 13.4995 9.62714C15.9378 9.62714 17.9154 11.6047 17.9154 14.043C17.9154 16.4813 15.9378 18.4588 13.4995 18.4588Z" fill="#969696"/>
<path d="M22.1655 6.96621C22.1655 7.84627 21.4511 8.5555 20.5763 8.5555C19.6962 8.5555 18.987 7.8411 18.987 6.96621C18.987 6.08615 19.7014 5.37692 20.5763 5.37692C21.4511 5.37692 22.1655 6.09133 22.1655 6.96621Z" fill="#969696"/>
</g>
<defs>
<clipPath id="clip0_103_986">
<rect width="26.5054" height="26.5054" fill="white" transform="translate(0.246841 0.790283)"/>
</clipPath>
</defs>
</svg>
