<svg width="27" height="28" viewBox="0 0 27 28" fill="none" xmlns="http://www.w3.org/2000/svg">
<g clip-path="url(#clip0_103_991)">
<path d="M25.0376 0.790283H2.45107C1.36912 0.790283 0.494232 1.64446 0.494232 2.70053V25.3802C0.494232 26.4363 1.36912 27.2957 2.45107 27.2957H25.0376C26.1195 27.2957 26.9996 26.4363 26.9996 25.3854V2.70053C26.9996 1.64446 26.1195 0.790283 25.0376 0.790283ZM8.35784 23.3768H4.42345V10.7246H8.35784V23.3768ZM6.39064 9.00074C5.1275 9.00074 4.10766 7.9809 4.10766 6.72293C4.10766 5.46496 5.1275 4.44513 6.39064 4.44513C7.64861 4.44513 8.66845 5.46496 8.66845 6.72293C8.66845 7.97573 7.64861 9.00074 6.39064 9.00074ZM23.0807 23.3768H19.1515V17.2267C19.1515 15.7617 19.1256 13.8721 17.1067 13.8721C15.0618 13.8721 14.7512 15.4718 14.7512 17.1232V23.3768H10.8272V10.7246H14.5959V12.4537H14.6477C15.1705 11.4597 16.4544 10.4088 18.3647 10.4088C22.3456 10.4088 23.0807 13.0283 23.0807 16.4347V23.3768Z" fill="#969696"/>
</g>
<defs>
<clipPath id="clip0_103_991">
<rect width="26.5054" height="26.5054" fill="white" transform="translate(0.494232 0.790283)"/>
</clipPath>
</defs>
</svg>
