<svg width="22" height="17" viewBox="0 0 22 17" fill="none" xmlns="http://www.w3.org/2000/svg">
<rect y="0.5" width="22" height="16" rx="2" fill="white"/>
<mask id="mask0_103_554" style="mask-type:alpha" maskUnits="userSpaceOnUse" x="0" y="0" width="22" height="17">
<rect y="0.5" width="22" height="16" rx="2" fill="white"/>
</mask>
<g mask="url(#mask0_103_554)">
<rect y="0.5" width="22" height="16" fill="#0A17A7"/>
<path fill-rule="evenodd" clip-rule="evenodd" d="M5.24352 11.1667L-2.17935 16.2645L-1.00771 18.0331L8.38094 11.5852V17.5667H13.619V11.5852L23.0077 18.0331L24.1794 16.2645L16.7565 11.1667H22V5.83334H16.7562L24.1792 0.735411L23.0076 -1.0332L13.619 5.4146V-0.566659H8.38094V5.41458L-1.00759 -1.0332L-2.17923 0.73541L5.24379 5.83334H-9.53674e-06V11.1667H5.24352Z" fill="white"/>
<path d="M14.6678 5.56572L24.6191 -1.10004" stroke="#DB1F35" stroke-width="0.666667" stroke-linecap="round"/>
<path d="M15.7242 11.4581L24.6451 17.5803" stroke="#DB1F35" stroke-width="0.666667" stroke-linecap="round"/>
<path d="M6.29003 5.54836L-3.0152 -0.836792" stroke="#DB1F35" stroke-width="0.666667" stroke-linecap="round"/>
<path d="M7.29929 11.3839L-3.0152 18.3484" stroke="#DB1F35" stroke-width="0.666667" stroke-linecap="round"/>
<path fill-rule="evenodd" clip-rule="evenodd" d="M0 10.1H9.42857V16.5H12.5714V10.1H22V6.9H12.5714V0.5H9.42857V6.9H0V10.1Z" fill="#E6273E"/>
</g>
</svg>
