<svg width="19" height="19" viewBox="0 0 19 19" fill="none" xmlns="http://www.w3.org/2000/svg">
<path d="M18.657 7.43686C18.5339 7.04992 18.1979 6.77597 17.802 6.73937L12.4022 6.23856L10.2681 1.1345C10.1105 0.75951 9.75204 0.517487 9.353 0.517487C8.95396 0.517487 8.59531 0.75951 8.43875 1.1345L6.3047 6.23856L0.903984 6.73937C0.508085 6.7767 0.172842 7.05065 0.0489634 7.43686C-0.0742018 7.82381 0.039544 8.24822 0.338965 8.51649L4.42083 12.1729L3.21729 17.5881C3.12923 17.9863 3.28051 18.398 3.60391 18.6368C3.77774 18.7659 3.98197 18.8303 4.18691 18.8303C4.36303 18.8303 4.53928 18.7825 4.6967 18.6863L9.353 15.8421L14.0084 18.6863C14.35 18.8948 14.7794 18.8757 15.1021 18.6368C15.4255 18.398 15.5768 17.9863 15.4887 17.5881L14.2852 12.1729L18.367 8.51649C18.6663 8.24822 18.7802 7.82468 18.657 7.43686Z" fill="#F05050"/>
</svg>
