<svg width="27" height="27" viewBox="0 0 27 27" fill="none" xmlns="http://www.w3.org/2000/svg">
<g clip-path="url(#clip0_103_994)">
<path d="M13.5001 26.5054C20.8211 26.5054 26.7528 20.5737 26.7528 13.2527C26.7528 5.93168 20.8211 0 13.5001 0C6.17907 0 0.247391 5.93168 0.247391 13.2527C0.247391 20.5737 6.17907 26.5054 13.5001 26.5054ZM6.3116 12.9655L19.0894 8.03886C19.6825 7.82461 20.2004 8.18354 20.0083 9.0803L20.0094 9.0792L17.8337 19.329C17.6725 20.0557 17.2407 20.2324 16.6365 19.8901L13.3234 17.4483L11.7253 18.9878C11.5486 19.1645 11.3995 19.3136 11.0572 19.3136L11.2924 15.9419L17.4328 10.3945C17.7001 10.1593 17.3732 10.0268 17.0209 10.2609L9.43261 15.0385L6.1614 14.018C5.45128 13.7927 5.43582 13.3079 6.3116 12.9655Z" fill="#969696"/>
</g>
<defs>
<clipPath id="clip0_103_994">
<rect width="26.5054" height="26.5054" fill="white" transform="translate(0.247391)"/>
</clipPath>
</defs>
</svg>
