<svg width="27" height="28" viewBox="0 0 27 28" fill="none" xmlns="http://www.w3.org/2000/svg">
<g clip-path="url(#clip0_103_984)">
<path d="M8.33832 24.8108C18.3379 24.8108 23.8088 16.5242 23.8088 9.34035C23.8088 9.1074 23.8036 8.86926 23.7932 8.6363C24.8575 7.86665 25.7759 6.91334 26.5054 5.82114C25.5142 6.26213 24.4619 6.55013 23.3843 6.67532C24.5189 5.99521 25.3684 4.92678 25.7754 3.6681C24.708 4.30068 23.5407 4.74692 22.3235 4.98767C21.5034 4.11625 20.4191 3.53927 19.2381 3.34593C18.0572 3.15259 16.8455 3.35366 15.7903 3.91805C14.7351 4.48245 13.8952 5.37873 13.4005 6.46833C12.9058 7.55793 12.7838 8.78016 13.0534 9.94604C10.892 9.83758 8.77763 9.27613 6.8472 8.29807C4.91678 7.32002 3.21344 5.9472 1.84761 4.26861C1.15343 5.46547 0.941003 6.88174 1.25352 8.22959C1.56603 9.57744 2.38003 10.7557 3.53008 11.525C2.66669 11.4976 1.82222 11.2651 1.06643 10.8468V10.9141C1.06565 12.1701 1.49987 13.3876 2.29527 14.3597C3.09066 15.3318 4.19815 15.9984 5.42946 16.2462C4.62967 16.4651 3.79025 16.497 2.97616 16.3394C3.32361 17.4196 3.99963 18.3644 4.90987 19.0418C5.8201 19.7193 6.91914 20.0957 8.0536 20.1185C6.12763 21.6314 3.74849 22.452 1.29938 22.4481C0.865055 22.4474 0.431153 22.4208 0 22.3684C2.48803 23.9646 5.38228 24.8123 8.33832 24.8108Z" fill="#969696"/>
</g>
<defs>
<clipPath id="clip0_103_984">
<rect width="26.5054" height="26.5054" fill="white" transform="translate(0 0.790283)"/>
</clipPath>
</defs>
</svg>
