<svg width="36" height="36" viewBox="0 0 36 36" fill="none" xmlns="http://www.w3.org/2000/svg">
<path d="M34.875 18C34.875 8.68022 27.3198 1.125 18 1.125C8.68022 1.125 1.125 8.68022 1.125 18C1.125 27.3198 8.68022 34.875 18 34.875C27.3198 34.875 34.875 27.3198 34.875 18ZM7.65858 28.3414C5.10197 25.7772 3.59161 22.3529 3.42182 18.7359C3.25202 15.1188 4.43495 11.5681 6.74009 8.77565C9.04524 5.98316 12.3075 4.1489 15.8912 3.63029C19.4748 3.11169 23.1232 3.94587 26.1255 5.97032C29.1277 7.99476 31.2687 11.0644 32.1312 14.5812C32.9938 18.098 32.5162 21.8099 30.7914 24.9938C29.0666 28.1776 26.2183 30.6053 22.8013 31.8037C19.3844 33.0022 15.6436 32.8856 12.308 31.4766C10.5699 30.7423 8.99089 29.6775 7.65858 28.3414Z" fill="white"/>
<path d="M19.0528 10.0068L17.4618 11.5978L22.7389 16.875L9.56248 16.875L9.56248 19.125L22.7389 19.125L17.4618 24.4022L19.0528 25.9932L27.0459 18L19.0528 10.0068Z" fill="white"/>
</svg>
